<?xml version="1.0" encoding="UTF-8" standalone="no"?>
<!DOCTYPE svg PUBLIC "-//W3C//DTD SVG 1.1//EN"
 "http://www.w3.org/Graphics/SVG/1.1/DTD/svg11.dtd">
<!-- Generated by graphviz version 2.40.1 (20161225.0304)
 -->
<!-- Title: gko::Perturbation&lt; ValueType &gt; Pages: 1 -->
<!--zoomable 334 -->
<svg id="main" version="1.1" xmlns="http://www.w3.org/2000/svg" xmlns:xlink="http://www.w3.org/1999/xlink" xml:space="preserve" onload="init(evt)">
<style type="text/css"><![CDATA[
.edge:hover path { stroke: red; }
.edge:hover polygon { stroke: red; fill: red; }
]]></style>
<script type="text/javascript"><![CDATA[
var edges = document.getElementsByTagName('g');
if (edges && edges.length) {
  for (var i=0;i<edges.length;i++) {
    if (edges[i].id.substr(0,4)=='edge') {
      edges[i].setAttribute('class','edge');
    }
  }
}
]]></script>
        <defs>
                <circle id="rim" cx="0" cy="0" r="7"/>
                <circle id="rim2" cx="0" cy="0" r="3.5"/>
                <g id="zoomPlus">
                        <use xlink:href="#rim" fill="#404040">
                                <set attributeName="fill" to="#808080" begin="zoomplus.mouseover" end="zoomplus.mouseout"/>
                        </use>
                        <path d="M-4,0h8M0,-4v8" fill="none" stroke="white" stroke-width="1.5" pointer-events="none"/>
                </g>
                <g id="zoomMin">
                        <use xlink:href="#rim" fill="#404040">
                                <set attributeName="fill" to="#808080" begin="zoomminus.mouseover" end="zoomminus.mouseout"/>
                        </use>
                        <path d="M-4,0h8" fill="none" stroke="white" stroke-width="1.5" pointer-events="none"/>
                </g>
                <g id="dirArrow">
                        <path fill="none" stroke="white" stroke-width="1.5" d="M0,-3.0v7 M-2.5,-0.5L0,-3.0L2.5,-0.5"/>
                </g>
               <g id="resetDef">
                       <use xlink:href="#rim2" fill="#404040">
                               <set attributeName="fill" to="#808080" begin="reset.mouseover" end="reset.mouseout"/>
                       </use>
               </g>
        </defs>

<script type="text/javascript">
var viewWidth = 2244;
var viewHeight = 334;
var sectionId = 'dynsection-0';
</script>
<script xlink:href="svgpan.js"/>
<svg id="graph" class="graph">
<g id="viewport">
<title>gko::Perturbation&lt; ValueType &gt;</title>
<polygon fill="#ffffff" stroke="transparent" points="-4,4 -4,-329.5 2240,-329.5 2240,4 -4,4"/>
<!-- Node1 -->
<g id="node1" class="node">
<title>Node1</title>
<g id="a_node1"><a xlink:title="The Perturbation class can be used to construct a LinOp to represent the operation (identity + scalar...">
<polygon fill="#bfbfbf" stroke="#000000" points="2127,-82.5 2127,-112.5 2236,-112.5 2236,-82.5 2127,-82.5"/>
<text text-anchor="start" x="2135" y="-100.5" font-family="Helvetica,sans-Serif" font-size="10.00" fill="#000000">gko::Perturbation&lt;</text>
<text text-anchor="middle" x="2181.5" y="-89.5" font-family="Helvetica,sans-Serif" font-size="10.00" fill="#000000"> ValueType &gt;</text>
</a>
</g>
</g>
<!-- Node2 -->
<g id="node2" class="node">
<title>Node2</title>
<g id="a_node2"><a xlink:href="classgko_1_1EnableLinOp.html" target="_top" xlink:title=" ">
<polygon fill="#ffffff" stroke="#000000" points="1917,-116.5 1917,-146.5 2090,-146.5 2090,-116.5 1917,-116.5"/>
<text text-anchor="start" x="1925" y="-134.5" font-family="Helvetica,sans-Serif" font-size="10.00" fill="#000000">gko::EnableLinOp&lt; Perturbation</text>
<text text-anchor="middle" x="2003.5" y="-123.5" font-family="Helvetica,sans-Serif" font-size="10.00" fill="#000000">&lt; ValueType &gt; &gt;</text>
</a>
</g>
</g>
<!-- Node2&#45;&gt;Node1 -->
<g id="edge1" class="edge">
<title>Node2&#45;&gt;Node1</title>
<path fill="none" stroke="#191970" d="M2092.0322,-114.5893C2103.8915,-112.3241 2115.7619,-110.0567 2126.801,-107.9481"/>
<polygon fill="#191970" stroke="#191970" points="2091.2573,-111.174 2082.0915,-116.4881 2092.5706,-118.0497 2091.2573,-111.174"/>
</g>
<!-- Node3 -->
<g id="node3" class="node">
<title>Node3</title>
<g id="a_node3"><a xlink:href="classgko_1_1EnablePolymorphicObject.html" target="_top" xlink:title=" ">
<polygon fill="#ffffff" stroke="#000000" points="1557,-207 1557,-248 1723,-248 1723,-207 1557,-207"/>
<text text-anchor="start" x="1565" y="-236" font-family="Helvetica,sans-Serif" font-size="10.00" fill="#000000">gko::EnablePolymorphicObject</text>
<text text-anchor="start" x="1565" y="-225" font-family="Helvetica,sans-Serif" font-size="10.00" fill="#000000">&lt; Perturbation&lt; ValueType</text>
<text text-anchor="middle" x="1640" y="-214" font-family="Helvetica,sans-Serif" font-size="10.00" fill="#000000"> &gt;, LinOp &gt;</text>
</a>
</g>
</g>
<!-- Node3&#45;&gt;Node2 -->
<g id="edge2" class="edge">
<title>Node3&#45;&gt;Node2</title>
<path fill="none" stroke="#191970" d="M1730.6549,-204.464C1780.4102,-191.7165 1843.1686,-175.4671 1899,-160.5 1915.6401,-156.0392 1933.735,-151.0624 1950.119,-146.5083"/>
<polygon fill="#191970" stroke="#191970" points="1729.7028,-201.0948 1720.8832,-206.9654 1731.4388,-207.8762 1729.7028,-201.0948"/>
</g>
<!-- Node4 -->
<g id="node4" class="node">
<title>Node4</title>
<g id="a_node4"><a xlink:href="classgko_1_1EnableAbstractPolymorphicObject.html" target="_top" xlink:title=" ">
<polygon fill="#ffffff" stroke="#000000" points="1329.5,-268 1329.5,-309 1509.5,-309 1509.5,-268 1329.5,-268"/>
<text text-anchor="start" x="1337.5" y="-297" font-family="Helvetica,sans-Serif" font-size="10.00" fill="#000000">gko::EnableAbstractPolymorphic</text>
<text text-anchor="start" x="1337.5" y="-286" font-family="Helvetica,sans-Serif" font-size="10.00" fill="#000000">Object&lt; Perturbation&lt; ValueType</text>
<text text-anchor="middle" x="1419.5" y="-275" font-family="Helvetica,sans-Serif" font-size="10.00" fill="#000000"> &gt;, LinOp &gt;</text>
</a>
</g>
</g>
<!-- Node4&#45;&gt;Node3 -->
<g id="edge3" class="edge">
<title>Node4&#45;&gt;Node3</title>
<path fill="none" stroke="#191970" d="M1503.729,-265.1985C1524.098,-259.5636 1545.7236,-253.581 1565.6039,-248.0812"/>
<polygon fill="#191970" stroke="#191970" points="1502.5486,-261.8936 1493.8438,-267.9332 1504.4151,-268.6402 1502.5486,-261.8936"/>
</g>
<!-- Node5 -->
<g id="node5" class="node">
<title>Node5</title>
<g id="a_node5"><a xlink:href="classgko_1_1LinOp.html" target="_top" xlink:title=" ">
<polygon fill="#ffffff" stroke="#000000" points="988.5,-274 988.5,-293 1056.5,-293 1056.5,-274 988.5,-274"/>
<text text-anchor="middle" x="1022.5" y="-281" font-family="Helvetica,sans-Serif" font-size="10.00" fill="#000000">gko::LinOp</text>
</a>
</g>
</g>
<!-- Node5&#45;&gt;Node4 -->
<g id="edge4" class="edge">
<title>Node5&#45;&gt;Node4</title>
<path fill="none" stroke="#191970" d="M1066.7192,-284.0569C1129.8764,-284.8523 1247.3248,-286.3315 1329.2837,-287.3638"/>
<polygon fill="#191970" stroke="#191970" points="1066.7349,-280.5569 1056.6916,-283.9306 1066.6467,-287.5564 1066.7349,-280.5569"/>
</g>
<!-- Node6 -->
<g id="node6" class="node">
<title>Node6</title>
<g id="a_node6"><a xlink:href="classgko_1_1EnableAbstractPolymorphicObject.html" target="_top" xlink:title=" ">
<polygon fill="#ffffff" stroke="#ff0000" points="538,-263.5 538,-293.5 713,-293.5 713,-263.5 538,-263.5"/>
<text text-anchor="start" x="546" y="-281.5" font-family="Helvetica,sans-Serif" font-size="10.00" fill="#000000">gko::EnableAbstractPolymorphic</text>
<text text-anchor="middle" x="625.5" y="-270.5" font-family="Helvetica,sans-Serif" font-size="10.00" fill="#000000">Object&lt; LinOp &gt;</text>
</a>
</g>
</g>
<!-- Node6&#45;&gt;Node5 -->
<g id="edge5" class="edge">
<title>Node6&#45;&gt;Node5</title>
<path fill="none" stroke="#191970" d="M723.1771,-279.7302C809.3055,-280.8149 929.9122,-282.3339 988.2351,-283.0685"/>
<polygon fill="#191970" stroke="#191970" points="723.1581,-276.2298 713.1148,-279.6035 723.0699,-283.2292 723.1581,-276.2298"/>
</g>
<!-- Node11 -->
<g id="node7" class="node">
<title>Node11</title>
<g id="a_node7"><a xlink:href="classgko_1_1EnableAbstractPolymorphicObject.html" target="_top" xlink:title="This mixin inherits from (a subclass of) PolymorphicObject and provides a base implementation of a ne...">
<polygon fill="#ffffff" stroke="#000000" points="138,-238 138,-279 332,-279 332,-238 138,-238"/>
<text text-anchor="start" x="146" y="-267" font-family="Helvetica,sans-Serif" font-size="10.00" fill="#000000">gko::EnableAbstractPolymorphic</text>
<text text-anchor="start" x="146" y="-256" font-family="Helvetica,sans-Serif" font-size="10.00" fill="#000000">Object&lt; AbstactObject, Polymorphic</text>
<text text-anchor="middle" x="235" y="-245" font-family="Helvetica,sans-Serif" font-size="10.00" fill="#000000">Base &gt;</text>
</a>
</g>
</g>
<!-- Node11&#45;&gt;Node4 -->
<g id="edge8" class="edge">
<title>Node11&#45;&gt;Node4</title>
<path fill="none" stroke="#ffa500" stroke-dasharray="5,2" d="M319.0668,-281.299C329.4342,-283.6367 339.9254,-285.78 350,-287.5 426.9882,-300.6442 446.979,-299.9407 525,-303.5 562.5138,-305.2113 936.7773,-304.3399 1125,-302.5 1203.2298,-301.7353 1222.8839,-303.7853 1301,-299.5 1310.1805,-298.9964 1319.75,-298.3355 1329.2958,-297.5872"/>
<polygon fill="#ffa500" stroke="#ffa500" points="319.7147,-277.8564 309.1824,-279.0055 318.1325,-284.6753 319.7147,-277.8564"/>
<text text-anchor="start" x="755" y="-317.5" font-family="Helvetica,sans-Serif" font-size="10.00" fill="#000000"> &lt; Perturbation&lt; ValueType</text>
<text text-anchor="middle" x="823" y="-306.5" font-family="Helvetica,sans-Serif" font-size="10.00" fill="#000000"> &gt;, LinOp &gt;</text>
</g>
<!-- Node11&#45;&gt;Node6 -->
<g id="edge6" class="edge">
<title>Node11&#45;&gt;Node6</title>
<path fill="none" stroke="#ffa500" stroke-dasharray="5,2" d="M342.3132,-265.0791C344.9005,-265.2226 347.4659,-265.3631 350,-265.5 412.755,-268.8904 483.5786,-272.2214 537.7017,-274.6628"/>
<polygon fill="#ffa500" stroke="#ffa500" points="342.4252,-261.58 332.2444,-264.5127 342.032,-268.5689 342.4252,-261.58"/>
<text text-anchor="middle" x="428.5" y="-275.5" font-family="Helvetica,sans-Serif" font-size="10.00" fill="#000000"> &lt; LinOp &gt;</text>
</g>
<!-- Node14 -->
<g id="node10" class="node">
<title>Node14</title>
<g id="a_node10"><a xlink:href="classgko_1_1EnableAbstractPolymorphicObject.html" target="_top" xlink:title=" ">
<polygon fill="#ffffff" stroke="#000000" points="525,-202 525,-243 726,-243 726,-202 525,-202"/>
<text text-anchor="start" x="533" y="-231" font-family="Helvetica,sans-Serif" font-size="10.00" fill="#000000">gko::EnableAbstractPolymorphic</text>
<text text-anchor="start" x="533" y="-220" font-family="Helvetica,sans-Serif" font-size="10.00" fill="#000000">Object&lt; ConcreteObject, Polymorphic</text>
<text text-anchor="middle" x="625.5" y="-209" font-family="Helvetica,sans-Serif" font-size="10.00" fill="#000000">Base &gt;</text>
</a>
</g>
</g>
<!-- Node11&#45;&gt;Node14 -->
<g id="edge12" class="edge">
<title>Node11&#45;&gt;Node14</title>
<path fill="none" stroke="#ffa500" stroke-dasharray="5,2" d="M342.267,-240.4177C344.8681,-240.0954 347.4488,-239.7887 350,-239.5 407.7355,-232.9665 472.5825,-228.8084 524.8529,-226.2412"/>
<polygon fill="#ffa500" stroke="#ffa500" points="341.6177,-236.9726 332.1524,-241.7327 342.5202,-243.9142 341.6177,-236.9726"/>
<text text-anchor="start" x="350" y="-253.5" font-family="Helvetica,sans-Serif" font-size="10.00" fill="#000000"> &lt; ConcreteObject, Polymorphic</text>
<text text-anchor="middle" x="428.5" y="-242.5" font-family="Helvetica,sans-Serif" font-size="10.00" fill="#000000">Base &gt;</text>
</g>
<!-- Node21 -->
<g id="node17" class="node">
<title>Node21</title>
<g id="a_node17"><a xlink:href="classgko_1_1EnableAbstractPolymorphicObject.html" target="_top" xlink:title=" ">
<polygon fill="#ffffff" stroke="#000000" points="527,-137 527,-178 724,-178 724,-137 527,-137"/>
<text text-anchor="start" x="535" y="-166" font-family="Helvetica,sans-Serif" font-size="10.00" fill="#000000">gko::EnableAbstractPolymorphic</text>
<text text-anchor="start" x="535" y="-155" font-family="Helvetica,sans-Serif" font-size="10.00" fill="#000000">Object&lt; ConcreteLinOp, Polymorphic</text>
<text text-anchor="middle" x="625.5" y="-144" font-family="Helvetica,sans-Serif" font-size="10.00" fill="#000000">Base &gt;</text>
</a>
</g>
</g>
<!-- Node11&#45;&gt;Node21 -->
<g id="edge22" class="edge">
<title>Node11&#45;&gt;Node21</title>
<path fill="none" stroke="#ffa500" stroke-dasharray="5,2" d="M278.0125,-232.7702C299.0536,-221.2483 325.1509,-208.4866 350,-200.5 407.1479,-182.1325 473.5714,-171.4699 526.8767,-165.3574"/>
<polygon fill="#ffa500" stroke="#ffa500" points="276.052,-229.8561 269.024,-237.7844 279.4622,-235.9692 276.052,-229.8561"/>
<text text-anchor="start" x="352" y="-214.5" font-family="Helvetica,sans-Serif" font-size="10.00" fill="#000000"> &lt; ConcreteLinOp, Polymorphic</text>
<text text-anchor="middle" x="428.5" y="-203.5" font-family="Helvetica,sans-Serif" font-size="10.00" fill="#000000">Base &gt;</text>
</g>
<!-- Node12 -->
<g id="node8" class="node">
<title>Node12</title>
<g id="a_node8"><a xlink:title=" ">
<polygon fill="#ffffff" stroke="#bfbfbf" points="0,-200 0,-219 101,-219 101,-200 0,-200"/>
<text text-anchor="middle" x="50.5" y="-207" font-family="Helvetica,sans-Serif" font-size="10.00" fill="#000000">PolymorphicBase</text>
</a>
</g>
</g>
<!-- Node12&#45;&gt;Node11 -->
<g id="edge7" class="edge">
<title>Node12&#45;&gt;Node11</title>
<path fill="none" stroke="#191970" d="M96.3988,-221.6899C114.8661,-226.5945 136.6815,-232.3883 157.4728,-237.9101"/>
<polygon fill="#191970" stroke="#191970" points="97.0748,-218.2482 86.5114,-219.064 95.278,-225.0137 97.0748,-218.2482"/>
</g>
<!-- Node12&#45;&gt;Node14 -->
<g id="edge11" class="edge">
<title>Node12&#45;&gt;Node14</title>
<path fill="none" stroke="#191970" d="M111.106,-210.8702C209.5893,-213.0968 405.3646,-217.523 524.9499,-220.2267"/>
<polygon fill="#191970" stroke="#191970" points="111.1001,-207.3693 101.0235,-210.6423 110.9418,-214.3675 111.1001,-207.3693"/>
</g>
<!-- Node12&#45;&gt;Node21 -->
<g id="edge21" class="edge">
<title>Node12&#45;&gt;Node21</title>
<path fill="none" stroke="#191970" d="M110.9853,-198.1624C171.2932,-187.3906 266.6901,-171.7889 350,-164.5 408.5066,-159.3812 474.2473,-157.5619 526.8332,-157.0547"/>
<polygon fill="#191970" stroke="#191970" points="110.1021,-194.765 100.8801,-199.9808 111.3419,-201.6543 110.1021,-194.765"/>
</g>
<!-- Node13 -->
<g id="node9" class="node">
<title>Node13</title>
<g id="a_node9"><a xlink:href="classgko_1_1EnablePolymorphicObject.html" target="_top" xlink:title="This mixin inherits from (a subclass of) PolymorphicObject and provides a base implementation of a ne...">
<polygon fill="#ffffff" stroke="#000000" points="920,-207.5 920,-237.5 1125,-237.5 1125,-207.5 920,-207.5"/>
<text text-anchor="start" x="928" y="-225.5" font-family="Helvetica,sans-Serif" font-size="10.00" fill="#000000">gko::EnablePolymorphicObject</text>
<text text-anchor="middle" x="1022.5" y="-214.5" font-family="Helvetica,sans-Serif" font-size="10.00" fill="#000000">&lt; ConcreteObject, PolymorphicBase &gt;</text>
</a>
</g>
</g>
<!-- Node13&#45;&gt;Node3 -->
<g id="edge9" class="edge">
<title>Node13&#45;&gt;Node3</title>
<path fill="none" stroke="#ffa500" stroke-dasharray="5,2" d="M1135.2626,-223.4131C1257.0308,-224.399 1448.135,-225.9464 1556.9104,-226.8272"/>
<polygon fill="#ffa500" stroke="#ffa500" points="1135.1888,-219.9124 1125.1607,-223.3313 1135.132,-226.9122 1135.1888,-219.9124"/>
<text text-anchor="start" x="1351.5" y="-240.5" font-family="Helvetica,sans-Serif" font-size="10.00" fill="#000000"> &lt; Perturbation&lt; ValueType</text>
<text text-anchor="middle" x="1419.5" y="-229.5" font-family="Helvetica,sans-Serif" font-size="10.00" fill="#000000"> &gt;, LinOp &gt;</text>
</g>
<!-- Node20 -->
<g id="node16" class="node">
<title>Node20</title>
<g id="a_node16"><a xlink:href="classgko_1_1EnablePolymorphicObject.html" target="_top" xlink:title=" ">
<polygon fill="#ffffff" stroke="#000000" points="1319,-145.5 1319,-175.5 1520,-175.5 1520,-145.5 1319,-145.5"/>
<text text-anchor="start" x="1327" y="-163.5" font-family="Helvetica,sans-Serif" font-size="10.00" fill="#000000">gko::EnablePolymorphicObject</text>
<text text-anchor="middle" x="1419.5" y="-152.5" font-family="Helvetica,sans-Serif" font-size="10.00" fill="#000000">&lt; ConcreteLinOp, PolymorphicBase &gt;</text>
</a>
</g>
</g>
<!-- Node13&#45;&gt;Node20 -->
<g id="edge23" class="edge">
<title>Node13&#45;&gt;Node20</title>
<path fill="none" stroke="#ffa500" stroke-dasharray="5,2" d="M1084.2383,-204.8454C1102.9893,-199.9639 1123.7304,-195.0408 1143,-191.5 1200.842,-180.8714 1266.2056,-173.3408 1318.8537,-168.3654"/>
<polygon fill="#ffa500" stroke="#ffa500" points="1083.1127,-201.5227 1074.3412,-207.465 1084.9039,-208.2897 1083.1127,-201.5227"/>
<text text-anchor="start" x="1145.5" y="-205.5" font-family="Helvetica,sans-Serif" font-size="10.00" fill="#000000"> &lt; ConcreteLinOp, Polymorphic</text>
<text text-anchor="middle" x="1222" y="-194.5" font-family="Helvetica,sans-Serif" font-size="10.00" fill="#000000">Base &gt;</text>
</g>
<!-- Node14&#45;&gt;Node13 -->
<g id="edge10" class="edge">
<title>Node14&#45;&gt;Node13</title>
<path fill="none" stroke="#191970" d="M736.4075,-222.5C793.8822,-222.5 863.6119,-222.5 919.8412,-222.5"/>
<polygon fill="#191970" stroke="#191970" points="736.1931,-219.0001 726.1931,-222.5 736.193,-226.0001 736.1931,-219.0001"/>
</g>
<!-- Node15 -->
<g id="node11" class="node">
<title>Node15</title>
<g id="a_node11"><a xlink:href="classgko_1_1EnablePolymorphicAssignment.html" target="_top" xlink:title=" ">
<polygon fill="#ffffff" stroke="#000000" points="1323.5,-96.5 1323.5,-126.5 1515.5,-126.5 1515.5,-96.5 1323.5,-96.5"/>
<text text-anchor="start" x="1331.5" y="-114.5" font-family="Helvetica,sans-Serif" font-size="10.00" fill="#000000">gko::EnablePolymorphicAssignment</text>
<text text-anchor="middle" x="1419.5" y="-103.5" font-family="Helvetica,sans-Serif" font-size="10.00" fill="#000000">&lt; Perturbation&lt; ValueType &gt; &gt;</text>
</a>
</g>
</g>
<!-- Node15&#45;&gt;Node2 -->
<g id="edge13" class="edge">
<title>Node15&#45;&gt;Node2</title>
<path fill="none" stroke="#191970" d="M1525.6942,-123.8986C1536.2613,-124.8879 1546.8348,-125.7808 1557,-126.5 1681.8862,-135.3353 1826.9008,-135.0129 1916.9448,-133.5709"/>
<polygon fill="#191970" stroke="#191970" points="1525.8682,-120.3992 1515.5783,-122.9231 1525.1962,-127.3669 1525.8682,-120.3992"/>
</g>
<!-- Node16 -->
<g id="node12" class="node">
<title>Node16</title>
<g id="a_node12"><a xlink:href="classgko_1_1ConvertibleTo.html" target="_top" xlink:title=" ">
<polygon fill="#ffffff" stroke="#000000" points="937,-98.5 937,-128.5 1108,-128.5 1108,-98.5 937,-98.5"/>
<text text-anchor="start" x="945" y="-116.5" font-family="Helvetica,sans-Serif" font-size="10.00" fill="#000000">gko::ConvertibleTo</text>
<text text-anchor="middle" x="1022.5" y="-105.5" font-family="Helvetica,sans-Serif" font-size="10.00" fill="#000000">&lt; Perturbation&lt; ValueType &gt; &gt;</text>
</a>
</g>
</g>
<!-- Node16&#45;&gt;Node15 -->
<g id="edge14" class="edge">
<title>Node16&#45;&gt;Node15</title>
<path fill="none" stroke="#191970" d="M1118.346,-113.0171C1180.4375,-112.7043 1261.0175,-112.2984 1323.199,-111.9851"/>
<polygon fill="#191970" stroke="#191970" points="1118.1365,-109.5181 1108.1543,-113.0685 1118.1719,-116.518 1118.1365,-109.5181"/>
</g>
<!-- Node17 -->
<g id="node13" class="node">
<title>Node17</title>
<g id="a_node13"><a xlink:href="classgko_1_1ConvertibleTo.html" target="_top" xlink:title="ConvertibleTo interface is used to mark that the implementer can be converted to the object of Result...">
<polygon fill="#ffffff" stroke="#000000" points="572,-49.5 572,-79.5 679,-79.5 679,-49.5 572,-49.5"/>
<text text-anchor="start" x="580" y="-67.5" font-family="Helvetica,sans-Serif" font-size="10.00" fill="#000000">gko::ConvertibleTo</text>
<text text-anchor="middle" x="625.5" y="-56.5" font-family="Helvetica,sans-Serif" font-size="10.00" fill="#000000">&lt; ResultType &gt;</text>
</a>
</g>
</g>
<!-- Node17&#45;&gt;Node16 -->
<g id="edge15" class="edge">
<title>Node17&#45;&gt;Node16</title>
<path fill="none" stroke="#ffa500" stroke-dasharray="5,2" d="M689.0578,-72.3447C756.1672,-80.6277 862.3552,-93.734 936.8247,-102.9255"/>
<polygon fill="#ffa500" stroke="#ffa500" points="689.3946,-68.8598 679.0412,-71.1084 688.5371,-75.807 689.3946,-68.8598"/>
<text text-anchor="middle" x="823" y="-101.5" font-family="Helvetica,sans-Serif" font-size="10.00" fill="#000000"> &lt; Perturbation&lt; ValueType &gt; &gt;</text>
</g>
<!-- Node18 -->
<g id="node14" class="node">
<title>Node18</title>
<g id="a_node14"><a xlink:href="classgko_1_1EnablePolymorphicAssignment.html" target="_top" xlink:title="This mixin is used to enable a default PolymorphicObject::copy_from() implementation for objects that...">
<polygon fill="#ffffff" stroke="#000000" points="926.5,-49.5 926.5,-79.5 1118.5,-79.5 1118.5,-49.5 926.5,-49.5"/>
<text text-anchor="start" x="934.5" y="-67.5" font-family="Helvetica,sans-Serif" font-size="10.00" fill="#000000">gko::EnablePolymorphicAssignment</text>
<text text-anchor="middle" x="1022.5" y="-56.5" font-family="Helvetica,sans-Serif" font-size="10.00" fill="#000000">&lt; ConcreteType, ResultType &gt;</text>
</a>
</g>
</g>
<!-- Node17&#45;&gt;Node18 -->
<g id="edge17" class="edge">
<title>Node17&#45;&gt;Node18</title>
<path fill="none" stroke="#191970" d="M689.4027,-64.5C753.4766,-64.5 852.9224,-64.5 926.4884,-64.5"/>
<polygon fill="#191970" stroke="#191970" points="689.0412,-61.0001 679.0412,-64.5 689.0412,-68.0001 689.0412,-61.0001"/>
</g>
<!-- Node23 -->
<g id="node19" class="node">
<title>Node23</title>
<g id="a_node19"><a xlink:href="classgko_1_1ConvertibleTo.html" target="_top" xlink:title=" ">
<polygon fill="#ffffff" stroke="#000000" points="967.5,-.5 967.5,-30.5 1077.5,-30.5 1077.5,-.5 967.5,-.5"/>
<text text-anchor="start" x="975.5" y="-18.5" font-family="Helvetica,sans-Serif" font-size="10.00" fill="#000000">gko::ConvertibleTo</text>
<text text-anchor="middle" x="1022.5" y="-7.5" font-family="Helvetica,sans-Serif" font-size="10.00" fill="#000000">&lt; ConcreteLinOp &gt;</text>
</a>
</g>
</g>
<!-- Node17&#45;&gt;Node23 -->
<g id="edge26" class="edge">
<title>Node17&#45;&gt;Node23</title>
<path fill="none" stroke="#ffa500" stroke-dasharray="5,2" d="M689.3901,-56.36C707.0768,-54.1209 726.2815,-51.703 744,-49.5 821.4608,-39.8692 911.0736,-28.9729 967.2719,-22.1693"/>
<polygon fill="#ffa500" stroke="#ffa500" points="688.6551,-52.925 679.1745,-57.6546 689.5352,-59.8695 688.6551,-52.925"/>
<text text-anchor="middle" x="823" y="-52.5" font-family="Helvetica,sans-Serif" font-size="10.00" fill="#000000"> &lt; ConcreteLinOp &gt;</text>
</g>
<!-- Node18&#45;&gt;Node15 -->
<g id="edge16" class="edge">
<title>Node18&#45;&gt;Node15</title>
<path fill="none" stroke="#ffa500" stroke-dasharray="5,2" d="M1128.571,-77.0575C1189.1128,-84.2249 1264.4229,-93.1408 1323.2509,-100.1053"/>
<polygon fill="#ffa500" stroke="#ffa500" points="1128.9448,-73.5774 1118.6026,-75.8774 1128.1218,-80.5289 1128.9448,-73.5774"/>
<text text-anchor="middle" x="1222" y="-99.5" font-family="Helvetica,sans-Serif" font-size="10.00" fill="#000000"> &lt; Perturbation&lt; ValueType &gt; &gt;</text>
</g>
<!-- Node22 -->
<g id="node18" class="node">
<title>Node22</title>
<g id="a_node18"><a xlink:href="classgko_1_1EnablePolymorphicAssignment.html" target="_top" xlink:title=" ">
<polygon fill="#ffffff" stroke="#000000" points="1323.5,-38.5 1323.5,-68.5 1515.5,-68.5 1515.5,-38.5 1323.5,-38.5"/>
<text text-anchor="start" x="1331.5" y="-56.5" font-family="Helvetica,sans-Serif" font-size="10.00" fill="#000000">gko::EnablePolymorphicAssignment</text>
<text text-anchor="middle" x="1419.5" y="-45.5" font-family="Helvetica,sans-Serif" font-size="10.00" fill="#000000">&lt; ConcreteLinOp &gt;</text>
</a>
</g>
</g>
<!-- Node18&#45;&gt;Node22 -->
<g id="edge27" class="edge">
<title>Node18&#45;&gt;Node22</title>
<path fill="none" stroke="#ffa500" stroke-dasharray="5,2" d="M1129.126,-55.1971C1133.8124,-54.9316 1138.4532,-54.6966 1143,-54.5 1202.9487,-51.9082 1270.2765,-51.609 1323.4844,-51.9815"/>
<polygon fill="#ffa500" stroke="#ffa500" points="1128.5818,-51.7236 1118.8126,-55.824 1129.0065,-58.7107 1128.5818,-51.7236"/>
<text text-anchor="middle" x="1222" y="-57.5" font-family="Helvetica,sans-Serif" font-size="10.00" fill="#000000"> &lt; ConcreteLinOp &gt;</text>
</g>
<!-- Node19 -->
<g id="node15" class="node">
<title>Node19</title>
<g id="a_node15"><a xlink:href="classgko_1_1EnableLinOp.html" target="_top" xlink:title="The EnableLinOp mixin can be used to provide sensible default implementations of the majority of the ...">
<polygon fill="#ffffff" stroke="#000000" points="1562,-87.5 1562,-117.5 1718,-117.5 1718,-87.5 1562,-87.5"/>
<text text-anchor="start" x="1570" y="-105.5" font-family="Helvetica,sans-Serif" font-size="10.00" fill="#000000">gko::EnableLinOp&lt; Concrete</text>
<text text-anchor="middle" x="1640" y="-94.5" font-family="Helvetica,sans-Serif" font-size="10.00" fill="#000000">LinOp, PolymorphicBase &gt;</text>
</a>
</g>
</g>
<!-- Node19&#45;&gt;Node2 -->
<g id="edge18" class="edge">
<title>Node19&#45;&gt;Node2</title>
<path fill="none" stroke="#ffa500" stroke-dasharray="5,2" d="M1728.3871,-108.4965C1778.4646,-112.0162 1842.2591,-116.7045 1899,-121.5 1904.8114,-121.9912 1910.8027,-122.5158 1916.8382,-123.0578"/>
<polygon fill="#ffa500" stroke="#ffa500" points="1728.4592,-104.9931 1718.2392,-107.786 1727.9703,-111.976 1728.4592,-104.9931"/>
<text text-anchor="middle" x="1820" y="-124.5" font-family="Helvetica,sans-Serif" font-size="10.00" fill="#000000"> &lt; Perturbation&lt; ValueType &gt; &gt;</text>
</g>
<!-- Node20&#45;&gt;Node19 -->
<g id="edge19" class="edge">
<title>Node20&#45;&gt;Node19</title>
<path fill="none" stroke="#191970" d="M1490.724,-143.0128C1500.5684,-140.5286 1510.5424,-137.9763 1520,-135.5 1541.7382,-129.8082 1565.6188,-123.2947 1586.3134,-117.5665"/>
<polygon fill="#191970" stroke="#191970" points="1489.7927,-139.6379 1480.9468,-145.469 1491.4982,-146.427 1489.7927,-139.6379"/>
</g>
<!-- Node21&#45;&gt;Node20 -->
<g id="edge20" class="edge">
<title>Node21&#45;&gt;Node20</title>
<path fill="none" stroke="#191970" d="M734.4966,-157.9118C888.9047,-158.4952 1169.1628,-159.5541 1318.8692,-160.1198"/>
<polygon fill="#191970" stroke="#191970" points="734.0687,-154.4103 724.0555,-157.8724 734.0421,-161.4102 734.0687,-154.4103"/>
</g>
<!-- Node22&#45;&gt;Node19 -->
<g id="edge24" class="edge">
<title>Node22&#45;&gt;Node19</title>
<path fill="none" stroke="#191970" d="M1497.1615,-70.7581C1521.7308,-76.218 1548.6725,-82.205 1572.4722,-87.4938"/>
<polygon fill="#191970" stroke="#191970" points="1497.6769,-67.2873 1487.1558,-68.5346 1496.1584,-74.1207 1497.6769,-67.2873"/>
</g>
<!-- Node23&#45;&gt;Node22 -->
<g id="edge25" class="edge">
<title>Node23&#45;&gt;Node22</title>
<path fill="none" stroke="#191970" d="M1087.6711,-21.738C1151.6894,-27.8657 1250.1179,-37.2871 1323.1678,-44.2793"/>
<polygon fill="#191970" stroke="#191970" points="1087.9892,-18.2526 1077.7011,-20.7837 1087.3221,-25.2207 1087.9892,-18.2526"/>
</g>
<!-- Node24 -->
<g id="node20" class="node">
<title>Node24</title>
<g id="a_node20"><a xlink:href="classgko_1_1EnableCreateMethod.html" target="_top" xlink:title=" ">
<polygon fill="#ffffff" stroke="#000000" points="1918,-58.5 1918,-88.5 2089,-88.5 2089,-58.5 1918,-58.5"/>
<text text-anchor="start" x="1926" y="-76.5" font-family="Helvetica,sans-Serif" font-size="10.00" fill="#000000">gko::EnableCreateMethod</text>
<text text-anchor="middle" x="2003.5" y="-65.5" font-family="Helvetica,sans-Serif" font-size="10.00" fill="#000000">&lt; Perturbation&lt; ValueType &gt; &gt;</text>
</a>
</g>
</g>
<!-- Node24&#45;&gt;Node1 -->
<g id="edge28" class="edge">
<title>Node24&#45;&gt;Node1</title>
<path fill="none" stroke="#191970" d="M2099.031,-86.3806C2108.5329,-87.6617 2117.9351,-88.9294 2126.801,-90.1249"/>
<polygon fill="#191970" stroke="#191970" points="2099.4891,-82.9108 2089.1111,-85.0431 2098.5537,-89.848 2099.4891,-82.9108"/>
</g>
<!-- Node25 -->
<g id="node21" class="node">
<title>Node25</title>
<g id="a_node21"><a xlink:href="classgko_1_1EnableCreateMethod.html" target="_top" xlink:title="This mixin implements a static create() method on ConcreteType that dynamically allocates the memory,...">
<polygon fill="#ffffff" stroke="#000000" points="1569,-38.5 1569,-68.5 1711,-68.5 1711,-38.5 1569,-38.5"/>
<text text-anchor="start" x="1577" y="-56.5" font-family="Helvetica,sans-Serif" font-size="10.00" fill="#000000">gko::EnableCreateMethod</text>
<text text-anchor="middle" x="1640" y="-45.5" font-family="Helvetica,sans-Serif" font-size="10.00" fill="#000000">&lt; ConcreteType &gt;</text>
</a>
</g>
</g>
<!-- Node25&#45;&gt;Node24 -->
<g id="edge29" class="edge">
<title>Node25&#45;&gt;Node24</title>
<path fill="none" stroke="#ffa500" stroke-dasharray="5,2" d="M1721.6816,-57.9942C1780.1118,-61.209 1858.5895,-65.5269 1917.8918,-68.7898"/>
<polygon fill="#ffa500" stroke="#ffa500" points="1721.5594,-54.4822 1711.3822,-57.4275 1721.1748,-61.4717 1721.5594,-54.4822"/>
<text text-anchor="middle" x="1820" y="-71.5" font-family="Helvetica,sans-Serif" font-size="10.00" fill="#000000"> &lt; Perturbation&lt; ValueType &gt; &gt;</text>
</g>
</g>
</svg>
        <g id="navigator" transform="translate(0 0)" fill="#404254">
                <rect fill="#f2f5e9" fill-opacity="0.5" stroke="#606060" stroke-width=".5" x="0" y="0" width="60" height="60"/>
                <use id="zoomplus" xlink:href="#zoomPlus" x="17" y="9" onmousedown="handleZoom(evt,'in')"/>
                <use id="zoomminus" xlink:href="#zoomMin" x="42" y="9" onmousedown="handleZoom(evt,'out')"/>
                <use id="reset" xlink:href="#resetDef" x="30" y="36" onmousedown="handleReset()"/>
                <g id="arrowUp" xlink:href="#dirArrow" transform="translate(30 24)" onmousedown="handlePan(0,-1)">
                  <use xlink:href="#rim" fill="#404040">
                        <set attributeName="fill" to="#808080" begin="arrowUp.mouseover" end="arrowUp.mouseout"/>
                  </use>
                  <path fill="none" stroke="white" stroke-width="1.5" d="M0,-3.0v7 M-2.5,-0.5L0,-3.0L2.5,-0.5"/>
                </g>
                <g id="arrowRight" xlink:href="#dirArrow" transform="rotate(90) translate(36 -43)" onmousedown="handlePan(1,0)">
                  <use xlink:href="#rim" fill="#404040">
                        <set attributeName="fill" to="#808080" begin="arrowRight.mouseover" end="arrowRight.mouseout"/>
                  </use>
                  <path fill="none" stroke="white" stroke-width="1.5" d="M0,-3.0v7 M-2.5,-0.5L0,-3.0L2.5,-0.5"/>
                </g>
                <g id="arrowDown" xlink:href="#dirArrow" transform="rotate(180) translate(-30 -48)" onmousedown="handlePan(0,1)">
                  <use xlink:href="#rim" fill="#404040">
                        <set attributeName="fill" to="#808080" begin="arrowDown.mouseover" end="arrowDown.mouseout"/>
                  </use>
                  <path fill="none" stroke="white" stroke-width="1.5" d="M0,-3.0v7 M-2.5,-0.5L0,-3.0L2.5,-0.5"/>
                </g>
                <g id="arrowLeft" xlink:href="#dirArrow" transform="rotate(270) translate(-36 17)" onmousedown="handlePan(-1,0)">
                  <use xlink:href="#rim" fill="#404040">
                        <set attributeName="fill" to="#808080" begin="arrowLeft.mouseover" end="arrowLeft.mouseout"/>
                  </use>
                  <path fill="none" stroke="white" stroke-width="1.5" d="M0,-3.0v7 M-2.5,-0.5L0,-3.0L2.5,-0.5"/>
                </g>
        </g>
        <svg viewBox="0 0 15 15" width="100%" height="30px" preserveAspectRatio="xMaxYMin meet">
         <g id="arrow_out" transform="scale(0.3 0.3)">
          <a xlink:href="classgko_1_1Perturbation__coll__graph_org.svg" target="_base">
           <rect id="button" ry="5" rx="5" y="6" x="6" height="38" width="38"
                fill="#f2f5e9" fill-opacity="0.5" stroke="#606060" stroke-width="1.0"/>
           <path id="arrow"
             d="M 11.500037,31.436501 C 11.940474,20.09759 22.043105,11.32322 32.158766,21.979434 L 37.068811,17.246167 C 37.068811,17.246167 37.088388,32 37.088388,32 L 22.160133,31.978069 C 22.160133,31.978069 26.997745,27.140456 26.997745,27.140456 C 18.528582,18.264221 13.291696,25.230495 11.500037,31.436501 z"
             style="fill:#404040;"/>
          </a>
         </g>
        </svg>
</svg>
