<?xml version="1.0" encoding="UTF-8" standalone="no"?>
<!DOCTYPE svg PUBLIC "-//W3C//DTD SVG 1.1//EN"
 "http://www.w3.org/Graphics/SVG/1.1/DTD/svg11.dtd">
<!-- Generated by graphviz version 2.40.1 (20161225.0304)
 -->
<!-- Title: gko::accessor::mod&lt; Kind, FirstOperand, SecondOperand &gt; Pages: 1 -->
<svg width="657pt" height="68pt"
 viewBox="0.00 0.00 657.00 67.50" xmlns="http://www.w3.org/2000/svg" xmlns:xlink="http://www.w3.org/1999/xlink">
<g id="graph0" class="graph" transform="scale(1 1) rotate(0) translate(4 63.5)">
<title>gko::accessor::mod&lt; Kind, FirstOperand, SecondOperand &gt;</title>
<polygon fill="#ffffff" stroke="transparent" points="-4,4 -4,-63.5 653,-63.5 653,4 -4,4"/>
<!-- Node1 -->
<g id="node1" class="node">
<title>Node1</title>
<g id="a_node1"><a xlink:title=" ">
<polygon fill="#bfbfbf" stroke="#000000" points="529,-6 529,-47 649,-47 649,-6 529,-6"/>
<text text-anchor="start" x="537" y="-35" font-family="Helvetica,sans-Serif" font-size="10.00" fill="#000000">gko::accessor::mod</text>
<text text-anchor="start" x="537" y="-24" font-family="Helvetica,sans-Serif" font-size="10.00" fill="#000000">&lt; Kind, FirstOperand,</text>
<text text-anchor="middle" x="589" y="-13" font-family="Helvetica,sans-Serif" font-size="10.00" fill="#000000"> SecondOperand &gt;</text>
</a>
</g>
</g>
<!-- Node2 -->
<g id="node2" class="node">
<title>Node2</title>
<g id="a_node2"><a xlink:title=" ">
<polygon fill="#ffffff" stroke="#bfbfbf" points="325,-.5 325,-52.5 492,-52.5 492,-.5 325,-.5"/>
<text text-anchor="start" x="333" y="-40.5" font-family="Helvetica,sans-Serif" font-size="10.00" fill="#000000">gko::detail::implement</text>
<text text-anchor="start" x="333" y="-29.5" font-family="Helvetica,sans-Serif" font-size="10.00" fill="#000000">_binary_operation&lt; Kind,</text>
<text text-anchor="start" x="333" y="-18.5" font-family="Helvetica,sans-Serif" font-size="10.00" fill="#000000"> FirstOperand, SecondOperand,</text>
<text text-anchor="middle" x="408.5" y="-7.5" font-family="Helvetica,sans-Serif" font-size="10.00" fill="#000000"> ::gko::accessor::detail::mod &gt;</text>
</a>
</g>
</g>
<!-- Node2&#45;&gt;Node1 -->
<g id="edge1" class="edge">
<title>Node2&#45;&gt;Node1</title>
<path fill="none" stroke="#191970" d="M502.3001,-26.5C511.2936,-26.5 520.2401,-26.5 528.7815,-26.5"/>
<polygon fill="#191970" stroke="#191970" points="502.1452,-23.0001 492.1451,-26.5 502.1451,-30.0001 502.1452,-23.0001"/>
</g>
<!-- Node3 -->
<g id="node3" class="node">
<title>Node3</title>
<g id="a_node3"><a xlink:title=" ">
<polygon fill="#ffffff" stroke="#bfbfbf" points="0,-.5 0,-52.5 167,-52.5 167,-.5 0,-.5"/>
<text text-anchor="start" x="8" y="-40.5" font-family="Helvetica,sans-Serif" font-size="10.00" fill="#000000">gko::detail::implement</text>
<text text-anchor="start" x="8" y="-29.5" font-family="Helvetica,sans-Serif" font-size="10.00" fill="#000000">_binary_operation&lt; Kind,</text>
<text text-anchor="start" x="8" y="-18.5" font-family="Helvetica,sans-Serif" font-size="10.00" fill="#000000"> FirstOperand, SecondOperand,</text>
<text text-anchor="middle" x="83.5" y="-7.5" font-family="Helvetica,sans-Serif" font-size="10.00" fill="#000000"> Operation &gt;</text>
</a>
</g>
</g>
<!-- Node3&#45;&gt;Node2 -->
<g id="edge2" class="edge">
<title>Node3&#45;&gt;Node2</title>
<path fill="none" stroke="#ffa500" stroke-dasharray="5,2" d="M177.2923,-26.5C223.8736,-26.5 279.6872,-26.5 324.8061,-26.5"/>
<polygon fill="#ffa500" stroke="#ffa500" points="177.1956,-23.0001 167.1956,-26.5 177.1955,-30.0001 177.1956,-23.0001"/>
<text text-anchor="start" x="185" y="-51.5" font-family="Helvetica,sans-Serif" font-size="10.00" fill="#000000"> &lt; Kind, FirstOperand,</text>
<text text-anchor="start" x="185" y="-40.5" font-family="Helvetica,sans-Serif" font-size="10.00" fill="#000000"> SecondOperand, ::gko</text>
<text text-anchor="middle" x="246" y="-29.5" font-family="Helvetica,sans-Serif" font-size="10.00" fill="#000000">::accessor::detail::mod &gt;</text>
</g>
</g>
</svg>
