<?xml version="1.0" encoding="UTF-8" standalone="no"?>
<!DOCTYPE svg PUBLIC "-//W3C//DTD SVG 1.1//EN"
 "http://www.w3.org/Graphics/SVG/1.1/DTD/svg11.dtd">
<!-- Generated by graphviz version 2.40.1 (20161225.0304)
 -->
<!-- Title: Solvers Pages: 1 -->
<svg width="298pt" height="124pt"
 viewBox="0.00 0.00 298.00 123.89" xmlns="http://www.w3.org/2000/svg" xmlns:xlink="http://www.w3.org/1999/xlink">
<g id="graph0" class="graph" transform="scale(1 1) rotate(0) translate(4 119.885)">
<title>Solvers</title>
<polygon fill="#ffffff" stroke="transparent" points="-4,4 -4,-119.885 294,-119.885 294,4 -4,4"/>
<!-- Node2 -->
<g id="node1" class="node">
<title>Node2</title>
<g id="a_node1"><a xlink:href="group__LinOp.html" target="_top" xlink:title="A module dedicated to the implementation and usage of the Linear operators in Ginkgo.">
<polygon fill="#ffffff" stroke="#000000" points="98,-76.8044 0,-76.8044 0,-57.8044 98,-57.8044 98,-76.8044"/>
<text text-anchor="middle" x="49" y="-64.8044" font-family="Helvetica,sans-Serif" font-size="10.00" fill="#000000">Linear Operators</text>
</a>
</g>
</g>
<!-- Node1 -->
<g id="node2" class="node">
<title>Node1</title>
<g id="a_node2"><a xlink:title="A module dedicated to the implementation and usage of the Solvers in Ginkgo.">
<polygon fill="#bfbfbf" stroke="#000000" points="290,-76.8044 237,-76.8044 237,-57.8044 290,-57.8044 290,-76.8044"/>
<text text-anchor="middle" x="263.5" y="-64.8044" font-family="Helvetica,sans-Serif" font-size="10.00" fill="#000000">Solvers</text>
</a>
</g>
</g>
<!-- Node2&#45;&gt;Node1 -->
<g id="edge1" class="edge">
<title>Node2&#45;&gt;Node1</title>
<path fill="none" stroke="#000000" d="M69.8658,-82.8816C82.5032,-91.3262 99.3525,-100.9121 116,-105.3044 160.2631,-116.9828 176.051,-121.147 219,-105.3044 234.2503,-99.679 247.8205,-86.2416 255.8536,-76.9546"/>
<polygon fill="#000000" stroke="#000000" points="71.6753,-79.8765 61.4714,-77.025 67.67,-85.6174 71.6753,-79.8765"/>
</g>
<!-- Node1&#45;&gt;Node2 -->
<g id="edge2" class="edge">
<title>Node1&#45;&gt;Node2</title>
<path fill="none" stroke="#ffa500" stroke-dasharray="5,2" d="M258.8441,-57.4524C252.1189,-44.529 238.3372,-22.4262 219,-13.3044 177.5976,6.2262 159.1696,1.9268 116,-13.3044 90.9225,-22.1522 68.3266,-44.8028 56.8853,-57.7842"/>
<text text-anchor="middle" x="167.5" y="-93.3044" font-family="Helvetica,sans-Serif" font-size="10.00" fill="#000000">gko::solver::Bicgstab</text>
<text text-anchor="middle" x="167.5" y="-82.3044" font-family="Helvetica,sans-Serif" font-size="10.00" fill="#000000">gko::solver::Cg</text>
<text text-anchor="middle" x="167.5" y="-71.3044" font-family="Helvetica,sans-Serif" font-size="10.00" fill="#000000">gko::solver::Cgs</text>
<text text-anchor="middle" x="167.5" y="-60.3044" font-family="Helvetica,sans-Serif" font-size="10.00" fill="#000000">gko::solver::Fcg</text>
<text text-anchor="middle" x="167.5" y="-49.3044" font-family="Helvetica,sans-Serif" font-size="10.00" fill="#000000">gko::solver::Gmres</text>
<text text-anchor="middle" x="167.5" y="-38.3044" font-family="Helvetica,sans-Serif" font-size="10.00" fill="#000000">gko::solver::Ir</text>
<text text-anchor="middle" x="167.5" y="-27.3044" font-family="Helvetica,sans-Serif" font-size="10.00" fill="#000000">gko::solver::LowerTrs</text>
<text text-anchor="middle" x="167.5" y="-16.3044" font-family="Helvetica,sans-Serif" font-size="10.00" fill="#000000">gko::solver::UpperTrs</text>
</g>
</g>
</svg>
