<?xml version="1.0" encoding="UTF-8" standalone="no"?>
<!DOCTYPE svg PUBLIC "-//W3C//DTD SVG 1.1//EN"
 "http://www.w3.org/Graphics/SVG/1.1/DTD/svg11.dtd">
<!-- Generated by graphviz version 2.40.1 (20161225.0304)
 -->
<!-- Title: Jacobi Preconditioner Pages: 1 -->
<svg width="579pt" height="56pt"
 viewBox="0.00 0.00 579.00 55.73" xmlns="http://www.w3.org/2000/svg" xmlns:xlink="http://www.w3.org/1999/xlink">
<g id="graph0" class="graph" transform="scale(1 1) rotate(0) translate(4 51.7252)">
<title>Jacobi Preconditioner</title>
<polygon fill="#ffffff" stroke="transparent" points="-4,4 -4,-51.7252 575,-51.7252 575,4 -4,4"/>
<!-- Node2 -->
<g id="node1" class="node">
<title>Node2</title>
<g id="a_node1"><a xlink:href="group__precond.html" target="_top" xlink:title="A module dedicated to the implementation and usage of the Preconditioners in Ginkgo.">
<polygon fill="#ffffff" stroke="#000000" points="92,-35.2252 0,-35.2252 0,-16.2252 92,-16.2252 92,-35.2252"/>
<text text-anchor="middle" x="46" y="-23.2252" font-family="Helvetica,sans-Serif" font-size="10.00" fill="#000000">Preconditioners</text>
</a>
</g>
</g>
<!-- Node1 -->
<g id="node2" class="node">
<title>Node1</title>
<g id="a_node2"><a xlink:title="A module dedicated to the implementation and usage of the Jacobi Preconditioner in Ginkgo.">
<polygon fill="#bfbfbf" stroke="#000000" points="342,-35.2252 223,-35.2252 223,-16.2252 342,-16.2252 342,-35.2252"/>
<text text-anchor="middle" x="282.5" y="-23.2252" font-family="Helvetica,sans-Serif" font-size="10.00" fill="#000000">Jacobi Preconditioner</text>
</a>
</g>
</g>
<!-- Node2&#45;&gt;Node1 -->
<g id="edge1" class="edge">
<title>Node2&#45;&gt;Node1</title>
<path fill="none" stroke="#000000" d="M102.2637,-30.3677C104.8778,-30.5056 107.4664,-30.6264 110,-30.7252 152.1901,-32.3707 162.7997,-32.0851 205,-30.7252 210.7946,-30.5385 216.8291,-30.2734 222.8595,-29.9616"/>
<polygon fill="#000000" stroke="#000000" points="102.3103,-26.8643 92.1189,-29.7598 101.8916,-33.8517 102.3103,-26.8643"/>
</g>
<!-- Node1&#45;&gt;Node2 -->
<g id="edge3" class="edge">
<title>Node1&#45;&gt;Node2</title>
<path fill="none" stroke="#ffa500" stroke-dasharray="5,2" d="M254.5236,-16.2211C239.9482,-11.7635 221.7201,-6.9504 205,-4.7252 163.1468,.8448 151.6928,1.9402 110,-4.7252 96.1432,-6.9405 81.2146,-11.6932 69.2638,-16.1177"/>
<text text-anchor="start" x="110" y="-18.7252" font-family="Helvetica,sans-Serif" font-size="10.00" fill="#000000">gko::preconditioner</text>
<text text-anchor="middle" x="157.5" y="-7.7252" font-family="Helvetica,sans-Serif" font-size="10.00" fill="#000000">::Jacobi</text>
</g>
<!-- Node3 -->
<g id="node3" class="node">
<title>Node3</title>
<g id="a_node3"><a xlink:href="group__LinOp.html" target="_top" xlink:title="A module dedicated to the implementation and usage of the Linear operators in Ginkgo.">
<polygon fill="#ffffff" stroke="#000000" points="571,-35.2252 473,-35.2252 473,-16.2252 571,-16.2252 571,-35.2252"/>
<text text-anchor="middle" x="522" y="-23.2252" font-family="Helvetica,sans-Serif" font-size="10.00" fill="#000000">Linear Operators</text>
</a>
</g>
</g>
<!-- Node1&#45;&gt;Node3 -->
<g id="edge4" class="edge">
<title>Node1&#45;&gt;Node3</title>
<path fill="none" stroke="#ffa500" stroke-dasharray="5,2" d="M342.01,-25.7252C382.3243,-25.7252 434.9551,-25.7252 472.8793,-25.7252"/>
<text text-anchor="start" x="360" y="-39.7252" font-family="Helvetica,sans-Serif" font-size="10.00" fill="#000000">gko::preconditioner</text>
<text text-anchor="middle" x="407.5" y="-28.7252" font-family="Helvetica,sans-Serif" font-size="10.00" fill="#000000">::Jacobi</text>
</g>
<!-- Node3&#45;&gt;Node1 -->
<g id="edge2" class="edge">
<title>Node3&#45;&gt;Node1</title>
<path fill="none" stroke="#000000" d="M462.7708,-23.8618C460.1449,-23.8093 457.5453,-23.7632 455,-23.7252 412.7825,-23.0952 402.2187,-23.1805 360,-23.7252 354.213,-23.7999 348.1835,-23.9059 342.1562,-24.0306"/>
<polygon fill="#000000" stroke="#000000" points="462.8941,-27.3654 472.9708,-24.0929 463.0527,-20.3672 462.8941,-27.3654"/>
</g>
</g>
</svg>
