<?xml version="1.0" encoding="UTF-8" standalone="no"?>
<!DOCTYPE svg PUBLIC "-//W3C//DTD SVG 1.1//EN"
 "http://www.w3.org/Graphics/SVG/1.1/DTD/svg11.dtd">
<!-- Generated by graphviz version 2.40.1 (20161225.0304)
 -->
<!-- Title: Preconditioners Pages: 1 -->
<svg width="368pt" height="141pt"
 viewBox="0.00 0.00 368.00 141.39" xmlns="http://www.w3.org/2000/svg" xmlns:xlink="http://www.w3.org/1999/xlink">
<g id="graph0" class="graph" transform="scale(1 1) rotate(0) translate(4 137.3901)">
<title>Preconditioners</title>
<polygon fill="#ffffff" stroke="transparent" points="-4,4 -4,-137.3901 364,-137.3901 364,4 -4,4"/>
<!-- Node1 -->
<g id="node1" class="node">
<title>Node1</title>
<g id="a_node1"><a xlink:title="A module dedicated to the implementation and usage of the Preconditioners in Ginkgo.">
<polygon fill="#bfbfbf" stroke="#000000" points="92,-73.562 0,-73.562 0,-54.562 92,-54.562 92,-73.562"/>
<text text-anchor="middle" x="46" y="-61.562" font-family="Helvetica,sans-Serif" font-size="10.00" fill="#000000">Preconditioners</text>
</a>
</g>
</g>
<!-- Node3 -->
<g id="node2" class="node">
<title>Node3</title>
<g id="a_node2"><a xlink:href="group__jacobi.html" target="_top" xlink:title="A module dedicated to the implementation and usage of the Jacobi Preconditioner in Ginkgo.">
<polygon fill="#ffffff" stroke="#000000" points="360,-125.562 241,-125.562 241,-106.562 360,-106.562 360,-125.562"/>
<text text-anchor="middle" x="300.5" y="-113.562" font-family="Helvetica,sans-Serif" font-size="10.00" fill="#000000">Jacobi Preconditioner</text>
</a>
</g>
</g>
<!-- Node1&#45;&gt;Node3 -->
<g id="edge2" class="edge">
<title>Node1&#45;&gt;Node3</title>
<path fill="none" stroke="#000000" d="M59.3225,-81.4596C70.9845,-95.1431 89.2726,-113.17 110,-121.062 159.4703,-139.898 221.5168,-133.2359 261.0949,-125.5905"/>
<polygon fill="#000000" stroke="#000000" points="61.98,-79.1801 52.9549,-73.6305 56.5493,-83.597 61.98,-79.1801"/>
</g>
<!-- Node1&#45;&gt;Node3 -->
<g id="edge4" class="edge">
<title>Node1&#45;&gt;Node3</title>
<path fill="none" stroke="#ffa500" stroke-dasharray="5,2" d="M92.1252,-72.8174C98.1352,-73.9268 104.2123,-75.0329 110,-76.062 160.1408,-84.9773 173.2518,-84.167 223,-95.062 237.8429,-98.3126 254.0961,-102.6022 267.8678,-106.4567"/>
<text text-anchor="start" x="119" y="-109.062" font-family="Helvetica,sans-Serif" font-size="10.00" fill="#000000">gko::preconditioner</text>
<text text-anchor="middle" x="166.5" y="-98.062" font-family="Helvetica,sans-Serif" font-size="10.00" fill="#000000">::Jacobi</text>
</g>
<!-- Node2 -->
<g id="node3" class="node">
<title>Node2</title>
<g id="a_node3"><a xlink:href="group__LinOp.html" target="_top" xlink:title="A module dedicated to the implementation and usage of the Linear operators in Ginkgo.">
<polygon fill="#ffffff" stroke="#000000" points="349.5,-24.562 251.5,-24.562 251.5,-5.562 349.5,-5.562 349.5,-24.562"/>
<text text-anchor="middle" x="300.5" y="-12.562" font-family="Helvetica,sans-Serif" font-size="10.00" fill="#000000">Linear Operators</text>
</a>
</g>
</g>
<!-- Node1&#45;&gt;Node2 -->
<g id="edge3" class="edge">
<title>Node1&#45;&gt;Node2</title>
<path fill="none" stroke="#ffa500" stroke-dasharray="5,2" d="M61.1168,-54.4597C73.6851,-46.9895 92.312,-37.078 110,-32.062 156.799,-18.7907 212.4215,-15.1415 251.4427,-14.4479"/>
<text text-anchor="middle" x="166.5" y="-68.062" font-family="Helvetica,sans-Serif" font-size="10.00" fill="#000000">gko::Preconditionable</text>
<text text-anchor="middle" x="166.5" y="-57.062" font-family="Helvetica,sans-Serif" font-size="10.00" fill="#000000">gko::preconditioner::Ilu</text>
<text text-anchor="start" x="110" y="-46.062" font-family="Helvetica,sans-Serif" font-size="10.00" fill="#000000">gko::preconditioner</text>
<text text-anchor="middle" x="166.5" y="-35.062" font-family="Helvetica,sans-Serif" font-size="10.00" fill="#000000">::Jacobi</text>
</g>
<!-- Node2&#45;&gt;Node1 -->
<g id="edge1" class="edge">
<title>Node2&#45;&gt;Node1</title>
<path fill="none" stroke="#000000" d="M244.3235,-4.0718C205.4744,1.1267 153.2068,3.2782 110,-12.062 86.2554,-20.4923 64.9096,-41.9091 53.8873,-54.4713"/>
<polygon fill="#000000" stroke="#000000" points="244.0031,-7.5618 254.4009,-5.5282 245.0044,-.6338 244.0031,-7.5618"/>
</g>
</g>
</svg>
