<?xml version="1.0" encoding="UTF-8" standalone="no"?>
<!DOCTYPE svg PUBLIC "-//W3C//DTD SVG 1.1//EN"
 "http://www.w3.org/Graphics/SVG/1.1/DTD/svg11.dtd">
<!-- Generated by graphviz version 2.40.1 (20161225.0304)
 -->
<!-- Title: gko::solver::Cg&lt; ValueType &gt; Pages: 1 -->
<svg width="2149pt" height="348pt"
 viewBox="0.00 0.00 2149.00 348.00" xmlns="http://www.w3.org/2000/svg" xmlns:xlink="http://www.w3.org/1999/xlink">
<g id="graph0" class="graph" transform="scale(1 1) rotate(0) translate(4 344)">
<title>gko::solver::Cg&lt; ValueType &gt;</title>
<polygon fill="#ffffff" stroke="transparent" points="-4,4 -4,-344 2145,-344 2145,4 -4,4"/>
<!-- Node1 -->
<g id="node1" class="node">
<title>Node1</title>
<g id="a_node1"><a xlink:title="CG or the conjugate gradient method is an iterative type Krylov subspace method which is suitable for...">
<polygon fill="#bfbfbf" stroke="#000000" points="1980,-96 1980,-115 2141,-115 2141,-96 1980,-96"/>
<text text-anchor="middle" x="2060.5" y="-103" font-family="Helvetica,sans-Serif" font-size="10.00" fill="#000000">gko::solver::Cg&lt; ValueType &gt;</text>
</a>
</g>
</g>
<!-- Node2 -->
<g id="node2" class="node">
<title>Node2</title>
<g id="a_node2"><a xlink:href="classgko_1_1EnableLinOp.html" target="_top" xlink:title=" ">
<polygon fill="#ffffff" stroke="#000000" points="1818,-122.5 1818,-152.5 1943,-152.5 1943,-122.5 1818,-122.5"/>
<text text-anchor="start" x="1826" y="-140.5" font-family="Helvetica,sans-Serif" font-size="10.00" fill="#000000">gko::EnableLinOp&lt; Cg</text>
<text text-anchor="middle" x="1880.5" y="-129.5" font-family="Helvetica,sans-Serif" font-size="10.00" fill="#000000">&lt; ValueType &gt; &gt;</text>
</a>
</g>
</g>
<!-- Node2&#45;&gt;Node1 -->
<g id="edge1" class="edge">
<title>Node2&#45;&gt;Node1</title>
<path fill="none" stroke="#191970" d="M1953.0904,-124.595C1971.1023,-121.3929 1990.0814,-118.0189 2006.9914,-115.0126"/>
<polygon fill="#191970" stroke="#191970" points="1952.4356,-121.1565 1943.2026,-126.3529 1953.6608,-128.0484 1952.4356,-121.1565"/>
</g>
<!-- Node3 -->
<g id="node3" class="node">
<title>Node3</title>
<g id="a_node3"><a xlink:href="classgko_1_1EnablePolymorphicObject.html" target="_top" xlink:title=" ">
<polygon fill="#ffffff" stroke="#000000" points="1505,-212.5 1505,-242.5 1671,-242.5 1671,-212.5 1505,-212.5"/>
<text text-anchor="start" x="1513" y="-230.5" font-family="Helvetica,sans-Serif" font-size="10.00" fill="#000000">gko::EnablePolymorphicObject</text>
<text text-anchor="middle" x="1588" y="-219.5" font-family="Helvetica,sans-Serif" font-size="10.00" fill="#000000">&lt; Cg&lt; ValueType &gt;, LinOp &gt;</text>
</a>
</g>
</g>
<!-- Node3&#45;&gt;Node2 -->
<g id="edge2" class="edge">
<title>Node3&#45;&gt;Node2</title>
<path fill="none" stroke="#191970" d="M1646.7695,-209.4171C1700.9626,-192.7423 1780.4922,-168.2716 1831.3824,-152.6131"/>
<polygon fill="#191970" stroke="#191970" points="1645.4864,-206.1499 1636.9579,-212.436 1647.545,-212.8403 1645.4864,-206.1499"/>
</g>
<!-- Node4 -->
<g id="node4" class="node">
<title>Node4</title>
<g id="a_node4"><a xlink:href="classgko_1_1EnableAbstractPolymorphicObject.html" target="_top" xlink:title=" ">
<polygon fill="#ffffff" stroke="#000000" points="1280,-268 1280,-309 1455,-309 1455,-268 1280,-268"/>
<text text-anchor="start" x="1288" y="-297" font-family="Helvetica,sans-Serif" font-size="10.00" fill="#000000">gko::EnableAbstractPolymorphic</text>
<text text-anchor="start" x="1288" y="-286" font-family="Helvetica,sans-Serif" font-size="10.00" fill="#000000">Object&lt; Cg&lt; ValueType &gt;,</text>
<text text-anchor="middle" x="1367.5" y="-275" font-family="Helvetica,sans-Serif" font-size="10.00" fill="#000000"> LinOp &gt;</text>
</a>
</g>
</g>
<!-- Node4&#45;&gt;Node3 -->
<g id="edge3" class="edge">
<title>Node4&#45;&gt;Node3</title>
<path fill="none" stroke="#191970" d="M1451.8191,-265.1736C1479.2095,-257.5962 1508.8637,-249.3926 1533.4855,-242.5811"/>
<polygon fill="#191970" stroke="#191970" points="1450.5486,-261.8936 1441.8438,-267.9332 1452.4151,-268.6402 1450.5486,-261.8936"/>
</g>
<!-- Node5 -->
<g id="node5" class="node">
<title>Node5</title>
<g id="a_node5"><a xlink:href="classgko_1_1LinOp.html" target="_top" xlink:title=" ">
<polygon fill="#ffffff" stroke="#000000" points="941.5,-312 941.5,-331 1009.5,-331 1009.5,-312 941.5,-312"/>
<text text-anchor="middle" x="975.5" y="-319" font-family="Helvetica,sans-Serif" font-size="10.00" fill="#000000">gko::LinOp</text>
</a>
</g>
</g>
<!-- Node5&#45;&gt;Node4 -->
<g id="edge4" class="edge">
<title>Node5&#45;&gt;Node4</title>
<path fill="none" stroke="#191970" d="M1019.5774,-317.7894C1082.3955,-312.5011 1198.9999,-302.685 1279.805,-295.8825"/>
<polygon fill="#191970" stroke="#191970" points="1019.2728,-314.3026 1009.6017,-318.6292 1019.8601,-321.2779 1019.2728,-314.3026"/>
</g>
<!-- Node6 -->
<g id="node6" class="node">
<title>Node6</title>
<g id="a_node6"><a xlink:href="classgko_1_1EnableAbstractPolymorphicObject.html" target="_top" xlink:title=" ">
<polygon fill="#ffffff" stroke="#ff0000" points="538,-309.5 538,-339.5 713,-339.5 713,-309.5 538,-309.5"/>
<text text-anchor="start" x="546" y="-327.5" font-family="Helvetica,sans-Serif" font-size="10.00" fill="#000000">gko::EnableAbstractPolymorphic</text>
<text text-anchor="middle" x="625.5" y="-316.5" font-family="Helvetica,sans-Serif" font-size="10.00" fill="#000000">Object&lt; LinOp &gt;</text>
</a>
</g>
</g>
<!-- Node6&#45;&gt;Node5 -->
<g id="edge5" class="edge">
<title>Node6&#45;&gt;Node5</title>
<path fill="none" stroke="#191970" d="M723.4901,-323.6601C796.32,-323.0358 891.3785,-322.221 941.3613,-321.7926"/>
<polygon fill="#191970" stroke="#191970" points="723.3376,-320.1612 713.368,-323.7468 723.3977,-327.1609 723.3376,-320.1612"/>
</g>
<!-- Node11 -->
<g id="node7" class="node">
<title>Node11</title>
<g id="a_node7"><a xlink:href="classgko_1_1EnableAbstractPolymorphicObject.html" target="_top" xlink:title="This mixin inherits from (a subclass of) PolymorphicObject and provides a base implementation of a ne...">
<polygon fill="#ffffff" stroke="#000000" points="138,-223 138,-264 332,-264 332,-223 138,-223"/>
<text text-anchor="start" x="146" y="-252" font-family="Helvetica,sans-Serif" font-size="10.00" fill="#000000">gko::EnableAbstractPolymorphic</text>
<text text-anchor="start" x="146" y="-241" font-family="Helvetica,sans-Serif" font-size="10.00" fill="#000000">Object&lt; AbstactObject, Polymorphic</text>
<text text-anchor="middle" x="235" y="-230" font-family="Helvetica,sans-Serif" font-size="10.00" fill="#000000">Base &gt;</text>
</a>
</g>
</g>
<!-- Node11&#45;&gt;Node4 -->
<g id="edge8" class="edge">
<title>Node11&#45;&gt;Node4</title>
<path fill="none" stroke="#ffa500" stroke-dasharray="5,2" d="M342.254,-261.7071C344.859,-261.9921 347.4441,-262.2574 350,-262.5 692.8166,-295.0423 1103.3209,-293.1065 1279.8085,-290.3268"/>
<polygon fill="#ffa500" stroke="#ffa500" points="342.467,-258.2081 332.1265,-260.5156 341.6491,-265.1602 342.467,-258.2081"/>
<text text-anchor="start" x="748" y="-302.5" font-family="Helvetica,sans-Serif" font-size="10.00" fill="#000000"> &lt; Cg&lt; ValueType &gt;,</text>
<text text-anchor="middle" x="799.5" y="-291.5" font-family="Helvetica,sans-Serif" font-size="10.00" fill="#000000"> LinOp &gt;</text>
</g>
<!-- Node11&#45;&gt;Node6 -->
<g id="edge6" class="edge">
<title>Node11&#45;&gt;Node6</title>
<path fill="none" stroke="#ffa500" stroke-dasharray="5,2" d="M282.3212,-268.4448C302.6332,-278.0984 326.956,-288.2972 350,-294.5 411.5581,-311.0698 483.1969,-318.5239 537.9906,-321.8596"/>
<polygon fill="#ffa500" stroke="#ffa500" points="283.8149,-265.2793 273.29,-264.064 280.7598,-271.5775 283.8149,-265.2793"/>
<text text-anchor="middle" x="428.5" y="-322.5" font-family="Helvetica,sans-Serif" font-size="10.00" fill="#000000"> &lt; LinOp &gt;</text>
</g>
<!-- Node14 -->
<g id="node10" class="node">
<title>Node14</title>
<g id="a_node10"><a xlink:href="classgko_1_1EnableAbstractPolymorphicObject.html" target="_top" xlink:title=" ">
<polygon fill="#ffffff" stroke="#000000" points="525,-202 525,-243 726,-243 726,-202 525,-202"/>
<text text-anchor="start" x="533" y="-231" font-family="Helvetica,sans-Serif" font-size="10.00" fill="#000000">gko::EnableAbstractPolymorphic</text>
<text text-anchor="start" x="533" y="-220" font-family="Helvetica,sans-Serif" font-size="10.00" fill="#000000">Object&lt; ConcreteObject, Polymorphic</text>
<text text-anchor="middle" x="625.5" y="-209" font-family="Helvetica,sans-Serif" font-size="10.00" fill="#000000">Base &gt;</text>
</a>
</g>
</g>
<!-- Node11&#45;&gt;Node14 -->
<g id="edge12" class="edge">
<title>Node11&#45;&gt;Node14</title>
<path fill="none" stroke="#ffa500" stroke-dasharray="5,2" d="M342.1578,-237.7374C399.1787,-234.6709 468.8822,-230.9225 524.885,-227.9108"/>
<polygon fill="#ffa500" stroke="#ffa500" points="341.8274,-234.25 332.0298,-238.282 342.2034,-241.2399 341.8274,-234.25"/>
<text text-anchor="start" x="350" y="-250.5" font-family="Helvetica,sans-Serif" font-size="10.00" fill="#000000"> &lt; ConcreteObject, Polymorphic</text>
<text text-anchor="middle" x="428.5" y="-239.5" font-family="Helvetica,sans-Serif" font-size="10.00" fill="#000000">Base &gt;</text>
</g>
<!-- Node21 -->
<g id="node17" class="node">
<title>Node21</title>
<g id="a_node17"><a xlink:href="classgko_1_1EnableAbstractPolymorphicObject.html" target="_top" xlink:title=" ">
<polygon fill="#ffffff" stroke="#000000" points="527,-137 527,-178 724,-178 724,-137 527,-137"/>
<text text-anchor="start" x="535" y="-166" font-family="Helvetica,sans-Serif" font-size="10.00" fill="#000000">gko::EnableAbstractPolymorphic</text>
<text text-anchor="start" x="535" y="-155" font-family="Helvetica,sans-Serif" font-size="10.00" fill="#000000">Object&lt; ConcreteLinOp, Polymorphic</text>
<text text-anchor="middle" x="625.5" y="-144" font-family="Helvetica,sans-Serif" font-size="10.00" fill="#000000">Base &gt;</text>
</a>
</g>
</g>
<!-- Node11&#45;&gt;Node21 -->
<g id="edge22" class="edge">
<title>Node11&#45;&gt;Node21</title>
<path fill="none" stroke="#ffa500" stroke-dasharray="5,2" d="M295.891,-219.4832C313.1818,-213.2972 332.1619,-207.0965 350,-202.5 407.8421,-187.5954 473.8466,-176.6118 526.7468,-169.2284"/>
<polygon fill="#ffa500" stroke="#ffa500" points="294.6776,-216.2002 286.4767,-222.9081 297.0708,-222.7784 294.6776,-216.2002"/>
<text text-anchor="start" x="352" y="-216.5" font-family="Helvetica,sans-Serif" font-size="10.00" fill="#000000"> &lt; ConcreteLinOp, Polymorphic</text>
<text text-anchor="middle" x="428.5" y="-205.5" font-family="Helvetica,sans-Serif" font-size="10.00" fill="#000000">Base &gt;</text>
</g>
<!-- Node12 -->
<g id="node8" class="node">
<title>Node12</title>
<g id="a_node8"><a xlink:title=" ">
<polygon fill="#ffffff" stroke="#bfbfbf" points="0,-156 0,-175 101,-175 101,-156 0,-156"/>
<text text-anchor="middle" x="50.5" y="-163" font-family="Helvetica,sans-Serif" font-size="10.00" fill="#000000">PolymorphicBase</text>
</a>
</g>
</g>
<!-- Node12&#45;&gt;Node11 -->
<g id="edge7" class="edge">
<title>Node12&#45;&gt;Node11</title>
<path fill="none" stroke="#191970" d="M82.628,-179.0826C111.2155,-191.1684 153.45,-209.0236 186.208,-222.8725"/>
<polygon fill="#191970" stroke="#191970" points="83.6969,-175.7346 73.1233,-175.0643 80.9711,-182.1821 83.6969,-175.7346"/>
</g>
<!-- Node12&#45;&gt;Node14 -->
<g id="edge11" class="edge">
<title>Node12&#45;&gt;Node14</title>
<path fill="none" stroke="#191970" d="M111.4107,-160.0065C199.8299,-153.6786 368.3225,-147.8417 507,-179.5 515.535,-181.4484 516.8592,-184.2798 525,-187.5 537.4558,-192.427 550.9171,-197.3705 563.8153,-201.9259"/>
<polygon fill="#191970" stroke="#191970" points="111.0047,-156.5269 101.2915,-160.7581 111.5233,-163.5077 111.0047,-156.5269"/>
</g>
<!-- Node12&#45;&gt;Node21 -->
<g id="edge21" class="edge">
<title>Node12&#45;&gt;Node21</title>
<path fill="none" stroke="#191970" d="M100.0089,-154.156C106.37,-153.0602 112.8183,-152.1252 119,-151.5 290.5691,-134.1468 334.6107,-147.1385 507,-151.5 513.4867,-151.6641 520.1712,-151.8787 526.9066,-152.1288"/>
<polygon fill="#191970" stroke="#191970" points="99.3286,-150.7224 90.1355,-155.9889 100.6063,-157.6048 99.3286,-150.7224"/>
</g>
<!-- Node13 -->
<g id="node9" class="node">
<title>Node13</title>
<g id="a_node9"><a xlink:href="classgko_1_1EnablePolymorphicObject.html" target="_top" xlink:title="This mixin inherits from (a subclass of) PolymorphicObject and provides a base implementation of a ne...">
<polygon fill="#ffffff" stroke="#000000" points="873,-207.5 873,-237.5 1078,-237.5 1078,-207.5 873,-207.5"/>
<text text-anchor="start" x="881" y="-225.5" font-family="Helvetica,sans-Serif" font-size="10.00" fill="#000000">gko::EnablePolymorphicObject</text>
<text text-anchor="middle" x="975.5" y="-214.5" font-family="Helvetica,sans-Serif" font-size="10.00" fill="#000000">&lt; ConcreteObject, PolymorphicBase &gt;</text>
</a>
</g>
</g>
<!-- Node13&#45;&gt;Node3 -->
<g id="edge9" class="edge">
<title>Node13&#45;&gt;Node3</title>
<path fill="none" stroke="#ffa500" stroke-dasharray="5,2" d="M1088.0199,-223.4185C1208.5539,-224.4025 1397.0176,-225.941 1504.8379,-226.8211"/>
<polygon fill="#ffa500" stroke="#ffa500" points="1088.047,-219.9187 1078.0187,-223.3369 1087.9898,-226.9185 1088.047,-219.9187"/>
<text text-anchor="start" x="1316" y="-240.5" font-family="Helvetica,sans-Serif" font-size="10.00" fill="#000000"> &lt; Cg&lt; ValueType &gt;,</text>
<text text-anchor="middle" x="1367.5" y="-229.5" font-family="Helvetica,sans-Serif" font-size="10.00" fill="#000000"> LinOp &gt;</text>
</g>
<!-- Node20 -->
<g id="node16" class="node">
<title>Node20</title>
<g id="a_node16"><a xlink:href="classgko_1_1EnablePolymorphicObject.html" target="_top" xlink:title=" ">
<polygon fill="#ffffff" stroke="#000000" points="1267,-144.5 1267,-174.5 1468,-174.5 1468,-144.5 1267,-144.5"/>
<text text-anchor="start" x="1275" y="-162.5" font-family="Helvetica,sans-Serif" font-size="10.00" fill="#000000">gko::EnablePolymorphicObject</text>
<text text-anchor="middle" x="1367.5" y="-151.5" font-family="Helvetica,sans-Serif" font-size="10.00" fill="#000000">&lt; ConcreteLinOp, PolymorphicBase &gt;</text>
</a>
</g>
</g>
<!-- Node13&#45;&gt;Node20 -->
<g id="edge23" class="edge">
<title>Node13&#45;&gt;Node20</title>
<path fill="none" stroke="#ffa500" stroke-dasharray="5,2" d="M1037.5139,-204.8453C1056.1962,-199.9884 1076.8305,-195.0787 1096,-191.5 1152.1034,-181.0263 1215.4049,-173.3315 1266.7633,-168.116"/>
<polygon fill="#ffa500" stroke="#ffa500" points="1036.4245,-201.513 1027.65,-207.4509 1038.2123,-208.2808 1036.4245,-201.513"/>
<text text-anchor="start" x="1096" y="-205.5" font-family="Helvetica,sans-Serif" font-size="10.00" fill="#000000"> &lt; ConcreteLinOp, Polymorphic</text>
<text text-anchor="middle" x="1172.5" y="-194.5" font-family="Helvetica,sans-Serif" font-size="10.00" fill="#000000">Base &gt;</text>
</g>
<!-- Node14&#45;&gt;Node13 -->
<g id="edge10" class="edge">
<title>Node14&#45;&gt;Node13</title>
<path fill="none" stroke="#191970" d="M736.3503,-222.5C780.0167,-222.5 829.8678,-222.5 872.7147,-222.5"/>
<polygon fill="#191970" stroke="#191970" points="736.265,-219.0001 726.2649,-222.5 736.2649,-226.0001 736.265,-219.0001"/>
</g>
<!-- Node15 -->
<g id="node11" class="node">
<title>Node15</title>
<g id="a_node11"><a xlink:href="classgko_1_1EnablePolymorphicAssignment.html" target="_top" xlink:title=" ">
<polygon fill="#ffffff" stroke="#000000" points="1271.5,-38.5 1271.5,-68.5 1463.5,-68.5 1463.5,-38.5 1271.5,-38.5"/>
<text text-anchor="start" x="1279.5" y="-56.5" font-family="Helvetica,sans-Serif" font-size="10.00" fill="#000000">gko::EnablePolymorphicAssignment</text>
<text text-anchor="middle" x="1367.5" y="-45.5" font-family="Helvetica,sans-Serif" font-size="10.00" fill="#000000">&lt; Cg&lt; ValueType &gt; &gt;</text>
</a>
</g>
</g>
<!-- Node15&#45;&gt;Node2 -->
<g id="edge13" class="edge">
<title>Node15&#45;&gt;Node2</title>
<path fill="none" stroke="#191970" d="M1469.0913,-70.1348C1572.9463,-87.1403 1730.9733,-113.0161 1817.8408,-127.24"/>
<polygon fill="#191970" stroke="#191970" points="1469.6483,-66.6795 1459.2141,-68.5175 1468.5171,-73.5875 1469.6483,-66.6795"/>
</g>
<!-- Node16 -->
<g id="node12" class="node">
<title>Node16</title>
<g id="a_node12"><a xlink:href="classgko_1_1ConvertibleTo.html" target="_top" xlink:title=" ">
<polygon fill="#ffffff" stroke="#000000" points="913.5,-.5 913.5,-30.5 1037.5,-30.5 1037.5,-.5 913.5,-.5"/>
<text text-anchor="start" x="921.5" y="-18.5" font-family="Helvetica,sans-Serif" font-size="10.00" fill="#000000">gko::ConvertibleTo</text>
<text text-anchor="middle" x="975.5" y="-7.5" font-family="Helvetica,sans-Serif" font-size="10.00" fill="#000000">&lt; Cg&lt; ValueType &gt; &gt;</text>
</a>
</g>
</g>
<!-- Node16&#45;&gt;Node15 -->
<g id="edge14" class="edge">
<title>Node16&#45;&gt;Node15</title>
<path fill="none" stroke="#191970" d="M1047.8367,-22.5122C1110.6997,-28.6061 1202.2542,-37.4813 1271.2864,-44.1732"/>
<polygon fill="#191970" stroke="#191970" points="1047.9046,-19.0025 1037.6136,-21.5212 1047.2292,-25.9698 1047.9046,-19.0025"/>
</g>
<!-- Node17 -->
<g id="node13" class="node">
<title>Node17</title>
<g id="a_node13"><a xlink:href="classgko_1_1ConvertibleTo.html" target="_top" xlink:title="ConvertibleTo interface is used to mark that the implementer can be converted to the object of Result...">
<polygon fill="#ffffff" stroke="#000000" points="572,-49.5 572,-79.5 679,-79.5 679,-49.5 572,-49.5"/>
<text text-anchor="start" x="580" y="-67.5" font-family="Helvetica,sans-Serif" font-size="10.00" fill="#000000">gko::ConvertibleTo</text>
<text text-anchor="middle" x="625.5" y="-56.5" font-family="Helvetica,sans-Serif" font-size="10.00" fill="#000000">&lt; ResultType &gt;</text>
</a>
</g>
</g>
<!-- Node17&#45;&gt;Node16 -->
<g id="edge15" class="edge">
<title>Node17&#45;&gt;Node16</title>
<path fill="none" stroke="#ffa500" stroke-dasharray="5,2" d="M688.9621,-55.6153C752.6682,-46.6965 850.1855,-33.044 913.4031,-24.1936"/>
<polygon fill="#ffa500" stroke="#ffa500" points="688.4566,-52.1519 679.0385,-57.0046 689.4272,-59.0842 688.4566,-52.1519"/>
<text text-anchor="middle" x="799.5" y="-50.5" font-family="Helvetica,sans-Serif" font-size="10.00" fill="#000000"> &lt; Cg&lt; ValueType &gt; &gt;</text>
</g>
<!-- Node18 -->
<g id="node14" class="node">
<title>Node18</title>
<g id="a_node14"><a xlink:href="classgko_1_1EnablePolymorphicAssignment.html" target="_top" xlink:title="This mixin is used to enable a default PolymorphicObject::copy_from() implementation for objects that...">
<polygon fill="#ffffff" stroke="#000000" points="879.5,-49.5 879.5,-79.5 1071.5,-79.5 1071.5,-49.5 879.5,-49.5"/>
<text text-anchor="start" x="887.5" y="-67.5" font-family="Helvetica,sans-Serif" font-size="10.00" fill="#000000">gko::EnablePolymorphicAssignment</text>
<text text-anchor="middle" x="975.5" y="-56.5" font-family="Helvetica,sans-Serif" font-size="10.00" fill="#000000">&lt; ConcreteType, ResultType &gt;</text>
</a>
</g>
</g>
<!-- Node17&#45;&gt;Node18 -->
<g id="edge17" class="edge">
<title>Node17&#45;&gt;Node18</title>
<path fill="none" stroke="#191970" d="M689.3361,-64.5C742.4357,-64.5 818.8362,-64.5 879.3406,-64.5"/>
<polygon fill="#191970" stroke="#191970" points="689.0385,-61.0001 679.0385,-64.5 689.0384,-68.0001 689.0385,-61.0001"/>
</g>
<!-- Node23 -->
<g id="node19" class="node">
<title>Node23</title>
<g id="a_node19"><a xlink:href="classgko_1_1ConvertibleTo.html" target="_top" xlink:title=" ">
<polygon fill="#ffffff" stroke="#000000" points="920.5,-98.5 920.5,-128.5 1030.5,-128.5 1030.5,-98.5 920.5,-98.5"/>
<text text-anchor="start" x="928.5" y="-116.5" font-family="Helvetica,sans-Serif" font-size="10.00" fill="#000000">gko::ConvertibleTo</text>
<text text-anchor="middle" x="975.5" y="-105.5" font-family="Helvetica,sans-Serif" font-size="10.00" fill="#000000">&lt; ConcreteLinOp &gt;</text>
</a>
</g>
</g>
<!-- Node17&#45;&gt;Node23 -->
<g id="edge26" class="edge">
<title>Node17&#45;&gt;Node23</title>
<path fill="none" stroke="#ffa500" stroke-dasharray="5,2" d="M689.3193,-73.4347C755.3792,-82.6831 857.5155,-96.9822 920.2338,-105.7627"/>
<polygon fill="#ffa500" stroke="#ffa500" points="689.4272,-69.9157 679.0385,-71.9954 688.4566,-76.8481 689.4272,-69.9157"/>
<text text-anchor="middle" x="799.5" y="-99.5" font-family="Helvetica,sans-Serif" font-size="10.00" fill="#000000"> &lt; ConcreteLinOp &gt;</text>
</g>
<!-- Node18&#45;&gt;Node15 -->
<g id="edge16" class="edge">
<title>Node18&#45;&gt;Node15</title>
<path fill="none" stroke="#ffa500" stroke-dasharray="5,2" d="M1082.126,-55.1975C1086.8124,-54.9319 1091.4532,-54.6967 1096,-54.5 1154.1582,-51.9836 1219.3893,-51.6624 1271.3338,-52.0041"/>
<polygon fill="#ffa500" stroke="#ffa500" points="1081.5817,-51.724 1071.8126,-55.8245 1082.0066,-58.7111 1081.5817,-51.724"/>
<text text-anchor="middle" x="1172.5" y="-57.5" font-family="Helvetica,sans-Serif" font-size="10.00" fill="#000000"> &lt; Cg&lt; ValueType &gt; &gt;</text>
</g>
<!-- Node22 -->
<g id="node18" class="node">
<title>Node22</title>
<g id="a_node18"><a xlink:href="classgko_1_1EnablePolymorphicAssignment.html" target="_top" xlink:title=" ">
<polygon fill="#ffffff" stroke="#000000" points="1271.5,-95.5 1271.5,-125.5 1463.5,-125.5 1463.5,-95.5 1271.5,-95.5"/>
<text text-anchor="start" x="1279.5" y="-113.5" font-family="Helvetica,sans-Serif" font-size="10.00" fill="#000000">gko::EnablePolymorphicAssignment</text>
<text text-anchor="middle" x="1367.5" y="-102.5" font-family="Helvetica,sans-Serif" font-size="10.00" fill="#000000">&lt; ConcreteLinOp &gt;</text>
</a>
</g>
</g>
<!-- Node18&#45;&gt;Node22 -->
<g id="edge27" class="edge">
<title>Node18&#45;&gt;Node22</title>
<path fill="none" stroke="#ffa500" stroke-dasharray="5,2" d="M1081.6818,-76.8953C1132.3404,-82.8162 1193.8051,-90.0106 1249,-96.5 1256.3039,-97.3587 1263.8608,-98.2485 1271.4602,-99.1442"/>
<polygon fill="#ffa500" stroke="#ffa500" points="1082.038,-73.4132 1071.6993,-75.7287 1081.2254,-80.3659 1082.038,-73.4132"/>
<text text-anchor="middle" x="1172.5" y="-99.5" font-family="Helvetica,sans-Serif" font-size="10.00" fill="#000000"> &lt; ConcreteLinOp &gt;</text>
</g>
<!-- Node19 -->
<g id="node15" class="node">
<title>Node19</title>
<g id="a_node15"><a xlink:href="classgko_1_1EnableLinOp.html" target="_top" xlink:title="The EnableLinOp mixin can be used to provide sensible default implementations of the majority of the ...">
<polygon fill="#ffffff" stroke="#000000" points="1510,-122.5 1510,-152.5 1666,-152.5 1666,-122.5 1510,-122.5"/>
<text text-anchor="start" x="1518" y="-140.5" font-family="Helvetica,sans-Serif" font-size="10.00" fill="#000000">gko::EnableLinOp&lt; Concrete</text>
<text text-anchor="middle" x="1588" y="-129.5" font-family="Helvetica,sans-Serif" font-size="10.00" fill="#000000">LinOp, PolymorphicBase &gt;</text>
</a>
</g>
</g>
<!-- Node19&#45;&gt;Node2 -->
<g id="edge18" class="edge">
<title>Node19&#45;&gt;Node2</title>
<path fill="none" stroke="#ffa500" stroke-dasharray="5,2" d="M1676.2059,-137.5C1721.9116,-137.5 1776.6455,-137.5 1817.9512,-137.5"/>
<polygon fill="#ffa500" stroke="#ffa500" points="1676.0004,-134.0001 1666.0004,-137.5 1676.0004,-141.0001 1676.0004,-134.0001"/>
<text text-anchor="middle" x="1744.5" y="-140.5" font-family="Helvetica,sans-Serif" font-size="10.00" fill="#000000"> &lt; Cg&lt; ValueType &gt; &gt;</text>
</g>
<!-- Node20&#45;&gt;Node19 -->
<g id="edge19" class="edge">
<title>Node20&#45;&gt;Node19</title>
<path fill="none" stroke="#191970" d="M1478.2456,-148.4505C1488.8692,-147.3906 1499.4867,-146.3313 1509.7034,-145.3119"/>
<polygon fill="#191970" stroke="#191970" points="1477.6742,-144.9901 1468.0711,-149.4657 1478.3693,-151.9555 1477.6742,-144.9901"/>
</g>
<!-- Node21&#45;&gt;Node20 -->
<g id="edge20" class="edge">
<title>Node21&#45;&gt;Node20</title>
<path fill="none" stroke="#191970" d="M734.1596,-157.7929C877.4298,-158.1791 1127.5884,-158.8533 1266.7777,-159.2285"/>
<polygon fill="#191970" stroke="#191970" points="734.0413,-154.2926 724.0319,-157.7656 734.0224,-161.2926 734.0413,-154.2926"/>
</g>
<!-- Node22&#45;&gt;Node19 -->
<g id="edge24" class="edge">
<title>Node22&#45;&gt;Node19</title>
<path fill="none" stroke="#191970" d="M1473.7437,-123.5094C1485.8851,-124.9961 1498.0914,-126.4908 1509.7726,-127.9211"/>
<polygon fill="#191970" stroke="#191970" points="1473.9244,-120.0055 1463.5731,-122.264 1473.0735,-126.9536 1473.9244,-120.0055"/>
</g>
<!-- Node23&#45;&gt;Node22 -->
<g id="edge25" class="edge">
<title>Node23&#45;&gt;Node22</title>
<path fill="none" stroke="#191970" d="M1041.0239,-112.9985C1103.9342,-112.5171 1199.7021,-111.7842 1271.2698,-111.2365"/>
<polygon fill="#191970" stroke="#191970" points="1040.8055,-109.5 1030.8326,-113.0765 1040.8591,-116.4998 1040.8055,-109.5"/>
</g>
<!-- Node24 -->
<g id="node20" class="node">
<title>Node24</title>
<g id="a_node20"><a xlink:href="classgko_1_1Preconditionable.html" target="_top" xlink:title="A LinOp implementing this interface can be preconditioned.">
<polygon fill="#ffffff" stroke="#000000" points="1819.5,-84 1819.5,-103 1941.5,-103 1941.5,-84 1819.5,-84"/>
<text text-anchor="middle" x="1880.5" y="-91" font-family="Helvetica,sans-Serif" font-size="10.00" fill="#000000">gko::Preconditionable</text>
</a>
</g>
</g>
<!-- Node24&#45;&gt;Node1 -->
<g id="edge28" class="edge">
<title>Node24&#45;&gt;Node1</title>
<path fill="none" stroke="#191970" d="M1951.8802,-98.2587C1961.0248,-98.8683 1970.4376,-99.4958 1979.7182,-100.1145"/>
<polygon fill="#191970" stroke="#191970" points="1951.9017,-94.7524 1941.691,-97.5794 1951.436,-101.7369 1951.9017,-94.7524"/>
</g>
</g>
</svg>
