<?xml version="1.0" encoding="UTF-8" standalone="no"?>
<!DOCTYPE svg PUBLIC "-//W3C//DTD SVG 1.1//EN"
 "http://www.w3.org/Graphics/SVG/1.1/DTD/svg11.dtd">
<!-- Generated by graphviz version 2.40.1 (20161225.0304)
 -->
<!-- Title: CUDA Executor Pages: 1 -->
<svg width="292pt" height="29pt"
 viewBox="0.00 0.00 292.00 28.50" xmlns="http://www.w3.org/2000/svg" xmlns:xlink="http://www.w3.org/1999/xlink">
<g id="graph0" class="graph" transform="scale(1 1) rotate(0) translate(4 24.5)">
<title>CUDA Executor</title>
<polygon fill="#ffffff" stroke="transparent" points="-4,4 -4,-24.5 288,-24.5 288,4 -4,4"/>
<!-- Node1 -->
<g id="node1" class="node">
<title>Node1</title>
<g id="a_node1"><a xlink:title="A module dedicated to the implementation and usage of the CUDA executor in Ginkgo.">
<polygon fill="#bfbfbf" stroke="#000000" points="91,-19 0,-19 0,0 91,0 91,-19"/>
<text text-anchor="middle" x="45.5" y="-7" font-family="Helvetica,sans-Serif" font-size="10.00" fill="#000000">CUDA Executor</text>
</a>
</g>
</g>
<!-- Node2 -->
<g id="node2" class="node">
<title>Node2</title>
<g id="a_node2"><a xlink:href="group__Executor.html" target="_top" xlink:title="A module dedicated to the implementation and usage of the executors in Ginkgo.">
<polygon fill="#ffffff" stroke="#000000" points="284,-19 219,-19 219,0 284,0 284,-19"/>
<text text-anchor="middle" x="251.5" y="-7" font-family="Helvetica,sans-Serif" font-size="10.00" fill="#000000">Executors</text>
</a>
</g>
</g>
<!-- Node1&#45;&gt;Node2 -->
<g id="edge2" class="edge">
<title>Node1&#45;&gt;Node2</title>
<path fill="none" stroke="#ffa500" stroke-dasharray="5,2" d="M91.2181,-9.5C129.8601,-9.5 184.2739,-9.5 218.7093,-9.5"/>
<text text-anchor="middle" x="155" y="-12.5" font-family="Helvetica,sans-Serif" font-size="10.00" fill="#000000">gko::CudaExecutor</text>
</g>
<!-- Node2&#45;&gt;Node1 -->
<g id="edge1" class="edge">
<title>Node2&#45;&gt;Node1</title>
<path fill="none" stroke="#000000" d="M208.7641,-7.689C206.1372,-7.6144 203.5331,-7.5501 201,-7.5 160.1191,-6.6908 149.8838,-6.8563 109,-7.5 103.2652,-7.5903 97.2402,-7.7264 91.2795,-7.886"/>
<polygon fill="#000000" stroke="#000000" points="208.7982,-11.1919 218.9069,-8.0196 209.0263,-4.1956 208.7982,-11.1919"/>
</g>
</g>
</svg>
