<?xml version="1.0" encoding="UTF-8" standalone="no"?>
<!DOCTYPE svg PUBLIC "-//W3C//DTD SVG 1.1//EN"
 "http://www.w3.org/Graphics/SVG/1.1/DTD/svg11.dtd">
<!-- Generated by graphviz version 2.40.1 (20161225.0304)
 -->
<!-- Title: OpenMP Executor Pages: 1 -->
<svg width="302pt" height="29pt"
 viewBox="0.00 0.00 302.00 28.50" xmlns="http://www.w3.org/2000/svg" xmlns:xlink="http://www.w3.org/1999/xlink">
<g id="graph0" class="graph" transform="scale(1 1) rotate(0) translate(4 24.5)">
<title>OpenMP Executor</title>
<polygon fill="#ffffff" stroke="transparent" points="-4,4 -4,-24.5 298,-24.5 298,4 -4,4"/>
<!-- Node1 -->
<g id="node1" class="node">
<title>Node1</title>
<g id="a_node1"><a xlink:title="A module dedicated to the implementation and usage of the OpenMP executor in Ginkgo.">
<polygon fill="#bfbfbf" stroke="#000000" points="102,-19 0,-19 0,0 102,0 102,-19"/>
<text text-anchor="middle" x="51" y="-7" font-family="Helvetica,sans-Serif" font-size="10.00" fill="#000000">OpenMP Executor</text>
</a>
</g>
</g>
<!-- Node2 -->
<g id="node2" class="node">
<title>Node2</title>
<g id="a_node2"><a xlink:href="group__Executor.html" target="_top" xlink:title="A module dedicated to the implementation and usage of the executors in Ginkgo.">
<polygon fill="#ffffff" stroke="#000000" points="294,-19 229,-19 229,0 294,0 294,-19"/>
<text text-anchor="middle" x="261.5" y="-7" font-family="Helvetica,sans-Serif" font-size="10.00" fill="#000000">Executors</text>
</a>
</g>
</g>
<!-- Node1&#45;&gt;Node2 -->
<g id="edge2" class="edge">
<title>Node1&#45;&gt;Node2</title>
<path fill="none" stroke="#ffa500" stroke-dasharray="5,2" d="M102.2249,-9.5C141.6546,-9.5 194.963,-9.5 228.7953,-9.5"/>
<text text-anchor="middle" x="165.5" y="-12.5" font-family="Helvetica,sans-Serif" font-size="10.00" fill="#000000">gko::OmpExecutor</text>
</g>
<!-- Node2&#45;&gt;Node1 -->
<g id="edge1" class="edge">
<title>Node2&#45;&gt;Node1</title>
<path fill="none" stroke="#000000" d="M218.7641,-7.689C216.1372,-7.6144 213.5331,-7.5501 211,-7.5 170.5635,-6.6996 160.4402,-6.914 120,-7.5 114.2482,-7.5833 108.2275,-7.7057 102.241,-7.8496"/>
<polygon fill="#000000" stroke="#000000" points="218.7982,-11.1919 228.9069,-8.0196 219.0263,-4.1956 218.7982,-11.1919"/>
</g>
</g>
</svg>
