<?xml version="1.0" encoding="UTF-8" standalone="no"?>
<!DOCTYPE svg PUBLIC "-//W3C//DTD SVG 1.1//EN"
 "http://www.w3.org/Graphics/SVG/1.1/DTD/svg11.dtd">
<!-- Generated by graphviz version 2.40.1 (20161225.0304)
 -->
<!-- Title: gko::EnableLinOp&lt; ConcreteLinOp, PolymorphicBase &gt; Pages: 1 -->
<svg width="1655pt" height="196pt"
 viewBox="0.00 0.00 1655.00 195.86" xmlns="http://www.w3.org/2000/svg" xmlns:xlink="http://www.w3.org/1999/xlink">
<g id="graph0" class="graph" transform="scale(1 1) rotate(0) translate(4 191.862)">
<title>gko::EnableLinOp&lt; ConcreteLinOp, PolymorphicBase &gt;</title>
<polygon fill="#ffffff" stroke="transparent" points="-4,4 -4,-191.862 1651,-191.862 1651,4 -4,4"/>
<!-- Node0 -->
<g id="node1" class="node">
<title>Node0</title>
<polygon fill="#bfbfbf" stroke="#000000" points="1491,-73.5 1491,-103.5 1647,-103.5 1647,-73.5 1491,-73.5"/>
<text text-anchor="start" x="1499" y="-91.5" font-family="Helvetica,sans-Serif" font-size="10.00" fill="#000000">gko::EnableLinOp&lt; Concrete</text>
<text text-anchor="middle" x="1569" y="-80.5" font-family="Helvetica,sans-Serif" font-size="10.00" fill="#000000">LinOp, PolymorphicBase &gt;</text>
</g>
<!-- Node1 -->
<g id="node2" class="node">
<title>Node1</title>
<g id="a_node2"><a xlink:href="classgko_1_1EnablePolymorphicObject.html" target="_top" xlink:title="gko::EnablePolymorphicObject\l\&lt; ConcreteLinOp, PolymorphicBase \&gt;">
<polygon fill="#ffffff" stroke="#000000" points="1253,-98.5 1253,-128.5 1454,-128.5 1454,-98.5 1253,-98.5"/>
<text text-anchor="start" x="1261" y="-116.5" font-family="Helvetica,sans-Serif" font-size="10.00" fill="#000000">gko::EnablePolymorphicObject</text>
<text text-anchor="middle" x="1353.5" y="-105.5" font-family="Helvetica,sans-Serif" font-size="10.00" fill="#000000">&lt; ConcreteLinOp, PolymorphicBase &gt;</text>
</a>
</g>
</g>
<!-- Node1&#45;&gt;Node0 -->
<g id="edge1" class="edge">
<title>Node1&#45;&gt;Node0</title>
<path fill="none" stroke="#191970" d="M1464.3877,-100.636C1473.3149,-99.6004 1482.2134,-98.5681 1490.8377,-97.5676"/>
<polygon fill="#191970" stroke="#191970" points="1463.8395,-97.176 1454.3094,-101.8052 1464.6462,-104.1294 1463.8395,-97.176"/>
</g>
<!-- Node2 -->
<g id="node3" class="node">
<title>Node2</title>
<g id="a_node3"><a xlink:href="classgko_1_1EnableAbstractPolymorphicObject.html" target="_top" xlink:title="gko::EnableAbstractPolymorphic\lObject\&lt; ConcreteLinOp, Polymorphic\lBase \&gt;">
<polygon fill="#ffffff" stroke="#000000" points="527,-143 527,-184 724,-184 724,-143 527,-143"/>
<text text-anchor="start" x="535" y="-172" font-family="Helvetica,sans-Serif" font-size="10.00" fill="#000000">gko::EnableAbstractPolymorphic</text>
<text text-anchor="start" x="535" y="-161" font-family="Helvetica,sans-Serif" font-size="10.00" fill="#000000">Object&lt; ConcreteLinOp, Polymorphic</text>
<text text-anchor="middle" x="625.5" y="-150" font-family="Helvetica,sans-Serif" font-size="10.00" fill="#000000">Base &gt;</text>
</a>
</g>
</g>
<!-- Node2&#45;&gt;Node1 -->
<g id="edge2" class="edge">
<title>Node2&#45;&gt;Node1</title>
<path fill="none" stroke="#191970" d="M734.2356,-164.9869C856.5254,-165.3223 1060.8104,-161.8607 1235,-139.5 1254.6374,-136.9792 1275.8306,-132.8041 1294.7893,-128.5294"/>
<polygon fill="#191970" stroke="#191970" points="734.1317,-161.4866 724.1189,-164.95 734.1061,-168.4866 734.1317,-161.4866"/>
</g>
<!-- Node3 -->
<g id="node4" class="node">
<title>Node3</title>
<polygon fill="#ffffff" stroke="#bfbfbf" points="0,-125 0,-144 101,-144 101,-125 0,-125"/>
<text text-anchor="middle" x="50.5" y="-132" font-family="Helvetica,sans-Serif" font-size="10.00" fill="#000000">PolymorphicBase</text>
</g>
<!-- Node3&#45;&gt;Node2 -->
<g id="edge3" class="edge">
<title>Node3&#45;&gt;Node2</title>
<path fill="none" stroke="#191970" d="M82.6562,-147.809C98.9542,-153.9634 119.2242,-160.7307 138,-164.5 298.9076,-196.8027 343.2071,-188.8254 507,-178.5 513.5192,-178.089 520.2283,-177.5521 526.9817,-176.9264"/>
<polygon fill="#191970" stroke="#191970" points="83.6594,-144.444 73.0705,-144.0885 81.1266,-150.9698 83.6594,-144.444"/>
</g>
<!-- Node4 -->
<g id="node5" class="node">
<title>Node4</title>
<g id="a_node5"><a xlink:href="classgko_1_1EnableAbstractPolymorphicObject.html" target="_top" xlink:title="This mixin inherits from (a subclass of) PolymorphicObject and provides a base implementation of a ne...">
<polygon fill="#ffffff" stroke="#000000" points="138,-114 138,-155 332,-155 332,-114 138,-114"/>
<text text-anchor="start" x="146" y="-143" font-family="Helvetica,sans-Serif" font-size="10.00" fill="#000000">gko::EnableAbstractPolymorphic</text>
<text text-anchor="start" x="146" y="-132" font-family="Helvetica,sans-Serif" font-size="10.00" fill="#000000">Object&lt; AbstactObject, Polymorphic</text>
<text text-anchor="middle" x="235" y="-121" font-family="Helvetica,sans-Serif" font-size="10.00" fill="#000000">Base &gt;</text>
</a>
</g>
</g>
<!-- Node3&#45;&gt;Node4 -->
<g id="edge5" class="edge">
<title>Node3&#45;&gt;Node4</title>
<path fill="none" stroke="#191970" d="M111.545,-134.5C120.0403,-134.5 128.9358,-134.5 137.8925,-134.5"/>
<polygon fill="#191970" stroke="#191970" points="111.4039,-131.0001 101.4038,-134.5 111.4038,-138.0001 111.4039,-131.0001"/>
</g>
<!-- Node6 -->
<g id="node7" class="node">
<title>Node6</title>
<g id="a_node7"><a xlink:href="classgko_1_1EnableAbstractPolymorphicObject.html" target="_top" xlink:title="gko::EnableAbstractPolymorphic\lObject\&lt; ConcreteObject, Polymorphic\lBase \&gt;">
<polygon fill="#ffffff" stroke="#000000" points="525,-83 525,-124 726,-124 726,-83 525,-83"/>
<text text-anchor="start" x="533" y="-112" font-family="Helvetica,sans-Serif" font-size="10.00" fill="#000000">gko::EnableAbstractPolymorphic</text>
<text text-anchor="start" x="533" y="-101" font-family="Helvetica,sans-Serif" font-size="10.00" fill="#000000">Object&lt; ConcreteObject, Polymorphic</text>
<text text-anchor="middle" x="625.5" y="-90" font-family="Helvetica,sans-Serif" font-size="10.00" fill="#000000">Base &gt;</text>
</a>
</g>
</g>
<!-- Node3&#45;&gt;Node6 -->
<g id="edge8" class="edge">
<title>Node3&#45;&gt;Node6</title>
<path fill="none" stroke="#191970" d="M81.9021,-121.0342C98.2932,-114.7036 118.8709,-107.8275 138,-104.5 299.5791,-76.3938 343.0004,-100.1161 507,-101.5 512.8639,-101.5495 518.8909,-101.6127 524.9719,-101.6861"/>
<polygon fill="#191970" stroke="#191970" points="80.2796,-117.9131 72.2877,-124.8688 82.8729,-124.4151 80.2796,-117.9131"/>
</g>
<!-- Node4&#45;&gt;Node2 -->
<g id="edge4" class="edge">
<title>Node4&#45;&gt;Node2</title>
<path fill="none" stroke="#ffa500" stroke-dasharray="5,2" d="M342.2763,-142.4667C399.9729,-146.7515 470.6277,-151.9986 526.9338,-156.1801"/>
<polygon fill="#ffa500" stroke="#ffa500" points="342.2616,-138.9561 332.0298,-141.7058 341.7431,-145.9369 342.2616,-138.9561"/>
<text text-anchor="start" x="352" y="-167.5" font-family="Helvetica,sans-Serif" font-size="10.00" fill="#000000"> &lt; ConcreteLinOp, Polymorphic</text>
<text text-anchor="middle" x="428.5" y="-156.5" font-family="Helvetica,sans-Serif" font-size="10.00" fill="#000000">Base &gt;</text>
</g>
<!-- Node4&#45;&gt;Node6 -->
<g id="edge9" class="edge">
<title>Node4&#45;&gt;Node6</title>
<path fill="none" stroke="#ffa500" stroke-dasharray="5,2" d="M342.2679,-117.3303C344.8687,-117.0366 347.4492,-116.759 350,-116.5 407.7611,-110.6341 472.6095,-107.4085 524.8742,-105.638"/>
<polygon fill="#ffa500" stroke="#ffa500" points="341.6689,-113.8768 332.1542,-118.5373 342.4985,-120.8275 341.6689,-113.8768"/>
<text text-anchor="start" x="350" y="-130.5" font-family="Helvetica,sans-Serif" font-size="10.00" fill="#000000"> &lt; ConcreteObject, Polymorphic</text>
<text text-anchor="middle" x="428.5" y="-119.5" font-family="Helvetica,sans-Serif" font-size="10.00" fill="#000000">Base &gt;</text>
</g>
<!-- Node5 -->
<g id="node6" class="node">
<title>Node5</title>
<g id="a_node6"><a xlink:href="classgko_1_1EnablePolymorphicObject.html" target="_top" xlink:title="This mixin inherits from (a subclass of) PolymorphicObject and provides a base implementation of a ne...">
<polygon fill="#ffffff" stroke="#000000" points="859,-98.5 859,-128.5 1064,-128.5 1064,-98.5 859,-98.5"/>
<text text-anchor="start" x="867" y="-116.5" font-family="Helvetica,sans-Serif" font-size="10.00" fill="#000000">gko::EnablePolymorphicObject</text>
<text text-anchor="middle" x="961.5" y="-105.5" font-family="Helvetica,sans-Serif" font-size="10.00" fill="#000000">&lt; ConcreteObject, PolymorphicBase &gt;</text>
</a>
</g>
</g>
<!-- Node5&#45;&gt;Node1 -->
<g id="edge6" class="edge">
<title>Node5&#45;&gt;Node1</title>
<path fill="none" stroke="#ffa500" stroke-dasharray="5,2" d="M1074.2567,-113.5C1130.5873,-113.5 1198.1847,-113.5 1252.7614,-113.5"/>
<polygon fill="#ffa500" stroke="#ffa500" points="1074.2373,-110.0001 1064.2373,-113.5 1074.2372,-117.0001 1074.2373,-110.0001"/>
<text text-anchor="start" x="1082" y="-127.5" font-family="Helvetica,sans-Serif" font-size="10.00" fill="#000000"> &lt; ConcreteLinOp, Polymorphic</text>
<text text-anchor="middle" x="1158.5" y="-116.5" font-family="Helvetica,sans-Serif" font-size="10.00" fill="#000000">Base &gt;</text>
</g>
<!-- Node6&#45;&gt;Node5 -->
<g id="edge7" class="edge">
<title>Node6&#45;&gt;Node5</title>
<path fill="none" stroke="#191970" d="M736.4863,-106.8032C775.8889,-107.9759 820.0386,-109.2898 858.7256,-110.4412"/>
<polygon fill="#191970" stroke="#191970" points="736.4108,-103.2995 726.3111,-106.5003 736.2025,-110.2964 736.4108,-103.2995"/>
</g>
<!-- Node7 -->
<g id="node8" class="node">
<title>Node7</title>
<g id="a_node8"><a xlink:href="classgko_1_1EnablePolymorphicAssignment.html" target="_top" xlink:title="gko::EnablePolymorphicAssignment\l\&lt; ConcreteLinOp \&gt;">
<polygon fill="#ffffff" stroke="#000000" points="1257.5,-49.5 1257.5,-79.5 1449.5,-79.5 1449.5,-49.5 1257.5,-49.5"/>
<text text-anchor="start" x="1265.5" y="-67.5" font-family="Helvetica,sans-Serif" font-size="10.00" fill="#000000">gko::EnablePolymorphicAssignment</text>
<text text-anchor="middle" x="1353.5" y="-56.5" font-family="Helvetica,sans-Serif" font-size="10.00" fill="#000000">&lt; ConcreteLinOp &gt;</text>
</a>
</g>
</g>
<!-- Node7&#45;&gt;Node0 -->
<g id="edge10" class="edge">
<title>Node7&#45;&gt;Node0</title>
<path fill="none" stroke="#191970" d="M1459.6533,-76.3222C1470.1692,-77.4933 1480.7053,-78.6667 1490.8609,-79.7977"/>
<polygon fill="#191970" stroke="#191970" points="1459.9164,-72.8299 1449.5904,-75.2015 1459.1415,-79.7869 1459.9164,-72.8299"/>
</g>
<!-- Node8 -->
<g id="node9" class="node">
<title>Node8</title>
<g id="a_node9"><a xlink:href="classgko_1_1ConvertibleTo.html" target="_top" xlink:title="gko::ConvertibleTo\l\&lt; ConcreteLinOp \&gt;">
<polygon fill="#ffffff" stroke="#000000" points="906.5,-49.5 906.5,-79.5 1016.5,-79.5 1016.5,-49.5 906.5,-49.5"/>
<text text-anchor="start" x="914.5" y="-67.5" font-family="Helvetica,sans-Serif" font-size="10.00" fill="#000000">gko::ConvertibleTo</text>
<text text-anchor="middle" x="961.5" y="-56.5" font-family="Helvetica,sans-Serif" font-size="10.00" fill="#000000">&lt; ConcreteLinOp &gt;</text>
</a>
</g>
</g>
<!-- Node8&#45;&gt;Node7 -->
<g id="edge11" class="edge">
<title>Node8&#45;&gt;Node7</title>
<path fill="none" stroke="#191970" d="M1027.0239,-64.5C1089.9342,-64.5 1185.7021,-64.5 1257.2698,-64.5"/>
<polygon fill="#191970" stroke="#191970" points="1026.8327,-61.0001 1016.8326,-64.5 1026.8326,-68.0001 1026.8327,-61.0001"/>
</g>
<!-- Node9 -->
<g id="node10" class="node">
<title>Node9</title>
<g id="a_node10"><a xlink:href="classgko_1_1ConvertibleTo.html" target="_top" xlink:title="ConvertibleTo interface is used to mark that the implementer can be converted to the object of Result...">
<polygon fill="#ffffff" stroke="#000000" points="572,-24.5 572,-54.5 679,-54.5 679,-24.5 572,-24.5"/>
<text text-anchor="start" x="580" y="-42.5" font-family="Helvetica,sans-Serif" font-size="10.00" fill="#000000">gko::ConvertibleTo</text>
<text text-anchor="middle" x="625.5" y="-31.5" font-family="Helvetica,sans-Serif" font-size="10.00" fill="#000000">&lt; ResultType &gt;</text>
</a>
</g>
</g>
<!-- Node9&#45;&gt;Node8 -->
<g id="edge12" class="edge">
<title>Node9&#45;&gt;Node8</title>
<path fill="none" stroke="#ffa500" stroke-dasharray="5,2" d="M689.2817,-44.2457C752.0304,-48.9145 846.8411,-55.9688 906.4044,-60.4006"/>
<polygon fill="#ffa500" stroke="#ffa500" points="689.3439,-40.7407 679.1117,-43.489 688.8244,-47.7214 689.3439,-40.7407"/>
<text text-anchor="middle" x="792.5" y="-58.5" font-family="Helvetica,sans-Serif" font-size="10.00" fill="#000000"> &lt; ConcreteLinOp &gt;</text>
</g>
<!-- Node10 -->
<g id="node11" class="node">
<title>Node10</title>
<g id="a_node11"><a xlink:href="classgko_1_1EnablePolymorphicAssignment.html" target="_top" xlink:title="This mixin is used to enable a default PolymorphicObject::copy_from() implementation for objects that...">
<polygon fill="#ffffff" stroke="#000000" points="865.5,-.5 865.5,-30.5 1057.5,-30.5 1057.5,-.5 865.5,-.5"/>
<text text-anchor="start" x="873.5" y="-18.5" font-family="Helvetica,sans-Serif" font-size="10.00" fill="#000000">gko::EnablePolymorphicAssignment</text>
<text text-anchor="middle" x="961.5" y="-7.5" font-family="Helvetica,sans-Serif" font-size="10.00" fill="#000000">&lt; ConcreteType, ResultType &gt;</text>
</a>
</g>
</g>
<!-- Node9&#45;&gt;Node10 -->
<g id="edge14" class="edge">
<title>Node9&#45;&gt;Node10</title>
<path fill="none" stroke="#191970" d="M689.0947,-34.9575C738.8433,-31.4041 808.8283,-26.4051 865.4039,-22.364"/>
<polygon fill="#191970" stroke="#191970" points="688.8369,-31.4669 679.1117,-35.6706 689.3357,-38.4491 688.8369,-31.4669"/>
</g>
<!-- Node10&#45;&gt;Node7 -->
<g id="edge13" class="edge">
<title>Node10&#45;&gt;Node7</title>
<path fill="none" stroke="#ffa500" stroke-dasharray="5,2" d="M1067.6855,-28.6444C1118.3448,-34.9298 1179.8091,-42.5764 1235,-49.5 1242.3044,-50.4163 1249.8617,-51.367 1257.4614,-52.3248"/>
<polygon fill="#ffa500" stroke="#ffa500" points="1068.0575,-25.1639 1057.7027,-27.4062 1067.1958,-32.1106 1068.0575,-25.1639"/>
<text text-anchor="middle" x="1158.5" y="-52.5" font-family="Helvetica,sans-Serif" font-size="10.00" fill="#000000"> &lt; ConcreteLinOp &gt;</text>
</g>
</g>
</svg>
