<?xml version="1.0" encoding="UTF-8" standalone="no"?>
<!DOCTYPE svg PUBLIC "-//W3C//DTD SVG 1.1//EN"
 "http://www.w3.org/Graphics/SVG/1.1/DTD/svg11.dtd">
<!-- Generated by graphviz version 2.40.1 (20161225.0304)
 -->
<!-- Title: gko::matrix::Csr&lt; ValueType, IndexType &gt; Pages: 1 -->
<!--zoomable 516 -->
<svg id="main" version="1.1" xmlns="http://www.w3.org/2000/svg" xmlns:xlink="http://www.w3.org/1999/xlink" xml:space="preserve" onload="init(evt)">
<style type="text/css"><![CDATA[
.edge:hover path { stroke: red; }
.edge:hover polygon { stroke: red; fill: red; }
]]></style>
<script type="text/javascript"><![CDATA[
var edges = document.getElementsByTagName('g');
if (edges && edges.length) {
  for (var i=0;i<edges.length;i++) {
    if (edges[i].id.substr(0,4)=='edge') {
      edges[i].setAttribute('class','edge');
    }
  }
}
]]></script>
        <defs>
                <circle id="rim" cx="0" cy="0" r="7"/>
                <circle id="rim2" cx="0" cy="0" r="3.5"/>
                <g id="zoomPlus">
                        <use xlink:href="#rim" fill="#404040">
                                <set attributeName="fill" to="#808080" begin="zoomplus.mouseover" end="zoomplus.mouseout"/>
                        </use>
                        <path d="M-4,0h8M0,-4v8" fill="none" stroke="white" stroke-width="1.5" pointer-events="none"/>
                </g>
                <g id="zoomMin">
                        <use xlink:href="#rim" fill="#404040">
                                <set attributeName="fill" to="#808080" begin="zoomminus.mouseover" end="zoomminus.mouseout"/>
                        </use>
                        <path d="M-4,0h8" fill="none" stroke="white" stroke-width="1.5" pointer-events="none"/>
                </g>
                <g id="dirArrow">
                        <path fill="none" stroke="white" stroke-width="1.5" d="M0,-3.0v7 M-2.5,-0.5L0,-3.0L2.5,-0.5"/>
                </g>
               <g id="resetDef">
                       <use xlink:href="#rim2" fill="#404040">
                               <set attributeName="fill" to="#808080" begin="reset.mouseover" end="reset.mouseout"/>
                       </use>
               </g>
        </defs>

<script type="text/javascript">
var viewWidth = 2529;
var viewHeight = 516;
var sectionId = 'dynsection-0';
</script>
<script xlink:href="svgpan.js"/>
<svg id="graph" class="graph">
<g id="viewport">
<title>gko::matrix::Csr&lt; ValueType, IndexType &gt;</title>
<polygon fill="#ffffff" stroke="transparent" points="-4,4 -4,-512.4623 2525,-512.4623 2525,4 -4,4"/>
<!-- Node0 -->
<g id="node1" class="node">
<title>Node0</title>
<polygon fill="#bfbfbf" stroke="#000000" points="2363,-279.4623 2363,-309.4623 2521,-309.4623 2521,-279.4623 2363,-279.4623"/>
<text text-anchor="start" x="2371" y="-297.4623" font-family="Helvetica,sans-Serif" font-size="10.00" fill="#000000">gko::matrix::Csr&lt; ValueType,</text>
<text text-anchor="middle" x="2442" y="-286.4623" font-family="Helvetica,sans-Serif" font-size="10.00" fill="#000000"> IndexType &gt;</text>
</g>
<!-- Node1 -->
<g id="node2" class="node">
<title>Node1</title>
<g id="a_node2"><a xlink:href="classgko_1_1EnableLinOp.html" target="_top" xlink:title="gko::EnableLinOp\&lt; Csr\l\&lt; ValueType, IndexType \&gt; \&gt;">
<polygon fill="#ffffff" stroke="#000000" points="2157.5,-248.4623 2157.5,-278.4623 2312.5,-278.4623 2312.5,-248.4623 2157.5,-248.4623"/>
<text text-anchor="start" x="2165.5" y="-266.4623" font-family="Helvetica,sans-Serif" font-size="10.00" fill="#000000">gko::EnableLinOp&lt; Csr</text>
<text text-anchor="middle" x="2235" y="-255.4623" font-family="Helvetica,sans-Serif" font-size="10.00" fill="#000000">&lt; ValueType, IndexType &gt; &gt;</text>
</a>
</g>
</g>
<!-- Node1&#45;&gt;Node0 -->
<g id="edge1" class="edge">
<title>Node1&#45;&gt;Node0</title>
<path fill="none" stroke="#191970" d="M2322.7644,-276.6058C2336.0776,-278.5995 2349.7464,-280.6466 2362.8619,-282.6107"/>
<polygon fill="#191970" stroke="#191970" points="2323.0762,-273.1135 2312.6681,-275.0938 2322.0394,-280.0363 2323.0762,-273.1135"/>
</g>
<!-- Node2 -->
<g id="node3" class="node">
<title>Node2</title>
<g id="a_node3"><a xlink:href="classgko_1_1EnablePolymorphicObject.html" target="_top" xlink:title="gko::EnablePolymorphicObject\l\&lt; Csr\&lt; ValueType, IndexType\l \&gt;, LinOp \&gt;">
<polygon fill="#ffffff" stroke="#000000" points="1763,-79.9623 1763,-120.9623 1929,-120.9623 1929,-79.9623 1763,-79.9623"/>
<text text-anchor="start" x="1771" y="-108.9623" font-family="Helvetica,sans-Serif" font-size="10.00" fill="#000000">gko::EnablePolymorphicObject</text>
<text text-anchor="start" x="1771" y="-97.9623" font-family="Helvetica,sans-Serif" font-size="10.00" fill="#000000">&lt; Csr&lt; ValueType, IndexType</text>
<text text-anchor="middle" x="1846" y="-86.9623" font-family="Helvetica,sans-Serif" font-size="10.00" fill="#000000"> &gt;, LinOp &gt;</text>
</a>
</g>
</g>
<!-- Node2&#45;&gt;Node1 -->
<g id="edge2" class="edge">
<title>Node2&#45;&gt;Node1</title>
<path fill="none" stroke="#191970" d="M1938.9428,-111.3865C1999.0036,-122.89 2075.161,-146.4231 2126,-194.4623 2141.6565,-209.2567 2127.8637,-225.1928 2144,-239.4623 2148.0391,-243.0341 2152.5489,-246.0838 2157.3411,-248.6867"/>
<polygon fill="#191970" stroke="#191970" points="1939.5363,-107.9371 1929.0689,-109.575 1938.2731,-114.8221 1939.5363,-107.9371"/>
</g>
<!-- Node3 -->
<g id="node4" class="node">
<title>Node3</title>
<g id="a_node4"><a xlink:href="classgko_1_1EnableAbstractPolymorphicObject.html" target="_top" xlink:title="gko::EnableAbstractPolymorphic\lObject\&lt; Csr\&lt; ValueType, IndexType\l \&gt;, LinOp \&gt;">
<polygon fill="#ffffff" stroke="#000000" points="1346,-44.9623 1346,-85.9623 1537,-85.9623 1537,-44.9623 1346,-44.9623"/>
<text text-anchor="start" x="1354" y="-73.9623" font-family="Helvetica,sans-Serif" font-size="10.00" fill="#000000">gko::EnableAbstractPolymorphic</text>
<text text-anchor="start" x="1354" y="-62.9623" font-family="Helvetica,sans-Serif" font-size="10.00" fill="#000000">Object&lt; Csr&lt; ValueType, IndexType</text>
<text text-anchor="middle" x="1441.5" y="-51.9623" font-family="Helvetica,sans-Serif" font-size="10.00" fill="#000000"> &gt;, LinOp &gt;</text>
</a>
</g>
</g>
<!-- Node3&#45;&gt;Node2 -->
<g id="edge3" class="edge">
<title>Node3&#45;&gt;Node2</title>
<path fill="none" stroke="#191970" d="M1547.3059,-74.6173C1614.5358,-80.4345 1700.3296,-87.858 1762.7053,-93.2551"/>
<polygon fill="#191970" stroke="#191970" points="1547.3692,-71.1098 1537.1046,-73.7347 1546.7657,-78.0838 1547.3692,-71.1098"/>
</g>
<!-- Node4 -->
<g id="node5" class="node">
<title>Node4</title>
<g id="a_node5"><a xlink:href="classgko_1_1LinOp.html" target="_top" xlink:title="gko::LinOp">
<polygon fill="#ffffff" stroke="#000000" points="999.5,-65.9623 999.5,-84.9623 1067.5,-84.9623 1067.5,-65.9623 999.5,-65.9623"/>
<text text-anchor="middle" x="1033.5" y="-72.9623" font-family="Helvetica,sans-Serif" font-size="10.00" fill="#000000">gko::LinOp</text>
</a>
</g>
</g>
<!-- Node4&#45;&gt;Node3 -->
<g id="edge4" class="edge">
<title>Node4&#45;&gt;Node3</title>
<path fill="none" stroke="#191970" d="M1077.708,-74.3788C1141.5225,-72.8147 1261.0626,-69.8848 1345.673,-67.811"/>
<polygon fill="#191970" stroke="#191970" points="1077.4953,-70.8828 1067.5841,-74.6269 1077.6669,-77.8807 1077.4953,-70.8828"/>
</g>
<!-- Node5 -->
<g id="node6" class="node">
<title>Node5</title>
<g id="a_node6"><a xlink:href="classgko_1_1EnableAbstractPolymorphicObject.html" target="_top" xlink:title="gko::EnableAbstractPolymorphic\lObject\&lt; LinOp \&gt;">
<polygon fill="#ffffff" stroke="#ff0000" points="538,-75.4623 538,-105.4623 713,-105.4623 713,-75.4623 538,-75.4623"/>
<text text-anchor="start" x="546" y="-93.4623" font-family="Helvetica,sans-Serif" font-size="10.00" fill="#000000">gko::EnableAbstractPolymorphic</text>
<text text-anchor="middle" x="625.5" y="-82.4623" font-family="Helvetica,sans-Serif" font-size="10.00" fill="#000000">Object&lt; LinOp &gt;</text>
</a>
</g>
</g>
<!-- Node5&#45;&gt;Node4 -->
<g id="edge5" class="edge">
<title>Node5&#45;&gt;Node4</title>
<path fill="none" stroke="#191970" d="M723.1636,-86.8717C812.3446,-83.593 939.1591,-78.9307 999.3094,-76.7193"/>
<polygon fill="#191970" stroke="#191970" points="722.8909,-83.3793 713.0262,-87.2444 723.1481,-90.3746 722.8909,-83.3793"/>
</g>
<!-- Node10 -->
<g id="node7" class="node">
<title>Node10</title>
<g id="a_node7"><a xlink:href="classgko_1_1EnableAbstractPolymorphicObject.html" target="_top" xlink:title="This mixin inherits from (a subclass of) PolymorphicObject and provides a base implementation of a ne...">
<polygon fill="#ffffff" stroke="#000000" points="138,-53.9623 138,-94.9623 332,-94.9623 332,-53.9623 138,-53.9623"/>
<text text-anchor="start" x="146" y="-82.9623" font-family="Helvetica,sans-Serif" font-size="10.00" fill="#000000">gko::EnableAbstractPolymorphic</text>
<text text-anchor="start" x="146" y="-71.9623" font-family="Helvetica,sans-Serif" font-size="10.00" fill="#000000">Object&lt; AbstactObject, Polymorphic</text>
<text text-anchor="middle" x="235" y="-60.9623" font-family="Helvetica,sans-Serif" font-size="10.00" fill="#000000">Base &gt;</text>
</a>
</g>
</g>
<!-- Node10&#45;&gt;Node3 -->
<g id="edge8" class="edge">
<title>Node10&#45;&gt;Node3</title>
<path fill="none" stroke="#ffa500" stroke-dasharray="5,2" d="M301.5082,-50.6862C317.2774,-45.5511 334.1295,-40.468 350,-36.4623 426.5869,-17.1321 446.3146,-12.3778 525,-5.4623 588.8922,.153 983.9598,3.4406 1136,-6.4623 1219.6156,-11.9085 1242.8426,-6.0486 1323,-30.4623 1331.5562,-33.0683 1332.6241,-36.3249 1341,-39.4623 1346.0632,-41.3589 1351.3198,-43.168 1356.655,-44.8841"/>
<polygon fill="#ffa500" stroke="#ffa500" points="300.2433,-47.418 291.8481,-53.881 302.4413,-54.064 300.2433,-47.418"/>
<text text-anchor="start" x="755" y="-14.4623" font-family="Helvetica,sans-Serif" font-size="10.00" fill="#000000"> &lt; Csr&lt; ValueType, IndexType</text>
<text text-anchor="middle" x="828.5" y="-3.4623" font-family="Helvetica,sans-Serif" font-size="10.00" fill="#000000"> &gt;, LinOp &gt;</text>
</g>
<!-- Node10&#45;&gt;Node5 -->
<g id="edge6" class="edge">
<title>Node10&#45;&gt;Node5</title>
<path fill="none" stroke="#ffa500" stroke-dasharray="5,2" d="M342.1667,-78.8533C403.7194,-81.3753 480.0484,-84.5027 537.9691,-86.8759"/>
<polygon fill="#ffa500" stroke="#ffa500" points="342.1648,-75.3503 332.0298,-78.4379 341.8781,-82.3445 342.1648,-75.3503"/>
<text text-anchor="middle" x="428.5" y="-88.4623" font-family="Helvetica,sans-Serif" font-size="10.00" fill="#000000"> &lt; LinOp &gt;</text>
</g>
<!-- Node13 -->
<g id="node10" class="node">
<title>Node13</title>
<g id="a_node10"><a xlink:href="classgko_1_1EnableAbstractPolymorphicObject.html" target="_top" xlink:title="gko::EnableAbstractPolymorphic\lObject\&lt; ConcreteObject, Polymorphic\lBase \&gt;">
<polygon fill="#ffffff" stroke="#000000" points="525,-14.9623 525,-55.9623 726,-55.9623 726,-14.9623 525,-14.9623"/>
<text text-anchor="start" x="533" y="-43.9623" font-family="Helvetica,sans-Serif" font-size="10.00" fill="#000000">gko::EnableAbstractPolymorphic</text>
<text text-anchor="start" x="533" y="-32.9623" font-family="Helvetica,sans-Serif" font-size="10.00" fill="#000000">Object&lt; ConcreteObject, Polymorphic</text>
<text text-anchor="middle" x="625.5" y="-21.9623" font-family="Helvetica,sans-Serif" font-size="10.00" fill="#000000">Base &gt;</text>
</a>
</g>
</g>
<!-- Node10&#45;&gt;Node13 -->
<g id="edge12" class="edge">
<title>Node10&#45;&gt;Node13</title>
<path fill="none" stroke="#ffa500" stroke-dasharray="5,2" d="M342.255,-54.4676C344.8597,-54.1141 347.4444,-53.7781 350,-53.4623 407.6788,-46.3359 472.5228,-41.9222 524.8057,-39.2502"/>
<polygon fill="#ffa500" stroke="#ffa500" points="341.5342,-51.0349 332.1287,-55.9121 342.5227,-57.9648 341.5342,-51.0349"/>
<text text-anchor="start" x="350" y="-67.4623" font-family="Helvetica,sans-Serif" font-size="10.00" fill="#000000"> &lt; ConcreteObject, Polymorphic</text>
<text text-anchor="middle" x="428.5" y="-56.4623" font-family="Helvetica,sans-Serif" font-size="10.00" fill="#000000">Base &gt;</text>
</g>
<!-- Node20 -->
<g id="node17" class="node">
<title>Node20</title>
<g id="a_node17"><a xlink:href="classgko_1_1EnableAbstractPolymorphicObject.html" target="_top" xlink:title="gko::EnableAbstractPolymorphic\lObject\&lt; ConcreteLinOp, Polymorphic\lBase \&gt;">
<polygon fill="#ffffff" stroke="#000000" points="527,-124.9623 527,-165.9623 724,-165.9623 724,-124.9623 527,-124.9623"/>
<text text-anchor="start" x="535" y="-153.9623" font-family="Helvetica,sans-Serif" font-size="10.00" fill="#000000">gko::EnableAbstractPolymorphic</text>
<text text-anchor="start" x="535" y="-142.9623" font-family="Helvetica,sans-Serif" font-size="10.00" fill="#000000">Object&lt; ConcreteLinOp, Polymorphic</text>
<text text-anchor="middle" x="625.5" y="-131.9623" font-family="Helvetica,sans-Serif" font-size="10.00" fill="#000000">Base &gt;</text>
</a>
</g>
</g>
<!-- Node10&#45;&gt;Node20 -->
<g id="edge22" class="edge">
<title>Node10&#45;&gt;Node20</title>
<path fill="none" stroke="#ffa500" stroke-dasharray="5,2" d="M332.656,-97.0374C338.5159,-98.2378 344.3309,-99.3895 350,-100.4623 419.3575,-113.587 437.3535,-112.9695 507,-124.4623 513.4936,-125.5339 520.1834,-126.6597 526.9226,-127.8102"/>
<polygon fill="#ffa500" stroke="#ffa500" points="333.2734,-93.591 322.7696,-94.9769 331.8451,-100.4437 333.2734,-93.591"/>
<text text-anchor="start" x="352" y="-138.4623" font-family="Helvetica,sans-Serif" font-size="10.00" fill="#000000"> &lt; ConcreteLinOp, Polymorphic</text>
<text text-anchor="middle" x="428.5" y="-127.4623" font-family="Helvetica,sans-Serif" font-size="10.00" fill="#000000">Base &gt;</text>
</g>
<!-- Node11 -->
<g id="node8" class="node">
<title>Node11</title>
<polygon fill="#ffffff" stroke="#bfbfbf" points="0,-64.9623 0,-83.9623 101,-83.9623 101,-64.9623 0,-64.9623"/>
<text text-anchor="middle" x="50.5" y="-71.9623" font-family="Helvetica,sans-Serif" font-size="10.00" fill="#000000">PolymorphicBase</text>
</g>
<!-- Node11&#45;&gt;Node10 -->
<g id="edge7" class="edge">
<title>Node11&#45;&gt;Node10</title>
<path fill="none" stroke="#191970" d="M111.545,-74.4623C120.0403,-74.4623 128.9358,-74.4623 137.8925,-74.4623"/>
<polygon fill="#191970" stroke="#191970" points="111.4039,-70.9624 101.4038,-74.4623 111.4038,-77.9624 111.4039,-70.9624"/>
</g>
<!-- Node11&#45;&gt;Node13 -->
<g id="edge11" class="edge">
<title>Node11&#45;&gt;Node13</title>
<path fill="none" stroke="#191970" d="M82.2735,-61.0555C98.6177,-54.8094 119.0422,-47.9906 138,-44.4623 269.905,-19.9131 425.3504,-22.3127 524.6227,-27.7015"/>
<polygon fill="#191970" stroke="#191970" points="80.6958,-57.9151 72.6738,-64.836 83.2608,-64.4283 80.6958,-57.9151"/>
</g>
<!-- Node11&#45;&gt;Node20 -->
<g id="edge21" class="edge">
<title>Node11&#45;&gt;Node20</title>
<path fill="none" stroke="#191970" d="M84.9636,-87.479C100.9417,-93.2024 120.2783,-99.6921 138,-104.4623 230.7521,-129.4285 254.4054,-137.0842 350,-146.4623 419.4444,-153.275 437.2228,-146.7567 507,-146.4623 513.4806,-146.435 520.1606,-146.3992 526.8927,-146.3575"/>
<polygon fill="#191970" stroke="#191970" points="86.0876,-84.1635 75.4935,-84.0366 83.6961,-90.7424 86.0876,-84.1635"/>
</g>
<!-- Node12 -->
<g id="node9" class="node">
<title>Node12</title>
<g id="a_node9"><a xlink:href="classgko_1_1EnablePolymorphicObject.html" target="_top" xlink:title="This mixin inherits from (a subclass of) PolymorphicObject and provides a base implementation of a ne...">
<polygon fill="#ffffff" stroke="#000000" points="931,-16.4623 931,-46.4623 1136,-46.4623 1136,-16.4623 931,-16.4623"/>
<text text-anchor="start" x="939" y="-34.4623" font-family="Helvetica,sans-Serif" font-size="10.00" fill="#000000">gko::EnablePolymorphicObject</text>
<text text-anchor="middle" x="1033.5" y="-23.4623" font-family="Helvetica,sans-Serif" font-size="10.00" fill="#000000">&lt; ConcreteObject, PolymorphicBase &gt;</text>
</a>
</g>
</g>
<!-- Node12&#45;&gt;Node2 -->
<g id="edge9" class="edge">
<title>Node12&#45;&gt;Node2</title>
<path fill="none" stroke="#ffa500" stroke-dasharray="5,2" d="M1146.4633,-16.2454C1249.8987,-4.9654 1406.9659,5.4798 1542,-13.4623 1631.4292,-26.0071 1731.4515,-58.3528 1791.5273,-79.8723"/>
<polygon fill="#ffa500" stroke="#ffa500" points="1145.8634,-12.7904 1136.3114,-17.374 1146.6369,-19.7476 1145.8634,-12.7904"/>
<text text-anchor="start" x="1368" y="-27.4623" font-family="Helvetica,sans-Serif" font-size="10.00" fill="#000000"> &lt; Csr&lt; ValueType, IndexType</text>
<text text-anchor="middle" x="1441.5" y="-16.4623" font-family="Helvetica,sans-Serif" font-size="10.00" fill="#000000"> &gt;, LinOp &gt;</text>
</g>
<!-- Node19 -->
<g id="node16" class="node">
<title>Node19</title>
<g id="a_node16"><a xlink:href="classgko_1_1EnablePolymorphicObject.html" target="_top" xlink:title="gko::EnablePolymorphicObject\l\&lt; ConcreteLinOp, PolymorphicBase \&gt;">
<polygon fill="#ffffff" stroke="#000000" points="1341,-105.4623 1341,-135.4623 1542,-135.4623 1542,-105.4623 1341,-105.4623"/>
<text text-anchor="start" x="1349" y="-123.4623" font-family="Helvetica,sans-Serif" font-size="10.00" fill="#000000">gko::EnablePolymorphicObject</text>
<text text-anchor="middle" x="1441.5" y="-112.4623" font-family="Helvetica,sans-Serif" font-size="10.00" fill="#000000">&lt; ConcreteLinOp, PolymorphicBase &gt;</text>
</a>
</g>
</g>
<!-- Node12&#45;&gt;Node19 -->
<g id="edge23" class="edge">
<title>Node12&#45;&gt;Node19</title>
<path fill="none" stroke="#ffa500" stroke-dasharray="5,2" d="M1146.3548,-33.183C1202.0755,-37.9702 1268.794,-49.826 1323,-77.4623 1333.0793,-82.6011 1331.1515,-89.8938 1341,-95.4623 1347.8865,-99.356 1355.3746,-102.6498 1363.0541,-105.4349"/>
<polygon fill="#ffa500" stroke="#ffa500" points="1146.3293,-29.6701 1136.084,-32.3692 1145.7763,-36.6482 1146.3293,-29.6701"/>
<text text-anchor="start" x="1162" y="-91.4623" font-family="Helvetica,sans-Serif" font-size="10.00" fill="#000000"> &lt; ConcreteLinOp, Polymorphic</text>
<text text-anchor="middle" x="1238.5" y="-80.4623" font-family="Helvetica,sans-Serif" font-size="10.00" fill="#000000">Base &gt;</text>
</g>
<!-- Node13&#45;&gt;Node12 -->
<g id="edge10" class="edge">
<title>Node13&#45;&gt;Node12</title>
<path fill="none" stroke="#191970" d="M736.4636,-34.3744C797.0615,-33.7803 871.5974,-33.0496 930.8448,-32.4687"/>
<polygon fill="#191970" stroke="#191970" points="736.0573,-30.8782 726.0922,-34.4761 736.126,-37.8778 736.0573,-30.8782"/>
</g>
<!-- Node14 -->
<g id="node11" class="node">
<title>Node14</title>
<g id="a_node11"><a xlink:href="classgko_1_1EnablePolymorphicAssignment.html" target="_top" xlink:title="gko::EnablePolymorphicAssignment\l\&lt; Csr\&lt; ValueType, IndexType \&gt; \&gt;">
<polygon fill="#ffffff" stroke="#000000" points="1345.5,-240.4623 1345.5,-270.4623 1537.5,-270.4623 1537.5,-240.4623 1345.5,-240.4623"/>
<text text-anchor="start" x="1353.5" y="-258.4623" font-family="Helvetica,sans-Serif" font-size="10.00" fill="#000000">gko::EnablePolymorphicAssignment</text>
<text text-anchor="middle" x="1441.5" y="-247.4623" font-family="Helvetica,sans-Serif" font-size="10.00" fill="#000000">&lt; Csr&lt; ValueType, IndexType &gt; &gt;</text>
</a>
</g>
</g>
<!-- Node14&#45;&gt;Node1 -->
<g id="edge13" class="edge">
<title>Node14&#45;&gt;Node1</title>
<path fill="none" stroke="#191970" d="M1548.0743,-256.5368C1710.1249,-258.1706 2014.6962,-261.2412 2157.4516,-262.6805"/>
<polygon fill="#191970" stroke="#191970" points="1547.6445,-253.0324 1537.6097,-256.4313 1547.5739,-260.032 1547.6445,-253.0324"/>
</g>
<!-- Node15 -->
<g id="node12" class="node">
<title>Node15</title>
<g id="a_node12"><a xlink:href="classgko_1_1ConvertibleTo.html" target="_top" xlink:title="gko::ConvertibleTo\l\&lt; Csr\&lt; ValueType, IndexType \&gt; \&gt;">
<polygon fill="#ffffff" stroke="#000000" points="942.5,-240.4623 942.5,-270.4623 1124.5,-270.4623 1124.5,-240.4623 942.5,-240.4623"/>
<text text-anchor="start" x="950.5" y="-258.4623" font-family="Helvetica,sans-Serif" font-size="10.00" fill="#000000">gko::ConvertibleTo</text>
<text text-anchor="middle" x="1033.5" y="-247.4623" font-family="Helvetica,sans-Serif" font-size="10.00" fill="#000000">&lt; Csr&lt; ValueType, IndexType &gt; &gt;</text>
</a>
</g>
</g>
<!-- Node15&#45;&gt;Node14 -->
<g id="edge14" class="edge">
<title>Node15&#45;&gt;Node14</title>
<path fill="none" stroke="#191970" d="M1134.726,-255.4623C1199.1228,-255.4623 1282.014,-255.4623 1345.3954,-255.4623"/>
<polygon fill="#191970" stroke="#191970" points="1134.5554,-251.9624 1124.5553,-255.4623 1134.5553,-258.9624 1134.5554,-251.9624"/>
</g>
<!-- Node16 -->
<g id="node13" class="node">
<title>Node16</title>
<g id="a_node13"><a xlink:href="classgko_1_1ConvertibleTo.html" target="_top" xlink:title="ConvertibleTo interface is used to mark that the implementer can be converted to the object of Result...">
<polygon fill="#ffffff" stroke="#000000" points="572,-317.4623 572,-347.4623 679,-347.4623 679,-317.4623 572,-317.4623"/>
<text text-anchor="start" x="580" y="-335.4623" font-family="Helvetica,sans-Serif" font-size="10.00" fill="#000000">gko::ConvertibleTo</text>
<text text-anchor="middle" x="625.5" y="-324.4623" font-family="Helvetica,sans-Serif" font-size="10.00" fill="#000000">&lt; ResultType &gt;</text>
</a>
</g>
</g>
<!-- Node16&#45;&gt;Node15 -->
<g id="edge15" class="edge">
<title>Node16&#45;&gt;Node15</title>
<path fill="none" stroke="#ffa500" stroke-dasharray="5,2" d="M663.628,-312.8429C686.3656,-302.0486 716.1446,-289.4604 744,-282.4623 809.113,-266.104 884.7093,-259.4553 942.3212,-256.8427"/>
<polygon fill="#ffa500" stroke="#ffa500" points="661.8171,-309.8309 654.3406,-317.3376 664.8666,-316.1318 661.8171,-309.8309"/>
<text text-anchor="middle" x="828.5" y="-285.4623" font-family="Helvetica,sans-Serif" font-size="10.00" fill="#000000"> &lt; Csr&lt; ValueType, IndexType &gt; &gt;</text>
</g>
<!-- Node17 -->
<g id="node14" class="node">
<title>Node17</title>
<g id="a_node14"><a xlink:href="classgko_1_1EnablePolymorphicAssignment.html" target="_top" xlink:title="This mixin is used to enable a default PolymorphicObject::copy_from() implementation for objects that...">
<polygon fill="#ffffff" stroke="#000000" points="937.5,-191.4623 937.5,-221.4623 1129.5,-221.4623 1129.5,-191.4623 937.5,-191.4623"/>
<text text-anchor="start" x="945.5" y="-209.4623" font-family="Helvetica,sans-Serif" font-size="10.00" fill="#000000">gko::EnablePolymorphicAssignment</text>
<text text-anchor="middle" x="1033.5" y="-198.4623" font-family="Helvetica,sans-Serif" font-size="10.00" fill="#000000">&lt; ConcreteType, ResultType &gt;</text>
</a>
</g>
</g>
<!-- Node16&#45;&gt;Node17 -->
<g id="edge17" class="edge">
<title>Node16&#45;&gt;Node17</title>
<path fill="none" stroke="#191970" d="M650.8876,-311.1665C673.7628,-293.1487 709.0721,-268.1392 744,-254.4623 805.7896,-230.267 879.6453,-218.2667 937.2936,-212.3154"/>
<polygon fill="#191970" stroke="#191970" points="648.6582,-308.4678 643.0462,-317.4543 653.0373,-313.9289 648.6582,-308.4678"/>
</g>
<!-- Node22 -->
<g id="node19" class="node">
<title>Node22</title>
<g id="a_node19"><a xlink:href="classgko_1_1ConvertibleTo.html" target="_top" xlink:title="gko::ConvertibleTo\l\&lt; ConcreteLinOp \&gt;">
<polygon fill="#ffffff" stroke="#000000" points="978.5,-142.4623 978.5,-172.4623 1088.5,-172.4623 1088.5,-142.4623 978.5,-142.4623"/>
<text text-anchor="start" x="986.5" y="-160.4623" font-family="Helvetica,sans-Serif" font-size="10.00" fill="#000000">gko::ConvertibleTo</text>
<text text-anchor="middle" x="1033.5" y="-149.4623" font-family="Helvetica,sans-Serif" font-size="10.00" fill="#000000">&lt; ConcreteLinOp &gt;</text>
</a>
</g>
</g>
<!-- Node16&#45;&gt;Node22 -->
<g id="edge26" class="edge">
<title>Node16&#45;&gt;Node22</title>
<path fill="none" stroke="#ffa500" stroke-dasharray="5,2" d="M639.6587,-308.3198C659.0211,-277.7001 696.8042,-225.8392 744,-200.4623 818.0657,-160.6377 917.361,-154.3335 978.3096,-154.8533"/>
<polygon fill="#ffa500" stroke="#ffa500" points="636.5215,-306.739 634.251,-317.0877 642.4795,-310.4137 636.5215,-306.739"/>
<text text-anchor="middle" x="828.5" y="-203.4623" font-family="Helvetica,sans-Serif" font-size="10.00" fill="#000000"> &lt; ConcreteLinOp &gt;</text>
</g>
<!-- Node25 -->
<g id="node22" class="node">
<title>Node25</title>
<g id="a_node22"><a xlink:href="classgko_1_1ConvertibleTo.html" target="_top" xlink:title="gko::ConvertibleTo\l\&lt; Dense\&lt; ValueType \&gt; \&gt;">
<polygon fill="#ffffff" stroke="#000000" points="1167.5,-464.4623 1167.5,-494.4623 1309.5,-494.4623 1309.5,-464.4623 1167.5,-464.4623"/>
<text text-anchor="start" x="1175.5" y="-482.4623" font-family="Helvetica,sans-Serif" font-size="10.00" fill="#000000">gko::ConvertibleTo</text>
<text text-anchor="middle" x="1238.5" y="-471.4623" font-family="Helvetica,sans-Serif" font-size="10.00" fill="#000000">&lt; Dense&lt; ValueType &gt; &gt;</text>
</a>
</g>
</g>
<!-- Node16&#45;&gt;Node25 -->
<g id="edge31" class="edge">
<title>Node16&#45;&gt;Node25</title>
<path fill="none" stroke="#ffa500" stroke-dasharray="5,2" d="M640.0309,-356.1304C659.5554,-385.4843 697.2669,-434.2406 744,-455.4623 883.1081,-518.6321 1067.4404,-505.6502 1167.1309,-491.8121"/>
<polygon fill="#ffa500" stroke="#ffa500" points="642.9407,-354.1846 634.5656,-347.6954 637.066,-357.991 642.9407,-354.1846"/>
<text text-anchor="middle" x="828.5" y="-500.4623" font-family="Helvetica,sans-Serif" font-size="10.00" fill="#000000"> &lt; Dense&lt; ValueType &gt; &gt;</text>
</g>
<!-- Node26 -->
<g id="node23" class="node">
<title>Node26</title>
<g id="a_node23"><a xlink:href="classgko_1_1ConvertibleTo.html" target="_top" xlink:title="gko::ConvertibleTo\l\&lt; Coo\&lt; ValueType, IndexType \&gt; \&gt;">
<polygon fill="#ffffff" stroke="#000000" points="1560,-424.4623 1560,-454.4623 1745,-454.4623 1745,-424.4623 1560,-424.4623"/>
<text text-anchor="start" x="1568" y="-442.4623" font-family="Helvetica,sans-Serif" font-size="10.00" fill="#000000">gko::ConvertibleTo</text>
<text text-anchor="middle" x="1652.5" y="-431.4623" font-family="Helvetica,sans-Serif" font-size="10.00" fill="#000000">&lt; Coo&lt; ValueType, IndexType &gt; &gt;</text>
</a>
</g>
</g>
<!-- Node16&#45;&gt;Node26 -->
<g id="edge33" class="edge">
<title>Node16&#45;&gt;Node26</title>
<path fill="none" stroke="#ffa500" stroke-dasharray="5,2" d="M649.745,-353.9678C672.359,-372.5414 707.9378,-398.1242 744,-409.4623 893.7935,-456.5579 1359.6781,-448.5625 1559.7163,-442.6672"/>
<polygon fill="#ffa500" stroke="#ffa500" points="651.9314,-351.2335 642.0232,-347.4814 647.429,-356.5934 651.9314,-351.2335"/>
<text text-anchor="middle" x="1033.5" y="-448.4623" font-family="Helvetica,sans-Serif" font-size="10.00" fill="#000000"> &lt; Coo&lt; ValueType, IndexType &gt; &gt;</text>
</g>
<!-- Node27 -->
<g id="node24" class="node">
<title>Node27</title>
<g id="a_node24"><a xlink:href="classgko_1_1ConvertibleTo.html" target="_top" xlink:title="gko::ConvertibleTo\l\&lt; Ell\&lt; ValueType, IndexType \&gt; \&gt;">
<polygon fill="#ffffff" stroke="#000000" points="1947,-377.4623 1947,-407.4623 2126,-407.4623 2126,-377.4623 1947,-377.4623"/>
<text text-anchor="start" x="1955" y="-395.4623" font-family="Helvetica,sans-Serif" font-size="10.00" fill="#000000">gko::ConvertibleTo</text>
<text text-anchor="middle" x="2036.5" y="-384.4623" font-family="Helvetica,sans-Serif" font-size="10.00" fill="#000000">&lt; Ell&lt; ValueType, IndexType &gt; &gt;</text>
</a>
</g>
</g>
<!-- Node16&#45;&gt;Node27 -->
<g id="edge35" class="edge">
<title>Node16&#45;&gt;Node27</title>
<path fill="none" stroke="#ffa500" stroke-dasharray="5,2" d="M681.9865,-350.2823C701.4687,-355.8685 723.5379,-361.5816 744,-365.4623 871.0902,-389.5656 904.1443,-395.4623 1033.5,-395.4623 1033.5,-395.4623 1033.5,-395.4623 1652.5,-395.4623 1753.3364,-395.4623 1869.0628,-394.4151 1946.8857,-393.5581"/>
<polygon fill="#ffa500" stroke="#ffa500" points="682.9338,-346.9128 672.3537,-347.4713 680.9728,-353.6326 682.9338,-346.9128"/>
<text text-anchor="middle" x="1238.5" y="-398.4623" font-family="Helvetica,sans-Serif" font-size="10.00" fill="#000000"> &lt; Ell&lt; ValueType, IndexType &gt; &gt;</text>
</g>
<!-- Node28 -->
<g id="node25" class="node">
<title>Node28</title>
<g id="a_node25"><a xlink:href="classgko_1_1ConvertibleTo.html" target="_top" xlink:title="gko::ConvertibleTo\l\&lt; Hybrid\&lt; ValueType,\l IndexType \&gt; \&gt;">
<polygon fill="#ffffff" stroke="#000000" points="1176.5,-327.9623 1176.5,-368.9623 1300.5,-368.9623 1300.5,-327.9623 1176.5,-327.9623"/>
<text text-anchor="start" x="1184.5" y="-356.9623" font-family="Helvetica,sans-Serif" font-size="10.00" fill="#000000">gko::ConvertibleTo</text>
<text text-anchor="start" x="1184.5" y="-345.9623" font-family="Helvetica,sans-Serif" font-size="10.00" fill="#000000">&lt; Hybrid&lt; ValueType,</text>
<text text-anchor="middle" x="1238.5" y="-334.9623" font-family="Helvetica,sans-Serif" font-size="10.00" fill="#000000"> IndexType &gt; &gt;</text>
</a>
</g>
</g>
<!-- Node16&#45;&gt;Node28 -->
<g id="edge37" class="edge">
<title>Node16&#45;&gt;Node28</title>
<path fill="none" stroke="#ffa500" stroke-dasharray="5,2" d="M689.4347,-334.1311C807.7409,-337.219 1059.383,-343.7872 1176.3408,-346.8399"/>
<polygon fill="#ffa500" stroke="#ffa500" points="689.1826,-330.6234 679.0946,-333.8612 688.9999,-337.621 689.1826,-330.6234"/>
<text text-anchor="start" x="773" y="-353.4623" font-family="Helvetica,sans-Serif" font-size="10.00" fill="#000000"> &lt; Hybrid&lt; ValueType,</text>
<text text-anchor="middle" x="828.5" y="-342.4623" font-family="Helvetica,sans-Serif" font-size="10.00" fill="#000000"> IndexType &gt; &gt;</text>
</g>
<!-- Node29 -->
<g id="node26" class="node">
<title>Node29</title>
<g id="a_node26"><a xlink:href="classgko_1_1ConvertibleTo.html" target="_top" xlink:title="gko::ConvertibleTo\l\&lt; Sellp\&lt; ValueType,\l IndexType \&gt; \&gt;">
<polygon fill="#ffffff" stroke="#000000" points="1594.5,-286.9623 1594.5,-327.9623 1710.5,-327.9623 1710.5,-286.9623 1594.5,-286.9623"/>
<text text-anchor="start" x="1602.5" y="-315.9623" font-family="Helvetica,sans-Serif" font-size="10.00" fill="#000000">gko::ConvertibleTo</text>
<text text-anchor="start" x="1602.5" y="-304.9623" font-family="Helvetica,sans-Serif" font-size="10.00" fill="#000000">&lt; Sellp&lt; ValueType,</text>
<text text-anchor="middle" x="1652.5" y="-293.9623" font-family="Helvetica,sans-Serif" font-size="10.00" fill="#000000"> IndexType &gt; &gt;</text>
</a>
</g>
</g>
<!-- Node16&#45;&gt;Node29 -->
<g id="edge39" class="edge">
<title>Node16&#45;&gt;Node29</title>
<path fill="none" stroke="#ffa500" stroke-dasharray="5,2" d="M689.2556,-327.7908C751.0285,-323.481 847.3782,-317.3297 931,-314.4623 1177.6297,-306.0053 1471.9375,-306.4189 1594.4951,-307.0588"/>
<polygon fill="#ffa500" stroke="#ffa500" points="688.9986,-324.3001 679.2685,-328.4926 689.4893,-331.2829 688.9986,-324.3001"/>
<text text-anchor="start" x="982" y="-328.4623" font-family="Helvetica,sans-Serif" font-size="10.00" fill="#000000"> &lt; Sellp&lt; ValueType,</text>
<text text-anchor="middle" x="1033.5" y="-317.4623" font-family="Helvetica,sans-Serif" font-size="10.00" fill="#000000"> IndexType &gt; &gt;</text>
</g>
<!-- Node17&#45;&gt;Node14 -->
<g id="edge16" class="edge">
<title>Node17&#45;&gt;Node14</title>
<path fill="none" stroke="#ffa500" stroke-dasharray="5,2" d="M1139.7629,-218.7103C1194.5156,-225.0799 1262.3506,-233.0624 1323,-240.4623 1330.3075,-241.3539 1337.867,-242.2867 1345.4682,-243.232"/>
<polygon fill="#ffa500" stroke="#ffa500" points="1140.0336,-215.2182 1129.6963,-217.5402 1139.2253,-222.1714 1140.0336,-215.2182"/>
<text text-anchor="middle" x="1238.5" y="-243.4623" font-family="Helvetica,sans-Serif" font-size="10.00" fill="#000000"> &lt; Csr&lt; ValueType, IndexType &gt; &gt;</text>
</g>
<!-- Node21 -->
<g id="node18" class="node">
<title>Node21</title>
<g id="a_node18"><a xlink:href="classgko_1_1EnablePolymorphicAssignment.html" target="_top" xlink:title="gko::EnablePolymorphicAssignment\l\&lt; ConcreteLinOp \&gt;">
<polygon fill="#ffffff" stroke="#000000" points="1345.5,-164.4623 1345.5,-194.4623 1537.5,-194.4623 1537.5,-164.4623 1345.5,-164.4623"/>
<text text-anchor="start" x="1353.5" y="-182.4623" font-family="Helvetica,sans-Serif" font-size="10.00" fill="#000000">gko::EnablePolymorphicAssignment</text>
<text text-anchor="middle" x="1441.5" y="-171.4623" font-family="Helvetica,sans-Serif" font-size="10.00" fill="#000000">&lt; ConcreteLinOp &gt;</text>
</a>
</g>
</g>
<!-- Node17&#45;&gt;Node21 -->
<g id="edge27" class="edge">
<title>Node17&#45;&gt;Node21</title>
<path fill="none" stroke="#ffa500" stroke-dasharray="5,2" d="M1139.5655,-196.5696C1144.4432,-196.1809 1149.273,-195.8095 1154,-195.4623 1217.6912,-190.7844 1289.4101,-186.7909 1345.284,-183.9636"/>
<polygon fill="#ffa500" stroke="#ffa500" points="1139.1862,-193.0888 1129.5035,-197.3895 1139.7548,-200.0657 1139.1862,-193.0888"/>
<text text-anchor="middle" x="1238.5" y="-198.4623" font-family="Helvetica,sans-Serif" font-size="10.00" fill="#000000"> &lt; ConcreteLinOp &gt;</text>
</g>
<!-- Node18 -->
<g id="node15" class="node">
<title>Node18</title>
<g id="a_node15"><a xlink:href="classgko_1_1EnableLinOp.html" target="_top" xlink:title="The EnableLinOp mixin can be used to provide sensible default implementations of the majority of the ...">
<polygon fill="#ffffff" stroke="#000000" points="1768,-164.4623 1768,-194.4623 1924,-194.4623 1924,-164.4623 1768,-164.4623"/>
<text text-anchor="start" x="1776" y="-182.4623" font-family="Helvetica,sans-Serif" font-size="10.00" fill="#000000">gko::EnableLinOp&lt; Concrete</text>
<text text-anchor="middle" x="1846" y="-171.4623" font-family="Helvetica,sans-Serif" font-size="10.00" fill="#000000">LinOp, PolymorphicBase &gt;</text>
</a>
</g>
</g>
<!-- Node18&#45;&gt;Node1 -->
<g id="edge18" class="edge">
<title>Node18&#45;&gt;Node1</title>
<path fill="none" stroke="#ffa500" stroke-dasharray="5,2" d="M1934.3145,-195.0088C1989.6174,-205.1887 2062.2369,-219.3675 2126,-234.4623 2134.0796,-236.375 2135.9856,-237.2925 2144,-239.4623 2154.7243,-242.3659 2166.172,-245.4203 2177.202,-248.3405"/>
<polygon fill="#ffa500" stroke="#ffa500" points="1934.6628,-191.5144 1924.1958,-193.1552 1933.4014,-198.3998 1934.6628,-191.5144"/>
<text text-anchor="middle" x="2036.5" y="-237.4623" font-family="Helvetica,sans-Serif" font-size="10.00" fill="#000000"> &lt; Csr&lt; ValueType, IndexType &gt; &gt;</text>
</g>
<!-- Node19&#45;&gt;Node18 -->
<g id="edge19" class="edge">
<title>Node19&#45;&gt;Node18</title>
<path fill="none" stroke="#191970" d="M1551.9694,-136.5753C1620.3912,-146.5552 1706.5994,-159.1295 1767.9405,-168.0766"/>
<polygon fill="#191970" stroke="#191970" points="1552.409,-133.1024 1542.0085,-135.1224 1551.3986,-140.0291 1552.409,-133.1024"/>
</g>
<!-- Node20&#45;&gt;Node19 -->
<g id="edge20" class="edge">
<title>Node20&#45;&gt;Node19</title>
<path fill="none" stroke="#191970" d="M734.539,-140.8139C792.8246,-138.4214 865.8145,-135.5724 931,-133.4623 1073.2203,-128.8585 1237.772,-124.9175 1340.7511,-122.6179"/>
<polygon fill="#191970" stroke="#191970" points="734.0517,-137.3309 724.2043,-141.2397 734.3399,-144.325 734.0517,-137.3309"/>
</g>
<!-- Node21&#45;&gt;Node18 -->
<g id="edge24" class="edge">
<title>Node21&#45;&gt;Node18</title>
<path fill="none" stroke="#191970" d="M1547.6594,-179.4623C1616.7168,-179.4623 1705.246,-179.4623 1767.8787,-179.4623"/>
<polygon fill="#191970" stroke="#191970" points="1547.6173,-175.9624 1537.6173,-179.4623 1547.6172,-182.9624 1547.6173,-175.9624"/>
</g>
<!-- Node22&#45;&gt;Node21 -->
<g id="edge25" class="edge">
<title>Node22&#45;&gt;Node21</title>
<path fill="none" stroke="#191970" d="M1098.9751,-160.7194C1157.656,-163.6708 1246.0863,-168.1981 1323,-172.4623 1330.3049,-172.8673 1337.8626,-173.2946 1345.4624,-173.7302"/>
<polygon fill="#191970" stroke="#191970" points="1098.8989,-157.2113 1088.7359,-160.2053 1098.5477,-164.2025 1098.8989,-157.2113"/>
</g>
<!-- Node23 -->
<g id="node20" class="node">
<title>Node23</title>
<g id="a_node20"><a xlink:href="classgko_1_1EnableCreateMethod.html" target="_top" xlink:title="gko::EnableCreateMethod\l\&lt; Csr\&lt; ValueType, IndexType \&gt; \&gt;">
<polygon fill="#ffffff" stroke="#000000" points="2144,-199.4623 2144,-229.4623 2326,-229.4623 2326,-199.4623 2144,-199.4623"/>
<text text-anchor="start" x="2152" y="-217.4623" font-family="Helvetica,sans-Serif" font-size="10.00" fill="#000000">gko::EnableCreateMethod</text>
<text text-anchor="middle" x="2235" y="-206.4623" font-family="Helvetica,sans-Serif" font-size="10.00" fill="#000000">&lt; Csr&lt; ValueType, IndexType &gt; &gt;</text>
</a>
</g>
</g>
<!-- Node23&#45;&gt;Node0 -->
<g id="edge28" class="edge">
<title>Node23&#45;&gt;Node0</title>
<path fill="none" stroke="#191970" d="M2305.2907,-232.444C2312.3407,-234.6434 2319.3472,-236.9929 2326,-239.4623 2356.7154,-250.8636 2390.4045,-267.3062 2413.5244,-279.2412"/>
<polygon fill="#191970" stroke="#191970" points="2306.2639,-229.0818 2295.679,-229.5407 2304.2397,-235.7828 2306.2639,-229.0818"/>
</g>
<!-- Node24 -->
<g id="node21" class="node">
<title>Node24</title>
<g id="a_node21"><a xlink:href="classgko_1_1EnableCreateMethod.html" target="_top" xlink:title="This mixin implements a static create() method on ConcreteType that dynamically allocates the memory...">
<polygon fill="#ffffff" stroke="#000000" points="1775,-30.4623 1775,-60.4623 1917,-60.4623 1917,-30.4623 1775,-30.4623"/>
<text text-anchor="start" x="1783" y="-48.4623" font-family="Helvetica,sans-Serif" font-size="10.00" fill="#000000">gko::EnableCreateMethod</text>
<text text-anchor="middle" x="1846" y="-37.4623" font-family="Helvetica,sans-Serif" font-size="10.00" fill="#000000">&lt; ConcreteType &gt;</text>
</a>
</g>
</g>
<!-- Node24&#45;&gt;Node23 -->
<g id="edge29" class="edge">
<title>Node24&#45;&gt;Node23</title>
<path fill="none" stroke="#ffa500" stroke-dasharray="5,2" d="M1927.5295,-38.5691C1990.2237,-37.9975 2074.5619,-48.2687 2126,-99.4623 2155.222,-128.5454 2115.7737,-160.4119 2144,-190.4623 2147.1321,-193.7969 2150.6677,-196.6891 2154.4811,-199.1959"/>
<polygon fill="#ffa500" stroke="#ffa500" points="1927.2026,-35.0744 1917.2695,-38.7601 1927.333,-42.0732 1927.2026,-35.0744"/>
<text text-anchor="middle" x="2036.5" y="-102.4623" font-family="Helvetica,sans-Serif" font-size="10.00" fill="#000000"> &lt; Csr&lt; ValueType, IndexType &gt; &gt;</text>
</g>
<!-- Node25&#45;&gt;Node0 -->
<g id="edge30" class="edge">
<title>Node25&#45;&gt;Node0</title>
<path fill="none" stroke="#191970" d="M1319.7371,-479.4623C1403.212,-479.4623 1536.9297,-479.4623 1652.5,-479.4623 1652.5,-479.4623 1652.5,-479.4623 2235,-479.4623 2336.6984,-479.4623 2411.376,-353.7851 2434.4875,-309.6016"/>
<polygon fill="#191970" stroke="#191970" points="1319.5594,-475.9624 1309.5594,-479.4623 1319.5593,-482.9624 1319.5594,-475.9624"/>
</g>
<!-- Node26&#45;&gt;Node0 -->
<g id="edge32" class="edge">
<title>Node26&#45;&gt;Node0</title>
<path fill="none" stroke="#191970" d="M1755.1342,-453.4599C1891.7341,-467.5498 2137.9052,-476.881 2326,-394.4623 2370.3239,-375.0406 2410.2549,-332.6909 2429.6364,-309.8303"/>
<polygon fill="#191970" stroke="#191970" points="1755.4008,-449.9686 1745.0875,-452.3945 1754.6626,-456.9296 1755.4008,-449.9686"/>
</g>
<!-- Node27&#45;&gt;Node0 -->
<g id="edge34" class="edge">
<title>Node27&#45;&gt;Node0</title>
<path fill="none" stroke="#191970" d="M2136.3323,-394.3916C2198.1336,-392.624 2278.1693,-384.8883 2345,-360.4623 2376.3749,-348.9951 2407.3596,-325.1338 2425.5777,-309.4645"/>
<polygon fill="#191970" stroke="#191970" points="2136.0996,-390.8961 2126.1857,-394.6332 2136.2663,-397.8941 2136.0996,-390.8961"/>
</g>
<!-- Node28&#45;&gt;Node0 -->
<g id="edge36" class="edge">
<title>Node28&#45;&gt;Node0</title>
<path fill="none" stroke="#191970" d="M1310.6058,-347.903C1393.2068,-347.3113 1532.616,-346.4623 1652.5,-346.4623 1652.5,-346.4623 1652.5,-346.4623 2235,-346.4623 2296.1392,-346.4623 2364.4582,-324.8604 2405.3033,-309.5029"/>
<polygon fill="#191970" stroke="#191970" points="1310.5466,-344.4032 1300.5722,-347.9756 1310.5973,-351.4031 1310.5466,-344.4032"/>
</g>
<!-- Node29&#45;&gt;Node0 -->
<g id="edge38" class="edge">
<title>Node29&#45;&gt;Node0</title>
<path fill="none" stroke="#191970" d="M1720.7113,-306.3391C1866.5551,-303.9377 2208.0156,-298.3151 2362.9961,-295.7632"/>
<polygon fill="#191970" stroke="#191970" points="1720.4948,-302.8421 1710.5538,-306.5064 1720.6101,-309.8412 1720.4948,-302.8421"/>
</g>
<!-- Node30 -->
<g id="node27" class="node">
<title>Node30</title>
<g id="a_node27"><a xlink:href="classgko_1_1ReadableFromMatrixData.html" target="_top" xlink:title="A LinOp implementing this interface can read its data from a matrix_data structure. ">
<polygon fill="#ffffff" stroke="#000000" points="2153,-150.4623 2153,-180.4623 2317,-180.4623 2317,-150.4623 2153,-150.4623"/>
<text text-anchor="start" x="2161" y="-168.4623" font-family="Helvetica,sans-Serif" font-size="10.00" fill="#000000">gko::ReadableFromMatrixData</text>
<text text-anchor="middle" x="2235" y="-157.4623" font-family="Helvetica,sans-Serif" font-size="10.00" fill="#000000">&lt; ValueType, IndexType &gt;</text>
</a>
</g>
</g>
<!-- Node30&#45;&gt;Node0 -->
<g id="edge40" class="edge">
<title>Node30&#45;&gt;Node0</title>
<path fill="none" stroke="#191970" d="M2312.8793,-184.1858C2317.4071,-186.0919 2321.8157,-188.1791 2326,-190.4623 2369.2122,-214.0417 2409.6122,-256.6591 2429.3577,-279.327"/>
<polygon fill="#191970" stroke="#191970" points="2314.0403,-180.882 2303.4516,-180.5225 2311.505,-187.4068 2314.0403,-180.882"/>
</g>
<!-- Node31 -->
<g id="node28" class="node">
<title>Node31</title>
<g id="a_node28"><a xlink:href="classgko_1_1WritableToMatrixData.html" target="_top" xlink:title="A LinOp implementing this interface can write its data to a matrix_data structure. ">
<polygon fill="#ffffff" stroke="#000000" points="2162,-101.4623 2162,-131.4623 2308,-131.4623 2308,-101.4623 2162,-101.4623"/>
<text text-anchor="start" x="2170" y="-119.4623" font-family="Helvetica,sans-Serif" font-size="10.00" fill="#000000">gko::WritableToMatrixData</text>
<text text-anchor="middle" x="2235" y="-108.4623" font-family="Helvetica,sans-Serif" font-size="10.00" fill="#000000">&lt; ValueType, IndexType &gt;</text>
</a>
</g>
</g>
<!-- Node31&#45;&gt;Node0 -->
<g id="edge41" class="edge">
<title>Node31&#45;&gt;Node0</title>
<path fill="none" stroke="#191970" d="M2316.7702,-135.9556C2319.9695,-137.6418 2323.0618,-139.4733 2326,-141.4623 2380.1028,-178.0881 2419.3578,-248.3164 2434.7866,-279.2241"/>
<polygon fill="#191970" stroke="#191970" points="2318.0462,-132.6874 2307.5097,-131.5775 2315.0543,-139.0158 2318.0462,-132.6874"/>
</g>
<!-- Node32 -->
<g id="node29" class="node">
<title>Node32</title>
<g id="a_node29"><a xlink:href="classgko_1_1Transposable.html" target="_top" xlink:title="Linear operators which support transposition should implement the Transposable interface. ">
<polygon fill="#ffffff" stroke="#000000" points="2183,-62.9623 2183,-81.9623 2287,-81.9623 2287,-62.9623 2183,-62.9623"/>
<text text-anchor="middle" x="2235" y="-69.9623" font-family="Helvetica,sans-Serif" font-size="10.00" fill="#000000">gko::Transposable</text>
</a>
</g>
</g>
<!-- Node32&#45;&gt;Node0 -->
<g id="edge42" class="edge">
<title>Node32&#45;&gt;Node0</title>
<path fill="none" stroke="#191970" d="M2297.1292,-78.0831C2307.4199,-81.0084 2317.4932,-85.2762 2326,-91.4623 2393.2992,-140.4016 2427.1996,-241.1354 2438.0358,-279.3293"/>
<polygon fill="#191970" stroke="#191970" points="2297.7847,-74.6405 2287.2401,-75.671 2296.1259,-81.4411 2297.7847,-74.6405"/>
</g>
</g>
</svg>
        <g id="navigator" transform="translate(0 0)" fill="#404254">
                <rect fill="#f2f5e9" fill-opacity="0.5" stroke="#606060" stroke-width=".5" x="0" y="0" width="60" height="60"/>
                <use id="zoomplus" xlink:href="#zoomPlus" x="17" y="9" onmousedown="handleZoom(evt,'in')"/>
                <use id="zoomminus" xlink:href="#zoomMin" x="42" y="9" onmousedown="handleZoom(evt,'out')"/>
                <use id="reset" xlink:href="#resetDef" x="30" y="36" onmousedown="handleReset()"/>
                <g id="arrowUp" xlink:href="#dirArrow" transform="translate(30 24)" onmousedown="handlePan(0,-1)">
                  <use xlink:href="#rim" fill="#404040">
                        <set attributeName="fill" to="#808080" begin="arrowUp.mouseover" end="arrowUp.mouseout"/>
                  </use>
                  <path fill="none" stroke="white" stroke-width="1.5" d="M0,-3.0v7 M-2.5,-0.5L0,-3.0L2.5,-0.5"/>
                </g>
                <g id="arrowRight" xlink:href="#dirArrow" transform="rotate(90) translate(36 -43)" onmousedown="handlePan(1,0)">
                  <use xlink:href="#rim" fill="#404040">
                        <set attributeName="fill" to="#808080" begin="arrowRight.mouseover" end="arrowRight.mouseout"/>
                  </use>
                  <path fill="none" stroke="white" stroke-width="1.5" d="M0,-3.0v7 M-2.5,-0.5L0,-3.0L2.5,-0.5"/>
                </g>
                <g id="arrowDown" xlink:href="#dirArrow" transform="rotate(180) translate(-30 -48)" onmousedown="handlePan(0,1)">
                  <use xlink:href="#rim" fill="#404040">
                        <set attributeName="fill" to="#808080" begin="arrowDown.mouseover" end="arrowDown.mouseout"/>
                  </use>
                  <path fill="none" stroke="white" stroke-width="1.5" d="M0,-3.0v7 M-2.5,-0.5L0,-3.0L2.5,-0.5"/>
                </g>
                <g id="arrowLeft" xlink:href="#dirArrow" transform="rotate(270) translate(-36 17)" onmousedown="handlePan(-1,0)">
                  <use xlink:href="#rim" fill="#404040">
                        <set attributeName="fill" to="#808080" begin="arrowLeft.mouseover" end="arrowLeft.mouseout"/>
                  </use>
                  <path fill="none" stroke="white" stroke-width="1.5" d="M0,-3.0v7 M-2.5,-0.5L0,-3.0L2.5,-0.5"/>
                </g>
        </g>
        <svg viewBox="0 0 15 15" width="100%" height="30px" preserveAspectRatio="xMaxYMin meet">
         <g id="arrow_out" transform="scale(0.3 0.3)">
          <a xlink:href="classgko_1_1matrix_1_1Csr__coll__graph_org.svg" target="_base">
           <rect id="button" ry="5" rx="5" y="6" x="6" height="38" width="38"
                fill="#f2f5e9" fill-opacity="0.5" stroke="#606060" stroke-width="1.0"/>
           <path id="arrow"
             d="M 11.500037,31.436501 C 11.940474,20.09759 22.043105,11.32322 32.158766,21.979434 L 37.068811,17.246167 C 37.068811,17.246167 37.088388,32 37.088388,32 L 22.160133,31.978069 C 22.160133,31.978069 26.997745,27.140456 26.997745,27.140456 C 18.528582,18.264221 13.291696,25.230495 11.500037,31.436501 z"
             style="fill:#404040;"/>
          </a>
         </g>
        </svg>
</svg>
