<?xml version="1.0" encoding="UTF-8" standalone="no"?>
<!DOCTYPE svg PUBLIC "-//W3C//DTD SVG 1.1//EN"
 "http://www.w3.org/Graphics/SVG/1.1/DTD/svg11.dtd">
<!-- Generated by graphviz version 2.40.1 (20161225.0304)
 -->
<!-- Title: ExamplesMap Pages: 1 -->
<!--zoomable 412 -->
<svg id="main" version="1.1" xmlns="http://www.w3.org/2000/svg" xmlns:xlink="http://www.w3.org/1999/xlink" xml:space="preserve" onload="init(evt)">
<style type="text/css"><![CDATA[
.edge:hover path { stroke: red; }
.edge:hover polygon { stroke: red; fill: red; }
]]></style>
<script type="text/javascript"><![CDATA[
var edges = document.getElementsByTagName('g');
if (edges && edges.length) {
  for (var i=0;i<edges.length;i++) {
    if (edges[i].id.substr(0,4)=='edge') {
      edges[i].setAttribute('class','edge');
    }
  }
}
]]></script>
        <defs>
                <circle id="rim" cx="0" cy="0" r="7"/>
                <circle id="rim2" cx="0" cy="0" r="3.5"/>
                <g id="zoomPlus">
                        <use xlink:href="#rim" fill="#404040">
                                <set attributeName="fill" to="#808080" begin="zoomplus.mouseover" end="zoomplus.mouseout"/>
                        </use>
                        <path d="M-4,0h8M0,-4v8" fill="none" stroke="white" stroke-width="1.5" pointer-events="none"/>
                </g>
                <g id="zoomMin">
                        <use xlink:href="#rim" fill="#404040">
                                <set attributeName="fill" to="#808080" begin="zoomminus.mouseover" end="zoomminus.mouseout"/>
                        </use>
                        <path d="M-4,0h8" fill="none" stroke="white" stroke-width="1.5" pointer-events="none"/>
                </g>
                <g id="dirArrow">
                        <path fill="none" stroke="white" stroke-width="1.5" d="M0,-3.0v7 M-2.5,-0.5L0,-3.0L2.5,-0.5"/>
                </g>
               <g id="resetDef">
                       <use xlink:href="#rim2" fill="#404040">
                               <set attributeName="fill" to="#808080" begin="reset.mouseover" end="reset.mouseout"/>
                       </use>
               </g>
        </defs>

<script type="text/javascript">
var viewWidth = 1180;
var viewHeight = 412;
</script>
<script xlink:href="svgpan.js"/>
<svg id="graph" class="graph">
<g id="viewport">
<title>ExamplesMap</title>
<polygon fill="#ffffff" stroke="transparent" points="-4,4 -4,-408 1176.0345,-408 1176.0345,4 -4,4"/>
<!-- custom_logger -->
<g id="node1" class="node">
<title>custom_logger</title>
<g id="a_node1"><a xlink:href="custom_logger.html" target="_top" xlink:title="Creating a custom logger with Ginkgo">
<polygon fill="#ffd700" stroke="#000000" points="267.2833,-47.5 162.2833,-47.5 162.2833,-26.5 267.2833,-26.5 267.2833,-47.5"/>
<text text-anchor="middle" x="214.7833" y="-33.9" font-family="Helvetica,sans-Serif" font-size="12.00" fill="#000000">custom_logger</text>
</a>
</g>
</g>
<!-- custom_matrix_format -->
<g id="node2" class="node">
<title>custom_matrix_format</title>
<g id="a_node2"><a xlink:href="custom_matrix_format.html" target="_top" xlink:title="Create a custom matrix format. Matrix free iterative solve.">
<polygon fill="#ff7f50" stroke="#000000" points="628.2833,-49.5 475.2833,-49.5 475.2833,-24.5 628.2833,-24.5 628.2833,-49.5"/>
<text text-anchor="middle" x="551.7833" y="-33.9" font-family="Helvetica,sans-Serif" font-size="12.00" fill="#000000">custom_matrix_format</text>
</a>
</g>
</g>
<!-- custom_stopping_criterion -->
<g id="node3" class="node">
<title>custom_stopping_criterion</title>
<g id="a_node3"><a xlink:href="custom_stopping_criterion.html" target="_top" xlink:title="Create a custom stopping criterion.">
<polygon fill="#00bfff" stroke="#000000" points="194.7833,-157.5 20.7833,-157.5 20.7833,-136.5 194.7833,-136.5 194.7833,-157.5"/>
<text text-anchor="middle" x="107.7833" y="-143.9" font-family="Helvetica,sans-Serif" font-size="12.00" fill="#000000">custom_stopping_criterion</text>
</a>
</g>
</g>
<!-- external_lib_interfacing -->
<g id="node4" class="node">
<title>external_lib_interfacing</title>
<g id="a_node4"><a xlink:href="external_lib_interfacing.html" target="_top" xlink:title="Interface with an external library.">
<polygon fill="#ff7f50" stroke="#000000" points="703.7833,-379.5 547.7833,-379.5 547.7833,-354.5 703.7833,-354.5 703.7833,-379.5"/>
<text text-anchor="middle" x="625.7833" y="-363.9" font-family="Helvetica,sans-Serif" font-size="12.00" fill="#000000">external_lib_interfacing</text>
</a>
</g>
</g>
<!-- ginkgo_overhead -->
<g id="node5" class="node">
<title>ginkgo_overhead</title>
<g id="a_node5"><a xlink:href="ginkgo_overhead.html" target="_top" xlink:title="Measure ginkgo overhead.">
<polygon fill="#ff7f50" stroke="#000000" points="841.2833,-379.5 722.2833,-379.5 722.2833,-354.5 841.2833,-354.5 841.2833,-379.5"/>
<text text-anchor="middle" x="781.7833" y="-363.9" font-family="Helvetica,sans-Serif" font-size="12.00" fill="#000000">ginkgo_overhead</text>
</a>
</g>
</g>
<!-- ginkgo_ranges -->
<g id="node6" class="node">
<title>ginkgo_ranges</title>
<g id="a_node6"><a xlink:href="ginkgo_ranges.html" target="_top" xlink:title="Use the ranges concept in ginkgo.">
<polygon fill="#ff7f50" stroke="#000000" points="963.7833,-379.5 859.7833,-379.5 859.7833,-354.5 963.7833,-354.5 963.7833,-379.5"/>
<text text-anchor="middle" x="911.7833" y="-363.9" font-family="Helvetica,sans-Serif" font-size="12.00" fill="#000000">ginkgo_ranges</text>
</a>
</g>
</g>
<!-- inverse_iteration -->
<g id="node7" class="node">
<title>inverse_iteration</title>
<g id="a_node7"><a xlink:href="inverse_iteration.html" target="_top" xlink:title="Compute eigenvalues with inverse iteration method.">
<polygon fill="#ff7f50" stroke="#000000" points="966.7833,-269.5 850.7833,-269.5 850.7833,-244.5 966.7833,-244.5 966.7833,-269.5"/>
<text text-anchor="middle" x="908.7833" y="-253.9" font-family="Helvetica,sans-Serif" font-size="12.00" fill="#000000">inverse_iteration</text>
</a>
</g>
</g>
<!-- minimal_cuda_solver -->
<g id="node8" class="node">
<title>minimal_cuda_solver</title>
<g id="a_node8"><a xlink:href="minimal_cuda_solver.html" target="_top" xlink:title="Use the CUDA executor. Solve a linear system.">
<polygon fill="#228b22" stroke="#000000" points="320.1754,-244.9878 320.1754,-269.0122 271.9112,-286 203.6554,-286 155.3912,-269.0122 155.3912,-244.9878 203.6554,-228 271.9112,-228 320.1754,-244.9878"/>
<polygon fill="none" stroke="#000000" points="324.1729,-242.1546 324.1729,-271.8454 272.5938,-290 202.9728,-290 151.3937,-271.8454 151.3937,-242.1546 202.9728,-224 272.5938,-224 324.1729,-242.1546"/>
<polygon fill="none" stroke="#000000" points="328.1704,-239.3214 328.1704,-274.6786 273.2764,-294 202.2902,-294 147.3962,-274.6786 147.3962,-239.3214 202.2902,-220 273.2764,-220 328.1704,-239.3214"/>
<text text-anchor="middle" x="237.7833" y="-253.9" font-family="Helvetica,sans-Serif" font-size="12.00" fill="#000000">minimal_cuda_solver</text>
</a>
</g>
</g>
<!-- minimal_cuda_solver&#45;&gt;custom_logger -->
<g id="edge3" class="edge">
<title>minimal_cuda_solver&#45;&gt;custom_logger</title>
<path fill="none" stroke="#000000" d="M233.8817,-219.68C229.0034,-173.0185 220.8234,-94.7749 216.9467,-57.6938"/>
<polygon fill="#000000" stroke="#000000" points="220.4111,-57.1697 215.8902,-47.5879 213.4491,-57.8976 220.4111,-57.1697"/>
</g>
<!-- minimal_cuda_solver&#45;&gt;custom_stopping_criterion -->
<g id="edge8" class="edge">
<title>minimal_cuda_solver&#45;&gt;custom_stopping_criterion</title>
<path fill="none" stroke="#000000" d="M196.2931,-221.8929C173.4818,-202.5911 146.2061,-179.5116 128.02,-164.1233"/>
<polygon fill="#000000" stroke="#000000" points="130.2472,-161.4231 120.3525,-157.6355 125.7256,-166.7668 130.2472,-161.4231"/>
</g>
<!-- simple_solver_logging -->
<g id="node14" class="node">
<title>simple_solver_logging</title>
<g id="a_node14"><a xlink:href="simple_solver_logging.html" target="_top" xlink:title="Logging within Ginkgo.">
<polygon fill="#ffd700" stroke="#000000" points="398.2833,-157.5 251.2833,-157.5 251.2833,-136.5 398.2833,-136.5 398.2833,-157.5"/>
<text text-anchor="middle" x="324.7833" y="-143.9" font-family="Helvetica,sans-Serif" font-size="12.00" fill="#000000">simple_solver_logging</text>
</a>
</g>
</g>
<!-- minimal_cuda_solver&#45;&gt;simple_solver_logging -->
<g id="edge18" class="edge">
<title>minimal_cuda_solver&#45;&gt;simple_solver_logging</title>
<path fill="none" stroke="#000000" d="M267.2375,-219.759C281.5779,-201.6275 298.1998,-180.6114 309.8811,-165.8419"/>
<polygon fill="#000000" stroke="#000000" points="312.6751,-167.9513 316.1334,-157.9367 307.1848,-163.6089 312.6751,-167.9513"/>
</g>
<!-- nine_pt_stencil_solver -->
<g id="node9" class="node">
<title>nine_pt_stencil_solver</title>
<g id="a_node9"><a xlink:href="nine_pt_stencil_solver.html" target="_top" xlink:title="Use array views to generate a nine point 2D stencil matrix. Solve a linear system.">
<polygon fill="#228b22" stroke="#000000" points="1079.3358,-134.9878 1079.3358,-159.0122 1029.8061,-176 959.7605,-176 910.2308,-159.0122 910.2308,-134.9878 959.7605,-118 1029.8061,-118 1079.3358,-134.9878"/>
<polygon fill="none" stroke="#000000" points="1083.3257,-132.1287 1083.3257,-161.8713 1030.4697,-180 959.0969,-180 906.2409,-161.8713 906.2409,-132.1287 959.0969,-114 1030.4697,-114 1083.3257,-132.1287"/>
<polygon fill="none" stroke="#000000" points="1087.3157,-129.2695 1087.3157,-164.7305 1031.1334,-184 958.4332,-184 902.2509,-164.7305 902.2509,-129.2695 958.4332,-110 1031.1334,-110 1087.3157,-129.2695"/>
<text text-anchor="middle" x="994.7833" y="-143.9" font-family="Helvetica,sans-Serif" font-size="12.00" fill="#000000">nine_pt_stencil_solver</text>
</a>
</g>
</g>
<!-- papi_logging -->
<g id="node10" class="node">
<title>papi_logging</title>
<g id="a_node10"><a xlink:href="papi_logging.html" target="_top" xlink:title="Logging with PAPI.">
<polygon fill="#ffd700" stroke="#000000" points="377.7833,-47.5 285.7833,-47.5 285.7833,-26.5 377.7833,-26.5 377.7833,-47.5"/>
<text text-anchor="middle" x="331.7833" y="-33.9" font-family="Helvetica,sans-Serif" font-size="12.00" fill="#000000">papi_logging</text>
</a>
</g>
</g>
<!-- poisson_solver -->
<g id="node11" class="node">
<title>poisson_solver</title>
<g id="a_node11"><a xlink:href="poisson_solver.html" target="_top" xlink:title="Solve the poisson problem. Generate the matrix within Ginkgo.">
<polygon fill="#228b22" stroke="#000000" points="621.0597,-244.9878 621.0597,-269.0122 585.7506,-286 535.816,-286 500.5069,-269.0122 500.5069,-244.9878 535.816,-228 585.7506,-228 621.0597,-244.9878"/>
<polygon fill="none" stroke="#000000" points="625.0528,-242.4715 625.0528,-271.5285 586.6598,-290 534.9068,-290 496.5138,-271.5285 496.5138,-242.4715 534.9068,-224 586.6598,-224 625.0528,-242.4715"/>
<polygon fill="none" stroke="#000000" points="629.0459,-239.9552 629.0459,-274.0448 587.569,-294 533.9976,-294 492.5207,-274.0448 492.5207,-239.9552 533.9976,-220 587.569,-220 629.0459,-239.9552"/>
<text text-anchor="middle" x="560.7833" y="-253.9" font-family="Helvetica,sans-Serif" font-size="12.00" fill="#000000">poisson_solver</text>
</a>
</g>
</g>
<!-- poisson_solver&#45;&gt;custom_matrix_format -->
<g id="edge5" class="edge">
<title>poisson_solver&#45;&gt;custom_matrix_format</title>
<path fill="none" stroke="#000000" d="M611.902,-231.4363C629.8091,-219.6409 647.9027,-203.802 657.7833,-184 672.4674,-154.5712 673.083,-139.1135 657.7833,-110 644.248,-84.2439 617.0572,-65.8026 593.6046,-53.8984"/>
<polygon fill="#000000" stroke="#000000" points="595.0302,-50.7001 584.5034,-49.5016 591.9852,-57.0031 595.0302,-50.7001"/>
</g>
<!-- poisson_solver&#45;&gt;nine_pt_stencil_solver -->
<g id="edge12" class="edge">
<title>poisson_solver&#45;&gt;nine_pt_stencil_solver</title>
<path fill="none" stroke="#000000" d="M611.5596,-231.4346C621.7093,-227.0867 632.4359,-223.0109 642.7833,-220 750.9925,-188.5133 784.5011,-211.5326 893.7833,-184 901.8529,-181.9669 910.1735,-179.5205 918.4132,-176.8663"/>
<polygon fill="#000000" stroke="#000000" points="919.6451,-180.1452 928.0289,-173.6673 917.4353,-173.5031 919.6451,-180.1452"/>
</g>
<!-- three_pt_stencil_solver -->
<g id="node15" class="node">
<title>three_pt_stencil_solver</title>
<g id="a_node15"><a xlink:href="three_pt_stencil_solver.html" target="_top" xlink:title="Use array views to generate stencil matrix. Solve a linear system.">
<polygon fill="#228b22" stroke="#000000" points="640.4576,-134.9878 640.4576,-159.0122 588.5134,-176 515.0532,-176 463.109,-159.0122 463.109,-134.9878 515.0532,-118 588.5134,-118 640.4576,-134.9878"/>
<polygon fill="none" stroke="#000000" points="644.4506,-132.0859 644.4506,-161.9141 589.1487,-180 514.4179,-180 459.116,-161.9141 459.116,-132.0859 514.4179,-114 589.1487,-114 644.4506,-132.0859"/>
<polygon fill="none" stroke="#000000" points="648.4436,-129.184 648.4436,-164.816 589.784,-184 513.7826,-184 455.123,-164.816 455.123,-129.184 513.7826,-110 589.784,-110 648.4436,-129.184"/>
<text text-anchor="middle" x="551.7833" y="-143.9" font-family="Helvetica,sans-Serif" font-size="12.00" fill="#000000">three_pt_stencil_solver</text>
</a>
</g>
</g>
<!-- poisson_solver&#45;&gt;three_pt_stencil_solver -->
<g id="edge20" class="edge">
<title>poisson_solver&#45;&gt;three_pt_stencil_solver</title>
<path fill="none" stroke="#000000" d="M557.7363,-219.759C557.0692,-211.6058 556.3544,-202.8692 555.6598,-194.3797"/>
<polygon fill="#000000" stroke="#000000" points="559.131,-193.8839 554.8271,-184.2026 552.1544,-194.4548 559.131,-193.8839"/>
</g>
<!-- twentyseven_pt_stencil_solver -->
<g id="node16" class="node">
<title>twentyseven_pt_stencil_solver</title>
<g id="a_node16"><a xlink:href="twentyseven_pt_stencil_solver.html" target="_top" xlink:title="Use array views to generate twentyseven point 3D stencil matrix. Solve a linear system.">
<polygon fill="#228b22" stroke="#000000" points="905.0433,-24.9878 905.0433,-49.0122 838.1113,-66 743.4553,-66 676.5233,-49.0122 676.5233,-24.9878 743.4553,-8 838.1113,-8 905.0433,-24.9878"/>
<polygon fill="none" stroke="#000000" points="909.0392,-21.8754 909.0392,-52.1246 838.61,-70 742.9566,-70 672.5273,-52.1246 672.5273,-21.8754 742.9566,-4 838.61,-4 909.0392,-21.8754"/>
<polygon fill="none" stroke="#000000" points="913.0352,-18.7631 913.0352,-55.2369 839.1087,-74 742.4579,-74 668.5314,-55.2369 668.5314,-18.7631 742.4579,0 839.1087,0 913.0352,-18.7631"/>
<text text-anchor="middle" x="790.7833" y="-33.9" font-family="Helvetica,sans-Serif" font-size="12.00" fill="#000000">twentyseven_pt_stencil_solver</text>
</a>
</g>
</g>
<!-- poisson_solver&#45;&gt;twentyseven_pt_stencil_solver -->
<g id="edge22" class="edge">
<title>poisson_solver&#45;&gt;twentyseven_pt_stencil_solver</title>
<path fill="none" stroke="#000000" d="M610.5721,-230.8507C632.1474,-218.2544 656.9508,-201.9795 676.7833,-184 679.1857,-181.8221 723.4648,-124.4907 756.1172,-82.0839"/>
<polygon fill="#000000" stroke="#000000" points="758.9448,-84.1485 762.2712,-74.0894 753.3979,-79.8786 758.9448,-84.1485"/>
</g>
<!-- preconditioned_solver -->
<g id="node12" class="node">
<title>preconditioned_solver</title>
<g id="a_node12"><a xlink:href="preconditioned_solver.html" target="_top" xlink:title="Use a preconditioner in Ginkgo. Solve a linear system.">
<polygon fill="#dc143c" stroke="#000000" points="1134.2833,-267.5 985.2833,-267.5 985.2833,-246.5 1134.2833,-246.5 1134.2833,-267.5"/>
<text text-anchor="middle" x="1059.7833" y="-253.9" font-family="Helvetica,sans-Serif" font-size="12.00" fill="#000000">preconditioned_solver</text>
</a>
</g>
</g>
<!-- simple_solver -->
<g id="node13" class="node">
<title>simple_solver</title>
<g id="a_node13"><a xlink:href="simple_solver.html" target="_top" xlink:title="Solve a simple linear system with CG. Read a matrix and right hand side from a file.">
<polygon fill="#228b22" stroke="#000000" points="521.5914,-354.9878 521.5914,-379.0122 488.314,-396 441.2526,-396 407.9752,-379.0122 407.9752,-354.9878 441.2526,-338 488.314,-338 521.5914,-354.9878"/>
<polygon fill="none" stroke="#000000" points="525.5851,-352.537 525.5851,-381.463 489.273,-400 440.2936,-400 403.9815,-381.463 403.9815,-352.537 440.2936,-334 489.273,-334 525.5851,-352.537"/>
<polygon fill="none" stroke="#000000" points="529.5788,-350.0861 529.5788,-383.9139 490.2321,-404 439.3345,-404 399.9878,-383.9139 399.9878,-350.0861 439.3345,-330 490.2321,-330 529.5788,-350.0861"/>
<text text-anchor="middle" x="464.7833" y="-363.9" font-family="Helvetica,sans-Serif" font-size="12.00" fill="#000000">simple_solver</text>
</a>
</g>
</g>
<!-- simple_solver&#45;&gt;custom_logger -->
<g id="edge1" class="edge">
<title>simple_solver&#45;&gt;custom_logger</title>
<path fill="none" stroke="#000000" d="M399.7985,-359.1044C309.8612,-347.2984 152.9595,-323.2707 103.7833,-294 49.0167,-261.4017 33.5335,-243.9079 11.7833,-184 .5595,-153.0855 -7.1329,-136.9046 11.7833,-110 28.919,-85.628 103.1608,-63.3543 156.9104,-49.984"/>
<polygon fill="#000000" stroke="#000000" points="157.8074,-53.3679 166.6897,-47.5926 156.1445,-46.5682 157.8074,-53.3679"/>
</g>
<!-- simple_solver&#45;&gt;custom_matrix_format -->
<g id="edge4" class="edge">
<title>simple_solver&#45;&gt;custom_matrix_format</title>
<path fill="none" stroke="#000000" d="M450.249,-329.5965C432.3937,-277.2071 408.7367,-180.4952 445.7833,-110 459.3186,-84.2439 486.5094,-65.8026 509.962,-53.8984"/>
<polygon fill="#000000" stroke="#000000" points="511.5814,-57.0031 519.0632,-49.5016 508.5364,-50.7001 511.5814,-57.0031"/>
</g>
<!-- simple_solver&#45;&gt;custom_stopping_criterion -->
<g id="edge7" class="edge">
<title>simple_solver&#45;&gt;custom_stopping_criterion</title>
<path fill="none" stroke="#000000" d="M399.6802,-360.7077C315.2846,-351.2002 174.6479,-330.314 138.7833,-294 105.321,-260.1184 103.8209,-199.7939 105.713,-167.9783"/>
<polygon fill="#000000" stroke="#000000" points="109.2303,-167.8882 106.5106,-157.6484 102.2511,-167.3492 109.2303,-167.8882"/>
</g>
<!-- simple_solver&#45;&gt;inverse_iteration -->
<g id="edge9" class="edge">
<title>simple_solver&#45;&gt;inverse_iteration</title>
<path fill="none" stroke="#000000" d="M511.5562,-340.6038C520.3843,-336.496 529.7017,-332.7195 538.7833,-330 668.6974,-291.0972 712.6921,-335.5521 841.7833,-294 855.7937,-289.4903 870.2232,-281.9563 882.0862,-274.8594"/>
<polygon fill="#000000" stroke="#000000" points="883.9541,-277.8195 890.6083,-269.5749 880.2651,-271.8704 883.9541,-277.8195"/>
</g>
<!-- simple_solver&#45;&gt;minimal_cuda_solver -->
<g id="edge10" class="edge">
<title>simple_solver&#45;&gt;minimal_cuda_solver</title>
<path fill="none" stroke="#000000" d="M414.4046,-342.5874C382.6305,-327.1903 341.179,-307.1036 306.4187,-290.2594"/>
<polygon fill="#000000" stroke="#000000" points="307.7973,-287.0383 297.2719,-285.8271 304.7447,-293.3376 307.7973,-287.0383"/>
</g>
<!-- simple_solver&#45;&gt;nine_pt_stencil_solver -->
<g id="edge11" class="edge">
<title>simple_solver&#45;&gt;nine_pt_stencil_solver</title>
<path fill="none" stroke="#000000" d="M513.3701,-341.7163C521.7677,-337.6321 530.4706,-333.5756 538.7833,-330 581.7922,-311.5005 602.6645,-324.9624 637.7833,-294 665.5158,-269.5496 645.9097,-241.7826 675.7833,-220 755.1308,-162.1431 798.8176,-208.9995 893.7833,-184 901.766,-181.8986 910.0032,-179.4197 918.169,-176.7564"/>
<polygon fill="#000000" stroke="#000000" points="919.336,-180.0567 927.7027,-173.5568 917.1087,-173.4205 919.336,-180.0567"/>
</g>
<!-- simple_solver&#45;&gt;poisson_solver -->
<g id="edge15" class="edge">
<title>simple_solver&#45;&gt;poisson_solver</title>
<path fill="none" stroke="#000000" d="M495.1583,-332.1953C504.0873,-321.9642 513.9611,-310.6504 523.28,-299.9725"/>
<polygon fill="#000000" stroke="#000000" points="526.0077,-302.17 529.946,-292.3344 520.7337,-297.5672 526.0077,-302.17"/>
</g>
<!-- simple_solver&#45;&gt;preconditioned_solver -->
<g id="edge16" class="edge">
<title>simple_solver&#45;&gt;preconditioned_solver</title>
<path fill="none" stroke="#000000" d="M511.0763,-340.5182C520.0306,-336.3646 529.5159,-332.594 538.7833,-330 726.4505,-277.471 786.8918,-341.9403 975.7833,-294 995.0977,-289.0981 1015.5854,-280.1569 1031.4919,-272.2921"/>
<polygon fill="#000000" stroke="#000000" points="1033.4272,-275.2344 1040.7525,-267.5799 1030.2527,-268.9956 1033.4272,-275.2344"/>
</g>
<!-- simple_solver&#45;&gt;simple_solver_logging -->
<g id="edge17" class="edge">
<title>simple_solver&#45;&gt;simple_solver_logging</title>
<path fill="none" stroke="#000000" d="M438.0183,-330.6321C429.7323,-319.0566 420.7039,-306.1109 412.7833,-294 383.5112,-249.2417 351.9478,-194.8413 335.7514,-166.4219"/>
<polygon fill="#000000" stroke="#000000" points="338.6734,-164.4795 330.6923,-157.5115 332.5861,-167.9357 338.6734,-164.4795"/>
</g>
<!-- simple_solver&#45;&gt;three_pt_stencil_solver -->
<g id="edge19" class="edge">
<title>simple_solver&#45;&gt;three_pt_stencil_solver</title>
<path fill="none" stroke="#000000" d="M463.418,-329.9227C463.6915,-299.1031 467.4232,-254.8191 483.7833,-220 488.6825,-209.5729 495.6266,-199.6361 503.222,-190.6387"/>
<polygon fill="#000000" stroke="#000000" points="505.9988,-192.7832 510.0295,-182.985 500.7683,-188.131 505.9988,-192.7832"/>
</g>
<!-- simple_solver&#45;&gt;twentyseven_pt_stencil_solver -->
<g id="edge21" class="edge">
<title>simple_solver&#45;&gt;twentyseven_pt_stencil_solver</title>
<path fill="none" stroke="#000000" d="M511.029,-340.3455C519.9879,-336.2086 529.4869,-332.4884 538.7833,-330 603.8343,-312.5877 1097.6018,-343.0112 1143.7833,-294 1201.6659,-232.5707 1161.3064,-164.4125 1096.7833,-110 1070.0215,-87.4317 993.3287,-69.1604 923.423,-56.5418"/>
<polygon fill="#000000" stroke="#000000" points="923.6228,-53.0227 913.165,-54.7213 922.3995,-59.915 923.6228,-53.0227"/>
</g>
<!-- simple_solver_logging&#45;&gt;custom_logger -->
<g id="edge2" class="edge">
<title>simple_solver_logging&#45;&gt;custom_logger</title>
<path fill="none" stroke="#000000" d="M314.236,-136.4527C295.3942,-117.611 255.7634,-77.9801 232.6221,-54.8388"/>
<polygon fill="#000000" stroke="#000000" points="235.0062,-52.2732 225.4603,-47.677 230.0565,-57.2229 235.0062,-52.2732"/>
</g>
<!-- simple_solver_logging&#45;&gt;papi_logging -->
<g id="edge14" class="edge">
<title>simple_solver_logging&#45;&gt;papi_logging</title>
<path fill="none" stroke="#000000" d="M325.4545,-136.4527C326.6014,-118.4302 328.9587,-81.3869 330.4503,-57.9477"/>
<polygon fill="#000000" stroke="#000000" points="333.9616,-57.8791 331.1039,-47.677 326.9758,-57.4345 333.9616,-57.8791"/>
</g>
<!-- three_pt_stencil_solver&#45;&gt;custom_matrix_format -->
<g id="edge6" class="edge">
<title>three_pt_stencil_solver&#45;&gt;custom_matrix_format</title>
<path fill="none" stroke="#000000" d="M551.7833,-109.759C551.7833,-93.1701 551.7833,-74.1665 551.7833,-59.7416"/>
<polygon fill="#000000" stroke="#000000" points="555.2834,-59.7191 551.7833,-49.7191 548.2834,-59.7192 555.2834,-59.7191"/>
</g>
<!-- three_pt_stencil_solver&#45;&gt;twentyseven_pt_stencil_solver -->
<g id="edge23" class="edge">
<title>three_pt_stencil_solver&#45;&gt;twentyseven_pt_stencil_solver</title>
<path fill="none" stroke="#000000" d="M614.5777,-118.0988C644.5367,-104.3101 680.6859,-87.6725 712.4247,-73.0646"/>
<polygon fill="#000000" stroke="#000000" points="714.064,-76.1631 721.6847,-68.8027 711.1373,-69.8043 714.064,-76.1631"/>
</g>
<!-- three_pt_stencil_solve -->
<g id="node17" class="node">
<title>three_pt_stencil_solve</title>
<polygon fill="#ffffff" stroke="#000000" points="832.7833,-267.5 684.7833,-267.5 684.7833,-246.5 832.7833,-246.5 832.7833,-267.5"/>
<text text-anchor="middle" x="758.7833" y="-253.9" font-family="Helvetica,sans-Serif" font-size="12.00" fill="#000000">three_pt_stencil_solve</text>
</g>
<!-- three_pt_stencil_solve&#45;&gt;nine_pt_stencil_solver -->
<g id="edge13" class="edge">
<title>three_pt_stencil_solve&#45;&gt;nine_pt_stencil_solver</title>
<path fill="none" stroke="#000000" d="M781.412,-246.4527C814.0355,-231.2469 875.7081,-202.5012 924.3913,-179.8098"/>
<polygon fill="#000000" stroke="#000000" points="926.0458,-182.9003 933.6309,-175.5032 923.0885,-176.5556 926.0458,-182.9003"/>
</g>
<!-- nine_pt_stencil_solve -->
<g id="node18" class="node">
<title>nine_pt_stencil_solve</title>
<polygon fill="#ffffff" stroke="#000000" points="884.2833,-157.5 743.2833,-157.5 743.2833,-136.5 884.2833,-136.5 884.2833,-157.5"/>
<text text-anchor="middle" x="813.7833" y="-143.9" font-family="Helvetica,sans-Serif" font-size="12.00" fill="#000000">nine_pt_stencil_solve</text>
</g>
<!-- nine_pt_stencil_solve&#45;&gt;twentyseven_pt_stencil_solver -->
<g id="edge24" class="edge">
<title>nine_pt_stencil_solve&#45;&gt;twentyseven_pt_stencil_solver</title>
<path fill="none" stroke="#000000" d="M811.578,-136.4527C809.0503,-124.3637 804.7332,-103.7168 800.6854,-84.3579"/>
<polygon fill="#000000" stroke="#000000" points="804.0768,-83.476 798.6041,-74.4041 797.225,-84.9087 804.0768,-83.476"/>
</g>
</g>
</svg>
        <g id="navigator" transform="translate(0 0)" fill="#404254">
                <rect fill="#f2f5e9" fill-opacity="0.5" stroke="#606060" stroke-width=".5" x="0" y="0" width="60" height="60"/>
                <use id="zoomplus" xlink:href="#zoomPlus" x="17" y="9" onmousedown="handleZoom(evt,'in')"/>
                <use id="zoomminus" xlink:href="#zoomMin" x="42" y="9" onmousedown="handleZoom(evt,'out')"/>
                <use id="reset" xlink:href="#resetDef" x="30" y="36" onmousedown="handleReset()"/>
                <g id="arrowUp" xlink:href="#dirArrow" transform="translate(30 24)" onmousedown="handlePan(0,-1)">
                  <use xlink:href="#rim" fill="#404040">
                        <set attributeName="fill" to="#808080" begin="arrowUp.mouseover" end="arrowUp.mouseout"/>
                  </use>
                  <path fill="none" stroke="white" stroke-width="1.5" d="M0,-3.0v7 M-2.5,-0.5L0,-3.0L2.5,-0.5"/>
                </g>
                <g id="arrowRight" xlink:href="#dirArrow" transform="rotate(90) translate(36 -43)" onmousedown="handlePan(1,0)">
                  <use xlink:href="#rim" fill="#404040">
                        <set attributeName="fill" to="#808080" begin="arrowRight.mouseover" end="arrowRight.mouseout"/>
                  </use>
                  <path fill="none" stroke="white" stroke-width="1.5" d="M0,-3.0v7 M-2.5,-0.5L0,-3.0L2.5,-0.5"/>
                </g>
                <g id="arrowDown" xlink:href="#dirArrow" transform="rotate(180) translate(-30 -48)" onmousedown="handlePan(0,1)">
                  <use xlink:href="#rim" fill="#404040">
                        <set attributeName="fill" to="#808080" begin="arrowDown.mouseover" end="arrowDown.mouseout"/>
                  </use>
                  <path fill="none" stroke="white" stroke-width="1.5" d="M0,-3.0v7 M-2.5,-0.5L0,-3.0L2.5,-0.5"/>
                </g>
                <g id="arrowLeft" xlink:href="#dirArrow" transform="rotate(270) translate(-36 17)" onmousedown="handlePan(-1,0)">
                  <use xlink:href="#rim" fill="#404040">
                        <set attributeName="fill" to="#808080" begin="arrowLeft.mouseover" end="arrowLeft.mouseout"/>
                  </use>
                  <path fill="none" stroke="white" stroke-width="1.5" d="M0,-3.0v7 M-2.5,-0.5L0,-3.0L2.5,-0.5"/>
                </g>
        </g>
        <svg viewBox="0 0 15 15" width="100%" height="30px" preserveAspectRatio="xMaxYMin meet">
         <g id="arrow_out" transform="scale(0.3 0.3)">
          <a xlink:href="dot_inline_dotgraph_1_org.svg" target="_base">
           <rect id="button" ry="5" rx="5" y="6" x="6" height="38" width="38"
                fill="#f2f5e9" fill-opacity="0.5" stroke="#606060" stroke-width="1.0"/>
           <path id="arrow"
             d="M 11.500037,31.436501 C 11.940474,20.09759 22.043105,11.32322 32.158766,21.979434 L 37.068811,17.246167 C 37.068811,17.246167 37.088388,32 37.088388,32 L 22.160133,31.978069 C 22.160133,31.978069 26.997745,27.140456 26.997745,27.140456 C 18.528582,18.264221 13.291696,25.230495 11.500037,31.436501 z"
             style="fill:#404040;"/>
          </a>
         </g>
        </svg>
</svg>
