<?xml version="1.0" encoding="UTF-8" standalone="no"?>
<!DOCTYPE svg PUBLIC "-//W3C//DTD SVG 1.1//EN"
 "http://www.w3.org/Graphics/SVG/1.1/DTD/svg11.dtd">
<!-- Generated by graphviz version 2.38.0 (20140413.2041)
 -->
<!-- Title: gko::matrix::Identity&lt; ValueType &gt; Pages: 1 -->
<!--zoomable 121 -->
<svg id="main" version="1.1" xmlns="http://www.w3.org/2000/svg" xmlns:xlink="http://www.w3.org/1999/xlink" xml:space="preserve" onload="init(evt)">
<style type="text/css"><![CDATA[
.edge:hover path { stroke: red; }
.edge:hover polygon { stroke: red; fill: red; }
]]></style>
<script type="text/javascript"><![CDATA[
var edges = document.getElementsByTagName('g');
if (edges && edges.length) {
  for (var i=0;i<edges.length;i++) {
    if (edges[i].id.substr(0,4)=='edge') {
      edges[i].setAttribute('class','edge');
    }
  }
}
]]></script>
        <defs>
                <circle id="rim" cx="0" cy="0" r="7"/>
                <circle id="rim2" cx="0" cy="0" r="3.5"/>
                <g id="zoomPlus">
                        <use xlink:href="#rim" fill="#404040">
                                <set attributeName="fill" to="#808080" begin="zoomplus.mouseover" end="zoomplus.mouseout"/>
                        </use>
                        <path d="M-4,0h8M0,-4v8" fill="none" stroke="white" stroke-width="1.5" pointer-events="none"/>
                </g>
                <g id="zoomMin">
                        <use xlink:href="#rim" fill="#404040">
                                <set attributeName="fill" to="#808080" begin="zoomminus.mouseover" end="zoomminus.mouseout"/>
                        </use>
                        <path d="M-4,0h8" fill="none" stroke="white" stroke-width="1.5" pointer-events="none"/>
                </g>
                <g id="dirArrow">
                        <path fill="none" stroke="white" stroke-width="1.5" d="M0,-3.0v7 M-2.5,-0.5L0,-3.0L2.5,-0.5"/>
                </g>
               <g id="resetDef">
                       <use xlink:href="#rim2" fill="#404040">
                               <set attributeName="fill" to="#808080" begin="reset.mouseover" end="reset.mouseout"/>
                       </use>
               </g>
        </defs>

<script type="text/javascript">
var viewWidth = 1514;
var viewHeight = 121;
var sectionId = 'dynsection-0';
</script>
<script xlink:href="svgpan.js"/>
<svg id="graph" class="graph">
<g id="viewport">
<title>gko::matrix::Identity&lt; ValueType &gt;</title>
<polygon fill="white" stroke="none" points="-4,4 -4,-116.5 1510,-116.5 1510,4 -4,4"/>
<!-- Node1 -->
<g id="node1" class="node"><title>Node1</title>
<polygon fill="#bfbfbf" stroke="black" points="1394,-24.5 1394,-54.5 1506,-54.5 1506,-24.5 1394,-24.5"/>
<text text-anchor="start" x="1402" y="-42.5" font-family="Helvetica,sans-Serif" font-size="10.00">gko::matrix::Identity</text>
<text text-anchor="middle" x="1450" y="-31.5" font-family="Helvetica,sans-Serif" font-size="10.00">&lt; ValueType &gt;</text>
</g>
<!-- Node2 -->
<g id="node2" class="node"><title>Node2</title>
<g id="a_node2"><a xlink:href="classgko_1_1EnableLinOp.html" target="_top" xlink:title="gko::EnableLinOp\&lt; Identity\l\&lt; ValueType \&gt; \&gt;">
<polygon fill="white" stroke="black" points="1212,-49.5 1212,-79.5 1358,-79.5 1358,-49.5 1212,-49.5"/>
<text text-anchor="start" x="1220" y="-67.5" font-family="Helvetica,sans-Serif" font-size="10.00">gko::EnableLinOp&lt; Identity</text>
<text text-anchor="middle" x="1285" y="-56.5" font-family="Helvetica,sans-Serif" font-size="10.00">&lt; ValueType &gt; &gt;</text>
</a>
</g>
</g>
<!-- Node2&#45;&gt;Node1 -->
<g id="edge1" class="edge"><title>Node2&#45;&gt;Node1</title>
<path fill="none" stroke="midnightblue" d="M1368.53,-51.8426C1377.13,-50.5232 1385.72,-49.2062 1393.9,-47.9502"/>
<polygon fill="midnightblue" stroke="midnightblue" points="1367.8,-48.4134 1358.44,-53.389 1368.86,-55.3325 1367.8,-48.4134"/>
</g>
<!-- Node3 -->
<g id="node3" class="node"><title>Node3</title>
<g id="a_node3"><a xlink:href="classgko_1_1EnablePolymorphicObject.html" target="_top" xlink:title="gko::EnablePolymorphicObject\l\&lt; Identity\&lt; ValueType \&gt;,\l LinOp \&gt;">
<polygon fill="white" stroke="black" points="1001.5,-71 1001.5,-112 1162.5,-112 1162.5,-71 1001.5,-71"/>
<text text-anchor="start" x="1009.5" y="-100" font-family="Helvetica,sans-Serif" font-size="10.00">gko::EnablePolymorphicObject</text>
<text text-anchor="start" x="1009.5" y="-89" font-family="Helvetica,sans-Serif" font-size="10.00">&lt; Identity&lt; ValueType &gt;,</text>
<text text-anchor="middle" x="1082" y="-78" font-family="Helvetica,sans-Serif" font-size="10.00"> LinOp &gt;</text>
</a>
</g>
</g>
<!-- Node3&#45;&gt;Node2 -->
<g id="edge2" class="edge"><title>Node3&#45;&gt;Node2</title>
<path fill="none" stroke="midnightblue" d="M1172.69,-79.4517C1185.8,-77.6904 1199.17,-75.8957 1211.87,-74.1895"/>
<polygon fill="midnightblue" stroke="midnightblue" points="1172.17,-75.9898 1162.73,-80.7901 1173.11,-82.9275 1172.17,-75.9898"/>
</g>
<!-- Node4 -->
<g id="node4" class="node"><title>Node4</title>
<g id="a_node4"><a xlink:href="classgko_1_1EnableAbstractPolymorphicObject.html" target="_top" xlink:title="gko::EnableAbstractPolymorphic\lObject\&lt; Identity\&lt; ValueType\l \&gt;, LinOp \&gt;">
<polygon fill="white" stroke="black" points="781,-71 781,-112 952,-112 952,-71 781,-71"/>
<text text-anchor="start" x="789" y="-100" font-family="Helvetica,sans-Serif" font-size="10.00">gko::EnableAbstractPolymorphic</text>
<text text-anchor="start" x="789" y="-89" font-family="Helvetica,sans-Serif" font-size="10.00">Object&lt; Identity&lt; ValueType</text>
<text text-anchor="middle" x="866.5" y="-78" font-family="Helvetica,sans-Serif" font-size="10.00"> &gt;, LinOp &gt;</text>
</a>
</g>
</g>
<!-- Node4&#45;&gt;Node3 -->
<g id="edge3" class="edge"><title>Node4&#45;&gt;Node3</title>
<path fill="none" stroke="midnightblue" d="M962.508,-91.5C975.457,-91.5 988.639,-91.5 1001.28,-91.5"/>
<polygon fill="midnightblue" stroke="midnightblue" points="962.188,-88.0001 952.187,-91.5 962.187,-95.0001 962.188,-88.0001"/>
</g>
<!-- Node5 -->
<g id="node5" class="node"><title>Node5</title>
<g id="a_node5"><a xlink:href="classgko_1_1LinOp.html" target="_top" xlink:title="The linear operator (LinOp) is a base class for all linear algebra objects in Ginkgo. ">
<polygon fill="white" stroke="black" points="678,-82 678,-101 745,-101 745,-82 678,-82"/>
<text text-anchor="middle" x="711.5" y="-89" font-family="Helvetica,sans-Serif" font-size="10.00">gko::LinOp</text>
</a>
</g>
</g>
<!-- Node5&#45;&gt;Node4 -->
<g id="edge4" class="edge"><title>Node5&#45;&gt;Node4</title>
<path fill="none" stroke="midnightblue" d="M755.465,-91.5C763.479,-91.5 772.105,-91.5 780.874,-91.5"/>
<polygon fill="midnightblue" stroke="midnightblue" points="755.322,-88.0001 745.322,-91.5 755.322,-95.0001 755.322,-88.0001"/>
</g>
<!-- Node6 -->
<g id="node6" class="node"><title>Node6</title>
<g id="a_node6"><a xlink:href="classgko_1_1EnableAbstractPolymorphicObject.html" target="_top" xlink:title="gko::EnableAbstractPolymorphic\lObject\&lt; LinOp \&gt;">
<polygon fill="white" stroke="black" points="471,-76.5 471,-106.5 642,-106.5 642,-76.5 471,-76.5"/>
<text text-anchor="start" x="479" y="-94.5" font-family="Helvetica,sans-Serif" font-size="10.00">gko::EnableAbstractPolymorphic</text>
<text text-anchor="middle" x="556.5" y="-83.5" font-family="Helvetica,sans-Serif" font-size="10.00">Object&lt; LinOp &gt;</text>
</a>
</g>
</g>
<!-- Node6&#45;&gt;Node5 -->
<g id="edge5" class="edge"><title>Node6&#45;&gt;Node5</title>
<path fill="none" stroke="midnightblue" d="M652.098,-91.5C661.246,-91.5 670.027,-91.5 677.877,-91.5"/>
<polygon fill="midnightblue" stroke="midnightblue" points="652.055,-88.0001 642.055,-91.5 652.055,-95.0001 652.055,-88.0001"/>
</g>
<!-- Node7 -->
<g id="node7" class="node"><title>Node7</title>
<g id="a_node7"><a xlink:href="classgko_1_1PolymorphicObject.html" target="_top" xlink:title="A PolymorphicObject is the abstract base for all &quot;heavy&quot; objects in Ginkgo that behave polymorphicall...">
<polygon fill="white" stroke="black" points="306,-82 306,-101 435,-101 435,-82 306,-82"/>
<text text-anchor="middle" x="370.5" y="-89" font-family="Helvetica,sans-Serif" font-size="10.00">gko::PolymorphicObject</text>
</a>
</g>
</g>
<!-- Node7&#45;&gt;Node6 -->
<g id="edge6" class="edge"><title>Node7&#45;&gt;Node6</title>
<path fill="none" stroke="midnightblue" d="M445.224,-91.5C453.644,-91.5 462.276,-91.5 470.824,-91.5"/>
<polygon fill="midnightblue" stroke="midnightblue" points="445.08,-88.0001 435.08,-91.5 445.08,-95.0001 445.08,-88.0001"/>
</g>
<!-- Node8 -->
<g id="node8" class="node"><title>Node8</title>
<g id="a_node8"><a xlink:href="classgko_1_1log_1_1EnableLogging.html" target="_top" xlink:title="gko::log::EnableLogging\l\&lt; PolymorphicObject \&gt;">
<polygon fill="white" stroke="black" points="140,-76.5 140,-106.5 270,-106.5 270,-76.5 140,-76.5"/>
<text text-anchor="start" x="148" y="-94.5" font-family="Helvetica,sans-Serif" font-size="10.00">gko::log::EnableLogging</text>
<text text-anchor="middle" x="205" y="-83.5" font-family="Helvetica,sans-Serif" font-size="10.00">&lt; PolymorphicObject &gt;</text>
</a>
</g>
</g>
<!-- Node8&#45;&gt;Node7 -->
<g id="edge7" class="edge"><title>Node8&#45;&gt;Node7</title>
<path fill="none" stroke="midnightblue" d="M280.416,-91.5C288.895,-91.5 297.48,-91.5 305.803,-91.5"/>
<polygon fill="midnightblue" stroke="midnightblue" points="280.15,-88.0001 270.15,-91.5 280.15,-95.0001 280.15,-88.0001"/>
</g>
<!-- Node9 -->
<g id="node9" class="node"><title>Node9</title>
<g id="a_node9"><a xlink:href="classgko_1_1log_1_1Loggable.html" target="_top" xlink:title="Loggable class is an interface which should be implemented by classes wanting to support logging...">
<polygon fill="white" stroke="black" points="0,-82 0,-101 104,-101 104,-82 0,-82"/>
<text text-anchor="middle" x="52" y="-89" font-family="Helvetica,sans-Serif" font-size="10.00">gko::log::Loggable</text>
</a>
</g>
</g>
<!-- Node9&#45;&gt;Node8 -->
<g id="edge8" class="edge"><title>Node9&#45;&gt;Node8</title>
<path fill="none" stroke="midnightblue" d="M114.245,-91.5C122.668,-91.5 131.337,-91.5 139.812,-91.5"/>
<polygon fill="midnightblue" stroke="midnightblue" points="114.122,-88.0001 104.122,-91.5 114.122,-95.0001 114.122,-88.0001"/>
</g>
<!-- Node10 -->
<g id="node10" class="node"><title>Node10</title>
<g id="a_node10"><a xlink:href="classgko_1_1EnablePolymorphicAssignment.html" target="_top" xlink:title="gko::EnablePolymorphicAssignment\l\&lt; Identity\&lt; ValueType \&gt; \&gt;">
<polygon fill="white" stroke="black" points="988,-22.5 988,-52.5 1176,-52.5 1176,-22.5 988,-22.5"/>
<text text-anchor="start" x="996" y="-40.5" font-family="Helvetica,sans-Serif" font-size="10.00">gko::EnablePolymorphicAssignment</text>
<text text-anchor="middle" x="1082" y="-29.5" font-family="Helvetica,sans-Serif" font-size="10.00">&lt; Identity&lt; ValueType &gt; &gt;</text>
</a>
</g>
</g>
<!-- Node10&#45;&gt;Node2 -->
<g id="edge9" class="edge"><title>Node10&#45;&gt;Node2</title>
<path fill="none" stroke="midnightblue" d="M1186.3,-51.3762C1194.95,-52.5386 1203.58,-53.6973 1211.92,-54.8177"/>
<polygon fill="midnightblue" stroke="midnightblue" points="1186.52,-47.8746 1176.15,-50.012 1185.59,-54.8123 1186.52,-47.8746"/>
</g>
<!-- Node11 -->
<g id="node11" class="node"><title>Node11</title>
<g id="a_node11"><a xlink:href="classgko_1_1ConvertibleTo.html" target="_top" xlink:title="gko::ConvertibleTo\l\&lt; Identity\&lt; ValueType \&gt; \&gt;">
<polygon fill="white" stroke="black" points="794.5,-22.5 794.5,-52.5 938.5,-52.5 938.5,-22.5 794.5,-22.5"/>
<text text-anchor="start" x="802.5" y="-40.5" font-family="Helvetica,sans-Serif" font-size="10.00">gko::ConvertibleTo</text>
<text text-anchor="middle" x="866.5" y="-29.5" font-family="Helvetica,sans-Serif" font-size="10.00">&lt; Identity&lt; ValueType &gt; &gt;</text>
</a>
</g>
</g>
<!-- Node11&#45;&gt;Node10 -->
<g id="edge10" class="edge"><title>Node11&#45;&gt;Node10</title>
<path fill="none" stroke="midnightblue" d="M948.713,-37.5C961.49,-37.5 974.785,-37.5 987.807,-37.5"/>
<polygon fill="midnightblue" stroke="midnightblue" points="948.592,-34.0001 938.592,-37.5 948.592,-41.0001 948.592,-34.0001"/>
</g>
<!-- Node12 -->
<g id="node12" class="node"><title>Node12</title>
<g id="a_node12"><a xlink:href="classgko_1_1EnableCreateMethod.html" target="_top" xlink:title="gko::EnableCreateMethod\l\&lt; Identity\&lt; ValueType \&gt; \&gt;">
<polygon fill="white" stroke="black" points="1213,-0.5 1213,-30.5 1357,-30.5 1357,-0.5 1213,-0.5"/>
<text text-anchor="start" x="1221" y="-18.5" font-family="Helvetica,sans-Serif" font-size="10.00">gko::EnableCreateMethod</text>
<text text-anchor="middle" x="1285" y="-7.5" font-family="Helvetica,sans-Serif" font-size="10.00">&lt; Identity&lt; ValueType &gt; &gt;</text>
</a>
</g>
</g>
<!-- Node12&#45;&gt;Node1 -->
<g id="edge11" class="edge"><title>Node12&#45;&gt;Node1</title>
<path fill="none" stroke="midnightblue" d="M1367.2,-27.4564C1376.25,-28.7878 1385.29,-30.1199 1393.9,-31.3872"/>
<polygon fill="midnightblue" stroke="midnightblue" points="1367.42,-23.951 1357.02,-25.9569 1366.4,-30.8764 1367.42,-23.951"/>
</g>
</g>
</svg>
        <g id="navigator" transform="translate(0 0)" fill="#404254">
                <rect fill="#f2f5e9" fill-opacity="0.5" stroke="#606060" stroke-width=".5" x="0" y="0" width="60" height="60"/>
                <use id="zoomplus" xlink:href="#zoomPlus" x="17" y="9" onmousedown="handleZoom(evt,'in')"/>
                <use id="zoomminus" xlink:href="#zoomMin" x="42" y="9" onmousedown="handleZoom(evt,'out')"/>
                <use id="reset" xlink:href="#resetDef" x="30" y="36" onmousedown="handleReset()"/>
                <g id="arrowUp" xlink:href="#dirArrow" transform="translate(30 24)" onmousedown="handlePan(0,-1)">
                  <use xlink:href="#rim" fill="#404040">
                        <set attributeName="fill" to="#808080" begin="arrowUp.mouseover" end="arrowUp.mouseout"/>
                  </use>
                  <path fill="none" stroke="white" stroke-width="1.5" d="M0,-3.0v7 M-2.5,-0.5L0,-3.0L2.5,-0.5"/>
                </g>
                <g id="arrowRight" xlink:href="#dirArrow" transform="rotate(90) translate(36 -43)" onmousedown="handlePan(1,0)">
                  <use xlink:href="#rim" fill="#404040">
                        <set attributeName="fill" to="#808080" begin="arrowRight.mouseover" end="arrowRight.mouseout"/>
                  </use>
                  <path fill="none" stroke="white" stroke-width="1.5" d="M0,-3.0v7 M-2.5,-0.5L0,-3.0L2.5,-0.5"/>
                </g>
                <g id="arrowDown" xlink:href="#dirArrow" transform="rotate(180) translate(-30 -48)" onmousedown="handlePan(0,1)">
                  <use xlink:href="#rim" fill="#404040">
                        <set attributeName="fill" to="#808080" begin="arrowDown.mouseover" end="arrowDown.mouseout"/>
                  </use>
                  <path fill="none" stroke="white" stroke-width="1.5" d="M0,-3.0v7 M-2.5,-0.5L0,-3.0L2.5,-0.5"/>
                </g>
                <g id="arrowLeft" xlink:href="#dirArrow" transform="rotate(270) translate(-36 17)" onmousedown="handlePan(-1,0)">
                  <use xlink:href="#rim" fill="#404040">
                        <set attributeName="fill" to="#808080" begin="arrowLeft.mouseover" end="arrowLeft.mouseout"/>
                  </use>
                  <path fill="none" stroke="white" stroke-width="1.5" d="M0,-3.0v7 M-2.5,-0.5L0,-3.0L2.5,-0.5"/>
                </g>
        </g>
        <svg viewBox="0 0 15 15" width="100%" height="30px" preserveAspectRatio="xMaxYMin meet">
         <g id="arrow_out" transform="scale(0.3 0.3)">
          <a xlink:href="classgko_1_1matrix_1_1Identity__coll__graph_org.svg" target="_base">
           <rect id="button" ry="5" rx="5" y="6" x="6" height="38" width="38"
                fill="#f2f5e9" fill-opacity="0.5" stroke="#606060" stroke-width="1.0"/>
           <path id="arrow"
             d="M 11.500037,31.436501 C 11.940474,20.09759 22.043105,11.32322 32.158766,21.979434 L 37.068811,17.246167 C 37.068811,17.246167 37.088388,32 37.088388,32 L 22.160133,31.978069 C 22.160133,31.978069 26.997745,27.140456 26.997745,27.140456 C 18.528582,18.264221 13.291696,25.230495 11.500037,31.436501 z"
             style="fill:#404040;"/>
          </a>
         </g>
        </svg>
</svg>
