<?xml version="1.0" encoding="UTF-8" standalone="no"?>
<!DOCTYPE svg PUBLIC "-//W3C//DTD SVG 1.1//EN"
 "http://www.w3.org/Graphics/SVG/1.1/DTD/svg11.dtd">
<!-- Generated by graphviz version 2.40.1 (20161225.0304)
 -->
<!-- Title: gko::solver::Cgs&lt; ValueType &gt; Pages: 1 -->
<svg width="2171pt" height="348pt"
 viewBox="0.00 0.00 2171.00 348.00" xmlns="http://www.w3.org/2000/svg" xmlns:xlink="http://www.w3.org/1999/xlink">
<g id="graph0" class="graph" transform="scale(1 1) rotate(0) translate(4 344)">
<title>gko::solver::Cgs&lt; ValueType &gt;</title>
<polygon fill="#ffffff" stroke="transparent" points="-4,4 -4,-344 2167,-344 2167,4 -4,4"/>
<!-- Node0 -->
<g id="node1" class="node">
<title>Node0</title>
<polygon fill="#bfbfbf" stroke="#000000" points="1996,-96 1996,-115 2163,-115 2163,-96 1996,-96"/>
<text text-anchor="middle" x="2079.5" y="-103" font-family="Helvetica,sans-Serif" font-size="10.00" fill="#000000">gko::solver::Cgs&lt; ValueType &gt;</text>
</g>
<!-- Node1 -->
<g id="node2" class="node">
<title>Node1</title>
<g id="a_node2"><a xlink:href="classgko_1_1EnableLinOp.html" target="_top" xlink:title="gko::EnableLinOp\&lt; Cgs\l\&lt; ValueType \&gt; \&gt;">
<polygon fill="#ffffff" stroke="#000000" points="1828,-122.5 1828,-152.5 1959,-152.5 1959,-122.5 1828,-122.5"/>
<text text-anchor="start" x="1836" y="-140.5" font-family="Helvetica,sans-Serif" font-size="10.00" fill="#000000">gko::EnableLinOp&lt; Cgs</text>
<text text-anchor="middle" x="1893.5" y="-129.5" font-family="Helvetica,sans-Serif" font-size="10.00" fill="#000000">&lt; ValueType &gt; &gt;</text>
</a>
</g>
</g>
<!-- Node1&#45;&gt;Node0 -->
<g id="edge1" class="edge">
<title>Node1&#45;&gt;Node0</title>
<path fill="none" stroke="#191970" d="M1969.1634,-124.4826C1987.5271,-121.3233 2006.8258,-118.0031 2024.0569,-115.0386"/>
<polygon fill="#191970" stroke="#191970" points="1968.3384,-121.0731 1959.0766,-126.218 1969.5253,-127.9717 1968.3384,-121.0731"/>
</g>
<!-- Node2 -->
<g id="node3" class="node">
<title>Node2</title>
<g id="a_node3"><a xlink:href="classgko_1_1EnablePolymorphicObject.html" target="_top" xlink:title="gko::EnablePolymorphicObject\l\&lt; Cgs\&lt; ValueType \&gt;, LinOp \&gt;">
<polygon fill="#ffffff" stroke="#000000" points="1510,-212.5 1510,-242.5 1676,-242.5 1676,-212.5 1510,-212.5"/>
<text text-anchor="start" x="1518" y="-230.5" font-family="Helvetica,sans-Serif" font-size="10.00" fill="#000000">gko::EnablePolymorphicObject</text>
<text text-anchor="middle" x="1593" y="-219.5" font-family="Helvetica,sans-Serif" font-size="10.00" fill="#000000">&lt; Cgs&lt; ValueType &gt;, LinOp &gt;</text>
</a>
</g>
</g>
<!-- Node2&#45;&gt;Node1 -->
<g id="edge2" class="edge">
<title>Node2&#45;&gt;Node1</title>
<path fill="none" stroke="#191970" d="M1653.0307,-209.5208C1708.7131,-192.8438 1790.6485,-168.3041 1843.039,-152.6131"/>
<polygon fill="#191970" stroke="#191970" points="1651.8723,-206.214 1643.2969,-212.436 1653.8807,-212.9197 1651.8723,-206.214"/>
</g>
<!-- Node3 -->
<g id="node4" class="node">
<title>Node3</title>
<g id="a_node4"><a xlink:href="classgko_1_1EnableAbstractPolymorphicObject.html" target="_top" xlink:title="gko::EnableAbstractPolymorphic\lObject\&lt; Cgs\&lt; ValueType \&gt;,\l LinOp \&gt;">
<polygon fill="#ffffff" stroke="#000000" points="1285,-268 1285,-309 1460,-309 1460,-268 1285,-268"/>
<text text-anchor="start" x="1293" y="-297" font-family="Helvetica,sans-Serif" font-size="10.00" fill="#000000">gko::EnableAbstractPolymorphic</text>
<text text-anchor="start" x="1293" y="-286" font-family="Helvetica,sans-Serif" font-size="10.00" fill="#000000">Object&lt; Cgs&lt; ValueType &gt;,</text>
<text text-anchor="middle" x="1372.5" y="-275" font-family="Helvetica,sans-Serif" font-size="10.00" fill="#000000"> LinOp &gt;</text>
</a>
</g>
</g>
<!-- Node3&#45;&gt;Node2 -->
<g id="edge3" class="edge">
<title>Node3&#45;&gt;Node2</title>
<path fill="none" stroke="#191970" d="M1456.8191,-265.1736C1484.2095,-257.5962 1513.8637,-249.3926 1538.4855,-242.5811"/>
<polygon fill="#191970" stroke="#191970" points="1455.5486,-261.8936 1446.8438,-267.9332 1457.4151,-268.6402 1455.5486,-261.8936"/>
</g>
<!-- Node4 -->
<g id="node5" class="node">
<title>Node4</title>
<g id="a_node5"><a xlink:href="classgko_1_1LinOp.html" target="_top" xlink:title="The linear operator (LinOp) is a base class for all linear algebra objects in Ginkgo. ">
<polygon fill="#ffffff" stroke="#000000" points="946.5,-312 946.5,-331 1014.5,-331 1014.5,-312 946.5,-312"/>
<text text-anchor="middle" x="980.5" y="-319" font-family="Helvetica,sans-Serif" font-size="10.00" fill="#000000">gko::LinOp</text>
</a>
</g>
</g>
<!-- Node4&#45;&gt;Node3 -->
<g id="edge4" class="edge">
<title>Node4&#45;&gt;Node3</title>
<path fill="none" stroke="#191970" d="M1024.5774,-317.7894C1087.3955,-312.5011 1203.9999,-302.685 1284.805,-295.8825"/>
<polygon fill="#191970" stroke="#191970" points="1024.2728,-314.3026 1014.6017,-318.6292 1024.8601,-321.2779 1024.2728,-314.3026"/>
</g>
<!-- Node5 -->
<g id="node6" class="node">
<title>Node5</title>
<g id="a_node6"><a xlink:href="classgko_1_1EnableAbstractPolymorphicObject.html" target="_top" xlink:title="gko::EnableAbstractPolymorphic\lObject\&lt; LinOp \&gt;">
<polygon fill="#ffffff" stroke="#ff0000" points="538,-309.5 538,-339.5 713,-339.5 713,-309.5 538,-309.5"/>
<text text-anchor="start" x="546" y="-327.5" font-family="Helvetica,sans-Serif" font-size="10.00" fill="#000000">gko::EnableAbstractPolymorphic</text>
<text text-anchor="middle" x="625.5" y="-316.5" font-family="Helvetica,sans-Serif" font-size="10.00" fill="#000000">Object&lt; LinOp &gt;</text>
</a>
</g>
</g>
<!-- Node5&#45;&gt;Node4 -->
<g id="edge5" class="edge">
<title>Node5&#45;&gt;Node4</title>
<path fill="none" stroke="#191970" d="M723.5779,-323.6712C797.9039,-323.0431 895.6356,-322.2172 946.4687,-321.7876"/>
<polygon fill="#191970" stroke="#191970" points="723.2229,-320.174 713.2528,-323.7584 723.2821,-327.1737 723.2229,-320.174"/>
</g>
<!-- Node10 -->
<g id="node7" class="node">
<title>Node10</title>
<g id="a_node7"><a xlink:href="classgko_1_1EnableAbstractPolymorphicObject.html" target="_top" xlink:title="This mixin inherits from (a subclass of) PolymorphicObject and provides a base implementation of a ne...">
<polygon fill="#ffffff" stroke="#000000" points="138,-223 138,-264 332,-264 332,-223 138,-223"/>
<text text-anchor="start" x="146" y="-252" font-family="Helvetica,sans-Serif" font-size="10.00" fill="#000000">gko::EnableAbstractPolymorphic</text>
<text text-anchor="start" x="146" y="-241" font-family="Helvetica,sans-Serif" font-size="10.00" fill="#000000">Object&lt; AbstactObject, Polymorphic</text>
<text text-anchor="middle" x="235" y="-230" font-family="Helvetica,sans-Serif" font-size="10.00" fill="#000000">Base &gt;</text>
</a>
</g>
</g>
<!-- Node10&#45;&gt;Node3 -->
<g id="edge8" class="edge">
<title>Node10&#45;&gt;Node3</title>
<path fill="none" stroke="#ffa500" stroke-dasharray="5,2" d="M342.2539,-261.7075C344.859,-261.9924 347.444,-262.2575 350,-262.5 694.7231,-295.2016 1107.5524,-293.17 1284.7187,-290.345"/>
<polygon fill="#ffa500" stroke="#ffa500" points="342.4668,-258.2085 332.1265,-260.5165 341.6492,-265.1606 342.4668,-258.2085"/>
<text text-anchor="start" x="748" y="-302.5" font-family="Helvetica,sans-Serif" font-size="10.00" fill="#000000"> &lt; Cgs&lt; ValueType &gt;,</text>
<text text-anchor="middle" x="802" y="-291.5" font-family="Helvetica,sans-Serif" font-size="10.00" fill="#000000"> LinOp &gt;</text>
</g>
<!-- Node10&#45;&gt;Node5 -->
<g id="edge6" class="edge">
<title>Node10&#45;&gt;Node5</title>
<path fill="none" stroke="#ffa500" stroke-dasharray="5,2" d="M282.3212,-268.4448C302.6332,-278.0984 326.956,-288.2972 350,-294.5 411.5581,-311.0698 483.1969,-318.5239 537.9906,-321.8596"/>
<polygon fill="#ffa500" stroke="#ffa500" points="283.8149,-265.2793 273.29,-264.064 280.7598,-271.5775 283.8149,-265.2793"/>
<text text-anchor="middle" x="428.5" y="-322.5" font-family="Helvetica,sans-Serif" font-size="10.00" fill="#000000"> &lt; LinOp &gt;</text>
</g>
<!-- Node13 -->
<g id="node10" class="node">
<title>Node13</title>
<g id="a_node10"><a xlink:href="classgko_1_1EnableAbstractPolymorphicObject.html" target="_top" xlink:title="gko::EnableAbstractPolymorphic\lObject\&lt; ConcreteObject, Polymorphic\lBase \&gt;">
<polygon fill="#ffffff" stroke="#000000" points="525,-202 525,-243 726,-243 726,-202 525,-202"/>
<text text-anchor="start" x="533" y="-231" font-family="Helvetica,sans-Serif" font-size="10.00" fill="#000000">gko::EnableAbstractPolymorphic</text>
<text text-anchor="start" x="533" y="-220" font-family="Helvetica,sans-Serif" font-size="10.00" fill="#000000">Object&lt; ConcreteObject, Polymorphic</text>
<text text-anchor="middle" x="625.5" y="-209" font-family="Helvetica,sans-Serif" font-size="10.00" fill="#000000">Base &gt;</text>
</a>
</g>
</g>
<!-- Node10&#45;&gt;Node13 -->
<g id="edge12" class="edge">
<title>Node10&#45;&gt;Node13</title>
<path fill="none" stroke="#ffa500" stroke-dasharray="5,2" d="M342.1578,-237.7374C399.1787,-234.6709 468.8822,-230.9225 524.885,-227.9108"/>
<polygon fill="#ffa500" stroke="#ffa500" points="341.8274,-234.25 332.0298,-238.282 342.2034,-241.2399 341.8274,-234.25"/>
<text text-anchor="start" x="350" y="-250.5" font-family="Helvetica,sans-Serif" font-size="10.00" fill="#000000"> &lt; ConcreteObject, Polymorphic</text>
<text text-anchor="middle" x="428.5" y="-239.5" font-family="Helvetica,sans-Serif" font-size="10.00" fill="#000000">Base &gt;</text>
</g>
<!-- Node20 -->
<g id="node17" class="node">
<title>Node20</title>
<g id="a_node17"><a xlink:href="classgko_1_1EnableAbstractPolymorphicObject.html" target="_top" xlink:title="gko::EnableAbstractPolymorphic\lObject\&lt; ConcreteLinOp, Polymorphic\lBase \&gt;">
<polygon fill="#ffffff" stroke="#000000" points="527,-137 527,-178 724,-178 724,-137 527,-137"/>
<text text-anchor="start" x="535" y="-166" font-family="Helvetica,sans-Serif" font-size="10.00" fill="#000000">gko::EnableAbstractPolymorphic</text>
<text text-anchor="start" x="535" y="-155" font-family="Helvetica,sans-Serif" font-size="10.00" fill="#000000">Object&lt; ConcreteLinOp, Polymorphic</text>
<text text-anchor="middle" x="625.5" y="-144" font-family="Helvetica,sans-Serif" font-size="10.00" fill="#000000">Base &gt;</text>
</a>
</g>
</g>
<!-- Node10&#45;&gt;Node20 -->
<g id="edge22" class="edge">
<title>Node10&#45;&gt;Node20</title>
<path fill="none" stroke="#ffa500" stroke-dasharray="5,2" d="M295.891,-219.4832C313.1818,-213.2972 332.1619,-207.0965 350,-202.5 407.8421,-187.5954 473.8466,-176.6118 526.7468,-169.2284"/>
<polygon fill="#ffa500" stroke="#ffa500" points="294.6776,-216.2002 286.4767,-222.9081 297.0708,-222.7784 294.6776,-216.2002"/>
<text text-anchor="start" x="352" y="-216.5" font-family="Helvetica,sans-Serif" font-size="10.00" fill="#000000"> &lt; ConcreteLinOp, Polymorphic</text>
<text text-anchor="middle" x="428.5" y="-205.5" font-family="Helvetica,sans-Serif" font-size="10.00" fill="#000000">Base &gt;</text>
</g>
<!-- Node11 -->
<g id="node8" class="node">
<title>Node11</title>
<polygon fill="#ffffff" stroke="#bfbfbf" points="0,-156 0,-175 101,-175 101,-156 0,-156"/>
<text text-anchor="middle" x="50.5" y="-163" font-family="Helvetica,sans-Serif" font-size="10.00" fill="#000000">PolymorphicBase</text>
</g>
<!-- Node11&#45;&gt;Node10 -->
<g id="edge7" class="edge">
<title>Node11&#45;&gt;Node10</title>
<path fill="none" stroke="#191970" d="M82.628,-179.0826C111.2155,-191.1684 153.45,-209.0236 186.208,-222.8725"/>
<polygon fill="#191970" stroke="#191970" points="83.6969,-175.7346 73.1233,-175.0643 80.9711,-182.1821 83.6969,-175.7346"/>
</g>
<!-- Node11&#45;&gt;Node13 -->
<g id="edge11" class="edge">
<title>Node11&#45;&gt;Node13</title>
<path fill="none" stroke="#191970" d="M111.4107,-160.0065C199.8299,-153.6786 368.3225,-147.8417 507,-179.5 515.535,-181.4484 516.8592,-184.2798 525,-187.5 537.4558,-192.427 550.9171,-197.3705 563.8153,-201.9259"/>
<polygon fill="#191970" stroke="#191970" points="111.0047,-156.5269 101.2915,-160.7581 111.5233,-163.5077 111.0047,-156.5269"/>
</g>
<!-- Node11&#45;&gt;Node20 -->
<g id="edge21" class="edge">
<title>Node11&#45;&gt;Node20</title>
<path fill="none" stroke="#191970" d="M100.0089,-154.156C106.37,-153.0602 112.8183,-152.1252 119,-151.5 290.5691,-134.1468 334.6107,-147.1385 507,-151.5 513.4867,-151.6641 520.1712,-151.8787 526.9066,-152.1288"/>
<polygon fill="#191970" stroke="#191970" points="99.3286,-150.7224 90.1355,-155.9889 100.6063,-157.6048 99.3286,-150.7224"/>
</g>
<!-- Node12 -->
<g id="node9" class="node">
<title>Node12</title>
<g id="a_node9"><a xlink:href="classgko_1_1EnablePolymorphicObject.html" target="_top" xlink:title="This mixin inherits from (a subclass of) PolymorphicObject and provides a base implementation of a ne...">
<polygon fill="#ffffff" stroke="#000000" points="878,-207.5 878,-237.5 1083,-237.5 1083,-207.5 878,-207.5"/>
<text text-anchor="start" x="886" y="-225.5" font-family="Helvetica,sans-Serif" font-size="10.00" fill="#000000">gko::EnablePolymorphicObject</text>
<text text-anchor="middle" x="980.5" y="-214.5" font-family="Helvetica,sans-Serif" font-size="10.00" fill="#000000">&lt; ConcreteObject, PolymorphicBase &gt;</text>
</a>
</g>
</g>
<!-- Node12&#45;&gt;Node2 -->
<g id="edge9" class="edge">
<title>Node12&#45;&gt;Node2</title>
<path fill="none" stroke="#ffa500" stroke-dasharray="5,2" d="M1093.0199,-223.4185C1213.5539,-224.4025 1402.0176,-225.941 1509.8379,-226.8211"/>
<polygon fill="#ffa500" stroke="#ffa500" points="1093.047,-219.9187 1083.0187,-223.3369 1092.9898,-226.9185 1093.047,-219.9187"/>
<text text-anchor="start" x="1318.5" y="-240.5" font-family="Helvetica,sans-Serif" font-size="10.00" fill="#000000"> &lt; Cgs&lt; ValueType &gt;,</text>
<text text-anchor="middle" x="1372.5" y="-229.5" font-family="Helvetica,sans-Serif" font-size="10.00" fill="#000000"> LinOp &gt;</text>
</g>
<!-- Node19 -->
<g id="node16" class="node">
<title>Node19</title>
<g id="a_node16"><a xlink:href="classgko_1_1EnablePolymorphicObject.html" target="_top" xlink:title="gko::EnablePolymorphicObject\l\&lt; ConcreteLinOp, PolymorphicBase \&gt;">
<polygon fill="#ffffff" stroke="#000000" points="1272,-144.5 1272,-174.5 1473,-174.5 1473,-144.5 1272,-144.5"/>
<text text-anchor="start" x="1280" y="-162.5" font-family="Helvetica,sans-Serif" font-size="10.00" fill="#000000">gko::EnablePolymorphicObject</text>
<text text-anchor="middle" x="1372.5" y="-151.5" font-family="Helvetica,sans-Serif" font-size="10.00" fill="#000000">&lt; ConcreteLinOp, PolymorphicBase &gt;</text>
</a>
</g>
</g>
<!-- Node12&#45;&gt;Node19 -->
<g id="edge23" class="edge">
<title>Node12&#45;&gt;Node19</title>
<path fill="none" stroke="#ffa500" stroke-dasharray="5,2" d="M1042.5139,-204.8453C1061.1962,-199.9884 1081.8305,-195.0787 1101,-191.5 1157.1034,-181.0263 1220.4049,-173.3315 1271.7633,-168.116"/>
<polygon fill="#ffa500" stroke="#ffa500" points="1041.4245,-201.513 1032.65,-207.4509 1043.2123,-208.2808 1041.4245,-201.513"/>
<text text-anchor="start" x="1101" y="-205.5" font-family="Helvetica,sans-Serif" font-size="10.00" fill="#000000"> &lt; ConcreteLinOp, Polymorphic</text>
<text text-anchor="middle" x="1177.5" y="-194.5" font-family="Helvetica,sans-Serif" font-size="10.00" fill="#000000">Base &gt;</text>
</g>
<!-- Node13&#45;&gt;Node12 -->
<g id="edge10" class="edge">
<title>Node13&#45;&gt;Node12</title>
<path fill="none" stroke="#191970" d="M736.4173,-222.5C781.6374,-222.5 833.6002,-222.5 877.9272,-222.5"/>
<polygon fill="#191970" stroke="#191970" points="736.2792,-219.0001 726.2792,-222.5 736.2791,-226.0001 736.2792,-219.0001"/>
</g>
<!-- Node14 -->
<g id="node11" class="node">
<title>Node14</title>
<g id="a_node11"><a xlink:href="classgko_1_1EnablePolymorphicAssignment.html" target="_top" xlink:title="gko::EnablePolymorphicAssignment\l\&lt; Cgs\&lt; ValueType \&gt; \&gt;">
<polygon fill="#ffffff" stroke="#000000" points="1276.5,-38.5 1276.5,-68.5 1468.5,-68.5 1468.5,-38.5 1276.5,-38.5"/>
<text text-anchor="start" x="1284.5" y="-56.5" font-family="Helvetica,sans-Serif" font-size="10.00" fill="#000000">gko::EnablePolymorphicAssignment</text>
<text text-anchor="middle" x="1372.5" y="-45.5" font-family="Helvetica,sans-Serif" font-size="10.00" fill="#000000">&lt; Cgs&lt; ValueType &gt; &gt;</text>
</a>
</g>
</g>
<!-- Node14&#45;&gt;Node1 -->
<g id="edge13" class="edge">
<title>Node14&#45;&gt;Node1</title>
<path fill="none" stroke="#191970" d="M1475.6045,-70.1234C1580.32,-87.0065 1739.317,-112.6413 1827.9499,-126.9315"/>
<polygon fill="#191970" stroke="#191970" points="1476.074,-66.654 1465.6444,-68.5175 1474.9597,-73.5647 1476.074,-66.654"/>
</g>
<!-- Node15 -->
<g id="node12" class="node">
<title>Node15</title>
<g id="a_node12"><a xlink:href="classgko_1_1ConvertibleTo.html" target="_top" xlink:title="gko::ConvertibleTo\l\&lt; Cgs\&lt; ValueType \&gt; \&gt;">
<polygon fill="#ffffff" stroke="#000000" points="916,-.5 916,-30.5 1045,-30.5 1045,-.5 916,-.5"/>
<text text-anchor="start" x="924" y="-18.5" font-family="Helvetica,sans-Serif" font-size="10.00" fill="#000000">gko::ConvertibleTo</text>
<text text-anchor="middle" x="980.5" y="-7.5" font-family="Helvetica,sans-Serif" font-size="10.00" fill="#000000">&lt; Cgs&lt; ValueType &gt; &gt;</text>
</a>
</g>
</g>
<!-- Node15&#45;&gt;Node14 -->
<g id="edge14" class="edge">
<title>Node15&#45;&gt;Node14</title>
<path fill="none" stroke="#191970" d="M1055.4609,-22.7666C1118.2835,-28.8566 1208.3696,-37.5894 1276.4688,-44.1909"/>
<polygon fill="#191970" stroke="#191970" points="1055.5219,-19.2562 1045.2308,-21.7749 1054.8464,-26.2236 1055.5219,-19.2562"/>
</g>
<!-- Node16 -->
<g id="node13" class="node">
<title>Node16</title>
<g id="a_node13"><a xlink:href="classgko_1_1ConvertibleTo.html" target="_top" xlink:title="ConvertibleTo interface is used to mark that the implementer can be converted to the object of Result...">
<polygon fill="#ffffff" stroke="#000000" points="572,-49.5 572,-79.5 679,-79.5 679,-49.5 572,-49.5"/>
<text text-anchor="start" x="580" y="-67.5" font-family="Helvetica,sans-Serif" font-size="10.00" fill="#000000">gko::ConvertibleTo</text>
<text text-anchor="middle" x="625.5" y="-56.5" font-family="Helvetica,sans-Serif" font-size="10.00" fill="#000000">&lt; ResultType &gt;</text>
</a>
</g>
</g>
<!-- Node16&#45;&gt;Node15 -->
<g id="edge15" class="edge">
<title>Node16&#45;&gt;Node15</title>
<path fill="none" stroke="#ffa500" stroke-dasharray="5,2" d="M689.0114,-55.7336C753.0976,-46.8879 851.543,-33.2997 915.985,-24.4049"/>
<polygon fill="#ffa500" stroke="#ffa500" points="688.4589,-52.2766 679.0315,-57.1112 689.4161,-59.2109 688.4589,-52.2766"/>
<text text-anchor="middle" x="802" y="-50.5" font-family="Helvetica,sans-Serif" font-size="10.00" fill="#000000"> &lt; Cgs&lt; ValueType &gt; &gt;</text>
</g>
<!-- Node17 -->
<g id="node14" class="node">
<title>Node17</title>
<g id="a_node14"><a xlink:href="classgko_1_1EnablePolymorphicAssignment.html" target="_top" xlink:title="This mixin is used to enable a default PolymorphicObject::copy_from() implementation for objects that...">
<polygon fill="#ffffff" stroke="#000000" points="884.5,-49.5 884.5,-79.5 1076.5,-79.5 1076.5,-49.5 884.5,-49.5"/>
<text text-anchor="start" x="892.5" y="-67.5" font-family="Helvetica,sans-Serif" font-size="10.00" fill="#000000">gko::EnablePolymorphicAssignment</text>
<text text-anchor="middle" x="980.5" y="-56.5" font-family="Helvetica,sans-Serif" font-size="10.00" fill="#000000">&lt; ConcreteType, ResultType &gt;</text>
</a>
</g>
</g>
<!-- Node16&#45;&gt;Node17 -->
<g id="edge17" class="edge">
<title>Node16&#45;&gt;Node17</title>
<path fill="none" stroke="#191970" d="M689.2108,-64.5C743.4986,-64.5 822.3367,-64.5 884.3076,-64.5"/>
<polygon fill="#191970" stroke="#191970" points="689.0315,-61.0001 679.0315,-64.5 689.0314,-68.0001 689.0315,-61.0001"/>
</g>
<!-- Node22 -->
<g id="node19" class="node">
<title>Node22</title>
<g id="a_node19"><a xlink:href="classgko_1_1ConvertibleTo.html" target="_top" xlink:title="gko::ConvertibleTo\l\&lt; ConcreteLinOp \&gt;">
<polygon fill="#ffffff" stroke="#000000" points="925.5,-98.5 925.5,-128.5 1035.5,-128.5 1035.5,-98.5 925.5,-98.5"/>
<text text-anchor="start" x="933.5" y="-116.5" font-family="Helvetica,sans-Serif" font-size="10.00" fill="#000000">gko::ConvertibleTo</text>
<text text-anchor="middle" x="980.5" y="-105.5" font-family="Helvetica,sans-Serif" font-size="10.00" fill="#000000">&lt; ConcreteLinOp &gt;</text>
</a>
</g>
</g>
<!-- Node16&#45;&gt;Node22 -->
<g id="edge26" class="edge">
<title>Node16&#45;&gt;Node22</title>
<path fill="none" stroke="#ffa500" stroke-dasharray="5,2" d="M689.0839,-73.2764C756.3684,-82.5635 861.4684,-97.0703 925.3622,-105.8894"/>
<polygon fill="#ffa500" stroke="#ffa500" points="689.4161,-69.7891 679.0315,-71.8888 688.4589,-76.7234 689.4161,-69.7891"/>
<text text-anchor="middle" x="802" y="-99.5" font-family="Helvetica,sans-Serif" font-size="10.00" fill="#000000"> &lt; ConcreteLinOp &gt;</text>
</g>
<!-- Node17&#45;&gt;Node14 -->
<g id="edge16" class="edge">
<title>Node17&#45;&gt;Node14</title>
<path fill="none" stroke="#ffa500" stroke-dasharray="5,2" d="M1087.126,-55.1975C1091.8124,-54.9319 1096.4532,-54.6967 1101,-54.5 1159.1582,-51.9836 1224.3893,-51.6624 1276.3338,-52.0041"/>
<polygon fill="#ffa500" stroke="#ffa500" points="1086.5817,-51.724 1076.8126,-55.8245 1087.0066,-58.7111 1086.5817,-51.724"/>
<text text-anchor="middle" x="1177.5" y="-57.5" font-family="Helvetica,sans-Serif" font-size="10.00" fill="#000000"> &lt; Cgs&lt; ValueType &gt; &gt;</text>
</g>
<!-- Node21 -->
<g id="node18" class="node">
<title>Node21</title>
<g id="a_node18"><a xlink:href="classgko_1_1EnablePolymorphicAssignment.html" target="_top" xlink:title="gko::EnablePolymorphicAssignment\l\&lt; ConcreteLinOp \&gt;">
<polygon fill="#ffffff" stroke="#000000" points="1276.5,-95.5 1276.5,-125.5 1468.5,-125.5 1468.5,-95.5 1276.5,-95.5"/>
<text text-anchor="start" x="1284.5" y="-113.5" font-family="Helvetica,sans-Serif" font-size="10.00" fill="#000000">gko::EnablePolymorphicAssignment</text>
<text text-anchor="middle" x="1372.5" y="-102.5" font-family="Helvetica,sans-Serif" font-size="10.00" fill="#000000">&lt; ConcreteLinOp &gt;</text>
</a>
</g>
</g>
<!-- Node17&#45;&gt;Node21 -->
<g id="edge27" class="edge">
<title>Node17&#45;&gt;Node21</title>
<path fill="none" stroke="#ffa500" stroke-dasharray="5,2" d="M1086.6818,-76.8953C1137.3404,-82.8162 1198.8051,-90.0106 1254,-96.5 1261.3039,-97.3587 1268.8608,-98.2485 1276.4602,-99.1442"/>
<polygon fill="#ffa500" stroke="#ffa500" points="1087.038,-73.4132 1076.6993,-75.7287 1086.2254,-80.3659 1087.038,-73.4132"/>
<text text-anchor="middle" x="1177.5" y="-99.5" font-family="Helvetica,sans-Serif" font-size="10.00" fill="#000000"> &lt; ConcreteLinOp &gt;</text>
</g>
<!-- Node18 -->
<g id="node15" class="node">
<title>Node18</title>
<g id="a_node15"><a xlink:href="classgko_1_1EnableLinOp.html" target="_top" xlink:title="The EnableLinOp mixin can be used to provide sensible default implementations of the majority of the ...">
<polygon fill="#ffffff" stroke="#000000" points="1515,-122.5 1515,-152.5 1671,-152.5 1671,-122.5 1515,-122.5"/>
<text text-anchor="start" x="1523" y="-140.5" font-family="Helvetica,sans-Serif" font-size="10.00" fill="#000000">gko::EnableLinOp&lt; Concrete</text>
<text text-anchor="middle" x="1593" y="-129.5" font-family="Helvetica,sans-Serif" font-size="10.00" fill="#000000">LinOp, PolymorphicBase &gt;</text>
</a>
</g>
</g>
<!-- Node18&#45;&gt;Node1 -->
<g id="edge18" class="edge">
<title>Node18&#45;&gt;Node1</title>
<path fill="none" stroke="#ffa500" stroke-dasharray="5,2" d="M1681.3303,-137.5C1728.2533,-137.5 1784.9418,-137.5 1827.9137,-137.5"/>
<polygon fill="#ffa500" stroke="#ffa500" points="1681.1684,-134.0001 1671.1684,-137.5 1681.1684,-141.0001 1681.1684,-134.0001"/>
<text text-anchor="middle" x="1752" y="-140.5" font-family="Helvetica,sans-Serif" font-size="10.00" fill="#000000"> &lt; Cgs&lt; ValueType &gt; &gt;</text>
</g>
<!-- Node19&#45;&gt;Node18 -->
<g id="edge19" class="edge">
<title>Node19&#45;&gt;Node18</title>
<path fill="none" stroke="#191970" d="M1483.2456,-148.4505C1493.8692,-147.3906 1504.4867,-146.3313 1514.7034,-145.3119"/>
<polygon fill="#191970" stroke="#191970" points="1482.6742,-144.9901 1473.0711,-149.4657 1483.3693,-151.9555 1482.6742,-144.9901"/>
</g>
<!-- Node20&#45;&gt;Node19 -->
<g id="edge20" class="edge">
<title>Node20&#45;&gt;Node19</title>
<path fill="none" stroke="#191970" d="M734.5199,-157.7919C878.9629,-158.1786 1131.7919,-158.8555 1271.8823,-159.2306"/>
<polygon fill="#191970" stroke="#191970" points="734.3197,-154.2914 724.3103,-157.7646 734.3009,-161.2914 734.3197,-154.2914"/>
</g>
<!-- Node21&#45;&gt;Node18 -->
<g id="edge24" class="edge">
<title>Node21&#45;&gt;Node18</title>
<path fill="none" stroke="#191970" d="M1478.7437,-123.5094C1490.8851,-124.9961 1503.0914,-126.4908 1514.7726,-127.9211"/>
<polygon fill="#191970" stroke="#191970" points="1478.9244,-120.0055 1468.5731,-122.264 1478.0735,-126.9536 1478.9244,-120.0055"/>
</g>
<!-- Node22&#45;&gt;Node21 -->
<g id="edge25" class="edge">
<title>Node22&#45;&gt;Node21</title>
<path fill="none" stroke="#191970" d="M1046.0239,-112.9985C1108.9342,-112.5171 1204.7021,-111.7842 1276.2698,-111.2365"/>
<polygon fill="#191970" stroke="#191970" points="1045.8055,-109.5 1035.8326,-113.0765 1045.8591,-116.4998 1045.8055,-109.5"/>
</g>
<!-- Node23 -->
<g id="node20" class="node">
<title>Node23</title>
<g id="a_node20"><a xlink:href="classgko_1_1Preconditionable.html" target="_top" xlink:title="A LinOp implementing this interface can be preconditioned. ">
<polygon fill="#ffffff" stroke="#000000" points="1832.5,-84 1832.5,-103 1954.5,-103 1954.5,-84 1832.5,-84"/>
<text text-anchor="middle" x="1893.5" y="-91" font-family="Helvetica,sans-Serif" font-size="10.00" fill="#000000">gko::Preconditionable</text>
</a>
</g>
</g>
<!-- Node23&#45;&gt;Node0 -->
<g id="edge28" class="edge">
<title>Node23&#45;&gt;Node0</title>
<path fill="none" stroke="#191970" d="M1964.6693,-98.0916C1974.8194,-98.7464 1985.3373,-99.425 1995.7013,-100.0936"/>
<polygon fill="#191970" stroke="#191970" points="1964.8656,-94.597 1954.661,-97.4459 1964.4149,-101.5825 1964.8656,-94.597"/>
</g>
</g>
</svg>
