<?xml version="1.0" encoding="UTF-8" standalone="no"?>
<!DOCTYPE svg PUBLIC "-//W3C//DTD SVG 1.1//EN"
 "http://www.w3.org/Graphics/SVG/1.1/DTD/svg11.dtd">
<!-- Generated by graphviz version 2.38.0 (20140413.2041)
 -->
<!-- Title: gko::CudaExecutor Pages: 1 -->
<svg width="731pt" height="88pt"
 viewBox="0.00 0.00 731.00 88.00" xmlns="http://www.w3.org/2000/svg" xmlns:xlink="http://www.w3.org/1999/xlink">
<g id="graph0" class="graph" transform="scale(1 1) rotate(0) translate(4 84)">
<title>gko::CudaExecutor</title>
<polygon fill="white" stroke="none" points="-4,4 -4,-84 727,-84 727,4 -4,4"/>
<!-- Node1 -->
<g id="node1" class="node"><title>Node1</title>
<polygon fill="#bfbfbf" stroke="black" points="616,-30 616,-49 723,-49 723,-30 616,-30"/>
<text text-anchor="middle" x="669.5" y="-37" font-family="Helvetica,sans-Serif" font-size="10.00">gko::CudaExecutor</text>
</g>
<!-- Node2 -->
<g id="node2" class="node"><title>Node2</title>
<polygon fill="white" stroke="#bfbfbf" points="433,-49.5 433,-79.5 571,-79.5 571,-49.5 433,-49.5"/>
<text text-anchor="start" x="441" y="-67.5" font-family="Helvetica,sans-Serif" font-size="10.00">gko::detail::ExecutorBase</text>
<text text-anchor="middle" x="502" y="-56.5" font-family="Helvetica,sans-Serif" font-size="10.00">&lt; CudaExecutor &gt;</text>
</g>
<!-- Node2&#45;&gt;Node1 -->
<g id="edge1" class="edge"><title>Node2&#45;&gt;Node1</title>
<path fill="none" stroke="midnightblue" d="M581.453,-52.649C593.1,-50.8897 604.861,-49.1131 615.81,-47.4593"/>
<polygon fill="midnightblue" stroke="midnightblue" points="580.636,-49.2328 571.271,-54.1872 581.681,-56.1542 580.636,-49.2328"/>
</g>
<!-- Node3 -->
<g id="node3" class="node"><title>Node3</title>
<g id="a_node3"><a xlink:href="classgko_1_1Executor.html" target="_top" xlink:title="The first step in using the Ginkgo library consists of creating an executor. ">
<polygon fill="white" stroke="black" points="306,-55 306,-74 388,-74 388,-55 306,-55"/>
<text text-anchor="middle" x="347" y="-62" font-family="Helvetica,sans-Serif" font-size="10.00">gko::Executor</text>
</a>
</g>
</g>
<!-- Node3&#45;&gt;Node2 -->
<g id="edge2" class="edge"><title>Node3&#45;&gt;Node2</title>
<path fill="none" stroke="midnightblue" d="M398.492,-64.5C409.525,-64.5 421.379,-64.5 432.97,-64.5"/>
<polygon fill="midnightblue" stroke="midnightblue" points="398.199,-61.0001 388.199,-64.5 398.199,-68.0001 398.199,-61.0001"/>
</g>
<!-- Node4 -->
<g id="node4" class="node"><title>Node4</title>
<g id="a_node4"><a xlink:href="classgko_1_1log_1_1EnableLogging.html" target="_top" xlink:title="gko::log::EnableLogging\l\&lt; Executor \&gt;">
<polygon fill="white" stroke="black" points="140,-49.5 140,-79.5 270,-79.5 270,-49.5 140,-49.5"/>
<text text-anchor="start" x="148" y="-67.5" font-family="Helvetica,sans-Serif" font-size="10.00">gko::log::EnableLogging</text>
<text text-anchor="middle" x="205" y="-56.5" font-family="Helvetica,sans-Serif" font-size="10.00">&lt; Executor &gt;</text>
</a>
</g>
</g>
<!-- Node4&#45;&gt;Node3 -->
<g id="edge3" class="edge"><title>Node4&#45;&gt;Node3</title>
<path fill="none" stroke="midnightblue" d="M280.475,-64.5C289.165,-64.5 297.763,-64.5 305.729,-64.5"/>
<polygon fill="midnightblue" stroke="midnightblue" points="280.264,-61.0001 270.264,-64.5 280.264,-68.0001 280.264,-61.0001"/>
</g>
<!-- Node5 -->
<g id="node5" class="node"><title>Node5</title>
<g id="a_node5"><a xlink:href="classgko_1_1log_1_1Loggable.html" target="_top" xlink:title="Loggable class is an interface which should be implemented by classes wanting to support logging...">
<polygon fill="white" stroke="black" points="0,-55 0,-74 104,-74 104,-55 0,-55"/>
<text text-anchor="middle" x="52" y="-62" font-family="Helvetica,sans-Serif" font-size="10.00">gko::log::Loggable</text>
</a>
</g>
</g>
<!-- Node5&#45;&gt;Node4 -->
<g id="edge4" class="edge"><title>Node5&#45;&gt;Node4</title>
<path fill="none" stroke="midnightblue" d="M114.245,-64.5C122.668,-64.5 131.337,-64.5 139.812,-64.5"/>
<polygon fill="midnightblue" stroke="midnightblue" points="114.122,-61.0001 104.122,-64.5 114.122,-68.0001 114.122,-61.0001"/>
</g>
<!-- Node6 -->
<g id="node6" class="node"><title>Node6</title>
<polygon fill="white" stroke="#bfbfbf" points="424,-0.5 424,-30.5 580,-30.5 580,-0.5 424,-0.5"/>
<text text-anchor="start" x="432" y="-18.5" font-family="Helvetica,sans-Serif" font-size="10.00">std::enable_shared</text>
<text text-anchor="middle" x="502" y="-7.5" font-family="Helvetica,sans-Serif" font-size="10.00">_from_this&lt; CudaExecutor &gt;</text>
</g>
<!-- Node6&#45;&gt;Node1 -->
<g id="edge5" class="edge"><title>Node6&#45;&gt;Node1</title>
<path fill="none" stroke="midnightblue" d="M590.512,-28.1906C599.102,-29.4362 607.623,-30.6718 615.703,-31.8436"/>
<polygon fill="midnightblue" stroke="midnightblue" points="590.819,-24.6985 580.42,-26.727 589.814,-31.626 590.819,-24.6985"/>
</g>
</g>
</svg>
