<?xml version="1.0" encoding="UTF-8" standalone="no"?>
<!DOCTYPE svg PUBLIC "-//W3C//DTD SVG 1.1//EN"
 "http://www.w3.org/Graphics/SVG/1.1/DTD/svg11.dtd">
<!-- Generated by graphviz version 2.38.0 (20140413.2041)
 -->
<!-- Title: gko::AbstractFactory&lt; AbstractProductType, ComponentsType &gt; Pages: 1 -->
<svg width="873pt" height="50pt"
 viewBox="0.00 0.00 873.00 50.00" xmlns="http://www.w3.org/2000/svg" xmlns:xlink="http://www.w3.org/1999/xlink">
<g id="graph0" class="graph" transform="scale(1 1) rotate(0) translate(4 46)">
<title>gko::AbstractFactory&lt; AbstractProductType, ComponentsType &gt;</title>
<polygon fill="white" stroke="none" points="-4,4 -4,-46 869,-46 869,4 -4,4"/>
<!-- Node1 -->
<g id="node1" class="node"><title>Node1</title>
<polygon fill="#bfbfbf" stroke="black" points="736,-0.5 736,-41.5 865,-41.5 865,-0.5 736,-0.5"/>
<text text-anchor="start" x="744" y="-29.5" font-family="Helvetica,sans-Serif" font-size="10.00">gko::AbstractFactory</text>
<text text-anchor="start" x="744" y="-18.5" font-family="Helvetica,sans-Serif" font-size="10.00">&lt; AbstractProductType,</text>
<text text-anchor="middle" x="800.5" y="-7.5" font-family="Helvetica,sans-Serif" font-size="10.00"> ComponentsType &gt;</text>
</g>
<!-- Node2 -->
<g id="node2" class="node"><title>Node2</title>
<g id="a_node2"><a xlink:href="classgko_1_1EnableAbstractPolymorphicObject.html" target="_top" xlink:title="gko::EnableAbstractPolymorphic\lObject\&lt; AbstractFactory\&lt;\l AbstractProductType, ComponentsType \&gt; \&gt;">
<polygon fill="white" stroke="black" points="471,-0.5 471,-41.5 700,-41.5 700,-0.5 471,-0.5"/>
<text text-anchor="start" x="479" y="-29.5" font-family="Helvetica,sans-Serif" font-size="10.00">gko::EnableAbstractPolymorphic</text>
<text text-anchor="start" x="479" y="-18.5" font-family="Helvetica,sans-Serif" font-size="10.00">Object&lt; AbstractFactory&lt;</text>
<text text-anchor="middle" x="585.5" y="-7.5" font-family="Helvetica,sans-Serif" font-size="10.00"> AbstractProductType, ComponentsType &gt; &gt;</text>
</a>
</g>
</g>
<!-- Node2&#45;&gt;Node1 -->
<g id="edge1" class="edge"><title>Node2&#45;&gt;Node1</title>
<path fill="none" stroke="midnightblue" d="M710.415,-21C719.092,-21 727.609,-21 735.73,-21"/>
<polygon fill="midnightblue" stroke="midnightblue" points="710.171,-17.5001 700.171,-21 710.171,-24.5001 710.171,-17.5001"/>
</g>
<!-- Node3 -->
<g id="node3" class="node"><title>Node3</title>
<g id="a_node3"><a xlink:href="classgko_1_1PolymorphicObject.html" target="_top" xlink:title="A PolymorphicObject is the abstract base for all &quot;heavy&quot; objects in Ginkgo that behave polymorphicall...">
<polygon fill="white" stroke="black" points="306,-11.5 306,-30.5 435,-30.5 435,-11.5 306,-11.5"/>
<text text-anchor="middle" x="370.5" y="-18.5" font-family="Helvetica,sans-Serif" font-size="10.00">gko::PolymorphicObject</text>
</a>
</g>
</g>
<!-- Node3&#45;&gt;Node2 -->
<g id="edge2" class="edge"><title>Node3&#45;&gt;Node2</title>
<path fill="none" stroke="midnightblue" d="M445.35,-21C453.561,-21 462.06,-21 470.622,-21"/>
<polygon fill="midnightblue" stroke="midnightblue" points="445.119,-17.5001 435.119,-21 445.118,-24.5001 445.119,-17.5001"/>
</g>
<!-- Node4 -->
<g id="node4" class="node"><title>Node4</title>
<g id="a_node4"><a xlink:href="classgko_1_1log_1_1EnableLogging.html" target="_top" xlink:title="gko::log::EnableLogging\l\&lt; PolymorphicObject \&gt;">
<polygon fill="white" stroke="black" points="140,-6 140,-36 270,-36 270,-6 140,-6"/>
<text text-anchor="start" x="148" y="-24" font-family="Helvetica,sans-Serif" font-size="10.00">gko::log::EnableLogging</text>
<text text-anchor="middle" x="205" y="-13" font-family="Helvetica,sans-Serif" font-size="10.00">&lt; PolymorphicObject &gt;</text>
</a>
</g>
</g>
<!-- Node4&#45;&gt;Node3 -->
<g id="edge3" class="edge"><title>Node4&#45;&gt;Node3</title>
<path fill="none" stroke="midnightblue" d="M280.416,-21C288.895,-21 297.48,-21 305.803,-21"/>
<polygon fill="midnightblue" stroke="midnightblue" points="280.15,-17.5001 270.15,-21 280.15,-24.5001 280.15,-17.5001"/>
</g>
<!-- Node5 -->
<g id="node5" class="node"><title>Node5</title>
<g id="a_node5"><a xlink:href="classgko_1_1log_1_1Loggable.html" target="_top" xlink:title="Loggable class is an interface which should be implemented by classes wanting to support logging...">
<polygon fill="white" stroke="black" points="0,-11.5 0,-30.5 104,-30.5 104,-11.5 0,-11.5"/>
<text text-anchor="middle" x="52" y="-18.5" font-family="Helvetica,sans-Serif" font-size="10.00">gko::log::Loggable</text>
</a>
</g>
</g>
<!-- Node5&#45;&gt;Node4 -->
<g id="edge4" class="edge"><title>Node5&#45;&gt;Node4</title>
<path fill="none" stroke="midnightblue" d="M114.245,-21C122.668,-21 131.337,-21 139.812,-21"/>
<polygon fill="midnightblue" stroke="midnightblue" points="114.122,-17.5001 104.122,-21 114.122,-24.5001 114.122,-17.5001"/>
</g>
</g>
</svg>
