<?xml version="1.0" encoding="UTF-8" standalone="no"?>
<!DOCTYPE svg PUBLIC "-//W3C//DTD SVG 1.1//EN"
 "http://www.w3.org/Graphics/SVG/1.1/DTD/svg11.dtd">
<!-- Generated by graphviz version 2.38.0 (20140413.2041)
 -->
<!-- Title: gko::matrix::Csr&lt; ValueType, IndexType &gt; Pages: 1 -->
<svg width="2467pt" height="571pt"
 viewBox="0.00 0.00 2467.00 570.50" xmlns="http://www.w3.org/2000/svg" xmlns:xlink="http://www.w3.org/1999/xlink">
<g id="graph0" class="graph" transform="scale(1 1) rotate(0) translate(4 566.5)">
<title>gko::matrix::Csr&lt; ValueType, IndexType &gt;</title>
<polygon fill="white" stroke="none" points="-4,4 -4,-566.5 2463,-566.5 2463,4 -4,4"/>
<!-- Node1 -->
<g id="node1" class="node"><title>Node1</title>
<polygon fill="#bfbfbf" stroke="black" points="2305,-132 2305,-162 2459,-162 2459,-132 2305,-132"/>
<text text-anchor="start" x="2313" y="-150" font-family="Helvetica,sans-Serif" font-size="10.00">gko::matrix::Csr&lt; ValueType,</text>
<text text-anchor="middle" x="2382" y="-139" font-family="Helvetica,sans-Serif" font-size="10.00"> IndexType &gt;</text>
</g>
<!-- Node2 -->
<g id="node2" class="node"><title>Node2</title>
<g id="a_node2"><a xlink:href="classgko_1_1EnableLinOp.html" target="_top" xlink:title="gko::EnableLinOp\&lt; Csr\l\&lt; ValueType, IndexType \&gt; \&gt;">
<polygon fill="white" stroke="black" points="2104.5,-283 2104.5,-313 2254.5,-313 2254.5,-283 2104.5,-283"/>
<text text-anchor="start" x="2112.5" y="-301" font-family="Helvetica,sans-Serif" font-size="10.00">gko::EnableLinOp&lt; Csr</text>
<text text-anchor="middle" x="2179.5" y="-290" font-family="Helvetica,sans-Serif" font-size="10.00">&lt; ValueType, IndexType &gt; &gt;</text>
</a>
</g>
</g>
<!-- Node2&#45;&gt;Node1 -->
<g id="edge1" class="edge"><title>Node2&#45;&gt;Node1</title>
<path fill="none" stroke="midnightblue" d="M2232.34,-279.037C2250.5,-271.162 2270.46,-261.027 2287,-249 2321.86,-223.65 2353.93,-183.882 2370.07,-162.252"/>
<polygon fill="midnightblue" stroke="midnightblue" points="2230.91,-275.845 2223.04,-282.947 2233.62,-282.298 2230.91,-275.845"/>
</g>
<!-- Node3 -->
<g id="node3" class="node"><title>Node3</title>
<g id="a_node3"><a xlink:href="classgko_1_1EnablePolymorphicObject.html" target="_top" xlink:title="gko::EnablePolymorphicObject\l\&lt; Csr\&lt; ValueType, IndexType\l \&gt;, LinOp \&gt;">
<polygon fill="white" stroke="black" points="1730,-429.5 1730,-470.5 1891,-470.5 1891,-429.5 1730,-429.5"/>
<text text-anchor="start" x="1738" y="-458.5" font-family="Helvetica,sans-Serif" font-size="10.00">gko::EnablePolymorphicObject</text>
<text text-anchor="start" x="1738" y="-447.5" font-family="Helvetica,sans-Serif" font-size="10.00">&lt; Csr&lt; ValueType, IndexType</text>
<text text-anchor="middle" x="1810.5" y="-436.5" font-family="Helvetica,sans-Serif" font-size="10.00"> &gt;, LinOp &gt;</text>
</a>
</g>
</g>
<!-- Node3&#45;&gt;Node2 -->
<g id="edge2" class="edge"><title>Node3&#45;&gt;Node2</title>
<path fill="none" stroke="midnightblue" d="M1870.91,-425.396C1947.58,-393.641 2078.63,-339.361 2142.03,-313.105"/>
<polygon fill="midnightblue" stroke="midnightblue" points="1869.28,-422.282 1861.38,-429.342 1871.96,-428.75 1869.28,-422.282"/>
</g>
<!-- Node4 -->
<g id="node4" class="node"><title>Node4</title>
<g id="a_node4"><a xlink:href="classgko_1_1EnableAbstractPolymorphicObject.html" target="_top" xlink:title="gko::EnableAbstractPolymorphic\lObject\&lt; Csr\&lt; ValueType, IndexType\l \&gt;, LinOp \&gt;">
<polygon fill="white" stroke="black" points="1322.5,-490.5 1322.5,-531.5 1507.5,-531.5 1507.5,-490.5 1322.5,-490.5"/>
<text text-anchor="start" x="1330.5" y="-519.5" font-family="Helvetica,sans-Serif" font-size="10.00">gko::EnableAbstractPolymorphic</text>
<text text-anchor="start" x="1330.5" y="-508.5" font-family="Helvetica,sans-Serif" font-size="10.00">Object&lt; Csr&lt; ValueType, IndexType</text>
<text text-anchor="middle" x="1415" y="-497.5" font-family="Helvetica,sans-Serif" font-size="10.00"> &gt;, LinOp &gt;</text>
</a>
</g>
</g>
<!-- Node4&#45;&gt;Node3 -->
<g id="edge3" class="edge"><title>Node4&#45;&gt;Node3</title>
<path fill="none" stroke="midnightblue" d="M1517.79,-495.221C1583.88,-484.976 1668.77,-471.815 1729.92,-462.336"/>
<polygon fill="midnightblue" stroke="midnightblue" points="1517.11,-491.785 1507.76,-496.775 1518.18,-498.702 1517.11,-491.785"/>
</g>
<!-- Node5 -->
<g id="node5" class="node"><title>Node5</title>
<g id="a_node5"><a xlink:href="classgko_1_1LinOp.html" target="_top" xlink:title="The linear operator (LinOp) is a base class for all linear algebra objects in Ginkgo. ">
<polygon fill="white" stroke="black" points="981.5,-533.5 981.5,-552.5 1048.5,-552.5 1048.5,-533.5 981.5,-533.5"/>
<text text-anchor="middle" x="1015" y="-540.5" font-family="Helvetica,sans-Serif" font-size="10.00">gko::LinOp</text>
</a>
</g>
</g>
<!-- Node5&#45;&gt;Node4 -->
<g id="edge4" class="edge"><title>Node5&#45;&gt;Node4</title>
<path fill="none" stroke="midnightblue" d="M1058.86,-539.554C1121.47,-534.52 1239.46,-525.033 1322.2,-518.381"/>
<polygon fill="midnightblue" stroke="midnightblue" points="1058.26,-536.091 1048.57,-540.381 1058.82,-543.069 1058.26,-536.091"/>
</g>
<!-- Node6 -->
<g id="node6" class="node"><title>Node6</title>
<g id="a_node6"><a xlink:href="classgko_1_1EnableAbstractPolymorphicObject.html" target="_top" xlink:title="gko::EnableAbstractPolymorphic\lObject\&lt; LinOp \&gt;">
<polygon fill="white" stroke="red" points="530,-532 530,-562 701,-562 701,-532 530,-532"/>
<text text-anchor="start" x="538" y="-550" font-family="Helvetica,sans-Serif" font-size="10.00">gko::EnableAbstractPolymorphic</text>
<text text-anchor="middle" x="615.5" y="-539" font-family="Helvetica,sans-Serif" font-size="10.00">Object&lt; LinOp &gt;</text>
</a>
</g>
</g>
<!-- Node6&#45;&gt;Node5 -->
<g id="edge5" class="edge"><title>Node6&#45;&gt;Node5</title>
<path fill="none" stroke="midnightblue" d="M711.451,-546.045C798.54,-545.168 922.594,-543.92 981.08,-543.331"/>
<polygon fill="midnightblue" stroke="midnightblue" points="711.25,-542.546 701.286,-546.147 711.321,-549.546 711.25,-542.546"/>
</g>
<!-- Node7 -->
<g id="node7" class="node"><title>Node7</title>
<g id="a_node7"><a xlink:href="classgko_1_1EnableAbstractPolymorphicObject.html" target="_top" xlink:title="This mixin inherits from (a subclass of) PolymorphicObject and provides a base implementation of a ne...">
<polygon fill="white" stroke="black" points="136,-461.5 136,-502.5 327,-502.5 327,-461.5 136,-461.5"/>
<text text-anchor="start" x="144" y="-490.5" font-family="Helvetica,sans-Serif" font-size="10.00">gko::EnableAbstractPolymorphic</text>
<text text-anchor="start" x="144" y="-479.5" font-family="Helvetica,sans-Serif" font-size="10.00">Object&lt; AbstactObject, Polymorphic</text>
<text text-anchor="middle" x="231.5" y="-468.5" font-family="Helvetica,sans-Serif" font-size="10.00">Base &gt;</text>
</a>
</g>
</g>
<!-- Node7&#45;&gt;Node4 -->
<g id="edge8" class="edge"><title>Node7&#45;&gt;Node4</title>
<path fill="none" stroke="orange" stroke-dasharray="5,2" d="M337.214,-488.66C339.835,-488.78 342.434,-488.894 345,-489 706.668,-503.967 1137.61,-508.897 1322.44,-510.397"/>
<polygon fill="orange" stroke="orange" points="337.17,-485.154 327.013,-488.167 336.832,-492.146 337.17,-485.154"/>
<text text-anchor="start" x="743" y="-518" font-family="Helvetica,sans-Serif" font-size="10.00"> &lt; Csr&lt; ValueType, IndexType</text>
<text text-anchor="middle" x="814" y="-507" font-family="Helvetica,sans-Serif" font-size="10.00"> &gt;, LinOp &gt;</text>
</g>
<!-- Node7&#45;&gt;Node6 -->
<g id="edge6" class="edge"><title>Node7&#45;&gt;Node6</title>
<path fill="none" stroke="orange" stroke-dasharray="5,2" d="M301.024,-505.594C315.419,-509.907 330.604,-513.988 345,-517 406.171,-529.798 476.369,-537.39 529.783,-541.734"/>
<polygon fill="orange" stroke="orange" points="301.791,-502.169 291.205,-502.582 299.739,-508.861 301.791,-502.169"/>
<text text-anchor="middle" x="422" y="-541" font-family="Helvetica,sans-Serif" font-size="10.00"> &lt; LinOp &gt;</text>
</g>
<!-- Node10 -->
<g id="node10" class="node"><title>Node10</title>
<g id="a_node10"><a xlink:href="classgko_1_1EnableAbstractPolymorphicObject.html" target="_top" xlink:title="gko::EnableAbstractPolymorphic\lObject\&lt; ConcreteObject, Polymorphic\lBase \&gt;">
<polygon fill="white" stroke="black" points="517,-425.5 517,-466.5 714,-466.5 714,-425.5 517,-425.5"/>
<text text-anchor="start" x="525" y="-454.5" font-family="Helvetica,sans-Serif" font-size="10.00">gko::EnableAbstractPolymorphic</text>
<text text-anchor="start" x="525" y="-443.5" font-family="Helvetica,sans-Serif" font-size="10.00">Object&lt; ConcreteObject, Polymorphic</text>
<text text-anchor="middle" x="615.5" y="-432.5" font-family="Helvetica,sans-Serif" font-size="10.00">Base &gt;</text>
</a>
</g>
</g>
<!-- Node7&#45;&gt;Node10 -->
<g id="edge12" class="edge"><title>Node7&#45;&gt;Node10</title>
<path fill="none" stroke="orange" stroke-dasharray="5,2" d="M337.33,-467.833C339.911,-467.545 342.471,-467.267 345,-467 401.822,-461.003 465.552,-455.96 516.768,-452.32"/>
<polygon fill="orange" stroke="orange" points="336.823,-464.368 327.287,-468.984 337.621,-471.322 336.823,-464.368"/>
<text text-anchor="start" x="345" y="-481" font-family="Helvetica,sans-Serif" font-size="10.00"> &lt; ConcreteObject, Polymorphic</text>
<text text-anchor="middle" x="422" y="-470" font-family="Helvetica,sans-Serif" font-size="10.00">Base &gt;</text>
</g>
<!-- Node17 -->
<g id="node17" class="node"><title>Node17</title>
<g id="a_node17"><a xlink:href="classgko_1_1EnableAbstractPolymorphicObject.html" target="_top" xlink:title="gko::EnableAbstractPolymorphic\lObject\&lt; ConcreteLinOp, Polymorphic\lBase \&gt;">
<polygon fill="white" stroke="black" points="518.5,-359.5 518.5,-400.5 712.5,-400.5 712.5,-359.5 518.5,-359.5"/>
<text text-anchor="start" x="526.5" y="-388.5" font-family="Helvetica,sans-Serif" font-size="10.00">gko::EnableAbstractPolymorphic</text>
<text text-anchor="start" x="526.5" y="-377.5" font-family="Helvetica,sans-Serif" font-size="10.00">Object&lt; ConcreteLinOp, Polymorphic</text>
<text text-anchor="middle" x="615.5" y="-366.5" font-family="Helvetica,sans-Serif" font-size="10.00">Base &gt;</text>
</a>
</g>
</g>
<!-- Node7&#45;&gt;Node17 -->
<g id="edge22" class="edge"><title>Node7&#45;&gt;Node17</title>
<path fill="none" stroke="orange" stroke-dasharray="5,2" d="M276.861,-456.709C297.09,-446.131 321.687,-434.563 345,-427 401.132,-408.791 466.262,-397.186 518.432,-390.064"/>
<polygon fill="orange" stroke="orange" points="275.077,-453.694 267.894,-461.482 278.366,-459.873 275.077,-453.694"/>
<text text-anchor="start" x="347" y="-441" font-family="Helvetica,sans-Serif" font-size="10.00"> &lt; ConcreteLinOp, Polymorphic</text>
<text text-anchor="middle" x="422" y="-430" font-family="Helvetica,sans-Serif" font-size="10.00">Base &gt;</text>
</g>
<!-- Node8 -->
<g id="node8" class="node"><title>Node8</title>
<polygon fill="white" stroke="#bfbfbf" points="0,-423.5 0,-442.5 99,-442.5 99,-423.5 0,-423.5"/>
<text text-anchor="middle" x="49.5" y="-430.5" font-family="Helvetica,sans-Serif" font-size="10.00">PolymorphicBase</text>
</g>
<!-- Node8&#45;&gt;Node7 -->
<g id="edge7" class="edge"><title>Node8&#45;&gt;Node7</title>
<path fill="none" stroke="midnightblue" d="M95.5298,-445.258C113.493,-450.148 134.673,-455.914 154.864,-461.41"/>
<polygon fill="midnightblue" stroke="midnightblue" points="96.2013,-441.814 85.6331,-442.564 94.3626,-448.568 96.2013,-441.814"/>
</g>
<!-- Node8&#45;&gt;Node10 -->
<g id="edge11" class="edge"><title>Node8&#45;&gt;Node10</title>
<path fill="none" stroke="midnightblue" d="M109.242,-434.354C205.855,-436.581 399.276,-441.039 516.774,-443.747"/>
<polygon fill="midnightblue" stroke="midnightblue" points="109.152,-430.851 99.0745,-434.12 108.991,-437.849 109.152,-430.851"/>
</g>
<!-- Node8&#45;&gt;Node17 -->
<g id="edge21" class="edge"><title>Node8&#45;&gt;Node17</title>
<path fill="none" stroke="midnightblue" d="M108.955,-422.564C168.22,-412.433 262.672,-397.516 345,-390 402.351,-384.764 466.805,-382.251 518.297,-381.053"/>
<polygon fill="midnightblue" stroke="midnightblue" points="108.293,-419.127 99.0317,-424.272 109.481,-426.025 108.293,-419.127"/>
</g>
<!-- Node9 -->
<g id="node9" class="node"><title>Node9</title>
<g id="a_node9"><a xlink:href="classgko_1_1EnablePolymorphicObject.html" target="_top" xlink:title="This mixin inherits from (a subclass of) PolymorphicObject and provides a base implementation of a ne...">
<polygon fill="white" stroke="black" points="914,-431 914,-461 1116,-461 1116,-431 914,-431"/>
<text text-anchor="start" x="922" y="-449" font-family="Helvetica,sans-Serif" font-size="10.00">gko::EnablePolymorphicObject</text>
<text text-anchor="middle" x="1015" y="-438" font-family="Helvetica,sans-Serif" font-size="10.00">&lt; ConcreteObject, PolymorphicBase &gt;</text>
</a>
</g>
</g>
<!-- Node9&#45;&gt;Node3 -->
<g id="edge9" class="edge"><title>Node9&#45;&gt;Node3</title>
<path fill="none" stroke="orange" stroke-dasharray="5,2" d="M1126.58,-446.557C1288.75,-447.375 1587.24,-448.88 1729.73,-449.598"/>
<polygon fill="orange" stroke="orange" points="1126.11,-443.055 1116.1,-446.505 1126.08,-450.055 1126.11,-443.055"/>
<text text-anchor="start" x="1344" y="-462" font-family="Helvetica,sans-Serif" font-size="10.00"> &lt; Csr&lt; ValueType, IndexType</text>
<text text-anchor="middle" x="1415" y="-451" font-family="Helvetica,sans-Serif" font-size="10.00"> &gt;, LinOp &gt;</text>
</g>
<!-- Node16 -->
<g id="node16" class="node"><title>Node16</title>
<g id="a_node16"><a xlink:href="classgko_1_1EnablePolymorphicObject.html" target="_top" xlink:title="gko::EnablePolymorphicObject\l\&lt; ConcreteLinOp, PolymorphicBase \&gt;">
<polygon fill="white" stroke="black" points="1316,-365 1316,-395 1514,-395 1514,-365 1316,-365"/>
<text text-anchor="start" x="1324" y="-383" font-family="Helvetica,sans-Serif" font-size="10.00">gko::EnablePolymorphicObject</text>
<text text-anchor="middle" x="1415" y="-372" font-family="Helvetica,sans-Serif" font-size="10.00">&lt; ConcreteLinOp, PolymorphicBase &gt;</text>
</a>
</g>
</g>
<!-- Node9&#45;&gt;Node16 -->
<g id="edge23" class="edge"><title>Node9&#45;&gt;Node16</title>
<path fill="none" stroke="orange" stroke-dasharray="5,2" d="M1075.14,-428.172C1093.84,-423.02 1114.66,-417.776 1134,-414 1167.88,-407.384 1249.38,-397.742 1315.77,-390.414"/>
<polygon fill="orange" stroke="orange" points="1073.98,-424.864 1065.29,-430.931 1075.86,-431.604 1073.98,-424.864"/>
<text text-anchor="start" x="1141" y="-428" font-family="Helvetica,sans-Serif" font-size="10.00"> &lt; ConcreteLinOp, Polymorphic</text>
<text text-anchor="middle" x="1216" y="-417" font-family="Helvetica,sans-Serif" font-size="10.00">Base &gt;</text>
</g>
<!-- Node10&#45;&gt;Node9 -->
<g id="edge10" class="edge"><title>Node10&#45;&gt;Node9</title>
<path fill="none" stroke="midnightblue" d="M724.353,-446C783.395,-446 856.077,-446 913.862,-446"/>
<polygon fill="midnightblue" stroke="midnightblue" points="724.249,-442.5 714.249,-446 724.249,-449.5 724.249,-442.5"/>
</g>
<!-- Node11 -->
<g id="node11" class="node"><title>Node11</title>
<g id="a_node11"><a xlink:href="classgko_1_1EnablePolymorphicAssignment.html" target="_top" xlink:title="gko::EnablePolymorphicAssignment\l\&lt; Csr\&lt; ValueType, IndexType \&gt; \&gt;">
<polygon fill="white" stroke="black" points="1321,-261 1321,-291 1509,-291 1509,-261 1321,-261"/>
<text text-anchor="start" x="1329" y="-279" font-family="Helvetica,sans-Serif" font-size="10.00">gko::EnablePolymorphicAssignment</text>
<text text-anchor="middle" x="1415" y="-268" font-family="Helvetica,sans-Serif" font-size="10.00">&lt; Csr&lt; ValueType, IndexType &gt; &gt;</text>
</a>
</g>
</g>
<!-- Node11&#45;&gt;Node2 -->
<g id="edge13" class="edge"><title>Node11&#45;&gt;Node2</title>
<path fill="none" stroke="midnightblue" d="M1519.2,-278.977C1675.28,-283.481 1967.67,-291.917 2104.43,-295.863"/>
<polygon fill="midnightblue" stroke="midnightblue" points="1519.21,-275.477 1509.12,-278.687 1519.01,-282.474 1519.21,-275.477"/>
</g>
<!-- Node12 -->
<g id="node12" class="node"><title>Node12</title>
<g id="a_node12"><a xlink:href="classgko_1_1ConvertibleTo.html" target="_top" xlink:title="gko::ConvertibleTo\l\&lt; Csr\&lt; ValueType, IndexType \&gt; \&gt;">
<polygon fill="white" stroke="black" points="926.5,-223 926.5,-253 1103.5,-253 1103.5,-223 926.5,-223"/>
<text text-anchor="start" x="934.5" y="-241" font-family="Helvetica,sans-Serif" font-size="10.00">gko::ConvertibleTo</text>
<text text-anchor="middle" x="1015" y="-230" font-family="Helvetica,sans-Serif" font-size="10.00">&lt; Csr&lt; ValueType, IndexType &gt; &gt;</text>
</a>
</g>
</g>
<!-- Node12&#45;&gt;Node11 -->
<g id="edge14" class="edge"><title>Node12&#45;&gt;Node11</title>
<path fill="none" stroke="midnightblue" d="M1113.81,-247.338C1176.96,-253.368 1258.63,-261.166 1320.84,-267.106"/>
<polygon fill="midnightblue" stroke="midnightblue" points="1114.12,-243.853 1103.84,-246.386 1113.46,-250.821 1114.12,-243.853"/>
</g>
<!-- Node13 -->
<g id="node13" class="node"><title>Node13</title>
<g id="a_node13"><a xlink:href="classgko_1_1ConvertibleTo.html" target="_top" xlink:title="ConvertibleTo interface is used to mark that the implementer can be converted to the object of Result...">
<polygon fill="white" stroke="black" points="563.5,-223 563.5,-253 667.5,-253 667.5,-223 563.5,-223"/>
<text text-anchor="start" x="571.5" y="-241" font-family="Helvetica,sans-Serif" font-size="10.00">gko::ConvertibleTo</text>
<text text-anchor="middle" x="615.5" y="-230" font-family="Helvetica,sans-Serif" font-size="10.00">&lt; ResultType &gt;</text>
</a>
</g>
</g>
<!-- Node13&#45;&gt;Node12 -->
<g id="edge15" class="edge"><title>Node13&#45;&gt;Node12</title>
<path fill="none" stroke="orange" stroke-dasharray="5,2" d="M677.969,-238C744.462,-238 851.036,-238 926.309,-238"/>
<polygon fill="orange" stroke="orange" points="677.652,-234.5 667.652,-238 677.652,-241.5 677.652,-234.5"/>
<text text-anchor="middle" x="814" y="-241" font-family="Helvetica,sans-Serif" font-size="10.00"> &lt; Csr&lt; ValueType, IndexType &gt; &gt;</text>
</g>
<!-- Node14 -->
<g id="node14" class="node"><title>Node14</title>
<g id="a_node14"><a xlink:href="classgko_1_1EnablePolymorphicAssignment.html" target="_top" xlink:title="This mixin is used to enable a default PolymorphicObject::copy_from() implementation for objects that...">
<polygon fill="white" stroke="black" points="921,-272 921,-302 1109,-302 1109,-272 921,-272"/>
<text text-anchor="start" x="929" y="-290" font-family="Helvetica,sans-Serif" font-size="10.00">gko::EnablePolymorphicAssignment</text>
<text text-anchor="middle" x="1015" y="-279" font-family="Helvetica,sans-Serif" font-size="10.00">&lt; ConcreteType, ResultType &gt;</text>
</a>
</g>
</g>
<!-- Node13&#45;&gt;Node14 -->
<g id="edge17" class="edge"><title>Node13&#45;&gt;Node14</title>
<path fill="none" stroke="midnightblue" d="M677.763,-246.062C695.277,-248.339 714.389,-250.795 732,-253 794.998,-260.888 865.958,-269.442 920.936,-275.997"/>
<polygon fill="midnightblue" stroke="midnightblue" points="678.028,-242.567 667.659,-244.746 677.123,-249.509 678.028,-242.567"/>
</g>
<!-- Node19 -->
<g id="node19" class="node"><title>Node19</title>
<g id="a_node19"><a xlink:href="classgko_1_1ConvertibleTo.html" target="_top" xlink:title="gko::ConvertibleTo\l\&lt; ConcreteLinOp \&gt;">
<polygon fill="white" stroke="black" points="960,-321 960,-351 1070,-351 1070,-321 960,-321"/>
<text text-anchor="start" x="968" y="-339" font-family="Helvetica,sans-Serif" font-size="10.00">gko::ConvertibleTo</text>
<text text-anchor="middle" x="1015" y="-328" font-family="Helvetica,sans-Serif" font-size="10.00">&lt; ConcreteLinOp &gt;</text>
</a>
</g>
</g>
<!-- Node13&#45;&gt;Node19 -->
<g id="edge26" class="edge"><title>Node13&#45;&gt;Node19</title>
<path fill="none" stroke="orange" stroke-dasharray="5,2" d="M666.622,-256.379C686.773,-263.385 710.327,-271.096 732,-277 810.302,-298.329 902.626,-316.322 959.745,-326.639"/>
<polygon fill="orange" stroke="orange" points="667.621,-253.02 657.027,-253.007 665.301,-259.624 667.621,-253.02"/>
<text text-anchor="middle" x="814" y="-317" font-family="Helvetica,sans-Serif" font-size="10.00"> &lt; ConcreteLinOp &gt;</text>
</g>
<!-- Node22 -->
<g id="node22" class="node"><title>Node22</title>
<g id="a_node22"><a xlink:href="classgko_1_1ConvertibleTo.html" target="_top" xlink:title="gko::ConvertibleTo\l\&lt; Dense\&lt; ValueType \&gt; \&gt;">
<polygon fill="white" stroke="black" points="1146,-132 1146,-162 1286,-162 1286,-132 1146,-132"/>
<text text-anchor="start" x="1154" y="-150" font-family="Helvetica,sans-Serif" font-size="10.00">gko::ConvertibleTo</text>
<text text-anchor="middle" x="1216" y="-139" font-family="Helvetica,sans-Serif" font-size="10.00">&lt; Dense&lt; ValueType &gt; &gt;</text>
</a>
</g>
</g>
<!-- Node13&#45;&gt;Node22 -->
<g id="edge31" class="edge"><title>Node13&#45;&gt;Node22</title>
<path fill="none" stroke="orange" stroke-dasharray="5,2" d="M642.656,-216.834C664.937,-200.171 698.571,-178.127 732,-168 873.98,-124.988 1050.15,-131.359 1145.61,-139.425"/>
<polygon fill="orange" stroke="orange" points="640.514,-214.066 634.697,-222.921 644.766,-219.627 640.514,-214.066"/>
<text text-anchor="middle" x="814" y="-171" font-family="Helvetica,sans-Serif" font-size="10.00"> &lt; Dense&lt; ValueType &gt; &gt;</text>
</g>
<!-- Node23 -->
<g id="node23" class="node"><title>Node23</title>
<g id="a_node23"><a xlink:href="classgko_1_1ConvertibleTo.html" target="_top" xlink:title="gko::ConvertibleTo\l\&lt; Coo\&lt; ValueType, IndexType \&gt; \&gt;">
<polygon fill="white" stroke="black" points="1532,-199 1532,-229 1712,-229 1712,-199 1532,-199"/>
<text text-anchor="start" x="1540" y="-217" font-family="Helvetica,sans-Serif" font-size="10.00">gko::ConvertibleTo</text>
<text text-anchor="middle" x="1622" y="-206" font-family="Helvetica,sans-Serif" font-size="10.00">&lt; Coo&lt; ValueType, IndexType &gt; &gt;</text>
</a>
</g>
</g>
<!-- Node13&#45;&gt;Node23 -->
<g id="edge33" class="edge"><title>Node13&#45;&gt;Node23</title>
<path fill="none" stroke="orange" stroke-dasharray="5,2" d="M677.722,-228.404C737.732,-219.517 831.894,-206.95 914,-202 1135.95,-188.62 1397.74,-200.18 1531.9,-208.087"/>
<polygon fill="orange" stroke="orange" points="677.032,-224.969 667.658,-229.908 678.066,-231.892 677.032,-224.969"/>
<text text-anchor="middle" x="1015" y="-205" font-family="Helvetica,sans-Serif" font-size="10.00"> &lt; Coo&lt; ValueType, IndexType &gt; &gt;</text>
</g>
<!-- Node14&#45;&gt;Node11 -->
<g id="edge16" class="edge"><title>Node14&#45;&gt;Node11</title>
<path fill="none" stroke="orange" stroke-dasharray="5,2" d="M1119.29,-277.762C1124.26,-277.47 1129.18,-277.212 1134,-277 1196.28,-274.254 1266.44,-274.009 1320.94,-274.447"/>
<polygon fill="orange" stroke="orange" points="1118.79,-274.286 1109.03,-278.408 1119.23,-281.272 1118.79,-274.286"/>
<text text-anchor="middle" x="1216" y="-280" font-family="Helvetica,sans-Serif" font-size="10.00"> &lt; Csr&lt; ValueType, IndexType &gt; &gt;</text>
</g>
<!-- Node18 -->
<g id="node18" class="node"><title>Node18</title>
<g id="a_node18"><a xlink:href="classgko_1_1EnablePolymorphicAssignment.html" target="_top" xlink:title="gko::EnablePolymorphicAssignment\l\&lt; ConcreteLinOp \&gt;">
<polygon fill="white" stroke="black" points="1321,-313 1321,-343 1509,-343 1509,-313 1321,-313"/>
<text text-anchor="start" x="1329" y="-331" font-family="Helvetica,sans-Serif" font-size="10.00">gko::EnablePolymorphicAssignment</text>
<text text-anchor="middle" x="1415" y="-320" font-family="Helvetica,sans-Serif" font-size="10.00">&lt; ConcreteLinOp &gt;</text>
</a>
</g>
</g>
<!-- Node14&#45;&gt;Node18 -->
<g id="edge27" class="edge"><title>Node14&#45;&gt;Node18</title>
<path fill="none" stroke="orange" stroke-dasharray="5,2" d="M1119.19,-297.597C1172.57,-303.082 1238.78,-309.892 1298,-316 1305.45,-316.769 1313.17,-317.566 1320.93,-318.367"/>
<polygon fill="orange" stroke="orange" points="1119.34,-294.094 1109.04,-296.554 1118.63,-301.058 1119.34,-294.094"/>
<text text-anchor="middle" x="1216" y="-319" font-family="Helvetica,sans-Serif" font-size="10.00"> &lt; ConcreteLinOp &gt;</text>
</g>
<!-- Node15 -->
<g id="node15" class="node"><title>Node15</title>
<g id="a_node15"><a xlink:href="classgko_1_1EnableLinOp.html" target="_top" xlink:title="The EnableLinOp mixin can be used to provide sensible default implementations of the majority of the ...">
<polygon fill="white" stroke="black" points="1733.5,-313 1733.5,-343 1887.5,-343 1887.5,-313 1733.5,-313"/>
<text text-anchor="start" x="1741.5" y="-331" font-family="Helvetica,sans-Serif" font-size="10.00">gko::EnableLinOp&lt; Concrete</text>
<text text-anchor="middle" x="1810.5" y="-320" font-family="Helvetica,sans-Serif" font-size="10.00">LinOp, PolymorphicBase &gt;</text>
</a>
</g>
</g>
<!-- Node15&#45;&gt;Node2 -->
<g id="edge18" class="edge"><title>Node15&#45;&gt;Node2</title>
<path fill="none" stroke="orange" stroke-dasharray="5,2" d="M1897.82,-320.944C1960.6,-315.812 2044.7,-308.937 2104.44,-304.054"/>
<polygon fill="orange" stroke="orange" points="1897.22,-317.481 1887.54,-321.784 1897.79,-324.458 1897.22,-317.481"/>
<text text-anchor="middle" x="1991" y="-323" font-family="Helvetica,sans-Serif" font-size="10.00"> &lt; Csr&lt; ValueType, IndexType &gt; &gt;</text>
</g>
<!-- Node16&#45;&gt;Node15 -->
<g id="edge19" class="edge"><title>Node16&#45;&gt;Node15</title>
<path fill="none" stroke="midnightblue" d="M1524,-366.529C1580.1,-359.431 1649.77,-350.462 1712,-342 1718.95,-341.055 1726.17,-340.054 1733.4,-339.039"/>
<polygon fill="midnightblue" stroke="midnightblue" points="1523.52,-363.061 1514.04,-367.787 1524.4,-370.005 1523.52,-363.061"/>
</g>
<!-- Node17&#45;&gt;Node16 -->
<g id="edge20" class="edge"><title>Node17&#45;&gt;Node16</title>
<path fill="none" stroke="midnightblue" d="M722.74,-380C878.136,-380 1165.26,-380 1315.9,-380"/>
<polygon fill="midnightblue" stroke="midnightblue" points="722.697,-376.5 712.697,-380 722.697,-383.5 722.697,-376.5"/>
</g>
<!-- Node18&#45;&gt;Node15 -->
<g id="edge24" class="edge"><title>Node18&#45;&gt;Node15</title>
<path fill="none" stroke="midnightblue" d="M1519.44,-328C1586.56,-328 1672.53,-328 1733.41,-328"/>
<polygon fill="midnightblue" stroke="midnightblue" points="1519.25,-324.5 1509.25,-328 1519.25,-331.5 1519.25,-324.5"/>
</g>
<!-- Node19&#45;&gt;Node18 -->
<g id="edge25" class="edge"><title>Node19&#45;&gt;Node18</title>
<path fill="none" stroke="midnightblue" d="M1080.22,-334.709C1145.31,-333.401 1246.71,-331.363 1320.67,-329.876"/>
<polygon fill="midnightblue" stroke="midnightblue" points="1080.02,-331.212 1070.09,-334.913 1080.16,-338.211 1080.02,-331.212"/>
</g>
<!-- Node20 -->
<g id="node20" class="node"><title>Node20</title>
<g id="a_node20"><a xlink:href="classgko_1_1EnableCreateMethod.html" target="_top" xlink:title="gko::EnableCreateMethod\l\&lt; Csr\&lt; ValueType, IndexType \&gt; \&gt;">
<polygon fill="white" stroke="black" points="2091,-176 2091,-206 2268,-206 2268,-176 2091,-176"/>
<text text-anchor="start" x="2099" y="-194" font-family="Helvetica,sans-Serif" font-size="10.00">gko::EnableCreateMethod</text>
<text text-anchor="middle" x="2179.5" y="-183" font-family="Helvetica,sans-Serif" font-size="10.00">&lt; Csr&lt; ValueType, IndexType &gt; &gt;</text>
</a>
</g>
</g>
<!-- Node20&#45;&gt;Node1 -->
<g id="edge28" class="edge"><title>Node20&#45;&gt;Node1</title>
<path fill="none" stroke="midnightblue" d="M2259.19,-173.732C2276.81,-169.865 2295.36,-165.793 2312.53,-162.026"/>
<polygon fill="midnightblue" stroke="midnightblue" points="2257.96,-170.419 2248.94,-175.981 2259.46,-177.256 2257.96,-170.419"/>
</g>
<!-- Node21 -->
<g id="node21" class="node"><title>Node21</title>
<g id="a_node21"><a xlink:href="classgko_1_1EnableCreateMethod.html" target="_top" xlink:title="This mixin implements a static create() method on ConcreteType that dynamically allocates the memory...">
<polygon fill="white" stroke="black" points="1740.5,-176 1740.5,-206 1880.5,-206 1880.5,-176 1740.5,-176"/>
<text text-anchor="start" x="1748.5" y="-194" font-family="Helvetica,sans-Serif" font-size="10.00">gko::EnableCreateMethod</text>
<text text-anchor="middle" x="1810.5" y="-183" font-family="Helvetica,sans-Serif" font-size="10.00">&lt; ConcreteType &gt;</text>
</a>
</g>
</g>
<!-- Node21&#45;&gt;Node20 -->
<g id="edge29" class="edge"><title>Node21&#45;&gt;Node20</title>
<path fill="none" stroke="orange" stroke-dasharray="5,2" d="M1890.54,-191C1949.51,-191 2030.06,-191 2090.97,-191"/>
<polygon fill="orange" stroke="orange" points="1890.53,-187.5 1880.53,-191 1890.53,-194.5 1890.53,-187.5"/>
<text text-anchor="middle" x="1991" y="-194" font-family="Helvetica,sans-Serif" font-size="10.00"> &lt; Csr&lt; ValueType, IndexType &gt; &gt;</text>
</g>
<!-- Node22&#45;&gt;Node1 -->
<g id="edge30" class="edge"><title>Node22&#45;&gt;Node1</title>
<path fill="none" stroke="midnightblue" d="M1296.52,-147C1378,-147 1508.34,-147 1621,-147 1621,-147 1621,-147 2180.5,-147 2221.57,-147 2267.38,-147 2304.83,-147"/>
<polygon fill="midnightblue" stroke="midnightblue" points="1296.34,-143.5 1286.34,-147 1296.34,-150.5 1296.34,-143.5"/>
</g>
<!-- Node23&#45;&gt;Node1 -->
<g id="edge32" class="edge"><title>Node23&#45;&gt;Node1</title>
<path fill="none" stroke="midnightblue" d="M1722.35,-230.425C1850.95,-248.034 2080.75,-266.998 2268,-215 2304.84,-204.769 2341.7,-178.949 2362.88,-162.232"/>
<polygon fill="midnightblue" stroke="midnightblue" points="1722.51,-226.915 1712.13,-228.999 1721.55,-233.848 1722.51,-226.915"/>
</g>
<!-- Node24 -->
<g id="node24" class="node"><title>Node24</title>
<g id="a_node24"><a xlink:href="classgko_1_1ReadableFromMatrixData.html" target="_top" xlink:title="A LinOp implementing this interface can read its data from a matrix_data structure. ">
<polygon fill="white" stroke="black" points="2099.5,-88 2099.5,-118 2259.5,-118 2259.5,-88 2099.5,-88"/>
<text text-anchor="start" x="2107.5" y="-106" font-family="Helvetica,sans-Serif" font-size="10.00">gko::ReadableFromMatrixData</text>
<text text-anchor="middle" x="2179.5" y="-95" font-family="Helvetica,sans-Serif" font-size="10.00">&lt; ValueType, IndexType &gt;</text>
</a>
</g>
</g>
<!-- Node24&#45;&gt;Node1 -->
<g id="edge34" class="edge"><title>Node24&#45;&gt;Node1</title>
<path fill="none" stroke="midnightblue" d="M2259.19,-120.268C2276.81,-124.135 2295.36,-128.207 2312.53,-131.974"/>
<polygon fill="midnightblue" stroke="midnightblue" points="2259.46,-116.744 2248.94,-118.019 2257.96,-123.581 2259.46,-116.744"/>
</g>
<!-- Node25 -->
<g id="node25" class="node"><title>Node25</title>
<g id="a_node25"><a xlink:href="classgko_1_1WritableToMatrixData.html" target="_top" xlink:title="A LinOp implementing this interface can write its data to a matrix_data structure. ">
<polygon fill="white" stroke="black" points="2109.5,-39 2109.5,-69 2249.5,-69 2249.5,-39 2109.5,-39"/>
<text text-anchor="start" x="2117.5" y="-57" font-family="Helvetica,sans-Serif" font-size="10.00">gko::WritableToMatrixData</text>
<text text-anchor="middle" x="2179.5" y="-46" font-family="Helvetica,sans-Serif" font-size="10.00">&lt; ValueType, IndexType &gt;</text>
</a>
</g>
</g>
<!-- Node25&#45;&gt;Node1 -->
<g id="edge35" class="edge"><title>Node25&#45;&gt;Node1</title>
<path fill="none" stroke="midnightblue" d="M2253.48,-72.3269C2258.45,-74.0907 2263.33,-75.9817 2268,-78 2302.18,-92.7732 2338.35,-116.48 2360.31,-131.898"/>
<polygon fill="midnightblue" stroke="midnightblue" points="2254.44,-68.9585 2243.85,-69.092 2252.21,-75.5941 2254.44,-68.9585"/>
</g>
<!-- Node26 -->
<g id="node26" class="node"><title>Node26</title>
<g id="a_node26"><a xlink:href="classgko_1_1Transposable.html" target="_top" xlink:title="Linear operators which support transposition should implement the Transposable interface. ">
<polygon fill="white" stroke="black" points="2128.5,-0.5 2128.5,-19.5 2230.5,-19.5 2230.5,-0.5 2128.5,-0.5"/>
<text text-anchor="middle" x="2179.5" y="-7.5" font-family="Helvetica,sans-Serif" font-size="10.00">gko::Transposable</text>
</a>
</g>
</g>
<!-- Node26&#45;&gt;Node1 -->
<g id="edge36" class="edge"><title>Node26&#45;&gt;Node1</title>
<path fill="none" stroke="midnightblue" d="M2240.78,-18.1358C2250.24,-20.7946 2259.64,-24.3216 2268,-29 2314.53,-55.0523 2353.66,-106.478 2371.17,-131.96"/>
<polygon fill="midnightblue" stroke="midnightblue" points="2241.5,-14.7064 2230.95,-15.6673 2239.79,-21.496 2241.5,-14.7064"/>
</g>
</g>
</svg>
