<?xml version="1.0" encoding="UTF-8" standalone="no"?>
<!DOCTYPE svg PUBLIC "-//W3C//DTD SVG 1.1//EN"
 "http://www.w3.org/Graphics/SVG/1.1/DTD/svg11.dtd">
<!-- Generated by graphviz version 2.40.1 (20161225.0304)
 -->
<!-- Title: gko::solver::Fcg&lt; ValueType &gt; Pages: 1 -->
<svg width="2165pt" height="348pt"
 viewBox="0.00 0.00 2165.00 348.00" xmlns="http://www.w3.org/2000/svg" xmlns:xlink="http://www.w3.org/1999/xlink">
<g id="graph0" class="graph" transform="scale(1 1) rotate(0) translate(4 344)">
<title>gko::solver::Fcg&lt; ValueType &gt;</title>
<polygon fill="#ffffff" stroke="transparent" points="-4,4 -4,-344 2161,-344 2161,4 -4,4"/>
<!-- Node0 -->
<g id="node1" class="node">
<title>Node0</title>
<polygon fill="#bfbfbf" stroke="#000000" points="1992,-96 1992,-115 2157,-115 2157,-96 1992,-96"/>
<text text-anchor="middle" x="2074.5" y="-103" font-family="Helvetica,sans-Serif" font-size="10.00" fill="#000000">gko::solver::Fcg&lt; ValueType &gt;</text>
</g>
<!-- Node1 -->
<g id="node2" class="node">
<title>Node1</title>
<g id="a_node2"><a xlink:href="classgko_1_1EnableLinOp.html" target="_top" xlink:title="gko::EnableLinOp\&lt; Fcg\l\&lt; ValueType \&gt; \&gt;">
<polygon fill="#ffffff" stroke="#000000" points="1826,-122.5 1826,-152.5 1955,-152.5 1955,-122.5 1826,-122.5"/>
<text text-anchor="start" x="1834" y="-140.5" font-family="Helvetica,sans-Serif" font-size="10.00" fill="#000000">gko::EnableLinOp&lt; Fcg</text>
<text text-anchor="middle" x="1890.5" y="-129.5" font-family="Helvetica,sans-Serif" font-size="10.00" fill="#000000">&lt; ValueType &gt; &gt;</text>
</a>
</g>
</g>
<!-- Node1&#45;&gt;Node0 -->
<g id="edge1" class="edge">
<title>Node1&#45;&gt;Node0</title>
<path fill="none" stroke="#191970" d="M1965.1508,-124.5173C1983.4294,-121.3384 2002.6561,-117.9946 2019.8018,-115.0127"/>
<polygon fill="#191970" stroke="#191970" points="1964.3652,-121.1013 1955.1128,-126.263 1965.5646,-127.9977 1964.3652,-121.1013"/>
</g>
<!-- Node2 -->
<g id="node3" class="node">
<title>Node2</title>
<g id="a_node3"><a xlink:href="classgko_1_1EnablePolymorphicObject.html" target="_top" xlink:title="gko::EnablePolymorphicObject\l\&lt; Fcg\&lt; ValueType \&gt;, LinOp \&gt;">
<polygon fill="#ffffff" stroke="#000000" points="1509,-212.5 1509,-242.5 1675,-242.5 1675,-212.5 1509,-212.5"/>
<text text-anchor="start" x="1517" y="-230.5" font-family="Helvetica,sans-Serif" font-size="10.00" fill="#000000">gko::EnablePolymorphicObject</text>
<text text-anchor="middle" x="1592" y="-219.5" font-family="Helvetica,sans-Serif" font-size="10.00" fill="#000000">&lt; Fcg&lt; ValueType &gt;, LinOp &gt;</text>
</a>
</g>
</g>
<!-- Node2&#45;&gt;Node1 -->
<g id="edge2" class="edge">
<title>Node2&#45;&gt;Node1</title>
<path fill="none" stroke="#191970" d="M1651.6312,-209.5208C1706.9429,-192.8438 1788.333,-168.3041 1840.3748,-152.6131"/>
<polygon fill="#191970" stroke="#191970" points="1650.5261,-206.1982 1641.9622,-212.436 1652.5469,-212.9002 1650.5261,-206.1982"/>
</g>
<!-- Node3 -->
<g id="node4" class="node">
<title>Node3</title>
<g id="a_node4"><a xlink:href="classgko_1_1EnableAbstractPolymorphicObject.html" target="_top" xlink:title="gko::EnableAbstractPolymorphic\lObject\&lt; Fcg\&lt; ValueType \&gt;,\l LinOp \&gt;">
<polygon fill="#ffffff" stroke="#000000" points="1284,-268 1284,-309 1459,-309 1459,-268 1284,-268"/>
<text text-anchor="start" x="1292" y="-297" font-family="Helvetica,sans-Serif" font-size="10.00" fill="#000000">gko::EnableAbstractPolymorphic</text>
<text text-anchor="start" x="1292" y="-286" font-family="Helvetica,sans-Serif" font-size="10.00" fill="#000000">Object&lt; Fcg&lt; ValueType &gt;,</text>
<text text-anchor="middle" x="1371.5" y="-275" font-family="Helvetica,sans-Serif" font-size="10.00" fill="#000000"> LinOp &gt;</text>
</a>
</g>
</g>
<!-- Node3&#45;&gt;Node2 -->
<g id="edge3" class="edge">
<title>Node3&#45;&gt;Node2</title>
<path fill="none" stroke="#191970" d="M1455.8191,-265.1736C1483.2095,-257.5962 1512.8637,-249.3926 1537.4855,-242.5811"/>
<polygon fill="#191970" stroke="#191970" points="1454.5486,-261.8936 1445.8438,-267.9332 1456.4151,-268.6402 1454.5486,-261.8936"/>
</g>
<!-- Node4 -->
<g id="node5" class="node">
<title>Node4</title>
<g id="a_node5"><a xlink:href="classgko_1_1LinOp.html" target="_top" xlink:title="The linear operator (LinOp) is a base class for all linear algebra objects in Ginkgo. ">
<polygon fill="#ffffff" stroke="#000000" points="945.5,-312 945.5,-331 1013.5,-331 1013.5,-312 945.5,-312"/>
<text text-anchor="middle" x="979.5" y="-319" font-family="Helvetica,sans-Serif" font-size="10.00" fill="#000000">gko::LinOp</text>
</a>
</g>
</g>
<!-- Node4&#45;&gt;Node3 -->
<g id="edge4" class="edge">
<title>Node4&#45;&gt;Node3</title>
<path fill="none" stroke="#191970" d="M1023.5774,-317.7894C1086.3955,-312.5011 1202.9999,-302.685 1283.805,-295.8825"/>
<polygon fill="#191970" stroke="#191970" points="1023.2728,-314.3026 1013.6017,-318.6292 1023.8601,-321.2779 1023.2728,-314.3026"/>
</g>
<!-- Node5 -->
<g id="node6" class="node">
<title>Node5</title>
<g id="a_node6"><a xlink:href="classgko_1_1EnableAbstractPolymorphicObject.html" target="_top" xlink:title="gko::EnableAbstractPolymorphic\lObject\&lt; LinOp \&gt;">
<polygon fill="#ffffff" stroke="#ff0000" points="538,-309.5 538,-339.5 713,-339.5 713,-309.5 538,-309.5"/>
<text text-anchor="start" x="546" y="-327.5" font-family="Helvetica,sans-Serif" font-size="10.00" fill="#000000">gko::EnableAbstractPolymorphic</text>
<text text-anchor="middle" x="625.5" y="-316.5" font-family="Helvetica,sans-Serif" font-size="10.00" fill="#000000">Object&lt; LinOp &gt;</text>
</a>
</g>
</g>
<!-- Node5&#45;&gt;Node4 -->
<g id="edge5" class="edge">
<title>Node5&#45;&gt;Node4</title>
<path fill="none" stroke="#191970" d="M723.2731,-323.6714C797.1818,-323.0451 894.3122,-322.2219 945.1295,-321.7913"/>
<polygon fill="#191970" stroke="#191970" points="722.9756,-320.1737 713.0056,-323.7584 723.035,-327.1735 722.9756,-320.1737"/>
</g>
<!-- Node10 -->
<g id="node7" class="node">
<title>Node10</title>
<g id="a_node7"><a xlink:href="classgko_1_1EnableAbstractPolymorphicObject.html" target="_top" xlink:title="This mixin inherits from (a subclass of) PolymorphicObject and provides a base implementation of a ne...">
<polygon fill="#ffffff" stroke="#000000" points="138,-223 138,-264 332,-264 332,-223 138,-223"/>
<text text-anchor="start" x="146" y="-252" font-family="Helvetica,sans-Serif" font-size="10.00" fill="#000000">gko::EnableAbstractPolymorphic</text>
<text text-anchor="start" x="146" y="-241" font-family="Helvetica,sans-Serif" font-size="10.00" fill="#000000">Object&lt; AbstactObject, Polymorphic</text>
<text text-anchor="middle" x="235" y="-230" font-family="Helvetica,sans-Serif" font-size="10.00" fill="#000000">Base &gt;</text>
</a>
</g>
</g>
<!-- Node10&#45;&gt;Node3 -->
<g id="edge8" class="edge">
<title>Node10&#45;&gt;Node3</title>
<path fill="none" stroke="#ffa500" stroke-dasharray="5,2" d="M342.2539,-261.7074C344.859,-261.9924 347.444,-262.2575 350,-262.5 694.3858,-295.1739 1106.8114,-293.1568 1283.8045,-290.3403"/>
<polygon fill="#ffa500" stroke="#ffa500" points="342.4669,-258.2085 332.1265,-260.5163 341.6492,-265.1605 342.4669,-258.2085"/>
<text text-anchor="start" x="748.5" y="-302.5" font-family="Helvetica,sans-Serif" font-size="10.00" fill="#000000"> &lt; Fcg&lt; ValueType &gt;,</text>
<text text-anchor="middle" x="801.5" y="-291.5" font-family="Helvetica,sans-Serif" font-size="10.00" fill="#000000"> LinOp &gt;</text>
</g>
<!-- Node10&#45;&gt;Node5 -->
<g id="edge6" class="edge">
<title>Node10&#45;&gt;Node5</title>
<path fill="none" stroke="#ffa500" stroke-dasharray="5,2" d="M282.3212,-268.4448C302.6332,-278.0984 326.956,-288.2972 350,-294.5 411.5581,-311.0698 483.1969,-318.5239 537.9906,-321.8596"/>
<polygon fill="#ffa500" stroke="#ffa500" points="283.8149,-265.2793 273.29,-264.064 280.7598,-271.5775 283.8149,-265.2793"/>
<text text-anchor="middle" x="428.5" y="-322.5" font-family="Helvetica,sans-Serif" font-size="10.00" fill="#000000"> &lt; LinOp &gt;</text>
</g>
<!-- Node13 -->
<g id="node10" class="node">
<title>Node13</title>
<g id="a_node10"><a xlink:href="classgko_1_1EnableAbstractPolymorphicObject.html" target="_top" xlink:title="gko::EnableAbstractPolymorphic\lObject\&lt; ConcreteObject, Polymorphic\lBase \&gt;">
<polygon fill="#ffffff" stroke="#000000" points="525,-202 525,-243 726,-243 726,-202 525,-202"/>
<text text-anchor="start" x="533" y="-231" font-family="Helvetica,sans-Serif" font-size="10.00" fill="#000000">gko::EnableAbstractPolymorphic</text>
<text text-anchor="start" x="533" y="-220" font-family="Helvetica,sans-Serif" font-size="10.00" fill="#000000">Object&lt; ConcreteObject, Polymorphic</text>
<text text-anchor="middle" x="625.5" y="-209" font-family="Helvetica,sans-Serif" font-size="10.00" fill="#000000">Base &gt;</text>
</a>
</g>
</g>
<!-- Node10&#45;&gt;Node13 -->
<g id="edge12" class="edge">
<title>Node10&#45;&gt;Node13</title>
<path fill="none" stroke="#ffa500" stroke-dasharray="5,2" d="M342.1578,-237.7374C399.1787,-234.6709 468.8822,-230.9225 524.885,-227.9108"/>
<polygon fill="#ffa500" stroke="#ffa500" points="341.8274,-234.25 332.0298,-238.282 342.2034,-241.2399 341.8274,-234.25"/>
<text text-anchor="start" x="350" y="-250.5" font-family="Helvetica,sans-Serif" font-size="10.00" fill="#000000"> &lt; ConcreteObject, Polymorphic</text>
<text text-anchor="middle" x="428.5" y="-239.5" font-family="Helvetica,sans-Serif" font-size="10.00" fill="#000000">Base &gt;</text>
</g>
<!-- Node20 -->
<g id="node17" class="node">
<title>Node20</title>
<g id="a_node17"><a xlink:href="classgko_1_1EnableAbstractPolymorphicObject.html" target="_top" xlink:title="gko::EnableAbstractPolymorphic\lObject\&lt; ConcreteLinOp, Polymorphic\lBase \&gt;">
<polygon fill="#ffffff" stroke="#000000" points="527,-137 527,-178 724,-178 724,-137 527,-137"/>
<text text-anchor="start" x="535" y="-166" font-family="Helvetica,sans-Serif" font-size="10.00" fill="#000000">gko::EnableAbstractPolymorphic</text>
<text text-anchor="start" x="535" y="-155" font-family="Helvetica,sans-Serif" font-size="10.00" fill="#000000">Object&lt; ConcreteLinOp, Polymorphic</text>
<text text-anchor="middle" x="625.5" y="-144" font-family="Helvetica,sans-Serif" font-size="10.00" fill="#000000">Base &gt;</text>
</a>
</g>
</g>
<!-- Node10&#45;&gt;Node20 -->
<g id="edge22" class="edge">
<title>Node10&#45;&gt;Node20</title>
<path fill="none" stroke="#ffa500" stroke-dasharray="5,2" d="M295.891,-219.4832C313.1818,-213.2972 332.1619,-207.0965 350,-202.5 407.8421,-187.5954 473.8466,-176.6118 526.7468,-169.2284"/>
<polygon fill="#ffa500" stroke="#ffa500" points="294.6776,-216.2002 286.4767,-222.9081 297.0708,-222.7784 294.6776,-216.2002"/>
<text text-anchor="start" x="352" y="-216.5" font-family="Helvetica,sans-Serif" font-size="10.00" fill="#000000"> &lt; ConcreteLinOp, Polymorphic</text>
<text text-anchor="middle" x="428.5" y="-205.5" font-family="Helvetica,sans-Serif" font-size="10.00" fill="#000000">Base &gt;</text>
</g>
<!-- Node11 -->
<g id="node8" class="node">
<title>Node11</title>
<polygon fill="#ffffff" stroke="#bfbfbf" points="0,-156 0,-175 101,-175 101,-156 0,-156"/>
<text text-anchor="middle" x="50.5" y="-163" font-family="Helvetica,sans-Serif" font-size="10.00" fill="#000000">PolymorphicBase</text>
</g>
<!-- Node11&#45;&gt;Node10 -->
<g id="edge7" class="edge">
<title>Node11&#45;&gt;Node10</title>
<path fill="none" stroke="#191970" d="M82.628,-179.0826C111.2155,-191.1684 153.45,-209.0236 186.208,-222.8725"/>
<polygon fill="#191970" stroke="#191970" points="83.6969,-175.7346 73.1233,-175.0643 80.9711,-182.1821 83.6969,-175.7346"/>
</g>
<!-- Node11&#45;&gt;Node13 -->
<g id="edge11" class="edge">
<title>Node11&#45;&gt;Node13</title>
<path fill="none" stroke="#191970" d="M111.4107,-160.0065C199.8299,-153.6786 368.3225,-147.8417 507,-179.5 515.535,-181.4484 516.8592,-184.2798 525,-187.5 537.4558,-192.427 550.9171,-197.3705 563.8153,-201.9259"/>
<polygon fill="#191970" stroke="#191970" points="111.0047,-156.5269 101.2915,-160.7581 111.5233,-163.5077 111.0047,-156.5269"/>
</g>
<!-- Node11&#45;&gt;Node20 -->
<g id="edge21" class="edge">
<title>Node11&#45;&gt;Node20</title>
<path fill="none" stroke="#191970" d="M100.0089,-154.156C106.37,-153.0602 112.8183,-152.1252 119,-151.5 290.5691,-134.1468 334.6107,-147.1385 507,-151.5 513.4867,-151.6641 520.1712,-151.8787 526.9066,-152.1288"/>
<polygon fill="#191970" stroke="#191970" points="99.3286,-150.7224 90.1355,-155.9889 100.6063,-157.6048 99.3286,-150.7224"/>
</g>
<!-- Node12 -->
<g id="node9" class="node">
<title>Node12</title>
<g id="a_node9"><a xlink:href="classgko_1_1EnablePolymorphicObject.html" target="_top" xlink:title="This mixin inherits from (a subclass of) PolymorphicObject and provides a base implementation of a ne...">
<polygon fill="#ffffff" stroke="#000000" points="877,-207.5 877,-237.5 1082,-237.5 1082,-207.5 877,-207.5"/>
<text text-anchor="start" x="885" y="-225.5" font-family="Helvetica,sans-Serif" font-size="10.00" fill="#000000">gko::EnablePolymorphicObject</text>
<text text-anchor="middle" x="979.5" y="-214.5" font-family="Helvetica,sans-Serif" font-size="10.00" fill="#000000">&lt; ConcreteObject, PolymorphicBase &gt;</text>
</a>
</g>
</g>
<!-- Node12&#45;&gt;Node2 -->
<g id="edge9" class="edge">
<title>Node12&#45;&gt;Node2</title>
<path fill="none" stroke="#ffa500" stroke-dasharray="5,2" d="M1092.0199,-223.4185C1212.5539,-224.4025 1401.0176,-225.941 1508.8379,-226.8211"/>
<polygon fill="#ffa500" stroke="#ffa500" points="1092.047,-219.9187 1082.0187,-223.3369 1091.9898,-226.9185 1092.047,-219.9187"/>
<text text-anchor="start" x="1318.5" y="-240.5" font-family="Helvetica,sans-Serif" font-size="10.00" fill="#000000"> &lt; Fcg&lt; ValueType &gt;,</text>
<text text-anchor="middle" x="1371.5" y="-229.5" font-family="Helvetica,sans-Serif" font-size="10.00" fill="#000000"> LinOp &gt;</text>
</g>
<!-- Node19 -->
<g id="node16" class="node">
<title>Node19</title>
<g id="a_node16"><a xlink:href="classgko_1_1EnablePolymorphicObject.html" target="_top" xlink:title="gko::EnablePolymorphicObject\l\&lt; ConcreteLinOp, PolymorphicBase \&gt;">
<polygon fill="#ffffff" stroke="#000000" points="1271,-144.5 1271,-174.5 1472,-174.5 1472,-144.5 1271,-144.5"/>
<text text-anchor="start" x="1279" y="-162.5" font-family="Helvetica,sans-Serif" font-size="10.00" fill="#000000">gko::EnablePolymorphicObject</text>
<text text-anchor="middle" x="1371.5" y="-151.5" font-family="Helvetica,sans-Serif" font-size="10.00" fill="#000000">&lt; ConcreteLinOp, PolymorphicBase &gt;</text>
</a>
</g>
</g>
<!-- Node12&#45;&gt;Node19 -->
<g id="edge23" class="edge">
<title>Node12&#45;&gt;Node19</title>
<path fill="none" stroke="#ffa500" stroke-dasharray="5,2" d="M1041.5139,-204.8453C1060.1962,-199.9884 1080.8305,-195.0787 1100,-191.5 1156.1034,-181.0263 1219.4049,-173.3315 1270.7633,-168.116"/>
<polygon fill="#ffa500" stroke="#ffa500" points="1040.4245,-201.513 1031.65,-207.4509 1042.2123,-208.2808 1040.4245,-201.513"/>
<text text-anchor="start" x="1100" y="-205.5" font-family="Helvetica,sans-Serif" font-size="10.00" fill="#000000"> &lt; ConcreteLinOp, Polymorphic</text>
<text text-anchor="middle" x="1176.5" y="-194.5" font-family="Helvetica,sans-Serif" font-size="10.00" fill="#000000">Base &gt;</text>
</g>
<!-- Node13&#45;&gt;Node12 -->
<g id="edge10" class="edge">
<title>Node13&#45;&gt;Node12</title>
<path fill="none" stroke="#191970" d="M736.5302,-222.5C781.4023,-222.5 832.8757,-222.5 876.8611,-222.5"/>
<polygon fill="#191970" stroke="#191970" points="736.4685,-219.0001 726.4684,-222.5 736.4684,-226.0001 736.4685,-219.0001"/>
</g>
<!-- Node14 -->
<g id="node11" class="node">
<title>Node14</title>
<g id="a_node11"><a xlink:href="classgko_1_1EnablePolymorphicAssignment.html" target="_top" xlink:title="gko::EnablePolymorphicAssignment\l\&lt; Fcg\&lt; ValueType \&gt; \&gt;">
<polygon fill="#ffffff" stroke="#000000" points="1275.5,-38.5 1275.5,-68.5 1467.5,-68.5 1467.5,-38.5 1275.5,-38.5"/>
<text text-anchor="start" x="1283.5" y="-56.5" font-family="Helvetica,sans-Serif" font-size="10.00" fill="#000000">gko::EnablePolymorphicAssignment</text>
<text text-anchor="middle" x="1371.5" y="-45.5" font-family="Helvetica,sans-Serif" font-size="10.00" fill="#000000">&lt; Fcg&lt; ValueType &gt; &gt;</text>
</a>
</g>
</g>
<!-- Node14&#45;&gt;Node1 -->
<g id="edge13" class="edge">
<title>Node14&#45;&gt;Node1</title>
<path fill="none" stroke="#191970" d="M1474.237,-70.128C1578.8529,-87.06 1737.8345,-112.7911 1825.9667,-127.0553"/>
<polygon fill="#191970" stroke="#191970" points="1474.7176,-66.6603 1464.2868,-68.5175 1473.5991,-73.5703 1474.7176,-66.6603"/>
</g>
<!-- Node15 -->
<g id="node12" class="node">
<title>Node15</title>
<g id="a_node12"><a xlink:href="classgko_1_1ConvertibleTo.html" target="_top" xlink:title="gko::ConvertibleTo\l\&lt; Fcg\&lt; ValueType \&gt; \&gt;">
<polygon fill="#ffffff" stroke="#000000" points="915.5,-.5 915.5,-30.5 1043.5,-30.5 1043.5,-.5 915.5,-.5"/>
<text text-anchor="start" x="923.5" y="-18.5" font-family="Helvetica,sans-Serif" font-size="10.00" fill="#000000">gko::ConvertibleTo</text>
<text text-anchor="middle" x="979.5" y="-7.5" font-family="Helvetica,sans-Serif" font-size="10.00" fill="#000000">&lt; Fcg&lt; ValueType &gt; &gt;</text>
</a>
</g>
</g>
<!-- Node15&#45;&gt;Node14 -->
<g id="edge14" class="edge">
<title>Node15&#45;&gt;Node14</title>
<path fill="none" stroke="#191970" d="M1054.0122,-22.7231C1116.7871,-28.8084 1207.0149,-37.555 1275.2506,-44.1697"/>
<polygon fill="#191970" stroke="#191970" points="1054.083,-19.2137 1043.7919,-21.7324 1053.4075,-26.181 1054.083,-19.2137"/>
</g>
<!-- Node16 -->
<g id="node13" class="node">
<title>Node16</title>
<g id="a_node13"><a xlink:href="classgko_1_1ConvertibleTo.html" target="_top" xlink:title="ConvertibleTo interface is used to mark that the implementer can be converted to the object of Result...">
<polygon fill="#ffffff" stroke="#000000" points="572,-49.5 572,-79.5 679,-79.5 679,-49.5 572,-49.5"/>
<text text-anchor="start" x="580" y="-67.5" font-family="Helvetica,sans-Serif" font-size="10.00" fill="#000000">gko::ConvertibleTo</text>
<text text-anchor="middle" x="625.5" y="-56.5" font-family="Helvetica,sans-Serif" font-size="10.00" fill="#000000">&lt; ResultType &gt;</text>
</a>
</g>
</g>
<!-- Node16&#45;&gt;Node15 -->
<g id="edge15" class="edge">
<title>Node16&#45;&gt;Node15</title>
<path fill="none" stroke="#ffa500" stroke-dasharray="5,2" d="M689.2282,-55.6789C753.1919,-46.8251 851.1894,-33.2605 915.3147,-24.3844"/>
<polygon fill="#ffa500" stroke="#ffa500" points="688.6906,-52.2198 679.265,-57.058 689.6505,-59.1537 688.6906,-52.2198"/>
<text text-anchor="middle" x="801.5" y="-50.5" font-family="Helvetica,sans-Serif" font-size="10.00" fill="#000000"> &lt; Fcg&lt; ValueType &gt; &gt;</text>
</g>
<!-- Node17 -->
<g id="node14" class="node">
<title>Node17</title>
<g id="a_node14"><a xlink:href="classgko_1_1EnablePolymorphicAssignment.html" target="_top" xlink:title="This mixin is used to enable a default PolymorphicObject::copy_from() implementation for objects that...">
<polygon fill="#ffffff" stroke="#000000" points="883.5,-49.5 883.5,-79.5 1075.5,-79.5 1075.5,-49.5 883.5,-49.5"/>
<text text-anchor="start" x="891.5" y="-67.5" font-family="Helvetica,sans-Serif" font-size="10.00" fill="#000000">gko::EnablePolymorphicAssignment</text>
<text text-anchor="middle" x="979.5" y="-56.5" font-family="Helvetica,sans-Serif" font-size="10.00" fill="#000000">&lt; ConcreteType, ResultType &gt;</text>
</a>
</g>
</g>
<!-- Node16&#45;&gt;Node17 -->
<g id="edge17" class="edge">
<title>Node16&#45;&gt;Node17</title>
<path fill="none" stroke="#191970" d="M689.4085,-64.5C743.4897,-64.5 821.8066,-64.5 883.4381,-64.5"/>
<polygon fill="#191970" stroke="#191970" points="689.265,-61.0001 679.265,-64.5 689.2649,-68.0001 689.265,-61.0001"/>
</g>
<!-- Node22 -->
<g id="node19" class="node">
<title>Node22</title>
<g id="a_node19"><a xlink:href="classgko_1_1ConvertibleTo.html" target="_top" xlink:title="gko::ConvertibleTo\l\&lt; ConcreteLinOp \&gt;">
<polygon fill="#ffffff" stroke="#000000" points="924.5,-98.5 924.5,-128.5 1034.5,-128.5 1034.5,-98.5 924.5,-98.5"/>
<text text-anchor="start" x="932.5" y="-116.5" font-family="Helvetica,sans-Serif" font-size="10.00" fill="#000000">gko::ConvertibleTo</text>
<text text-anchor="middle" x="979.5" y="-105.5" font-family="Helvetica,sans-Serif" font-size="10.00" fill="#000000">&lt; ConcreteLinOp &gt;</text>
</a>
</g>
</g>
<!-- Node16&#45;&gt;Node22 -->
<g id="edge26" class="edge">
<title>Node16&#45;&gt;Node22</title>
<path fill="none" stroke="#ffa500" stroke-dasharray="5,2" d="M689.2854,-73.3291C756.3377,-82.6103 860.7439,-97.062 924.353,-105.8667"/>
<polygon fill="#ffa500" stroke="#ffa500" points="689.6505,-69.8463 679.265,-71.942 688.6906,-76.7802 689.6505,-69.8463"/>
<text text-anchor="middle" x="801.5" y="-99.5" font-family="Helvetica,sans-Serif" font-size="10.00" fill="#000000"> &lt; ConcreteLinOp &gt;</text>
</g>
<!-- Node17&#45;&gt;Node14 -->
<g id="edge16" class="edge">
<title>Node17&#45;&gt;Node14</title>
<path fill="none" stroke="#ffa500" stroke-dasharray="5,2" d="M1086.126,-55.1975C1090.8124,-54.9319 1095.4532,-54.6967 1100,-54.5 1158.1582,-51.9836 1223.3893,-51.6624 1275.3338,-52.0041"/>
<polygon fill="#ffa500" stroke="#ffa500" points="1085.5817,-51.724 1075.8126,-55.8245 1086.0066,-58.7111 1085.5817,-51.724"/>
<text text-anchor="middle" x="1176.5" y="-57.5" font-family="Helvetica,sans-Serif" font-size="10.00" fill="#000000"> &lt; Fcg&lt; ValueType &gt; &gt;</text>
</g>
<!-- Node21 -->
<g id="node18" class="node">
<title>Node21</title>
<g id="a_node18"><a xlink:href="classgko_1_1EnablePolymorphicAssignment.html" target="_top" xlink:title="gko::EnablePolymorphicAssignment\l\&lt; ConcreteLinOp \&gt;">
<polygon fill="#ffffff" stroke="#000000" points="1275.5,-95.5 1275.5,-125.5 1467.5,-125.5 1467.5,-95.5 1275.5,-95.5"/>
<text text-anchor="start" x="1283.5" y="-113.5" font-family="Helvetica,sans-Serif" font-size="10.00" fill="#000000">gko::EnablePolymorphicAssignment</text>
<text text-anchor="middle" x="1371.5" y="-102.5" font-family="Helvetica,sans-Serif" font-size="10.00" fill="#000000">&lt; ConcreteLinOp &gt;</text>
</a>
</g>
</g>
<!-- Node17&#45;&gt;Node21 -->
<g id="edge27" class="edge">
<title>Node17&#45;&gt;Node21</title>
<path fill="none" stroke="#ffa500" stroke-dasharray="5,2" d="M1085.6818,-76.8953C1136.3404,-82.8162 1197.8051,-90.0106 1253,-96.5 1260.3039,-97.3587 1267.8608,-98.2485 1275.4602,-99.1442"/>
<polygon fill="#ffa500" stroke="#ffa500" points="1086.038,-73.4132 1075.6993,-75.7287 1085.2254,-80.3659 1086.038,-73.4132"/>
<text text-anchor="middle" x="1176.5" y="-99.5" font-family="Helvetica,sans-Serif" font-size="10.00" fill="#000000"> &lt; ConcreteLinOp &gt;</text>
</g>
<!-- Node18 -->
<g id="node15" class="node">
<title>Node18</title>
<g id="a_node15"><a xlink:href="classgko_1_1EnableLinOp.html" target="_top" xlink:title="The EnableLinOp mixin can be used to provide sensible default implementations of the majority of the ...">
<polygon fill="#ffffff" stroke="#000000" points="1514,-122.5 1514,-152.5 1670,-152.5 1670,-122.5 1514,-122.5"/>
<text text-anchor="start" x="1522" y="-140.5" font-family="Helvetica,sans-Serif" font-size="10.00" fill="#000000">gko::EnableLinOp&lt; Concrete</text>
<text text-anchor="middle" x="1592" y="-129.5" font-family="Helvetica,sans-Serif" font-size="10.00" fill="#000000">LinOp, PolymorphicBase &gt;</text>
</a>
</g>
</g>
<!-- Node18&#45;&gt;Node1 -->
<g id="edge18" class="edge">
<title>Node18&#45;&gt;Node1</title>
<path fill="none" stroke="#ffa500" stroke-dasharray="5,2" d="M1680.13,-137.5C1726.7259,-137.5 1782.9294,-137.5 1825.5172,-137.5"/>
<polygon fill="#ffa500" stroke="#ffa500" points="1680.0375,-134.0001 1670.0375,-137.5 1680.0374,-141.0001 1680.0375,-134.0001"/>
<text text-anchor="middle" x="1750.5" y="-140.5" font-family="Helvetica,sans-Serif" font-size="10.00" fill="#000000"> &lt; Fcg&lt; ValueType &gt; &gt;</text>
</g>
<!-- Node19&#45;&gt;Node18 -->
<g id="edge19" class="edge">
<title>Node19&#45;&gt;Node18</title>
<path fill="none" stroke="#191970" d="M1482.2456,-148.4505C1492.8692,-147.3906 1503.4867,-146.3313 1513.7034,-145.3119"/>
<polygon fill="#191970" stroke="#191970" points="1481.6742,-144.9901 1472.0711,-149.4657 1482.3693,-151.9555 1481.6742,-144.9901"/>
</g>
<!-- Node20&#45;&gt;Node19 -->
<g id="edge20" class="edge">
<title>Node20&#45;&gt;Node19</title>
<path fill="none" stroke="#191970" d="M734.3667,-157.7919C878.5124,-158.1783 1130.752,-158.8546 1270.7177,-159.2298"/>
<polygon fill="#191970" stroke="#191970" points="734.1874,-154.2915 724.178,-157.7646 734.1686,-161.2914 734.1874,-154.2915"/>
</g>
<!-- Node21&#45;&gt;Node18 -->
<g id="edge24" class="edge">
<title>Node21&#45;&gt;Node18</title>
<path fill="none" stroke="#191970" d="M1477.7437,-123.5094C1489.8851,-124.9961 1502.0914,-126.4908 1513.7726,-127.9211"/>
<polygon fill="#191970" stroke="#191970" points="1477.9244,-120.0055 1467.5731,-122.264 1477.0735,-126.9536 1477.9244,-120.0055"/>
</g>
<!-- Node22&#45;&gt;Node21 -->
<g id="edge25" class="edge">
<title>Node22&#45;&gt;Node21</title>
<path fill="none" stroke="#191970" d="M1045.0239,-112.9985C1107.9342,-112.5171 1203.7021,-111.7842 1275.2698,-111.2365"/>
<polygon fill="#191970" stroke="#191970" points="1044.8055,-109.5 1034.8326,-113.0765 1044.8591,-116.4998 1044.8055,-109.5"/>
</g>
<!-- Node23 -->
<g id="node20" class="node">
<title>Node23</title>
<g id="a_node20"><a xlink:href="classgko_1_1Preconditionable.html" target="_top" xlink:title="A LinOp implementing this interface can be preconditioned. ">
<polygon fill="#ffffff" stroke="#000000" points="1829.5,-84 1829.5,-103 1951.5,-103 1951.5,-84 1829.5,-84"/>
<text text-anchor="middle" x="1890.5" y="-91" font-family="Helvetica,sans-Serif" font-size="10.00" fill="#000000">gko::Preconditionable</text>
</a>
</g>
</g>
<!-- Node23&#45;&gt;Node0 -->
<g id="edge28" class="edge">
<title>Node23&#45;&gt;Node0</title>
<path fill="none" stroke="#191970" d="M1961.628,-98.1388C1971.4699,-98.7806 1981.6482,-99.4444 1991.6794,-100.0987"/>
<polygon fill="#191970" stroke="#191970" points="1961.7204,-94.6375 1951.5138,-97.4792 1961.2648,-101.6226 1961.7204,-94.6375"/>
</g>
</g>
</svg>
