<?xml version="1.0" encoding="UTF-8" standalone="no"?>
<!DOCTYPE svg PUBLIC "-//W3C//DTD SVG 1.1//EN"
 "http://www.w3.org/Graphics/SVG/1.1/DTD/svg11.dtd">
<!-- Generated by graphviz version 2.40.1 (20161225.0304)
 -->
<!-- Title: gko::stop::ResidualNormReduction&lt; ValueType &gt; Pages: 1 -->
<svg width="1531pt" height="131pt"
 viewBox="0.00 0.00 1531.00 131.00" xmlns="http://www.w3.org/2000/svg" xmlns:xlink="http://www.w3.org/1999/xlink">
<g id="graph0" class="graph" transform="scale(1 1) rotate(0) translate(4 127)">
<title>gko::stop::ResidualNormReduction&lt; ValueType &gt;</title>
<polygon fill="#ffffff" stroke="transparent" points="-4,4 -4,-127 1527,-127 1527,4 -4,4"/>
<!-- Node0 -->
<g id="node1" class="node">
<title>Node0</title>
<polygon fill="#bfbfbf" stroke="#000000" points="1339,-44 1339,-74 1523,-74 1523,-44 1339,-44"/>
<text text-anchor="start" x="1347" y="-62" font-family="Helvetica,sans-Serif" font-size="10.00" fill="#000000">gko::stop::ResidualNormReduction</text>
<text text-anchor="middle" x="1431" y="-51" font-family="Helvetica,sans-Serif" font-size="10.00" fill="#000000">&lt; ValueType &gt;</text>
</g>
<!-- Node1 -->
<g id="node2" class="node">
<title>Node1</title>
<g id="a_node2"><a xlink:href="classgko_1_1EnablePolymorphicObject.html" target="_top" xlink:title="gko::EnablePolymorphicObject\l\&lt; ResidualNormReduction\&lt;\l ValueType \&gt;, Criterion \&gt;">
<polygon fill="#ffffff" stroke="#000000" points="1136,-38.5 1136,-79.5 1302,-79.5 1302,-38.5 1136,-38.5"/>
<text text-anchor="start" x="1144" y="-67.5" font-family="Helvetica,sans-Serif" font-size="10.00" fill="#000000">gko::EnablePolymorphicObject</text>
<text text-anchor="start" x="1144" y="-56.5" font-family="Helvetica,sans-Serif" font-size="10.00" fill="#000000">&lt; ResidualNormReduction&lt;</text>
<text text-anchor="middle" x="1219" y="-45.5" font-family="Helvetica,sans-Serif" font-size="10.00" fill="#000000"> ValueType &gt;, Criterion &gt;</text>
</a>
</g>
</g>
<!-- Node1&#45;&gt;Node0 -->
<g id="edge1" class="edge">
<title>Node1&#45;&gt;Node0</title>
<path fill="none" stroke="#191970" d="M1312.4422,-59C1321.2428,-59 1330.1606,-59 1338.9483,-59"/>
<polygon fill="#191970" stroke="#191970" points="1312.1796,-55.5001 1302.1795,-59 1312.1795,-62.5001 1312.1796,-55.5001"/>
</g>
<!-- Node2 -->
<g id="node3" class="node">
<title>Node2</title>
<g id="a_node3"><a xlink:href="classgko_1_1EnableAbstractPolymorphicObject.html" target="_top" xlink:title="gko::EnableAbstractPolymorphic\lObject\&lt; ResidualNormReduction\l\&lt; ValueType \&gt;, Criterion \&gt;">
<polygon fill="#ffffff" stroke="#000000" points="537.5,-62.5 537.5,-103.5 713.5,-103.5 713.5,-62.5 537.5,-62.5"/>
<text text-anchor="start" x="545.5" y="-91.5" font-family="Helvetica,sans-Serif" font-size="10.00" fill="#000000">gko::EnableAbstractPolymorphic</text>
<text text-anchor="start" x="545.5" y="-80.5" font-family="Helvetica,sans-Serif" font-size="10.00" fill="#000000">Object&lt; ResidualNormReduction</text>
<text text-anchor="middle" x="625.5" y="-69.5" font-family="Helvetica,sans-Serif" font-size="10.00" fill="#000000">&lt; ValueType &gt;, Criterion &gt;</text>
</a>
</g>
</g>
<!-- Node2&#45;&gt;Node1 -->
<g id="edge2" class="edge">
<title>Node2&#45;&gt;Node1</title>
<path fill="none" stroke="#191970" d="M723.6654,-81.1559C823.1088,-78.9715 981.3308,-74.6285 1118,-67 1123.7956,-66.6765 1129.7753,-66.3035 1135.7953,-65.8991"/>
<polygon fill="#191970" stroke="#191970" points="723.5528,-77.6574 713.631,-81.3733 723.7045,-84.6558 723.5528,-77.6574"/>
</g>
<!-- Node3 -->
<g id="node4" class="node">
<title>Node3</title>
<polygon fill="#ffffff" stroke="#bfbfbf" points="205.5,-103.5 205.5,-122.5 264.5,-122.5 264.5,-103.5 205.5,-103.5"/>
<text text-anchor="middle" x="235" y="-110.5" font-family="Helvetica,sans-Serif" font-size="10.00" fill="#000000">Criterion</text>
</g>
<!-- Node3&#45;&gt;Node2 -->
<g id="edge3" class="edge">
<title>Node3&#45;&gt;Node2</title>
<path fill="none" stroke="#191970" d="M274.8568,-111.9814C327.9285,-110.3889 424.6815,-106.6626 507,-99 516.8184,-98.0861 527.0729,-96.9604 537.2636,-95.7331"/>
<polygon fill="#191970" stroke="#191970" points="274.7364,-108.4833 264.8422,-112.2719 274.9395,-115.4803 274.7364,-108.4833"/>
</g>
<!-- Node4 -->
<g id="node5" class="node">
<title>Node4</title>
<g id="a_node5"><a xlink:href="classgko_1_1EnableAbstractPolymorphicObject.html" target="_top" xlink:title="This mixin inherits from (a subclass of) PolymorphicObject and provides a base implementation of a ne...">
<polygon fill="#ffffff" stroke="#000000" points="138,-26.5 138,-67.5 332,-67.5 332,-26.5 138,-26.5"/>
<text text-anchor="start" x="146" y="-55.5" font-family="Helvetica,sans-Serif" font-size="10.00" fill="#000000">gko::EnableAbstractPolymorphic</text>
<text text-anchor="start" x="146" y="-44.5" font-family="Helvetica,sans-Serif" font-size="10.00" fill="#000000">Object&lt; AbstactObject, Polymorphic</text>
<text text-anchor="middle" x="235" y="-33.5" font-family="Helvetica,sans-Serif" font-size="10.00" fill="#000000">Base &gt;</text>
</a>
</g>
</g>
<!-- Node4&#45;&gt;Node2 -->
<g id="edge4" class="edge">
<title>Node4&#45;&gt;Node2</title>
<path fill="none" stroke="#ffa500" stroke-dasharray="5,2" d="M342.1299,-56.8763C403.4565,-62.5299 479.4605,-69.5367 537.3121,-74.87"/>
<polygon fill="#ffa500" stroke="#ffa500" points="342.3089,-53.378 332.0298,-55.9451 341.6663,-60.3484 342.3089,-53.378"/>
<text text-anchor="start" x="362.5" y="-85" font-family="Helvetica,sans-Serif" font-size="10.00" fill="#000000"> &lt; ResidualNormReduction</text>
<text text-anchor="middle" x="428.5" y="-74" font-family="Helvetica,sans-Serif" font-size="10.00" fill="#000000">&lt; ValueType &gt;, Criterion &gt;</text>
</g>
<!-- Node7 -->
<g id="node8" class="node">
<title>Node7</title>
<g id="a_node8"><a xlink:href="classgko_1_1EnableAbstractPolymorphicObject.html" target="_top" xlink:title="gko::EnableAbstractPolymorphic\lObject\&lt; ConcreteObject, Polymorphic\lBase \&gt;">
<polygon fill="#ffffff" stroke="#000000" points="525,-2.5 525,-43.5 726,-43.5 726,-2.5 525,-2.5"/>
<text text-anchor="start" x="533" y="-31.5" font-family="Helvetica,sans-Serif" font-size="10.00" fill="#000000">gko::EnableAbstractPolymorphic</text>
<text text-anchor="start" x="533" y="-20.5" font-family="Helvetica,sans-Serif" font-size="10.00" fill="#000000">Object&lt; ConcreteObject, Polymorphic</text>
<text text-anchor="middle" x="625.5" y="-9.5" font-family="Helvetica,sans-Serif" font-size="10.00" fill="#000000">Base &gt;</text>
</a>
</g>
</g>
<!-- Node4&#45;&gt;Node7 -->
<g id="edge9" class="edge">
<title>Node4&#45;&gt;Node7</title>
<path fill="none" stroke="#ffa500" stroke-dasharray="5,2" d="M342.2805,-32.6683C344.8776,-32.4306 347.4539,-32.2071 350,-32 407.8336,-27.2948 472.6857,-25.0277 524.9344,-23.9447"/>
<polygon fill="#ffa500" stroke="#ffa500" points="341.7936,-29.199 332.1794,-33.6507 342.4713,-36.1661 341.7936,-29.199"/>
<text text-anchor="start" x="350" y="-46" font-family="Helvetica,sans-Serif" font-size="10.00" fill="#000000"> &lt; ConcreteObject, Polymorphic</text>
<text text-anchor="middle" x="428.5" y="-35" font-family="Helvetica,sans-Serif" font-size="10.00" fill="#000000">Base &gt;</text>
</g>
<!-- Node5 -->
<g id="node6" class="node">
<title>Node5</title>
<polygon fill="#ffffff" stroke="#bfbfbf" points="0,-.5 0,-19.5 101,-19.5 101,-.5 0,-.5"/>
<text text-anchor="middle" x="50.5" y="-7.5" font-family="Helvetica,sans-Serif" font-size="10.00" fill="#000000">PolymorphicBase</text>
</g>
<!-- Node5&#45;&gt;Node4 -->
<g id="edge5" class="edge">
<title>Node5&#45;&gt;Node4</title>
<path fill="none" stroke="#191970" d="M108.0697,-21.5451C117.5665,-23.4496 127.6371,-25.4692 137.7881,-27.5049"/>
<polygon fill="#191970" stroke="#191970" points="108.5063,-18.0631 98.0133,-19.5284 107.1299,-24.9264 108.5063,-18.0631"/>
</g>
<!-- Node5&#45;&gt;Node7 -->
<g id="edge8" class="edge">
<title>Node5&#45;&gt;Node7</title>
<path fill="none" stroke="#191970" d="M111.1753,-11.2634C198.6338,-13.0994 365.2083,-16.6521 507,-20 512.8635,-20.1384 518.8902,-20.2832 524.971,-20.4313"/>
<polygon fill="#191970" stroke="#191970" points="111.2366,-7.764 101.1654,-11.0535 111.0898,-14.7624 111.2366,-7.764"/>
</g>
<!-- Node6 -->
<g id="node7" class="node">
<title>Node6</title>
<g id="a_node7"><a xlink:href="classgko_1_1EnablePolymorphicObject.html" target="_top" xlink:title="This mixin inherits from (a subclass of) PolymorphicObject and provides a base implementation of a ne...">
<polygon fill="#ffffff" stroke="#000000" points="763,-20 763,-50 968,-50 968,-20 763,-20"/>
<text text-anchor="start" x="771" y="-38" font-family="Helvetica,sans-Serif" font-size="10.00" fill="#000000">gko::EnablePolymorphicObject</text>
<text text-anchor="middle" x="865.5" y="-27" font-family="Helvetica,sans-Serif" font-size="10.00" fill="#000000">&lt; ConcreteObject, PolymorphicBase &gt;</text>
</a>
</g>
</g>
<!-- Node6&#45;&gt;Node1 -->
<g id="edge6" class="edge">
<title>Node6&#45;&gt;Node1</title>
<path fill="none" stroke="#ffa500" stroke-dasharray="5,2" d="M978.3113,-37.1018C1022.0022,-38.5351 1072.3915,-40.9457 1118,-45 1123.8188,-45.5173 1129.8158,-46.1338 1135.8483,-46.8154"/>
<polygon fill="#ffa500" stroke="#ffa500" points="978.334,-33.6009 968.2288,-36.7844 978.1137,-40.5974 978.334,-33.6009"/>
<text text-anchor="start" x="986" y="-59" font-family="Helvetica,sans-Serif" font-size="10.00" fill="#000000"> &lt; ResidualNormReduction</text>
<text text-anchor="middle" x="1052" y="-48" font-family="Helvetica,sans-Serif" font-size="10.00" fill="#000000">&lt; ValueType &gt;, Criterion &gt;</text>
</g>
<!-- Node7&#45;&gt;Node6 -->
<g id="edge7" class="edge">
<title>Node7&#45;&gt;Node6</title>
<path fill="none" stroke="#191970" d="M736.4645,-28.5482C745.2104,-28.9855 754.0206,-29.426 762.708,-29.8604"/>
<polygon fill="#191970" stroke="#191970" points="736.4008,-25.0408 726.2384,-28.0369 736.0511,-32.032 736.4008,-25.0408"/>
</g>
</g>
</svg>
