<?xml version="1.0" encoding="UTF-8" standalone="no"?>
<!DOCTYPE svg PUBLIC "-//W3C//DTD SVG 1.1//EN"
 "http://www.w3.org/Graphics/SVG/1.1/DTD/svg11.dtd">
<!-- Generated by graphviz version 2.38.0 (20140413.2041)
 -->
<!-- Title: gko::stop::Time Pages: 1 -->
<svg width="179pt" height="218pt"
 viewBox="0.00 0.00 179.00 218.00" xmlns="http://www.w3.org/2000/svg" xmlns:xlink="http://www.w3.org/1999/xlink">
<g id="graph0" class="graph" transform="scale(1 1) rotate(0) translate(4 214)">
<title>gko::stop::Time</title>
<polygon fill="white" stroke="none" points="-4,4 -4,-214 175,-214 175,4 -4,4"/>
<!-- Node1 -->
<g id="node1" class="node"><title>Node1</title>
<polygon fill="#bfbfbf" stroke="black" points="40.5,-0.5 40.5,-19.5 130.5,-19.5 130.5,-0.5 40.5,-0.5"/>
<text text-anchor="middle" x="85.5" y="-7.5" font-family="Helvetica,sans-Serif" font-size="10.00">gko::stop::Time</text>
</g>
<!-- Node2 -->
<g id="node2" class="node"><title>Node2</title>
<g id="a_node2"><a xlink:href="classgko_1_1EnablePolymorphicObject.html" target="_top" xlink:title="gko::EnablePolymorphicObject\l\&lt; Time, Criterion \&gt;">
<polygon fill="white" stroke="black" points="5,-56.5 5,-86.5 166,-86.5 166,-56.5 5,-56.5"/>
<text text-anchor="start" x="13" y="-74.5" font-family="Helvetica,sans-Serif" font-size="10.00">gko::EnablePolymorphicObject</text>
<text text-anchor="middle" x="85.5" y="-63.5" font-family="Helvetica,sans-Serif" font-size="10.00">&lt; Time, Criterion &gt;</text>
</a>
</g>
</g>
<!-- Node2&#45;&gt;Node1 -->
<g id="edge1" class="edge"><title>Node2&#45;&gt;Node1</title>
<path fill="none" stroke="midnightblue" d="M85.5,-46.2892C85.5,-36.857 85.5,-26.6548 85.5,-19.6578"/>
<polygon fill="midnightblue" stroke="midnightblue" points="82.0001,-46.3993 85.5,-56.3993 89.0001,-46.3994 82.0001,-46.3993"/>
</g>
<!-- Node3 -->
<g id="node3" class="node"><title>Node3</title>
<g id="a_node3"><a xlink:href="classgko_1_1EnableAbstractPolymorphicObject.html" target="_top" xlink:title="gko::EnableAbstractPolymorphic\lObject\&lt; Time, Criterion \&gt;">
<polygon fill="white" stroke="black" points="0,-123.5 0,-153.5 171,-153.5 171,-123.5 0,-123.5"/>
<text text-anchor="start" x="8" y="-141.5" font-family="Helvetica,sans-Serif" font-size="10.00">gko::EnableAbstractPolymorphic</text>
<text text-anchor="middle" x="85.5" y="-130.5" font-family="Helvetica,sans-Serif" font-size="10.00">Object&lt; Time, Criterion &gt;</text>
</a>
</g>
</g>
<!-- Node3&#45;&gt;Node2 -->
<g id="edge2" class="edge"><title>Node3&#45;&gt;Node2</title>
<path fill="none" stroke="midnightblue" d="M85.5,-113.108C85.5,-104.154 85.5,-94.3227 85.5,-86.5765"/>
<polygon fill="midnightblue" stroke="midnightblue" points="82.0001,-113.396 85.5,-123.396 89.0001,-113.396 82.0001,-113.396"/>
</g>
<!-- Node4 -->
<g id="node4" class="node"><title>Node4</title>
<polygon fill="white" stroke="#bfbfbf" points="57,-190.5 57,-209.5 114,-209.5 114,-190.5 57,-190.5"/>
<text text-anchor="middle" x="85.5" y="-197.5" font-family="Helvetica,sans-Serif" font-size="10.00">Criterion</text>
</g>
<!-- Node4&#45;&gt;Node3 -->
<g id="edge3" class="edge"><title>Node4&#45;&gt;Node3</title>
<path fill="none" stroke="midnightblue" d="M85.5,-180.235C85.5,-171.586 85.5,-161.497 85.5,-153.523"/>
<polygon fill="midnightblue" stroke="midnightblue" points="82.0001,-180.475 85.5,-190.475 89.0001,-180.475 82.0001,-180.475"/>
</g>
</g>
</svg>
