<?xml version="1.0" encoding="UTF-8" standalone="no"?>
<!DOCTYPE svg PUBLIC "-//W3C//DTD SVG 1.1//EN"
 "http://www.w3.org/Graphics/SVG/1.1/DTD/svg11.dtd">
<!-- Generated by graphviz version 2.38.0 (20140413.2041)
 -->
<!-- Title: gko::solver::Cg&lt; ValueType &gt; Pages: 1 -->
<!--zoomable 350 -->
<svg id="main" version="1.1" xmlns="http://www.w3.org/2000/svg" xmlns:xlink="http://www.w3.org/1999/xlink" xml:space="preserve" onload="init(evt)">
<style type="text/css"><![CDATA[
.edge:hover path { stroke: red; }
.edge:hover polygon { stroke: red; fill: red; }
]]></style>
<script type="text/javascript"><![CDATA[
var edges = document.getElementsByTagName('g');
if (edges && edges.length) {
  for (var i=0;i<edges.length;i++) {
    if (edges[i].id.substr(0,4)=='edge') {
      edges[i].setAttribute('class','edge');
    }
  }
}
]]></script>
        <defs>
                <circle id="rim" cx="0" cy="0" r="7"/>
                <circle id="rim2" cx="0" cy="0" r="3.5"/>
                <g id="zoomPlus">
                        <use xlink:href="#rim" fill="#404040">
                                <set attributeName="fill" to="#808080" begin="zoomplus.mouseover" end="zoomplus.mouseout"/>
                        </use>
                        <path d="M-4,0h8M0,-4v8" fill="none" stroke="white" stroke-width="1.5" pointer-events="none"/>
                </g>
                <g id="zoomMin">
                        <use xlink:href="#rim" fill="#404040">
                                <set attributeName="fill" to="#808080" begin="zoomminus.mouseover" end="zoomminus.mouseout"/>
                        </use>
                        <path d="M-4,0h8" fill="none" stroke="white" stroke-width="1.5" pointer-events="none"/>
                </g>
                <g id="dirArrow">
                        <path fill="none" stroke="white" stroke-width="1.5" d="M0,-3.0v7 M-2.5,-0.5L0,-3.0L2.5,-0.5"/>
                </g>
               <g id="resetDef">
                       <use xlink:href="#rim2" fill="#404040">
                               <set attributeName="fill" to="#808080" begin="reset.mouseover" end="reset.mouseout"/>
                       </use>
               </g>
        </defs>

<script type="text/javascript">
var viewWidth = 2113;
var viewHeight = 350;
var sectionId = 'dynsection-0';
</script>
<script xlink:href="svgpan.js"/>
<svg id="graph" class="graph">
<g id="viewport">
<title>gko::solver::Cg&lt; ValueType &gt;</title>
<polygon fill="white" stroke="none" points="-4,4 -4,-346 2109,-346 2109,4 -4,4"/>
<!-- Node1 -->
<g id="node1" class="node"><title>Node1</title>
<polygon fill="#bfbfbf" stroke="black" points="1948,-94 1948,-113 2105,-113 2105,-94 1948,-94"/>
<text text-anchor="middle" x="2026.5" y="-101" font-family="Helvetica,sans-Serif" font-size="10.00">gko::solver::Cg&lt; ValueType &gt;</text>
</g>
<!-- Node2 -->
<g id="node2" class="node"><title>Node2</title>
<g id="a_node2"><a xlink:href="classgko_1_1EnableLinOp.html" target="_top" xlink:title="gko::EnableLinOp\&lt; Cg\l\&lt; ValueType \&gt; \&gt;">
<polygon fill="white" stroke="black" points="1788,-115.5 1788,-145.5 1911,-145.5 1911,-115.5 1788,-115.5"/>
<text text-anchor="start" x="1796" y="-133.5" font-family="Helvetica,sans-Serif" font-size="10.00">gko::EnableLinOp&lt; Cg</text>
<text text-anchor="middle" x="1849.5" y="-122.5" font-family="Helvetica,sans-Serif" font-size="10.00">&lt; ValueType &gt; &gt;</text>
</a>
</g>
</g>
<!-- Node2&#45;&gt;Node1 -->
<g id="edge1" class="edge"><title>Node2&#45;&gt;Node1</title>
<path fill="none" stroke="midnightblue" d="M1921.31,-119.575C1935.36,-117.408 1949.99,-115.15 1963.71,-113.034"/>
<polygon fill="midnightblue" stroke="midnightblue" points="1920.56,-116.149 1911.22,-121.132 1921.63,-123.067 1920.56,-116.149"/>
</g>
<!-- Node3 -->
<g id="node3" class="node"><title>Node3</title>
<g id="a_node3"><a xlink:href="classgko_1_1EnablePolymorphicObject.html" target="_top" xlink:title="gko::EnablePolymorphicObject\l\&lt; Cg\&lt; ValueType \&gt;, LinOp \&gt;">
<polygon fill="white" stroke="black" points="1482,-212.5 1482,-242.5 1643,-242.5 1643,-212.5 1482,-212.5"/>
<text text-anchor="start" x="1490" y="-230.5" font-family="Helvetica,sans-Serif" font-size="10.00">gko::EnablePolymorphicObject</text>
<text text-anchor="middle" x="1562.5" y="-219.5" font-family="Helvetica,sans-Serif" font-size="10.00">&lt; Cg&lt; ValueType &gt;, LinOp &gt;</text>
</a>
</g>
</g>
<!-- Node3&#45;&gt;Node2 -->
<g id="edge2" class="edge"><title>Node3&#45;&gt;Node2</title>
<path fill="none" stroke="midnightblue" d="M1617.47,-209.13C1671.55,-190.725 1753.8,-162.733 1804.18,-145.585"/>
<polygon fill="midnightblue" stroke="midnightblue" points="1616.06,-205.915 1607.72,-212.45 1618.31,-212.541 1616.06,-205.915"/>
</g>
<!-- Node4 -->
<g id="node4" class="node"><title>Node4</title>
<g id="a_node4"><a xlink:href="classgko_1_1EnableAbstractPolymorphicObject.html" target="_top" xlink:title="gko::EnableAbstractPolymorphic\lObject\&lt; Cg\&lt; ValueType \&gt;,\l LinOp \&gt;">
<polygon fill="white" stroke="black" points="1260.5,-268 1260.5,-309 1431.5,-309 1431.5,-268 1260.5,-268"/>
<text text-anchor="start" x="1268.5" y="-297" font-family="Helvetica,sans-Serif" font-size="10.00">gko::EnableAbstractPolymorphic</text>
<text text-anchor="start" x="1268.5" y="-286" font-family="Helvetica,sans-Serif" font-size="10.00">Object&lt; Cg&lt; ValueType &gt;,</text>
<text text-anchor="middle" x="1346" y="-275" font-family="Helvetica,sans-Serif" font-size="10.00"> LinOp &gt;</text>
</a>
</g>
</g>
<!-- Node4&#45;&gt;Node3 -->
<g id="edge3" class="edge"><title>Node4&#45;&gt;Node3</title>
<path fill="none" stroke="midnightblue" d="M1429.02,-265.174C1455.67,-257.596 1484.52,-249.393 1508.47,-242.581"/>
<polygon fill="midnightblue" stroke="midnightblue" points="1427.98,-261.831 1419.32,-267.933 1429.9,-268.564 1427.98,-261.831"/>
</g>
<!-- Node5 -->
<g id="node5" class="node"><title>Node5</title>
<g id="a_node5"><a xlink:href="classgko_1_1LinOp.html" target="_top" xlink:title="The linear operator (LinOp) is a base class for all linear algebra objects in Ginkgo. ">
<polygon fill="white" stroke="black" points="926.5,-314 926.5,-333 993.5,-333 993.5,-314 926.5,-314"/>
<text text-anchor="middle" x="960" y="-321" font-family="Helvetica,sans-Serif" font-size="10.00">gko::LinOp</text>
</a>
</g>
</g>
<!-- Node5&#45;&gt;Node4 -->
<g id="edge4" class="edge"><title>Node5&#45;&gt;Node4</title>
<path fill="none" stroke="midnightblue" d="M1003.91,-319.589C1065.69,-313.958 1180.99,-303.449 1260.3,-296.22"/>
<polygon fill="midnightblue" stroke="midnightblue" points="1003.38,-316.123 993.74,-320.516 1004.02,-323.094 1003.38,-316.123"/>
</g>
<!-- Node6 -->
<g id="node6" class="node"><title>Node6</title>
<g id="a_node6"><a xlink:href="classgko_1_1EnableAbstractPolymorphicObject.html" target="_top" xlink:title="gko::EnableAbstractPolymorphic\lObject\&lt; LinOp \&gt;">
<polygon fill="white" stroke="red" points="530,-311.5 530,-341.5 701,-341.5 701,-311.5 530,-311.5"/>
<text text-anchor="start" x="538" y="-329.5" font-family="Helvetica,sans-Serif" font-size="10.00">gko::EnableAbstractPolymorphic</text>
<text text-anchor="middle" x="615.5" y="-318.5" font-family="Helvetica,sans-Serif" font-size="10.00">Object&lt; LinOp &gt;</text>
</a>
</g>
</g>
<!-- Node6&#45;&gt;Node5 -->
<g id="edge5" class="edge"><title>Node6&#45;&gt;Node5</title>
<path fill="none" stroke="midnightblue" d="M711.565,-325.667C783.219,-325.04 877.224,-324.216 926.167,-323.788"/>
<polygon fill="midnightblue" stroke="midnightblue" points="711.132,-322.171 701.163,-325.758 711.193,-329.171 711.132,-322.171"/>
</g>
<!-- Node7 -->
<g id="node7" class="node"><title>Node7</title>
<g id="a_node7"><a xlink:href="classgko_1_1EnableAbstractPolymorphicObject.html" target="_top" xlink:title="This mixin inherits from (a subclass of) PolymorphicObject and provides a base implementation of a ne...">
<polygon fill="white" stroke="black" points="136,-225 136,-266 327,-266 327,-225 136,-225"/>
<text text-anchor="start" x="144" y="-254" font-family="Helvetica,sans-Serif" font-size="10.00">gko::EnableAbstractPolymorphic</text>
<text text-anchor="start" x="144" y="-243" font-family="Helvetica,sans-Serif" font-size="10.00">Object&lt; AbstactObject, Polymorphic</text>
<text text-anchor="middle" x="231.5" y="-232" font-family="Helvetica,sans-Serif" font-size="10.00">Base &gt;</text>
</a>
</g>
</g>
<!-- Node7&#45;&gt;Node4 -->
<g id="edge8" class="edge"><title>Node7&#45;&gt;Node4</title>
<path fill="none" stroke="orange" stroke-dasharray="5,2" d="M337.279,-264.665C339.876,-264.966 342.452,-265.246 345,-265.5 682.821,-299.214 1087.87,-294.848 1260.45,-290.902"/>
<polygon fill="orange" stroke="orange" points="337.545,-261.171 327.187,-263.4 336.674,-268.117 337.545,-261.171"/>
<text text-anchor="start" x="736.5" y="-306.5" font-family="Helvetica,sans-Serif" font-size="10.00"> &lt; Cg&lt; ValueType &gt;,</text>
<text text-anchor="middle" x="786.5" y="-295.5" font-family="Helvetica,sans-Serif" font-size="10.00"> LinOp &gt;</text>
</g>
<!-- Node7&#45;&gt;Node6 -->
<g id="edge6" class="edge"><title>Node7&#45;&gt;Node6</title>
<path fill="none" stroke="orange" stroke-dasharray="5,2" d="M279.011,-270.568C298.819,-280.182 322.508,-290.318 345,-296.5 405.487,-313.126 476.021,-320.572 529.756,-323.89"/>
<polygon fill="orange" stroke="orange" points="280.427,-267.363 269.913,-266.057 277.318,-273.635 280.427,-267.363"/>
<text text-anchor="middle" x="422" y="-324.5" font-family="Helvetica,sans-Serif" font-size="10.00"> &lt; LinOp &gt;</text>
</g>
<!-- Node10 -->
<g id="node10" class="node"><title>Node10</title>
<g id="a_node10"><a xlink:href="classgko_1_1EnableAbstractPolymorphicObject.html" target="_top" xlink:title="gko::EnableAbstractPolymorphic\lObject\&lt; ConcreteObject, Polymorphic\lBase \&gt;">
<polygon fill="white" stroke="black" points="517,-202 517,-243 714,-243 714,-202 517,-202"/>
<text text-anchor="start" x="525" y="-231" font-family="Helvetica,sans-Serif" font-size="10.00">gko::EnableAbstractPolymorphic</text>
<text text-anchor="start" x="525" y="-220" font-family="Helvetica,sans-Serif" font-size="10.00">Object&lt; ConcreteObject, Polymorphic</text>
<text text-anchor="middle" x="615.5" y="-209" font-family="Helvetica,sans-Serif" font-size="10.00">Base &gt;</text>
</a>
</g>
</g>
<!-- Node7&#45;&gt;Node10 -->
<g id="edge12" class="edge"><title>Node7&#45;&gt;Node10</title>
<path fill="none" stroke="orange" stroke-dasharray="5,2" d="M337.712,-239.165C393.648,-235.797 461.974,-231.684 516.744,-228.386"/>
<polygon fill="orange" stroke="orange" points="337.189,-235.69 327.418,-239.785 337.61,-242.678 337.189,-235.69"/>
<text text-anchor="start" x="345" y="-253.5" font-family="Helvetica,sans-Serif" font-size="10.00"> &lt; ConcreteObject, Polymorphic</text>
<text text-anchor="middle" x="422" y="-242.5" font-family="Helvetica,sans-Serif" font-size="10.00">Base &gt;</text>
</g>
<!-- Node17 -->
<g id="node17" class="node"><title>Node17</title>
<g id="a_node17"><a xlink:href="classgko_1_1EnableAbstractPolymorphicObject.html" target="_top" xlink:title="gko::EnableAbstractPolymorphic\lObject\&lt; ConcreteLinOp, Polymorphic\lBase \&gt;">
<polygon fill="white" stroke="black" points="518.5,-137 518.5,-178 712.5,-178 712.5,-137 518.5,-137"/>
<text text-anchor="start" x="526.5" y="-166" font-family="Helvetica,sans-Serif" font-size="10.00">gko::EnableAbstractPolymorphic</text>
<text text-anchor="start" x="526.5" y="-155" font-family="Helvetica,sans-Serif" font-size="10.00">Object&lt; ConcreteLinOp, Polymorphic</text>
<text text-anchor="middle" x="615.5" y="-144" font-family="Helvetica,sans-Serif" font-size="10.00">Base &gt;</text>
</a>
</g>
</g>
<!-- Node7&#45;&gt;Node17 -->
<g id="edge22" class="edge"><title>Node7&#45;&gt;Node17</title>
<path fill="none" stroke="orange" stroke-dasharray="5,2" d="M292.533,-221.399C309.321,-215.27 327.708,-209.12 345,-204.5 401.668,-189.36 466.381,-177.889 518.189,-170.071"/>
<polygon fill="orange" stroke="orange" points="291.01,-218.231 282.853,-224.993 293.446,-224.793 291.01,-218.231"/>
<text text-anchor="start" x="347" y="-218.5" font-family="Helvetica,sans-Serif" font-size="10.00"> &lt; ConcreteLinOp, Polymorphic</text>
<text text-anchor="middle" x="422" y="-207.5" font-family="Helvetica,sans-Serif" font-size="10.00">Base &gt;</text>
</g>
<!-- Node8 -->
<g id="node8" class="node"><title>Node8</title>
<polygon fill="white" stroke="#bfbfbf" points="0,-158 0,-177 99,-177 99,-158 0,-158"/>
<text text-anchor="middle" x="49.5" y="-165" font-family="Helvetica,sans-Serif" font-size="10.00">PolymorphicBase</text>
</g>
<!-- Node8&#45;&gt;Node7 -->
<g id="edge7" class="edge"><title>Node8&#45;&gt;Node7</title>
<path fill="none" stroke="midnightblue" d="M81.8444,-181.083C109.735,-193.168 150.939,-211.024 182.898,-224.872"/>
<polygon fill="midnightblue" stroke="midnightblue" points="83.1387,-177.829 72.5715,-177.064 80.3555,-184.252 83.1387,-177.829"/>
</g>
<!-- Node8&#45;&gt;Node10 -->
<g id="edge11" class="edge"><title>Node8&#45;&gt;Node10</title>
<path fill="none" stroke="midnightblue" d="M109.273,-163.602C195.567,-159.167 361.247,-155.556 499,-181.5 500.66,-181.813 529.098,-191.906 557.338,-201.998"/>
<polygon fill="midnightblue" stroke="midnightblue" points="108.948,-160.115 99.1496,-164.145 109.323,-167.104 108.948,-160.115"/>
</g>
<!-- Node8&#45;&gt;Node17 -->
<g id="edge21" class="edge"><title>Node8&#45;&gt;Node17</title>
<path fill="none" stroke="midnightblue" d="M98.9941,-156.078C105.028,-155.016 111.136,-154.111 117,-153.5 285.865,-135.917 329.248,-150.561 499,-153.5 505.319,-153.609 511.832,-153.752 518.395,-153.919"/>
<polygon fill="midnightblue" stroke="midnightblue" points="98.134,-152.679 88.966,-157.989 99.4444,-159.555 98.134,-152.679"/>
</g>
<!-- Node9 -->
<g id="node9" class="node"><title>Node9</title>
<g id="a_node9"><a xlink:href="classgko_1_1EnablePolymorphicObject.html" target="_top" xlink:title="This mixin inherits from (a subclass of) PolymorphicObject and provides a base implementation of a ne...">
<polygon fill="white" stroke="black" points="859,-207.5 859,-237.5 1061,-237.5 1061,-207.5 859,-207.5"/>
<text text-anchor="start" x="867" y="-225.5" font-family="Helvetica,sans-Serif" font-size="10.00">gko::EnablePolymorphicObject</text>
<text text-anchor="middle" x="960" y="-214.5" font-family="Helvetica,sans-Serif" font-size="10.00">&lt; ConcreteObject, PolymorphicBase &gt;</text>
</a>
</g>
</g>
<!-- Node9&#45;&gt;Node3 -->
<g id="edge9" class="edge"><title>Node9&#45;&gt;Node3</title>
<path fill="none" stroke="orange" stroke-dasharray="5,2" d="M1071.39,-223.419C1190.22,-224.409 1376.33,-225.958 1481.72,-226.836"/>
<polygon fill="orange" stroke="orange" points="1071.2,-219.918 1061.17,-223.334 1071.14,-226.917 1071.2,-219.918"/>
<text text-anchor="start" x="1296" y="-240.5" font-family="Helvetica,sans-Serif" font-size="10.00"> &lt; Cg&lt; ValueType &gt;,</text>
<text text-anchor="middle" x="1346" y="-229.5" font-family="Helvetica,sans-Serif" font-size="10.00"> LinOp &gt;</text>
</g>
<!-- Node16 -->
<g id="node16" class="node"><title>Node16</title>
<g id="a_node16"><a xlink:href="classgko_1_1EnablePolymorphicObject.html" target="_top" xlink:title="gko::EnablePolymorphicObject\l\&lt; ConcreteLinOp, PolymorphicBase \&gt;">
<polygon fill="white" stroke="black" points="1247,-145.5 1247,-175.5 1445,-175.5 1445,-145.5 1247,-145.5"/>
<text text-anchor="start" x="1255" y="-163.5" font-family="Helvetica,sans-Serif" font-size="10.00">gko::EnablePolymorphicObject</text>
<text text-anchor="middle" x="1346" y="-152.5" font-family="Helvetica,sans-Serif" font-size="10.00">&lt; ConcreteLinOp, PolymorphicBase &gt;</text>
</a>
</g>
</g>
<!-- Node9&#45;&gt;Node16 -->
<g id="edge23" class="edge"><title>Node9&#45;&gt;Node16</title>
<path fill="none" stroke="orange" stroke-dasharray="5,2" d="M1021.45,-204.871C1039.81,-199.991 1060.12,-195.061 1079,-191.5 1134.17,-181.092 1196.47,-173.606 1246.91,-168.601"/>
<polygon fill="orange" stroke="orange" points="1020.5,-201.502 1011.76,-207.49 1022.32,-208.26 1020.5,-201.502"/>
<text text-anchor="start" x="1079" y="-205.5" font-family="Helvetica,sans-Serif" font-size="10.00"> &lt; ConcreteLinOp, Polymorphic</text>
<text text-anchor="middle" x="1154" y="-194.5" font-family="Helvetica,sans-Serif" font-size="10.00">Base &gt;</text>
</g>
<!-- Node10&#45;&gt;Node9 -->
<g id="edge10" class="edge"><title>Node10&#45;&gt;Node9</title>
<path fill="none" stroke="midnightblue" d="M724.403,-222.5C767.4,-222.5 816.599,-222.5 858.801,-222.5"/>
<polygon fill="midnightblue" stroke="midnightblue" points="724.188,-219 714.188,-222.5 724.188,-226 724.188,-219"/>
</g>
<!-- Node11 -->
<g id="node11" class="node"><title>Node11</title>
<g id="a_node11"><a xlink:href="classgko_1_1EnablePolymorphicAssignment.html" target="_top" xlink:title="gko::EnablePolymorphicAssignment\l\&lt; Cg\&lt; ValueType \&gt; \&gt;">
<polygon fill="white" stroke="black" points="1252,-38.5 1252,-68.5 1440,-68.5 1440,-38.5 1252,-38.5"/>
<text text-anchor="start" x="1260" y="-56.5" font-family="Helvetica,sans-Serif" font-size="10.00">gko::EnablePolymorphicAssignment</text>
<text text-anchor="middle" x="1346" y="-45.5" font-family="Helvetica,sans-Serif" font-size="10.00">&lt; Cg&lt; ValueType &gt; &gt;</text>
</a>
</g>
</g>
<!-- Node11&#45;&gt;Node2 -->
<g id="edge13" class="edge"><title>Node11&#45;&gt;Node2</title>
<path fill="none" stroke="midnightblue" d="M1450.15,-69.3371C1551.91,-84.9617 1704.03,-108.319 1787.78,-121.177"/>
<polygon fill="midnightblue" stroke="midnightblue" points="1450.57,-65.8609 1440.15,-67.8027 1449.51,-72.7798 1450.57,-65.8609"/>
</g>
<!-- Node12 -->
<g id="node12" class="node"><title>Node12</title>
<g id="a_node12"><a xlink:href="classgko_1_1ConvertibleTo.html" target="_top" xlink:title="gko::ConvertibleTo\l\&lt; Cg\&lt; ValueType \&gt; \&gt;">
<polygon fill="white" stroke="black" points="899,-0.5 899,-30.5 1021,-30.5 1021,-0.5 899,-0.5"/>
<text text-anchor="start" x="907" y="-18.5" font-family="Helvetica,sans-Serif" font-size="10.00">gko::ConvertibleTo</text>
<text text-anchor="middle" x="960" y="-7.5" font-family="Helvetica,sans-Serif" font-size="10.00">&lt; Cg&lt; ValueType &gt; &gt;</text>
</a>
</g>
</g>
<!-- Node12&#45;&gt;Node11 -->
<g id="edge14" class="edge"><title>Node12&#45;&gt;Node11</title>
<path fill="none" stroke="midnightblue" d="M1031.48,-22.4745C1093.34,-28.5962 1183.78,-37.5457 1251.64,-44.2614"/>
<polygon fill="midnightblue" stroke="midnightblue" points="1031.72,-18.9812 1021.42,-21.4793 1031.03,-25.9472 1031.72,-18.9812"/>
</g>
<!-- Node13 -->
<g id="node13" class="node"><title>Node13</title>
<g id="a_node13"><a xlink:href="classgko_1_1ConvertibleTo.html" target="_top" xlink:title="ConvertibleTo interface is used to mark that the implementer can be converted to the object of Result...">
<polygon fill="white" stroke="black" points="563.5,-49.5 563.5,-79.5 667.5,-79.5 667.5,-49.5 563.5,-49.5"/>
<text text-anchor="start" x="571.5" y="-67.5" font-family="Helvetica,sans-Serif" font-size="10.00">gko::ConvertibleTo</text>
<text text-anchor="middle" x="615.5" y="-56.5" font-family="Helvetica,sans-Serif" font-size="10.00">&lt; ResultType &gt;</text>
</a>
</g>
</g>
<!-- Node13&#45;&gt;Node12 -->
<g id="edge15" class="edge"><title>Node13&#45;&gt;Node12</title>
<path fill="none" stroke="orange" stroke-dasharray="5,2" d="M677.885,-55.7179C740.367,-46.7788 836.62,-33.0084 898.705,-24.1261"/>
<polygon fill="orange" stroke="orange" points="677.179,-52.2832 667.776,-57.1642 678.171,-59.2126 677.179,-52.2832"/>
<text text-anchor="middle" x="786.5" y="-50.5" font-family="Helvetica,sans-Serif" font-size="10.00"> &lt; Cg&lt; ValueType &gt; &gt;</text>
</g>
<!-- Node14 -->
<g id="node14" class="node"><title>Node14</title>
<g id="a_node14"><a xlink:href="classgko_1_1EnablePolymorphicAssignment.html" target="_top" xlink:title="This mixin is used to enable a default PolymorphicObject::copy_from() implementation for objects that...">
<polygon fill="white" stroke="black" points="866,-49.5 866,-79.5 1054,-79.5 1054,-49.5 866,-49.5"/>
<text text-anchor="start" x="874" y="-67.5" font-family="Helvetica,sans-Serif" font-size="10.00">gko::EnablePolymorphicAssignment</text>
<text text-anchor="middle" x="960" y="-56.5" font-family="Helvetica,sans-Serif" font-size="10.00">&lt; ConcreteType, ResultType &gt;</text>
</a>
</g>
</g>
<!-- Node13&#45;&gt;Node14 -->
<g id="edge17" class="edge"><title>Node13&#45;&gt;Node14</title>
<path fill="none" stroke="midnightblue" d="M677.912,-64.5C730.23,-64.5 806.211,-64.5 865.99,-64.5"/>
<polygon fill="midnightblue" stroke="midnightblue" points="677.776,-61.0001 667.776,-64.5 677.776,-68.0001 677.776,-61.0001"/>
</g>
<!-- Node19 -->
<g id="node19" class="node"><title>Node19</title>
<g id="a_node19"><a xlink:href="classgko_1_1ConvertibleTo.html" target="_top" xlink:title="gko::ConvertibleTo\l\&lt; ConcreteLinOp \&gt;">
<polygon fill="white" stroke="black" points="905,-98.5 905,-128.5 1015,-128.5 1015,-98.5 905,-98.5"/>
<text text-anchor="start" x="913" y="-116.5" font-family="Helvetica,sans-Serif" font-size="10.00">gko::ConvertibleTo</text>
<text text-anchor="middle" x="960" y="-105.5" font-family="Helvetica,sans-Serif" font-size="10.00">&lt; ConcreteLinOp &gt;</text>
</a>
</g>
</g>
<!-- Node13&#45;&gt;Node19 -->
<g id="edge26" class="edge"><title>Node13&#45;&gt;Node19</title>
<path fill="none" stroke="orange" stroke-dasharray="5,2" d="M677.817,-73.2724C742.389,-82.5105 843.082,-96.9162 904.825,-105.749"/>
<polygon fill="orange" stroke="orange" points="678.171,-69.7874 667.776,-71.8358 677.179,-76.7168 678.171,-69.7874"/>
<text text-anchor="middle" x="786.5" y="-99.5" font-family="Helvetica,sans-Serif" font-size="10.00"> &lt; ConcreteLinOp &gt;</text>
</g>
<!-- Node14&#45;&gt;Node11 -->
<g id="edge16" class="edge"><title>Node14&#45;&gt;Node11</title>
<path fill="none" stroke="orange" stroke-dasharray="5,2" d="M1064.29,-55.2633C1069.26,-54.9706 1074.18,-54.7128 1079,-54.5 1136.32,-51.9674 1200.66,-51.6577 1251.71,-52.0096"/>
<polygon fill="orange" stroke="orange" points="1063.79,-51.7874 1054.03,-55.9098 1064.23,-58.7735 1063.79,-51.7874"/>
<text text-anchor="middle" x="1154" y="-57.5" font-family="Helvetica,sans-Serif" font-size="10.00"> &lt; Cg&lt; ValueType &gt; &gt;</text>
</g>
<!-- Node18 -->
<g id="node18" class="node"><title>Node18</title>
<g id="a_node18"><a xlink:href="classgko_1_1EnablePolymorphicAssignment.html" target="_top" xlink:title="gko::EnablePolymorphicAssignment\l\&lt; ConcreteLinOp \&gt;">
<polygon fill="white" stroke="black" points="1252,-96.5 1252,-126.5 1440,-126.5 1440,-96.5 1252,-96.5"/>
<text text-anchor="start" x="1260" y="-114.5" font-family="Helvetica,sans-Serif" font-size="10.00">gko::EnablePolymorphicAssignment</text>
<text text-anchor="middle" x="1346" y="-103.5" font-family="Helvetica,sans-Serif" font-size="10.00">&lt; ConcreteLinOp &gt;</text>
</a>
</g>
</g>
<!-- Node14&#45;&gt;Node18 -->
<g id="edge27" class="edge"><title>Node14&#45;&gt;Node18</title>
<path fill="none" stroke="orange" stroke-dasharray="5,2" d="M1064.43,-77.1596C1122.81,-84.3052 1195.18,-93.1632 1251.8,-100.093"/>
<polygon fill="orange" stroke="orange" points="1064.8,-73.6783 1054.45,-75.9374 1063.95,-80.6264 1064.8,-73.6783"/>
<text text-anchor="middle" x="1154" y="-99.5" font-family="Helvetica,sans-Serif" font-size="10.00"> &lt; ConcreteLinOp &gt;</text>
</g>
<!-- Node15 -->
<g id="node15" class="node"><title>Node15</title>
<g id="a_node15"><a xlink:href="classgko_1_1EnableLinOp.html" target="_top" xlink:title="The EnableLinOp mixin can be used to provide sensible default implementations of the majority of the ...">
<polygon fill="white" stroke="black" points="1485.5,-115.5 1485.5,-145.5 1639.5,-145.5 1639.5,-115.5 1485.5,-115.5"/>
<text text-anchor="start" x="1493.5" y="-133.5" font-family="Helvetica,sans-Serif" font-size="10.00">gko::EnableLinOp&lt; Concrete</text>
<text text-anchor="middle" x="1562.5" y="-122.5" font-family="Helvetica,sans-Serif" font-size="10.00">LinOp, PolymorphicBase &gt;</text>
</a>
</g>
</g>
<!-- Node15&#45;&gt;Node2 -->
<g id="edge18" class="edge"><title>Node15&#45;&gt;Node2</title>
<path fill="none" stroke="orange" stroke-dasharray="5,2" d="M1649.73,-130.5C1694.2,-130.5 1747.39,-130.5 1787.56,-130.5"/>
<polygon fill="orange" stroke="orange" points="1649.5,-127 1639.5,-130.5 1649.5,-134 1649.5,-127"/>
<text text-anchor="middle" x="1715.5" y="-133.5" font-family="Helvetica,sans-Serif" font-size="10.00"> &lt; Cg&lt; ValueType &gt; &gt;</text>
</g>
<!-- Node16&#45;&gt;Node15 -->
<g id="edge19" class="edge"><title>Node16&#45;&gt;Node15</title>
<path fill="none" stroke="midnightblue" d="M1455.26,-145.358C1465.39,-143.942 1475.5,-142.527 1485.24,-141.165"/>
<polygon fill="midnightblue" stroke="midnightblue" points="1454.57,-141.922 1445.15,-146.773 1455.54,-148.854 1454.57,-141.922"/>
</g>
<!-- Node17&#45;&gt;Node16 -->
<g id="edge20" class="edge"><title>Node17&#45;&gt;Node16</title>
<path fill="none" stroke="midnightblue" d="M723.243,-157.94C864.179,-158.52 1110.39,-159.534 1246.87,-160.096"/>
<polygon fill="midnightblue" stroke="midnightblue" points="722.878,-154.438 712.863,-157.897 722.849,-161.438 722.878,-154.438"/>
</g>
<!-- Node18&#45;&gt;Node15 -->
<g id="edge24" class="edge"><title>Node18&#45;&gt;Node15</title>
<path fill="none" stroke="midnightblue" d="M1450.41,-120.66C1462.13,-121.698 1473.9,-122.741 1485.18,-123.739"/>
<polygon fill="midnightblue" stroke="midnightblue" points="1450.42,-117.147 1440.15,-119.751 1449.8,-124.12 1450.42,-117.147"/>
</g>
<!-- Node19&#45;&gt;Node18 -->
<g id="edge25" class="edge"><title>Node19&#45;&gt;Node18</title>
<path fill="none" stroke="midnightblue" d="M1025.24,-113.165C1087.2,-112.843 1181.65,-112.351 1251.86,-111.985"/>
<polygon fill="midnightblue" stroke="midnightblue" points="1025.18,-109.666 1015.2,-113.218 1025.22,-116.665 1025.18,-109.666"/>
</g>
<!-- Node20 -->
<g id="node20" class="node"><title>Node20</title>
<g id="a_node20"><a xlink:href="classgko_1_1Preconditionable.html" target="_top" xlink:title="A LinOp implementing this interface can be preconditioned. ">
<polygon fill="white" stroke="black" points="1790,-77 1790,-96 1909,-96 1909,-77 1790,-77"/>
<text text-anchor="middle" x="1849.5" y="-84" font-family="Helvetica,sans-Serif" font-size="10.00">gko::Preconditionable</text>
</a>
</g>
</g>
<!-- Node20&#45;&gt;Node1 -->
<g id="edge28" class="edge"><title>Node20&#45;&gt;Node1</title>
<path fill="none" stroke="midnightblue" d="M1919.31,-93.1846C1928.71,-94.0971 1938.4,-95.0389 1947.94,-95.9652"/>
<polygon fill="midnightblue" stroke="midnightblue" points="1919.55,-89.6914 1909.26,-92.208 1918.87,-96.6586 1919.55,-89.6914"/>
</g>
</g>
</svg>
        <g id="navigator" transform="translate(0 0)" fill="#404254">
                <rect fill="#f2f5e9" fill-opacity="0.5" stroke="#606060" stroke-width=".5" x="0" y="0" width="60" height="60"/>
                <use id="zoomplus" xlink:href="#zoomPlus" x="17" y="9" onmousedown="handleZoom(evt,'in')"/>
                <use id="zoomminus" xlink:href="#zoomMin" x="42" y="9" onmousedown="handleZoom(evt,'out')"/>
                <use id="reset" xlink:href="#resetDef" x="30" y="36" onmousedown="handleReset()"/>
                <g id="arrowUp" xlink:href="#dirArrow" transform="translate(30 24)" onmousedown="handlePan(0,-1)">
                  <use xlink:href="#rim" fill="#404040">
                        <set attributeName="fill" to="#808080" begin="arrowUp.mouseover" end="arrowUp.mouseout"/>
                  </use>
                  <path fill="none" stroke="white" stroke-width="1.5" d="M0,-3.0v7 M-2.5,-0.5L0,-3.0L2.5,-0.5"/>
                </g>
                <g id="arrowRight" xlink:href="#dirArrow" transform="rotate(90) translate(36 -43)" onmousedown="handlePan(1,0)">
                  <use xlink:href="#rim" fill="#404040">
                        <set attributeName="fill" to="#808080" begin="arrowRight.mouseover" end="arrowRight.mouseout"/>
                  </use>
                  <path fill="none" stroke="white" stroke-width="1.5" d="M0,-3.0v7 M-2.5,-0.5L0,-3.0L2.5,-0.5"/>
                </g>
                <g id="arrowDown" xlink:href="#dirArrow" transform="rotate(180) translate(-30 -48)" onmousedown="handlePan(0,1)">
                  <use xlink:href="#rim" fill="#404040">
                        <set attributeName="fill" to="#808080" begin="arrowDown.mouseover" end="arrowDown.mouseout"/>
                  </use>
                  <path fill="none" stroke="white" stroke-width="1.5" d="M0,-3.0v7 M-2.5,-0.5L0,-3.0L2.5,-0.5"/>
                </g>
                <g id="arrowLeft" xlink:href="#dirArrow" transform="rotate(270) translate(-36 17)" onmousedown="handlePan(-1,0)">
                  <use xlink:href="#rim" fill="#404040">
                        <set attributeName="fill" to="#808080" begin="arrowLeft.mouseover" end="arrowLeft.mouseout"/>
                  </use>
                  <path fill="none" stroke="white" stroke-width="1.5" d="M0,-3.0v7 M-2.5,-0.5L0,-3.0L2.5,-0.5"/>
                </g>
        </g>
        <svg viewBox="0 0 15 15" width="100%" height="30px" preserveAspectRatio="xMaxYMin meet">
         <g id="arrow_out" transform="scale(0.3 0.3)">
          <a xlink:href="classgko_1_1solver_1_1Cg__coll__graph_org.svg" target="_base">
           <rect id="button" ry="5" rx="5" y="6" x="6" height="38" width="38"
                fill="#f2f5e9" fill-opacity="0.5" stroke="#606060" stroke-width="1.0"/>
           <path id="arrow"
             d="M 11.500037,31.436501 C 11.940474,20.09759 22.043105,11.32322 32.158766,21.979434 L 37.068811,17.246167 C 37.068811,17.246167 37.088388,32 37.088388,32 L 22.160133,31.978069 C 22.160133,31.978069 26.997745,27.140456 26.997745,27.140456 C 18.528582,18.264221 13.291696,25.230495 11.500037,31.436501 z"
             style="fill:#404040;"/>
          </a>
         </g>
        </svg>
</svg>
