<?xml version="1.0" encoding="UTF-8" standalone="no"?>
<!DOCTYPE svg PUBLIC "-//W3C//DTD SVG 1.1//EN"
 "http://www.w3.org/Graphics/SVG/1.1/DTD/svg11.dtd">
<!-- Generated by graphviz version 2.38.0 (20140413.2041)
 -->
<!-- Title: gko::matrix::Ell&lt; ValueType, IndexType &gt; Pages: 1 -->
<!--zoomable 383 -->
<svg id="main" version="1.1" xmlns="http://www.w3.org/2000/svg" xmlns:xlink="http://www.w3.org/1999/xlink" xml:space="preserve" onload="init(evt)">
<style type="text/css"><![CDATA[
.edge:hover path { stroke: red; }
.edge:hover polygon { stroke: red; fill: red; }
]]></style>
<script type="text/javascript"><![CDATA[
var edges = document.getElementsByTagName('g');
if (edges && edges.length) {
  for (var i=0;i<edges.length;i++) {
    if (edges[i].id.substr(0,4)=='edge') {
      edges[i].setAttribute('class','edge');
    }
  }
}
]]></script>
        <defs>
                <circle id="rim" cx="0" cy="0" r="7"/>
                <circle id="rim2" cx="0" cy="0" r="3.5"/>
                <g id="zoomPlus">
                        <use xlink:href="#rim" fill="#404040">
                                <set attributeName="fill" to="#808080" begin="zoomplus.mouseover" end="zoomplus.mouseout"/>
                        </use>
                        <path d="M-4,0h8M0,-4v8" fill="none" stroke="white" stroke-width="1.5" pointer-events="none"/>
                </g>
                <g id="zoomMin">
                        <use xlink:href="#rim" fill="#404040">
                                <set attributeName="fill" to="#808080" begin="zoomminus.mouseover" end="zoomminus.mouseout"/>
                        </use>
                        <path d="M-4,0h8" fill="none" stroke="white" stroke-width="1.5" pointer-events="none"/>
                </g>
                <g id="dirArrow">
                        <path fill="none" stroke="white" stroke-width="1.5" d="M0,-3.0v7 M-2.5,-0.5L0,-3.0L2.5,-0.5"/>
                </g>
               <g id="resetDef">
                       <use xlink:href="#rim2" fill="#404040">
                               <set attributeName="fill" to="#808080" begin="reset.mouseover" end="reset.mouseout"/>
                       </use>
               </g>
        </defs>

<script type="text/javascript">
var viewWidth = 2263;
var viewHeight = 383;
var sectionId = 'dynsection-0';
</script>
<script xlink:href="svgpan.js"/>
<svg id="graph" class="graph">
<g id="viewport">
<title>gko::matrix::Ell&lt; ValueType, IndexType &gt;</title>
<polygon fill="white" stroke="none" points="-4,4 -4,-379 2259,-379 2259,4 -4,4"/>
<!-- Node1 -->
<g id="node1" class="node"><title>Node1</title>
<polygon fill="#bfbfbf" stroke="black" points="2106,-140.5 2106,-170.5 2255,-170.5 2255,-140.5 2106,-140.5"/>
<text text-anchor="start" x="2114" y="-158.5" font-family="Helvetica,sans-Serif" font-size="10.00">gko::matrix::Ell&lt; ValueType,</text>
<text text-anchor="middle" x="2180.5" y="-147.5" font-family="Helvetica,sans-Serif" font-size="10.00"> IndexType &gt;</text>
</g>
<!-- Node2 -->
<g id="node2" class="node"><title>Node2</title>
<g id="a_node2"><a xlink:href="classgko_1_1EnableLinOp.html" target="_top" xlink:title="gko::EnableLinOp\&lt; Ell\l\&lt; ValueType, IndexType \&gt; \&gt;">
<polygon fill="white" stroke="black" points="1908,-189.5 1908,-219.5 2058,-219.5 2058,-189.5 1908,-189.5"/>
<text text-anchor="start" x="1916" y="-207.5" font-family="Helvetica,sans-Serif" font-size="10.00">gko::EnableLinOp&lt; Ell</text>
<text text-anchor="middle" x="1983" y="-196.5" font-family="Helvetica,sans-Serif" font-size="10.00">&lt; ValueType, IndexType &gt; &gt;</text>
</a>
</g>
</g>
<!-- Node2&#45;&gt;Node1 -->
<g id="edge1" class="edge"><title>Node2&#45;&gt;Node1</title>
<path fill="none" stroke="midnightblue" d="M2053.73,-187.023C2075.28,-181.623 2098.81,-175.724 2119.63,-170.506"/>
<polygon fill="midnightblue" stroke="midnightblue" points="2052.83,-183.639 2043.99,-189.465 2054.54,-190.429 2052.83,-183.639"/>
</g>
<!-- Node3 -->
<g id="node3" class="node"><title>Node3</title>
<g id="a_node3"><a xlink:href="classgko_1_1EnablePolymorphicObject.html" target="_top" xlink:title="gko::EnablePolymorphicObject\l\&lt; Ell\&lt; ValueType, IndexType\l \&gt;, LinOp \&gt;">
<polygon fill="white" stroke="black" points="1541,-100 1541,-141 1702,-141 1702,-100 1541,-100"/>
<text text-anchor="start" x="1549" y="-129" font-family="Helvetica,sans-Serif" font-size="10.00">gko::EnablePolymorphicObject</text>
<text text-anchor="start" x="1549" y="-118" font-family="Helvetica,sans-Serif" font-size="10.00">&lt; Ell&lt; ValueType, IndexType</text>
<text text-anchor="middle" x="1621.5" y="-107" font-family="Helvetica,sans-Serif" font-size="10.00"> &gt;, LinOp &gt;</text>
</a>
</g>
</g>
<!-- Node3&#45;&gt;Node2 -->
<g id="edge2" class="edge"><title>Node3&#45;&gt;Node2</title>
<path fill="none" stroke="midnightblue" d="M1712.35,-141.495C1776.23,-156.42 1860.5,-176.111 1917.71,-189.479"/>
<polygon fill="midnightblue" stroke="midnightblue" points="1712.82,-138.009 1702.28,-139.142 1711.23,-144.826 1712.82,-138.009"/>
</g>
<!-- Node4 -->
<g id="node4" class="node"><title>Node4</title>
<g id="a_node4"><a xlink:href="classgko_1_1EnableAbstractPolymorphicObject.html" target="_top" xlink:title="gko::EnableAbstractPolymorphic\lObject\&lt; Ell\&lt; ValueType, IndexType\l \&gt;, LinOp \&gt;">
<polygon fill="white" stroke="black" points="1315,-34 1315,-75 1495,-75 1495,-34 1315,-34"/>
<text text-anchor="start" x="1323" y="-63" font-family="Helvetica,sans-Serif" font-size="10.00">gko::EnableAbstractPolymorphic</text>
<text text-anchor="start" x="1323" y="-52" font-family="Helvetica,sans-Serif" font-size="10.00">Object&lt; Ell&lt; ValueType, IndexType</text>
<text text-anchor="middle" x="1405" y="-41" font-family="Helvetica,sans-Serif" font-size="10.00"> &gt;, LinOp &gt;</text>
</a>
</g>
</g>
<!-- Node4&#45;&gt;Node3 -->
<g id="edge3" class="edge"><title>Node4&#45;&gt;Node3</title>
<path fill="none" stroke="midnightblue" d="M1482.54,-78.0496C1505.84,-85.2196 1531.25,-93.0395 1553.85,-99.9917"/>
<polygon fill="midnightblue" stroke="midnightblue" points="1483.28,-74.6167 1472.69,-75.021 1481.22,-81.3072 1483.28,-74.6167"/>
</g>
<!-- Node5 -->
<g id="node5" class="node"><title>Node5</title>
<g id="a_node5"><a xlink:href="classgko_1_1LinOp.html" target="_top" xlink:title="The linear operator (LinOp) is a base class for all linear algebra objects in Ginkgo. ">
<polygon fill="white" stroke="black" points="976.5,-10 976.5,-29 1043.5,-29 1043.5,-10 976.5,-10"/>
<text text-anchor="middle" x="1010" y="-17" font-family="Helvetica,sans-Serif" font-size="10.00">gko::LinOp</text>
</a>
</g>
</g>
<!-- Node5&#45;&gt;Node4 -->
<g id="edge4" class="edge"><title>Node5&#45;&gt;Node4</title>
<path fill="none" stroke="midnightblue" d="M1054.1,-23.3383C1116.52,-28.8974 1233.51,-39.3163 1314.95,-46.5689"/>
<polygon fill="midnightblue" stroke="midnightblue" points="1054.1,-19.8248 1043.83,-22.4239 1053.48,-26.7972 1054.1,-19.8248"/>
</g>
<!-- Node6 -->
<g id="node6" class="node"><title>Node6</title>
<g id="a_node6"><a xlink:href="classgko_1_1EnableAbstractPolymorphicObject.html" target="_top" xlink:title="gko::EnableAbstractPolymorphic\lObject\&lt; LinOp \&gt;">
<polygon fill="white" stroke="red" points="530,-0.5 530,-30.5 701,-30.5 701,-0.5 530,-0.5"/>
<text text-anchor="start" x="538" y="-18.5" font-family="Helvetica,sans-Serif" font-size="10.00">gko::EnableAbstractPolymorphic</text>
<text text-anchor="middle" x="615.5" y="-7.5" font-family="Helvetica,sans-Serif" font-size="10.00">Object&lt; LinOp &gt;</text>
</a>
</g>
</g>
<!-- Node6&#45;&gt;Node5 -->
<g id="edge5" class="edge"><title>Node6&#45;&gt;Node5</title>
<path fill="none" stroke="midnightblue" d="M711.2,-16.4651C796.995,-17.3394 918.531,-18.578 976.194,-19.1657"/>
<polygon fill="midnightblue" stroke="midnightblue" points="711.219,-12.9652 701.183,-16.363 711.147,-19.9648 711.219,-12.9652"/>
</g>
<!-- Node7 -->
<g id="node7" class="node"><title>Node7</title>
<g id="a_node7"><a xlink:href="classgko_1_1EnableAbstractPolymorphicObject.html" target="_top" xlink:title="This mixin inherits from (a subclass of) PolymorphicObject and provides a base implementation of a ne...">
<polygon fill="white" stroke="black" points="136,-60 136,-101 327,-101 327,-60 136,-60"/>
<text text-anchor="start" x="144" y="-89" font-family="Helvetica,sans-Serif" font-size="10.00">gko::EnableAbstractPolymorphic</text>
<text text-anchor="start" x="144" y="-78" font-family="Helvetica,sans-Serif" font-size="10.00">Object&lt; AbstactObject, Polymorphic</text>
<text text-anchor="middle" x="231.5" y="-67" font-family="Helvetica,sans-Serif" font-size="10.00">Base &gt;</text>
</a>
</g>
</g>
<!-- Node7&#45;&gt;Node4 -->
<g id="edge8" class="edge"><title>Node7&#45;&gt;Node4</title>
<path fill="none" stroke="orange" stroke-dasharray="5,2" d="M337.667,-78.166C565.636,-73.1065 1101.9,-61.2048 1314.7,-56.4818"/>
<polygon fill="orange" stroke="orange" points="337.296,-74.6732 327.376,-78.3943 337.452,-81.6715 337.296,-74.6732"/>
<text text-anchor="start" x="743.5" y="-83.5" font-family="Helvetica,sans-Serif" font-size="10.00"> &lt; Ell&lt; ValueType, IndexType</text>
<text text-anchor="middle" x="811.5" y="-72.5" font-family="Helvetica,sans-Serif" font-size="10.00"> &gt;, LinOp &gt;</text>
</g>
<!-- Node7&#45;&gt;Node6 -->
<g id="edge6" class="edge"><title>Node7&#45;&gt;Node6</title>
<path fill="none" stroke="orange" stroke-dasharray="5,2" d="M283.01,-55.8506C302.01,-47.6551 324.081,-39.3818 345,-34.5 405.75,-20.3228 476.119,-15.7482 529.714,-14.6252"/>
<polygon fill="orange" stroke="orange" points="281.395,-52.7376 273.663,-59.9812 284.225,-59.1403 281.395,-52.7376"/>
<text text-anchor="middle" x="422" y="-37.5" font-family="Helvetica,sans-Serif" font-size="10.00"> &lt; LinOp &gt;</text>
</g>
<!-- Node10 -->
<g id="node10" class="node"><title>Node10</title>
<g id="a_node10"><a xlink:href="classgko_1_1EnableAbstractPolymorphicObject.html" target="_top" xlink:title="gko::EnableAbstractPolymorphic\lObject\&lt; ConcreteObject, Polymorphic\lBase \&gt;">
<polygon fill="white" stroke="black" points="517,-97 517,-138 714,-138 714,-97 517,-97"/>
<text text-anchor="start" x="525" y="-126" font-family="Helvetica,sans-Serif" font-size="10.00">gko::EnableAbstractPolymorphic</text>
<text text-anchor="start" x="525" y="-115" font-family="Helvetica,sans-Serif" font-size="10.00">Object&lt; ConcreteObject, Polymorphic</text>
<text text-anchor="middle" x="615.5" y="-104" font-family="Helvetica,sans-Serif" font-size="10.00">Base &gt;</text>
</a>
</g>
</g>
<!-- Node7&#45;&gt;Node10 -->
<g id="edge12" class="edge"><title>Node7&#45;&gt;Node10</title>
<path fill="none" stroke="orange" stroke-dasharray="5,2" d="M337.197,-81.8331C386.455,-83.4243 445.909,-86.7312 499,-93.5 506.517,-94.4584 514.274,-95.641 522.044,-96.9632"/>
<polygon fill="orange" stroke="orange" points="337.269,-78.3337 327.167,-81.5281 337.056,-85.3305 337.269,-78.3337"/>
<text text-anchor="start" x="345" y="-107.5" font-family="Helvetica,sans-Serif" font-size="10.00"> &lt; ConcreteObject, Polymorphic</text>
<text text-anchor="middle" x="422" y="-96.5" font-family="Helvetica,sans-Serif" font-size="10.00">Base &gt;</text>
</g>
<!-- Node17 -->
<g id="node17" class="node"><title>Node17</title>
<g id="a_node17"><a xlink:href="classgko_1_1EnableAbstractPolymorphicObject.html" target="_top" xlink:title="gko::EnableAbstractPolymorphic\lObject\&lt; ConcreteLinOp, Polymorphic\lBase \&gt;">
<polygon fill="white" stroke="black" points="518.5,-161 518.5,-202 712.5,-202 712.5,-161 518.5,-161"/>
<text text-anchor="start" x="526.5" y="-190" font-family="Helvetica,sans-Serif" font-size="10.00">gko::EnableAbstractPolymorphic</text>
<text text-anchor="start" x="526.5" y="-179" font-family="Helvetica,sans-Serif" font-size="10.00">Object&lt; ConcreteLinOp, Polymorphic</text>
<text text-anchor="middle" x="615.5" y="-168" font-family="Helvetica,sans-Serif" font-size="10.00">Base &gt;</text>
</a>
</g>
</g>
<!-- Node7&#45;&gt;Node17 -->
<g id="edge22" class="edge"><title>Node7&#45;&gt;Node17</title>
<path fill="none" stroke="orange" stroke-dasharray="5,2" d="M297.404,-104.331C312.898,-109.649 329.452,-115.031 345,-119.5 401.985,-135.881 466.709,-150.886 518.444,-162.031"/>
<polygon fill="orange" stroke="orange" points="298.507,-101.01 287.913,-101.037 296.212,-107.623 298.507,-101.01"/>
<text text-anchor="start" x="347" y="-172.5" font-family="Helvetica,sans-Serif" font-size="10.00"> &lt; ConcreteLinOp, Polymorphic</text>
<text text-anchor="middle" x="422" y="-161.5" font-family="Helvetica,sans-Serif" font-size="10.00">Base &gt;</text>
</g>
<!-- Node8 -->
<g id="node8" class="node"><title>Node8</title>
<polygon fill="white" stroke="#bfbfbf" points="0,-120 0,-139 99,-139 99,-120 0,-120"/>
<text text-anchor="middle" x="49.5" y="-127" font-family="Helvetica,sans-Serif" font-size="10.00">PolymorphicBase</text>
</g>
<!-- Node8&#45;&gt;Node7 -->
<g id="edge7" class="edge"><title>Node8&#45;&gt;Node7</title>
<path fill="none" stroke="midnightblue" d="M95.5298,-117.242C113.493,-112.352 134.673,-106.586 154.864,-101.09"/>
<polygon fill="midnightblue" stroke="midnightblue" points="94.3626,-113.932 85.6331,-119.936 96.2013,-120.686 94.3626,-113.932"/>
</g>
<!-- Node8&#45;&gt;Node10 -->
<g id="edge11" class="edge"><title>Node8&#45;&gt;Node10</title>
<path fill="none" stroke="midnightblue" d="M109.242,-128.25C205.855,-126.195 399.276,-122.079 516.774,-119.579"/>
<polygon fill="midnightblue" stroke="midnightblue" points="108.998,-124.754 99.0745,-128.467 109.147,-131.753 108.998,-124.754"/>
</g>
<!-- Node8&#45;&gt;Node17 -->
<g id="edge21" class="edge"><title>Node8&#45;&gt;Node17</title>
<path fill="none" stroke="midnightblue" d="M108.841,-140.942C111.599,-141.472 114.329,-141.993 117,-142.5 218.23,-161.718 242.389,-175.128 345,-184.5 413.161,-190.726 430.561,-185.389 499,-184.5 505.318,-184.418 511.83,-184.311 518.392,-184.186"/>
<polygon fill="midnightblue" stroke="midnightblue" points="109.277,-137.462 98.7948,-139.005 107.951,-144.335 109.277,-137.462"/>
</g>
<!-- Node9 -->
<g id="node9" class="node"><title>Node9</title>
<g id="a_node9"><a xlink:href="classgko_1_1EnablePolymorphicObject.html" target="_top" xlink:title="This mixin inherits from (a subclass of) PolymorphicObject and provides a base implementation of a ne...">
<polygon fill="white" stroke="black" points="909,-102.5 909,-132.5 1111,-132.5 1111,-102.5 909,-102.5"/>
<text text-anchor="start" x="917" y="-120.5" font-family="Helvetica,sans-Serif" font-size="10.00">gko::EnablePolymorphicObject</text>
<text text-anchor="middle" x="1010" y="-109.5" font-family="Helvetica,sans-Serif" font-size="10.00">&lt; ConcreteObject, PolymorphicBase &gt;</text>
</a>
</g>
</g>
<!-- Node9&#45;&gt;Node3 -->
<g id="edge9" class="edge"><title>Node9&#45;&gt;Node3</title>
<path fill="none" stroke="orange" stroke-dasharray="5,2" d="M1121.35,-118.043C1242.43,-118.639 1433.8,-119.581 1541,-120.109"/>
<polygon fill="orange" stroke="orange" points="1121.32,-114.543 1111.31,-117.994 1121.29,-121.543 1121.32,-114.543"/>
<text text-anchor="start" x="1337" y="-134.5" font-family="Helvetica,sans-Serif" font-size="10.00"> &lt; Ell&lt; ValueType, IndexType</text>
<text text-anchor="middle" x="1405" y="-123.5" font-family="Helvetica,sans-Serif" font-size="10.00"> &gt;, LinOp &gt;</text>
</g>
<!-- Node16 -->
<g id="node16" class="node"><title>Node16</title>
<g id="a_node16"><a xlink:href="classgko_1_1EnablePolymorphicObject.html" target="_top" xlink:title="gko::EnablePolymorphicObject\l\&lt; ConcreteLinOp, PolymorphicBase \&gt;">
<polygon fill="white" stroke="black" points="1306,-164.5 1306,-194.5 1504,-194.5 1504,-164.5 1306,-164.5"/>
<text text-anchor="start" x="1314" y="-182.5" font-family="Helvetica,sans-Serif" font-size="10.00">gko::EnablePolymorphicObject</text>
<text text-anchor="middle" x="1405" y="-171.5" font-family="Helvetica,sans-Serif" font-size="10.00">&lt; ConcreteLinOp, PolymorphicBase &gt;</text>
</a>
</g>
</g>
<!-- Node9&#45;&gt;Node16 -->
<g id="edge23" class="edge"><title>Node9&#45;&gt;Node16</title>
<path fill="none" stroke="orange" stroke-dasharray="5,2" d="M1121.09,-123.943C1172.17,-128.128 1233.52,-134.857 1288,-145.5 1312.1,-150.208 1338.4,-157.714 1359.86,-164.478"/>
<polygon fill="orange" stroke="orange" points="1121.26,-120.446 1111.01,-123.14 1120.7,-127.424 1121.26,-120.446"/>
<text text-anchor="start" x="1133.5" y="-159.5" font-family="Helvetica,sans-Serif" font-size="10.00"> &lt; ConcreteLinOp, Polymorphic</text>
<text text-anchor="middle" x="1208.5" y="-148.5" font-family="Helvetica,sans-Serif" font-size="10.00">Base &gt;</text>
</g>
<!-- Node10&#45;&gt;Node9 -->
<g id="edge10" class="edge"><title>Node10&#45;&gt;Node9</title>
<path fill="none" stroke="midnightblue" d="M724.266,-117.5C781.919,-117.5 852.457,-117.5 908.901,-117.5"/>
<polygon fill="midnightblue" stroke="midnightblue" points="724.027,-114 714.027,-117.5 724.027,-121 724.027,-114"/>
</g>
<!-- Node11 -->
<g id="node11" class="node"><title>Node11</title>
<g id="a_node11"><a xlink:href="classgko_1_1EnablePolymorphicAssignment.html" target="_top" xlink:title="gko::EnablePolymorphicAssignment\l\&lt; Ell\&lt; ValueType, IndexType \&gt; \&gt;">
<polygon fill="white" stroke="black" points="1311,-213.5 1311,-243.5 1499,-243.5 1499,-213.5 1311,-213.5"/>
<text text-anchor="start" x="1319" y="-231.5" font-family="Helvetica,sans-Serif" font-size="10.00">gko::EnablePolymorphicAssignment</text>
<text text-anchor="middle" x="1405" y="-220.5" font-family="Helvetica,sans-Serif" font-size="10.00">&lt; Ell&lt; ValueType, IndexType &gt; &gt;</text>
</a>
</g>
</g>
<!-- Node11&#45;&gt;Node2 -->
<g id="edge13" class="edge"><title>Node11&#45;&gt;Node2</title>
<path fill="none" stroke="midnightblue" d="M1509.38,-224.192C1624.09,-219.413 1806.33,-211.819 1907.74,-207.594"/>
<polygon fill="midnightblue" stroke="midnightblue" points="1509.03,-220.704 1499.18,-224.617 1509.32,-227.698 1509.03,-220.704"/>
</g>
<!-- Node12 -->
<g id="node12" class="node"><title>Node12</title>
<g id="a_node12"><a xlink:href="classgko_1_1ConvertibleTo.html" target="_top" xlink:title="gko::ConvertibleTo\l\&lt; Ell\&lt; ValueType, IndexType \&gt; \&gt;">
<polygon fill="white" stroke="black" points="924,-210.5 924,-240.5 1096,-240.5 1096,-210.5 924,-210.5"/>
<text text-anchor="start" x="932" y="-228.5" font-family="Helvetica,sans-Serif" font-size="10.00">gko::ConvertibleTo</text>
<text text-anchor="middle" x="1010" y="-217.5" font-family="Helvetica,sans-Serif" font-size="10.00">&lt; Ell&lt; ValueType, IndexType &gt; &gt;</text>
</a>
</g>
</g>
<!-- Node12&#45;&gt;Node11 -->
<g id="edge14" class="edge"><title>Node12&#45;&gt;Node11</title>
<path fill="none" stroke="midnightblue" d="M1106.48,-226.229C1168.64,-226.703 1249.33,-227.319 1310.99,-227.79"/>
<polygon fill="midnightblue" stroke="midnightblue" points="1106.3,-222.727 1096.28,-226.151 1106.25,-229.727 1106.3,-222.727"/>
</g>
<!-- Node13 -->
<g id="node13" class="node"><title>Node13</title>
<g id="a_node13"><a xlink:href="classgko_1_1ConvertibleTo.html" target="_top" xlink:title="ConvertibleTo interface is used to mark that the implementer can be converted to the object of Result...">
<polygon fill="white" stroke="black" points="563.5,-287.5 563.5,-317.5 667.5,-317.5 667.5,-287.5 563.5,-287.5"/>
<text text-anchor="start" x="571.5" y="-305.5" font-family="Helvetica,sans-Serif" font-size="10.00">gko::ConvertibleTo</text>
<text text-anchor="middle" x="615.5" y="-294.5" font-family="Helvetica,sans-Serif" font-size="10.00">&lt; ResultType &gt;</text>
</a>
</g>
</g>
<!-- Node13&#45;&gt;Node12 -->
<g id="edge15" class="edge"><title>Node13&#45;&gt;Node12</title>
<path fill="none" stroke="orange" stroke-dasharray="5,2" d="M673.922,-284.615C692.351,-279.274 712.928,-273.723 732,-269.5 795.825,-255.367 868.886,-243.957 923.944,-236.3"/>
<polygon fill="orange" stroke="orange" points="672.824,-281.289 664.216,-287.465 674.797,-288.006 672.824,-281.289"/>
<text text-anchor="middle" x="811.5" y="-272.5" font-family="Helvetica,sans-Serif" font-size="10.00"> &lt; Ell&lt; ValueType, IndexType &gt; &gt;</text>
</g>
<!-- Node14 -->
<g id="node14" class="node"><title>Node14</title>
<g id="a_node14"><a xlink:href="classgko_1_1EnablePolymorphicAssignment.html" target="_top" xlink:title="This mixin is used to enable a default PolymorphicObject::copy_from() implementation for objects that...">
<polygon fill="white" stroke="black" points="916,-259.5 916,-289.5 1104,-289.5 1104,-259.5 916,-259.5"/>
<text text-anchor="start" x="924" y="-277.5" font-family="Helvetica,sans-Serif" font-size="10.00">gko::EnablePolymorphicAssignment</text>
<text text-anchor="middle" x="1010" y="-266.5" font-family="Helvetica,sans-Serif" font-size="10.00">&lt; ConcreteType, ResultType &gt;</text>
</a>
</g>
</g>
<!-- Node13&#45;&gt;Node14 -->
<g id="edge17" class="edge"><title>Node13&#45;&gt;Node14</title>
<path fill="none" stroke="midnightblue" d="M678.12,-298.104C741.944,-293.551 842.443,-286.382 915.948,-281.138"/>
<polygon fill="midnightblue" stroke="midnightblue" points="677.538,-294.637 667.813,-298.839 678.036,-301.619 677.538,-294.637"/>
</g>
<!-- Node19 -->
<g id="node19" class="node"><title>Node19</title>
<g id="a_node19"><a xlink:href="classgko_1_1ConvertibleTo.html" target="_top" xlink:title="gko::ConvertibleTo\l\&lt; ConcreteLinOp \&gt;">
<polygon fill="white" stroke="black" points="955,-308.5 955,-338.5 1065,-338.5 1065,-308.5 955,-308.5"/>
<text text-anchor="start" x="963" y="-326.5" font-family="Helvetica,sans-Serif" font-size="10.00">gko::ConvertibleTo</text>
<text text-anchor="middle" x="1010" y="-315.5" font-family="Helvetica,sans-Serif" font-size="10.00">&lt; ConcreteLinOp &gt;</text>
</a>
</g>
</g>
<!-- Node13&#45;&gt;Node19 -->
<g id="edge26" class="edge"><title>Node13&#45;&gt;Node19</title>
<path fill="none" stroke="orange" stroke-dasharray="5,2" d="M678.192,-305.801C754.275,-309.871 882.397,-316.726 954.84,-320.602"/>
<polygon fill="orange" stroke="orange" points="677.985,-302.285 667.813,-305.245 677.611,-309.275 677.985,-302.285"/>
<text text-anchor="middle" x="811.5" y="-320.5" font-family="Helvetica,sans-Serif" font-size="10.00"> &lt; ConcreteLinOp &gt;</text>
</g>
<!-- Node22 -->
<g id="node22" class="node"><title>Node22</title>
<g id="a_node22"><a xlink:href="classgko_1_1ConvertibleTo.html" target="_top" xlink:title="gko::ConvertibleTo\l\&lt; Dense\&lt; ValueType \&gt; \&gt;">
<polygon fill="white" stroke="black" points="1138.5,-344.5 1138.5,-374.5 1278.5,-374.5 1278.5,-344.5 1138.5,-344.5"/>
<text text-anchor="start" x="1146.5" y="-362.5" font-family="Helvetica,sans-Serif" font-size="10.00">gko::ConvertibleTo</text>
<text text-anchor="middle" x="1208.5" y="-351.5" font-family="Helvetica,sans-Serif" font-size="10.00">&lt; Dense&lt; ValueType &gt; &gt;</text>
</a>
</g>
</g>
<!-- Node13&#45;&gt;Node22 -->
<g id="edge31" class="edge"><title>Node13&#45;&gt;Node22</title>
<path fill="none" stroke="orange" stroke-dasharray="5,2" d="M676.363,-320.108C694.136,-324.775 713.736,-329.377 732,-332.5 875.037,-356.955 1045.43,-360.569 1138.45,-360.424"/>
<polygon fill="orange" stroke="orange" points="677.262,-316.725 666.697,-317.517 675.45,-323.487 677.262,-316.725"/>
<text text-anchor="middle" x="811.5" y="-354.5" font-family="Helvetica,sans-Serif" font-size="10.00"> &lt; Dense&lt; ValueType &gt; &gt;</text>
</g>
<!-- Node14&#45;&gt;Node11 -->
<g id="edge16" class="edge"><title>Node14&#45;&gt;Node11</title>
<path fill="none" stroke="orange" stroke-dasharray="5,2" d="M1114.17,-262.424C1175.14,-255.288 1251.72,-246.324 1310.85,-239.403"/>
<polygon fill="orange" stroke="orange" points="1113.66,-258.96 1104.14,-263.599 1114.47,-265.912 1113.66,-258.96"/>
<text text-anchor="middle" x="1208.5" y="-263.5" font-family="Helvetica,sans-Serif" font-size="10.00"> &lt; Ell&lt; ValueType, IndexType &gt; &gt;</text>
</g>
<!-- Node18 -->
<g id="node18" class="node"><title>Node18</title>
<g id="a_node18"><a xlink:href="classgko_1_1EnablePolymorphicAssignment.html" target="_top" xlink:title="gko::EnablePolymorphicAssignment\l\&lt; ConcreteLinOp \&gt;">
<polygon fill="white" stroke="black" points="1311,-277.5 1311,-307.5 1499,-307.5 1499,-277.5 1311,-277.5"/>
<text text-anchor="start" x="1319" y="-295.5" font-family="Helvetica,sans-Serif" font-size="10.00">gko::EnablePolymorphicAssignment</text>
<text text-anchor="middle" x="1405" y="-284.5" font-family="Helvetica,sans-Serif" font-size="10.00">&lt; ConcreteLinOp &gt;</text>
</a>
</g>
</g>
<!-- Node14&#45;&gt;Node18 -->
<g id="edge27" class="edge"><title>Node14&#45;&gt;Node18</title>
<path fill="none" stroke="orange" stroke-dasharray="5,2" d="M1114.17,-279.225C1175.14,-282.018 1251.72,-285.525 1310.85,-288.234"/>
<polygon fill="orange" stroke="orange" points="1114.29,-275.727 1104.14,-278.766 1113.96,-282.72 1114.29,-275.727"/>
<text text-anchor="middle" x="1208.5" y="-290.5" font-family="Helvetica,sans-Serif" font-size="10.00"> &lt; ConcreteLinOp &gt;</text>
</g>
<!-- Node15 -->
<g id="node15" class="node"><title>Node15</title>
<g id="a_node15"><a xlink:href="classgko_1_1EnableLinOp.html" target="_top" xlink:title="The EnableLinOp mixin can be used to provide sensible default implementations of the majority of the ...">
<polygon fill="white" stroke="black" points="1544.5,-233.5 1544.5,-263.5 1698.5,-263.5 1698.5,-233.5 1544.5,-233.5"/>
<text text-anchor="start" x="1552.5" y="-251.5" font-family="Helvetica,sans-Serif" font-size="10.00">gko::EnableLinOp&lt; Concrete</text>
<text text-anchor="middle" x="1621.5" y="-240.5" font-family="Helvetica,sans-Serif" font-size="10.00">LinOp, PolymorphicBase &gt;</text>
</a>
</g>
</g>
<!-- Node15&#45;&gt;Node2 -->
<g id="edge18" class="edge"><title>Node15&#45;&gt;Node2</title>
<path fill="none" stroke="orange" stroke-dasharray="5,2" d="M1708.67,-238.828C1758.47,-233.136 1822.3,-225.668 1879,-218.5 1888.31,-217.323 1898.09,-216.046 1907.76,-214.759"/>
<polygon fill="orange" stroke="orange" points="1708.12,-235.367 1698.58,-239.978 1708.92,-242.322 1708.12,-235.367"/>
<text text-anchor="middle" x="1799.5" y="-240.5" font-family="Helvetica,sans-Serif" font-size="10.00"> &lt; Ell&lt; ValueType, IndexType &gt; &gt;</text>
</g>
<!-- Node16&#45;&gt;Node15 -->
<g id="edge19" class="edge"><title>Node16&#45;&gt;Node15</title>
<path fill="none" stroke="midnightblue" d="M1482.45,-197.21C1489.77,-199.209 1497.05,-201.316 1504,-203.5 1531.61,-212.175 1562.11,-224.04 1584.97,-233.409"/>
<polygon fill="midnightblue" stroke="midnightblue" points="1483.04,-193.745 1472.48,-194.555 1481.24,-200.51 1483.04,-193.745"/>
</g>
<!-- Node17&#45;&gt;Node16 -->
<g id="edge20" class="edge"><title>Node17&#45;&gt;Node16</title>
<path fill="none" stroke="midnightblue" d="M723.038,-181.229C876.437,-180.84 1157.37,-180.126 1305.92,-179.749"/>
<polygon fill="midnightblue" stroke="midnightblue" points="722.66,-177.73 712.669,-181.256 722.678,-184.73 722.66,-177.73"/>
</g>
<!-- Node18&#45;&gt;Node15 -->
<g id="edge24" class="edge"><title>Node18&#45;&gt;Node15</title>
<path fill="none" stroke="midnightblue" d="M1489.13,-275.448C1508.29,-271.517 1528.54,-267.364 1547.25,-263.526"/>
<polygon fill="midnightblue" stroke="midnightblue" points="1488.31,-272.043 1479.22,-277.481 1489.72,-278.9 1488.31,-272.043"/>
</g>
<!-- Node19&#45;&gt;Node18 -->
<g id="edge25" class="edge"><title>Node19&#45;&gt;Node18</title>
<path fill="none" stroke="midnightblue" d="M1075.31,-318.814C1131.46,-314.677 1215.14,-308.402 1288,-302.5 1295.45,-301.896 1303.18,-301.258 1310.94,-300.608"/>
<polygon fill="midnightblue" stroke="midnightblue" points="1074.87,-315.336 1065.15,-319.561 1075.38,-322.318 1074.87,-315.336"/>
</g>
<!-- Node20 -->
<g id="node20" class="node"><title>Node20</title>
<g id="a_node20"><a xlink:href="classgko_1_1EnableCreateMethod.html" target="_top" xlink:title="gko::EnableCreateMethod\l\&lt; Ell\&lt; ValueType, IndexType \&gt; \&gt;">
<polygon fill="white" stroke="black" points="1897,-140.5 1897,-170.5 2069,-170.5 2069,-140.5 1897,-140.5"/>
<text text-anchor="start" x="1905" y="-158.5" font-family="Helvetica,sans-Serif" font-size="10.00">gko::EnableCreateMethod</text>
<text text-anchor="middle" x="1983" y="-147.5" font-family="Helvetica,sans-Serif" font-size="10.00">&lt; Ell&lt; ValueType, IndexType &gt; &gt;</text>
</a>
</g>
</g>
<!-- Node20&#45;&gt;Node1 -->
<g id="edge28" class="edge"><title>Node20&#45;&gt;Node1</title>
<path fill="none" stroke="midnightblue" d="M2079.27,-155.5C2088.23,-155.5 2097.22,-155.5 2105.93,-155.5"/>
<polygon fill="midnightblue" stroke="midnightblue" points="2079.18,-152 2069.18,-155.5 2079.18,-159 2079.18,-152"/>
</g>
<!-- Node21 -->
<g id="node21" class="node"><title>Node21</title>
<g id="a_node21"><a xlink:href="classgko_1_1EnableCreateMethod.html" target="_top" xlink:title="This mixin implements a static create() method on ConcreteType that dynamically allocates the memory...">
<polygon fill="white" stroke="black" points="1551.5,-51.5 1551.5,-81.5 1691.5,-81.5 1691.5,-51.5 1551.5,-51.5"/>
<text text-anchor="start" x="1559.5" y="-69.5" font-family="Helvetica,sans-Serif" font-size="10.00">gko::EnableCreateMethod</text>
<text text-anchor="middle" x="1621.5" y="-58.5" font-family="Helvetica,sans-Serif" font-size="10.00">&lt; ConcreteType &gt;</text>
</a>
</g>
</g>
<!-- Node21&#45;&gt;Node20 -->
<g id="edge29" class="edge"><title>Node21&#45;&gt;Node20</title>
<path fill="none" stroke="orange" stroke-dasharray="5,2" d="M1693.47,-84.0691C1759.99,-100.537 1858.36,-124.891 1921.32,-140.477"/>
<polygon fill="orange" stroke="orange" points="1694.03,-80.6034 1683.48,-81.5976 1692.35,-87.3983 1694.03,-80.6034"/>
<text text-anchor="middle" x="1799.5" y="-132.5" font-family="Helvetica,sans-Serif" font-size="10.00"> &lt; Ell&lt; ValueType, IndexType &gt; &gt;</text>
</g>
<!-- Node22&#45;&gt;Node1 -->
<g id="edge30" class="edge"><title>Node22&#45;&gt;Node1</title>
<path fill="none" stroke="midnightblue" d="M1288.92,-352.792C1352.04,-348.038 1442.61,-342.5 1522,-342.5 1522,-342.5 1522,-342.5 1984,-342.5 2083.1,-342.5 2151.65,-215.464 2172.69,-170.803"/>
<polygon fill="midnightblue" stroke="midnightblue" points="1288.34,-349.326 1278.64,-353.578 1288.88,-356.306 1288.34,-349.326"/>
</g>
<!-- Node23 -->
<g id="node23" class="node"><title>Node23</title>
<g id="a_node23"><a xlink:href="classgko_1_1ReadableFromMatrixData.html" target="_top" xlink:title="A LinOp implementing this interface can read its data from a matrix_data structure. ">
<polygon fill="white" stroke="black" points="1903,-91.5 1903,-121.5 2063,-121.5 2063,-91.5 1903,-91.5"/>
<text text-anchor="start" x="1911" y="-109.5" font-family="Helvetica,sans-Serif" font-size="10.00">gko::ReadableFromMatrixData</text>
<text text-anchor="middle" x="1983" y="-98.5" font-family="Helvetica,sans-Serif" font-size="10.00">&lt; ValueType, IndexType &gt;</text>
</a>
</g>
</g>
<!-- Node23&#45;&gt;Node1 -->
<g id="edge32" class="edge"><title>Node23&#45;&gt;Node1</title>
<path fill="none" stroke="midnightblue" d="M2053.73,-123.977C2075.28,-129.377 2098.81,-135.276 2119.63,-140.494"/>
<polygon fill="midnightblue" stroke="midnightblue" points="2054.54,-120.571 2043.99,-121.535 2052.83,-127.361 2054.54,-120.571"/>
</g>
<!-- Node24 -->
<g id="node24" class="node"><title>Node24</title>
<g id="a_node24"><a xlink:href="classgko_1_1WritableToMatrixData.html" target="_top" xlink:title="A LinOp implementing this interface can write its data to a matrix_data structure. ">
<polygon fill="white" stroke="black" points="1913,-42.5 1913,-72.5 2053,-72.5 2053,-42.5 1913,-42.5"/>
<text text-anchor="start" x="1921" y="-60.5" font-family="Helvetica,sans-Serif" font-size="10.00">gko::WritableToMatrixData</text>
<text text-anchor="middle" x="1983" y="-49.5" font-family="Helvetica,sans-Serif" font-size="10.00">&lt; ValueType, IndexType &gt;</text>
</a>
</g>
</g>
<!-- Node24&#45;&gt;Node1 -->
<g id="edge33" class="edge"><title>Node24&#45;&gt;Node1</title>
<path fill="none" stroke="midnightblue" d="M2055.62,-75.9318C2060.2,-77.6598 2064.7,-79.515 2069,-81.5 2103.8,-97.5692 2139.93,-123.914 2161.03,-140.451"/>
<polygon fill="midnightblue" stroke="midnightblue" points="2056.71,-72.605 2046.11,-72.5629 2054.37,-79.2028 2056.71,-72.605"/>
</g>
</g>
</svg>
        <g id="navigator" transform="translate(0 0)" fill="#404254">
                <rect fill="#f2f5e9" fill-opacity="0.5" stroke="#606060" stroke-width=".5" x="0" y="0" width="60" height="60"/>
                <use id="zoomplus" xlink:href="#zoomPlus" x="17" y="9" onmousedown="handleZoom(evt,'in')"/>
                <use id="zoomminus" xlink:href="#zoomMin" x="42" y="9" onmousedown="handleZoom(evt,'out')"/>
                <use id="reset" xlink:href="#resetDef" x="30" y="36" onmousedown="handleReset()"/>
                <g id="arrowUp" xlink:href="#dirArrow" transform="translate(30 24)" onmousedown="handlePan(0,-1)">
                  <use xlink:href="#rim" fill="#404040">
                        <set attributeName="fill" to="#808080" begin="arrowUp.mouseover" end="arrowUp.mouseout"/>
                  </use>
                  <path fill="none" stroke="white" stroke-width="1.5" d="M0,-3.0v7 M-2.5,-0.5L0,-3.0L2.5,-0.5"/>
                </g>
                <g id="arrowRight" xlink:href="#dirArrow" transform="rotate(90) translate(36 -43)" onmousedown="handlePan(1,0)">
                  <use xlink:href="#rim" fill="#404040">
                        <set attributeName="fill" to="#808080" begin="arrowRight.mouseover" end="arrowRight.mouseout"/>
                  </use>
                  <path fill="none" stroke="white" stroke-width="1.5" d="M0,-3.0v7 M-2.5,-0.5L0,-3.0L2.5,-0.5"/>
                </g>
                <g id="arrowDown" xlink:href="#dirArrow" transform="rotate(180) translate(-30 -48)" onmousedown="handlePan(0,1)">
                  <use xlink:href="#rim" fill="#404040">
                        <set attributeName="fill" to="#808080" begin="arrowDown.mouseover" end="arrowDown.mouseout"/>
                  </use>
                  <path fill="none" stroke="white" stroke-width="1.5" d="M0,-3.0v7 M-2.5,-0.5L0,-3.0L2.5,-0.5"/>
                </g>
                <g id="arrowLeft" xlink:href="#dirArrow" transform="rotate(270) translate(-36 17)" onmousedown="handlePan(-1,0)">
                  <use xlink:href="#rim" fill="#404040">
                        <set attributeName="fill" to="#808080" begin="arrowLeft.mouseover" end="arrowLeft.mouseout"/>
                  </use>
                  <path fill="none" stroke="white" stroke-width="1.5" d="M0,-3.0v7 M-2.5,-0.5L0,-3.0L2.5,-0.5"/>
                </g>
        </g>
        <svg viewBox="0 0 15 15" width="100%" height="30px" preserveAspectRatio="xMaxYMin meet">
         <g id="arrow_out" transform="scale(0.3 0.3)">
          <a xlink:href="classgko_1_1matrix_1_1Ell__coll__graph_org.svg" target="_base">
           <rect id="button" ry="5" rx="5" y="6" x="6" height="38" width="38"
                fill="#f2f5e9" fill-opacity="0.5" stroke="#606060" stroke-width="1.0"/>
           <path id="arrow"
             d="M 11.500037,31.436501 C 11.940474,20.09759 22.043105,11.32322 32.158766,21.979434 L 37.068811,17.246167 C 37.068811,17.246167 37.088388,32 37.088388,32 L 22.160133,31.978069 C 22.160133,31.978069 26.997745,27.140456 26.997745,27.140456 C 18.528582,18.264221 13.291696,25.230495 11.500037,31.436501 z"
             style="fill:#404040;"/>
          </a>
         </g>
        </svg>
</svg>
