<?xml version="1.0" encoding="UTF-8" standalone="no"?>
<!DOCTYPE svg PUBLIC "-//W3C//DTD SVG 1.1//EN"
 "http://www.w3.org/Graphics/SVG/1.1/DTD/svg11.dtd">
<!-- Generated by graphviz version 2.38.0 (20140413.2041)
 -->
<!-- Title: gko::LinOpFactory Pages: 1 -->
<svg width="1797pt" height="144pt"
 viewBox="0.00 0.00 1797.00 144.47" xmlns="http://www.w3.org/2000/svg" xmlns:xlink="http://www.w3.org/1999/xlink">
<g id="graph0" class="graph" transform="scale(1 1) rotate(0) translate(4 140.47)">
<title>gko::LinOpFactory</title>
<polygon fill="white" stroke="none" points="-4,4 -4,-140.47 1793,-140.47 1793,4 -4,4"/>
<!-- Node1 -->
<g id="node1" class="node"><title>Node1</title>
<polygon fill="#bfbfbf" stroke="black" points="1688,-67.4703 1688,-86.4703 1789,-86.4703 1789,-67.4703 1688,-67.4703"/>
<text text-anchor="middle" x="1738.5" y="-74.4703" font-family="Helvetica,sans-Serif" font-size="10.00">gko::LinOpFactory</text>
</g>
<!-- Node2 -->
<g id="node2" class="node"><title>Node2</title>
<polygon fill="white" stroke="#bfbfbf" points="1526,-56.4703 1526,-97.4703 1651,-97.4703 1651,-56.4703 1526,-56.4703"/>
<text text-anchor="start" x="1534" y="-85.4703" font-family="Helvetica,sans-Serif" font-size="10.00">gko::AbstractFactory</text>
<text text-anchor="start" x="1534" y="-74.4703" font-family="Helvetica,sans-Serif" font-size="10.00">&lt; LinOp, std::shared</text>
<text text-anchor="middle" x="1588.5" y="-63.4703" font-family="Helvetica,sans-Serif" font-size="10.00">_ptr&lt; const LinOp &gt; &gt;</text>
</g>
<!-- Node2&#45;&gt;Node1 -->
<g id="edge1" class="edge"><title>Node2&#45;&gt;Node1</title>
<path fill="none" stroke="midnightblue" d="M1661.49,-76.9703C1670.45,-76.9703 1679.46,-76.9703 1687.98,-76.9703"/>
<polygon fill="midnightblue" stroke="midnightblue" points="1661.41,-73.4704 1651.41,-76.9703 1661.41,-80.4704 1661.41,-73.4704"/>
</g>
<!-- Node3 -->
<g id="node3" class="node"><title>Node3</title>
<polygon fill="white" stroke="#bfbfbf" points="1015,-75.9703 1015,-127.97 1186,-127.97 1186,-75.9703 1015,-75.9703"/>
<text text-anchor="start" x="1023" y="-115.97" font-family="Helvetica,sans-Serif" font-size="10.00">gko::EnableAbstractPolymorphic</text>
<text text-anchor="start" x="1023" y="-104.97" font-family="Helvetica,sans-Serif" font-size="10.00">Object&lt; AbstractFactory&lt;</text>
<text text-anchor="start" x="1023" y="-93.9703" font-family="Helvetica,sans-Serif" font-size="10.00"> LinOp, std::shared_ptr&lt; const</text>
<text text-anchor="middle" x="1100.5" y="-82.9703" font-family="Helvetica,sans-Serif" font-size="10.00"> LinOp &gt; &gt; &gt;</text>
</g>
<!-- Node3&#45;&gt;Node2 -->
<g id="edge2" class="edge"><title>Node3&#45;&gt;Node2</title>
<path fill="none" stroke="midnightblue" d="M1196.15,-99.5788C1278.6,-97.1216 1401.31,-92.5631 1508,-84.9703 1513.81,-84.5567 1519.86,-84.0635 1525.9,-83.528"/>
<polygon fill="midnightblue" stroke="midnightblue" points="1195.95,-96.0833 1186.05,-99.8753 1196.15,-103.08 1195.95,-96.0833"/>
</g>
<!-- Node4 -->
<g id="node4" class="node"><title>Node4</title>
<g id="a_node4"><a xlink:href="classgko_1_1PolymorphicObject.html" target="_top" xlink:title="A PolymorphicObject is the abstract base for all &quot;heavy&quot; objects in Ginkgo that behave polymorphicall...">
<polygon fill="white" stroke="black" points="669,-111.47 669,-130.47 798,-130.47 798,-111.47 669,-111.47"/>
<text text-anchor="middle" x="733.5" y="-118.47" font-family="Helvetica,sans-Serif" font-size="10.00">gko::PolymorphicObject</text>
</a>
</g>
</g>
<!-- Node4&#45;&gt;Node3 -->
<g id="edge3" class="edge"><title>Node4&#45;&gt;Node3</title>
<path fill="none" stroke="midnightblue" d="M808.191,-123.134C854.194,-123.87 914.614,-123.722 968,-119.97 983.171,-118.904 999.26,-117.191 1014.78,-115.236"/>
<polygon fill="midnightblue" stroke="midnightblue" points="808.071,-119.631 798.01,-122.953 807.947,-126.63 808.071,-119.631"/>
</g>
<!-- Node11 -->
<g id="node11" class="node"><title>Node11</title>
<g id="a_node11"><a xlink:href="classgko_1_1EnableAbstractPolymorphicObject.html" target="_top" xlink:title="gko::EnableAbstractPolymorphic\lObject\&lt; AbstractFactory\&lt;\l AbstractProductType, ComponentsType \&gt; \&gt;">
<polygon fill="white" stroke="black" points="986,-15.4703 986,-56.4703 1215,-56.4703 1215,-15.4703 986,-15.4703"/>
<text text-anchor="start" x="994" y="-44.4703" font-family="Helvetica,sans-Serif" font-size="10.00">gko::EnableAbstractPolymorphic</text>
<text text-anchor="start" x="994" y="-33.4703" font-family="Helvetica,sans-Serif" font-size="10.00">Object&lt; AbstractFactory&lt;</text>
<text text-anchor="middle" x="1100.5" y="-22.4703" font-family="Helvetica,sans-Serif" font-size="10.00"> AbstractProductType, ComponentsType &gt; &gt;</text>
</a>
</g>
</g>
<!-- Node4&#45;&gt;Node11 -->
<g id="edge12" class="edge"><title>Node4&#45;&gt;Node11</title>
<path fill="none" stroke="midnightblue" d="M808.423,-119.677C866.656,-117.4 942.173,-111.274 968,-94.9703 980.828,-86.8725 973.804,-74.9913 986,-65.9703 990.752,-62.4554 995.884,-59.3519 1001.25,-56.6116"/>
<polygon fill="midnightblue" stroke="midnightblue" points="808.003,-116.19 798.136,-120.047 808.255,-123.185 808.003,-116.19"/>
</g>
<!-- Node5 -->
<g id="node5" class="node"><title>Node5</title>
<g id="a_node5"><a xlink:href="classgko_1_1log_1_1EnableLogging.html" target="_top" xlink:title="gko::log::EnableLogging\l\&lt; PolymorphicObject \&gt;">
<polygon fill="white" stroke="black" points="471,-105.97 471,-135.97 601,-135.97 601,-105.97 471,-105.97"/>
<text text-anchor="start" x="479" y="-123.97" font-family="Helvetica,sans-Serif" font-size="10.00">gko::log::EnableLogging</text>
<text text-anchor="middle" x="536" y="-112.97" font-family="Helvetica,sans-Serif" font-size="10.00">&lt; PolymorphicObject &gt;</text>
</a>
</g>
</g>
<!-- Node5&#45;&gt;Node4 -->
<g id="edge4" class="edge"><title>Node5&#45;&gt;Node4</title>
<path fill="none" stroke="midnightblue" d="M611.097,-120.97C630.058,-120.97 650.282,-120.97 668.676,-120.97"/>
<polygon fill="midnightblue" stroke="midnightblue" points="611.014,-117.47 601.014,-120.97 611.014,-124.47 611.014,-117.47"/>
</g>
<!-- Node6 -->
<g id="node6" class="node"><title>Node6</title>
<g id="a_node6"><a xlink:href="classgko_1_1log_1_1Loggable.html" target="_top" xlink:title="Loggable class is an interface which should be implemented by classes wanting to support logging...">
<polygon fill="white" stroke="black" points="0,-116.47 0,-135.47 104,-135.47 104,-116.47 0,-116.47"/>
<text text-anchor="middle" x="52" y="-123.47" font-family="Helvetica,sans-Serif" font-size="10.00">gko::log::Loggable</text>
</a>
</g>
</g>
<!-- Node6&#45;&gt;Node5 -->
<g id="edge5" class="edge"><title>Node6&#45;&gt;Node5</title>
<path fill="none" stroke="midnightblue" d="M114.319,-128.775C116.914,-128.85 119.483,-128.916 122,-128.97 269.076,-132.166 306.063,-136.121 453,-128.97 458.715,-128.692 464.646,-128.306 470.585,-127.851"/>
<polygon fill="midnightblue" stroke="midnightblue" points="114.345,-125.274 104.237,-128.446 114.117,-132.27 114.345,-125.274"/>
</g>
<!-- Node7 -->
<g id="node7" class="node"><title>Node7</title>
<g id="a_node7"><a xlink:href="classgko_1_1log_1_1EnableLogging.html" target="_top" xlink:title="EnableLogging is a mixin which should be inherited by any class which wants to enable logging...">
<polygon fill="white" stroke="black" points="141,-75.4703 141,-116.47 320,-116.47 320,-75.4703 141,-75.4703"/>
<text text-anchor="start" x="149" y="-104.47" font-family="Helvetica,sans-Serif" font-size="10.00">gko::log::EnableLogging</text>
<text text-anchor="start" x="149" y="-93.4703" font-family="Helvetica,sans-Serif" font-size="10.00">&lt; ConcreteLoggable, Polymorphic</text>
<text text-anchor="middle" x="230.5" y="-82.4703" font-family="Helvetica,sans-Serif" font-size="10.00">Base &gt;</text>
</a>
</g>
</g>
<!-- Node6&#45;&gt;Node7 -->
<g id="edge7" class="edge"><title>Node6&#45;&gt;Node7</title>
<path fill="none" stroke="midnightblue" d="M114.07,-115.59C122.778,-114.11 131.877,-112.563 140.979,-111.016"/>
<polygon fill="midnightblue" stroke="midnightblue" points="113.323,-112.167 104.051,-117.293 114.496,-119.068 113.323,-112.167"/>
</g>
<!-- Node7&#45;&gt;Node5 -->
<g id="edge6" class="edge"><title>Node7&#45;&gt;Node5</title>
<path fill="none" stroke="orange" stroke-dasharray="5,2" d="M330.141,-104.096C376.344,-107.901 430.062,-112.326 470.896,-115.69"/>
<polygon fill="orange" stroke="orange" points="330.354,-100.601 320.101,-103.269 329.78,-107.578 330.354,-100.601"/>
<text text-anchor="middle" x="395.5" y="-116.97" font-family="Helvetica,sans-Serif" font-size="10.00"> &lt; PolymorphicObject &gt;</text>
</g>
<!-- Node8 -->
<g id="node8" class="node"><title>Node8</title>
<g id="a_node8"><a xlink:href="classgko_1_1EnableAbstractPolymorphicObject.html" target="_top" xlink:title="This mixin inherits from (a subclass of) PolymorphicObject and provides a base implementation of a ne...">
<polygon fill="white" stroke="black" points="638,-24.4703 638,-65.4703 829,-65.4703 829,-24.4703 638,-24.4703"/>
<text text-anchor="start" x="646" y="-53.4703" font-family="Helvetica,sans-Serif" font-size="10.00">gko::EnableAbstractPolymorphic</text>
<text text-anchor="start" x="646" y="-42.4703" font-family="Helvetica,sans-Serif" font-size="10.00">Object&lt; AbstactObject, Polymorphic</text>
<text text-anchor="middle" x="733.5" y="-31.4703" font-family="Helvetica,sans-Serif" font-size="10.00">Base &gt;</text>
</a>
</g>
</g>
<!-- Node8&#45;&gt;Node3 -->
<g id="edge8" class="edge"><title>Node8&#45;&gt;Node3</title>
<path fill="none" stroke="orange" stroke-dasharray="5,2" d="M839.349,-61.344C895.072,-70.0459 962.667,-80.6018 1014.99,-88.7725"/>
<polygon fill="orange" stroke="orange" points="839.867,-57.8825 829.447,-59.7976 838.787,-64.7987 839.867,-57.8825"/>
<text text-anchor="start" x="847" y="-105.97" font-family="Helvetica,sans-Serif" font-size="10.00"> &lt; AbstractFactory&lt;</text>
<text text-anchor="start" x="847" y="-94.9703" font-family="Helvetica,sans-Serif" font-size="10.00"> LinOp, std::shared</text>
<text text-anchor="middle" x="907.5" y="-83.9703" font-family="Helvetica,sans-Serif" font-size="10.00">_ptr&lt; const LinOp &gt; &gt; &gt;</text>
</g>
<!-- Node8&#45;&gt;Node11 -->
<g id="edge13" class="edge"><title>Node8&#45;&gt;Node11</title>
<path fill="none" stroke="orange" stroke-dasharray="5,2" d="M791.758,-20.9969C809.182,-14.8335 828.597,-9.06972 847,-5.97028 900.031,2.96103 914.56,0.0482174 968,-5.97028 985.917,-7.98816 1004.95,-11.5062 1022.81,-15.4395"/>
<polygon fill="orange" stroke="orange" points="790.496,-17.7315 782.302,-24.4477 792.896,-24.3074 790.496,-17.7315"/>
<text text-anchor="start" x="853" y="-30.9703" font-family="Helvetica,sans-Serif" font-size="10.00"> &lt; AbstractFactory&lt;</text>
<text text-anchor="start" x="853" y="-19.9703" font-family="Helvetica,sans-Serif" font-size="10.00"> AbstractProductType,</text>
<text text-anchor="middle" x="907.5" y="-8.97028" font-family="Helvetica,sans-Serif" font-size="10.00"> ComponentsType &gt; &gt;</text>
</g>
<!-- Node9 -->
<g id="node9" class="node"><title>Node9</title>
<polygon fill="white" stroke="#bfbfbf" points="486.5,-35.4703 486.5,-54.4703 585.5,-54.4703 585.5,-35.4703 486.5,-35.4703"/>
<text text-anchor="middle" x="536" y="-42.4703" font-family="Helvetica,sans-Serif" font-size="10.00">PolymorphicBase</text>
</g>
<!-- Node9&#45;&gt;Node8 -->
<g id="edge9" class="edge"><title>Node9&#45;&gt;Node8</title>
<path fill="none" stroke="midnightblue" d="M595.959,-44.9703C609.238,-44.9703 623.657,-44.9703 637.984,-44.9703"/>
<polygon fill="midnightblue" stroke="midnightblue" points="595.577,-41.4704 585.577,-44.9703 595.577,-48.4704 595.577,-41.4704"/>
</g>
<!-- Node10 -->
<g id="node10" class="node"><title>Node10</title>
<g id="a_node10"><a xlink:href="classgko_1_1AbstractFactory.html" target="_top" xlink:title="The AbstractFactory is a generic interface template that enables easy implementation of the abstract ...">
<polygon fill="white" stroke="black" points="1252,-27.4703 1252,-68.4703 1381,-68.4703 1381,-27.4703 1252,-27.4703"/>
<text text-anchor="start" x="1260" y="-56.4703" font-family="Helvetica,sans-Serif" font-size="10.00">gko::AbstractFactory</text>
<text text-anchor="start" x="1260" y="-45.4703" font-family="Helvetica,sans-Serif" font-size="10.00">&lt; AbstractProductType,</text>
<text text-anchor="middle" x="1316.5" y="-34.4703" font-family="Helvetica,sans-Serif" font-size="10.00"> ComponentsType &gt;</text>
</a>
</g>
</g>
<!-- Node10&#45;&gt;Node2 -->
<g id="edge10" class="edge"><title>Node10&#45;&gt;Node2</title>
<path fill="none" stroke="orange" stroke-dasharray="5,2" d="M1391.4,-52.1364C1426.76,-54.5519 1469.66,-58.0963 1508,-62.9703 1513.84,-63.7126 1519.9,-64.5881 1525.96,-65.5332"/>
<polygon fill="orange" stroke="orange" points="1391.37,-48.6267 1381.16,-51.4539 1390.9,-55.6112 1391.37,-48.6267"/>
<text text-anchor="start" x="1399" y="-76.9703" font-family="Helvetica,sans-Serif" font-size="10.00"> &lt; LinOp, std::shared</text>
<text text-anchor="middle" x="1453.5" y="-65.9703" font-family="Helvetica,sans-Serif" font-size="10.00">_ptr&lt; const LinOp &gt; &gt;</text>
</g>
<!-- Node11&#45;&gt;Node10 -->
<g id="edge11" class="edge"><title>Node11&#45;&gt;Node10</title>
<path fill="none" stroke="midnightblue" d="M1225.08,-42.9003C1234.26,-43.4146 1243.26,-43.9196 1251.82,-44.3996"/>
<polygon fill="midnightblue" stroke="midnightblue" points="1225.26,-39.4047 1215.08,-42.3392 1224.87,-46.3937 1225.26,-39.4047"/>
</g>
</g>
</svg>
