<?xml version="1.0" encoding="UTF-8" standalone="no"?>
<!DOCTYPE svg PUBLIC "-//W3C//DTD SVG 1.1//EN"
 "http://www.w3.org/Graphics/SVG/1.1/DTD/svg11.dtd">
<!-- Generated by graphviz version 2.38.0 (20140413.2041)
 -->
<!-- Title: gko::solver::Bicgstab&lt; ValueType &gt; Pages: 1 -->
<!--zoomable 350 -->
<svg id="main" version="1.1" xmlns="http://www.w3.org/2000/svg" xmlns:xlink="http://www.w3.org/1999/xlink" xml:space="preserve" onload="init(evt)">
<style type="text/css"><![CDATA[
.edge:hover path { stroke: red; }
.edge:hover polygon { stroke: red; fill: red; }
]]></style>
<script type="text/javascript"><![CDATA[
var edges = document.getElementsByTagName('g');
if (edges && edges.length) {
  for (var i=0;i<edges.length;i++) {
    if (edges[i].id.substr(0,4)=='edge') {
      edges[i].setAttribute('class','edge');
    }
  }
}
]]></script>
        <defs>
                <circle id="rim" cx="0" cy="0" r="7"/>
                <circle id="rim2" cx="0" cy="0" r="3.5"/>
                <g id="zoomPlus">
                        <use xlink:href="#rim" fill="#404040">
                                <set attributeName="fill" to="#808080" begin="zoomplus.mouseover" end="zoomplus.mouseout"/>
                        </use>
                        <path d="M-4,0h8M0,-4v8" fill="none" stroke="white" stroke-width="1.5" pointer-events="none"/>
                </g>
                <g id="zoomMin">
                        <use xlink:href="#rim" fill="#404040">
                                <set attributeName="fill" to="#808080" begin="zoomminus.mouseover" end="zoomminus.mouseout"/>
                        </use>
                        <path d="M-4,0h8" fill="none" stroke="white" stroke-width="1.5" pointer-events="none"/>
                </g>
                <g id="dirArrow">
                        <path fill="none" stroke="white" stroke-width="1.5" d="M0,-3.0v7 M-2.5,-0.5L0,-3.0L2.5,-0.5"/>
                </g>
               <g id="resetDef">
                       <use xlink:href="#rim2" fill="#404040">
                               <set attributeName="fill" to="#808080" begin="reset.mouseover" end="reset.mouseout"/>
                       </use>
               </g>
        </defs>

<script type="text/javascript">
var viewWidth = 2157;
var viewHeight = 350;
var sectionId = 'dynsection-0';
</script>
<script xlink:href="svgpan.js"/>
<svg id="graph" class="graph">
<g id="viewport">
<title>gko::solver::Bicgstab&lt; ValueType &gt;</title>
<polygon fill="white" stroke="none" points="-4,4 -4,-346 2153,-346 2153,4 -4,4"/>
<!-- Node1 -->
<g id="node1" class="node"><title>Node1</title>
<polygon fill="#bfbfbf" stroke="black" points="2033,-88.5 2033,-118.5 2149,-118.5 2149,-88.5 2033,-88.5"/>
<text text-anchor="start" x="2041" y="-106.5" font-family="Helvetica,sans-Serif" font-size="10.00">gko::solver::Bicgstab</text>
<text text-anchor="middle" x="2091" y="-95.5" font-family="Helvetica,sans-Serif" font-size="10.00">&lt; ValueType &gt;</text>
</g>
<!-- Node2 -->
<g id="node2" class="node"><title>Node2</title>
<g id="a_node2"><a xlink:href="classgko_1_1EnableLinOp.html" target="_top" xlink:title="gko::EnableLinOp\&lt; Bicgstab\l\&lt; ValueType \&gt; \&gt;">
<polygon fill="white" stroke="black" points="1844,-115.5 1844,-145.5 1996,-145.5 1996,-115.5 1844,-115.5"/>
<text text-anchor="start" x="1852" y="-133.5" font-family="Helvetica,sans-Serif" font-size="10.00">gko::EnableLinOp&lt; Bicgstab</text>
<text text-anchor="middle" x="1920" y="-122.5" font-family="Helvetica,sans-Serif" font-size="10.00">&lt; ValueType &gt; &gt;</text>
</a>
</g>
</g>
<!-- Node2&#45;&gt;Node1 -->
<g id="edge1" class="edge"><title>Node2&#45;&gt;Node1</title>
<path fill="none" stroke="midnightblue" d="M2006.27,-116.877C2015.29,-115.436 2024.29,-113.997 2032.88,-112.626"/>
<polygon fill="midnightblue" stroke="midnightblue" points="2005.43,-113.466 1996.11,-118.5 2006.54,-120.379 2005.43,-113.466"/>
</g>
<!-- Node3 -->
<g id="node3" class="node"><title>Node3</title>
<g id="a_node3"><a xlink:href="classgko_1_1EnablePolymorphicObject.html" target="_top" xlink:title="gko::EnablePolymorphicObject\l\&lt; Bicgstab\&lt; ValueType \&gt;,\l LinOp \&gt;">
<polygon fill="white" stroke="black" points="1510,-207 1510,-248 1671,-248 1671,-207 1510,-207"/>
<text text-anchor="start" x="1518" y="-236" font-family="Helvetica,sans-Serif" font-size="10.00">gko::EnablePolymorphicObject</text>
<text text-anchor="start" x="1518" y="-225" font-family="Helvetica,sans-Serif" font-size="10.00">&lt; Bicgstab&lt; ValueType &gt;,</text>
<text text-anchor="middle" x="1590.5" y="-214" font-family="Helvetica,sans-Serif" font-size="10.00"> LinOp &gt;</text>
</a>
</g>
</g>
<!-- Node3&#45;&gt;Node2 -->
<g id="edge2" class="edge"><title>Node3&#45;&gt;Node2</title>
<path fill="none" stroke="midnightblue" d="M1670.63,-204.064C1732.12,-185.851 1815.57,-161.135 1868.36,-145.5"/>
<polygon fill="midnightblue" stroke="midnightblue" points="1669.55,-200.733 1660.95,-206.929 1671.54,-207.445 1669.55,-200.733"/>
</g>
<!-- Node4 -->
<g id="node4" class="node"><title>Node4</title>
<g id="a_node4"><a xlink:href="classgko_1_1EnableAbstractPolymorphicObject.html" target="_top" xlink:title="gko::EnableAbstractPolymorphic\lObject\&lt; Bicgstab\&lt; ValueType\l \&gt;, LinOp \&gt;">
<polygon fill="white" stroke="black" points="1288.5,-268 1288.5,-309 1459.5,-309 1459.5,-268 1288.5,-268"/>
<text text-anchor="start" x="1296.5" y="-297" font-family="Helvetica,sans-Serif" font-size="10.00">gko::EnableAbstractPolymorphic</text>
<text text-anchor="start" x="1296.5" y="-286" font-family="Helvetica,sans-Serif" font-size="10.00">Object&lt; Bicgstab&lt; ValueType</text>
<text text-anchor="middle" x="1374" y="-275" font-family="Helvetica,sans-Serif" font-size="10.00"> &gt;, LinOp &gt;</text>
</a>
</g>
</g>
<!-- Node4&#45;&gt;Node3 -->
<g id="edge3" class="edge"><title>Node4&#45;&gt;Node3</title>
<path fill="none" stroke="midnightblue" d="M1457.21,-265.122C1476.94,-259.509 1497.88,-253.556 1517.13,-248.081"/>
<polygon fill="midnightblue" stroke="midnightblue" points="1455.98,-261.831 1447.32,-267.933 1457.9,-268.564 1455.98,-261.831"/>
</g>
<!-- Node5 -->
<g id="node5" class="node"><title>Node5</title>
<g id="a_node5"><a xlink:href="classgko_1_1LinOp.html" target="_top" xlink:title="The linear operator (LinOp) is a base class for all linear algebra objects in Ginkgo. ">
<polygon fill="white" stroke="black" points="954.5,-314 954.5,-333 1021.5,-333 1021.5,-314 954.5,-314"/>
<text text-anchor="middle" x="988" y="-321" font-family="Helvetica,sans-Serif" font-size="10.00">gko::LinOp</text>
</a>
</g>
</g>
<!-- Node5&#45;&gt;Node4 -->
<g id="edge4" class="edge"><title>Node5&#45;&gt;Node4</title>
<path fill="none" stroke="midnightblue" d="M1031.91,-319.589C1093.69,-313.958 1208.99,-303.449 1288.3,-296.22"/>
<polygon fill="midnightblue" stroke="midnightblue" points="1031.38,-316.123 1021.74,-320.516 1032.02,-323.094 1031.38,-316.123"/>
</g>
<!-- Node6 -->
<g id="node6" class="node"><title>Node6</title>
<g id="a_node6"><a xlink:href="classgko_1_1EnableAbstractPolymorphicObject.html" target="_top" xlink:title="gko::EnableAbstractPolymorphic\lObject\&lt; LinOp \&gt;">
<polygon fill="white" stroke="red" points="530,-311.5 530,-341.5 701,-341.5 701,-311.5 530,-311.5"/>
<text text-anchor="start" x="538" y="-329.5" font-family="Helvetica,sans-Serif" font-size="10.00">gko::EnableAbstractPolymorphic</text>
<text text-anchor="middle" x="615.5" y="-318.5" font-family="Helvetica,sans-Serif" font-size="10.00">Object&lt; LinOp &gt;</text>
</a>
</g>
</g>
<!-- Node6&#45;&gt;Node5 -->
<g id="edge5" class="edge"><title>Node6&#45;&gt;Node5</title>
<path fill="none" stroke="midnightblue" d="M711.093,-325.734C790.801,-325.089 900.227,-324.203 954.187,-323.766"/>
<polygon fill="midnightblue" stroke="midnightblue" points="711.007,-322.235 701.036,-325.815 711.064,-329.234 711.007,-322.235"/>
</g>
<!-- Node7 -->
<g id="node7" class="node"><title>Node7</title>
<g id="a_node7"><a xlink:href="classgko_1_1EnableAbstractPolymorphicObject.html" target="_top" xlink:title="This mixin inherits from (a subclass of) PolymorphicObject and provides a base implementation of a ne...">
<polygon fill="white" stroke="black" points="136,-225 136,-266 327,-266 327,-225 136,-225"/>
<text text-anchor="start" x="144" y="-254" font-family="Helvetica,sans-Serif" font-size="10.00">gko::EnableAbstractPolymorphic</text>
<text text-anchor="start" x="144" y="-243" font-family="Helvetica,sans-Serif" font-size="10.00">Object&lt; AbstactObject, Polymorphic</text>
<text text-anchor="middle" x="231.5" y="-232" font-family="Helvetica,sans-Serif" font-size="10.00">Base &gt;</text>
</a>
</g>
</g>
<!-- Node7&#45;&gt;Node4 -->
<g id="edge8" class="edge"><title>Node7&#45;&gt;Node4</title>
<path fill="none" stroke="orange" stroke-dasharray="5,2" d="M337.279,-264.667C339.876,-264.968 342.452,-265.247 345,-265.5 693.841,-300.203 1112.4,-295.199 1288.45,-290.986"/>
<polygon fill="orange" stroke="orange" points="337.544,-261.173 327.187,-263.404 336.675,-268.119 337.544,-261.173"/>
<text text-anchor="start" x="743" y="-307.5" font-family="Helvetica,sans-Serif" font-size="10.00"> &lt; Bicgstab&lt; ValueType</text>
<text text-anchor="middle" x="800.5" y="-296.5" font-family="Helvetica,sans-Serif" font-size="10.00"> &gt;, LinOp &gt;</text>
</g>
<!-- Node7&#45;&gt;Node6 -->
<g id="edge6" class="edge"><title>Node7&#45;&gt;Node6</title>
<path fill="none" stroke="orange" stroke-dasharray="5,2" d="M279.011,-270.568C298.819,-280.182 322.508,-290.318 345,-296.5 405.487,-313.126 476.021,-320.572 529.756,-323.89"/>
<polygon fill="orange" stroke="orange" points="280.427,-267.363 269.913,-266.057 277.318,-273.635 280.427,-267.363"/>
<text text-anchor="middle" x="422" y="-324.5" font-family="Helvetica,sans-Serif" font-size="10.00"> &lt; LinOp &gt;</text>
</g>
<!-- Node10 -->
<g id="node10" class="node"><title>Node10</title>
<g id="a_node10"><a xlink:href="classgko_1_1EnableAbstractPolymorphicObject.html" target="_top" xlink:title="gko::EnableAbstractPolymorphic\lObject\&lt; ConcreteObject, Polymorphic\lBase \&gt;">
<polygon fill="white" stroke="black" points="517,-202 517,-243 714,-243 714,-202 517,-202"/>
<text text-anchor="start" x="525" y="-231" font-family="Helvetica,sans-Serif" font-size="10.00">gko::EnableAbstractPolymorphic</text>
<text text-anchor="start" x="525" y="-220" font-family="Helvetica,sans-Serif" font-size="10.00">Object&lt; ConcreteObject, Polymorphic</text>
<text text-anchor="middle" x="615.5" y="-209" font-family="Helvetica,sans-Serif" font-size="10.00">Base &gt;</text>
</a>
</g>
</g>
<!-- Node7&#45;&gt;Node10 -->
<g id="edge12" class="edge"><title>Node7&#45;&gt;Node10</title>
<path fill="none" stroke="orange" stroke-dasharray="5,2" d="M337.712,-239.165C393.648,-235.797 461.974,-231.684 516.744,-228.386"/>
<polygon fill="orange" stroke="orange" points="337.189,-235.69 327.418,-239.785 337.61,-242.678 337.189,-235.69"/>
<text text-anchor="start" x="345" y="-253.5" font-family="Helvetica,sans-Serif" font-size="10.00"> &lt; ConcreteObject, Polymorphic</text>
<text text-anchor="middle" x="422" y="-242.5" font-family="Helvetica,sans-Serif" font-size="10.00">Base &gt;</text>
</g>
<!-- Node17 -->
<g id="node17" class="node"><title>Node17</title>
<g id="a_node17"><a xlink:href="classgko_1_1EnableAbstractPolymorphicObject.html" target="_top" xlink:title="gko::EnableAbstractPolymorphic\lObject\&lt; ConcreteLinOp, Polymorphic\lBase \&gt;">
<polygon fill="white" stroke="black" points="518.5,-137 518.5,-178 712.5,-178 712.5,-137 518.5,-137"/>
<text text-anchor="start" x="526.5" y="-166" font-family="Helvetica,sans-Serif" font-size="10.00">gko::EnableAbstractPolymorphic</text>
<text text-anchor="start" x="526.5" y="-155" font-family="Helvetica,sans-Serif" font-size="10.00">Object&lt; ConcreteLinOp, Polymorphic</text>
<text text-anchor="middle" x="615.5" y="-144" font-family="Helvetica,sans-Serif" font-size="10.00">Base &gt;</text>
</a>
</g>
</g>
<!-- Node7&#45;&gt;Node17 -->
<g id="edge22" class="edge"><title>Node7&#45;&gt;Node17</title>
<path fill="none" stroke="orange" stroke-dasharray="5,2" d="M292.533,-221.399C309.321,-215.27 327.708,-209.12 345,-204.5 401.668,-189.36 466.381,-177.889 518.189,-170.071"/>
<polygon fill="orange" stroke="orange" points="291.01,-218.231 282.853,-224.993 293.446,-224.793 291.01,-218.231"/>
<text text-anchor="start" x="347" y="-218.5" font-family="Helvetica,sans-Serif" font-size="10.00"> &lt; ConcreteLinOp, Polymorphic</text>
<text text-anchor="middle" x="422" y="-207.5" font-family="Helvetica,sans-Serif" font-size="10.00">Base &gt;</text>
</g>
<!-- Node8 -->
<g id="node8" class="node"><title>Node8</title>
<polygon fill="white" stroke="#bfbfbf" points="0,-158 0,-177 99,-177 99,-158 0,-158"/>
<text text-anchor="middle" x="49.5" y="-165" font-family="Helvetica,sans-Serif" font-size="10.00">PolymorphicBase</text>
</g>
<!-- Node8&#45;&gt;Node7 -->
<g id="edge7" class="edge"><title>Node8&#45;&gt;Node7</title>
<path fill="none" stroke="midnightblue" d="M81.8444,-181.083C109.735,-193.168 150.939,-211.024 182.898,-224.872"/>
<polygon fill="midnightblue" stroke="midnightblue" points="83.1387,-177.829 72.5715,-177.064 80.3555,-184.252 83.1387,-177.829"/>
</g>
<!-- Node8&#45;&gt;Node10 -->
<g id="edge11" class="edge"><title>Node8&#45;&gt;Node10</title>
<path fill="none" stroke="midnightblue" d="M109.273,-163.602C195.567,-159.167 361.247,-155.556 499,-181.5 500.66,-181.813 529.098,-191.906 557.338,-201.998"/>
<polygon fill="midnightblue" stroke="midnightblue" points="108.948,-160.115 99.1496,-164.145 109.323,-167.104 108.948,-160.115"/>
</g>
<!-- Node8&#45;&gt;Node17 -->
<g id="edge21" class="edge"><title>Node8&#45;&gt;Node17</title>
<path fill="none" stroke="midnightblue" d="M98.9941,-156.078C105.028,-155.016 111.136,-154.111 117,-153.5 285.865,-135.917 329.248,-150.561 499,-153.5 505.319,-153.609 511.832,-153.752 518.395,-153.919"/>
<polygon fill="midnightblue" stroke="midnightblue" points="98.134,-152.679 88.966,-157.989 99.4444,-159.555 98.134,-152.679"/>
</g>
<!-- Node9 -->
<g id="node9" class="node"><title>Node9</title>
<g id="a_node9"><a xlink:href="classgko_1_1EnablePolymorphicObject.html" target="_top" xlink:title="This mixin inherits from (a subclass of) PolymorphicObject and provides a base implementation of a ne...">
<polygon fill="white" stroke="black" points="887,-207.5 887,-237.5 1089,-237.5 1089,-207.5 887,-207.5"/>
<text text-anchor="start" x="895" y="-225.5" font-family="Helvetica,sans-Serif" font-size="10.00">gko::EnablePolymorphicObject</text>
<text text-anchor="middle" x="988" y="-214.5" font-family="Helvetica,sans-Serif" font-size="10.00">&lt; ConcreteObject, PolymorphicBase &gt;</text>
</a>
</g>
</g>
<!-- Node9&#45;&gt;Node3 -->
<g id="edge9" class="edge"><title>Node9&#45;&gt;Node3</title>
<path fill="none" stroke="orange" stroke-dasharray="5,2" d="M1099.39,-223.419C1218.22,-224.409 1404.33,-225.958 1509.72,-226.836"/>
<polygon fill="orange" stroke="orange" points="1099.2,-219.918 1089.17,-223.334 1099.14,-226.917 1099.2,-219.918"/>
<text text-anchor="start" x="1316.5" y="-240.5" font-family="Helvetica,sans-Serif" font-size="10.00"> &lt; Bicgstab&lt; ValueType</text>
<text text-anchor="middle" x="1374" y="-229.5" font-family="Helvetica,sans-Serif" font-size="10.00"> &gt;, LinOp &gt;</text>
</g>
<!-- Node16 -->
<g id="node16" class="node"><title>Node16</title>
<g id="a_node16"><a xlink:href="classgko_1_1EnablePolymorphicObject.html" target="_top" xlink:title="gko::EnablePolymorphicObject\l\&lt; ConcreteLinOp, PolymorphicBase \&gt;">
<polygon fill="white" stroke="black" points="1275,-145.5 1275,-175.5 1473,-175.5 1473,-145.5 1275,-145.5"/>
<text text-anchor="start" x="1283" y="-163.5" font-family="Helvetica,sans-Serif" font-size="10.00">gko::EnablePolymorphicObject</text>
<text text-anchor="middle" x="1374" y="-152.5" font-family="Helvetica,sans-Serif" font-size="10.00">&lt; ConcreteLinOp, PolymorphicBase &gt;</text>
</a>
</g>
</g>
<!-- Node9&#45;&gt;Node16 -->
<g id="edge23" class="edge"><title>Node9&#45;&gt;Node16</title>
<path fill="none" stroke="orange" stroke-dasharray="5,2" d="M1049.45,-204.871C1067.81,-199.991 1088.12,-195.061 1107,-191.5 1162.17,-181.092 1224.47,-173.606 1274.91,-168.601"/>
<polygon fill="orange" stroke="orange" points="1048.5,-201.502 1039.76,-207.49 1050.32,-208.26 1048.5,-201.502"/>
<text text-anchor="start" x="1107" y="-205.5" font-family="Helvetica,sans-Serif" font-size="10.00"> &lt; ConcreteLinOp, Polymorphic</text>
<text text-anchor="middle" x="1182" y="-194.5" font-family="Helvetica,sans-Serif" font-size="10.00">Base &gt;</text>
</g>
<!-- Node10&#45;&gt;Node9 -->
<g id="edge10" class="edge"><title>Node10&#45;&gt;Node9</title>
<path fill="none" stroke="midnightblue" d="M724.438,-222.5C775.655,-222.5 836.48,-222.5 886.684,-222.5"/>
<polygon fill="midnightblue" stroke="midnightblue" points="724.329,-219 714.329,-222.5 724.329,-226 724.329,-219"/>
</g>
<!-- Node11 -->
<g id="node11" class="node"><title>Node11</title>
<g id="a_node11"><a xlink:href="classgko_1_1EnablePolymorphicAssignment.html" target="_top" xlink:title="gko::EnablePolymorphicAssignment\l\&lt; Bicgstab\&lt; ValueType \&gt; \&gt;">
<polygon fill="white" stroke="black" points="1280,-38.5 1280,-68.5 1468,-68.5 1468,-38.5 1280,-38.5"/>
<text text-anchor="start" x="1288" y="-56.5" font-family="Helvetica,sans-Serif" font-size="10.00">gko::EnablePolymorphicAssignment</text>
<text text-anchor="middle" x="1374" y="-45.5" font-family="Helvetica,sans-Serif" font-size="10.00">&lt; Bicgstab&lt; ValueType &gt; &gt;</text>
</a>
</g>
</g>
<!-- Node11&#45;&gt;Node2 -->
<g id="edge13" class="edge"><title>Node11&#45;&gt;Node2</title>
<path fill="none" stroke="midnightblue" d="M1478.34,-68.1276C1584.96,-83.2184 1748.68,-106.393 1843.66,-119.837"/>
<polygon fill="midnightblue" stroke="midnightblue" points="1478.6,-64.6291 1468.21,-66.693 1477.62,-71.56 1478.6,-64.6291"/>
</g>
<!-- Node12 -->
<g id="node12" class="node"><title>Node12</title>
<g id="a_node12"><a xlink:href="classgko_1_1ConvertibleTo.html" target="_top" xlink:title="gko::ConvertibleTo\l\&lt; Bicgstab\&lt; ValueType \&gt; \&gt;">
<polygon fill="white" stroke="black" points="913,-0.5 913,-30.5 1063,-30.5 1063,-0.5 913,-0.5"/>
<text text-anchor="start" x="921" y="-18.5" font-family="Helvetica,sans-Serif" font-size="10.00">gko::ConvertibleTo</text>
<text text-anchor="middle" x="988" y="-7.5" font-family="Helvetica,sans-Serif" font-size="10.00">&lt; Bicgstab&lt; ValueType &gt; &gt;</text>
</a>
</g>
</g>
<!-- Node12&#45;&gt;Node11 -->
<g id="edge14" class="edge"><title>Node12&#45;&gt;Node11</title>
<path fill="none" stroke="midnightblue" d="M1073.03,-23.8153C1134.09,-29.8576 1216.73,-38.036 1279.81,-44.2785"/>
<polygon fill="midnightblue" stroke="midnightblue" points="1073.34,-20.3287 1063.04,-22.8268 1072.65,-27.2946 1073.34,-20.3287"/>
</g>
<!-- Node13 -->
<g id="node13" class="node"><title>Node13</title>
<g id="a_node13"><a xlink:href="classgko_1_1ConvertibleTo.html" target="_top" xlink:title="ConvertibleTo interface is used to mark that the implementer can be converted to the object of Result...">
<polygon fill="white" stroke="black" points="563.5,-49.5 563.5,-79.5 667.5,-79.5 667.5,-49.5 563.5,-49.5"/>
<text text-anchor="start" x="571.5" y="-67.5" font-family="Helvetica,sans-Serif" font-size="10.00">gko::ConvertibleTo</text>
<text text-anchor="middle" x="615.5" y="-56.5" font-family="Helvetica,sans-Serif" font-size="10.00">&lt; ResultType &gt;</text>
</a>
</g>
</g>
<!-- Node13&#45;&gt;Node12 -->
<g id="edge15" class="edge"><title>Node13&#45;&gt;Node12</title>
<path fill="none" stroke="orange" stroke-dasharray="5,2" d="M677.645,-56.4133C742.115,-47.8869 843.718,-34.4496 912.748,-25.3202"/>
<polygon fill="orange" stroke="orange" points="677.082,-52.9572 667.627,-57.7382 678,-59.8968 677.082,-52.9572"/>
<text text-anchor="middle" x="800.5" y="-52.5" font-family="Helvetica,sans-Serif" font-size="10.00"> &lt; Bicgstab&lt; ValueType &gt; &gt;</text>
</g>
<!-- Node14 -->
<g id="node14" class="node"><title>Node14</title>
<g id="a_node14"><a xlink:href="classgko_1_1EnablePolymorphicAssignment.html" target="_top" xlink:title="This mixin is used to enable a default PolymorphicObject::copy_from() implementation for objects that...">
<polygon fill="white" stroke="black" points="894,-49.5 894,-79.5 1082,-79.5 1082,-49.5 894,-49.5"/>
<text text-anchor="start" x="902" y="-67.5" font-family="Helvetica,sans-Serif" font-size="10.00">gko::EnablePolymorphicAssignment</text>
<text text-anchor="middle" x="988" y="-56.5" font-family="Helvetica,sans-Serif" font-size="10.00">&lt; ConcreteType, ResultType &gt;</text>
</a>
</g>
</g>
<!-- Node13&#45;&gt;Node14 -->
<g id="edge17" class="edge"><title>Node13&#45;&gt;Node14</title>
<path fill="none" stroke="midnightblue" d="M677.883,-64.5C736.733,-64.5 826.364,-64.5 893.983,-64.5"/>
<polygon fill="midnightblue" stroke="midnightblue" points="677.627,-61.0001 667.627,-64.5 677.627,-68.0001 677.627,-61.0001"/>
</g>
<!-- Node19 -->
<g id="node19" class="node"><title>Node19</title>
<g id="a_node19"><a xlink:href="classgko_1_1ConvertibleTo.html" target="_top" xlink:title="gko::ConvertibleTo\l\&lt; ConcreteLinOp \&gt;">
<polygon fill="white" stroke="black" points="933,-98.5 933,-128.5 1043,-128.5 1043,-98.5 933,-98.5"/>
<text text-anchor="start" x="941" y="-116.5" font-family="Helvetica,sans-Serif" font-size="10.00">gko::ConvertibleTo</text>
<text text-anchor="middle" x="988" y="-105.5" font-family="Helvetica,sans-Serif" font-size="10.00">&lt; ConcreteLinOp &gt;</text>
</a>
</g>
</g>
<!-- Node13&#45;&gt;Node19 -->
<g id="edge26" class="edge"><title>Node13&#45;&gt;Node19</title>
<path fill="none" stroke="orange" stroke-dasharray="5,2" d="M677.774,-72.6038C748.836,-82.0019 864.885,-97.3498 932.791,-106.331"/>
<polygon fill="orange" stroke="orange" points="678,-69.1032 667.627,-71.2618 677.082,-76.0428 678,-69.1032"/>
<text text-anchor="middle" x="800.5" y="-101.5" font-family="Helvetica,sans-Serif" font-size="10.00"> &lt; ConcreteLinOp &gt;</text>
</g>
<!-- Node14&#45;&gt;Node11 -->
<g id="edge16" class="edge"><title>Node14&#45;&gt;Node11</title>
<path fill="none" stroke="orange" stroke-dasharray="5,2" d="M1092.29,-55.2633C1097.26,-54.9706 1102.18,-54.7128 1107,-54.5 1164.32,-51.9674 1228.66,-51.6577 1279.71,-52.0096"/>
<polygon fill="orange" stroke="orange" points="1091.79,-51.7874 1082.03,-55.9098 1092.23,-58.7735 1091.79,-51.7874"/>
<text text-anchor="middle" x="1182" y="-57.5" font-family="Helvetica,sans-Serif" font-size="10.00"> &lt; Bicgstab&lt; ValueType &gt; &gt;</text>
</g>
<!-- Node18 -->
<g id="node18" class="node"><title>Node18</title>
<g id="a_node18"><a xlink:href="classgko_1_1EnablePolymorphicAssignment.html" target="_top" xlink:title="gko::EnablePolymorphicAssignment\l\&lt; ConcreteLinOp \&gt;">
<polygon fill="white" stroke="black" points="1280,-96.5 1280,-126.5 1468,-126.5 1468,-96.5 1280,-96.5"/>
<text text-anchor="start" x="1288" y="-114.5" font-family="Helvetica,sans-Serif" font-size="10.00">gko::EnablePolymorphicAssignment</text>
<text text-anchor="middle" x="1374" y="-103.5" font-family="Helvetica,sans-Serif" font-size="10.00">&lt; ConcreteLinOp &gt;</text>
</a>
</g>
</g>
<!-- Node14&#45;&gt;Node18 -->
<g id="edge27" class="edge"><title>Node14&#45;&gt;Node18</title>
<path fill="none" stroke="orange" stroke-dasharray="5,2" d="M1092.43,-77.1596C1150.81,-84.3052 1223.18,-93.1632 1279.8,-100.093"/>
<polygon fill="orange" stroke="orange" points="1092.8,-73.6783 1082.45,-75.9374 1091.95,-80.6264 1092.8,-73.6783"/>
<text text-anchor="middle" x="1182" y="-99.5" font-family="Helvetica,sans-Serif" font-size="10.00"> &lt; ConcreteLinOp &gt;</text>
</g>
<!-- Node15 -->
<g id="node15" class="node"><title>Node15</title>
<g id="a_node15"><a xlink:href="classgko_1_1EnableLinOp.html" target="_top" xlink:title="The EnableLinOp mixin can be used to provide sensible default implementations of the majority of the ...">
<polygon fill="white" stroke="black" points="1513.5,-115.5 1513.5,-145.5 1667.5,-145.5 1667.5,-115.5 1513.5,-115.5"/>
<text text-anchor="start" x="1521.5" y="-133.5" font-family="Helvetica,sans-Serif" font-size="10.00">gko::EnableLinOp&lt; Concrete</text>
<text text-anchor="middle" x="1590.5" y="-122.5" font-family="Helvetica,sans-Serif" font-size="10.00">LinOp, PolymorphicBase &gt;</text>
</a>
</g>
</g>
<!-- Node15&#45;&gt;Node2 -->
<g id="edge18" class="edge"><title>Node15&#45;&gt;Node2</title>
<path fill="none" stroke="orange" stroke-dasharray="5,2" d="M1678.01,-130.5C1729.61,-130.5 1794.48,-130.5 1843.92,-130.5"/>
<polygon fill="orange" stroke="orange" points="1677.87,-127 1667.87,-130.5 1677.87,-134 1677.87,-127"/>
<text text-anchor="middle" x="1757.5" y="-133.5" font-family="Helvetica,sans-Serif" font-size="10.00"> &lt; Bicgstab&lt; ValueType &gt; &gt;</text>
</g>
<!-- Node16&#45;&gt;Node15 -->
<g id="edge19" class="edge"><title>Node16&#45;&gt;Node15</title>
<path fill="none" stroke="midnightblue" d="M1483.26,-145.358C1493.39,-143.942 1503.5,-142.527 1513.24,-141.165"/>
<polygon fill="midnightblue" stroke="midnightblue" points="1482.57,-141.922 1473.15,-146.773 1483.54,-148.854 1482.57,-141.922"/>
</g>
<!-- Node17&#45;&gt;Node16 -->
<g id="edge20" class="edge"><title>Node17&#45;&gt;Node16</title>
<path fill="none" stroke="midnightblue" d="M723.066,-157.923C869.924,-158.505 1132.47,-159.546 1274.79,-160.111"/>
<polygon fill="midnightblue" stroke="midnightblue" points="722.709,-154.421 712.695,-157.881 722.681,-161.421 722.709,-154.421"/>
</g>
<!-- Node18&#45;&gt;Node15 -->
<g id="edge24" class="edge"><title>Node18&#45;&gt;Node15</title>
<path fill="none" stroke="midnightblue" d="M1478.41,-120.66C1490.13,-121.698 1501.9,-122.741 1513.18,-123.739"/>
<polygon fill="midnightblue" stroke="midnightblue" points="1478.42,-117.147 1468.15,-119.751 1477.8,-124.12 1478.42,-117.147"/>
</g>
<!-- Node19&#45;&gt;Node18 -->
<g id="edge25" class="edge"><title>Node19&#45;&gt;Node18</title>
<path fill="none" stroke="midnightblue" d="M1053.24,-113.165C1115.2,-112.843 1209.65,-112.351 1279.86,-111.985"/>
<polygon fill="midnightblue" stroke="midnightblue" points="1053.18,-109.666 1043.2,-113.218 1053.22,-116.665 1053.18,-109.666"/>
</g>
<!-- Node20 -->
<g id="node20" class="node"><title>Node20</title>
<g id="a_node20"><a xlink:href="classgko_1_1Preconditionable.html" target="_top" xlink:title="A LinOp implementing this interface can be preconditioned. ">
<polygon fill="white" stroke="black" points="1860.5,-77 1860.5,-96 1979.5,-96 1979.5,-77 1860.5,-77"/>
<text text-anchor="middle" x="1920" y="-84" font-family="Helvetica,sans-Serif" font-size="10.00">gko::Preconditionable</text>
</a>
</g>
</g>
<!-- Node20&#45;&gt;Node1 -->
<g id="edge28" class="edge"><title>Node20&#45;&gt;Node1</title>
<path fill="none" stroke="midnightblue" d="M1989.9,-93.431C2004.19,-94.868 2019.09,-96.3669 2032.9,-97.7558"/>
<polygon fill="midnightblue" stroke="midnightblue" points="1989.93,-89.9166 1979.63,-92.3981 1989.23,-96.8814 1989.93,-89.9166"/>
</g>
</g>
</svg>
        <g id="navigator" transform="translate(0 0)" fill="#404254">
                <rect fill="#f2f5e9" fill-opacity="0.5" stroke="#606060" stroke-width=".5" x="0" y="0" width="60" height="60"/>
                <use id="zoomplus" xlink:href="#zoomPlus" x="17" y="9" onmousedown="handleZoom(evt,'in')"/>
                <use id="zoomminus" xlink:href="#zoomMin" x="42" y="9" onmousedown="handleZoom(evt,'out')"/>
                <use id="reset" xlink:href="#resetDef" x="30" y="36" onmousedown="handleReset()"/>
                <g id="arrowUp" xlink:href="#dirArrow" transform="translate(30 24)" onmousedown="handlePan(0,-1)">
                  <use xlink:href="#rim" fill="#404040">
                        <set attributeName="fill" to="#808080" begin="arrowUp.mouseover" end="arrowUp.mouseout"/>
                  </use>
                  <path fill="none" stroke="white" stroke-width="1.5" d="M0,-3.0v7 M-2.5,-0.5L0,-3.0L2.5,-0.5"/>
                </g>
                <g id="arrowRight" xlink:href="#dirArrow" transform="rotate(90) translate(36 -43)" onmousedown="handlePan(1,0)">
                  <use xlink:href="#rim" fill="#404040">
                        <set attributeName="fill" to="#808080" begin="arrowRight.mouseover" end="arrowRight.mouseout"/>
                  </use>
                  <path fill="none" stroke="white" stroke-width="1.5" d="M0,-3.0v7 M-2.5,-0.5L0,-3.0L2.5,-0.5"/>
                </g>
                <g id="arrowDown" xlink:href="#dirArrow" transform="rotate(180) translate(-30 -48)" onmousedown="handlePan(0,1)">
                  <use xlink:href="#rim" fill="#404040">
                        <set attributeName="fill" to="#808080" begin="arrowDown.mouseover" end="arrowDown.mouseout"/>
                  </use>
                  <path fill="none" stroke="white" stroke-width="1.5" d="M0,-3.0v7 M-2.5,-0.5L0,-3.0L2.5,-0.5"/>
                </g>
                <g id="arrowLeft" xlink:href="#dirArrow" transform="rotate(270) translate(-36 17)" onmousedown="handlePan(-1,0)">
                  <use xlink:href="#rim" fill="#404040">
                        <set attributeName="fill" to="#808080" begin="arrowLeft.mouseover" end="arrowLeft.mouseout"/>
                  </use>
                  <path fill="none" stroke="white" stroke-width="1.5" d="M0,-3.0v7 M-2.5,-0.5L0,-3.0L2.5,-0.5"/>
                </g>
        </g>
        <svg viewBox="0 0 15 15" width="100%" height="30px" preserveAspectRatio="xMaxYMin meet">
         <g id="arrow_out" transform="scale(0.3 0.3)">
          <a xlink:href="classgko_1_1solver_1_1Bicgstab__coll__graph_org.svg" target="_base">
           <rect id="button" ry="5" rx="5" y="6" x="6" height="38" width="38"
                fill="#f2f5e9" fill-opacity="0.5" stroke="#606060" stroke-width="1.0"/>
           <path id="arrow"
             d="M 11.500037,31.436501 C 11.940474,20.09759 22.043105,11.32322 32.158766,21.979434 L 37.068811,17.246167 C 37.068811,17.246167 37.088388,32 37.088388,32 L 22.160133,31.978069 C 22.160133,31.978069 26.997745,27.140456 26.997745,27.140456 C 18.528582,18.264221 13.291696,25.230495 11.500037,31.436501 z"
             style="fill:#404040;"/>
          </a>
         </g>
        </svg>
</svg>
