<?xml version="1.0" encoding="UTF-8" standalone="no"?>
<!DOCTYPE svg PUBLIC "-//W3C//DTD SVG 1.1//EN"
 "http://www.w3.org/Graphics/SVG/1.1/DTD/svg11.dtd">
<!-- Generated by graphviz version 2.38.0 (20140413.2041)
 -->
<!-- Title: gko::CudaExecutor Pages: 1 -->
<svg width="1018pt" height="88pt"
 viewBox="0.00 0.00 1018.00 88.00" xmlns="http://www.w3.org/2000/svg" xmlns:xlink="http://www.w3.org/1999/xlink">
<g id="graph0" class="graph" transform="scale(1 1) rotate(0) translate(4 84)">
<title>gko::CudaExecutor</title>
<polygon fill="white" stroke="none" points="-4,4 -4,-84 1014,-84 1014,4 -4,4"/>
<!-- Node1 -->
<g id="node1" class="node"><title>Node1</title>
<polygon fill="#bfbfbf" stroke="black" points="903,-24 903,-43 1010,-43 1010,-24 903,-24"/>
<text text-anchor="middle" x="956.5" y="-31" font-family="Helvetica,sans-Serif" font-size="10.00">gko::CudaExecutor</text>
</g>
<!-- Node2 -->
<g id="node2" class="node"><title>Node2</title>
<polygon fill="white" stroke="#bfbfbf" points="719,-49.5 719,-79.5 857,-79.5 857,-49.5 719,-49.5"/>
<text text-anchor="start" x="727" y="-67.5" font-family="Helvetica,sans-Serif" font-size="10.00">gko::detail::ExecutorBase</text>
<text text-anchor="middle" x="788" y="-56.5" font-family="Helvetica,sans-Serif" font-size="10.00">&lt; CudaExecutor &gt;</text>
</g>
<!-- Node2&#45;&gt;Node1 -->
<g id="edge1" class="edge"><title>Node2&#45;&gt;Node1</title>
<path fill="none" stroke="midnightblue" d="M867.225,-49.9357C879.79,-47.5962 892.508,-45.2282 904.229,-43.0459"/>
<polygon fill="midnightblue" stroke="midnightblue" points="866.393,-46.5303 857.202,-51.8017 867.674,-53.4121 866.393,-46.5303"/>
</g>
<!-- Node3 -->
<g id="node3" class="node"><title>Node3</title>
<g id="a_node3"><a xlink:href="classgko_1_1Executor.html" target="_top" xlink:title="The first step in using the Ginkgo library consists of creating an executor. ">
<polygon fill="white" stroke="black" points="591,-55 591,-74 673,-74 673,-55 591,-55"/>
<text text-anchor="middle" x="632" y="-62" font-family="Helvetica,sans-Serif" font-size="10.00">gko::Executor</text>
</a>
</g>
</g>
<!-- Node3&#45;&gt;Node2 -->
<g id="edge2" class="edge"><title>Node3&#45;&gt;Node2</title>
<path fill="none" stroke="midnightblue" d="M683.215,-64.5C694.583,-64.5 706.84,-64.5 718.81,-64.5"/>
<polygon fill="midnightblue" stroke="midnightblue" points="683.06,-61.0001 673.06,-64.5 683.06,-68.0001 683.06,-61.0001"/>
</g>
<!-- Node4 -->
<g id="node4" class="node"><title>Node4</title>
<g id="a_node4"><a xlink:href="classgko_1_1log_1_1EnableLogging.html" target="_top" xlink:title="gko::log::EnableLogging\l\&lt; Executor \&gt;">
<polygon fill="white" stroke="black" points="424,-49.5 424,-79.5 554,-79.5 554,-49.5 424,-49.5"/>
<text text-anchor="start" x="432" y="-67.5" font-family="Helvetica,sans-Serif" font-size="10.00">gko::log::EnableLogging</text>
<text text-anchor="middle" x="489" y="-56.5" font-family="Helvetica,sans-Serif" font-size="10.00">&lt; Executor &gt;</text>
</a>
</g>
</g>
<!-- Node4&#45;&gt;Node3 -->
<g id="edge3" class="edge"><title>Node4&#45;&gt;Node3</title>
<path fill="none" stroke="midnightblue" d="M564.585,-64.5C573.679,-64.5 582.683,-64.5 590.987,-64.5"/>
<polygon fill="midnightblue" stroke="midnightblue" points="564.311,-61.0001 554.311,-64.5 564.311,-68.0001 564.311,-61.0001"/>
</g>
<!-- Node5 -->
<g id="node5" class="node"><title>Node5</title>
<g id="a_node5"><a xlink:href="classgko_1_1log_1_1Loggable.html" target="_top" xlink:title="Loggable class is an interface which should be implemented by classes wanting to support logging...">
<polygon fill="white" stroke="black" points="0,-50 0,-69 104,-69 104,-50 0,-50"/>
<text text-anchor="middle" x="52" y="-57" font-family="Helvetica,sans-Serif" font-size="10.00">gko::log::Loggable</text>
</a>
</g>
</g>
<!-- Node5&#45;&gt;Node4 -->
<g id="edge4" class="edge"><title>Node5&#45;&gt;Node4</title>
<path fill="none" stroke="midnightblue" d="M114.32,-62.275C116.914,-62.358 119.483,-62.4336 122,-62.5 227.762,-65.288 350.771,-65.2954 423.855,-64.9599"/>
<polygon fill="midnightblue" stroke="midnightblue" points="114.354,-58.7742 104.238,-61.9228 114.109,-65.7699 114.354,-58.7742"/>
</g>
<!-- Node6 -->
<g id="node6" class="node"><title>Node6</title>
<g id="a_node6"><a xlink:href="classgko_1_1log_1_1EnableLogging.html" target="_top" xlink:title="EnableLogging is a mixin which should be inherited by any class which wants to enable logging...">
<polygon fill="white" stroke="black" points="141,-9 141,-50 320,-50 320,-9 141,-9"/>
<text text-anchor="start" x="149" y="-38" font-family="Helvetica,sans-Serif" font-size="10.00">gko::log::EnableLogging</text>
<text text-anchor="start" x="149" y="-27" font-family="Helvetica,sans-Serif" font-size="10.00">&lt; ConcreteLoggable, Polymorphic</text>
<text text-anchor="middle" x="230.5" y="-16" font-family="Helvetica,sans-Serif" font-size="10.00">Base &gt;</text>
</a>
</g>
</g>
<!-- Node5&#45;&gt;Node6 -->
<g id="edge6" class="edge"><title>Node5&#45;&gt;Node6</title>
<path fill="none" stroke="midnightblue" d="M114.07,-49.1198C122.778,-47.6398 131.877,-46.0932 140.979,-44.546"/>
<polygon fill="midnightblue" stroke="midnightblue" points="113.323,-45.6965 104.051,-50.8228 114.496,-52.5975 113.323,-45.6965"/>
</g>
<!-- Node6&#45;&gt;Node4 -->
<g id="edge5" class="edge"><title>Node6&#45;&gt;Node4</title>
<path fill="none" stroke="orange" stroke-dasharray="5,2" d="M330.209,-42.9691C361.548,-47.2454 395.376,-51.8612 423.642,-55.7182"/>
<polygon fill="orange" stroke="orange" points="330.513,-39.4782 320.132,-41.594 329.567,-46.414 330.513,-39.4782"/>
<text text-anchor="middle" x="372" y="-56.5" font-family="Helvetica,sans-Serif" font-size="10.00"> &lt; Executor &gt;</text>
</g>
<!-- Node7 -->
<g id="node7" class="node"><title>Node7</title>
<polygon fill="white" stroke="#bfbfbf" points="710,-0.5 710,-30.5 866,-30.5 866,-0.5 710,-0.5"/>
<text text-anchor="start" x="718" y="-18.5" font-family="Helvetica,sans-Serif" font-size="10.00">std::enable_shared</text>
<text text-anchor="middle" x="788" y="-7.5" font-family="Helvetica,sans-Serif" font-size="10.00">_from_this&lt; CudaExecutor &gt;</text>
</g>
<!-- Node7&#45;&gt;Node1 -->
<g id="edge7" class="edge"><title>Node7&#45;&gt;Node1</title>
<path fill="none" stroke="midnightblue" d="M876.448,-24.9539C885.343,-25.9155 894.173,-26.8701 902.532,-27.7738"/>
<polygon fill="midnightblue" stroke="midnightblue" points="876.719,-21.4628 866.401,-23.8677 875.967,-28.4223 876.719,-21.4628"/>
</g>
</g>
</svg>
