<?xml version="1.0" encoding="UTF-8" standalone="no"?>
<!DOCTYPE svg PUBLIC "-//W3C//DTD SVG 1.1//EN"
 "http://www.w3.org/Graphics/SVG/1.1/DTD/svg11.dtd">
<!-- Generated by graphviz version 2.38.0 (20140413.2041)
 -->
<!-- Title: gko::EnableLinOp&lt; ConcreteLinOp, PolymorphicBase &gt; Pages: 1 -->
<svg width="761pt" height="99pt"
 viewBox="0.00 0.00 761.00 98.50" xmlns="http://www.w3.org/2000/svg" xmlns:xlink="http://www.w3.org/1999/xlink">
<g id="graph0" class="graph" transform="scale(1 1) rotate(0) translate(4 94.5)">
<title>gko::EnableLinOp&lt; ConcreteLinOp, PolymorphicBase &gt;</title>
<polygon fill="white" stroke="none" points="-4,4 -4,-94.5 757,-94.5 757,4 -4,4"/>
<!-- Node1 -->
<g id="node1" class="node"><title>Node1</title>
<polygon fill="#bfbfbf" stroke="black" points="599,-27.5 599,-57.5 753,-57.5 753,-27.5 599,-27.5"/>
<text text-anchor="start" x="607" y="-45.5" font-family="Helvetica,sans-Serif" font-size="10.00">gko::EnableLinOp&lt; Concrete</text>
<text text-anchor="middle" x="676" y="-34.5" font-family="Helvetica,sans-Serif" font-size="10.00">LinOp, PolymorphicBase &gt;</text>
</g>
<!-- Node2 -->
<g id="node2" class="node"><title>Node2</title>
<g id="a_node2"><a xlink:href="classgko_1_1EnablePolymorphicObject.html" target="_top" xlink:title="gko::EnablePolymorphicObject\l\&lt; ConcreteLinOp, PolymorphicBase \&gt;">
<polygon fill="white" stroke="black" points="365,-52.5 365,-82.5 563,-82.5 563,-52.5 365,-52.5"/>
<text text-anchor="start" x="373" y="-70.5" font-family="Helvetica,sans-Serif" font-size="10.00">gko::EnablePolymorphicObject</text>
<text text-anchor="middle" x="464" y="-59.5" font-family="Helvetica,sans-Serif" font-size="10.00">&lt; ConcreteLinOp, PolymorphicBase &gt;</text>
</a>
</g>
</g>
<!-- Node2&#45;&gt;Node1 -->
<g id="edge1" class="edge"><title>Node2&#45;&gt;Node1</title>
<path fill="none" stroke="midnightblue" d="M573.338,-54.6026C581.943,-53.5782 590.519,-52.5573 598.833,-51.5676"/>
<polygon fill="midnightblue" stroke="midnightblue" points="572.753,-51.1475 563.237,-55.8052 573.58,-58.0984 572.753,-51.1475"/>
</g>
<!-- Node3 -->
<g id="node3" class="node"><title>Node3</title>
<g id="a_node3"><a xlink:href="classgko_1_1EnableAbstractPolymorphicObject.html" target="_top" xlink:title="gko::EnableAbstractPolymorphic\lObject\&lt; ConcreteLinOp, Polymorphic\lBase \&gt;">
<polygon fill="white" stroke="black" points="135,-49 135,-90 329,-90 329,-49 135,-49"/>
<text text-anchor="start" x="143" y="-78" font-family="Helvetica,sans-Serif" font-size="10.00">gko::EnableAbstractPolymorphic</text>
<text text-anchor="start" x="143" y="-67" font-family="Helvetica,sans-Serif" font-size="10.00">Object&lt; ConcreteLinOp, Polymorphic</text>
<text text-anchor="middle" x="232" y="-56" font-family="Helvetica,sans-Serif" font-size="10.00">Base &gt;</text>
</a>
</g>
</g>
<!-- Node3&#45;&gt;Node2 -->
<g id="edge2" class="edge"><title>Node3&#45;&gt;Node2</title>
<path fill="none" stroke="midnightblue" d="M339.232,-68.5762C347.806,-68.5017 356.446,-68.4266 364.959,-68.3525"/>
<polygon fill="midnightblue" stroke="midnightblue" points="339.177,-65.0765 329.208,-68.6634 339.238,-72.0762 339.177,-65.0765"/>
</g>
<!-- Node4 -->
<g id="node4" class="node"><title>Node4</title>
<polygon fill="white" stroke="#bfbfbf" points="0,-60 0,-79 99,-79 99,-60 0,-60"/>
<text text-anchor="middle" x="49.5" y="-67" font-family="Helvetica,sans-Serif" font-size="10.00">PolymorphicBase</text>
</g>
<!-- Node4&#45;&gt;Node3 -->
<g id="edge3" class="edge"><title>Node4&#45;&gt;Node3</title>
<path fill="none" stroke="midnightblue" d="M109.459,-69.5C117.627,-69.5 126.184,-69.5 134.815,-69.5"/>
<polygon fill="midnightblue" stroke="midnightblue" points="109.346,-66.0001 99.3459,-69.5 109.346,-73.0001 109.346,-66.0001"/>
</g>
<!-- Node5 -->
<g id="node5" class="node"><title>Node5</title>
<g id="a_node5"><a xlink:href="classgko_1_1EnablePolymorphicAssignment.html" target="_top" xlink:title="gko::EnablePolymorphicAssignment\l\&lt; ConcreteLinOp \&gt;">
<polygon fill="white" stroke="black" points="370,-2.5 370,-32.5 558,-32.5 558,-2.5 370,-2.5"/>
<text text-anchor="start" x="378" y="-20.5" font-family="Helvetica,sans-Serif" font-size="10.00">gko::EnablePolymorphicAssignment</text>
<text text-anchor="middle" x="464" y="-9.5" font-family="Helvetica,sans-Serif" font-size="10.00">&lt; ConcreteLinOp &gt;</text>
</a>
</g>
</g>
<!-- Node5&#45;&gt;Node1 -->
<g id="edge4" class="edge"><title>Node5&#45;&gt;Node1</title>
<path fill="none" stroke="midnightblue" d="M568.266,-29.7935C578.527,-31.0151 588.81,-32.2393 598.723,-33.4195"/>
<polygon fill="midnightblue" stroke="midnightblue" points="568.37,-26.2813 558.026,-28.5745 567.542,-33.2322 568.37,-26.2813"/>
</g>
<!-- Node6 -->
<g id="node6" class="node"><title>Node6</title>
<g id="a_node6"><a xlink:href="classgko_1_1ConvertibleTo.html" target="_top" xlink:title="gko::ConvertibleTo\l\&lt; ConcreteLinOp \&gt;">
<polygon fill="white" stroke="black" points="177,-0.5 177,-30.5 287,-30.5 287,-0.5 177,-0.5"/>
<text text-anchor="start" x="185" y="-18.5" font-family="Helvetica,sans-Serif" font-size="10.00">gko::ConvertibleTo</text>
<text text-anchor="middle" x="232" y="-7.5" font-family="Helvetica,sans-Serif" font-size="10.00">&lt; ConcreteLinOp &gt;</text>
</a>
</g>
</g>
<!-- Node6&#45;&gt;Node5 -->
<g id="edge5" class="edge"><title>Node6&#45;&gt;Node5</title>
<path fill="none" stroke="midnightblue" d="M297.264,-16.0588C319.66,-16.2536 345.268,-16.4762 369.547,-16.6874"/>
<polygon fill="midnightblue" stroke="midnightblue" points="297.246,-12.5586 287.216,-15.9714 297.185,-19.5584 297.246,-12.5586"/>
</g>
</g>
</svg>
