<?xml version="1.0" encoding="UTF-8" standalone="no"?>
<!DOCTYPE svg PUBLIC "-//W3C//DTD SVG 1.1//EN"
 "http://www.w3.org/Graphics/SVG/1.1/DTD/svg11.dtd">
<!-- Generated by graphviz version 2.38.0 (20140413.2041)
 -->
<!-- Title: gko::Combination&lt; ValueType &gt; Pages: 1 -->
<svg width="1604pt" height="121pt"
 viewBox="0.00 0.00 1604.00 120.50" xmlns="http://www.w3.org/2000/svg" xmlns:xlink="http://www.w3.org/1999/xlink">
<g id="graph0" class="graph" transform="scale(1 1) rotate(0) translate(4 116.5)">
<title>gko::Combination&lt; ValueType &gt;</title>
<polygon fill="white" stroke="none" points="-4,4 -4,-116.5 1600,-116.5 1600,4 -4,4"/>
<!-- Node1 -->
<g id="node1" class="node"><title>Node1</title>
<polygon fill="#bfbfbf" stroke="black" points="1426,-30 1426,-49 1596,-49 1596,-30 1426,-30"/>
<text text-anchor="middle" x="1511" y="-37" font-family="Helvetica,sans-Serif" font-size="10.00">gko::Combination&lt; ValueType &gt;</text>
</g>
<!-- Node2 -->
<g id="node2" class="node"><title>Node2</title>
<g id="a_node2"><a xlink:href="classgko_1_1EnableLinOp.html" target="_top" xlink:title="gko::EnableLinOp\&lt; Combination\l\&lt; ValueType \&gt; \&gt;">
<polygon fill="white" stroke="black" points="1219,-49.5 1219,-79.5 1390,-79.5 1390,-49.5 1219,-49.5"/>
<text text-anchor="start" x="1227" y="-67.5" font-family="Helvetica,sans-Serif" font-size="10.00">gko::EnableLinOp&lt; Combination</text>
<text text-anchor="middle" x="1304.5" y="-56.5" font-family="Helvetica,sans-Serif" font-size="10.00">&lt; ValueType &gt; &gt;</text>
</a>
</g>
</g>
<!-- Node2&#45;&gt;Node1 -->
<g id="edge1" class="edge"><title>Node2&#45;&gt;Node1</title>
<path fill="none" stroke="midnightblue" d="M1400.36,-52.9038C1411.05,-51.5966 1421.85,-50.2762 1432.29,-49.0001"/>
<polygon fill="midnightblue" stroke="midnightblue" points="1399.66,-49.4634 1390.15,-54.1511 1400.51,-56.4117 1399.66,-49.4634"/>
</g>
<!-- Node3 -->
<g id="node3" class="node"><title>Node3</title>
<g id="a_node3"><a xlink:href="classgko_1_1EnablePolymorphicObject.html" target="_top" xlink:title="gko::EnablePolymorphicObject\l\&lt; Combination\&lt; ValueType\l \&gt;, LinOp \&gt;">
<polygon fill="white" stroke="black" points="1008.5,-71 1008.5,-112 1169.5,-112 1169.5,-71 1008.5,-71"/>
<text text-anchor="start" x="1016.5" y="-100" font-family="Helvetica,sans-Serif" font-size="10.00">gko::EnablePolymorphicObject</text>
<text text-anchor="start" x="1016.5" y="-89" font-family="Helvetica,sans-Serif" font-size="10.00">&lt; Combination&lt; ValueType</text>
<text text-anchor="middle" x="1089" y="-78" font-family="Helvetica,sans-Serif" font-size="10.00"> &gt;, LinOp &gt;</text>
</a>
</g>
</g>
<!-- Node3&#45;&gt;Node2 -->
<g id="edge2" class="edge"><title>Node3&#45;&gt;Node2</title>
<path fill="none" stroke="midnightblue" d="M1180.02,-80.1155C1192.87,-78.4906 1206.05,-76.8237 1218.79,-75.2122"/>
<polygon fill="midnightblue" stroke="midnightblue" points="1179.28,-76.6807 1169.8,-81.4078 1180.16,-83.6254 1179.28,-76.6807"/>
</g>
<!-- Node4 -->
<g id="node4" class="node"><title>Node4</title>
<g id="a_node4"><a xlink:href="classgko_1_1EnableAbstractPolymorphicObject.html" target="_top" xlink:title="gko::EnableAbstractPolymorphic\lObject\&lt; Combination\&lt; ValueType\l \&gt;, LinOp \&gt;">
<polygon fill="white" stroke="black" points="781,-71 781,-112 959,-112 959,-71 781,-71"/>
<text text-anchor="start" x="789" y="-100" font-family="Helvetica,sans-Serif" font-size="10.00">gko::EnableAbstractPolymorphic</text>
<text text-anchor="start" x="789" y="-89" font-family="Helvetica,sans-Serif" font-size="10.00">Object&lt; Combination&lt; ValueType</text>
<text text-anchor="middle" x="870" y="-78" font-family="Helvetica,sans-Serif" font-size="10.00"> &gt;, LinOp &gt;</text>
</a>
</g>
</g>
<!-- Node4&#45;&gt;Node3 -->
<g id="edge3" class="edge"><title>Node4&#45;&gt;Node3</title>
<path fill="none" stroke="midnightblue" d="M969.578,-91.5C982.51,-91.5 995.631,-91.5 1008.2,-91.5"/>
<polygon fill="midnightblue" stroke="midnightblue" points="969.262,-88.0001 959.262,-91.5 969.262,-95.0001 969.262,-88.0001"/>
</g>
<!-- Node5 -->
<g id="node5" class="node"><title>Node5</title>
<g id="a_node5"><a xlink:href="classgko_1_1LinOp.html" target="_top" xlink:title="The linear operator (LinOp) is a base class for all linear algebra objects in Ginkgo. ">
<polygon fill="white" stroke="black" points="678,-82 678,-101 745,-101 745,-82 678,-82"/>
<text text-anchor="middle" x="711.5" y="-89" font-family="Helvetica,sans-Serif" font-size="10.00">gko::LinOp</text>
</a>
</g>
</g>
<!-- Node5&#45;&gt;Node4 -->
<g id="edge4" class="edge"><title>Node5&#45;&gt;Node4</title>
<path fill="none" stroke="midnightblue" d="M755.409,-91.5C763.394,-91.5 772.001,-91.5 780.779,-91.5"/>
<polygon fill="midnightblue" stroke="midnightblue" points="755.308,-88.0001 745.308,-91.5 755.307,-95.0001 755.308,-88.0001"/>
</g>
<!-- Node6 -->
<g id="node6" class="node"><title>Node6</title>
<g id="a_node6"><a xlink:href="classgko_1_1EnableAbstractPolymorphicObject.html" target="_top" xlink:title="gko::EnableAbstractPolymorphic\lObject\&lt; LinOp \&gt;">
<polygon fill="white" stroke="black" points="471,-76.5 471,-106.5 642,-106.5 642,-76.5 471,-76.5"/>
<text text-anchor="start" x="479" y="-94.5" font-family="Helvetica,sans-Serif" font-size="10.00">gko::EnableAbstractPolymorphic</text>
<text text-anchor="middle" x="556.5" y="-83.5" font-family="Helvetica,sans-Serif" font-size="10.00">Object&lt; LinOp &gt;</text>
</a>
</g>
</g>
<!-- Node6&#45;&gt;Node5 -->
<g id="edge5" class="edge"><title>Node6&#45;&gt;Node5</title>
<path fill="none" stroke="midnightblue" d="M652.098,-91.5C661.246,-91.5 670.027,-91.5 677.877,-91.5"/>
<polygon fill="midnightblue" stroke="midnightblue" points="652.055,-88.0001 642.055,-91.5 652.055,-95.0001 652.055,-88.0001"/>
</g>
<!-- Node7 -->
<g id="node7" class="node"><title>Node7</title>
<g id="a_node7"><a xlink:href="classgko_1_1PolymorphicObject.html" target="_top" xlink:title="A PolymorphicObject is the abstract base for all &quot;heavy&quot; objects in Ginkgo that behave polymorphicall...">
<polygon fill="white" stroke="black" points="306,-82 306,-101 435,-101 435,-82 306,-82"/>
<text text-anchor="middle" x="370.5" y="-89" font-family="Helvetica,sans-Serif" font-size="10.00">gko::PolymorphicObject</text>
</a>
</g>
</g>
<!-- Node7&#45;&gt;Node6 -->
<g id="edge6" class="edge"><title>Node7&#45;&gt;Node6</title>
<path fill="none" stroke="midnightblue" d="M445.224,-91.5C453.644,-91.5 462.276,-91.5 470.824,-91.5"/>
<polygon fill="midnightblue" stroke="midnightblue" points="445.08,-88.0001 435.08,-91.5 445.08,-95.0001 445.08,-88.0001"/>
</g>
<!-- Node8 -->
<g id="node8" class="node"><title>Node8</title>
<g id="a_node8"><a xlink:href="classgko_1_1log_1_1EnableLogging.html" target="_top" xlink:title="gko::log::EnableLogging\l\&lt; PolymorphicObject \&gt;">
<polygon fill="white" stroke="black" points="140,-76.5 140,-106.5 270,-106.5 270,-76.5 140,-76.5"/>
<text text-anchor="start" x="148" y="-94.5" font-family="Helvetica,sans-Serif" font-size="10.00">gko::log::EnableLogging</text>
<text text-anchor="middle" x="205" y="-83.5" font-family="Helvetica,sans-Serif" font-size="10.00">&lt; PolymorphicObject &gt;</text>
</a>
</g>
</g>
<!-- Node8&#45;&gt;Node7 -->
<g id="edge7" class="edge"><title>Node8&#45;&gt;Node7</title>
<path fill="none" stroke="midnightblue" d="M280.416,-91.5C288.895,-91.5 297.48,-91.5 305.803,-91.5"/>
<polygon fill="midnightblue" stroke="midnightblue" points="280.15,-88.0001 270.15,-91.5 280.15,-95.0001 280.15,-88.0001"/>
</g>
<!-- Node9 -->
<g id="node9" class="node"><title>Node9</title>
<g id="a_node9"><a xlink:href="classgko_1_1log_1_1Loggable.html" target="_top" xlink:title="Loggable class is an interface which should be implemented by classes wanting to support logging...">
<polygon fill="white" stroke="black" points="0,-82 0,-101 104,-101 104,-82 0,-82"/>
<text text-anchor="middle" x="52" y="-89" font-family="Helvetica,sans-Serif" font-size="10.00">gko::log::Loggable</text>
</a>
</g>
</g>
<!-- Node9&#45;&gt;Node8 -->
<g id="edge8" class="edge"><title>Node9&#45;&gt;Node8</title>
<path fill="none" stroke="midnightblue" d="M114.245,-91.5C122.668,-91.5 131.337,-91.5 139.812,-91.5"/>
<polygon fill="midnightblue" stroke="midnightblue" points="114.122,-88.0001 104.122,-91.5 114.122,-95.0001 114.122,-88.0001"/>
</g>
<!-- Node10 -->
<g id="node10" class="node"><title>Node10</title>
<g id="a_node10"><a xlink:href="classgko_1_1EnablePolymorphicAssignment.html" target="_top" xlink:title="gko::EnablePolymorphicAssignment\l\&lt; Combination\&lt; ValueType \&gt; \&gt;">
<polygon fill="white" stroke="black" points="995,-22.5 995,-52.5 1183,-52.5 1183,-22.5 995,-22.5"/>
<text text-anchor="start" x="1003" y="-40.5" font-family="Helvetica,sans-Serif" font-size="10.00">gko::EnablePolymorphicAssignment</text>
<text text-anchor="middle" x="1089" y="-29.5" font-family="Helvetica,sans-Serif" font-size="10.00">&lt; Combination&lt; ValueType &gt; &gt;</text>
</a>
</g>
</g>
<!-- Node10&#45;&gt;Node2 -->
<g id="edge9" class="edge"><title>Node10&#45;&gt;Node2</title>
<path fill="none" stroke="midnightblue" d="M1193.11,-50.5403C1201.74,-51.6305 1210.39,-52.7246 1218.85,-53.7943"/>
<polygon fill="midnightblue" stroke="midnightblue" points="1193.38,-47.0464 1183.02,-49.264 1192.5,-53.9911 1193.38,-47.0464"/>
</g>
<!-- Node11 -->
<g id="node11" class="node"><title>Node11</title>
<g id="a_node11"><a xlink:href="classgko_1_1ConvertibleTo.html" target="_top" xlink:title="gko::ConvertibleTo\l\&lt; Combination\&lt; ValueType \&gt; \&gt;">
<polygon fill="white" stroke="black" points="785,-22.5 785,-52.5 955,-52.5 955,-22.5 785,-22.5"/>
<text text-anchor="start" x="793" y="-40.5" font-family="Helvetica,sans-Serif" font-size="10.00">gko::ConvertibleTo</text>
<text text-anchor="middle" x="870" y="-29.5" font-family="Helvetica,sans-Serif" font-size="10.00">&lt; Combination&lt; ValueType &gt; &gt;</text>
</a>
</g>
</g>
<!-- Node11&#45;&gt;Node10 -->
<g id="edge10" class="edge"><title>Node11&#45;&gt;Node10</title>
<path fill="none" stroke="midnightblue" d="M965.336,-37.5C975.122,-37.5 985.064,-37.5 994.837,-37.5"/>
<polygon fill="midnightblue" stroke="midnightblue" points="965.208,-34.0001 955.208,-37.5 965.208,-41.0001 965.208,-34.0001"/>
</g>
<!-- Node12 -->
<g id="node12" class="node"><title>Node12</title>
<g id="a_node12"><a xlink:href="classgko_1_1EnableCreateMethod.html" target="_top" xlink:title="gko::EnableCreateMethod\l\&lt; Combination\&lt; ValueType \&gt; \&gt;">
<polygon fill="white" stroke="black" points="1219.5,-0.5 1219.5,-30.5 1389.5,-30.5 1389.5,-0.5 1219.5,-0.5"/>
<text text-anchor="start" x="1227.5" y="-18.5" font-family="Helvetica,sans-Serif" font-size="10.00">gko::EnableCreateMethod</text>
<text text-anchor="middle" x="1304.5" y="-7.5" font-family="Helvetica,sans-Serif" font-size="10.00">&lt; Combination&lt; ValueType &gt; &gt;</text>
</a>
</g>
</g>
<!-- Node12&#45;&gt;Node1 -->
<g id="edge11" class="edge"><title>Node12&#45;&gt;Node1</title>
<path fill="none" stroke="midnightblue" d="M1399.68,-26.5533C1409.44,-27.6987 1419.3,-28.8557 1428.9,-29.9821"/>
<polygon fill="midnightblue" stroke="midnightblue" points="1399.9,-23.0552 1389.56,-25.3656 1399.09,-30.0074 1399.9,-23.0552"/>
</g>
</g>
</svg>
