<?xml version="1.0" encoding="UTF-8" standalone="no"?>
<!DOCTYPE svg PUBLIC "-//W3C//DTD SVG 1.1//EN"
 "http://www.w3.org/Graphics/SVG/1.1/DTD/svg11.dtd">
<!-- Generated by graphviz version 2.38.0 (20140413.2041)
 -->
<!-- Title: gko::stop::Iteration::Factory Pages: 1 -->
<svg width="894pt" height="99pt"
 viewBox="0.00 0.00 894.00 98.50" xmlns="http://www.w3.org/2000/svg" xmlns:xlink="http://www.w3.org/1999/xlink">
<g id="graph0" class="graph" transform="scale(1 1) rotate(0) translate(4 94.5)">
<title>gko::stop::Iteration::Factory</title>
<polygon fill="white" stroke="none" points="-4,4 -4,-94.5 890,-94.5 890,4 -4,4"/>
<!-- Node1 -->
<g id="node1" class="node"><title>Node1</title>
<polygon fill="#bfbfbf" stroke="black" points="779,-27.5 779,-57.5 886,-57.5 886,-27.5 779,-27.5"/>
<text text-anchor="start" x="787" y="-45.5" font-family="Helvetica,sans-Serif" font-size="10.00">gko::stop::Iteration</text>
<text text-anchor="middle" x="832.5" y="-34.5" font-family="Helvetica,sans-Serif" font-size="10.00">::Factory</text>
</g>
<!-- Node2 -->
<g id="node2" class="node"><title>Node2</title>
<g id="a_node2"><a xlink:href="classgko_1_1EnableDefaultFactory.html" target="_top" xlink:title="This mixin provides a default implementation of a concrete factory. ">
<polygon fill="white" stroke="black" points="584,-22 584,-63 743,-63 743,-22 584,-22"/>
<text text-anchor="start" x="592" y="-51" font-family="Helvetica,sans-Serif" font-size="10.00">gko::stop::EnableDefault</text>
<text text-anchor="start" x="592" y="-40" font-family="Helvetica,sans-Serif" font-size="10.00">CriterionFactory&lt; Factory,</text>
<text text-anchor="middle" x="663.5" y="-29" font-family="Helvetica,sans-Serif" font-size="10.00"> Iteration, parameters_type &gt;</text>
</a>
</g>
</g>
<!-- Node2&#45;&gt;Node1 -->
<g id="edge1" class="edge"><title>Node2&#45;&gt;Node1</title>
<path fill="none" stroke="midnightblue" d="M753.256,-42.5C761.888,-42.5 770.445,-42.5 778.556,-42.5"/>
<polygon fill="midnightblue" stroke="midnightblue" points="753.11,-39.0001 743.11,-42.5 753.11,-46.0001 753.11,-39.0001"/>
</g>
<!-- Node3 -->
<g id="node3" class="node"><title>Node3</title>
<g id="a_node3"><a xlink:href="classgko_1_1EnablePolymorphicObject.html" target="_top" xlink:title="gko::EnablePolymorphicObject\l\&lt; ConcreteFactory, PolymorphicBase \&gt;">
<polygon fill="white" stroke="black" points="342,-52.5 342,-82.5 548,-82.5 548,-52.5 342,-52.5"/>
<text text-anchor="start" x="350" y="-70.5" font-family="Helvetica,sans-Serif" font-size="10.00">gko::EnablePolymorphicObject</text>
<text text-anchor="middle" x="445" y="-59.5" font-family="Helvetica,sans-Serif" font-size="10.00">&lt; ConcreteFactory, PolymorphicBase &gt;</text>
</a>
</g>
</g>
<!-- Node3&#45;&gt;Node2 -->
<g id="edge2" class="edge"><title>Node3&#45;&gt;Node2</title>
<path fill="none" stroke="midnightblue" d="M558.307,-54.5316C566.891,-53.5404 575.44,-52.5531 583.74,-51.5947"/>
<polygon fill="midnightblue" stroke="midnightblue" points="557.76,-51.0714 548.227,-55.6955 558.563,-58.0252 557.76,-51.0714"/>
</g>
<!-- Node4 -->
<g id="node4" class="node"><title>Node4</title>
<g id="a_node4"><a xlink:href="classgko_1_1EnableAbstractPolymorphicObject.html" target="_top" xlink:title="gko::EnableAbstractPolymorphic\lObject\&lt; ConcreteFactory,\l PolymorphicBase \&gt;">
<polygon fill="white" stroke="black" points="135,-49 135,-90 306,-90 306,-49 135,-49"/>
<text text-anchor="start" x="143" y="-78" font-family="Helvetica,sans-Serif" font-size="10.00">gko::EnableAbstractPolymorphic</text>
<text text-anchor="start" x="143" y="-67" font-family="Helvetica,sans-Serif" font-size="10.00">Object&lt; ConcreteFactory,</text>
<text text-anchor="middle" x="220.5" y="-56" font-family="Helvetica,sans-Serif" font-size="10.00"> PolymorphicBase &gt;</text>
</a>
</g>
</g>
<!-- Node4&#45;&gt;Node3 -->
<g id="edge3" class="edge"><title>Node4&#45;&gt;Node3</title>
<path fill="none" stroke="midnightblue" d="M316.46,-68.6464C324.891,-68.5706 333.45,-68.4937 341.937,-68.4174"/>
<polygon fill="midnightblue" stroke="midnightblue" points="316.221,-65.1483 306.252,-68.7382 316.284,-72.1481 316.221,-65.1483"/>
</g>
<!-- Node5 -->
<g id="node5" class="node"><title>Node5</title>
<polygon fill="white" stroke="#bfbfbf" points="0,-60 0,-79 99,-79 99,-60 0,-60"/>
<text text-anchor="middle" x="49.5" y="-67" font-family="Helvetica,sans-Serif" font-size="10.00">PolymorphicBase</text>
</g>
<!-- Node5&#45;&gt;Node4 -->
<g id="edge4" class="edge"><title>Node5&#45;&gt;Node4</title>
<path fill="none" stroke="midnightblue" d="M109.519,-69.5C117.692,-69.5 126.214,-69.5 134.741,-69.5"/>
<polygon fill="midnightblue" stroke="midnightblue" points="109.382,-66.0001 99.3818,-69.5 109.382,-73.0001 109.382,-66.0001"/>
</g>
<!-- Node6 -->
<g id="node6" class="node"><title>Node6</title>
<g id="a_node6"><a xlink:href="classgko_1_1EnablePolymorphicAssignment.html" target="_top" xlink:title="gko::EnablePolymorphicAssignment\l\&lt; ConcreteFactory \&gt;">
<polygon fill="white" stroke="black" points="351,-2.5 351,-32.5 539,-32.5 539,-2.5 351,-2.5"/>
<text text-anchor="start" x="359" y="-20.5" font-family="Helvetica,sans-Serif" font-size="10.00">gko::EnablePolymorphicAssignment</text>
<text text-anchor="middle" x="445" y="-9.5" font-family="Helvetica,sans-Serif" font-size="10.00">&lt; ConcreteFactory &gt;</text>
</a>
</g>
</g>
<!-- Node6&#45;&gt;Node2 -->
<g id="edge5" class="edge"><title>Node6&#45;&gt;Node2</title>
<path fill="none" stroke="midnightblue" d="M549.245,-29.4221C560.86,-30.7633 572.551,-32.1133 583.784,-33.4103"/>
<polygon fill="midnightblue" stroke="midnightblue" points="549.407,-25.9176 539.072,-28.2473 548.604,-32.8714 549.407,-25.9176"/>
</g>
<!-- Node7 -->
<g id="node7" class="node"><title>Node7</title>
<g id="a_node7"><a xlink:href="classgko_1_1ConvertibleTo.html" target="_top" xlink:title="gko::ConvertibleTo\l\&lt; ConcreteFactory \&gt;">
<polygon fill="white" stroke="black" points="162,-0.5 162,-30.5 279,-30.5 279,-0.5 162,-0.5"/>
<text text-anchor="start" x="170" y="-18.5" font-family="Helvetica,sans-Serif" font-size="10.00">gko::ConvertibleTo</text>
<text text-anchor="middle" x="220.5" y="-7.5" font-family="Helvetica,sans-Serif" font-size="10.00">&lt; ConcreteFactory &gt;</text>
</a>
</g>
</g>
<!-- Node7&#45;&gt;Node6 -->
<g id="edge6" class="edge"><title>Node7&#45;&gt;Node6</title>
<path fill="none" stroke="midnightblue" d="M289.329,-16.1097C308.73,-16.2841 330.221,-16.4773 350.857,-16.6628"/>
<polygon fill="midnightblue" stroke="midnightblue" points="289.12,-12.6078 279.089,-16.0177 289.057,-19.6075 289.12,-12.6078"/>
</g>
</g>
</svg>
