<?xml version="1.0" encoding="UTF-8" standalone="no"?>
<!DOCTYPE svg PUBLIC "-//W3C//DTD SVG 1.1//EN"
 "http://www.w3.org/Graphics/SVG/1.1/DTD/svg11.dtd">
<!-- Generated by graphviz version 2.38.0 (20140413.2041)
 -->
<!-- Title: gko::solver::Gmres&lt; ValueType &gt; Pages: 1 -->
<!--zoomable 112 -->
<svg id="main" version="1.1" xmlns="http://www.w3.org/2000/svg" xmlns:xlink="http://www.w3.org/1999/xlink" xml:space="preserve" onload="init(evt)">
<style type="text/css"><![CDATA[
.edge:hover path { stroke: red; }
.edge:hover polygon { stroke: red; fill: red; }
]]></style>
<script type="text/javascript"><![CDATA[
var edges = document.getElementsByTagName('g');
if (edges && edges.length) {
  for (var i=0;i<edges.length;i++) {
    if (edges[i].id.substr(0,4)=='edge') {
      edges[i].setAttribute('class','edge');
    }
  }
}
]]></script>
        <defs>
                <circle id="rim" cx="0" cy="0" r="7"/>
                <circle id="rim2" cx="0" cy="0" r="3.5"/>
                <g id="zoomPlus">
                        <use xlink:href="#rim" fill="#404040">
                                <set attributeName="fill" to="#808080" begin="zoomplus.mouseover" end="zoomplus.mouseout"/>
                        </use>
                        <path d="M-4,0h8M0,-4v8" fill="none" stroke="white" stroke-width="1.5" pointer-events="none"/>
                </g>
                <g id="zoomMin">
                        <use xlink:href="#rim" fill="#404040">
                                <set attributeName="fill" to="#808080" begin="zoomminus.mouseover" end="zoomminus.mouseout"/>
                        </use>
                        <path d="M-4,0h8" fill="none" stroke="white" stroke-width="1.5" pointer-events="none"/>
                </g>
                <g id="dirArrow">
                        <path fill="none" stroke="white" stroke-width="1.5" d="M0,-3.0v7 M-2.5,-0.5L0,-3.0L2.5,-0.5"/>
                </g>
               <g id="resetDef">
                       <use xlink:href="#rim2" fill="#404040">
                               <set attributeName="fill" to="#808080" begin="reset.mouseover" end="reset.mouseout"/>
                       </use>
               </g>
        </defs>

<script type="text/javascript">
var viewWidth = 1506;
var viewHeight = 112;
var sectionId = 'dynsection-0';
</script>
<script xlink:href="svgpan.js"/>
<svg id="graph" class="graph">
<g id="viewport">
<title>gko::solver::Gmres&lt; ValueType &gt;</title>
<polygon fill="white" stroke="none" points="-4,4 -4,-108 1502,-108 1502,4 -4,4"/>
<!-- Node1 -->
<g id="node1" class="node"><title>Node1</title>
<polygon fill="#bfbfbf" stroke="black" points="1391,-17 1391,-47 1498,-47 1498,-17 1391,-17"/>
<text text-anchor="start" x="1399" y="-35" font-family="Helvetica,sans-Serif" font-size="10.00">gko::solver::Gmres</text>
<text text-anchor="middle" x="1444.5" y="-24" font-family="Helvetica,sans-Serif" font-size="10.00">&lt; ValueType &gt;</text>
</g>
<!-- Node2 -->
<g id="node2" class="node"><title>Node2</title>
<g id="a_node2"><a xlink:href="classgko_1_1EnableLinOp.html" target="_top" xlink:title="gko::EnableLinOp\&lt; Gmres\l\&lt; ValueType \&gt; \&gt;">
<polygon fill="white" stroke="black" points="1212,-39 1212,-69 1355,-69 1355,-39 1212,-39"/>
<text text-anchor="start" x="1220" y="-57" font-family="Helvetica,sans-Serif" font-size="10.00">gko::EnableLinOp&lt; Gmres</text>
<text text-anchor="middle" x="1283.5" y="-46" font-family="Helvetica,sans-Serif" font-size="10.00">&lt; ValueType &gt; &gt;</text>
</a>
</g>
</g>
<!-- Node2&#45;&gt;Node1 -->
<g id="edge1" class="edge"><title>Node2&#45;&gt;Node1</title>
<path fill="none" stroke="midnightblue" d="M1365.28,-42.8226C1373.91,-41.6284 1382.52,-40.437 1390.71,-39.3047"/>
<polygon fill="midnightblue" stroke="midnightblue" points="1364.59,-39.3847 1355.17,-44.2224 1365.55,-46.3187 1364.59,-39.3847"/>
</g>
<!-- Node3 -->
<g id="node3" class="node"><title>Node3</title>
<g id="a_node3"><a xlink:href="classgko_1_1EnablePolymorphicObject.html" target="_top" xlink:title="gko::EnablePolymorphicObject\l\&lt; Gmres\&lt; ValueType \&gt;, LinOp \&gt;">
<polygon fill="white" stroke="black" points="995,-66 995,-96 1169,-96 1169,-66 995,-66"/>
<text text-anchor="start" x="1003" y="-84" font-family="Helvetica,sans-Serif" font-size="10.00">gko::EnablePolymorphicObject</text>
<text text-anchor="middle" x="1082" y="-73" font-family="Helvetica,sans-Serif" font-size="10.00">&lt; Gmres&lt; ValueType &gt;, LinOp &gt;</text>
</a>
</g>
</g>
<!-- Node3&#45;&gt;Node2 -->
<g id="edge2" class="edge"><title>Node3&#45;&gt;Node2</title>
<path fill="none" stroke="midnightblue" d="M1179.11,-67.9925C1190.1,-66.5056 1201.14,-65.0108 1211.71,-63.5803"/>
<polygon fill="midnightblue" stroke="midnightblue" points="1178.49,-64.544 1169.05,-69.3537 1179.43,-71.4808 1178.49,-64.544"/>
</g>
<!-- Node4 -->
<g id="node4" class="node"><title>Node4</title>
<g id="a_node4"><a xlink:href="classgko_1_1EnableAbstractPolymorphicObject.html" target="_top" xlink:title="gko::EnableAbstractPolymorphic\lObject\&lt; Gmres\&lt; ValueType\l \&gt;, LinOp \&gt;">
<polygon fill="white" stroke="black" points="781,-62.5 781,-103.5 952,-103.5 952,-62.5 781,-62.5"/>
<text text-anchor="start" x="789" y="-91.5" font-family="Helvetica,sans-Serif" font-size="10.00">gko::EnableAbstractPolymorphic</text>
<text text-anchor="start" x="789" y="-80.5" font-family="Helvetica,sans-Serif" font-size="10.00">Object&lt; Gmres&lt; ValueType</text>
<text text-anchor="middle" x="866.5" y="-69.5" font-family="Helvetica,sans-Serif" font-size="10.00"> &gt;, LinOp &gt;</text>
</a>
</g>
</g>
<!-- Node4&#45;&gt;Node3 -->
<g id="edge3" class="edge"><title>Node4&#45;&gt;Node3</title>
<path fill="none" stroke="midnightblue" d="M962.416,-82.1109C973.152,-82.0103 984.049,-81.9082 994.666,-81.8087"/>
<polygon fill="midnightblue" stroke="midnightblue" points="962.154,-78.6131 952.187,-82.2067 962.22,-85.6128 962.154,-78.6131"/>
</g>
<!-- Node5 -->
<g id="node5" class="node"><title>Node5</title>
<g id="a_node5"><a xlink:href="classgko_1_1LinOp.html" target="_top" xlink:title="The linear operator (LinOp) is a base class for all linear algebra objects in Ginkgo. ">
<polygon fill="white" stroke="black" points="678,-73.5 678,-92.5 745,-92.5 745,-73.5 678,-73.5"/>
<text text-anchor="middle" x="711.5" y="-80.5" font-family="Helvetica,sans-Serif" font-size="10.00">gko::LinOp</text>
</a>
</g>
</g>
<!-- Node5&#45;&gt;Node4 -->
<g id="edge4" class="edge"><title>Node5&#45;&gt;Node4</title>
<path fill="none" stroke="midnightblue" d="M755.465,-83C763.479,-83 772.105,-83 780.874,-83"/>
<polygon fill="midnightblue" stroke="midnightblue" points="755.322,-79.5001 745.322,-83 755.322,-86.5001 755.322,-79.5001"/>
</g>
<!-- Node6 -->
<g id="node6" class="node"><title>Node6</title>
<g id="a_node6"><a xlink:href="classgko_1_1EnableAbstractPolymorphicObject.html" target="_top" xlink:title="gko::EnableAbstractPolymorphic\lObject\&lt; LinOp \&gt;">
<polygon fill="white" stroke="black" points="471,-68 471,-98 642,-98 642,-68 471,-68"/>
<text text-anchor="start" x="479" y="-86" font-family="Helvetica,sans-Serif" font-size="10.00">gko::EnableAbstractPolymorphic</text>
<text text-anchor="middle" x="556.5" y="-75" font-family="Helvetica,sans-Serif" font-size="10.00">Object&lt; LinOp &gt;</text>
</a>
</g>
</g>
<!-- Node6&#45;&gt;Node5 -->
<g id="edge5" class="edge"><title>Node6&#45;&gt;Node5</title>
<path fill="none" stroke="midnightblue" d="M652.098,-83C661.246,-83 670.027,-83 677.877,-83"/>
<polygon fill="midnightblue" stroke="midnightblue" points="652.055,-79.5001 642.055,-83 652.055,-86.5001 652.055,-79.5001"/>
</g>
<!-- Node7 -->
<g id="node7" class="node"><title>Node7</title>
<g id="a_node7"><a xlink:href="classgko_1_1PolymorphicObject.html" target="_top" xlink:title="A PolymorphicObject is the abstract base for all &quot;heavy&quot; objects in Ginkgo that behave polymorphicall...">
<polygon fill="white" stroke="black" points="306,-73.5 306,-92.5 435,-92.5 435,-73.5 306,-73.5"/>
<text text-anchor="middle" x="370.5" y="-80.5" font-family="Helvetica,sans-Serif" font-size="10.00">gko::PolymorphicObject</text>
</a>
</g>
</g>
<!-- Node7&#45;&gt;Node6 -->
<g id="edge6" class="edge"><title>Node7&#45;&gt;Node6</title>
<path fill="none" stroke="midnightblue" d="M445.224,-83C453.644,-83 462.276,-83 470.824,-83"/>
<polygon fill="midnightblue" stroke="midnightblue" points="445.08,-79.5001 435.08,-83 445.08,-86.5001 445.08,-79.5001"/>
</g>
<!-- Node8 -->
<g id="node8" class="node"><title>Node8</title>
<g id="a_node8"><a xlink:href="classgko_1_1log_1_1EnableLogging.html" target="_top" xlink:title="gko::log::EnableLogging\l\&lt; PolymorphicObject \&gt;">
<polygon fill="white" stroke="black" points="140,-68 140,-98 270,-98 270,-68 140,-68"/>
<text text-anchor="start" x="148" y="-86" font-family="Helvetica,sans-Serif" font-size="10.00">gko::log::EnableLogging</text>
<text text-anchor="middle" x="205" y="-75" font-family="Helvetica,sans-Serif" font-size="10.00">&lt; PolymorphicObject &gt;</text>
</a>
</g>
</g>
<!-- Node8&#45;&gt;Node7 -->
<g id="edge7" class="edge"><title>Node8&#45;&gt;Node7</title>
<path fill="none" stroke="midnightblue" d="M280.416,-83C288.895,-83 297.48,-83 305.803,-83"/>
<polygon fill="midnightblue" stroke="midnightblue" points="280.15,-79.5001 270.15,-83 280.15,-86.5001 280.15,-79.5001"/>
</g>
<!-- Node9 -->
<g id="node9" class="node"><title>Node9</title>
<g id="a_node9"><a xlink:href="classgko_1_1log_1_1Loggable.html" target="_top" xlink:title="Loggable class is an interface which should be implemented by classes wanting to support logging...">
<polygon fill="white" stroke="black" points="0,-73.5 0,-92.5 104,-92.5 104,-73.5 0,-73.5"/>
<text text-anchor="middle" x="52" y="-80.5" font-family="Helvetica,sans-Serif" font-size="10.00">gko::log::Loggable</text>
</a>
</g>
</g>
<!-- Node9&#45;&gt;Node8 -->
<g id="edge8" class="edge"><title>Node9&#45;&gt;Node8</title>
<path fill="none" stroke="midnightblue" d="M114.245,-83C122.668,-83 131.337,-83 139.812,-83"/>
<polygon fill="midnightblue" stroke="midnightblue" points="114.122,-79.5001 104.122,-83 114.122,-86.5001 114.122,-79.5001"/>
</g>
<!-- Node10 -->
<g id="node10" class="node"><title>Node10</title>
<g id="a_node10"><a xlink:href="classgko_1_1EnablePolymorphicAssignment.html" target="_top" xlink:title="gko::EnablePolymorphicAssignment\l\&lt; Gmres\&lt; ValueType \&gt; \&gt;">
<polygon fill="white" stroke="black" points="988,-15 988,-45 1176,-45 1176,-15 988,-15"/>
<text text-anchor="start" x="996" y="-33" font-family="Helvetica,sans-Serif" font-size="10.00">gko::EnablePolymorphicAssignment</text>
<text text-anchor="middle" x="1082" y="-22" font-family="Helvetica,sans-Serif" font-size="10.00">&lt; Gmres&lt; ValueType &gt; &gt;</text>
</a>
</g>
</g>
<!-- Node10&#45;&gt;Node2 -->
<g id="edge9" class="edge"><title>Node10&#45;&gt;Node2</title>
<path fill="none" stroke="midnightblue" d="M1185.96,-42.3867C1194.76,-43.4449 1203.52,-44.4992 1211.98,-45.5164"/>
<polygon fill="midnightblue" stroke="midnightblue" points="1186.38,-38.9115 1176.03,-41.192 1185.54,-45.8614 1186.38,-38.9115"/>
</g>
<!-- Node11 -->
<g id="node11" class="node"><title>Node11</title>
<g id="a_node11"><a xlink:href="classgko_1_1ConvertibleTo.html" target="_top" xlink:title="gko::ConvertibleTo\l\&lt; Gmres\&lt; ValueType \&gt; \&gt;">
<polygon fill="white" stroke="black" points="796,-14 796,-44 937,-44 937,-14 796,-14"/>
<text text-anchor="start" x="804" y="-32" font-family="Helvetica,sans-Serif" font-size="10.00">gko::ConvertibleTo</text>
<text text-anchor="middle" x="866.5" y="-21" font-family="Helvetica,sans-Serif" font-size="10.00">&lt; Gmres&lt; ValueType &gt; &gt;</text>
</a>
</g>
</g>
<!-- Node11&#45;&gt;Node10 -->
<g id="edge10" class="edge"><title>Node11&#45;&gt;Node10</title>
<path fill="none" stroke="midnightblue" d="M947.121,-29.3729C960.381,-29.435 974.239,-29.4999 987.8,-29.5635"/>
<polygon fill="midnightblue" stroke="midnightblue" points="947.129,-25.873 937.112,-29.3261 947.096,-32.873 947.129,-25.873"/>
</g>
<!-- Node12 -->
<g id="node12" class="node"><title>Node12</title>
<g id="a_node12"><a xlink:href="classgko_1_1Preconditionable.html" target="_top" xlink:title="A LinOp implementing this interface can be preconditioned. ">
<polygon fill="white" stroke="black" points="1224,-0.5 1224,-19.5 1343,-19.5 1343,-0.5 1224,-0.5"/>
<text text-anchor="middle" x="1283.5" y="-7.5" font-family="Helvetica,sans-Serif" font-size="10.00">gko::Preconditionable</text>
</a>
</g>
</g>
<!-- Node12&#45;&gt;Node1 -->
<g id="edge11" class="edge"><title>Node12&#45;&gt;Node1</title>
<path fill="none" stroke="midnightblue" d="M1353.23,-19.5104C1365.81,-21.2501 1378.75,-23.0404 1390.76,-24.703"/>
<polygon fill="midnightblue" stroke="midnightblue" points="1353.64,-16.0332 1343.25,-18.1295 1352.68,-22.9671 1353.64,-16.0332"/>
</g>
</g>
</svg>
        <g id="navigator" transform="translate(0 0)" fill="#404254">
                <rect fill="#f2f5e9" fill-opacity="0.5" stroke="#606060" stroke-width=".5" x="0" y="0" width="60" height="60"/>
                <use id="zoomplus" xlink:href="#zoomPlus" x="17" y="9" onmousedown="handleZoom(evt,'in')"/>
                <use id="zoomminus" xlink:href="#zoomMin" x="42" y="9" onmousedown="handleZoom(evt,'out')"/>
                <use id="reset" xlink:href="#resetDef" x="30" y="36" onmousedown="handleReset()"/>
                <g id="arrowUp" xlink:href="#dirArrow" transform="translate(30 24)" onmousedown="handlePan(0,-1)">
                  <use xlink:href="#rim" fill="#404040">
                        <set attributeName="fill" to="#808080" begin="arrowUp.mouseover" end="arrowUp.mouseout"/>
                  </use>
                  <path fill="none" stroke="white" stroke-width="1.5" d="M0,-3.0v7 M-2.5,-0.5L0,-3.0L2.5,-0.5"/>
                </g>
                <g id="arrowRight" xlink:href="#dirArrow" transform="rotate(90) translate(36 -43)" onmousedown="handlePan(1,0)">
                  <use xlink:href="#rim" fill="#404040">
                        <set attributeName="fill" to="#808080" begin="arrowRight.mouseover" end="arrowRight.mouseout"/>
                  </use>
                  <path fill="none" stroke="white" stroke-width="1.5" d="M0,-3.0v7 M-2.5,-0.5L0,-3.0L2.5,-0.5"/>
                </g>
                <g id="arrowDown" xlink:href="#dirArrow" transform="rotate(180) translate(-30 -48)" onmousedown="handlePan(0,1)">
                  <use xlink:href="#rim" fill="#404040">
                        <set attributeName="fill" to="#808080" begin="arrowDown.mouseover" end="arrowDown.mouseout"/>
                  </use>
                  <path fill="none" stroke="white" stroke-width="1.5" d="M0,-3.0v7 M-2.5,-0.5L0,-3.0L2.5,-0.5"/>
                </g>
                <g id="arrowLeft" xlink:href="#dirArrow" transform="rotate(270) translate(-36 17)" onmousedown="handlePan(-1,0)">
                  <use xlink:href="#rim" fill="#404040">
                        <set attributeName="fill" to="#808080" begin="arrowLeft.mouseover" end="arrowLeft.mouseout"/>
                  </use>
                  <path fill="none" stroke="white" stroke-width="1.5" d="M0,-3.0v7 M-2.5,-0.5L0,-3.0L2.5,-0.5"/>
                </g>
        </g>
        <svg viewBox="0 0 15 15" width="100%" height="30px" preserveAspectRatio="xMaxYMin meet">
         <g id="arrow_out" transform="scale(0.3 0.3)">
          <a xlink:href="classgko_1_1solver_1_1Gmres__coll__graph_org.svg" target="_base">
           <rect id="button" ry="5" rx="5" y="6" x="6" height="38" width="38"
                fill="#f2f5e9" fill-opacity="0.5" stroke="#606060" stroke-width="1.0"/>
           <path id="arrow"
             d="M 11.500037,31.436501 C 11.940474,20.09759 22.043105,11.32322 32.158766,21.979434 L 37.068811,17.246167 C 37.068811,17.246167 37.088388,32 37.088388,32 L 22.160133,31.978069 C 22.160133,31.978069 26.997745,27.140456 26.997745,27.140456 C 18.528582,18.264221 13.291696,25.230495 11.500037,31.436501 z"
             style="fill:#404040;"/>
          </a>
         </g>
        </svg>
</svg>
