<?xml version="1.0" encoding="UTF-8" standalone="no"?>
<!DOCTYPE svg PUBLIC "-//W3C//DTD SVG 1.1//EN"
 "http://www.w3.org/Graphics/SVG/1.1/DTD/svg11.dtd">
<!-- Generated by graphviz version 2.38.0 (20140413.2041)
 -->
<!-- Title: gko::LinOp Pages: 1 -->
<svg width="1201pt" height="94pt"
 viewBox="0.00 0.00 1201.00 93.50" xmlns="http://www.w3.org/2000/svg" xmlns:xlink="http://www.w3.org/1999/xlink">
<g id="graph0" class="graph" transform="scale(1 1) rotate(0) translate(4 89.5)">
<title>gko::LinOp</title>
<polygon fill="white" stroke="none" points="-4,4 -4,-89.5 1197,-89.5 1197,4 -4,4"/>
<!-- Node1 -->
<g id="node1" class="node"><title>Node1</title>
<polygon fill="#bfbfbf" stroke="black" points="1126,-38.5 1126,-57.5 1193,-57.5 1193,-38.5 1126,-38.5"/>
<text text-anchor="middle" x="1159.5" y="-45.5" font-family="Helvetica,sans-Serif" font-size="10.00">gko::LinOp</text>
</g>
<!-- Node2 -->
<g id="node2" class="node"><title>Node2</title>
<g id="a_node2"><a xlink:href="classgko_1_1EnableAbstractPolymorphicObject.html" target="_top" xlink:title="gko::EnableAbstractPolymorphic\lObject\&lt; LinOp \&gt;">
<polygon fill="white" stroke="black" points="918,-33 918,-63 1089,-63 1089,-33 918,-33"/>
<text text-anchor="start" x="926" y="-51" font-family="Helvetica,sans-Serif" font-size="10.00">gko::EnableAbstractPolymorphic</text>
<text text-anchor="middle" x="1003.5" y="-40" font-family="Helvetica,sans-Serif" font-size="10.00">Object&lt; LinOp &gt;</text>
</a>
</g>
</g>
<!-- Node2&#45;&gt;Node1 -->
<g id="edge1" class="edge"><title>Node2&#45;&gt;Node1</title>
<path fill="none" stroke="midnightblue" d="M1099.43,-48C1108.78,-48 1117.76,-48 1125.77,-48"/>
<polygon fill="midnightblue" stroke="midnightblue" points="1099.16,-44.5001 1089.16,-48 1099.16,-51.5001 1099.16,-44.5001"/>
</g>
<!-- Node3 -->
<g id="node3" class="node"><title>Node3</title>
<g id="a_node3"><a xlink:href="classgko_1_1PolymorphicObject.html" target="_top" xlink:title="A PolymorphicObject is the abstract base for all &quot;heavy&quot; objects in Ginkgo that behave polymorphicall...">
<polygon fill="white" stroke="black" points="669,-60.5 669,-79.5 798,-79.5 798,-60.5 669,-60.5"/>
<text text-anchor="middle" x="733.5" y="-67.5" font-family="Helvetica,sans-Serif" font-size="10.00">gko::PolymorphicObject</text>
</a>
</g>
</g>
<!-- Node3&#45;&gt;Node2 -->
<g id="edge2" class="edge"><title>Node3&#45;&gt;Node2</title>
<path fill="none" stroke="midnightblue" d="M808.325,-63.9397C842.271,-61.1532 882.718,-57.8328 917.889,-54.9457"/>
<polygon fill="midnightblue" stroke="midnightblue" points="807.692,-60.4798 798.012,-64.7863 808.265,-67.4563 807.692,-60.4798"/>
</g>
<!-- Node4 -->
<g id="node4" class="node"><title>Node4</title>
<g id="a_node4"><a xlink:href="classgko_1_1log_1_1EnableLogging.html" target="_top" xlink:title="gko::log::EnableLogging\l\&lt; PolymorphicObject \&gt;">
<polygon fill="white" stroke="black" points="471,-55 471,-85 601,-85 601,-55 471,-55"/>
<text text-anchor="start" x="479" y="-73" font-family="Helvetica,sans-Serif" font-size="10.00">gko::log::EnableLogging</text>
<text text-anchor="middle" x="536" y="-62" font-family="Helvetica,sans-Serif" font-size="10.00">&lt; PolymorphicObject &gt;</text>
</a>
</g>
</g>
<!-- Node4&#45;&gt;Node3 -->
<g id="edge3" class="edge"><title>Node4&#45;&gt;Node3</title>
<path fill="none" stroke="midnightblue" d="M611.097,-70C630.058,-70 650.282,-70 668.676,-70"/>
<polygon fill="midnightblue" stroke="midnightblue" points="611.014,-66.5001 601.014,-70 611.014,-73.5001 611.014,-66.5001"/>
</g>
<!-- Node5 -->
<g id="node5" class="node"><title>Node5</title>
<g id="a_node5"><a xlink:href="classgko_1_1log_1_1Loggable.html" target="_top" xlink:title="Loggable class is an interface which should be implemented by classes wanting to support logging...">
<polygon fill="white" stroke="black" points="0,-55.5 0,-74.5 104,-74.5 104,-55.5 0,-55.5"/>
<text text-anchor="middle" x="52" y="-62.5" font-family="Helvetica,sans-Serif" font-size="10.00">gko::log::Loggable</text>
</a>
</g>
</g>
<!-- Node5&#45;&gt;Node4 -->
<g id="edge4" class="edge"><title>Node5&#45;&gt;Node4</title>
<path fill="none" stroke="midnightblue" d="M114.32,-67.775C116.914,-67.858 119.483,-67.9336 122,-68 245.464,-71.2546 389.759,-71.035 470.957,-70.5429"/>
<polygon fill="midnightblue" stroke="midnightblue" points="114.354,-64.2742 104.238,-67.4228 114.109,-71.2699 114.354,-64.2742"/>
</g>
<!-- Node6 -->
<g id="node6" class="node"><title>Node6</title>
<g id="a_node6"><a xlink:href="classgko_1_1log_1_1EnableLogging.html" target="_top" xlink:title="EnableLogging is a mixin which should be inherited by any class which wants to enable logging...">
<polygon fill="white" stroke="black" points="141,-14.5 141,-55.5 320,-55.5 320,-14.5 141,-14.5"/>
<text text-anchor="start" x="149" y="-43.5" font-family="Helvetica,sans-Serif" font-size="10.00">gko::log::EnableLogging</text>
<text text-anchor="start" x="149" y="-32.5" font-family="Helvetica,sans-Serif" font-size="10.00">&lt; ConcreteLoggable, Polymorphic</text>
<text text-anchor="middle" x="230.5" y="-21.5" font-family="Helvetica,sans-Serif" font-size="10.00">Base &gt;</text>
</a>
</g>
</g>
<!-- Node5&#45;&gt;Node6 -->
<g id="edge6" class="edge"><title>Node5&#45;&gt;Node6</title>
<path fill="none" stroke="midnightblue" d="M114.07,-54.6198C122.778,-53.1398 131.877,-51.5932 140.979,-50.046"/>
<polygon fill="midnightblue" stroke="midnightblue" points="113.323,-51.1965 104.051,-56.3228 114.496,-58.0975 113.323,-51.1965"/>
</g>
<!-- Node6&#45;&gt;Node4 -->
<g id="edge5" class="edge"><title>Node6&#45;&gt;Node4</title>
<path fill="none" stroke="orange" stroke-dasharray="5,2" d="M330.336,-45.166C368.666,-49.2508 412.904,-54.1392 453,-59 458.704,-59.6915 464.627,-60.4354 470.562,-61.1985"/>
<polygon fill="orange" stroke="orange" points="330.523,-41.6663 320.209,-44.0908 329.784,-48.6271 330.523,-41.6663"/>
<text text-anchor="middle" x="395.5" y="-62" font-family="Helvetica,sans-Serif" font-size="10.00"> &lt; PolymorphicObject &gt;</text>
</g>
<!-- Node7 -->
<g id="node7" class="node"><title>Node7</title>
<g id="a_node7"><a xlink:href="classgko_1_1EnableAbstractPolymorphicObject.html" target="_top" xlink:title="This mixin inherits from (a subclass of) PolymorphicObject and provides a base implementation of a ne...">
<polygon fill="white" stroke="black" points="638,-0.5 638,-41.5 829,-41.5 829,-0.5 638,-0.5"/>
<text text-anchor="start" x="646" y="-29.5" font-family="Helvetica,sans-Serif" font-size="10.00">gko::EnableAbstractPolymorphic</text>
<text text-anchor="start" x="646" y="-18.5" font-family="Helvetica,sans-Serif" font-size="10.00">Object&lt; AbstactObject, Polymorphic</text>
<text text-anchor="middle" x="733.5" y="-7.5" font-family="Helvetica,sans-Serif" font-size="10.00">Base &gt;</text>
</a>
</g>
</g>
<!-- Node7&#45;&gt;Node2 -->
<g id="edge7" class="edge"><title>Node7&#45;&gt;Node2</title>
<path fill="none" stroke="orange" stroke-dasharray="5,2" d="M839.574,-31.5858C865.437,-34.1914 892.809,-36.9491 917.584,-39.4451"/>
<polygon fill="orange" stroke="orange" points="839.664,-28.0773 829.364,-30.5572 838.963,-35.042 839.664,-28.0773"/>
<text text-anchor="middle" x="873.5" y="-40" font-family="Helvetica,sans-Serif" font-size="10.00"> &lt; LinOp &gt;</text>
</g>
<!-- Node8 -->
<g id="node8" class="node"><title>Node8</title>
<polygon fill="white" stroke="#bfbfbf" points="486.5,-11.5 486.5,-30.5 585.5,-30.5 585.5,-11.5 486.5,-11.5"/>
<text text-anchor="middle" x="536" y="-18.5" font-family="Helvetica,sans-Serif" font-size="10.00">PolymorphicBase</text>
</g>
<!-- Node8&#45;&gt;Node7 -->
<g id="edge8" class="edge"><title>Node8&#45;&gt;Node7</title>
<path fill="none" stroke="midnightblue" d="M595.959,-21C609.238,-21 623.657,-21 637.984,-21"/>
<polygon fill="midnightblue" stroke="midnightblue" points="595.577,-17.5001 585.577,-21 595.577,-24.5001 595.577,-17.5001"/>
</g>
</g>
</svg>
