<?xml version="1.0" encoding="UTF-8" standalone="no"?>
<!DOCTYPE svg PUBLIC "-//W3C//DTD SVG 1.1//EN"
 "http://www.w3.org/Graphics/SVG/1.1/DTD/svg11.dtd">
<!-- Generated by graphviz version 2.38.0 (20140413.2041)
 -->
<!-- Title: gko::matrix::Dense&lt; ValueType &gt; Pages: 1 -->
<svg width="1523pt" height="890pt"
 viewBox="0.00 0.00 1523.00 890.00" xmlns="http://www.w3.org/2000/svg" xmlns:xlink="http://www.w3.org/1999/xlink">
<g id="graph0" class="graph" transform="scale(1 1) rotate(0) translate(4 886)">
<title>gko::matrix::Dense&lt; ValueType &gt;</title>
<polygon fill="white" stroke="none" points="-4,4 -4,-886 1519,-886 1519,4 -4,4"/>
<!-- Node1 -->
<g id="node1" class="node"><title>Node1</title>
<polygon fill="#bfbfbf" stroke="black" points="1408,-420 1408,-450 1515,-450 1515,-420 1408,-420"/>
<text text-anchor="start" x="1416" y="-438" font-family="Helvetica,sans-Serif" font-size="10.00">gko::matrix::Dense</text>
<text text-anchor="middle" x="1461.5" y="-427" font-family="Helvetica,sans-Serif" font-size="10.00">&lt; ValueType &gt;</text>
</g>
<!-- Node2 -->
<g id="node2" class="node"><title>Node2</title>
<g id="a_node2"><a xlink:href="classgko_1_1EnableLinOp.html" target="_top" xlink:title="gko::EnableLinOp\&lt; Dense\l\&lt; ValueType \&gt; \&gt;">
<polygon fill="white" stroke="black" points="1221.5,-817 1221.5,-847 1362.5,-847 1362.5,-817 1221.5,-817"/>
<text text-anchor="start" x="1229.5" y="-835" font-family="Helvetica,sans-Serif" font-size="10.00">gko::EnableLinOp&lt; Dense</text>
<text text-anchor="middle" x="1292" y="-824" font-family="Helvetica,sans-Serif" font-size="10.00">&lt; ValueType &gt; &gt;</text>
</a>
</g>
</g>
<!-- Node2&#45;&gt;Node1 -->
<g id="edge1" class="edge"><title>Node2&#45;&gt;Node1</title>
<path fill="none" stroke="midnightblue" d="M1368.06,-810.81C1369.44,-809.609 1370.75,-808.34 1372,-807 1422.17,-753.03 1451.88,-512.915 1458.89,-450.086"/>
<polygon fill="midnightblue" stroke="midnightblue" points="1365.6,-808.267 1359.57,-816.975 1369.72,-813.931 1365.6,-808.267"/>
</g>
<!-- Node3 -->
<g id="node3" class="node"><title>Node3</title>
<g id="a_node3"><a xlink:href="classgko_1_1EnablePolymorphicObject.html" target="_top" xlink:title="gko::EnablePolymorphicObject\l\&lt; Dense\&lt; ValueType \&gt;, LinOp \&gt;">
<polygon fill="white" stroke="black" points="995.5,-844 995.5,-874 1168.5,-874 1168.5,-844 995.5,-844"/>
<text text-anchor="start" x="1003.5" y="-862" font-family="Helvetica,sans-Serif" font-size="10.00">gko::EnablePolymorphicObject</text>
<text text-anchor="middle" x="1082" y="-851" font-family="Helvetica,sans-Serif" font-size="10.00">&lt; Dense&lt; ValueType &gt;, LinOp &gt;</text>
</a>
</g>
</g>
<!-- Node3&#45;&gt;Node2 -->
<g id="edge2" class="edge"><title>Node3&#45;&gt;Node2</title>
<path fill="none" stroke="midnightblue" d="M1178.46,-846.608C1192.92,-844.732 1207.59,-842.827 1221.36,-841.039"/>
<polygon fill="midnightblue" stroke="midnightblue" points="1177.97,-843.143 1168.5,-847.901 1178.87,-850.085 1177.97,-843.143"/>
</g>
<!-- Node4 -->
<g id="node4" class="node"><title>Node4</title>
<g id="a_node4"><a xlink:href="classgko_1_1EnableAbstractPolymorphicObject.html" target="_top" xlink:title="gko::EnableAbstractPolymorphic\lObject\&lt; Dense\&lt; ValueType\l \&gt;, LinOp \&gt;">
<polygon fill="white" stroke="black" points="781,-840.5 781,-881.5 952,-881.5 952,-840.5 781,-840.5"/>
<text text-anchor="start" x="789" y="-869.5" font-family="Helvetica,sans-Serif" font-size="10.00">gko::EnableAbstractPolymorphic</text>
<text text-anchor="start" x="789" y="-858.5" font-family="Helvetica,sans-Serif" font-size="10.00">Object&lt; Dense&lt; ValueType</text>
<text text-anchor="middle" x="866.5" y="-847.5" font-family="Helvetica,sans-Serif" font-size="10.00"> &gt;, LinOp &gt;</text>
</a>
</g>
</g>
<!-- Node4&#45;&gt;Node3 -->
<g id="edge3" class="edge"><title>Node4&#45;&gt;Node3</title>
<path fill="none" stroke="midnightblue" d="M962.25,-860.112C973.276,-860.009 984.474,-859.904 995.366,-859.802"/>
<polygon fill="midnightblue" stroke="midnightblue" points="962.154,-856.613 952.187,-860.207 962.22,-863.613 962.154,-856.613"/>
</g>
<!-- Node5 -->
<g id="node5" class="node"><title>Node5</title>
<g id="a_node5"><a xlink:href="classgko_1_1LinOp.html" target="_top" xlink:title="The linear operator (LinOp) is a base class for all linear algebra objects in Ginkgo. ">
<polygon fill="white" stroke="black" points="678,-851.5 678,-870.5 745,-870.5 745,-851.5 678,-851.5"/>
<text text-anchor="middle" x="711.5" y="-858.5" font-family="Helvetica,sans-Serif" font-size="10.00">gko::LinOp</text>
</a>
</g>
</g>
<!-- Node5&#45;&gt;Node4 -->
<g id="edge4" class="edge"><title>Node5&#45;&gt;Node4</title>
<path fill="none" stroke="midnightblue" d="M755.465,-861C763.479,-861 772.105,-861 780.874,-861"/>
<polygon fill="midnightblue" stroke="midnightblue" points="755.322,-857.5 745.322,-861 755.322,-864.5 755.322,-857.5"/>
</g>
<!-- Node6 -->
<g id="node6" class="node"><title>Node6</title>
<g id="a_node6"><a xlink:href="classgko_1_1EnableAbstractPolymorphicObject.html" target="_top" xlink:title="gko::EnableAbstractPolymorphic\lObject\&lt; LinOp \&gt;">
<polygon fill="white" stroke="black" points="471,-846 471,-876 642,-876 642,-846 471,-846"/>
<text text-anchor="start" x="479" y="-864" font-family="Helvetica,sans-Serif" font-size="10.00">gko::EnableAbstractPolymorphic</text>
<text text-anchor="middle" x="556.5" y="-853" font-family="Helvetica,sans-Serif" font-size="10.00">Object&lt; LinOp &gt;</text>
</a>
</g>
</g>
<!-- Node6&#45;&gt;Node5 -->
<g id="edge5" class="edge"><title>Node6&#45;&gt;Node5</title>
<path fill="none" stroke="midnightblue" d="M652.098,-861C661.246,-861 670.027,-861 677.877,-861"/>
<polygon fill="midnightblue" stroke="midnightblue" points="652.055,-857.5 642.055,-861 652.055,-864.5 652.055,-857.5"/>
</g>
<!-- Node7 -->
<g id="node7" class="node"><title>Node7</title>
<g id="a_node7"><a xlink:href="classgko_1_1PolymorphicObject.html" target="_top" xlink:title="A PolymorphicObject is the abstract base for all &quot;heavy&quot; objects in Ginkgo that behave polymorphicall...">
<polygon fill="white" stroke="black" points="306,-851.5 306,-870.5 435,-870.5 435,-851.5 306,-851.5"/>
<text text-anchor="middle" x="370.5" y="-858.5" font-family="Helvetica,sans-Serif" font-size="10.00">gko::PolymorphicObject</text>
</a>
</g>
</g>
<!-- Node7&#45;&gt;Node6 -->
<g id="edge6" class="edge"><title>Node7&#45;&gt;Node6</title>
<path fill="none" stroke="midnightblue" d="M445.224,-861C453.644,-861 462.276,-861 470.824,-861"/>
<polygon fill="midnightblue" stroke="midnightblue" points="445.08,-857.5 435.08,-861 445.08,-864.5 445.08,-857.5"/>
</g>
<!-- Node8 -->
<g id="node8" class="node"><title>Node8</title>
<g id="a_node8"><a xlink:href="classgko_1_1log_1_1EnableLogging.html" target="_top" xlink:title="gko::log::EnableLogging\l\&lt; PolymorphicObject \&gt;">
<polygon fill="white" stroke="black" points="140,-846 140,-876 270,-876 270,-846 140,-846"/>
<text text-anchor="start" x="148" y="-864" font-family="Helvetica,sans-Serif" font-size="10.00">gko::log::EnableLogging</text>
<text text-anchor="middle" x="205" y="-853" font-family="Helvetica,sans-Serif" font-size="10.00">&lt; PolymorphicObject &gt;</text>
</a>
</g>
</g>
<!-- Node8&#45;&gt;Node7 -->
<g id="edge7" class="edge"><title>Node8&#45;&gt;Node7</title>
<path fill="none" stroke="midnightblue" d="M280.416,-861C288.895,-861 297.48,-861 305.803,-861"/>
<polygon fill="midnightblue" stroke="midnightblue" points="280.15,-857.5 270.15,-861 280.15,-864.5 280.15,-857.5"/>
</g>
<!-- Node9 -->
<g id="node9" class="node"><title>Node9</title>
<g id="a_node9"><a xlink:href="classgko_1_1log_1_1Loggable.html" target="_top" xlink:title="Loggable class is an interface which should be implemented by classes wanting to support logging...">
<polygon fill="white" stroke="black" points="0,-851.5 0,-870.5 104,-870.5 104,-851.5 0,-851.5"/>
<text text-anchor="middle" x="52" y="-858.5" font-family="Helvetica,sans-Serif" font-size="10.00">gko::log::Loggable</text>
</a>
</g>
</g>
<!-- Node9&#45;&gt;Node8 -->
<g id="edge8" class="edge"><title>Node9&#45;&gt;Node8</title>
<path fill="none" stroke="midnightblue" d="M114.245,-861C122.668,-861 131.337,-861 139.812,-861"/>
<polygon fill="midnightblue" stroke="midnightblue" points="114.122,-857.5 104.122,-861 114.122,-864.5 114.122,-857.5"/>
</g>
<!-- Node10 -->
<g id="node10" class="node"><title>Node10</title>
<g id="a_node10"><a xlink:href="classgko_1_1EnablePolymorphicAssignment.html" target="_top" xlink:title="gko::EnablePolymorphicAssignment\l\&lt; Dense\&lt; ValueType \&gt; \&gt;">
<polygon fill="white" stroke="black" points="988,-793 988,-823 1176,-823 1176,-793 988,-793"/>
<text text-anchor="start" x="996" y="-811" font-family="Helvetica,sans-Serif" font-size="10.00">gko::EnablePolymorphicAssignment</text>
<text text-anchor="middle" x="1082" y="-800" font-family="Helvetica,sans-Serif" font-size="10.00">&lt; Dense&lt; ValueType &gt; &gt;</text>
</a>
</g>
</g>
<!-- Node10&#45;&gt;Node2 -->
<g id="edge9" class="edge"><title>Node10&#45;&gt;Node2</title>
<path fill="none" stroke="midnightblue" d="M1186.09,-819.895C1198.06,-821.277 1210.05,-822.66 1221.42,-823.972"/>
<polygon fill="midnightblue" stroke="midnightblue" points="1186.38,-816.406 1176.05,-818.736 1185.58,-823.36 1186.38,-816.406"/>
</g>
<!-- Node11 -->
<g id="node11" class="node"><title>Node11</title>
<g id="a_node11"><a xlink:href="classgko_1_1ConvertibleTo.html" target="_top" xlink:title="gko::ConvertibleTo\l\&lt; Dense\&lt; ValueType \&gt; \&gt;">
<polygon fill="white" stroke="black" points="796.5,-792 796.5,-822 936.5,-822 936.5,-792 796.5,-792"/>
<text text-anchor="start" x="804.5" y="-810" font-family="Helvetica,sans-Serif" font-size="10.00">gko::ConvertibleTo</text>
<text text-anchor="middle" x="866.5" y="-799" font-family="Helvetica,sans-Serif" font-size="10.00">&lt; Dense&lt; ValueType &gt; &gt;</text>
</a>
</g>
</g>
<!-- Node11&#45;&gt;Node10 -->
<g id="edge10" class="edge"><title>Node11&#45;&gt;Node10</title>
<path fill="none" stroke="midnightblue" d="M946.623,-807.371C960.009,-807.433 974.018,-807.499 987.726,-807.563"/>
<polygon fill="midnightblue" stroke="midnightblue" points="946.539,-803.87 936.522,-807.323 946.506,-810.87 946.539,-803.87"/>
</g>
<!-- Node12 -->
<g id="node12" class="node"><title>Node12</title>
<g id="a_node12"><a xlink:href="classgko_1_1EnableCreateMethod.html" target="_top" xlink:title="gko::EnableCreateMethod\l\&lt; Dense\&lt; ValueType \&gt; \&gt;">
<polygon fill="white" stroke="black" points="1222,-768 1222,-798 1362,-798 1362,-768 1222,-768"/>
<text text-anchor="start" x="1230" y="-786" font-family="Helvetica,sans-Serif" font-size="10.00">gko::EnableCreateMethod</text>
<text text-anchor="middle" x="1292" y="-775" font-family="Helvetica,sans-Serif" font-size="10.00">&lt; Dense&lt; ValueType &gt; &gt;</text>
</a>
</g>
</g>
<!-- Node12&#45;&gt;Node1 -->
<g id="edge11" class="edge"><title>Node12&#45;&gt;Node1</title>
<path fill="none" stroke="midnightblue" d="M1367.62,-762.073C1369.15,-760.795 1370.62,-759.439 1372,-758 1458.65,-667.897 1462.18,-501.315 1461.08,-450.268"/>
<polygon fill="midnightblue" stroke="midnightblue" points="1365.59,-759.22 1359.43,-767.839 1369.62,-764.944 1365.59,-759.22"/>
</g>
<!-- Node13 -->
<g id="node13" class="node"><title>Node13</title>
<g id="a_node13"><a xlink:href="classgko_1_1ConvertibleTo.html" target="_top" xlink:title="gko::ConvertibleTo\l\&lt; Coo\&lt; ValueType, int32 \&gt; \&gt;">
<polygon fill="white" stroke="black" points="1213,-719 1213,-749 1371,-749 1371,-719 1213,-719"/>
<text text-anchor="start" x="1221" y="-737" font-family="Helvetica,sans-Serif" font-size="10.00">gko::ConvertibleTo</text>
<text text-anchor="middle" x="1292" y="-726" font-family="Helvetica,sans-Serif" font-size="10.00">&lt; Coo&lt; ValueType, int32 &gt; &gt;</text>
</a>
</g>
</g>
<!-- Node13&#45;&gt;Node1 -->
<g id="edge12" class="edge"><title>Node13&#45;&gt;Node1</title>
<path fill="none" stroke="midnightblue" d="M1367.4,-713.09C1369.01,-711.807 1370.55,-710.445 1372,-709 1446.98,-634.462 1458.47,-496.065 1460.2,-450.203"/>
<polygon fill="midnightblue" stroke="midnightblue" points="1365.18,-710.369 1358.86,-718.873 1369.1,-716.166 1365.18,-710.369"/>
</g>
<!-- Node14 -->
<g id="node14" class="node"><title>Node14</title>
<g id="a_node14"><a xlink:href="classgko_1_1ConvertibleTo.html" target="_top" xlink:title="gko::ConvertibleTo\l\&lt; Coo\&lt; ValueType, int64 \&gt; \&gt;">
<polygon fill="white" stroke="black" points="1213,-670 1213,-700 1371,-700 1371,-670 1213,-670"/>
<text text-anchor="start" x="1221" y="-688" font-family="Helvetica,sans-Serif" font-size="10.00">gko::ConvertibleTo</text>
<text text-anchor="middle" x="1292" y="-677" font-family="Helvetica,sans-Serif" font-size="10.00">&lt; Coo&lt; ValueType, int64 &gt; &gt;</text>
</a>
</g>
</g>
<!-- Node14&#45;&gt;Node1 -->
<g id="edge13" class="edge"><title>Node14&#45;&gt;Node1</title>
<path fill="none" stroke="midnightblue" d="M1366.73,-664.383C1368.57,-663.015 1370.33,-661.556 1372,-660 1435.5,-600.692 1454.17,-490.186 1458.99,-450.055"/>
<polygon fill="midnightblue" stroke="midnightblue" points="1364.76,-661.486 1358.22,-669.819 1368.53,-667.386 1364.76,-661.486"/>
</g>
<!-- Node15 -->
<g id="node15" class="node"><title>Node15</title>
<g id="a_node15"><a xlink:href="classgko_1_1ConvertibleTo.html" target="_top" xlink:title="gko::ConvertibleTo\l\&lt; Csr\&lt; ValueType, int32 \&gt; \&gt;">
<polygon fill="white" stroke="black" points="1214.5,-621 1214.5,-651 1369.5,-651 1369.5,-621 1214.5,-621"/>
<text text-anchor="start" x="1222.5" y="-639" font-family="Helvetica,sans-Serif" font-size="10.00">gko::ConvertibleTo</text>
<text text-anchor="middle" x="1292" y="-628" font-family="Helvetica,sans-Serif" font-size="10.00">&lt; Csr&lt; ValueType, int32 &gt; &gt;</text>
</a>
</g>
</g>
<!-- Node15&#45;&gt;Node1 -->
<g id="edge14" class="edge"><title>Node15&#45;&gt;Node1</title>
<path fill="none" stroke="midnightblue" d="M1365.8,-615.693C1367.96,-614.235 1370.04,-612.674 1372,-611 1424.07,-566.638 1448.79,-484.17 1457.12,-450.213"/>
<polygon fill="midnightblue" stroke="midnightblue" points="1363.92,-612.733 1357.07,-620.813 1367.47,-618.77 1363.92,-612.733"/>
</g>
<!-- Node16 -->
<g id="node16" class="node"><title>Node16</title>
<g id="a_node16"><a xlink:href="classgko_1_1ConvertibleTo.html" target="_top" xlink:title="gko::ConvertibleTo\l\&lt; Csr\&lt; ValueType, int64 \&gt; \&gt;">
<polygon fill="white" stroke="black" points="1214.5,-572 1214.5,-602 1369.5,-602 1369.5,-572 1214.5,-572"/>
<text text-anchor="start" x="1222.5" y="-590" font-family="Helvetica,sans-Serif" font-size="10.00">gko::ConvertibleTo</text>
<text text-anchor="middle" x="1292" y="-579" font-family="Helvetica,sans-Serif" font-size="10.00">&lt; Csr&lt; ValueType, int64 &gt; &gt;</text>
</a>
</g>
</g>
<!-- Node16&#45;&gt;Node1 -->
<g id="edge15" class="edge"><title>Node16&#45;&gt;Node1</title>
<path fill="none" stroke="midnightblue" d="M1364.04,-567.179C1366.81,-565.581 1369.47,-563.858 1372,-562 1412.91,-531.899 1441.65,-477.021 1453.89,-450.358"/>
<polygon fill="midnightblue" stroke="midnightblue" points="1362.21,-564.184 1354.91,-571.865 1365.4,-570.412 1362.21,-564.184"/>
</g>
<!-- Node17 -->
<g id="node17" class="node"><title>Node17</title>
<g id="a_node17"><a xlink:href="classgko_1_1ConvertibleTo.html" target="_top" xlink:title="gko::ConvertibleTo\l\&lt; Ell\&lt; ValueType, int32 \&gt; \&gt;">
<polygon fill="white" stroke="black" points="1217.5,-523 1217.5,-553 1366.5,-553 1366.5,-523 1217.5,-523"/>
<text text-anchor="start" x="1225.5" y="-541" font-family="Helvetica,sans-Serif" font-size="10.00">gko::ConvertibleTo</text>
<text text-anchor="middle" x="1292" y="-530" font-family="Helvetica,sans-Serif" font-size="10.00">&lt; Ell&lt; ValueType, int32 &gt; &gt;</text>
</a>
</g>
</g>
<!-- Node17&#45;&gt;Node1 -->
<g id="edge16" class="edge"><title>Node17&#45;&gt;Node1</title>
<path fill="none" stroke="midnightblue" d="M1360.29,-518.88C1364.33,-517.068 1368.27,-515.11 1372,-513 1402.13,-495.969 1431.05,-467.431 1447.22,-450.002"/>
<polygon fill="midnightblue" stroke="midnightblue" points="1358.62,-515.785 1350.72,-522.848 1361.3,-522.251 1358.62,-515.785"/>
</g>
<!-- Node18 -->
<g id="node18" class="node"><title>Node18</title>
<g id="a_node18"><a xlink:href="classgko_1_1ConvertibleTo.html" target="_top" xlink:title="gko::ConvertibleTo\l\&lt; Ell\&lt; ValueType, int64 \&gt; \&gt;">
<polygon fill="white" stroke="black" points="1217.5,-474 1217.5,-504 1366.5,-504 1366.5,-474 1217.5,-474"/>
<text text-anchor="start" x="1225.5" y="-492" font-family="Helvetica,sans-Serif" font-size="10.00">gko::ConvertibleTo</text>
<text text-anchor="middle" x="1292" y="-481" font-family="Helvetica,sans-Serif" font-size="10.00">&lt; Ell&lt; ValueType, int64 &gt; &gt;</text>
</a>
</g>
</g>
<!-- Node18&#45;&gt;Node1 -->
<g id="edge17" class="edge"><title>Node18&#45;&gt;Node1</title>
<path fill="none" stroke="midnightblue" d="M1353.46,-470.848C1359.73,-468.902 1366,-466.928 1372,-465 1386.67,-460.285 1402.64,-454.939 1416.93,-450.078"/>
<polygon fill="midnightblue" stroke="midnightblue" points="1352.17,-467.583 1343.65,-473.875 1354.23,-474.272 1352.17,-467.583"/>
</g>
<!-- Node19 -->
<g id="node19" class="node"><title>Node19</title>
<g id="a_node19"><a xlink:href="classgko_1_1ConvertibleTo.html" target="_top" xlink:title="gko::ConvertibleTo\l\&lt; Hybrid\&lt; ValueType,\l int32 \&gt; \&gt;">
<polygon fill="white" stroke="black" points="1232,-414.5 1232,-455.5 1352,-455.5 1352,-414.5 1232,-414.5"/>
<text text-anchor="start" x="1240" y="-443.5" font-family="Helvetica,sans-Serif" font-size="10.00">gko::ConvertibleTo</text>
<text text-anchor="start" x="1240" y="-432.5" font-family="Helvetica,sans-Serif" font-size="10.00">&lt; Hybrid&lt; ValueType,</text>
<text text-anchor="middle" x="1292" y="-421.5" font-family="Helvetica,sans-Serif" font-size="10.00"> int32 &gt; &gt;</text>
</a>
</g>
</g>
<!-- Node19&#45;&gt;Node1 -->
<g id="edge18" class="edge"><title>Node19&#45;&gt;Node1</title>
<path fill="none" stroke="midnightblue" d="M1362.43,-435C1377.61,-435 1393.44,-435 1407.84,-435"/>
<polygon fill="midnightblue" stroke="midnightblue" points="1362.05,-431.5 1352.05,-435 1362.05,-438.5 1362.05,-431.5"/>
</g>
<!-- Node20 -->
<g id="node20" class="node"><title>Node20</title>
<g id="a_node20"><a xlink:href="classgko_1_1ConvertibleTo.html" target="_top" xlink:title="gko::ConvertibleTo\l\&lt; Hybrid\&lt; ValueType,\l int64 \&gt; \&gt;">
<polygon fill="white" stroke="black" points="1232,-354.5 1232,-395.5 1352,-395.5 1352,-354.5 1232,-354.5"/>
<text text-anchor="start" x="1240" y="-383.5" font-family="Helvetica,sans-Serif" font-size="10.00">gko::ConvertibleTo</text>
<text text-anchor="start" x="1240" y="-372.5" font-family="Helvetica,sans-Serif" font-size="10.00">&lt; Hybrid&lt; ValueType,</text>
<text text-anchor="middle" x="1292" y="-361.5" font-family="Helvetica,sans-Serif" font-size="10.00"> int64 &gt; &gt;</text>
</a>
</g>
</g>
<!-- Node20&#45;&gt;Node1 -->
<g id="edge19" class="edge"><title>Node20&#45;&gt;Node1</title>
<path fill="none" stroke="midnightblue" d="M1360.21,-399.075C1379.94,-406.144 1400.95,-413.67 1418.62,-419.997"/>
<polygon fill="midnightblue" stroke="midnightblue" points="1361.24,-395.726 1350.64,-395.649 1358.88,-402.316 1361.24,-395.726"/>
</g>
<!-- Node21 -->
<g id="node21" class="node"><title>Node21</title>
<g id="a_node21"><a xlink:href="classgko_1_1ConvertibleTo.html" target="_top" xlink:title="gko::ConvertibleTo\l\&lt; Sellp\&lt; ValueType,\l int32 \&gt; \&gt;">
<polygon fill="white" stroke="black" points="1235.5,-294.5 1235.5,-335.5 1348.5,-335.5 1348.5,-294.5 1235.5,-294.5"/>
<text text-anchor="start" x="1243.5" y="-323.5" font-family="Helvetica,sans-Serif" font-size="10.00">gko::ConvertibleTo</text>
<text text-anchor="start" x="1243.5" y="-312.5" font-family="Helvetica,sans-Serif" font-size="10.00">&lt; Sellp&lt; ValueType,</text>
<text text-anchor="middle" x="1292" y="-301.5" font-family="Helvetica,sans-Serif" font-size="10.00"> int32 &gt; &gt;</text>
</a>
</g>
</g>
<!-- Node21&#45;&gt;Node1 -->
<g id="edge20" class="edge"><title>Node21&#45;&gt;Node1</title>
<path fill="none" stroke="midnightblue" d="M1358.22,-337.125C1363.01,-339.542 1367.66,-342.165 1372,-345 1404.11,-365.964 1433.68,-400.323 1449.17,-419.967"/>
<polygon fill="midnightblue" stroke="midnightblue" points="1359.42,-333.822 1348.89,-332.73 1356.44,-340.156 1359.42,-333.822"/>
</g>
<!-- Node22 -->
<g id="node22" class="node"><title>Node22</title>
<g id="a_node22"><a xlink:href="classgko_1_1ConvertibleTo.html" target="_top" xlink:title="gko::ConvertibleTo\l\&lt; Sellp\&lt; ValueType,\l int64 \&gt; \&gt;">
<polygon fill="white" stroke="black" points="1235.5,-234.5 1235.5,-275.5 1348.5,-275.5 1348.5,-234.5 1235.5,-234.5"/>
<text text-anchor="start" x="1243.5" y="-263.5" font-family="Helvetica,sans-Serif" font-size="10.00">gko::ConvertibleTo</text>
<text text-anchor="start" x="1243.5" y="-252.5" font-family="Helvetica,sans-Serif" font-size="10.00">&lt; Sellp&lt; ValueType,</text>
<text text-anchor="middle" x="1292" y="-241.5" font-family="Helvetica,sans-Serif" font-size="10.00"> int64 &gt; &gt;</text>
</a>
</g>
</g>
<!-- Node22&#45;&gt;Node1 -->
<g id="edge21" class="edge"><title>Node22&#45;&gt;Node1</title>
<path fill="none" stroke="midnightblue" d="M1357.97,-275.369C1362.97,-278.199 1367.72,-281.395 1372,-285 1417.08,-322.999 1444.83,-390.141 1455.5,-419.981"/>
<polygon fill="midnightblue" stroke="midnightblue" points="1359.27,-272.1 1348.77,-270.662 1356.08,-278.332 1359.27,-272.1"/>
</g>
<!-- Node23 -->
<g id="node23" class="node"><title>Node23</title>
<g id="a_node23"><a xlink:href="classgko_1_1ReadableFromMatrixData.html" target="_top" xlink:title="gko::ReadableFromMatrixData\l\&lt; ValueType, int32 \&gt;">
<polygon fill="white" stroke="black" points="1212,-186 1212,-216 1372,-216 1372,-186 1212,-186"/>
<text text-anchor="start" x="1220" y="-204" font-family="Helvetica,sans-Serif" font-size="10.00">gko::ReadableFromMatrixData</text>
<text text-anchor="middle" x="1292" y="-193" font-family="Helvetica,sans-Serif" font-size="10.00">&lt; ValueType, int32 &gt;</text>
</a>
</g>
</g>
<!-- Node23&#45;&gt;Node1 -->
<g id="edge22" class="edge"><title>Node23&#45;&gt;Node1</title>
<path fill="none" stroke="midnightblue" d="M1367.88,-221.611C1369.31,-222.684 1370.68,-223.813 1372,-225 1432.25,-279.295 1452.76,-381.296 1458.54,-419.782"/>
<polygon fill="midnightblue" stroke="midnightblue" points="1369.56,-218.528 1359.26,-216.056 1365.77,-224.413 1369.56,-218.528"/>
</g>
<!-- Node24 -->
<g id="node24" class="node"><title>Node24</title>
<g id="a_node24"><a xlink:href="classgko_1_1ReadableFromMatrixData.html" target="_top" xlink:title="gko::ReadableFromMatrixData\l\&lt; ValueType, int64 \&gt;">
<polygon fill="white" stroke="black" points="1212,-137 1212,-167 1372,-167 1372,-137 1212,-137"/>
<text text-anchor="start" x="1220" y="-155" font-family="Helvetica,sans-Serif" font-size="10.00">gko::ReadableFromMatrixData</text>
<text text-anchor="middle" x="1292" y="-144" font-family="Helvetica,sans-Serif" font-size="10.00">&lt; ValueType, int64 &gt;</text>
</a>
</g>
</g>
<!-- Node24&#45;&gt;Node1 -->
<g id="edge23" class="edge"><title>Node24&#45;&gt;Node1</title>
<path fill="none" stroke="midnightblue" d="M1368.58,-172.963C1369.76,-173.93 1370.9,-174.942 1372,-176 1443.93,-245.504 1457.41,-375.822 1459.92,-419.95"/>
<polygon fill="midnightblue" stroke="midnightblue" points="1370.49,-170.028 1360.28,-167.202 1366.5,-175.779 1370.49,-170.028"/>
</g>
<!-- Node25 -->
<g id="node25" class="node"><title>Node25</title>
<g id="a_node25"><a xlink:href="classgko_1_1WritableToMatrixData.html" target="_top" xlink:title="gko::WritableToMatrixData\l\&lt; ValueType, int32 \&gt;">
<polygon fill="white" stroke="black" points="1222,-88 1222,-118 1362,-118 1362,-88 1222,-88"/>
<text text-anchor="start" x="1230" y="-106" font-family="Helvetica,sans-Serif" font-size="10.00">gko::WritableToMatrixData</text>
<text text-anchor="middle" x="1292" y="-95" font-family="Helvetica,sans-Serif" font-size="10.00">&lt; ValueType, int32 &gt;</text>
</a>
</g>
</g>
<!-- Node25&#45;&gt;Node1 -->
<g id="edge24" class="edge"><title>Node25&#45;&gt;Node1</title>
<path fill="none" stroke="midnightblue" d="M1368.66,-123.889C1369.82,-124.879 1370.93,-125.915 1372,-127 1455.55,-211.823 1461.26,-370.06 1460.88,-419.699"/>
<polygon fill="midnightblue" stroke="midnightblue" points="1370.64,-121.002 1360.47,-118.009 1366.55,-126.687 1370.64,-121.002"/>
</g>
<!-- Node26 -->
<g id="node26" class="node"><title>Node26</title>
<g id="a_node26"><a xlink:href="classgko_1_1WritableToMatrixData.html" target="_top" xlink:title="gko::WritableToMatrixData\l\&lt; ValueType, int64 \&gt;">
<polygon fill="white" stroke="black" points="1222,-39 1222,-69 1362,-69 1362,-39 1222,-39"/>
<text text-anchor="start" x="1230" y="-57" font-family="Helvetica,sans-Serif" font-size="10.00">gko::WritableToMatrixData</text>
<text text-anchor="middle" x="1292" y="-46" font-family="Helvetica,sans-Serif" font-size="10.00">&lt; ValueType, int64 &gt;</text>
</a>
</g>
</g>
<!-- Node26&#45;&gt;Node1 -->
<g id="edge25" class="edge"><title>Node26&#45;&gt;Node1</title>
<path fill="none" stroke="midnightblue" d="M1369.14,-75.2192C1370.13,-76.1087 1371.08,-77.0352 1372,-78 1420.58,-129.172 1451.24,-358.048 1458.71,-419.675"/>
<polygon fill="midnightblue" stroke="midnightblue" points="1371.09,-72.3004 1360.99,-69.0971 1366.88,-77.899 1371.09,-72.3004"/>
</g>
<!-- Node27 -->
<g id="node27" class="node"><title>Node27</title>
<g id="a_node27"><a xlink:href="classgko_1_1Transposable.html" target="_top" xlink:title="Linear operators which support transposition should implement the Transposable interface. ">
<polygon fill="white" stroke="black" points="1241,-0.5 1241,-19.5 1343,-19.5 1343,-0.5 1241,-0.5"/>
<text text-anchor="middle" x="1292" y="-7.5" font-family="Helvetica,sans-Serif" font-size="10.00">gko::Transposable</text>
</a>
</g>
</g>
<!-- Node27&#45;&gt;Node1 -->
<g id="edge26" class="edge"><title>Node27&#45;&gt;Node1</title>
<path fill="none" stroke="midnightblue" d="M1353.13,-16.7133C1360.17,-19.6193 1366.71,-23.5941 1372,-29 1428.39,-86.6121 1453.77,-353.086 1459.31,-419.816"/>
<polygon fill="midnightblue" stroke="midnightblue" points="1353.9,-13.2773 1343.3,-13.3788 1351.65,-19.9062 1353.9,-13.2773"/>
</g>
</g>
</svg>
