<?xml version="1.0" encoding="UTF-8" standalone="no"?>
<!DOCTYPE svg PUBLIC "-//W3C//DTD SVG 1.1//EN"
 "http://www.w3.org/Graphics/SVG/1.1/DTD/svg11.dtd">
<!-- Generated by graphviz version 2.40.1 (20161225.0304)
 -->
<!-- Title: gko::matrix::Csr&lt; ValueType, IndexType &gt; Pages: 1 -->
<svg width="2519pt" height="495pt"
 viewBox="0.00 0.00 2519.00 494.50" xmlns="http://www.w3.org/2000/svg" xmlns:xlink="http://www.w3.org/1999/xlink">
<g id="graph0" class="graph" transform="scale(1 1) rotate(0) translate(4 490.5)">
<title>gko::matrix::Csr&lt; ValueType, IndexType &gt;</title>
<polygon fill="#ffffff" stroke="transparent" points="-4,4 -4,-490.5 2515,-490.5 2515,4 -4,4"/>
<!-- Node0 -->
<g id="node1" class="node">
<title>Node0</title>
<polygon fill="#bfbfbf" stroke="#000000" points="2353,-263.5 2353,-293.5 2511,-293.5 2511,-263.5 2353,-263.5"/>
<text text-anchor="start" x="2361" y="-281.5" font-family="Helvetica,sans-Serif" font-size="10.00" fill="#000000">gko::matrix::Csr&lt; ValueType,</text>
<text text-anchor="middle" x="2432" y="-270.5" font-family="Helvetica,sans-Serif" font-size="10.00" fill="#000000"> IndexType &gt;</text>
</g>
<!-- Node1 -->
<g id="node2" class="node">
<title>Node1</title>
<g id="a_node2"><a xlink:href="classgko_1_1EnableLinOp.html" target="_top" xlink:title="gko::EnableLinOp\&lt; Csr\l\&lt; ValueType, IndexType \&gt; \&gt;">
<polygon fill="#ffffff" stroke="#000000" points="2147.5,-282.5 2147.5,-312.5 2302.5,-312.5 2302.5,-282.5 2147.5,-282.5"/>
<text text-anchor="start" x="2155.5" y="-300.5" font-family="Helvetica,sans-Serif" font-size="10.00" fill="#000000">gko::EnableLinOp&lt; Csr</text>
<text text-anchor="middle" x="2225" y="-289.5" font-family="Helvetica,sans-Serif" font-size="10.00" fill="#000000">&lt; ValueType, IndexType &gt; &gt;</text>
</a>
</g>
</g>
<!-- Node1&#45;&gt;Node0 -->
<g id="edge1" class="edge">
<title>Node1&#45;&gt;Node0</title>
<path fill="none" stroke="#191970" d="M2312.7644,-289.4443C2326.0776,-288.2223 2339.7464,-286.9677 2352.8619,-285.7639"/>
<polygon fill="#191970" stroke="#191970" points="2312.3063,-285.9716 2302.6681,-290.371 2312.9462,-292.9423 2312.3063,-285.9716"/>
</g>
<!-- Node2 -->
<g id="node3" class="node">
<title>Node2</title>
<g id="a_node3"><a xlink:href="classgko_1_1EnablePolymorphicObject.html" target="_top" xlink:title="gko::EnablePolymorphicObject\l\&lt; Csr\&lt; ValueType, IndexType\l \&gt;, LinOp \&gt;">
<polygon fill="#ffffff" stroke="#000000" points="1763,-121 1763,-162 1929,-162 1929,-121 1763,-121"/>
<text text-anchor="start" x="1771" y="-150" font-family="Helvetica,sans-Serif" font-size="10.00" fill="#000000">gko::EnablePolymorphicObject</text>
<text text-anchor="start" x="1771" y="-139" font-family="Helvetica,sans-Serif" font-size="10.00" fill="#000000">&lt; Csr&lt; ValueType, IndexType</text>
<text text-anchor="middle" x="1846" y="-128" font-family="Helvetica,sans-Serif" font-size="10.00" fill="#000000"> &gt;, LinOp &gt;</text>
</a>
</g>
</g>
<!-- Node2&#45;&gt;Node1 -->
<g id="edge2" class="edge">
<title>Node2&#45;&gt;Node1</title>
<path fill="none" stroke="#191970" d="M1939.2155,-155.8219C1995.9582,-168.673 2066.7531,-192.5901 2116,-236.5 2129.6494,-248.6702 2119.8722,-261.8886 2134,-273.5 2138.1655,-276.9235 2142.7692,-279.8632 2147.6289,-282.3869"/>
<polygon fill="#191970" stroke="#191970" points="1939.671,-152.3389 1929.1545,-153.6248 1938.1775,-159.1778 1939.671,-152.3389"/>
</g>
<!-- Node3 -->
<g id="node4" class="node">
<title>Node3</title>
<g id="a_node4"><a xlink:href="classgko_1_1EnableAbstractPolymorphicObject.html" target="_top" xlink:title="gko::EnableAbstractPolymorphic\lObject\&lt; Csr\&lt; ValueType, IndexType\l \&gt;, LinOp \&gt;">
<polygon fill="#ffffff" stroke="#000000" points="1346,-34 1346,-75 1537,-75 1537,-34 1346,-34"/>
<text text-anchor="start" x="1354" y="-63" font-family="Helvetica,sans-Serif" font-size="10.00" fill="#000000">gko::EnableAbstractPolymorphic</text>
<text text-anchor="start" x="1354" y="-52" font-family="Helvetica,sans-Serif" font-size="10.00" fill="#000000">Object&lt; Csr&lt; ValueType, IndexType</text>
<text text-anchor="middle" x="1441.5" y="-41" font-family="Helvetica,sans-Serif" font-size="10.00" fill="#000000"> &gt;, LinOp &gt;</text>
</a>
</g>
</g>
<!-- Node3&#45;&gt;Node2 -->
<g id="edge3" class="edge">
<title>Node3&#45;&gt;Node2</title>
<path fill="none" stroke="#191970" d="M1547.406,-57.0161C1607.2387,-61.4712 1682.3591,-72.2539 1745,-97.5 1754.1529,-101.1889 1754.2997,-105.843 1763,-110.5 1769.9163,-114.2021 1777.371,-117.6595 1784.8751,-120.8228"/>
<polygon fill="#191970" stroke="#191970" points="1547.3995,-53.5073 1537.1807,-56.3049 1546.9137,-60.4905 1547.3995,-53.5073"/>
</g>
<!-- Node4 -->
<g id="node5" class="node">
<title>Node4</title>
<g id="a_node5"><a xlink:href="classgko_1_1LinOp.html" target="_top" xlink:title="gko::LinOp">
<polygon fill="#ffffff" stroke="#000000" points="999.5,-11 999.5,-30 1067.5,-30 1067.5,-11 999.5,-11"/>
<text text-anchor="middle" x="1033.5" y="-18" font-family="Helvetica,sans-Serif" font-size="10.00" fill="#000000">gko::LinOp</text>
</a>
</g>
</g>
<!-- Node4&#45;&gt;Node3 -->
<g id="edge4" class="edge">
<title>Node4&#45;&gt;Node3</title>
<path fill="none" stroke="#191970" d="M1077.708,-24.184C1141.5225,-29.5019 1261.0626,-39.4636 1345.673,-46.5144"/>
<polygon fill="#191970" stroke="#191970" points="1077.8402,-20.683 1067.5841,-23.3403 1077.2589,-27.6588 1077.8402,-20.683"/>
</g>
<!-- Node5 -->
<g id="node6" class="node">
<title>Node5</title>
<g id="a_node6"><a xlink:href="classgko_1_1EnableAbstractPolymorphicObject.html" target="_top" xlink:title="gko::EnableAbstractPolymorphic\lObject\&lt; LinOp \&gt;">
<polygon fill="#ffffff" stroke="#ff0000" points="538,-.5 538,-30.5 713,-30.5 713,-.5 538,-.5"/>
<text text-anchor="start" x="546" y="-18.5" font-family="Helvetica,sans-Serif" font-size="10.00" fill="#000000">gko::EnableAbstractPolymorphic</text>
<text text-anchor="middle" x="625.5" y="-7.5" font-family="Helvetica,sans-Serif" font-size="10.00" fill="#000000">Object&lt; LinOp &gt;</text>
</a>
</g>
</g>
<!-- Node5&#45;&gt;Node4 -->
<g id="edge5" class="edge">
<title>Node5&#45;&gt;Node4</title>
<path fill="none" stroke="#191970" d="M723.1636,-16.6969C812.3446,-17.7898 939.1591,-19.3439 999.3094,-20.081"/>
<polygon fill="#191970" stroke="#191970" points="723.0684,-13.1955 713.0262,-16.5726 722.9826,-20.195 723.0684,-13.1955"/>
</g>
<!-- Node10 -->
<g id="node7" class="node">
<title>Node10</title>
<g id="a_node7"><a xlink:href="classgko_1_1EnableAbstractPolymorphicObject.html" target="_top" xlink:title="This mixin inherits from (a subclass of) PolymorphicObject and provides a base implementation of a ne...">
<polygon fill="#ffffff" stroke="#000000" points="138,-72 138,-113 332,-113 332,-72 138,-72"/>
<text text-anchor="start" x="146" y="-101" font-family="Helvetica,sans-Serif" font-size="10.00" fill="#000000">gko::EnableAbstractPolymorphic</text>
<text text-anchor="start" x="146" y="-90" font-family="Helvetica,sans-Serif" font-size="10.00" fill="#000000">Object&lt; AbstactObject, Polymorphic</text>
<text text-anchor="middle" x="235" y="-79" font-family="Helvetica,sans-Serif" font-size="10.00" fill="#000000">Base &gt;</text>
</a>
</g>
</g>
<!-- Node10&#45;&gt;Node3 -->
<g id="edge8" class="edge">
<title>Node10&#45;&gt;Node3</title>
<path fill="none" stroke="#ffa500" stroke-dasharray="5,2" d="M342.3074,-84.8904C344.8965,-84.7535 347.4638,-84.623 350,-84.5 717.8036,-66.6601 1155.8795,-58.6208 1345.817,-55.7805"/>
<polygon fill="#ffa500" stroke="#ffa500" points="342.0241,-81.4006 332.2328,-85.448 342.411,-88.3899 342.0241,-81.4006"/>
<text text-anchor="start" x="755" y="-83.5" font-family="Helvetica,sans-Serif" font-size="10.00" fill="#000000"> &lt; Csr&lt; ValueType, IndexType</text>
<text text-anchor="middle" x="828.5" y="-72.5" font-family="Helvetica,sans-Serif" font-size="10.00" fill="#000000"> &gt;, LinOp &gt;</text>
</g>
<!-- Node10&#45;&gt;Node5 -->
<g id="edge6" class="edge">
<title>Node10&#45;&gt;Node5</title>
<path fill="none" stroke="#ffa500" stroke-dasharray="5,2" d="M276.0421,-66.7631C297.2951,-54.7659 324.1518,-41.5978 350,-34.5 411.2576,-17.6791 482.9069,-13.1806 537.7808,-12.755"/>
<polygon fill="#ffa500" stroke="#ffa500" points="274.2067,-63.7812 267.296,-71.8119 277.7064,-69.8436 274.2067,-63.7812"/>
<text text-anchor="middle" x="428.5" y="-37.5" font-family="Helvetica,sans-Serif" font-size="10.00" fill="#000000"> &lt; LinOp &gt;</text>
</g>
<!-- Node13 -->
<g id="node10" class="node">
<title>Node13</title>
<g id="a_node10"><a xlink:href="classgko_1_1EnableAbstractPolymorphicObject.html" target="_top" xlink:title="gko::EnableAbstractPolymorphic\lObject\&lt; ConcreteObject, Polymorphic\lBase \&gt;">
<polygon fill="#ffffff" stroke="#000000" points="525,-97 525,-138 726,-138 726,-97 525,-97"/>
<text text-anchor="start" x="533" y="-126" font-family="Helvetica,sans-Serif" font-size="10.00" fill="#000000">gko::EnableAbstractPolymorphic</text>
<text text-anchor="start" x="533" y="-115" font-family="Helvetica,sans-Serif" font-size="10.00" fill="#000000">Object&lt; ConcreteObject, Polymorphic</text>
<text text-anchor="middle" x="625.5" y="-104" font-family="Helvetica,sans-Serif" font-size="10.00" fill="#000000">Base &gt;</text>
</a>
</g>
</g>
<!-- Node10&#45;&gt;Node13 -->
<g id="edge12" class="edge">
<title>Node10&#45;&gt;Node13</title>
<path fill="none" stroke="#ffa500" stroke-dasharray="5,2" d="M342.3859,-88.0573C392.5232,-87.2208 452.941,-87.9803 507,-93.5 515.5616,-94.3742 524.4204,-95.584 533.2615,-96.9994"/>
<polygon fill="#ffa500" stroke="#ffa500" points="342.1068,-84.5619 332.1754,-88.2518 342.2403,-91.5606 342.1068,-84.5619"/>
<text text-anchor="start" x="350" y="-107.5" font-family="Helvetica,sans-Serif" font-size="10.00" fill="#000000"> &lt; ConcreteObject, Polymorphic</text>
<text text-anchor="middle" x="428.5" y="-96.5" font-family="Helvetica,sans-Serif" font-size="10.00" fill="#000000">Base &gt;</text>
</g>
<!-- Node20 -->
<g id="node17" class="node">
<title>Node20</title>
<g id="a_node17"><a xlink:href="classgko_1_1EnableAbstractPolymorphicObject.html" target="_top" xlink:title="gko::EnableAbstractPolymorphic\lObject\&lt; ConcreteLinOp, Polymorphic\lBase \&gt;">
<polygon fill="#ffffff" stroke="#000000" points="527,-161 527,-202 724,-202 724,-161 527,-161"/>
<text text-anchor="start" x="535" y="-190" font-family="Helvetica,sans-Serif" font-size="10.00" fill="#000000">gko::EnableAbstractPolymorphic</text>
<text text-anchor="start" x="535" y="-179" font-family="Helvetica,sans-Serif" font-size="10.00" fill="#000000">Object&lt; ConcreteLinOp, Polymorphic</text>
<text text-anchor="middle" x="625.5" y="-168" font-family="Helvetica,sans-Serif" font-size="10.00" fill="#000000">Base &gt;</text>
</a>
</g>
</g>
<!-- Node10&#45;&gt;Node20 -->
<g id="edge22" class="edge">
<title>Node10&#45;&gt;Node20</title>
<path fill="none" stroke="#ffa500" stroke-dasharray="5,2" d="M334.8606,-115.2595C396.749,-129.3647 475.5887,-147.3333 535.5366,-160.9962"/>
<polygon fill="#ffa500" stroke="#ffa500" points="335.6067,-111.8399 325.0789,-113.0301 334.0511,-118.6649 335.6067,-111.8399"/>
<text text-anchor="start" x="352" y="-167.5" font-family="Helvetica,sans-Serif" font-size="10.00" fill="#000000"> &lt; ConcreteLinOp, Polymorphic</text>
<text text-anchor="middle" x="428.5" y="-156.5" font-family="Helvetica,sans-Serif" font-size="10.00" fill="#000000">Base &gt;</text>
</g>
<!-- Node11 -->
<g id="node8" class="node">
<title>Node11</title>
<polygon fill="#ffffff" stroke="#bfbfbf" points="0,-165 0,-184 101,-184 101,-165 0,-165"/>
<text text-anchor="middle" x="50.5" y="-172" font-family="Helvetica,sans-Serif" font-size="10.00" fill="#000000">PolymorphicBase</text>
</g>
<!-- Node11&#45;&gt;Node10 -->
<g id="edge7" class="edge">
<title>Node11&#45;&gt;Node10</title>
<path fill="none" stroke="#191970" d="M81.3405,-160.7931C110.6288,-147.7761 155.0477,-128.0344 188.6076,-113.1189"/>
<polygon fill="#191970" stroke="#191970" points="79.7422,-157.6733 72.0256,-164.9331 82.5852,-164.07 79.7422,-157.6733"/>
</g>
<!-- Node11&#45;&gt;Node13 -->
<g id="edge11" class="edge">
<title>Node11&#45;&gt;Node13</title>
<path fill="none" stroke="#191970" d="M111.2572,-180.8077C199.829,-188.1821 368.8924,-195.3462 507,-160.5 515.6725,-158.3118 516.7442,-154.9413 525,-151.5 536.306,-146.7873 548.5197,-142.2287 560.4067,-138.0622"/>
<polygon fill="#191970" stroke="#191970" points="111.3859,-177.3059 101.122,-179.9333 110.7842,-184.28 111.3859,-177.3059"/>
</g>
<!-- Node11&#45;&gt;Node20 -->
<g id="edge21" class="edge">
<title>Node11&#45;&gt;Node20</title>
<path fill="none" stroke="#191970" d="M100.0089,-185.844C106.37,-186.9398 112.8183,-187.8748 119,-188.5 290.5691,-205.8532 334.6306,-193.5866 507,-188.5 513.4889,-188.3085 520.1751,-188.0582 526.9118,-187.7663"/>
<polygon fill="#191970" stroke="#191970" points="100.6063,-182.3952 90.1355,-184.0111 99.3286,-189.2776 100.6063,-182.3952"/>
</g>
<!-- Node12 -->
<g id="node9" class="node">
<title>Node12</title>
<g id="a_node9"><a xlink:href="classgko_1_1EnablePolymorphicObject.html" target="_top" xlink:title="This mixin inherits from (a subclass of) PolymorphicObject and provides a base implementation of a ne...">
<polygon fill="#ffffff" stroke="#000000" points="931,-102.5 931,-132.5 1136,-132.5 1136,-102.5 931,-102.5"/>
<text text-anchor="start" x="939" y="-120.5" font-family="Helvetica,sans-Serif" font-size="10.00" fill="#000000">gko::EnablePolymorphicObject</text>
<text text-anchor="middle" x="1033.5" y="-109.5" font-family="Helvetica,sans-Serif" font-size="10.00" fill="#000000">&lt; ConcreteObject, PolymorphicBase &gt;</text>
</a>
</g>
</g>
<!-- Node12&#45;&gt;Node2 -->
<g id="edge9" class="edge">
<title>Node12&#45;&gt;Node2</title>
<path fill="none" stroke="#ffa500" stroke-dasharray="5,2" d="M1146.5327,-120.5461C1200.0316,-122.0076 1264.8071,-123.8058 1323,-125.5 1478.2725,-130.0205 1659.4639,-135.6408 1762.6684,-138.8747"/>
<polygon fill="#ffa500" stroke="#ffa500" points="1146.4259,-117.0419 1136.3342,-120.2678 1146.2349,-124.0393 1146.4259,-117.0419"/>
<text text-anchor="start" x="1368" y="-146.5" font-family="Helvetica,sans-Serif" font-size="10.00" fill="#000000"> &lt; Csr&lt; ValueType, IndexType</text>
<text text-anchor="middle" x="1441.5" y="-135.5" font-family="Helvetica,sans-Serif" font-size="10.00" fill="#000000"> &gt;, LinOp &gt;</text>
</g>
<!-- Node19 -->
<g id="node16" class="node">
<title>Node19</title>
<g id="a_node16"><a xlink:href="classgko_1_1EnablePolymorphicObject.html" target="_top" xlink:title="gko::EnablePolymorphicObject\l\&lt; ConcreteLinOp, PolymorphicBase \&gt;">
<polygon fill="#ffffff" stroke="#000000" points="1341,-166.5 1341,-196.5 1542,-196.5 1542,-166.5 1341,-166.5"/>
<text text-anchor="start" x="1349" y="-184.5" font-family="Helvetica,sans-Serif" font-size="10.00" fill="#000000">gko::EnablePolymorphicObject</text>
<text text-anchor="middle" x="1441.5" y="-173.5" font-family="Helvetica,sans-Serif" font-size="10.00" fill="#000000">&lt; ConcreteLinOp, PolymorphicBase &gt;</text>
</a>
</g>
</g>
<!-- Node12&#45;&gt;Node19 -->
<g id="edge23" class="edge">
<title>Node12&#45;&gt;Node19</title>
<path fill="none" stroke="#ffa500" stroke-dasharray="5,2" d="M1146.3118,-123.1935C1200.1661,-127.2369 1265.2999,-134.063 1323,-145.5 1348.731,-150.6003 1376.8499,-159.0154 1399.2369,-166.4275"/>
<polygon fill="#ffa500" stroke="#ffa500" points="1146.2726,-119.6815 1136.0448,-122.4459 1145.7642,-126.663 1146.2726,-119.6815"/>
<text text-anchor="start" x="1162" y="-159.5" font-family="Helvetica,sans-Serif" font-size="10.00" fill="#000000"> &lt; ConcreteLinOp, Polymorphic</text>
<text text-anchor="middle" x="1238.5" y="-148.5" font-family="Helvetica,sans-Serif" font-size="10.00" fill="#000000">Base &gt;</text>
</g>
<!-- Node13&#45;&gt;Node12 -->
<g id="edge10" class="edge">
<title>Node13&#45;&gt;Node12</title>
<path fill="none" stroke="#191970" d="M736.4636,-117.5C797.0615,-117.5 871.5974,-117.5 930.8448,-117.5"/>
<polygon fill="#191970" stroke="#191970" points="736.0922,-114.0001 726.0922,-117.5 736.0921,-121.0001 736.0922,-114.0001"/>
</g>
<!-- Node14 -->
<g id="node11" class="node">
<title>Node14</title>
<g id="a_node11"><a xlink:href="classgko_1_1EnablePolymorphicAssignment.html" target="_top" xlink:title="gko::EnablePolymorphicAssignment\l\&lt; Csr\&lt; ValueType, IndexType \&gt; \&gt;">
<polygon fill="#ffffff" stroke="#000000" points="1345.5,-235.5 1345.5,-265.5 1537.5,-265.5 1537.5,-235.5 1345.5,-235.5"/>
<text text-anchor="start" x="1353.5" y="-253.5" font-family="Helvetica,sans-Serif" font-size="10.00" fill="#000000">gko::EnablePolymorphicAssignment</text>
<text text-anchor="middle" x="1441.5" y="-242.5" font-family="Helvetica,sans-Serif" font-size="10.00" fill="#000000">&lt; Csr&lt; ValueType, IndexType &gt; &gt;</text>
</a>
</g>
</g>
<!-- Node14&#45;&gt;Node1 -->
<g id="edge13" class="edge">
<title>Node14&#45;&gt;Node1</title>
<path fill="none" stroke="#191970" d="M1548.0416,-254.4905C1646.8427,-258.437 1797.9263,-265.0966 1929,-273.5 2003.2194,-278.2583 2087.7787,-285.2744 2147.4603,-290.493"/>
<polygon fill="#191970" stroke="#191970" points="1547.8828,-250.9815 1537.7517,-254.0817 1547.6049,-257.976 1547.8828,-250.9815"/>
</g>
<!-- Node15 -->
<g id="node12" class="node">
<title>Node15</title>
<g id="a_node12"><a xlink:href="classgko_1_1ConvertibleTo.html" target="_top" xlink:title="gko::ConvertibleTo\l\&lt; Csr\&lt; ValueType, IndexType \&gt; \&gt;">
<polygon fill="#ffffff" stroke="#000000" points="942.5,-210.5 942.5,-240.5 1124.5,-240.5 1124.5,-210.5 942.5,-210.5"/>
<text text-anchor="start" x="950.5" y="-228.5" font-family="Helvetica,sans-Serif" font-size="10.00" fill="#000000">gko::ConvertibleTo</text>
<text text-anchor="middle" x="1033.5" y="-217.5" font-family="Helvetica,sans-Serif" font-size="10.00" fill="#000000">&lt; Csr&lt; ValueType, IndexType &gt; &gt;</text>
</a>
</g>
</g>
<!-- Node15&#45;&gt;Node14 -->
<g id="edge14" class="edge">
<title>Node15&#45;&gt;Node14</title>
<path fill="none" stroke="#191970" d="M1134.726,-231.7026C1199.1228,-235.6485 1282.014,-240.7276 1345.3954,-244.6112"/>
<polygon fill="#191970" stroke="#191970" points="1134.7507,-228.1976 1124.5553,-231.0794 1134.3225,-235.1845 1134.7507,-228.1976"/>
</g>
<!-- Node16 -->
<g id="node13" class="node">
<title>Node16</title>
<g id="a_node13"><a xlink:href="classgko_1_1ConvertibleTo.html" target="_top" xlink:title="ConvertibleTo interface is used to mark that the implementer can be converted to the object of Result...">
<polygon fill="#ffffff" stroke="#000000" points="572,-335.5 572,-365.5 679,-365.5 679,-335.5 572,-335.5"/>
<text text-anchor="start" x="580" y="-353.5" font-family="Helvetica,sans-Serif" font-size="10.00" fill="#000000">gko::ConvertibleTo</text>
<text text-anchor="middle" x="625.5" y="-342.5" font-family="Helvetica,sans-Serif" font-size="10.00" fill="#000000">&lt; ResultType &gt;</text>
</a>
</g>
</g>
<!-- Node16&#45;&gt;Node15 -->
<g id="edge15" class="edge">
<title>Node16&#45;&gt;Node15</title>
<path fill="none" stroke="#ffa500" stroke-dasharray="5,2" d="M653.1009,-329.3271C676.1688,-312.692 710.5747,-290.2697 744,-277.5 807.9209,-253.0799 884.2438,-239.9773 942.4719,-233.0349"/>
<polygon fill="#ffa500" stroke="#ffa500" points="650.8332,-326.6499 644.8407,-335.3872 654.9739,-332.2939 650.8332,-326.6499"/>
<text text-anchor="middle" x="828.5" y="-280.5" font-family="Helvetica,sans-Serif" font-size="10.00" fill="#000000"> &lt; Csr&lt; ValueType, IndexType &gt; &gt;</text>
</g>
<!-- Node17 -->
<g id="node14" class="node">
<title>Node17</title>
<g id="a_node14"><a xlink:href="classgko_1_1EnablePolymorphicAssignment.html" target="_top" xlink:title="This mixin is used to enable a default PolymorphicObject::copy_from() implementation for objects that...">
<polygon fill="#ffffff" stroke="#000000" points="937.5,-259.5 937.5,-289.5 1129.5,-289.5 1129.5,-259.5 937.5,-259.5"/>
<text text-anchor="start" x="945.5" y="-277.5" font-family="Helvetica,sans-Serif" font-size="10.00" fill="#000000">gko::EnablePolymorphicAssignment</text>
<text text-anchor="middle" x="1033.5" y="-266.5" font-family="Helvetica,sans-Serif" font-size="10.00" fill="#000000">&lt; ConcreteType, ResultType &gt;</text>
</a>
</g>
</g>
<!-- Node16&#45;&gt;Node17 -->
<g id="edge17" class="edge">
<title>Node16&#45;&gt;Node17</title>
<path fill="none" stroke="#191970" d="M689.4462,-333.8702C707.0612,-329.5574 726.2157,-325.1139 744,-321.5 808.1198,-308.4705 880.8108,-296.6794 937.313,-288.1663"/>
<polygon fill="#191970" stroke="#191970" points="688.141,-330.5876 679.2745,-336.3872 689.8225,-337.3826 688.141,-330.5876"/>
</g>
<!-- Node22 -->
<g id="node19" class="node">
<title>Node22</title>
<g id="a_node19"><a xlink:href="classgko_1_1ConvertibleTo.html" target="_top" xlink:title="gko::ConvertibleTo\l\&lt; ConcreteLinOp \&gt;">
<polygon fill="#ffffff" stroke="#000000" points="978.5,-308.5 978.5,-338.5 1088.5,-338.5 1088.5,-308.5 978.5,-308.5"/>
<text text-anchor="start" x="986.5" y="-326.5" font-family="Helvetica,sans-Serif" font-size="10.00" fill="#000000">gko::ConvertibleTo</text>
<text text-anchor="middle" x="1033.5" y="-315.5" font-family="Helvetica,sans-Serif" font-size="10.00" fill="#000000">&lt; ConcreteLinOp &gt;</text>
</a>
</g>
</g>
<!-- Node16&#45;&gt;Node22 -->
<g id="edge26" class="edge">
<title>Node16&#45;&gt;Node22</title>
<path fill="none" stroke="#ffa500" stroke-dasharray="5,2" d="M689.2717,-340.7432C706.9579,-338.35 726.1919,-336.037 744,-334.5 825.4294,-327.4721 920.1291,-324.9341 978.4419,-324.0177"/>
<polygon fill="#ffa500" stroke="#ffa500" points="688.4855,-337.3185 679.0596,-342.1563 689.445,-344.2525 688.4855,-337.3185"/>
<text text-anchor="middle" x="828.5" y="-337.5" font-family="Helvetica,sans-Serif" font-size="10.00" fill="#000000"> &lt; ConcreteLinOp &gt;</text>
</g>
<!-- Node25 -->
<g id="node22" class="node">
<title>Node25</title>
<g id="a_node22"><a xlink:href="classgko_1_1ConvertibleTo.html" target="_top" xlink:title="gko::ConvertibleTo\l\&lt; Dense\&lt; ValueType \&gt; \&gt;">
<polygon fill="#ffffff" stroke="#000000" points="1167.5,-344.5 1167.5,-374.5 1309.5,-374.5 1309.5,-344.5 1167.5,-344.5"/>
<text text-anchor="start" x="1175.5" y="-362.5" font-family="Helvetica,sans-Serif" font-size="10.00" fill="#000000">gko::ConvertibleTo</text>
<text text-anchor="middle" x="1238.5" y="-351.5" font-family="Helvetica,sans-Serif" font-size="10.00" fill="#000000">&lt; Dense&lt; ValueType &gt; &gt;</text>
</a>
</g>
</g>
<!-- Node16&#45;&gt;Node25 -->
<g id="edge31" class="edge">
<title>Node16&#45;&gt;Node25</title>
<path fill="none" stroke="#ffa500" stroke-dasharray="5,2" d="M689.173,-351.4348C804.3941,-353.1265 1046.6982,-356.684 1167.2498,-358.4539"/>
<polygon fill="#ffa500" stroke="#ffa500" points="689.145,-347.9341 679.0946,-351.2869 689.0421,-354.9334 689.145,-347.9341"/>
<text text-anchor="middle" x="828.5" y="-357.5" font-family="Helvetica,sans-Serif" font-size="10.00" fill="#000000"> &lt; Dense&lt; ValueType &gt; &gt;</text>
</g>
<!-- Node26 -->
<g id="node23" class="node">
<title>Node26</title>
<g id="a_node23"><a xlink:href="classgko_1_1ConvertibleTo.html" target="_top" xlink:title="gko::ConvertibleTo\l\&lt; Coo\&lt; ValueType, IndexType \&gt; \&gt;">
<polygon fill="#ffffff" stroke="#000000" points="1560,-434.5 1560,-464.5 1745,-464.5 1745,-434.5 1560,-434.5"/>
<text text-anchor="start" x="1568" y="-452.5" font-family="Helvetica,sans-Serif" font-size="10.00" fill="#000000">gko::ConvertibleTo</text>
<text text-anchor="middle" x="1652.5" y="-441.5" font-family="Helvetica,sans-Serif" font-size="10.00" fill="#000000">&lt; Coo&lt; ValueType, IndexType &gt; &gt;</text>
</a>
</g>
</g>
<!-- Node16&#45;&gt;Node26 -->
<g id="edge33" class="edge">
<title>Node16&#45;&gt;Node26</title>
<path fill="none" stroke="#ffa500" stroke-dasharray="5,2" d="M652.8592,-371.7509C675.7866,-388.1945 710.1213,-409.7526 744,-419.5 1032.1527,-502.4058 1393.0189,-478.7736 1559.9379,-461.0777"/>
<polygon fill="#ffa500" stroke="#ffa500" points="654.7891,-368.8259 644.6553,-365.7345 650.6494,-374.4707 654.7891,-368.8259"/>
<text text-anchor="middle" x="1033.5" y="-478.5" font-family="Helvetica,sans-Serif" font-size="10.00" fill="#000000"> &lt; Coo&lt; ValueType, IndexType &gt; &gt;</text>
</g>
<!-- Node27 -->
<g id="node24" class="node">
<title>Node27</title>
<g id="a_node24"><a xlink:href="classgko_1_1ConvertibleTo.html" target="_top" xlink:title="gko::ConvertibleTo\l\&lt; Sellp\&lt; ValueType,\l IndexType \&gt; \&gt;">
<polygon fill="#ffffff" stroke="#000000" points="1973.5,-381 1973.5,-422 2089.5,-422 2089.5,-381 1973.5,-381"/>
<text text-anchor="start" x="1981.5" y="-410" font-family="Helvetica,sans-Serif" font-size="10.00" fill="#000000">gko::ConvertibleTo</text>
<text text-anchor="start" x="1981.5" y="-399" font-family="Helvetica,sans-Serif" font-size="10.00" fill="#000000">&lt; Sellp&lt; ValueType,</text>
<text text-anchor="middle" x="2031.5" y="-388" font-family="Helvetica,sans-Serif" font-size="10.00" fill="#000000"> IndexType &gt; &gt;</text>
</a>
</g>
</g>
<!-- Node16&#45;&gt;Node27 -->
<g id="edge35" class="edge">
<title>Node16&#45;&gt;Node27</title>
<path fill="none" stroke="#ffa500" stroke-dasharray="5,2" d="M689.2248,-364.4761C769.2099,-380.7707 910.809,-405.5 1033.5,-405.5 1033.5,-405.5 1033.5,-405.5 1652.5,-405.5 1766.1734,-405.5 1899.0141,-403.6786 1973.3912,-402.4939"/>
<polygon fill="#ffa500" stroke="#ffa500" points="689.8067,-361.0225 679.3064,-362.4342 688.3952,-367.8788 689.8067,-361.0225"/>
<text text-anchor="start" x="1187" y="-419.5" font-family="Helvetica,sans-Serif" font-size="10.00" fill="#000000"> &lt; Sellp&lt; ValueType,</text>
<text text-anchor="middle" x="1238.5" y="-408.5" font-family="Helvetica,sans-Serif" font-size="10.00" fill="#000000"> IndexType &gt; &gt;</text>
</g>
<!-- Node17&#45;&gt;Node14 -->
<g id="edge16" class="edge">
<title>Node17&#45;&gt;Node14</title>
<path fill="none" stroke="#ffa500" stroke-dasharray="5,2" d="M1140.1265,-263.5504C1144.8128,-263.1737 1149.4535,-262.821 1154,-262.5 1217.6612,-258.0053 1289.38,-255.0082 1345.2614,-253.1334"/>
<polygon fill="#ffa500" stroke="#ffa500" points="1139.4879,-260.0914 1129.8134,-264.4105 1140.0698,-267.0672 1139.4879,-260.0914"/>
<text text-anchor="middle" x="1238.5" y="-265.5" font-family="Helvetica,sans-Serif" font-size="10.00" fill="#000000"> &lt; Csr&lt; ValueType, IndexType &gt; &gt;</text>
</g>
<!-- Node21 -->
<g id="node18" class="node">
<title>Node21</title>
<g id="a_node18"><a xlink:href="classgko_1_1EnablePolymorphicAssignment.html" target="_top" xlink:title="gko::EnablePolymorphicAssignment\l\&lt; ConcreteLinOp \&gt;">
<polygon fill="#ffffff" stroke="#000000" points="1345.5,-285.5 1345.5,-315.5 1537.5,-315.5 1537.5,-285.5 1345.5,-285.5"/>
<text text-anchor="start" x="1353.5" y="-303.5" font-family="Helvetica,sans-Serif" font-size="10.00" fill="#000000">gko::EnablePolymorphicAssignment</text>
<text text-anchor="middle" x="1441.5" y="-292.5" font-family="Helvetica,sans-Serif" font-size="10.00" fill="#000000">&lt; ConcreteLinOp &gt;</text>
</a>
</g>
</g>
<!-- Node17&#45;&gt;Node21 -->
<g id="edge27" class="edge">
<title>Node17&#45;&gt;Node21</title>
<path fill="none" stroke="#ffa500" stroke-dasharray="5,2" d="M1139.7328,-281.2697C1203.3309,-285.3226 1283.5326,-290.4334 1345.2658,-294.3674"/>
<polygon fill="#ffa500" stroke="#ffa500" points="1139.876,-277.7719 1129.6737,-280.6287 1139.4308,-284.7577 1139.876,-277.7719"/>
<text text-anchor="middle" x="1238.5" y="-295.5" font-family="Helvetica,sans-Serif" font-size="10.00" fill="#000000"> &lt; ConcreteLinOp &gt;</text>
</g>
<!-- Node18 -->
<g id="node15" class="node">
<title>Node18</title>
<g id="a_node15"><a xlink:href="classgko_1_1EnableLinOp.html" target="_top" xlink:title="The EnableLinOp mixin can be used to provide sensible default implementations of the majority of the ...">
<polygon fill="#ffffff" stroke="#000000" points="1768,-282.5 1768,-312.5 1924,-312.5 1924,-282.5 1768,-282.5"/>
<text text-anchor="start" x="1776" y="-300.5" font-family="Helvetica,sans-Serif" font-size="10.00" fill="#000000">gko::EnableLinOp&lt; Concrete</text>
<text text-anchor="middle" x="1846" y="-289.5" font-family="Helvetica,sans-Serif" font-size="10.00" fill="#000000">LinOp, PolymorphicBase &gt;</text>
</a>
</g>
</g>
<!-- Node18&#45;&gt;Node1 -->
<g id="edge18" class="edge">
<title>Node18&#45;&gt;Node1</title>
<path fill="none" stroke="#ffa500" stroke-dasharray="5,2" d="M1934.2274,-297.5C1998.7506,-297.5 2085.4544,-297.5 2147.3565,-297.5"/>
<polygon fill="#ffa500" stroke="#ffa500" points="1934.0695,-294.0001 1924.0695,-297.5 1934.0695,-301.0001 1934.0695,-294.0001"/>
<text text-anchor="middle" x="2031.5" y="-300.5" font-family="Helvetica,sans-Serif" font-size="10.00" fill="#000000"> &lt; Csr&lt; ValueType, IndexType &gt; &gt;</text>
</g>
<!-- Node19&#45;&gt;Node18 -->
<g id="edge19" class="edge">
<title>Node19&#45;&gt;Node18</title>
<path fill="none" stroke="#191970" d="M1503.8432,-199.3784C1583.3059,-222.1662 1719.2635,-261.1553 1793.6263,-282.4806"/>
<polygon fill="#191970" stroke="#191970" points="1504.544,-195.9384 1493.9666,-196.5461 1502.6143,-202.6671 1504.544,-195.9384"/>
</g>
<!-- Node20&#45;&gt;Node19 -->
<g id="edge20" class="edge">
<title>Node20&#45;&gt;Node19</title>
<path fill="none" stroke="#191970" d="M734.6127,-181.5C893.6378,-181.5 1186.8605,-181.5 1340.9196,-181.5"/>
<polygon fill="#191970" stroke="#191970" points="734.3349,-178.0001 724.3349,-181.5 734.3349,-185.0001 734.3349,-178.0001"/>
</g>
<!-- Node21&#45;&gt;Node18 -->
<g id="edge24" class="edge">
<title>Node21&#45;&gt;Node18</title>
<path fill="none" stroke="#191970" d="M1547.6594,-299.7127C1616.7168,-299.2005 1705.246,-298.5439 1767.8787,-298.0794"/>
<polygon fill="#191970" stroke="#191970" points="1547.591,-296.213 1537.6173,-299.7871 1547.643,-303.2128 1547.591,-296.213"/>
</g>
<!-- Node22&#45;&gt;Node21 -->
<g id="edge25" class="edge">
<title>Node22&#45;&gt;Node21</title>
<path fill="none" stroke="#191970" d="M1098.9718,-319.9525C1157.6506,-316.7561 1246.0796,-311.8975 1323,-307.5 1330.3042,-307.0824 1337.8614,-306.646 1345.4609,-306.2041"/>
<polygon fill="#191970" stroke="#191970" points="1098.528,-316.4714 1088.733,-320.5098 1098.9085,-323.461 1098.528,-316.4714"/>
</g>
<!-- Node23 -->
<g id="node20" class="node">
<title>Node23</title>
<g id="a_node20"><a xlink:href="classgko_1_1EnableCreateMethod.html" target="_top" xlink:title="gko::EnableCreateMethod\l\&lt; Csr\&lt; ValueType, IndexType \&gt; \&gt;">
<polygon fill="#ffffff" stroke="#000000" points="2134,-233.5 2134,-263.5 2316,-263.5 2316,-233.5 2134,-233.5"/>
<text text-anchor="start" x="2142" y="-251.5" font-family="Helvetica,sans-Serif" font-size="10.00" fill="#000000">gko::EnableCreateMethod</text>
<text text-anchor="middle" x="2225" y="-240.5" font-family="Helvetica,sans-Serif" font-size="10.00" fill="#000000">&lt; Csr&lt; ValueType, IndexType &gt; &gt;</text>
</a>
</g>
</g>
<!-- Node23&#45;&gt;Node0 -->
<g id="edge28" class="edge">
<title>Node23&#45;&gt;Node0</title>
<path fill="none" stroke="#191970" d="M2326.1874,-263.1648C2335.1483,-264.4635 2344.1323,-265.7655 2352.8706,-267.032"/>
<polygon fill="#191970" stroke="#191970" points="2326.4931,-259.6727 2316.0944,-261.7021 2325.489,-266.6003 2326.4931,-259.6727"/>
</g>
<!-- Node24 -->
<g id="node21" class="node">
<title>Node24</title>
<g id="a_node21"><a xlink:href="classgko_1_1EnableCreateMethod.html" target="_top" xlink:title="This mixin implements a static create() method on ConcreteType that dynamically allocates the memory...">
<polygon fill="#ffffff" stroke="#000000" points="1775,-71.5 1775,-101.5 1917,-101.5 1917,-71.5 1775,-71.5"/>
<text text-anchor="start" x="1783" y="-89.5" font-family="Helvetica,sans-Serif" font-size="10.00" fill="#000000">gko::EnableCreateMethod</text>
<text text-anchor="middle" x="1846" y="-78.5" font-family="Helvetica,sans-Serif" font-size="10.00" fill="#000000">&lt; ConcreteType &gt;</text>
</a>
</g>
</g>
<!-- Node24&#45;&gt;Node23 -->
<g id="edge29" class="edge">
<title>Node24&#45;&gt;Node23</title>
<path fill="none" stroke="#ffa500" stroke-dasharray="5,2" d="M1927.4509,-82.19C1987.4707,-83.6129 2066.8903,-95.8651 2116,-144.5 2141.895,-170.1446 2108.7051,-198.2633 2134,-224.5 2137.2887,-227.9111 2141,-230.8574 2144.9961,-233.4004"/>
<polygon fill="#ffa500" stroke="#ffa500" points="1927.2867,-78.6875 1917.2386,-82.0468 1927.1885,-85.6868 1927.2867,-78.6875"/>
<text text-anchor="middle" x="2031.5" y="-147.5" font-family="Helvetica,sans-Serif" font-size="10.00" fill="#000000"> &lt; Csr&lt; ValueType, IndexType &gt; &gt;</text>
</g>
<!-- Node25&#45;&gt;Node0 -->
<g id="edge30" class="edge">
<title>Node25&#45;&gt;Node0</title>
<path fill="none" stroke="#191970" d="M1319.7321,-357.6277C1403.203,-355.8671 1536.9176,-353.5 1652.5,-353.5 1652.5,-353.5 1652.5,-353.5 2225,-353.5 2294.567,-353.5 2369.8429,-315.5926 2407.5489,-293.6774"/>
<polygon fill="#191970" stroke="#191970" points="1319.4779,-354.1322 1309.5548,-357.8446 1319.6272,-361.1306 1319.4779,-354.1322"/>
</g>
<!-- Node26&#45;&gt;Node0 -->
<g id="edge32" class="edge">
<title>Node26&#45;&gt;Node0</title>
<path fill="none" stroke="#191970" d="M1748.3403,-465.8774C1883.3603,-484.085 2133.4597,-499.6353 2316,-404.5 2366.362,-378.2527 2406.1465,-321.0326 2423.1029,-293.6677"/>
<polygon fill="#191970" stroke="#191970" points="1748.8077,-462.4088 1738.4227,-464.5071 1747.8496,-469.3429 1748.8077,-462.4088"/>
</g>
<!-- Node27&#45;&gt;Node0 -->
<g id="edge34" class="edge">
<title>Node27&#45;&gt;Node0</title>
<path fill="none" stroke="#191970" d="M2100.0023,-405.6733C2163.6974,-406.8746 2259.7984,-401.7152 2335,-367.5 2372.029,-350.6525 2404.4601,-314.2057 2420.7853,-293.5599"/>
<polygon fill="#191970" stroke="#191970" points="2099.7587,-402.1663 2089.6751,-405.4174 2099.5853,-409.1641 2099.7587,-402.1663"/>
</g>
<!-- Node28 -->
<g id="node25" class="node">
<title>Node28</title>
<g id="a_node25"><a xlink:href="classgko_1_1ReadableFromMatrixData.html" target="_top" xlink:title="A LinOp implementing this interface can read its data from a matrix_data structure. ">
<polygon fill="#ffffff" stroke="#000000" points="2143,-184.5 2143,-214.5 2307,-214.5 2307,-184.5 2143,-184.5"/>
<text text-anchor="start" x="2151" y="-202.5" font-family="Helvetica,sans-Serif" font-size="10.00" fill="#000000">gko::ReadableFromMatrixData</text>
<text text-anchor="middle" x="2225" y="-191.5" font-family="Helvetica,sans-Serif" font-size="10.00" fill="#000000">&lt; ValueType, IndexType &gt;</text>
</a>
</g>
</g>
<!-- Node28&#45;&gt;Node0 -->
<g id="edge36" class="edge">
<title>Node28&#45;&gt;Node0</title>
<path fill="none" stroke="#191970" d="M2295.2727,-217.5304C2302.3263,-219.7201 2309.3386,-222.0541 2316,-224.5 2346.4451,-235.6788 2379.8935,-251.6706 2403.0171,-263.3497"/>
<polygon fill="#191970" stroke="#191970" points="2296.2419,-214.167 2285.6575,-214.6366 2294.2246,-220.8701 2296.2419,-214.167"/>
</g>
<!-- Node29 -->
<g id="node26" class="node">
<title>Node29</title>
<g id="a_node26"><a xlink:href="classgko_1_1WritableToMatrixData.html" target="_top" xlink:title="A LinOp implementing this interface can write its data to a matrix_data structure. ">
<polygon fill="#ffffff" stroke="#000000" points="2152,-135.5 2152,-165.5 2298,-165.5 2298,-135.5 2152,-135.5"/>
<text text-anchor="start" x="2160" y="-153.5" font-family="Helvetica,sans-Serif" font-size="10.00" fill="#000000">gko::WritableToMatrixData</text>
<text text-anchor="middle" x="2225" y="-142.5" font-family="Helvetica,sans-Serif" font-size="10.00" fill="#000000">&lt; ValueType, IndexType &gt;</text>
</a>
</g>
</g>
<!-- Node29&#45;&gt;Node0 -->
<g id="edge37" class="edge">
<title>Node29&#45;&gt;Node0</title>
<path fill="none" stroke="#191970" d="M2302.8664,-169.2471C2307.3974,-171.1474 2311.8102,-173.2268 2316,-175.5 2358.847,-198.7468 2399.0933,-240.6102 2418.9975,-263.1442"/>
<polygon fill="#191970" stroke="#191970" points="2304.0226,-165.9416 2293.4335,-165.5934 2301.4942,-172.4691 2304.0226,-165.9416"/>
</g>
<!-- Node30 -->
<g id="node27" class="node">
<title>Node30</title>
<g id="a_node27"><a xlink:href="classgko_1_1Transposable.html" target="_top" xlink:title="Linear operators which support transposition should implement the Transposable interface. ">
<polygon fill="#ffffff" stroke="#000000" points="2173,-97 2173,-116 2277,-116 2277,-97 2173,-97"/>
<text text-anchor="middle" x="2225" y="-104" font-family="Helvetica,sans-Serif" font-size="10.00" fill="#000000">gko::Transposable</text>
</a>
</g>
</g>
<!-- Node30&#45;&gt;Node0 -->
<g id="edge38" class="edge">
<title>Node30&#45;&gt;Node0</title>
<path fill="none" stroke="#191970" d="M2286.8526,-113.1595C2297.0879,-115.9795 2307.2139,-119.943 2316,-125.5 2371.4986,-160.6018 2410.2741,-232.283 2425.1993,-263.4591"/>
<polygon fill="#191970" stroke="#191970" points="2287.5883,-109.7366 2277.0461,-110.7915 2285.9451,-116.541 2287.5883,-109.7366"/>
</g>
</g>
</svg>
