<?xml version="1.0" encoding="UTF-8" standalone="no"?>
<!DOCTYPE svg PUBLIC "-//W3C//DTD SVG 1.1//EN"
 "http://www.w3.org/Graphics/SVG/1.1/DTD/svg11.dtd">
<!-- Generated by graphviz version 2.38.0 (20140413.2041)
 -->
<!-- Title: gko::solver::Fcg&lt; ValueType &gt;::Factory Pages: 1 -->
<svg width="962pt" height="99pt"
 viewBox="0.00 0.00 962.00 98.50" xmlns="http://www.w3.org/2000/svg" xmlns:xlink="http://www.w3.org/1999/xlink">
<g id="graph0" class="graph" transform="scale(1 1) rotate(0) translate(4 94.5)">
<title>gko::solver::Fcg&lt; ValueType &gt;::Factory</title>
<polygon fill="white" stroke="none" points="-4,4 -4,-94.5 958,-94.5 958,4 -4,4"/>
<!-- Node1 -->
<g id="node1" class="node"><title>Node1</title>
<polygon fill="#bfbfbf" stroke="black" points="805,-27.5 805,-57.5 954,-57.5 954,-27.5 805,-27.5"/>
<text text-anchor="start" x="813" y="-45.5" font-family="Helvetica,sans-Serif" font-size="10.00">gko::solver::Fcg&lt; ValueType</text>
<text text-anchor="middle" x="879.5" y="-34.5" font-family="Helvetica,sans-Serif" font-size="10.00"> &gt;::Factory</text>
</g>
<!-- Node2 -->
<g id="node2" class="node"><title>Node2</title>
<g id="a_node2"><a xlink:href="classgko_1_1EnableDefaultFactory.html" target="_top" xlink:title="This mixin provides a default implementation of a concrete factory. ">
<polygon fill="white" stroke="black" points="584,-27.5 584,-57.5 769,-57.5 769,-27.5 584,-27.5"/>
<text text-anchor="start" x="592" y="-45.5" font-family="Helvetica,sans-Serif" font-size="10.00">gko::EnableDefaultLinOpFactory</text>
<text text-anchor="middle" x="676.5" y="-34.5" font-family="Helvetica,sans-Serif" font-size="10.00">&lt; Factory, Fcg, parameters_type &gt;</text>
</a>
</g>
</g>
<!-- Node2&#45;&gt;Node1 -->
<g id="edge1" class="edge"><title>Node2&#45;&gt;Node1</title>
<path fill="none" stroke="midnightblue" d="M779.248,-42.5C787.835,-42.5 796.41,-42.5 804.722,-42.5"/>
<polygon fill="midnightblue" stroke="midnightblue" points="779.177,-39.0001 769.177,-42.5 779.177,-46.0001 779.177,-39.0001"/>
</g>
<!-- Node3 -->
<g id="node3" class="node"><title>Node3</title>
<g id="a_node3"><a xlink:href="classgko_1_1EnablePolymorphicObject.html" target="_top" xlink:title="gko::EnablePolymorphicObject\l\&lt; ConcreteFactory, PolymorphicBase \&gt;">
<polygon fill="white" stroke="black" points="342,-52.5 342,-82.5 548,-82.5 548,-52.5 342,-52.5"/>
<text text-anchor="start" x="350" y="-70.5" font-family="Helvetica,sans-Serif" font-size="10.00">gko::EnablePolymorphicObject</text>
<text text-anchor="middle" x="445" y="-59.5" font-family="Helvetica,sans-Serif" font-size="10.00">&lt; ConcreteFactory, PolymorphicBase &gt;</text>
</a>
</g>
</g>
<!-- Node3&#45;&gt;Node2 -->
<g id="edge2" class="edge"><title>Node3&#45;&gt;Node2</title>
<path fill="none" stroke="midnightblue" d="M558.348,-55.2616C566.897,-54.3304 575.463,-53.3973 583.857,-52.4829"/>
<polygon fill="midnightblue" stroke="midnightblue" points="557.895,-51.7902 548.333,-56.3526 558.653,-58.749 557.895,-51.7902"/>
</g>
<!-- Node4 -->
<g id="node4" class="node"><title>Node4</title>
<g id="a_node4"><a xlink:href="classgko_1_1EnableAbstractPolymorphicObject.html" target="_top" xlink:title="gko::EnableAbstractPolymorphic\lObject\&lt; ConcreteFactory,\l PolymorphicBase \&gt;">
<polygon fill="white" stroke="black" points="135,-49 135,-90 306,-90 306,-49 135,-49"/>
<text text-anchor="start" x="143" y="-78" font-family="Helvetica,sans-Serif" font-size="10.00">gko::EnableAbstractPolymorphic</text>
<text text-anchor="start" x="143" y="-67" font-family="Helvetica,sans-Serif" font-size="10.00">Object&lt; ConcreteFactory,</text>
<text text-anchor="middle" x="220.5" y="-56" font-family="Helvetica,sans-Serif" font-size="10.00"> PolymorphicBase &gt;</text>
</a>
</g>
</g>
<!-- Node4&#45;&gt;Node3 -->
<g id="edge3" class="edge"><title>Node4&#45;&gt;Node3</title>
<path fill="none" stroke="midnightblue" d="M316.46,-68.6464C324.891,-68.5706 333.45,-68.4937 341.937,-68.4174"/>
<polygon fill="midnightblue" stroke="midnightblue" points="316.221,-65.1483 306.252,-68.7382 316.284,-72.1481 316.221,-65.1483"/>
</g>
<!-- Node5 -->
<g id="node5" class="node"><title>Node5</title>
<polygon fill="white" stroke="#bfbfbf" points="0,-60 0,-79 99,-79 99,-60 0,-60"/>
<text text-anchor="middle" x="49.5" y="-67" font-family="Helvetica,sans-Serif" font-size="10.00">PolymorphicBase</text>
</g>
<!-- Node5&#45;&gt;Node4 -->
<g id="edge4" class="edge"><title>Node5&#45;&gt;Node4</title>
<path fill="none" stroke="midnightblue" d="M109.519,-69.5C117.692,-69.5 126.214,-69.5 134.741,-69.5"/>
<polygon fill="midnightblue" stroke="midnightblue" points="109.382,-66.0001 99.3818,-69.5 109.382,-73.0001 109.382,-66.0001"/>
</g>
<!-- Node6 -->
<g id="node6" class="node"><title>Node6</title>
<g id="a_node6"><a xlink:href="classgko_1_1EnablePolymorphicAssignment.html" target="_top" xlink:title="gko::EnablePolymorphicAssignment\l\&lt; ConcreteFactory \&gt;">
<polygon fill="white" stroke="black" points="351,-2.5 351,-32.5 539,-32.5 539,-2.5 351,-2.5"/>
<text text-anchor="start" x="359" y="-20.5" font-family="Helvetica,sans-Serif" font-size="10.00">gko::EnablePolymorphicAssignment</text>
<text text-anchor="middle" x="445" y="-9.5" font-family="Helvetica,sans-Serif" font-size="10.00">&lt; ConcreteFactory &gt;</text>
</a>
</g>
</g>
<!-- Node6&#45;&gt;Node2 -->
<g id="edge5" class="edge"><title>Node6&#45;&gt;Node2</title>
<path fill="none" stroke="midnightblue" d="M549.13,-28.7342C560.701,-29.9946 572.43,-31.2723 583.842,-32.5154"/>
<polygon fill="midnightblue" stroke="midnightblue" points="549.336,-25.236 539.016,-27.6324 548.578,-32.1948 549.336,-25.236"/>
</g>
<!-- Node7 -->
<g id="node7" class="node"><title>Node7</title>
<g id="a_node7"><a xlink:href="classgko_1_1ConvertibleTo.html" target="_top" xlink:title="gko::ConvertibleTo\l\&lt; ConcreteFactory \&gt;">
<polygon fill="white" stroke="black" points="162,-0.5 162,-30.5 279,-30.5 279,-0.5 162,-0.5"/>
<text text-anchor="start" x="170" y="-18.5" font-family="Helvetica,sans-Serif" font-size="10.00">gko::ConvertibleTo</text>
<text text-anchor="middle" x="220.5" y="-7.5" font-family="Helvetica,sans-Serif" font-size="10.00">&lt; ConcreteFactory &gt;</text>
</a>
</g>
</g>
<!-- Node7&#45;&gt;Node6 -->
<g id="edge6" class="edge"><title>Node7&#45;&gt;Node6</title>
<path fill="none" stroke="midnightblue" d="M289.329,-16.1097C308.73,-16.2841 330.221,-16.4773 350.857,-16.6628"/>
<polygon fill="midnightblue" stroke="midnightblue" points="289.12,-12.6078 279.089,-16.0177 289.057,-19.6075 289.12,-12.6078"/>
</g>
</g>
</svg>
