<?xml version="1.0" encoding="UTF-8" standalone="no"?>
<!DOCTYPE svg PUBLIC "-//W3C//DTD SVG 1.1//EN"
 "http://www.w3.org/Graphics/SVG/1.1/DTD/svg11.dtd">
<!-- Generated by graphviz version 2.38.0 (20140413.2041)
 -->
<!-- Title: gko::stop::ResidualNormReduction&lt; ValueType &gt; Pages: 1 -->
<svg width="684pt" height="50pt"
 viewBox="0.00 0.00 684.00 50.00" xmlns="http://www.w3.org/2000/svg" xmlns:xlink="http://www.w3.org/1999/xlink">
<g id="graph0" class="graph" transform="scale(1 1) rotate(0) translate(4 46)">
<title>gko::stop::ResidualNormReduction&lt; ValueType &gt;</title>
<polygon fill="white" stroke="none" points="-4,4 -4,-46 680,-46 680,4 -4,4"/>
<!-- Node1 -->
<g id="node1" class="node"><title>Node1</title>
<polygon fill="#bfbfbf" stroke="black" points="497,-6 497,-36 676,-36 676,-6 497,-6"/>
<text text-anchor="start" x="505" y="-24" font-family="Helvetica,sans-Serif" font-size="10.00">gko::stop::ResidualNormReduction</text>
<text text-anchor="middle" x="586.5" y="-13" font-family="Helvetica,sans-Serif" font-size="10.00">&lt; ValueType &gt;</text>
</g>
<!-- Node2 -->
<g id="node2" class="node"><title>Node2</title>
<g id="a_node2"><a xlink:href="classgko_1_1EnablePolymorphicObject.html" target="_top" xlink:title="gko::EnablePolymorphicObject\l\&lt; ResidualNormReduction\&lt;\l ValueType \&gt;, Criterion \&gt;">
<polygon fill="white" stroke="black" points="300,-0.5 300,-41.5 461,-41.5 461,-0.5 300,-0.5"/>
<text text-anchor="start" x="308" y="-29.5" font-family="Helvetica,sans-Serif" font-size="10.00">gko::EnablePolymorphicObject</text>
<text text-anchor="start" x="308" y="-18.5" font-family="Helvetica,sans-Serif" font-size="10.00">&lt; ResidualNormReduction&lt;</text>
<text text-anchor="middle" x="380.5" y="-7.5" font-family="Helvetica,sans-Serif" font-size="10.00"> ValueType &gt;, Criterion &gt;</text>
</a>
</g>
</g>
<!-- Node2&#45;&gt;Node1 -->
<g id="edge1" class="edge"><title>Node2&#45;&gt;Node1</title>
<path fill="none" stroke="midnightblue" d="M471.413,-21C479.803,-21 488.305,-21 496.686,-21"/>
<polygon fill="midnightblue" stroke="midnightblue" points="471.248,-17.5001 461.248,-21 471.248,-24.5001 471.248,-17.5001"/>
</g>
<!-- Node3 -->
<g id="node3" class="node"><title>Node3</title>
<g id="a_node3"><a xlink:href="classgko_1_1EnableAbstractPolymorphicObject.html" target="_top" xlink:title="gko::EnableAbstractPolymorphic\lObject\&lt; ResidualNormReduction\l\&lt; ValueType \&gt;, Criterion \&gt;">
<polygon fill="white" stroke="black" points="93,-0.5 93,-41.5 264,-41.5 264,-0.5 93,-0.5"/>
<text text-anchor="start" x="101" y="-29.5" font-family="Helvetica,sans-Serif" font-size="10.00">gko::EnableAbstractPolymorphic</text>
<text text-anchor="start" x="101" y="-18.5" font-family="Helvetica,sans-Serif" font-size="10.00">Object&lt; ResidualNormReduction</text>
<text text-anchor="middle" x="178.5" y="-7.5" font-family="Helvetica,sans-Serif" font-size="10.00">&lt; ValueType &gt;, Criterion &gt;</text>
</a>
</g>
</g>
<!-- Node3&#45;&gt;Node2 -->
<g id="edge2" class="edge"><title>Node3&#45;&gt;Node2</title>
<path fill="none" stroke="midnightblue" d="M274.068,-21C282.654,-21 291.294,-21 299.733,-21"/>
<polygon fill="midnightblue" stroke="midnightblue" points="274.028,-17.5001 264.028,-21 274.028,-24.5001 274.028,-17.5001"/>
</g>
<!-- Node4 -->
<g id="node4" class="node"><title>Node4</title>
<polygon fill="white" stroke="#bfbfbf" points="0,-11.5 0,-30.5 57,-30.5 57,-11.5 0,-11.5"/>
<text text-anchor="middle" x="28.5" y="-18.5" font-family="Helvetica,sans-Serif" font-size="10.00">Criterion</text>
</g>
<!-- Node4&#45;&gt;Node3 -->
<g id="edge3" class="edge"><title>Node4&#45;&gt;Node3</title>
<path fill="none" stroke="midnightblue" d="M67.3458,-21C75.3182,-21 84.0329,-21 92.9564,-21"/>
<polygon fill="midnightblue" stroke="midnightblue" points="67.3377,-17.5001 57.3377,-21 67.3376,-24.5001 67.3377,-17.5001"/>
</g>
</g>
</svg>
