<?xml version="1.0" encoding="UTF-8" standalone="no"?>
<!DOCTYPE svg PUBLIC "-//W3C//DTD SVG 1.1//EN"
 "http://www.w3.org/Graphics/SVG/1.1/DTD/svg11.dtd">
<!-- Generated by graphviz version 2.38.0 (20140413.2041)
 -->
<!-- Title: gko::matrix::Coo&lt; ValueType, IndexType &gt; Pages: 1 -->
<svg width="2452pt" height="571pt"
 viewBox="0.00 0.00 2452.00 570.50" xmlns="http://www.w3.org/2000/svg" xmlns:xlink="http://www.w3.org/1999/xlink">
<g id="graph0" class="graph" transform="scale(1 1) rotate(0) translate(4 566.5)">
<title>gko::matrix::Coo&lt; ValueType, IndexType &gt;</title>
<polygon fill="white" stroke="none" points="-4,4 -4,-566.5 2448,-566.5 2448,4 -4,4"/>
<!-- Node1 -->
<g id="node1" class="node"><title>Node1</title>
<polygon fill="#bfbfbf" stroke="black" points="2287,-132 2287,-162 2444,-162 2444,-132 2287,-132"/>
<text text-anchor="start" x="2295" y="-150" font-family="Helvetica,sans-Serif" font-size="10.00">gko::matrix::Coo&lt; ValueType,</text>
<text text-anchor="middle" x="2365.5" y="-139" font-family="Helvetica,sans-Serif" font-size="10.00"> IndexType &gt;</text>
</g>
<!-- Node2 -->
<g id="node2" class="node"><title>Node2</title>
<g id="a_node2"><a xlink:href="classgko_1_1EnableLinOp.html" target="_top" xlink:title="gko::EnableLinOp\&lt; Coo\l\&lt; ValueType, IndexType \&gt; \&gt;">
<polygon fill="white" stroke="black" points="2085,-283 2085,-313 2235,-313 2235,-283 2085,-283"/>
<text text-anchor="start" x="2093" y="-301" font-family="Helvetica,sans-Serif" font-size="10.00">gko::EnableLinOp&lt; Coo</text>
<text text-anchor="middle" x="2160" y="-290" font-family="Helvetica,sans-Serif" font-size="10.00">&lt; ValueType, IndexType &gt; &gt;</text>
</a>
</g>
</g>
<!-- Node2&#45;&gt;Node1 -->
<g id="edge1" class="edge"><title>Node2&#45;&gt;Node1</title>
<path fill="none" stroke="midnightblue" d="M2213.53,-279.07C2231.93,-271.198 2252.19,-261.057 2269,-249 2304.29,-223.695 2336.92,-183.909 2353.36,-162.265"/>
<polygon fill="midnightblue" stroke="midnightblue" points="2212,-275.915 2204.1,-282.978 2214.68,-282.381 2212,-275.915"/>
</g>
<!-- Node3 -->
<g id="node3" class="node"><title>Node3</title>
<g id="a_node3"><a xlink:href="classgko_1_1EnablePolymorphicObject.html" target="_top" xlink:title="gko::EnablePolymorphicObject\l\&lt; Coo\&lt; ValueType, IndexType\l \&gt;, LinOp \&gt;">
<polygon fill="white" stroke="black" points="1706,-429.5 1706,-470.5 1867,-470.5 1867,-429.5 1706,-429.5"/>
<text text-anchor="start" x="1714" y="-458.5" font-family="Helvetica,sans-Serif" font-size="10.00">gko::EnablePolymorphicObject</text>
<text text-anchor="start" x="1714" y="-447.5" font-family="Helvetica,sans-Serif" font-size="10.00">&lt; Coo&lt; ValueType, IndexType</text>
<text text-anchor="middle" x="1786.5" y="-436.5" font-family="Helvetica,sans-Serif" font-size="10.00"> &gt;, LinOp &gt;</text>
</a>
</g>
</g>
<!-- Node3&#45;&gt;Node2 -->
<g id="edge2" class="edge"><title>Node3&#45;&gt;Node2</title>
<path fill="none" stroke="midnightblue" d="M1847.64,-425.396C1925.25,-393.641 2057.91,-339.361 2122.08,-313.105"/>
<polygon fill="midnightblue" stroke="midnightblue" points="1845.92,-422.316 1837.99,-429.342 1848.57,-428.795 1845.92,-422.316"/>
</g>
<!-- Node4 -->
<g id="node4" class="node"><title>Node4</title>
<g id="a_node4"><a xlink:href="classgko_1_1EnableAbstractPolymorphicObject.html" target="_top" xlink:title="gko::EnableAbstractPolymorphic\lObject\&lt; Coo\&lt; ValueType, IndexType\l \&gt;, LinOp \&gt;">
<polygon fill="white" stroke="black" points="1337,-490.5 1337,-531.5 1525,-531.5 1525,-490.5 1337,-490.5"/>
<text text-anchor="start" x="1345" y="-519.5" font-family="Helvetica,sans-Serif" font-size="10.00">gko::EnableAbstractPolymorphic</text>
<text text-anchor="start" x="1345" y="-508.5" font-family="Helvetica,sans-Serif" font-size="10.00">Object&lt; Coo&lt; ValueType, IndexType</text>
<text text-anchor="middle" x="1431" y="-497.5" font-family="Helvetica,sans-Serif" font-size="10.00"> &gt;, LinOp &gt;</text>
</a>
</g>
</g>
<!-- Node4&#45;&gt;Node3 -->
<g id="edge3" class="edge"><title>Node4&#45;&gt;Node3</title>
<path fill="none" stroke="midnightblue" d="M1535.35,-493.165C1589.72,-483.784 1655.35,-472.459 1705.74,-463.763"/>
<polygon fill="midnightblue" stroke="midnightblue" points="1534.6,-489.744 1525.34,-494.893 1535.79,-496.642 1534.6,-489.744"/>
</g>
<!-- Node5 -->
<g id="node5" class="node"><title>Node5</title>
<g id="a_node5"><a xlink:href="classgko_1_1LinOp.html" target="_top" xlink:title="The linear operator (LinOp) is a base class for all linear algebra objects in Ginkgo. ">
<polygon fill="white" stroke="black" points="984.5,-533.5 984.5,-552.5 1051.5,-552.5 1051.5,-533.5 984.5,-533.5"/>
<text text-anchor="middle" x="1018" y="-540.5" font-family="Helvetica,sans-Serif" font-size="10.00">gko::LinOp</text>
</a>
</g>
</g>
<!-- Node5&#45;&gt;Node4 -->
<g id="edge4" class="edge"><title>Node5&#45;&gt;Node4</title>
<path fill="none" stroke="midnightblue" d="M1061.82,-539.666C1126.48,-534.632 1250.6,-524.968 1336.75,-518.26"/>
<polygon fill="midnightblue" stroke="midnightblue" points="1061.29,-536.196 1051.59,-540.462 1061.84,-543.175 1061.29,-536.196"/>
</g>
<!-- Node6 -->
<g id="node6" class="node"><title>Node6</title>
<g id="a_node6"><a xlink:href="classgko_1_1EnableAbstractPolymorphicObject.html" target="_top" xlink:title="gko::EnableAbstractPolymorphic\lObject\&lt; LinOp \&gt;">
<polygon fill="white" stroke="red" points="530,-532 530,-562 701,-562 701,-532 530,-532"/>
<text text-anchor="start" x="538" y="-550" font-family="Helvetica,sans-Serif" font-size="10.00">gko::EnableAbstractPolymorphic</text>
<text text-anchor="middle" x="615.5" y="-539" font-family="Helvetica,sans-Serif" font-size="10.00">Object&lt; LinOp &gt;</text>
</a>
</g>
</g>
<!-- Node6&#45;&gt;Node5 -->
<g id="edge5" class="edge"><title>Node6&#45;&gt;Node5</title>
<path fill="none" stroke="midnightblue" d="M711.701,-546.049C799.666,-545.171 925.358,-543.915 984.225,-543.327"/>
<polygon fill="midnightblue" stroke="midnightblue" points="711.4,-542.552 701.436,-546.152 711.47,-549.552 711.4,-542.552"/>
</g>
<!-- Node7 -->
<g id="node7" class="node"><title>Node7</title>
<g id="a_node7"><a xlink:href="classgko_1_1EnableAbstractPolymorphicObject.html" target="_top" xlink:title="This mixin inherits from (a subclass of) PolymorphicObject and provides a base implementation of a ne...">
<polygon fill="white" stroke="black" points="136,-461.5 136,-502.5 327,-502.5 327,-461.5 136,-461.5"/>
<text text-anchor="start" x="144" y="-490.5" font-family="Helvetica,sans-Serif" font-size="10.00">gko::EnableAbstractPolymorphic</text>
<text text-anchor="start" x="144" y="-479.5" font-family="Helvetica,sans-Serif" font-size="10.00">Object&lt; AbstactObject, Polymorphic</text>
<text text-anchor="middle" x="231.5" y="-468.5" font-family="Helvetica,sans-Serif" font-size="10.00">Base &gt;</text>
</a>
</g>
</g>
<!-- Node7&#45;&gt;Node4 -->
<g id="edge8" class="edge"><title>Node7&#45;&gt;Node4</title>
<path fill="none" stroke="orange" stroke-dasharray="5,2" d="M337.214,-488.661C339.835,-488.781 342.434,-488.894 345,-489 711.846,-504.126 1148.91,-508.971 1336.71,-510.423"/>
<polygon fill="orange" stroke="orange" points="337.17,-485.155 327.013,-488.169 336.832,-492.147 337.17,-485.155"/>
<text text-anchor="start" x="743" y="-518" font-family="Helvetica,sans-Serif" font-size="10.00"> &lt; Coo&lt; ValueType, IndexType</text>
<text text-anchor="middle" x="815.5" y="-507" font-family="Helvetica,sans-Serif" font-size="10.00"> &gt;, LinOp &gt;</text>
</g>
<!-- Node7&#45;&gt;Node6 -->
<g id="edge6" class="edge"><title>Node7&#45;&gt;Node6</title>
<path fill="none" stroke="orange" stroke-dasharray="5,2" d="M301.024,-505.594C315.419,-509.907 330.604,-513.988 345,-517 406.171,-529.798 476.369,-537.39 529.783,-541.734"/>
<polygon fill="orange" stroke="orange" points="301.791,-502.169 291.205,-502.582 299.739,-508.861 301.791,-502.169"/>
<text text-anchor="middle" x="422" y="-541" font-family="Helvetica,sans-Serif" font-size="10.00"> &lt; LinOp &gt;</text>
</g>
<!-- Node10 -->
<g id="node10" class="node"><title>Node10</title>
<g id="a_node10"><a xlink:href="classgko_1_1EnableAbstractPolymorphicObject.html" target="_top" xlink:title="gko::EnableAbstractPolymorphic\lObject\&lt; ConcreteObject, Polymorphic\lBase \&gt;">
<polygon fill="white" stroke="black" points="517,-425.5 517,-466.5 714,-466.5 714,-425.5 517,-425.5"/>
<text text-anchor="start" x="525" y="-454.5" font-family="Helvetica,sans-Serif" font-size="10.00">gko::EnableAbstractPolymorphic</text>
<text text-anchor="start" x="525" y="-443.5" font-family="Helvetica,sans-Serif" font-size="10.00">Object&lt; ConcreteObject, Polymorphic</text>
<text text-anchor="middle" x="615.5" y="-432.5" font-family="Helvetica,sans-Serif" font-size="10.00">Base &gt;</text>
</a>
</g>
</g>
<!-- Node7&#45;&gt;Node10 -->
<g id="edge12" class="edge"><title>Node7&#45;&gt;Node10</title>
<path fill="none" stroke="orange" stroke-dasharray="5,2" d="M337.33,-467.833C339.911,-467.545 342.471,-467.267 345,-467 401.822,-461.003 465.552,-455.96 516.768,-452.32"/>
<polygon fill="orange" stroke="orange" points="336.823,-464.368 327.287,-468.984 337.621,-471.322 336.823,-464.368"/>
<text text-anchor="start" x="345" y="-481" font-family="Helvetica,sans-Serif" font-size="10.00"> &lt; ConcreteObject, Polymorphic</text>
<text text-anchor="middle" x="422" y="-470" font-family="Helvetica,sans-Serif" font-size="10.00">Base &gt;</text>
</g>
<!-- Node17 -->
<g id="node17" class="node"><title>Node17</title>
<g id="a_node17"><a xlink:href="classgko_1_1EnableAbstractPolymorphicObject.html" target="_top" xlink:title="gko::EnableAbstractPolymorphic\lObject\&lt; ConcreteLinOp, Polymorphic\lBase \&gt;">
<polygon fill="white" stroke="black" points="518.5,-359.5 518.5,-400.5 712.5,-400.5 712.5,-359.5 518.5,-359.5"/>
<text text-anchor="start" x="526.5" y="-388.5" font-family="Helvetica,sans-Serif" font-size="10.00">gko::EnableAbstractPolymorphic</text>
<text text-anchor="start" x="526.5" y="-377.5" font-family="Helvetica,sans-Serif" font-size="10.00">Object&lt; ConcreteLinOp, Polymorphic</text>
<text text-anchor="middle" x="615.5" y="-366.5" font-family="Helvetica,sans-Serif" font-size="10.00">Base &gt;</text>
</a>
</g>
</g>
<!-- Node7&#45;&gt;Node17 -->
<g id="edge22" class="edge"><title>Node7&#45;&gt;Node17</title>
<path fill="none" stroke="orange" stroke-dasharray="5,2" d="M276.861,-456.709C297.09,-446.131 321.687,-434.563 345,-427 401.132,-408.791 466.262,-397.186 518.432,-390.064"/>
<polygon fill="orange" stroke="orange" points="275.077,-453.694 267.894,-461.482 278.366,-459.873 275.077,-453.694"/>
<text text-anchor="start" x="347" y="-441" font-family="Helvetica,sans-Serif" font-size="10.00"> &lt; ConcreteLinOp, Polymorphic</text>
<text text-anchor="middle" x="422" y="-430" font-family="Helvetica,sans-Serif" font-size="10.00">Base &gt;</text>
</g>
<!-- Node8 -->
<g id="node8" class="node"><title>Node8</title>
<polygon fill="white" stroke="#bfbfbf" points="0,-423.5 0,-442.5 99,-442.5 99,-423.5 0,-423.5"/>
<text text-anchor="middle" x="49.5" y="-430.5" font-family="Helvetica,sans-Serif" font-size="10.00">PolymorphicBase</text>
</g>
<!-- Node8&#45;&gt;Node7 -->
<g id="edge7" class="edge"><title>Node8&#45;&gt;Node7</title>
<path fill="none" stroke="midnightblue" d="M95.5298,-445.258C113.493,-450.148 134.673,-455.914 154.864,-461.41"/>
<polygon fill="midnightblue" stroke="midnightblue" points="96.2013,-441.814 85.6331,-442.564 94.3626,-448.568 96.2013,-441.814"/>
</g>
<!-- Node8&#45;&gt;Node10 -->
<g id="edge11" class="edge"><title>Node8&#45;&gt;Node10</title>
<path fill="none" stroke="midnightblue" d="M109.242,-434.354C205.855,-436.581 399.276,-441.039 516.774,-443.747"/>
<polygon fill="midnightblue" stroke="midnightblue" points="109.152,-430.851 99.0745,-434.12 108.991,-437.849 109.152,-430.851"/>
</g>
<!-- Node8&#45;&gt;Node17 -->
<g id="edge21" class="edge"><title>Node8&#45;&gt;Node17</title>
<path fill="none" stroke="midnightblue" d="M108.955,-422.564C168.22,-412.433 262.672,-397.516 345,-390 402.351,-384.764 466.805,-382.251 518.297,-381.053"/>
<polygon fill="midnightblue" stroke="midnightblue" points="108.293,-419.127 99.0317,-424.272 109.481,-426.025 108.293,-419.127"/>
</g>
<!-- Node9 -->
<g id="node9" class="node"><title>Node9</title>
<g id="a_node9"><a xlink:href="classgko_1_1EnablePolymorphicObject.html" target="_top" xlink:title="This mixin inherits from (a subclass of) PolymorphicObject and provides a base implementation of a ne...">
<polygon fill="white" stroke="black" points="917,-431 917,-461 1119,-461 1119,-431 917,-431"/>
<text text-anchor="start" x="925" y="-449" font-family="Helvetica,sans-Serif" font-size="10.00">gko::EnablePolymorphicObject</text>
<text text-anchor="middle" x="1018" y="-438" font-family="Helvetica,sans-Serif" font-size="10.00">&lt; ConcreteObject, PolymorphicBase &gt;</text>
</a>
</g>
</g>
<!-- Node9&#45;&gt;Node3 -->
<g id="edge9" class="edge"><title>Node9&#45;&gt;Node3</title>
<path fill="none" stroke="orange" stroke-dasharray="5,2" d="M1129.33,-446.576C1285.79,-447.392 1568.38,-448.867 1705.95,-449.585"/>
<polygon fill="orange" stroke="orange" points="1129.22,-443.075 1119.21,-446.523 1129.19,-450.075 1129.22,-443.075"/>
<text text-anchor="start" x="1358.5" y="-462" font-family="Helvetica,sans-Serif" font-size="10.00"> &lt; Coo&lt; ValueType, IndexType</text>
<text text-anchor="middle" x="1431" y="-451" font-family="Helvetica,sans-Serif" font-size="10.00"> &gt;, LinOp &gt;</text>
</g>
<!-- Node16 -->
<g id="node16" class="node"><title>Node16</title>
<g id="a_node16"><a xlink:href="classgko_1_1EnablePolymorphicObject.html" target="_top" xlink:title="gko::EnablePolymorphicObject\l\&lt; ConcreteLinOp, PolymorphicBase \&gt;">
<polygon fill="white" stroke="black" points="1332,-365 1332,-395 1530,-395 1530,-365 1332,-365"/>
<text text-anchor="start" x="1340" y="-383" font-family="Helvetica,sans-Serif" font-size="10.00">gko::EnablePolymorphicObject</text>
<text text-anchor="middle" x="1431" y="-372" font-family="Helvetica,sans-Serif" font-size="10.00">&lt; ConcreteLinOp, PolymorphicBase &gt;</text>
</a>
</g>
</g>
<!-- Node9&#45;&gt;Node16 -->
<g id="edge23" class="edge"><title>Node9&#45;&gt;Node16</title>
<path fill="none" stroke="orange" stroke-dasharray="5,2" d="M1077.87,-428.18C1096.63,-423.002 1117.57,-417.741 1137,-414 1173.27,-407.018 1261.69,-397.109 1331.98,-389.789"/>
<polygon fill="orange" stroke="orange" points="1076.67,-424.881 1067.99,-430.954 1078.56,-431.621 1076.67,-424.881"/>
<text text-anchor="start" x="1150.5" y="-428" font-family="Helvetica,sans-Serif" font-size="10.00"> &lt; ConcreteLinOp, Polymorphic</text>
<text text-anchor="middle" x="1225.5" y="-417" font-family="Helvetica,sans-Serif" font-size="10.00">Base &gt;</text>
</g>
<!-- Node10&#45;&gt;Node9 -->
<g id="edge10" class="edge"><title>Node10&#45;&gt;Node9</title>
<path fill="none" stroke="midnightblue" d="M724.456,-446C784.3,-446 858.221,-446 916.782,-446"/>
<polygon fill="midnightblue" stroke="midnightblue" points="724.217,-442.5 714.217,-446 724.217,-449.5 724.217,-442.5"/>
</g>
<!-- Node11 -->
<g id="node11" class="node"><title>Node11</title>
<g id="a_node11"><a xlink:href="classgko_1_1EnablePolymorphicAssignment.html" target="_top" xlink:title="gko::EnablePolymorphicAssignment\l\&lt; Coo\&lt; ValueType, IndexType \&gt; \&gt;">
<polygon fill="white" stroke="black" points="1337,-261 1337,-291 1525,-291 1525,-261 1337,-261"/>
<text text-anchor="start" x="1345" y="-279" font-family="Helvetica,sans-Serif" font-size="10.00">gko::EnablePolymorphicAssignment</text>
<text text-anchor="middle" x="1431" y="-268" font-family="Helvetica,sans-Serif" font-size="10.00">&lt; Coo&lt; ValueType, IndexType &gt; &gt;</text>
</a>
</g>
</g>
<!-- Node11&#45;&gt;Node2 -->
<g id="edge13" class="edge"><title>Node11&#45;&gt;Node2</title>
<path fill="none" stroke="midnightblue" d="M1535.23,-279.124C1683.87,-283.622 1954.59,-291.814 2084.95,-295.759"/>
<polygon fill="midnightblue" stroke="midnightblue" points="1535.28,-275.624 1525.18,-278.82 1535.07,-282.621 1535.28,-275.624"/>
</g>
<!-- Node12 -->
<g id="node12" class="node"><title>Node12</title>
<g id="a_node12"><a xlink:href="classgko_1_1ConvertibleTo.html" target="_top" xlink:title="gko::ConvertibleTo\l\&lt; Coo\&lt; ValueType, IndexType \&gt; \&gt;">
<polygon fill="white" stroke="black" points="928,-223 928,-253 1108,-253 1108,-223 928,-223"/>
<text text-anchor="start" x="936" y="-241" font-family="Helvetica,sans-Serif" font-size="10.00">gko::ConvertibleTo</text>
<text text-anchor="middle" x="1018" y="-230" font-family="Helvetica,sans-Serif" font-size="10.00">&lt; Coo&lt; ValueType, IndexType &gt; &gt;</text>
</a>
</g>
</g>
<!-- Node12&#45;&gt;Node11 -->
<g id="edge14" class="edge"><title>Node12&#45;&gt;Node11</title>
<path fill="none" stroke="midnightblue" d="M1118.24,-247.176C1184.68,-253.318 1271.55,-261.35 1336.71,-267.375"/>
<polygon fill="midnightblue" stroke="midnightblue" points="1118.46,-243.681 1108.18,-246.245 1117.82,-250.651 1118.46,-243.681"/>
</g>
<!-- Node13 -->
<g id="node13" class="node"><title>Node13</title>
<g id="a_node13"><a xlink:href="classgko_1_1ConvertibleTo.html" target="_top" xlink:title="ConvertibleTo interface is used to mark that the implementer can be converted to the object of Result...">
<polygon fill="white" stroke="black" points="563.5,-223 563.5,-253 667.5,-253 667.5,-223 563.5,-223"/>
<text text-anchor="start" x="571.5" y="-241" font-family="Helvetica,sans-Serif" font-size="10.00">gko::ConvertibleTo</text>
<text text-anchor="middle" x="615.5" y="-230" font-family="Helvetica,sans-Serif" font-size="10.00">&lt; ResultType &gt;</text>
</a>
</g>
</g>
<!-- Node13&#45;&gt;Node12 -->
<g id="edge15" class="edge"><title>Node13&#45;&gt;Node12</title>
<path fill="none" stroke="orange" stroke-dasharray="5,2" d="M677.974,-238C744.653,-238 851.722,-238 927.68,-238"/>
<polygon fill="orange" stroke="orange" points="677.63,-234.5 667.63,-238 677.63,-241.5 677.63,-234.5"/>
<text text-anchor="middle" x="815.5" y="-241" font-family="Helvetica,sans-Serif" font-size="10.00"> &lt; Coo&lt; ValueType, IndexType &gt; &gt;</text>
</g>
<!-- Node14 -->
<g id="node14" class="node"><title>Node14</title>
<g id="a_node14"><a xlink:href="classgko_1_1EnablePolymorphicAssignment.html" target="_top" xlink:title="This mixin is used to enable a default PolymorphicObject::copy_from() implementation for objects that...">
<polygon fill="white" stroke="black" points="924,-272 924,-302 1112,-302 1112,-272 924,-272"/>
<text text-anchor="start" x="932" y="-290" font-family="Helvetica,sans-Serif" font-size="10.00">gko::EnablePolymorphicAssignment</text>
<text text-anchor="middle" x="1018" y="-279" font-family="Helvetica,sans-Serif" font-size="10.00">&lt; ConcreteType, ResultType &gt;</text>
</a>
</g>
</g>
<!-- Node13&#45;&gt;Node14 -->
<g id="edge17" class="edge"><title>Node13&#45;&gt;Node14</title>
<path fill="none" stroke="midnightblue" d="M677.761,-246.077C695.275,-248.353 714.388,-250.806 732,-253 796.035,-260.978 868.214,-269.584 923.912,-276.143"/>
<polygon fill="midnightblue" stroke="midnightblue" points="678.026,-242.582 667.658,-244.76 677.121,-249.523 678.026,-242.582"/>
</g>
<!-- Node19 -->
<g id="node19" class="node"><title>Node19</title>
<g id="a_node19"><a xlink:href="classgko_1_1ConvertibleTo.html" target="_top" xlink:title="gko::ConvertibleTo\l\&lt; ConcreteLinOp \&gt;">
<polygon fill="white" stroke="black" points="963,-321 963,-351 1073,-351 1073,-321 963,-321"/>
<text text-anchor="start" x="971" y="-339" font-family="Helvetica,sans-Serif" font-size="10.00">gko::ConvertibleTo</text>
<text text-anchor="middle" x="1018" y="-328" font-family="Helvetica,sans-Serif" font-size="10.00">&lt; ConcreteLinOp &gt;</text>
</a>
</g>
</g>
<!-- Node13&#45;&gt;Node19 -->
<g id="edge26" class="edge"><title>Node13&#45;&gt;Node19</title>
<path fill="none" stroke="orange" stroke-dasharray="5,2" d="M666.616,-256.402C686.766,-263.411 710.321,-271.119 732,-277 811.489,-298.562 905.295,-316.586 962.962,-326.835"/>
<polygon fill="orange" stroke="orange" points="667.616,-253.044 657.021,-253.028 665.294,-259.647 667.616,-253.044"/>
<text text-anchor="middle" x="815.5" y="-317" font-family="Helvetica,sans-Serif" font-size="10.00"> &lt; ConcreteLinOp &gt;</text>
</g>
<!-- Node22 -->
<g id="node22" class="node"><title>Node22</title>
<g id="a_node22"><a xlink:href="classgko_1_1ConvertibleTo.html" target="_top" xlink:title="gko::ConvertibleTo\l\&lt; Csr\&lt; ValueType, IndexType \&gt; \&gt;">
<polygon fill="white" stroke="black" points="1137,-132 1137,-162 1314,-162 1314,-132 1137,-132"/>
<text text-anchor="start" x="1145" y="-150" font-family="Helvetica,sans-Serif" font-size="10.00">gko::ConvertibleTo</text>
<text text-anchor="middle" x="1225.5" y="-139" font-family="Helvetica,sans-Serif" font-size="10.00">&lt; Csr&lt; ValueType, IndexType &gt; &gt;</text>
</a>
</g>
</g>
<!-- Node13&#45;&gt;Node22 -->
<g id="edge31" class="edge"><title>Node13&#45;&gt;Node22</title>
<path fill="none" stroke="orange" stroke-dasharray="5,2" d="M642.654,-216.827C664.933,-200.16 698.567,-178.113 732,-168 868.799,-126.62 1036.7,-130.291 1136.91,-137.845"/>
<polygon fill="orange" stroke="orange" points="640.511,-214.059 634.695,-222.915 644.764,-219.619 640.511,-214.059"/>
<text text-anchor="middle" x="815.5" y="-171" font-family="Helvetica,sans-Serif" font-size="10.00"> &lt; Csr&lt; ValueType, IndexType &gt; &gt;</text>
</g>
<!-- Node23 -->
<g id="node23" class="node"><title>Node23</title>
<g id="a_node23"><a xlink:href="classgko_1_1ConvertibleTo.html" target="_top" xlink:title="gko::ConvertibleTo\l\&lt; Dense\&lt; ValueType \&gt; \&gt;">
<polygon fill="white" stroke="black" points="1548,-199 1548,-229 1688,-229 1688,-199 1548,-199"/>
<text text-anchor="start" x="1556" y="-217" font-family="Helvetica,sans-Serif" font-size="10.00">gko::ConvertibleTo</text>
<text text-anchor="middle" x="1618" y="-206" font-family="Helvetica,sans-Serif" font-size="10.00">&lt; Dense&lt; ValueType &gt; &gt;</text>
</a>
</g>
</g>
<!-- Node13&#45;&gt;Node23 -->
<g id="edge33" class="edge"><title>Node13&#45;&gt;Node23</title>
<path fill="none" stroke="orange" stroke-dasharray="5,2" d="M677.8,-228.484C738.392,-219.592 833.827,-206.964 917,-202 1147.83,-188.223 1422.18,-201.55 1547.87,-209.305"/>
<polygon fill="orange" stroke="orange" points="677.023,-225.061 667.643,-229.987 678.048,-231.985 677.023,-225.061"/>
<text text-anchor="middle" x="1018" y="-205" font-family="Helvetica,sans-Serif" font-size="10.00"> &lt; Dense&lt; ValueType &gt; &gt;</text>
</g>
<!-- Node14&#45;&gt;Node11 -->
<g id="edge16" class="edge"><title>Node14&#45;&gt;Node11</title>
<path fill="none" stroke="orange" stroke-dasharray="5,2" d="M1122.29,-277.761C1127.26,-277.469 1132.18,-277.212 1137,-277 1203.83,-274.059 1279.31,-273.876 1336.92,-274.393"/>
<polygon fill="orange" stroke="orange" points="1121.79,-274.285 1112.03,-278.407 1122.23,-281.271 1121.79,-274.285"/>
<text text-anchor="middle" x="1225.5" y="-280" font-family="Helvetica,sans-Serif" font-size="10.00"> &lt; Coo&lt; ValueType, IndexType &gt; &gt;</text>
</g>
<!-- Node18 -->
<g id="node18" class="node"><title>Node18</title>
<g id="a_node18"><a xlink:href="classgko_1_1EnablePolymorphicAssignment.html" target="_top" xlink:title="gko::EnablePolymorphicAssignment\l\&lt; ConcreteLinOp \&gt;">
<polygon fill="white" stroke="black" points="1337,-313 1337,-343 1525,-343 1525,-313 1337,-313"/>
<text text-anchor="start" x="1345" y="-331" font-family="Helvetica,sans-Serif" font-size="10.00">gko::EnablePolymorphicAssignment</text>
<text text-anchor="middle" x="1431" y="-320" font-family="Helvetica,sans-Serif" font-size="10.00">&lt; ConcreteLinOp &gt;</text>
</a>
</g>
</g>
<!-- Node14&#45;&gt;Node18 -->
<g id="edge27" class="edge"><title>Node14&#45;&gt;Node18</title>
<path fill="none" stroke="orange" stroke-dasharray="5,2" d="M1122.06,-297.001C1178.71,-302.532 1250.24,-309.568 1314,-316 1321.45,-316.752 1329.18,-317.537 1336.93,-318.33"/>
<polygon fill="orange" stroke="orange" points="1122.31,-293.509 1112.02,-296.022 1121.63,-300.476 1122.31,-293.509"/>
<text text-anchor="middle" x="1225.5" y="-319" font-family="Helvetica,sans-Serif" font-size="10.00"> &lt; ConcreteLinOp &gt;</text>
</g>
<!-- Node15 -->
<g id="node15" class="node"><title>Node15</title>
<g id="a_node15"><a xlink:href="classgko_1_1EnableLinOp.html" target="_top" xlink:title="The EnableLinOp mixin can be used to provide sensible default implementations of the majority of the ...">
<polygon fill="white" stroke="black" points="1709.5,-313 1709.5,-343 1863.5,-343 1863.5,-313 1709.5,-313"/>
<text text-anchor="start" x="1717.5" y="-331" font-family="Helvetica,sans-Serif" font-size="10.00">gko::EnableLinOp&lt; Concrete</text>
<text text-anchor="middle" x="1786.5" y="-320" font-family="Helvetica,sans-Serif" font-size="10.00">LinOp, PolymorphicBase &gt;</text>
</a>
</g>
</g>
<!-- Node15&#45;&gt;Node2 -->
<g id="edge18" class="edge"><title>Node15&#45;&gt;Node2</title>
<path fill="none" stroke="orange" stroke-dasharray="5,2" d="M1873.65,-321.043C1937.64,-315.876 2024.02,-308.9 2084.93,-303.982"/>
<polygon fill="orange" stroke="orange" points="1873.26,-317.563 1863.58,-321.857 1873.82,-324.54 1873.26,-317.563"/>
<text text-anchor="middle" x="1968.5" y="-323" font-family="Helvetica,sans-Serif" font-size="10.00"> &lt; Coo&lt; ValueType, IndexType &gt; &gt;</text>
</g>
<!-- Node16&#45;&gt;Node15 -->
<g id="edge19" class="edge"><title>Node16&#45;&gt;Node15</title>
<path fill="none" stroke="midnightblue" d="M1540.1,-364.098C1594.88,-356.041 1660.07,-346.451 1709.49,-339.181"/>
<polygon fill="midnightblue" stroke="midnightblue" points="1539.38,-360.666 1530,-365.584 1540.4,-367.591 1539.38,-360.666"/>
</g>
<!-- Node17&#45;&gt;Node16 -->
<g id="edge20" class="edge"><title>Node17&#45;&gt;Node16</title>
<path fill="none" stroke="midnightblue" d="M722.864,-380C881.582,-380 1178.16,-380 1331.92,-380"/>
<polygon fill="midnightblue" stroke="midnightblue" points="722.612,-376.5 712.612,-380 722.612,-383.5 722.612,-376.5"/>
</g>
<!-- Node18&#45;&gt;Node15 -->
<g id="edge24" class="edge"><title>Node18&#45;&gt;Node15</title>
<path fill="none" stroke="midnightblue" d="M1535.58,-328C1591.16,-328 1658.47,-328 1709.23,-328"/>
<polygon fill="midnightblue" stroke="midnightblue" points="1535.34,-324.5 1525.34,-328 1535.34,-331.5 1535.34,-324.5"/>
</g>
<!-- Node19&#45;&gt;Node18 -->
<g id="edge25" class="edge"><title>Node19&#45;&gt;Node18</title>
<path fill="none" stroke="midnightblue" d="M1083.31,-334.748C1151.35,-333.424 1259.39,-331.321 1336.77,-329.815"/>
<polygon fill="midnightblue" stroke="midnightblue" points="1083.08,-331.252 1073.15,-334.946 1083.22,-338.251 1083.08,-331.252"/>
</g>
<!-- Node20 -->
<g id="node20" class="node"><title>Node20</title>
<g id="a_node20"><a xlink:href="classgko_1_1EnableCreateMethod.html" target="_top" xlink:title="gko::EnableCreateMethod\l\&lt; Coo\&lt; ValueType, IndexType \&gt; \&gt;">
<polygon fill="white" stroke="black" points="2070,-176 2070,-206 2250,-206 2250,-176 2070,-176"/>
<text text-anchor="start" x="2078" y="-194" font-family="Helvetica,sans-Serif" font-size="10.00">gko::EnableCreateMethod</text>
<text text-anchor="middle" x="2160" y="-183" font-family="Helvetica,sans-Serif" font-size="10.00">&lt; Coo&lt; ValueType, IndexType &gt; &gt;</text>
</a>
</g>
</g>
<!-- Node20&#45;&gt;Node1 -->
<g id="edge28" class="edge"><title>Node20&#45;&gt;Node1</title>
<path fill="none" stroke="midnightblue" d="M2240.37,-173.84C2258.4,-169.941 2277.42,-165.829 2295,-162.026"/>
<polygon fill="midnightblue" stroke="midnightblue" points="2239.5,-170.446 2230.46,-175.981 2240.98,-177.288 2239.5,-170.446"/>
</g>
<!-- Node21 -->
<g id="node21" class="node"><title>Node21</title>
<g id="a_node21"><a xlink:href="classgko_1_1EnableCreateMethod.html" target="_top" xlink:title="This mixin implements a static create() method on ConcreteType that dynamically allocates the memory...">
<polygon fill="white" stroke="black" points="1716.5,-176 1716.5,-206 1856.5,-206 1856.5,-176 1716.5,-176"/>
<text text-anchor="start" x="1724.5" y="-194" font-family="Helvetica,sans-Serif" font-size="10.00">gko::EnableCreateMethod</text>
<text text-anchor="middle" x="1786.5" y="-183" font-family="Helvetica,sans-Serif" font-size="10.00">&lt; ConcreteType &gt;</text>
</a>
</g>
</g>
<!-- Node21&#45;&gt;Node20 -->
<g id="edge29" class="edge"><title>Node21&#45;&gt;Node20</title>
<path fill="none" stroke="orange" stroke-dasharray="5,2" d="M1866.62,-191C1926.26,-191 2008.07,-191 2069.98,-191"/>
<polygon fill="orange" stroke="orange" points="1866.51,-187.5 1856.51,-191 1866.51,-194.5 1866.51,-187.5"/>
<text text-anchor="middle" x="1968.5" y="-194" font-family="Helvetica,sans-Serif" font-size="10.00"> &lt; Coo&lt; ValueType, IndexType &gt; &gt;</text>
</g>
<!-- Node22&#45;&gt;Node1 -->
<g id="edge30" class="edge"><title>Node22&#45;&gt;Node1</title>
<path fill="none" stroke="midnightblue" d="M1324.55,-147C1403.52,-147 1517.41,-147 1617,-147 1617,-147 1617,-147 2161,-147 2202.51,-147 2248.79,-147 2286.71,-147"/>
<polygon fill="midnightblue" stroke="midnightblue" points="1324.13,-143.5 1314.13,-147 1324.13,-150.5 1324.13,-143.5"/>
</g>
<!-- Node23&#45;&gt;Node1 -->
<g id="edge32" class="edge"><title>Node23&#45;&gt;Node1</title>
<path fill="none" stroke="midnightblue" d="M1698.24,-227.397C1819.58,-244.98 2057.6,-267.825 2250,-215 2287.23,-204.778 2324.61,-178.955 2346.11,-162.235"/>
<polygon fill="midnightblue" stroke="midnightblue" points="1698.69,-223.926 1688.28,-225.928 1697.67,-230.851 1698.69,-223.926"/>
</g>
<!-- Node24 -->
<g id="node24" class="node"><title>Node24</title>
<g id="a_node24"><a xlink:href="classgko_1_1ReadableFromMatrixData.html" target="_top" xlink:title="A LinOp implementing this interface can read its data from a matrix_data structure. ">
<polygon fill="white" stroke="black" points="2080,-88 2080,-118 2240,-118 2240,-88 2080,-88"/>
<text text-anchor="start" x="2088" y="-106" font-family="Helvetica,sans-Serif" font-size="10.00">gko::ReadableFromMatrixData</text>
<text text-anchor="middle" x="2160" y="-95" font-family="Helvetica,sans-Serif" font-size="10.00">&lt; ValueType, IndexType &gt;</text>
</a>
</g>
</g>
<!-- Node24&#45;&gt;Node1 -->
<g id="edge34" class="edge"><title>Node24&#45;&gt;Node1</title>
<path fill="none" stroke="midnightblue" d="M2240.37,-120.16C2258.4,-124.059 2277.42,-128.171 2295,-131.974"/>
<polygon fill="midnightblue" stroke="midnightblue" points="2240.98,-116.712 2230.46,-118.019 2239.5,-123.554 2240.98,-116.712"/>
</g>
<!-- Node25 -->
<g id="node25" class="node"><title>Node25</title>
<g id="a_node25"><a xlink:href="classgko_1_1WritableToMatrixData.html" target="_top" xlink:title="A LinOp implementing this interface can write its data to a matrix_data structure. ">
<polygon fill="white" stroke="black" points="2090,-39 2090,-69 2230,-69 2230,-39 2090,-39"/>
<text text-anchor="start" x="2098" y="-57" font-family="Helvetica,sans-Serif" font-size="10.00">gko::WritableToMatrixData</text>
<text text-anchor="middle" x="2160" y="-46" font-family="Helvetica,sans-Serif" font-size="10.00">&lt; ValueType, IndexType &gt;</text>
</a>
</g>
</g>
<!-- Node25&#45;&gt;Node1 -->
<g id="edge35" class="edge"><title>Node25&#45;&gt;Node1</title>
<path fill="none" stroke="midnightblue" d="M2235.22,-72.3084C2240.27,-74.0765 2245.25,-75.9736 2250,-78 2284.59,-92.7409 2321.25,-116.456 2343.51,-131.885"/>
<polygon fill="midnightblue" stroke="midnightblue" points="2236.01,-68.8846 2225.42,-69.0669 2233.81,-75.5304 2236.01,-68.8846"/>
</g>
<!-- Node26 -->
<g id="node26" class="node"><title>Node26</title>
<g id="a_node26"><a xlink:href="classgko_1_1Transposable.html" target="_top" xlink:title="Linear operators which support transposition should implement the Transposable interface. ">
<polygon fill="white" stroke="black" points="2109,-0.5 2109,-19.5 2211,-19.5 2211,-0.5 2109,-0.5"/>
<text text-anchor="middle" x="2160" y="-7.5" font-family="Helvetica,sans-Serif" font-size="10.00">gko::Transposable</text>
</a>
</g>
</g>
<!-- Node26&#45;&gt;Node1 -->
<g id="edge36" class="edge"><title>Node26&#45;&gt;Node1</title>
<path fill="none" stroke="midnightblue" d="M2221.28,-17.8017C2231.24,-20.4976 2241.19,-24.1236 2250,-29 2296.96,-54.9818 2336.7,-106.441 2354.49,-131.946"/>
<polygon fill="midnightblue" stroke="midnightblue" points="2221.89,-14.3491 2211.35,-15.4039 2220.25,-21.1536 2221.89,-14.3491"/>
</g>
</g>
</svg>
