<?xml version="1.0" encoding="UTF-8" standalone="no"?>
<!DOCTYPE svg PUBLIC "-//W3C//DTD SVG 1.1//EN"
 "http://www.w3.org/Graphics/SVG/1.1/DTD/svg11.dtd">
<!-- Generated by graphviz version 2.38.0 (20140413.2041)
 -->
<!-- Title: gko::NotSupported Pages: 1 -->
<svg width="115pt" height="140pt"
 viewBox="0.00 0.00 115.00 140.00" xmlns="http://www.w3.org/2000/svg" xmlns:xlink="http://www.w3.org/1999/xlink">
<g id="graph0" class="graph" transform="scale(1 1) rotate(0) translate(4 136)">
<title>gko::NotSupported</title>
<polygon fill="white" stroke="none" points="-4,4 -4,-136 111,-136 111,4 -4,4"/>
<!-- Node1 -->
<g id="node1" class="node"><title>Node1</title>
<polygon fill="#bfbfbf" stroke="black" points="-7.10543e-15,-0.5 -7.10543e-15,-19.5 107,-19.5 107,-0.5 -7.10543e-15,-0.5"/>
<text text-anchor="middle" x="53.5" y="-7.5" font-family="Helvetica,sans-Serif" font-size="10.00">gko::NotSupported</text>
</g>
<!-- Node2 -->
<g id="node2" class="node"><title>Node2</title>
<g id="a_node2"><a xlink:href="classgko_1_1Error.html" target="_top" xlink:title="The Error class is used to report exceptional behaviour in library functions. ">
<polygon fill="white" stroke="black" points="22,-56.5 22,-75.5 85,-75.5 85,-56.5 22,-56.5"/>
<text text-anchor="middle" x="53.5" y="-63.5" font-family="Helvetica,sans-Serif" font-size="10.00">gko::Error</text>
</a>
</g>
</g>
<!-- Node2&#45;&gt;Node1 -->
<g id="edge1" class="edge"><title>Node2&#45;&gt;Node1</title>
<path fill="none" stroke="midnightblue" d="M53.5,-45.8045C53.5,-36.9102 53.5,-26.7798 53.5,-19.7511"/>
<polygon fill="midnightblue" stroke="midnightblue" points="50.0001,-46.083 53.5,-56.083 57.0001,-46.083 50.0001,-46.083"/>
</g>
<!-- Node3 -->
<g id="node3" class="node"><title>Node3</title>
<g id="a_node3"><a xlink:title="STL class. ">
<polygon fill="white" stroke="#bfbfbf" points="11.5,-112.5 11.5,-131.5 95.5,-131.5 95.5,-112.5 11.5,-112.5"/>
<text text-anchor="middle" x="53.5" y="-119.5" font-family="Helvetica,sans-Serif" font-size="10.00">std::exception</text>
</a>
</g>
</g>
<!-- Node3&#45;&gt;Node2 -->
<g id="edge2" class="edge"><title>Node3&#45;&gt;Node2</title>
<path fill="none" stroke="midnightblue" d="M53.5,-101.805C53.5,-92.9102 53.5,-82.7798 53.5,-75.7511"/>
<polygon fill="midnightblue" stroke="midnightblue" points="50.0001,-102.083 53.5,-112.083 57.0001,-102.083 50.0001,-102.083"/>
</g>
</g>
</svg>
