<?xml version="1.0" encoding="UTF-8" standalone="no"?>
<!DOCTYPE svg PUBLIC "-//W3C//DTD SVG 1.1//EN"
 "http://www.w3.org/Graphics/SVG/1.1/DTD/svg11.dtd">
<!-- Generated by graphviz version 2.38.0 (20140413.2041)
 -->
<!-- Title: gko::EnableLinOp&lt; ConcreteLinOp, PolymorphicBase &gt; Pages: 1 -->
<svg width="1632pt" height="201pt"
 viewBox="0.00 0.00 1632.00 201.24" xmlns="http://www.w3.org/2000/svg" xmlns:xlink="http://www.w3.org/1999/xlink">
<g id="graph0" class="graph" transform="scale(1 1) rotate(0) translate(4 197.239)">
<title>gko::EnableLinOp&lt; ConcreteLinOp, PolymorphicBase &gt;</title>
<polygon fill="white" stroke="none" points="-4,4 -4,-197.239 1628,-197.239 1628,4 -4,4"/>
<!-- Node1 -->
<g id="node1" class="node"><title>Node1</title>
<polygon fill="#bfbfbf" stroke="black" points="1470,-76.5 1470,-106.5 1624,-106.5 1624,-76.5 1470,-76.5"/>
<text text-anchor="start" x="1478" y="-94.5" font-family="Helvetica,sans-Serif" font-size="10.00">gko::EnableLinOp&lt; Concrete</text>
<text text-anchor="middle" x="1547" y="-83.5" font-family="Helvetica,sans-Serif" font-size="10.00">LinOp, PolymorphicBase &gt;</text>
</g>
<!-- Node2 -->
<g id="node2" class="node"><title>Node2</title>
<g id="a_node2"><a xlink:href="classgko_1_1EnablePolymorphicObject.html" target="_top" xlink:title="gko::EnablePolymorphicObject\l\&lt; ConcreteLinOp, PolymorphicBase \&gt;">
<polygon fill="white" stroke="black" points="1235,-98.5 1235,-128.5 1433,-128.5 1433,-98.5 1235,-98.5"/>
<text text-anchor="start" x="1243" y="-116.5" font-family="Helvetica,sans-Serif" font-size="10.00">gko::EnablePolymorphicObject</text>
<text text-anchor="middle" x="1334" y="-105.5" font-family="Helvetica,sans-Serif" font-size="10.00">&lt; ConcreteLinOp, PolymorphicBase &gt;</text>
</a>
</g>
</g>
<!-- Node2&#45;&gt;Node1 -->
<g id="edge1" class="edge"><title>Node2&#45;&gt;Node1</title>
<path fill="none" stroke="midnightblue" d="M1443.26,-102.213C1452.27,-101.273 1461.25,-100.337 1469.94,-99.4304"/>
<polygon fill="midnightblue" stroke="midnightblue" points="1442.67,-98.7546 1433.09,-103.273 1443.4,-105.717 1442.67,-98.7546"/>
</g>
<!-- Node3 -->
<g id="node3" class="node"><title>Node3</title>
<g id="a_node3"><a xlink:href="classgko_1_1EnableAbstractPolymorphicObject.html" target="_top" xlink:title="gko::EnableAbstractPolymorphic\lObject\&lt; ConcreteLinOp, Polymorphic\lBase \&gt;">
<polygon fill="white" stroke="black" points="518.5,-147 518.5,-188 712.5,-188 712.5,-147 518.5,-147"/>
<text text-anchor="start" x="526.5" y="-176" font-family="Helvetica,sans-Serif" font-size="10.00">gko::EnableAbstractPolymorphic</text>
<text text-anchor="start" x="526.5" y="-165" font-family="Helvetica,sans-Serif" font-size="10.00">Object&lt; ConcreteLinOp, Polymorphic</text>
<text text-anchor="middle" x="615.5" y="-154" font-family="Helvetica,sans-Serif" font-size="10.00">Base &gt;</text>
</a>
</g>
</g>
<!-- Node3&#45;&gt;Node2 -->
<g id="edge2" class="edge"><title>Node3&#45;&gt;Node2</title>
<path fill="none" stroke="midnightblue" d="M722.964,-168.106C843.394,-167.502 1045.13,-162.589 1217,-139.5 1236.13,-136.931 1256.75,-132.77 1275.24,-128.523"/>
<polygon fill="midnightblue" stroke="midnightblue" points="722.63,-164.607 712.644,-168.148 722.658,-171.607 722.63,-164.607"/>
</g>
<!-- Node4 -->
<g id="node4" class="node"><title>Node4</title>
<polygon fill="white" stroke="#bfbfbf" points="0,-130 0,-149 99,-149 99,-130 0,-130"/>
<text text-anchor="middle" x="49.5" y="-137" font-family="Helvetica,sans-Serif" font-size="10.00">PolymorphicBase</text>
</g>
<!-- Node4&#45;&gt;Node3 -->
<g id="edge3" class="edge"><title>Node4&#45;&gt;Node3</title>
<path fill="none" stroke="midnightblue" d="M81.8951,-152.811C97.8141,-158.966 117.623,-165.733 136,-169.5 294.165,-201.919 337.929,-194.603 499,-183.5 505.362,-183.061 511.906,-182.489 518.493,-181.821"/>
<polygon fill="midnightblue" stroke="midnightblue" points="83.1192,-149.531 72.5335,-149.09 80.5336,-156.036 83.1192,-149.531"/>
</g>
<!-- Node5 -->
<g id="node5" class="node"><title>Node5</title>
<g id="a_node5"><a xlink:href="classgko_1_1EnableAbstractPolymorphicObject.html" target="_top" xlink:title="This mixin inherits from (a subclass of) PolymorphicObject and provides a base implementation of a ne...">
<polygon fill="white" stroke="black" points="136,-119 136,-160 327,-160 327,-119 136,-119"/>
<text text-anchor="start" x="144" y="-148" font-family="Helvetica,sans-Serif" font-size="10.00">gko::EnableAbstractPolymorphic</text>
<text text-anchor="start" x="144" y="-137" font-family="Helvetica,sans-Serif" font-size="10.00">Object&lt; AbstactObject, Polymorphic</text>
<text text-anchor="middle" x="231.5" y="-126" font-family="Helvetica,sans-Serif" font-size="10.00">Base &gt;</text>
</a>
</g>
</g>
<!-- Node4&#45;&gt;Node5 -->
<g id="edge5" class="edge"><title>Node4&#45;&gt;Node5</title>
<path fill="none" stroke="midnightblue" d="M109.403,-139.5C117.953,-139.5 126.93,-139.5 135.968,-139.5"/>
<polygon fill="midnightblue" stroke="midnightblue" points="109.211,-136 99.2106,-139.5 109.211,-143 109.211,-136"/>
</g>
<!-- Node7 -->
<g id="node7" class="node"><title>Node7</title>
<g id="a_node7"><a xlink:href="classgko_1_1EnableAbstractPolymorphicObject.html" target="_top" xlink:title="gko::EnableAbstractPolymorphic\lObject\&lt; ConcreteObject, Polymorphic\lBase \&gt;">
<polygon fill="white" stroke="black" points="517,-87 517,-128 714,-128 714,-87 517,-87"/>
<text text-anchor="start" x="525" y="-116" font-family="Helvetica,sans-Serif" font-size="10.00">gko::EnableAbstractPolymorphic</text>
<text text-anchor="start" x="525" y="-105" font-family="Helvetica,sans-Serif" font-size="10.00">Object&lt; ConcreteObject, Polymorphic</text>
<text text-anchor="middle" x="615.5" y="-94" font-family="Helvetica,sans-Serif" font-size="10.00">Base &gt;</text>
</a>
</g>
</g>
<!-- Node4&#45;&gt;Node7 -->
<g id="edge8" class="edge"><title>Node4&#45;&gt;Node7</title>
<path fill="none" stroke="midnightblue" d="M80.8142,-126.091C96.8724,-119.704 117.13,-112.761 136,-109.5 266.363,-86.972 419.702,-91.6981 516.985,-98.488"/>
<polygon fill="midnightblue" stroke="midnightblue" points="79.3267,-122.918 71.4083,-129.957 81.9881,-129.392 79.3267,-122.918"/>
</g>
<!-- Node5&#45;&gt;Node3 -->
<g id="edge4" class="edge"><title>Node5&#45;&gt;Node3</title>
<path fill="none" stroke="orange" stroke-dasharray="5,2" d="M337.461,-147.193C394.012,-151.339 463.284,-156.416 518.412,-160.457"/>
<polygon fill="orange" stroke="orange" points="337.647,-143.698 327.418,-146.457 337.135,-150.679 337.647,-143.698"/>
<text text-anchor="start" x="347" y="-172.5" font-family="Helvetica,sans-Serif" font-size="10.00"> &lt; ConcreteLinOp, Polymorphic</text>
<text text-anchor="middle" x="422" y="-161.5" font-family="Helvetica,sans-Serif" font-size="10.00">Base &gt;</text>
</g>
<!-- Node5&#45;&gt;Node7 -->
<g id="edge9" class="edge"><title>Node5&#45;&gt;Node7</title>
<path fill="none" stroke="orange" stroke-dasharray="5,2" d="M337.311,-123.333C339.898,-123.04 342.464,-122.762 345,-122.5 401.752,-116.646 465.479,-112.967 516.71,-110.719"/>
<polygon fill="orange" stroke="orange" points="336.767,-119.873 327.25,-124.529 337.594,-126.824 336.767,-119.873"/>
<text text-anchor="start" x="345" y="-136.5" font-family="Helvetica,sans-Serif" font-size="10.00"> &lt; ConcreteObject, Polymorphic</text>
<text text-anchor="middle" x="422" y="-125.5" font-family="Helvetica,sans-Serif" font-size="10.00">Base &gt;</text>
</g>
<!-- Node6 -->
<g id="node6" class="node"><title>Node6</title>
<g id="a_node6"><a xlink:href="classgko_1_1EnablePolymorphicObject.html" target="_top" xlink:title="This mixin inherits from (a subclass of) PolymorphicObject and provides a base implementation of a ne...">
<polygon fill="white" stroke="black" points="847,-98.5 847,-128.5 1049,-128.5 1049,-98.5 847,-98.5"/>
<text text-anchor="start" x="855" y="-116.5" font-family="Helvetica,sans-Serif" font-size="10.00">gko::EnablePolymorphicObject</text>
<text text-anchor="middle" x="948" y="-105.5" font-family="Helvetica,sans-Serif" font-size="10.00">&lt; ConcreteObject, PolymorphicBase &gt;</text>
</a>
</g>
</g>
<!-- Node6&#45;&gt;Node2 -->
<g id="edge6" class="edge"><title>Node6&#45;&gt;Node2</title>
<path fill="none" stroke="orange" stroke-dasharray="5,2" d="M1059.34,-113.5C1114.69,-113.5 1181.16,-113.5 1234.73,-113.5"/>
<polygon fill="orange" stroke="orange" points="1059.14,-110 1049.14,-113.5 1059.14,-117 1059.14,-110"/>
<text text-anchor="start" x="1067" y="-127.5" font-family="Helvetica,sans-Serif" font-size="10.00"> &lt; ConcreteLinOp, Polymorphic</text>
<text text-anchor="middle" x="1142" y="-116.5" font-family="Helvetica,sans-Serif" font-size="10.00">Base &gt;</text>
</g>
<!-- Node7&#45;&gt;Node6 -->
<g id="edge7" class="edge"><title>Node7&#45;&gt;Node6</title>
<path fill="none" stroke="midnightblue" d="M724.483,-109.46C763.86,-110.175 808.188,-110.98 846.855,-111.682"/>
<polygon fill="midnightblue" stroke="midnightblue" points="724.381,-105.958 714.319,-109.276 724.254,-112.957 724.381,-105.958"/>
</g>
<!-- Node8 -->
<g id="node8" class="node"><title>Node8</title>
<g id="a_node8"><a xlink:href="classgko_1_1EnablePolymorphicAssignment.html" target="_top" xlink:title="gko::EnablePolymorphicAssignment\l\&lt; ConcreteLinOp \&gt;">
<polygon fill="white" stroke="black" points="1240,-49.5 1240,-79.5 1428,-79.5 1428,-49.5 1240,-49.5"/>
<text text-anchor="start" x="1248" y="-67.5" font-family="Helvetica,sans-Serif" font-size="10.00">gko::EnablePolymorphicAssignment</text>
<text text-anchor="middle" x="1334" y="-56.5" font-family="Helvetica,sans-Serif" font-size="10.00">&lt; ConcreteLinOp &gt;</text>
</a>
</g>
</g>
<!-- Node8&#45;&gt;Node1 -->
<g id="edge10" class="edge"><title>Node8&#45;&gt;Node1</title>
<path fill="none" stroke="midnightblue" d="M1438.31,-77.7192C1448.91,-79.0761 1459.54,-80.4368 1469.78,-81.7464"/>
<polygon fill="midnightblue" stroke="midnightblue" points="1438.53,-74.2189 1428.16,-76.4212 1437.64,-81.1622 1438.53,-74.2189"/>
</g>
<!-- Node9 -->
<g id="node9" class="node"><title>Node9</title>
<g id="a_node9"><a xlink:href="classgko_1_1ConvertibleTo.html" target="_top" xlink:title="gko::ConvertibleTo\l\&lt; ConcreteLinOp \&gt;">
<polygon fill="white" stroke="black" points="893,-49.5 893,-79.5 1003,-79.5 1003,-49.5 893,-49.5"/>
<text text-anchor="start" x="901" y="-67.5" font-family="Helvetica,sans-Serif" font-size="10.00">gko::ConvertibleTo</text>
<text text-anchor="middle" x="948" y="-56.5" font-family="Helvetica,sans-Serif" font-size="10.00">&lt; ConcreteLinOp &gt;</text>
</a>
</g>
</g>
<!-- Node9&#45;&gt;Node8 -->
<g id="edge11" class="edge"><title>Node9&#45;&gt;Node8</title>
<path fill="none" stroke="midnightblue" d="M1013.24,-64.5C1075.2,-64.5 1169.65,-64.5 1239.86,-64.5"/>
<polygon fill="midnightblue" stroke="midnightblue" points="1013.2,-61.0001 1003.2,-64.5 1013.2,-68.0001 1013.2,-61.0001"/>
</g>
<!-- Node10 -->
<g id="node10" class="node"><title>Node10</title>
<g id="a_node10"><a xlink:href="classgko_1_1ConvertibleTo.html" target="_top" xlink:title="ConvertibleTo interface is used to mark that the implementer can be converted to the object of Result...">
<polygon fill="white" stroke="black" points="563.5,-22.5 563.5,-52.5 667.5,-52.5 667.5,-22.5 563.5,-22.5"/>
<text text-anchor="start" x="571.5" y="-40.5" font-family="Helvetica,sans-Serif" font-size="10.00">gko::ConvertibleTo</text>
<text text-anchor="middle" x="615.5" y="-29.5" font-family="Helvetica,sans-Serif" font-size="10.00">&lt; ResultType &gt;</text>
</a>
</g>
</g>
<!-- Node10&#45;&gt;Node9 -->
<g id="edge12" class="edge"><title>Node10&#45;&gt;Node9</title>
<path fill="none" stroke="orange" stroke-dasharray="5,2" d="M677.771,-42.5055C739.49,-47.5476 833.802,-55.2524 892.853,-60.0765"/>
<polygon fill="orange" stroke="orange" points="678.03,-39.0151 667.778,-41.6891 677.46,-45.9918 678.03,-39.0151"/>
<text text-anchor="middle" x="780.5" y="-57.5" font-family="Helvetica,sans-Serif" font-size="10.00"> &lt; ConcreteLinOp &gt;</text>
</g>
<!-- Node11 -->
<g id="node11" class="node"><title>Node11</title>
<g id="a_node11"><a xlink:href="classgko_1_1EnablePolymorphicAssignment.html" target="_top" xlink:title="This mixin is used to enable a default PolymorphicObject::copy_from() implementation for objects that...">
<polygon fill="white" stroke="black" points="854,-0.5 854,-30.5 1042,-30.5 1042,-0.5 854,-0.5"/>
<text text-anchor="start" x="862" y="-18.5" font-family="Helvetica,sans-Serif" font-size="10.00">gko::EnablePolymorphicAssignment</text>
<text text-anchor="middle" x="948" y="-7.5" font-family="Helvetica,sans-Serif" font-size="10.00">&lt; ConcreteType, ResultType &gt;</text>
</a>
</g>
</g>
<!-- Node10&#45;&gt;Node11 -->
<g id="edge14" class="edge"><title>Node10&#45;&gt;Node11</title>
<path fill="none" stroke="midnightblue" d="M677.998,-33.4064C727.428,-30.116 797.657,-25.4411 853.963,-21.6931"/>
<polygon fill="midnightblue" stroke="midnightblue" points="677.523,-29.9301 667.778,-34.0866 677.988,-36.9146 677.523,-29.9301"/>
</g>
<!-- Node11&#45;&gt;Node8 -->
<g id="edge13" class="edge"><title>Node11&#45;&gt;Node8</title>
<path fill="none" stroke="orange" stroke-dasharray="5,2" d="M1052.16,-28.5291C1101.97,-34.8348 1162.6,-42.5317 1217,-49.5 1224.45,-50.4546 1232.17,-51.4466 1239.93,-52.4452"/>
<polygon fill="orange" stroke="orange" points="1052.39,-25.0298 1042.03,-27.2463 1051.51,-31.9744 1052.39,-25.0298"/>
<text text-anchor="middle" x="1142" y="-52.5" font-family="Helvetica,sans-Serif" font-size="10.00"> &lt; ConcreteLinOp &gt;</text>
</g>
</g>
</svg>
