<?xml version="1.0" encoding="UTF-8" standalone="no"?>
<!DOCTYPE svg PUBLIC "-//W3C//DTD SVG 1.1//EN"
 "http://www.w3.org/Graphics/SVG/1.1/DTD/svg11.dtd">
<!-- Generated by graphviz version 2.38.0 (20140413.2041)
 -->
<!-- Title: gko::CudaError Pages: 1 -->
<svg width="96pt" height="140pt"
 viewBox="0.00 0.00 96.00 140.00" xmlns="http://www.w3.org/2000/svg" xmlns:xlink="http://www.w3.org/1999/xlink">
<g id="graph0" class="graph" transform="scale(1 1) rotate(0) translate(4 136)">
<title>gko::CudaError</title>
<polygon fill="white" stroke="none" points="-4,4 -4,-136 92,-136 92,4 -4,4"/>
<!-- Node1 -->
<g id="node1" class="node"><title>Node1</title>
<polygon fill="#bfbfbf" stroke="black" points="-7.10543e-15,-0.5 -7.10543e-15,-19.5 88,-19.5 88,-0.5 -7.10543e-15,-0.5"/>
<text text-anchor="middle" x="44" y="-7.5" font-family="Helvetica,sans-Serif" font-size="10.00">gko::CudaError</text>
</g>
<!-- Node2 -->
<g id="node2" class="node"><title>Node2</title>
<g id="a_node2"><a xlink:href="classgko_1_1Error.html" target="_top" xlink:title="The Error class is used to report exceptional behaviour in library functions. ">
<polygon fill="white" stroke="black" points="12.5,-56.5 12.5,-75.5 75.5,-75.5 75.5,-56.5 12.5,-56.5"/>
<text text-anchor="middle" x="44" y="-63.5" font-family="Helvetica,sans-Serif" font-size="10.00">gko::Error</text>
</a>
</g>
</g>
<!-- Node2&#45;&gt;Node1 -->
<g id="edge1" class="edge"><title>Node2&#45;&gt;Node1</title>
<path fill="none" stroke="midnightblue" d="M44,-45.8045C44,-36.9102 44,-26.7798 44,-19.7511"/>
<polygon fill="midnightblue" stroke="midnightblue" points="40.5001,-46.083 44,-56.083 47.5001,-46.083 40.5001,-46.083"/>
</g>
<!-- Node3 -->
<g id="node3" class="node"><title>Node3</title>
<g id="a_node3"><a xlink:title="STL class. ">
<polygon fill="white" stroke="#bfbfbf" points="2,-112.5 2,-131.5 86,-131.5 86,-112.5 2,-112.5"/>
<text text-anchor="middle" x="44" y="-119.5" font-family="Helvetica,sans-Serif" font-size="10.00">std::exception</text>
</a>
</g>
</g>
<!-- Node3&#45;&gt;Node2 -->
<g id="edge2" class="edge"><title>Node3&#45;&gt;Node2</title>
<path fill="none" stroke="midnightblue" d="M44,-101.805C44,-92.9102 44,-82.7798 44,-75.7511"/>
<polygon fill="midnightblue" stroke="midnightblue" points="40.5001,-102.083 44,-112.083 47.5001,-102.083 40.5001,-102.083"/>
</g>
</g>
</svg>
