<?xml version="1.0" encoding="UTF-8" standalone="no"?>
<!DOCTYPE svg PUBLIC "-//W3C//DTD SVG 1.1//EN"
 "http://www.w3.org/Graphics/SVG/1.1/DTD/svg11.dtd">
<!-- Generated by graphviz version 2.38.0 (20140413.2041)
 -->
<!-- Title: gko::matrix::Sellp&lt; ValueType, IndexType &gt; Pages: 1 -->
<!--zoomable 394 -->
<svg id="main" version="1.1" xmlns="http://www.w3.org/2000/svg" xmlns:xlink="http://www.w3.org/1999/xlink" xml:space="preserve" onload="init(evt)">
<style type="text/css"><![CDATA[
.edge:hover path { stroke: red; }
.edge:hover polygon { stroke: red; fill: red; }
]]></style>
<script type="text/javascript"><![CDATA[
var edges = document.getElementsByTagName('g');
if (edges && edges.length) {
  for (var i=0;i<edges.length;i++) {
    if (edges[i].id.substr(0,4)=='edge') {
      edges[i].setAttribute('class','edge');
    }
  }
}
]]></script>
        <defs>
                <circle id="rim" cx="0" cy="0" r="7"/>
                <circle id="rim2" cx="0" cy="0" r="3.5"/>
                <g id="zoomPlus">
                        <use xlink:href="#rim" fill="#404040">
                                <set attributeName="fill" to="#808080" begin="zoomplus.mouseover" end="zoomplus.mouseout"/>
                        </use>
                        <path d="M-4,0h8M0,-4v8" fill="none" stroke="white" stroke-width="1.5" pointer-events="none"/>
                </g>
                <g id="zoomMin">
                        <use xlink:href="#rim" fill="#404040">
                                <set attributeName="fill" to="#808080" begin="zoomminus.mouseover" end="zoomminus.mouseout"/>
                        </use>
                        <path d="M-4,0h8" fill="none" stroke="white" stroke-width="1.5" pointer-events="none"/>
                </g>
                <g id="dirArrow">
                        <path fill="none" stroke="white" stroke-width="1.5" d="M0,-3.0v7 M-2.5,-0.5L0,-3.0L2.5,-0.5"/>
                </g>
               <g id="resetDef">
                       <use xlink:href="#rim2" fill="#404040">
                               <set attributeName="fill" to="#808080" begin="reset.mouseover" end="reset.mouseout"/>
                       </use>
               </g>
        </defs>

<script type="text/javascript">
var viewWidth = 2167;
var viewHeight = 394;
var sectionId = 'dynsection-0';
</script>
<script xlink:href="svgpan.js"/>
<svg id="graph" class="graph">
<g id="viewport">
<title>gko::matrix::Sellp&lt; ValueType, IndexType &gt;</title>
<polygon fill="white" stroke="none" points="-4,4 -4,-390 2163,-390 2163,4 -4,4"/>
<!-- Node1 -->
<g id="node1" class="node"><title>Node1</title>
<polygon fill="#bfbfbf" stroke="black" points="2020,-149.5 2020,-179.5 2159,-179.5 2159,-149.5 2020,-149.5"/>
<text text-anchor="start" x="2028" y="-167.5" font-family="Helvetica,sans-Serif" font-size="10.00">gko::matrix::Sellp</text>
<text text-anchor="middle" x="2089.5" y="-156.5" font-family="Helvetica,sans-Serif" font-size="10.00">&lt; ValueType, IndexType &gt;</text>
</g>
<!-- Node2 -->
<g id="node2" class="node"><title>Node2</title>
<g id="a_node2"><a xlink:href="classgko_1_1EnableLinOp.html" target="_top" xlink:title="gko::EnableLinOp\&lt; Sellp\l\&lt; ValueType, IndexType \&gt; \&gt;">
<polygon fill="white" stroke="black" points="1815.5,-198.5 1815.5,-228.5 1965.5,-228.5 1965.5,-198.5 1815.5,-198.5"/>
<text text-anchor="start" x="1823.5" y="-216.5" font-family="Helvetica,sans-Serif" font-size="10.00">gko::EnableLinOp&lt; Sellp</text>
<text text-anchor="middle" x="1890.5" y="-205.5" font-family="Helvetica,sans-Serif" font-size="10.00">&lt; ValueType, IndexType &gt; &gt;</text>
</a>
</g>
</g>
<!-- Node2&#45;&gt;Node1 -->
<g id="edge1" class="edge"><title>Node2&#45;&gt;Node1</title>
<path fill="none" stroke="midnightblue" d="M1961.76,-196.023C1983.48,-190.623 2007.19,-184.724 2028.17,-179.506"/>
<polygon fill="midnightblue" stroke="midnightblue" points="1960.8,-192.655 1951.95,-198.465 1962.49,-199.448 1960.8,-192.655"/>
</g>
<!-- Node3 -->
<g id="node3" class="node"><title>Node3</title>
<g id="a_node3"><a xlink:href="classgko_1_1EnablePolymorphicObject.html" target="_top" xlink:title="gko::EnablePolymorphicObject\l\&lt; Sellp\&lt; ValueType, IndexType\l \&gt;, LinOp \&gt;">
<polygon fill="white" stroke="black" points="1500,-109 1500,-150 1662,-150 1662,-109 1500,-109"/>
<text text-anchor="start" x="1508" y="-138" font-family="Helvetica,sans-Serif" font-size="10.00">gko::EnablePolymorphicObject</text>
<text text-anchor="start" x="1508" y="-127" font-family="Helvetica,sans-Serif" font-size="10.00">&lt; Sellp&lt; ValueType, IndexType</text>
<text text-anchor="middle" x="1581" y="-116" font-family="Helvetica,sans-Serif" font-size="10.00"> &gt;, LinOp &gt;</text>
</a>
</g>
</g>
<!-- Node3&#45;&gt;Node2 -->
<g id="edge2" class="edge"><title>Node3&#45;&gt;Node2</title>
<path fill="none" stroke="midnightblue" d="M1667.03,-152.727C1720.45,-167.321 1787.81,-185.722 1834.34,-198.432"/>
<polygon fill="midnightblue" stroke="midnightblue" points="1667.79,-149.308 1657.22,-150.049 1665.95,-156.06 1667.79,-149.308"/>
</g>
<!-- Node4 -->
<g id="node4" class="node"><title>Node4</title>
<g id="a_node4"><a xlink:href="classgko_1_1EnableAbstractPolymorphicObject.html" target="_top" xlink:title="gko::EnableAbstractPolymorphic\lObject\&lt; Sellp\&lt; ValueType,\l IndexType \&gt;, LinOp \&gt;">
<polygon fill="white" stroke="black" points="1278.5,-34 1278.5,-75 1449.5,-75 1449.5,-34 1278.5,-34"/>
<text text-anchor="start" x="1286.5" y="-63" font-family="Helvetica,sans-Serif" font-size="10.00">gko::EnableAbstractPolymorphic</text>
<text text-anchor="start" x="1286.5" y="-52" font-family="Helvetica,sans-Serif" font-size="10.00">Object&lt; Sellp&lt; ValueType,</text>
<text text-anchor="middle" x="1364" y="-41" font-family="Helvetica,sans-Serif" font-size="10.00"> IndexType &gt;, LinOp &gt;</text>
</a>
</g>
</g>
<!-- Node4&#45;&gt;Node3 -->
<g id="edge3" class="edge"><title>Node4&#45;&gt;Node3</title>
<path fill="none" stroke="midnightblue" d="M1433.79,-78.4974C1461.9,-88.3039 1494.09,-99.5322 1521.1,-108.953"/>
<polygon fill="midnightblue" stroke="midnightblue" points="1434.63,-75.0824 1424.03,-75.0933 1432.32,-81.6918 1434.63,-75.0824"/>
</g>
<!-- Node5 -->
<g id="node5" class="node"><title>Node5</title>
<g id="a_node5"><a xlink:href="classgko_1_1LinOp.html" target="_top" xlink:title="The linear operator (LinOp) is a base class for all linear algebra objects in Ginkgo. ">
<polygon fill="white" stroke="black" points="944.5,-10 944.5,-29 1011.5,-29 1011.5,-10 944.5,-10"/>
<text text-anchor="middle" x="978" y="-17" font-family="Helvetica,sans-Serif" font-size="10.00">gko::LinOp</text>
</a>
</g>
</g>
<!-- Node5&#45;&gt;Node4 -->
<g id="edge4" class="edge"><title>Node5&#45;&gt;Node4</title>
<path fill="none" stroke="midnightblue" d="M1021.91,-23.4109C1083.69,-29.0423 1198.99,-39.5511 1278.3,-46.7802"/>
<polygon fill="midnightblue" stroke="midnightblue" points="1022.02,-19.9063 1011.74,-22.4841 1021.38,-26.8774 1022.02,-19.9063"/>
</g>
<!-- Node6 -->
<g id="node6" class="node"><title>Node6</title>
<g id="a_node6"><a xlink:href="classgko_1_1EnableAbstractPolymorphicObject.html" target="_top" xlink:title="gko::EnableAbstractPolymorphic\lObject\&lt; LinOp \&gt;">
<polygon fill="white" stroke="red" points="530,-0.5 530,-30.5 701,-30.5 701,-0.5 530,-0.5"/>
<text text-anchor="start" x="538" y="-18.5" font-family="Helvetica,sans-Serif" font-size="10.00">gko::EnableAbstractPolymorphic</text>
<text text-anchor="middle" x="615.5" y="-7.5" font-family="Helvetica,sans-Serif" font-size="10.00">Object&lt; LinOp &gt;</text>
</a>
</g>
</g>
<!-- Node6&#45;&gt;Node5 -->
<g id="edge5" class="edge"><title>Node6&#45;&gt;Node5</title>
<path fill="none" stroke="midnightblue" d="M711.205,-16.5508C788.081,-17.4038 891.985,-18.5567 944.186,-19.1359"/>
<polygon fill="midnightblue" stroke="midnightblue" points="711.059,-13.0491 701.021,-16.4378 710.982,-20.0487 711.059,-13.0491"/>
</g>
<!-- Node7 -->
<g id="node7" class="node"><title>Node7</title>
<g id="a_node7"><a xlink:href="classgko_1_1EnableAbstractPolymorphicObject.html" target="_top" xlink:title="This mixin inherits from (a subclass of) PolymorphicObject and provides a base implementation of a ne...">
<polygon fill="white" stroke="black" points="136,-60 136,-101 327,-101 327,-60 136,-60"/>
<text text-anchor="start" x="144" y="-89" font-family="Helvetica,sans-Serif" font-size="10.00">gko::EnableAbstractPolymorphic</text>
<text text-anchor="start" x="144" y="-78" font-family="Helvetica,sans-Serif" font-size="10.00">Object&lt; AbstactObject, Polymorphic</text>
<text text-anchor="middle" x="231.5" y="-67" font-family="Helvetica,sans-Serif" font-size="10.00">Base &gt;</text>
</a>
</g>
</g>
<!-- Node7&#45;&gt;Node4 -->
<g id="edge8" class="edge"><title>Node7&#45;&gt;Node4</title>
<path fill="none" stroke="orange" stroke-dasharray="5,2" d="M337.473,-78.0858C559.917,-72.9699 1074.95,-61.1248 1278.26,-56.4489"/>
<polygon fill="orange" stroke="orange" points="337.343,-74.5877 327.426,-78.3168 337.504,-81.5859 337.343,-74.5877"/>
<text text-anchor="start" x="742.5" y="-83.5" font-family="Helvetica,sans-Serif" font-size="10.00"> &lt; Sellp&lt; ValueType,</text>
<text text-anchor="middle" x="795.5" y="-72.5" font-family="Helvetica,sans-Serif" font-size="10.00"> IndexType &gt;, LinOp &gt;</text>
</g>
<!-- Node7&#45;&gt;Node6 -->
<g id="edge6" class="edge"><title>Node7&#45;&gt;Node6</title>
<path fill="none" stroke="orange" stroke-dasharray="5,2" d="M283.01,-55.8506C302.01,-47.6551 324.081,-39.3818 345,-34.5 405.75,-20.3228 476.119,-15.7482 529.714,-14.6252"/>
<polygon fill="orange" stroke="orange" points="281.395,-52.7376 273.663,-59.9812 284.225,-59.1403 281.395,-52.7376"/>
<text text-anchor="middle" x="422" y="-37.5" font-family="Helvetica,sans-Serif" font-size="10.00"> &lt; LinOp &gt;</text>
</g>
<!-- Node10 -->
<g id="node10" class="node"><title>Node10</title>
<g id="a_node10"><a xlink:href="classgko_1_1EnableAbstractPolymorphicObject.html" target="_top" xlink:title="gko::EnableAbstractPolymorphic\lObject\&lt; ConcreteObject, Polymorphic\lBase \&gt;">
<polygon fill="white" stroke="black" points="517,-97 517,-138 714,-138 714,-97 517,-97"/>
<text text-anchor="start" x="525" y="-126" font-family="Helvetica,sans-Serif" font-size="10.00">gko::EnableAbstractPolymorphic</text>
<text text-anchor="start" x="525" y="-115" font-family="Helvetica,sans-Serif" font-size="10.00">Object&lt; ConcreteObject, Polymorphic</text>
<text text-anchor="middle" x="615.5" y="-104" font-family="Helvetica,sans-Serif" font-size="10.00">Base &gt;</text>
</a>
</g>
</g>
<!-- Node7&#45;&gt;Node10 -->
<g id="edge12" class="edge"><title>Node7&#45;&gt;Node10</title>
<path fill="none" stroke="orange" stroke-dasharray="5,2" d="M337.197,-81.8331C386.455,-83.4243 445.909,-86.7312 499,-93.5 506.517,-94.4584 514.274,-95.641 522.044,-96.9632"/>
<polygon fill="orange" stroke="orange" points="337.269,-78.3337 327.167,-81.5281 337.056,-85.3305 337.269,-78.3337"/>
<text text-anchor="start" x="345" y="-107.5" font-family="Helvetica,sans-Serif" font-size="10.00"> &lt; ConcreteObject, Polymorphic</text>
<text text-anchor="middle" x="422" y="-96.5" font-family="Helvetica,sans-Serif" font-size="10.00">Base &gt;</text>
</g>
<!-- Node17 -->
<g id="node17" class="node"><title>Node17</title>
<g id="a_node17"><a xlink:href="classgko_1_1EnableAbstractPolymorphicObject.html" target="_top" xlink:title="gko::EnableAbstractPolymorphic\lObject\&lt; ConcreteLinOp, Polymorphic\lBase \&gt;">
<polygon fill="white" stroke="black" points="518.5,-161 518.5,-202 712.5,-202 712.5,-161 518.5,-161"/>
<text text-anchor="start" x="526.5" y="-190" font-family="Helvetica,sans-Serif" font-size="10.00">gko::EnableAbstractPolymorphic</text>
<text text-anchor="start" x="526.5" y="-179" font-family="Helvetica,sans-Serif" font-size="10.00">Object&lt; ConcreteLinOp, Polymorphic</text>
<text text-anchor="middle" x="615.5" y="-168" font-family="Helvetica,sans-Serif" font-size="10.00">Base &gt;</text>
</a>
</g>
</g>
<!-- Node7&#45;&gt;Node17 -->
<g id="edge22" class="edge"><title>Node7&#45;&gt;Node17</title>
<path fill="none" stroke="orange" stroke-dasharray="5,2" d="M297.404,-104.331C312.898,-109.649 329.452,-115.031 345,-119.5 401.985,-135.881 466.709,-150.886 518.444,-162.031"/>
<polygon fill="orange" stroke="orange" points="298.507,-101.01 287.913,-101.037 296.212,-107.623 298.507,-101.01"/>
<text text-anchor="start" x="347" y="-172.5" font-family="Helvetica,sans-Serif" font-size="10.00"> &lt; ConcreteLinOp, Polymorphic</text>
<text text-anchor="middle" x="422" y="-161.5" font-family="Helvetica,sans-Serif" font-size="10.00">Base &gt;</text>
</g>
<!-- Node8 -->
<g id="node8" class="node"><title>Node8</title>
<polygon fill="white" stroke="#bfbfbf" points="0,-120 0,-139 99,-139 99,-120 0,-120"/>
<text text-anchor="middle" x="49.5" y="-127" font-family="Helvetica,sans-Serif" font-size="10.00">PolymorphicBase</text>
</g>
<!-- Node8&#45;&gt;Node7 -->
<g id="edge7" class="edge"><title>Node8&#45;&gt;Node7</title>
<path fill="none" stroke="midnightblue" d="M95.5298,-117.242C113.493,-112.352 134.673,-106.586 154.864,-101.09"/>
<polygon fill="midnightblue" stroke="midnightblue" points="94.3626,-113.932 85.6331,-119.936 96.2013,-120.686 94.3626,-113.932"/>
</g>
<!-- Node8&#45;&gt;Node10 -->
<g id="edge11" class="edge"><title>Node8&#45;&gt;Node10</title>
<path fill="none" stroke="midnightblue" d="M109.242,-128.25C205.855,-126.195 399.276,-122.079 516.774,-119.579"/>
<polygon fill="midnightblue" stroke="midnightblue" points="108.998,-124.754 99.0745,-128.467 109.147,-131.753 108.998,-124.754"/>
</g>
<!-- Node8&#45;&gt;Node17 -->
<g id="edge21" class="edge"><title>Node8&#45;&gt;Node17</title>
<path fill="none" stroke="midnightblue" d="M108.841,-140.942C111.599,-141.472 114.329,-141.993 117,-142.5 218.23,-161.718 242.389,-175.128 345,-184.5 413.161,-190.726 430.561,-185.389 499,-184.5 505.318,-184.418 511.83,-184.311 518.392,-184.186"/>
<polygon fill="midnightblue" stroke="midnightblue" points="109.277,-137.462 98.7948,-139.005 107.951,-144.335 109.277,-137.462"/>
</g>
<!-- Node9 -->
<g id="node9" class="node"><title>Node9</title>
<g id="a_node9"><a xlink:href="classgko_1_1EnablePolymorphicObject.html" target="_top" xlink:title="This mixin inherits from (a subclass of) PolymorphicObject and provides a base implementation of a ne...">
<polygon fill="white" stroke="black" points="877,-102.5 877,-132.5 1079,-132.5 1079,-102.5 877,-102.5"/>
<text text-anchor="start" x="885" y="-120.5" font-family="Helvetica,sans-Serif" font-size="10.00">gko::EnablePolymorphicObject</text>
<text text-anchor="middle" x="978" y="-109.5" font-family="Helvetica,sans-Serif" font-size="10.00">&lt; ConcreteObject, PolymorphicBase &gt;</text>
</a>
</g>
</g>
<!-- Node9&#45;&gt;Node3 -->
<g id="edge9" class="edge"><title>Node9&#45;&gt;Node3</title>
<path fill="none" stroke="orange" stroke-dasharray="5,2" d="M1089.46,-119.706C1208.22,-122.077 1394.13,-125.789 1499.69,-127.896"/>
<polygon fill="orange" stroke="orange" points="1089.32,-116.202 1079.26,-119.502 1089.18,-123.201 1089.32,-116.202"/>
<text text-anchor="start" x="1311" y="-141.5" font-family="Helvetica,sans-Serif" font-size="10.00"> &lt; Sellp&lt; ValueType,</text>
<text text-anchor="middle" x="1364" y="-130.5" font-family="Helvetica,sans-Serif" font-size="10.00"> IndexType &gt;, LinOp &gt;</text>
</g>
<!-- Node16 -->
<g id="node16" class="node"><title>Node16</title>
<g id="a_node16"><a xlink:href="classgko_1_1EnablePolymorphicObject.html" target="_top" xlink:title="gko::EnablePolymorphicObject\l\&lt; ConcreteLinOp, PolymorphicBase \&gt;">
<polygon fill="white" stroke="black" points="1265,-166.5 1265,-196.5 1463,-196.5 1463,-166.5 1265,-166.5"/>
<text text-anchor="start" x="1273" y="-184.5" font-family="Helvetica,sans-Serif" font-size="10.00">gko::EnablePolymorphicObject</text>
<text text-anchor="middle" x="1364" y="-173.5" font-family="Helvetica,sans-Serif" font-size="10.00">&lt; ConcreteLinOp, PolymorphicBase &gt;</text>
</a>
</g>
</g>
<!-- Node9&#45;&gt;Node16 -->
<g id="edge23" class="edge"><title>Node9&#45;&gt;Node16</title>
<path fill="none" stroke="orange" stroke-dasharray="5,2" d="M1089.54,-124.131C1138.17,-128.309 1195.77,-134.981 1247,-145.5 1272.2,-150.674 1299.73,-159.093 1321.64,-166.488"/>
<polygon fill="orange" stroke="orange" points="1089.56,-120.621 1079.3,-123.277 1088.98,-127.596 1089.56,-120.621"/>
<text text-anchor="start" x="1097" y="-159.5" font-family="Helvetica,sans-Serif" font-size="10.00"> &lt; ConcreteLinOp, Polymorphic</text>
<text text-anchor="middle" x="1172" y="-148.5" font-family="Helvetica,sans-Serif" font-size="10.00">Base &gt;</text>
</g>
<!-- Node10&#45;&gt;Node9 -->
<g id="edge10" class="edge"><title>Node10&#45;&gt;Node9</title>
<path fill="none" stroke="midnightblue" d="M724.249,-117.5C772.64,-117.5 829.397,-117.5 876.854,-117.5"/>
<polygon fill="midnightblue" stroke="midnightblue" points="724.057,-114 714.056,-117.5 724.056,-121 724.057,-114"/>
</g>
<!-- Node11 -->
<g id="node11" class="node"><title>Node11</title>
<g id="a_node11"><a xlink:href="classgko_1_1EnablePolymorphicAssignment.html" target="_top" xlink:title="gko::EnablePolymorphicAssignment\l\&lt; Sellp\&lt; ValueType, IndexType \&gt; \&gt;">
<polygon fill="white" stroke="black" points="1270,-215.5 1270,-245.5 1458,-245.5 1458,-215.5 1270,-215.5"/>
<text text-anchor="start" x="1278" y="-233.5" font-family="Helvetica,sans-Serif" font-size="10.00">gko::EnablePolymorphicAssignment</text>
<text text-anchor="middle" x="1364" y="-222.5" font-family="Helvetica,sans-Serif" font-size="10.00">&lt; Sellp&lt; ValueType, IndexType &gt; &gt;</text>
</a>
</g>
</g>
<!-- Node11&#45;&gt;Node2 -->
<g id="edge13" class="edge"><title>Node11&#45;&gt;Node2</title>
<path fill="none" stroke="midnightblue" d="M1468.21,-227.155C1570.51,-223.839 1724.68,-218.842 1815.4,-215.902"/>
<polygon fill="midnightblue" stroke="midnightblue" points="1468.05,-223.658 1458.17,-227.48 1468.27,-230.654 1468.05,-223.658"/>
</g>
<!-- Node12 -->
<g id="node12" class="node"><title>Node12</title>
<g id="a_node12"><a xlink:href="classgko_1_1ConvertibleTo.html" target="_top" xlink:title="gko::ConvertibleTo\l\&lt; Sellp\&lt; ValueType,\l IndexType \&gt; \&gt;">
<polygon fill="white" stroke="black" points="921.5,-210 921.5,-251 1034.5,-251 1034.5,-210 921.5,-210"/>
<text text-anchor="start" x="929.5" y="-239" font-family="Helvetica,sans-Serif" font-size="10.00">gko::ConvertibleTo</text>
<text text-anchor="start" x="929.5" y="-228" font-family="Helvetica,sans-Serif" font-size="10.00">&lt; Sellp&lt; ValueType,</text>
<text text-anchor="middle" x="978" y="-217" font-family="Helvetica,sans-Serif" font-size="10.00"> IndexType &gt; &gt;</text>
</a>
</g>
</g>
<!-- Node12&#45;&gt;Node11 -->
<g id="edge14" class="edge"><title>Node12&#45;&gt;Node11</title>
<path fill="none" stroke="midnightblue" d="M1044.89,-230.5C1106.89,-230.5 1200.34,-230.5 1269.94,-230.5"/>
<polygon fill="midnightblue" stroke="midnightblue" points="1044.84,-227 1034.84,-230.5 1044.84,-234 1044.84,-227"/>
</g>
<!-- Node13 -->
<g id="node13" class="node"><title>Node13</title>
<g id="a_node13"><a xlink:href="classgko_1_1ConvertibleTo.html" target="_top" xlink:title="ConvertibleTo interface is used to mark that the implementer can be converted to the object of Result...">
<polygon fill="white" stroke="black" points="563.5,-297.5 563.5,-327.5 667.5,-327.5 667.5,-297.5 563.5,-297.5"/>
<text text-anchor="start" x="571.5" y="-315.5" font-family="Helvetica,sans-Serif" font-size="10.00">gko::ConvertibleTo</text>
<text text-anchor="middle" x="615.5" y="-304.5" font-family="Helvetica,sans-Serif" font-size="10.00">&lt; ResultType &gt;</text>
</a>
</g>
</g>
<!-- Node13&#45;&gt;Node12 -->
<g id="edge15" class="edge"><title>Node13&#45;&gt;Node12</title>
<path fill="none" stroke="orange" stroke-dasharray="5,2" d="M659.7,-293.565C681.1,-284.828 707.537,-274.98 732,-268.5 795.869,-251.583 871.23,-241.291 921.339,-235.761"/>
<polygon fill="orange" stroke="orange" points="658.144,-290.421 650.248,-297.485 660.826,-296.887 658.144,-290.421"/>
<text text-anchor="start" x="745.5" y="-282.5" font-family="Helvetica,sans-Serif" font-size="10.00"> &lt; Sellp&lt; ValueType,</text>
<text text-anchor="middle" x="795.5" y="-271.5" font-family="Helvetica,sans-Serif" font-size="10.00"> IndexType &gt; &gt;</text>
</g>
<!-- Node14 -->
<g id="node14" class="node"><title>Node14</title>
<g id="a_node14"><a xlink:href="classgko_1_1EnablePolymorphicAssignment.html" target="_top" xlink:title="This mixin is used to enable a default PolymorphicObject::copy_from() implementation for objects that...">
<polygon fill="white" stroke="black" points="884,-269.5 884,-299.5 1072,-299.5 1072,-269.5 884,-269.5"/>
<text text-anchor="start" x="892" y="-287.5" font-family="Helvetica,sans-Serif" font-size="10.00">gko::EnablePolymorphicAssignment</text>
<text text-anchor="middle" x="978" y="-276.5" font-family="Helvetica,sans-Serif" font-size="10.00">&lt; ConcreteType, ResultType &gt;</text>
</a>
</g>
</g>
<!-- Node13&#45;&gt;Node14 -->
<g id="edge17" class="edge"><title>Node13&#45;&gt;Node14</title>
<path fill="none" stroke="midnightblue" d="M677.975,-307.725C734.445,-303.339 818.945,-296.776 883.729,-291.744"/>
<polygon fill="midnightblue" stroke="midnightblue" points="677.467,-304.254 667.768,-308.518 678.009,-311.233 677.467,-304.254"/>
</g>
<!-- Node19 -->
<g id="node19" class="node"><title>Node19</title>
<g id="a_node19"><a xlink:href="classgko_1_1ConvertibleTo.html" target="_top" xlink:title="gko::ConvertibleTo\l\&lt; ConcreteLinOp \&gt;">
<polygon fill="white" stroke="black" points="923,-318.5 923,-348.5 1033,-348.5 1033,-318.5 923,-318.5"/>
<text text-anchor="start" x="931" y="-336.5" font-family="Helvetica,sans-Serif" font-size="10.00">gko::ConvertibleTo</text>
<text text-anchor="middle" x="978" y="-325.5" font-family="Helvetica,sans-Serif" font-size="10.00">&lt; ConcreteLinOp &gt;</text>
</a>
</g>
</g>
<!-- Node13&#45;&gt;Node19 -->
<g id="edge26" class="edge"><title>Node13&#45;&gt;Node19</title>
<path fill="none" stroke="orange" stroke-dasharray="5,2" d="M678.03,-316.084C746.874,-320.095 857.332,-326.529 922.966,-330.352"/>
<polygon fill="orange" stroke="orange" points="677.955,-312.574 667.768,-315.486 677.548,-319.562 677.955,-312.574"/>
<text text-anchor="middle" x="795.5" y="-329.5" font-family="Helvetica,sans-Serif" font-size="10.00"> &lt; ConcreteLinOp &gt;</text>
</g>
<!-- Node22 -->
<g id="node22" class="node"><title>Node22</title>
<g id="a_node22"><a xlink:href="classgko_1_1ConvertibleTo.html" target="_top" xlink:title="gko::ConvertibleTo\l\&lt; Dense\&lt; ValueType \&gt; \&gt;">
<polygon fill="white" stroke="black" points="1102,-355.5 1102,-385.5 1242,-385.5 1242,-355.5 1102,-355.5"/>
<text text-anchor="start" x="1110" y="-373.5" font-family="Helvetica,sans-Serif" font-size="10.00">gko::ConvertibleTo</text>
<text text-anchor="middle" x="1172" y="-362.5" font-family="Helvetica,sans-Serif" font-size="10.00">&lt; Dense&lt; ValueType &gt; &gt;</text>
</a>
</g>
</g>
<!-- Node13&#45;&gt;Node22 -->
<g id="edge31" class="edge"><title>Node13&#45;&gt;Node22</title>
<path fill="none" stroke="orange" stroke-dasharray="5,2" d="M677.69,-329.512C695.132,-333.911 714.225,-338.303 732,-341.5 861.301,-364.755 1015.03,-369.852 1101.99,-370.693"/>
<polygon fill="orange" stroke="orange" points="678.19,-326.027 667.634,-326.93 676.449,-332.807 678.19,-326.027"/>
<text text-anchor="middle" x="795.5" y="-361.5" font-family="Helvetica,sans-Serif" font-size="10.00"> &lt; Dense&lt; ValueType &gt; &gt;</text>
</g>
<!-- Node14&#45;&gt;Node11 -->
<g id="edge16" class="edge"><title>Node14&#45;&gt;Node11</title>
<path fill="none" stroke="orange" stroke-dasharray="5,2" d="M1082.3,-268.64C1087.27,-267.909 1092.19,-267.192 1097,-266.5 1154.31,-258.251 1218.65,-249.529 1269.7,-242.736"/>
<polygon fill="orange" stroke="orange" points="1081.43,-265.23 1072.05,-270.155 1082.46,-272.154 1081.43,-265.23"/>
<text text-anchor="start" x="1122" y="-280.5" font-family="Helvetica,sans-Serif" font-size="10.00"> &lt; Sellp&lt; ValueType,</text>
<text text-anchor="middle" x="1172" y="-269.5" font-family="Helvetica,sans-Serif" font-size="10.00"> IndexType &gt; &gt;</text>
</g>
<!-- Node18 -->
<g id="node18" class="node"><title>Node18</title>
<g id="a_node18"><a xlink:href="classgko_1_1EnablePolymorphicAssignment.html" target="_top" xlink:title="gko::EnablePolymorphicAssignment\l\&lt; ConcreteLinOp \&gt;">
<polygon fill="white" stroke="black" points="1270,-292.5 1270,-322.5 1458,-322.5 1458,-292.5 1270,-292.5"/>
<text text-anchor="start" x="1278" y="-310.5" font-family="Helvetica,sans-Serif" font-size="10.00">gko::EnablePolymorphicAssignment</text>
<text text-anchor="middle" x="1364" y="-299.5" font-family="Helvetica,sans-Serif" font-size="10.00">&lt; ConcreteLinOp &gt;</text>
</a>
</g>
</g>
<!-- Node14&#45;&gt;Node18 -->
<g id="edge27" class="edge"><title>Node14&#45;&gt;Node18</title>
<path fill="none" stroke="orange" stroke-dasharray="5,2" d="M1082.43,-290.695C1140.81,-294.192 1213.18,-298.527 1269.8,-301.918"/>
<polygon fill="orange" stroke="orange" points="1082.64,-287.201 1072.45,-290.097 1082.22,-294.189 1082.64,-287.201"/>
<text text-anchor="middle" x="1172" y="-303.5" font-family="Helvetica,sans-Serif" font-size="10.00"> &lt; ConcreteLinOp &gt;</text>
</g>
<!-- Node15 -->
<g id="node15" class="node"><title>Node15</title>
<g id="a_node15"><a xlink:href="classgko_1_1EnableLinOp.html" target="_top" xlink:title="The EnableLinOp mixin can be used to provide sensible default implementations of the majority of the ...">
<polygon fill="white" stroke="black" points="1504,-242.5 1504,-272.5 1658,-272.5 1658,-242.5 1504,-242.5"/>
<text text-anchor="start" x="1512" y="-260.5" font-family="Helvetica,sans-Serif" font-size="10.00">gko::EnableLinOp&lt; Concrete</text>
<text text-anchor="middle" x="1581" y="-249.5" font-family="Helvetica,sans-Serif" font-size="10.00">LinOp, PolymorphicBase &gt;</text>
</a>
</g>
</g>
<!-- Node15&#45;&gt;Node2 -->
<g id="edge18" class="edge"><title>Node15&#45;&gt;Node2</title>
<path fill="none" stroke="orange" stroke-dasharray="5,2" d="M1668.04,-245.188C1714.41,-238.554 1771.04,-230.451 1815.42,-224.099"/>
<polygon fill="orange" stroke="orange" points="1667.41,-241.742 1658.01,-246.624 1668.41,-248.672 1667.41,-241.742"/>
<text text-anchor="start" x="1680" y="-257.5" font-family="Helvetica,sans-Serif" font-size="10.00"> &lt; Sellp&lt; ValueType,</text>
<text text-anchor="middle" x="1730" y="-246.5" font-family="Helvetica,sans-Serif" font-size="10.00"> IndexType &gt; &gt;</text>
</g>
<!-- Node16&#45;&gt;Node15 -->
<g id="edge19" class="edge"><title>Node16&#45;&gt;Node15</title>
<path fill="none" stroke="midnightblue" d="M1443.13,-199.294C1449.89,-201.238 1456.6,-203.312 1463,-205.5 1493.29,-215.848 1526.52,-231.008 1549.8,-242.292"/>
<polygon fill="midnightblue" stroke="midnightblue" points="1443.77,-195.839 1433.2,-196.538 1441.9,-202.585 1443.77,-195.839"/>
</g>
<!-- Node17&#45;&gt;Node16 -->
<g id="edge20" class="edge"><title>Node17&#45;&gt;Node16</title>
<path fill="none" stroke="midnightblue" d="M722.787,-181.5C867.521,-181.5 1124.61,-181.5 1264.93,-181.5"/>
<polygon fill="midnightblue" stroke="midnightblue" points="722.564,-178 712.564,-181.5 722.564,-185 722.564,-178"/>
</g>
<!-- Node18&#45;&gt;Node15 -->
<g id="edge24" class="edge"><title>Node18&#45;&gt;Node15</title>
<path fill="none" stroke="midnightblue" d="M1439.52,-290.169C1464.15,-284.442 1491.33,-278.121 1515.17,-272.577"/>
<polygon fill="midnightblue" stroke="midnightblue" points="1438.45,-286.824 1429.51,-292.498 1440.04,-293.642 1438.45,-286.824"/>
</g>
<!-- Node19&#45;&gt;Node18 -->
<g id="edge25" class="edge"><title>Node19&#45;&gt;Node18</title>
<path fill="none" stroke="midnightblue" d="M1043.32,-329.212C1097.62,-325.585 1177.39,-320.238 1247,-315.5 1254.45,-314.993 1262.17,-314.465 1269.93,-313.933"/>
<polygon fill="midnightblue" stroke="midnightblue" points="1042.9,-325.733 1033.16,-329.891 1043.37,-332.717 1042.9,-325.733"/>
</g>
<!-- Node20 -->
<g id="node20" class="node"><title>Node20</title>
<g id="a_node20"><a xlink:href="classgko_1_1EnableCreateMethod.html" target="_top" xlink:title="gko::EnableCreateMethod\l\&lt; Sellp\&lt; ValueType, IndexType \&gt; \&gt;">
<polygon fill="white" stroke="black" points="1798,-149.5 1798,-179.5 1983,-179.5 1983,-149.5 1798,-149.5"/>
<text text-anchor="start" x="1806" y="-167.5" font-family="Helvetica,sans-Serif" font-size="10.00">gko::EnableCreateMethod</text>
<text text-anchor="middle" x="1890.5" y="-156.5" font-family="Helvetica,sans-Serif" font-size="10.00">&lt; Sellp&lt; ValueType, IndexType &gt; &gt;</text>
</a>
</g>
</g>
<!-- Node20&#45;&gt;Node1 -->
<g id="edge28" class="edge"><title>Node20&#45;&gt;Node1</title>
<path fill="none" stroke="midnightblue" d="M1993.23,-164.5C2002.23,-164.5 2011.19,-164.5 2019.81,-164.5"/>
<polygon fill="midnightblue" stroke="midnightblue" points="1993.08,-161 1983.08,-164.5 1993.08,-168 1993.08,-161"/>
</g>
<!-- Node21 -->
<g id="node21" class="node"><title>Node21</title>
<g id="a_node21"><a xlink:href="classgko_1_1EnableCreateMethod.html" target="_top" xlink:title="This mixin implements a static create() method on ConcreteType that dynamically allocates the memory...">
<polygon fill="white" stroke="black" points="1511,-60.5 1511,-90.5 1651,-90.5 1651,-60.5 1511,-60.5"/>
<text text-anchor="start" x="1519" y="-78.5" font-family="Helvetica,sans-Serif" font-size="10.00">gko::EnableCreateMethod</text>
<text text-anchor="middle" x="1581" y="-67.5" font-family="Helvetica,sans-Serif" font-size="10.00">&lt; ConcreteType &gt;</text>
</a>
</g>
</g>
<!-- Node21&#45;&gt;Node20 -->
<g id="edge29" class="edge"><title>Node21&#45;&gt;Node20</title>
<path fill="none" stroke="orange" stroke-dasharray="5,2" d="M1653.76,-93.1526C1691.7,-103.148 1738.83,-116.615 1780,-131.5 1788.23,-134.477 1789.75,-136.56 1798,-139.5 1807.93,-143.039 1818.61,-146.371 1829.05,-149.379"/>
<polygon fill="orange" stroke="orange" points="1654.37,-89.6967 1643.81,-90.5576 1652.61,-96.4697 1654.37,-89.6967"/>
<text text-anchor="start" x="1680" y="-145.5" font-family="Helvetica,sans-Serif" font-size="10.00"> &lt; Sellp&lt; ValueType,</text>
<text text-anchor="middle" x="1730" y="-134.5" font-family="Helvetica,sans-Serif" font-size="10.00"> IndexType &gt; &gt;</text>
</g>
<!-- Node22&#45;&gt;Node1 -->
<g id="edge30" class="edge"><title>Node22&#45;&gt;Node1</title>
<path fill="none" stroke="midnightblue" d="M1252.21,-365.318C1314.4,-361.694 1403.18,-357.5 1481,-357.5 1481,-357.5 1481,-357.5 1891.5,-357.5 1993,-357.5 2061.49,-225.142 2082.04,-179.644"/>
<polygon fill="midnightblue" stroke="midnightblue" points="1251.85,-361.832 1242.08,-365.917 1252.27,-368.82 1251.85,-361.832"/>
</g>
<!-- Node23 -->
<g id="node23" class="node"><title>Node23</title>
<g id="a_node23"><a xlink:href="classgko_1_1ReadableFromMatrixData.html" target="_top" xlink:title="A LinOp implementing this interface can read its data from a matrix_data structure. ">
<polygon fill="white" stroke="black" points="1810.5,-100.5 1810.5,-130.5 1970.5,-130.5 1970.5,-100.5 1810.5,-100.5"/>
<text text-anchor="start" x="1818.5" y="-118.5" font-family="Helvetica,sans-Serif" font-size="10.00">gko::ReadableFromMatrixData</text>
<text text-anchor="middle" x="1890.5" y="-107.5" font-family="Helvetica,sans-Serif" font-size="10.00">&lt; ValueType, IndexType &gt;</text>
</a>
</g>
</g>
<!-- Node23&#45;&gt;Node1 -->
<g id="edge32" class="edge"><title>Node23&#45;&gt;Node1</title>
<path fill="none" stroke="midnightblue" d="M1961.76,-132.977C1983.48,-138.377 2007.19,-144.276 2028.17,-149.494"/>
<polygon fill="midnightblue" stroke="midnightblue" points="1962.49,-129.552 1951.95,-130.535 1960.8,-136.345 1962.49,-129.552"/>
</g>
<!-- Node24 -->
<g id="node24" class="node"><title>Node24</title>
<g id="a_node24"><a xlink:href="classgko_1_1WritableToMatrixData.html" target="_top" xlink:title="A LinOp implementing this interface can write its data to a matrix_data structure. ">
<polygon fill="white" stroke="black" points="1820.5,-51.5 1820.5,-81.5 1960.5,-81.5 1960.5,-51.5 1820.5,-51.5"/>
<text text-anchor="start" x="1828.5" y="-69.5" font-family="Helvetica,sans-Serif" font-size="10.00">gko::WritableToMatrixData</text>
<text text-anchor="middle" x="1890.5" y="-58.5" font-family="Helvetica,sans-Serif" font-size="10.00">&lt; ValueType, IndexType &gt;</text>
</a>
</g>
</g>
<!-- Node24&#45;&gt;Node1 -->
<g id="edge33" class="edge"><title>Node24&#45;&gt;Node1</title>
<path fill="none" stroke="midnightblue" d="M1969.51,-84.9042C1974.13,-86.6276 1978.67,-88.4904 1983,-90.5 2016.69,-106.12 2051.05,-132.598 2071.04,-149.284"/>
<polygon fill="midnightblue" stroke="midnightblue" points="1970.5,-81.5444 1959.91,-81.56 1968.2,-88.1548 1970.5,-81.5444"/>
</g>
</g>
</svg>
        <g id="navigator" transform="translate(0 0)" fill="#404254">
                <rect fill="#f2f5e9" fill-opacity="0.5" stroke="#606060" stroke-width=".5" x="0" y="0" width="60" height="60"/>
                <use id="zoomplus" xlink:href="#zoomPlus" x="17" y="9" onmousedown="handleZoom(evt,'in')"/>
                <use id="zoomminus" xlink:href="#zoomMin" x="42" y="9" onmousedown="handleZoom(evt,'out')"/>
                <use id="reset" xlink:href="#resetDef" x="30" y="36" onmousedown="handleReset()"/>
                <g id="arrowUp" xlink:href="#dirArrow" transform="translate(30 24)" onmousedown="handlePan(0,-1)">
                  <use xlink:href="#rim" fill="#404040">
                        <set attributeName="fill" to="#808080" begin="arrowUp.mouseover" end="arrowUp.mouseout"/>
                  </use>
                  <path fill="none" stroke="white" stroke-width="1.5" d="M0,-3.0v7 M-2.5,-0.5L0,-3.0L2.5,-0.5"/>
                </g>
                <g id="arrowRight" xlink:href="#dirArrow" transform="rotate(90) translate(36 -43)" onmousedown="handlePan(1,0)">
                  <use xlink:href="#rim" fill="#404040">
                        <set attributeName="fill" to="#808080" begin="arrowRight.mouseover" end="arrowRight.mouseout"/>
                  </use>
                  <path fill="none" stroke="white" stroke-width="1.5" d="M0,-3.0v7 M-2.5,-0.5L0,-3.0L2.5,-0.5"/>
                </g>
                <g id="arrowDown" xlink:href="#dirArrow" transform="rotate(180) translate(-30 -48)" onmousedown="handlePan(0,1)">
                  <use xlink:href="#rim" fill="#404040">
                        <set attributeName="fill" to="#808080" begin="arrowDown.mouseover" end="arrowDown.mouseout"/>
                  </use>
                  <path fill="none" stroke="white" stroke-width="1.5" d="M0,-3.0v7 M-2.5,-0.5L0,-3.0L2.5,-0.5"/>
                </g>
                <g id="arrowLeft" xlink:href="#dirArrow" transform="rotate(270) translate(-36 17)" onmousedown="handlePan(-1,0)">
                  <use xlink:href="#rim" fill="#404040">
                        <set attributeName="fill" to="#808080" begin="arrowLeft.mouseover" end="arrowLeft.mouseout"/>
                  </use>
                  <path fill="none" stroke="white" stroke-width="1.5" d="M0,-3.0v7 M-2.5,-0.5L0,-3.0L2.5,-0.5"/>
                </g>
        </g>
        <svg viewBox="0 0 15 15" width="100%" height="30px" preserveAspectRatio="xMaxYMin meet">
         <g id="arrow_out" transform="scale(0.3 0.3)">
          <a xlink:href="classgko_1_1matrix_1_1Sellp__coll__graph_org.svg" target="_base">
           <rect id="button" ry="5" rx="5" y="6" x="6" height="38" width="38"
                fill="#f2f5e9" fill-opacity="0.5" stroke="#606060" stroke-width="1.0"/>
           <path id="arrow"
             d="M 11.500037,31.436501 C 11.940474,20.09759 22.043105,11.32322 32.158766,21.979434 L 37.068811,17.246167 C 37.068811,17.246167 37.088388,32 37.088388,32 L 22.160133,31.978069 C 22.160133,31.978069 26.997745,27.140456 26.997745,27.140456 C 18.528582,18.264221 13.291696,25.230495 11.500037,31.436501 z"
             style="fill:#404040;"/>
          </a>
         </g>
        </svg>
</svg>
