<?xml version="1.0" encoding="UTF-8" standalone="no"?>
<!DOCTYPE svg PUBLIC "-//W3C//DTD SVG 1.1//EN"
 "http://www.w3.org/Graphics/SVG/1.1/DTD/svg11.dtd">
<!-- Generated by graphviz version 2.38.0 (20140413.2041)
 -->
<!-- Title: gko::matrix::Sellp&lt; ValueType, IndexType &gt; Pages: 1 -->
<!--zoomable 273 -->
<svg id="main" version="1.1" xmlns="http://www.w3.org/2000/svg" xmlns:xlink="http://www.w3.org/1999/xlink" xml:space="preserve" onload="init(evt)">
<style type="text/css"><![CDATA[
.edge:hover path { stroke: red; }
.edge:hover polygon { stroke: red; fill: red; }
]]></style>
<script type="text/javascript"><![CDATA[
var edges = document.getElementsByTagName('g');
if (edges && edges.length) {
  for (var i=0;i<edges.length;i++) {
    if (edges[i].id.substr(0,4)=='edge') {
      edges[i].setAttribute('class','edge');
    }
  }
}
]]></script>
        <defs>
                <circle id="rim" cx="0" cy="0" r="7"/>
                <circle id="rim2" cx="0" cy="0" r="3.5"/>
                <g id="zoomPlus">
                        <use xlink:href="#rim" fill="#404040">
                                <set attributeName="fill" to="#808080" begin="zoomplus.mouseover" end="zoomplus.mouseout"/>
                        </use>
                        <path d="M-4,0h8M0,-4v8" fill="none" stroke="white" stroke-width="1.5" pointer-events="none"/>
                </g>
                <g id="zoomMin">
                        <use xlink:href="#rim" fill="#404040">
                                <set attributeName="fill" to="#808080" begin="zoomminus.mouseover" end="zoomminus.mouseout"/>
                        </use>
                        <path d="M-4,0h8" fill="none" stroke="white" stroke-width="1.5" pointer-events="none"/>
                </g>
                <g id="dirArrow">
                        <path fill="none" stroke="white" stroke-width="1.5" d="M0,-3.0v7 M-2.5,-0.5L0,-3.0L2.5,-0.5"/>
                </g>
               <g id="resetDef">
                       <use xlink:href="#rim2" fill="#404040">
                               <set attributeName="fill" to="#808080" begin="reset.mouseover" end="reset.mouseout"/>
                       </use>
               </g>
        </defs>

<script type="text/javascript">
var viewWidth = 1580;
var viewHeight = 273;
var sectionId = 'dynsection-0';
</script>
<script xlink:href="svgpan.js"/>
<svg id="graph" class="graph">
<g id="viewport">
<title>gko::matrix::Sellp&lt; ValueType, IndexType &gt;</title>
<polygon fill="white" stroke="none" points="-4,4 -4,-268.5 1576,-268.5 1576,4 -4,4"/>
<!-- Node1 -->
<g id="node1" class="node"><title>Node1</title>
<polygon fill="#bfbfbf" stroke="black" points="1433,-98.5 1433,-128.5 1572,-128.5 1572,-98.5 1433,-98.5"/>
<text text-anchor="start" x="1441" y="-116.5" font-family="Helvetica,sans-Serif" font-size="10.00">gko::matrix::Sellp</text>
<text text-anchor="middle" x="1502.5" y="-105.5" font-family="Helvetica,sans-Serif" font-size="10.00">&lt; ValueType, IndexType &gt;</text>
</g>
<!-- Node2 -->
<g id="node2" class="node"><title>Node2</title>
<g id="a_node2"><a xlink:href="classgko_1_1EnableLinOp.html" target="_top" xlink:title="gko::EnableLinOp\&lt; Sellp\l\&lt; ValueType, IndexType \&gt; \&gt;">
<polygon fill="white" stroke="black" points="1229.5,-196.5 1229.5,-226.5 1379.5,-226.5 1379.5,-196.5 1229.5,-196.5"/>
<text text-anchor="start" x="1237.5" y="-214.5" font-family="Helvetica,sans-Serif" font-size="10.00">gko::EnableLinOp&lt; Sellp</text>
<text text-anchor="middle" x="1304.5" y="-203.5" font-family="Helvetica,sans-Serif" font-size="10.00">&lt; ValueType, IndexType &gt; &gt;</text>
</a>
</g>
</g>
<!-- Node2&#45;&gt;Node1 -->
<g id="edge1" class="edge"><title>Node2&#45;&gt;Node1</title>
<path fill="none" stroke="midnightblue" d="M1381.27,-193.022C1386.67,-191.03 1391.97,-188.858 1397,-186.5 1430.06,-171.005 1463.92,-145.158 1483.81,-128.741"/>
<polygon fill="midnightblue" stroke="midnightblue" points="1379.77,-189.837 1371.46,-196.416 1382.06,-196.452 1379.77,-189.837"/>
</g>
<!-- Node3 -->
<g id="node3" class="node"><title>Node3</title>
<g id="a_node3"><a xlink:href="classgko_1_1EnablePolymorphicObject.html" target="_top" xlink:title="gko::EnablePolymorphicObject\l\&lt; Sellp\&lt; ValueType, IndexType\l \&gt;, LinOp \&gt;">
<polygon fill="white" stroke="black" points="1001,-221 1001,-262 1163,-262 1163,-221 1001,-221"/>
<text text-anchor="start" x="1009" y="-250" font-family="Helvetica,sans-Serif" font-size="10.00">gko::EnablePolymorphicObject</text>
<text text-anchor="start" x="1009" y="-239" font-family="Helvetica,sans-Serif" font-size="10.00">&lt; Sellp&lt; ValueType, IndexType</text>
<text text-anchor="middle" x="1082" y="-228" font-family="Helvetica,sans-Serif" font-size="10.00"> &gt;, LinOp &gt;</text>
</a>
</g>
</g>
<!-- Node3&#45;&gt;Node2 -->
<g id="edge2" class="edge"><title>Node3&#45;&gt;Node2</title>
<path fill="none" stroke="midnightblue" d="M1173.18,-229.231C1191.8,-226.697 1211.22,-224.056 1229.2,-221.609"/>
<polygon fill="midnightblue" stroke="midnightblue" points="1172.67,-225.768 1163.23,-230.584 1173.61,-232.704 1172.67,-225.768"/>
</g>
<!-- Node4 -->
<g id="node4" class="node"><title>Node4</title>
<g id="a_node4"><a xlink:href="classgko_1_1EnableAbstractPolymorphicObject.html" target="_top" xlink:title="gko::EnableAbstractPolymorphic\lObject\&lt; Sellp\&lt; ValueType,\l IndexType \&gt;, LinOp \&gt;">
<polygon fill="white" stroke="black" points="781,-223 781,-264 952,-264 952,-223 781,-223"/>
<text text-anchor="start" x="789" y="-252" font-family="Helvetica,sans-Serif" font-size="10.00">gko::EnableAbstractPolymorphic</text>
<text text-anchor="start" x="789" y="-241" font-family="Helvetica,sans-Serif" font-size="10.00">Object&lt; Sellp&lt; ValueType,</text>
<text text-anchor="middle" x="866.5" y="-230" font-family="Helvetica,sans-Serif" font-size="10.00"> IndexType &gt;, LinOp &gt;</text>
</a>
</g>
</g>
<!-- Node4&#45;&gt;Node3 -->
<g id="edge3" class="edge"><title>Node4&#45;&gt;Node3</title>
<path fill="none" stroke="midnightblue" d="M962.433,-242.611C975.288,-242.49 988.375,-242.368 1000.93,-242.25"/>
<polygon fill="midnightblue" stroke="midnightblue" points="962.154,-239.113 952.187,-242.707 962.22,-246.113 962.154,-239.113"/>
</g>
<!-- Node5 -->
<g id="node5" class="node"><title>Node5</title>
<g id="a_node5"><a xlink:href="classgko_1_1LinOp.html" target="_top" xlink:title="The linear operator (LinOp) is a base class for all linear algebra objects in Ginkgo. ">
<polygon fill="white" stroke="black" points="678,-234 678,-253 745,-253 745,-234 678,-234"/>
<text text-anchor="middle" x="711.5" y="-241" font-family="Helvetica,sans-Serif" font-size="10.00">gko::LinOp</text>
</a>
</g>
</g>
<!-- Node5&#45;&gt;Node4 -->
<g id="edge4" class="edge"><title>Node5&#45;&gt;Node4</title>
<path fill="none" stroke="midnightblue" d="M755.465,-243.5C763.479,-243.5 772.105,-243.5 780.874,-243.5"/>
<polygon fill="midnightblue" stroke="midnightblue" points="755.322,-240 745.322,-243.5 755.322,-247 755.322,-240"/>
</g>
<!-- Node6 -->
<g id="node6" class="node"><title>Node6</title>
<g id="a_node6"><a xlink:href="classgko_1_1EnableAbstractPolymorphicObject.html" target="_top" xlink:title="gko::EnableAbstractPolymorphic\lObject\&lt; LinOp \&gt;">
<polygon fill="white" stroke="black" points="471,-228.5 471,-258.5 642,-258.5 642,-228.5 471,-228.5"/>
<text text-anchor="start" x="479" y="-246.5" font-family="Helvetica,sans-Serif" font-size="10.00">gko::EnableAbstractPolymorphic</text>
<text text-anchor="middle" x="556.5" y="-235.5" font-family="Helvetica,sans-Serif" font-size="10.00">Object&lt; LinOp &gt;</text>
</a>
</g>
</g>
<!-- Node6&#45;&gt;Node5 -->
<g id="edge5" class="edge"><title>Node6&#45;&gt;Node5</title>
<path fill="none" stroke="midnightblue" d="M652.098,-243.5C661.246,-243.5 670.027,-243.5 677.877,-243.5"/>
<polygon fill="midnightblue" stroke="midnightblue" points="652.055,-240 642.055,-243.5 652.055,-247 652.055,-240"/>
</g>
<!-- Node7 -->
<g id="node7" class="node"><title>Node7</title>
<g id="a_node7"><a xlink:href="classgko_1_1PolymorphicObject.html" target="_top" xlink:title="A PolymorphicObject is the abstract base for all &quot;heavy&quot; objects in Ginkgo that behave polymorphicall...">
<polygon fill="white" stroke="black" points="306,-234 306,-253 435,-253 435,-234 306,-234"/>
<text text-anchor="middle" x="370.5" y="-241" font-family="Helvetica,sans-Serif" font-size="10.00">gko::PolymorphicObject</text>
</a>
</g>
</g>
<!-- Node7&#45;&gt;Node6 -->
<g id="edge6" class="edge"><title>Node7&#45;&gt;Node6</title>
<path fill="none" stroke="midnightblue" d="M445.224,-243.5C453.644,-243.5 462.276,-243.5 470.824,-243.5"/>
<polygon fill="midnightblue" stroke="midnightblue" points="445.08,-240 435.08,-243.5 445.08,-247 445.08,-240"/>
</g>
<!-- Node8 -->
<g id="node8" class="node"><title>Node8</title>
<g id="a_node8"><a xlink:href="classgko_1_1log_1_1EnableLogging.html" target="_top" xlink:title="gko::log::EnableLogging\l\&lt; PolymorphicObject \&gt;">
<polygon fill="white" stroke="black" points="140,-228.5 140,-258.5 270,-258.5 270,-228.5 140,-228.5"/>
<text text-anchor="start" x="148" y="-246.5" font-family="Helvetica,sans-Serif" font-size="10.00">gko::log::EnableLogging</text>
<text text-anchor="middle" x="205" y="-235.5" font-family="Helvetica,sans-Serif" font-size="10.00">&lt; PolymorphicObject &gt;</text>
</a>
</g>
</g>
<!-- Node8&#45;&gt;Node7 -->
<g id="edge7" class="edge"><title>Node8&#45;&gt;Node7</title>
<path fill="none" stroke="midnightblue" d="M280.416,-243.5C288.895,-243.5 297.48,-243.5 305.803,-243.5"/>
<polygon fill="midnightblue" stroke="midnightblue" points="280.15,-240 270.15,-243.5 280.15,-247 280.15,-240"/>
</g>
<!-- Node9 -->
<g id="node9" class="node"><title>Node9</title>
<g id="a_node9"><a xlink:href="classgko_1_1log_1_1Loggable.html" target="_top" xlink:title="Loggable class is an interface which should be implemented by classes wanting to support logging...">
<polygon fill="white" stroke="black" points="0,-234 0,-253 104,-253 104,-234 0,-234"/>
<text text-anchor="middle" x="52" y="-241" font-family="Helvetica,sans-Serif" font-size="10.00">gko::log::Loggable</text>
</a>
</g>
</g>
<!-- Node9&#45;&gt;Node8 -->
<g id="edge8" class="edge"><title>Node9&#45;&gt;Node8</title>
<path fill="none" stroke="midnightblue" d="M114.245,-243.5C122.668,-243.5 131.337,-243.5 139.812,-243.5"/>
<polygon fill="midnightblue" stroke="midnightblue" points="114.122,-240 104.122,-243.5 114.122,-247 114.122,-240"/>
</g>
<!-- Node10 -->
<g id="node10" class="node"><title>Node10</title>
<g id="a_node10"><a xlink:href="classgko_1_1EnablePolymorphicAssignment.html" target="_top" xlink:title="gko::EnablePolymorphicAssignment\l\&lt; Sellp\&lt; ValueType, IndexType \&gt; \&gt;">
<polygon fill="white" stroke="black" points="988,-169.5 988,-199.5 1176,-199.5 1176,-169.5 988,-169.5"/>
<text text-anchor="start" x="996" y="-187.5" font-family="Helvetica,sans-Serif" font-size="10.00">gko::EnablePolymorphicAssignment</text>
<text text-anchor="middle" x="1082" y="-176.5" font-family="Helvetica,sans-Serif" font-size="10.00">&lt; Sellp&lt; ValueType, IndexType &gt; &gt;</text>
</a>
</g>
</g>
<!-- Node10&#45;&gt;Node2 -->
<g id="edge9" class="edge"><title>Node10&#45;&gt;Node2</title>
<path fill="none" stroke="midnightblue" d="M1186.23,-197.14C1200.78,-198.922 1215.49,-200.723 1229.35,-202.42"/>
<polygon fill="midnightblue" stroke="midnightblue" points="1186.54,-193.653 1176.19,-195.911 1185.69,-200.601 1186.54,-193.653"/>
</g>
<!-- Node11 -->
<g id="node11" class="node"><title>Node11</title>
<g id="a_node11"><a xlink:href="classgko_1_1ConvertibleTo.html" target="_top" xlink:title="gko::ConvertibleTo\l\&lt; Sellp\&lt; ValueType,\l IndexType \&gt; \&gt;">
<polygon fill="white" stroke="black" points="810,-163 810,-204 923,-204 923,-163 810,-163"/>
<text text-anchor="start" x="818" y="-192" font-family="Helvetica,sans-Serif" font-size="10.00">gko::ConvertibleTo</text>
<text text-anchor="start" x="818" y="-181" font-family="Helvetica,sans-Serif" font-size="10.00">&lt; Sellp&lt; ValueType,</text>
<text text-anchor="middle" x="866.5" y="-170" font-family="Helvetica,sans-Serif" font-size="10.00"> IndexType &gt; &gt;</text>
</a>
</g>
</g>
<!-- Node11&#45;&gt;Node10 -->
<g id="edge10" class="edge"><title>Node11&#45;&gt;Node10</title>
<path fill="none" stroke="midnightblue" d="M933.483,-183.809C950.634,-183.889 969.437,-183.977 987.705,-184.063"/>
<polygon fill="midnightblue" stroke="midnightblue" points="933.054,-180.307 923.037,-183.76 933.021,-187.307 933.054,-180.307"/>
</g>
<!-- Node12 -->
<g id="node12" class="node"><title>Node12</title>
<g id="a_node12"><a xlink:href="classgko_1_1EnableCreateMethod.html" target="_top" xlink:title="gko::EnableCreateMethod\l\&lt; Sellp\&lt; ValueType, IndexType \&gt; \&gt;">
<polygon fill="white" stroke="black" points="1212,-147.5 1212,-177.5 1397,-177.5 1397,-147.5 1212,-147.5"/>
<text text-anchor="start" x="1220" y="-165.5" font-family="Helvetica,sans-Serif" font-size="10.00">gko::EnableCreateMethod</text>
<text text-anchor="middle" x="1304.5" y="-154.5" font-family="Helvetica,sans-Serif" font-size="10.00">&lt; Sellp&lt; ValueType, IndexType &gt; &gt;</text>
</a>
</g>
</g>
<!-- Node12&#45;&gt;Node1 -->
<g id="edge11" class="edge"><title>Node12&#45;&gt;Node1</title>
<path fill="none" stroke="midnightblue" d="M1375.41,-145.023C1397.01,-139.623 1420.6,-133.724 1441.48,-128.506"/>
<polygon fill="midnightblue" stroke="midnightblue" points="1374.49,-141.644 1365.64,-147.465 1376.19,-148.435 1374.49,-141.644"/>
</g>
<!-- Node13 -->
<g id="node13" class="node"><title>Node13</title>
<g id="a_node13"><a xlink:href="classgko_1_1ConvertibleTo.html" target="_top" xlink:title="gko::ConvertibleTo\l\&lt; Dense\&lt; ValueType \&gt; \&gt;">
<polygon fill="white" stroke="black" points="1234.5,-98.5 1234.5,-128.5 1374.5,-128.5 1374.5,-98.5 1234.5,-98.5"/>
<text text-anchor="start" x="1242.5" y="-116.5" font-family="Helvetica,sans-Serif" font-size="10.00">gko::ConvertibleTo</text>
<text text-anchor="middle" x="1304.5" y="-105.5" font-family="Helvetica,sans-Serif" font-size="10.00">&lt; Dense&lt; ValueType &gt; &gt;</text>
</a>
</g>
</g>
<!-- Node13&#45;&gt;Node1 -->
<g id="edge12" class="edge"><title>Node13&#45;&gt;Node1</title>
<path fill="none" stroke="midnightblue" d="M1384.9,-113.5C1400.73,-113.5 1417.24,-113.5 1432.69,-113.5"/>
<polygon fill="midnightblue" stroke="midnightblue" points="1384.6,-110 1374.6,-113.5 1384.6,-117 1384.6,-110"/>
</g>
<!-- Node14 -->
<g id="node14" class="node"><title>Node14</title>
<g id="a_node14"><a xlink:href="classgko_1_1ReadableFromMatrixData.html" target="_top" xlink:title="A LinOp implementing this interface can read its data from a matrix_data structure. ">
<polygon fill="white" stroke="black" points="1224.5,-49.5 1224.5,-79.5 1384.5,-79.5 1384.5,-49.5 1224.5,-49.5"/>
<text text-anchor="start" x="1232.5" y="-67.5" font-family="Helvetica,sans-Serif" font-size="10.00">gko::ReadableFromMatrixData</text>
<text text-anchor="middle" x="1304.5" y="-56.5" font-family="Helvetica,sans-Serif" font-size="10.00">&lt; ValueType, IndexType &gt;</text>
</a>
</g>
</g>
<!-- Node14&#45;&gt;Node1 -->
<g id="edge13" class="edge"><title>Node14&#45;&gt;Node1</title>
<path fill="none" stroke="midnightblue" d="M1375.41,-81.9768C1397.01,-87.3775 1420.6,-93.2755 1441.48,-98.4938"/>
<polygon fill="midnightblue" stroke="midnightblue" points="1376.19,-78.5645 1365.64,-79.5346 1374.49,-85.3555 1376.19,-78.5645"/>
</g>
<!-- Node15 -->
<g id="node15" class="node"><title>Node15</title>
<g id="a_node15"><a xlink:href="classgko_1_1WritableToMatrixData.html" target="_top" xlink:title="A LinOp implementing this interface can write its data to a matrix_data structure. ">
<polygon fill="white" stroke="black" points="1234.5,-0.5 1234.5,-30.5 1374.5,-30.5 1374.5,-0.5 1234.5,-0.5"/>
<text text-anchor="start" x="1242.5" y="-18.5" font-family="Helvetica,sans-Serif" font-size="10.00">gko::WritableToMatrixData</text>
<text text-anchor="middle" x="1304.5" y="-7.5" font-family="Helvetica,sans-Serif" font-size="10.00">&lt; ValueType, IndexType &gt;</text>
</a>
</g>
</g>
<!-- Node15&#45;&gt;Node1 -->
<g id="edge14" class="edge"><title>Node15&#45;&gt;Node1</title>
<path fill="none" stroke="midnightblue" d="M1383.52,-33.8813C1388.14,-35.6104 1392.67,-37.4807 1397,-39.5 1430.45,-55.096 1464.46,-81.5808 1484.24,-98.2753"/>
<polygon fill="midnightblue" stroke="midnightblue" points="1384.52,-30.5228 1373.92,-30.5279 1382.21,-37.131 1384.52,-30.5228"/>
</g>
</g>
</svg>
        <g id="navigator" transform="translate(0 0)" fill="#404254">
                <rect fill="#f2f5e9" fill-opacity="0.5" stroke="#606060" stroke-width=".5" x="0" y="0" width="60" height="60"/>
                <use id="zoomplus" xlink:href="#zoomPlus" x="17" y="9" onmousedown="handleZoom(evt,'in')"/>
                <use id="zoomminus" xlink:href="#zoomMin" x="42" y="9" onmousedown="handleZoom(evt,'out')"/>
                <use id="reset" xlink:href="#resetDef" x="30" y="36" onmousedown="handleReset()"/>
                <g id="arrowUp" xlink:href="#dirArrow" transform="translate(30 24)" onmousedown="handlePan(0,-1)">
                  <use xlink:href="#rim" fill="#404040">
                        <set attributeName="fill" to="#808080" begin="arrowUp.mouseover" end="arrowUp.mouseout"/>
                  </use>
                  <path fill="none" stroke="white" stroke-width="1.5" d="M0,-3.0v7 M-2.5,-0.5L0,-3.0L2.5,-0.5"/>
                </g>
                <g id="arrowRight" xlink:href="#dirArrow" transform="rotate(90) translate(36 -43)" onmousedown="handlePan(1,0)">
                  <use xlink:href="#rim" fill="#404040">
                        <set attributeName="fill" to="#808080" begin="arrowRight.mouseover" end="arrowRight.mouseout"/>
                  </use>
                  <path fill="none" stroke="white" stroke-width="1.5" d="M0,-3.0v7 M-2.5,-0.5L0,-3.0L2.5,-0.5"/>
                </g>
                <g id="arrowDown" xlink:href="#dirArrow" transform="rotate(180) translate(-30 -48)" onmousedown="handlePan(0,1)">
                  <use xlink:href="#rim" fill="#404040">
                        <set attributeName="fill" to="#808080" begin="arrowDown.mouseover" end="arrowDown.mouseout"/>
                  </use>
                  <path fill="none" stroke="white" stroke-width="1.5" d="M0,-3.0v7 M-2.5,-0.5L0,-3.0L2.5,-0.5"/>
                </g>
                <g id="arrowLeft" xlink:href="#dirArrow" transform="rotate(270) translate(-36 17)" onmousedown="handlePan(-1,0)">
                  <use xlink:href="#rim" fill="#404040">
                        <set attributeName="fill" to="#808080" begin="arrowLeft.mouseover" end="arrowLeft.mouseout"/>
                  </use>
                  <path fill="none" stroke="white" stroke-width="1.5" d="M0,-3.0v7 M-2.5,-0.5L0,-3.0L2.5,-0.5"/>
                </g>
        </g>
        <svg viewBox="0 0 15 15" width="100%" height="30px" preserveAspectRatio="xMaxYMin meet">
         <g id="arrow_out" transform="scale(0.3 0.3)">
          <a xlink:href="classgko_1_1matrix_1_1Sellp__coll__graph_org.svg" target="_base">
           <rect id="button" ry="5" rx="5" y="6" x="6" height="38" width="38"
                fill="#f2f5e9" fill-opacity="0.5" stroke="#606060" stroke-width="1.0"/>
           <path id="arrow"
             d="M 11.500037,31.436501 C 11.940474,20.09759 22.043105,11.32322 32.158766,21.979434 L 37.068811,17.246167 C 37.068811,17.246167 37.088388,32 37.088388,32 L 22.160133,31.978069 C 22.160133,31.978069 26.997745,27.140456 26.997745,27.140456 C 18.528582,18.264221 13.291696,25.230495 11.500037,31.436501 z"
             style="fill:#404040;"/>
          </a>
         </g>
        </svg>
</svg>
