<?xml version="1.0" encoding="UTF-8" standalone="no"?>
<!DOCTYPE svg PUBLIC "-//W3C//DTD SVG 1.1//EN"
 "http://www.w3.org/Graphics/SVG/1.1/DTD/svg11.dtd">
<!-- Generated by graphviz version 2.38.0 (20140413.2041)
 -->
<!-- Title: gko::solver::Ir&lt; ValueType &gt; Pages: 1 -->
<!--zoomable 348 -->
<svg id="main" version="1.1" xmlns="http://www.w3.org/2000/svg" xmlns:xlink="http://www.w3.org/1999/xlink" xml:space="preserve" onload="init(evt)">
<style type="text/css"><![CDATA[
.edge:hover path { stroke: red; }
.edge:hover polygon { stroke: red; fill: red; }
]]></style>
<script type="text/javascript"><![CDATA[
var edges = document.getElementsByTagName('g');
if (edges && edges.length) {
  for (var i=0;i<edges.length;i++) {
    if (edges[i].id.substr(0,4)=='edge') {
      edges[i].setAttribute('class','edge');
    }
  }
}
]]></script>
        <defs>
                <circle id="rim" cx="0" cy="0" r="7"/>
                <circle id="rim2" cx="0" cy="0" r="3.5"/>
                <g id="zoomPlus">
                        <use xlink:href="#rim" fill="#404040">
                                <set attributeName="fill" to="#808080" begin="zoomplus.mouseover" end="zoomplus.mouseout"/>
                        </use>
                        <path d="M-4,0h8M0,-4v8" fill="none" stroke="white" stroke-width="1.5" pointer-events="none"/>
                </g>
                <g id="zoomMin">
                        <use xlink:href="#rim" fill="#404040">
                                <set attributeName="fill" to="#808080" begin="zoomminus.mouseover" end="zoomminus.mouseout"/>
                        </use>
                        <path d="M-4,0h8" fill="none" stroke="white" stroke-width="1.5" pointer-events="none"/>
                </g>
                <g id="dirArrow">
                        <path fill="none" stroke="white" stroke-width="1.5" d="M0,-3.0v7 M-2.5,-0.5L0,-3.0L2.5,-0.5"/>
                </g>
               <g id="resetDef">
                       <use xlink:href="#rim2" fill="#404040">
                               <set attributeName="fill" to="#808080" begin="reset.mouseover" end="reset.mouseout"/>
                       </use>
               </g>
        </defs>

<script type="text/javascript">
var viewWidth = 2085;
var viewHeight = 348;
var sectionId = 'dynsection-0';
</script>
<script xlink:href="svgpan.js"/>
<svg id="graph" class="graph">
<g id="viewport">
<title>gko::solver::Ir&lt; ValueType &gt;</title>
<polygon fill="white" stroke="none" points="-4,4 -4,-344 2081,-344 2081,4 -4,4"/>
<!-- Node1 -->
<g id="node1" class="node"><title>Node1</title>
<polygon fill="#bfbfbf" stroke="black" points="1927,-130 1927,-149 2077,-149 2077,-130 1927,-130"/>
<text text-anchor="middle" x="2002" y="-137" font-family="Helvetica,sans-Serif" font-size="10.00">gko::solver::Ir&lt; ValueType &gt;</text>
</g>
<!-- Node2 -->
<g id="node2" class="node"><title>Node2</title>
<g id="a_node2"><a xlink:href="classgko_1_1EnableLinOp.html" target="_top" xlink:title="gko::EnableLinOp\&lt; Ir\l\&lt; ValueType \&gt; \&gt;">
<polygon fill="white" stroke="black" points="1774,-124.5 1774,-154.5 1890,-154.5 1890,-124.5 1774,-124.5"/>
<text text-anchor="start" x="1782" y="-142.5" font-family="Helvetica,sans-Serif" font-size="10.00">gko::EnableLinOp&lt; Ir</text>
<text text-anchor="middle" x="1832" y="-131.5" font-family="Helvetica,sans-Serif" font-size="10.00">&lt; ValueType &gt; &gt;</text>
</a>
</g>
</g>
<!-- Node2&#45;&gt;Node1 -->
<g id="edge1" class="edge"><title>Node2&#45;&gt;Node1</title>
<path fill="none" stroke="midnightblue" d="M1900.45,-139.5C1909.18,-139.5 1918.15,-139.5 1926.98,-139.5"/>
<polygon fill="midnightblue" stroke="midnightblue" points="1900.35,-136 1890.35,-139.5 1900.35,-143 1900.35,-136"/>
</g>
<!-- Node3 -->
<g id="node3" class="node"><title>Node3</title>
<g id="a_node3"><a xlink:href="classgko_1_1EnablePolymorphicObject.html" target="_top" xlink:title="gko::EnablePolymorphicObject\l\&lt; Ir\&lt; ValueType \&gt;, LinOp \&gt;">
<polygon fill="white" stroke="black" points="1475,-212.5 1475,-242.5 1636,-242.5 1636,-212.5 1475,-212.5"/>
<text text-anchor="start" x="1483" y="-230.5" font-family="Helvetica,sans-Serif" font-size="10.00">gko::EnablePolymorphicObject</text>
<text text-anchor="middle" x="1555.5" y="-219.5" font-family="Helvetica,sans-Serif" font-size="10.00">&lt; Ir&lt; ValueType &gt;, LinOp &gt;</text>
</a>
</g>
</g>
<!-- Node3&#45;&gt;Node2 -->
<g id="edge2" class="edge"><title>Node3&#45;&gt;Node2</title>
<path fill="none" stroke="midnightblue" d="M1613.15,-209.339C1663.59,-193.168 1736.53,-169.785 1783.86,-154.613"/>
<polygon fill="midnightblue" stroke="midnightblue" points="1611.83,-206.086 1603.38,-212.472 1613.97,-212.752 1611.83,-206.086"/>
</g>
<!-- Node4 -->
<g id="node4" class="node"><title>Node4</title>
<g id="a_node4"><a xlink:href="classgko_1_1EnableAbstractPolymorphicObject.html" target="_top" xlink:title="gko::EnableAbstractPolymorphic\lObject\&lt; Ir\&lt; ValueType \&gt;,\l LinOp \&gt;">
<polygon fill="white" stroke="black" points="1253.5,-268 1253.5,-309 1424.5,-309 1424.5,-268 1253.5,-268"/>
<text text-anchor="start" x="1261.5" y="-297" font-family="Helvetica,sans-Serif" font-size="10.00">gko::EnableAbstractPolymorphic</text>
<text text-anchor="start" x="1261.5" y="-286" font-family="Helvetica,sans-Serif" font-size="10.00">Object&lt; Ir&lt; ValueType &gt;,</text>
<text text-anchor="middle" x="1339" y="-275" font-family="Helvetica,sans-Serif" font-size="10.00"> LinOp &gt;</text>
</a>
</g>
</g>
<!-- Node4&#45;&gt;Node3 -->
<g id="edge3" class="edge"><title>Node4&#45;&gt;Node3</title>
<path fill="none" stroke="midnightblue" d="M1422.02,-265.174C1448.67,-257.596 1477.52,-249.393 1501.47,-242.581"/>
<polygon fill="midnightblue" stroke="midnightblue" points="1420.98,-261.831 1412.32,-267.933 1422.9,-268.564 1420.98,-261.831"/>
</g>
<!-- Node5 -->
<g id="node5" class="node"><title>Node5</title>
<g id="a_node5"><a xlink:href="classgko_1_1LinOp.html" target="_top" xlink:title="The linear operator (LinOp) is a base class for all linear algebra objects in Ginkgo. ">
<polygon fill="white" stroke="black" points="919.5,-310 919.5,-329 986.5,-329 986.5,-310 919.5,-310"/>
<text text-anchor="middle" x="953" y="-317" font-family="Helvetica,sans-Serif" font-size="10.00">gko::LinOp</text>
</a>
</g>
</g>
<!-- Node5&#45;&gt;Node4 -->
<g id="edge4" class="edge"><title>Node5&#45;&gt;Node4</title>
<path fill="none" stroke="midnightblue" d="M996.908,-316.036C1058.69,-311.048 1173.99,-301.74 1253.3,-295.338"/>
<polygon fill="midnightblue" stroke="midnightblue" points="996.426,-312.564 986.74,-316.857 996.989,-319.541 996.426,-312.564"/>
</g>
<!-- Node6 -->
<g id="node6" class="node"><title>Node6</title>
<g id="a_node6"><a xlink:href="classgko_1_1EnableAbstractPolymorphicObject.html" target="_top" xlink:title="gko::EnableAbstractPolymorphic\lObject\&lt; LinOp \&gt;">
<polygon fill="white" stroke="red" points="530,-309.5 530,-339.5 701,-339.5 701,-309.5 530,-309.5"/>
<text text-anchor="start" x="538" y="-327.5" font-family="Helvetica,sans-Serif" font-size="10.00">gko::EnableAbstractPolymorphic</text>
<text text-anchor="middle" x="615.5" y="-316.5" font-family="Helvetica,sans-Serif" font-size="10.00">Object&lt; LinOp &gt;</text>
</a>
</g>
</g>
<!-- Node6&#45;&gt;Node5 -->
<g id="edge5" class="edge"><title>Node6&#45;&gt;Node5</title>
<path fill="none" stroke="midnightblue" d="M711.291,-323.087C781.033,-322.048 871.672,-320.697 919.364,-319.986"/>
<polygon fill="midnightblue" stroke="midnightblue" points="711.108,-319.59 701.161,-323.238 711.212,-326.589 711.108,-319.59"/>
</g>
<!-- Node7 -->
<g id="node7" class="node"><title>Node7</title>
<g id="a_node7"><a xlink:href="classgko_1_1EnableAbstractPolymorphicObject.html" target="_top" xlink:title="This mixin inherits from (a subclass of) PolymorphicObject and provides a base implementation of a ne...">
<polygon fill="white" stroke="black" points="136,-223 136,-264 327,-264 327,-223 136,-223"/>
<text text-anchor="start" x="144" y="-252" font-family="Helvetica,sans-Serif" font-size="10.00">gko::EnableAbstractPolymorphic</text>
<text text-anchor="start" x="144" y="-241" font-family="Helvetica,sans-Serif" font-size="10.00">Object&lt; AbstactObject, Polymorphic</text>
<text text-anchor="middle" x="231.5" y="-230" font-family="Helvetica,sans-Serif" font-size="10.00">Base &gt;</text>
</a>
</g>
</g>
<!-- Node7&#45;&gt;Node4 -->
<g id="edge8" class="edge"><title>Node7&#45;&gt;Node4</title>
<path fill="none" stroke="orange" stroke-dasharray="5,2" d="M337.28,-262.657C339.876,-262.961 342.453,-263.243 345,-263.5 680.009,-297.301 1081.63,-294.085 1253.38,-290.655"/>
<polygon fill="orange" stroke="orange" points="337.548,-259.164 327.189,-261.385 336.672,-266.109 337.548,-259.164"/>
<text text-anchor="start" x="736" y="-304.5" font-family="Helvetica,sans-Serif" font-size="10.00"> &lt; Ir&lt; ValueType &gt;,</text>
<text text-anchor="middle" x="783" y="-293.5" font-family="Helvetica,sans-Serif" font-size="10.00"> LinOp &gt;</text>
</g>
<!-- Node7&#45;&gt;Node6 -->
<g id="edge6" class="edge"><title>Node7&#45;&gt;Node6</title>
<path fill="none" stroke="orange" stroke-dasharray="5,2" d="M279.011,-268.568C298.819,-278.182 322.508,-288.318 345,-294.5 405.487,-311.126 476.021,-318.572 529.756,-321.89"/>
<polygon fill="orange" stroke="orange" points="280.427,-265.363 269.913,-264.057 277.318,-271.635 280.427,-265.363"/>
<text text-anchor="middle" x="422" y="-322.5" font-family="Helvetica,sans-Serif" font-size="10.00"> &lt; LinOp &gt;</text>
</g>
<!-- Node10 -->
<g id="node10" class="node"><title>Node10</title>
<g id="a_node10"><a xlink:href="classgko_1_1EnableAbstractPolymorphicObject.html" target="_top" xlink:title="gko::EnableAbstractPolymorphic\lObject\&lt; ConcreteObject, Polymorphic\lBase \&gt;">
<polygon fill="white" stroke="black" points="517,-202 517,-243 714,-243 714,-202 517,-202"/>
<text text-anchor="start" x="525" y="-231" font-family="Helvetica,sans-Serif" font-size="10.00">gko::EnableAbstractPolymorphic</text>
<text text-anchor="start" x="525" y="-220" font-family="Helvetica,sans-Serif" font-size="10.00">Object&lt; ConcreteObject, Polymorphic</text>
<text text-anchor="middle" x="615.5" y="-209" font-family="Helvetica,sans-Serif" font-size="10.00">Base &gt;</text>
</a>
</g>
</g>
<!-- Node7&#45;&gt;Node10 -->
<g id="edge12" class="edge"><title>Node7&#45;&gt;Node10</title>
<path fill="none" stroke="orange" stroke-dasharray="5,2" d="M337.712,-237.716C393.648,-234.641 461.974,-230.885 516.744,-227.874"/>
<polygon fill="orange" stroke="orange" points="337.211,-234.238 327.418,-238.282 337.595,-241.228 337.211,-234.238"/>
<text text-anchor="start" x="345" y="-251.5" font-family="Helvetica,sans-Serif" font-size="10.00"> &lt; ConcreteObject, Polymorphic</text>
<text text-anchor="middle" x="422" y="-240.5" font-family="Helvetica,sans-Serif" font-size="10.00">Base &gt;</text>
</g>
<!-- Node17 -->
<g id="node17" class="node"><title>Node17</title>
<g id="a_node17"><a xlink:href="classgko_1_1EnableAbstractPolymorphicObject.html" target="_top" xlink:title="gko::EnableAbstractPolymorphic\lObject\&lt; ConcreteLinOp, Polymorphic\lBase \&gt;">
<polygon fill="white" stroke="black" points="518.5,-137 518.5,-178 712.5,-178 712.5,-137 518.5,-137"/>
<text text-anchor="start" x="526.5" y="-166" font-family="Helvetica,sans-Serif" font-size="10.00">gko::EnableAbstractPolymorphic</text>
<text text-anchor="start" x="526.5" y="-155" font-family="Helvetica,sans-Serif" font-size="10.00">Object&lt; ConcreteLinOp, Polymorphic</text>
<text text-anchor="middle" x="615.5" y="-144" font-family="Helvetica,sans-Serif" font-size="10.00">Base &gt;</text>
</a>
</g>
</g>
<!-- Node7&#45;&gt;Node17 -->
<g id="edge22" class="edge"><title>Node7&#45;&gt;Node17</title>
<path fill="none" stroke="orange" stroke-dasharray="5,2" d="M293.788,-219.552C310.243,-213.718 328.15,-207.898 345,-203.5 401.719,-188.695 466.434,-177.468 518.229,-169.814"/>
<polygon fill="orange" stroke="orange" points="292.507,-216.293 284.287,-222.978 294.881,-222.878 292.507,-216.293"/>
<text text-anchor="start" x="347" y="-217.5" font-family="Helvetica,sans-Serif" font-size="10.00"> &lt; ConcreteLinOp, Polymorphic</text>
<text text-anchor="middle" x="422" y="-206.5" font-family="Helvetica,sans-Serif" font-size="10.00">Base &gt;</text>
</g>
<!-- Node8 -->
<g id="node8" class="node"><title>Node8</title>
<polygon fill="white" stroke="#bfbfbf" points="0,-156 0,-175 99,-175 99,-156 0,-156"/>
<text text-anchor="middle" x="49.5" y="-163" font-family="Helvetica,sans-Serif" font-size="10.00">PolymorphicBase</text>
</g>
<!-- Node8&#45;&gt;Node7 -->
<g id="edge7" class="edge"><title>Node8&#45;&gt;Node7</title>
<path fill="none" stroke="midnightblue" d="M81.8444,-179.083C109.735,-191.168 150.939,-209.024 182.898,-222.872"/>
<polygon fill="midnightblue" stroke="midnightblue" points="83.1387,-175.829 72.5715,-175.064 80.3555,-182.252 83.1387,-175.829"/>
</g>
<!-- Node8&#45;&gt;Node10 -->
<g id="edge11" class="edge"><title>Node8&#45;&gt;Node10</title>
<path fill="none" stroke="midnightblue" d="M109.218,-160.226C195.779,-154.038 362.168,-148.224 499,-179.5 507.534,-181.451 508.875,-184.241 517,-187.5 529.185,-192.387 542.349,-197.333 554.943,-201.907"/>
<polygon fill="midnightblue" stroke="midnightblue" points="108.778,-156.749 99.0648,-160.98 109.297,-163.729 108.778,-156.749"/>
</g>
<!-- Node8&#45;&gt;Node17 -->
<g id="edge21" class="edge"><title>Node8&#45;&gt;Node17</title>
<path fill="none" stroke="midnightblue" d="M98.9941,-154.078C105.028,-153.016 111.136,-152.111 117,-151.5 285.865,-133.917 329.279,-147.095 499,-151.5 505.323,-151.664 511.838,-151.879 518.403,-152.129"/>
<polygon fill="midnightblue" stroke="midnightblue" points="98.134,-150.679 88.966,-155.989 99.4444,-157.555 98.134,-150.679"/>
</g>
<!-- Node9 -->
<g id="node9" class="node"><title>Node9</title>
<g id="a_node9"><a xlink:href="classgko_1_1EnablePolymorphicObject.html" target="_top" xlink:title="This mixin inherits from (a subclass of) PolymorphicObject and provides a base implementation of a ne...">
<polygon fill="white" stroke="black" points="852,-207.5 852,-237.5 1054,-237.5 1054,-207.5 852,-207.5"/>
<text text-anchor="start" x="860" y="-225.5" font-family="Helvetica,sans-Serif" font-size="10.00">gko::EnablePolymorphicObject</text>
<text text-anchor="middle" x="953" y="-214.5" font-family="Helvetica,sans-Serif" font-size="10.00">&lt; ConcreteObject, PolymorphicBase &gt;</text>
</a>
</g>
</g>
<!-- Node9&#45;&gt;Node3 -->
<g id="edge9" class="edge"><title>Node9&#45;&gt;Node3</title>
<path fill="none" stroke="orange" stroke-dasharray="5,2" d="M1064.39,-223.419C1183.22,-224.409 1369.33,-225.958 1474.72,-226.836"/>
<polygon fill="orange" stroke="orange" points="1064.2,-219.918 1054.17,-223.334 1064.14,-226.917 1064.2,-219.918"/>
<text text-anchor="start" x="1292" y="-240.5" font-family="Helvetica,sans-Serif" font-size="10.00"> &lt; Ir&lt; ValueType &gt;,</text>
<text text-anchor="middle" x="1339" y="-229.5" font-family="Helvetica,sans-Serif" font-size="10.00"> LinOp &gt;</text>
</g>
<!-- Node16 -->
<g id="node16" class="node"><title>Node16</title>
<g id="a_node16"><a xlink:href="classgko_1_1EnablePolymorphicObject.html" target="_top" xlink:title="gko::EnablePolymorphicObject\l\&lt; ConcreteLinOp, PolymorphicBase \&gt;">
<polygon fill="white" stroke="black" points="1240,-144.5 1240,-174.5 1438,-174.5 1438,-144.5 1240,-144.5"/>
<text text-anchor="start" x="1248" y="-162.5" font-family="Helvetica,sans-Serif" font-size="10.00">gko::EnablePolymorphicObject</text>
<text text-anchor="middle" x="1339" y="-151.5" font-family="Helvetica,sans-Serif" font-size="10.00">&lt; ConcreteLinOp, PolymorphicBase &gt;</text>
</a>
</g>
</g>
<!-- Node9&#45;&gt;Node16 -->
<g id="edge23" class="edge"><title>Node9&#45;&gt;Node16</title>
<path fill="none" stroke="orange" stroke-dasharray="5,2" d="M1014.71,-204.847C1033.01,-199.99 1053.22,-195.08 1072,-191.5 1127.17,-180.986 1189.48,-173.271 1239.91,-168.054"/>
<polygon fill="orange" stroke="orange" points="1013.8,-201.468 1005.05,-207.452 1015.62,-208.227 1013.8,-201.468"/>
<text text-anchor="start" x="1072" y="-205.5" font-family="Helvetica,sans-Serif" font-size="10.00"> &lt; ConcreteLinOp, Polymorphic</text>
<text text-anchor="middle" x="1147" y="-194.5" font-family="Helvetica,sans-Serif" font-size="10.00">Base &gt;</text>
</g>
<!-- Node10&#45;&gt;Node9 -->
<g id="edge10" class="edge"><title>Node10&#45;&gt;Node9</title>
<path fill="none" stroke="midnightblue" d="M724.445,-222.5C765.36,-222.5 811.737,-222.5 851.899,-222.5"/>
<polygon fill="midnightblue" stroke="midnightblue" points="724.442,-219 714.442,-222.5 724.442,-226 724.442,-219"/>
</g>
<!-- Node11 -->
<g id="node11" class="node"><title>Node11</title>
<g id="a_node11"><a xlink:href="classgko_1_1EnablePolymorphicAssignment.html" target="_top" xlink:title="gko::EnablePolymorphicAssignment\l\&lt; Ir\&lt; ValueType \&gt; \&gt;">
<polygon fill="white" stroke="black" points="1245,-38.5 1245,-68.5 1433,-68.5 1433,-38.5 1245,-38.5"/>
<text text-anchor="start" x="1253" y="-56.5" font-family="Helvetica,sans-Serif" font-size="10.00">gko::EnablePolymorphicAssignment</text>
<text text-anchor="middle" x="1339" y="-45.5" font-family="Helvetica,sans-Serif" font-size="10.00">&lt; Ir&lt; ValueType &gt; &gt;</text>
</a>
</g>
</g>
<!-- Node11&#45;&gt;Node2 -->
<g id="edge13" class="edge"><title>Node11&#45;&gt;Node2</title>
<path fill="none" stroke="midnightblue" d="M1435.66,-70.2545C1536.11,-87.8493 1690.77,-114.938 1773.73,-129.469"/>
<polygon fill="midnightblue" stroke="midnightblue" points="1436.26,-66.8071 1425.81,-68.5292 1435.05,-73.7021 1436.26,-66.8071"/>
</g>
<!-- Node12 -->
<g id="node12" class="node"><title>Node12</title>
<g id="a_node12"><a xlink:href="classgko_1_1ConvertibleTo.html" target="_top" xlink:title="gko::ConvertibleTo\l\&lt; Ir\&lt; ValueType \&gt; \&gt;">
<polygon fill="white" stroke="black" points="895.5,-0.5 895.5,-30.5 1010.5,-30.5 1010.5,-0.5 895.5,-0.5"/>
<text text-anchor="start" x="903.5" y="-18.5" font-family="Helvetica,sans-Serif" font-size="10.00">gko::ConvertibleTo</text>
<text text-anchor="middle" x="953" y="-7.5" font-family="Helvetica,sans-Serif" font-size="10.00">&lt; Ir&lt; ValueType &gt; &gt;</text>
</a>
</g>
</g>
<!-- Node12&#45;&gt;Node11 -->
<g id="edge14" class="edge"><title>Node12&#45;&gt;Node11</title>
<path fill="none" stroke="midnightblue" d="M1020.72,-22.1025C1082.73,-28.2392 1175.69,-37.4382 1244.98,-44.2948"/>
<polygon fill="midnightblue" stroke="midnightblue" points="1020.96,-18.6089 1010.66,-21.107 1020.27,-25.5749 1020.96,-18.6089"/>
</g>
<!-- Node13 -->
<g id="node13" class="node"><title>Node13</title>
<g id="a_node13"><a xlink:href="classgko_1_1ConvertibleTo.html" target="_top" xlink:title="ConvertibleTo interface is used to mark that the implementer can be converted to the object of Result...">
<polygon fill="white" stroke="black" points="563.5,-49.5 563.5,-79.5 667.5,-79.5 667.5,-49.5 563.5,-49.5"/>
<text text-anchor="start" x="571.5" y="-67.5" font-family="Helvetica,sans-Serif" font-size="10.00">gko::ConvertibleTo</text>
<text text-anchor="middle" x="615.5" y="-56.5" font-family="Helvetica,sans-Serif" font-size="10.00">&lt; ResultType &gt;</text>
</a>
</g>
</g>
<!-- Node13&#45;&gt;Node12 -->
<g id="edge15" class="edge"><title>Node13&#45;&gt;Node12</title>
<path fill="none" stroke="orange" stroke-dasharray="5,2" d="M677.865,-55.5376C739.921,-46.4743 835.047,-32.5811 895.356,-23.7728"/>
<polygon fill="orange" stroke="orange" points="677.21,-52.0961 667.82,-57.0046 678.221,-59.0226 677.21,-52.0961"/>
<text text-anchor="middle" x="783" y="-50.5" font-family="Helvetica,sans-Serif" font-size="10.00"> &lt; Ir&lt; ValueType &gt; &gt;</text>
</g>
<!-- Node14 -->
<g id="node14" class="node"><title>Node14</title>
<g id="a_node14"><a xlink:href="classgko_1_1EnablePolymorphicAssignment.html" target="_top" xlink:title="This mixin is used to enable a default PolymorphicObject::copy_from() implementation for objects that...">
<polygon fill="white" stroke="black" points="859,-49.5 859,-79.5 1047,-79.5 1047,-49.5 859,-49.5"/>
<text text-anchor="start" x="867" y="-67.5" font-family="Helvetica,sans-Serif" font-size="10.00">gko::EnablePolymorphicAssignment</text>
<text text-anchor="middle" x="953" y="-56.5" font-family="Helvetica,sans-Serif" font-size="10.00">&lt; ConcreteType, ResultType &gt;</text>
</a>
</g>
</g>
<!-- Node13&#45;&gt;Node14 -->
<g id="edge17" class="edge"><title>Node13&#45;&gt;Node14</title>
<path fill="none" stroke="midnightblue" d="M677.953,-64.5C728.548,-64.5 801.082,-64.5 858.82,-64.5"/>
<polygon fill="midnightblue" stroke="midnightblue" points="677.82,-61.0001 667.82,-64.5 677.82,-68.0001 677.82,-61.0001"/>
</g>
<!-- Node19 -->
<g id="node19" class="node"><title>Node19</title>
<g id="a_node19"><a xlink:href="classgko_1_1ConvertibleTo.html" target="_top" xlink:title="gko::ConvertibleTo\l\&lt; ConcreteLinOp \&gt;">
<polygon fill="white" stroke="black" points="898,-98.5 898,-128.5 1008,-128.5 1008,-98.5 898,-98.5"/>
<text text-anchor="start" x="906" y="-116.5" font-family="Helvetica,sans-Serif" font-size="10.00">gko::ConvertibleTo</text>
<text text-anchor="middle" x="953" y="-105.5" font-family="Helvetica,sans-Serif" font-size="10.00">&lt; ConcreteLinOp &gt;</text>
</a>
</g>
</g>
<!-- Node13&#45;&gt;Node19 -->
<g id="edge26" class="edge"><title>Node13&#45;&gt;Node19</title>
<path fill="none" stroke="orange" stroke-dasharray="5,2" d="M678.005,-73.4828C740.946,-82.6753 837.8,-96.821 897.905,-105.599"/>
<polygon fill="orange" stroke="orange" points="678.221,-69.9774 667.82,-71.9954 677.21,-76.9039 678.221,-69.9774"/>
<text text-anchor="middle" x="783" y="-99.5" font-family="Helvetica,sans-Serif" font-size="10.00"> &lt; ConcreteLinOp &gt;</text>
</g>
<!-- Node14&#45;&gt;Node11 -->
<g id="edge16" class="edge"><title>Node14&#45;&gt;Node11</title>
<path fill="none" stroke="orange" stroke-dasharray="5,2" d="M1057.29,-55.2633C1062.26,-54.9706 1067.18,-54.7128 1072,-54.5 1129.32,-51.9674 1193.66,-51.6577 1244.71,-52.0096"/>
<polygon fill="orange" stroke="orange" points="1056.79,-51.7874 1047.03,-55.9098 1057.23,-58.7735 1056.79,-51.7874"/>
<text text-anchor="middle" x="1147" y="-57.5" font-family="Helvetica,sans-Serif" font-size="10.00"> &lt; Ir&lt; ValueType &gt; &gt;</text>
</g>
<!-- Node18 -->
<g id="node18" class="node"><title>Node18</title>
<g id="a_node18"><a xlink:href="classgko_1_1EnablePolymorphicAssignment.html" target="_top" xlink:title="gko::EnablePolymorphicAssignment\l\&lt; ConcreteLinOp \&gt;">
<polygon fill="white" stroke="black" points="1245,-95.5 1245,-125.5 1433,-125.5 1433,-95.5 1245,-95.5"/>
<text text-anchor="start" x="1253" y="-113.5" font-family="Helvetica,sans-Serif" font-size="10.00">gko::EnablePolymorphicAssignment</text>
<text text-anchor="middle" x="1339" y="-102.5" font-family="Helvetica,sans-Serif" font-size="10.00">&lt; ConcreteLinOp &gt;</text>
</a>
</g>
</g>
<!-- Node14&#45;&gt;Node18 -->
<g id="edge27" class="edge"><title>Node14&#45;&gt;Node18</title>
<path fill="none" stroke="orange" stroke-dasharray="5,2" d="M1057.16,-76.7866C1106.97,-82.7268 1167.59,-89.9686 1222,-96.5 1229.45,-97.3946 1237.17,-98.323 1244.93,-99.2568"/>
<polygon fill="orange" stroke="orange" points="1057.37,-73.2869 1047.03,-75.5781 1056.54,-80.2376 1057.37,-73.2869"/>
<text text-anchor="middle" x="1147" y="-99.5" font-family="Helvetica,sans-Serif" font-size="10.00"> &lt; ConcreteLinOp &gt;</text>
</g>
<!-- Node15 -->
<g id="node15" class="node"><title>Node15</title>
<g id="a_node15"><a xlink:href="classgko_1_1EnableLinOp.html" target="_top" xlink:title="The EnableLinOp mixin can be used to provide sensible default implementations of the majority of the ...">
<polygon fill="white" stroke="black" points="1478.5,-124.5 1478.5,-154.5 1632.5,-154.5 1632.5,-124.5 1478.5,-124.5"/>
<text text-anchor="start" x="1486.5" y="-142.5" font-family="Helvetica,sans-Serif" font-size="10.00">gko::EnableLinOp&lt; Concrete</text>
<text text-anchor="middle" x="1555.5" y="-131.5" font-family="Helvetica,sans-Serif" font-size="10.00">LinOp, PolymorphicBase &gt;</text>
</a>
</g>
</g>
<!-- Node15&#45;&gt;Node2 -->
<g id="edge18" class="edge"><title>Node15&#45;&gt;Node2</title>
<path fill="none" stroke="orange" stroke-dasharray="5,2" d="M1642.73,-139.5C1685.52,-139.5 1736.03,-139.5 1773.95,-139.5"/>
<polygon fill="orange" stroke="orange" points="1642.6,-136 1632.6,-139.5 1642.6,-143 1642.6,-136"/>
<text text-anchor="middle" x="1705" y="-142.5" font-family="Helvetica,sans-Serif" font-size="10.00"> &lt; Ir&lt; ValueType &gt; &gt;</text>
</g>
<!-- Node16&#45;&gt;Node15 -->
<g id="edge19" class="edge"><title>Node16&#45;&gt;Node15</title>
<path fill="none" stroke="midnightblue" d="M1448.26,-149.405C1458.39,-148.461 1468.5,-147.518 1478.24,-146.61"/>
<polygon fill="midnightblue" stroke="midnightblue" points="1447.78,-145.935 1438.15,-150.349 1448.43,-152.905 1447.78,-145.935"/>
</g>
<!-- Node17&#45;&gt;Node16 -->
<g id="edge20" class="edge"><title>Node17&#45;&gt;Node16</title>
<path fill="none" stroke="midnightblue" d="M722.95,-157.795C862.329,-158.181 1104.76,-158.853 1239.88,-159.228"/>
<polygon fill="midnightblue" stroke="midnightblue" points="722.692,-154.294 712.683,-157.767 722.673,-161.294 722.692,-154.294"/>
</g>
<!-- Node18&#45;&gt;Node15 -->
<g id="edge24" class="edge"><title>Node18&#45;&gt;Node15</title>
<path fill="none" stroke="midnightblue" d="M1443.41,-124.481C1455.13,-126.065 1466.9,-127.657 1478.18,-129.181"/>
<polygon fill="midnightblue" stroke="midnightblue" points="1443.53,-120.965 1433.15,-123.093 1442.59,-127.902 1443.53,-120.965"/>
</g>
<!-- Node19&#45;&gt;Node18 -->
<g id="edge25" class="edge"><title>Node19&#45;&gt;Node18</title>
<path fill="none" stroke="midnightblue" d="M1018.24,-112.998C1080.2,-112.514 1174.65,-111.776 1244.86,-111.228"/>
<polygon fill="midnightblue" stroke="midnightblue" points="1018.18,-109.498 1008.2,-113.077 1018.23,-116.498 1018.18,-109.498"/>
</g>
</g>
</svg>
        <g id="navigator" transform="translate(0 0)" fill="#404254">
                <rect fill="#f2f5e9" fill-opacity="0.5" stroke="#606060" stroke-width=".5" x="0" y="0" width="60" height="60"/>
                <use id="zoomplus" xlink:href="#zoomPlus" x="17" y="9" onmousedown="handleZoom(evt,'in')"/>
                <use id="zoomminus" xlink:href="#zoomMin" x="42" y="9" onmousedown="handleZoom(evt,'out')"/>
                <use id="reset" xlink:href="#resetDef" x="30" y="36" onmousedown="handleReset()"/>
                <g id="arrowUp" xlink:href="#dirArrow" transform="translate(30 24)" onmousedown="handlePan(0,-1)">
                  <use xlink:href="#rim" fill="#404040">
                        <set attributeName="fill" to="#808080" begin="arrowUp.mouseover" end="arrowUp.mouseout"/>
                  </use>
                  <path fill="none" stroke="white" stroke-width="1.5" d="M0,-3.0v7 M-2.5,-0.5L0,-3.0L2.5,-0.5"/>
                </g>
                <g id="arrowRight" xlink:href="#dirArrow" transform="rotate(90) translate(36 -43)" onmousedown="handlePan(1,0)">
                  <use xlink:href="#rim" fill="#404040">
                        <set attributeName="fill" to="#808080" begin="arrowRight.mouseover" end="arrowRight.mouseout"/>
                  </use>
                  <path fill="none" stroke="white" stroke-width="1.5" d="M0,-3.0v7 M-2.5,-0.5L0,-3.0L2.5,-0.5"/>
                </g>
                <g id="arrowDown" xlink:href="#dirArrow" transform="rotate(180) translate(-30 -48)" onmousedown="handlePan(0,1)">
                  <use xlink:href="#rim" fill="#404040">
                        <set attributeName="fill" to="#808080" begin="arrowDown.mouseover" end="arrowDown.mouseout"/>
                  </use>
                  <path fill="none" stroke="white" stroke-width="1.5" d="M0,-3.0v7 M-2.5,-0.5L0,-3.0L2.5,-0.5"/>
                </g>
                <g id="arrowLeft" xlink:href="#dirArrow" transform="rotate(270) translate(-36 17)" onmousedown="handlePan(-1,0)">
                  <use xlink:href="#rim" fill="#404040">
                        <set attributeName="fill" to="#808080" begin="arrowLeft.mouseover" end="arrowLeft.mouseout"/>
                  </use>
                  <path fill="none" stroke="white" stroke-width="1.5" d="M0,-3.0v7 M-2.5,-0.5L0,-3.0L2.5,-0.5"/>
                </g>
        </g>
        <svg viewBox="0 0 15 15" width="100%" height="30px" preserveAspectRatio="xMaxYMin meet">
         <g id="arrow_out" transform="scale(0.3 0.3)">
          <a xlink:href="classgko_1_1solver_1_1Ir__coll__graph_org.svg" target="_base">
           <rect id="button" ry="5" rx="5" y="6" x="6" height="38" width="38"
                fill="#f2f5e9" fill-opacity="0.5" stroke="#606060" stroke-width="1.0"/>
           <path id="arrow"
             d="M 11.500037,31.436501 C 11.940474,20.09759 22.043105,11.32322 32.158766,21.979434 L 37.068811,17.246167 C 37.068811,17.246167 37.088388,32 37.088388,32 L 22.160133,31.978069 C 22.160133,31.978069 26.997745,27.140456 26.997745,27.140456 C 18.528582,18.264221 13.291696,25.230495 11.500037,31.436501 z"
             style="fill:#404040;"/>
          </a>
         </g>
        </svg>
</svg>
