<?xml version="1.0" encoding="UTF-8" standalone="no"?>
<!DOCTYPE svg PUBLIC "-//W3C//DTD SVG 1.1//EN"
 "http://www.w3.org/Graphics/SVG/1.1/DTD/svg11.dtd">
<!-- Generated by graphviz version 2.38.0 (20140413.2041)
 -->
<!-- Title: gko::solver::Fcg&lt; ValueType &gt; Pages: 1 -->
<svg width="1544pt" height="112pt"
 viewBox="0.00 0.00 1544.00 112.00" xmlns="http://www.w3.org/2000/svg" xmlns:xlink="http://www.w3.org/1999/xlink">
<g id="graph0" class="graph" transform="scale(1 1) rotate(0) translate(4 108)">
<title>gko::solver::Fcg&lt; ValueType &gt;</title>
<polygon fill="white" stroke="none" points="-4,4 -4,-108 1540,-108 1540,4 -4,4"/>
<!-- Node1 -->
<g id="node1" class="node"><title>Node1</title>
<polygon fill="#bfbfbf" stroke="black" points="1375,-22.5 1375,-41.5 1536,-41.5 1536,-22.5 1375,-22.5"/>
<text text-anchor="middle" x="1455.5" y="-29.5" font-family="Helvetica,sans-Serif" font-size="10.00">gko::solver::Fcg&lt; ValueType &gt;</text>
</g>
<!-- Node2 -->
<g id="node2" class="node"><title>Node2</title>
<g id="a_node2"><a xlink:href="classgko_1_1EnableLinOp.html" target="_top" xlink:title="gko::EnableLinOp\&lt; Fcg\l\&lt; ValueType \&gt; \&gt;">
<polygon fill="white" stroke="black" points="1212,-39 1212,-69 1339,-69 1339,-39 1212,-39"/>
<text text-anchor="start" x="1220" y="-57" font-family="Helvetica,sans-Serif" font-size="10.00">gko::EnableLinOp&lt; Fcg</text>
<text text-anchor="middle" x="1275.5" y="-46" font-family="Helvetica,sans-Serif" font-size="10.00">&lt; ValueType &gt; &gt;</text>
</a>
</g>
</g>
<!-- Node2&#45;&gt;Node1 -->
<g id="edge1" class="edge"><title>Node2&#45;&gt;Node1</title>
<path fill="none" stroke="midnightblue" d="M1349.04,-45.0339C1358.4,-43.8769 1368.02,-42.6889 1377.45,-41.5233"/>
<polygon fill="midnightblue" stroke="midnightblue" points="1348.5,-41.5743 1339.01,-46.2746 1349.36,-48.5214 1348.5,-41.5743"/>
</g>
<!-- Node3 -->
<g id="node3" class="node"><title>Node3</title>
<g id="a_node3"><a xlink:href="classgko_1_1EnablePolymorphicObject.html" target="_top" xlink:title="gko::EnablePolymorphicObject\l\&lt; Fcg\&lt; ValueType \&gt;, LinOp \&gt;">
<polygon fill="white" stroke="black" points="1001.5,-66 1001.5,-96 1162.5,-96 1162.5,-66 1001.5,-66"/>
<text text-anchor="start" x="1009.5" y="-84" font-family="Helvetica,sans-Serif" font-size="10.00">gko::EnablePolymorphicObject</text>
<text text-anchor="middle" x="1082" y="-73" font-family="Helvetica,sans-Serif" font-size="10.00">&lt; Fcg&lt; ValueType &gt;, LinOp &gt;</text>
</a>
</g>
</g>
<!-- Node3&#45;&gt;Node2 -->
<g id="edge2" class="edge"><title>Node3&#45;&gt;Node2</title>
<path fill="none" stroke="midnightblue" d="M1172.63,-68.3624C1185.88,-66.4945 1199.29,-64.6045 1211.83,-62.8361"/>
<polygon fill="midnightblue" stroke="midnightblue" points="1171.96,-64.9222 1162.55,-69.7841 1172.94,-71.8537 1171.96,-64.9222"/>
</g>
<!-- Node4 -->
<g id="node4" class="node"><title>Node4</title>
<g id="a_node4"><a xlink:href="classgko_1_1EnableAbstractPolymorphicObject.html" target="_top" xlink:title="gko::EnableAbstractPolymorphic\lObject\&lt; Fcg\&lt; ValueType \&gt;,\l LinOp \&gt;">
<polygon fill="white" stroke="black" points="781,-62.5 781,-103.5 952,-103.5 952,-62.5 781,-62.5"/>
<text text-anchor="start" x="789" y="-91.5" font-family="Helvetica,sans-Serif" font-size="10.00">gko::EnableAbstractPolymorphic</text>
<text text-anchor="start" x="789" y="-80.5" font-family="Helvetica,sans-Serif" font-size="10.00">Object&lt; Fcg&lt; ValueType &gt;,</text>
<text text-anchor="middle" x="866.5" y="-69.5" font-family="Helvetica,sans-Serif" font-size="10.00"> LinOp &gt;</text>
</a>
</g>
</g>
<!-- Node4&#45;&gt;Node3 -->
<g id="edge3" class="edge"><title>Node4&#45;&gt;Node3</title>
<path fill="none" stroke="midnightblue" d="M962.508,-82.11C975.457,-81.9887 988.639,-81.8652 1001.28,-81.7468"/>
<polygon fill="midnightblue" stroke="midnightblue" points="962.154,-78.6131 952.187,-82.2067 962.22,-85.6128 962.154,-78.6131"/>
</g>
<!-- Node5 -->
<g id="node5" class="node"><title>Node5</title>
<g id="a_node5"><a xlink:href="classgko_1_1LinOp.html" target="_top" xlink:title="The linear operator (LinOp) is a base class for all linear algebra objects in Ginkgo. ">
<polygon fill="white" stroke="black" points="678,-73.5 678,-92.5 745,-92.5 745,-73.5 678,-73.5"/>
<text text-anchor="middle" x="711.5" y="-80.5" font-family="Helvetica,sans-Serif" font-size="10.00">gko::LinOp</text>
</a>
</g>
</g>
<!-- Node5&#45;&gt;Node4 -->
<g id="edge4" class="edge"><title>Node5&#45;&gt;Node4</title>
<path fill="none" stroke="midnightblue" d="M755.465,-83C763.479,-83 772.105,-83 780.874,-83"/>
<polygon fill="midnightblue" stroke="midnightblue" points="755.322,-79.5001 745.322,-83 755.322,-86.5001 755.322,-79.5001"/>
</g>
<!-- Node6 -->
<g id="node6" class="node"><title>Node6</title>
<g id="a_node6"><a xlink:href="classgko_1_1EnableAbstractPolymorphicObject.html" target="_top" xlink:title="gko::EnableAbstractPolymorphic\lObject\&lt; LinOp \&gt;">
<polygon fill="white" stroke="black" points="471,-68 471,-98 642,-98 642,-68 471,-68"/>
<text text-anchor="start" x="479" y="-86" font-family="Helvetica,sans-Serif" font-size="10.00">gko::EnableAbstractPolymorphic</text>
<text text-anchor="middle" x="556.5" y="-75" font-family="Helvetica,sans-Serif" font-size="10.00">Object&lt; LinOp &gt;</text>
</a>
</g>
</g>
<!-- Node6&#45;&gt;Node5 -->
<g id="edge5" class="edge"><title>Node6&#45;&gt;Node5</title>
<path fill="none" stroke="midnightblue" d="M652.098,-83C661.246,-83 670.027,-83 677.877,-83"/>
<polygon fill="midnightblue" stroke="midnightblue" points="652.055,-79.5001 642.055,-83 652.055,-86.5001 652.055,-79.5001"/>
</g>
<!-- Node7 -->
<g id="node7" class="node"><title>Node7</title>
<g id="a_node7"><a xlink:href="classgko_1_1PolymorphicObject.html" target="_top" xlink:title="A PolymorphicObject is the abstract base for all &quot;heavy&quot; objects in Ginkgo that behave polymorphicall...">
<polygon fill="white" stroke="black" points="306,-73.5 306,-92.5 435,-92.5 435,-73.5 306,-73.5"/>
<text text-anchor="middle" x="370.5" y="-80.5" font-family="Helvetica,sans-Serif" font-size="10.00">gko::PolymorphicObject</text>
</a>
</g>
</g>
<!-- Node7&#45;&gt;Node6 -->
<g id="edge6" class="edge"><title>Node7&#45;&gt;Node6</title>
<path fill="none" stroke="midnightblue" d="M445.224,-83C453.644,-83 462.276,-83 470.824,-83"/>
<polygon fill="midnightblue" stroke="midnightblue" points="445.08,-79.5001 435.08,-83 445.08,-86.5001 445.08,-79.5001"/>
</g>
<!-- Node8 -->
<g id="node8" class="node"><title>Node8</title>
<g id="a_node8"><a xlink:href="classgko_1_1log_1_1EnableLogging.html" target="_top" xlink:title="gko::log::EnableLogging\l\&lt; PolymorphicObject \&gt;">
<polygon fill="white" stroke="black" points="140,-68 140,-98 270,-98 270,-68 140,-68"/>
<text text-anchor="start" x="148" y="-86" font-family="Helvetica,sans-Serif" font-size="10.00">gko::log::EnableLogging</text>
<text text-anchor="middle" x="205" y="-75" font-family="Helvetica,sans-Serif" font-size="10.00">&lt; PolymorphicObject &gt;</text>
</a>
</g>
</g>
<!-- Node8&#45;&gt;Node7 -->
<g id="edge7" class="edge"><title>Node8&#45;&gt;Node7</title>
<path fill="none" stroke="midnightblue" d="M280.416,-83C288.895,-83 297.48,-83 305.803,-83"/>
<polygon fill="midnightblue" stroke="midnightblue" points="280.15,-79.5001 270.15,-83 280.15,-86.5001 280.15,-79.5001"/>
</g>
<!-- Node9 -->
<g id="node9" class="node"><title>Node9</title>
<g id="a_node9"><a xlink:href="classgko_1_1log_1_1Loggable.html" target="_top" xlink:title="Loggable class is an interface which should be implemented by classes wanting to support logging...">
<polygon fill="white" stroke="black" points="0,-73.5 0,-92.5 104,-92.5 104,-73.5 0,-73.5"/>
<text text-anchor="middle" x="52" y="-80.5" font-family="Helvetica,sans-Serif" font-size="10.00">gko::log::Loggable</text>
</a>
</g>
</g>
<!-- Node9&#45;&gt;Node8 -->
<g id="edge8" class="edge"><title>Node9&#45;&gt;Node8</title>
<path fill="none" stroke="midnightblue" d="M114.245,-83C122.668,-83 131.337,-83 139.812,-83"/>
<polygon fill="midnightblue" stroke="midnightblue" points="114.122,-79.5001 104.122,-83 114.122,-86.5001 114.122,-79.5001"/>
</g>
<!-- Node10 -->
<g id="node10" class="node"><title>Node10</title>
<g id="a_node10"><a xlink:href="classgko_1_1EnablePolymorphicAssignment.html" target="_top" xlink:title="gko::EnablePolymorphicAssignment\l\&lt; Fcg\&lt; ValueType \&gt; \&gt;">
<polygon fill="white" stroke="black" points="988,-15 988,-45 1176,-45 1176,-15 988,-15"/>
<text text-anchor="start" x="996" y="-33" font-family="Helvetica,sans-Serif" font-size="10.00">gko::EnablePolymorphicAssignment</text>
<text text-anchor="middle" x="1082" y="-22" font-family="Helvetica,sans-Serif" font-size="10.00">&lt; Fcg&lt; ValueType &gt; &gt;</text>
</a>
</g>
</g>
<!-- Node10&#45;&gt;Node2 -->
<g id="edge9" class="edge"><title>Node10&#45;&gt;Node2</title>
<path fill="none" stroke="midnightblue" d="M1186.41,-42.9605C1195.07,-44.0459 1203.65,-45.1207 1211.86,-46.1492"/>
<polygon fill="midnightblue" stroke="midnightblue" points="1186.58,-39.4544 1176.23,-41.6836 1185.71,-46.4001 1186.58,-39.4544"/>
</g>
<!-- Node11 -->
<g id="node11" class="node"><title>Node11</title>
<g id="a_node11"><a xlink:href="classgko_1_1ConvertibleTo.html" target="_top" xlink:title="gko::ConvertibleTo\l\&lt; Fcg\&lt; ValueType \&gt; \&gt;">
<polygon fill="white" stroke="black" points="804,-14 804,-44 929,-44 929,-14 804,-14"/>
<text text-anchor="start" x="812" y="-32" font-family="Helvetica,sans-Serif" font-size="10.00">gko::ConvertibleTo</text>
<text text-anchor="middle" x="866.5" y="-21" font-family="Helvetica,sans-Serif" font-size="10.00">&lt; Fcg&lt; ValueType &gt; &gt;</text>
</a>
</g>
</g>
<!-- Node11&#45;&gt;Node10 -->
<g id="edge10" class="edge"><title>Node11&#45;&gt;Node10</title>
<path fill="none" stroke="midnightblue" d="M939.339,-29.3365C954.957,-29.4096 971.695,-29.488 987.999,-29.5644"/>
<polygon fill="midnightblue" stroke="midnightblue" points="939.269,-25.8362 929.253,-29.2892 939.237,-32.8361 939.269,-25.8362"/>
</g>
<!-- Node12 -->
<g id="node12" class="node"><title>Node12</title>
<g id="a_node12"><a xlink:href="classgko_1_1Preconditionable.html" target="_top" xlink:title="A LinOp implementing this interface can be preconditioned. ">
<polygon fill="white" stroke="black" points="1216,-0.5 1216,-19.5 1335,-19.5 1335,-0.5 1216,-0.5"/>
<text text-anchor="middle" x="1275.5" y="-7.5" font-family="Helvetica,sans-Serif" font-size="10.00">gko::Preconditionable</text>
</a>
</g>
</g>
<!-- Node12&#45;&gt;Node1 -->
<g id="edge11" class="edge"><title>Node12&#45;&gt;Node1</title>
<path fill="none" stroke="midnightblue" d="M1345.23,-18.4943C1355.75,-19.7953 1366.68,-21.1457 1377.37,-22.4673"/>
<polygon fill="midnightblue" stroke="midnightblue" points="1345.63,-15.0177 1335.28,-17.2646 1344.77,-21.9649 1345.63,-15.0177"/>
</g>
</g>
</svg>
