<?xml version="1.0" encoding="UTF-8" standalone="no"?>
<!DOCTYPE svg PUBLIC "-//W3C//DTD SVG 1.1//EN"
 "http://www.w3.org/Graphics/SVG/1.1/DTD/svg11.dtd">
<!-- Generated by graphviz version 2.38.0 (20140413.2041)
 -->
<!-- Title: gko::solver::Ir&lt; ValueType &gt;::Factory Pages: 1 -->
<svg width="1797pt" height="201pt"
 viewBox="0.00 0.00 1797.00 201.24" xmlns="http://www.w3.org/2000/svg" xmlns:xlink="http://www.w3.org/1999/xlink">
<g id="graph0" class="graph" transform="scale(1 1) rotate(0) translate(4 197.239)">
<title>gko::solver::Ir&lt; ValueType &gt;::Factory</title>
<polygon fill="white" stroke="none" points="-4,4 -4,-197.239 1793,-197.239 1793,4 -4,4"/>
<!-- Node1 -->
<g id="node1" class="node"><title>Node1</title>
<polygon fill="#bfbfbf" stroke="black" points="1650,-76.5 1650,-106.5 1789,-106.5 1789,-76.5 1650,-76.5"/>
<text text-anchor="start" x="1658" y="-94.5" font-family="Helvetica,sans-Serif" font-size="10.00">gko::solver::Ir&lt; ValueType</text>
<text text-anchor="middle" x="1719.5" y="-83.5" font-family="Helvetica,sans-Serif" font-size="10.00"> &gt;::Factory</text>
</g>
<!-- Node2 -->
<g id="node2" class="node"><title>Node2</title>
<g id="a_node2"><a xlink:href="classgko_1_1EnableDefaultFactory.html" target="_top" xlink:title="This mixin provides a default implementation of a concrete factory. ">
<polygon fill="white" stroke="black" points="1439,-76.5 1439,-106.5 1613,-106.5 1613,-76.5 1439,-76.5"/>
<text text-anchor="start" x="1447" y="-94.5" font-family="Helvetica,sans-Serif" font-size="10.00">gko::EnableDefaultLinOpFactory</text>
<text text-anchor="middle" x="1526" y="-83.5" font-family="Helvetica,sans-Serif" font-size="10.00">&lt; Factory, Ir, parameters_type &gt;</text>
</a>
</g>
</g>
<!-- Node2&#45;&gt;Node1 -->
<g id="edge1" class="edge"><title>Node2&#45;&gt;Node1</title>
<path fill="none" stroke="midnightblue" d="M1623.36,-91.5C1632.34,-91.5 1641.32,-91.5 1649.97,-91.5"/>
<polygon fill="midnightblue" stroke="midnightblue" points="1623.23,-88.0001 1613.23,-91.5 1623.23,-95.0001 1623.23,-88.0001"/>
</g>
<!-- Node3 -->
<g id="node3" class="node"><title>Node3</title>
<g id="a_node3"><a xlink:href="classgko_1_1EnablePolymorphicObject.html" target="_top" xlink:title="gko::EnablePolymorphicObject\l\&lt; ConcreteFactory, PolymorphicBase \&gt;">
<polygon fill="white" stroke="black" points="1196,-98.5 1196,-128.5 1402,-128.5 1402,-98.5 1196,-98.5"/>
<text text-anchor="start" x="1204" y="-116.5" font-family="Helvetica,sans-Serif" font-size="10.00">gko::EnablePolymorphicObject</text>
<text text-anchor="middle" x="1299" y="-105.5" font-family="Helvetica,sans-Serif" font-size="10.00">&lt; ConcreteFactory, PolymorphicBase &gt;</text>
</a>
</g>
</g>
<!-- Node3&#45;&gt;Node2 -->
<g id="edge2" class="edge"><title>Node3&#45;&gt;Node2</title>
<path fill="none" stroke="midnightblue" d="M1412.32,-102.518C1421.21,-101.649 1430.1,-100.779 1438.77,-99.9316"/>
<polygon fill="midnightblue" stroke="midnightblue" points="1411.91,-99.0412 1402.3,-103.498 1412.59,-106.008 1411.91,-99.0412"/>
</g>
<!-- Node4 -->
<g id="node4" class="node"><title>Node4</title>
<g id="a_node4"><a xlink:href="classgko_1_1EnableAbstractPolymorphicObject.html" target="_top" xlink:title="gko::EnableAbstractPolymorphic\lObject\&lt; ConcreteFactory,\l PolymorphicBase \&gt;">
<polygon fill="white" stroke="black" points="530,-147 530,-188 701,-188 701,-147 530,-147"/>
<text text-anchor="start" x="538" y="-176" font-family="Helvetica,sans-Serif" font-size="10.00">gko::EnableAbstractPolymorphic</text>
<text text-anchor="start" x="538" y="-165" font-family="Helvetica,sans-Serif" font-size="10.00">Object&lt; ConcreteFactory,</text>
<text text-anchor="middle" x="615.5" y="-154" font-family="Helvetica,sans-Serif" font-size="10.00"> PolymorphicBase &gt;</text>
</a>
</g>
</g>
<!-- Node4&#45;&gt;Node3 -->
<g id="edge3" class="edge"><title>Node4&#45;&gt;Node3</title>
<path fill="none" stroke="midnightblue" d="M711.328,-167.486C823.31,-166.382 1014.97,-161.079 1178,-139.5 1197.65,-136.899 1218.86,-132.756 1237.91,-128.535"/>
<polygon fill="midnightblue" stroke="midnightblue" points="711.045,-163.988 701.077,-167.577 711.108,-170.988 711.045,-163.988"/>
</g>
<!-- Node5 -->
<g id="node5" class="node"><title>Node5</title>
<polygon fill="white" stroke="#bfbfbf" points="0,-130 0,-149 99,-149 99,-130 0,-130"/>
<text text-anchor="middle" x="49.5" y="-137" font-family="Helvetica,sans-Serif" font-size="10.00">PolymorphicBase</text>
</g>
<!-- Node5&#45;&gt;Node4 -->
<g id="edge4" class="edge"><title>Node5&#45;&gt;Node4</title>
<path fill="none" stroke="midnightblue" d="M81.8951,-152.811C97.8141,-158.966 117.623,-165.733 136,-169.5 294.165,-201.919 337.929,-194.603 499,-183.5 508.997,-182.811 519.446,-181.79 529.799,-180.592"/>
<polygon fill="midnightblue" stroke="midnightblue" points="83.1192,-149.531 72.5335,-149.09 80.5336,-156.036 83.1192,-149.531"/>
</g>
<!-- Node6 -->
<g id="node6" class="node"><title>Node6</title>
<g id="a_node6"><a xlink:href="classgko_1_1EnableAbstractPolymorphicObject.html" target="_top" xlink:title="This mixin inherits from (a subclass of) PolymorphicObject and provides a base implementation of a ne...">
<polygon fill="white" stroke="black" points="136,-119 136,-160 327,-160 327,-119 136,-119"/>
<text text-anchor="start" x="144" y="-148" font-family="Helvetica,sans-Serif" font-size="10.00">gko::EnableAbstractPolymorphic</text>
<text text-anchor="start" x="144" y="-137" font-family="Helvetica,sans-Serif" font-size="10.00">Object&lt; AbstactObject, Polymorphic</text>
<text text-anchor="middle" x="231.5" y="-126" font-family="Helvetica,sans-Serif" font-size="10.00">Base &gt;</text>
</a>
</g>
</g>
<!-- Node5&#45;&gt;Node6 -->
<g id="edge6" class="edge"><title>Node5&#45;&gt;Node6</title>
<path fill="none" stroke="midnightblue" d="M109.403,-139.5C117.953,-139.5 126.93,-139.5 135.968,-139.5"/>
<polygon fill="midnightblue" stroke="midnightblue" points="109.211,-136 99.2106,-139.5 109.211,-143 109.211,-136"/>
</g>
<!-- Node8 -->
<g id="node8" class="node"><title>Node8</title>
<g id="a_node8"><a xlink:href="classgko_1_1EnableAbstractPolymorphicObject.html" target="_top" xlink:title="gko::EnableAbstractPolymorphic\lObject\&lt; ConcreteObject, Polymorphic\lBase \&gt;">
<polygon fill="white" stroke="black" points="517,-87 517,-128 714,-128 714,-87 517,-87"/>
<text text-anchor="start" x="525" y="-116" font-family="Helvetica,sans-Serif" font-size="10.00">gko::EnableAbstractPolymorphic</text>
<text text-anchor="start" x="525" y="-105" font-family="Helvetica,sans-Serif" font-size="10.00">Object&lt; ConcreteObject, Polymorphic</text>
<text text-anchor="middle" x="615.5" y="-94" font-family="Helvetica,sans-Serif" font-size="10.00">Base &gt;</text>
</a>
</g>
</g>
<!-- Node5&#45;&gt;Node8 -->
<g id="edge9" class="edge"><title>Node5&#45;&gt;Node8</title>
<path fill="none" stroke="midnightblue" d="M80.8142,-126.091C96.8724,-119.704 117.13,-112.761 136,-109.5 266.363,-86.972 419.702,-91.6981 516.985,-98.488"/>
<polygon fill="midnightblue" stroke="midnightblue" points="79.3267,-122.918 71.4083,-129.957 81.9881,-129.392 79.3267,-122.918"/>
</g>
<!-- Node6&#45;&gt;Node4 -->
<g id="edge5" class="edge"><title>Node6&#45;&gt;Node4</title>
<path fill="none" stroke="orange" stroke-dasharray="5,2" d="M337.763,-147.216C398.242,-151.649 473.195,-157.143 529.836,-161.294"/>
<polygon fill="orange" stroke="orange" points="337.647,-143.698 327.418,-146.457 337.135,-150.679 337.647,-143.698"/>
<text text-anchor="start" x="373.5" y="-172.5" font-family="Helvetica,sans-Serif" font-size="10.00"> &lt; ConcreteFactory,</text>
<text text-anchor="middle" x="422" y="-161.5" font-family="Helvetica,sans-Serif" font-size="10.00"> PolymorphicBase &gt;</text>
</g>
<!-- Node6&#45;&gt;Node8 -->
<g id="edge10" class="edge"><title>Node6&#45;&gt;Node8</title>
<path fill="none" stroke="orange" stroke-dasharray="5,2" d="M337.311,-123.333C339.898,-123.04 342.464,-122.762 345,-122.5 401.752,-116.646 465.479,-112.967 516.71,-110.719"/>
<polygon fill="orange" stroke="orange" points="336.767,-119.873 327.25,-124.529 337.594,-126.824 336.767,-119.873"/>
<text text-anchor="start" x="345" y="-136.5" font-family="Helvetica,sans-Serif" font-size="10.00"> &lt; ConcreteObject, Polymorphic</text>
<text text-anchor="middle" x="422" y="-125.5" font-family="Helvetica,sans-Serif" font-size="10.00">Base &gt;</text>
</g>
<!-- Node7 -->
<g id="node7" class="node"><title>Node7</title>
<g id="a_node7"><a xlink:href="classgko_1_1EnablePolymorphicObject.html" target="_top" xlink:title="This mixin inherits from (a subclass of) PolymorphicObject and provides a base implementation of a ne...">
<polygon fill="white" stroke="black" points="854,-98.5 854,-128.5 1056,-128.5 1056,-98.5 854,-98.5"/>
<text text-anchor="start" x="862" y="-116.5" font-family="Helvetica,sans-Serif" font-size="10.00">gko::EnablePolymorphicObject</text>
<text text-anchor="middle" x="955" y="-105.5" font-family="Helvetica,sans-Serif" font-size="10.00">&lt; ConcreteObject, PolymorphicBase &gt;</text>
</a>
</g>
</g>
<!-- Node7&#45;&gt;Node3 -->
<g id="edge7" class="edge"><title>Node7&#45;&gt;Node3</title>
<path fill="none" stroke="orange" stroke-dasharray="5,2" d="M1066.47,-113.5C1108.06,-113.5 1155.13,-113.5 1195.92,-113.5"/>
<polygon fill="orange" stroke="orange" points="1066.3,-110 1056.3,-113.5 1066.3,-117 1066.3,-110"/>
<text text-anchor="start" x="1077.5" y="-127.5" font-family="Helvetica,sans-Serif" font-size="10.00"> &lt; ConcreteFactory,</text>
<text text-anchor="middle" x="1126" y="-116.5" font-family="Helvetica,sans-Serif" font-size="10.00"> PolymorphicBase &gt;</text>
</g>
<!-- Node8&#45;&gt;Node7 -->
<g id="edge8" class="edge"><title>Node8&#45;&gt;Node7</title>
<path fill="none" stroke="midnightblue" d="M724.281,-109.416C765.861,-110.155 813.147,-110.996 853.964,-111.722"/>
<polygon fill="midnightblue" stroke="midnightblue" points="724.18,-105.914 714.119,-109.235 724.055,-112.913 724.18,-105.914"/>
</g>
<!-- Node9 -->
<g id="node9" class="node"><title>Node9</title>
<g id="a_node9"><a xlink:href="classgko_1_1EnablePolymorphicAssignment.html" target="_top" xlink:title="gko::EnablePolymorphicAssignment\l\&lt; ConcreteFactory \&gt;">
<polygon fill="white" stroke="black" points="1205,-49.5 1205,-79.5 1393,-79.5 1393,-49.5 1205,-49.5"/>
<text text-anchor="start" x="1213" y="-67.5" font-family="Helvetica,sans-Serif" font-size="10.00">gko::EnablePolymorphicAssignment</text>
<text text-anchor="middle" x="1299" y="-56.5" font-family="Helvetica,sans-Serif" font-size="10.00">&lt; ConcreteFactory &gt;</text>
</a>
</g>
</g>
<!-- Node9&#45;&gt;Node2 -->
<g id="edge11" class="edge"><title>Node9&#45;&gt;Node2</title>
<path fill="none" stroke="midnightblue" d="M1403.11,-76.8738C1415.04,-78.3051 1427.11,-79.7535 1438.78,-81.1539"/>
<polygon fill="midnightblue" stroke="midnightblue" points="1403.49,-73.3933 1393.14,-75.6768 1402.65,-80.3434 1403.49,-73.3933"/>
</g>
<!-- Node10 -->
<g id="node10" class="node"><title>Node10</title>
<g id="a_node10"><a xlink:href="classgko_1_1ConvertibleTo.html" target="_top" xlink:title="gko::ConvertibleTo\l\&lt; ConcreteFactory \&gt;">
<polygon fill="white" stroke="black" points="896.5,-49.5 896.5,-79.5 1013.5,-79.5 1013.5,-49.5 896.5,-49.5"/>
<text text-anchor="start" x="904.5" y="-67.5" font-family="Helvetica,sans-Serif" font-size="10.00">gko::ConvertibleTo</text>
<text text-anchor="middle" x="955" y="-56.5" font-family="Helvetica,sans-Serif" font-size="10.00">&lt; ConcreteFactory &gt;</text>
</a>
</g>
</g>
<!-- Node10&#45;&gt;Node9 -->
<g id="edge12" class="edge"><title>Node10&#45;&gt;Node9</title>
<path fill="none" stroke="midnightblue" d="M1023.72,-64.5C1075.56,-64.5 1147.67,-64.5 1204.93,-64.5"/>
<polygon fill="midnightblue" stroke="midnightblue" points="1023.63,-61.0001 1013.63,-64.5 1023.63,-68.0001 1023.63,-61.0001"/>
</g>
<!-- Node11 -->
<g id="node11" class="node"><title>Node11</title>
<g id="a_node11"><a xlink:href="classgko_1_1ConvertibleTo.html" target="_top" xlink:title="ConvertibleTo interface is used to mark that the implementer can be converted to the object of Result...">
<polygon fill="white" stroke="black" points="563.5,-22.5 563.5,-52.5 667.5,-52.5 667.5,-22.5 563.5,-22.5"/>
<text text-anchor="start" x="571.5" y="-40.5" font-family="Helvetica,sans-Serif" font-size="10.00">gko::ConvertibleTo</text>
<text text-anchor="middle" x="615.5" y="-29.5" font-family="Helvetica,sans-Serif" font-size="10.00">&lt; ResultType &gt;</text>
</a>
</g>
</g>
<!-- Node11&#45;&gt;Node10 -->
<g id="edge13" class="edge"><title>Node11&#45;&gt;Node10</title>
<path fill="none" stroke="orange" stroke-dasharray="5,2" d="M677.821,-42.4057C739.995,-47.3796 835.473,-55.0178 896.31,-59.8848"/>
<polygon fill="orange" stroke="orange" points="678.006,-38.9094 667.759,-41.6007 677.448,-45.8871 678.006,-38.9094"/>
<text text-anchor="middle" x="784" y="-58.5" font-family="Helvetica,sans-Serif" font-size="10.00"> &lt; ConcreteFactory &gt;</text>
</g>
<!-- Node12 -->
<g id="node12" class="node"><title>Node12</title>
<g id="a_node12"><a xlink:href="classgko_1_1EnablePolymorphicAssignment.html" target="_top" xlink:title="This mixin is used to enable a default PolymorphicObject::copy_from() implementation for objects that...">
<polygon fill="white" stroke="black" points="861,-0.5 861,-30.5 1049,-30.5 1049,-0.5 861,-0.5"/>
<text text-anchor="start" x="869" y="-18.5" font-family="Helvetica,sans-Serif" font-size="10.00">gko::EnablePolymorphicAssignment</text>
<text text-anchor="middle" x="955" y="-7.5" font-family="Helvetica,sans-Serif" font-size="10.00">&lt; ConcreteType, ResultType &gt;</text>
</a>
</g>
</g>
<!-- Node11&#45;&gt;Node12 -->
<g id="edge15" class="edge"><title>Node11&#45;&gt;Node12</title>
<path fill="none" stroke="midnightblue" d="M677.979,-33.4925C729.027,-30.1649 802.446,-25.3791 860.733,-21.5796"/>
<polygon fill="midnightblue" stroke="midnightblue" points="677.51,-30.0155 667.759,-34.1587 677.966,-37.0007 677.51,-30.0155"/>
</g>
<!-- Node12&#45;&gt;Node9 -->
<g id="edge14" class="edge"><title>Node12&#45;&gt;Node9</title>
<path fill="none" stroke="orange" stroke-dasharray="5,2" d="M1059.06,-30.266C1105.37,-36.9015 1159.63,-44.6746 1204.72,-51.1354"/>
<polygon fill="orange" stroke="orange" points="1059.4,-26.7785 1049,-28.8247 1058.4,-33.7077 1059.4,-26.7785"/>
<text text-anchor="middle" x="1126" y="-50.5" font-family="Helvetica,sans-Serif" font-size="10.00"> &lt; ConcreteFactory &gt;</text>
</g>
</g>
</svg>
