<?xml version="1.0" encoding="UTF-8" standalone="no"?>
<!DOCTYPE svg PUBLIC "-//W3C//DTD SVG 1.1//EN"
 "http://www.w3.org/Graphics/SVG/1.1/DTD/svg11.dtd">
<!-- Generated by graphviz version 2.40.1 (20161225.0304)
 -->
<!-- Title: gko::matrix::Sellp&lt; ValueType, IndexType &gt; Pages: 1 -->
<svg width="2210pt" height="395pt"
 viewBox="0.00 0.00 2210.00 395.00" xmlns="http://www.w3.org/2000/svg" xmlns:xlink="http://www.w3.org/1999/xlink">
<g id="graph0" class="graph" transform="scale(1 1) rotate(0) translate(4 391)">
<title>gko::matrix::Sellp&lt; ValueType, IndexType &gt;</title>
<polygon fill="#ffffff" stroke="transparent" points="-4,4 -4,-391 2206,-391 2206,4 -4,4"/>
<!-- Node0 -->
<g id="node1" class="node">
<title>Node0</title>
<polygon fill="#bfbfbf" stroke="#000000" points="2058,-131.5 2058,-161.5 2202,-161.5 2202,-131.5 2058,-131.5"/>
<text text-anchor="start" x="2066" y="-149.5" font-family="Helvetica,sans-Serif" font-size="10.00" fill="#000000">gko::matrix::Sellp</text>
<text text-anchor="middle" x="2130" y="-138.5" font-family="Helvetica,sans-Serif" font-size="10.00" fill="#000000">&lt; ValueType, IndexType &gt;</text>
</g>
<!-- Node1 -->
<g id="node2" class="node">
<title>Node1</title>
<g id="a_node2"><a xlink:href="classgko_1_1EnableLinOp.html" target="_top" xlink:title="gko::EnableLinOp\&lt; Sellp\l\&lt; ValueType, IndexType \&gt; \&gt;">
<polygon fill="#ffffff" stroke="#000000" points="1848,-180.5 1848,-210.5 2003,-210.5 2003,-180.5 1848,-180.5"/>
<text text-anchor="start" x="1856" y="-198.5" font-family="Helvetica,sans-Serif" font-size="10.00" fill="#000000">gko::EnableLinOp&lt; Sellp</text>
<text text-anchor="middle" x="1925.5" y="-187.5" font-family="Helvetica,sans-Serif" font-size="10.00" fill="#000000">&lt; ValueType, IndexType &gt; &gt;</text>
</a>
</g>
</g>
<!-- Node1&#45;&gt;Node0 -->
<g id="edge1" class="edge">
<title>Node1&#45;&gt;Node0</title>
<path fill="none" stroke="#191970" d="M1998.1344,-178.0962C2020.7567,-172.6757 2045.4957,-166.748 2067.3721,-161.5062"/>
<polygon fill="#191970" stroke="#191970" points="1997.1557,-174.7315 1988.2465,-180.4654 1998.7868,-181.5388 1997.1557,-174.7315"/>
</g>
<!-- Node2 -->
<g id="node3" class="node">
<title>Node2</title>
<g id="a_node3"><a xlink:href="classgko_1_1EnablePolymorphicObject.html" target="_top" xlink:title="gko::EnablePolymorphicObject\l\&lt; Sellp\&lt; ValueType, IndexType\l \&gt;, LinOp \&gt;">
<polygon fill="#ffffff" stroke="#000000" points="1523,-106 1523,-147 1691,-147 1691,-106 1523,-106"/>
<text text-anchor="start" x="1531" y="-135" font-family="Helvetica,sans-Serif" font-size="10.00" fill="#000000">gko::EnablePolymorphicObject</text>
<text text-anchor="start" x="1531" y="-124" font-family="Helvetica,sans-Serif" font-size="10.00" fill="#000000">&lt; Sellp&lt; ValueType, IndexType</text>
<text text-anchor="middle" x="1607" y="-113" font-family="Helvetica,sans-Serif" font-size="10.00" fill="#000000"> &gt;, LinOp &gt;</text>
</a>
</g>
</g>
<!-- Node2&#45;&gt;Node1 -->
<g id="edge2" class="edge">
<title>Node2&#45;&gt;Node1</title>
<path fill="none" stroke="#191970" d="M1700.9094,-146.8446C1750.6866,-157.6283 1810.7678,-170.6444 1856.2587,-180.4995"/>
<polygon fill="#191970" stroke="#191970" points="1701.6131,-143.4159 1691.0987,-144.7192 1700.131,-150.2572 1701.6131,-143.4159"/>
</g>
<!-- Node3 -->
<g id="node4" class="node">
<title>Node3</title>
<g id="a_node4"><a xlink:href="classgko_1_1EnableAbstractPolymorphicObject.html" target="_top" xlink:title="gko::EnableAbstractPolymorphic\lObject\&lt; Sellp\&lt; ValueType,\l IndexType \&gt;, LinOp \&gt;">
<polygon fill="#ffffff" stroke="#000000" points="1298,-34 1298,-75 1473,-75 1473,-34 1298,-34"/>
<text text-anchor="start" x="1306" y="-63" font-family="Helvetica,sans-Serif" font-size="10.00" fill="#000000">gko::EnableAbstractPolymorphic</text>
<text text-anchor="start" x="1306" y="-52" font-family="Helvetica,sans-Serif" font-size="10.00" fill="#000000">Object&lt; Sellp&lt; ValueType,</text>
<text text-anchor="middle" x="1385.5" y="-41" font-family="Helvetica,sans-Serif" font-size="10.00" fill="#000000"> IndexType &gt;, LinOp &gt;</text>
</a>
</g>
</g>
<!-- Node3&#45;&gt;Node2 -->
<g id="edge3" class="edge">
<title>Node3&#45;&gt;Node2</title>
<path fill="none" stroke="#191970" d="M1458.2794,-78.1574C1485.8882,-87.1318 1517.0786,-97.2705 1543.7395,-105.9368"/>
<polygon fill="#191970" stroke="#191970" points="1459.2688,-74.7988 1448.6766,-75.036 1457.1048,-81.4559 1459.2688,-74.7988"/>
</g>
<!-- Node4 -->
<g id="node5" class="node">
<title>Node4</title>
<g id="a_node5"><a xlink:href="classgko_1_1LinOp.html" target="_top" xlink:title="gko::LinOp">
<polygon fill="#ffffff" stroke="#000000" points="959.5,-11 959.5,-30 1027.5,-30 1027.5,-11 959.5,-11"/>
<text text-anchor="middle" x="993.5" y="-18" font-family="Helvetica,sans-Serif" font-size="10.00" fill="#000000">gko::LinOp</text>
</a>
</g>
</g>
<!-- Node4&#45;&gt;Node3 -->
<g id="edge4" class="edge">
<title>Node4&#45;&gt;Node3</title>
<path fill="none" stroke="#191970" d="M1037.5774,-24.323C1100.3955,-29.7715 1216.9999,-39.8852 1297.805,-46.8938"/>
<polygon fill="#191970" stroke="#191970" points="1037.8668,-20.8351 1027.6017,-23.4578 1037.2618,-27.8089 1037.8668,-20.8351"/>
</g>
<!-- Node5 -->
<g id="node6" class="node">
<title>Node5</title>
<g id="a_node6"><a xlink:href="classgko_1_1EnableAbstractPolymorphicObject.html" target="_top" xlink:title="gko::EnableAbstractPolymorphic\lObject\&lt; LinOp \&gt;">
<polygon fill="#ffffff" stroke="#ff0000" points="538,-.5 538,-30.5 713,-30.5 713,-.5 538,-.5"/>
<text text-anchor="start" x="546" y="-18.5" font-family="Helvetica,sans-Serif" font-size="10.00" fill="#000000">gko::EnableAbstractPolymorphic</text>
<text text-anchor="middle" x="625.5" y="-7.5" font-family="Helvetica,sans-Serif" font-size="10.00" fill="#000000">Object&lt; LinOp &gt;</text>
</a>
</g>
</g>
<!-- Node5&#45;&gt;Node4 -->
<g id="edge5" class="edge">
<title>Node5&#45;&gt;Node4</title>
<path fill="none" stroke="#191970" d="M723.5197,-16.8318C801.5493,-17.892 906.1921,-19.3138 959.3753,-20.0363"/>
<polygon fill="#191970" stroke="#191970" points="723.2243,-13.3275 713.1776,-16.6913 723.1291,-20.3269 723.2243,-13.3275"/>
</g>
<!-- Node10 -->
<g id="node7" class="node">
<title>Node10</title>
<g id="a_node7"><a xlink:href="classgko_1_1EnableAbstractPolymorphicObject.html" target="_top" xlink:title="This mixin inherits from (a subclass of) PolymorphicObject and provides a base implementation of a ne...">
<polygon fill="#ffffff" stroke="#000000" points="138,-60 138,-101 332,-101 332,-60 138,-60"/>
<text text-anchor="start" x="146" y="-89" font-family="Helvetica,sans-Serif" font-size="10.00" fill="#000000">gko::EnableAbstractPolymorphic</text>
<text text-anchor="start" x="146" y="-78" font-family="Helvetica,sans-Serif" font-size="10.00" fill="#000000">Object&lt; AbstactObject, Polymorphic</text>
<text text-anchor="middle" x="235" y="-67" font-family="Helvetica,sans-Serif" font-size="10.00" fill="#000000">Base &gt;</text>
</a>
</g>
</g>
<!-- Node10&#45;&gt;Node3 -->
<g id="edge8" class="edge">
<title>Node10&#45;&gt;Node3</title>
<path fill="none" stroke="#ffa500" stroke-dasharray="5,2" d="M342.3156,-77.6872C344.9022,-77.6237 347.4668,-77.5612 350,-77.5 701.2183,-69.0184 1119.4746,-60.0865 1297.8776,-56.3317"/>
<polygon fill="#ffa500" stroke="#ffa500" points="342.1593,-74.1899 332.2491,-77.9366 342.3327,-81.1877 342.1593,-74.1899"/>
<text text-anchor="start" x="754" y="-82.5" font-family="Helvetica,sans-Serif" font-size="10.00" fill="#000000"> &lt; Sellp&lt; ValueType,</text>
<text text-anchor="middle" x="808.5" y="-71.5" font-family="Helvetica,sans-Serif" font-size="10.00" fill="#000000"> IndexType &gt;, LinOp &gt;</text>
</g>
<!-- Node10&#45;&gt;Node5 -->
<g id="edge6" class="edge">
<title>Node10&#45;&gt;Node5</title>
<path fill="none" stroke="#ffa500" stroke-dasharray="5,2" d="M286.4136,-55.9578C305.9005,-47.7251 328.5623,-39.3994 350,-34.5 411.8116,-20.3736 483.2839,-15.772 537.9393,-14.6241"/>
<polygon fill="#ffa500" stroke="#ffa500" points="284.9107,-52.7944 277.1217,-59.9765 287.6894,-59.2193 284.9107,-52.7944"/>
<text text-anchor="middle" x="428.5" y="-37.5" font-family="Helvetica,sans-Serif" font-size="10.00" fill="#000000"> &lt; LinOp &gt;</text>
</g>
<!-- Node13 -->
<g id="node10" class="node">
<title>Node13</title>
<g id="a_node10"><a xlink:href="classgko_1_1EnableAbstractPolymorphicObject.html" target="_top" xlink:title="gko::EnableAbstractPolymorphic\lObject\&lt; ConcreteObject, Polymorphic\lBase \&gt;">
<polygon fill="#ffffff" stroke="#000000" points="525,-97 525,-138 726,-138 726,-97 525,-97"/>
<text text-anchor="start" x="533" y="-126" font-family="Helvetica,sans-Serif" font-size="10.00" fill="#000000">gko::EnableAbstractPolymorphic</text>
<text text-anchor="start" x="533" y="-115" font-family="Helvetica,sans-Serif" font-size="10.00" fill="#000000">Object&lt; ConcreteObject, Polymorphic</text>
<text text-anchor="middle" x="625.5" y="-104" font-family="Helvetica,sans-Serif" font-size="10.00" fill="#000000">Base &gt;</text>
</a>
</g>
</g>
<!-- Node10&#45;&gt;Node13 -->
<g id="edge12" class="edge">
<title>Node10&#45;&gt;Node13</title>
<path fill="none" stroke="#ffa500" stroke-dasharray="5,2" d="M342.4528,-81.8743C392.6043,-83.4775 453.0146,-86.7826 507,-93.5 514.7071,-94.459 522.6617,-95.6421 530.6314,-96.9646"/>
<polygon fill="#ffa500" stroke="#ffa500" points="342.3399,-78.3694 332.239,-81.5666 342.1291,-85.3662 342.3399,-78.3694"/>
<text text-anchor="start" x="350" y="-107.5" font-family="Helvetica,sans-Serif" font-size="10.00" fill="#000000"> &lt; ConcreteObject, Polymorphic</text>
<text text-anchor="middle" x="428.5" y="-96.5" font-family="Helvetica,sans-Serif" font-size="10.00" fill="#000000">Base &gt;</text>
</g>
<!-- Node20 -->
<g id="node17" class="node">
<title>Node20</title>
<g id="a_node17"><a xlink:href="classgko_1_1EnableAbstractPolymorphicObject.html" target="_top" xlink:title="gko::EnableAbstractPolymorphic\lObject\&lt; ConcreteLinOp, Polymorphic\lBase \&gt;">
<polygon fill="#ffffff" stroke="#000000" points="527,-161 527,-202 724,-202 724,-161 527,-161"/>
<text text-anchor="start" x="535" y="-190" font-family="Helvetica,sans-Serif" font-size="10.00" fill="#000000">gko::EnableAbstractPolymorphic</text>
<text text-anchor="start" x="535" y="-179" font-family="Helvetica,sans-Serif" font-size="10.00" fill="#000000">Object&lt; ConcreteLinOp, Polymorphic</text>
<text text-anchor="middle" x="625.5" y="-168" font-family="Helvetica,sans-Serif" font-size="10.00" fill="#000000">Base &gt;</text>
</a>
</g>
</g>
<!-- Node10&#45;&gt;Node20 -->
<g id="edge22" class="edge">
<title>Node10&#45;&gt;Node20</title>
<path fill="none" stroke="#ffa500" stroke-dasharray="5,2" d="M301.3618,-104.335C317.1991,-109.6529 334.1177,-115.0333 350,-119.5 408.05,-135.826 473.9168,-150.7764 526.6881,-161.9043"/>
<polygon fill="#ffa500" stroke="#ffa500" points="302.2539,-100.9417 291.6596,-101.0406 300.0033,-107.57 302.2539,-100.9417"/>
<text text-anchor="start" x="352" y="-171.5" font-family="Helvetica,sans-Serif" font-size="10.00" fill="#000000"> &lt; ConcreteLinOp, Polymorphic</text>
<text text-anchor="middle" x="428.5" y="-160.5" font-family="Helvetica,sans-Serif" font-size="10.00" fill="#000000">Base &gt;</text>
</g>
<!-- Node11 -->
<g id="node8" class="node">
<title>Node11</title>
<polygon fill="#ffffff" stroke="#bfbfbf" points="0,-120 0,-139 101,-139 101,-120 0,-120"/>
<text text-anchor="middle" x="50.5" y="-127" font-family="Helvetica,sans-Serif" font-size="10.00" fill="#000000">PolymorphicBase</text>
</g>
<!-- Node11&#45;&gt;Node10 -->
<g id="edge7" class="edge">
<title>Node11&#45;&gt;Node10</title>
<path fill="none" stroke="#191970" d="M96.3988,-117.3101C114.8661,-112.4055 136.6815,-106.6117 157.4728,-101.0899"/>
<polygon fill="#191970" stroke="#191970" points="95.278,-113.9863 86.5114,-119.936 97.0748,-120.7518 95.278,-113.9863"/>
</g>
<!-- Node11&#45;&gt;Node13 -->
<g id="edge11" class="edge">
<title>Node11&#45;&gt;Node13</title>
<path fill="none" stroke="#191970" d="M111.106,-128.2352C209.5893,-126.1799 405.3646,-122.0941 524.9499,-119.5984"/>
<polygon fill="#191970" stroke="#191970" points="110.9482,-124.7376 101.0235,-128.4456 111.0944,-131.7361 110.9482,-124.7376"/>
</g>
<!-- Node11&#45;&gt;Node20 -->
<g id="edge21" class="edge">
<title>Node11&#45;&gt;Node20</title>
<path fill="none" stroke="#191970" d="M100.2206,-141.2773C159.3433,-154.6255 261.2016,-175.5588 350,-183.5 419.5004,-189.7154 437.2247,-184.0888 507,-183.5 513.4812,-183.4453 520.1615,-183.3738 526.8939,-183.2904"/>
<polygon fill="#191970" stroke="#191970" points="100.9271,-137.8487 90.3995,-139.0408 99.3727,-144.6739 100.9271,-137.8487"/>
</g>
<!-- Node12 -->
<g id="node9" class="node">
<title>Node12</title>
<g id="a_node9"><a xlink:href="classgko_1_1EnablePolymorphicObject.html" target="_top" xlink:title="This mixin inherits from (a subclass of) PolymorphicObject and provides a base implementation of a ne...">
<polygon fill="#ffffff" stroke="#000000" points="891,-102.5 891,-132.5 1096,-132.5 1096,-102.5 891,-102.5"/>
<text text-anchor="start" x="899" y="-120.5" font-family="Helvetica,sans-Serif" font-size="10.00" fill="#000000">gko::EnablePolymorphicObject</text>
<text text-anchor="middle" x="993.5" y="-109.5" font-family="Helvetica,sans-Serif" font-size="10.00" fill="#000000">&lt; ConcreteObject, PolymorphicBase &gt;</text>
</a>
</g>
</g>
<!-- Node12&#45;&gt;Node2 -->
<g id="edge9" class="edge">
<title>Node12&#45;&gt;Node2</title>
<path fill="none" stroke="#ffa500" stroke-dasharray="5,2" d="M1106.5375,-119.1583C1226.9292,-120.9244 1414.7036,-123.679 1522.7537,-125.2641"/>
<polygon fill="#ffa500" stroke="#ffa500" points="1106.2364,-115.6536 1096.1861,-119.0064 1106.1337,-122.6528 1106.2364,-115.6536"/>
<text text-anchor="start" x="1331" y="-138.5" font-family="Helvetica,sans-Serif" font-size="10.00" fill="#000000"> &lt; Sellp&lt; ValueType,</text>
<text text-anchor="middle" x="1385.5" y="-127.5" font-family="Helvetica,sans-Serif" font-size="10.00" fill="#000000"> IndexType &gt;, LinOp &gt;</text>
</g>
<!-- Node19 -->
<g id="node16" class="node">
<title>Node19</title>
<g id="a_node16"><a xlink:href="classgko_1_1EnablePolymorphicObject.html" target="_top" xlink:title="gko::EnablePolymorphicObject\l\&lt; ConcreteLinOp, PolymorphicBase \&gt;">
<polygon fill="#ffffff" stroke="#000000" points="1285,-166.5 1285,-196.5 1486,-196.5 1486,-166.5 1285,-166.5"/>
<text text-anchor="start" x="1293" y="-184.5" font-family="Helvetica,sans-Serif" font-size="10.00" fill="#000000">gko::EnablePolymorphicObject</text>
<text text-anchor="middle" x="1385.5" y="-173.5" font-family="Helvetica,sans-Serif" font-size="10.00" fill="#000000">&lt; ConcreteLinOp, PolymorphicBase &gt;</text>
</a>
</g>
</g>
<!-- Node12&#45;&gt;Node19 -->
<g id="edge23" class="edge">
<title>Node12&#45;&gt;Node19</title>
<path fill="none" stroke="#ffa500" stroke-dasharray="5,2" d="M1106.2786,-124.1284C1155.9029,-128.3063 1214.6856,-134.9782 1267,-145.5 1292.7166,-150.6723 1320.8349,-159.0908 1343.2251,-166.4867"/>
<polygon fill="#ffa500" stroke="#ffa500" points="1106.4099,-120.6275 1096.1577,-123.3 1105.8388,-127.6042 1106.4099,-120.6275"/>
<text text-anchor="start" x="1114" y="-159.5" font-family="Helvetica,sans-Serif" font-size="10.00" fill="#000000"> &lt; ConcreteLinOp, Polymorphic</text>
<text text-anchor="middle" x="1190.5" y="-148.5" font-family="Helvetica,sans-Serif" font-size="10.00" fill="#000000">Base &gt;</text>
</g>
<!-- Node13&#45;&gt;Node12 -->
<g id="edge10" class="edge">
<title>Node13&#45;&gt;Node12</title>
<path fill="none" stroke="#191970" d="M736.0843,-117.5C785.2,-117.5 842.6641,-117.5 890.8233,-117.5"/>
<polygon fill="#191970" stroke="#191970" points="736.0577,-114.0001 726.0576,-117.5 736.0576,-121.0001 736.0577,-114.0001"/>
</g>
<!-- Node14 -->
<g id="node11" class="node">
<title>Node14</title>
<g id="a_node11"><a xlink:href="classgko_1_1EnablePolymorphicAssignment.html" target="_top" xlink:title="gko::EnablePolymorphicAssignment\l\&lt; Sellp\&lt; ValueType, IndexType \&gt; \&gt;">
<polygon fill="#ffffff" stroke="#000000" points="1289.5,-215.5 1289.5,-245.5 1481.5,-245.5 1481.5,-215.5 1289.5,-215.5"/>
<text text-anchor="start" x="1297.5" y="-233.5" font-family="Helvetica,sans-Serif" font-size="10.00" fill="#000000">gko::EnablePolymorphicAssignment</text>
<text text-anchor="middle" x="1385.5" y="-222.5" font-family="Helvetica,sans-Serif" font-size="10.00" fill="#000000">&lt; Sellp&lt; ValueType, IndexType &gt; &gt;</text>
</a>
</g>
</g>
<!-- Node14&#45;&gt;Node1 -->
<g id="edge13" class="edge">
<title>Node14&#45;&gt;Node1</title>
<path fill="none" stroke="#191970" d="M1491.7078,-218.2823C1502.2722,-217.2566 1512.8413,-216.3058 1523,-215.5 1635.8135,-206.5516 1766.7525,-200.9267 1847.8752,-197.9978"/>
<polygon fill="#191970" stroke="#191970" points="1491.1993,-214.8155 1481.594,-219.2863 1491.8909,-221.7812 1491.1993,-214.8155"/>
</g>
<!-- Node15 -->
<g id="node12" class="node">
<title>Node15</title>
<g id="a_node12"><a xlink:href="classgko_1_1ConvertibleTo.html" target="_top" xlink:title="gko::ConvertibleTo\l\&lt; Sellp\&lt; ValueType,\l IndexType \&gt; \&gt;">
<polygon fill="#ffffff" stroke="#000000" points="935.5,-210 935.5,-251 1051.5,-251 1051.5,-210 935.5,-210"/>
<text text-anchor="start" x="943.5" y="-239" font-family="Helvetica,sans-Serif" font-size="10.00" fill="#000000">gko::ConvertibleTo</text>
<text text-anchor="start" x="943.5" y="-228" font-family="Helvetica,sans-Serif" font-size="10.00" fill="#000000">&lt; Sellp&lt; ValueType,</text>
<text text-anchor="middle" x="993.5" y="-217" font-family="Helvetica,sans-Serif" font-size="10.00" fill="#000000"> IndexType &gt; &gt;</text>
</a>
</g>
</g>
<!-- Node15&#45;&gt;Node14 -->
<g id="edge14" class="edge">
<title>Node15&#45;&gt;Node14</title>
<path fill="none" stroke="#191970" d="M1061.973,-230.5C1124.8874,-230.5 1218.7814,-230.5 1289.2359,-230.5"/>
<polygon fill="#191970" stroke="#191970" points="1061.7631,-227.0001 1051.7631,-230.5 1061.763,-234.0001 1061.7631,-227.0001"/>
</g>
<!-- Node16 -->
<g id="node13" class="node">
<title>Node16</title>
<g id="a_node13"><a xlink:href="classgko_1_1ConvertibleTo.html" target="_top" xlink:title="ConvertibleTo interface is used to mark that the implementer can be converted to the object of Result...">
<polygon fill="#ffffff" stroke="#000000" points="572,-298.5 572,-328.5 679,-328.5 679,-298.5 572,-298.5"/>
<text text-anchor="start" x="580" y="-316.5" font-family="Helvetica,sans-Serif" font-size="10.00" fill="#000000">gko::ConvertibleTo</text>
<text text-anchor="middle" x="625.5" y="-305.5" font-family="Helvetica,sans-Serif" font-size="10.00" fill="#000000">&lt; ResultType &gt;</text>
</a>
</g>
</g>
<!-- Node16&#45;&gt;Node15 -->
<g id="edge15" class="edge">
<title>Node16&#45;&gt;Node15</title>
<path fill="none" stroke="#ffa500" stroke-dasharray="5,2" d="M668.7976,-294.5264C690.9295,-285.4819 718.5077,-275.2006 744,-268.5 808.4116,-251.5695 884.2929,-241.3475 935.3161,-235.8363"/>
<polygon fill="#ffa500" stroke="#ffa500" points="667.2494,-291.3794 659.3545,-298.4448 669.9323,-297.8449 667.2494,-291.3794"/>
<text text-anchor="start" x="757" y="-282.5" font-family="Helvetica,sans-Serif" font-size="10.00" fill="#000000"> &lt; Sellp&lt; ValueType,</text>
<text text-anchor="middle" x="808.5" y="-271.5" font-family="Helvetica,sans-Serif" font-size="10.00" fill="#000000"> IndexType &gt; &gt;</text>
</g>
<!-- Node17 -->
<g id="node14" class="node">
<title>Node17</title>
<g id="a_node14"><a xlink:href="classgko_1_1EnablePolymorphicAssignment.html" target="_top" xlink:title="This mixin is used to enable a default PolymorphicObject::copy_from() implementation for objects that...">
<polygon fill="#ffffff" stroke="#000000" points="897.5,-270.5 897.5,-300.5 1089.5,-300.5 1089.5,-270.5 897.5,-270.5"/>
<text text-anchor="start" x="905.5" y="-288.5" font-family="Helvetica,sans-Serif" font-size="10.00" fill="#000000">gko::EnablePolymorphicAssignment</text>
<text text-anchor="middle" x="993.5" y="-277.5" font-family="Helvetica,sans-Serif" font-size="10.00" fill="#000000">&lt; ConcreteType, ResultType &gt;</text>
</a>
</g>
</g>
<!-- Node16&#45;&gt;Node17 -->
<g id="edge17" class="edge">
<title>Node16&#45;&gt;Node17</title>
<path fill="none" stroke="#191970" d="M689.0372,-308.6656C746.436,-304.2983 831.7367,-297.8081 897.459,-292.8075"/>
<polygon fill="#191970" stroke="#191970" points="688.716,-305.1799 679.0104,-309.4286 689.2471,-312.1597 688.716,-305.1799"/>
</g>
<!-- Node22 -->
<g id="node19" class="node">
<title>Node22</title>
<g id="a_node19"><a xlink:href="classgko_1_1ConvertibleTo.html" target="_top" xlink:title="gko::ConvertibleTo\l\&lt; ConcreteLinOp \&gt;">
<polygon fill="#ffffff" stroke="#000000" points="938.5,-319.5 938.5,-349.5 1048.5,-349.5 1048.5,-319.5 938.5,-319.5"/>
<text text-anchor="start" x="946.5" y="-337.5" font-family="Helvetica,sans-Serif" font-size="10.00" fill="#000000">gko::ConvertibleTo</text>
<text text-anchor="middle" x="993.5" y="-326.5" font-family="Helvetica,sans-Serif" font-size="10.00" fill="#000000">&lt; ConcreteLinOp &gt;</text>
</a>
</g>
</g>
<!-- Node16&#45;&gt;Node22 -->
<g id="edge26" class="edge">
<title>Node16&#45;&gt;Node22</title>
<path fill="none" stroke="#ffa500" stroke-dasharray="5,2" d="M689.0764,-317.128C759.4325,-321.1429 871.6748,-327.548 938.4214,-331.3569"/>
<polygon fill="#ffa500" stroke="#ffa500" points="689.1936,-313.6291 679.0104,-316.5536 688.7947,-320.6177 689.1936,-313.6291"/>
<text text-anchor="middle" x="808.5" y="-329.5" font-family="Helvetica,sans-Serif" font-size="10.00" fill="#000000"> &lt; ConcreteLinOp &gt;</text>
</g>
<!-- Node25 -->
<g id="node22" class="node">
<title>Node25</title>
<g id="a_node22"><a xlink:href="classgko_1_1ConvertibleTo.html" target="_top" xlink:title="gko::ConvertibleTo\l\&lt; Dense\&lt; ValueType \&gt; \&gt;">
<polygon fill="#ffffff" stroke="#000000" points="1119.5,-356.5 1119.5,-386.5 1261.5,-386.5 1261.5,-356.5 1119.5,-356.5"/>
<text text-anchor="start" x="1127.5" y="-374.5" font-family="Helvetica,sans-Serif" font-size="10.00" fill="#000000">gko::ConvertibleTo</text>
<text text-anchor="middle" x="1190.5" y="-363.5" font-family="Helvetica,sans-Serif" font-size="10.00" fill="#000000">&lt; Dense&lt; ValueType &gt; &gt;</text>
</a>
</g>
</g>
<!-- Node16&#45;&gt;Node25 -->
<g id="edge31" class="edge">
<title>Node16&#45;&gt;Node25</title>
<path fill="none" stroke="#ffa500" stroke-dasharray="5,2" d="M689.3852,-329.9562C707.0002,-334.1211 726.1698,-338.3118 744,-341.5 874.9706,-364.9184 1030.5202,-370.4302 1119.157,-371.513"/>
<polygon fill="#ffa500" stroke="#ffa500" points="689.7561,-326.4458 679.2153,-327.5146 688.122,-333.2524 689.7561,-326.4458"/>
<text text-anchor="middle" x="808.5" y="-360.5" font-family="Helvetica,sans-Serif" font-size="10.00" fill="#000000"> &lt; Dense&lt; ValueType &gt; &gt;</text>
</g>
<!-- Node17&#45;&gt;Node14 -->
<g id="edge16" class="edge">
<title>Node17&#45;&gt;Node14</title>
<path fill="none" stroke="#ffa500" stroke-dasharray="5,2" d="M1097.3683,-268.957C1102.9921,-268.1129 1108.5637,-267.2889 1114,-266.5 1172.1131,-258.067 1237.3425,-249.3922 1289.2975,-242.6715"/>
<polygon fill="#ffa500" stroke="#ffa500" points="1096.5709,-265.5377 1087.2071,-270.4945 1097.6182,-272.4589 1096.5709,-265.5377"/>
<text text-anchor="start" x="1139" y="-280.5" font-family="Helvetica,sans-Serif" font-size="10.00" fill="#000000"> &lt; Sellp&lt; ValueType,</text>
<text text-anchor="middle" x="1190.5" y="-269.5" font-family="Helvetica,sans-Serif" font-size="10.00" fill="#000000"> IndexType &gt; &gt;</text>
</g>
<!-- Node21 -->
<g id="node18" class="node">
<title>Node21</title>
<g id="a_node18"><a xlink:href="classgko_1_1EnablePolymorphicAssignment.html" target="_top" xlink:title="gko::EnablePolymorphicAssignment\l\&lt; ConcreteLinOp \&gt;">
<polygon fill="#ffffff" stroke="#000000" points="1289.5,-293.5 1289.5,-323.5 1481.5,-323.5 1481.5,-293.5 1289.5,-293.5"/>
<text text-anchor="start" x="1297.5" y="-311.5" font-family="Helvetica,sans-Serif" font-size="10.00" fill="#000000">gko::EnablePolymorphicAssignment</text>
<text text-anchor="middle" x="1385.5" y="-300.5" font-family="Helvetica,sans-Serif" font-size="10.00" fill="#000000">&lt; ConcreteLinOp &gt;</text>
</a>
</g>
</g>
<!-- Node17&#45;&gt;Node21 -->
<g id="edge27" class="edge">
<title>Node17&#45;&gt;Node21</title>
<path fill="none" stroke="#ffa500" stroke-dasharray="5,2" d="M1099.7627,-291.7348C1158.8971,-295.2044 1231.9298,-299.4895 1289.357,-302.859"/>
<polygon fill="#ffa500" stroke="#ffa500" points="1099.8328,-288.233 1089.6449,-291.1412 1099.4227,-295.221 1099.8328,-288.233"/>
<text text-anchor="middle" x="1190.5" y="-303.5" font-family="Helvetica,sans-Serif" font-size="10.00" fill="#000000"> &lt; ConcreteLinOp &gt;</text>
</g>
<!-- Node18 -->
<g id="node15" class="node">
<title>Node18</title>
<g id="a_node15"><a xlink:href="classgko_1_1EnableLinOp.html" target="_top" xlink:title="The EnableLinOp mixin can be used to provide sensible default implementations of the majority of the ...">
<polygon fill="#ffffff" stroke="#000000" points="1529,-224.5 1529,-254.5 1685,-254.5 1685,-224.5 1529,-224.5"/>
<text text-anchor="start" x="1537" y="-242.5" font-family="Helvetica,sans-Serif" font-size="10.00" fill="#000000">gko::EnableLinOp&lt; Concrete</text>
<text text-anchor="middle" x="1607" y="-231.5" font-family="Helvetica,sans-Serif" font-size="10.00" fill="#000000">LinOp, PolymorphicBase &gt;</text>
</a>
</g>
</g>
<!-- Node18&#45;&gt;Node1 -->
<g id="edge18" class="edge">
<title>Node18&#45;&gt;Node1</title>
<path fill="none" stroke="#ffa500" stroke-dasharray="5,2" d="M1695.3534,-227.2942C1743.1653,-220.6891 1801.69,-212.6041 1847.7568,-206.24"/>
<polygon fill="#ffa500" stroke="#ffa500" points="1694.7487,-223.8444 1685.3218,-228.68 1695.7067,-230.7785 1694.7487,-223.8444"/>
<text text-anchor="start" x="1709" y="-238.5" font-family="Helvetica,sans-Serif" font-size="10.00" fill="#000000"> &lt; Sellp&lt; ValueType,</text>
<text text-anchor="middle" x="1760.5" y="-227.5" font-family="Helvetica,sans-Serif" font-size="10.00" fill="#000000"> IndexType &gt; &gt;</text>
</g>
<!-- Node19&#45;&gt;Node18 -->
<g id="edge19" class="edge">
<title>Node19&#45;&gt;Node18</title>
<path fill="none" stroke="#191970" d="M1456.7192,-199.0058C1466.5643,-201.4872 1476.5398,-204.0337 1486,-206.5 1507.9127,-212.2128 1531.9911,-218.7302 1552.859,-224.4557"/>
<polygon fill="#191970" stroke="#191970" points="1457.4927,-195.5915 1446.9414,-196.5516 1455.7885,-202.3809 1457.4927,-195.5915"/>
</g>
<!-- Node20&#45;&gt;Node19 -->
<g id="edge20" class="edge">
<title>Node20&#45;&gt;Node19</title>
<path fill="none" stroke="#191970" d="M734.4813,-181.5C881.7391,-181.5 1142.2151,-181.5 1284.9812,-181.5"/>
<polygon fill="#191970" stroke="#191970" points="734.0776,-178.0001 724.0776,-181.5 734.0776,-185.0001 734.0776,-178.0001"/>
</g>
<!-- Node21&#45;&gt;Node18 -->
<g id="edge24" class="edge">
<title>Node21&#45;&gt;Node18</title>
<path fill="none" stroke="#191970" d="M1443.6742,-290.378C1479.5192,-279.2119 1524.9322,-265.0651 1558.7676,-254.525"/>
<polygon fill="#191970" stroke="#191970" points="1442.3419,-287.1271 1433.8354,-293.4429 1444.4239,-293.8103 1442.3419,-287.1271"/>
</g>
<!-- Node22&#45;&gt;Node21 -->
<g id="edge25" class="edge">
<title>Node22&#45;&gt;Node21</title>
<path fill="none" stroke="#191970" d="M1059.0239,-330.154C1121.9342,-325.9814 1217.7021,-319.6295 1289.2698,-314.8826"/>
<polygon fill="#191970" stroke="#191970" points="1058.579,-326.6758 1048.8326,-330.83 1059.0424,-333.6604 1058.579,-326.6758"/>
</g>
<!-- Node23 -->
<g id="node20" class="node">
<title>Node23</title>
<g id="a_node20"><a xlink:href="classgko_1_1EnableCreateMethod.html" target="_top" xlink:title="gko::EnableCreateMethod\l\&lt; Sellp\&lt; ValueType, IndexType \&gt; \&gt;">
<polygon fill="#ffffff" stroke="#000000" points="1830,-131.5 1830,-161.5 2021,-161.5 2021,-131.5 1830,-131.5"/>
<text text-anchor="start" x="1838" y="-149.5" font-family="Helvetica,sans-Serif" font-size="10.00" fill="#000000">gko::EnableCreateMethod</text>
<text text-anchor="middle" x="1925.5" y="-138.5" font-family="Helvetica,sans-Serif" font-size="10.00" fill="#000000">&lt; Sellp&lt; ValueType, IndexType &gt; &gt;</text>
</a>
</g>
</g>
<!-- Node23&#45;&gt;Node0 -->
<g id="edge28" class="edge">
<title>Node23&#45;&gt;Node0</title>
<path fill="none" stroke="#191970" d="M2031.3253,-146.5C2040.3248,-146.5 2049.2873,-146.5 2057.9335,-146.5"/>
<polygon fill="#191970" stroke="#191970" points="2031.1638,-143.0001 2021.1637,-146.5 2031.1637,-150.0001 2031.1638,-143.0001"/>
</g>
<!-- Node24 -->
<g id="node21" class="node">
<title>Node24</title>
<g id="a_node21"><a xlink:href="classgko_1_1EnableCreateMethod.html" target="_top" xlink:title="This mixin implements a static create() method on ConcreteType that dynamically allocates the memory...">
<polygon fill="#ffffff" stroke="#000000" points="1536,-56.5 1536,-86.5 1678,-86.5 1678,-56.5 1536,-56.5"/>
<text text-anchor="start" x="1544" y="-74.5" font-family="Helvetica,sans-Serif" font-size="10.00" fill="#000000">gko::EnableCreateMethod</text>
<text text-anchor="middle" x="1607" y="-63.5" font-family="Helvetica,sans-Serif" font-size="10.00" fill="#000000">&lt; ConcreteType &gt;</text>
</a>
</g>
</g>
<!-- Node24&#45;&gt;Node23 -->
<g id="edge29" class="edge">
<title>Node24&#45;&gt;Node23</title>
<path fill="none" stroke="#ffa500" stroke-dasharray="5,2" d="M1681.0495,-88.9371C1735.7292,-101.813 1809.4022,-119.1614 1861.5323,-131.437"/>
<polygon fill="#ffa500" stroke="#ffa500" points="1681.6061,-85.4725 1671.0701,-86.5871 1680.0016,-92.2861 1681.6061,-85.4725"/>
<text text-anchor="start" x="1709" y="-131.5" font-family="Helvetica,sans-Serif" font-size="10.00" fill="#000000"> &lt; Sellp&lt; ValueType,</text>
<text text-anchor="middle" x="1760.5" y="-120.5" font-family="Helvetica,sans-Serif" font-size="10.00" fill="#000000"> IndexType &gt; &gt;</text>
</g>
<!-- Node25&#45;&gt;Node0 -->
<g id="edge30" class="edge">
<title>Node25&#45;&gt;Node0</title>
<path fill="none" stroke="#191970" d="M1271.8757,-366.2822C1335.2432,-362.6667 1425.4244,-358.5 1504.5,-358.5 1504.5,-358.5 1504.5,-358.5 1925.5,-358.5 2034.9364,-358.5 2104.3117,-210.3562 2124.1298,-161.7465"/>
<polygon fill="#191970" stroke="#191970" points="1271.3295,-362.8079 1261.5485,-366.8801 1271.7342,-369.7962 1271.3295,-362.8079"/>
</g>
<!-- Node26 -->
<g id="node23" class="node">
<title>Node26</title>
<g id="a_node23"><a xlink:href="classgko_1_1ReadableFromMatrixData.html" target="_top" xlink:title="A LinOp implementing this interface can read its data from a matrix_data structure. ">
<polygon fill="#ffffff" stroke="#000000" points="1843.5,-82.5 1843.5,-112.5 2007.5,-112.5 2007.5,-82.5 1843.5,-82.5"/>
<text text-anchor="start" x="1851.5" y="-100.5" font-family="Helvetica,sans-Serif" font-size="10.00" fill="#000000">gko::ReadableFromMatrixData</text>
<text text-anchor="middle" x="1925.5" y="-89.5" font-family="Helvetica,sans-Serif" font-size="10.00" fill="#000000">&lt; ValueType, IndexType &gt;</text>
</a>
</g>
</g>
<!-- Node26&#45;&gt;Node0 -->
<g id="edge32" class="edge">
<title>Node26&#45;&gt;Node0</title>
<path fill="none" stroke="#191970" d="M1998.1344,-114.9038C2020.7567,-120.3243 2045.4957,-126.252 2067.3721,-131.4938"/>
<polygon fill="#191970" stroke="#191970" points="1998.7868,-111.4612 1988.2465,-112.5346 1997.1557,-118.2685 1998.7868,-111.4612"/>
</g>
<!-- Node27 -->
<g id="node24" class="node">
<title>Node27</title>
<g id="a_node24"><a xlink:href="classgko_1_1WritableToMatrixData.html" target="_top" xlink:title="A LinOp implementing this interface can write its data to a matrix_data structure. ">
<polygon fill="#ffffff" stroke="#000000" points="1852.5,-33.5 1852.5,-63.5 1998.5,-63.5 1998.5,-33.5 1852.5,-33.5"/>
<text text-anchor="start" x="1860.5" y="-51.5" font-family="Helvetica,sans-Serif" font-size="10.00" fill="#000000">gko::WritableToMatrixData</text>
<text text-anchor="middle" x="1925.5" y="-40.5" font-family="Helvetica,sans-Serif" font-size="10.00" fill="#000000">&lt; ValueType, IndexType &gt;</text>
</a>
</g>
</g>
<!-- Node27&#45;&gt;Node0 -->
<g id="edge33" class="edge">
<title>Node27&#45;&gt;Node0</title>
<path fill="none" stroke="#191970" d="M2004.1084,-66.7915C2009.9049,-68.833 2015.5939,-71.0658 2021,-73.5 2055.2662,-88.9289 2090.642,-114.7947 2111.4621,-131.2341"/>
<polygon fill="#191970" stroke="#191970" points="2004.8758,-63.3587 1994.2824,-63.5348 2002.6735,-70.0033 2004.8758,-63.3587"/>
</g>
</g>
</svg>
