<?xml version="1.0" encoding="UTF-8" standalone="no"?>
<!DOCTYPE svg PUBLIC "-//W3C//DTD SVG 1.1//EN"
 "http://www.w3.org/Graphics/SVG/1.1/DTD/svg11.dtd">
<!-- Generated by graphviz version 2.38.0 (20140413.2041)
 -->
<!-- Title: gko::matrix::IdentityFactory&lt; ValueType &gt; Pages: 1 -->
<!--zoomable 220 -->
<svg id="main" version="1.1" xmlns="http://www.w3.org/2000/svg" xmlns:xlink="http://www.w3.org/1999/xlink" xml:space="preserve" onload="init(evt)">
<style type="text/css"><![CDATA[
.edge:hover path { stroke: red; }
.edge:hover polygon { stroke: red; fill: red; }
]]></style>
<script type="text/javascript"><![CDATA[
var edges = document.getElementsByTagName('g');
if (edges && edges.length) {
  for (var i=0;i<edges.length;i++) {
    if (edges[i].id.substr(0,4)=='edge') {
      edges[i].setAttribute('class','edge');
    }
  }
}
]]></script>
        <defs>
                <circle id="rim" cx="0" cy="0" r="7"/>
                <circle id="rim2" cx="0" cy="0" r="3.5"/>
                <g id="zoomPlus">
                        <use xlink:href="#rim" fill="#404040">
                                <set attributeName="fill" to="#808080" begin="zoomplus.mouseover" end="zoomplus.mouseout"/>
                        </use>
                        <path d="M-4,0h8M0,-4v8" fill="none" stroke="white" stroke-width="1.5" pointer-events="none"/>
                </g>
                <g id="zoomMin">
                        <use xlink:href="#rim" fill="#404040">
                                <set attributeName="fill" to="#808080" begin="zoomminus.mouseover" end="zoomminus.mouseout"/>
                        </use>
                        <path d="M-4,0h8" fill="none" stroke="white" stroke-width="1.5" pointer-events="none"/>
                </g>
                <g id="dirArrow">
                        <path fill="none" stroke="white" stroke-width="1.5" d="M0,-3.0v7 M-2.5,-0.5L0,-3.0L2.5,-0.5"/>
                </g>
               <g id="resetDef">
                       <use xlink:href="#rim2" fill="#404040">
                               <set attributeName="fill" to="#808080" begin="reset.mouseover" end="reset.mouseout"/>
                       </use>
               </g>
        </defs>

<script type="text/javascript">
var viewWidth = 2076;
var viewHeight = 220;
var sectionId = 'dynsection-0';
</script>
<script xlink:href="svgpan.js"/>
<svg id="graph" class="graph">
<g id="viewport">
<title>gko::matrix::IdentityFactory&lt; ValueType &gt;</title>
<polygon fill="white" stroke="none" points="-4,4 -4,-215.5 2072,-215.5 2072,4 -4,4"/>
<!-- Node1 -->
<g id="node1" class="node"><title>Node1</title>
<polygon fill="#bfbfbf" stroke="black" points="1922,-24 1922,-54 2068,-54 2068,-24 1922,-24"/>
<text text-anchor="start" x="1930" y="-42" font-family="Helvetica,sans-Serif" font-size="10.00">gko::matrix::IdentityFactory</text>
<text text-anchor="middle" x="1995" y="-31" font-family="Helvetica,sans-Serif" font-size="10.00">&lt; ValueType &gt;</text>
</g>
<!-- Node2 -->
<g id="node2" class="node"><title>Node2</title>
<g id="a_node2"><a xlink:href="classgko_1_1EnablePolymorphicObject.html" target="_top" xlink:title="gko::EnablePolymorphicObject\l\&lt; IdentityFactory\&lt; ValueType\l \&gt;, LinOpFactory \&gt;">
<polygon fill="white" stroke="black" points="1724,-18.5 1724,-59.5 1885,-59.5 1885,-18.5 1724,-18.5"/>
<text text-anchor="start" x="1732" y="-47.5" font-family="Helvetica,sans-Serif" font-size="10.00">gko::EnablePolymorphicObject</text>
<text text-anchor="start" x="1732" y="-36.5" font-family="Helvetica,sans-Serif" font-size="10.00">&lt; IdentityFactory&lt; ValueType</text>
<text text-anchor="middle" x="1804.5" y="-25.5" font-family="Helvetica,sans-Serif" font-size="10.00"> &gt;, LinOpFactory &gt;</text>
</a>
</g>
</g>
<!-- Node2&#45;&gt;Node1 -->
<g id="edge1" class="edge"><title>Node2&#45;&gt;Node1</title>
<path fill="none" stroke="midnightblue" d="M1895.2,-39C1904.12,-39 1913.09,-39 1921.8,-39"/>
<polygon fill="midnightblue" stroke="midnightblue" points="1895.17,-35.5001 1885.17,-39 1895.17,-42.5001 1895.17,-35.5001"/>
</g>
<!-- Node3 -->
<g id="node3" class="node"><title>Node3</title>
<g id="a_node3"><a xlink:href="classgko_1_1EnableAbstractPolymorphicObject.html" target="_top" xlink:title="gko::EnableAbstractPolymorphic\lObject\&lt; IdentityFactory\&lt;\l ValueType \&gt;, LinOpFactory \&gt;">
<polygon fill="white" stroke="black" points="1516,-49.5 1516,-90.5 1687,-90.5 1687,-49.5 1516,-49.5"/>
<text text-anchor="start" x="1524" y="-78.5" font-family="Helvetica,sans-Serif" font-size="10.00">gko::EnableAbstractPolymorphic</text>
<text text-anchor="start" x="1524" y="-67.5" font-family="Helvetica,sans-Serif" font-size="10.00">Object&lt; IdentityFactory&lt;</text>
<text text-anchor="middle" x="1601.5" y="-56.5" font-family="Helvetica,sans-Serif" font-size="10.00"> ValueType &gt;, LinOpFactory &gt;</text>
</a>
</g>
</g>
<!-- Node3&#45;&gt;Node2 -->
<g id="edge2" class="edge"><title>Node3&#45;&gt;Node2</title>
<path fill="none" stroke="midnightblue" d="M1697.16,-55.4006C1706.05,-54.0289 1715.01,-52.6477 1723.75,-51.3002"/>
<polygon fill="midnightblue" stroke="midnightblue" points="1696.51,-51.9596 1687.16,-56.9431 1697.58,-58.8778 1696.51,-51.9596"/>
</g>
<!-- Node4 -->
<g id="node4" class="node"><title>Node4</title>
<g id="a_node4"><a xlink:href="classgko_1_1LinOpFactory.html" target="_top" xlink:title="A LinOpFactory represents a higher order mapping which transforms one linear operator into another...">
<polygon fill="white" stroke="black" points="1238,-104.5 1238,-123.5 1339,-123.5 1339,-104.5 1238,-104.5"/>
<text text-anchor="middle" x="1288.5" y="-111.5" font-family="Helvetica,sans-Serif" font-size="10.00">gko::LinOpFactory</text>
</a>
</g>
</g>
<!-- Node4&#45;&gt;Node3 -->
<g id="edge3" class="edge"><title>Node4&#45;&gt;Node3</title>
<path fill="none" stroke="midnightblue" d="M1349.2,-105.553C1396.48,-98.8648 1463.11,-89.4384 1515.88,-81.9722"/>
<polygon fill="midnightblue" stroke="midnightblue" points="1348.53,-102.113 1339.12,-106.979 1349.51,-109.044 1348.53,-102.113"/>
</g>
<!-- Node5 -->
<g id="node5" class="node"><title>Node5</title>
<polygon fill="white" stroke="#bfbfbf" points="867,-110.5 867,-151.5 992,-151.5 992,-110.5 867,-110.5"/>
<text text-anchor="start" x="875" y="-139.5" font-family="Helvetica,sans-Serif" font-size="10.00">gko::AbstractFactory</text>
<text text-anchor="start" x="875" y="-128.5" font-family="Helvetica,sans-Serif" font-size="10.00">&lt; LinOp, std::shared</text>
<text text-anchor="middle" x="929.5" y="-117.5" font-family="Helvetica,sans-Serif" font-size="10.00">_ptr&lt; const LinOp &gt; &gt;</text>
</g>
<!-- Node5&#45;&gt;Node4 -->
<g id="edge4" class="edge"><title>Node5&#45;&gt;Node4</title>
<path fill="none" stroke="midnightblue" d="M1002.34,-127.579C1072.31,-124.247 1176.8,-119.271 1237.96,-116.359"/>
<polygon fill="midnightblue" stroke="midnightblue" points="1002.1,-124.086 992.277,-128.058 1002.43,-131.079 1002.1,-124.086"/>
</g>
<!-- Node6 -->
<g id="node6" class="node"><title>Node6</title>
<polygon fill="white" stroke="#bfbfbf" points="530,-159 530,-211 701,-211 701,-159 530,-159"/>
<text text-anchor="start" x="538" y="-199" font-family="Helvetica,sans-Serif" font-size="10.00">gko::EnableAbstractPolymorphic</text>
<text text-anchor="start" x="538" y="-188" font-family="Helvetica,sans-Serif" font-size="10.00">Object&lt; AbstractFactory&lt;</text>
<text text-anchor="start" x="538" y="-177" font-family="Helvetica,sans-Serif" font-size="10.00"> LinOp, std::shared_ptr&lt; const</text>
<text text-anchor="middle" x="615.5" y="-166" font-family="Helvetica,sans-Serif" font-size="10.00"> LinOp &gt; &gt; &gt;</text>
</g>
<!-- Node6&#45;&gt;Node5 -->
<g id="edge5" class="edge"><title>Node6&#45;&gt;Node5</title>
<path fill="none" stroke="midnightblue" d="M711.185,-174.482C751.396,-169.355 798.673,-162.454 841,-154 849.318,-152.339 858.019,-150.355 866.573,-148.259"/>
<polygon fill="midnightblue" stroke="midnightblue" points="710.606,-171.027 701.121,-175.747 711.479,-177.972 710.606,-171.027"/>
</g>
<!-- Node7 -->
<g id="node7" class="node"><title>Node7</title>
<g id="a_node7"><a xlink:href="classgko_1_1EnableAbstractPolymorphicObject.html" target="_top" xlink:title="This mixin inherits from (a subclass of) PolymorphicObject and provides a base implementation of a ne...">
<polygon fill="white" stroke="black" points="136,-38.5 136,-79.5 327,-79.5 327,-38.5 136,-38.5"/>
<text text-anchor="start" x="144" y="-67.5" font-family="Helvetica,sans-Serif" font-size="10.00">gko::EnableAbstractPolymorphic</text>
<text text-anchor="start" x="144" y="-56.5" font-family="Helvetica,sans-Serif" font-size="10.00">Object&lt; AbstactObject, Polymorphic</text>
<text text-anchor="middle" x="231.5" y="-45.5" font-family="Helvetica,sans-Serif" font-size="10.00">Base &gt;</text>
</a>
</g>
</g>
<!-- Node7&#45;&gt;Node3 -->
<g id="edge9" class="edge"><title>Node7&#45;&gt;Node3</title>
<path fill="none" stroke="orange" stroke-dasharray="5,2" d="M337.214,-63.6394C413.963,-66.644 520.685,-70 614.5,-70 614.5,-70 614.5,-70 1289.5,-70 1366.04,-70 1453.16,-70 1515.69,-70"/>
<polygon fill="orange" stroke="orange" points="337.192,-60.1359 327.062,-63.2372 336.915,-67.1304 337.192,-60.1359"/>
<text text-anchor="start" x="859" y="-84" font-family="Helvetica,sans-Serif" font-size="10.00"> &lt; IdentityFactory&lt;</text>
<text text-anchor="middle" x="929.5" y="-73" font-family="Helvetica,sans-Serif" font-size="10.00"> ValueType &gt;, LinOpFactory &gt;</text>
</g>
<!-- Node7&#45;&gt;Node6 -->
<g id="edge6" class="edge"><title>Node7&#45;&gt;Node6</title>
<path fill="none" stroke="orange" stroke-dasharray="5,2" d="M304.604,-82.7831C370.413,-104.489 467.486,-136.509 535.401,-158.91"/>
<polygon fill="orange" stroke="orange" points="305.318,-79.3331 294.725,-79.5245 303.125,-85.9809 305.318,-79.3331"/>
<text text-anchor="start" x="361.5" y="-170" font-family="Helvetica,sans-Serif" font-size="10.00"> &lt; AbstractFactory&lt;</text>
<text text-anchor="start" x="361.5" y="-159" font-family="Helvetica,sans-Serif" font-size="10.00"> LinOp, std::shared</text>
<text text-anchor="middle" x="422" y="-148" font-family="Helvetica,sans-Serif" font-size="10.00">_ptr&lt; const LinOp &gt; &gt; &gt;</text>
</g>
<!-- Node11 -->
<g id="node11" class="node"><title>Node11</title>
<g id="a_node11"><a xlink:href="classgko_1_1EnableAbstractPolymorphicObject.html" target="_top" xlink:title="gko::EnableAbstractPolymorphic\lObject\&lt; ConcreteObject, Polymorphic\lBase \&gt;">
<polygon fill="white" stroke="black" points="517,-0.5 517,-41.5 714,-41.5 714,-0.5 517,-0.5"/>
<text text-anchor="start" x="525" y="-29.5" font-family="Helvetica,sans-Serif" font-size="10.00">gko::EnableAbstractPolymorphic</text>
<text text-anchor="start" x="525" y="-18.5" font-family="Helvetica,sans-Serif" font-size="10.00">Object&lt; ConcreteObject, Polymorphic</text>
<text text-anchor="middle" x="615.5" y="-7.5" font-family="Helvetica,sans-Serif" font-size="10.00">Base &gt;</text>
</a>
</g>
</g>
<!-- Node7&#45;&gt;Node11 -->
<g id="edge13" class="edge"><title>Node7&#45;&gt;Node11</title>
<path fill="none" stroke="orange" stroke-dasharray="5,2" d="M327.537,-36.6924C333.428,-35.6789 339.283,-34.7673 345,-34 401.64,-26.3971 465.502,-23.0883 516.838,-21.7074"/>
<polygon fill="orange" stroke="orange" points="326.826,-33.2642 317.608,-38.487 328.071,-40.1526 326.826,-33.2642"/>
<text text-anchor="start" x="345" y="-48" font-family="Helvetica,sans-Serif" font-size="10.00"> &lt; ConcreteObject, Polymorphic</text>
<text text-anchor="middle" x="422" y="-37" font-family="Helvetica,sans-Serif" font-size="10.00">Base &gt;</text>
</g>
<!-- Node8 -->
<g id="node8" class="node"><title>Node8</title>
<polygon fill="white" stroke="#bfbfbf" points="0,-11.5 0,-30.5 99,-30.5 99,-11.5 0,-11.5"/>
<text text-anchor="middle" x="49.5" y="-18.5" font-family="Helvetica,sans-Serif" font-size="10.00">PolymorphicBase</text>
</g>
<!-- Node8&#45;&gt;Node7 -->
<g id="edge7" class="edge"><title>Node8&#45;&gt;Node7</title>
<path fill="none" stroke="midnightblue" d="M106.004,-32.7174C115.538,-34.7303 125.682,-36.8717 135.904,-39.0297"/>
<polygon fill="midnightblue" stroke="midnightblue" points="106.429,-29.2301 95.9216,-30.589 104.983,-36.0792 106.429,-29.2301"/>
</g>
<!-- Node8&#45;&gt;Node11 -->
<g id="edge12" class="edge"><title>Node8&#45;&gt;Node11</title>
<path fill="none" stroke="midnightblue" d="M109.337,-20.2461C195.051,-19.2594 359.272,-17.7903 499,-19 504.816,-19.0503 510.796,-19.115 516.829,-19.1899"/>
<polygon fill="midnightblue" stroke="midnightblue" points="109.239,-16.7469 99.2803,-20.3638 109.321,-23.7464 109.239,-16.7469"/>
</g>
<!-- Node9 -->
<g id="node9" class="node"><title>Node9</title>
<g id="a_node9"><a xlink:href="classgko_1_1AbstractFactory.html" target="_top" xlink:title="The AbstractFactory is a generic interface template that enables easy implementation of the abstract ...">
<polygon fill="white" stroke="red" points="551,-98.5 551,-139.5 680,-139.5 680,-98.5 551,-98.5"/>
<text text-anchor="start" x="559" y="-127.5" font-family="Helvetica,sans-Serif" font-size="10.00">gko::AbstractFactory</text>
<text text-anchor="start" x="559" y="-116.5" font-family="Helvetica,sans-Serif" font-size="10.00">&lt; AbstractProductType,</text>
<text text-anchor="middle" x="615.5" y="-105.5" font-family="Helvetica,sans-Serif" font-size="10.00"> ComponentsType &gt;</text>
</a>
</g>
</g>
<!-- Node9&#45;&gt;Node5 -->
<g id="edge8" class="edge"><title>Node9&#45;&gt;Node5</title>
<path fill="none" stroke="orange" stroke-dasharray="5,2" d="M690.183,-121.834C744.013,-123.904 816.171,-126.68 866.936,-128.632"/>
<polygon fill="orange" stroke="orange" points="690.141,-118.33 680.014,-121.443 689.872,-125.325 690.141,-118.33"/>
<text text-anchor="start" x="732" y="-142" font-family="Helvetica,sans-Serif" font-size="10.00"> &lt; LinOp, std::shared</text>
<text text-anchor="middle" x="786.5" y="-131" font-family="Helvetica,sans-Serif" font-size="10.00">_ptr&lt; const LinOp &gt; &gt;</text>
</g>
<!-- Node10 -->
<g id="node10" class="node"><title>Node10</title>
<g id="a_node10"><a xlink:href="classgko_1_1EnablePolymorphicObject.html" target="_top" xlink:title="This mixin inherits from (a subclass of) PolymorphicObject and provides a base implementation of a ne...">
<polygon fill="white" stroke="black" points="1018,-6 1018,-36 1220,-36 1220,-6 1018,-6"/>
<text text-anchor="start" x="1026" y="-24" font-family="Helvetica,sans-Serif" font-size="10.00">gko::EnablePolymorphicObject</text>
<text text-anchor="middle" x="1119" y="-13" font-family="Helvetica,sans-Serif" font-size="10.00">&lt; ConcreteObject, PolymorphicBase &gt;</text>
</a>
</g>
</g>
<!-- Node10&#45;&gt;Node2 -->
<g id="edge10" class="edge"><title>Node10&#45;&gt;Node2</title>
<path fill="none" stroke="orange" stroke-dasharray="5,2" d="M1230.31,-23.9051C1368.51,-27.5446 1601.96,-33.6924 1723.91,-36.904"/>
<polygon fill="orange" stroke="orange" points="1230.21,-20.4012 1220.12,-23.6366 1230.02,-27.3988 1230.21,-20.4012"/>
<text text-anchor="start" x="1357" y="-45" font-family="Helvetica,sans-Serif" font-size="10.00"> &lt; IdentityFactory&lt;</text>
<text text-anchor="middle" x="1427.5" y="-34" font-family="Helvetica,sans-Serif" font-size="10.00"> ValueType &gt;, LinOpFactory &gt;</text>
</g>
<!-- Node11&#45;&gt;Node10 -->
<g id="edge11" class="edge"><title>Node11&#45;&gt;Node10</title>
<path fill="none" stroke="midnightblue" d="M724.253,-21C811.242,-21 932.721,-21 1017.67,-21"/>
<polygon fill="midnightblue" stroke="midnightblue" points="724.087,-17.5001 714.087,-21 724.087,-24.5001 724.087,-17.5001"/>
</g>
</g>
</svg>
        <g id="navigator" transform="translate(0 0)" fill="#404254">
                <rect fill="#f2f5e9" fill-opacity="0.5" stroke="#606060" stroke-width=".5" x="0" y="0" width="60" height="60"/>
                <use id="zoomplus" xlink:href="#zoomPlus" x="17" y="9" onmousedown="handleZoom(evt,'in')"/>
                <use id="zoomminus" xlink:href="#zoomMin" x="42" y="9" onmousedown="handleZoom(evt,'out')"/>
                <use id="reset" xlink:href="#resetDef" x="30" y="36" onmousedown="handleReset()"/>
                <g id="arrowUp" xlink:href="#dirArrow" transform="translate(30 24)" onmousedown="handlePan(0,-1)">
                  <use xlink:href="#rim" fill="#404040">
                        <set attributeName="fill" to="#808080" begin="arrowUp.mouseover" end="arrowUp.mouseout"/>
                  </use>
                  <path fill="none" stroke="white" stroke-width="1.5" d="M0,-3.0v7 M-2.5,-0.5L0,-3.0L2.5,-0.5"/>
                </g>
                <g id="arrowRight" xlink:href="#dirArrow" transform="rotate(90) translate(36 -43)" onmousedown="handlePan(1,0)">
                  <use xlink:href="#rim" fill="#404040">
                        <set attributeName="fill" to="#808080" begin="arrowRight.mouseover" end="arrowRight.mouseout"/>
                  </use>
                  <path fill="none" stroke="white" stroke-width="1.5" d="M0,-3.0v7 M-2.5,-0.5L0,-3.0L2.5,-0.5"/>
                </g>
                <g id="arrowDown" xlink:href="#dirArrow" transform="rotate(180) translate(-30 -48)" onmousedown="handlePan(0,1)">
                  <use xlink:href="#rim" fill="#404040">
                        <set attributeName="fill" to="#808080" begin="arrowDown.mouseover" end="arrowDown.mouseout"/>
                  </use>
                  <path fill="none" stroke="white" stroke-width="1.5" d="M0,-3.0v7 M-2.5,-0.5L0,-3.0L2.5,-0.5"/>
                </g>
                <g id="arrowLeft" xlink:href="#dirArrow" transform="rotate(270) translate(-36 17)" onmousedown="handlePan(-1,0)">
                  <use xlink:href="#rim" fill="#404040">
                        <set attributeName="fill" to="#808080" begin="arrowLeft.mouseover" end="arrowLeft.mouseout"/>
                  </use>
                  <path fill="none" stroke="white" stroke-width="1.5" d="M0,-3.0v7 M-2.5,-0.5L0,-3.0L2.5,-0.5"/>
                </g>
        </g>
        <svg viewBox="0 0 15 15" width="100%" height="30px" preserveAspectRatio="xMaxYMin meet">
         <g id="arrow_out" transform="scale(0.3 0.3)">
          <a xlink:href="classgko_1_1matrix_1_1IdentityFactory__coll__graph_org.svg" target="_base">
           <rect id="button" ry="5" rx="5" y="6" x="6" height="38" width="38"
                fill="#f2f5e9" fill-opacity="0.5" stroke="#606060" stroke-width="1.0"/>
           <path id="arrow"
             d="M 11.500037,31.436501 C 11.940474,20.09759 22.043105,11.32322 32.158766,21.979434 L 37.068811,17.246167 C 37.068811,17.246167 37.088388,32 37.088388,32 L 22.160133,31.978069 C 22.160133,31.978069 26.997745,27.140456 26.997745,27.140456 C 18.528582,18.264221 13.291696,25.230495 11.500037,31.436501 z"
             style="fill:#404040;"/>
          </a>
         </g>
        </svg>
</svg>
