<?xml version="1.0" encoding="UTF-8" standalone="no"?>
<!DOCTYPE svg PUBLIC "-//W3C//DTD SVG 1.1//EN"
 "http://www.w3.org/Graphics/SVG/1.1/DTD/svg11.dtd">
<!-- Generated by graphviz version 2.40.1 (20161225.0304)
 -->
<!-- Title: gko::matrix::Ell&lt; ValueType, IndexType &gt; Pages: 1 -->
<svg width="2320pt" height="383pt"
 viewBox="0.00 0.00 2320.00 383.00" xmlns="http://www.w3.org/2000/svg" xmlns:xlink="http://www.w3.org/1999/xlink">
<g id="graph0" class="graph" transform="scale(1 1) rotate(0) translate(4 379)">
<title>gko::matrix::Ell&lt; ValueType, IndexType &gt;</title>
<polygon fill="#ffffff" stroke="transparent" points="-4,4 -4,-379 2316,-379 2316,4 -4,4"/>
<!-- Node0 -->
<g id="node1" class="node">
<title>Node0</title>
<polygon fill="#bfbfbf" stroke="#000000" points="2157,-147.5 2157,-177.5 2312,-177.5 2312,-147.5 2157,-147.5"/>
<text text-anchor="start" x="2165" y="-165.5" font-family="Helvetica,sans-Serif" font-size="10.00" fill="#000000">gko::matrix::Ell&lt; ValueType,</text>
<text text-anchor="middle" x="2234.5" y="-154.5" font-family="Helvetica,sans-Serif" font-size="10.00" fill="#000000"> IndexType &gt;</text>
</g>
<!-- Node1 -->
<g id="node2" class="node">
<title>Node1</title>
<g id="a_node2"><a xlink:href="classgko_1_1EnableLinOp.html" target="_top" xlink:title="gko::EnableLinOp\&lt; Ell\l\&lt; ValueType, IndexType \&gt; \&gt;">
<polygon fill="#ffffff" stroke="#000000" points="1953,-196.5 1953,-226.5 2108,-226.5 2108,-196.5 1953,-196.5"/>
<text text-anchor="start" x="1961" y="-214.5" font-family="Helvetica,sans-Serif" font-size="10.00" fill="#000000">gko::EnableLinOp&lt; Ell</text>
<text text-anchor="middle" x="2030.5" y="-203.5" font-family="Helvetica,sans-Serif" font-size="10.00" fill="#000000">&lt; ValueType, IndexType &gt; &gt;</text>
</a>
</g>
</g>
<!-- Node1&#45;&gt;Node0 -->
<g id="edge1" class="edge">
<title>Node1&#45;&gt;Node0</title>
<path fill="none" stroke="#191970" d="M2102.9568,-194.0962C2125.5238,-188.6757 2150.2023,-182.748 2172.0253,-177.5062"/>
<polygon fill="#191970" stroke="#191970" points="2101.9991,-190.7266 2093.0931,-196.4654 2103.634,-197.533 2101.9991,-190.7266"/>
</g>
<!-- Node2 -->
<g id="node3" class="node">
<title>Node2</title>
<g id="a_node3"><a xlink:href="classgko_1_1EnablePolymorphicObject.html" target="_top" xlink:title="gko::EnablePolymorphicObject\l\&lt; Ell\&lt; ValueType, IndexType\l \&gt;, LinOp \&gt;">
<polygon fill="#ffffff" stroke="#000000" points="1573,-107 1573,-148 1739,-148 1739,-107 1573,-107"/>
<text text-anchor="start" x="1581" y="-136" font-family="Helvetica,sans-Serif" font-size="10.00" fill="#000000">gko::EnablePolymorphicObject</text>
<text text-anchor="start" x="1581" y="-125" font-family="Helvetica,sans-Serif" font-size="10.00" fill="#000000">&lt; Ell&lt; ValueType, IndexType</text>
<text text-anchor="middle" x="1656" y="-114" font-family="Helvetica,sans-Serif" font-size="10.00" fill="#000000"> &gt;, LinOp &gt;</text>
</a>
</g>
</g>
<!-- Node2&#45;&gt;Node1 -->
<g id="edge2" class="edge">
<title>Node2&#45;&gt;Node1</title>
<path fill="none" stroke="#191970" d="M1749.1925,-148.403C1815.7818,-163.3389 1903.8075,-183.083 1963.53,-196.4787"/>
<polygon fill="#191970" stroke="#191970" points="1749.6373,-144.9159 1739.1137,-146.1423 1748.1052,-151.7462 1749.6373,-144.9159"/>
</g>
<!-- Node3 -->
<g id="node4" class="node">
<title>Node3</title>
<g id="a_node4"><a xlink:href="classgko_1_1EnableAbstractPolymorphicObject.html" target="_top" xlink:title="gko::EnableAbstractPolymorphic\lObject\&lt; Ell\&lt; ValueType, IndexType\l \&gt;, LinOp \&gt;">
<polygon fill="#ffffff" stroke="#000000" points="1341.5,-34 1341.5,-75 1529.5,-75 1529.5,-34 1341.5,-34"/>
<text text-anchor="start" x="1349.5" y="-63" font-family="Helvetica,sans-Serif" font-size="10.00" fill="#000000">gko::EnableAbstractPolymorphic</text>
<text text-anchor="start" x="1349.5" y="-52" font-family="Helvetica,sans-Serif" font-size="10.00" fill="#000000">Object&lt; Ell&lt; ValueType, IndexType</text>
<text text-anchor="middle" x="1435.5" y="-41" font-family="Helvetica,sans-Serif" font-size="10.00" fill="#000000"> &gt;, LinOp &gt;</text>
</a>
</g>
</g>
<!-- Node3&#45;&gt;Node2 -->
<g id="edge3" class="edge">
<title>Node3&#45;&gt;Node2</title>
<path fill="none" stroke="#191970" d="M1507.2468,-78.2529C1535.2663,-87.5292 1567.0804,-98.0618 1594.0754,-106.9989"/>
<polygon fill="#191970" stroke="#191970" points="1508.1016,-74.8492 1497.5083,-75.0288 1505.9016,-81.4944 1508.1016,-74.8492"/>
</g>
<!-- Node4 -->
<g id="node5" class="node">
<title>Node4</title>
<g id="a_node5"><a xlink:href="classgko_1_1LinOp.html" target="_top" xlink:title="The linear operator (LinOp) is a base class for all linear algebra objects in Ginkgo. ">
<polygon fill="#ffffff" stroke="#000000" points="996.5,-11 996.5,-30 1064.5,-30 1064.5,-11 996.5,-11"/>
<text text-anchor="middle" x="1030.5" y="-18" font-family="Helvetica,sans-Serif" font-size="10.00" fill="#000000">gko::LinOp</text>
</a>
</g>
</g>
<!-- Node4&#45;&gt;Node3 -->
<g id="edge4" class="edge">
<title>Node4&#45;&gt;Node3</title>
<path fill="none" stroke="#191970" d="M1074.7906,-24.2182C1138.4979,-29.5665 1257.546,-39.5606 1341.4125,-46.6013"/>
<polygon fill="#191970" stroke="#191970" points="1074.9388,-20.7184 1064.681,-23.3695 1074.3531,-27.6939 1074.9388,-20.7184"/>
</g>
<!-- Node5 -->
<g id="node6" class="node">
<title>Node5</title>
<g id="a_node6"><a xlink:href="classgko_1_1EnableAbstractPolymorphicObject.html" target="_top" xlink:title="gko::EnableAbstractPolymorphic\lObject\&lt; LinOp \&gt;">
<polygon fill="#ffffff" stroke="#ff0000" points="538,-.5 538,-30.5 713,-30.5 713,-.5 538,-.5"/>
<text text-anchor="start" x="546" y="-18.5" font-family="Helvetica,sans-Serif" font-size="10.00" fill="#000000">gko::EnableAbstractPolymorphic</text>
<text text-anchor="middle" x="625.5" y="-7.5" font-family="Helvetica,sans-Serif" font-size="10.00" fill="#000000">Object&lt; LinOp &gt;</text>
</a>
</g>
</g>
<!-- Node5&#45;&gt;Node4 -->
<g id="edge5" class="edge">
<title>Node5&#45;&gt;Node4</title>
<path fill="none" stroke="#191970" d="M723.4215,-16.7089C811.7403,-17.7993 936.6381,-19.3412 996.2509,-20.0772"/>
<polygon fill="#191970" stroke="#191970" points="723.4214,-13.2087 713.379,-16.5849 723.335,-20.2082 723.4214,-13.2087"/>
</g>
<!-- Node10 -->
<g id="node7" class="node">
<title>Node10</title>
<g id="a_node7"><a xlink:href="classgko_1_1EnableAbstractPolymorphicObject.html" target="_top" xlink:title="This mixin inherits from (a subclass of) PolymorphicObject and provides a base implementation of a ne...">
<polygon fill="#ffffff" stroke="#000000" points="138,-60 138,-101 332,-101 332,-60 138,-60"/>
<text text-anchor="start" x="146" y="-89" font-family="Helvetica,sans-Serif" font-size="10.00" fill="#000000">gko::EnableAbstractPolymorphic</text>
<text text-anchor="start" x="146" y="-78" font-family="Helvetica,sans-Serif" font-size="10.00" fill="#000000">Object&lt; AbstactObject, Polymorphic</text>
<text text-anchor="middle" x="235" y="-67" font-family="Helvetica,sans-Serif" font-size="10.00" fill="#000000">Base &gt;</text>
</a>
</g>
</g>
<!-- Node10&#45;&gt;Node3 -->
<g id="edge8" class="edge">
<title>Node10&#45;&gt;Node3</title>
<path fill="none" stroke="#ffa500" stroke-dasharray="5,2" d="M342.3782,-78.1744C574.7486,-73.1418 1121.0031,-61.3113 1341.1193,-56.5441"/>
<polygon fill="#ffa500" stroke="#ffa500" points="342.1469,-74.6785 332.2251,-78.3943 342.2985,-81.6769 342.1469,-74.6785"/>
<text text-anchor="start" x="755.5" y="-83.5" font-family="Helvetica,sans-Serif" font-size="10.00" fill="#000000"> &lt; Ell&lt; ValueType, IndexType</text>
<text text-anchor="middle" x="827" y="-72.5" font-family="Helvetica,sans-Serif" font-size="10.00" fill="#000000"> &gt;, LinOp &gt;</text>
</g>
<!-- Node10&#45;&gt;Node5 -->
<g id="edge6" class="edge">
<title>Node10&#45;&gt;Node5</title>
<path fill="none" stroke="#ffa500" stroke-dasharray="5,2" d="M286.4136,-55.9578C305.9005,-47.7251 328.5623,-39.3994 350,-34.5 411.8116,-20.3736 483.2839,-15.772 537.9393,-14.6241"/>
<polygon fill="#ffa500" stroke="#ffa500" points="284.9107,-52.7944 277.1217,-59.9765 287.6894,-59.2193 284.9107,-52.7944"/>
<text text-anchor="middle" x="428.5" y="-37.5" font-family="Helvetica,sans-Serif" font-size="10.00" fill="#000000"> &lt; LinOp &gt;</text>
</g>
<!-- Node13 -->
<g id="node10" class="node">
<title>Node13</title>
<g id="a_node10"><a xlink:href="classgko_1_1EnableAbstractPolymorphicObject.html" target="_top" xlink:title="gko::EnableAbstractPolymorphic\lObject\&lt; ConcreteObject, Polymorphic\lBase \&gt;">
<polygon fill="#ffffff" stroke="#000000" points="525,-97 525,-138 726,-138 726,-97 525,-97"/>
<text text-anchor="start" x="533" y="-126" font-family="Helvetica,sans-Serif" font-size="10.00" fill="#000000">gko::EnableAbstractPolymorphic</text>
<text text-anchor="start" x="533" y="-115" font-family="Helvetica,sans-Serif" font-size="10.00" fill="#000000">Object&lt; ConcreteObject, Polymorphic</text>
<text text-anchor="middle" x="625.5" y="-104" font-family="Helvetica,sans-Serif" font-size="10.00" fill="#000000">Base &gt;</text>
</a>
</g>
</g>
<!-- Node10&#45;&gt;Node13 -->
<g id="edge12" class="edge">
<title>Node10&#45;&gt;Node13</title>
<path fill="none" stroke="#ffa500" stroke-dasharray="5,2" d="M342.4528,-81.8743C392.6043,-83.4775 453.0146,-86.7826 507,-93.5 514.7071,-94.459 522.6617,-95.6421 530.6314,-96.9646"/>
<polygon fill="#ffa500" stroke="#ffa500" points="342.3399,-78.3694 332.239,-81.5666 342.1291,-85.3662 342.3399,-78.3694"/>
<text text-anchor="start" x="350" y="-107.5" font-family="Helvetica,sans-Serif" font-size="10.00" fill="#000000"> &lt; ConcreteObject, Polymorphic</text>
<text text-anchor="middle" x="428.5" y="-96.5" font-family="Helvetica,sans-Serif" font-size="10.00" fill="#000000">Base &gt;</text>
</g>
<!-- Node20 -->
<g id="node17" class="node">
<title>Node20</title>
<g id="a_node17"><a xlink:href="classgko_1_1EnableAbstractPolymorphicObject.html" target="_top" xlink:title="gko::EnableAbstractPolymorphic\lObject\&lt; ConcreteLinOp, Polymorphic\lBase \&gt;">
<polygon fill="#ffffff" stroke="#000000" points="527,-161 527,-202 724,-202 724,-161 527,-161"/>
<text text-anchor="start" x="535" y="-190" font-family="Helvetica,sans-Serif" font-size="10.00" fill="#000000">gko::EnableAbstractPolymorphic</text>
<text text-anchor="start" x="535" y="-179" font-family="Helvetica,sans-Serif" font-size="10.00" fill="#000000">Object&lt; ConcreteLinOp, Polymorphic</text>
<text text-anchor="middle" x="625.5" y="-168" font-family="Helvetica,sans-Serif" font-size="10.00" fill="#000000">Base &gt;</text>
</a>
</g>
</g>
<!-- Node10&#45;&gt;Node20 -->
<g id="edge22" class="edge">
<title>Node10&#45;&gt;Node20</title>
<path fill="none" stroke="#ffa500" stroke-dasharray="5,2" d="M301.3618,-104.335C317.1991,-109.6529 334.1177,-115.0333 350,-119.5 408.05,-135.826 473.9168,-150.7764 526.6881,-161.9043"/>
<polygon fill="#ffa500" stroke="#ffa500" points="302.2539,-100.9417 291.6596,-101.0406 300.0033,-107.57 302.2539,-100.9417"/>
<text text-anchor="start" x="352" y="-171.5" font-family="Helvetica,sans-Serif" font-size="10.00" fill="#000000"> &lt; ConcreteLinOp, Polymorphic</text>
<text text-anchor="middle" x="428.5" y="-160.5" font-family="Helvetica,sans-Serif" font-size="10.00" fill="#000000">Base &gt;</text>
</g>
<!-- Node11 -->
<g id="node8" class="node">
<title>Node11</title>
<polygon fill="#ffffff" stroke="#bfbfbf" points="0,-120 0,-139 101,-139 101,-120 0,-120"/>
<text text-anchor="middle" x="50.5" y="-127" font-family="Helvetica,sans-Serif" font-size="10.00" fill="#000000">PolymorphicBase</text>
</g>
<!-- Node11&#45;&gt;Node10 -->
<g id="edge7" class="edge">
<title>Node11&#45;&gt;Node10</title>
<path fill="none" stroke="#191970" d="M96.3988,-117.3101C114.8661,-112.4055 136.6815,-106.6117 157.4728,-101.0899"/>
<polygon fill="#191970" stroke="#191970" points="95.278,-113.9863 86.5114,-119.936 97.0748,-120.7518 95.278,-113.9863"/>
</g>
<!-- Node11&#45;&gt;Node13 -->
<g id="edge11" class="edge">
<title>Node11&#45;&gt;Node13</title>
<path fill="none" stroke="#191970" d="M111.106,-128.2352C209.5893,-126.1799 405.3646,-122.0941 524.9499,-119.5984"/>
<polygon fill="#191970" stroke="#191970" points="110.9482,-124.7376 101.0235,-128.4456 111.0944,-131.7361 110.9482,-124.7376"/>
</g>
<!-- Node11&#45;&gt;Node20 -->
<g id="edge21" class="edge">
<title>Node11&#45;&gt;Node20</title>
<path fill="none" stroke="#191970" d="M100.2206,-141.2773C159.3433,-154.6255 261.2016,-175.5588 350,-183.5 419.5004,-189.7154 437.2247,-184.0888 507,-183.5 513.4812,-183.4453 520.1615,-183.3738 526.8939,-183.2904"/>
<polygon fill="#191970" stroke="#191970" points="100.9271,-137.8487 90.3995,-139.0408 99.3727,-144.6739 100.9271,-137.8487"/>
</g>
<!-- Node12 -->
<g id="node9" class="node">
<title>Node12</title>
<g id="a_node9"><a xlink:href="classgko_1_1EnablePolymorphicObject.html" target="_top" xlink:title="This mixin inherits from (a subclass of) PolymorphicObject and provides a base implementation of a ne...">
<polygon fill="#ffffff" stroke="#000000" points="928,-102.5 928,-132.5 1133,-132.5 1133,-102.5 928,-102.5"/>
<text text-anchor="start" x="936" y="-120.5" font-family="Helvetica,sans-Serif" font-size="10.00" fill="#000000">gko::EnablePolymorphicObject</text>
<text text-anchor="middle" x="1030.5" y="-109.5" font-family="Helvetica,sans-Serif" font-size="10.00" fill="#000000">&lt; ConcreteObject, PolymorphicBase &gt;</text>
</a>
</g>
</g>
<!-- Node12&#45;&gt;Node2 -->
<g id="edge9" class="edge">
<title>Node12&#45;&gt;Node2</title>
<path fill="none" stroke="#ffa500" stroke-dasharray="5,2" d="M1143.3441,-119.3041C1267.0099,-121.2811 1462.4638,-124.4059 1572.876,-126.1711"/>
<polygon fill="#ffa500" stroke="#ffa500" points="1143.1429,-115.8005 1133.0882,-119.1401 1143.0309,-122.7996 1143.1429,-115.8005"/>
<text text-anchor="start" x="1364" y="-138.5" font-family="Helvetica,sans-Serif" font-size="10.00" fill="#000000"> &lt; Ell&lt; ValueType, IndexType</text>
<text text-anchor="middle" x="1435.5" y="-127.5" font-family="Helvetica,sans-Serif" font-size="10.00" fill="#000000"> &gt;, LinOp &gt;</text>
</g>
<!-- Node19 -->
<g id="node16" class="node">
<title>Node19</title>
<g id="a_node16"><a xlink:href="classgko_1_1EnablePolymorphicObject.html" target="_top" xlink:title="gko::EnablePolymorphicObject\l\&lt; ConcreteLinOp, PolymorphicBase \&gt;">
<polygon fill="#ffffff" stroke="#000000" points="1335,-164.5 1335,-194.5 1536,-194.5 1536,-164.5 1335,-164.5"/>
<text text-anchor="start" x="1343" y="-182.5" font-family="Helvetica,sans-Serif" font-size="10.00" fill="#000000">gko::EnablePolymorphicObject</text>
<text text-anchor="middle" x="1435.5" y="-171.5" font-family="Helvetica,sans-Serif" font-size="10.00" fill="#000000">&lt; ConcreteLinOp, PolymorphicBase &gt;</text>
</a>
</g>
</g>
<!-- Node12&#45;&gt;Node19 -->
<g id="edge23" class="edge">
<title>Node12&#45;&gt;Node19</title>
<path fill="none" stroke="#ffa500" stroke-dasharray="5,2" d="M1143.3572,-123.7686C1196.3843,-127.9266 1260.2728,-134.6833 1317,-145.5 1341.5983,-150.1904 1368.4642,-157.6953 1390.387,-164.4624"/>
<polygon fill="#ffa500" stroke="#ffa500" points="1143.4821,-120.2681 1133.2447,-122.9967 1142.9492,-127.2478 1143.4821,-120.2681"/>
<text text-anchor="start" x="1157.5" y="-159.5" font-family="Helvetica,sans-Serif" font-size="10.00" fill="#000000"> &lt; ConcreteLinOp, Polymorphic</text>
<text text-anchor="middle" x="1234" y="-148.5" font-family="Helvetica,sans-Serif" font-size="10.00" fill="#000000">Base &gt;</text>
</g>
<!-- Node13&#45;&gt;Node12 -->
<g id="edge10" class="edge">
<title>Node13&#45;&gt;Node12</title>
<path fill="none" stroke="#191970" d="M736.3684,-117.5C796.1586,-117.5 869.4543,-117.5 927.9206,-117.5"/>
<polygon fill="#191970" stroke="#191970" points="736.1328,-114.0001 726.1327,-117.5 736.1327,-121.0001 736.1328,-114.0001"/>
</g>
<!-- Node14 -->
<g id="node11" class="node">
<title>Node14</title>
<g id="a_node11"><a xlink:href="classgko_1_1EnablePolymorphicAssignment.html" target="_top" xlink:title="gko::EnablePolymorphicAssignment\l\&lt; Ell\&lt; ValueType, IndexType \&gt; \&gt;">
<polygon fill="#ffffff" stroke="#000000" points="1339.5,-213.5 1339.5,-243.5 1531.5,-243.5 1531.5,-213.5 1339.5,-213.5"/>
<text text-anchor="start" x="1347.5" y="-231.5" font-family="Helvetica,sans-Serif" font-size="10.00" fill="#000000">gko::EnablePolymorphicAssignment</text>
<text text-anchor="middle" x="1435.5" y="-220.5" font-family="Helvetica,sans-Serif" font-size="10.00" fill="#000000">&lt; Ell&lt; ValueType, IndexType &gt; &gt;</text>
</a>
</g>
</g>
<!-- Node14&#45;&gt;Node1 -->
<g id="edge13" class="edge">
<title>Node14&#45;&gt;Node1</title>
<path fill="none" stroke="#191970" d="M1541.9054,-225.4598C1660.03,-222.0849 1847.8413,-216.7188 1952.8781,-213.7178"/>
<polygon fill="#191970" stroke="#191970" points="1541.6543,-221.9655 1531.7583,-225.7498 1541.8542,-228.9626 1541.6543,-221.9655"/>
</g>
<!-- Node15 -->
<g id="node12" class="node">
<title>Node15</title>
<g id="a_node12"><a xlink:href="classgko_1_1ConvertibleTo.html" target="_top" xlink:title="gko::ConvertibleTo\l\&lt; Ell\&lt; ValueType, IndexType \&gt; \&gt;">
<polygon fill="#ffffff" stroke="#000000" points="941,-210.5 941,-240.5 1120,-240.5 1120,-210.5 941,-210.5"/>
<text text-anchor="start" x="949" y="-228.5" font-family="Helvetica,sans-Serif" font-size="10.00" fill="#000000">gko::ConvertibleTo</text>
<text text-anchor="middle" x="1030.5" y="-217.5" font-family="Helvetica,sans-Serif" font-size="10.00" fill="#000000">&lt; Ell&lt; ValueType, IndexType &gt; &gt;</text>
</a>
</g>
</g>
<!-- Node15&#45;&gt;Node14 -->
<g id="edge14" class="edge">
<title>Node15&#45;&gt;Node14</title>
<path fill="none" stroke="#191970" d="M1130.2051,-226.2386C1193.9991,-226.7111 1276.3163,-227.3209 1339.3958,-227.7881"/>
<polygon fill="#191970" stroke="#191970" points="1130.1571,-222.7382 1120.1314,-226.1639 1130.1051,-229.738 1130.1571,-222.7382"/>
</g>
<!-- Node16 -->
<g id="node13" class="node">
<title>Node16</title>
<g id="a_node13"><a xlink:href="classgko_1_1ConvertibleTo.html" target="_top" xlink:title="ConvertibleTo interface is used to mark that the implementer can be converted to the object of Result...">
<polygon fill="#ffffff" stroke="#000000" points="572,-280.5 572,-310.5 679,-310.5 679,-280.5 572,-280.5"/>
<text text-anchor="start" x="580" y="-298.5" font-family="Helvetica,sans-Serif" font-size="10.00" fill="#000000">gko::ConvertibleTo</text>
<text text-anchor="middle" x="625.5" y="-287.5" font-family="Helvetica,sans-Serif" font-size="10.00" fill="#000000">&lt; ResultType &gt;</text>
</a>
</g>
</g>
<!-- Node16&#45;&gt;Node15 -->
<g id="edge15" class="edge">
<title>Node16&#45;&gt;Node15</title>
<path fill="none" stroke="#ffa500" stroke-dasharray="5,2" d="M689.3657,-277.9718C706.9806,-273.5095 726.1551,-268.9937 744,-265.5 809.4276,-252.6904 884.0392,-242.4098 940.7165,-235.4798"/>
<polygon fill="#ffa500" stroke="#ffa500" points="688.0107,-274.7062 679.1963,-280.5848 689.7528,-281.4859 688.0107,-274.7062"/>
<text text-anchor="middle" x="827" y="-268.5" font-family="Helvetica,sans-Serif" font-size="10.00" fill="#000000"> &lt; Ell&lt; ValueType, IndexType &gt; &gt;</text>
</g>
<!-- Node17 -->
<g id="node14" class="node">
<title>Node17</title>
<g id="a_node14"><a xlink:href="classgko_1_1EnablePolymorphicAssignment.html" target="_top" xlink:title="This mixin is used to enable a default PolymorphicObject::copy_from() implementation for objects that...">
<polygon fill="#ffffff" stroke="#000000" points="934.5,-259.5 934.5,-289.5 1126.5,-289.5 1126.5,-259.5 934.5,-259.5"/>
<text text-anchor="start" x="942.5" y="-277.5" font-family="Helvetica,sans-Serif" font-size="10.00" fill="#000000">gko::EnablePolymorphicAssignment</text>
<text text-anchor="middle" x="1030.5" y="-266.5" font-family="Helvetica,sans-Serif" font-size="10.00" fill="#000000">&lt; ConcreteType, ResultType &gt;</text>
</a>
</g>
</g>
<!-- Node16&#45;&gt;Node17 -->
<g id="edge17" class="edge">
<title>Node16&#45;&gt;Node17</title>
<path fill="none" stroke="#191970" d="M689.5052,-292.1812C755.2746,-288.7709 858.4622,-283.4205 934.1124,-279.4979"/>
<polygon fill="#191970" stroke="#191970" points="689.0862,-288.6981 679.2809,-292.7114 689.4487,-295.6888 689.0862,-288.6981"/>
</g>
<!-- Node22 -->
<g id="node19" class="node">
<title>Node22</title>
<g id="a_node19"><a xlink:href="classgko_1_1ConvertibleTo.html" target="_top" xlink:title="gko::ConvertibleTo\l\&lt; ConcreteLinOp \&gt;">
<polygon fill="#ffffff" stroke="#000000" points="975.5,-308.5 975.5,-338.5 1085.5,-338.5 1085.5,-308.5 975.5,-308.5"/>
<text text-anchor="start" x="983.5" y="-326.5" font-family="Helvetica,sans-Serif" font-size="10.00" fill="#000000">gko::ConvertibleTo</text>
<text text-anchor="middle" x="1030.5" y="-315.5" font-family="Helvetica,sans-Serif" font-size="10.00" fill="#000000">&lt; ConcreteLinOp &gt;</text>
</a>
</g>
</g>
<!-- Node16&#45;&gt;Node22 -->
<g id="edge26" class="edge">
<title>Node16&#45;&gt;Node22</title>
<path fill="none" stroke="#ffa500" stroke-dasharray="5,2" d="M689.5551,-299.9285C768.3148,-305.3736 900.6793,-314.5247 975.1976,-319.6766"/>
<polygon fill="#ffa500" stroke="#ffa500" points="689.4985,-296.4163 679.2809,-299.2182 689.0156,-303.3997 689.4985,-296.4163"/>
<text text-anchor="middle" x="827" y="-316.5" font-family="Helvetica,sans-Serif" font-size="10.00" fill="#000000"> &lt; ConcreteLinOp &gt;</text>
</g>
<!-- Node25 -->
<g id="node22" class="node">
<title>Node25</title>
<g id="a_node22"><a xlink:href="classgko_1_1ConvertibleTo.html" target="_top" xlink:title="gko::ConvertibleTo\l\&lt; Dense\&lt; ValueType \&gt; \&gt;">
<polygon fill="#ffffff" stroke="#000000" points="1163,-344.5 1163,-374.5 1305,-374.5 1305,-344.5 1163,-344.5"/>
<text text-anchor="start" x="1171" y="-362.5" font-family="Helvetica,sans-Serif" font-size="10.00" fill="#000000">gko::ConvertibleTo</text>
<text text-anchor="middle" x="1234" y="-351.5" font-family="Helvetica,sans-Serif" font-size="10.00" fill="#000000">&lt; Dense&lt; ValueType &gt; &gt;</text>
</a>
</g>
</g>
<!-- Node16&#45;&gt;Node25 -->
<g id="edge31" class="edge">
<title>Node16&#45;&gt;Node25</title>
<path fill="none" stroke="#ffa500" stroke-dasharray="5,2" d="M682.2543,-313.3345C701.6744,-318.8929 723.6374,-324.5852 744,-328.5 890.9051,-356.7429 1066.6771,-360.8313 1162.695,-360.6099"/>
<polygon fill="#ffa500" stroke="#ffa500" points="683.2287,-309.973 672.6489,-310.538 681.2719,-316.6939 683.2287,-309.973"/>
<text text-anchor="middle" x="827" y="-352.5" font-family="Helvetica,sans-Serif" font-size="10.00" fill="#000000"> &lt; Dense&lt; ValueType &gt; &gt;</text>
</g>
<!-- Node17&#45;&gt;Node14 -->
<g id="edge16" class="edge">
<title>Node17&#45;&gt;Node14</title>
<path fill="none" stroke="#ffa500" stroke-dasharray="5,2" d="M1137.0555,-262.3974C1199.7684,-255.2745 1278.449,-246.3379 1339.2767,-239.4291"/>
<polygon fill="#ffa500" stroke="#ffa500" points="1136.2772,-258.9632 1126.7361,-263.5695 1137.0672,-265.9185 1136.2772,-258.9632"/>
<text text-anchor="middle" x="1234" y="-262.5" font-family="Helvetica,sans-Serif" font-size="10.00" fill="#000000"> &lt; Ell&lt; ValueType, IndexType &gt; &gt;</text>
</g>
<!-- Node21 -->
<g id="node18" class="node">
<title>Node21</title>
<g id="a_node18"><a xlink:href="classgko_1_1EnablePolymorphicAssignment.html" target="_top" xlink:title="gko::EnablePolymorphicAssignment\l\&lt; ConcreteLinOp \&gt;">
<polygon fill="#ffffff" stroke="#000000" points="1339.5,-277.5 1339.5,-307.5 1531.5,-307.5 1531.5,-277.5 1339.5,-277.5"/>
<text text-anchor="start" x="1347.5" y="-295.5" font-family="Helvetica,sans-Serif" font-size="10.00" fill="#000000">gko::EnablePolymorphicAssignment</text>
<text text-anchor="middle" x="1435.5" y="-284.5" font-family="Helvetica,sans-Serif" font-size="10.00" fill="#000000">&lt; ConcreteLinOp &gt;</text>
</a>
</g>
</g>
<!-- Node17&#45;&gt;Node21 -->
<g id="edge27" class="edge">
<title>Node17&#45;&gt;Node21</title>
<path fill="none" stroke="#ffa500" stroke-dasharray="5,2" d="M1137.0555,-279.2358C1199.7684,-282.023 1278.449,-285.52 1339.2767,-288.2234"/>
<polygon fill="#ffa500" stroke="#ffa500" points="1136.8817,-275.7247 1126.7361,-278.7772 1136.5708,-282.7178 1136.8817,-275.7247"/>
<text text-anchor="middle" x="1234" y="-289.5" font-family="Helvetica,sans-Serif" font-size="10.00" fill="#000000"> &lt; ConcreteLinOp &gt;</text>
</g>
<!-- Node18 -->
<g id="node15" class="node">
<title>Node18</title>
<g id="a_node15"><a xlink:href="classgko_1_1EnableLinOp.html" target="_top" xlink:title="The EnableLinOp mixin can be used to provide sensible default implementations of the majority of the ...">
<polygon fill="#ffffff" stroke="#000000" points="1578,-240.5 1578,-270.5 1734,-270.5 1734,-240.5 1578,-240.5"/>
<text text-anchor="start" x="1586" y="-258.5" font-family="Helvetica,sans-Serif" font-size="10.00" fill="#000000">gko::EnableLinOp&lt; Concrete</text>
<text text-anchor="middle" x="1656" y="-247.5" font-family="Helvetica,sans-Serif" font-size="10.00" fill="#000000">LinOp, PolymorphicBase &gt;</text>
</a>
</g>
</g>
<!-- Node18&#45;&gt;Node1 -->
<g id="edge18" class="edge">
<title>Node18&#45;&gt;Node1</title>
<path fill="none" stroke="#ffa500" stroke-dasharray="5,2" d="M1744.2292,-245.9814C1796.2767,-240.2677 1863.4166,-232.7267 1923,-225.5 1932.6222,-224.333 1942.7235,-223.0689 1952.7217,-221.7941"/>
<polygon fill="#ffa500" stroke="#ffa500" points="1743.5869,-242.5307 1734.0276,-247.0991 1744.3494,-249.489 1743.5869,-242.5307"/>
<text text-anchor="middle" x="1840" y="-246.5" font-family="Helvetica,sans-Serif" font-size="10.00" fill="#000000"> &lt; Ell&lt; ValueType, IndexType &gt; &gt;</text>
</g>
<!-- Node19&#45;&gt;Node18 -->
<g id="edge19" class="edge">
<title>Node19&#45;&gt;Node18</title>
<path fill="none" stroke="#191970" d="M1512.0602,-197.2009C1520.1945,-199.4805 1528.3025,-201.9249 1536,-204.5 1566.6983,-214.7699 1600.5441,-229.4798 1624.4423,-240.4649"/>
<polygon fill="#191970" stroke="#191970" points="1512.719,-193.7529 1502.1508,-194.5042 1510.8809,-200.5073 1512.719,-193.7529"/>
</g>
<!-- Node20&#45;&gt;Node19 -->
<g id="edge20" class="edge">
<title>Node20&#45;&gt;Node19</title>
<path fill="none" stroke="#191970" d="M734.2025,-181.2316C891.8584,-180.8423 1181.7947,-180.1264 1334.818,-179.7486"/>
<polygon fill="#191970" stroke="#191970" points="734.0034,-177.732 724.0121,-181.2568 734.0208,-184.732 734.0034,-177.732"/>
</g>
<!-- Node21&#45;&gt;Node18 -->
<g id="edge24" class="edge">
<title>Node21&#45;&gt;Node18</title>
<path fill="none" stroke="#191970" d="M1535.4533,-275.7278C1549.6282,-273.3492 1564.0321,-270.9323 1577.7168,-268.636"/>
<polygon fill="#191970" stroke="#191970" points="1534.4687,-272.344 1525.1858,-277.4507 1535.6271,-279.2475 1534.4687,-272.344"/>
</g>
<!-- Node22&#45;&gt;Node21 -->
<g id="edge25" class="edge">
<title>Node22&#45;&gt;Node21</title>
<path fill="none" stroke="#191970" d="M1095.7929,-318.5023C1161.6851,-313.4587 1264.171,-305.6141 1339.3512,-299.8595"/>
<polygon fill="#191970" stroke="#191970" points="1095.2453,-315.0339 1085.5416,-319.2869 1095.7796,-322.0134 1095.2453,-315.0339"/>
</g>
<!-- Node23 -->
<g id="node20" class="node">
<title>Node23</title>
<g id="a_node20"><a xlink:href="classgko_1_1EnableCreateMethod.html" target="_top" xlink:title="gko::EnableCreateMethod\l\&lt; Ell\&lt; ValueType, IndexType \&gt; \&gt;">
<polygon fill="#ffffff" stroke="#000000" points="1941,-147.5 1941,-177.5 2120,-177.5 2120,-147.5 1941,-147.5"/>
<text text-anchor="start" x="1949" y="-165.5" font-family="Helvetica,sans-Serif" font-size="10.00" fill="#000000">gko::EnableCreateMethod</text>
<text text-anchor="middle" x="2030.5" y="-154.5" font-family="Helvetica,sans-Serif" font-size="10.00" fill="#000000">&lt; Ell&lt; ValueType, IndexType &gt; &gt;</text>
</a>
</g>
</g>
<!-- Node23&#45;&gt;Node0 -->
<g id="edge28" class="edge">
<title>Node23&#45;&gt;Node0</title>
<path fill="none" stroke="#191970" d="M2130.3092,-162.5C2139.2185,-162.5 2148.1501,-162.5 2156.8319,-162.5"/>
<polygon fill="#191970" stroke="#191970" points="2130.2743,-159.0001 2120.2742,-162.5 2130.2742,-166.0001 2130.2743,-159.0001"/>
</g>
<!-- Node24 -->
<g id="node21" class="node">
<title>Node24</title>
<g id="a_node21"><a xlink:href="classgko_1_1EnableCreateMethod.html" target="_top" xlink:title="This mixin implements a static create() method on ConcreteType that dynamically allocates the memory...">
<polygon fill="#ffffff" stroke="#000000" points="1585,-57.5 1585,-87.5 1727,-87.5 1727,-57.5 1585,-57.5"/>
<text text-anchor="start" x="1593" y="-75.5" font-family="Helvetica,sans-Serif" font-size="10.00" fill="#000000">gko::EnableCreateMethod</text>
<text text-anchor="middle" x="1656" y="-64.5" font-family="Helvetica,sans-Serif" font-size="10.00" fill="#000000">&lt; ConcreteType &gt;</text>
</a>
</g>
</g>
<!-- Node24&#45;&gt;Node23 -->
<g id="edge29" class="edge">
<title>Node24&#45;&gt;Node23</title>
<path fill="none" stroke="#ffa500" stroke-dasharray="5,2" d="M1728.6301,-89.8672C1782.3284,-102.7177 1857.2317,-120.6643 1923,-136.5 1937.7476,-140.0509 1953.6303,-143.8862 1968.5433,-147.4923"/>
<polygon fill="#ffa500" stroke="#ffa500" points="1729.3972,-86.452 1718.8572,-87.5286 1727.7681,-93.2598 1729.3972,-86.452"/>
<text text-anchor="middle" x="1840" y="-139.5" font-family="Helvetica,sans-Serif" font-size="10.00" fill="#000000"> &lt; Ell&lt; ValueType, IndexType &gt; &gt;</text>
</g>
<!-- Node25&#45;&gt;Node0 -->
<g id="edge30" class="edge">
<title>Node25&#45;&gt;Node0</title>
<path fill="none" stroke="#191970" d="M1315.3708,-352.7987C1380.115,-348.043 1473.0478,-342.5 1554.5,-342.5 1554.5,-342.5 1554.5,-342.5 2030.5,-342.5 2129.9243,-342.5 2203.7709,-220.7983 2226.8802,-177.5371"/>
<polygon fill="#191970" stroke="#191970" points="1314.9402,-349.321 1305.2279,-353.5542 1315.4602,-356.3016 1314.9402,-349.321"/>
</g>
<!-- Node26 -->
<g id="node23" class="node">
<title>Node26</title>
<g id="a_node23"><a xlink:href="classgko_1_1ReadableFromMatrixData.html" target="_top" xlink:title="A LinOp implementing this interface can read its data from a matrix_data structure. ">
<polygon fill="#ffffff" stroke="#000000" points="1948.5,-98.5 1948.5,-128.5 2112.5,-128.5 2112.5,-98.5 1948.5,-98.5"/>
<text text-anchor="start" x="1956.5" y="-116.5" font-family="Helvetica,sans-Serif" font-size="10.00" fill="#000000">gko::ReadableFromMatrixData</text>
<text text-anchor="middle" x="2030.5" y="-105.5" font-family="Helvetica,sans-Serif" font-size="10.00" fill="#000000">&lt; ValueType, IndexType &gt;</text>
</a>
</g>
</g>
<!-- Node26&#45;&gt;Node0 -->
<g id="edge32" class="edge">
<title>Node26&#45;&gt;Node0</title>
<path fill="none" stroke="#191970" d="M2102.9568,-130.9038C2125.5238,-136.3243 2150.2023,-142.252 2172.0253,-147.4938"/>
<polygon fill="#191970" stroke="#191970" points="2103.634,-127.467 2093.0931,-128.5346 2101.9991,-134.2734 2103.634,-127.467"/>
</g>
<!-- Node27 -->
<g id="node24" class="node">
<title>Node27</title>
<g id="a_node24"><a xlink:href="classgko_1_1WritableToMatrixData.html" target="_top" xlink:title="A LinOp implementing this interface can write its data to a matrix_data structure. ">
<polygon fill="#ffffff" stroke="#000000" points="1957.5,-49.5 1957.5,-79.5 2103.5,-79.5 2103.5,-49.5 1957.5,-49.5"/>
<text text-anchor="start" x="1965.5" y="-67.5" font-family="Helvetica,sans-Serif" font-size="10.00" fill="#000000">gko::WritableToMatrixData</text>
<text text-anchor="middle" x="2030.5" y="-56.5" font-family="Helvetica,sans-Serif" font-size="10.00" fill="#000000">&lt; ValueType, IndexType &gt;</text>
</a>
</g>
</g>
<!-- Node27&#45;&gt;Node0 -->
<g id="edge33" class="edge">
<title>Node27&#45;&gt;Node0</title>
<path fill="none" stroke="#191970" d="M2103.1946,-82.8222C2108.9554,-84.8725 2114.6209,-87.098 2120,-89.5 2155.5181,-105.3606 2192.8168,-131.1016 2214.8458,-147.3977"/>
<polygon fill="#191970" stroke="#191970" points="2104.0375,-79.4129 2093.4434,-79.5366 2101.8023,-86.0465 2104.0375,-79.4129"/>
</g>
</g>
</svg>
