<?xml version="1.0" encoding="UTF-8" standalone="no"?>
<!DOCTYPE svg PUBLIC "-//W3C//DTD SVG 1.1//EN"
 "http://www.w3.org/Graphics/SVG/1.1/DTD/svg11.dtd">
<!-- Generated by graphviz version 2.38.0 (20140413.2041)
 -->
<!-- Title: gko::preconditioner::Jacobi&lt; ValueType, IndexType &gt; Pages: 1 -->
<svg width="1545pt" height="175pt"
 viewBox="0.00 0.00 1545.00 174.50" xmlns="http://www.w3.org/2000/svg" xmlns:xlink="http://www.w3.org/1999/xlink">
<g id="graph0" class="graph" transform="scale(1 1) rotate(0) translate(4 170.5)">
<title>gko::preconditioner::Jacobi&lt; ValueType, IndexType &gt;</title>
<polygon fill="white" stroke="none" points="-4,4 -4,-170.5 1541,-170.5 1541,4 -4,4"/>
<!-- Node1 -->
<g id="node1" class="node"><title>Node1</title>
<polygon fill="#bfbfbf" stroke="black" points="1425,-44 1425,-85 1537,-85 1537,-44 1425,-44"/>
<text text-anchor="start" x="1433" y="-73" font-family="Helvetica,sans-Serif" font-size="10.00">gko::preconditioner</text>
<text text-anchor="start" x="1433" y="-62" font-family="Helvetica,sans-Serif" font-size="10.00">::Jacobi&lt; ValueType,</text>
<text text-anchor="middle" x="1481" y="-51" font-family="Helvetica,sans-Serif" font-size="10.00"> IndexType &gt;</text>
</g>
<!-- Node2 -->
<g id="node2" class="node"><title>Node2</title>
<g id="a_node2"><a xlink:href="classgko_1_1EnableLinOp.html" target="_top" xlink:title="gko::EnableLinOp\&lt; Jacobi\l\&lt; ValueType, IndexType \&gt; \&gt;">
<polygon fill="white" stroke="black" points="1226,-98.5 1226,-128.5 1376,-128.5 1376,-98.5 1226,-98.5"/>
<text text-anchor="start" x="1234" y="-116.5" font-family="Helvetica,sans-Serif" font-size="10.00">gko::EnableLinOp&lt; Jacobi</text>
<text text-anchor="middle" x="1301" y="-105.5" font-family="Helvetica,sans-Serif" font-size="10.00">&lt; ValueType, IndexType &gt; &gt;</text>
</a>
</g>
</g>
<!-- Node2&#45;&gt;Node1 -->
<g id="edge1" class="edge"><title>Node2&#45;&gt;Node1</title>
<path fill="none" stroke="midnightblue" d="M1366.64,-95.7047C1385.68,-90.4653 1406.32,-84.7827 1424.71,-79.7204"/>
<polygon fill="midnightblue" stroke="midnightblue" points="1365.57,-92.3699 1356.86,-98.3986 1367.43,-99.1189 1365.57,-92.3699"/>
</g>
<!-- Node3 -->
<g id="node3" class="node"><title>Node3</title>
<g id="a_node3"><a xlink:href="classgko_1_1EnablePolymorphicObject.html" target="_top" xlink:title="gko::EnablePolymorphicObject\l\&lt; Jacobi\&lt; ValueType, IndexType\l \&gt;, LinOp \&gt;">
<polygon fill="white" stroke="black" points="999,-123 999,-164 1166,-164 1166,-123 999,-123"/>
<text text-anchor="start" x="1007" y="-152" font-family="Helvetica,sans-Serif" font-size="10.00">gko::EnablePolymorphicObject</text>
<text text-anchor="start" x="1007" y="-141" font-family="Helvetica,sans-Serif" font-size="10.00">&lt; Jacobi&lt; ValueType, IndexType</text>
<text text-anchor="middle" x="1082.5" y="-130" font-family="Helvetica,sans-Serif" font-size="10.00"> &gt;, LinOp &gt;</text>
</a>
</g>
</g>
<!-- Node3&#45;&gt;Node2 -->
<g id="edge2" class="edge"><title>Node3&#45;&gt;Node2</title>
<path fill="none" stroke="midnightblue" d="M1176.46,-130.619C1192.94,-128.335 1209.9,-125.984 1225.78,-123.785"/>
<polygon fill="midnightblue" stroke="midnightblue" points="1175.7,-127.19 1166.28,-132.03 1176.66,-134.124 1175.7,-127.19"/>
</g>
<!-- Node4 -->
<g id="node4" class="node"><title>Node4</title>
<g id="a_node4"><a xlink:href="classgko_1_1EnableAbstractPolymorphicObject.html" target="_top" xlink:title="gko::EnableAbstractPolymorphic\lObject\&lt; Jacobi\&lt; ValueType,\l IndexType \&gt;, LinOp \&gt;">
<polygon fill="white" stroke="black" points="781,-125 781,-166 952,-166 952,-125 781,-125"/>
<text text-anchor="start" x="789" y="-154" font-family="Helvetica,sans-Serif" font-size="10.00">gko::EnableAbstractPolymorphic</text>
<text text-anchor="start" x="789" y="-143" font-family="Helvetica,sans-Serif" font-size="10.00">Object&lt; Jacobi&lt; ValueType,</text>
<text text-anchor="middle" x="866.5" y="-132" font-family="Helvetica,sans-Serif" font-size="10.00"> IndexType &gt;, LinOp &gt;</text>
</a>
</g>
</g>
<!-- Node4&#45;&gt;Node3 -->
<g id="edge3" class="edge"><title>Node4&#45;&gt;Node3</title>
<path fill="none" stroke="midnightblue" d="M962.278,-144.614C974.498,-144.5 986.933,-144.384 998.934,-144.272"/>
<polygon fill="midnightblue" stroke="midnightblue" points="962.045,-141.116 952.078,-144.71 962.111,-148.116 962.045,-141.116"/>
</g>
<!-- Node5 -->
<g id="node5" class="node"><title>Node5</title>
<g id="a_node5"><a xlink:href="classgko_1_1LinOp.html" target="_top" xlink:title="The linear operator (LinOp) is a base class for all linear algebra objects in Ginkgo. ">
<polygon fill="white" stroke="black" points="678,-136 678,-155 745,-155 745,-136 678,-136"/>
<text text-anchor="middle" x="711.5" y="-143" font-family="Helvetica,sans-Serif" font-size="10.00">gko::LinOp</text>
</a>
</g>
</g>
<!-- Node5&#45;&gt;Node4 -->
<g id="edge4" class="edge"><title>Node5&#45;&gt;Node4</title>
<path fill="none" stroke="midnightblue" d="M755.465,-145.5C763.479,-145.5 772.105,-145.5 780.874,-145.5"/>
<polygon fill="midnightblue" stroke="midnightblue" points="755.322,-142 745.322,-145.5 755.322,-149 755.322,-142"/>
</g>
<!-- Node6 -->
<g id="node6" class="node"><title>Node6</title>
<g id="a_node6"><a xlink:href="classgko_1_1EnableAbstractPolymorphicObject.html" target="_top" xlink:title="gko::EnableAbstractPolymorphic\lObject\&lt; LinOp \&gt;">
<polygon fill="white" stroke="black" points="471,-130.5 471,-160.5 642,-160.5 642,-130.5 471,-130.5"/>
<text text-anchor="start" x="479" y="-148.5" font-family="Helvetica,sans-Serif" font-size="10.00">gko::EnableAbstractPolymorphic</text>
<text text-anchor="middle" x="556.5" y="-137.5" font-family="Helvetica,sans-Serif" font-size="10.00">Object&lt; LinOp &gt;</text>
</a>
</g>
</g>
<!-- Node6&#45;&gt;Node5 -->
<g id="edge5" class="edge"><title>Node6&#45;&gt;Node5</title>
<path fill="none" stroke="midnightblue" d="M652.098,-145.5C661.246,-145.5 670.027,-145.5 677.877,-145.5"/>
<polygon fill="midnightblue" stroke="midnightblue" points="652.055,-142 642.055,-145.5 652.055,-149 652.055,-142"/>
</g>
<!-- Node7 -->
<g id="node7" class="node"><title>Node7</title>
<g id="a_node7"><a xlink:href="classgko_1_1PolymorphicObject.html" target="_top" xlink:title="A PolymorphicObject is the abstract base for all &quot;heavy&quot; objects in Ginkgo that behave polymorphicall...">
<polygon fill="white" stroke="black" points="306,-136 306,-155 435,-155 435,-136 306,-136"/>
<text text-anchor="middle" x="370.5" y="-143" font-family="Helvetica,sans-Serif" font-size="10.00">gko::PolymorphicObject</text>
</a>
</g>
</g>
<!-- Node7&#45;&gt;Node6 -->
<g id="edge6" class="edge"><title>Node7&#45;&gt;Node6</title>
<path fill="none" stroke="midnightblue" d="M445.224,-145.5C453.644,-145.5 462.276,-145.5 470.824,-145.5"/>
<polygon fill="midnightblue" stroke="midnightblue" points="445.08,-142 435.08,-145.5 445.08,-149 445.08,-142"/>
</g>
<!-- Node8 -->
<g id="node8" class="node"><title>Node8</title>
<g id="a_node8"><a xlink:href="classgko_1_1log_1_1EnableLogging.html" target="_top" xlink:title="gko::log::EnableLogging\l\&lt; PolymorphicObject \&gt;">
<polygon fill="white" stroke="black" points="140,-130.5 140,-160.5 270,-160.5 270,-130.5 140,-130.5"/>
<text text-anchor="start" x="148" y="-148.5" font-family="Helvetica,sans-Serif" font-size="10.00">gko::log::EnableLogging</text>
<text text-anchor="middle" x="205" y="-137.5" font-family="Helvetica,sans-Serif" font-size="10.00">&lt; PolymorphicObject &gt;</text>
</a>
</g>
</g>
<!-- Node8&#45;&gt;Node7 -->
<g id="edge7" class="edge"><title>Node8&#45;&gt;Node7</title>
<path fill="none" stroke="midnightblue" d="M280.416,-145.5C288.895,-145.5 297.48,-145.5 305.803,-145.5"/>
<polygon fill="midnightblue" stroke="midnightblue" points="280.15,-142 270.15,-145.5 280.15,-149 280.15,-142"/>
</g>
<!-- Node9 -->
<g id="node9" class="node"><title>Node9</title>
<g id="a_node9"><a xlink:href="classgko_1_1log_1_1Loggable.html" target="_top" xlink:title="Loggable class is an interface which should be implemented by classes wanting to support logging...">
<polygon fill="white" stroke="black" points="0,-136 0,-155 104,-155 104,-136 0,-136"/>
<text text-anchor="middle" x="52" y="-143" font-family="Helvetica,sans-Serif" font-size="10.00">gko::log::Loggable</text>
</a>
</g>
</g>
<!-- Node9&#45;&gt;Node8 -->
<g id="edge8" class="edge"><title>Node9&#45;&gt;Node8</title>
<path fill="none" stroke="midnightblue" d="M114.245,-145.5C122.668,-145.5 131.337,-145.5 139.812,-145.5"/>
<polygon fill="midnightblue" stroke="midnightblue" points="114.122,-142 104.122,-145.5 114.122,-149 114.122,-142"/>
</g>
<!-- Node10 -->
<g id="node10" class="node"><title>Node10</title>
<g id="a_node10"><a xlink:href="classgko_1_1EnablePolymorphicAssignment.html" target="_top" xlink:title="gko::EnablePolymorphicAssignment\l\&lt; Jacobi\&lt; ValueType, IndexType \&gt; \&gt;">
<polygon fill="white" stroke="black" points="988,-71.5 988,-101.5 1177,-101.5 1177,-71.5 988,-71.5"/>
<text text-anchor="start" x="996" y="-89.5" font-family="Helvetica,sans-Serif" font-size="10.00">gko::EnablePolymorphicAssignment</text>
<text text-anchor="middle" x="1082.5" y="-78.5" font-family="Helvetica,sans-Serif" font-size="10.00">&lt; Jacobi&lt; ValueType, IndexType &gt; &gt;</text>
</a>
</g>
</g>
<!-- Node10&#45;&gt;Node2 -->
<g id="edge9" class="edge"><title>Node10&#45;&gt;Node2</title>
<path fill="none" stroke="midnightblue" d="M1187.13,-99.4241C1200.16,-101.049 1213.27,-102.684 1225.72,-104.237"/>
<polygon fill="midnightblue" stroke="midnightblue" points="1187.56,-95.9501 1177.2,-98.1856 1186.69,-102.896 1187.56,-95.9501"/>
</g>
<!-- Node11 -->
<g id="node11" class="node"><title>Node11</title>
<g id="a_node11"><a xlink:href="classgko_1_1ConvertibleTo.html" target="_top" xlink:title="gko::ConvertibleTo\l\&lt; Jacobi\&lt; ValueType,\l IndexType \&gt; \&gt;">
<polygon fill="white" stroke="black" points="808,-65 808,-106 925,-106 925,-65 808,-65"/>
<text text-anchor="start" x="816" y="-94" font-family="Helvetica,sans-Serif" font-size="10.00">gko::ConvertibleTo</text>
<text text-anchor="start" x="816" y="-83" font-family="Helvetica,sans-Serif" font-size="10.00">&lt; Jacobi&lt; ValueType,</text>
<text text-anchor="middle" x="866.5" y="-72" font-family="Helvetica,sans-Serif" font-size="10.00"> IndexType &gt; &gt;</text>
</a>
</g>
</g>
<!-- Node11&#45;&gt;Node10 -->
<g id="edge10" class="edge"><title>Node11&#45;&gt;Node10</title>
<path fill="none" stroke="midnightblue" d="M935.313,-85.8169C952.004,-85.8949 970.17,-85.9798 987.843,-86.0624"/>
<polygon fill="midnightblue" stroke="midnightblue" points="935.146,-82.3162 925.13,-85.7693 935.113,-89.3161 935.146,-82.3162"/>
</g>
<!-- Node12 -->
<g id="node12" class="node"><title>Node12</title>
<g id="a_node12"><a xlink:href="classgko_1_1ConvertibleTo.html" target="_top" xlink:title="gko::ConvertibleTo\l\&lt; matrix::Dense\&lt; ValueType \&gt; \&gt;">
<polygon fill="white" stroke="black" points="1213,-49.5 1213,-79.5 1389,-79.5 1389,-49.5 1213,-49.5"/>
<text text-anchor="start" x="1221" y="-67.5" font-family="Helvetica,sans-Serif" font-size="10.00">gko::ConvertibleTo</text>
<text text-anchor="middle" x="1301" y="-56.5" font-family="Helvetica,sans-Serif" font-size="10.00">&lt; matrix::Dense&lt; ValueType &gt; &gt;</text>
</a>
</g>
</g>
<!-- Node12&#45;&gt;Node1 -->
<g id="edge11" class="edge"><title>Node12&#45;&gt;Node1</title>
<path fill="none" stroke="midnightblue" d="M1399.42,-64.5C1408.13,-64.5 1416.72,-64.5 1424.87,-64.5"/>
<polygon fill="midnightblue" stroke="midnightblue" points="1399.17,-61.0001 1389.17,-64.5 1399.17,-68.0001 1399.17,-61.0001"/>
</g>
<!-- Node13 -->
<g id="node13" class="node"><title>Node13</title>
<g id="a_node13"><a xlink:href="classgko_1_1WritableToMatrixData.html" target="_top" xlink:title="A LinOp implementing this interface can write its data to a matrix_data structure. ">
<polygon fill="white" stroke="black" points="1231,-0.5 1231,-30.5 1371,-30.5 1371,-0.5 1231,-0.5"/>
<text text-anchor="start" x="1239" y="-18.5" font-family="Helvetica,sans-Serif" font-size="10.00">gko::WritableToMatrixData</text>
<text text-anchor="middle" x="1301" y="-7.5" font-family="Helvetica,sans-Serif" font-size="10.00">&lt; ValueType, IndexType &gt;</text>
</a>
</g>
</g>
<!-- Node13&#45;&gt;Node1 -->
<g id="edge12" class="edge"><title>Node13&#45;&gt;Node1</title>
<path fill="none" stroke="midnightblue" d="M1366.64,-33.2953C1385.68,-38.5347 1406.32,-44.2173 1424.71,-49.2796"/>
<polygon fill="midnightblue" stroke="midnightblue" points="1367.43,-29.8811 1356.86,-30.6014 1365.57,-36.6301 1367.43,-29.8811"/>
</g>
</g>
</svg>
