<?xml version="1.0" encoding="UTF-8" standalone="no"?>
<!DOCTYPE svg PUBLIC "-//W3C//DTD SVG 1.1//EN"
 "http://www.w3.org/Graphics/SVG/1.1/DTD/svg11.dtd">
<!-- Generated by graphviz version 2.40.1 (20161225.0304)
 -->
<!-- Title: G Pages: 1 -->
<svg width="559pt" height="220pt"
 viewBox="0.00 0.00 559.00 220.00" xmlns="http://www.w3.org/2000/svg" xmlns:xlink="http://www.w3.org/1999/xlink">
<g id="graph0" class="graph" transform="scale(1 1) rotate(0) translate(4 216)">
<title>G</title>
<!-- exec -->
<g id="node1" class="node">
<title>exec</title>
<g id="a_node1"><a xlink:href="group__Executor.html" target="_top" xlink:title="Executors">
<polygon fill="#ffffff" stroke="#000000" points="211,-186.5 211,-211.5 304,-211.5 304,-186.5 211,-186.5"/>
<text text-anchor="middle" x="257.5" y="-195.5" font-family="Times,serif" font-size="15.00" fill="#000000">Executors</text>
</a>
</g>
</g>
<!-- omp -->
<g id="node2" class="node">
<title>omp</title>
<g id="a_node2"><a xlink:href="group__exec__omp.html" target="_top" xlink:title="OpenMP Executor">
<polygon fill="#ffffff" stroke="#000000" points="0,-124.5 0,-149.5 155,-149.5 155,-124.5 0,-124.5"/>
<text text-anchor="middle" x="77.5" y="-133.5" font-family="Times,serif" font-size="15.00" fill="#000000">OpenMP Executor</text>
</a>
</g>
</g>
<!-- exec&#45;&gt;omp -->
<g id="edge3" class="edge">
<title>exec&#45;&gt;omp</title>
<path fill="none" stroke="#000000" d="M221.0743,-186.4534C192.8948,-176.7471 153.6982,-163.246 123.3785,-152.8026"/>
<polygon fill="#000000" stroke="#000000" points="124.4662,-149.4755 113.8715,-149.528 122.1865,-156.0939 124.4662,-149.4755"/>
</g>
<!-- ref -->
<g id="node3" class="node">
<title>ref</title>
<g id="a_node3"><a xlink:href="group__exec__ref.html" target="_top" xlink:title="Reference Executor">
<polygon fill="#ffffff" stroke="#000000" points="173.5,-124.5 173.5,-149.5 341.5,-149.5 341.5,-124.5 173.5,-124.5"/>
<text text-anchor="middle" x="257.5" y="-133.5" font-family="Times,serif" font-size="15.00" fill="#000000">Reference Executor</text>
</a>
</g>
</g>
<!-- exec&#45;&gt;ref -->
<g id="edge1" class="edge">
<title>exec&#45;&gt;ref</title>
<path fill="none" stroke="#000000" d="M257.5,-186.4534C257.5,-178.806 257.5,-168.803 257.5,-159.7958"/>
<polygon fill="#000000" stroke="#000000" points="261.0001,-159.5279 257.5,-149.528 254.0001,-159.528 261.0001,-159.5279"/>
</g>
<!-- cuda -->
<g id="node4" class="node">
<title>cuda</title>
<g id="a_node4"><a xlink:href="group__exec__cuda.html" target="_top" xlink:title="CUDA Executor">
<polygon fill="#ffffff" stroke="#000000" points="360,-124.5 360,-149.5 497,-149.5 497,-124.5 360,-124.5"/>
<text text-anchor="middle" x="428.5" y="-133.5" font-family="Times,serif" font-size="15.00" fill="#000000">CUDA Executor</text>
</a>
</g>
</g>
<!-- exec&#45;&gt;cuda -->
<g id="edge2" class="edge">
<title>exec&#45;&gt;cuda</title>
<path fill="none" stroke="#000000" d="M292.1044,-186.4534C318.759,-176.7891 355.7895,-163.3629 384.5409,-152.9384"/>
<polygon fill="#000000" stroke="#000000" points="385.7389,-156.227 393.9471,-149.528 383.3529,-149.6462 385.7389,-156.227"/>
</g>
<!-- linop -->
<g id="node5" class="node">
<title>linop</title>
<g id="a_node5"><a xlink:href="group__LinOp.html" target="_top" xlink:title="Linear Operators">
<polygon fill="#ffffff" stroke="#000000" points="266.5,-62.5 266.5,-87.5 414.5,-87.5 414.5,-62.5 266.5,-62.5"/>
<text text-anchor="middle" x="340.5" y="-71.5" font-family="Times,serif" font-size="15.00" fill="#000000">Linear Operators</text>
</a>
</g>
</g>
<!-- omp&#45;&gt;linop -->
<g id="edge4" class="edge">
<title>omp&#45;&gt;linop</title>
<path fill="none" stroke="#000000" d="M130.722,-124.4534C173.143,-114.453 232.6517,-100.4243 277.4573,-89.8618"/>
<polygon fill="#000000" stroke="#000000" points="278.4271,-93.2292 287.3572,-87.528 276.8209,-86.4159 278.4271,-93.2292"/>
</g>
<!-- stop -->
<g id="node9" class="node">
<title>stop</title>
<g id="a_node9"><a xlink:href="group__stop.html" target="_top" xlink:title="Stopping Criteria">
<polygon fill="#ffffff" stroke="#000000" points="99,-62.5 99,-87.5 248,-87.5 248,-62.5 99,-62.5"/>
<text text-anchor="middle" x="173.5" y="-71.5" font-family="Times,serif" font-size="15.00" fill="#000000">Stopping Criteria</text>
</a>
</g>
</g>
<!-- omp&#45;&gt;stop -->
<g id="edge7" class="edge">
<title>omp&#45;&gt;stop</title>
<path fill="none" stroke="#000000" d="M96.927,-124.4534C110.85,-115.4614 129.8159,-103.2127 145.3887,-93.1552"/>
<polygon fill="#000000" stroke="#000000" points="147.6003,-95.8934 154.1019,-87.528 143.8026,-90.0131 147.6003,-95.8934"/>
</g>
<!-- ref&#45;&gt;linop -->
<g id="edge6" class="edge">
<title>ref&#45;&gt;linop</title>
<path fill="none" stroke="#000000" d="M274.2963,-124.4534C286.1089,-115.6295 302.12,-103.6694 315.4374,-93.7215"/>
<polygon fill="#000000" stroke="#000000" points="317.8117,-96.3166 323.7287,-87.528 313.6225,-90.7085 317.8117,-96.3166"/>
</g>
<!-- ref&#45;&gt;stop -->
<g id="edge9" class="edge">
<title>ref&#45;&gt;stop</title>
<path fill="none" stroke="#000000" d="M240.5013,-124.4534C228.5464,-115.6295 212.3424,-103.6694 198.8646,-93.7215"/>
<polygon fill="#000000" stroke="#000000" points="200.5976,-90.6505 190.4734,-87.528 196.4406,-96.2825 200.5976,-90.6505"/>
</g>
<!-- cuda&#45;&gt;linop -->
<g id="edge5" class="edge">
<title>cuda&#45;&gt;linop</title>
<path fill="none" stroke="#000000" d="M410.6919,-124.4534C398.0484,-115.5455 380.8683,-103.4413 366.6698,-93.4378"/>
<polygon fill="#000000" stroke="#000000" points="368.4723,-90.4263 358.2816,-87.528 364.4406,-96.1487 368.4723,-90.4263"/>
</g>
<!-- cuda&#45;&gt;stop -->
<g id="edge8" class="edge">
<title>cuda&#45;&gt;stop</title>
<path fill="none" stroke="#000000" d="M376.8969,-124.4534C335.8527,-114.474 278.3101,-100.4832 234.8991,-89.9284"/>
<polygon fill="#000000" stroke="#000000" points="235.5701,-86.4897 225.0263,-87.528 233.9163,-93.2915 235.5701,-86.4897"/>
</g>
<!-- solvers -->
<g id="node6" class="node">
<title>solvers</title>
<g id="a_node6"><a xlink:href="group__solvers.html" target="_top" xlink:title="Solvers">
<polygon fill="#ffffff" stroke="#000000" points="159,-.5 159,-25.5 232,-25.5 232,-.5 159,-.5"/>
<text text-anchor="middle" x="195.5" y="-9.5" font-family="Times,serif" font-size="15.00" fill="#000000">Solvers</text>
</a>
</g>
</g>
<!-- linop&#45;&gt;solvers -->
<g id="edge11" class="edge">
<title>linop&#45;&gt;solvers</title>
<path fill="none" stroke="#000000" d="M311.1571,-62.4534C288.9483,-52.9572 258.2446,-39.8287 234.0535,-29.485"/>
<polygon fill="#000000" stroke="#000000" points="235.3701,-26.2414 224.7993,-25.528 232.618,-32.6777 235.3701,-26.2414"/>
</g>
<!-- precond -->
<g id="node7" class="node">
<title>precond</title>
<g id="a_node7"><a xlink:href="group__precond.html" target="_top" xlink:title="Preconditioners">
<polygon fill="#ffffff" stroke="#000000" points="414,-.5 414,-25.5 551,-25.5 551,-.5 414,-.5"/>
<text text-anchor="middle" x="482.5" y="-9.5" font-family="Times,serif" font-size="15.00" fill="#000000">Preconditioners</text>
</a>
</g>
</g>
<!-- linop&#45;&gt;precond -->
<g id="edge12" class="edge">
<title>linop&#45;&gt;precond</title>
<path fill="none" stroke="#000000" d="M369.2358,-62.4534C390.8889,-52.9992 420.7876,-39.9448 444.4293,-29.6224"/>
<polygon fill="#000000" stroke="#000000" points="446.0429,-32.737 453.8069,-25.528 443.2419,-26.3219 446.0429,-32.737"/>
</g>
<!-- matformat -->
<g id="node8" class="node">
<title>matformat</title>
<g id="a_node8"><a xlink:href="group__mat__formats.html" target="_top" xlink:title="Matrix Formats">
<polygon fill="#ffffff" stroke="#000000" points="261.5,-.5 261.5,-25.5 395.5,-25.5 395.5,-.5 261.5,-.5"/>
<text text-anchor="middle" x="328.5" y="-9.5" font-family="Times,serif" font-size="15.00" fill="#000000">Matrix Formats</text>
</a>
</g>
</g>
<!-- linop&#45;&gt;matformat -->
<g id="edge10" class="edge">
<title>linop&#45;&gt;matformat</title>
<path fill="none" stroke="#000000" d="M338.0716,-62.4534C336.5752,-54.722 334.6128,-44.5829 332.8547,-35.4992"/>
<polygon fill="#000000" stroke="#000000" points="336.2613,-34.6807 330.9248,-25.528 329.3888,-36.0109 336.2613,-34.6807"/>
</g>
<!-- stop&#45;&gt;solvers -->
<g id="edge13" class="edge">
<title>stop&#45;&gt;solvers</title>
<path fill="none" stroke="#000000" stroke-dasharray="5,2" d="M177.952,-62.4534C180.7252,-54.6379 184.3715,-44.3622 187.6214,-35.2033"/>
<polygon fill="#000000" stroke="#000000" points="191.0089,-36.1227 191.0546,-25.528 184.4119,-33.7818 191.0089,-36.1227"/>
</g>
</g>
</svg>
