<?xml version="1.0" encoding="UTF-8" standalone="no"?>
<!DOCTYPE svg PUBLIC "-//W3C//DTD SVG 1.1//EN"
 "http://www.w3.org/Graphics/SVG/1.1/DTD/svg11.dtd">
<!-- Generated by graphviz version 2.40.1 (20161225.0304)
 -->
<!-- Title: ExamplesMap Pages: 1 -->
<!--zoomable 315 -->
<svg id="main" version="1.1" xmlns="http://www.w3.org/2000/svg" xmlns:xlink="http://www.w3.org/1999/xlink" xml:space="preserve" onload="init(evt)">
<style type="text/css"><![CDATA[
.edge:hover path { stroke: red; }
.edge:hover polygon { stroke: red; fill: red; }
]]></style>
<script type="text/javascript"><![CDATA[
var edges = document.getElementsByTagName('g');
if (edges && edges.length) {
  for (var i=0;i<edges.length;i++) {
    if (edges[i].id.substr(0,4)=='edge') {
      edges[i].setAttribute('class','edge');
    }
  }
}
]]></script>
        <defs>
                <circle id="rim" cx="0" cy="0" r="7"/>
                <circle id="rim2" cx="0" cy="0" r="3.5"/>
                <g id="zoomPlus">
                        <use xlink:href="#rim" fill="#404040">
                                <set attributeName="fill" to="#808080" begin="zoomplus.mouseover" end="zoomplus.mouseout"/>
                        </use>
                        <path d="M-4,0h8M0,-4v8" fill="none" stroke="white" stroke-width="1.5" pointer-events="none"/>
                </g>
                <g id="zoomMin">
                        <use xlink:href="#rim" fill="#404040">
                                <set attributeName="fill" to="#808080" begin="zoomminus.mouseover" end="zoomminus.mouseout"/>
                        </use>
                        <path d="M-4,0h8" fill="none" stroke="white" stroke-width="1.5" pointer-events="none"/>
                </g>
                <g id="dirArrow">
                        <path fill="none" stroke="white" stroke-width="1.5" d="M0,-3.0v7 M-2.5,-0.5L0,-3.0L2.5,-0.5"/>
                </g>
               <g id="resetDef">
                       <use xlink:href="#rim2" fill="#404040">
                               <set attributeName="fill" to="#808080" begin="reset.mouseover" end="reset.mouseout"/>
                       </use>
               </g>
        </defs>

<script type="text/javascript">
var viewWidth = 803;
var viewHeight = 315;
</script>
<script xlink:href="svgpan.js"/>
<svg id="graph" class="graph">
<g id="viewport">
<title>ExamplesMap</title>
<polygon fill="#ffffff" stroke="transparent" points="-4,4 -4,-311 799,-311 799,4 -4,4"/>
<!-- custom_matrix_format -->
<g id="node1" class="node">
<title>custom_matrix_format</title>
<g id="a_node1"><a xlink:href="" target="_top" xlink:title="Create a custom matrix format. Matrix free iterative solve.">
<polygon fill="#ffa500" stroke="#000000" points="623,-25 495,-25 495,0 623,0 623,-25"/>
<text text-anchor="middle" x="559" y="-10" font-family="FreeSans" font-size="10.00" fill="#000000">custom_matrix_format</text>
</a>
</g>
</g>
<!-- custom_stopping_criterion -->
<g id="node2" class="node">
<title>custom_stopping_criterion</title>
<g id="a_node2"><a xlink:href="" target="_top" xlink:title="Create a custom stopping criterion.">
<polygon fill="#add8e6" stroke="#000000" points="337,-99.5 191,-99.5 191,-80.5 337,-80.5 337,-99.5"/>
<text text-anchor="middle" x="264" y="-87.5" font-family="FreeSans" font-size="10.00" fill="#000000">custom_stopping_criterion</text>
</a>
</g>
</g>
<!-- external_lib_interfacing -->
<g id="node3" class="node">
<title>external_lib_interfacing</title>
<g id="a_node3"><a xlink:href="" target="_top" xlink:title="Interface with an external library.">
<polygon fill="#ffa500" stroke="#000000" points="569,-290.5 437,-290.5 437,-265.5 569,-265.5 569,-290.5"/>
<text text-anchor="middle" x="503" y="-275.5" font-family="FreeSans" font-size="10.00" fill="#000000">external_lib_interfacing</text>
</a>
</g>
</g>
<!-- ginkgo_overhead -->
<g id="node4" class="node">
<title>ginkgo_overhead</title>
<g id="a_node4"><a xlink:href="ginkgo_overhead.html" target="_top" xlink:title="Measure ginkgo overhead.">
<polygon fill="#ffa500" stroke="#000000" points="688.5,-290.5 587.5,-290.5 587.5,-265.5 688.5,-265.5 688.5,-290.5"/>
<text text-anchor="middle" x="638" y="-275.5" font-family="FreeSans" font-size="10.00" fill="#000000">ginkgo_overhead</text>
</a>
</g>
</g>
<!-- ginkgo_ranges -->
<g id="node5" class="node">
<title>ginkgo_ranges</title>
<g id="a_node5"><a xlink:href="ginkgo_ranges.html" target="_top" xlink:title="Use the ranges concept in ginkgo.">
<polygon fill="#ffa500" stroke="#000000" points="795,-290.5 707,-290.5 707,-265.5 795,-265.5 795,-290.5"/>
<text text-anchor="middle" x="751" y="-275.5" font-family="FreeSans" font-size="10.00" fill="#000000">ginkgo_ranges</text>
</a>
</g>
</g>
<!-- inverse_iteration -->
<g id="node6" class="node">
<title>inverse_iteration</title>
<g id="a_node6"><a xlink:href="inverse_iteration.html" target="_top" xlink:title="Compute eigenvalues with inverse iteration method.">
<polygon fill="#ffa500" stroke="#000000" points="322.5,-196.5 223.5,-196.5 223.5,-171.5 322.5,-171.5 322.5,-196.5"/>
<text text-anchor="middle" x="273" y="-181.5" font-family="FreeSans" font-size="10.00" fill="#000000">inverse_iteration</text>
</a>
</g>
</g>
<!-- minimal_cuda_solver -->
<g id="node7" class="node">
<title>minimal_cuda_solver</title>
<g id="a_node7"><a xlink:href="" target="_top" xlink:title="Use the CUDA executor. Solve a linear system.">
<polygon fill="#00ff00" stroke="#000000" points="205.1188,-171.9878 205.1188,-196.0122 164.6299,-213 107.3701,-213 66.8812,-196.0122 66.8812,-171.9878 107.3701,-155 164.6299,-155 205.1188,-171.9878"/>
<text text-anchor="middle" x="136" y="-181.5" font-family="FreeSans" font-size="10.00" fill="#000000">minimal_cuda_solver</text>
</a>
</g>
</g>
<!-- minimal_cuda_solver&#45;&gt;custom_stopping_criterion -->
<g id="edge5" class="edge">
<title>minimal_cuda_solver&#45;&gt;custom_stopping_criterion</title>
<path fill="none" stroke="#000000" d="M171.6551,-157.8158C194.492,-141.045 223.3628,-119.8429 242.6883,-105.6508"/>
<polygon fill="#000000" stroke="#000000" points="244.8515,-108.4046 250.8399,-99.6645 240.7081,-102.7626 244.8515,-108.4046"/>
</g>
<!-- simple_solver_logging -->
<g id="node12" class="node">
<title>simple_solver_logging</title>
<g id="a_node12"><a xlink:href="" target="_top" xlink:title="Logging within Ginkgo.">
<polygon fill="#ffff00" stroke="#000000" points="126,-99.5 0,-99.5 0,-80.5 126,-80.5 126,-99.5"/>
<text text-anchor="middle" x="63" y="-87.5" font-family="FreeSans" font-size="10.00" fill="#000000">simple_solver_logging</text>
</a>
</g>
</g>
<!-- minimal_cuda_solver&#45;&gt;simple_solver_logging -->
<g id="edge12" class="edge">
<title>minimal_cuda_solver&#45;&gt;simple_solver_logging</title>
<path fill="none" stroke="#000000" d="M113.3025,-154.7731C101.4682,-139.5345 87.3638,-121.3726 77.1057,-108.1635"/>
<polygon fill="#000000" stroke="#000000" points="79.5916,-105.6582 70.6936,-99.9069 74.0629,-109.9517 79.5916,-105.6582"/>
</g>
<!-- papi_logging -->
<g id="node8" class="node">
<title>papi_logging</title>
<g id="a_node8"><a xlink:href="papi_logging.html" target="_top" xlink:title="Logging with PAPI.">
<polygon fill="#ffff00" stroke="#000000" points="102.5,-22 23.5,-22 23.5,-3 102.5,-3 102.5,-22"/>
<text text-anchor="middle" x="63" y="-10" font-family="FreeSans" font-size="10.00" fill="#000000">papi_logging</text>
</a>
</g>
</g>
<!-- poisson_solver -->
<g id="node9" class="node">
<title>poisson_solver</title>
<g id="a_node9"><a xlink:href="poisson_solver.html" target="_top" xlink:title="Solve the poisson problem. Generate the matrix within Ginkgo.">
<polygon fill="#00ff00" stroke="#000000" points="700.9589,-171.9878 700.9589,-196.0122 671.1079,-213 628.8921,-213 599.0411,-196.0122 599.0411,-171.9878 628.8921,-155 671.1079,-155 700.9589,-171.9878"/>
<text text-anchor="middle" x="650" y="-181.5" font-family="FreeSans" font-size="10.00" fill="#000000">poisson_solver</text>
</a>
</g>
</g>
<!-- poisson_solver&#45;&gt;custom_matrix_format -->
<g id="edge2" class="edge">
<title>poisson_solver&#45;&gt;custom_matrix_format</title>
<path fill="none" stroke="#000000" d="M655.3883,-154.8468C658.6898,-128.3559 659.4347,-89.2171 642,-61 633.5804,-47.3733 619.8078,-37.1472 605.8793,-29.6871"/>
<polygon fill="#000000" stroke="#000000" points="607.2739,-26.4722 596.7586,-25.1763 604.1706,-32.7467 607.2739,-26.4722"/>
</g>
<!-- three_pt_stencil_solver -->
<g id="node13" class="node">
<title>three_pt_stencil_solver</title>
<g id="a_node13"><a xlink:href="" target="_top" xlink:title="Use array views to generate stencil matrix. Solve a linear system.">
<polygon fill="#00ff00" stroke="#000000" points="633.4287,-77.9878 633.4287,-102.0122 589.8294,-119 528.1706,-119 484.5713,-102.0122 484.5713,-77.9878 528.1706,-61 589.8294,-61 633.4287,-77.9878"/>
<text text-anchor="middle" x="559" y="-87.5" font-family="FreeSans" font-size="10.00" fill="#000000">three_pt_stencil_solver</text>
</a>
</g>
</g>
<!-- poisson_solver&#45;&gt;three_pt_stencil_solver -->
<g id="edge14" class="edge">
<title>poisson_solver&#45;&gt;three_pt_stencil_solver</title>
<path fill="none" stroke="#000000" d="M624.1665,-157.3148C614.8642,-147.7058 604.2038,-136.6941 594.2367,-126.3984"/>
<polygon fill="#000000" stroke="#000000" points="596.6011,-123.8087 587.1309,-119.0583 591.5718,-128.6776 596.6011,-123.8087"/>
</g>
<!-- preconditioned_solver -->
<g id="node10" class="node">
<title>preconditioned_solver</title>
<g id="a_node10"><a xlink:href="preconditioned_solver.html" target="_top" xlink:title="Use a preconditioner in Ginkgo. Solve a linear system.">
<polygon fill="#0000ff" stroke="#000000" points="542.5,-193.5 417.5,-193.5 417.5,-174.5 542.5,-174.5 542.5,-193.5"/>
<text text-anchor="middle" x="480" y="-181.5" font-family="FreeSans" font-size="10.00" fill="#000000">preconditioned_solver</text>
</a>
</g>
</g>
<!-- simple_solver -->
<g id="node11" class="node">
<title>simple_solver</title>
<g id="a_node11"><a xlink:href="simple_solver.html" target="_top" xlink:title="Solve a simple linear system with CG. Read a matrix and right hand side from a file.">
<polygon fill="#00ff00" stroke="#000000" points="418.8772,-265.9878 418.8772,-290.0122 390.2456,-307 349.7544,-307 321.1228,-290.0122 321.1228,-265.9878 349.7544,-249 390.2456,-249 418.8772,-265.9878"/>
<text text-anchor="middle" x="370" y="-275.5" font-family="FreeSans" font-size="10.00" fill="#000000">simple_solver</text>
</a>
</g>
</g>
<!-- simple_solver&#45;&gt;custom_matrix_format -->
<g id="edge1" class="edge">
<title>simple_solver&#45;&gt;custom_matrix_format</title>
<path fill="none" stroke="#000000" d="M376.5478,-248.6773C382.8907,-223.1141 393.7873,-185.4637 409,-155 431.9207,-109.1008 438.1201,-95.6008 476,-61 489.4701,-48.696 506.5701,-38.0566 521.7441,-29.9036"/>
<polygon fill="#000000" stroke="#000000" points="523.6294,-32.8685 530.8934,-25.1559 520.4052,-26.6553 523.6294,-32.8685"/>
</g>
<!-- simple_solver&#45;&gt;custom_stopping_criterion -->
<g id="edge4" class="edge">
<title>simple_solver&#45;&gt;custom_stopping_criterion</title>
<path fill="none" stroke="#000000" d="M365.3305,-248.9228C360.1761,-222.8391 350.1016,-184.2746 332,-155 320.0096,-135.6087 300.875,-118.0371 285.9536,-106.067"/>
<polygon fill="#000000" stroke="#000000" points="287.7872,-103.0597 277.7409,-99.695 283.4962,-108.5903 287.7872,-103.0597"/>
</g>
<!-- simple_solver&#45;&gt;inverse_iteration -->
<g id="edge6" class="edge">
<title>simple_solver&#45;&gt;inverse_iteration</title>
<path fill="none" stroke="#000000" d="M343.7504,-252.5622C327.9387,-237.2395 308.0986,-218.0131 293.4551,-203.8224"/>
<polygon fill="#000000" stroke="#000000" points="295.5299,-200.9593 285.913,-196.5136 290.6585,-205.9862 295.5299,-200.9593"/>
</g>
<!-- simple_solver&#45;&gt;minimal_cuda_solver -->
<g id="edge7" class="edge">
<title>simple_solver&#45;&gt;minimal_cuda_solver</title>
<path fill="none" stroke="#000000" d="M328.7041,-261.4111C291.8221,-246.5952 237.3511,-224.7137 195.7225,-207.9911"/>
<polygon fill="#000000" stroke="#000000" points="196.8266,-204.6628 186.2426,-204.1829 194.2173,-211.1583 196.8266,-204.6628"/>
</g>
<!-- simple_solver&#45;&gt;poisson_solver -->
<g id="edge9" class="edge">
<title>simple_solver&#45;&gt;poisson_solver</title>
<path fill="none" stroke="#000000" d="M406.2391,-258.2347C413.3245,-254.8438 420.7944,-251.5856 428,-249 495.3818,-224.8209 517.1026,-235.691 585,-213 590.4808,-211.1683 596.1283,-209.0381 601.6987,-206.7795"/>
<polygon fill="#000000" stroke="#000000" points="603.0952,-209.9892 610.9574,-202.8874 600.3825,-203.5362 603.0952,-209.9892"/>
</g>
<!-- simple_solver&#45;&gt;preconditioned_solver -->
<g id="edge10" class="edge">
<title>simple_solver&#45;&gt;preconditioned_solver</title>
<path fill="none" stroke="#000000" d="M398.3277,-253.7927C418.0215,-236.9634 443.7353,-214.9899 461.0034,-200.2335"/>
<polygon fill="#000000" stroke="#000000" points="463.4101,-202.7807 468.7386,-193.6234 458.8625,-197.4591 463.4101,-202.7807"/>
</g>
<!-- simple_solver&#45;&gt;simple_solver_logging -->
<g id="edge11" class="edge">
<title>simple_solver&#45;&gt;simple_solver_logging</title>
<path fill="none" stroke="#000000" d="M321.0155,-275.1038C241.6676,-269.2768 90.5944,-253.0847 58,-213 34.0619,-183.5609 45.7313,-135.7966 55.133,-109.2836"/>
<polygon fill="#000000" stroke="#000000" points="58.5173,-110.2299 58.7908,-99.6386 51.9722,-107.7476 58.5173,-110.2299"/>
</g>
<!-- simple_solver&#45;&gt;three_pt_stencil_solver -->
<g id="edge13" class="edge">
<title>simple_solver&#45;&gt;three_pt_stencil_solver</title>
<path fill="none" stroke="#000000" d="M406.6758,-258.4152C413.6559,-255.0461 420.9761,-251.7494 428,-249 481.4386,-228.0823 516.2493,-257.8901 552,-213 570.4683,-189.8105 570.9905,-155.6765 567.5856,-129.2464"/>
<polygon fill="#000000" stroke="#000000" points="571.0174,-128.5328 566.0549,-119.1721 564.0969,-129.5844 571.0174,-128.5328"/>
</g>
<!-- simple_solver_logging&#45;&gt;papi_logging -->
<g id="edge8" class="edge">
<title>simple_solver_logging&#45;&gt;papi_logging</title>
<path fill="none" stroke="#000000" d="M63,-80.497C63,-68.5278 63,-47.6581 63,-32.1873"/>
<polygon fill="#000000" stroke="#000000" points="66.5001,-32.0807 63,-22.0808 59.5001,-32.0808 66.5001,-32.0807"/>
</g>
<!-- three_pt_stencil_solver&#45;&gt;custom_matrix_format -->
<g id="edge3" class="edge">
<title>three_pt_stencil_solver&#45;&gt;custom_matrix_format</title>
<path fill="none" stroke="#000000" d="M559,-60.7006C559,-52.2134 559,-43.0821 559,-35.074"/>
<polygon fill="#000000" stroke="#000000" points="562.5001,-35.0163 559,-25.0163 555.5001,-35.0163 562.5001,-35.0163"/>
</g>
</g>
</svg>
        <g id="navigator" transform="translate(0 0)" fill="#404254">
                <rect fill="#f2f5e9" fill-opacity="0.5" stroke="#606060" stroke-width=".5" x="0" y="0" width="60" height="60"/>
                <use id="zoomplus" xlink:href="#zoomPlus" x="17" y="9" onmousedown="handleZoom(evt,'in')"/>
                <use id="zoomminus" xlink:href="#zoomMin" x="42" y="9" onmousedown="handleZoom(evt,'out')"/>
                <use id="reset" xlink:href="#resetDef" x="30" y="36" onmousedown="handleReset()"/>
                <g id="arrowUp" xlink:href="#dirArrow" transform="translate(30 24)" onmousedown="handlePan(0,-1)">
                  <use xlink:href="#rim" fill="#404040">
                        <set attributeName="fill" to="#808080" begin="arrowUp.mouseover" end="arrowUp.mouseout"/>
                  </use>
                  <path fill="none" stroke="white" stroke-width="1.5" d="M0,-3.0v7 M-2.5,-0.5L0,-3.0L2.5,-0.5"/>
                </g>
                <g id="arrowRight" xlink:href="#dirArrow" transform="rotate(90) translate(36 -43)" onmousedown="handlePan(1,0)">
                  <use xlink:href="#rim" fill="#404040">
                        <set attributeName="fill" to="#808080" begin="arrowRight.mouseover" end="arrowRight.mouseout"/>
                  </use>
                  <path fill="none" stroke="white" stroke-width="1.5" d="M0,-3.0v7 M-2.5,-0.5L0,-3.0L2.5,-0.5"/>
                </g>
                <g id="arrowDown" xlink:href="#dirArrow" transform="rotate(180) translate(-30 -48)" onmousedown="handlePan(0,1)">
                  <use xlink:href="#rim" fill="#404040">
                        <set attributeName="fill" to="#808080" begin="arrowDown.mouseover" end="arrowDown.mouseout"/>
                  </use>
                  <path fill="none" stroke="white" stroke-width="1.5" d="M0,-3.0v7 M-2.5,-0.5L0,-3.0L2.5,-0.5"/>
                </g>
                <g id="arrowLeft" xlink:href="#dirArrow" transform="rotate(270) translate(-36 17)" onmousedown="handlePan(-1,0)">
                  <use xlink:href="#rim" fill="#404040">
                        <set attributeName="fill" to="#808080" begin="arrowLeft.mouseover" end="arrowLeft.mouseout"/>
                  </use>
                  <path fill="none" stroke="white" stroke-width="1.5" d="M0,-3.0v7 M-2.5,-0.5L0,-3.0L2.5,-0.5"/>
                </g>
        </g>
        <svg viewBox="0 0 15 15" width="100%" height="30px" preserveAspectRatio="xMaxYMin meet">
         <g id="arrow_out" transform="scale(0.3 0.3)">
          <a xlink:href="dot_inline_dotgraph_1_org.svg" target="_base">
           <rect id="button" ry="5" rx="5" y="6" x="6" height="38" width="38"
                fill="#f2f5e9" fill-opacity="0.5" stroke="#606060" stroke-width="1.0"/>
           <path id="arrow"
             d="M 11.500037,31.436501 C 11.940474,20.09759 22.043105,11.32322 32.158766,21.979434 L 37.068811,17.246167 C 37.068811,17.246167 37.088388,32 37.088388,32 L 22.160133,31.978069 C 22.160133,31.978069 26.997745,27.140456 26.997745,27.140456 C 18.528582,18.264221 13.291696,25.230495 11.500037,31.436501 z"
             style="fill:#404040;"/>
          </a>
         </g>
        </svg>
</svg>
