<?xml version="1.0" encoding="UTF-8" standalone="no"?>
<!DOCTYPE svg PUBLIC "-//W3C//DTD SVG 1.1//EN"
 "http://www.w3.org/Graphics/SVG/1.1/DTD/svg11.dtd">
<!-- Generated by graphviz version 2.40.1 (20161225.0304)
 -->
<!-- Title: ExamplesMap Pages: 1 -->
<svg width="361pt" height="315pt"
 viewBox="0.00 0.00 361.27 315.00" xmlns="http://www.w3.org/2000/svg" xmlns:xlink="http://www.w3.org/1999/xlink">
<g id="graph0" class="graph" transform="scale(1 1) rotate(0) translate(4 311)">
<title>ExamplesMap</title>
<polygon fill="#ffffff" stroke="transparent" points="-4,4 -4,-311 357.2727,-311 357.2727,4 -4,4"/>
<!-- Example1 -->
<g id="node1" class="node">
<title>Example1</title>
<g id="a_node1"><a xlink:href="example_1.html" target="_top" xlink:title="Solve a simple linear system with CG. Read a matrix and right hand side from a file.">
<polygon fill="#00ff00" stroke="#000000" points="201.7727,-265.9878 201.7727,-290.0122 184.7849,-307 160.7605,-307 143.7727,-290.0122 143.7727,-265.9878 160.7605,-249 184.7849,-249 201.7727,-265.9878"/>
<text text-anchor="middle" x="172.7727" y="-275.5" font-family="FreeSans" font-size="10.00" fill="#000000">1</text>
</a>
</g>
</g>
<!-- Example12 -->
<g id="node4" class="node">
<title>Example12</title>
<g id="a_node4"><a xlink:href="example_12.html" target="_top" xlink:title="Create a custom stopping criterion.">
<polygon fill="#add8e6" stroke="#000000" points="36.2727,-99.5 7.2727,-99.5 7.2727,-80.5 36.2727,-80.5 36.2727,-99.5"/>
<text text-anchor="middle" x="21.7727" y="-87.5" font-family="FreeSans" font-size="10.00" fill="#000000">12</text>
</a>
</g>
</g>
<!-- Example1&#45;&gt;Example12 -->
<g id="edge2" class="edge">
<title>Example1&#45;&gt;Example12</title>
<path fill="none" stroke="#000000" d="M143.4791,-275.7293C105.6784,-271.0466 41.2763,-256.7287 11.7727,-213 -9.3961,-181.6247 3.4135,-134.9786 13.3867,-109.079"/>
<polygon fill="#000000" stroke="#000000" points="16.6975,-110.2298 17.2512,-99.6495 10.2204,-107.5753 16.6975,-110.2298"/>
</g>
<!-- Example2 -->
<g id="node6" class="node">
<title>Example2</title>
<g id="a_node6"><a xlink:href="example_2.html" target="_top" xlink:title="Use the CUDA executor. Solve a linear system.">
<polygon fill="#00ff00" stroke="#000000" points="78.7727,-171.9878 78.7727,-196.0122 61.7849,-213 37.7605,-213 20.7727,-196.0122 20.7727,-171.9878 37.7605,-155 61.7849,-155 78.7727,-171.9878"/>
<text text-anchor="middle" x="49.7727" y="-181.5" font-family="FreeSans" font-size="10.00" fill="#000000">2</text>
</a>
</g>
</g>
<!-- Example1&#45;&gt;Example2 -->
<g id="edge4" class="edge">
<title>Example1&#45;&gt;Example2</title>
<path fill="none" stroke="#000000" d="M149.3479,-260.0981C130.0263,-245.332 102.4384,-224.2486 81.1989,-208.0167"/>
<polygon fill="#000000" stroke="#000000" points="83.1811,-205.1265 73.1104,-201.8353 78.9306,-210.6883 83.1811,-205.1265"/>
</g>
<!-- Example3 -->
<g id="node7" class="node">
<title>Example3</title>
<g id="a_node7"><a xlink:href="example_3.html" target="_top" xlink:title="Solve the poisson problem. Generate the matrix within Ginkgo.">
<polygon fill="#00ff00" stroke="#000000" points="230.7727,-171.9878 230.7727,-196.0122 213.7849,-213 189.7605,-213 172.7727,-196.0122 172.7727,-171.9878 189.7605,-155 213.7849,-155 230.7727,-171.9878"/>
<text text-anchor="middle" x="201.7727" y="-181.5" font-family="FreeSans" font-size="10.00" fill="#000000">3</text>
</a>
</g>
</g>
<!-- Example1&#45;&gt;Example3 -->
<g id="edge5" class="edge">
<title>Example1&#45;&gt;Example3</title>
<path fill="none" stroke="#000000" d="M181.7896,-248.7731C184.3265,-240.55 187.126,-231.4756 189.8063,-222.7877"/>
<polygon fill="#000000" stroke="#000000" points="193.1579,-223.7963 192.7615,-213.2088 186.469,-221.7326 193.1579,-223.7963"/>
</g>
<!-- Example4 -->
<g id="node8" class="node">
<title>Example4</title>
<g id="a_node8"><a xlink:href="example_4.html" target="_top" xlink:title="Use a preconditioner in Ginkgo. Solve a linear system.">
<polygon fill="#0000ff" stroke="#000000" points="310.2727,-193.5 287.2727,-193.5 287.2727,-174.5 310.2727,-174.5 310.2727,-193.5"/>
<text text-anchor="middle" x="298.7727" y="-181.5" font-family="FreeSans" font-size="10.00" fill="#000000">4</text>
</a>
</g>
</g>
<!-- Example1&#45;&gt;Example4 -->
<g id="edge6" class="edge">
<title>Example1&#45;&gt;Example4</title>
<path fill="none" stroke="#000000" d="M195.994,-260.1065C201.1186,-256.3349 206.5716,-252.4544 211.7727,-249 237.9962,-231.5832 248.4241,-232.9539 272.7727,-213 276.9339,-209.5899 281.0199,-205.4983 284.6756,-201.4782"/>
<polygon fill="#000000" stroke="#000000" points="287.6067,-203.4369 291.4611,-193.5681 282.2937,-198.8793 287.6067,-203.4369"/>
</g>
<!-- Example5 -->
<g id="node9" class="node">
<title>Example5</title>
<g id="a_node9"><a xlink:href="example_5.html" target="_top" xlink:title="Use array views to generate stencil matrix. Solve a linear system.">
<polygon fill="#00ff00" stroke="#000000" points="277.7727,-77.9878 277.7727,-102.0122 260.7849,-119 236.7605,-119 219.7727,-102.0122 219.7727,-77.9878 236.7605,-61 260.7849,-61 277.7727,-77.9878"/>
<text text-anchor="middle" x="248.7727" y="-87.5" font-family="FreeSans" font-size="10.00" fill="#000000">5</text>
</a>
</g>
</g>
<!-- Example1&#45;&gt;Example5 -->
<g id="edge7" class="edge">
<title>Example1&#45;&gt;Example5</title>
<path fill="none" stroke="#000000" d="M195.4257,-259.16C212.8061,-244.1647 234.6651,-223.9402 239.7727,-213 251.9384,-186.942 253.8159,-154.3694 252.8519,-129.2909"/>
<polygon fill="#000000" stroke="#000000" points="256.3321,-128.8346 252.2865,-119.0426 249.3427,-129.2203 256.3321,-128.8346"/>
</g>
<!-- Example7 -->
<g id="node11" class="node">
<title>Example7</title>
<g id="a_node11"><a xlink:href="example_7.html" target="_top" xlink:title="Create a custom matrix format. Matrix free iterative solve.">
<polygon fill="#ffa500" stroke="#000000" points="204.2727,-25 179.2727,-25 179.2727,0 204.2727,0 204.2727,-25"/>
<text text-anchor="middle" x="191.7727" y="-10" font-family="FreeSans" font-size="10.00" fill="#000000">7</text>
</a>
</g>
</g>
<!-- Example1&#45;&gt;Example7 -->
<g id="edge9" class="edge">
<title>Example1&#45;&gt;Example7</title>
<path fill="none" stroke="#000000" d="M167.8833,-248.9676C166.2252,-237.7639 164.5872,-224.8201 163.7727,-213 162.0008,-187.2832 161.276,-180.6566 163.7727,-155 167.9336,-112.244 178.9589,-63.2783 185.8682,-35.3083"/>
<polygon fill="#000000" stroke="#000000" points="189.3296,-35.8952 188.3765,-25.3433 182.5413,-34.1865 189.3296,-35.8952"/>
</g>
<!-- Example8 -->
<g id="node12" class="node">
<title>Example8</title>
<g id="a_node12"><a xlink:href="example_8.html" target="_top" xlink:title="Compute eigenvalues with inverse iteration method.">
<polygon fill="#ffa500" stroke="#000000" points="353.2727,-196.5 328.2727,-196.5 328.2727,-171.5 353.2727,-171.5 353.2727,-196.5"/>
<text text-anchor="middle" x="340.7727" y="-181.5" font-family="FreeSans" font-size="10.00" fill="#000000">8</text>
</a>
</g>
</g>
<!-- Example1&#45;&gt;Example8 -->
<g id="edge12" class="edge">
<title>Example1&#45;&gt;Example8</title>
<path fill="none" stroke="#000000" d="M195.4854,-259.2452C200.6417,-255.5273 206.2362,-251.8864 211.7727,-249 256.6382,-225.6101 278.9761,-242.9271 319.7727,-213 322.8615,-210.7342 325.6801,-207.8788 328.1796,-204.8489"/>
<polygon fill="#000000" stroke="#000000" points="331.035,-206.8729 334.017,-196.7064 325.3459,-202.7944 331.035,-206.8729"/>
</g>
<!-- Example9 -->
<g id="node13" class="node">
<title>Example9</title>
<g id="a_node13"><a xlink:href="example_9.html" target="_top" xlink:title="Logging within Ginkgo.">
<polygon fill="#ffff00" stroke="#000000" points="111.2727,-99.5 88.2727,-99.5 88.2727,-80.5 111.2727,-80.5 111.2727,-99.5"/>
<text text-anchor="middle" x="99.7727" y="-87.5" font-family="FreeSans" font-size="10.00" fill="#000000">9</text>
</a>
</g>
</g>
<!-- Example1&#45;&gt;Example9 -->
<g id="edge13" class="edge">
<title>Example1&#45;&gt;Example9</title>
<path fill="none" stroke="#000000" d="M155.0407,-254.6747C146.6736,-242.7375 137.1499,-227.6614 130.7727,-213 115.6145,-178.1506 106.8059,-134.3924 102.6743,-109.5723"/>
<polygon fill="#000000" stroke="#000000" points="106.1168,-108.9325 101.0992,-99.6012 99.2025,-110.0248 106.1168,-108.9325"/>
</g>
<!-- Example10 -->
<g id="node2" class="node">
<title>Example10</title>
<g id="a_node2"><a xlink:href="example_10.html" target="_top" xlink:title="Logging with PAPI.">
<polygon fill="#ffff00" stroke="#000000" points="114.2727,-22 85.2727,-22 85.2727,-3 114.2727,-3 114.2727,-22"/>
<text text-anchor="middle" x="99.7727" y="-10" font-family="FreeSans" font-size="10.00" fill="#000000">10</text>
</a>
</g>
</g>
<!-- Example11 -->
<g id="node3" class="node">
<title>Example11</title>
<g id="a_node3"><a xlink:href="example_11.html" target="_top" xlink:title="Measure ginkgo overhead.">
<polygon fill="#ffa500" stroke="#000000" points="249.2727,-290.5 220.2727,-290.5 220.2727,-265.5 249.2727,-265.5 249.2727,-290.5"/>
<text text-anchor="middle" x="234.7727" y="-275.5" font-family="FreeSans" font-size="10.00" fill="#000000">11</text>
</a>
</g>
</g>
<!-- Example13 -->
<g id="node5" class="node">
<title>Example13</title>
<g id="a_node5"><a xlink:href="example_13.html" target="_top" xlink:title="Use the ranges concept in ginkgo.">
<polygon fill="#ffa500" stroke="#000000" points="296.2727,-290.5 267.2727,-290.5 267.2727,-265.5 296.2727,-265.5 296.2727,-290.5"/>
<text text-anchor="middle" x="281.7727" y="-275.5" font-family="FreeSans" font-size="10.00" fill="#000000">13</text>
</a>
</g>
</g>
<!-- Example2&#45;&gt;Example12 -->
<g id="edge3" class="edge">
<title>Example2&#45;&gt;Example12</title>
<path fill="none" stroke="#000000" d="M41.0669,-154.7731C36.7023,-140.1206 31.5326,-122.7653 27.6436,-109.7092"/>
<polygon fill="#000000" stroke="#000000" points="30.9329,-108.4916 24.7237,-99.9069 24.2242,-110.4899 30.9329,-108.4916"/>
</g>
<!-- Example2&#45;&gt;Example9 -->
<g id="edge14" class="edge">
<title>Example2&#45;&gt;Example9</title>
<path fill="none" stroke="#000000" d="M64.1007,-157.0634C72.3674,-141.522 82.5507,-122.3775 89.9179,-108.527"/>
<polygon fill="#000000" stroke="#000000" points="93.111,-109.977 94.7171,-99.5046 86.9308,-106.6897 93.111,-109.977"/>
</g>
<!-- Example3&#45;&gt;Example5 -->
<g id="edge8" class="edge">
<title>Example3&#45;&gt;Example5</title>
<path fill="none" stroke="#000000" d="M215.4934,-156.5586C220.1339,-147.2777 225.3936,-136.7584 230.3389,-126.8676"/>
<polygon fill="#000000" stroke="#000000" points="233.6119,-128.1478 234.9536,-117.6382 227.3509,-125.0173 233.6119,-128.1478"/>
</g>
<!-- Example3&#45;&gt;Example7 -->
<g id="edge10" class="edge">
<title>Example3&#45;&gt;Example7</title>
<path fill="none" stroke="#000000" d="M200.0764,-154.9074C198.1111,-121.2025 194.9132,-66.3594 193.1134,-35.493"/>
<polygon fill="#000000" stroke="#000000" points="196.5948,-35.0689 192.5185,-25.2896 189.6066,-35.4764 196.5948,-35.0689"/>
</g>
<!-- Example5&#45;&gt;Example7 -->
<g id="edge11" class="edge">
<title>Example5&#45;&gt;Example7</title>
<path fill="none" stroke="#000000" d="M231.3611,-66.3263C223.6633,-55.8599 214.6867,-43.655 207.2293,-33.5155"/>
<polygon fill="#000000" stroke="#000000" points="209.8817,-31.2145 201.1372,-25.2324 204.2427,-35.362 209.8817,-31.2145"/>
</g>
<!-- Example6 -->
<g id="node10" class="node">
<title>Example6</title>
<g id="a_node10"><a xlink:href="example_6.html" target="_top" xlink:title="Interface with an external library.">
<polygon fill="#ffa500" stroke="#000000" points="339.2727,-290.5 314.2727,-290.5 314.2727,-265.5 339.2727,-265.5 339.2727,-290.5"/>
<text text-anchor="middle" x="326.7727" y="-275.5" font-family="FreeSans" font-size="10.00" fill="#000000">6</text>
</a>
</g>
</g>
<!-- Example9&#45;&gt;Example10 -->
<g id="edge1" class="edge">
<title>Example9&#45;&gt;Example10</title>
<path fill="none" stroke="#000000" d="M99.7727,-80.497C99.7727,-68.5278 99.7727,-47.6581 99.7727,-32.1873"/>
<polygon fill="#000000" stroke="#000000" points="103.2728,-32.0807 99.7727,-22.0808 96.2728,-32.0808 103.2728,-32.0807"/>
</g>
</g>
</svg>
