<?xml version="1.0" encoding="UTF-8" standalone="no"?>
<!DOCTYPE svg PUBLIC "-//W3C//DTD SVG 1.1//EN"
 "http://www.w3.org/Graphics/SVG/1.1/DTD/svg11.dtd">
<!-- Generated by graphviz version 2.38.0 (20140413.2041)
 -->
<!-- Title: ExamplesMap Pages: 1 -->
<svg width="363pt" height="348pt"
 viewBox="0.00 0.00 363.00 348.00" xmlns="http://www.w3.org/2000/svg" xmlns:xlink="http://www.w3.org/1999/xlink">
<g id="graph0" class="graph" transform="scale(1 1) rotate(0) translate(4 344)">
<title>ExamplesMap</title>
<polygon fill="white" stroke="none" points="-4,4 -4,-344 359,-344 359,4 -4,4"/>
<!-- Example1 -->
<g id="node1" class="node"><title>Example1</title>
<g id="a_node1"><a xlink:href="" target="_top" xlink:title="Creating a mesh. Refining it. Writing it to a file.">
<polygon fill="green" stroke="black" points="203.5,-298.988 203.5,-323.012 186.512,-340 162.488,-340 145.5,-323.012 145.5,-298.988 162.488,-282 186.512,-282 203.5,-298.988"/>
<text text-anchor="middle" x="174.5" y="-308.5" font-family="FreeSans" font-size="10.00">1</text>
</a>
</g>
</g>
<!-- Example12 -->
<g id="node4" class="node"><title>Example12</title>
<g id="a_node4"><a xlink:href="" target="_top" xlink:title="Create a custom stopping criterion.">
<polygon fill="lightblue" stroke="black" points="29,-132.5 1.77636e-15,-132.5 1.77636e-15,-113.5 29,-113.5 29,-132.5"/>
<text text-anchor="middle" x="14.5" y="-120.5" font-family="FreeSans" font-size="10.00">12</text>
</a>
</g>
</g>
<!-- Example1&#45;&gt;Example12 -->
<g id="edge2" class="edge"><title>Example1&#45;&gt;Example12</title>
<path fill="none" stroke="black" d="M145.222,-307.914C107.439,-303.47 43.0571,-289.556 13.5,-246 -7.63534,-214.854 1.05348,-168.163 8.34544,-142.515"/>
<polygon fill="black" stroke="black" points="11.7913,-143.218 11.3897,-132.63 5.10141,-141.157 11.7913,-143.218"/>
</g>
<!-- Example2 -->
<g id="node6" class="node"><title>Example2</title>
<g id="a_node6"><a xlink:href="" target="_top" xlink:title="Use the CUDA executor. Solve a linear system.">
<polygon fill="green" stroke="black" points="80.5,-204.988 80.5,-229.012 63.5122,-246 39.4878,-246 22.5,-229.012 22.5,-204.988 39.4878,-188 63.5122,-188 80.5,-204.988"/>
<text text-anchor="middle" x="51.5" y="-214.5" font-family="FreeSans" font-size="10.00">2</text>
</a>
</g>
</g>
<!-- Example1&#45;&gt;Example2 -->
<g id="edge4" class="edge"><title>Example1&#45;&gt;Example2</title>
<path fill="none" stroke="black" d="M151.365,-292.696C131.951,-278.175 104.046,-257.303 82.6658,-241.311"/>
<polygon fill="black" stroke="black" points="84.6358,-238.414 74.5316,-235.227 80.4431,-244.019 84.6358,-238.414"/>
</g>
<!-- Example3 -->
<g id="node7" class="node"><title>Example3</title>
<g id="a_node7"><a xlink:href="" target="_top" xlink:title="Solve the poisson problem. Generate the matrix within Ginkgo.">
<polygon fill="green" stroke="black" points="232.5,-204.988 232.5,-229.012 215.512,-246 191.488,-246 174.5,-229.012 174.5,-204.988 191.488,-188 215.512,-188 232.5,-204.988"/>
<text text-anchor="middle" x="203.5" y="-214.5" font-family="FreeSans" font-size="10.00">3</text>
</a>
</g>
</g>
<!-- Example1&#45;&gt;Example3 -->
<g id="edge5" class="edge"><title>Example1&#45;&gt;Example3</title>
<path fill="none" stroke="black" d="M183.359,-281.897C185.948,-273.681 188.823,-264.562 191.57,-255.847"/>
<polygon fill="black" stroke="black" points="194.927,-256.837 194.596,-246.248 188.251,-254.733 194.927,-256.837"/>
</g>
<!-- Example4 -->
<g id="node8" class="node"><title>Example4</title>
<g id="a_node8"><a xlink:href="" target="_top" xlink:title="Use a preconditioner in Ginkgo. Solve a linear system.">
<polygon fill="blue" stroke="black" points="312,-226.5 289,-226.5 289,-207.5 312,-207.5 312,-226.5"/>
<text text-anchor="middle" x="300.5" y="-214.5" font-family="FreeSans" font-size="10.00">4</text>
</a>
</g>
</g>
<!-- Example1&#45;&gt;Example4 -->
<g id="edge6" class="edge"><title>Example1&#45;&gt;Example4</title>
<path fill="none" stroke="black" d="M196.864,-292.351C201.615,-288.808 206.66,-285.195 211.5,-282 238.413,-264.233 249.238,-266.046 274.5,-246 278.758,-242.621 282.954,-238.537 286.691,-234.545"/>
<polygon fill="black" stroke="black" points="289.592,-236.547 293.591,-226.736 284.347,-231.912 289.592,-236.547"/>
</g>
<!-- Example5 -->
<g id="node9" class="node"><title>Example5</title>
<g id="a_node9"><a xlink:href="" target="_top" xlink:title="Use array views to generate stencil matrix. Solve a linear system.">
<polygon fill="green" stroke="black" points="279.5,-110.988 279.5,-135.012 262.512,-152 238.488,-152 221.5,-135.012 221.5,-110.988 238.488,-94 262.512,-94 279.5,-110.988"/>
<text text-anchor="middle" x="250.5" y="-120.5" font-family="FreeSans" font-size="10.00">5</text>
</a>
</g>
</g>
<!-- Example1&#45;&gt;Example5 -->
<g id="edge7" class="edge"><title>Example1&#45;&gt;Example5</title>
<path fill="none" stroke="black" d="M196.8,-291.78C214.233,-277.008 236.351,-256.91 241.5,-246 253.794,-219.951 255.588,-187.261 254.556,-162.277"/>
<polygon fill="black" stroke="black" points="258.038,-161.864 253.964,-152.084 251.05,-162.27 258.038,-161.864"/>
</g>
<!-- Example7 -->
<g id="node11" class="node"><title>Example7</title>
<g id="a_node11"><a xlink:href="" target="_top" xlink:title="Create a custom matrix format. Matrix free iterative solve.">
<polygon fill="orange" stroke="black" points="206,-41.5 181,-41.5 181,-16.5 206,-16.5 206,-41.5"/>
<text text-anchor="middle" x="193.5" y="-26.5" font-family="FreeSans" font-size="10.00">7</text>
</a>
</g>
</g>
<!-- Example1&#45;&gt;Example7 -->
<g id="edge9" class="edge"><title>Example1&#45;&gt;Example7</title>
<path fill="none" stroke="black" d="M169.658,-281.735C167.984,-270.631 166.322,-257.753 165.5,-246 163.701,-220.285 163.242,-213.679 165.5,-188 169.824,-138.816 181.582,-82.0033 188.407,-51.6994"/>
<polygon fill="black" stroke="black" points="191.854,-52.3265 190.676,-41.7974 185.031,-50.7632 191.854,-52.3265"/>
</g>
<!-- Example8 -->
<g id="node12" class="node"><title>Example8</title>
<g id="a_node12"><a xlink:href="" target="_top" xlink:title="Compute eigenvalues with inverse iteration method.">
<polygon fill="orange" stroke="black" points="355,-229.5 330,-229.5 330,-204.5 355,-204.5 355,-229.5"/>
<text text-anchor="middle" x="342.5" y="-214.5" font-family="FreeSans" font-size="10.00">8</text>
</a>
</g>
</g>
<!-- Example1&#45;&gt;Example8 -->
<g id="edge13" class="edge"><title>Example1&#45;&gt;Example8</title>
<path fill="none" stroke="black" d="M196.401,-291.566C201.186,-288.08 206.361,-284.689 211.5,-282 257.079,-258.152 279.687,-275.964 321.5,-246 324.649,-243.744 327.531,-240.875 330.085,-237.838"/>
<polygon fill="black" stroke="black" points="332.95,-239.85 336.035,-229.715 327.303,-235.714 332.95,-239.85"/>
</g>
<!-- Example9 -->
<g id="node13" class="node"><title>Example9</title>
<g id="a_node13"><a xlink:href="" target="_top" xlink:title="Creating a mesh. Refining it. Writing it to a file.">
<polygon fill="yellow" stroke="black" points="91,-132.5 68,-132.5 68,-113.5 91,-113.5 91,-132.5"/>
<text text-anchor="middle" x="79.5" y="-120.5" font-family="FreeSans" font-size="10.00">9</text>
</a>
</g>
</g>
<!-- Example1&#45;&gt;Example9 -->
<g id="edge14" class="edge"><title>Example1&#45;&gt;Example9</title>
<path fill="none" stroke="black" d="M157.747,-286.586C149.621,-274.722 140.017,-259.915 132.5,-246 113.274,-210.409 95.5435,-166.403 86.2641,-142.162"/>
<polygon fill="black" stroke="black" points="89.4285,-140.634 82.6203,-132.517 82.8802,-143.108 89.4285,-140.634"/>
</g>
<!-- Example10 -->
<g id="node2" class="node"><title>Example10</title>
<g id="a_node2"><a xlink:href="" target="_top" xlink:title="Logging with PAPI.">
<polygon fill="green" stroke="black" points="108.5,-16.9878 108.5,-41.0122 91.5122,-58 67.4878,-58 50.5,-41.0122 50.5,-16.9878 67.4878,-7.10543e-15 91.5122,-3.55271e-15 108.5,-16.9878"/>
<text text-anchor="middle" x="79.5" y="-26.5" font-family="FreeSans" font-size="10.00">10</text>
</a>
</g>
</g>
<!-- Example11 -->
<g id="node3" class="node"><title>Example11</title>
<g id="a_node3"><a xlink:href="" target="_top" xlink:title="Measure ginkgo overhead.">
<polygon fill="orange" stroke="black" points="250,-323.5 221,-323.5 221,-298.5 250,-298.5 250,-323.5"/>
<text text-anchor="middle" x="235.5" y="-308.5" font-family="FreeSans" font-size="10.00">11</text>
</a>
</g>
</g>
<!-- Example13 -->
<g id="node5" class="node"><title>Example13</title>
<g id="a_node5"><a xlink:href="" target="_top" xlink:title="Use the ranges concept in ginkgo.">
<polygon fill="orange" stroke="black" points="297,-323.5 268,-323.5 268,-298.5 297,-298.5 297,-323.5"/>
<text text-anchor="middle" x="282.5" y="-308.5" font-family="FreeSans" font-size="10.00">13</text>
</a>
</g>
</g>
<!-- Example2&#45;&gt;Example12 -->
<g id="edge3" class="edge"><title>Example2&#45;&gt;Example12</title>
<path fill="none" stroke="black" d="M40.1977,-187.897C34.2206,-173.035 27.0559,-155.22 21.8119,-142.181"/>
<polygon fill="black" stroke="black" points="24.9055,-140.493 17.9269,-132.521 18.4111,-143.105 24.9055,-140.493"/>
</g>
<!-- Example2&#45;&gt;Example9 -->
<g id="edge15" class="edge"><title>Example2&#45;&gt;Example9</title>
<path fill="none" stroke="black" d="M60.0531,-187.897C64.5763,-173.035 69.9982,-155.22 73.9667,-142.181"/>
<polygon fill="black" stroke="black" points="77.3433,-143.107 76.9066,-132.521 70.6466,-141.069 77.3433,-143.107"/>
</g>
<!-- Example3&#45;&gt;Example5 -->
<g id="edge8" class="edge"><title>Example3&#45;&gt;Example5</title>
<path fill="none" stroke="black" d="M217.094,-189.39C221.82,-180.14 227.199,-169.61 232.24,-159.743"/>
<polygon fill="black" stroke="black" points="235.504,-161.048 236.936,-150.55 229.27,-157.863 235.504,-161.048"/>
</g>
<!-- Example3&#45;&gt;Example7 -->
<g id="edge10" class="edge"><title>Example3&#45;&gt;Example7</title>
<path fill="none" stroke="black" d="M201.981,-187.751C199.978,-150.498 196.496,-85.7281 194.679,-51.9371"/>
<polygon fill="black" stroke="black" points="198.164,-51.5474 194.132,-41.7497 191.174,-51.9232 198.164,-51.5474"/>
</g>
<!-- Example5&#45;&gt;Example7 -->
<g id="edge11" class="edge"><title>Example5&#45;&gt;Example7</title>
<path fill="none" stroke="black" d="M234.924,-96.8606C225.926,-82.3364 214.746,-64.2921 206.27,-50.6108"/>
<polygon fill="black" stroke="black" points="209.135,-48.5904 200.893,-41.9331 203.185,-52.2771 209.135,-48.5904"/>
</g>
<!-- Example6 -->
<g id="node10" class="node"><title>Example6</title>
<g id="a_node10"><a xlink:href="" target="_top" xlink:title="Interface with an external library.">
<polygon fill="orange" stroke="black" points="340,-323.5 315,-323.5 315,-298.5 340,-298.5 340,-323.5"/>
<text text-anchor="middle" x="327.5" y="-308.5" font-family="FreeSans" font-size="10.00">6</text>
</a>
</g>
</g>
<!-- Example7&#45;&gt;Example7 -->
<g id="edge12" class="edge"><title>Example7&#45;&gt;Example7</title>
<path fill="none" stroke="black" d="M201.931,-41.6508C212.081,-51.2091 224,-46.9922 224,-29 224,-16.3492 218.107,-10.5088 211.08,-11.4786"/>
<polygon fill="black" stroke="black" points="209.114,-8.56055 201.931,-16.3492 212.403,-14.7395 209.114,-8.56055"/>
</g>
<!-- Example9&#45;&gt;Example10 -->
<g id="edge1" class="edge"><title>Example9&#45;&gt;Example10</title>
<path fill="none" stroke="black" d="M79.5,-113.179C79.5,-102.75 79.5,-84.7074 79.5,-68.086"/>
<polygon fill="black" stroke="black" points="83.0001,-68.0012 79.5,-58.0012 76.0001,-68.0012 83.0001,-68.0012"/>
</g>
</g>
</svg>
