<?xml version="1.0" encoding="UTF-8" standalone="no"?>
<!DOCTYPE svg PUBLIC "-//W3C//DTD SVG 1.1//EN"
 "http://www.w3.org/Graphics/SVG/1.1/DTD/svg11.dtd">
<!-- Generated by graphviz version 2.38.0 (20140413.2041)
 -->
<!-- Title: Reference Executor Pages: 1 -->
<svg width="330pt" height="37pt"
 viewBox="0.00 0.00 330.00 36.69" xmlns="http://www.w3.org/2000/svg" xmlns:xlink="http://www.w3.org/1999/xlink">
<g id="graph0" class="graph" transform="scale(1 1) rotate(0) translate(4 32.6949)">
<title>Reference Executor</title>
<polygon fill="white" stroke="none" points="-4,4 -4,-32.6949 326,-32.6949 326,4 -4,4"/>
<!-- Node1 -->
<g id="node1" class="node"><title>Node1</title>
<g id="a_node1"><a xlink:href="group__Executor.html" target="_top" xlink:title="A module dedicated to the implementation and usage of the executors in Ginkgo. ">
<polygon fill="white" stroke="black" points="0,-9.19491 0,-28.1949 64,-28.1949 64,-9.19491 0,-9.19491"/>
<text text-anchor="middle" x="32" y="-16.1949" font-family="Helvetica,sans-Serif" font-size="10.00">Executors</text>
</a>
</g>
</g>
<!-- Node0 -->
<g id="node2" class="node"><title>Node0</title>
<polygon fill="#bfbfbf" stroke="black" points="213,-9.19491 213,-28.1949 322,-28.1949 322,-9.19491 213,-9.19491"/>
<text text-anchor="middle" x="267.5" y="-16.1949" font-family="Helvetica,sans-Serif" font-size="10.00">Reference Executor</text>
</g>
<!-- Node1&#45;&gt;Node0 -->
<g id="edge1" class="edge"><title>Node1&#45;&gt;Node0</title>
<path fill="none" stroke="black" d="M74.362,-18.6949C112.986,-18.6949 170.844,-18.6949 212.974,-18.6949"/>
<polygon fill="black" stroke="black" points="74.007,-15.195 64.007,-18.6949 74.007,-22.195 74.007,-15.195"/>
</g>
<!-- Node0&#45;&gt;Node1 -->
<g id="edge2" class="edge"><title>Node0&#45;&gt;Node1</title>
<path fill="none" stroke="orange" stroke-dasharray="5,2" d="M225.111,-9.18325C215.294,-7.31897 204.82,-5.64727 195,-4.69491 145.012,0.152962 131.737,2.27097 82,-4.69491 75.1658,-5.65208 67.9473,-7.32565 61.2131,-9.19022"/>
<text text-anchor="middle" x="138.5" y="-7.69491" font-family="Helvetica,sans-Serif" font-size="10.00">gko::ReferenceExecutor</text>
</g>
</g>
</svg>
