<?xml version="1.0" encoding="UTF-8" standalone="no"?>
<!DOCTYPE svg PUBLIC "-//W3C//DTD SVG 1.1//EN"
 "http://www.w3.org/Graphics/SVG/1.1/DTD/svg11.dtd">
<!-- Generated by graphviz version 2.40.1 (20161225.0304)
 -->
<!-- Title: Linear Operators Pages: 1 -->
<svg width="421pt" height="353pt"
 viewBox="0.00 0.00 421.00 353.24" xmlns="http://www.w3.org/2000/svg" xmlns:xlink="http://www.w3.org/1999/xlink">
<g id="graph0" class="graph" transform="scale(1 1) rotate(0) translate(4 349.2417)">
<title>Linear Operators</title>
<polygon fill="#ffffff" stroke="transparent" points="-4,4 -4,-349.2417 417,-349.2417 417,4 -4,4"/>
<!-- Node2 -->
<g id="node1" class="node">
<title>Node2</title>
<g id="a_node1"><a xlink:href="group__precond.html" target="_top" xlink:title="A module dedicated to the implementation and usage of the Preconditioners in Ginkgo. ">
<polygon fill="#ffffff" stroke="#000000" points="295.5,-289.48 295.5,-308.48 387.5,-308.48 387.5,-289.48 295.5,-289.48"/>
<text text-anchor="middle" x="341.5" y="-296.48" font-family="Helvetica,sans-Serif" font-size="10.00" fill="#000000">Preconditioners</text>
</a>
</g>
</g>
<!-- Node1 -->
<g id="node2" class="node">
<title>Node1</title>
<g id="a_node2"><a xlink:href="group__mat__formats.html" target="_top" xlink:title="A module dedicated to the implementation and usage of the various Matrix Formats in Ginkgo...">
<polygon fill="#ffffff" stroke="#000000" points="270,-127.98 270,-157.98 413,-157.98 413,-127.98 270,-127.98"/>
<text text-anchor="start" x="278" y="-145.98" font-family="Helvetica,sans-Serif" font-size="10.00" fill="#000000">SpMV employing different</text>
<text text-anchor="middle" x="341.5" y="-134.98" font-family="Helvetica,sans-Serif" font-size="10.00" fill="#000000"> Matrix formats</text>
</a>
</g>
</g>
<!-- Node0 -->
<g id="node3" class="node">
<title>Node0</title>
<polygon fill="#bfbfbf" stroke="#000000" points="0,-164.48 0,-183.48 98,-183.48 98,-164.48 0,-164.48"/>
<text text-anchor="middle" x="49" y="-171.48" font-family="Helvetica,sans-Serif" font-size="10.00" fill="#000000">Linear Operators</text>
</g>
<!-- Node0&#45;&gt;Node2 -->
<g id="edge2" class="edge">
<title>Node0&#45;&gt;Node2</title>
<path fill="none" stroke="#000000" d="M51.0077,-193.8241C55.6339,-227.7863 70.4224,-296.2612 116,-325.98 181.8908,-368.944 282.0316,-328.5474 323.0248,-308.6233"/>
<polygon fill="#000000" stroke="#000000" points="54.4637,-193.2478 49.7986,-183.7354 47.5135,-194.0808 54.4637,-193.2478"/>
</g>
<!-- Node0&#45;&gt;Node2 -->
<g id="edge4" class="edge">
<title>Node0&#45;&gt;Node2</title>
<path fill="none" stroke="#ffa500" stroke-dasharray="5,2" d="M56.9824,-183.5752C68.5391,-196.7695 91.2712,-220.2141 116,-231.98 171.4246,-258.3508 193.5713,-237.1813 252,-255.98 278.5843,-264.5331 307.3633,-279.4806 324.9136,-289.3045"/>
<text text-anchor="middle" x="184" y="-313.98" font-family="Helvetica,sans-Serif" font-size="10.00" fill="#000000">gko::Preconditionable</text>
<text text-anchor="start" x="131" y="-302.98" font-family="Helvetica,sans-Serif" font-size="10.00" fill="#000000">gko::preconditioner</text>
<text text-anchor="start" x="131" y="-291.98" font-family="Helvetica,sans-Serif" font-size="10.00" fill="#000000">::block_interleaved</text>
<text text-anchor="middle" x="184" y="-280.98" font-family="Helvetica,sans-Serif" font-size="10.00" fill="#000000">_storage_scheme</text>
<text text-anchor="start" x="131" y="-269.98" font-family="Helvetica,sans-Serif" font-size="10.00" fill="#000000">gko::preconditioner</text>
<text text-anchor="middle" x="184" y="-258.98" font-family="Helvetica,sans-Serif" font-size="10.00" fill="#000000">::Jacobi</text>
</g>
<!-- Node0&#45;&gt;Node1 -->
<g id="edge1" class="edge">
<title>Node0&#45;&gt;Node1</title>
<path fill="none" stroke="#000000" d="M69.8658,-189.5573C82.5032,-198.0018 99.3525,-207.5877 116,-211.98 174.4444,-227.4 194.7855,-231.4743 252,-211.98 283.1999,-201.3494 311.9944,-174.9557 328.1039,-158.0661"/>
<polygon fill="#000000" stroke="#000000" points="71.6753,-186.5521 61.4714,-183.7007 67.67,-192.293 71.6753,-186.5521"/>
</g>
<!-- Node0&#45;&gt;Node1 -->
<g id="edge5" class="edge">
<title>Node0&#45;&gt;Node1</title>
<path fill="none" stroke="#ffa500" stroke-dasharray="5,2" d="M56.8853,-164.4598C68.3266,-151.4785 90.9225,-128.8278 116,-119.98 176.861,-98.507 252.2891,-113.9855 298.6429,-127.8839"/>
<text text-anchor="middle" x="184" y="-199.98" font-family="Helvetica,sans-Serif" font-size="10.00" fill="#000000">gko::matrix::Coo</text>
<text text-anchor="middle" x="184" y="-188.98" font-family="Helvetica,sans-Serif" font-size="10.00" fill="#000000">gko::matrix::Csr</text>
<text text-anchor="middle" x="184" y="-177.98" font-family="Helvetica,sans-Serif" font-size="10.00" fill="#000000">gko::matrix::Dense</text>
<text text-anchor="middle" x="184" y="-166.98" font-family="Helvetica,sans-Serif" font-size="10.00" fill="#000000">gko::matrix::Ell</text>
<text text-anchor="middle" x="184" y="-155.98" font-family="Helvetica,sans-Serif" font-size="10.00" fill="#000000">gko::matrix::Hybrid</text>
<text text-anchor="middle" x="184" y="-144.98" font-family="Helvetica,sans-Serif" font-size="10.00" fill="#000000">gko::matrix::Identity</text>
<text text-anchor="middle" x="184" y="-133.98" font-family="Helvetica,sans-Serif" font-size="10.00" fill="#000000">gko::matrix::IdentityFactory</text>
<text text-anchor="middle" x="184" y="-122.98" font-family="Helvetica,sans-Serif" font-size="10.00" fill="#000000">gko::matrix::Sellp</text>
</g>
<!-- Node3 -->
<g id="node4" class="node">
<title>Node3</title>
<g id="a_node4"><a xlink:href="group__solvers.html" target="_top" xlink:title="A module dedicated to the implementation and usage of the Solvers in Ginkgo. ">
<polygon fill="#ffffff" stroke="#000000" points="315,-60.48 315,-79.48 368,-79.48 368,-60.48 315,-60.48"/>
<text text-anchor="middle" x="341.5" y="-67.48" font-family="Helvetica,sans-Serif" font-size="10.00" fill="#000000">Solvers</text>
</a>
</g>
</g>
<!-- Node0&#45;&gt;Node3 -->
<g id="edge3" class="edge">
<title>Node0&#45;&gt;Node3</title>
<path fill="none" stroke="#000000" d="M61.2635,-155.8612C73.233,-139.7251 92.9714,-116.8825 116,-104.98 150.2271,-87.2894 262.6135,-76.2767 314.6364,-72.0064"/>
<polygon fill="#000000" stroke="#000000" points="58.399,-153.85 55.4415,-164.0237 64.0979,-157.9148 58.399,-153.85"/>
</g>
<!-- Node0&#45;&gt;Node3 -->
<g id="edge6" class="edge">
<title>Node0&#45;&gt;Node3</title>
<path fill="none" stroke="#ffa500" stroke-dasharray="5,2" d="M49.691,-164.4447C52.3109,-136.2202 64.3063,-52.9514 116,-18.98 166.5132,14.2156 193.5711,-3.501 252,-18.98 282.2531,-26.9946 312.9679,-47.8841 329.3759,-60.3008"/>
<text text-anchor="middle" x="184" y="-65.98" font-family="Helvetica,sans-Serif" font-size="10.00" fill="#000000">gko::solver::Bicgstab</text>
<text text-anchor="middle" x="184" y="-54.98" font-family="Helvetica,sans-Serif" font-size="10.00" fill="#000000">gko::solver::Cg</text>
<text text-anchor="middle" x="184" y="-43.98" font-family="Helvetica,sans-Serif" font-size="10.00" fill="#000000">gko::solver::Cgs</text>
<text text-anchor="middle" x="184" y="-32.98" font-family="Helvetica,sans-Serif" font-size="10.00" fill="#000000">gko::solver::Fcg</text>
<text text-anchor="middle" x="184" y="-21.98" font-family="Helvetica,sans-Serif" font-size="10.00" fill="#000000">gko::solver::Gmres</text>
</g>
</g>
</svg>
