<?xml version="1.0" encoding="UTF-8" standalone="no"?>
<!DOCTYPE svg PUBLIC "-//W3C//DTD SVG 1.1//EN"
 "http://www.w3.org/Graphics/SVG/1.1/DTD/svg11.dtd">
<!-- Generated by graphviz version 2.40.1 (20161225.0304)
 -->
<!-- Title: CUDA Executor Pages: 1 -->
<svg width="292pt" height="29pt"
 viewBox="0.00 0.00 292.00 29.00" xmlns="http://www.w3.org/2000/svg" xmlns:xlink="http://www.w3.org/1999/xlink">
<g id="graph0" class="graph" transform="scale(1 1) rotate(0) translate(4 25)">
<title>CUDA Executor</title>
<polygon fill="#ffffff" stroke="transparent" points="-4,4 -4,-25 288,-25 288,4 -4,4"/>
<!-- Node0 -->
<g id="node1" class="node">
<title>Node0</title>
<polygon fill="#bfbfbf" stroke="#000000" points="0,-.5 0,-19.5 91,-19.5 91,-.5 0,-.5"/>
<text text-anchor="middle" x="45.5" y="-7.5" font-family="Helvetica,sans-Serif" font-size="10.00" fill="#000000">CUDA Executor</text>
</g>
<!-- Node1 -->
<g id="node2" class="node">
<title>Node1</title>
<g id="a_node2"><a xlink:href="group__Executor.html" target="_top" xlink:title="A module dedicated to the implementation and usage of the executors in Ginkgo. ">
<polygon fill="#ffffff" stroke="#000000" points="219,-.5 219,-19.5 284,-19.5 284,-.5 219,-.5"/>
<text text-anchor="middle" x="251.5" y="-7.5" font-family="Helvetica,sans-Serif" font-size="10.00" fill="#000000">Executors</text>
</a>
</g>
</g>
<!-- Node0&#45;&gt;Node1 -->
<g id="edge2" class="edge">
<title>Node0&#45;&gt;Node1</title>
<path fill="none" stroke="#ffa500" stroke-dasharray="5,2" d="M91.2181,-10C129.8601,-10 184.2739,-10 218.7093,-10"/>
<text text-anchor="middle" x="155" y="-13" font-family="Helvetica,sans-Serif" font-size="10.00" fill="#000000">gko::CudaExecutor</text>
</g>
<!-- Node1&#45;&gt;Node0 -->
<g id="edge1" class="edge">
<title>Node1&#45;&gt;Node0</title>
<path fill="none" stroke="#000000" d="M208.7641,-8.189C206.1372,-8.1144 203.5331,-8.0501 201,-8 160.1191,-7.1908 149.8838,-7.3563 109,-8 103.2652,-8.0903 97.2402,-8.2264 91.2795,-8.386"/>
<polygon fill="#000000" stroke="#000000" points="208.7982,-11.6919 218.9069,-8.5196 209.0263,-4.6956 208.7982,-11.6919"/>
</g>
</g>
</svg>
