<?xml version="1.0" encoding="UTF-8" standalone="no"?>
<!DOCTYPE svg PUBLIC "-//W3C//DTD SVG 1.1//EN"
 "http://www.w3.org/Graphics/SVG/1.1/DTD/svg11.dtd">
<!-- Generated by graphviz version 2.38.0 (20140413.2041)
 -->
<!-- Title: Solvers Pages: 1 -->
<svg width="293pt" height="84pt"
 viewBox="0.00 0.00 293.00 84.02" xmlns="http://www.w3.org/2000/svg" xmlns:xlink="http://www.w3.org/1999/xlink">
<g id="graph0" class="graph" transform="scale(1 1) rotate(0) translate(4 80.0175)">
<title>Solvers</title>
<polygon fill="white" stroke="none" points="-4,4 -4,-80.0175 289,-80.0175 289,4 -4,4"/>
<!-- Node1 -->
<g id="node1" class="node"><title>Node1</title>
<g id="a_node1"><a xlink:href="group__LinOp.html" target="_top" xlink:title="A module dedicated to the implementation and usage of the Linear operators in Ginkgo. ">
<polygon fill="white" stroke="black" points="0,-38.9927 0,-57.9927 97,-57.9927 97,-38.9927 0,-38.9927"/>
<text text-anchor="middle" x="48.5" y="-45.9927" font-family="Helvetica,sans-Serif" font-size="10.00">Linear Operators</text>
</a>
</g>
</g>
<!-- Node0 -->
<g id="node2" class="node"><title>Node0</title>
<polygon fill="#bfbfbf" stroke="black" points="233,-38.9927 233,-57.9927 285,-57.9927 285,-38.9927 233,-38.9927"/>
<text text-anchor="middle" x="259" y="-45.9927" font-family="Helvetica,sans-Serif" font-size="10.00">Solvers</text>
</g>
<!-- Node1&#45;&gt;Node0 -->
<g id="edge1" class="edge"><title>Node1&#45;&gt;Node0</title>
<path fill="none" stroke="black" d="M83.0113,-61.4364C93.1336,-64.7436 104.382,-67.8321 115,-69.4927 158.911,-76.3596 171.697,-79.5017 215,-69.4927 224.713,-67.2475 234.769,-62.4929 242.711,-58.0748"/>
<polygon fill="black" stroke="black" points="83.9238,-58.049 73.3291,-58.1011 81.6439,-64.6673 83.9238,-58.049"/>
</g>
<!-- Node0&#45;&gt;Node1 -->
<g id="edge2" class="edge"><title>Node0&#45;&gt;Node1</title>
<path fill="none" stroke="orange" stroke-dasharray="5,2" d="M250.684,-38.85C242.978,-29.5689 229.908,-16.1359 215,-10.4927 173.434,5.2419 157.918,1.05547 115,-10.4927 94.6878,-15.9582 74.1799,-29.4355 61.6554,-38.775"/>
<text text-anchor="middle" x="165" y="-57.4927" font-family="Helvetica,sans-Serif" font-size="10.00">gko::solver::Bicgstab</text>
<text text-anchor="middle" x="165" y="-46.4927" font-family="Helvetica,sans-Serif" font-size="10.00">gko::solver::Cg</text>
<text text-anchor="middle" x="165" y="-35.4927" font-family="Helvetica,sans-Serif" font-size="10.00">gko::solver::Cgs</text>
<text text-anchor="middle" x="165" y="-24.4927" font-family="Helvetica,sans-Serif" font-size="10.00">gko::solver::Fcg</text>
<text text-anchor="middle" x="165" y="-13.4927" font-family="Helvetica,sans-Serif" font-size="10.00">gko::solver::Gmres</text>
</g>
</g>
</svg>
