<?xml version="1.0" encoding="UTF-8" standalone="no"?>
<!DOCTYPE svg PUBLIC "-//W3C//DTD SVG 1.1//EN"
 "http://www.w3.org/Graphics/SVG/1.1/DTD/svg11.dtd">
<!-- Generated by graphviz version 2.38.0 (20140413.2041)
 -->
<!-- Title: Executors Pages: 1 -->
<svg width="330pt" height="157pt"
 viewBox="0.00 0.00 330.00 157.43" xmlns="http://www.w3.org/2000/svg" xmlns:xlink="http://www.w3.org/1999/xlink">
<g id="graph0" class="graph" transform="scale(1 1) rotate(0) translate(4 153.435)">
<title>Executors</title>
<polygon fill="white" stroke="none" points="-4,4 -4,-153.435 326,-153.435 326,4 -4,4"/>
<!-- Node2 -->
<g id="node1" class="node"><title>Node2</title>
<g id="a_node1"><a xlink:href="group__exec__omp.html" target="_top" xlink:title="A module dedicated to the implementation and usage of the OpenMP executor in Ginkgo. ">
<polygon fill="white" stroke="black" points="217,-124.977 217,-143.977 318,-143.977 318,-124.977 217,-124.977"/>
<text text-anchor="middle" x="267.5" y="-131.977" font-family="Helvetica,sans-Serif" font-size="10.00">OpenMP Executor</text>
</a>
</g>
</g>
<!-- Node1 -->
<g id="node2" class="node"><title>Node1</title>
<g id="a_node2"><a xlink:href="group__exec__cuda.html" target="_top" xlink:title="A module dedicated to the implementation and usage of the CUDA executor in Ginkgo. ">
<polygon fill="white" stroke="black" points="222.5,-59.9772 222.5,-78.9772 312.5,-78.9772 312.5,-59.9772 222.5,-59.9772"/>
<text text-anchor="middle" x="267.5" y="-66.9772" font-family="Helvetica,sans-Serif" font-size="10.00">CUDA Executor</text>
</a>
</g>
</g>
<!-- Node0 -->
<g id="node3" class="node"><title>Node0</title>
<polygon fill="#bfbfbf" stroke="black" points="0,-65.9772 0,-84.9772 64,-84.9772 64,-65.9772 0,-65.9772"/>
<text text-anchor="middle" x="32" y="-72.9772" font-family="Helvetica,sans-Serif" font-size="10.00">Executors</text>
</g>
<!-- Node0&#45;&gt;Node2 -->
<g id="edge2" class="edge"><title>Node0&#45;&gt;Node2</title>
<path fill="none" stroke="black" d="M42.6666,-93.8148C51.034,-107.546 64.5362,-125.312 82,-133.477 126.831,-154.438 184.75,-150.463 223.631,-144.016"/>
<polygon fill="black" stroke="black" points="45.7027,-92.0733 37.7086,-85.1203 39.6219,-95.5409 45.7027,-92.0733"/>
</g>
<!-- Node0&#45;&gt;Node2 -->
<g id="edge4" class="edge"><title>Node0&#45;&gt;Node2</title>
<path fill="none" stroke="orange" stroke-dasharray="5,2" d="M64.0873,-83.7999C70.0298,-85.3696 76.2039,-86.9859 82,-88.4772 132.194,-101.392 190.215,-115.767 227.584,-124.954"/>
<text text-anchor="middle" x="138.5" y="-118.477" font-family="Helvetica,sans-Serif" font-size="10.00">gko::OmpExecutor</text>
</g>
<!-- Node0&#45;&gt;Node1 -->
<g id="edge1" class="edge"><title>Node0&#45;&gt;Node1</title>
<path fill="none" stroke="black" d="M74.1776,-75.9452C106.93,-76.1431 153.916,-76.0389 195,-74.4772 203.829,-74.1416 213.26,-73.6075 222.28,-73.0109"/>
<polygon fill="black" stroke="black" points="74.0946,-72.4446 64.0694,-75.8718 74.0437,-79.4444 74.0946,-72.4446"/>
</g>
<!-- Node0&#45;&gt;Node1 -->
<g id="edge6" class="edge"><title>Node0&#45;&gt;Node1</title>
<path fill="none" stroke="orange" stroke-dasharray="5,2" d="M61.2131,-65.9725C67.9473,-64.1079 75.1658,-62.4343 82,-61.4772 129.627,-54.8067 184.784,-58.6998 222.296,-63.0674"/>
<text text-anchor="middle" x="138.5" y="-64.4772" font-family="Helvetica,sans-Serif" font-size="10.00">gko::CudaExecutor</text>
</g>
<!-- Node3 -->
<g id="node4" class="node"><title>Node3</title>
<g id="a_node4"><a xlink:href="group__exec__ref.html" target="_top" xlink:title="A module dedicated to the implementation and usage of the Reference executor in Ginkgo. ">
<polygon fill="white" stroke="black" points="213,-11.9772 213,-30.9772 322,-30.9772 322,-11.9772 213,-11.9772"/>
<text text-anchor="middle" x="267.5" y="-18.9772" font-family="Helvetica,sans-Serif" font-size="10.00">Reference Executor</text>
</a>
</g>
</g>
<!-- Node0&#45;&gt;Node3 -->
<g id="edge3" class="edge"><title>Node0&#45;&gt;Node3</title>
<path fill="none" stroke="black" d="M61.0536,-61.4385C67.7905,-58.4738 75.0502,-55.6032 82,-53.4772 125.056,-40.3059 175.527,-32.0201 212.787,-27.1886"/>
<polygon fill="black" stroke="black" points="59.2691,-58.4072 51.6545,-65.7739 62.2011,-64.7636 59.2691,-58.4072"/>
</g>
<!-- Node0&#45;&gt;Node3 -->
<g id="edge5" class="edge"><title>Node0&#45;&gt;Node3</title>
<path fill="none" stroke="orange" stroke-dasharray="5,2" d="M37.3276,-65.8119C44.3455,-51.4872 59.7067,-25.1645 82,-14.4772 131.571,9.2871 197.527,-1.9306 235.668,-11.9252"/>
<text text-anchor="middle" x="138.5" y="-17.4772" font-family="Helvetica,sans-Serif" font-size="10.00">gko::ReferenceExecutor</text>
</g>
</g>
</svg>
