<?xml version="1.0" encoding="UTF-8" standalone="no"?>
<!DOCTYPE svg PUBLIC "-//W3C//DTD SVG 1.1//EN"
 "http://www.w3.org/Graphics/SVG/1.1/DTD/svg11.dtd">
<!-- Generated by graphviz version 2.38.0 (20140413.2041)
 -->
<!-- Title: Preconditioners Pages: 1 -->
<svg width="335pt" height="84pt"
 viewBox="0.00 0.00 335.00 84.00" xmlns="http://www.w3.org/2000/svg" xmlns:xlink="http://www.w3.org/1999/xlink">
<g id="graph0" class="graph" transform="scale(1 1) rotate(0) translate(4 80)">
<title>Preconditioners</title>
<polygon fill="white" stroke="none" points="-4,4 -4,-80 331,-80 331,4 -4,4"/>
<!-- Node0 -->
<g id="node1" class="node"><title>Node0</title>
<polygon fill="#bfbfbf" stroke="black" points="0,-0.5 0,-19.5 91,-19.5 91,-0.5 0,-0.5"/>
<text text-anchor="middle" x="45.5" y="-7.5" font-family="Helvetica,sans-Serif" font-size="10.00">Preconditioners</text>
</g>
<!-- Node1 -->
<g id="node2" class="node"><title>Node1</title>
<g id="a_node2"><a xlink:href="group__LinOp.html" target="_top" xlink:title="A module dedicated to the implementation and usage of the Linear operators in Ginkgo. ">
<polygon fill="white" stroke="black" points="230,-0.5 230,-19.5 327,-19.5 327,-0.5 230,-0.5"/>
<text text-anchor="middle" x="278.5" y="-7.5" font-family="Helvetica,sans-Serif" font-size="10.00">Linear Operators</text>
</a>
</g>
</g>
<!-- Node0&#45;&gt;Node1 -->
<g id="edge2" class="edge"><title>Node0&#45;&gt;Node1</title>
<path fill="none" stroke="orange" stroke-dasharray="5,2" d="M91.0391,-10C130.895,-10 189.157,-10 229.917,-10"/>
<text text-anchor="middle" x="160.5" y="-68" font-family="Helvetica,sans-Serif" font-size="10.00">gko::Preconditionable</text>
<text text-anchor="start" x="109" y="-57" font-family="Helvetica,sans-Serif" font-size="10.00">gko::preconditioner</text>
<text text-anchor="start" x="109" y="-46" font-family="Helvetica,sans-Serif" font-size="10.00">::block_interleaved</text>
<text text-anchor="middle" x="160.5" y="-35" font-family="Helvetica,sans-Serif" font-size="10.00">_storage_scheme</text>
<text text-anchor="start" x="109" y="-24" font-family="Helvetica,sans-Serif" font-size="10.00">gko::preconditioner</text>
<text text-anchor="middle" x="160.5" y="-13" font-family="Helvetica,sans-Serif" font-size="10.00">::Jacobi</text>
</g>
<!-- Node1&#45;&gt;Node0 -->
<g id="edge1" class="edge"><title>Node1&#45;&gt;Node0</title>
<path fill="none" stroke="black" d="M219.751,-8.13978C217.131,-8.08592 214.538,-8.03874 212,-8 166.228,-7.30135 154.772,-7.26784 109,-8 103.247,-8.09203 97.1971,-8.23167 91.22,-8.39527"/>
<polygon fill="black" stroke="black" points="219.845,-11.6428 229.924,-8.37685 220.008,-4.64472 219.845,-11.6428"/>
</g>
</g>
</svg>
