<?xml version="1.0" encoding="UTF-8" standalone="no"?>
<!DOCTYPE svg PUBLIC "-//W3C//DTD SVG 1.1//EN"
 "http://www.w3.org/Graphics/SVG/1.1/DTD/svg11.dtd">
<!-- Generated by graphviz version 2.38.0 (20140413.2041)
 -->
<!-- Title: CUDA Executor Pages: 1 -->
<svg width="289pt" height="29pt"
 viewBox="0.00 0.00 289.00 29.00" xmlns="http://www.w3.org/2000/svg" xmlns:xlink="http://www.w3.org/1999/xlink">
<g id="graph0" class="graph" transform="scale(1 1) rotate(0) translate(4 25)">
<title>CUDA Executor</title>
<polygon fill="white" stroke="none" points="-4,4 -4,-25 285,-25 285,4 -4,4"/>
<!-- Node0 -->
<g id="node1" class="node"><title>Node0</title>
<polygon fill="#bfbfbf" stroke="black" points="0,-0.5 0,-19.5 90,-19.5 90,-0.5 0,-0.5"/>
<text text-anchor="middle" x="45" y="-7.5" font-family="Helvetica,sans-Serif" font-size="10.00">CUDA Executor</text>
</g>
<!-- Node1 -->
<g id="node2" class="node"><title>Node1</title>
<g id="a_node2"><a xlink:href="group__Executor.html" target="_top" xlink:title="A module dedicated to the implementation and usage of the executors in Ginkgo. ">
<polygon fill="white" stroke="black" points="217,-0.5 217,-19.5 281,-19.5 281,-0.5 217,-0.5"/>
<text text-anchor="middle" x="249" y="-7.5" font-family="Helvetica,sans-Serif" font-size="10.00">Executors</text>
</a>
</g>
</g>
<!-- Node0&#45;&gt;Node1 -->
<g id="edge2" class="edge"><title>Node0&#45;&gt;Node1</title>
<path fill="none" stroke="orange" stroke-dasharray="5,2" d="M90.3298,-10C128.655,-10 183.076,-10 216.923,-10"/>
<text text-anchor="middle" x="153.5" y="-13" font-family="Helvetica,sans-Serif" font-size="10.00">gko::CudaExecutor</text>
</g>
<!-- Node1&#45;&gt;Node0 -->
<g id="edge1" class="edge"><title>Node1&#45;&gt;Node0</title>
<path fill="none" stroke="black" d="M206.765,-8.1958C204.138,-8.11832 201.532,-8.05166 199,-8 158.564,-7.17512 148.439,-7.34792 108,-8 102.185,-8.09376 96.0649,-8.23696 90.0266,-8.40456"/>
<polygon fill="black" stroke="black" points="206.787,-11.6985 216.9,-8.53942 207.025,-4.70248 206.787,-11.6985"/>
</g>
</g>
</svg>
