<?xml version="1.0" encoding="UTF-8" standalone="no"?>
<!DOCTYPE svg PUBLIC "-//W3C//DTD SVG 1.1//EN"
 "http://www.w3.org/Graphics/SVG/1.1/DTD/svg11.dtd">
<!-- Generated by graphviz version 2.38.0 (20140413.2041)
 -->
<!-- Title: Graphical Class Hierarchy Pages: 1 -->
<svg width="248pt" height="110pt"
 viewBox="0.00 0.00 248.00 110.00" xmlns="http://www.w3.org/2000/svg" xmlns:xlink="http://www.w3.org/1999/xlink">
<g id="graph0" class="graph" transform="scale(1 1) rotate(0) translate(4 106)">
<title>Graphical Class Hierarchy</title>
<polygon fill="white" stroke="none" points="-4,4 -4,-106 244,-106 244,4 -4,4"/>
<!-- Node1 -->
<g id="node1" class="node"><title>Node1</title>
<polygon fill="white" stroke="#bfbfbf" points="0,-41.5 0,-60.5 65,-60.5 65,-41.5 0,-41.5"/>
<text text-anchor="middle" x="32.5" y="-48.5" font-family="Helvetica,sans-Serif" font-size="10.00">false_type</text>
</g>
<!-- Node2 -->
<g id="node2" class="node"><title>Node2</title>
<g id="a_node2"><a xlink:href="structgko_1_1kernels_1_1cuda_1_1cublas_1_1is__supported.html" target="_top" xlink:title="gko::kernels::cuda\l::cublas::is_supported\l\&lt; ValueType \&gt;">
<polygon fill="white" stroke="black" points="110,-60.5 110,-101.5 231,-101.5 231,-60.5 110,-60.5"/>
<text text-anchor="start" x="118" y="-89.5" font-family="Helvetica,sans-Serif" font-size="10.00">gko::kernels::cuda</text>
<text text-anchor="start" x="118" y="-78.5" font-family="Helvetica,sans-Serif" font-size="10.00">::cublas::is_supported</text>
<text text-anchor="middle" x="170.5" y="-67.5" font-family="Helvetica,sans-Serif" font-size="10.00">&lt; ValueType &gt;</text>
</a>
</g>
</g>
<!-- Node1&#45;&gt;Node2 -->
<g id="edge1" class="edge"><title>Node1&#45;&gt;Node2</title>
<path fill="none" stroke="midnightblue" d="M74.8187,-60.1144C85.8495,-62.5477 97.9936,-65.2265 109.799,-67.8307"/>
<polygon fill="midnightblue" stroke="midnightblue" points="75.5622,-56.6943 65.043,-57.958 74.0542,-63.53 75.5622,-56.6943"/>
</g>
<!-- Node3 -->
<g id="node3" class="node"><title>Node3</title>
<g id="a_node3"><a xlink:href="structgko_1_1kernels_1_1cuda_1_1cusparse_1_1is__supported.html" target="_top" xlink:title="gko::kernels::cuda\l::cusparse::is_supported\l\&lt; ValueType, IndexType \&gt;">
<polygon fill="white" stroke="black" points="101,-0.5 101,-41.5 240,-41.5 240,-0.5 101,-0.5"/>
<text text-anchor="start" x="109" y="-29.5" font-family="Helvetica,sans-Serif" font-size="10.00">gko::kernels::cuda</text>
<text text-anchor="start" x="109" y="-18.5" font-family="Helvetica,sans-Serif" font-size="10.00">::cusparse::is_supported</text>
<text text-anchor="middle" x="170.5" y="-7.5" font-family="Helvetica,sans-Serif" font-size="10.00">&lt; ValueType, IndexType &gt;</text>
</a>
</g>
</g>
<!-- Node1&#45;&gt;Node3 -->
<g id="edge2" class="edge"><title>Node1&#45;&gt;Node3</title>
<path fill="none" stroke="midnightblue" d="M75.0294,-41.8391C83.2037,-40.036 91.9827,-38.0994 100.778,-36.1593"/>
<polygon fill="midnightblue" stroke="midnightblue" points="74.0542,-38.47 65.043,-44.042 75.5622,-45.3057 74.0542,-38.47"/>
</g>
</g>
</svg>
