<?xml version="1.0" encoding="UTF-8" standalone="no"?>
<!DOCTYPE svg PUBLIC "-//W3C//DTD SVG 1.1//EN"
 "http://www.w3.org/Graphics/SVG/1.1/DTD/svg11.dtd">
<!-- Generated by graphviz version 2.40.1 (20161225.0304)
 -->
<!-- Title: Graphical Class Hierarchy Pages: 1 -->
<svg width="1047pt" height="558pt"
 viewBox="0.00 0.00 1047.00 557.50" xmlns="http://www.w3.org/2000/svg" xmlns:xlink="http://www.w3.org/1999/xlink">
<g id="graph0" class="graph" transform="scale(1 1) rotate(0) translate(4 553.5)">
<title>Graphical Class Hierarchy</title>
<polygon fill="#ffffff" stroke="transparent" points="-4,4 -4,-553.5 1043,-553.5 1043,4 -4,4"/>
<!-- Node315 -->
<g id="node1" class="node">
<title>Node315</title>
<g id="a_node1"><a xlink:href="classgko_1_1ConvertibleTo.html" target="_top" xlink:title="gko::ConvertibleTo\l\&lt; ConcreteFactory \&gt;">
<polygon fill="#ffffff" stroke="#000000" points="178.5,-290.5 178.5,-320.5 296.5,-320.5 296.5,-290.5 178.5,-290.5"/>
<text text-anchor="start" x="186.5" y="-308.5" font-family="Helvetica,sans-Serif" font-size="10.00" fill="#000000">gko::ConvertibleTo</text>
<text text-anchor="middle" x="237.5" y="-297.5" font-family="Helvetica,sans-Serif" font-size="10.00" fill="#000000">&lt; ConcreteFactory &gt;</text>
</a>
</g>
</g>
<!-- Node316 -->
<g id="node2" class="node">
<title>Node316</title>
<g id="a_node2"><a xlink:href="classgko_1_1EnablePolymorphicAssignment.html" target="_top" xlink:title="gko::EnablePolymorphicAssignment\l\&lt; ConcreteFactory \&gt;">
<polygon fill="#ffffff" stroke="#000000" points="382.5,-288.5 382.5,-318.5 574.5,-318.5 574.5,-288.5 382.5,-288.5"/>
<text text-anchor="start" x="390.5" y="-306.5" font-family="Helvetica,sans-Serif" font-size="10.00" fill="#000000">gko::EnablePolymorphicAssignment</text>
<text text-anchor="middle" x="478.5" y="-295.5" font-family="Helvetica,sans-Serif" font-size="10.00" fill="#000000">&lt; ConcreteFactory &gt;</text>
</a>
</g>
</g>
<!-- Node315&#45;&gt;Node316 -->
<g id="edge1" class="edge">
<title>Node315&#45;&gt;Node316</title>
<path fill="none" stroke="#191970" d="M306.9738,-304.9235C330.4758,-304.7284 357.1541,-304.507 382.3502,-304.2979"/>
<polygon fill="#191970" stroke="#191970" points="306.7345,-301.4252 296.7639,-305.0082 306.7926,-308.425 306.7345,-301.4252"/>
</g>
<!-- Node2 -->
<g id="node3" class="node">
<title>Node2</title>
<g id="a_node3"><a xlink:href="classgko_1_1EnableDefaultFactory.html" target="_top" xlink:title="This mixin provides a default implementation of a concrete factory. ">
<polygon fill="#ffffff" stroke="#000000" points="619,-257 619,-298 819,-298 819,-257 619,-257"/>
<text text-anchor="start" x="627" y="-286" font-family="Helvetica,sans-Serif" font-size="10.00" fill="#000000">gko::EnableDefaultFactory</text>
<text text-anchor="start" x="627" y="-275" font-family="Helvetica,sans-Serif" font-size="10.00" fill="#000000">&lt; ConcreteFactory, ProductType,</text>
<text text-anchor="middle" x="719" y="-264" font-family="Helvetica,sans-Serif" font-size="10.00" fill="#000000"> ParametersType, PolymorphicBase &gt;</text>
</a>
</g>
</g>
<!-- Node316&#45;&gt;Node2 -->
<g id="edge2" class="edge">
<title>Node316&#45;&gt;Node2</title>
<path fill="none" stroke="#191970" d="M584.8695,-292.0006C596.127,-290.7836 607.5489,-289.5488 618.7336,-288.3396"/>
<polygon fill="#191970" stroke="#191970" points="584.1547,-288.5574 574.5888,-293.112 584.9071,-295.5168 584.1547,-288.5574"/>
</g>
<!-- Node3 -->
<g id="node4" class="node">
<title>Node3</title>
<g id="a_node4"><a xlink:href="classgko_1_1preconditioner_1_1Jacobi_1_1Factory.html" target="_top" xlink:title="gko::preconditioner\l::Jacobi\&lt; ValueType,\l IndexType \&gt;::Factory">
<polygon fill="#ffffff" stroke="#000000" points="886,-508 886,-549 1008,-549 1008,-508 886,-508"/>
<text text-anchor="start" x="894" y="-537" font-family="Helvetica,sans-Serif" font-size="10.00" fill="#000000">gko::preconditioner</text>
<text text-anchor="start" x="894" y="-526" font-family="Helvetica,sans-Serif" font-size="10.00" fill="#000000">::Jacobi&lt; ValueType,</text>
<text text-anchor="middle" x="947" y="-515" font-family="Helvetica,sans-Serif" font-size="10.00" fill="#000000"> IndexType &gt;::Factory</text>
</a>
</g>
</g>
<!-- Node2&#45;&gt;Node3 -->
<g id="edge3" class="edge">
<title>Node2&#45;&gt;Node3</title>
<path fill="none" stroke="#191970" d="M729.6544,-307.6415C747.9382,-355.0953 789.7448,-447.1004 855,-498.5 863.9743,-505.5688 874.6723,-510.999 885.5449,-515.1624"/>
<polygon fill="#191970" stroke="#191970" points="732.9076,-306.3488 726.1099,-298.2222 726.3561,-308.8142 732.9076,-306.3488"/>
</g>
<!-- Node4 -->
<g id="node5" class="node">
<title>Node4</title>
<g id="a_node5"><a xlink:href="classgko_1_1solver_1_1Bicgstab_1_1Factory.html" target="_top" xlink:title="gko::solver::Bicgstab\l\&lt; ValueType \&gt;::Factory">
<polygon fill="#ffffff" stroke="#000000" points="882,-458.5 882,-488.5 1012,-488.5 1012,-458.5 882,-458.5"/>
<text text-anchor="start" x="890" y="-476.5" font-family="Helvetica,sans-Serif" font-size="10.00" fill="#000000">gko::solver::Bicgstab</text>
<text text-anchor="middle" x="947" y="-465.5" font-family="Helvetica,sans-Serif" font-size="10.00" fill="#000000">&lt; ValueType &gt;::Factory</text>
</a>
</g>
</g>
<!-- Node2&#45;&gt;Node4 -->
<g id="edge4" class="edge">
<title>Node2&#45;&gt;Node4</title>
<path fill="none" stroke="#191970" d="M734.4192,-307.2185C756.0719,-345.9555 799.1701,-413.0441 855,-449.5 863.1545,-454.8247 872.4369,-458.9698 881.8942,-462.1963"/>
<polygon fill="#191970" stroke="#191970" points="737.2538,-305.1077 729.3816,-298.0169 731.1137,-308.4692 737.2538,-305.1077"/>
</g>
<!-- Node5 -->
<g id="node6" class="node">
<title>Node5</title>
<g id="a_node6"><a xlink:href="classgko_1_1solver_1_1Cg_1_1Factory.html" target="_top" xlink:title="gko::solver::Cg\&lt; ValueType\l \&gt;::Factory">
<polygon fill="#ffffff" stroke="#000000" points="872,-409.5 872,-439.5 1022,-439.5 1022,-409.5 872,-409.5"/>
<text text-anchor="start" x="880" y="-427.5" font-family="Helvetica,sans-Serif" font-size="10.00" fill="#000000">gko::solver::Cg&lt; ValueType</text>
<text text-anchor="middle" x="947" y="-416.5" font-family="Helvetica,sans-Serif" font-size="10.00" fill="#000000"> &gt;::Factory</text>
</a>
</g>
</g>
<!-- Node2&#45;&gt;Node5 -->
<g id="edge5" class="edge">
<title>Node2&#45;&gt;Node5</title>
<path fill="none" stroke="#191970" d="M742.713,-305.7464C767.8036,-333.8387 809.9376,-376.1616 855,-400.5 861.3904,-403.9515 868.302,-406.9256 875.3666,-409.4843"/>
<polygon fill="#191970" stroke="#191970" points="745.3322,-303.4247 736.0999,-298.2271 740.0759,-308.0476 745.3322,-303.4247"/>
</g>
<!-- Node6 -->
<g id="node7" class="node">
<title>Node6</title>
<g id="a_node7"><a xlink:href="classgko_1_1solver_1_1Cgs_1_1Factory.html" target="_top" xlink:title="gko::solver::Cgs\&lt; ValueType\l \&gt;::Factory">
<polygon fill="#ffffff" stroke="#000000" points="869.5,-360.5 869.5,-390.5 1024.5,-390.5 1024.5,-360.5 869.5,-360.5"/>
<text text-anchor="start" x="877.5" y="-378.5" font-family="Helvetica,sans-Serif" font-size="10.00" fill="#000000">gko::solver::Cgs&lt; ValueType</text>
<text text-anchor="middle" x="947" y="-367.5" font-family="Helvetica,sans-Serif" font-size="10.00" fill="#000000"> &gt;::Factory</text>
</a>
</g>
</g>
<!-- Node2&#45;&gt;Node6 -->
<g id="edge6" class="edge">
<title>Node2&#45;&gt;Node6</title>
<path fill="none" stroke="#191970" d="M760.0137,-303.2354C786.364,-318.8968 821.7647,-338.3505 855,-351.5 863.2885,-354.7793 872.1738,-357.7431 881.0353,-360.3784"/>
<polygon fill="#191970" stroke="#191970" points="761.815,-300.2345 751.4407,-298.084 758.2096,-306.2346 761.815,-300.2345"/>
</g>
<!-- Node7 -->
<g id="node8" class="node">
<title>Node7</title>
<g id="a_node8"><a xlink:href="classgko_1_1solver_1_1Fcg_1_1Factory.html" target="_top" xlink:title="gko::solver::Fcg\&lt; ValueType\l \&gt;::Factory">
<polygon fill="#ffffff" stroke="#000000" points="870,-311.5 870,-341.5 1024,-341.5 1024,-311.5 870,-311.5"/>
<text text-anchor="start" x="878" y="-329.5" font-family="Helvetica,sans-Serif" font-size="10.00" fill="#000000">gko::solver::Fcg&lt; ValueType</text>
<text text-anchor="middle" x="947" y="-318.5" font-family="Helvetica,sans-Serif" font-size="10.00" fill="#000000"> &gt;::Factory</text>
</a>
</g>
</g>
<!-- Node2&#45;&gt;Node7 -->
<g id="edge7" class="edge">
<title>Node2&#45;&gt;Node7</title>
<path fill="none" stroke="#191970" d="M824.5777,-300.1899C842.4263,-304.0258 860.5517,-307.9212 877.1911,-311.4972"/>
<polygon fill="#191970" stroke="#191970" points="825.2137,-296.7468 814.7015,-298.0674 823.7429,-303.5905 825.2137,-296.7468"/>
</g>
<!-- Node8 -->
<g id="node9" class="node">
<title>Node8</title>
<g id="a_node9"><a xlink:href="classgko_1_1solver_1_1Gmres_1_1Factory.html" target="_top" xlink:title="gko::solver::Gmres\l\&lt; ValueType \&gt;::Factory">
<polygon fill="#ffffff" stroke="#000000" points="882,-262.5 882,-292.5 1012,-292.5 1012,-262.5 882,-262.5"/>
<text text-anchor="start" x="890" y="-280.5" font-family="Helvetica,sans-Serif" font-size="10.00" fill="#000000">gko::solver::Gmres</text>
<text text-anchor="middle" x="947" y="-269.5" font-family="Helvetica,sans-Serif" font-size="10.00" fill="#000000">&lt; ValueType &gt;::Factory</text>
</a>
</g>
</g>
<!-- Node2&#45;&gt;Node8 -->
<g id="edge8" class="edge">
<title>Node2&#45;&gt;Node8</title>
<path fill="none" stroke="#191970" d="M829.0243,-277.5C847.1062,-277.5 865.3216,-277.5 881.8479,-277.5"/>
<polygon fill="#191970" stroke="#191970" points="829.0042,-274.0001 819.0041,-277.5 829.0041,-281.0001 829.0042,-274.0001"/>
</g>
<!-- Node9 -->
<g id="node10" class="node">
<title>Node9</title>
<g id="a_node10"><a xlink:href="classgko_1_1solver_1_1Ir_1_1Factory.html" target="_top" xlink:title="gko::solver::Ir\&lt; ValueType\l \&gt;::Factory">
<polygon fill="#ffffff" stroke="#000000" points="875,-213.5 875,-243.5 1019,-243.5 1019,-213.5 875,-213.5"/>
<text text-anchor="start" x="883" y="-231.5" font-family="Helvetica,sans-Serif" font-size="10.00" fill="#000000">gko::solver::Ir&lt; ValueType</text>
<text text-anchor="middle" x="947" y="-220.5" font-family="Helvetica,sans-Serif" font-size="10.00" fill="#000000"> &gt;::Factory</text>
</a>
</g>
</g>
<!-- Node2&#45;&gt;Node9 -->
<g id="edge9" class="edge">
<title>Node2&#45;&gt;Node9</title>
<path fill="none" stroke="#191970" d="M824.5777,-254.8101C842.4263,-250.9742 860.5517,-247.0788 877.1911,-243.5028"/>
<polygon fill="#191970" stroke="#191970" points="823.7429,-251.4095 814.7015,-256.9326 825.2137,-258.2532 823.7429,-251.4095"/>
</g>
<!-- Node10 -->
<g id="node11" class="node">
<title>Node10</title>
<g id="a_node11"><a xlink:href="classgko_1_1stop_1_1Combined_1_1Factory.html" target="_top" xlink:title="gko::stop::Combined\l::Factory">
<polygon fill="#ffffff" stroke="#000000" points="888.5,-164.5 888.5,-194.5 1005.5,-194.5 1005.5,-164.5 888.5,-164.5"/>
<text text-anchor="start" x="896.5" y="-182.5" font-family="Helvetica,sans-Serif" font-size="10.00" fill="#000000">gko::stop::Combined</text>
<text text-anchor="middle" x="947" y="-171.5" font-family="Helvetica,sans-Serif" font-size="10.00" fill="#000000">::Factory</text>
</a>
</g>
</g>
<!-- Node2&#45;&gt;Node10 -->
<g id="edge10" class="edge">
<title>Node2&#45;&gt;Node10</title>
<path fill="none" stroke="#191970" d="M760.0137,-251.7646C786.364,-236.1032 821.7647,-216.6495 855,-203.5 865.5909,-199.3097 877.1561,-195.6348 888.4011,-192.5017"/>
<polygon fill="#191970" stroke="#191970" points="758.2096,-248.7654 751.4407,-256.916 761.815,-254.7655 758.2096,-248.7654"/>
</g>
<!-- Node11 -->
<g id="node12" class="node">
<title>Node11</title>
<g id="a_node12"><a xlink:href="classgko_1_1stop_1_1Iteration_1_1Factory.html" target="_top" xlink:title="gko::stop::Iteration\l::Factory">
<polygon fill="#ffffff" stroke="#000000" points="892.5,-115.5 892.5,-145.5 1001.5,-145.5 1001.5,-115.5 892.5,-115.5"/>
<text text-anchor="start" x="900.5" y="-133.5" font-family="Helvetica,sans-Serif" font-size="10.00" fill="#000000">gko::stop::Iteration</text>
<text text-anchor="middle" x="947" y="-122.5" font-family="Helvetica,sans-Serif" font-size="10.00" fill="#000000">::Factory</text>
</a>
</g>
</g>
<!-- Node2&#45;&gt;Node11 -->
<g id="edge11" class="edge">
<title>Node2&#45;&gt;Node11</title>
<path fill="none" stroke="#191970" d="M742.713,-249.2536C767.8036,-221.1613 809.9376,-178.8384 855,-154.5 866.4738,-148.303 879.6272,-143.6451 892.3311,-140.1667"/>
<polygon fill="#191970" stroke="#191970" points="740.0759,-246.9524 736.0999,-256.7729 745.3322,-251.5753 740.0759,-246.9524"/>
</g>
<!-- Node12 -->
<g id="node13" class="node">
<title>Node12</title>
<g id="a_node13"><a xlink:href="classgko_1_1stop_1_1ResidualNormReduction_1_1Factory.html" target="_top" xlink:title="gko::stop::ResidualNormReduction\l\&lt; ValueType \&gt;::Factory">
<polygon fill="#ffffff" stroke="#000000" points="855,-66.5 855,-96.5 1039,-96.5 1039,-66.5 855,-66.5"/>
<text text-anchor="start" x="863" y="-84.5" font-family="Helvetica,sans-Serif" font-size="10.00" fill="#000000">gko::stop::ResidualNormReduction</text>
<text text-anchor="middle" x="947" y="-73.5" font-family="Helvetica,sans-Serif" font-size="10.00" fill="#000000">&lt; ValueType &gt;::Factory</text>
</a>
</g>
</g>
<!-- Node2&#45;&gt;Node12 -->
<g id="edge12" class="edge">
<title>Node2&#45;&gt;Node12</title>
<path fill="none" stroke="#191970" d="M740.1386,-248.7731C774.4917,-202.3996 840.1092,-115.2234 855,-105.5 860.252,-102.0705 865.972,-99.1304 871.9052,-96.6098"/>
<polygon fill="#191970" stroke="#191970" points="737.2388,-246.8079 734.1072,-256.9293 742.8671,-250.9699 737.2388,-246.8079"/>
</g>
<!-- Node13 -->
<g id="node14" class="node">
<title>Node13</title>
<g id="a_node14"><a xlink:href="classgko_1_1stop_1_1Time_1_1Factory.html" target="_top" xlink:title="gko::stop::Time::Factory">
<polygon fill="#ffffff" stroke="#000000" points="880,-28 880,-47 1014,-47 1014,-28 880,-28"/>
<text text-anchor="middle" x="947" y="-35" font-family="Helvetica,sans-Serif" font-size="10.00" fill="#000000">gko::stop::Time::Factory</text>
</a>
</g>
</g>
<!-- Node2&#45;&gt;Node13 -->
<g id="edge13" class="edge">
<title>Node2&#45;&gt;Node13</title>
<path fill="none" stroke="#191970" d="M742.9368,-249.1169C764.6269,-222.4932 796.539,-180.9736 819,-141.5 839.2898,-105.8421 823.2782,-82.5171 855,-56.5 862.1879,-50.6047 870.736,-46.3927 879.6821,-43.4067"/>
<polygon fill="#191970" stroke="#191970" points="740.2003,-246.9343 736.5554,-256.8824 745.6085,-251.3786 740.2003,-246.9343"/>
</g>
<!-- Node313 -->
<g id="node15" class="node">
<title>Node313</title>
<g id="a_node15"><a xlink:href="classgko_1_1ConvertibleTo.html" target="_top" xlink:title="gko::ConvertibleTo\l\&lt; ConcreteLinOp \&gt;">
<polygon fill="#ffffff" stroke="#000000" points="182.5,-.5 182.5,-30.5 292.5,-30.5 292.5,-.5 182.5,-.5"/>
<text text-anchor="start" x="190.5" y="-18.5" font-family="Helvetica,sans-Serif" font-size="10.00" fill="#000000">gko::ConvertibleTo</text>
<text text-anchor="middle" x="237.5" y="-7.5" font-family="Helvetica,sans-Serif" font-size="10.00" fill="#000000">&lt; ConcreteLinOp &gt;</text>
</a>
</g>
</g>
<!-- Node314 -->
<g id="node16" class="node">
<title>Node314</title>
<g id="a_node16"><a xlink:href="classgko_1_1EnablePolymorphicAssignment.html" target="_top" xlink:title="gko::EnablePolymorphicAssignment\l\&lt; ConcreteLinOp \&gt;">
<polygon fill="#ffffff" stroke="#000000" points="382.5,-33.5 382.5,-63.5 574.5,-63.5 574.5,-33.5 382.5,-33.5"/>
<text text-anchor="start" x="390.5" y="-51.5" font-family="Helvetica,sans-Serif" font-size="10.00" fill="#000000">gko::EnablePolymorphicAssignment</text>
<text text-anchor="middle" x="478.5" y="-40.5" font-family="Helvetica,sans-Serif" font-size="10.00" fill="#000000">&lt; ConcreteLinOp &gt;</text>
</a>
</g>
</g>
<!-- Node313&#45;&gt;Node314 -->
<g id="edge14" class="edge">
<title>Node313&#45;&gt;Node314</title>
<path fill="none" stroke="#191970" d="M303.011,-24.4704C327.4452,-27.8161 355.7195,-31.6877 382.34,-35.3329"/>
<polygon fill="#191970" stroke="#191970" points="303.1727,-20.9599 292.7903,-23.0709 302.223,-27.8952 303.1727,-20.9599"/>
</g>
<!-- Node63 -->
<g id="node17" class="node">
<title>Node63</title>
<g id="a_node17"><a xlink:href="classgko_1_1EnableLinOp.html" target="_top" xlink:title="The EnableLinOp mixin can be used to provide sensible default implementations of the majority of the ...">
<polygon fill="#ffffff" stroke="#000000" points="641,-102.5 641,-132.5 797,-132.5 797,-102.5 641,-102.5"/>
<text text-anchor="start" x="649" y="-120.5" font-family="Helvetica,sans-Serif" font-size="10.00" fill="#000000">gko::EnableLinOp&lt; Concrete</text>
<text text-anchor="middle" x="719" y="-109.5" font-family="Helvetica,sans-Serif" font-size="10.00" fill="#000000">LinOp, PolymorphicBase &gt;</text>
</a>
</g>
</g>
<!-- Node314&#45;&gt;Node63 -->
<g id="edge15" class="edge">
<title>Node314&#45;&gt;Node63</title>
<path fill="none" stroke="#191970" d="M540.6687,-66.3363C579.7402,-77.5461 629.5785,-91.8448 666.6303,-102.475"/>
<polygon fill="#191970" stroke="#191970" points="541.559,-62.9506 530.9816,-63.5571 539.6285,-69.6792 541.559,-62.9506"/>
</g>
<!-- Node46 -->
<g id="node18" class="node">
<title>Node46</title>
<polygon fill="#ffffff" stroke="#bfbfbf" points="0,-151 0,-170 101,-170 101,-151 0,-151"/>
<text text-anchor="middle" x="50.5" y="-158" font-family="Helvetica,sans-Serif" font-size="10.00" fill="#000000">PolymorphicBase</text>
</g>
<!-- Node0 -->
<g id="node19" class="node">
<title>Node0</title>
<g id="a_node19"><a xlink:href="classgko_1_1EnableAbstractPolymorphicObject.html" target="_top" xlink:title="gko::EnableAbstractPolymorphic\lObject\&lt; ConcreteFactory,\l PolymorphicBase \&gt;">
<polygon fill="#ffffff" stroke="#000000" points="150,-230 150,-271 325,-271 325,-230 150,-230"/>
<text text-anchor="start" x="158" y="-259" font-family="Helvetica,sans-Serif" font-size="10.00" fill="#000000">gko::EnableAbstractPolymorphic</text>
<text text-anchor="start" x="158" y="-248" font-family="Helvetica,sans-Serif" font-size="10.00" fill="#000000">Object&lt; ConcreteFactory,</text>
<text text-anchor="middle" x="237.5" y="-237" font-family="Helvetica,sans-Serif" font-size="10.00" fill="#000000"> PolymorphicBase &gt;</text>
</a>
</g>
</g>
<!-- Node46&#45;&gt;Node0 -->
<g id="edge16" class="edge">
<title>Node46&#45;&gt;Node0</title>
<path fill="none" stroke="#191970" d="M69.7579,-176.5372C86.5963,-189.8812 112.1743,-208.5608 137,-220.5 144.2203,-223.9724 151.9274,-227.1373 159.7408,-229.998"/>
<polygon fill="#191970" stroke="#191970" points="71.7781,-173.6699 61.7994,-170.1095 67.3798,-179.1156 71.7781,-173.6699"/>
</g>
<!-- Node61 -->
<g id="node21" class="node">
<title>Node61</title>
<g id="a_node21"><a xlink:href="classgko_1_1EnableAbstractPolymorphicObject.html" target="_top" xlink:title="gko::EnableAbstractPolymorphic\lObject\&lt; ConcreteLinOp, Polymorphic\lBase \&gt;">
<polygon fill="#ffffff" stroke="#000000" points="139,-170 139,-211 336,-211 336,-170 139,-170"/>
<text text-anchor="start" x="147" y="-199" font-family="Helvetica,sans-Serif" font-size="10.00" fill="#000000">gko::EnableAbstractPolymorphic</text>
<text text-anchor="start" x="147" y="-188" font-family="Helvetica,sans-Serif" font-size="10.00" fill="#000000">Object&lt; ConcreteLinOp, Polymorphic</text>
<text text-anchor="middle" x="237.5" y="-177" font-family="Helvetica,sans-Serif" font-size="10.00" fill="#000000">Base &gt;</text>
</a>
</g>
</g>
<!-- Node46&#45;&gt;Node61 -->
<g id="edge19" class="edge">
<title>Node46&#45;&gt;Node61</title>
<path fill="none" stroke="#191970" d="M111.016,-170.2084C119.9879,-171.6478 129.4246,-173.1617 138.9314,-174.6869"/>
<polygon fill="#191970" stroke="#191970" points="111.5331,-166.7467 101.1049,-168.6184 110.4242,-173.6584 111.5331,-166.7467"/>
</g>
<!-- Node64 -->
<g id="node23" class="node">
<title>Node64</title>
<g id="a_node23"><a xlink:href="classgko_1_1EnableAbstractPolymorphicObject.html" target="_top" xlink:title="gko::EnableAbstractPolymorphic\lObject\&lt; ConcreteObject, Polymorphic\lBase \&gt;">
<polygon fill="#ffffff" stroke="#000000" points="137,-110 137,-151 338,-151 338,-110 137,-110"/>
<text text-anchor="start" x="145" y="-139" font-family="Helvetica,sans-Serif" font-size="10.00" fill="#000000">gko::EnableAbstractPolymorphic</text>
<text text-anchor="start" x="145" y="-128" font-family="Helvetica,sans-Serif" font-size="10.00" fill="#000000">Object&lt; ConcreteObject, Polymorphic</text>
<text text-anchor="middle" x="237.5" y="-117" font-family="Helvetica,sans-Serif" font-size="10.00" fill="#000000">Base &gt;</text>
</a>
</g>
</g>
<!-- Node46&#45;&gt;Node64 -->
<g id="edge22" class="edge">
<title>Node46&#45;&gt;Node64</title>
<path fill="none" stroke="#191970" d="M111.0054,-150.7933C119.3008,-149.4624 127.9936,-148.0679 136.772,-146.6596"/>
<polygon fill="#191970" stroke="#191970" points="110.4242,-147.3416 101.1049,-152.3816 111.5331,-154.2533 110.4242,-147.3416"/>
</g>
<!-- Node66 -->
<g id="node25" class="node">
<title>Node66</title>
<g id="a_node25"><a xlink:href="classgko_1_1EnableAbstractPolymorphicObject.html" target="_top" xlink:title="This mixin inherits from (a subclass of) PolymorphicObject and provides a base implementation of a ne...">
<polygon fill="#ffffff" stroke="#000000" points="140.5,-50 140.5,-91 334.5,-91 334.5,-50 140.5,-50"/>
<text text-anchor="start" x="148.5" y="-79" font-family="Helvetica,sans-Serif" font-size="10.00" fill="#000000">gko::EnableAbstractPolymorphic</text>
<text text-anchor="start" x="148.5" y="-68" font-family="Helvetica,sans-Serif" font-size="10.00" fill="#000000">Object&lt; AbstactObject, Polymorphic</text>
<text text-anchor="middle" x="237.5" y="-57" font-family="Helvetica,sans-Serif" font-size="10.00" fill="#000000">Base &gt;</text>
</a>
</g>
</g>
<!-- Node46&#45;&gt;Node66 -->
<g id="edge24" class="edge">
<title>Node46&#45;&gt;Node66</title>
<path fill="none" stroke="#191970" d="M69.7579,-144.4628C86.5963,-131.1188 112.1743,-112.4392 137,-100.5 144.2203,-97.0276 151.9274,-93.8627 159.7408,-91.002"/>
<polygon fill="#191970" stroke="#191970" points="67.3798,-141.8844 61.7994,-150.8905 71.7781,-147.3301 67.3798,-141.8844"/>
</g>
<!-- Node1 -->
<g id="node20" class="node">
<title>Node1</title>
<g id="a_node20"><a xlink:href="classgko_1_1EnablePolymorphicObject.html" target="_top" xlink:title="gko::EnablePolymorphicObject\l\&lt; ConcreteFactory, PolymorphicBase \&gt;">
<polygon fill="#ffffff" stroke="#000000" points="374,-236.5 374,-266.5 583,-266.5 583,-236.5 374,-236.5"/>
<text text-anchor="start" x="382" y="-254.5" font-family="Helvetica,sans-Serif" font-size="10.00" fill="#000000">gko::EnablePolymorphicObject</text>
<text text-anchor="middle" x="478.5" y="-243.5" font-family="Helvetica,sans-Serif" font-size="10.00" fill="#000000">&lt; ConcreteFactory, PolymorphicBase &gt;</text>
</a>
</g>
</g>
<!-- Node0&#45;&gt;Node1 -->
<g id="edge17" class="edge">
<title>Node0&#45;&gt;Node1</title>
<path fill="none" stroke="#191970" d="M335.2497,-250.9056C347.9022,-250.9581 360.902,-251.012 373.6633,-251.065"/>
<polygon fill="#191970" stroke="#191970" points="335.2027,-247.4055 325.1883,-250.8639 335.1736,-254.4054 335.2027,-247.4055"/>
</g>
<!-- Node1&#45;&gt;Node2 -->
<g id="edge18" class="edge">
<title>Node1&#45;&gt;Node2</title>
<path fill="none" stroke="#191970" d="M593.2573,-263.9062C601.7736,-264.8269 610.3266,-265.7515 618.7451,-266.6616"/>
<polygon fill="#191970" stroke="#191970" points="593.6055,-260.4235 583.2872,-262.8283 592.853,-267.383 593.6055,-260.4235"/>
</g>
<!-- Node62 -->
<g id="node22" class="node">
<title>Node62</title>
<g id="a_node22"><a xlink:href="classgko_1_1EnablePolymorphicObject.html" target="_top" xlink:title="gko::EnablePolymorphicObject\l\&lt; ConcreteLinOp, PolymorphicBase \&gt;">
<polygon fill="#ffffff" stroke="#000000" points="378,-170.5 378,-200.5 579,-200.5 579,-170.5 378,-170.5"/>
<text text-anchor="start" x="386" y="-188.5" font-family="Helvetica,sans-Serif" font-size="10.00" fill="#000000">gko::EnablePolymorphicObject</text>
<text text-anchor="middle" x="478.5" y="-177.5" font-family="Helvetica,sans-Serif" font-size="10.00" fill="#000000">&lt; ConcreteLinOp, PolymorphicBase &gt;</text>
</a>
</g>
</g>
<!-- Node61&#45;&gt;Node62 -->
<g id="edge20" class="edge">
<title>Node61&#45;&gt;Node62</title>
<path fill="none" stroke="#191970" d="M346.2891,-188.243C356.8418,-188.024 367.5155,-187.8026 377.9822,-187.5854"/>
<polygon fill="#191970" stroke="#191970" points="346.1445,-184.7451 336.2193,-188.4519 346.2898,-191.7436 346.1445,-184.7451"/>
</g>
<!-- Node62&#45;&gt;Node63 -->
<g id="edge21" class="edge">
<title>Node62&#45;&gt;Node63</title>
<path fill="none" stroke="#191970" d="M541.657,-167.6427C580.2306,-156.7363 629.011,-142.9439 665.6439,-132.5861"/>
<polygon fill="#191970" stroke="#191970" points="540.2469,-164.4041 531.5765,-170.4929 542.1515,-171.14 540.2469,-164.4041"/>
</g>
<!-- Node65 -->
<g id="node24" class="node">
<title>Node65</title>
<g id="a_node24"><a xlink:href="classgko_1_1EnablePolymorphicObject.html" target="_top" xlink:title="This mixin inherits from (a subclass of) PolymorphicObject and provides a base implementation of a ne...">
<polygon fill="#ffffff" stroke="#000000" points="376,-115.5 376,-145.5 581,-145.5 581,-115.5 376,-115.5"/>
<text text-anchor="start" x="384" y="-133.5" font-family="Helvetica,sans-Serif" font-size="10.00" fill="#000000">gko::EnablePolymorphicObject</text>
<text text-anchor="middle" x="478.5" y="-122.5" font-family="Helvetica,sans-Serif" font-size="10.00" fill="#000000">&lt; ConcreteObject, PolymorphicBase &gt;</text>
</a>
</g>
</g>
<!-- Node64&#45;&gt;Node65 -->
<g id="edge23" class="edge">
<title>Node64&#45;&gt;Node65</title>
<path fill="none" stroke="#191970" d="M348.5197,-130.5C357.6003,-130.5 366.753,-130.5 375.7701,-130.5"/>
<polygon fill="#191970" stroke="#191970" points="348.3093,-127.0001 338.3093,-130.5 348.3093,-134.0001 348.3093,-127.0001"/>
</g>
</g>
</svg>
