<?xml version="1.0" encoding="UTF-8" standalone="no"?>
<!DOCTYPE svg PUBLIC "-//W3C//DTD SVG 1.1//EN"
 "http://www.w3.org/Graphics/SVG/1.1/DTD/svg11.dtd">
<!-- Generated by graphviz version 2.38.0 (20140413.2041)
 -->
<!-- Title: Graphical Class Hierarchy Pages: 1 -->
<svg width="328pt" height="290pt"
 viewBox="0.00 0.00 328.00 290.00" xmlns="http://www.w3.org/2000/svg" xmlns:xlink="http://www.w3.org/1999/xlink">
<g id="graph0" class="graph" transform="scale(1 1) rotate(0) translate(4 286)">
<title>Graphical Class Hierarchy</title>
<polygon fill="white" stroke="none" points="-4,4 -4,-286 324,-286 324,4 -4,4"/>
<!-- Node1 -->
<g id="node1" class="node"><title>Node1</title>
<g id="a_node1"><a xlink:href="classgko_1_1matrix_1_1Hybrid_1_1strategy__type.html" target="_top" xlink:title="strategy_type is to decide how to set the hybrid config. ">
<polygon fill="white" stroke="black" points="0,-120.5 0,-161.5 128,-161.5 128,-120.5 0,-120.5"/>
<text text-anchor="start" x="8" y="-149.5" font-family="Helvetica,sans-Serif" font-size="10.00">gko::matrix::Hybrid</text>
<text text-anchor="start" x="8" y="-138.5" font-family="Helvetica,sans-Serif" font-size="10.00">&lt; ValueType, IndexType</text>
<text text-anchor="middle" x="64" y="-127.5" font-family="Helvetica,sans-Serif" font-size="10.00"> &gt;::strategy_type</text>
</a>
</g>
</g>
<!-- Node2 -->
<g id="node2" class="node"><title>Node2</title>
<g id="a_node2"><a xlink:href="classgko_1_1matrix_1_1Hybrid_1_1automatic.html" target="_top" xlink:title="automatic is a stratgy_type which decides the number of stored elements per row of the ell part autom...">
<polygon fill="white" stroke="black" points="178,-240.5 178,-281.5 306,-281.5 306,-240.5 178,-240.5"/>
<text text-anchor="start" x="186" y="-269.5" font-family="Helvetica,sans-Serif" font-size="10.00">gko::matrix::Hybrid</text>
<text text-anchor="start" x="186" y="-258.5" font-family="Helvetica,sans-Serif" font-size="10.00">&lt; ValueType, IndexType</text>
<text text-anchor="middle" x="242" y="-247.5" font-family="Helvetica,sans-Serif" font-size="10.00"> &gt;::automatic</text>
</a>
</g>
</g>
<!-- Node1&#45;&gt;Node2 -->
<g id="edge1" class="edge"><title>Node1&#45;&gt;Node2</title>
<path fill="none" stroke="midnightblue" d="M90.3838,-168.988C109.198,-188.43 136.283,-213.828 164,-231 169.488,-234.4 175.426,-237.532 181.486,-240.385"/>
<polygon fill="midnightblue" stroke="midnightblue" points="92.7761,-166.425 83.3467,-161.594 87.7055,-171.251 92.7761,-166.425"/>
</g>
<!-- Node3 -->
<g id="node3" class="node"><title>Node3</title>
<g id="a_node3"><a xlink:href="classgko_1_1matrix_1_1Hybrid_1_1column__limit.html" target="_top" xlink:title="column_limit is a strategy_type which decides the number of stored elements per row of the ell part b...">
<polygon fill="white" stroke="black" points="178,-180.5 178,-221.5 306,-221.5 306,-180.5 178,-180.5"/>
<text text-anchor="start" x="186" y="-209.5" font-family="Helvetica,sans-Serif" font-size="10.00">gko::matrix::Hybrid</text>
<text text-anchor="start" x="186" y="-198.5" font-family="Helvetica,sans-Serif" font-size="10.00">&lt; ValueType, IndexType</text>
<text text-anchor="middle" x="242" y="-187.5" font-family="Helvetica,sans-Serif" font-size="10.00"> &gt;::column_limit</text>
</a>
</g>
</g>
<!-- Node1&#45;&gt;Node3 -->
<g id="edge2" class="edge"><title>Node1&#45;&gt;Node3</title>
<path fill="none" stroke="midnightblue" d="M135.306,-164.968C150.308,-170.082 166.026,-175.441 180.617,-180.415"/>
<polygon fill="midnightblue" stroke="midnightblue" points="136.164,-161.563 125.569,-161.649 133.905,-168.188 136.164,-161.563"/>
</g>
<!-- Node4 -->
<g id="node4" class="node"><title>Node4</title>
<g id="a_node4"><a xlink:href="classgko_1_1matrix_1_1Hybrid_1_1imbalance__bounded__limit.html" target="_top" xlink:title="imbalance_bounded_limit is a stratgy_type which decides the number of stored elements per row of the ...">
<polygon fill="white" stroke="black" points="164,-120.5 164,-161.5 320,-161.5 320,-120.5 164,-120.5"/>
<text text-anchor="start" x="172" y="-149.5" font-family="Helvetica,sans-Serif" font-size="10.00">gko::matrix::Hybrid</text>
<text text-anchor="start" x="172" y="-138.5" font-family="Helvetica,sans-Serif" font-size="10.00">&lt; ValueType, IndexType</text>
<text text-anchor="middle" x="242" y="-127.5" font-family="Helvetica,sans-Serif" font-size="10.00"> &gt;::imbalance_bounded_limit</text>
</a>
</g>
</g>
<!-- Node1&#45;&gt;Node4 -->
<g id="edge3" class="edge"><title>Node1&#45;&gt;Node4</title>
<path fill="none" stroke="midnightblue" d="M138.273,-141C146.755,-141 155.424,-141 163.954,-141"/>
<polygon fill="midnightblue" stroke="midnightblue" points="138.043,-137.5 128.043,-141 138.043,-144.5 138.043,-137.5"/>
</g>
<!-- Node5 -->
<g id="node5" class="node"><title>Node5</title>
<g id="a_node5"><a xlink:href="classgko_1_1matrix_1_1Hybrid_1_1imbalance__limit.html" target="_top" xlink:title="imbalance_limit is a strategy_type which decides the number of stored elements per row of the ell par...">
<polygon fill="white" stroke="black" points="178,-60.5 178,-101.5 306,-101.5 306,-60.5 178,-60.5"/>
<text text-anchor="start" x="186" y="-89.5" font-family="Helvetica,sans-Serif" font-size="10.00">gko::matrix::Hybrid</text>
<text text-anchor="start" x="186" y="-78.5" font-family="Helvetica,sans-Serif" font-size="10.00">&lt; ValueType, IndexType</text>
<text text-anchor="middle" x="242" y="-67.5" font-family="Helvetica,sans-Serif" font-size="10.00"> &gt;::imbalance_limit</text>
</a>
</g>
</g>
<!-- Node1&#45;&gt;Node5 -->
<g id="edge4" class="edge"><title>Node1&#45;&gt;Node5</title>
<path fill="none" stroke="midnightblue" d="M135.306,-117.032C150.308,-111.918 166.026,-106.559 180.617,-101.585"/>
<polygon fill="midnightblue" stroke="midnightblue" points="133.905,-113.812 125.569,-120.351 136.164,-120.437 133.905,-113.812"/>
</g>
<!-- Node6 -->
<g id="node6" class="node"><title>Node6</title>
<g id="a_node6"><a xlink:href="classgko_1_1matrix_1_1Hybrid_1_1minimal__storage__limit.html" target="_top" xlink:title="minimal_storage_limit is a stratgy_type which decides the number of stored elements per row of the el...">
<polygon fill="white" stroke="black" points="172,-0.5 172,-41.5 312,-41.5 312,-0.5 172,-0.5"/>
<text text-anchor="start" x="180" y="-29.5" font-family="Helvetica,sans-Serif" font-size="10.00">gko::matrix::Hybrid</text>
<text text-anchor="start" x="180" y="-18.5" font-family="Helvetica,sans-Serif" font-size="10.00">&lt; ValueType, IndexType</text>
<text text-anchor="middle" x="242" y="-7.5" font-family="Helvetica,sans-Serif" font-size="10.00"> &gt;::minimal_storage_limit</text>
</a>
</g>
</g>
<!-- Node1&#45;&gt;Node6 -->
<g id="edge5" class="edge"><title>Node1&#45;&gt;Node6</title>
<path fill="none" stroke="midnightblue" d="M90.3838,-113.012C109.198,-93.5704 136.283,-68.1716 164,-51 169.488,-47.5998 175.426,-44.4681 181.486,-41.6154"/>
<polygon fill="midnightblue" stroke="midnightblue" points="87.7055,-110.749 83.3467,-120.406 92.7761,-115.575 87.7055,-110.749"/>
</g>
</g>
</svg>
