<?xml version="1.0" encoding="UTF-8" standalone="no"?>
<!DOCTYPE svg PUBLIC "-//W3C//DTD SVG 1.1//EN"
 "http://www.w3.org/Graphics/SVG/1.1/DTD/svg11.dtd">
<!-- Generated by graphviz version 2.38.0 (20140413.2041)
 -->
<!-- Title: Graphical Class Hierarchy Pages: 1 -->
<svg width="363pt" height="529pt"
 viewBox="0.00 0.00 363.00 529.00" xmlns="http://www.w3.org/2000/svg" xmlns:xlink="http://www.w3.org/1999/xlink">
<g id="graph0" class="graph" transform="scale(1 1) rotate(0) translate(4 525)">
<title>Graphical Class Hierarchy</title>
<polygon fill="white" stroke="none" points="-4,4 -4,-525 359,-525 359,4 -4,4"/>
<!-- Node1 -->
<g id="node1" class="node"><title>Node1</title>
<g id="a_node1"><a xlink:href="structgko_1_1enable__parameters__type.html" target="_top" xlink:title="gko::enable_parameters\l_type\&lt; parameters_type,\l Factory \&gt;">
<polygon fill="white" stroke="black" points="0,-229.5 0,-270.5 140,-270.5 140,-229.5 0,-229.5"/>
<text text-anchor="start" x="8" y="-258.5" font-family="Helvetica,sans-Serif" font-size="10.00">gko::enable_parameters</text>
<text text-anchor="start" x="8" y="-247.5" font-family="Helvetica,sans-Serif" font-size="10.00">_type&lt; parameters_type,</text>
<text text-anchor="middle" x="70" y="-236.5" font-family="Helvetica,sans-Serif" font-size="10.00"> Factory &gt;</text>
</a>
</g>
</g>
<!-- Node2 -->
<g id="node2" class="node"><title>Node2</title>
<g id="a_node2"><a xlink:href="structgko_1_1preconditioner_1_1Jacobi_1_1parameters__type.html" target="_top" xlink:title="gko::preconditioner\l::Jacobi\&lt; ValueType,\l IndexType \&gt;::parameters_type">
<polygon fill="white" stroke="black" points="182.5,-479.5 182.5,-520.5 348.5,-520.5 348.5,-479.5 182.5,-479.5"/>
<text text-anchor="start" x="190.5" y="-508.5" font-family="Helvetica,sans-Serif" font-size="10.00">gko::preconditioner</text>
<text text-anchor="start" x="190.5" y="-497.5" font-family="Helvetica,sans-Serif" font-size="10.00">::Jacobi&lt; ValueType,</text>
<text text-anchor="middle" x="265.5" y="-486.5" font-family="Helvetica,sans-Serif" font-size="10.00"> IndexType &gt;::parameters_type</text>
</a>
</g>
</g>
<!-- Node1&#45;&gt;Node2 -->
<g id="edge1" class="edge"><title>Node1&#45;&gt;Node2</title>
<path fill="none" stroke="midnightblue" d="M77.397,-280.653C88.8807,-328.161 117.463,-419.456 176,-471 179.519,-474.099 183.377,-476.867 187.451,-479.341"/>
<polygon fill="midnightblue" stroke="midnightblue" points="80.7485,-279.612 75.0793,-270.662 73.9296,-281.194 80.7485,-279.612"/>
</g>
<!-- Node3 -->
<g id="node3" class="node"><title>Node3</title>
<g id="a_node3"><a xlink:href="structgko_1_1solver_1_1Bicgstab_1_1parameters__type.html" target="_top" xlink:title="gko::solver::Bicgstab\l\&lt; ValueType \&gt;::parameters_type">
<polygon fill="white" stroke="black" points="178,-431 178,-461 353,-461 353,-431 178,-431"/>
<text text-anchor="start" x="186" y="-449" font-family="Helvetica,sans-Serif" font-size="10.00">gko::solver::Bicgstab</text>
<text text-anchor="middle" x="265.5" y="-438" font-family="Helvetica,sans-Serif" font-size="10.00">&lt; ValueType &gt;::parameters_type</text>
</a>
</g>
</g>
<!-- Node1&#45;&gt;Node3 -->
<g id="edge2" class="edge"><title>Node1&#45;&gt;Node3</title>
<path fill="none" stroke="midnightblue" d="M81.4422,-280.42C96.3165,-319.167 127.322,-385.472 176,-422 180.584,-425.44 185.629,-428.387 190.914,-430.912"/>
<polygon fill="midnightblue" stroke="midnightblue" points="84.6062,-278.886 77.84,-270.734 78.0452,-281.326 84.6062,-278.886"/>
</g>
<!-- Node4 -->
<g id="node4" class="node"><title>Node4</title>
<g id="a_node4"><a xlink:href="structgko_1_1solver_1_1Cg_1_1parameters__type.html" target="_top" xlink:title="gko::solver::Cg\&lt; ValueType\l \&gt;::parameters_type">
<polygon fill="white" stroke="black" points="192.5,-382 192.5,-412 338.5,-412 338.5,-382 192.5,-382"/>
<text text-anchor="start" x="200.5" y="-400" font-family="Helvetica,sans-Serif" font-size="10.00">gko::solver::Cg&lt; ValueType</text>
<text text-anchor="middle" x="265.5" y="-389" font-family="Helvetica,sans-Serif" font-size="10.00"> &gt;::parameters_type</text>
</a>
</g>
</g>
<!-- Node1&#45;&gt;Node4 -->
<g id="edge3" class="edge"><title>Node1&#45;&gt;Node4</title>
<path fill="none" stroke="midnightblue" d="M88.6209,-279.408C106.988,-307.551 138.328,-349.145 176,-373 181.38,-376.407 187.239,-379.335 193.297,-381.851"/>
<polygon fill="midnightblue" stroke="midnightblue" points="91.4491,-277.333 83.122,-270.783 85.5466,-281.096 91.4491,-277.333"/>
</g>
<!-- Node5 -->
<g id="node5" class="node"><title>Node5</title>
<g id="a_node5"><a xlink:href="structgko_1_1solver_1_1Cgs_1_1parameters__type.html" target="_top" xlink:title="gko::solver::Cgs\&lt; ValueType\l \&gt;::parameters_type">
<polygon fill="white" stroke="black" points="190,-333 190,-363 341,-363 341,-333 190,-333"/>
<text text-anchor="start" x="198" y="-351" font-family="Helvetica,sans-Serif" font-size="10.00">gko::solver::Cgs&lt; ValueType</text>
<text text-anchor="middle" x="265.5" y="-340" font-family="Helvetica,sans-Serif" font-size="10.00"> &gt;::parameters_type</text>
</a>
</g>
</g>
<!-- Node1&#45;&gt;Node5 -->
<g id="edge4" class="edge"><title>Node1&#45;&gt;Node5</title>
<path fill="none" stroke="midnightblue" d="M102.763,-276.826C122.702,-292.499 149.569,-311.577 176,-324 183.204,-327.386 190.97,-330.365 198.803,-332.966"/>
<polygon fill="midnightblue" stroke="midnightblue" points="104.931,-274.079 94.9349,-270.568 100.56,-279.547 104.931,-274.079"/>
</g>
<!-- Node6 -->
<g id="node6" class="node"><title>Node6</title>
<g id="a_node6"><a xlink:href="structgko_1_1solver_1_1Fcg_1_1parameters__type.html" target="_top" xlink:title="gko::solver::Fcg\&lt; ValueType\l \&gt;::parameters_type">
<polygon fill="white" stroke="black" points="191,-284 191,-314 340,-314 340,-284 191,-284"/>
<text text-anchor="start" x="199" y="-302" font-family="Helvetica,sans-Serif" font-size="10.00">gko::solver::Fcg&lt; ValueType</text>
<text text-anchor="middle" x="265.5" y="-291" font-family="Helvetica,sans-Serif" font-size="10.00"> &gt;::parameters_type</text>
</a>
</g>
</g>
<!-- Node1&#45;&gt;Node6 -->
<g id="edge5" class="edge"><title>Node1&#45;&gt;Node6</title>
<path fill="none" stroke="midnightblue" d="M149.88,-269.975C168.326,-274.646 187.67,-279.544 205.102,-283.959"/>
<polygon fill="midnightblue" stroke="midnightblue" points="150.592,-266.545 140.038,-267.483 148.873,-273.33 150.592,-266.545"/>
</g>
<!-- Node7 -->
<g id="node7" class="node"><title>Node7</title>
<g id="a_node7"><a xlink:href="structgko_1_1solver_1_1Gmres_1_1parameters__type.html" target="_top" xlink:title="gko::solver::Gmres\l\&lt; ValueType \&gt;::parameters_type">
<polygon fill="white" stroke="black" points="178,-235 178,-265 353,-265 353,-235 178,-235"/>
<text text-anchor="start" x="186" y="-253" font-family="Helvetica,sans-Serif" font-size="10.00">gko::solver::Gmres</text>
<text text-anchor="middle" x="265.5" y="-242" font-family="Helvetica,sans-Serif" font-size="10.00">&lt; ValueType &gt;::parameters_type</text>
</a>
</g>
</g>
<!-- Node1&#45;&gt;Node7 -->
<g id="edge6" class="edge"><title>Node1&#45;&gt;Node7</title>
<path fill="none" stroke="midnightblue" d="M150.227,-250C159.347,-250 168.683,-250 177.895,-250"/>
<polygon fill="midnightblue" stroke="midnightblue" points="150.038,-246.5 140.038,-250 150.038,-253.5 150.038,-246.5"/>
</g>
<!-- Node8 -->
<g id="node8" class="node"><title>Node8</title>
<g id="a_node8"><a xlink:href="structgko_1_1solver_1_1Ir_1_1parameters__type.html" target="_top" xlink:title="gko::solver::Ir\&lt; ValueType\l \&gt;::parameters_type">
<polygon fill="white" stroke="black" points="196,-186 196,-216 335,-216 335,-186 196,-186"/>
<text text-anchor="start" x="204" y="-204" font-family="Helvetica,sans-Serif" font-size="10.00">gko::solver::Ir&lt; ValueType</text>
<text text-anchor="middle" x="265.5" y="-193" font-family="Helvetica,sans-Serif" font-size="10.00"> &gt;::parameters_type</text>
</a>
</g>
</g>
<!-- Node1&#45;&gt;Node8 -->
<g id="edge7" class="edge"><title>Node1&#45;&gt;Node8</title>
<path fill="none" stroke="midnightblue" d="M149.88,-230.025C168.326,-225.354 187.67,-220.456 205.102,-216.041"/>
<polygon fill="midnightblue" stroke="midnightblue" points="148.873,-226.67 140.038,-232.517 150.592,-233.455 148.873,-226.67"/>
</g>
<!-- Node9 -->
<g id="node9" class="node"><title>Node9</title>
<g id="a_node9"><a xlink:href="structgko_1_1stop_1_1Combined_1_1parameters__type.html" target="_top" xlink:title="gko::stop::Combined\l::parameters_type">
<polygon fill="white" stroke="black" points="207.5,-137 207.5,-167 323.5,-167 323.5,-137 207.5,-137"/>
<text text-anchor="start" x="215.5" y="-155" font-family="Helvetica,sans-Serif" font-size="10.00">gko::stop::Combined</text>
<text text-anchor="middle" x="265.5" y="-144" font-family="Helvetica,sans-Serif" font-size="10.00">::parameters_type</text>
</a>
</g>
</g>
<!-- Node1&#45;&gt;Node9 -->
<g id="edge8" class="edge"><title>Node1&#45;&gt;Node9</title>
<path fill="none" stroke="midnightblue" d="M103.535,-223.139C123.44,-207.82 150.004,-189.283 176,-177 185.816,-172.362 196.662,-168.424 207.297,-165.141"/>
<polygon fill="midnightblue" stroke="midnightblue" points="101.15,-220.561 95.4327,-229.48 105.465,-226.073 101.15,-220.561"/>
</g>
<!-- Node10 -->
<g id="node10" class="node"><title>Node10</title>
<g id="a_node10"><a xlink:href="structgko_1_1stop_1_1Iteration_1_1parameters__type.html" target="_top" xlink:title="gko::stop::Iteration\l::parameters_type">
<polygon fill="white" stroke="black" points="212,-88 212,-118 319,-118 319,-88 212,-88"/>
<text text-anchor="start" x="220" y="-106" font-family="Helvetica,sans-Serif" font-size="10.00">gko::stop::Iteration</text>
<text text-anchor="middle" x="265.5" y="-95" font-family="Helvetica,sans-Serif" font-size="10.00">::parameters_type</text>
</a>
</g>
</g>
<!-- Node1&#45;&gt;Node10 -->
<g id="edge9" class="edge"><title>Node1&#45;&gt;Node10</title>
<path fill="none" stroke="midnightblue" d="M88.7307,-220.919C107.18,-193.071 138.582,-151.864 176,-128 186.769,-121.132 199.45,-116.115 211.796,-112.463"/>
<polygon fill="midnightblue" stroke="midnightblue" points="85.7025,-219.156 83.2044,-229.452 91.578,-222.961 85.7025,-219.156"/>
</g>
<!-- Node11 -->
<g id="node11" class="node"><title>Node11</title>
<g id="a_node11"><a xlink:href="structgko_1_1stop_1_1ResidualNormReduction_1_1parameters__type.html" target="_top" xlink:title="gko::stop::ResidualNormReduction\l\&lt; ValueType \&gt;::parameters_type">
<polygon fill="white" stroke="black" points="176,-39 176,-69 355,-69 355,-39 176,-39"/>
<text text-anchor="start" x="184" y="-57" font-family="Helvetica,sans-Serif" font-size="10.00">gko::stop::ResidualNormReduction</text>
<text text-anchor="middle" x="265.5" y="-46" font-family="Helvetica,sans-Serif" font-size="10.00">&lt; ValueType &gt;::parameters_type</text>
</a>
</g>
</g>
<!-- Node1&#45;&gt;Node11 -->
<g id="edge10" class="edge"><title>Node1&#45;&gt;Node11</title>
<path fill="none" stroke="midnightblue" d="M81.5501,-219.834C96.5409,-181.394 127.672,-115.565 176,-79 181.093,-75.1467 186.755,-71.8872 192.684,-69.13"/>
<polygon fill="midnightblue" stroke="midnightblue" points="78.1801,-218.85 77.9172,-229.442 84.7277,-221.326 78.1801,-218.85"/>
</g>
<!-- Node12 -->
<g id="node12" class="node"><title>Node12</title>
<g id="a_node12"><a xlink:href="structgko_1_1stop_1_1Time_1_1parameters__type.html" target="_top" xlink:title="gko::stop::Time::parameters_type">
<polygon fill="white" stroke="black" points="176,-0.5 176,-19.5 355,-19.5 355,-0.5 176,-0.5"/>
<text text-anchor="middle" x="265.5" y="-7.5" font-family="Helvetica,sans-Serif" font-size="10.00">gko::stop::Time::parameters_type</text>
</a>
</g>
</g>
<!-- Node1&#45;&gt;Node12 -->
<g id="edge11" class="edge"><title>Node1&#45;&gt;Node12</title>
<path fill="none" stroke="midnightblue" d="M76.7242,-219.477C87.3895,-171.453 114.997,-78.7162 176,-30 181.416,-25.675 187.584,-22.2459 194.087,-19.5325"/>
<polygon fill="midnightblue" stroke="midnightblue" points="73.2937,-218.783 74.6436,-229.291 80.1415,-220.234 73.2937,-218.783"/>
</g>
</g>
</svg>
