<?xml version="1.0" encoding="UTF-8" standalone="no"?>
<!DOCTYPE svg PUBLIC "-//W3C//DTD SVG 1.1//EN"
 "http://www.w3.org/Graphics/SVG/1.1/DTD/svg11.dtd">
<!-- Generated by graphviz version 2.38.0 (20140413.2041)
 -->
<!-- Title: Graphical Class Hierarchy Pages: 1 -->
<svg width="343pt" height="408pt"
 viewBox="0.00 0.00 343.00 408.00" xmlns="http://www.w3.org/2000/svg" xmlns:xlink="http://www.w3.org/1999/xlink">
<g id="graph0" class="graph" transform="scale(1 1) rotate(0) translate(4 404)">
<title>Graphical Class Hierarchy</title>
<polygon fill="white" stroke="none" points="-4,4 -4,-404 339,-404 339,4 -4,4"/>
<!-- Node1 -->
<g id="node1" class="node"><title>Node1</title>
<polygon fill="white" stroke="#bfbfbf" points="0,-190.5 0,-209.5 63,-209.5 63,-190.5 0,-190.5"/>
<text text-anchor="middle" x="31.5" y="-197.5" font-family="Helvetica,sans-Serif" font-size="10.00">exception</text>
</g>
<!-- Node2 -->
<g id="node2" class="node"><title>Node2</title>
<g id="a_node2"><a xlink:href="classgko_1_1Error.html" target="_top" xlink:title="The Error class is used to report exceptional behaviour in library functions. ">
<polygon fill="white" stroke="black" points="99,-190.5 99,-209.5 162,-209.5 162,-190.5 99,-190.5"/>
<text text-anchor="middle" x="130.5" y="-197.5" font-family="Helvetica,sans-Serif" font-size="10.00">gko::Error</text>
</a>
</g>
</g>
<!-- Node1&#45;&gt;Node2 -->
<g id="edge1" class="edge"><title>Node1&#45;&gt;Node2</title>
<path fill="none" stroke="midnightblue" d="M73.315,-200C81.8049,-200 90.6172,-200 98.6753,-200"/>
<polygon fill="midnightblue" stroke="midnightblue" points="73.1914,-196.5 63.1914,-200 73.1914,-203.5 73.1914,-196.5"/>
</g>
<!-- Node3 -->
<g id="node3" class="node"><title>Node3</title>
<g id="a_node3"><a xlink:href="classgko_1_1AllocationError.html" target="_top" xlink:title="AllocationError is thrown if a memory allocation fails. ">
<polygon fill="white" stroke="black" points="211.5,-380.5 211.5,-399.5 321.5,-399.5 321.5,-380.5 211.5,-380.5"/>
<text text-anchor="middle" x="266.5" y="-387.5" font-family="Helvetica,sans-Serif" font-size="10.00">gko::AllocationError</text>
</a>
</g>
</g>
<!-- Node2&#45;&gt;Node3 -->
<g id="edge2" class="edge"><title>Node2&#45;&gt;Node3</title>
<path fill="none" stroke="midnightblue" d="M133.517,-219.903C138.202,-255.52 153.097,-330.234 198,-371 202.236,-374.846 207.192,-377.92 212.461,-380.377"/>
<polygon fill="midnightblue" stroke="midnightblue" points="136.973,-219.329 132.329,-209.806 130.021,-220.146 136.973,-219.329"/>
</g>
<!-- Node4 -->
<g id="node4" class="node"><title>Node4</title>
<g id="a_node4"><a xlink:href="classgko_1_1CublasError.html" target="_top" xlink:title="CublasError is thrown when a cuBLAS routine throws a non&#45;zero error code. ">
<polygon fill="white" stroke="black" points="219,-342.5 219,-361.5 314,-361.5 314,-342.5 219,-342.5"/>
<text text-anchor="middle" x="266.5" y="-349.5" font-family="Helvetica,sans-Serif" font-size="10.00">gko::CublasError</text>
</a>
</g>
</g>
<!-- Node2&#45;&gt;Node4 -->
<g id="edge3" class="edge"><title>Node2&#45;&gt;Node4</title>
<path fill="none" stroke="midnightblue" d="M135.907,-219.517C143.498,-248.605 161.831,-303.101 198,-333 204.005,-337.964 211.227,-341.634 218.681,-344.346"/>
<polygon fill="midnightblue" stroke="midnightblue" points="139.286,-218.599 133.51,-209.718 132.487,-220.263 139.286,-218.599"/>
</g>
<!-- Node5 -->
<g id="node5" class="node"><title>Node5</title>
<g id="a_node5"><a xlink:href="classgko_1_1CudaError.html" target="_top" xlink:title="CudaError is thrown when a CUDA routine throws a non&#45;zero error code. ">
<polygon fill="white" stroke="black" points="222.5,-304.5 222.5,-323.5 310.5,-323.5 310.5,-304.5 222.5,-304.5"/>
<text text-anchor="middle" x="266.5" y="-311.5" font-family="Helvetica,sans-Serif" font-size="10.00">gko::CudaError</text>
</a>
</g>
</g>
<!-- Node2&#45;&gt;Node5 -->
<g id="edge4" class="edge"><title>Node2&#45;&gt;Node5</title>
<path fill="none" stroke="midnightblue" d="M139.83,-218.889C150.317,-240.488 170.363,-275.385 198,-295 205.247,-300.144 213.85,-303.899 222.446,-306.639"/>
<polygon fill="midnightblue" stroke="midnightblue" points="142.966,-217.332 135.575,-209.741 136.619,-220.284 142.966,-217.332"/>
</g>
<!-- Node6 -->
<g id="node6" class="node"><title>Node6</title>
<g id="a_node6"><a xlink:href="classgko_1_1CusparseError.html" target="_top" xlink:title="CusparseError is thrown when a cuSPARSE routine throws a non&#45;zero error code. ">
<polygon fill="white" stroke="black" points="212.5,-266.5 212.5,-285.5 320.5,-285.5 320.5,-266.5 212.5,-266.5"/>
<text text-anchor="middle" x="266.5" y="-273.5" font-family="Helvetica,sans-Serif" font-size="10.00">gko::CusparseError</text>
</a>
</g>
</g>
<!-- Node2&#45;&gt;Node6 -->
<g id="edge5" class="edge"><title>Node2&#45;&gt;Node6</title>
<path fill="none" stroke="midnightblue" d="M147.006,-216.79C159.615,-229.515 178.461,-246.54 198,-257 205.084,-260.792 213.002,-263.892 220.852,-266.404"/>
<polygon fill="midnightblue" stroke="midnightblue" points="149.467,-214.299 140.011,-209.52 144.423,-219.153 149.467,-214.299"/>
</g>
<!-- Node7 -->
<g id="node7" class="node"><title>Node7</title>
<g id="a_node7"><a xlink:href="classgko_1_1DimensionMismatch.html" target="_top" xlink:title="DimensionMismatch is thrown if an operation is being applied to LinOps of incompatible size...">
<polygon fill="white" stroke="black" points="198,-228.5 198,-247.5 335,-247.5 335,-228.5 198,-228.5"/>
<text text-anchor="middle" x="266.5" y="-235.5" font-family="Helvetica,sans-Serif" font-size="10.00">gko::DimensionMismatch</text>
</a>
</g>
</g>
<!-- Node2&#45;&gt;Node7 -->
<g id="edge6" class="edge"><title>Node2&#45;&gt;Node7</title>
<path fill="none" stroke="midnightblue" d="M172.078,-211.621C180.637,-214.065 189.614,-216.622 198,-219 208.892,-222.089 220.779,-225.441 231.5,-228.458"/>
<polygon fill="midnightblue" stroke="midnightblue" points="172.86,-208.205 162.283,-208.822 170.937,-214.935 172.86,-208.205"/>
</g>
<!-- Node8 -->
<g id="node8" class="node"><title>Node8</title>
<g id="a_node8"><a xlink:href="classgko_1_1KernelNotFound.html" target="_top" xlink:title="KernelNotFound is thrown if Ginkgo cannot find a kernel which satisfies the criteria imposed by the i...">
<polygon fill="white" stroke="black" points="208.5,-190.5 208.5,-209.5 324.5,-209.5 324.5,-190.5 208.5,-190.5"/>
<text text-anchor="middle" x="266.5" y="-197.5" font-family="Helvetica,sans-Serif" font-size="10.00">gko::KernelNotFound</text>
</a>
</g>
</g>
<!-- Node2&#45;&gt;Node8 -->
<g id="edge7" class="edge"><title>Node2&#45;&gt;Node8</title>
<path fill="none" stroke="midnightblue" d="M172.287,-200C183.641,-200 196.187,-200 208.296,-200"/>
<polygon fill="midnightblue" stroke="midnightblue" points="172.242,-196.5 162.242,-200 172.242,-203.5 172.242,-196.5"/>
</g>
<!-- Node9 -->
<g id="node9" class="node"><title>Node9</title>
<g id="a_node9"><a xlink:href="classgko_1_1NotCompiled.html" target="_top" xlink:title="NotCompiled is thrown when attempting to call an operation which is a part of a module that was not c...">
<polygon fill="white" stroke="black" points="215.5,-152.5 215.5,-171.5 317.5,-171.5 317.5,-152.5 215.5,-152.5"/>
<text text-anchor="middle" x="266.5" y="-159.5" font-family="Helvetica,sans-Serif" font-size="10.00">gko::NotCompiled</text>
</a>
</g>
</g>
<!-- Node2&#45;&gt;Node9 -->
<g id="edge8" class="edge"><title>Node2&#45;&gt;Node9</title>
<path fill="none" stroke="midnightblue" d="M172.078,-188.379C180.637,-185.935 189.614,-183.378 198,-181 208.892,-177.911 220.779,-174.559 231.5,-171.542"/>
<polygon fill="midnightblue" stroke="midnightblue" points="170.937,-185.065 162.283,-191.178 172.86,-191.795 170.937,-185.065"/>
</g>
<!-- Node10 -->
<g id="node10" class="node"><title>Node10</title>
<g id="a_node10"><a xlink:href="classgko_1_1NotImplemented.html" target="_top" xlink:title="NotImplemented is thrown in case an operation has not yet been implemented (but will be implemented i...">
<polygon fill="white" stroke="black" points="206,-114.5 206,-133.5 327,-133.5 327,-114.5 206,-114.5"/>
<text text-anchor="middle" x="266.5" y="-121.5" font-family="Helvetica,sans-Serif" font-size="10.00">gko::NotImplemented</text>
</a>
</g>
</g>
<!-- Node2&#45;&gt;Node10 -->
<g id="edge9" class="edge"><title>Node2&#45;&gt;Node10</title>
<path fill="none" stroke="midnightblue" d="M147.006,-183.21C159.615,-170.485 178.461,-153.46 198,-143 205.084,-139.208 213.002,-136.108 220.852,-133.596"/>
<polygon fill="midnightblue" stroke="midnightblue" points="144.423,-180.847 140.011,-190.48 149.467,-185.701 144.423,-180.847"/>
</g>
<!-- Node11 -->
<g id="node11" class="node"><title>Node11</title>
<g id="a_node11"><a xlink:href="classgko_1_1NotSupported.html" target="_top" xlink:title="NotSupported is thrown in case it is not possible to perform the requested operation on the given obj...">
<polygon fill="white" stroke="black" points="213,-76.5 213,-95.5 320,-95.5 320,-76.5 213,-76.5"/>
<text text-anchor="middle" x="266.5" y="-83.5" font-family="Helvetica,sans-Serif" font-size="10.00">gko::NotSupported</text>
</a>
</g>
</g>
<!-- Node2&#45;&gt;Node11 -->
<g id="edge10" class="edge"><title>Node2&#45;&gt;Node11</title>
<path fill="none" stroke="midnightblue" d="M139.83,-181.111C150.317,-159.512 170.363,-124.615 198,-105 203.46,-101.125 209.69,-98.0375 216.107,-95.5787"/>
<polygon fill="midnightblue" stroke="midnightblue" points="136.619,-179.716 135.575,-190.259 142.966,-182.668 136.619,-179.716"/>
</g>
<!-- Node12 -->
<g id="node12" class="node"><title>Node12</title>
<g id="a_node12"><a xlink:href="classgko_1_1OutOfBoundsError.html" target="_top" xlink:title="OutOfBoundsError is thrown if a memory access is detected to be out&#45;of&#45;bounds. ">
<polygon fill="white" stroke="black" points="203,-38.5 203,-57.5 330,-57.5 330,-38.5 203,-38.5"/>
<text text-anchor="middle" x="266.5" y="-45.5" font-family="Helvetica,sans-Serif" font-size="10.00">gko::OutOfBoundsError</text>
</a>
</g>
</g>
<!-- Node2&#45;&gt;Node12 -->
<g id="edge11" class="edge"><title>Node2&#45;&gt;Node12</title>
<path fill="none" stroke="midnightblue" d="M135.907,-180.483C143.498,-151.395 161.831,-96.8985 198,-67 202.692,-63.1218 208.126,-60.0337 213.833,-57.575"/>
<polygon fill="midnightblue" stroke="midnightblue" points="132.487,-179.737 133.51,-190.282 139.286,-181.401 132.487,-179.737"/>
</g>
<!-- Node13 -->
<g id="node13" class="node"><title>Node13</title>
<g id="a_node13"><a xlink:href="classgko_1_1StreamError.html" target="_top" xlink:title="StreamError is thrown if accessing a stream failed. ">
<polygon fill="white" stroke="black" points="217,-0.5 217,-19.5 316,-19.5 316,-0.5 217,-0.5"/>
<text text-anchor="middle" x="266.5" y="-7.5" font-family="Helvetica,sans-Serif" font-size="10.00">gko::StreamError</text>
</a>
</g>
</g>
<!-- Node2&#45;&gt;Node13 -->
<g id="edge12" class="edge"><title>Node2&#45;&gt;Node13</title>
<path fill="none" stroke="midnightblue" d="M133.517,-180.097C138.202,-144.48 153.097,-69.7655 198,-29 203.408,-24.0901 209.989,-20.438 216.896,-17.7238"/>
<polygon fill="midnightblue" stroke="midnightblue" points="130.021,-179.854 132.329,-190.194 136.973,-180.671 130.021,-179.854"/>
</g>
</g>
</svg>
