<?xml version="1.0" encoding="UTF-8" standalone="no"?>
<!DOCTYPE svg PUBLIC "-//W3C//DTD SVG 1.1//EN"
 "http://www.w3.org/Graphics/SVG/1.1/DTD/svg11.dtd">
<!-- Generated by graphviz version 2.38.0 (20140413.2041)
 -->
<!-- Title: gko::log::executor_data Pages: 1 -->
<svg width="265pt" height="309pt"
 viewBox="0.00 0.00 264.50 309.00" xmlns="http://www.w3.org/2000/svg" xmlns:xlink="http://www.w3.org/1999/xlink">
<g id="graph0" class="graph" transform="scale(1 1) rotate(0) translate(4 305)">
<title>gko::log::executor_data</title>
<polygon fill="white" stroke="none" points="-4,4 -4,-305 260.5,-305 260.5,4 -4,4"/>
<!-- Node1 -->
<g id="node1" class="node"><title>Node1</title>
<polygon fill="#bfbfbf" stroke="black" points="0.5,-0.5 0.5,-19.5 129.5,-19.5 129.5,-0.5 0.5,-0.5"/>
<text text-anchor="middle" x="65" y="-7.5" font-family="Helvetica,sans-Serif" font-size="10.00">gko::log::executor_data</text>
</g>
<!-- Node2 -->
<g id="node2" class="node"><title>Node2</title>
<g id="a_node2"><a xlink:href="classgko_1_1Executor.html" target="_top" xlink:title="The first step in using the Ginkgo library consists of creating an executor. ">
<polygon fill="white" stroke="black" points="24,-67.5 24,-86.5 106,-86.5 106,-67.5 24,-67.5"/>
<text text-anchor="middle" x="65" y="-74.5" font-family="Helvetica,sans-Serif" font-size="10.00">gko::Executor</text>
</a>
</g>
</g>
<!-- Node2&#45;&gt;Node1 -->
<g id="edge1" class="edge"><title>Node2&#45;&gt;Node1</title>
<path fill="none" stroke="#9a32cd" stroke-dasharray="5,2" d="M65,-57.037C65,-44.6703 65,-29.1198 65,-19.6273"/>
<polygon fill="#9a32cd" stroke="#9a32cd" points="61.5001,-57.2338 65,-67.2338 68.5001,-57.2338 61.5001,-57.2338"/>
<text text-anchor="middle" x="78" y="-41" font-family="Helvetica,sans-Serif" font-size="10.00"> exec</text>
</g>
<!-- Node3 -->
<g id="node3" class="node"><title>Node3</title>
<g id="a_node3"><a xlink:href="classgko_1_1log_1_1EnableLogging.html" target="_top" xlink:title="gko::log::EnableLogging\l\&lt; Executor \&gt;">
<polygon fill="white" stroke="black" points="0,-124.5 0,-154.5 130,-154.5 130,-124.5 0,-124.5"/>
<text text-anchor="start" x="8" y="-142.5" font-family="Helvetica,sans-Serif" font-size="10.00">gko::log::EnableLogging</text>
<text text-anchor="middle" x="65" y="-131.5" font-family="Helvetica,sans-Serif" font-size="10.00">&lt; Executor &gt;</text>
</a>
</g>
</g>
<!-- Node3&#45;&gt;Node2 -->
<g id="edge2" class="edge"><title>Node3&#45;&gt;Node2</title>
<path fill="none" stroke="midnightblue" d="M65,-114.352C65,-104.513 65,-93.7753 65,-86.5399"/>
<polygon fill="midnightblue" stroke="midnightblue" points="61.5001,-114.468 65,-124.468 68.5001,-114.468 61.5001,-114.468"/>
</g>
<!-- Node4 -->
<g id="node4" class="node"><title>Node4</title>
<g id="a_node4"><a xlink:href="classgko_1_1log_1_1Loggable.html" target="_top" xlink:title="Loggable class is an interface which should be implemented by classes wanting to support logging...">
<polygon fill="white" stroke="black" points="32,-281.5 32,-300.5 136,-300.5 136,-281.5 32,-281.5"/>
<text text-anchor="middle" x="84" y="-288.5" font-family="Helvetica,sans-Serif" font-size="10.00">gko::log::Loggable</text>
</a>
</g>
</g>
<!-- Node4&#45;&gt;Node3 -->
<g id="edge3" class="edge"><title>Node4&#45;&gt;Node3</title>
<path fill="none" stroke="midnightblue" d="M76.294,-271.972C73.1013,-263.622 69.7419,-253.472 68,-244 62.213,-212.53 63.0232,-174.785 64.0541,-154.705"/>
<polygon fill="midnightblue" stroke="midnightblue" points="73.1144,-273.445 80.1146,-281.398 79.6018,-270.815 73.1144,-273.445"/>
</g>
<!-- Node5 -->
<g id="node5" class="node"><title>Node5</title>
<g id="a_node5"><a xlink:href="classgko_1_1log_1_1EnableLogging.html" target="_top" xlink:title="EnableLogging is a mixin which should be inherited by any class which wants to enable logging...">
<polygon fill="white" stroke="black" points="77.5,-202.5 77.5,-243.5 256.5,-243.5 256.5,-202.5 77.5,-202.5"/>
<text text-anchor="start" x="85.5" y="-231.5" font-family="Helvetica,sans-Serif" font-size="10.00">gko::log::EnableLogging</text>
<text text-anchor="start" x="85.5" y="-220.5" font-family="Helvetica,sans-Serif" font-size="10.00">&lt; ConcreteLoggable, Polymorphic</text>
<text text-anchor="middle" x="167" y="-209.5" font-family="Helvetica,sans-Serif" font-size="10.00">Base &gt;</text>
</a>
</g>
</g>
<!-- Node4&#45;&gt;Node5 -->
<g id="edge5" class="edge"><title>Node4&#45;&gt;Node5</title>
<path fill="none" stroke="midnightblue" d="M102.986,-274.903C114.613,-265.657 129.62,-253.724 142.182,-243.735"/>
<polygon fill="midnightblue" stroke="midnightblue" points="100.499,-272.408 94.8508,-281.372 104.856,-277.887 100.499,-272.408"/>
</g>
<!-- Node5&#45;&gt;Node3 -->
<g id="edge4" class="edge"><title>Node5&#45;&gt;Node3</title>
<path fill="none" stroke="orange" stroke-dasharray="5,2" d="M134.418,-195.967C117.203,-182.211 96.7525,-165.871 82.5263,-154.504"/>
<polygon fill="orange" stroke="orange" points="132.571,-198.971 142.568,-202.479 136.941,-193.502 132.571,-198.971"/>
<text text-anchor="middle" x="153" y="-176" font-family="Helvetica,sans-Serif" font-size="10.00"> &lt; Executor &gt;</text>
</g>
</g>
</svg>
