<?xml version="1.0" encoding="UTF-8" standalone="no"?>
<!DOCTYPE svg PUBLIC "-//W3C//DTD SVG 1.1//EN"
 "http://www.w3.org/Graphics/SVG/1.1/DTD/svg11.dtd">
<!-- Generated by graphviz version 2.38.0 (20140413.2041)
 -->
<!-- Title: gko::accessor::max_operaton&lt; Kind, FirstOperand, SecondOperand &gt; Pages: 1 -->
<svg width="691pt" height="84pt"
 viewBox="0.00 0.00 691.00 84.00" xmlns="http://www.w3.org/2000/svg" xmlns:xlink="http://www.w3.org/1999/xlink">
<g id="graph0" class="graph" transform="scale(1 1) rotate(0) translate(4 80)">
<title>gko::accessor::max_operaton&lt; Kind, FirstOperand, SecondOperand &gt;</title>
<polygon fill="white" stroke="none" points="-4,4 -4,-80 687,-80 687,4 -4,4"/>
<!-- Node1 -->
<g id="node1" class="node"><title>Node1</title>
<polygon fill="#bfbfbf" stroke="black" points="516,-11.5 516,-52.5 683,-52.5 683,-11.5 516,-11.5"/>
<text text-anchor="start" x="524" y="-40.5" font-family="Helvetica,sans-Serif" font-size="10.00">gko::accessor::max</text>
<text text-anchor="start" x="524" y="-29.5" font-family="Helvetica,sans-Serif" font-size="10.00">_operaton&lt; Kind, FirstOperand,</text>
<text text-anchor="middle" x="599.5" y="-18.5" font-family="Helvetica,sans-Serif" font-size="10.00"> SecondOperand &gt;</text>
</g>
<!-- Node2 -->
<g id="node2" class="node"><title>Node2</title>
<polygon fill="white" stroke="#bfbfbf" points="312,-0.5 312,-63.5 479,-63.5 479,-0.5 312,-0.5"/>
<text text-anchor="start" x="320" y="-51.5" font-family="Helvetica,sans-Serif" font-size="10.00">gko::detail::implement</text>
<text text-anchor="start" x="320" y="-40.5" font-family="Helvetica,sans-Serif" font-size="10.00">_binary_operation&lt; Kind,</text>
<text text-anchor="start" x="320" y="-29.5" font-family="Helvetica,sans-Serif" font-size="10.00"> FirstOperand, SecondOperand,</text>
<text text-anchor="start" x="320" y="-18.5" font-family="Helvetica,sans-Serif" font-size="10.00">::gko::accessor::detail::max</text>
<text text-anchor="middle" x="395.5" y="-7.5" font-family="Helvetica,sans-Serif" font-size="10.00">_operation &gt;</text>
</g>
<!-- Node2&#45;&gt;Node1 -->
<g id="edge1" class="edge"><title>Node2&#45;&gt;Node1</title>
<path fill="none" stroke="midnightblue" d="M489.518,-32C498.315,-32 507.194,-32 515.885,-32"/>
<polygon fill="midnightblue" stroke="midnightblue" points="489.244,-28.5001 479.244,-32 489.244,-35.5001 489.244,-28.5001"/>
</g>
<!-- Node3 -->
<g id="node3" class="node"><title>Node3</title>
<polygon fill="white" stroke="#bfbfbf" points="0,-6 0,-58 167,-58 167,-6 0,-6"/>
<text text-anchor="start" x="8" y="-46" font-family="Helvetica,sans-Serif" font-size="10.00">gko::detail::implement</text>
<text text-anchor="start" x="8" y="-35" font-family="Helvetica,sans-Serif" font-size="10.00">_binary_operation&lt; Kind,</text>
<text text-anchor="start" x="8" y="-24" font-family="Helvetica,sans-Serif" font-size="10.00"> FirstOperand, SecondOperand,</text>
<text text-anchor="middle" x="83.5" y="-13" font-family="Helvetica,sans-Serif" font-size="10.00"> Operation &gt;</text>
</g>
<!-- Node3&#45;&gt;Node2 -->
<g id="edge2" class="edge"><title>Node3&#45;&gt;Node2</title>
<path fill="none" stroke="orange" stroke-dasharray="5,2" d="M177.294,-32C220.043,-32 270.36,-32 311.794,-32"/>
<polygon fill="orange" stroke="orange" points="177.167,-28.5001 167.167,-32 177.167,-35.5001 177.167,-28.5001"/>
<text text-anchor="start" x="185" y="-68" font-family="Helvetica,sans-Serif" font-size="10.00"> &lt; Kind, FirstOperand,</text>
<text text-anchor="start" x="185" y="-57" font-family="Helvetica,sans-Serif" font-size="10.00"> SecondOperand,::gko</text>
<text text-anchor="start" x="185" y="-46" font-family="Helvetica,sans-Serif" font-size="10.00">::accessor::detail::max</text>
<text text-anchor="middle" x="239.5" y="-35" font-family="Helvetica,sans-Serif" font-size="10.00">_operation &gt;</text>
</g>
</g>
</svg>
