<?xml version="1.0" encoding="UTF-8" standalone="no"?>
<!DOCTYPE svg PUBLIC "-//W3C//DTD SVG 1.1//EN"
 "http://www.w3.org/Graphics/SVG/1.1/DTD/svg11.dtd">
<!-- Generated by graphviz version 2.38.0 (20140413.2041)
 -->
<!-- Title: gko::accessor::abs_operaton&lt; Operand &gt; Pages: 1 -->
<svg width="654pt" height="61pt"
 viewBox="0.00 0.00 654.00 61.00" xmlns="http://www.w3.org/2000/svg" xmlns:xlink="http://www.w3.org/1999/xlink">
<g id="graph0" class="graph" transform="scale(1 1) rotate(0) translate(4 57)">
<title>gko::accessor::abs_operaton&lt; Operand &gt;</title>
<polygon fill="white" stroke="none" points="-4,4 -4,-57 650,-57 650,4 -4,4"/>
<!-- Node1 -->
<g id="node1" class="node"><title>Node1</title>
<polygon fill="#bfbfbf" stroke="black" points="517,-11.5 517,-41.5 646,-41.5 646,-11.5 517,-11.5"/>
<text text-anchor="start" x="525" y="-29.5" font-family="Helvetica,sans-Serif" font-size="10.00">gko::accessor::abs</text>
<text text-anchor="middle" x="581.5" y="-18.5" font-family="Helvetica,sans-Serif" font-size="10.00">_operaton&lt; Operand &gt;</text>
</g>
<!-- Node2 -->
<g id="node2" class="node"><title>Node2</title>
<polygon fill="white" stroke="#bfbfbf" points="325,-0.5 325,-52.5 480,-52.5 480,-0.5 325,-0.5"/>
<text text-anchor="start" x="333" y="-40.5" font-family="Helvetica,sans-Serif" font-size="10.00">gko::detail::implement</text>
<text text-anchor="start" x="333" y="-29.5" font-family="Helvetica,sans-Serif" font-size="10.00">_unary_operation&lt; Operand,</text>
<text text-anchor="start" x="333" y="-18.5" font-family="Helvetica,sans-Serif" font-size="10.00">::gko::accessor::detail::</text>
<text text-anchor="middle" x="402.5" y="-7.5" font-family="Helvetica,sans-Serif" font-size="10.00">abs_operation &gt;</text>
</g>
<!-- Node2&#45;&gt;Node1 -->
<g id="edge1" class="edge"><title>Node2&#45;&gt;Node1</title>
<path fill="none" stroke="midnightblue" d="M490.195,-26.5C499.159,-26.5 508.147,-26.5 516.791,-26.5"/>
<polygon fill="midnightblue" stroke="midnightblue" points="490.105,-23.0001 480.105,-26.5 490.105,-30.0001 490.105,-23.0001"/>
</g>
<!-- Node3 -->
<g id="node3" class="node"><title>Node3</title>
<polygon fill="white" stroke="#bfbfbf" points="0,-6 0,-47 158,-47 158,-6 0,-6"/>
<text text-anchor="start" x="8" y="-35" font-family="Helvetica,sans-Serif" font-size="10.00">gko::detail::implement</text>
<text text-anchor="start" x="8" y="-24" font-family="Helvetica,sans-Serif" font-size="10.00">_unary_operation&lt; Accessor,</text>
<text text-anchor="middle" x="79" y="-13" font-family="Helvetica,sans-Serif" font-size="10.00"> Operation &gt;</text>
</g>
<!-- Node3&#45;&gt;Node2 -->
<g id="edge2" class="edge"><title>Node3&#45;&gt;Node2</title>
<path fill="none" stroke="orange" stroke-dasharray="5,2" d="M168.516,-26.5C217.537,-26.5 277.872,-26.5 324.859,-26.5"/>
<polygon fill="orange" stroke="orange" points="168.237,-23.0001 158.237,-26.5 168.237,-30.0001 168.237,-23.0001"/>
<text text-anchor="start" x="176" y="-40.5" font-family="Helvetica,sans-Serif" font-size="10.00"> &lt; Operand,::gko::accessor</text>
<text text-anchor="middle" x="241.5" y="-29.5" font-family="Helvetica,sans-Serif" font-size="10.00">::detail::abs_operation &gt;</text>
</g>
</g>
</svg>
