<?xml version="1.0" encoding="UTF-8" standalone="no"?>
<!DOCTYPE svg PUBLIC "-//W3C//DTD SVG 1.1//EN"
 "http://www.w3.org/Graphics/SVG/1.1/DTD/svg11.dtd">
<!-- Generated by graphviz version 2.38.0 (20140413.2041)
 -->
<!-- Title: gko::log::operation_data Pages: 1 -->
<svg width="220pt" height="220pt"
 viewBox="0.00 0.00 219.50 220.00" xmlns="http://www.w3.org/2000/svg" xmlns:xlink="http://www.w3.org/1999/xlink">
<g id="graph0" class="graph" transform="scale(1 1) rotate(0) translate(4 216)">
<title>gko::log::operation_data</title>
<polygon fill="white" stroke="none" points="-4,4 -4,-216 215.5,-216 215.5,4 -4,4"/>
<!-- Node1 -->
<g id="node1" class="node"><title>Node1</title>
<polygon fill="#bfbfbf" stroke="black" points="20,-0.5 20,-19.5 153,-19.5 153,-0.5 20,-0.5"/>
<text text-anchor="middle" x="86.5" y="-7.5" font-family="Helvetica,sans-Serif" font-size="10.00">gko::log::operation_data</text>
</g>
<!-- Node2 -->
<g id="node2" class="node"><title>Node2</title>
<g id="a_node2"><a xlink:href="classgko_1_1Operation.html" target="_top" xlink:title="Operations can be used to define functionalities whose implementations differ among devices...">
<polygon fill="white" stroke="black" points="0,-67.5 0,-86.5 87,-86.5 87,-67.5 0,-67.5"/>
<text text-anchor="middle" x="43.5" y="-74.5" font-family="Helvetica,sans-Serif" font-size="10.00">gko::Operation</text>
</a>
</g>
</g>
<!-- Node2&#45;&gt;Node1 -->
<g id="edge1" class="edge"><title>Node2&#45;&gt;Node1</title>
<path fill="none" stroke="#9a32cd" stroke-dasharray="5,2" d="M49.4526,-57.9406C52.0336,-51.3757 55.411,-44.0813 59.5,-38 64.0867,-31.1785 70.5648,-24.6307 76.0258,-19.6918"/>
<polygon fill="#9a32cd" stroke="#9a32cd" points="46.1498,-56.7824 46.0646,-67.3769 52.738,-59.1479 46.1498,-56.7824"/>
<text text-anchor="middle" x="84" y="-41" font-family="Helvetica,sans-Serif" font-size="10.00"> operation</text>
</g>
<!-- Node3 -->
<g id="node3" class="node"><title>Node3</title>
<g id="a_node3"><a xlink:href="classgko_1_1Executor.html" target="_top" xlink:title="The first step in using the Ginkgo library consists of creating an executor. ">
<polygon fill="white" stroke="black" points="105.5,-67.5 105.5,-86.5 187.5,-86.5 187.5,-67.5 105.5,-67.5"/>
<text text-anchor="middle" x="146.5" y="-74.5" font-family="Helvetica,sans-Serif" font-size="10.00">gko::Executor</text>
</a>
</g>
</g>
<!-- Node3&#45;&gt;Node1 -->
<g id="edge2" class="edge"><title>Node3&#45;&gt;Node1</title>
<path fill="none" stroke="#9a32cd" stroke-dasharray="5,2" d="M131.394,-59.6348C119.659,-46.9228 103.852,-29.7978 94.4637,-19.6273"/>
<polygon fill="#9a32cd" stroke="#9a32cd" points="129.053,-62.2597 138.408,-67.2338 134.197,-57.5118 129.053,-62.2597"/>
<text text-anchor="middle" x="132.5" y="-41" font-family="Helvetica,sans-Serif" font-size="10.00"> exec</text>
</g>
<!-- Node4 -->
<g id="node4" class="node"><title>Node4</title>
<g id="a_node4"><a xlink:href="classgko_1_1log_1_1EnableLogging.html" target="_top" xlink:title="gko::log::EnableLogging\l\&lt; Executor \&gt;">
<polygon fill="white" stroke="black" points="81.5,-124.5 81.5,-154.5 211.5,-154.5 211.5,-124.5 81.5,-124.5"/>
<text text-anchor="start" x="89.5" y="-142.5" font-family="Helvetica,sans-Serif" font-size="10.00">gko::log::EnableLogging</text>
<text text-anchor="middle" x="146.5" y="-131.5" font-family="Helvetica,sans-Serif" font-size="10.00">&lt; Executor &gt;</text>
</a>
</g>
</g>
<!-- Node4&#45;&gt;Node3 -->
<g id="edge3" class="edge"><title>Node4&#45;&gt;Node3</title>
<path fill="none" stroke="midnightblue" d="M146.5,-114.352C146.5,-104.513 146.5,-93.7753 146.5,-86.5399"/>
<polygon fill="midnightblue" stroke="midnightblue" points="143,-114.468 146.5,-124.468 150,-114.468 143,-114.468"/>
</g>
<!-- Node5 -->
<g id="node5" class="node"><title>Node5</title>
<g id="a_node5"><a xlink:href="classgko_1_1log_1_1Loggable.html" target="_top" xlink:title="Loggable class is an interface which should be implemented by classes wanting to support logging...">
<polygon fill="white" stroke="black" points="94.5,-192.5 94.5,-211.5 198.5,-211.5 198.5,-192.5 94.5,-192.5"/>
<text text-anchor="middle" x="146.5" y="-199.5" font-family="Helvetica,sans-Serif" font-size="10.00">gko::log::Loggable</text>
</a>
</g>
</g>
<!-- Node5&#45;&gt;Node4 -->
<g id="edge4" class="edge"><title>Node5&#45;&gt;Node4</title>
<path fill="none" stroke="midnightblue" d="M146.5,-182.215C146.5,-173.356 146.5,-162.958 146.5,-154.759"/>
<polygon fill="midnightblue" stroke="midnightblue" points="143,-182.332 146.5,-192.332 150,-182.332 143,-182.332"/>
</g>
</g>
</svg>
