<?xml version="1.0" encoding="UTF-8" standalone="no"?>
<!DOCTYPE svg PUBLIC "-//W3C//DTD SVG 1.1//EN"
 "http://www.w3.org/Graphics/SVG/1.1/DTD/svg11.dtd">
<!-- Generated by graphviz version 2.38.0 (20140413.2041)
 -->
<!-- Title: gko::preconditioner::Jacobi&lt; ValueType, IndexType &gt;::parameters_type Pages: 1 -->
<!--zoomable 178 -->
<svg id="main" version="1.1" xmlns="http://www.w3.org/2000/svg" xmlns:xlink="http://www.w3.org/1999/xlink" xml:space="preserve" onload="init(evt)">
<style type="text/css"><![CDATA[
.edge:hover path { stroke: red; }
.edge:hover polygon { stroke: red; fill: red; }
]]></style>
<script type="text/javascript"><![CDATA[
var edges = document.getElementsByTagName('g');
if (edges && edges.length) {
  for (var i=0;i<edges.length;i++) {
    if (edges[i].id.substr(0,4)=='edge') {
      edges[i].setAttribute('class','edge');
    }
  }
}
]]></script>
        <defs>
                <circle id="rim" cx="0" cy="0" r="7"/>
                <circle id="rim2" cx="0" cy="0" r="3.5"/>
                <g id="zoomPlus">
                        <use xlink:href="#rim" fill="#404040">
                                <set attributeName="fill" to="#808080" begin="zoomplus.mouseover" end="zoomplus.mouseout"/>
                        </use>
                        <path d="M-4,0h8M0,-4v8" fill="none" stroke="white" stroke-width="1.5" pointer-events="none"/>
                </g>
                <g id="zoomMin">
                        <use xlink:href="#rim" fill="#404040">
                                <set attributeName="fill" to="#808080" begin="zoomminus.mouseover" end="zoomminus.mouseout"/>
                        </use>
                        <path d="M-4,0h8" fill="none" stroke="white" stroke-width="1.5" pointer-events="none"/>
                </g>
                <g id="dirArrow">
                        <path fill="none" stroke="white" stroke-width="1.5" d="M0,-3.0v7 M-2.5,-0.5L0,-3.0L2.5,-0.5"/>
                </g>
               <g id="resetDef">
                       <use xlink:href="#rim2" fill="#404040">
                               <set attributeName="fill" to="#808080" begin="reset.mouseover" end="reset.mouseout"/>
                       </use>
               </g>
        </defs>

<script type="text/javascript">
var viewWidth = 1157;
var viewHeight = 178;
var sectionId = 'dynsection-0';
</script>
<script xlink:href="svgpan.js"/>
<svg id="graph" class="graph">
<g id="viewport">
<title>gko::preconditioner::Jacobi&lt; ValueType, IndexType &gt;::parameters_type</title>
<polygon fill="white" stroke="none" points="-4,4 -4,-173.5 1153,-173.5 1153,4 -4,4"/>
<!-- Node1 -->
<g id="node1" class="node"><title>Node1</title>
<polygon fill="#bfbfbf" stroke="black" points="983,-77 983,-118 1149,-118 1149,-77 983,-77"/>
<text text-anchor="start" x="991" y="-106" font-family="Helvetica,sans-Serif" font-size="10.00">gko::preconditioner</text>
<text text-anchor="start" x="991" y="-95" font-family="Helvetica,sans-Serif" font-size="10.00">::Jacobi&lt; ValueType,</text>
<text text-anchor="middle" x="1066" y="-84" font-family="Helvetica,sans-Serif" font-size="10.00"> IndexType &gt;::parameters_type</text>
</g>
<!-- Node2 -->
<g id="node2" class="node"><title>Node2</title>
<g id="a_node2"><a xlink:href="structgko_1_1enable__parameters__type.html" target="_top" xlink:title="gko::enable_parameters\l_type\&lt; parameters_type,\l Factory \&gt;">
<polygon fill="white" stroke="black" points="684,-127 684,-168 824,-168 824,-127 684,-127"/>
<text text-anchor="start" x="692" y="-156" font-family="Helvetica,sans-Serif" font-size="10.00">gko::enable_parameters</text>
<text text-anchor="start" x="692" y="-145" font-family="Helvetica,sans-Serif" font-size="10.00">_type&lt; parameters_type,</text>
<text text-anchor="middle" x="754" y="-134" font-family="Helvetica,sans-Serif" font-size="10.00"> Factory &gt;</text>
</a>
</g>
</g>
<!-- Node2&#45;&gt;Node1 -->
<g id="edge1" class="edge"><title>Node2&#45;&gt;Node1</title>
<path fill="none" stroke="midnightblue" d="M834.301,-134.709C879.807,-127.37 936.851,-118.169 982.829,-110.753"/>
<polygon fill="midnightblue" stroke="midnightblue" points="833.499,-131.294 824.184,-136.341 834.614,-138.204 833.499,-131.294"/>
</g>
<!-- Node3 -->
<g id="node3" class="node"><title>Node3</title>
<g id="a_node3"><a xlink:href="structgko_1_1enable__parameters__type.html" target="_top" xlink:title="The enable_parameters_type mixin is used to create a base implementation of the factory parameters st...">
<polygon fill="white" stroke="black" points="313,-127 313,-168 490,-168 490,-127 313,-127"/>
<text text-anchor="start" x="321" y="-156" font-family="Helvetica,sans-Serif" font-size="10.00">gko::enable_parameters</text>
<text text-anchor="start" x="321" y="-145" font-family="Helvetica,sans-Serif" font-size="10.00">_type&lt; ConcreteParametersType,</text>
<text text-anchor="middle" x="401.5" y="-134" font-family="Helvetica,sans-Serif" font-size="10.00"> Factory &gt;</text>
</a>
</g>
</g>
<!-- Node3&#45;&gt;Node2 -->
<g id="edge2" class="edge"><title>Node3&#45;&gt;Node2</title>
<path fill="none" stroke="orange" stroke-dasharray="5,2" d="M500.393,-147.5C558.761,-147.5 631.451,-147.5 683.85,-147.5"/>
<polygon fill="orange" stroke="orange" points="500.042,-144 490.042,-147.5 500.042,-151 500.042,-144"/>
<text text-anchor="start" x="528" y="-161.5" font-family="Helvetica,sans-Serif" font-size="10.00"> &lt; parameters_type,</text>
<text text-anchor="middle" x="578" y="-150.5" font-family="Helvetica,sans-Serif" font-size="10.00"> Factory &gt;</text>
</g>
<!-- Node4 -->
<g id="node4" class="node"><title>Node4</title>
<polygon fill="white" stroke="#bfbfbf" points="666,-8.5 666,-60.5 842,-60.5 842,-8.5 666,-8.5"/>
<text text-anchor="start" x="674" y="-48.5" font-family="Helvetica,sans-Serif" font-size="10.00">gko::preconditioner</text>
<text text-anchor="start" x="674" y="-37.5" font-family="Helvetica,sans-Serif" font-size="10.00">::Jacobi&lt; ValueType,</text>
<text text-anchor="start" x="674" y="-26.5" font-family="Helvetica,sans-Serif" font-size="10.00"> IndexType &gt;::parameters</text>
<text text-anchor="middle" x="754" y="-15.5" font-family="Helvetica,sans-Serif" font-size="10.00">_type::storage_optimization_type</text>
</g>
<!-- Node4&#45;&gt;Node1 -->
<g id="edge3" class="edge"><title>Node4&#45;&gt;Node1</title>
<path fill="none" stroke="#9a32cd" stroke-dasharray="5,2" d="M852.011,-50.6771C887.644,-56.9813 928.25,-64.5902 965,-72.5 971.473,-73.8932 978.164,-75.4059 984.874,-76.9745"/>
<polygon fill="#9a32cd" stroke="#9a32cd" points="852.555,-47.2191 842.099,-48.9344 851.342,-54.1134 852.555,-47.2191"/>
<text text-anchor="middle" x="912.5" y="-75.5" font-family="Helvetica,sans-Serif" font-size="10.00"> storage_optimization</text>
</g>
<!-- Node5 -->
<g id="node5" class="node"><title>Node5</title>
<g id="a_node5"><a xlink:href="classgko_1_1Array.html" target="_top" xlink:title="gko::Array\&lt; gko::precision\l_reduction \&gt;">
<polygon fill="white" stroke="black" points="330,-0.5 330,-30.5 473,-30.5 473,-0.5 330,-0.5"/>
<text text-anchor="start" x="338" y="-18.5" font-family="Helvetica,sans-Serif" font-size="10.00">gko::Array&lt; gko::precision</text>
<text text-anchor="middle" x="401.5" y="-7.5" font-family="Helvetica,sans-Serif" font-size="10.00">_reduction &gt;</text>
</a>
</g>
</g>
<!-- Node5&#45;&gt;Node4 -->
<g id="edge4" class="edge"><title>Node5&#45;&gt;Node4</title>
<path fill="none" stroke="#9a32cd" stroke-dasharray="5,2" d="M483.173,-18.4792C531.088,-20.4071 593.034,-23.1755 648,-26.5 653.84,-26.8532 659.86,-27.2431 665.924,-27.655"/>
<polygon fill="#9a32cd" stroke="#9a32cd" points="483.301,-14.9815 473.169,-18.0806 483.022,-21.976 483.301,-14.9815"/>
<text text-anchor="middle" x="578" y="-29.5" font-family="Helvetica,sans-Serif" font-size="10.00"> block_wise</text>
</g>
<!-- Node6 -->
<g id="node6" class="node"><title>Node6</title>
<g id="a_node6"><a xlink:href="classgko_1_1Array.html" target="_top" xlink:title="An Array is a container which encapsulates fixed&#45;sized arrays, stored on the Executor tied to the Arr...">
<polygon fill="white" stroke="black" points="0,-59 0,-78 135,-78 135,-59 0,-59"/>
<text text-anchor="middle" x="67.5" y="-66" font-family="Helvetica,sans-Serif" font-size="10.00">gko::Array&lt; ValueType &gt;</text>
</a>
</g>
</g>
<!-- Node6&#45;&gt;Node5 -->
<g id="edge5" class="edge"><title>Node6&#45;&gt;Node5</title>
<path fill="none" stroke="orange" stroke-dasharray="5,2" d="M138.114,-57.3869C194.35,-48.4095 273.167,-35.8272 329.714,-26.8001"/>
<polygon fill="orange" stroke="orange" points="137.562,-53.9307 128.238,-58.9635 138.665,-60.8432 137.562,-53.9307"/>
<text text-anchor="middle" x="224" y="-57.5" font-family="Helvetica,sans-Serif" font-size="10.00"> &lt; gko::precision_reduction &gt;</text>
</g>
<!-- Node8 -->
<g id="node8" class="node"><title>Node8</title>
<g id="a_node8"><a xlink:href="classgko_1_1Array.html" target="_top" xlink:title="gko::Array\&lt; index_type \&gt;">
<polygon fill="white" stroke="black" points="508,-88 508,-107 648,-107 648,-88 508,-88"/>
<text text-anchor="middle" x="578" y="-95" font-family="Helvetica,sans-Serif" font-size="10.00">gko::Array&lt; index_type &gt;</text>
</a>
</g>
</g>
<!-- Node6&#45;&gt;Node8 -->
<g id="edge8" class="edge"><title>Node6&#45;&gt;Node8</title>
<path fill="none" stroke="orange" stroke-dasharray="5,2" d="M145.422,-72.8869C243.904,-78.5034 413.093,-88.1523 507.736,-93.5498"/>
<polygon fill="orange" stroke="orange" points="145.422,-69.3813 135.239,-72.3061 145.023,-76.3699 145.422,-69.3813"/>
<text text-anchor="middle" x="224" y="-84.5" font-family="Helvetica,sans-Serif" font-size="10.00"> &lt; index_type &gt;</text>
</g>
<!-- Node7 -->
<g id="node7" class="node"><title>Node7</title>
<g id="a_node7"><a xlink:href="classgko_1_1precision__reduction.html" target="_top" xlink:title="This class is used to encode storage precisions of low precision algorithms. ">
<polygon fill="white" stroke="black" points="335,-50 335,-69 468,-69 468,-50 335,-50"/>
<text text-anchor="middle" x="401.5" y="-57" font-family="Helvetica,sans-Serif" font-size="10.00">gko::precision_reduction</text>
</a>
</g>
</g>
<!-- Node7&#45;&gt;Node4 -->
<g id="edge6" class="edge"><title>Node7&#45;&gt;Node4</title>
<path fill="none" stroke="#9a32cd" stroke-dasharray="5,2" d="M478.085,-54.1088C533.29,-50.1712 608.26,-44.8238 665.967,-40.7078"/>
<polygon fill="#9a32cd" stroke="#9a32cd" points="477.741,-50.6243 468.015,-54.827 478.239,-57.6066 477.741,-50.6243"/>
<text text-anchor="middle" x="578" y="-54.5" font-family="Helvetica,sans-Serif" font-size="10.00"> of_all_blocks</text>
</g>
<!-- Node8&#45;&gt;Node1 -->
<g id="edge7" class="edge"><title>Node8&#45;&gt;Node1</title>
<path fill="none" stroke="#9a32cd" stroke-dasharray="5,2" d="M658.192,-97.5C747.526,-97.5 892.133,-97.5 982.718,-97.5"/>
<polygon fill="#9a32cd" stroke="#9a32cd" points="658.116,-94.0001 648.116,-97.5 658.116,-101 658.116,-94.0001"/>
<text text-anchor="middle" x="754" y="-100.5" font-family="Helvetica,sans-Serif" font-size="10.00"> block_pointers</text>
</g>
</g>
</svg>
        <g id="navigator" transform="translate(0 0)" fill="#404254">
                <rect fill="#f2f5e9" fill-opacity="0.5" stroke="#606060" stroke-width=".5" x="0" y="0" width="60" height="60"/>
                <use id="zoomplus" xlink:href="#zoomPlus" x="17" y="9" onmousedown="handleZoom(evt,'in')"/>
                <use id="zoomminus" xlink:href="#zoomMin" x="42" y="9" onmousedown="handleZoom(evt,'out')"/>
                <use id="reset" xlink:href="#resetDef" x="30" y="36" onmousedown="handleReset()"/>
                <g id="arrowUp" xlink:href="#dirArrow" transform="translate(30 24)" onmousedown="handlePan(0,-1)">
                  <use xlink:href="#rim" fill="#404040">
                        <set attributeName="fill" to="#808080" begin="arrowUp.mouseover" end="arrowUp.mouseout"/>
                  </use>
                  <path fill="none" stroke="white" stroke-width="1.5" d="M0,-3.0v7 M-2.5,-0.5L0,-3.0L2.5,-0.5"/>
                </g>
                <g id="arrowRight" xlink:href="#dirArrow" transform="rotate(90) translate(36 -43)" onmousedown="handlePan(1,0)">
                  <use xlink:href="#rim" fill="#404040">
                        <set attributeName="fill" to="#808080" begin="arrowRight.mouseover" end="arrowRight.mouseout"/>
                  </use>
                  <path fill="none" stroke="white" stroke-width="1.5" d="M0,-3.0v7 M-2.5,-0.5L0,-3.0L2.5,-0.5"/>
                </g>
                <g id="arrowDown" xlink:href="#dirArrow" transform="rotate(180) translate(-30 -48)" onmousedown="handlePan(0,1)">
                  <use xlink:href="#rim" fill="#404040">
                        <set attributeName="fill" to="#808080" begin="arrowDown.mouseover" end="arrowDown.mouseout"/>
                  </use>
                  <path fill="none" stroke="white" stroke-width="1.5" d="M0,-3.0v7 M-2.5,-0.5L0,-3.0L2.5,-0.5"/>
                </g>
                <g id="arrowLeft" xlink:href="#dirArrow" transform="rotate(270) translate(-36 17)" onmousedown="handlePan(-1,0)">
                  <use xlink:href="#rim" fill="#404040">
                        <set attributeName="fill" to="#808080" begin="arrowLeft.mouseover" end="arrowLeft.mouseout"/>
                  </use>
                  <path fill="none" stroke="white" stroke-width="1.5" d="M0,-3.0v7 M-2.5,-0.5L0,-3.0L2.5,-0.5"/>
                </g>
        </g>
        <svg viewBox="0 0 15 15" width="100%" height="30px" preserveAspectRatio="xMaxYMin meet">
         <g id="arrow_out" transform="scale(0.3 0.3)">
          <a xlink:href="structgko_1_1preconditioner_1_1Jacobi_1_1parameters__type__coll__graph_org.svg" target="_base">
           <rect id="button" ry="5" rx="5" y="6" x="6" height="38" width="38"
                fill="#f2f5e9" fill-opacity="0.5" stroke="#606060" stroke-width="1.0"/>
           <path id="arrow"
             d="M 11.500037,31.436501 C 11.940474,20.09759 22.043105,11.32322 32.158766,21.979434 L 37.068811,17.246167 C 37.068811,17.246167 37.088388,32 37.088388,32 L 22.160133,31.978069 C 22.160133,31.978069 26.997745,27.140456 26.997745,27.140456 C 18.528582,18.264221 13.291696,25.230495 11.500037,31.436501 z"
             style="fill:#404040;"/>
          </a>
         </g>
        </svg>
</svg>
