<?xml version="1.0" encoding="UTF-8" standalone="no"?>
<!DOCTYPE svg PUBLIC "-//W3C//DTD SVG 1.1//EN"
 "http://www.w3.org/Graphics/SVG/1.1/DTD/svg11.dtd">
<!-- Generated by graphviz version 2.40.1 (20161225.0304)
 -->
<!-- Title: gko::solver::Ir&lt; ValueType &gt;::parameters_type Pages: 1 -->
<svg width="794pt" height="101pt"
 viewBox="0.00 0.00 794.00 100.50" xmlns="http://www.w3.org/2000/svg" xmlns:xlink="http://www.w3.org/1999/xlink">
<g id="graph0" class="graph" transform="scale(1 1) rotate(0) translate(4 96.5)">
<title>gko::solver::Ir&lt; ValueType &gt;::parameters_type</title>
<polygon fill="#ffffff" stroke="transparent" points="-4,4 -4,-96.5 790,-96.5 790,4 -4,4"/>
<!-- Node0 -->
<g id="node1" class="node">
<title>Node0</title>
<polygon fill="#bfbfbf" stroke="#000000" points="642,-27.5 642,-57.5 786,-57.5 786,-27.5 642,-27.5"/>
<text text-anchor="start" x="650" y="-45.5" font-family="Helvetica,sans-Serif" font-size="10.00" fill="#000000">gko::solver::Ir&lt; ValueType</text>
<text text-anchor="middle" x="714" y="-34.5" font-family="Helvetica,sans-Serif" font-size="10.00" fill="#000000"> &gt;::parameters_type</text>
</g>
<!-- Node1 -->
<g id="node2" class="node">
<title>Node1</title>
<g id="a_node2"><a xlink:href="structgko_1_1enable__parameters__type.html" target="_top" xlink:title="gko::enable_parameters\l_type\&lt; parameters_type,\l Factory \&gt;">
<polygon fill="#ffffff" stroke="#000000" points="398.5,-50 398.5,-91 539.5,-91 539.5,-50 398.5,-50"/>
<text text-anchor="start" x="406.5" y="-79" font-family="Helvetica,sans-Serif" font-size="10.00" fill="#000000">gko::enable_parameters</text>
<text text-anchor="start" x="406.5" y="-68" font-family="Helvetica,sans-Serif" font-size="10.00" fill="#000000">_type&lt; parameters_type,</text>
<text text-anchor="middle" x="469" y="-57" font-family="Helvetica,sans-Serif" font-size="10.00" fill="#000000"> Factory &gt;</text>
</a>
</g>
</g>
<!-- Node1&#45;&gt;Node0 -->
<g id="edge1" class="edge">
<title>Node1&#45;&gt;Node0</title>
<path fill="none" stroke="#191970" d="M549.4814,-61.3021C579.271,-57.8976 612.8328,-54.062 641.837,-50.7472"/>
<polygon fill="#191970" stroke="#191970" points="549.0733,-57.8259 539.5355,-62.4388 549.8682,-64.7806 549.0733,-57.8259"/>
</g>
<!-- Node2 -->
<g id="node3" class="node">
<title>Node2</title>
<g id="a_node3"><a xlink:href="structgko_1_1enable__parameters__type.html" target="_top" xlink:title="The enable_parameters_type mixin is used to create a base implementation of the factory parameters st...">
<polygon fill="#ffffff" stroke="#000000" points="0,-50 0,-91 179,-91 179,-50 0,-50"/>
<text text-anchor="start" x="8" y="-79" font-family="Helvetica,sans-Serif" font-size="10.00" fill="#000000">gko::enable_parameters</text>
<text text-anchor="start" x="8" y="-68" font-family="Helvetica,sans-Serif" font-size="10.00" fill="#000000">_type&lt; ConcreteParametersType,</text>
<text text-anchor="middle" x="89.5" y="-57" font-family="Helvetica,sans-Serif" font-size="10.00" fill="#000000"> Factory &gt;</text>
</a>
</g>
</g>
<!-- Node2&#45;&gt;Node1 -->
<g id="edge2" class="edge">
<title>Node2&#45;&gt;Node1</title>
<path fill="none" stroke="#ffa500" stroke-dasharray="5,2" d="M189.81,-70.5C255.4799,-70.5 339.6818,-70.5 398.3644,-70.5"/>
<polygon fill="#ffa500" stroke="#ffa500" points="189.4362,-67.0001 179.4362,-70.5 189.4362,-74.0001 189.4362,-67.0001"/>
<text text-anchor="start" x="224" y="-84.5" font-family="Helvetica,sans-Serif" font-size="10.00" fill="#000000"> &lt; parameters_type,</text>
<text text-anchor="middle" x="274.5" y="-73.5" font-family="Helvetica,sans-Serif" font-size="10.00" fill="#000000"> Factory &gt;</text>
</g>
<!-- Node3 -->
<g id="node4" class="node">
<title>Node3</title>
<polygon fill="#ffffff" stroke="#bfbfbf" points="370,-.5 370,-30.5 568,-30.5 568,-.5 370,-.5"/>
<text text-anchor="start" x="378" y="-18.5" font-family="Helvetica,sans-Serif" font-size="10.00" fill="#000000">std::vector&lt; std::shared</text>
<text text-anchor="middle" x="469" y="-7.5" font-family="Helvetica,sans-Serif" font-size="10.00" fill="#000000">_ptr&lt; const gko::AbstractFactory &gt; &gt;</text>
</g>
<!-- Node3&#45;&gt;Node0 -->
<g id="edge3" class="edge">
<title>Node3&#45;&gt;Node0</title>
<path fill="none" stroke="#9a32cd" stroke-dasharray="5,2" d="M578.4243,-27.559C599.8459,-29.9198 621.8071,-32.34 641.6472,-34.5264"/>
<polygon fill="#9a32cd" stroke="#9a32cd" points="578.6209,-24.0596 568.2977,-26.443 577.8541,-31.0174 578.6209,-24.0596"/>
<text text-anchor="middle" x="605" y="-35.5" font-family="Helvetica,sans-Serif" font-size="10.00" fill="#000000"> criteria</text>
</g>
<!-- Node4 -->
<g id="node5" class="node">
<title>Node4</title>
<g id="a_node5"><a xlink:title="STL class. ">
<polygon fill="#ffffff" stroke="#bfbfbf" points="41,-6 41,-25 138,-25 138,-6 41,-6"/>
<text text-anchor="middle" x="89.5" y="-13" font-family="Helvetica,sans-Serif" font-size="10.00" fill="#000000">std::vector&lt; T &gt;</text>
</a>
</g>
</g>
<!-- Node4&#45;&gt;Node3 -->
<g id="edge4" class="edge">
<title>Node4&#45;&gt;Node3</title>
<path fill="none" stroke="#ffa500" stroke-dasharray="5,2" d="M148.6138,-15.5C207.7109,-15.5 299.6605,-15.5 369.9239,-15.5"/>
<polygon fill="#ffa500" stroke="#ffa500" points="148.3361,-12.0001 138.3361,-15.5 148.336,-19.0001 148.3361,-12.0001"/>
<text text-anchor="start" x="197" y="-29.5" font-family="Helvetica,sans-Serif" font-size="10.00" fill="#000000"> &lt; std::shared_ptr&lt;</text>
<text text-anchor="middle" x="274.5" y="-18.5" font-family="Helvetica,sans-Serif" font-size="10.00" fill="#000000"> const gko::AbstractFactory &gt; &gt;</text>
</g>
</g>
</svg>
