<?xml version="1.0" encoding="UTF-8" standalone="no"?>
<!DOCTYPE svg PUBLIC "-//W3C//DTD SVG 1.1//EN"
 "http://www.w3.org/Graphics/SVG/1.1/DTD/svg11.dtd">
<!-- Generated by graphviz version 2.40.1 (20161225.0304)
 -->
<!-- Title: gko::accessor::bitwise_and&lt; Kind, FirstOperand, SecondOperand &gt; Pages: 1 -->
<svg width="752pt" height="68pt"
 viewBox="0.00 0.00 752.00 67.50" xmlns="http://www.w3.org/2000/svg" xmlns:xlink="http://www.w3.org/1999/xlink">
<g id="graph0" class="graph" transform="scale(1 1) rotate(0) translate(4 63.5)">
<title>gko::accessor::bitwise_and&lt; Kind, FirstOperand, SecondOperand &gt;</title>
<polygon fill="#ffffff" stroke="transparent" points="-4,4 -4,-63.5 748,-63.5 748,4 -4,4"/>
<!-- Node0 -->
<g id="node1" class="node">
<title>Node0</title>
<polygon fill="#bfbfbf" stroke="#000000" points="601,-6 601,-47 744,-47 744,-6 601,-6"/>
<text text-anchor="start" x="609" y="-35" font-family="Helvetica,sans-Serif" font-size="10.00" fill="#000000">gko::accessor::bitwise</text>
<text text-anchor="start" x="609" y="-24" font-family="Helvetica,sans-Serif" font-size="10.00" fill="#000000">_and&lt; Kind, FirstOperand,</text>
<text text-anchor="middle" x="672.5" y="-13" font-family="Helvetica,sans-Serif" font-size="10.00" fill="#000000"> SecondOperand &gt;</text>
</g>
<!-- Node1 -->
<g id="node2" class="node">
<title>Node1</title>
<polygon fill="#ffffff" stroke="#bfbfbf" points="362,-.5 362,-52.5 564,-52.5 564,-.5 362,-.5"/>
<text text-anchor="start" x="370" y="-40.5" font-family="Helvetica,sans-Serif" font-size="10.00" fill="#000000">gko::detail::implement</text>
<text text-anchor="start" x="370" y="-29.5" font-family="Helvetica,sans-Serif" font-size="10.00" fill="#000000">_binary_operation&lt; Kind,</text>
<text text-anchor="start" x="370" y="-18.5" font-family="Helvetica,sans-Serif" font-size="10.00" fill="#000000"> FirstOperand, SecondOperand,</text>
<text text-anchor="middle" x="463" y="-7.5" font-family="Helvetica,sans-Serif" font-size="10.00" fill="#000000"> ::gko::accessor::detail::bitwise_and &gt;</text>
</g>
<!-- Node1&#45;&gt;Node0 -->
<g id="edge1" class="edge">
<title>Node1&#45;&gt;Node0</title>
<path fill="none" stroke="#191970" d="M574.2834,-26.5C583.3195,-26.5 592.2906,-26.5 600.9262,-26.5"/>
<polygon fill="#191970" stroke="#191970" points="574.0681,-23.0001 564.0681,-26.5 574.068,-30.0001 574.0681,-23.0001"/>
</g>
<!-- Node2 -->
<g id="node3" class="node">
<title>Node2</title>
<polygon fill="#ffffff" stroke="#bfbfbf" points="0,-.5 0,-52.5 167,-52.5 167,-.5 0,-.5"/>
<text text-anchor="start" x="8" y="-40.5" font-family="Helvetica,sans-Serif" font-size="10.00" fill="#000000">gko::detail::implement</text>
<text text-anchor="start" x="8" y="-29.5" font-family="Helvetica,sans-Serif" font-size="10.00" fill="#000000">_binary_operation&lt; Kind,</text>
<text text-anchor="start" x="8" y="-18.5" font-family="Helvetica,sans-Serif" font-size="10.00" fill="#000000"> FirstOperand, SecondOperand,</text>
<text text-anchor="middle" x="83.5" y="-7.5" font-family="Helvetica,sans-Serif" font-size="10.00" fill="#000000"> Operation &gt;</text>
</g>
<!-- Node2&#45;&gt;Node1 -->
<g id="edge2" class="edge">
<title>Node2&#45;&gt;Node1</title>
<path fill="none" stroke="#ffa500" stroke-dasharray="5,2" d="M177.5331,-26.5C233.567,-26.5 304.6881,-26.5 361.923,-26.5"/>
<polygon fill="#ffa500" stroke="#ffa500" points="177.2527,-23.0001 167.2527,-26.5 177.2527,-30.0001 177.2527,-23.0001"/>
<text text-anchor="start" x="185" y="-51.5" font-family="Helvetica,sans-Serif" font-size="10.00" fill="#000000"> &lt; Kind, FirstOperand,</text>
<text text-anchor="start" x="185" y="-40.5" font-family="Helvetica,sans-Serif" font-size="10.00" fill="#000000"> SecondOperand, ::gko</text>
<text text-anchor="middle" x="264.5" y="-29.5" font-family="Helvetica,sans-Serif" font-size="10.00" fill="#000000">::accessor::detail::bitwise_and &gt;</text>
</g>
</g>
</svg>
