<?xml version="1.0" encoding="UTF-8" standalone="no"?>
<!DOCTYPE svg PUBLIC "-//W3C//DTD SVG 1.1//EN"
 "http://www.w3.org/Graphics/SVG/1.1/DTD/svg11.dtd">
<!-- Generated by graphviz version 2.38.0 (20140413.2041)
 -->
<!-- Title: gko::accessor::not_equal&lt; Kind, FirstOperand, SecondOperand &gt; Pages: 1 -->
<svg width="689pt" height="79pt"
 viewBox="0.00 0.00 689.00 78.50" xmlns="http://www.w3.org/2000/svg" xmlns:xlink="http://www.w3.org/1999/xlink">
<g id="graph0" class="graph" transform="scale(1 1) rotate(0) translate(4 74.5)">
<title>gko::accessor::not_equal&lt; Kind, FirstOperand, SecondOperand &gt;</title>
<polygon fill="white" stroke="none" points="-4,4 -4,-74.5 685,-74.5 685,4 -4,4"/>
<!-- Node1 -->
<g id="node1" class="node"><title>Node1</title>
<polygon fill="#bfbfbf" stroke="black" points="532,-6 532,-47 681,-47 681,-6 532,-6"/>
<text text-anchor="start" x="540" y="-35" font-family="Helvetica,sans-Serif" font-size="10.00">gko::accessor::not</text>
<text text-anchor="start" x="540" y="-24" font-family="Helvetica,sans-Serif" font-size="10.00">_equal&lt; Kind, FirstOperand,</text>
<text text-anchor="middle" x="606.5" y="-13" font-family="Helvetica,sans-Serif" font-size="10.00"> SecondOperand &gt;</text>
</g>
<!-- Node2 -->
<g id="node2" class="node"><title>Node2</title>
<polygon fill="white" stroke="#bfbfbf" points="310,-0.5 310,-52.5 495,-52.5 495,-0.5 310,-0.5"/>
<text text-anchor="start" x="318" y="-40.5" font-family="Helvetica,sans-Serif" font-size="10.00">gko::detail::implement</text>
<text text-anchor="start" x="318" y="-29.5" font-family="Helvetica,sans-Serif" font-size="10.00">_binary_operation&lt; Kind,</text>
<text text-anchor="start" x="318" y="-18.5" font-family="Helvetica,sans-Serif" font-size="10.00"> FirstOperand, SecondOperand,</text>
<text text-anchor="middle" x="402.5" y="-7.5" font-family="Helvetica,sans-Serif" font-size="10.00">::gko::accessor::detail::not_equal &gt;</text>
</g>
<!-- Node2&#45;&gt;Node1 -->
<g id="edge1" class="edge"><title>Node2&#45;&gt;Node1</title>
<path fill="none" stroke="midnightblue" d="M505.175,-26.5C514.16,-26.5 523.137,-26.5 531.823,-26.5"/>
<polygon fill="midnightblue" stroke="midnightblue" points="505.044,-23.0001 495.044,-26.5 505.044,-30.0001 505.044,-23.0001"/>
</g>
<!-- Node3 -->
<g id="node3" class="node"><title>Node3</title>
<polygon fill="white" stroke="#bfbfbf" points="0,-0.5 0,-52.5 167,-52.5 167,-0.5 0,-0.5"/>
<text text-anchor="start" x="8" y="-40.5" font-family="Helvetica,sans-Serif" font-size="10.00">gko::detail::implement</text>
<text text-anchor="start" x="8" y="-29.5" font-family="Helvetica,sans-Serif" font-size="10.00">_binary_operation&lt; Kind,</text>
<text text-anchor="start" x="8" y="-18.5" font-family="Helvetica,sans-Serif" font-size="10.00"> FirstOperand, SecondOperand,</text>
<text text-anchor="middle" x="83.5" y="-7.5" font-family="Helvetica,sans-Serif" font-size="10.00"> Operation &gt;</text>
</g>
<!-- Node3&#45;&gt;Node2 -->
<g id="edge2" class="edge"><title>Node3&#45;&gt;Node2</title>
<path fill="none" stroke="orange" stroke-dasharray="5,2" d="M177.538,-26.5C219.27,-26.5 268.346,-26.5 309.906,-26.5"/>
<polygon fill="orange" stroke="orange" points="177.374,-23.0001 167.374,-26.5 177.374,-30.0001 177.374,-23.0001"/>
<text text-anchor="start" x="185" y="-62.5" font-family="Helvetica,sans-Serif" font-size="10.00"> &lt; Kind, FirstOperand,</text>
<text text-anchor="start" x="185" y="-51.5" font-family="Helvetica,sans-Serif" font-size="10.00"> SecondOperand,::gko</text>
<text text-anchor="start" x="185" y="-40.5" font-family="Helvetica,sans-Serif" font-size="10.00">::accessor::detail::not</text>
<text text-anchor="middle" x="238.5" y="-29.5" font-family="Helvetica,sans-Serif" font-size="10.00">_equal &gt;</text>
</g>
</g>
</svg>
