<?xml version="1.0" encoding="UTF-8" standalone="no"?>
<!DOCTYPE svg PUBLIC "-//W3C//DTD SVG 1.1//EN"
 "http://www.w3.org/Graphics/SVG/1.1/DTD/svg11.dtd">
<!-- Generated by graphviz version 2.38.0 (20140413.2041)
 -->
<!-- Title: gko::stop::Combined::parameters_type Pages: 1 -->
<svg width="761pt" height="100pt"
 viewBox="0.00 0.00 761.00 99.50" xmlns="http://www.w3.org/2000/svg" xmlns:xlink="http://www.w3.org/1999/xlink">
<g id="graph0" class="graph" transform="scale(1 1) rotate(0) translate(4 95.5)">
<title>gko::stop::Combined::parameters_type</title>
<polygon fill="white" stroke="none" points="-4,4 -4,-95.5 757,-95.5 757,4 -4,4"/>
<!-- Node1 -->
<g id="node1" class="node"><title>Node1</title>
<polygon fill="#bfbfbf" stroke="black" points="637,-30.5 637,-60.5 753,-60.5 753,-30.5 637,-30.5"/>
<text text-anchor="start" x="645" y="-48.5" font-family="Helvetica,sans-Serif" font-size="10.00">gko::stop::Combined</text>
<text text-anchor="middle" x="695" y="-37.5" font-family="Helvetica,sans-Serif" font-size="10.00">::parameters_type</text>
</g>
<!-- Node2 -->
<g id="node2" class="node"><title>Node2</title>
<g id="a_node2"><a xlink:href="structgko_1_1enable__parameters__type.html" target="_top" xlink:title="gko::enable_parameters\l_type\&lt; parameters_type,\l Factory \&gt;">
<polygon fill="white" stroke="black" points="395.5,-49 395.5,-90 535.5,-90 535.5,-49 395.5,-49"/>
<text text-anchor="start" x="403.5" y="-78" font-family="Helvetica,sans-Serif" font-size="10.00">gko::enable_parameters</text>
<text text-anchor="start" x="403.5" y="-67" font-family="Helvetica,sans-Serif" font-size="10.00">_type&lt; parameters_type,</text>
<text text-anchor="middle" x="465.5" y="-56" font-family="Helvetica,sans-Serif" font-size="10.00"> Factory &gt;</text>
</a>
</g>
</g>
<!-- Node2&#45;&gt;Node1 -->
<g id="edge1" class="edge"><title>Node2&#45;&gt;Node1</title>
<path fill="none" stroke="midnightblue" d="M545.726,-61.1421C575.778,-57.9717 609.382,-54.4267 636.991,-51.5141"/>
<polygon fill="midnightblue" stroke="midnightblue" points="545.262,-57.6716 535.684,-62.2015 545.996,-64.6329 545.262,-57.6716"/>
</g>
<!-- Node3 -->
<g id="node3" class="node"><title>Node3</title>
<g id="a_node3"><a xlink:href="structgko_1_1enable__parameters__type.html" target="_top" xlink:title="The enable_parameters_type mixin is used to create a base implementation of the factory parameters st...">
<polygon fill="white" stroke="black" points="0,-49 0,-90 177,-90 177,-49 0,-49"/>
<text text-anchor="start" x="8" y="-78" font-family="Helvetica,sans-Serif" font-size="10.00">gko::enable_parameters</text>
<text text-anchor="start" x="8" y="-67" font-family="Helvetica,sans-Serif" font-size="10.00">_type&lt; ConcreteParametersType,</text>
<text text-anchor="middle" x="88.5" y="-56" font-family="Helvetica,sans-Serif" font-size="10.00"> Factory &gt;</text>
</a>
</g>
</g>
<!-- Node3&#45;&gt;Node2 -->
<g id="edge2" class="edge"><title>Node3&#45;&gt;Node2</title>
<path fill="none" stroke="orange" stroke-dasharray="5,2" d="M187.721,-69.5C252.945,-69.5 336.972,-69.5 395.25,-69.5"/>
<polygon fill="orange" stroke="orange" points="187.421,-66.0001 177.421,-69.5 187.421,-73.0001 187.421,-66.0001"/>
<text text-anchor="start" x="222" y="-83.5" font-family="Helvetica,sans-Serif" font-size="10.00"> &lt; parameters_type,</text>
<text text-anchor="middle" x="272" y="-72.5" font-family="Helvetica,sans-Serif" font-size="10.00"> Factory &gt;</text>
</g>
<!-- Node4 -->
<g id="node4" class="node"><title>Node4</title>
<polygon fill="white" stroke="#bfbfbf" points="367,-0.5 367,-30.5 564,-30.5 564,-0.5 367,-0.5"/>
<text text-anchor="start" x="375" y="-18.5" font-family="Helvetica,sans-Serif" font-size="10.00">std::vector&lt; std::shared</text>
<text text-anchor="middle" x="465.5" y="-7.5" font-family="Helvetica,sans-Serif" font-size="10.00">_ptr&lt; const gko::AbstractFactory &gt; &gt;</text>
</g>
<!-- Node4&#45;&gt;Node1 -->
<g id="edge3" class="edge"><title>Node4&#45;&gt;Node1</title>
<path fill="none" stroke="#9a32cd" stroke-dasharray="5,2" d="M574.229,-29.706C595.906,-32.5646 617.876,-35.4617 636.977,-37.9805"/>
<polygon fill="#9a32cd" stroke="#9a32cd" points="574.673,-26.2343 564.301,-28.3968 573.757,-33.1742 574.673,-26.2343"/>
<text text-anchor="middle" x="600.5" y="-37.5" font-family="Helvetica,sans-Serif" font-size="10.00"> criteria</text>
</g>
<!-- Node5 -->
<g id="node5" class="node"><title>Node5</title>
<g id="a_node5"><a xlink:title="STL class. ">
<polygon fill="white" stroke="#bfbfbf" points="41,-6 41,-25 136,-25 136,-6 41,-6"/>
<text text-anchor="middle" x="88.5" y="-13" font-family="Helvetica,sans-Serif" font-size="10.00">std::vector&lt; T &gt;</text>
</a>
</g>
</g>
<!-- Node5&#45;&gt;Node4 -->
<g id="edge4" class="edge"><title>Node5&#45;&gt;Node4</title>
<path fill="none" stroke="orange" stroke-dasharray="5,2" d="M146.382,-15.5C204.795,-15.5 296.82,-15.5 366.898,-15.5"/>
<polygon fill="orange" stroke="orange" points="146.236,-12.0001 136.236,-15.5 146.236,-19.0001 146.236,-12.0001"/>
<text text-anchor="start" x="195" y="-29.5" font-family="Helvetica,sans-Serif" font-size="10.00"> &lt; std::shared_ptr&lt;</text>
<text text-anchor="middle" x="272" y="-18.5" font-family="Helvetica,sans-Serif" font-size="10.00"> const gko::AbstractFactory &gt; &gt;</text>
</g>
</g>
</svg>
