<?xml version="1.0" encoding="UTF-8" standalone="no"?>
<!DOCTYPE svg PUBLIC "-//W3C//DTD SVG 1.1//EN"
 "http://www.w3.org/Graphics/SVG/1.1/DTD/svg11.dtd">
<!-- Generated by graphviz version 2.38.0 (20140413.2041)
 -->
<!-- Title: gko::log::criterion_data Pages: 1 -->
<svg width="306pt" height="356pt"
 viewBox="0.00 0.00 306.00 356.00" xmlns="http://www.w3.org/2000/svg" xmlns:xlink="http://www.w3.org/1999/xlink">
<g id="graph0" class="graph" transform="scale(1 1) rotate(0) translate(4 352)">
<title>gko::log::criterion_data</title>
<polygon fill="white" stroke="none" points="-4,4 -4,-352 302,-352 302,4 -4,4"/>
<!-- Node1 -->
<g id="node1" class="node"><title>Node1</title>
<polygon fill="#bfbfbf" stroke="black" points="56.5,-0.5 56.5,-19.5 182.5,-19.5 182.5,-0.5 56.5,-0.5"/>
<text text-anchor="middle" x="119.5" y="-7.5" font-family="Helvetica,sans-Serif" font-size="10.00">gko::log::criterion_data</text>
</g>
<!-- Node2 -->
<g id="node2" class="node"><title>Node2</title>
<g id="a_node2"><a xlink:href="classgko_1_1Array.html" target="_top" xlink:title="gko::Array\&lt; gko::stopping\l_status \&gt;">
<polygon fill="white" stroke="black" points="0,-67.5 0,-97.5 141,-97.5 141,-67.5 0,-67.5"/>
<text text-anchor="start" x="8" y="-85.5" font-family="Helvetica,sans-Serif" font-size="10.00">gko::Array&lt; gko::stopping</text>
<text text-anchor="middle" x="70.5" y="-74.5" font-family="Helvetica,sans-Serif" font-size="10.00">_status &gt;</text>
</a>
</g>
</g>
<!-- Node2&#45;&gt;Node1 -->
<g id="edge1" class="edge"><title>Node2&#45;&gt;Node1</title>
<path fill="none" stroke="#9a32cd" stroke-dasharray="5,2" d="M86.1342,-59.006C95.3617,-45.7295 106.529,-29.6626 113.319,-19.8932"/>
<polygon fill="#9a32cd" stroke="#9a32cd" points="83.2492,-57.0243 80.4159,-67.2333 88.9972,-61.0194 83.2492,-57.0243"/>
<text text-anchor="middle" x="115.5" y="-41" font-family="Helvetica,sans-Serif" font-size="10.00"> status</text>
</g>
<!-- Node3 -->
<g id="node3" class="node"><title>Node3</title>
<g id="a_node3"><a xlink:href="classgko_1_1stop_1_1Criterion.html" target="_top" xlink:title="The Criterion class is a base class for all stopping criteria. ">
<polygon fill="white" stroke="black" points="159,-73 159,-92 266,-92 266,-73 159,-73"/>
<text text-anchor="middle" x="212.5" y="-80" font-family="Helvetica,sans-Serif" font-size="10.00">gko::stop::Criterion</text>
</a>
</g>
</g>
<!-- Node3&#45;&gt;Node1 -->
<g id="edge2" class="edge"><title>Node3&#45;&gt;Node1</title>
<path fill="none" stroke="#9a32cd" stroke-dasharray="5,2" d="M192.935,-66.6682C174.164,-52.4385 146.455,-31.4338 130.997,-19.7154"/>
<polygon fill="#9a32cd" stroke="#9a32cd" points="191.013,-69.6034 201.096,-72.8553 195.242,-64.0251 191.013,-69.6034"/>
<text text-anchor="middle" x="190" y="-41" font-family="Helvetica,sans-Serif" font-size="10.00"> criterion</text>
</g>
<!-- Node4 -->
<g id="node4" class="node"><title>Node4</title>
<g id="a_node4"><a xlink:href="classgko_1_1EnableAbstractPolymorphicObject.html" target="_top" xlink:title="gko::EnableAbstractPolymorphic\lObject\&lt; Criterion \&gt;">
<polygon fill="white" stroke="black" points="127,-135.5 127,-165.5 298,-165.5 298,-135.5 127,-135.5"/>
<text text-anchor="start" x="135" y="-153.5" font-family="Helvetica,sans-Serif" font-size="10.00">gko::EnableAbstractPolymorphic</text>
<text text-anchor="middle" x="212.5" y="-142.5" font-family="Helvetica,sans-Serif" font-size="10.00">Object&lt; Criterion &gt;</text>
</a>
</g>
</g>
<!-- Node4&#45;&gt;Node3 -->
<g id="edge3" class="edge"><title>Node4&#45;&gt;Node3</title>
<path fill="none" stroke="midnightblue" d="M212.5,-124.876C212.5,-113.471 212.5,-100.636 212.5,-92.3283"/>
<polygon fill="midnightblue" stroke="midnightblue" points="209,-125.179 212.5,-135.179 216,-125.179 209,-125.179"/>
</g>
<!-- Node5 -->
<g id="node5" class="node"><title>Node5</title>
<g id="a_node5"><a xlink:href="classgko_1_1PolymorphicObject.html" target="_top" xlink:title="A PolymorphicObject is the abstract base for all &quot;heavy&quot; objects in Ginkgo that behave polymorphicall...">
<polygon fill="white" stroke="black" points="148,-203.5 148,-222.5 277,-222.5 277,-203.5 148,-203.5"/>
<text text-anchor="middle" x="212.5" y="-210.5" font-family="Helvetica,sans-Serif" font-size="10.00">gko::PolymorphicObject</text>
</a>
</g>
</g>
<!-- Node5&#45;&gt;Node4 -->
<g id="edge4" class="edge"><title>Node5&#45;&gt;Node4</title>
<path fill="none" stroke="midnightblue" d="M212.5,-193.215C212.5,-184.356 212.5,-173.958 212.5,-165.759"/>
<polygon fill="midnightblue" stroke="midnightblue" points="209,-193.332 212.5,-203.332 216,-193.332 209,-193.332"/>
</g>
<!-- Node6 -->
<g id="node6" class="node"><title>Node6</title>
<g id="a_node6"><a xlink:href="classgko_1_1log_1_1EnableLogging.html" target="_top" xlink:title="gko::log::EnableLogging\l\&lt; PolymorphicObject \&gt;">
<polygon fill="white" stroke="black" points="147.5,-260.5 147.5,-290.5 277.5,-290.5 277.5,-260.5 147.5,-260.5"/>
<text text-anchor="start" x="155.5" y="-278.5" font-family="Helvetica,sans-Serif" font-size="10.00">gko::log::EnableLogging</text>
<text text-anchor="middle" x="212.5" y="-267.5" font-family="Helvetica,sans-Serif" font-size="10.00">&lt; PolymorphicObject &gt;</text>
</a>
</g>
</g>
<!-- Node6&#45;&gt;Node5 -->
<g id="edge5" class="edge"><title>Node6&#45;&gt;Node5</title>
<path fill="none" stroke="midnightblue" d="M212.5,-250.352C212.5,-240.513 212.5,-229.775 212.5,-222.54"/>
<polygon fill="midnightblue" stroke="midnightblue" points="209,-250.468 212.5,-260.468 216,-250.468 209,-250.468"/>
</g>
<!-- Node7 -->
<g id="node7" class="node"><title>Node7</title>
<g id="a_node7"><a xlink:href="classgko_1_1log_1_1Loggable.html" target="_top" xlink:title="Loggable class is an interface which should be implemented by classes wanting to support logging...">
<polygon fill="white" stroke="black" points="160.5,-328.5 160.5,-347.5 264.5,-347.5 264.5,-328.5 160.5,-328.5"/>
<text text-anchor="middle" x="212.5" y="-335.5" font-family="Helvetica,sans-Serif" font-size="10.00">gko::log::Loggable</text>
</a>
</g>
</g>
<!-- Node7&#45;&gt;Node6 -->
<g id="edge6" class="edge"><title>Node7&#45;&gt;Node6</title>
<path fill="none" stroke="midnightblue" d="M212.5,-318.215C212.5,-309.356 212.5,-298.958 212.5,-290.759"/>
<polygon fill="midnightblue" stroke="midnightblue" points="209,-318.332 212.5,-328.332 216,-318.332 209,-318.332"/>
</g>
</g>
</svg>
