<?xml version="1.0" encoding="UTF-8" standalone="no"?>
<!DOCTYPE svg PUBLIC "-//W3C//DTD SVG 1.1//EN"
 "http://www.w3.org/Graphics/SVG/1.1/DTD/svg11.dtd">
<!-- Generated by graphviz version 2.38.0 (20140413.2041)
 -->
<!-- Title: gko::accessor::greater&lt; Kind, FirstOperand, SecondOperand &gt; Pages: 1 -->
<svg width="679pt" height="68pt"
 viewBox="0.00 0.00 679.00 67.50" xmlns="http://www.w3.org/2000/svg" xmlns:xlink="http://www.w3.org/1999/xlink">
<g id="graph0" class="graph" transform="scale(1 1) rotate(0) translate(4 63.5)">
<title>gko::accessor::greater&lt; Kind, FirstOperand, SecondOperand &gt;</title>
<polygon fill="white" stroke="none" points="-4,4 -4,-63.5 675,-63.5 675,4 -4,4"/>
<!-- Node1 -->
<g id="node1" class="node"><title>Node1</title>
<polygon fill="#bfbfbf" stroke="black" points="547,-6 547,-47 671,-47 671,-6 547,-6"/>
<text text-anchor="start" x="555" y="-35" font-family="Helvetica,sans-Serif" font-size="10.00">gko::accessor::greater</text>
<text text-anchor="start" x="555" y="-24" font-family="Helvetica,sans-Serif" font-size="10.00">&lt; Kind, FirstOperand,</text>
<text text-anchor="middle" x="609" y="-13" font-family="Helvetica,sans-Serif" font-size="10.00"> SecondOperand &gt;</text>
</g>
<!-- Node2 -->
<g id="node2" class="node"><title>Node2</title>
<polygon fill="white" stroke="#bfbfbf" points="337,-0.5 337,-52.5 510,-52.5 510,-0.5 337,-0.5"/>
<text text-anchor="start" x="345" y="-40.5" font-family="Helvetica,sans-Serif" font-size="10.00">gko::detail::implement</text>
<text text-anchor="start" x="345" y="-29.5" font-family="Helvetica,sans-Serif" font-size="10.00">_binary_operation&lt; Kind,</text>
<text text-anchor="start" x="345" y="-18.5" font-family="Helvetica,sans-Serif" font-size="10.00"> FirstOperand, SecondOperand,</text>
<text text-anchor="middle" x="423.5" y="-7.5" font-family="Helvetica,sans-Serif" font-size="10.00">::gko::accessor::detail::greater &gt;</text>
</g>
<!-- Node2&#45;&gt;Node1 -->
<g id="edge1" class="edge"><title>Node2&#45;&gt;Node1</title>
<path fill="none" stroke="midnightblue" d="M520.281,-26.5C529.321,-26.5 538.308,-26.5 546.891,-26.5"/>
<polygon fill="midnightblue" stroke="midnightblue" points="520.072,-23.0001 510.072,-26.5 520.072,-30.0001 520.072,-23.0001"/>
</g>
<!-- Node3 -->
<g id="node3" class="node"><title>Node3</title>
<polygon fill="white" stroke="#bfbfbf" points="0,-0.5 0,-52.5 167,-52.5 167,-0.5 0,-0.5"/>
<text text-anchor="start" x="8" y="-40.5" font-family="Helvetica,sans-Serif" font-size="10.00">gko::detail::implement</text>
<text text-anchor="start" x="8" y="-29.5" font-family="Helvetica,sans-Serif" font-size="10.00">_binary_operation&lt; Kind,</text>
<text text-anchor="start" x="8" y="-18.5" font-family="Helvetica,sans-Serif" font-size="10.00"> FirstOperand, SecondOperand,</text>
<text text-anchor="middle" x="83.5" y="-7.5" font-family="Helvetica,sans-Serif" font-size="10.00"> Operation &gt;</text>
</g>
<!-- Node3&#45;&gt;Node2 -->
<g id="edge2" class="edge"><title>Node3&#45;&gt;Node2</title>
<path fill="none" stroke="orange" stroke-dasharray="5,2" d="M177.316,-26.5C227.146,-26.5 288.152,-26.5 336.844,-26.5"/>
<polygon fill="orange" stroke="orange" points="177.184,-23.0001 167.184,-26.5 177.184,-30.0001 177.184,-23.0001"/>
<text text-anchor="start" x="185" y="-51.5" font-family="Helvetica,sans-Serif" font-size="10.00"> &lt; Kind, FirstOperand,</text>
<text text-anchor="start" x="185" y="-40.5" font-family="Helvetica,sans-Serif" font-size="10.00"> SecondOperand,::gko</text>
<text text-anchor="middle" x="252" y="-29.5" font-family="Helvetica,sans-Serif" font-size="10.00">::accessor::detail::greater &gt;</text>
</g>
</g>
</svg>
