<?xml version="1.0" encoding="UTF-8" standalone="no"?>
<!DOCTYPE svg PUBLIC "-//W3C//DTD SVG 1.1//EN"
 "http://www.w3.org/Graphics/SVG/1.1/DTD/svg11.dtd">
<!-- Generated by graphviz version 2.38.0 (20140413.2041)
 -->
<!-- Title: gko::accessor::greater_or_equal&lt; Kind, FirstOperand, SecondOperand &gt; Pages: 1 -->
<svg width="702pt" height="84pt"
 viewBox="0.00 0.00 702.00 84.00" xmlns="http://www.w3.org/2000/svg" xmlns:xlink="http://www.w3.org/1999/xlink">
<g id="graph0" class="graph" transform="scale(1 1) rotate(0) translate(4 80)">
<title>gko::accessor::greater_or_equal&lt; Kind, FirstOperand, SecondOperand &gt;</title>
<polygon fill="white" stroke="none" points="-4,4 -4,-80 698,-80 698,4 -4,4"/>
<!-- Node1 -->
<g id="node1" class="node"><title>Node1</title>
<polygon fill="#bfbfbf" stroke="black" points="530,-11.5 530,-52.5 694,-52.5 694,-11.5 530,-11.5"/>
<text text-anchor="start" x="538" y="-40.5" font-family="Helvetica,sans-Serif" font-size="10.00">gko::accessor::greater</text>
<text text-anchor="start" x="538" y="-29.5" font-family="Helvetica,sans-Serif" font-size="10.00">_or_equal&lt; Kind, FirstOperand,</text>
<text text-anchor="middle" x="612" y="-18.5" font-family="Helvetica,sans-Serif" font-size="10.00"> SecondOperand &gt;</text>
</g>
<!-- Node2 -->
<g id="node2" class="node"><title>Node2</title>
<polygon fill="white" stroke="#bfbfbf" points="326,-0.5 326,-63.5 493,-63.5 493,-0.5 326,-0.5"/>
<text text-anchor="start" x="334" y="-51.5" font-family="Helvetica,sans-Serif" font-size="10.00">gko::detail::implement</text>
<text text-anchor="start" x="334" y="-40.5" font-family="Helvetica,sans-Serif" font-size="10.00">_binary_operation&lt; Kind,</text>
<text text-anchor="start" x="334" y="-29.5" font-family="Helvetica,sans-Serif" font-size="10.00"> FirstOperand, SecondOperand,</text>
<text text-anchor="start" x="334" y="-18.5" font-family="Helvetica,sans-Serif" font-size="10.00">::gko::accessor::detail::greater</text>
<text text-anchor="middle" x="409.5" y="-7.5" font-family="Helvetica,sans-Serif" font-size="10.00">_or_equal &gt;</text>
</g>
<!-- Node2&#45;&gt;Node1 -->
<g id="edge1" class="edge"><title>Node2&#45;&gt;Node1</title>
<path fill="none" stroke="midnightblue" d="M503.469,-32C512.253,-32 521.112,-32 529.774,-32"/>
<polygon fill="midnightblue" stroke="midnightblue" points="503.209,-28.5001 493.209,-32 503.209,-35.5001 503.209,-28.5001"/>
</g>
<!-- Node3 -->
<g id="node3" class="node"><title>Node3</title>
<polygon fill="white" stroke="#bfbfbf" points="0,-6 0,-58 167,-58 167,-6 0,-6"/>
<text text-anchor="start" x="8" y="-46" font-family="Helvetica,sans-Serif" font-size="10.00">gko::detail::implement</text>
<text text-anchor="start" x="8" y="-35" font-family="Helvetica,sans-Serif" font-size="10.00">_binary_operation&lt; Kind,</text>
<text text-anchor="start" x="8" y="-24" font-family="Helvetica,sans-Serif" font-size="10.00"> FirstOperand, SecondOperand,</text>
<text text-anchor="middle" x="83.5" y="-13" font-family="Helvetica,sans-Serif" font-size="10.00"> Operation &gt;</text>
</g>
<!-- Node3&#45;&gt;Node2 -->
<g id="edge2" class="edge"><title>Node3&#45;&gt;Node2</title>
<path fill="none" stroke="orange" stroke-dasharray="5,2" d="M177.245,-32C224.078,-32 280.424,-32 325.772,-32"/>
<polygon fill="orange" stroke="orange" points="177.097,-28.5001 167.097,-32 177.097,-35.5001 177.097,-28.5001"/>
<text text-anchor="start" x="185" y="-68" font-family="Helvetica,sans-Serif" font-size="10.00"> &lt; Kind, FirstOperand,</text>
<text text-anchor="start" x="185" y="-57" font-family="Helvetica,sans-Serif" font-size="10.00"> SecondOperand,::gko</text>
<text text-anchor="start" x="185" y="-46" font-family="Helvetica,sans-Serif" font-size="10.00">::accessor::detail::greater</text>
<text text-anchor="middle" x="246.5" y="-35" font-family="Helvetica,sans-Serif" font-size="10.00">_or_equal &gt;</text>
</g>
</g>
</svg>
