<?xml version="1.0" encoding="UTF-8" standalone="no"?>
<!DOCTYPE svg PUBLIC "-//W3C//DTD SVG 1.1//EN"
 "http://www.w3.org/Graphics/SVG/1.1/DTD/svg11.dtd">
<!-- Generated by graphviz version 2.38.0 (20140413.2041)
 -->
<!-- Title: gko::log::linop_factory_data Pages: 1 -->
<svg width="1677pt" height="144pt"
 viewBox="0.00 0.00 1677.00 144.47" xmlns="http://www.w3.org/2000/svg" xmlns:xlink="http://www.w3.org/1999/xlink">
<g id="graph0" class="graph" transform="scale(1 1) rotate(0) translate(4 140.47)">
<title>gko::log::linop_factory_data</title>
<polygon fill="white" stroke="none" points="-4,4 -4,-140.47 1673,-140.47 1673,4 -4,4"/>
<!-- Node1 -->
<g id="node1" class="node"><title>Node1</title>
<polygon fill="#bfbfbf" stroke="black" points="1521,-36.4703 1521,-55.4703 1669,-55.4703 1669,-36.4703 1521,-36.4703"/>
<text text-anchor="middle" x="1595" y="-43.4703" font-family="Helvetica,sans-Serif" font-size="10.00">gko::log::linop_factory_data</text>
</g>
<!-- Node2 -->
<g id="node2" class="node"><title>Node2</title>
<g id="a_node2"><a xlink:href="classgko_1_1LinOpFactory.html" target="_top" xlink:title="A LinOpFactory represents a higher order mapping which transforms one linear operator into another...">
<polygon fill="white" stroke="black" points="1334.5,-59.4703 1334.5,-78.4703 1435.5,-78.4703 1435.5,-59.4703 1334.5,-59.4703"/>
<text text-anchor="middle" x="1385" y="-66.4703" font-family="Helvetica,sans-Serif" font-size="10.00">gko::LinOpFactory</text>
</a>
</g>
</g>
<!-- Node2&#45;&gt;Node1 -->
<g id="edge1" class="edge"><title>Node2&#45;&gt;Node1</title>
<path fill="none" stroke="#9a32cd" stroke-dasharray="5,2" d="M1445.69,-62.3699C1469.11,-59.7805 1496.21,-56.7834 1520.79,-54.0653"/>
<polygon fill="#9a32cd" stroke="#9a32cd" points="1445.11,-58.9125 1435.56,-63.4904 1445.88,-65.8701 1445.11,-58.9125"/>
<text text-anchor="middle" x="1484.5" y="-62.9703" font-family="Helvetica,sans-Serif" font-size="10.00"> factory</text>
</g>
<!-- Node3 -->
<g id="node3" class="node"><title>Node3</title>
<polygon fill="white" stroke="#bfbfbf" points="1055,-51.4703 1055,-92.4703 1180,-92.4703 1180,-51.4703 1055,-51.4703"/>
<text text-anchor="start" x="1063" y="-80.4703" font-family="Helvetica,sans-Serif" font-size="10.00">gko::AbstractFactory</text>
<text text-anchor="start" x="1063" y="-69.4703" font-family="Helvetica,sans-Serif" font-size="10.00">&lt; LinOp, std::shared</text>
<text text-anchor="middle" x="1117.5" y="-58.4703" font-family="Helvetica,sans-Serif" font-size="10.00">_ptr&lt; const LinOp &gt; &gt;</text>
</g>
<!-- Node3&#45;&gt;Node2 -->
<g id="edge2" class="edge"><title>Node3&#45;&gt;Node2</title>
<path fill="none" stroke="midnightblue" d="M1190.2,-71.1601C1235.81,-70.6447 1293.71,-69.9905 1334.3,-69.5319"/>
<polygon fill="midnightblue" stroke="midnightblue" points="1190.04,-67.6616 1180.08,-71.2745 1190.12,-74.6612 1190.04,-67.6616"/>
</g>
<!-- Node4 -->
<g id="node4" class="node"><title>Node4</title>
<polygon fill="white" stroke="#bfbfbf" points="544,-75.9703 544,-127.97 715,-127.97 715,-75.9703 544,-75.9703"/>
<text text-anchor="start" x="552" y="-115.97" font-family="Helvetica,sans-Serif" font-size="10.00">gko::EnableAbstractPolymorphic</text>
<text text-anchor="start" x="552" y="-104.97" font-family="Helvetica,sans-Serif" font-size="10.00">Object&lt; AbstractFactory&lt;</text>
<text text-anchor="start" x="552" y="-93.9703" font-family="Helvetica,sans-Serif" font-size="10.00"> LinOp, std::shared_ptr&lt; const</text>
<text text-anchor="middle" x="629.5" y="-82.9703" font-family="Helvetica,sans-Serif" font-size="10.00"> LinOp &gt; &gt; &gt;</text>
</g>
<!-- Node4&#45;&gt;Node3 -->
<g id="edge3" class="edge"><title>Node4&#45;&gt;Node3</title>
<path fill="none" stroke="midnightblue" d="M725.298,-101.227C807.83,-99.8113 930.591,-95.8556 1037,-84.9703 1042.84,-84.3725 1048.91,-83.621 1054.97,-82.7822"/>
<polygon fill="midnightblue" stroke="midnightblue" points="725.127,-97.729 715.185,-101.391 725.24,-104.728 725.127,-97.729"/>
</g>
<!-- Node5 -->
<g id="node5" class="node"><title>Node5</title>
<g id="a_node5"><a xlink:href="classgko_1_1PolymorphicObject.html" target="_top" xlink:title="A PolymorphicObject is the abstract base for all &quot;heavy&quot; objects in Ginkgo that behave polymorphicall...">
<polygon fill="white" stroke="black" points="198,-111.47 198,-130.47 327,-130.47 327,-111.47 198,-111.47"/>
<text text-anchor="middle" x="262.5" y="-118.47" font-family="Helvetica,sans-Serif" font-size="10.00">gko::PolymorphicObject</text>
</a>
</g>
</g>
<!-- Node5&#45;&gt;Node4 -->
<g id="edge4" class="edge"><title>Node5&#45;&gt;Node4</title>
<path fill="none" stroke="midnightblue" d="M337.191,-123.134C383.194,-123.87 443.614,-123.722 497,-119.97 512.171,-118.904 528.26,-117.191 543.785,-115.236"/>
<polygon fill="midnightblue" stroke="midnightblue" points="337.071,-119.631 327.01,-122.953 336.947,-126.63 337.071,-119.631"/>
</g>
<!-- Node10 -->
<g id="node10" class="node"><title>Node10</title>
<g id="a_node10"><a xlink:href="classgko_1_1EnableAbstractPolymorphicObject.html" target="_top" xlink:title="gko::EnableAbstractPolymorphic\lObject\&lt; AbstractFactory\&lt;\l AbstractProductType, ComponentsType \&gt; \&gt;">
<polygon fill="white" stroke="black" points="515,-15.4703 515,-56.4703 744,-56.4703 744,-15.4703 515,-15.4703"/>
<text text-anchor="start" x="523" y="-44.4703" font-family="Helvetica,sans-Serif" font-size="10.00">gko::EnableAbstractPolymorphic</text>
<text text-anchor="start" x="523" y="-33.4703" font-family="Helvetica,sans-Serif" font-size="10.00">Object&lt; AbstractFactory&lt;</text>
<text text-anchor="middle" x="629.5" y="-22.4703" font-family="Helvetica,sans-Serif" font-size="10.00"> AbstractProductType, ComponentsType &gt; &gt;</text>
</a>
</g>
</g>
<!-- Node5&#45;&gt;Node10 -->
<g id="edge10" class="edge"><title>Node5&#45;&gt;Node10</title>
<path fill="none" stroke="midnightblue" d="M337.423,-119.677C395.656,-117.4 471.173,-111.274 497,-94.9703 509.828,-86.8725 502.804,-74.9913 515,-65.9703 519.752,-62.4554 524.884,-59.3519 530.249,-56.6116"/>
<polygon fill="midnightblue" stroke="midnightblue" points="337.003,-116.19 327.136,-120.047 337.255,-123.185 337.003,-116.19"/>
</g>
<!-- Node6 -->
<g id="node6" class="node"><title>Node6</title>
<g id="a_node6"><a xlink:href="classgko_1_1log_1_1EnableLogging.html" target="_top" xlink:title="gko::log::EnableLogging\l\&lt; PolymorphicObject \&gt;">
<polygon fill="white" stroke="red" points="0,-105.97 0,-135.97 130,-135.97 130,-105.97 0,-105.97"/>
<text text-anchor="start" x="8" y="-123.97" font-family="Helvetica,sans-Serif" font-size="10.00">gko::log::EnableLogging</text>
<text text-anchor="middle" x="65" y="-112.97" font-family="Helvetica,sans-Serif" font-size="10.00">&lt; PolymorphicObject &gt;</text>
</a>
</g>
</g>
<!-- Node6&#45;&gt;Node5 -->
<g id="edge5" class="edge"><title>Node6&#45;&gt;Node5</title>
<path fill="none" stroke="midnightblue" d="M140.097,-120.97C159.058,-120.97 179.282,-120.97 197.676,-120.97"/>
<polygon fill="midnightblue" stroke="midnightblue" points="140.014,-117.47 130.014,-120.97 140.014,-124.47 140.014,-117.47"/>
</g>
<!-- Node7 -->
<g id="node7" class="node"><title>Node7</title>
<g id="a_node7"><a xlink:href="classgko_1_1EnableAbstractPolymorphicObject.html" target="_top" xlink:title="This mixin inherits from (a subclass of) PolymorphicObject and provides a base implementation of a ne...">
<polygon fill="white" stroke="black" points="167,-24.4703 167,-65.4703 358,-65.4703 358,-24.4703 167,-24.4703"/>
<text text-anchor="start" x="175" y="-53.4703" font-family="Helvetica,sans-Serif" font-size="10.00">gko::EnableAbstractPolymorphic</text>
<text text-anchor="start" x="175" y="-42.4703" font-family="Helvetica,sans-Serif" font-size="10.00">Object&lt; AbstactObject, Polymorphic</text>
<text text-anchor="middle" x="262.5" y="-31.4703" font-family="Helvetica,sans-Serif" font-size="10.00">Base &gt;</text>
</a>
</g>
</g>
<!-- Node7&#45;&gt;Node4 -->
<g id="edge6" class="edge"><title>Node7&#45;&gt;Node4</title>
<path fill="none" stroke="orange" stroke-dasharray="5,2" d="M368.349,-61.344C424.072,-70.0459 491.667,-80.6018 543.988,-88.7725"/>
<polygon fill="orange" stroke="orange" points="368.867,-57.8825 358.447,-59.7976 367.787,-64.7987 368.867,-57.8825"/>
<text text-anchor="start" x="376" y="-105.97" font-family="Helvetica,sans-Serif" font-size="10.00"> &lt; AbstractFactory&lt;</text>
<text text-anchor="start" x="376" y="-94.9703" font-family="Helvetica,sans-Serif" font-size="10.00"> LinOp, std::shared</text>
<text text-anchor="middle" x="436.5" y="-83.9703" font-family="Helvetica,sans-Serif" font-size="10.00">_ptr&lt; const LinOp &gt; &gt; &gt;</text>
</g>
<!-- Node7&#45;&gt;Node10 -->
<g id="edge11" class="edge"><title>Node7&#45;&gt;Node10</title>
<path fill="none" stroke="orange" stroke-dasharray="5,2" d="M320.758,-20.9969C338.182,-14.8335 357.597,-9.06972 376,-5.97028 429.031,2.96103 443.56,0.0482174 497,-5.97028 514.917,-7.98816 533.953,-11.5062 551.813,-15.4395"/>
<polygon fill="orange" stroke="orange" points="319.496,-17.7315 311.302,-24.4477 321.896,-24.3074 319.496,-17.7315"/>
<text text-anchor="start" x="382" y="-30.9703" font-family="Helvetica,sans-Serif" font-size="10.00"> &lt; AbstractFactory&lt;</text>
<text text-anchor="start" x="382" y="-19.9703" font-family="Helvetica,sans-Serif" font-size="10.00"> AbstractProductType,</text>
<text text-anchor="middle" x="436.5" y="-8.97028" font-family="Helvetica,sans-Serif" font-size="10.00"> ComponentsType &gt; &gt;</text>
</g>
<!-- Node8 -->
<g id="node8" class="node"><title>Node8</title>
<polygon fill="white" stroke="#bfbfbf" points="15.5,-35.4703 15.5,-54.4703 114.5,-54.4703 114.5,-35.4703 15.5,-35.4703"/>
<text text-anchor="middle" x="65" y="-42.4703" font-family="Helvetica,sans-Serif" font-size="10.00">PolymorphicBase</text>
</g>
<!-- Node8&#45;&gt;Node7 -->
<g id="edge7" class="edge"><title>Node8&#45;&gt;Node7</title>
<path fill="none" stroke="midnightblue" d="M124.959,-44.9703C138.238,-44.9703 152.657,-44.9703 166.984,-44.9703"/>
<polygon fill="midnightblue" stroke="midnightblue" points="124.577,-41.4704 114.577,-44.9703 124.577,-48.4704 124.577,-41.4704"/>
</g>
<!-- Node9 -->
<g id="node9" class="node"><title>Node9</title>
<g id="a_node9"><a xlink:href="classgko_1_1AbstractFactory.html" target="_top" xlink:title="The AbstractFactory is a generic interface template that enables easy implementation of the abstract ...">
<polygon fill="white" stroke="black" points="781,-21.4703 781,-62.4703 910,-62.4703 910,-21.4703 781,-21.4703"/>
<text text-anchor="start" x="789" y="-50.4703" font-family="Helvetica,sans-Serif" font-size="10.00">gko::AbstractFactory</text>
<text text-anchor="start" x="789" y="-39.4703" font-family="Helvetica,sans-Serif" font-size="10.00">&lt; AbstractProductType,</text>
<text text-anchor="middle" x="845.5" y="-28.4703" font-family="Helvetica,sans-Serif" font-size="10.00"> ComponentsType &gt;</text>
</a>
</g>
</g>
<!-- Node9&#45;&gt;Node3 -->
<g id="edge8" class="edge"><title>Node9&#45;&gt;Node3</title>
<path fill="none" stroke="orange" stroke-dasharray="5,2" d="M920.234,-50.0475C955.563,-53.9306 998.476,-58.6663 1037,-62.9703 1042.8,-63.618 1048.83,-64.2955 1054.87,-64.9754"/>
<polygon fill="orange" stroke="orange" points="920.328,-46.5368 910.005,-48.9237 919.563,-53.4949 920.328,-46.5368"/>
<text text-anchor="start" x="928" y="-76.9703" font-family="Helvetica,sans-Serif" font-size="10.00"> &lt; LinOp, std::shared</text>
<text text-anchor="middle" x="982.5" y="-65.9703" font-family="Helvetica,sans-Serif" font-size="10.00">_ptr&lt; const LinOp &gt; &gt;</text>
</g>
<!-- Node10&#45;&gt;Node9 -->
<g id="edge9" class="edge"><title>Node10&#45;&gt;Node9</title>
<path fill="none" stroke="midnightblue" d="M754.085,-39.4353C763.257,-39.6924 772.263,-39.9449 780.824,-40.185"/>
<polygon fill="midnightblue" stroke="midnightblue" points="754.174,-35.9365 744.079,-39.1547 753.977,-42.9337 754.174,-35.9365"/>
</g>
<!-- Node11 -->
<g id="node11" class="node"><title>Node11</title>
<polygon fill="white" stroke="#bfbfbf" points="1322,-8.97028 1322,-38.9703 1448,-38.9703 1448,-8.97028 1322,-8.97028"/>
<text text-anchor="start" x="1330" y="-26.9703" font-family="Helvetica,sans-Serif" font-size="10.00">std::unique_ptr&lt; const</text>
<text text-anchor="middle" x="1385" y="-15.9703" font-family="Helvetica,sans-Serif" font-size="10.00"> gko::LinOp &gt;</text>
</g>
<!-- Node11&#45;&gt;Node1 -->
<g id="edge12" class="edge"><title>Node11&#45;&gt;Node1</title>
<path fill="none" stroke="#9a32cd" stroke-dasharray="5,2" d="M1458.24,-22.1228C1473.08,-22.4345 1488.58,-23.2651 1503,-24.9703 1522.32,-27.2545 1543.52,-32.0115 1560.6,-36.4212"/>
<polygon fill="#9a32cd" stroke="#9a32cd" points="1458.14,-18.6212 1448.09,-21.9856 1458.05,-25.6206 1458.14,-18.6212"/>
<text text-anchor="middle" x="1484.5" y="-38.9703" font-family="Helvetica,sans-Serif" font-size="10.00"> output</text>
<text text-anchor="middle" x="1484.5" y="-27.9703" font-family="Helvetica,sans-Serif" font-size="10.00">input</text>
</g>
<!-- Node12 -->
<g id="node12" class="node"><title>Node12</title>
<g id="a_node12"><a xlink:title="STL class. ">
<polygon fill="white" stroke="#bfbfbf" points="1059.5,-13.4703 1059.5,-32.4703 1175.5,-32.4703 1175.5,-13.4703 1059.5,-13.4703"/>
<text text-anchor="middle" x="1117.5" y="-20.4703" font-family="Helvetica,sans-Serif" font-size="10.00">std::unique_ptr&lt; T &gt;</text>
</a>
</g>
</g>
<!-- Node12&#45;&gt;Node11 -->
<g id="edge13" class="edge"><title>Node12&#45;&gt;Node11</title>
<path fill="none" stroke="orange" stroke-dasharray="5,2" d="M1185.87,-23.224C1227.64,-23.3814 1280.93,-23.5821 1321.72,-23.7357"/>
<polygon fill="orange" stroke="orange" points="1185.8,-19.7238 1175.78,-23.186 1185.77,-26.7238 1185.8,-19.7238"/>
<text text-anchor="middle" x="1251" y="-26.9703" font-family="Helvetica,sans-Serif" font-size="10.00"> &lt; const gko::LinOp &gt;</text>
</g>
</g>
</svg>
