<?xml version="1.0" encoding="UTF-8" standalone="no"?>
<!DOCTYPE svg PUBLIC "-//W3C//DTD SVG 1.1//EN"
 "http://www.w3.org/Graphics/SVG/1.1/DTD/svg11.dtd">
<!-- Generated by graphviz version 2.40.1 (20161225.0304)
 -->
<!-- Title: gko::log::Record::logged_data Pages: 1 -->
<svg width="749pt" height="554pt"
 viewBox="0.00 0.00 749.00 553.50" xmlns="http://www.w3.org/2000/svg" xmlns:xlink="http://www.w3.org/1999/xlink">
<g id="graph0" class="graph" transform="scale(1 1) rotate(0) translate(4 549.5)">
<title>gko::log::Record::logged_data</title>
<polygon fill="#ffffff" stroke="transparent" points="-4,4 -4,-549.5 745,-549.5 745,4 -4,4"/>
<!-- Node0 -->
<g id="node1" class="node">
<title>Node0</title>
<polygon fill="#bfbfbf" stroke="#000000" points="580,-213 580,-232 741,-232 741,-213 580,-213"/>
<text text-anchor="middle" x="660.5" y="-220" font-family="Helvetica,sans-Serif" font-size="10.00" fill="#000000">gko::log::Record::logged_data</text>
</g>
<!-- Node1 -->
<g id="node2" class="node">
<title>Node1</title>
<polygon fill="#ffffff" stroke="#bfbfbf" points="266.5,-459 266.5,-500 399.5,-500 399.5,-459 266.5,-459"/>
<text text-anchor="start" x="274.5" y="-488" font-family="Helvetica,sans-Serif" font-size="10.00" fill="#000000">std::deque&lt; std::unique</text>
<text text-anchor="start" x="274.5" y="-477" font-family="Helvetica,sans-Serif" font-size="10.00" fill="#000000">_ptr&lt; gko::log::linop</text>
<text text-anchor="middle" x="333" y="-466" font-family="Helvetica,sans-Serif" font-size="10.00" fill="#000000">_factory_data &gt; &gt;</text>
</g>
<!-- Node1&#45;&gt;Node0 -->
<g id="edge1" class="edge">
<title>Node1&#45;&gt;Node0</title>
<path fill="none" stroke="#9a32cd" stroke-dasharray="5,2" d="M409.7283,-497.9791C457.6545,-504.9657 518.3332,-505.02 562,-474.5 605.0254,-444.4283 648.0022,-274.7875 658.2208,-232.1993"/>
<polygon fill="#9a32cd" stroke="#9a32cd" points="410.1301,-494.4992 399.7056,-496.3916 409.0349,-501.413 410.1301,-494.4992"/>
<text text-anchor="start" x="436.5" y="-537.5" font-family="Helvetica,sans-Serif" font-size="10.00" fill="#000000"> linop_factory_generate</text>
<text text-anchor="middle" x="494.5" y="-526.5" font-family="Helvetica,sans-Serif" font-size="10.00" fill="#000000">_completed</text>
<text text-anchor="start" x="436.5" y="-515.5" font-family="Helvetica,sans-Serif" font-size="10.00" fill="#000000">linop_factory_generate</text>
<text text-anchor="middle" x="494.5" y="-504.5" font-family="Helvetica,sans-Serif" font-size="10.00" fill="#000000">_started</text>
</g>
<!-- Node2 -->
<g id="node3" class="node">
<title>Node2</title>
<g id="a_node3"><a xlink:title="STL class. ">
<polygon fill="#ffffff" stroke="#bfbfbf" points="0,-232 0,-251 96,-251 96,-232 0,-232"/>
<text text-anchor="middle" x="48" y="-239" font-family="Helvetica,sans-Serif" font-size="10.00" fill="#000000">std::deque&lt; T &gt;</text>
</a>
</g>
</g>
<!-- Node2&#45;&gt;Node1 -->
<g id="edge2" class="edge">
<title>Node2&#45;&gt;Node1</title>
<path fill="none" stroke="#ffa500" stroke-dasharray="5,2" d="M49.6072,-261.7032C53.6445,-298.58 67.507,-376.9139 114,-419.5 155.425,-457.444 218.5892,-471.7366 266.4553,-476.9515"/>
<polygon fill="#ffa500" stroke="#ffa500" points="53.0471,-260.9069 48.6126,-251.2848 46.0788,-261.5722 53.0471,-260.9069"/>
<text text-anchor="start" x="120.5" y="-496.5" font-family="Helvetica,sans-Serif" font-size="10.00" fill="#000000"> &lt; std::unique_ptr&lt;</text>
<text text-anchor="start" x="120.5" y="-485.5" font-family="Helvetica,sans-Serif" font-size="10.00" fill="#000000"> gko::log::linop_factory</text>
<text text-anchor="middle" x="176.5" y="-474.5" font-family="Helvetica,sans-Serif" font-size="10.00" fill="#000000">_data &gt; &gt;</text>
</g>
<!-- Node3 -->
<g id="node4" class="node">
<title>Node3</title>
<polygon fill="#ffffff" stroke="#bfbfbf" points="266.5,-380 266.5,-421 399.5,-421 399.5,-380 266.5,-380"/>
<text text-anchor="start" x="274.5" y="-409" font-family="Helvetica,sans-Serif" font-size="10.00" fill="#000000">std::deque&lt; std::unique</text>
<text text-anchor="start" x="274.5" y="-398" font-family="Helvetica,sans-Serif" font-size="10.00" fill="#000000">_ptr&lt; gko::log::linop</text>
<text text-anchor="middle" x="333" y="-387" font-family="Helvetica,sans-Serif" font-size="10.00" fill="#000000">_data &gt; &gt;</text>
</g>
<!-- Node2&#45;&gt;Node3 -->
<g id="edge4" class="edge">
<title>Node2&#45;&gt;Node3</title>
<path fill="none" stroke="#ffa500" stroke-dasharray="5,2" d="M52.4761,-261.1836C59.9981,-289.4195 78.0171,-340.8381 114,-366.5 137.8861,-383.5348 211.0289,-392.3396 266.2675,-396.6746"/>
<polygon fill="#ffa500" stroke="#ffa500" points="55.8237,-260.1416 50.018,-251.2791 49.0298,-261.8278 55.8237,-260.1416"/>
<text text-anchor="start" x="115.5" y="-407.5" font-family="Helvetica,sans-Serif" font-size="10.00" fill="#000000"> &lt; std::unique_ptr&lt;</text>
<text text-anchor="middle" x="176.5" y="-396.5" font-family="Helvetica,sans-Serif" font-size="10.00" fill="#000000"> gko::log::linop_data &gt; &gt;</text>
</g>
<!-- Node4 -->
<g id="node5" class="node">
<title>Node4</title>
<polygon fill="#ffffff" stroke="#bfbfbf" points="257,-312 257,-353 409,-353 409,-312 257,-312"/>
<text text-anchor="start" x="265" y="-341" font-family="Helvetica,sans-Serif" font-size="10.00" fill="#000000">std::deque&lt; std::unique</text>
<text text-anchor="start" x="265" y="-330" font-family="Helvetica,sans-Serif" font-size="10.00" fill="#000000">_ptr&lt; gko::log::polymorphic</text>
<text text-anchor="middle" x="333" y="-319" font-family="Helvetica,sans-Serif" font-size="10.00" fill="#000000">_object_data &gt; &gt;</text>
</g>
<!-- Node2&#45;&gt;Node4 -->
<g id="edge6" class="edge">
<title>Node2&#45;&gt;Node4</title>
<path fill="none" stroke="#ffa500" stroke-dasharray="5,2" d="M62.5464,-258.8374C74.8199,-272.2264 93.6111,-290.019 114,-299.5 158.6271,-320.252 213.3771,-328.502 256.9703,-331.564"/>
<polygon fill="#ffa500" stroke="#ffa500" points="65.0322,-256.3647 55.7906,-251.1836 59.7841,-260.997 65.0322,-256.3647"/>
<text text-anchor="start" x="122" y="-354.5" font-family="Helvetica,sans-Serif" font-size="10.00" fill="#000000"> &lt; std::unique_ptr&lt;</text>
<text text-anchor="start" x="122" y="-343.5" font-family="Helvetica,sans-Serif" font-size="10.00" fill="#000000"> gko::log::polymorphic</text>
<text text-anchor="middle" x="176.5" y="-332.5" font-family="Helvetica,sans-Serif" font-size="10.00" fill="#000000">_object_data &gt; &gt;</text>
</g>
<!-- Node5 -->
<g id="node6" class="node">
<title>Node5</title>
<polygon fill="#ffffff" stroke="#bfbfbf" points="266.5,-252 266.5,-293 399.5,-293 399.5,-252 266.5,-252"/>
<text text-anchor="start" x="274.5" y="-281" font-family="Helvetica,sans-Serif" font-size="10.00" fill="#000000">std::deque&lt; std::unique</text>
<text text-anchor="start" x="274.5" y="-270" font-family="Helvetica,sans-Serif" font-size="10.00" fill="#000000">_ptr&lt; gko::log::iteration</text>
<text text-anchor="middle" x="333" y="-259" font-family="Helvetica,sans-Serif" font-size="10.00" fill="#000000">_complete_data &gt; &gt;</text>
</g>
<!-- Node2&#45;&gt;Node5 -->
<g id="edge8" class="edge">
<title>Node2&#45;&gt;Node5</title>
<path fill="none" stroke="#ffa500" stroke-dasharray="5,2" d="M106.3414,-248.6227C108.9291,-248.9225 111.4911,-249.2162 114,-249.5 165.0935,-255.2792 222.9506,-261.3345 266.3607,-265.7806"/>
<polygon fill="#ffa500" stroke="#ffa500" points="106.6304,-245.1327 96.2907,-247.4437 105.8148,-252.085 106.6304,-245.1327"/>
<text text-anchor="start" x="126" y="-287.5" font-family="Helvetica,sans-Serif" font-size="10.00" fill="#000000"> &lt; std::unique_ptr&lt;</text>
<text text-anchor="start" x="126" y="-276.5" font-family="Helvetica,sans-Serif" font-size="10.00" fill="#000000"> gko::log::iteration</text>
<text text-anchor="middle" x="176.5" y="-265.5" font-family="Helvetica,sans-Serif" font-size="10.00" fill="#000000">_complete_data &gt; &gt;</text>
</g>
<!-- Node6 -->
<g id="node7" class="node">
<title>Node6</title>
<polygon fill="#ffffff" stroke="#bfbfbf" points="264,-192 264,-233 402,-233 402,-192 264,-192"/>
<text text-anchor="start" x="272" y="-221" font-family="Helvetica,sans-Serif" font-size="10.00" fill="#000000">std::deque&lt; std::unique</text>
<text text-anchor="start" x="272" y="-210" font-family="Helvetica,sans-Serif" font-size="10.00" fill="#000000">_ptr&lt; gko::log::operation</text>
<text text-anchor="middle" x="333" y="-199" font-family="Helvetica,sans-Serif" font-size="10.00" fill="#000000">_data &gt; &gt;</text>
</g>
<!-- Node2&#45;&gt;Node6 -->
<g id="edge10" class="edge">
<title>Node2&#45;&gt;Node6</title>
<path fill="none" stroke="#ffa500" stroke-dasharray="5,2" d="M77.0556,-228.0256C88.3395,-223.4548 101.5301,-218.9005 114,-216.5 163.4776,-206.9755 220.4054,-206.2388 263.8169,-207.7446"/>
<polygon fill="#ffa500" stroke="#ffa500" points="75.5374,-224.8677 67.6964,-231.9929 78.2694,-231.3126 75.5374,-224.8677"/>
<text text-anchor="start" x="128.5" y="-241.5" font-family="Helvetica,sans-Serif" font-size="10.00" fill="#000000"> &lt; std::unique_ptr&lt;</text>
<text text-anchor="start" x="128.5" y="-230.5" font-family="Helvetica,sans-Serif" font-size="10.00" fill="#000000"> gko::log::operation</text>
<text text-anchor="middle" x="176.5" y="-219.5" font-family="Helvetica,sans-Serif" font-size="10.00" fill="#000000">_data &gt; &gt;</text>
</g>
<!-- Node7 -->
<g id="node8" class="node">
<title>Node7</title>
<polygon fill="#ffffff" stroke="#bfbfbf" points="266.5,-132 266.5,-173 399.5,-173 399.5,-132 266.5,-132"/>
<text text-anchor="start" x="274.5" y="-161" font-family="Helvetica,sans-Serif" font-size="10.00" fill="#000000">std::deque&lt; std::unique</text>
<text text-anchor="start" x="274.5" y="-150" font-family="Helvetica,sans-Serif" font-size="10.00" fill="#000000">_ptr&lt; gko::log::criterion</text>
<text text-anchor="middle" x="333" y="-139" font-family="Helvetica,sans-Serif" font-size="10.00" fill="#000000">_data &gt; &gt;</text>
</g>
<!-- Node2&#45;&gt;Node7 -->
<g id="edge12" class="edge">
<title>Node2&#45;&gt;Node7</title>
<path fill="none" stroke="#ffa500" stroke-dasharray="5,2" d="M58.886,-223.2848C70.2627,-206.1024 89.8167,-181.2763 114,-169.5 161.3149,-146.4596 221.2573,-143.3197 266.464,-145.3202"/>
<polygon fill="#ffa500" stroke="#ffa500" points="55.8165,-221.5904 53.4295,-231.9128 61.7327,-225.3319 55.8165,-221.5904"/>
<text text-anchor="start" x="128.5" y="-194.5" font-family="Helvetica,sans-Serif" font-size="10.00" fill="#000000"> &lt; std::unique_ptr&lt;</text>
<text text-anchor="start" x="128.5" y="-183.5" font-family="Helvetica,sans-Serif" font-size="10.00" fill="#000000"> gko::log::criterion</text>
<text text-anchor="middle" x="176.5" y="-172.5" font-family="Helvetica,sans-Serif" font-size="10.00" fill="#000000">_data &gt; &gt;</text>
</g>
<!-- Node8 -->
<g id="node9" class="node">
<title>Node8</title>
<polygon fill="#ffffff" stroke="#bfbfbf" points="266,-72 266,-113 400,-113 400,-72 266,-72"/>
<text text-anchor="start" x="274" y="-101" font-family="Helvetica,sans-Serif" font-size="10.00" fill="#000000">std::deque&lt; std::unique</text>
<text text-anchor="start" x="274" y="-90" font-family="Helvetica,sans-Serif" font-size="10.00" fill="#000000">_ptr&lt; gko::log::executor</text>
<text text-anchor="middle" x="333" y="-79" font-family="Helvetica,sans-Serif" font-size="10.00" fill="#000000">_data &gt; &gt;</text>
</g>
<!-- Node2&#45;&gt;Node8 -->
<g id="edge14" class="edge">
<title>Node2&#45;&gt;Node8</title>
<path fill="none" stroke="#ffa500" stroke-dasharray="5,2" d="M51.3676,-221.748C57.695,-191.3934 74.4678,-134.0127 114,-107.5 158.153,-77.8884 219.216,-76.0947 265.6489,-80.5946"/>
<polygon fill="#ffa500" stroke="#ffa500" points="47.8597,-221.4597 49.4283,-231.9378 54.7363,-222.7685 47.8597,-221.4597"/>
<text text-anchor="start" x="128.5" y="-132.5" font-family="Helvetica,sans-Serif" font-size="10.00" fill="#000000"> &lt; std::unique_ptr&lt;</text>
<text text-anchor="start" x="128.5" y="-121.5" font-family="Helvetica,sans-Serif" font-size="10.00" fill="#000000"> gko::log::executor</text>
<text text-anchor="middle" x="176.5" y="-110.5" font-family="Helvetica,sans-Serif" font-size="10.00" fill="#000000">_data &gt; &gt;</text>
</g>
<!-- Node9 -->
<g id="node10" class="node">
<title>Node9</title>
<polygon fill="#ffffff" stroke="#bfbfbf" points="259.5,-.5 259.5,-52.5 406.5,-52.5 406.5,-.5 259.5,-.5"/>
<text text-anchor="start" x="267.5" y="-40.5" font-family="Helvetica,sans-Serif" font-size="10.00" fill="#000000">std::deque&lt; std::unique</text>
<text text-anchor="start" x="267.5" y="-29.5" font-family="Helvetica,sans-Serif" font-size="10.00" fill="#000000">_ptr&lt; std::tuple&lt; gko</text>
<text text-anchor="start" x="267.5" y="-18.5" font-family="Helvetica,sans-Serif" font-size="10.00" fill="#000000">::log::executor_data, gko</text>
<text text-anchor="middle" x="333" y="-7.5" font-family="Helvetica,sans-Serif" font-size="10.00" fill="#000000">::log::executor_data &gt; &gt; &gt;</text>
</g>
<!-- Node2&#45;&gt;Node9 -->
<g id="edge16" class="edge">
<title>Node2&#45;&gt;Node9</title>
<path fill="none" stroke="#ffa500" stroke-dasharray="5,2" d="M51.246,-221.6954C59.5059,-173.983 82.8901,-54.8837 114,-31.5 154.8887,-.766 213.264,-.9466 259.4647,-8.0409"/>
<polygon fill="#ffa500" stroke="#ffa500" points="47.7692,-221.2647 49.5549,-231.708 54.6715,-222.4306 47.7692,-221.2647"/>
<text text-anchor="start" x="114" y="-67.5" font-family="Helvetica,sans-Serif" font-size="10.00" fill="#000000"> &lt; std::unique_ptr&lt;</text>
<text text-anchor="start" x="114" y="-56.5" font-family="Helvetica,sans-Serif" font-size="10.00" fill="#000000"> std::tuple&lt; gko::log</text>
<text text-anchor="start" x="114" y="-45.5" font-family="Helvetica,sans-Serif" font-size="10.00" fill="#000000">::executor_data, gko::</text>
<text text-anchor="middle" x="176.5" y="-34.5" font-family="Helvetica,sans-Serif" font-size="10.00" fill="#000000">log::executor_data &gt; &gt; &gt;</text>
</g>
<!-- Node3&#45;&gt;Node0 -->
<g id="edge3" class="edge">
<title>Node3&#45;&gt;Node0</title>
<path fill="none" stroke="#9a32cd" stroke-dasharray="5,2" d="M410.0909,-404.8607C466.4386,-406.6273 537.1685,-405.4548 562,-390.5 623.402,-353.5207 650.6573,-262.5755 658.2125,-232.4055"/>
<polygon fill="#9a32cd" stroke="#9a32cd" points="409.8675,-401.3509 399.7513,-404.4993 409.6229,-408.3466 409.8675,-401.3509"/>
<text text-anchor="middle" x="494.5" y="-462.5" font-family="Helvetica,sans-Serif" font-size="10.00" fill="#000000"> linop_apply_completed</text>
<text text-anchor="start" x="436" y="-451.5" font-family="Helvetica,sans-Serif" font-size="10.00" fill="#000000">linop_advanced_apply</text>
<text text-anchor="middle" x="494.5" y="-440.5" font-family="Helvetica,sans-Serif" font-size="10.00" fill="#000000">_started</text>
<text text-anchor="start" x="436" y="-429.5" font-family="Helvetica,sans-Serif" font-size="10.00" fill="#000000">linop_advanced_apply</text>
<text text-anchor="middle" x="494.5" y="-418.5" font-family="Helvetica,sans-Serif" font-size="10.00" fill="#000000">_completed</text>
<text text-anchor="middle" x="494.5" y="-407.5" font-family="Helvetica,sans-Serif" font-size="10.00" fill="#000000">linop_apply_started</text>
</g>
<!-- Node4&#45;&gt;Node0 -->
<g id="edge5" class="edge">
<title>Node4&#45;&gt;Node0</title>
<path fill="none" stroke="#9a32cd" stroke-dasharray="5,2" d="M402.601,-306.813C404.8044,-305.4373 406.9448,-304.0001 409,-302.5 419.2044,-295.0518 416.08,-286.8529 427,-280.5 479.6092,-249.8934 503.1049,-272.8577 562,-257.5 588.1658,-250.6769 617.2409,-239.9397 636.9747,-232.1561"/>
<polygon fill="#9a32cd" stroke="#9a32cd" points="400.7847,-303.8197 393.8359,-311.8175 404.2555,-309.8986 400.7847,-303.8197"/>
<text text-anchor="start" x="444.5" y="-382.5" font-family="Helvetica,sans-Serif" font-size="10.00" fill="#000000"> polymorphic_object</text>
<text text-anchor="middle" x="494.5" y="-371.5" font-family="Helvetica,sans-Serif" font-size="10.00" fill="#000000">_create_started</text>
<text text-anchor="start" x="444.5" y="-360.5" font-family="Helvetica,sans-Serif" font-size="10.00" fill="#000000">polymorphic_object</text>
<text text-anchor="middle" x="494.5" y="-349.5" font-family="Helvetica,sans-Serif" font-size="10.00" fill="#000000">_deleted</text>
<text text-anchor="start" x="444.5" y="-338.5" font-family="Helvetica,sans-Serif" font-size="10.00" fill="#000000">polymorphic_object</text>
<text text-anchor="middle" x="494.5" y="-327.5" font-family="Helvetica,sans-Serif" font-size="10.00" fill="#000000">_copy_started</text>
<text text-anchor="start" x="444.5" y="-316.5" font-family="Helvetica,sans-Serif" font-size="10.00" fill="#000000">polymorphic_object</text>
<text text-anchor="middle" x="494.5" y="-305.5" font-family="Helvetica,sans-Serif" font-size="10.00" fill="#000000">_copy_completed</text>
<text text-anchor="start" x="444.5" y="-294.5" font-family="Helvetica,sans-Serif" font-size="10.00" fill="#000000">polymorphic_object</text>
<text text-anchor="middle" x="494.5" y="-283.5" font-family="Helvetica,sans-Serif" font-size="10.00" fill="#000000">_create_completed</text>
</g>
<!-- Node5&#45;&gt;Node0 -->
<g id="edge7" class="edge">
<title>Node5&#45;&gt;Node0</title>
<path fill="none" stroke="#9a32cd" stroke-dasharray="5,2" d="M409.562,-250.1902C415.4362,-248.8264 421.297,-247.574 427,-246.5 477.3602,-237.0164 534.5862,-231.0587 579.7816,-227.4514"/>
<polygon fill="#9a32cd" stroke="#9a32cd" points="408.5857,-246.8254 399.6892,-252.5789 410.2318,-253.6291 408.5857,-246.8254"/>
<text text-anchor="middle" x="494.5" y="-249.5" font-family="Helvetica,sans-Serif" font-size="10.00" fill="#000000"> iteration_completed</text>
</g>
<!-- Node6&#45;&gt;Node0 -->
<g id="edge9" class="edge">
<title>Node6&#45;&gt;Node0</title>
<path fill="none" stroke="#9a32cd" stroke-dasharray="5,2" d="M412.3862,-202.5498C417.3262,-202.1354 422.2278,-201.7783 427,-201.5 486.8983,-198.0072 502.3306,-195.21 562,-201.5 583.0403,-203.718 606.1962,-208.5307 624.7674,-212.9899"/>
<polygon fill="#9a32cd" stroke="#9a32cd" points="411.8636,-199.0828 402.2217,-203.474 412.4976,-206.054 411.8636,-199.0828"/>
<text text-anchor="middle" x="494.5" y="-215.5" font-family="Helvetica,sans-Serif" font-size="10.00" fill="#000000"> operation_completed</text>
<text text-anchor="middle" x="494.5" y="-204.5" font-family="Helvetica,sans-Serif" font-size="10.00" fill="#000000">operation_launched</text>
</g>
<!-- Node7&#45;&gt;Node0 -->
<g id="edge11" class="edge">
<title>Node7&#45;&gt;Node0</title>
<path fill="none" stroke="#9a32cd" stroke-dasharray="5,2" d="M409.6507,-151.3785C454.7889,-152.5518 512.5476,-157.2653 562,-171.5 594.0146,-180.7153 627.7425,-200.7662 646.2476,-212.7993"/>
<polygon fill="#9a32cd" stroke="#9a32cd" points="409.7054,-147.879 399.6348,-151.1704 409.56,-154.8775 409.7054,-147.879"/>
<text text-anchor="middle" x="494.5" y="-185.5" font-family="Helvetica,sans-Serif" font-size="10.00" fill="#000000"> criterion_check_completed</text>
<text text-anchor="middle" x="494.5" y="-174.5" font-family="Helvetica,sans-Serif" font-size="10.00" fill="#000000">criterion_check_started</text>
</g>
<!-- Node8&#45;&gt;Node0 -->
<g id="edge13" class="edge">
<title>Node8&#45;&gt;Node0</title>
<path fill="none" stroke="#9a32cd" stroke-dasharray="5,2" d="M410.2297,-81.1189C456.5859,-77.8497 515.4012,-80.1984 562,-103.5 610.9338,-127.9692 644.4278,-189.0068 656.0158,-212.7937"/>
<polygon fill="#9a32cd" stroke="#9a32cd" points="409.9234,-77.6321 400.2364,-81.9232 410.485,-84.6096 409.9234,-77.6321"/>
<text text-anchor="middle" x="494.5" y="-139.5" font-family="Helvetica,sans-Serif" font-size="10.00" fill="#000000"> allocation_started</text>
<text text-anchor="middle" x="494.5" y="-128.5" font-family="Helvetica,sans-Serif" font-size="10.00" fill="#000000">free_completed</text>
<text text-anchor="middle" x="494.5" y="-117.5" font-family="Helvetica,sans-Serif" font-size="10.00" fill="#000000">free_started</text>
<text text-anchor="middle" x="494.5" y="-106.5" font-family="Helvetica,sans-Serif" font-size="10.00" fill="#000000">allocation_completed</text>
</g>
<!-- Node9&#45;&gt;Node0 -->
<g id="edge15" class="edge">
<title>Node9&#45;&gt;Node0</title>
<path fill="none" stroke="#9a32cd" stroke-dasharray="5,2" d="M416.5228,-19.3937C462.8476,-19.4753 519.5031,-26.5914 562,-54.5 621.9129,-93.8461 650.1455,-183.2381 658.0805,-212.8043"/>
<polygon fill="#9a32cd" stroke="#9a32cd" points="416.4701,-15.8939 406.5021,-19.4839 416.5332,-22.8936 416.4701,-15.8939"/>
<text text-anchor="middle" x="494.5" y="-68.5" font-family="Helvetica,sans-Serif" font-size="10.00" fill="#000000"> copy_completed</text>
<text text-anchor="middle" x="494.5" y="-57.5" font-family="Helvetica,sans-Serif" font-size="10.00" fill="#000000">copy_started</text>
</g>
</g>
</svg>
