<?xml version="1.0" encoding="UTF-8" standalone="no"?>
<!DOCTYPE svg PUBLIC "-//W3C//DTD SVG 1.1//EN"
 "http://www.w3.org/Graphics/SVG/1.1/DTD/svg11.dtd">
<!-- Generated by graphviz version 2.38.0 (20140413.2041)
 -->
<!-- Title: gko::accessor::mul&lt; Kind, FirstOperand, SecondOperand &gt; Pages: 1 -->
<svg width="650pt" height="68pt"
 viewBox="0.00 0.00 650.00 67.50" xmlns="http://www.w3.org/2000/svg" xmlns:xlink="http://www.w3.org/1999/xlink">
<g id="graph0" class="graph" transform="scale(1 1) rotate(0) translate(4 63.5)">
<title>gko::accessor::mul&lt; Kind, FirstOperand, SecondOperand &gt;</title>
<polygon fill="white" stroke="none" points="-4,4 -4,-63.5 646,-63.5 646,4 -4,4"/>
<!-- Node1 -->
<g id="node1" class="node"><title>Node1</title>
<polygon fill="#bfbfbf" stroke="black" points="524,-6 524,-47 642,-47 642,-6 524,-6"/>
<text text-anchor="start" x="532" y="-35" font-family="Helvetica,sans-Serif" font-size="10.00">gko::accessor::mul</text>
<text text-anchor="start" x="532" y="-24" font-family="Helvetica,sans-Serif" font-size="10.00">&lt; Kind, FirstOperand,</text>
<text text-anchor="middle" x="583" y="-13" font-family="Helvetica,sans-Serif" font-size="10.00"> SecondOperand &gt;</text>
</g>
<!-- Node2 -->
<g id="node2" class="node"><title>Node2</title>
<polygon fill="white" stroke="#bfbfbf" points="320,-0.5 320,-52.5 487,-52.5 487,-0.5 320,-0.5"/>
<text text-anchor="start" x="328" y="-40.5" font-family="Helvetica,sans-Serif" font-size="10.00">gko::detail::implement</text>
<text text-anchor="start" x="328" y="-29.5" font-family="Helvetica,sans-Serif" font-size="10.00">_binary_operation&lt; Kind,</text>
<text text-anchor="start" x="328" y="-18.5" font-family="Helvetica,sans-Serif" font-size="10.00"> FirstOperand, SecondOperand,</text>
<text text-anchor="middle" x="403.5" y="-7.5" font-family="Helvetica,sans-Serif" font-size="10.00">::gko::accessor::detail::mul &gt;</text>
</g>
<!-- Node2&#45;&gt;Node1 -->
<g id="edge1" class="edge"><title>Node2&#45;&gt;Node1</title>
<path fill="none" stroke="midnightblue" d="M497.28,-26.5C506.369,-26.5 515.401,-26.5 523.995,-26.5"/>
<polygon fill="midnightblue" stroke="midnightblue" points="497.014,-23.0001 487.014,-26.5 497.014,-30.0001 497.014,-23.0001"/>
</g>
<!-- Node3 -->
<g id="node3" class="node"><title>Node3</title>
<polygon fill="white" stroke="#bfbfbf" points="0,-0.5 0,-52.5 167,-52.5 167,-0.5 0,-0.5"/>
<text text-anchor="start" x="8" y="-40.5" font-family="Helvetica,sans-Serif" font-size="10.00">gko::detail::implement</text>
<text text-anchor="start" x="8" y="-29.5" font-family="Helvetica,sans-Serif" font-size="10.00">_binary_operation&lt; Kind,</text>
<text text-anchor="start" x="8" y="-18.5" font-family="Helvetica,sans-Serif" font-size="10.00"> FirstOperand, SecondOperand,</text>
<text text-anchor="middle" x="83.5" y="-7.5" font-family="Helvetica,sans-Serif" font-size="10.00"> Operation &gt;</text>
</g>
<!-- Node3&#45;&gt;Node2 -->
<g id="edge2" class="edge"><title>Node3&#45;&gt;Node2</title>
<path fill="none" stroke="orange" stroke-dasharray="5,2" d="M177.304,-26.5C222.434,-26.5 276.226,-26.5 319.918,-26.5"/>
<polygon fill="orange" stroke="orange" points="177.221,-23.0001 167.221,-26.5 177.221,-30.0001 177.221,-23.0001"/>
<text text-anchor="start" x="185" y="-51.5" font-family="Helvetica,sans-Serif" font-size="10.00"> &lt; Kind, FirstOperand,</text>
<text text-anchor="start" x="185" y="-40.5" font-family="Helvetica,sans-Serif" font-size="10.00"> SecondOperand,::gko</text>
<text text-anchor="middle" x="243.5" y="-29.5" font-family="Helvetica,sans-Serif" font-size="10.00">::accessor::detail::mul &gt;</text>
</g>
</g>
</svg>
