<?xml version="1.0" encoding="UTF-8" standalone="no"?>
<!DOCTYPE svg PUBLIC "-//W3C//DTD SVG 1.1//EN"
 "http://www.w3.org/Graphics/SVG/1.1/DTD/svg11.dtd">
<!-- Generated by graphviz version 2.38.0 (20140413.2041)
 -->
<!-- Title: gko::solver::Bicgstab&lt; ValueType &gt;::parameters_type Pages: 1 -->
<svg width="826pt" height="100pt"
 viewBox="0.00 0.00 826.00 99.50" xmlns="http://www.w3.org/2000/svg" xmlns:xlink="http://www.w3.org/1999/xlink">
<g id="graph0" class="graph" transform="scale(1 1) rotate(0) translate(4 95.5)">
<title>gko::solver::Bicgstab&lt; ValueType &gt;::parameters_type</title>
<polygon fill="white" stroke="none" points="-4,4 -4,-95.5 822,-95.5 822,4 -4,4"/>
<!-- Node1 -->
<g id="node1" class="node"><title>Node1</title>
<polygon fill="#bfbfbf" stroke="black" points="643,-30.5 643,-60.5 818,-60.5 818,-30.5 643,-30.5"/>
<text text-anchor="start" x="651" y="-48.5" font-family="Helvetica,sans-Serif" font-size="10.00">gko::solver::Bicgstab</text>
<text text-anchor="middle" x="730.5" y="-37.5" font-family="Helvetica,sans-Serif" font-size="10.00">&lt; ValueType &gt;::parameters_type</text>
</g>
<!-- Node2 -->
<g id="node2" class="node"><title>Node2</title>
<g id="a_node2"><a xlink:href="structgko_1_1enable__parameters__type.html" target="_top" xlink:title="gko::enable_parameters\l_type\&lt; parameters_type,\l Factory \&gt;">
<polygon fill="white" stroke="black" points="400,-49 400,-90 540,-90 540,-49 400,-49"/>
<text text-anchor="start" x="408" y="-78" font-family="Helvetica,sans-Serif" font-size="10.00">gko::enable_parameters</text>
<text text-anchor="start" x="408" y="-67" font-family="Helvetica,sans-Serif" font-size="10.00">_type&lt; parameters_type,</text>
<text text-anchor="middle" x="470" y="-56" font-family="Helvetica,sans-Serif" font-size="10.00"> Factory &gt;</text>
</a>
</g>
</g>
<!-- Node2&#45;&gt;Node1 -->
<g id="edge1" class="edge"><title>Node2&#45;&gt;Node1</title>
<path fill="none" stroke="midnightblue" d="M550.45,-62.1236C579.73,-59.4051 613.036,-56.3129 642.915,-53.5388"/>
<polygon fill="midnightblue" stroke="midnightblue" points="549.907,-58.6589 540.273,-63.0684 550.554,-65.6289 549.907,-58.6589"/>
</g>
<!-- Node3 -->
<g id="node3" class="node"><title>Node3</title>
<g id="a_node3"><a xlink:href="structgko_1_1enable__parameters__type.html" target="_top" xlink:title="The enable_parameters_type mixin is used to create a base implementation of the factory parameters st...">
<polygon fill="white" stroke="black" points="0,-49 0,-90 177,-90 177,-49 0,-49"/>
<text text-anchor="start" x="8" y="-78" font-family="Helvetica,sans-Serif" font-size="10.00">gko::enable_parameters</text>
<text text-anchor="start" x="8" y="-67" font-family="Helvetica,sans-Serif" font-size="10.00">_type&lt; ConcreteParametersType,</text>
<text text-anchor="middle" x="88.5" y="-56" font-family="Helvetica,sans-Serif" font-size="10.00"> Factory &gt;</text>
</a>
</g>
</g>
<!-- Node3&#45;&gt;Node2 -->
<g id="edge2" class="edge"><title>Node3&#45;&gt;Node2</title>
<path fill="none" stroke="orange" stroke-dasharray="5,2" d="M187.136,-69.5C253.755,-69.5 340.373,-69.5 399.909,-69.5"/>
<polygon fill="orange" stroke="orange" points="187.042,-66.0001 177.041,-69.5 187.041,-73.0001 187.042,-66.0001"/>
<text text-anchor="start" x="223.5" y="-83.5" font-family="Helvetica,sans-Serif" font-size="10.00"> &lt; parameters_type,</text>
<text text-anchor="middle" x="273.5" y="-72.5" font-family="Helvetica,sans-Serif" font-size="10.00"> Factory &gt;</text>
</g>
<!-- Node4 -->
<g id="node4" class="node"><title>Node4</title>
<polygon fill="white" stroke="#bfbfbf" points="370,-0.5 370,-30.5 570,-30.5 570,-0.5 370,-0.5"/>
<text text-anchor="start" x="378" y="-18.5" font-family="Helvetica,sans-Serif" font-size="10.00">std::vector&lt; std::shared</text>
<text text-anchor="middle" x="470" y="-7.5" font-family="Helvetica,sans-Serif" font-size="10.00">_ptr&lt; const stop::CriterionFactory &gt; &gt;</text>
</g>
<!-- Node4&#45;&gt;Node1 -->
<g id="edge3" class="edge"><title>Node4&#45;&gt;Node1</title>
<path fill="none" stroke="#9a32cd" stroke-dasharray="5,2" d="M580.371,-28.193C601.219,-30.6124 622.773,-33.1139 642.794,-35.4374"/>
<polygon fill="#9a32cd" stroke="#9a32cd" points="580.54,-24.6892 570.204,-27.013 579.733,-31.6425 580.54,-24.6892"/>
<text text-anchor="middle" x="606.5" y="-35.5" font-family="Helvetica,sans-Serif" font-size="10.00"> criteria</text>
</g>
<!-- Node5 -->
<g id="node5" class="node"><title>Node5</title>
<g id="a_node5"><a xlink:title="STL class. ">
<polygon fill="white" stroke="#bfbfbf" points="41,-6 41,-25 136,-25 136,-6 41,-6"/>
<text text-anchor="middle" x="88.5" y="-13" font-family="Helvetica,sans-Serif" font-size="10.00">std::vector&lt; T &gt;</text>
</a>
</g>
</g>
<!-- Node5&#45;&gt;Node4 -->
<g id="edge4" class="edge"><title>Node5&#45;&gt;Node4</title>
<path fill="none" stroke="orange" stroke-dasharray="5,2" d="M146.268,-15.5C205.222,-15.5 298.617,-15.5 369.802,-15.5"/>
<polygon fill="orange" stroke="orange" points="146.034,-12.0001 136.034,-15.5 146.034,-19.0001 146.034,-12.0001"/>
<text text-anchor="start" x="195" y="-29.5" font-family="Helvetica,sans-Serif" font-size="10.00"> &lt; std::shared_ptr&lt;</text>
<text text-anchor="middle" x="273.5" y="-18.5" font-family="Helvetica,sans-Serif" font-size="10.00"> const stop::CriterionFactory &gt; &gt;</text>
</g>
</g>
</svg>
