<?xml version="1.0" encoding="UTF-8" standalone="no"?>
<!DOCTYPE svg PUBLIC "-//W3C//DTD SVG 1.1//EN"
 "http://www.w3.org/Graphics/SVG/1.1/DTD/svg11.dtd">
<!-- Generated by graphviz version 2.38.0 (20140413.2041)
 -->
<!-- Title: gko::log::polymorphic_object_data Pages: 1 -->
<svg width="138pt" height="231pt"
 viewBox="0.00 0.00 138.00 231.00" xmlns="http://www.w3.org/2000/svg" xmlns:xlink="http://www.w3.org/1999/xlink">
<g id="graph0" class="graph" transform="scale(1 1) rotate(0) translate(4 227)">
<title>gko::log::polymorphic_object_data</title>
<polygon fill="white" stroke="none" points="-4,4 -4,-227 134,-227 134,4 -4,4"/>
<!-- Node1 -->
<g id="node1" class="node"><title>Node1</title>
<polygon fill="#bfbfbf" stroke="black" points="5.5,-0.5 5.5,-30.5 124.5,-30.5 124.5,-0.5 5.5,-0.5"/>
<text text-anchor="start" x="13.5" y="-18.5" font-family="Helvetica,sans-Serif" font-size="10.00">gko::log::polymorphic</text>
<text text-anchor="middle" x="65" y="-7.5" font-family="Helvetica,sans-Serif" font-size="10.00">_object_data</text>
</g>
<!-- Node2 -->
<g id="node2" class="node"><title>Node2</title>
<g id="a_node2"><a xlink:href="classgko_1_1Executor.html" target="_top" xlink:title="The first step in using the Ginkgo library consists of creating an executor. ">
<polygon fill="white" stroke="black" points="24,-78.5 24,-97.5 106,-97.5 106,-78.5 24,-78.5"/>
<text text-anchor="middle" x="65" y="-85.5" font-family="Helvetica,sans-Serif" font-size="10.00">gko::Executor</text>
</a>
</g>
</g>
<!-- Node2&#45;&gt;Node1 -->
<g id="edge1" class="edge"><title>Node2&#45;&gt;Node1</title>
<path fill="none" stroke="#9a32cd" stroke-dasharray="5,2" d="M65,-68.2362C65,-56.4079 65,-41.3829 65,-30.5762"/>
<polygon fill="#9a32cd" stroke="#9a32cd" points="61.5001,-68.3553 65,-78.3553 68.5001,-68.3554 61.5001,-68.3553"/>
<text text-anchor="middle" x="78" y="-52" font-family="Helvetica,sans-Serif" font-size="10.00"> exec</text>
</g>
<!-- Node3 -->
<g id="node3" class="node"><title>Node3</title>
<g id="a_node3"><a xlink:href="classgko_1_1log_1_1EnableLogging.html" target="_top" xlink:title="gko::log::EnableLogging\l\&lt; Executor \&gt;">
<polygon fill="white" stroke="black" points="0,-135.5 0,-165.5 130,-165.5 130,-135.5 0,-135.5"/>
<text text-anchor="start" x="8" y="-153.5" font-family="Helvetica,sans-Serif" font-size="10.00">gko::log::EnableLogging</text>
<text text-anchor="middle" x="65" y="-142.5" font-family="Helvetica,sans-Serif" font-size="10.00">&lt; Executor &gt;</text>
</a>
</g>
</g>
<!-- Node3&#45;&gt;Node2 -->
<g id="edge2" class="edge"><title>Node3&#45;&gt;Node2</title>
<path fill="none" stroke="midnightblue" d="M65,-125.352C65,-115.513 65,-104.775 65,-97.5399"/>
<polygon fill="midnightblue" stroke="midnightblue" points="61.5001,-125.468 65,-135.468 68.5001,-125.468 61.5001,-125.468"/>
</g>
<!-- Node4 -->
<g id="node4" class="node"><title>Node4</title>
<g id="a_node4"><a xlink:href="classgko_1_1log_1_1Loggable.html" target="_top" xlink:title="Loggable class is an interface which should be implemented by classes wanting to support logging...">
<polygon fill="white" stroke="black" points="13,-203.5 13,-222.5 117,-222.5 117,-203.5 13,-203.5"/>
<text text-anchor="middle" x="65" y="-210.5" font-family="Helvetica,sans-Serif" font-size="10.00">gko::log::Loggable</text>
</a>
</g>
</g>
<!-- Node4&#45;&gt;Node3 -->
<g id="edge3" class="edge"><title>Node4&#45;&gt;Node3</title>
<path fill="none" stroke="midnightblue" d="M65,-193.215C65,-184.356 65,-173.958 65,-165.759"/>
<polygon fill="midnightblue" stroke="midnightblue" points="61.5001,-193.332 65,-203.332 68.5001,-193.332 61.5001,-193.332"/>
</g>
</g>
</svg>
