<?xml version="1.0" encoding="UTF-8" standalone="no"?>
<!DOCTYPE svg PUBLIC "-//W3C//DTD SVG 1.1//EN"
 "http://www.w3.org/Graphics/SVG/1.1/DTD/svg11.dtd">
<!-- Generated by graphviz version 2.38.0 (20140413.2041)
 -->
<!-- Title: gko::stop::ResidualNormReduction&lt; ValueType &gt;::parameters_type Pages: 1 -->
<svg width="198pt" height="218pt"
 viewBox="0.00 0.00 197.50 218.00" xmlns="http://www.w3.org/2000/svg" xmlns:xlink="http://www.w3.org/1999/xlink">
<g id="graph0" class="graph" transform="scale(1 1) rotate(0) translate(4 214)">
<title>gko::stop::ResidualNormReduction&lt; ValueType &gt;::parameters_type</title>
<polygon fill="white" stroke="none" points="-4,4 -4,-214 193.5,-214 193.5,4 -4,4"/>
<!-- Node1 -->
<g id="node1" class="node"><title>Node1</title>
<polygon fill="#bfbfbf" stroke="black" points="0,-0.5 0,-30.5 179,-30.5 179,-0.5 0,-0.5"/>
<text text-anchor="start" x="8" y="-18.5" font-family="Helvetica,sans-Serif" font-size="10.00">gko::stop::ResidualNormReduction</text>
<text text-anchor="middle" x="89.5" y="-7.5" font-family="Helvetica,sans-Serif" font-size="10.00">&lt; ValueType &gt;::parameters_type</text>
</g>
<!-- Node2 -->
<g id="node2" class="node"><title>Node2</title>
<g id="a_node2"><a xlink:href="structgko_1_1enable__parameters__type.html" target="_top" xlink:title="gko::enable_parameters\l_type\&lt; parameters_type,\l Factory \&gt;">
<polygon fill="white" stroke="black" points="19.5,-68.5 19.5,-109.5 159.5,-109.5 159.5,-68.5 19.5,-68.5"/>
<text text-anchor="start" x="27.5" y="-97.5" font-family="Helvetica,sans-Serif" font-size="10.00">gko::enable_parameters</text>
<text text-anchor="start" x="27.5" y="-86.5" font-family="Helvetica,sans-Serif" font-size="10.00">_type&lt; parameters_type,</text>
<text text-anchor="middle" x="89.5" y="-75.5" font-family="Helvetica,sans-Serif" font-size="10.00"> Factory &gt;</text>
</a>
</g>
</g>
<!-- Node2&#45;&gt;Node1 -->
<g id="edge1" class="edge"><title>Node2&#45;&gt;Node1</title>
<path fill="none" stroke="midnightblue" d="M89.5,-58.1581C89.5,-48.6872 89.5,-38.6473 89.5,-30.7972"/>
<polygon fill="midnightblue" stroke="midnightblue" points="86.0001,-58.4623 89.5,-68.4623 93.0001,-58.4623 86.0001,-58.4623"/>
</g>
<!-- Node3 -->
<g id="node3" class="node"><title>Node3</title>
<g id="a_node3"><a xlink:href="structgko_1_1enable__parameters__type.html" target="_top" xlink:title="The enable_parameters_type mixin is used to create a base implementation of the factory parameters st...">
<polygon fill="white" stroke="black" points="1,-168.5 1,-209.5 178,-209.5 178,-168.5 1,-168.5"/>
<text text-anchor="start" x="9" y="-197.5" font-family="Helvetica,sans-Serif" font-size="10.00">gko::enable_parameters</text>
<text text-anchor="start" x="9" y="-186.5" font-family="Helvetica,sans-Serif" font-size="10.00">_type&lt; ConcreteParametersType,</text>
<text text-anchor="middle" x="89.5" y="-175.5" font-family="Helvetica,sans-Serif" font-size="10.00"> Factory &gt;</text>
</a>
</g>
</g>
<!-- Node3&#45;&gt;Node2 -->
<g id="edge2" class="edge"><title>Node3&#45;&gt;Node2</title>
<path fill="none" stroke="orange" stroke-dasharray="5,2" d="M89.5,-157.925C89.5,-142.286 89.5,-123.61 89.5,-109.802"/>
<polygon fill="orange" stroke="orange" points="86.0001,-158.168 89.5,-168.168 93.0001,-158.168 86.0001,-158.168"/>
<text text-anchor="start" x="89.5" y="-142" font-family="Helvetica,sans-Serif" font-size="10.00"> &lt; parameters_type,</text>
<text text-anchor="middle" x="139.5" y="-131" font-family="Helvetica,sans-Serif" font-size="10.00"> Factory &gt;</text>
</g>
</g>
</svg>
