<?xml version="1.0" encoding="UTF-8" standalone="no"?>
<!DOCTYPE svg PUBLIC "-//W3C//DTD SVG 1.1//EN"
 "http://www.w3.org/Graphics/SVG/1.1/DTD/svg11.dtd">
<!-- Generated by graphviz version 2.38.0 (20140413.2041)
 -->
<!-- Title: gko::accessor::not_equal&lt; Kind, FirstOperand, SecondOperand &gt; Pages: 1 -->
<svg width="378pt" height="61pt"
 viewBox="0.00 0.00 378.00 61.00" xmlns="http://www.w3.org/2000/svg" xmlns:xlink="http://www.w3.org/1999/xlink">
<g id="graph0" class="graph" transform="scale(1 1) rotate(0) translate(4 57)">
<title>gko::accessor::not_equal&lt; Kind, FirstOperand, SecondOperand &gt;</title>
<polygon fill="white" stroke="none" points="-4,4 -4,-57 374,-57 374,4 -4,4"/>
<!-- Node1 -->
<g id="node1" class="node"><title>Node1</title>
<polygon fill="#bfbfbf" stroke="black" points="221,-6 221,-47 370,-47 370,-6 221,-6"/>
<text text-anchor="start" x="229" y="-35" font-family="Helvetica,sans-Serif" font-size="10.00">gko::accessor::not</text>
<text text-anchor="start" x="229" y="-24" font-family="Helvetica,sans-Serif" font-size="10.00">_equal&lt; Kind, FirstOperand,</text>
<text text-anchor="middle" x="295.5" y="-13" font-family="Helvetica,sans-Serif" font-size="10.00"> SecondOperand &gt;</text>
</g>
<!-- Node2 -->
<g id="node2" class="node"><title>Node2</title>
<polygon fill="white" stroke="#bfbfbf" points="0,-0.5 0,-52.5 185,-52.5 185,-0.5 0,-0.5"/>
<text text-anchor="start" x="8" y="-40.5" font-family="Helvetica,sans-Serif" font-size="10.00">gko::detail::implement</text>
<text text-anchor="start" x="8" y="-29.5" font-family="Helvetica,sans-Serif" font-size="10.00">_binary_operation&lt; Kind,</text>
<text text-anchor="start" x="8" y="-18.5" font-family="Helvetica,sans-Serif" font-size="10.00"> FirstOperand, SecondOperand,</text>
<text text-anchor="middle" x="92.5" y="-7.5" font-family="Helvetica,sans-Serif" font-size="10.00">::gko::accessor::detail::not_equal &gt;</text>
</g>
<!-- Node2&#45;&gt;Node1 -->
<g id="edge1" class="edge"><title>Node2&#45;&gt;Node1</title>
<path fill="none" stroke="midnightblue" d="M195.248,-26.5C203.835,-26.5 212.41,-26.5 220.722,-26.5"/>
<polygon fill="midnightblue" stroke="midnightblue" points="195.177,-23.0001 185.177,-26.5 195.177,-30.0001 195.177,-23.0001"/>
</g>
</g>
</svg>
