<?xml version="1.0" encoding="UTF-8" standalone="no"?>
<!DOCTYPE svg PUBLIC "-//W3C//DTD SVG 1.1//EN"
 "http://www.w3.org/Graphics/SVG/1.1/DTD/svg11.dtd">
<!-- Generated by graphviz version 2.38.0 (20140413.2041)
 -->
<!-- Title: gko::log::Record::logged_data Pages: 1 -->
<svg width="738pt" height="555pt"
 viewBox="0.00 0.00 738.00 554.50" xmlns="http://www.w3.org/2000/svg" xmlns:xlink="http://www.w3.org/1999/xlink">
<g id="graph0" class="graph" transform="scale(1 1) rotate(0) translate(4 550.5)">
<title>gko::log::Record::logged_data</title>
<polygon fill="white" stroke="none" points="-4,4 -4,-550.5 734,-550.5 734,4 -4,4"/>
<!-- Node1 -->
<g id="node1" class="node"><title>Node1</title>
<polygon fill="#bfbfbf" stroke="black" points="572,-213 572,-232 730,-232 730,-213 572,-213"/>
<text text-anchor="middle" x="651" y="-220" font-family="Helvetica,sans-Serif" font-size="10.00">gko::log::Record::logged_data</text>
</g>
<!-- Node2 -->
<g id="node2" class="node"><title>Node2</title>
<polygon fill="white" stroke="#bfbfbf" points="263.5,-461 263.5,-502 395.5,-502 395.5,-461 263.5,-461"/>
<text text-anchor="start" x="271.5" y="-490" font-family="Helvetica,sans-Serif" font-size="10.00">std::deque&lt; std::unique</text>
<text text-anchor="start" x="271.5" y="-479" font-family="Helvetica,sans-Serif" font-size="10.00">_ptr&lt; gko::log::linop</text>
<text text-anchor="middle" x="329.5" y="-468" font-family="Helvetica,sans-Serif" font-size="10.00">_factory_data &gt; &gt;</text>
</g>
<!-- Node2&#45;&gt;Node1 -->
<g id="edge1" class="edge"><title>Node2&#45;&gt;Node1</title>
<path fill="none" stroke="#9a32cd" stroke-dasharray="5,2" d="M405.799,-499.694C452.576,-506.506 511.647,-506.475 554,-476.5 639.04,-416.314 648.797,-270.748 649.876,-232.07"/>
<polygon fill="#9a32cd" stroke="#9a32cd" points="406.138,-496.204 395.713,-498.093 405.04,-503.117 406.138,-496.204"/>
<text text-anchor="start" x="431.5" y="-538.5" font-family="Helvetica,sans-Serif" font-size="10.00"> linop_factory_generate</text>
<text text-anchor="middle" x="488" y="-527.5" font-family="Helvetica,sans-Serif" font-size="10.00">_completed</text>
<text text-anchor="start" x="431.5" y="-516.5" font-family="Helvetica,sans-Serif" font-size="10.00">linop_factory_generate</text>
<text text-anchor="middle" x="488" y="-505.5" font-family="Helvetica,sans-Serif" font-size="10.00">_started</text>
</g>
<!-- Node3 -->
<g id="node3" class="node"><title>Node3</title>
<g id="a_node3"><a xlink:title="STL class. ">
<polygon fill="white" stroke="#bfbfbf" points="0,-233 0,-252 95,-252 95,-233 0,-233"/>
<text text-anchor="middle" x="47.5" y="-240" font-family="Helvetica,sans-Serif" font-size="10.00">std::deque&lt; T &gt;</text>
</a>
</g>
</g>
<!-- Node3&#45;&gt;Node2 -->
<g id="edge2" class="edge"><title>Node3&#45;&gt;Node2</title>
<path fill="none" stroke="orange" stroke-dasharray="5,2" d="M49.2393,-262.489C51.7967,-301.17 63.1176,-386.413 113,-431.5 153.745,-468.328 216.212,-479.614 263.42,-482.401"/>
<polygon fill="orange" stroke="orange" points="52.7122,-261.878 48.694,-252.075 45.7218,-262.244 52.7122,-261.878"/>
<text text-anchor="start" x="121" y="-503.5" font-family="Helvetica,sans-Serif" font-size="10.00"> &lt; std::unique_ptr&lt;</text>
<text text-anchor="start" x="121" y="-492.5" font-family="Helvetica,sans-Serif" font-size="10.00"> gko::log::linop_factory</text>
<text text-anchor="middle" x="175" y="-481.5" font-family="Helvetica,sans-Serif" font-size="10.00">_data &gt; &gt;</text>
</g>
<!-- Node4 -->
<g id="node4" class="node"><title>Node4</title>
<polygon fill="white" stroke="#bfbfbf" points="263.5,-382 263.5,-423 395.5,-423 395.5,-382 263.5,-382"/>
<text text-anchor="start" x="271.5" y="-411" font-family="Helvetica,sans-Serif" font-size="10.00">std::deque&lt; std::unique</text>
<text text-anchor="start" x="271.5" y="-400" font-family="Helvetica,sans-Serif" font-size="10.00">_ptr&lt; gko::log::linop</text>
<text text-anchor="middle" x="329.5" y="-389" font-family="Helvetica,sans-Serif" font-size="10.00">_data &gt; &gt;</text>
</g>
<!-- Node3&#45;&gt;Node4 -->
<g id="edge4" class="edge"><title>Node3&#45;&gt;Node4</title>
<path fill="none" stroke="orange" stroke-dasharray="5,2" d="M52.7609,-262.14C59.9703,-290.32 77.4046,-341.671 113,-367.5 156.256,-398.888 217.237,-406.317 263.295,-406.659"/>
<polygon fill="orange" stroke="orange" points="56.1293,-261.175 50.4118,-252.256 49.319,-262.794 56.1293,-261.175"/>
<text text-anchor="start" x="115.5" y="-419.5" font-family="Helvetica,sans-Serif" font-size="10.00"> &lt; std::unique_ptr&lt;</text>
<text text-anchor="middle" x="175" y="-408.5" font-family="Helvetica,sans-Serif" font-size="10.00"> gko::log::linop_data &gt; &gt;</text>
</g>
<!-- Node5 -->
<g id="node5" class="node"><title>Node5</title>
<polygon fill="white" stroke="#bfbfbf" points="255,-312 255,-353 404,-353 404,-312 255,-312"/>
<text text-anchor="start" x="263" y="-341" font-family="Helvetica,sans-Serif" font-size="10.00">std::deque&lt; std::unique</text>
<text text-anchor="start" x="263" y="-330" font-family="Helvetica,sans-Serif" font-size="10.00">_ptr&lt; gko::log::polymorphic</text>
<text text-anchor="middle" x="329.5" y="-319" font-family="Helvetica,sans-Serif" font-size="10.00">_object_data &gt; &gt;</text>
</g>
<!-- Node3&#45;&gt;Node5 -->
<g id="edge6" class="edge"><title>Node3&#45;&gt;Node5</title>
<path fill="none" stroke="orange" stroke-dasharray="5,2" d="M62.6296,-259.852C74.5749,-273.25 92.9149,-291.047 113,-300.5 157.232,-321.318 211.733,-329.272 254.858,-332.045"/>
<polygon fill="orange" stroke="orange" points="65.227,-257.505 56.0599,-252.193 59.9137,-262.062 65.227,-257.505"/>
<text text-anchor="start" x="122" y="-355.5" font-family="Helvetica,sans-Serif" font-size="10.00"> &lt; std::unique_ptr&lt;</text>
<text text-anchor="start" x="122" y="-344.5" font-family="Helvetica,sans-Serif" font-size="10.00"> gko::log::polymorphic</text>
<text text-anchor="middle" x="175" y="-333.5" font-family="Helvetica,sans-Serif" font-size="10.00">_object_data &gt; &gt;</text>
</g>
<!-- Node6 -->
<g id="node6" class="node"><title>Node6</title>
<polygon fill="white" stroke="#bfbfbf" points="263.5,-252 263.5,-293 395.5,-293 395.5,-252 263.5,-252"/>
<text text-anchor="start" x="271.5" y="-281" font-family="Helvetica,sans-Serif" font-size="10.00">std::deque&lt; std::unique</text>
<text text-anchor="start" x="271.5" y="-270" font-family="Helvetica,sans-Serif" font-size="10.00">_ptr&lt; gko::log::iteration</text>
<text text-anchor="middle" x="329.5" y="-259" font-family="Helvetica,sans-Serif" font-size="10.00">_complete_data &gt; &gt;</text>
</g>
<!-- Node3&#45;&gt;Node6 -->
<g id="edge8" class="edge"><title>Node3&#45;&gt;Node6</title>
<path fill="none" stroke="orange" stroke-dasharray="5,2" d="M105.217,-248.661C107.848,-248.945 110.452,-249.226 113,-249.5 163.503,-254.936 220.67,-261.034 263.428,-265.585"/>
<polygon fill="orange" stroke="orange" points="105.322,-245.152 95.0035,-247.557 104.569,-252.112 105.322,-245.152"/>
<text text-anchor="start" x="125" y="-288.5" font-family="Helvetica,sans-Serif" font-size="10.00"> &lt; std::unique_ptr&lt;</text>
<text text-anchor="start" x="125" y="-277.5" font-family="Helvetica,sans-Serif" font-size="10.00"> gko::log::iteration</text>
<text text-anchor="middle" x="175" y="-266.5" font-family="Helvetica,sans-Serif" font-size="10.00">_complete_data &gt; &gt;</text>
</g>
<!-- Node7 -->
<g id="node7" class="node"><title>Node7</title>
<polygon fill="white" stroke="#bfbfbf" points="261.5,-192 261.5,-233 397.5,-233 397.5,-192 261.5,-192"/>
<text text-anchor="start" x="269.5" y="-221" font-family="Helvetica,sans-Serif" font-size="10.00">std::deque&lt; std::unique</text>
<text text-anchor="start" x="269.5" y="-210" font-family="Helvetica,sans-Serif" font-size="10.00">_ptr&lt; gko::log::operation</text>
<text text-anchor="middle" x="329.5" y="-199" font-family="Helvetica,sans-Serif" font-size="10.00">_data &gt; &gt;</text>
</g>
<!-- Node3&#45;&gt;Node7 -->
<g id="edge10" class="edge"><title>Node3&#45;&gt;Node7</title>
<path fill="none" stroke="orange" stroke-dasharray="5,2" d="M73.0735,-227.989C84.7476,-221.915 99.1516,-215.563 113,-212.5 161.768,-201.713 218.277,-202.177 261.191,-205.09"/>
<polygon fill="orange" stroke="orange" points="71.0851,-225.087 63.9815,-232.948 74.4366,-231.233 71.0851,-225.087"/>
<text text-anchor="start" x="127.5" y="-237.5" font-family="Helvetica,sans-Serif" font-size="10.00"> &lt; std::unique_ptr&lt;</text>
<text text-anchor="start" x="127.5" y="-226.5" font-family="Helvetica,sans-Serif" font-size="10.00"> gko::log::operation</text>
<text text-anchor="middle" x="175" y="-215.5" font-family="Helvetica,sans-Serif" font-size="10.00">_data &gt; &gt;</text>
</g>
<!-- Node8 -->
<g id="node8" class="node"><title>Node8</title>
<polygon fill="white" stroke="#bfbfbf" points="263.5,-132 263.5,-173 395.5,-173 395.5,-132 263.5,-132"/>
<text text-anchor="start" x="271.5" y="-161" font-family="Helvetica,sans-Serif" font-size="10.00">std::deque&lt; std::unique</text>
<text text-anchor="start" x="271.5" y="-150" font-family="Helvetica,sans-Serif" font-size="10.00">_ptr&lt; gko::log::criterion</text>
<text text-anchor="middle" x="329.5" y="-139" font-family="Helvetica,sans-Serif" font-size="10.00">_data &gt; &gt;</text>
</g>
<!-- Node3&#45;&gt;Node8 -->
<g id="edge12" class="edge"><title>Node3&#45;&gt;Node8</title>
<path fill="none" stroke="orange" stroke-dasharray="5,2" d="M58.4092,-223.808C69.1777,-205.622 88.2146,-178.965 113,-166.5 159.39,-143.17 218.661,-140.986 263.297,-143.896"/>
<polygon fill="orange" stroke="orange" points="55.1488,-222.465 53.2934,-232.896 61.2488,-225.899 55.1488,-222.465"/>
<text text-anchor="start" x="127.5" y="-191.5" font-family="Helvetica,sans-Serif" font-size="10.00"> &lt; std::unique_ptr&lt;</text>
<text text-anchor="start" x="127.5" y="-180.5" font-family="Helvetica,sans-Serif" font-size="10.00"> gko::log::criterion</text>
<text text-anchor="middle" x="175" y="-169.5" font-family="Helvetica,sans-Serif" font-size="10.00">_data &gt; &gt;</text>
</g>
<!-- Node9 -->
<g id="node9" class="node"><title>Node9</title>
<polygon fill="white" stroke="#bfbfbf" points="263.5,-72 263.5,-113 395.5,-113 395.5,-72 263.5,-72"/>
<text text-anchor="start" x="271.5" y="-101" font-family="Helvetica,sans-Serif" font-size="10.00">std::deque&lt; std::unique</text>
<text text-anchor="start" x="271.5" y="-90" font-family="Helvetica,sans-Serif" font-size="10.00">_ptr&lt; gko::log::executor</text>
<text text-anchor="middle" x="329.5" y="-79" font-family="Helvetica,sans-Serif" font-size="10.00">_data &gt; &gt;</text>
</g>
<!-- Node3&#45;&gt;Node9 -->
<g id="edge14" class="edge"><title>Node3&#45;&gt;Node9</title>
<path fill="none" stroke="orange" stroke-dasharray="5,2" d="M51.462,-222.866C57.24,-192.178 73.1407,-133.56 113,-106.5 156.582,-76.9129 217.237,-75.5853 263.098,-80.41"/>
<polygon fill="orange" stroke="orange" points="47.9992,-222.353 49.7656,-232.799 54.8992,-223.531 47.9992,-222.353"/>
<text text-anchor="start" x="127.5" y="-131.5" font-family="Helvetica,sans-Serif" font-size="10.00"> &lt; std::unique_ptr&lt;</text>
<text text-anchor="start" x="127.5" y="-120.5" font-family="Helvetica,sans-Serif" font-size="10.00"> gko::log::executor</text>
<text text-anchor="middle" x="175" y="-109.5" font-family="Helvetica,sans-Serif" font-size="10.00">_data &gt; &gt;</text>
</g>
<!-- Node10 -->
<g id="node10" class="node"><title>Node10</title>
<polygon fill="white" stroke="#bfbfbf" points="256.5,-0.5 256.5,-52.5 402.5,-52.5 402.5,-0.5 256.5,-0.5"/>
<text text-anchor="start" x="264.5" y="-40.5" font-family="Helvetica,sans-Serif" font-size="10.00">std::deque&lt; std::unique</text>
<text text-anchor="start" x="264.5" y="-29.5" font-family="Helvetica,sans-Serif" font-size="10.00">_ptr&lt; std::tuple&lt; gko</text>
<text text-anchor="start" x="264.5" y="-18.5" font-family="Helvetica,sans-Serif" font-size="10.00">::log::executor_data, gko</text>
<text text-anchor="middle" x="329.5" y="-7.5" font-family="Helvetica,sans-Serif" font-size="10.00">::log::executor_data &gt; &gt; &gt;</text>
</g>
<!-- Node3&#45;&gt;Node10 -->
<g id="edge16" class="edge"><title>Node3&#45;&gt;Node10</title>
<path fill="none" stroke="orange" stroke-dasharray="5,2" d="M47.5863,-222.644C46.8129,-179.36 51.8538,-76.6952 113,-30.5 153.232,-0.105093 210.817,-0.5997 256.341,-7.88665"/>
<polygon fill="orange" stroke="orange" points="44.091,-222.855 47.897,-232.742 51.0877,-222.639 44.091,-222.855"/>
<text text-anchor="start" x="113" y="-66.5" font-family="Helvetica,sans-Serif" font-size="10.00"> &lt; std::unique_ptr&lt;</text>
<text text-anchor="start" x="113" y="-55.5" font-family="Helvetica,sans-Serif" font-size="10.00"> std::tuple&lt; gko::log</text>
<text text-anchor="start" x="113" y="-44.5" font-family="Helvetica,sans-Serif" font-size="10.00">::executor_data, gko::</text>
<text text-anchor="middle" x="175" y="-33.5" font-family="Helvetica,sans-Serif" font-size="10.00">log::executor_data &gt; &gt; &gt;</text>
</g>
<!-- Node4&#45;&gt;Node1 -->
<g id="edge3" class="edge"><title>Node4&#45;&gt;Node1</title>
<path fill="none" stroke="#9a32cd" stroke-dasharray="5,2" d="M405.82,-406.013C460.858,-407.192 529.909,-405.358 554,-390.5 614.615,-353.116 640.672,-262.436 647.839,-232.37"/>
<polygon fill="#9a32cd" stroke="#9a32cd" points="405.804,-402.511 395.72,-405.76 405.629,-409.509 405.804,-402.511"/>
<text text-anchor="middle" x="488" y="-464.5" font-family="Helvetica,sans-Serif" font-size="10.00"> linop_apply_completed</text>
<text text-anchor="start" x="431.5" y="-453.5" font-family="Helvetica,sans-Serif" font-size="10.00">linop_advanced_apply</text>
<text text-anchor="middle" x="488" y="-442.5" font-family="Helvetica,sans-Serif" font-size="10.00">_started</text>
<text text-anchor="start" x="431.5" y="-431.5" font-family="Helvetica,sans-Serif" font-size="10.00">linop_advanced_apply</text>
<text text-anchor="middle" x="488" y="-420.5" font-family="Helvetica,sans-Serif" font-size="10.00">_completed</text>
<text text-anchor="middle" x="488" y="-409.5" font-family="Helvetica,sans-Serif" font-size="10.00">linop_apply_started</text>
</g>
<!-- Node5&#45;&gt;Node1 -->
<g id="edge5" class="edge"><title>Node5&#45;&gt;Node1</title>
<path fill="none" stroke="#9a32cd" stroke-dasharray="5,2" d="M397.653,-306.831C399.84,-305.448 401.963,-304.005 404,-302.5 414.161,-294.993 411.092,-286.873 422,-280.5 473.417,-250.457 496.467,-272.87 554,-257.5 579.708,-250.632 608.248,-239.796 627.476,-232"/>
<polygon fill="#9a32cd" stroke="#9a32cd" points="395.854,-303.829 388.954,-311.868 399.362,-309.887 395.854,-303.829"/>
<text text-anchor="start" x="439.5" y="-382.5" font-family="Helvetica,sans-Serif" font-size="10.00"> polymorphic_object</text>
<text text-anchor="middle" x="488" y="-371.5" font-family="Helvetica,sans-Serif" font-size="10.00">_create_started</text>
<text text-anchor="start" x="439.5" y="-360.5" font-family="Helvetica,sans-Serif" font-size="10.00">polymorphic_object</text>
<text text-anchor="middle" x="488" y="-349.5" font-family="Helvetica,sans-Serif" font-size="10.00">_deleted</text>
<text text-anchor="start" x="439.5" y="-338.5" font-family="Helvetica,sans-Serif" font-size="10.00">polymorphic_object</text>
<text text-anchor="middle" x="488" y="-327.5" font-family="Helvetica,sans-Serif" font-size="10.00">_copy_started</text>
<text text-anchor="start" x="439.5" y="-316.5" font-family="Helvetica,sans-Serif" font-size="10.00">polymorphic_object</text>
<text text-anchor="middle" x="488" y="-305.5" font-family="Helvetica,sans-Serif" font-size="10.00">_copy_completed</text>
<text text-anchor="start" x="439.5" y="-294.5" font-family="Helvetica,sans-Serif" font-size="10.00">polymorphic_object</text>
<text text-anchor="middle" x="488" y="-283.5" font-family="Helvetica,sans-Serif" font-size="10.00">_create_completed</text>
</g>
<!-- Node6&#45;&gt;Node1 -->
<g id="edge7" class="edge"><title>Node6&#45;&gt;Node1</title>
<path fill="none" stroke="#9a32cd" stroke-dasharray="5,2" d="M405.588,-250.053C411.116,-248.742 416.629,-247.538 422,-246.5 471.435,-236.948 527.686,-230.976 571.947,-227.378"/>
<polygon fill="#9a32cd" stroke="#9a32cd" points="404.513,-246.713 395.647,-252.514 406.195,-253.508 404.513,-246.713"/>
<text text-anchor="middle" x="488" y="-249.5" font-family="Helvetica,sans-Serif" font-size="10.00"> iteration_completed</text>
</g>
<!-- Node7&#45;&gt;Node1 -->
<g id="edge9" class="edge"><title>Node7&#45;&gt;Node1</title>
<path fill="none" stroke="#9a32cd" stroke-dasharray="5,2" d="M408.151,-202.517C412.832,-202.117 417.476,-201.771 422,-201.5 480.562,-197.993 495.673,-195.195 554,-201.5 574.524,-203.719 597.093,-208.531 615.189,-212.99"/>
<polygon fill="#9a32cd" stroke="#9a32cd" points="407.509,-199.062 397.876,-203.474 408.158,-206.032 407.509,-199.062"/>
<text text-anchor="middle" x="488" y="-215.5" font-family="Helvetica,sans-Serif" font-size="10.00"> operation_completed</text>
<text text-anchor="middle" x="488" y="-204.5" font-family="Helvetica,sans-Serif" font-size="10.00">operation_launched</text>
</g>
<!-- Node8&#45;&gt;Node1 -->
<g id="edge11" class="edge"><title>Node8&#45;&gt;Node1</title>
<path fill="none" stroke="#9a32cd" stroke-dasharray="5,2" d="M405.852,-151.978C449.838,-153.456 505.959,-158.44 554,-172.5 585.021,-181.579 617.693,-201.029 635.795,-212.815"/>
<polygon fill="#9a32cd" stroke="#9a32cd" points="405.898,-148.478 395.803,-151.694 405.7,-155.476 405.898,-148.478"/>
<text text-anchor="middle" x="488" y="-186.5" font-family="Helvetica,sans-Serif" font-size="10.00"> criterion_check_completed</text>
<text text-anchor="middle" x="488" y="-175.5" font-family="Helvetica,sans-Serif" font-size="10.00">criterion_check_started</text>
</g>
<!-- Node9&#45;&gt;Node1 -->
<g id="edge13" class="edge"><title>Node9&#45;&gt;Node1</title>
<path fill="none" stroke="#9a32cd" stroke-dasharray="5,2" d="M405.778,-82.2547C451.088,-79.5339 508.595,-82.3852 554,-105.5 601.767,-129.817 634.366,-189.675 645.639,-212.989"/>
<polygon fill="#9a32cd" stroke="#9a32cd" points="405.448,-78.7692 395.717,-82.9613 405.938,-85.752 405.448,-78.7692"/>
<text text-anchor="middle" x="488" y="-141.5" font-family="Helvetica,sans-Serif" font-size="10.00"> allocation_started</text>
<text text-anchor="middle" x="488" y="-130.5" font-family="Helvetica,sans-Serif" font-size="10.00">free_completed</text>
<text text-anchor="middle" x="488" y="-119.5" font-family="Helvetica,sans-Serif" font-size="10.00">free_started</text>
<text text-anchor="middle" x="488" y="-108.5" font-family="Helvetica,sans-Serif" font-size="10.00">allocation_completed</text>
</g>
<!-- Node10&#45;&gt;Node1 -->
<g id="edge15" class="edge"><title>Node10&#45;&gt;Node1</title>
<path fill="none" stroke="#9a32cd" stroke-dasharray="5,2" d="M412.688,-20.1453C457.845,-20.6052 512.866,-28.0148 554,-55.5 612.949,-94.8887 640.1,-183.567 647.691,-212.887"/>
<polygon fill="#9a32cd" stroke="#9a32cd" points="412.618,-16.6452 402.622,-20.1545 412.625,-23.6452 412.618,-16.6452"/>
<text text-anchor="middle" x="488" y="-69.5" font-family="Helvetica,sans-Serif" font-size="10.00"> copy_completed</text>
<text text-anchor="middle" x="488" y="-58.5" font-family="Helvetica,sans-Serif" font-size="10.00">copy_started</text>
</g>
</g>
</svg>
