<?xml version="1.0" encoding="UTF-8" standalone="no"?>
<!DOCTYPE svg PUBLIC "-//W3C//DTD SVG 1.1//EN"
 "http://www.w3.org/Graphics/SVG/1.1/DTD/svg11.dtd">
<!-- Generated by graphviz version 2.40.1 (20161225.0304)
 -->
<!-- Title: gko::BadDimension Pages: 1 -->
<svg width="120pt" height="140pt"
 viewBox="0.00 0.00 120.00 140.00" xmlns="http://www.w3.org/2000/svg" xmlns:xlink="http://www.w3.org/1999/xlink">
<g id="graph0" class="graph" transform="scale(1 1) rotate(0) translate(4 136)">
<title>gko::BadDimension</title>
<polygon fill="#ffffff" stroke="transparent" points="-4,4 -4,-136 116,-136 116,4 -4,4"/>
<!-- Node1 -->
<g id="node1" class="node">
<title>Node1</title>
<g id="a_node1"><a xlink:title="BadDimension is thrown if an operation is being applied to a LinOp with bad dimensions.">
<polygon fill="#bfbfbf" stroke="#000000" points="0,-.5 0,-19.5 112,-19.5 112,-.5 0,-.5"/>
<text text-anchor="middle" x="56" y="-7.5" font-family="Helvetica,sans-Serif" font-size="10.00" fill="#000000">gko::BadDimension</text>
</a>
</g>
</g>
<!-- Node2 -->
<g id="node2" class="node">
<title>Node2</title>
<g id="a_node2"><a xlink:href="classgko_1_1Error.html" target="_top" xlink:title="The Error class is used to report exceptional behaviour in library functions.">
<polygon fill="#ffffff" stroke="#000000" points="24,-56.5 24,-75.5 88,-75.5 88,-56.5 24,-56.5"/>
<text text-anchor="middle" x="56" y="-63.5" font-family="Helvetica,sans-Serif" font-size="10.00" fill="#000000">gko::Error</text>
</a>
</g>
</g>
<!-- Node2&#45;&gt;Node1 -->
<g id="edge1" class="edge">
<title>Node2&#45;&gt;Node1</title>
<path fill="none" stroke="#191970" d="M56,-46.1575C56,-37.155 56,-26.9199 56,-19.6427"/>
<polygon fill="#191970" stroke="#191970" points="52.5001,-46.2455 56,-56.2455 59.5001,-46.2456 52.5001,-46.2455"/>
</g>
<!-- Node3 -->
<g id="node3" class="node">
<title>Node3</title>
<g id="a_node3"><a xlink:title="STL class.">
<polygon fill="#ffffff" stroke="#bfbfbf" points="13,-112.5 13,-131.5 99,-131.5 99,-112.5 13,-112.5"/>
<text text-anchor="middle" x="56" y="-119.5" font-family="Helvetica,sans-Serif" font-size="10.00" fill="#000000">std::exception</text>
</a>
</g>
</g>
<!-- Node3&#45;&gt;Node2 -->
<g id="edge2" class="edge">
<title>Node3&#45;&gt;Node2</title>
<path fill="none" stroke="#191970" d="M56,-102.1575C56,-93.155 56,-82.9199 56,-75.6427"/>
<polygon fill="#191970" stroke="#191970" points="52.5001,-102.2455 56,-112.2455 59.5001,-102.2456 52.5001,-102.2455"/>
</g>
</g>
</svg>
