<?xml version="1.0" encoding="UTF-8" standalone="no"?>
<!DOCTYPE svg PUBLIC "-//W3C//DTD SVG 1.1//EN"
 "http://www.w3.org/Graphics/SVG/1.1/DTD/svg11.dtd">
<!-- Generated by graphviz version 2.40.1 (20161225.0304)
 -->
<!-- Title: gko::accessor::bitwise_not&lt; Operand &gt; Pages: 1 -->
<svg width="657pt" height="61pt"
 viewBox="0.00 0.00 657.00 61.00" xmlns="http://www.w3.org/2000/svg" xmlns:xlink="http://www.w3.org/1999/xlink">
<g id="graph0" class="graph" transform="scale(1 1) rotate(0) translate(4 57)">
<title>gko::accessor::bitwise_not&lt; Operand &gt;</title>
<polygon fill="#ffffff" stroke="transparent" points="-4,4 -4,-57 653,-57 653,4 -4,4"/>
<!-- Node1 -->
<g id="node1" class="node">
<title>Node1</title>
<g id="a_node1"><a xlink:title=" ">
<polygon fill="#bfbfbf" stroke="#000000" points="524,-11.5 524,-41.5 649,-41.5 649,-11.5 524,-11.5"/>
<text text-anchor="start" x="532" y="-29.5" font-family="Helvetica,sans-Serif" font-size="10.00" fill="#000000">gko::accessor::bitwise</text>
<text text-anchor="middle" x="586.5" y="-18.5" font-family="Helvetica,sans-Serif" font-size="10.00" fill="#000000">_not&lt; Operand &gt;</text>
</a>
</g>
</g>
<!-- Node2 -->
<g id="node2" class="node">
<title>Node2</title>
<g id="a_node2"><a xlink:title=" ">
<polygon fill="#ffffff" stroke="#bfbfbf" points="330,-.5 330,-52.5 487,-52.5 487,-.5 330,-.5"/>
<text text-anchor="start" x="338" y="-40.5" font-family="Helvetica,sans-Serif" font-size="10.00" fill="#000000">gko::detail::implement</text>
<text text-anchor="start" x="338" y="-29.5" font-family="Helvetica,sans-Serif" font-size="10.00" fill="#000000">_unary_operation&lt; Operand,</text>
<text text-anchor="start" x="338" y="-18.5" font-family="Helvetica,sans-Serif" font-size="10.00" fill="#000000"> ::gko::accessor::detail</text>
<text text-anchor="middle" x="408.5" y="-7.5" font-family="Helvetica,sans-Serif" font-size="10.00" fill="#000000">::bitwise_not &gt;</text>
</a>
</g>
</g>
<!-- Node2&#45;&gt;Node1 -->
<g id="edge1" class="edge">
<title>Node2&#45;&gt;Node1</title>
<path fill="none" stroke="#191970" d="M497.2167,-26.5C506.2035,-26.5 515.1941,-26.5 523.8221,-26.5"/>
<polygon fill="#191970" stroke="#191970" points="497.0916,-23.0001 487.0915,-26.5 497.0915,-30.0001 497.0916,-23.0001"/>
</g>
<!-- Node3 -->
<g id="node3" class="node">
<title>Node3</title>
<g id="a_node3"><a xlink:title=" ">
<polygon fill="#ffffff" stroke="#bfbfbf" points="0,-6 0,-47 159,-47 159,-6 0,-6"/>
<text text-anchor="start" x="8" y="-35" font-family="Helvetica,sans-Serif" font-size="10.00" fill="#000000">gko::detail::implement</text>
<text text-anchor="start" x="8" y="-24" font-family="Helvetica,sans-Serif" font-size="10.00" fill="#000000">_unary_operation&lt; Accessor,</text>
<text text-anchor="middle" x="79.5" y="-13" font-family="Helvetica,sans-Serif" font-size="10.00" fill="#000000"> Operation &gt;</text>
</a>
</g>
</g>
<!-- Node3&#45;&gt;Node2 -->
<g id="edge2" class="edge">
<title>Node3&#45;&gt;Node2</title>
<path fill="none" stroke="#ffa500" stroke-dasharray="5,2" d="M169.3465,-26.5C219.5734,-26.5 281.5851,-26.5 329.876,-26.5"/>
<polygon fill="#ffa500" stroke="#ffa500" points="169.1418,-23.0001 159.1417,-26.5 169.1417,-30.0001 169.1418,-23.0001"/>
<text text-anchor="start" x="177" y="-40.5" font-family="Helvetica,sans-Serif" font-size="10.00" fill="#000000"> &lt; Operand, ::gko::accessor</text>
<text text-anchor="middle" x="244.5" y="-29.5" font-family="Helvetica,sans-Serif" font-size="10.00" fill="#000000">::detail::bitwise_not &gt;</text>
</g>
</g>
</svg>
