<?xml version="1.0" encoding="UTF-8" standalone="no"?>
<!DOCTYPE svg PUBLIC "-//W3C//DTD SVG 1.1//EN"
 "http://www.w3.org/Graphics/SVG/1.1/DTD/svg11.dtd">
<!-- Generated by graphviz version 2.40.1 (20161225.0304)
 -->
<!-- Title: gko::stop::Iteration Pages: 1 -->
<svg width="1443pt" height="120pt"
 viewBox="0.00 0.00 1443.00 120.00" xmlns="http://www.w3.org/2000/svg" xmlns:xlink="http://www.w3.org/1999/xlink">
<g id="graph0" class="graph" transform="scale(1 1) rotate(0) translate(4 116)">
<title>gko::stop::Iteration</title>
<polygon fill="#ffffff" stroke="transparent" points="-4,4 -4,-116 1439,-116 1439,4 -4,4"/>
<!-- Node1 -->
<g id="node1" class="node">
<title>Node1</title>
<g id="a_node1"><a xlink:title="The Iteration class is a stopping criterion which stops the iteration process after a preset number o...">
<polygon fill="#bfbfbf" stroke="#000000" points="1326,-47.5 1326,-66.5 1435,-66.5 1435,-47.5 1326,-47.5"/>
<text text-anchor="middle" x="1380.5" y="-54.5" font-family="Helvetica,sans-Serif" font-size="10.00" fill="#000000">gko::stop::Iteration</text>
</a>
</g>
</g>
<!-- Node2 -->
<g id="node2" class="node">
<title>Node2</title>
<g id="a_node2"><a xlink:href="classgko_1_1EnablePolymorphicObject.html" target="_top" xlink:title=" ">
<polygon fill="#ffffff" stroke="#000000" points="1123,-42 1123,-72 1289,-72 1289,-42 1123,-42"/>
<text text-anchor="start" x="1131" y="-60" font-family="Helvetica,sans-Serif" font-size="10.00" fill="#000000">gko::EnablePolymorphicObject</text>
<text text-anchor="middle" x="1206" y="-49" font-family="Helvetica,sans-Serif" font-size="10.00" fill="#000000">&lt; Iteration, Criterion &gt;</text>
</a>
</g>
</g>
<!-- Node2&#45;&gt;Node1 -->
<g id="edge1" class="edge">
<title>Node2&#45;&gt;Node1</title>
<path fill="none" stroke="#191970" d="M1299.3909,-57C1308.4363,-57 1317.3934,-57 1325.8705,-57"/>
<polygon fill="#191970" stroke="#191970" points="1299.1615,-53.5001 1289.1615,-57 1299.1615,-60.5001 1299.1615,-53.5001"/>
</g>
<!-- Node3 -->
<g id="node3" class="node">
<title>Node3</title>
<g id="a_node3"><a xlink:href="classgko_1_1EnableAbstractPolymorphicObject.html" target="_top" xlink:title=" ">
<polygon fill="#ffffff" stroke="#000000" points="542,-66 542,-96 717,-96 717,-66 542,-66"/>
<text text-anchor="start" x="550" y="-84" font-family="Helvetica,sans-Serif" font-size="10.00" fill="#000000">gko::EnableAbstractPolymorphic</text>
<text text-anchor="middle" x="629.5" y="-73" font-family="Helvetica,sans-Serif" font-size="10.00" fill="#000000">Object&lt; Iteration, Criterion &gt;</text>
</a>
</g>
</g>
<!-- Node3&#45;&gt;Node2 -->
<g id="edge2" class="edge">
<title>Node3&#45;&gt;Node2</title>
<path fill="none" stroke="#191970" d="M727.1765,-78.4631C823.3317,-75.7403 974.3385,-70.8616 1105,-64 1110.7924,-63.6958 1116.7697,-63.3537 1122.788,-62.9886"/>
<polygon fill="#191970" stroke="#191970" points="727.0751,-74.9644 717.1773,-78.744 727.2717,-81.9617 727.0751,-74.9644"/>
</g>
<!-- Node4 -->
<g id="node4" class="node">
<title>Node4</title>
<g id="a_node4"><a xlink:title=" ">
<polygon fill="#ffffff" stroke="#bfbfbf" points="207.5,-92.5 207.5,-111.5 266.5,-111.5 266.5,-92.5 207.5,-92.5"/>
<text text-anchor="middle" x="237" y="-99.5" font-family="Helvetica,sans-Serif" font-size="10.00" fill="#000000">Criterion</text>
</a>
</g>
</g>
<!-- Node4&#45;&gt;Node3 -->
<g id="edge3" class="edge">
<title>Node4&#45;&gt;Node3</title>
<path fill="none" stroke="#191970" d="M276.6519,-100.0731C329.9432,-97.4607 427.6224,-92.5926 511,-88 520.9801,-87.4503 531.432,-86.8576 541.8186,-86.258"/>
<polygon fill="#191970" stroke="#191970" points="276.4198,-96.5801 266.6029,-100.5647 276.762,-103.5718 276.4198,-96.5801"/>
</g>
<!-- Node5 -->
<g id="node5" class="node">
<title>Node5</title>
<g id="a_node5"><a xlink:href="classgko_1_1EnableAbstractPolymorphicObject.html" target="_top" xlink:title="This mixin inherits from (a subclass of) PolymorphicObject and provides a base implementation of a ne...">
<polygon fill="#ffffff" stroke="#000000" points="138,-26.5 138,-67.5 336,-67.5 336,-26.5 138,-26.5"/>
<text text-anchor="start" x="146" y="-55.5" font-family="Helvetica,sans-Serif" font-size="10.00" fill="#000000">gko::EnableAbstractPolymorphic</text>
<text text-anchor="start" x="146" y="-44.5" font-family="Helvetica,sans-Serif" font-size="10.00" fill="#000000">Object&lt; AbstractObject, Polymorphic</text>
<text text-anchor="middle" x="237" y="-33.5" font-family="Helvetica,sans-Serif" font-size="10.00" fill="#000000">Base &gt;</text>
</a>
</g>
</g>
<!-- Node5&#45;&gt;Node3 -->
<g id="edge4" class="edge">
<title>Node5&#45;&gt;Node3</title>
<path fill="none" stroke="#ffa500" stroke-dasharray="5,2" d="M346.2134,-56.4605C407.9382,-61.8074 484.0683,-68.4021 541.8581,-73.4081"/>
<polygon fill="#ffa500" stroke="#ffa500" points="346.3091,-52.9558 336.0443,-55.5796 345.7049,-59.9297 346.3091,-52.9558"/>
<text text-anchor="middle" x="432.5" y="-73" font-family="Helvetica,sans-Serif" font-size="10.00" fill="#000000"> &lt; Iteration, Criterion &gt;</text>
</g>
<!-- Node8 -->
<g id="node8" class="node">
<title>Node8</title>
<g id="a_node8"><a xlink:href="classgko_1_1EnableAbstractPolymorphicObject.html" target="_top" xlink:title=" ">
<polygon fill="#ffffff" stroke="#000000" points="529,-5.5 529,-46.5 730,-46.5 730,-5.5 529,-5.5"/>
<text text-anchor="start" x="537" y="-34.5" font-family="Helvetica,sans-Serif" font-size="10.00" fill="#000000">gko::EnableAbstractPolymorphic</text>
<text text-anchor="start" x="537" y="-23.5" font-family="Helvetica,sans-Serif" font-size="10.00" fill="#000000">Object&lt; ConcreteObject, Polymorphic</text>
<text text-anchor="middle" x="629.5" y="-12.5" font-family="Helvetica,sans-Serif" font-size="10.00" fill="#000000">Base &gt;</text>
</a>
</g>
</g>
<!-- Node5&#45;&gt;Node8 -->
<g id="edge9" class="edge">
<title>Node5&#45;&gt;Node8</title>
<path fill="none" stroke="#ffa500" stroke-dasharray="5,2" d="M346.2814,-32.6202C348.8778,-32.3979 351.4537,-32.1904 354,-32 411.8459,-27.6742 476.6988,-26.1001 528.9447,-25.6415"/>
<polygon fill="#ffa500" stroke="#ffa500" points="345.8213,-29.1477 336.1833,-33.5475 346.4615,-36.1183 345.8213,-29.1477"/>
<text text-anchor="start" x="354" y="-46" font-family="Helvetica,sans-Serif" font-size="10.00" fill="#000000"> &lt; ConcreteObject, Polymorphic</text>
<text text-anchor="middle" x="432.5" y="-35" font-family="Helvetica,sans-Serif" font-size="10.00" fill="#000000">Base &gt;</text>
</g>
<!-- Node6 -->
<g id="node6" class="node">
<title>Node6</title>
<g id="a_node6"><a xlink:title=" ">
<polygon fill="#ffffff" stroke="#bfbfbf" points="0,-.5 0,-19.5 101,-19.5 101,-.5 0,-.5"/>
<text text-anchor="middle" x="50.5" y="-7.5" font-family="Helvetica,sans-Serif" font-size="10.00" fill="#000000">PolymorphicBase</text>
</a>
</g>
</g>
<!-- Node6&#45;&gt;Node5 -->
<g id="edge5" class="edge">
<title>Node6&#45;&gt;Node5</title>
<path fill="none" stroke="#191970" d="M108.4222,-21.4913C117.7608,-23.344 127.6541,-25.3067 137.6412,-27.2881"/>
<polygon fill="#191970" stroke="#191970" points="109.0183,-18.0414 98.5284,-19.5284 107.6561,-24.9076 109.0183,-18.0414"/>
</g>
<!-- Node6&#45;&gt;Node8 -->
<g id="edge8" class="edge">
<title>Node6&#45;&gt;Node8</title>
<path fill="none" stroke="#191970" d="M111.3603,-11.0996C199.4991,-12.7725 367.8054,-16.2692 511,-21 516.8653,-21.1938 522.8933,-21.4064 528.9752,-21.6312"/>
<polygon fill="#191970" stroke="#191970" points="111.3388,-7.5987 101.2745,-10.9095 111.2068,-14.5974 111.3388,-7.5987"/>
</g>
<!-- Node7 -->
<g id="node7" class="node">
<title>Node7</title>
<g id="a_node7"><a xlink:href="classgko_1_1EnablePolymorphicObject.html" target="_top" xlink:title="This mixin inherits from (a subclass of) PolymorphicObject and provides a base implementation of a ne...">
<polygon fill="#ffffff" stroke="#000000" points="767,-19 767,-49 972,-49 972,-19 767,-19"/>
<text text-anchor="start" x="775" y="-37" font-family="Helvetica,sans-Serif" font-size="10.00" fill="#000000">gko::EnablePolymorphicObject</text>
<text text-anchor="middle" x="869.5" y="-26" font-family="Helvetica,sans-Serif" font-size="10.00" fill="#000000">&lt; ConcreteObject, PolymorphicBase &gt;</text>
</a>
</g>
</g>
<!-- Node7&#45;&gt;Node2 -->
<g id="edge6" class="edge">
<title>Node7&#45;&gt;Node2</title>
<path fill="none" stroke="#ffa500" stroke-dasharray="5,2" d="M982.3121,-41.7108C1028.3291,-44.8561 1080.5751,-48.4271 1122.9956,-51.3266"/>
<polygon fill="#ffa500" stroke="#ffa500" points="982.505,-38.2159 972.2895,-41.0257 982.0275,-45.1996 982.505,-38.2159"/>
<text text-anchor="middle" x="1047.5" y="-52" font-family="Helvetica,sans-Serif" font-size="10.00" fill="#000000"> &lt; Iteration, Criterion &gt;</text>
</g>
<!-- Node8&#45;&gt;Node7 -->
<g id="edge7" class="edge">
<title>Node8&#45;&gt;Node7</title>
<path fill="none" stroke="#191970" d="M740.4645,-29.6988C749.2104,-29.9903 758.0206,-30.284 766.708,-30.5736"/>
<polygon fill="#191970" stroke="#191970" points="740.3495,-26.1931 730.2384,-29.3579 740.1163,-33.1892 740.3495,-26.1931"/>
</g>
</g>
</svg>
