<?xml version="1.0" encoding="UTF-8" standalone="no"?>
<!DOCTYPE svg PUBLIC "-//W3C//DTD SVG 1.1//EN"
 "http://www.w3.org/Graphics/SVG/1.1/DTD/svg11.dtd">
<!-- Generated by graphviz version 2.40.1 (20161225.0304)
 -->
<!-- Title: gko::matrix::Ell&lt; ValueType, IndexType &gt; Pages: 1 -->
<!--zoomable 495 -->
<svg id="main" version="1.1" xmlns="http://www.w3.org/2000/svg" xmlns:xlink="http://www.w3.org/1999/xlink" xml:space="preserve" onload="init(evt)">
<style type="text/css"><![CDATA[
.edge:hover path { stroke: red; }
.edge:hover polygon { stroke: red; fill: red; }
]]></style>
<script type="text/javascript"><![CDATA[
var edges = document.getElementsByTagName('g');
if (edges && edges.length) {
  for (var i=0;i<edges.length;i++) {
    if (edges[i].id.substr(0,4)=='edge') {
      edges[i].setAttribute('class','edge');
    }
  }
}
]]></script>
        <defs>
                <circle id="rim" cx="0" cy="0" r="7"/>
                <circle id="rim2" cx="0" cy="0" r="3.5"/>
                <g id="zoomPlus">
                        <use xlink:href="#rim" fill="#404040">
                                <set attributeName="fill" to="#808080" begin="zoomplus.mouseover" end="zoomplus.mouseout"/>
                        </use>
                        <path d="M-4,0h8M0,-4v8" fill="none" stroke="white" stroke-width="1.5" pointer-events="none"/>
                </g>
                <g id="zoomMin">
                        <use xlink:href="#rim" fill="#404040">
                                <set attributeName="fill" to="#808080" begin="zoomminus.mouseover" end="zoomminus.mouseout"/>
                        </use>
                        <path d="M-4,0h8" fill="none" stroke="white" stroke-width="1.5" pointer-events="none"/>
                </g>
                <g id="dirArrow">
                        <path fill="none" stroke="white" stroke-width="1.5" d="M0,-3.0v7 M-2.5,-0.5L0,-3.0L2.5,-0.5"/>
                </g>
               <g id="resetDef">
                       <use xlink:href="#rim2" fill="#404040">
                               <set attributeName="fill" to="#808080" begin="reset.mouseover" end="reset.mouseout"/>
                       </use>
               </g>
        </defs>

<script type="text/javascript">
var viewWidth = 2518;
var viewHeight = 495;
var sectionId = 'dynsection-0';
</script>
<script xlink:href="svgpan.js"/>
<svg id="graph" class="graph">
<g id="viewport">
<title>gko::matrix::Ell&lt; ValueType, IndexType &gt;</title>
<polygon fill="#ffffff" stroke="transparent" points="-4,4 -4,-491 2514,-491 2514,4 -4,4"/>
<!-- Node1 -->
<g id="node1" class="node">
<title>Node1</title>
<g id="a_node1"><a xlink:title="ELL is a matrix format where stride with explicit zeros is used such that all rows have the same numb...">
<polygon fill="#bfbfbf" stroke="#000000" points="2355,-235 2355,-265 2510,-265 2510,-235 2355,-235"/>
<text text-anchor="start" x="2363" y="-253" font-family="Helvetica,sans-Serif" font-size="10.00" fill="#000000">gko::matrix::Ell&lt; ValueType,</text>
<text text-anchor="middle" x="2432.5" y="-242" font-family="Helvetica,sans-Serif" font-size="10.00" fill="#000000"> IndexType &gt;</text>
</a>
</g>
</g>
<!-- Node2 -->
<g id="node2" class="node">
<title>Node2</title>
<g id="a_node2"><a xlink:href="classgko_1_1EnableLinOp.html" target="_top" xlink:title=" ">
<polygon fill="#ffffff" stroke="#000000" points="2140.5,-284 2140.5,-314 2295.5,-314 2295.5,-284 2140.5,-284"/>
<text text-anchor="start" x="2148.5" y="-302" font-family="Helvetica,sans-Serif" font-size="10.00" fill="#000000">gko::EnableLinOp&lt; Ell</text>
<text text-anchor="middle" x="2218" y="-291" font-family="Helvetica,sans-Serif" font-size="10.00" fill="#000000">&lt; ValueType, IndexType &gt; &gt;</text>
</a>
</g>
</g>
<!-- Node2&#45;&gt;Node1 -->
<g id="edge1" class="edge">
<title>Node2&#45;&gt;Node1</title>
<path fill="none" stroke="#191970" d="M2293.8671,-281.6691C2317.6819,-276.2288 2343.7605,-270.2715 2366.8097,-265.0062"/>
<polygon fill="#191970" stroke="#191970" points="2292.7842,-278.3262 2283.8148,-283.9654 2294.3431,-285.1504 2292.7842,-278.3262"/>
</g>
<!-- Node3 -->
<g id="node3" class="node">
<title>Node3</title>
<g id="a_node3"><a xlink:href="classgko_1_1EnablePolymorphicObject.html" target="_top" xlink:title=" ">
<polygon fill="#ffffff" stroke="#000000" points="1727.5,-151.5 1727.5,-192.5 1893.5,-192.5 1893.5,-151.5 1727.5,-151.5"/>
<text text-anchor="start" x="1735.5" y="-180.5" font-family="Helvetica,sans-Serif" font-size="10.00" fill="#000000">gko::EnablePolymorphicObject</text>
<text text-anchor="start" x="1735.5" y="-169.5" font-family="Helvetica,sans-Serif" font-size="10.00" fill="#000000">&lt; Ell&lt; ValueType, IndexType</text>
<text text-anchor="middle" x="1810.5" y="-158.5" font-family="Helvetica,sans-Serif" font-size="10.00" fill="#000000"> &gt;, LinOp &gt;</text>
</a>
</g>
</g>
<!-- Node3&#45;&gt;Node2 -->
<g id="edge2" class="edge">
<title>Node3&#45;&gt;Node2</title>
<path fill="none" stroke="#191970" d="M1903.5505,-179.3516C1964.1693,-188.0211 2042.4015,-206.9007 2100,-248 2111.7399,-256.377 2106.172,-266.7478 2118,-275 2124.8088,-279.7504 2132.4434,-283.5669 2140.3792,-286.632"/>
<polygon fill="#191970" stroke="#191970" points="1903.9776,-175.8775 1893.5968,-177.9965 1903.0333,-182.8136 1903.9776,-175.8775"/>
</g>
<!-- Node4 -->
<g id="node4" class="node">
<title>Node4</title>
<g id="a_node4"><a xlink:href="classgko_1_1EnableAbstractPolymorphicObject.html" target="_top" xlink:title=" ">
<polygon fill="#ffffff" stroke="#000000" points="1348.5,-40.5 1348.5,-81.5 1536.5,-81.5 1536.5,-40.5 1348.5,-40.5"/>
<text text-anchor="start" x="1356.5" y="-69.5" font-family="Helvetica,sans-Serif" font-size="10.00" fill="#000000">gko::EnableAbstractPolymorphic</text>
<text text-anchor="start" x="1356.5" y="-58.5" font-family="Helvetica,sans-Serif" font-size="10.00" fill="#000000">Object&lt; Ell&lt; ValueType, IndexType</text>
<text text-anchor="middle" x="1442.5" y="-47.5" font-family="Helvetica,sans-Serif" font-size="10.00" fill="#000000"> &gt;, LinOp &gt;</text>
</a>
</g>
</g>
<!-- Node4&#45;&gt;Node3 -->
<g id="edge3" class="edge">
<title>Node4&#45;&gt;Node3</title>
<path fill="none" stroke="#191970" d="M1546.8562,-56.4267C1598.3913,-59.2346 1658.8213,-70.6927 1703,-104 1717.9221,-115.2501 1707.0236,-129.5945 1721,-142 1724.922,-145.4812 1729.2619,-148.5608 1733.8541,-151.2849"/>
<polygon fill="#191970" stroke="#191970" points="1546.8201,-52.9218 1536.6752,-55.9765 1546.5108,-59.9149 1546.8201,-52.9218"/>
</g>
<!-- Node5 -->
<g id="node5" class="node">
<title>Node5</title>
<g id="a_node5"><a xlink:href="classgko_1_1LinOp.html" target="_top" xlink:title=" ">
<polygon fill="#ffffff" stroke="#000000" points="1000.5,-53.5 1000.5,-72.5 1068.5,-72.5 1068.5,-53.5 1000.5,-53.5"/>
<text text-anchor="middle" x="1034.5" y="-60.5" font-family="Helvetica,sans-Serif" font-size="10.00" fill="#000000">gko::LinOp</text>
</a>
</g>
</g>
<!-- Node5&#45;&gt;Node4 -->
<g id="edge4" class="edge">
<title>Node5&#45;&gt;Node4</title>
<path fill="none" stroke="#191970" d="M1078.7755,-62.783C1143.0334,-62.468 1263.6922,-61.8765 1348.3642,-61.4614"/>
<polygon fill="#191970" stroke="#191970" points="1078.5668,-59.2838 1068.5841,-62.8329 1078.6012,-66.2838 1078.5668,-59.2838"/>
</g>
<!-- Node6 -->
<g id="node6" class="node">
<title>Node6</title>
<g id="a_node6"><a xlink:href="classgko_1_1EnableAbstractPolymorphicObject.html" target="_top" xlink:title=" ">
<polygon fill="#ffffff" stroke="#ff0000" points="542,-52 542,-82 717,-82 717,-52 542,-52"/>
<text text-anchor="start" x="550" y="-70" font-family="Helvetica,sans-Serif" font-size="10.00" fill="#000000">gko::EnableAbstractPolymorphic</text>
<text text-anchor="middle" x="629.5" y="-59" font-family="Helvetica,sans-Serif" font-size="10.00" fill="#000000">Object&lt; LinOp &gt;</text>
</a>
</g>
</g>
<!-- Node6&#45;&gt;Node5 -->
<g id="edge5" class="edge">
<title>Node6&#45;&gt;Node5</title>
<path fill="none" stroke="#191970" d="M727.4215,-66.0329C815.7403,-65.1606 940.6381,-63.927 1000.2509,-63.3383"/>
<polygon fill="#191970" stroke="#191970" points="727.3439,-62.5334 717.379,-66.1321 727.4131,-69.533 727.3439,-62.5334"/>
</g>
<!-- Node11 -->
<g id="node7" class="node">
<title>Node11</title>
<g id="a_node7"><a xlink:href="classgko_1_1EnableAbstractPolymorphicObject.html" target="_top" xlink:title="This mixin inherits from (a subclass of) PolymorphicObject and provides a base implementation of a ne...">
<polygon fill="#ffffff" stroke="#000000" points="138,-74.5 138,-115.5 336,-115.5 336,-74.5 138,-74.5"/>
<text text-anchor="start" x="146" y="-103.5" font-family="Helvetica,sans-Serif" font-size="10.00" fill="#000000">gko::EnableAbstractPolymorphic</text>
<text text-anchor="start" x="146" y="-92.5" font-family="Helvetica,sans-Serif" font-size="10.00" fill="#000000">Object&lt; AbstractObject, Polymorphic</text>
<text text-anchor="middle" x="237" y="-81.5" font-family="Helvetica,sans-Serif" font-size="10.00" fill="#000000">Base &gt;</text>
</a>
</g>
</g>
<!-- Node11&#45;&gt;Node4 -->
<g id="edge8" class="edge">
<title>Node11&#45;&gt;Node4</title>
<path fill="none" stroke="#ffa500" stroke-dasharray="5,2" d="M292.7467,-70.7038C311.8199,-63.4231 333.5167,-56.2512 354,-52 430.2791,-36.1687 451.1441,-44.7564 529,-42 799.0545,-32.439 866.9818,-33.463 1137,-44 1207.8616,-46.7652 1287.8963,-51.2695 1348.2662,-54.9471"/>
<polygon fill="#ffa500" stroke="#ffa500" points="291.3608,-67.4877 283.3227,-74.3898 293.9106,-74.0068 291.3608,-67.4877"/>
<text text-anchor="start" x="759.5" y="-51" font-family="Helvetica,sans-Serif" font-size="10.00" fill="#000000"> &lt; Ell&lt; ValueType, IndexType</text>
<text text-anchor="middle" x="831" y="-40" font-family="Helvetica,sans-Serif" font-size="10.00" fill="#000000"> &gt;, LinOp &gt;</text>
</g>
<!-- Node11&#45;&gt;Node6 -->
<g id="edge6" class="edge">
<title>Node11&#45;&gt;Node6</title>
<path fill="none" stroke="#ffa500" stroke-dasharray="5,2" d="M307.484,-71.7573C322.6639,-67.7023 338.737,-64.1113 354,-62 416.4318,-53.364 487.5725,-54.9413 541.9222,-58.5068"/>
<polygon fill="#ffa500" stroke="#ffa500" points="306.3589,-68.437 297.6551,-74.4781 308.2265,-75.1833 306.3589,-68.437"/>
<text text-anchor="middle" x="432.5" y="-65" font-family="Helvetica,sans-Serif" font-size="10.00" fill="#000000"> &lt; LinOp &gt;</text>
</g>
<!-- Node14 -->
<g id="node10" class="node">
<title>Node14</title>
<g id="a_node10"><a xlink:href="classgko_1_1EnableAbstractPolymorphicObject.html" target="_top" xlink:title=" ">
<polygon fill="#ffffff" stroke="#000000" points="529,-105.5 529,-146.5 730,-146.5 730,-105.5 529,-105.5"/>
<text text-anchor="start" x="537" y="-134.5" font-family="Helvetica,sans-Serif" font-size="10.00" fill="#000000">gko::EnableAbstractPolymorphic</text>
<text text-anchor="start" x="537" y="-123.5" font-family="Helvetica,sans-Serif" font-size="10.00" fill="#000000">Object&lt; ConcreteObject, Polymorphic</text>
<text text-anchor="middle" x="629.5" y="-112.5" font-family="Helvetica,sans-Serif" font-size="10.00" fill="#000000">Base &gt;</text>
</a>
</g>
</g>
<!-- Node11&#45;&gt;Node14 -->
<g id="edge12" class="edge">
<title>Node11&#45;&gt;Node14</title>
<path fill="none" stroke="#ffa500" stroke-dasharray="5,2" d="M346.546,-89.305C396.835,-88.251 457.1345,-89.1876 511,-96 527.1065,-98.037 544.1687,-101.5355 560.1771,-105.4402"/>
<polygon fill="#ffa500" stroke="#ffa500" points="346.2136,-85.8118 336.3002,-89.5499 346.381,-92.8098 346.2136,-85.8118"/>
<text text-anchor="start" x="354" y="-110" font-family="Helvetica,sans-Serif" font-size="10.00" fill="#000000"> &lt; ConcreteObject, Polymorphic</text>
<text text-anchor="middle" x="432.5" y="-99" font-family="Helvetica,sans-Serif" font-size="10.00" fill="#000000">Base &gt;</text>
</g>
<!-- Node21 -->
<g id="node17" class="node">
<title>Node21</title>
<g id="a_node17"><a xlink:href="classgko_1_1EnableAbstractPolymorphicObject.html" target="_top" xlink:title=" ">
<polygon fill="#ffffff" stroke="#000000" points="531,-167.5 531,-208.5 728,-208.5 728,-167.5 531,-167.5"/>
<text text-anchor="start" x="539" y="-196.5" font-family="Helvetica,sans-Serif" font-size="10.00" fill="#000000">gko::EnableAbstractPolymorphic</text>
<text text-anchor="start" x="539" y="-185.5" font-family="Helvetica,sans-Serif" font-size="10.00" fill="#000000">Object&lt; ConcreteLinOp, Polymorphic</text>
<text text-anchor="middle" x="629.5" y="-174.5" font-family="Helvetica,sans-Serif" font-size="10.00" fill="#000000">Base &gt;</text>
</a>
</g>
</g>
<!-- Node11&#45;&gt;Node21 -->
<g id="edge22" class="edge">
<title>Node11&#45;&gt;Node21</title>
<path fill="none" stroke="#ffa500" stroke-dasharray="5,2" d="M333.7212,-117.9174C397.715,-133.0802 480.9108,-152.7929 542.761,-167.4478"/>
<polygon fill="#ffa500" stroke="#ffa500" points="334.1593,-114.4243 323.6217,-115.5244 332.5453,-121.2357 334.1593,-114.4243"/>
<text text-anchor="start" x="356" y="-171" font-family="Helvetica,sans-Serif" font-size="10.00" fill="#000000"> &lt; ConcreteLinOp, Polymorphic</text>
<text text-anchor="middle" x="432.5" y="-160" font-family="Helvetica,sans-Serif" font-size="10.00" fill="#000000">Base &gt;</text>
</g>
<!-- Node12 -->
<g id="node8" class="node">
<title>Node12</title>
<g id="a_node8"><a xlink:title=" ">
<polygon fill="#ffffff" stroke="#bfbfbf" points="0,-167.5 0,-186.5 101,-186.5 101,-167.5 0,-167.5"/>
<text text-anchor="middle" x="50.5" y="-174.5" font-family="Helvetica,sans-Serif" font-size="10.00" fill="#000000">PolymorphicBase</text>
</a>
</g>
</g>
<!-- Node12&#45;&gt;Node11 -->
<g id="edge7" class="edge">
<title>Node12&#45;&gt;Node11</title>
<path fill="none" stroke="#191970" d="M81.6749,-163.2931C111.2807,-150.2761 156.181,-130.5344 190.1047,-115.6189"/>
<polygon fill="#191970" stroke="#191970" points="80.0044,-160.2041 72.2589,-167.4331 82.8219,-166.6121 80.0044,-160.2041"/>
</g>
<!-- Node12&#45;&gt;Node14 -->
<g id="edge11" class="edge">
<title>Node12&#45;&gt;Node14</title>
<path fill="none" stroke="#191970" d="M111.155,-180.3632C199.7191,-184.1014 369.3047,-186.8154 511,-163 514.0952,-162.4798 538.9141,-154.7705 565.0439,-146.523"/>
<polygon fill="#191970" stroke="#191970" points="111.1676,-176.8605 101.023,-179.916 110.8589,-183.8536 111.1676,-176.8605"/>
</g>
<!-- Node12&#45;&gt;Node21 -->
<g id="edge21" class="edge">
<title>Node12&#45;&gt;Node21</title>
<path fill="none" stroke="#191970" d="M100.0089,-188.344C106.37,-189.4398 112.8183,-190.3748 119,-191 292.3378,-208.5321 336.7917,-193.2048 511,-191 517.482,-190.918 524.163,-190.8107 530.8959,-190.6856"/>
<polygon fill="#191970" stroke="#191970" points="100.6063,-184.8952 90.1355,-186.5111 99.3286,-191.7776 100.6063,-184.8952"/>
</g>
<!-- Node13 -->
<g id="node9" class="node">
<title>Node13</title>
<g id="a_node9"><a xlink:href="classgko_1_1EnablePolymorphicObject.html" target="_top" xlink:title="This mixin inherits from (a subclass of) PolymorphicObject and provides a base implementation of a ne...">
<polygon fill="#ffffff" stroke="#000000" points="932,-111 932,-141 1137,-141 1137,-111 932,-111"/>
<text text-anchor="start" x="940" y="-129" font-family="Helvetica,sans-Serif" font-size="10.00" fill="#000000">gko::EnablePolymorphicObject</text>
<text text-anchor="middle" x="1034.5" y="-118" font-family="Helvetica,sans-Serif" font-size="10.00" fill="#000000">&lt; ConcreteObject, PolymorphicBase &gt;</text>
</a>
</g>
</g>
<!-- Node13&#45;&gt;Node3 -->
<g id="edge9" class="edge">
<title>Node13&#45;&gt;Node3</title>
<path fill="none" stroke="#ffa500" stroke-dasharray="5,2" d="M1147.5313,-126.5031C1250.6895,-127.6875 1407.2963,-131.3039 1543,-142 1604.9615,-146.8838 1674.7428,-154.7904 1727.4944,-161.2607"/>
<polygon fill="#ffa500" stroke="#ffa500" points="1147.4441,-123.0021 1137.4065,-126.3927 1147.3677,-130.0016 1147.4441,-123.0021"/>
<text text-anchor="start" x="1371" y="-156" font-family="Helvetica,sans-Serif" font-size="10.00" fill="#000000"> &lt; Ell&lt; ValueType, IndexType</text>
<text text-anchor="middle" x="1442.5" y="-145" font-family="Helvetica,sans-Serif" font-size="10.00" fill="#000000"> &gt;, LinOp &gt;</text>
</g>
<!-- Node20 -->
<g id="node16" class="node">
<title>Node20</title>
<g id="a_node16"><a xlink:href="classgko_1_1EnablePolymorphicObject.html" target="_top" xlink:title=" ">
<polygon fill="#ffffff" stroke="#000000" points="1342,-173 1342,-203 1543,-203 1543,-173 1342,-173"/>
<text text-anchor="start" x="1350" y="-191" font-family="Helvetica,sans-Serif" font-size="10.00" fill="#000000">gko::EnablePolymorphicObject</text>
<text text-anchor="middle" x="1442.5" y="-180" font-family="Helvetica,sans-Serif" font-size="10.00" fill="#000000">&lt; ConcreteLinOp, PolymorphicBase &gt;</text>
</a>
</g>
</g>
<!-- Node13&#45;&gt;Node20 -->
<g id="edge23" class="edge">
<title>Node13&#45;&gt;Node20</title>
<path fill="none" stroke="#ffa500" stroke-dasharray="5,2" d="M1147.3101,-130.7415C1201.164,-134.3743 1266.2979,-140.7679 1324,-152 1349.8539,-157.0327 1378.0986,-165.4921 1400.5261,-172.9464"/>
<polygon fill="#ffa500" stroke="#ffa500" points="1147.2495,-127.2302 1137.0432,-130.0729 1146.7946,-134.2154 1147.2495,-127.2302"/>
<text text-anchor="start" x="1163" y="-166" font-family="Helvetica,sans-Serif" font-size="10.00" fill="#000000"> &lt; ConcreteLinOp, Polymorphic</text>
<text text-anchor="middle" x="1239.5" y="-155" font-family="Helvetica,sans-Serif" font-size="10.00" fill="#000000">Base &gt;</text>
</g>
<!-- Node14&#45;&gt;Node13 -->
<g id="edge10" class="edge">
<title>Node14&#45;&gt;Node13</title>
<path fill="none" stroke="#191970" d="M740.3684,-126C800.1586,-126 873.4543,-126 931.9206,-126"/>
<polygon fill="#191970" stroke="#191970" points="740.1328,-122.5001 730.1327,-126 740.1327,-129.5001 740.1328,-122.5001"/>
</g>
<!-- Node15 -->
<g id="node11" class="node">
<title>Node15</title>
<g id="a_node11"><a xlink:href="classgko_1_1EnablePolymorphicAssignment.html" target="_top" xlink:title=" ">
<polygon fill="#ffffff" stroke="#000000" points="1346.5,-284 1346.5,-314 1538.5,-314 1538.5,-284 1346.5,-284"/>
<text text-anchor="start" x="1354.5" y="-302" font-family="Helvetica,sans-Serif" font-size="10.00" fill="#000000">gko::EnablePolymorphicAssignment</text>
<text text-anchor="middle" x="1442.5" y="-291" font-family="Helvetica,sans-Serif" font-size="10.00" fill="#000000">&lt; Ell&lt; ValueType, IndexType &gt; &gt;</text>
</a>
</g>
</g>
<!-- Node15&#45;&gt;Node2 -->
<g id="edge13" class="edge">
<title>Node15&#45;&gt;Node2</title>
<path fill="none" stroke="#191970" d="M1548.9808,-299C1707.1784,-299 2000.593,-299 2140.2385,-299"/>
<polygon fill="#191970" stroke="#191970" points="1548.7592,-295.5001 1538.7592,-299 1548.7591,-302.5001 1548.7592,-295.5001"/>
</g>
<!-- Node16 -->
<g id="node12" class="node">
<title>Node16</title>
<g id="a_node12"><a xlink:href="classgko_1_1ConvertibleTo.html" target="_top" xlink:title=" ">
<polygon fill="#ffffff" stroke="#000000" points="945,-315 945,-345 1124,-345 1124,-315 945,-315"/>
<text text-anchor="start" x="953" y="-333" font-family="Helvetica,sans-Serif" font-size="10.00" fill="#000000">gko::ConvertibleTo</text>
<text text-anchor="middle" x="1034.5" y="-322" font-family="Helvetica,sans-Serif" font-size="10.00" fill="#000000">&lt; Ell&lt; ValueType, IndexType &gt; &gt;</text>
</a>
</g>
</g>
<!-- Node16&#45;&gt;Node15 -->
<g id="edge14" class="edge">
<title>Node16&#45;&gt;Node15</title>
<path fill="none" stroke="#191970" d="M1134.237,-322.4219C1198.8466,-317.5129 1282.539,-311.1539 1346.412,-306.3008"/>
<polygon fill="#191970" stroke="#191970" points="1133.7434,-318.9493 1124.0373,-323.1969 1134.2738,-325.9291 1133.7434,-318.9493"/>
</g>
<!-- Node17 -->
<g id="node13" class="node">
<title>Node17</title>
<g id="a_node13"><a xlink:href="classgko_1_1ConvertibleTo.html" target="_top" xlink:title="ConvertibleTo interface is used to mark that the implementer can be converted to the object of Result...">
<polygon fill="#ffffff" stroke="#000000" points="576,-342 576,-372 683,-372 683,-342 576,-342"/>
<text text-anchor="start" x="584" y="-360" font-family="Helvetica,sans-Serif" font-size="10.00" fill="#000000">gko::ConvertibleTo</text>
<text text-anchor="middle" x="629.5" y="-349" font-family="Helvetica,sans-Serif" font-size="10.00" fill="#000000">&lt; ResultType &gt;</text>
</a>
</g>
</g>
<!-- Node17&#45;&gt;Node16 -->
<g id="edge15" class="edge">
<title>Node17&#45;&gt;Node16</title>
<path fill="none" stroke="#ffa500" stroke-dasharray="5,2" d="M693.3957,-352.6724C711.0824,-351.4783 730.2857,-350.1853 748,-349 813.9023,-344.5902 888.3351,-339.6554 944.8136,-335.9203"/>
<polygon fill="#ffa500" stroke="#ffa500" points="692.9212,-349.1964 683.1799,-353.3625 693.3931,-356.1805 692.9212,-349.1964"/>
<text text-anchor="middle" x="831" y="-352" font-family="Helvetica,sans-Serif" font-size="10.00" fill="#000000"> &lt; Ell&lt; ValueType, IndexType &gt; &gt;</text>
</g>
<!-- Node18 -->
<g id="node14" class="node">
<title>Node18</title>
<g id="a_node14"><a xlink:href="classgko_1_1EnablePolymorphicAssignment.html" target="_top" xlink:title="This mixin is used to enable a default PolymorphicObject::copy_from() implementation for objects that...">
<polygon fill="#ffffff" stroke="#000000" points="938.5,-266 938.5,-296 1130.5,-296 1130.5,-266 938.5,-266"/>
<text text-anchor="start" x="946.5" y="-284" font-family="Helvetica,sans-Serif" font-size="10.00" fill="#000000">gko::EnablePolymorphicAssignment</text>
<text text-anchor="middle" x="1034.5" y="-273" font-family="Helvetica,sans-Serif" font-size="10.00" fill="#000000">&lt; ConcreteType, ResultType &gt;</text>
</a>
</g>
</g>
<!-- Node17&#45;&gt;Node18 -->
<g id="edge17" class="edge">
<title>Node17&#45;&gt;Node18</title>
<path fill="none" stroke="#191970" d="M693.3769,-344.4953C711.0636,-341.0619 730.2715,-337.3602 748,-334 816.8327,-320.9536 895.0442,-306.5108 952.3392,-296.0012"/>
<polygon fill="#191970" stroke="#191970" points="692.31,-341.1371 683.1617,-346.4811 693.6458,-348.0084 692.31,-341.1371"/>
</g>
<!-- Node23 -->
<g id="node19" class="node">
<title>Node23</title>
<g id="a_node19"><a xlink:href="classgko_1_1ConvertibleTo.html" target="_top" xlink:title=" ">
<polygon fill="#ffffff" stroke="#000000" points="979.5,-217 979.5,-247 1089.5,-247 1089.5,-217 979.5,-217"/>
<text text-anchor="start" x="987.5" y="-235" font-family="Helvetica,sans-Serif" font-size="10.00" fill="#000000">gko::ConvertibleTo</text>
<text text-anchor="middle" x="1034.5" y="-224" font-family="Helvetica,sans-Serif" font-size="10.00" fill="#000000">&lt; ConcreteLinOp &gt;</text>
</a>
</g>
</g>
<!-- Node17&#45;&gt;Node23 -->
<g id="edge26" class="edge">
<title>Node17&#45;&gt;Node23</title>
<path fill="none" stroke="#ffa500" stroke-dasharray="5,2" d="M659.0188,-336.0447C682.1854,-320.5545 715.799,-300.1264 748,-288 825.4282,-258.8418 920.6119,-244.099 979.4194,-237.2437"/>
<polygon fill="#ffa500" stroke="#ffa500" points="656.9812,-333.1976 650.6762,-341.7121 660.9148,-338.9879 656.9812,-333.1976"/>
<text text-anchor="middle" x="831" y="-291" font-family="Helvetica,sans-Serif" font-size="10.00" fill="#000000"> &lt; ConcreteLinOp &gt;</text>
</g>
<!-- Node26 -->
<g id="node22" class="node">
<title>Node26</title>
<g id="a_node22"><a xlink:href="classgko_1_1ConvertibleTo.html" target="_top" xlink:title=" ">
<polygon fill="#ffffff" stroke="#000000" points="1156,-437.5 1156,-478.5 1323,-478.5 1323,-437.5 1156,-437.5"/>
<text text-anchor="start" x="1164" y="-466.5" font-family="Helvetica,sans-Serif" font-size="10.00" fill="#000000">gko::ConvertibleTo</text>
<text text-anchor="start" x="1164" y="-455.5" font-family="Helvetica,sans-Serif" font-size="10.00" fill="#000000">&lt; Ell&lt; next_precision</text>
<text text-anchor="middle" x="1239.5" y="-444.5" font-family="Helvetica,sans-Serif" font-size="10.00" fill="#000000">&lt; ValueType &gt;, IndexType &gt; &gt;</text>
</a>
</g>
</g>
<!-- Node17&#45;&gt;Node26 -->
<g id="edge31" class="edge">
<title>Node17&#45;&gt;Node26</title>
<path fill="none" stroke="#ffa500" stroke-dasharray="5,2" d="M654.182,-378.6916C676.8426,-397.1474 712.2363,-422.4449 748,-434 885.5895,-478.4547 1056.0821,-474.6188 1155.8313,-466.9143"/>
<polygon fill="#ffa500" stroke="#ffa500" points="656.357,-375.9481 646.4323,-372.2397 651.8782,-381.3278 656.357,-375.9481"/>
<text text-anchor="start" x="755.5" y="-479" font-family="Helvetica,sans-Serif" font-size="10.00" fill="#000000"> &lt; Ell&lt; next_precision</text>
<text text-anchor="middle" x="831" y="-468" font-family="Helvetica,sans-Serif" font-size="10.00" fill="#000000">&lt; ValueType &gt;, IndexType &gt; &gt;</text>
</g>
<!-- Node27 -->
<g id="node23" class="node">
<title>Node27</title>
<g id="a_node23"><a xlink:href="classgko_1_1ConvertibleTo.html" target="_top" xlink:title=" ">
<polygon fill="#ffffff" stroke="#000000" points="1561,-405 1561,-435 1703,-435 1703,-405 1561,-405"/>
<text text-anchor="start" x="1569" y="-423" font-family="Helvetica,sans-Serif" font-size="10.00" fill="#000000">gko::ConvertibleTo</text>
<text text-anchor="middle" x="1632" y="-412" font-family="Helvetica,sans-Serif" font-size="10.00" fill="#000000">&lt; Dense&lt; ValueType &gt; &gt;</text>
</a>
</g>
</g>
<!-- Node17&#45;&gt;Node27 -->
<g id="edge33" class="edge">
<title>Node17&#45;&gt;Node27</title>
<path fill="none" stroke="#ffa500" stroke-dasharray="5,2" d="M686.957,-374.7428C706.1794,-379.9487 727.8446,-385.0357 748,-388 1047.5083,-432.0496 1409.9123,-427.2349 1560.7627,-422.6904"/>
<polygon fill="#ffa500" stroke="#ffa500" points="687.7203,-371.3225 677.1485,-372.0203 685.8481,-378.0675 687.7203,-371.3225"/>
<text text-anchor="middle" x="1034.5" y="-424" font-family="Helvetica,sans-Serif" font-size="10.00" fill="#000000"> &lt; Dense&lt; ValueType &gt; &gt;</text>
</g>
<!-- Node28 -->
<g id="node24" class="node">
<title>Node28</title>
<g id="a_node24"><a xlink:href="classgko_1_1ConvertibleTo.html" target="_top" xlink:title=" ">
<polygon fill="#ffffff" stroke="#000000" points="1918,-351 1918,-381 2100,-381 2100,-351 1918,-351"/>
<text text-anchor="start" x="1926" y="-369" font-family="Helvetica,sans-Serif" font-size="10.00" fill="#000000">gko::ConvertibleTo</text>
<text text-anchor="middle" x="2009" y="-358" font-family="Helvetica,sans-Serif" font-size="10.00" fill="#000000">&lt; Csr&lt; ValueType, IndexType &gt; &gt;</text>
</a>
</g>
</g>
<!-- Node17&#45;&gt;Node28 -->
<g id="edge35" class="edge">
<title>Node17&#45;&gt;Node28</title>
<path fill="none" stroke="#ffa500" stroke-dasharray="5,2" d="M693.565,-361.3507C773.3764,-366.3875 913.9426,-374 1034.5,-374 1034.5,-374 1034.5,-374 1632,-374 1729.7082,-374 1841.6287,-371.2808 1917.9789,-369.0131"/>
<polygon fill="#ffa500" stroke="#ffa500" points="693.3922,-357.8326 683.1896,-360.6887 692.9465,-364.8184 693.3922,-357.8326"/>
<text text-anchor="middle" x="1239.5" y="-377" font-family="Helvetica,sans-Serif" font-size="10.00" fill="#000000"> &lt; Csr&lt; ValueType, IndexType &gt; &gt;</text>
</g>
<!-- Node18&#45;&gt;Node15 -->
<g id="edge16" class="edge">
<title>Node18&#45;&gt;Node15</title>
<path fill="none" stroke="#ffa500" stroke-dasharray="5,2" d="M1140.7328,-285.6867C1204.3309,-288.4925 1284.5326,-292.0308 1346.2658,-294.7544"/>
<polygon fill="#ffa500" stroke="#ffa500" points="1140.8182,-282.1872 1130.6737,-285.243 1140.5096,-289.1804 1140.8182,-282.1872"/>
<text text-anchor="middle" x="1239.5" y="-296" font-family="Helvetica,sans-Serif" font-size="10.00" fill="#000000"> &lt; Ell&lt; ValueType, IndexType &gt; &gt;</text>
</g>
<!-- Node22 -->
<g id="node18" class="node">
<title>Node22</title>
<g id="a_node18"><a xlink:href="classgko_1_1EnablePolymorphicAssignment.html" target="_top" xlink:title=" ">
<polygon fill="#ffffff" stroke="#000000" points="1346.5,-229 1346.5,-259 1538.5,-259 1538.5,-229 1346.5,-229"/>
<text text-anchor="start" x="1354.5" y="-247" font-family="Helvetica,sans-Serif" font-size="10.00" fill="#000000">gko::EnablePolymorphicAssignment</text>
<text text-anchor="middle" x="1442.5" y="-236" font-family="Helvetica,sans-Serif" font-size="10.00" fill="#000000">&lt; ConcreteLinOp &gt;</text>
</a>
</g>
</g>
<!-- Node18&#45;&gt;Node22 -->
<g id="edge27" class="edge">
<title>Node18&#45;&gt;Node22</title>
<path fill="none" stroke="#ffa500" stroke-dasharray="5,2" d="M1140.7328,-271.3661C1204.3309,-265.5987 1284.5326,-258.3255 1346.2658,-252.7271"/>
<polygon fill="#ffa500" stroke="#ffa500" points="1140.3167,-267.8894 1130.6737,-272.2784 1140.9489,-274.8608 1140.3167,-267.8894"/>
<text text-anchor="middle" x="1239.5" y="-273" font-family="Helvetica,sans-Serif" font-size="10.00" fill="#000000"> &lt; ConcreteLinOp &gt;</text>
</g>
<!-- Node19 -->
<g id="node15" class="node">
<title>Node19</title>
<g id="a_node15"><a xlink:href="classgko_1_1EnableLinOp.html" target="_top" xlink:title="The EnableLinOp mixin can be used to provide sensible default implementations of the majority of the ...">
<polygon fill="#ffffff" stroke="#000000" points="1732.5,-229 1732.5,-259 1888.5,-259 1888.5,-229 1732.5,-229"/>
<text text-anchor="start" x="1740.5" y="-247" font-family="Helvetica,sans-Serif" font-size="10.00" fill="#000000">gko::EnableLinOp&lt; Concrete</text>
<text text-anchor="middle" x="1810.5" y="-236" font-family="Helvetica,sans-Serif" font-size="10.00" fill="#000000">LinOp, PolymorphicBase &gt;</text>
</a>
</g>
</g>
<!-- Node19&#45;&gt;Node2 -->
<g id="edge18" class="edge">
<title>Node19&#45;&gt;Node2</title>
<path fill="none" stroke="#ffa500" stroke-dasharray="5,2" d="M1898.6542,-250.7039C1956.1731,-255.6759 2032.7811,-263.4267 2100,-274 2117.2732,-276.717 2135.8322,-280.3213 2153.0004,-283.945"/>
<polygon fill="#ffa500" stroke="#ffa500" points="1898.7675,-247.2009 1888.5062,-249.8383 1898.1726,-254.1756 1898.7675,-247.2009"/>
<text text-anchor="middle" x="2009" y="-277" font-family="Helvetica,sans-Serif" font-size="10.00" fill="#000000"> &lt; Ell&lt; ValueType, IndexType &gt; &gt;</text>
</g>
<!-- Node20&#45;&gt;Node19 -->
<g id="edge19" class="edge">
<title>Node20&#45;&gt;Node19</title>
<path fill="none" stroke="#191970" d="M1551.0834,-204.5236C1609.244,-213.3741 1679.5613,-224.0745 1732.3072,-232.1011"/>
<polygon fill="#191970" stroke="#191970" points="1551.53,-201.0513 1541.1172,-203.007 1550.4769,-207.9716 1551.53,-201.0513"/>
</g>
<!-- Node21&#45;&gt;Node20 -->
<g id="edge20" class="edge">
<title>Node21&#45;&gt;Node20</title>
<path fill="none" stroke="#191970" d="M738.6122,-188C896.9635,-188 1188.2617,-188 1341.765,-188"/>
<polygon fill="#191970" stroke="#191970" points="738.377,-184.5001 728.377,-188 738.3769,-191.5001 738.377,-184.5001"/>
</g>
<!-- Node22&#45;&gt;Node19 -->
<g id="edge24" class="edge">
<title>Node22&#45;&gt;Node19</title>
<path fill="none" stroke="#191970" d="M1548.7539,-244C1607.4252,-244 1679.0194,-244 1732.4914,-244"/>
<polygon fill="#191970" stroke="#191970" points="1548.707,-240.5001 1538.707,-244 1548.707,-247.5001 1548.707,-240.5001"/>
</g>
<!-- Node23&#45;&gt;Node22 -->
<g id="edge25" class="edge">
<title>Node23&#45;&gt;Node22</title>
<path fill="none" stroke="#191970" d="M1099.8725,-233.9227C1166.4073,-235.8796 1270.2785,-238.9347 1346.2215,-241.1683"/>
<polygon fill="#191970" stroke="#191970" points="1099.6233,-230.414 1089.5247,-233.6184 1099.4174,-237.4109 1099.6233,-230.414"/>
</g>
<!-- Node24 -->
<g id="node20" class="node">
<title>Node24</title>
<g id="a_node20"><a xlink:href="classgko_1_1EnableCreateMethod.html" target="_top" xlink:title=" ">
<polygon fill="#ffffff" stroke="#000000" points="2128.5,-235 2128.5,-265 2307.5,-265 2307.5,-235 2128.5,-235"/>
<text text-anchor="start" x="2136.5" y="-253" font-family="Helvetica,sans-Serif" font-size="10.00" fill="#000000">gko::EnableCreateMethod</text>
<text text-anchor="middle" x="2218" y="-242" font-family="Helvetica,sans-Serif" font-size="10.00" fill="#000000">&lt; Ell&lt; ValueType, IndexType &gt; &gt;</text>
</a>
</g>
</g>
<!-- Node24&#45;&gt;Node1 -->
<g id="edge28" class="edge">
<title>Node24&#45;&gt;Node1</title>
<path fill="none" stroke="#191970" d="M2318.0293,-250C2330.3498,-250 2342.7979,-250 2354.7194,-250"/>
<polygon fill="#191970" stroke="#191970" points="2317.7245,-246.5001 2307.7245,-250 2317.7244,-253.5001 2317.7245,-246.5001"/>
</g>
<!-- Node25 -->
<g id="node21" class="node">
<title>Node25</title>
<g id="a_node21"><a xlink:href="classgko_1_1EnableCreateMethod.html" target="_top" xlink:title="This mixin implements a static create() method on ConcreteType that dynamically allocates the memory,...">
<polygon fill="#ffffff" stroke="#000000" points="1739.5,-102 1739.5,-132 1881.5,-132 1881.5,-102 1739.5,-102"/>
<text text-anchor="start" x="1747.5" y="-120" font-family="Helvetica,sans-Serif" font-size="10.00" fill="#000000">gko::EnableCreateMethod</text>
<text text-anchor="middle" x="1810.5" y="-109" font-family="Helvetica,sans-Serif" font-size="10.00" fill="#000000">&lt; ConcreteType &gt;</text>
</a>
</g>
</g>
<!-- Node25&#45;&gt;Node24 -->
<g id="edge29" class="edge">
<title>Node25&#45;&gt;Node24</title>
<path fill="none" stroke="#ffa500" stroke-dasharray="5,2" d="M1891.5816,-109.5211C1955.666,-108.1739 2043.4518,-117.1172 2100,-167 2120.5594,-185.136 2098.0363,-207.2103 2118,-226 2121.6404,-229.4263 2125.6807,-232.3902 2129.9899,-234.9518"/>
<polygon fill="#ffa500" stroke="#ffa500" points="1891.3998,-106.0248 1881.5084,-109.8209 1891.6081,-113.0217 1891.3998,-106.0248"/>
<text text-anchor="middle" x="2009" y="-170" font-family="Helvetica,sans-Serif" font-size="10.00" fill="#000000"> &lt; Ell&lt; ValueType, IndexType &gt; &gt;</text>
</g>
<!-- Node26&#45;&gt;Node1 -->
<g id="edge30" class="edge">
<title>Node26&#45;&gt;Node1</title>
<path fill="none" stroke="#191970" d="M1333.8185,-458C1413.3249,-458 1530.1025,-458 1632,-458 1632,-458 1632,-458 2218,-458 2328.7487,-458 2403.9632,-313.3298 2425.8844,-265.2947"/>
<polygon fill="#191970" stroke="#191970" points="1333.3396,-454.5001 1323.3396,-458 1333.3395,-461.5001 1333.3396,-454.5001"/>
</g>
<!-- Node27&#45;&gt;Node1 -->
<g id="edge32" class="edge">
<title>Node27&#45;&gt;Node1</title>
<path fill="none" stroke="#191970" d="M1713.1624,-430.309C1846.761,-443.5265 2118.0973,-454.3378 2318,-357 2363.2538,-334.9647 2402.8973,-288.8985 2421.4061,-265.0411"/>
<polygon fill="#191970" stroke="#191970" points="1713.3086,-426.8058 1703.005,-429.2729 1712.5982,-433.7697 1713.3086,-426.8058"/>
</g>
<!-- Node28&#45;&gt;Node1 -->
<g id="edge34" class="edge">
<title>Node28&#45;&gt;Node1</title>
<path fill="none" stroke="#191970" d="M2110.2178,-363.3627C2171.8935,-359.0661 2251.3863,-348.6507 2318,-324 2355.5138,-310.1178 2393.3975,-282.3148 2414.8139,-265.0207"/>
<polygon fill="#191970" stroke="#191970" points="2109.8387,-359.8799 2100.0883,-364.0247 2110.2953,-366.865 2109.8387,-359.8799"/>
</g>
<!-- Node29 -->
<g id="node25" class="node">
<title>Node29</title>
<g id="a_node25"><a xlink:href="classgko_1_1DiagonalExtractable.html" target="_top" xlink:title="The diagonal of a LinOp implementing this interface can be extracted.">
<polygon fill="#ffffff" stroke="#000000" points="2148,-186 2148,-216 2288,-216 2288,-186 2148,-186"/>
<text text-anchor="start" x="2156" y="-204" font-family="Helvetica,sans-Serif" font-size="10.00" fill="#000000">gko::DiagonalExtractable</text>
<text text-anchor="middle" x="2218" y="-193" font-family="Helvetica,sans-Serif" font-size="10.00" fill="#000000">&lt; ValueType &gt;</text>
</a>
</g>
</g>
<!-- Node29&#45;&gt;Node1 -->
<g id="edge36" class="edge">
<title>Node29&#45;&gt;Node1</title>
<path fill="none" stroke="#191970" d="M2293.8671,-218.3309C2317.6819,-223.7712 2343.7605,-229.7285 2366.8097,-234.9938"/>
<polygon fill="#191970" stroke="#191970" points="2294.3431,-214.8496 2283.8148,-216.0346 2292.7842,-221.6738 2294.3431,-214.8496"/>
</g>
<!-- Node30 -->
<g id="node26" class="node">
<title>Node30</title>
<g id="a_node26"><a xlink:href="classgko_1_1ReadableFromMatrixData.html" target="_top" xlink:title="A LinOp implementing this interface can read its data from a matrix_data structure.">
<polygon fill="#ffffff" stroke="#000000" points="2136,-137 2136,-167 2300,-167 2300,-137 2136,-137"/>
<text text-anchor="start" x="2144" y="-155" font-family="Helvetica,sans-Serif" font-size="10.00" fill="#000000">gko::ReadableFromMatrixData</text>
<text text-anchor="middle" x="2218" y="-144" font-family="Helvetica,sans-Serif" font-size="10.00" fill="#000000">&lt; ValueType, IndexType &gt;</text>
</a>
</g>
</g>
<!-- Node30&#45;&gt;Node1 -->
<g id="edge37" class="edge">
<title>Node30&#45;&gt;Node1</title>
<path fill="none" stroke="#191970" d="M2299.9822,-170.1724C2306.1591,-172.2449 2312.2285,-174.517 2318,-177 2353.7321,-192.3724 2390.969,-218.2545 2412.927,-234.7127"/>
<polygon fill="#191970" stroke="#191970" points="2300.8045,-166.7616 2290.2144,-167.0785 2298.6907,-173.4348 2300.8045,-166.7616"/>
</g>
<!-- Node31 -->
<g id="node27" class="node">
<title>Node31</title>
<g id="a_node27"><a xlink:href="classgko_1_1WritableToMatrixData.html" target="_top" xlink:title="A LinOp implementing this interface can write its data to a matrix_data structure.">
<polygon fill="#ffffff" stroke="#000000" points="2145,-88 2145,-118 2291,-118 2291,-88 2145,-88"/>
<text text-anchor="start" x="2153" y="-106" font-family="Helvetica,sans-Serif" font-size="10.00" fill="#000000">gko::WritableToMatrixData</text>
<text text-anchor="middle" x="2218" y="-95" font-family="Helvetica,sans-Serif" font-size="10.00" fill="#000000">&lt; ValueType, IndexType &gt;</text>
</a>
</g>
</g>
<!-- Node31&#45;&gt;Node1 -->
<g id="edge38" class="edge">
<title>Node31&#45;&gt;Node1</title>
<path fill="none" stroke="#191970" d="M2300.7725,-119.6114C2306.7697,-122.0388 2312.5823,-124.8181 2318,-128 2365.0889,-155.656 2404.7666,-208.4876 2422.5229,-234.6032"/>
<polygon fill="#191970" stroke="#191970" points="2301.8197,-116.267 2291.2265,-116.0794 2299.3906,-122.8321 2301.8197,-116.267"/>
</g>
<!-- Node32 -->
<g id="node28" class="node">
<title>Node32</title>
<g id="a_node28"><a xlink:href="classgko_1_1EnableAbsoluteComputation.html" target="_top" xlink:title=" ">
<polygon fill="#ffffff" stroke="#000000" points="2118,-27.5 2118,-68.5 2318,-68.5 2318,-27.5 2118,-27.5"/>
<text text-anchor="start" x="2126" y="-56.5" font-family="Helvetica,sans-Serif" font-size="10.00" fill="#000000">gko::EnableAbsoluteComputation</text>
<text text-anchor="start" x="2126" y="-45.5" font-family="Helvetica,sans-Serif" font-size="10.00" fill="#000000">&lt; remove_complex&lt; Ell&lt; ValueType,</text>
<text text-anchor="middle" x="2218" y="-34.5" font-family="Helvetica,sans-Serif" font-size="10.00" fill="#000000"> IndexType &gt; &gt; &gt;</text>
</a>
</g>
</g>
<!-- Node32&#45;&gt;Node1 -->
<g id="edge39" class="edge">
<title>Node32&#45;&gt;Node1</title>
<path fill="none" stroke="#191970" d="M2309.6668,-73.4193C2312.5523,-75.1595 2315.3407,-77.0172 2318,-79 2375.1422,-121.6061 2412.7592,-201.6555 2426.5802,-234.9145"/>
<polygon fill="#191970" stroke="#191970" points="2311.2038,-70.2706 2300.7508,-68.5429 2307.8449,-76.4121 2311.2038,-70.2706"/>
</g>
<!-- Node33 -->
<g id="node29" class="node">
<title>Node33</title>
<g id="a_node29"><a xlink:href="classgko_1_1AbsoluteComputable.html" target="_top" xlink:title="The AbsoluteComputable is an interface that allows to get the component wise absolute of a LinOp.">
<polygon fill="#ffffff" stroke="#000000" points="1371,-.5 1371,-19.5 1514,-19.5 1514,-.5 1371,-.5"/>
<text text-anchor="middle" x="1442.5" y="-7.5" font-family="Helvetica,sans-Serif" font-size="10.00" fill="#000000">gko::AbsoluteComputable</text>
</a>
</g>
</g>
<!-- Node33&#45;&gt;Node32 -->
<g id="edge40" class="edge">
<title>Node33&#45;&gt;Node32</title>
<path fill="none" stroke="#191970" d="M1524.2853,-11.7097C1615.8475,-13.8499 1768.6236,-18.0979 1900,-25 1972.9647,-28.8333 2055.231,-34.8285 2117.8075,-39.737"/>
<polygon fill="#191970" stroke="#191970" points="1524.3287,-8.2098 1514.2505,-11.4778 1524.1669,-15.208 1524.3287,-8.2098"/>
</g>
<!-- Node34 -->
<g id="node30" class="node">
<title>Node34</title>
<g id="a_node30"><a xlink:href="classgko_1_1EnableAbsoluteComputation.html" target="_top" xlink:title="The EnableAbsoluteComputation mixin provides the default implementations of compute_absolute_linop an...">
<polygon fill="#ffffff" stroke="#000000" points="1721,-35 1721,-65 1900,-65 1900,-35 1721,-35"/>
<text text-anchor="start" x="1729" y="-53" font-family="Helvetica,sans-Serif" font-size="10.00" fill="#000000">gko::EnableAbsoluteComputation</text>
<text text-anchor="middle" x="1810.5" y="-42" font-family="Helvetica,sans-Serif" font-size="10.00" fill="#000000">&lt; AbsoluteLinOp &gt;</text>
</a>
</g>
</g>
<!-- Node33&#45;&gt;Node34 -->
<g id="edge42" class="edge">
<title>Node33&#45;&gt;Node34</title>
<path fill="none" stroke="#191970" d="M1524.6004,-18.924C1582.8732,-25.258 1661.0623,-33.7568 1720.9431,-40.2655"/>
<polygon fill="#191970" stroke="#191970" points="1524.6474,-15.4085 1514.3277,-17.8074 1523.8909,-22.3675 1524.6474,-15.4085"/>
</g>
<!-- Node34&#45;&gt;Node32 -->
<g id="edge41" class="edge">
<title>Node34&#45;&gt;Node32</title>
<path fill="none" stroke="#ffa500" stroke-dasharray="5,2" d="M1910.5366,-49.509C1973.5935,-49.1995 2054.722,-48.8014 2117.8084,-48.4917"/>
<polygon fill="#ffa500" stroke="#ffa500" points="1910.1624,-46.0107 1900.1797,-49.5599 1910.1968,-53.0106 1910.1624,-46.0107"/>
<text text-anchor="start" x="1933.5" y="-64" font-family="Helvetica,sans-Serif" font-size="10.00" fill="#000000"> &lt; remove_complex&lt; Ell</text>
<text text-anchor="middle" x="2009" y="-53" font-family="Helvetica,sans-Serif" font-size="10.00" fill="#000000">&lt; ValueType, IndexType &gt; &gt; &gt;</text>
</g>
</g>
</svg>
        <g id="navigator" transform="translate(0 0)" fill="#404254">
                <rect fill="#f2f5e9" fill-opacity="0.5" stroke="#606060" stroke-width=".5" x="0" y="0" width="60" height="60"/>
                <use id="zoomplus" xlink:href="#zoomPlus" x="17" y="9" onmousedown="handleZoom(evt,'in')"/>
                <use id="zoomminus" xlink:href="#zoomMin" x="42" y="9" onmousedown="handleZoom(evt,'out')"/>
                <use id="reset" xlink:href="#resetDef" x="30" y="36" onmousedown="handleReset()"/>
                <g id="arrowUp" xlink:href="#dirArrow" transform="translate(30 24)" onmousedown="handlePan(0,-1)">
                  <use xlink:href="#rim" fill="#404040">
                        <set attributeName="fill" to="#808080" begin="arrowUp.mouseover" end="arrowUp.mouseout"/>
                  </use>
                  <path fill="none" stroke="white" stroke-width="1.5" d="M0,-3.0v7 M-2.5,-0.5L0,-3.0L2.5,-0.5"/>
                </g>
                <g id="arrowRight" xlink:href="#dirArrow" transform="rotate(90) translate(36 -43)" onmousedown="handlePan(1,0)">
                  <use xlink:href="#rim" fill="#404040">
                        <set attributeName="fill" to="#808080" begin="arrowRight.mouseover" end="arrowRight.mouseout"/>
                  </use>
                  <path fill="none" stroke="white" stroke-width="1.5" d="M0,-3.0v7 M-2.5,-0.5L0,-3.0L2.5,-0.5"/>
                </g>
                <g id="arrowDown" xlink:href="#dirArrow" transform="rotate(180) translate(-30 -48)" onmousedown="handlePan(0,1)">
                  <use xlink:href="#rim" fill="#404040">
                        <set attributeName="fill" to="#808080" begin="arrowDown.mouseover" end="arrowDown.mouseout"/>
                  </use>
                  <path fill="none" stroke="white" stroke-width="1.5" d="M0,-3.0v7 M-2.5,-0.5L0,-3.0L2.5,-0.5"/>
                </g>
                <g id="arrowLeft" xlink:href="#dirArrow" transform="rotate(270) translate(-36 17)" onmousedown="handlePan(-1,0)">
                  <use xlink:href="#rim" fill="#404040">
                        <set attributeName="fill" to="#808080" begin="arrowLeft.mouseover" end="arrowLeft.mouseout"/>
                  </use>
                  <path fill="none" stroke="white" stroke-width="1.5" d="M0,-3.0v7 M-2.5,-0.5L0,-3.0L2.5,-0.5"/>
                </g>
        </g>
        <svg viewBox="0 0 15 15" width="100%" height="30px" preserveAspectRatio="xMaxYMin meet">
         <g id="arrow_out" transform="scale(0.3 0.3)">
          <a xlink:href="classgko_1_1matrix_1_1Ell__coll__graph_org.svg" target="_base">
           <rect id="button" ry="5" rx="5" y="6" x="6" height="38" width="38"
                fill="#f2f5e9" fill-opacity="0.5" stroke="#606060" stroke-width="1.0"/>
           <path id="arrow"
             d="M 11.500037,31.436501 C 11.940474,20.09759 22.043105,11.32322 32.158766,21.979434 L 37.068811,17.246167 C 37.068811,17.246167 37.088388,32 37.088388,32 L 22.160133,31.978069 C 22.160133,31.978069 26.997745,27.140456 26.997745,27.140456 C 18.528582,18.264221 13.291696,25.230495 11.500037,31.436501 z"
             style="fill:#404040;"/>
          </a>
         </g>
        </svg>
</svg>
