<?xml version="1.0" encoding="UTF-8" standalone="no"?>
<!DOCTYPE svg PUBLIC "-//W3C//DTD SVG 1.1//EN"
 "http://www.w3.org/Graphics/SVG/1.1/DTD/svg11.dtd">
<!-- Generated by graphviz version 2.40.1 (20161225.0304)
 -->
<!-- Title: gko::matrix::IdentityFactory&lt; ValueType &gt; Pages: 1 -->
<svg width="2122pt" height="220pt"
 viewBox="0.00 0.00 2122.00 219.50" xmlns="http://www.w3.org/2000/svg" xmlns:xlink="http://www.w3.org/1999/xlink">
<g id="graph0" class="graph" transform="scale(1 1) rotate(0) translate(4 215.5)">
<title>gko::matrix::IdentityFactory&lt; ValueType &gt;</title>
<polygon fill="#ffffff" stroke="transparent" points="-4,4 -4,-215.5 2118,-215.5 2118,4 -4,4"/>
<!-- Node1 -->
<g id="node1" class="node">
<title>Node1</title>
<g id="a_node1"><a xlink:title="This factory is a utility which can be used to generate Identity operators.">
<polygon fill="#bfbfbf" stroke="#000000" points="1962,-18 1962,-48 2114,-48 2114,-18 1962,-18"/>
<text text-anchor="start" x="1970" y="-36" font-family="Helvetica,sans-Serif" font-size="10.00" fill="#000000">gko::matrix::IdentityFactory</text>
<text text-anchor="middle" x="2038" y="-25" font-family="Helvetica,sans-Serif" font-size="10.00" fill="#000000">&lt; ValueType &gt;</text>
</a>
</g>
</g>
<!-- Node2 -->
<g id="node2" class="node">
<title>Node2</title>
<g id="a_node2"><a xlink:href="classgko_1_1EnablePolymorphicObject.html" target="_top" xlink:title=" ">
<polygon fill="#ffffff" stroke="#000000" points="1759,-12.5 1759,-53.5 1925,-53.5 1925,-12.5 1759,-12.5"/>
<text text-anchor="start" x="1767" y="-41.5" font-family="Helvetica,sans-Serif" font-size="10.00" fill="#000000">gko::EnablePolymorphicObject</text>
<text text-anchor="start" x="1767" y="-30.5" font-family="Helvetica,sans-Serif" font-size="10.00" fill="#000000">&lt; IdentityFactory&lt; ValueType</text>
<text text-anchor="middle" x="1842" y="-19.5" font-family="Helvetica,sans-Serif" font-size="10.00" fill="#000000"> &gt;, LinOpFactory &gt;</text>
</a>
</g>
</g>
<!-- Node2&#45;&gt;Node1 -->
<g id="edge1" class="edge">
<title>Node2&#45;&gt;Node1</title>
<path fill="none" stroke="#191970" d="M1935.1902,-33C1944.1423,-33 1953.1482,-33 1961.9079,-33"/>
<polygon fill="#191970" stroke="#191970" points="1935.1217,-29.5001 1925.1216,-33 1935.1216,-36.5001 1935.1217,-29.5001"/>
</g>
<!-- Node3 -->
<g id="node3" class="node">
<title>Node3</title>
<g id="a_node3"><a xlink:href="classgko_1_1EnableAbstractPolymorphicObject.html" target="_top" xlink:title=" ">
<polygon fill="#ffffff" stroke="#000000" points="1547,-49.5 1547,-90.5 1722,-90.5 1722,-49.5 1547,-49.5"/>
<text text-anchor="start" x="1555" y="-78.5" font-family="Helvetica,sans-Serif" font-size="10.00" fill="#000000">gko::EnableAbstractPolymorphic</text>
<text text-anchor="start" x="1555" y="-67.5" font-family="Helvetica,sans-Serif" font-size="10.00" fill="#000000">Object&lt; IdentityFactory&lt;</text>
<text text-anchor="middle" x="1634.5" y="-56.5" font-family="Helvetica,sans-Serif" font-size="10.00" fill="#000000"> ValueType &gt;, LinOpFactory &gt;</text>
</a>
</g>
</g>
<!-- Node3&#45;&gt;Node2 -->
<g id="edge2" class="edge">
<title>Node3&#45;&gt;Node2</title>
<path fill="none" stroke="#191970" d="M1732.2322,-52.5731C1741.1546,-50.9821 1750.1365,-49.3805 1758.9129,-47.8155"/>
<polygon fill="#191970" stroke="#191970" points="1731.4282,-49.1611 1722.1979,-54.3623 1732.6571,-56.0524 1731.4282,-49.1611"/>
</g>
<!-- Node4 -->
<g id="node4" class="node">
<title>Node4</title>
<g id="a_node4"><a xlink:href="classgko_1_1LinOpFactory.html" target="_top" xlink:title="A LinOpFactory represents a higher order mapping which transforms one linear operator into another.">
<polygon fill="#ffffff" stroke="#000000" points="1262,-109.5 1262,-128.5 1366,-128.5 1366,-109.5 1262,-109.5"/>
<text text-anchor="middle" x="1314" y="-116.5" font-family="Helvetica,sans-Serif" font-size="10.00" fill="#000000">gko::LinOpFactory</text>
</a>
</g>
</g>
<!-- Node4&#45;&gt;Node3 -->
<g id="edge3" class="edge">
<title>Node4&#45;&gt;Node3</title>
<path fill="none" stroke="#191970" d="M1376.2624,-109.4809C1424.8265,-102.0562 1492.8778,-91.6521 1546.9311,-83.3881"/>
<polygon fill="#191970" stroke="#191970" points="1375.5633,-106.0471 1366.2072,-111.0182 1376.6213,-112.9667 1375.5633,-106.0471"/>
</g>
<!-- Node5 -->
<g id="node5" class="node">
<title>Node5</title>
<g id="a_node5"><a xlink:title=" ">
<polygon fill="#ffffff" stroke="#bfbfbf" points="885.5,-110.5 885.5,-151.5 1011.5,-151.5 1011.5,-110.5 885.5,-110.5"/>
<text text-anchor="start" x="893.5" y="-139.5" font-family="Helvetica,sans-Serif" font-size="10.00" fill="#000000">gko::AbstractFactory</text>
<text text-anchor="start" x="893.5" y="-128.5" font-family="Helvetica,sans-Serif" font-size="10.00" fill="#000000">&lt; LinOp, std::shared</text>
<text text-anchor="middle" x="948.5" y="-117.5" font-family="Helvetica,sans-Serif" font-size="10.00" fill="#000000">_ptr&lt; const LinOp &gt; &gt;</text>
</a>
</g>
</g>
<!-- Node5&#45;&gt;Node4 -->
<g id="edge4" class="edge">
<title>Node5&#45;&gt;Node4</title>
<path fill="none" stroke="#191970" d="M1021.9753,-128.5877C1093.0715,-126.2535 1199.0382,-122.7744 1261.8653,-120.7117"/>
<polygon fill="#191970" stroke="#191970" points="1021.6277,-125.0971 1011.748,-128.9235 1021.8575,-132.0933 1021.6277,-125.0971"/>
</g>
<!-- Node6 -->
<g id="node6" class="node">
<title>Node6</title>
<g id="a_node6"><a xlink:title=" ">
<polygon fill="#ffffff" stroke="#bfbfbf" points="542,-159 542,-211 717,-211 717,-159 542,-159"/>
<text text-anchor="start" x="550" y="-199" font-family="Helvetica,sans-Serif" font-size="10.00" fill="#000000">gko::EnableAbstractPolymorphic</text>
<text text-anchor="start" x="550" y="-188" font-family="Helvetica,sans-Serif" font-size="10.00" fill="#000000">Object&lt; AbstractFactory&lt;</text>
<text text-anchor="start" x="550" y="-177" font-family="Helvetica,sans-Serif" font-size="10.00" fill="#000000"> LinOp, std::shared_ptr&lt; const</text>
<text text-anchor="middle" x="629.5" y="-166" font-family="Helvetica,sans-Serif" font-size="10.00" fill="#000000"> LinOp &gt; &gt; &gt;</text>
</a>
</g>
</g>
<!-- Node6&#45;&gt;Node5 -->
<g id="edge5" class="edge">
<title>Node6&#45;&gt;Node5</title>
<path fill="none" stroke="#191970" d="M727.3421,-173.4693C767.9187,-168.1248 815.3809,-161.1436 858,-153 866.8939,-151.3005 876.2274,-149.2919 885.3824,-147.1906"/>
<polygon fill="#191970" stroke="#191970" points="726.6458,-170.0304 717.1815,-174.7925 727.5498,-176.9718 726.6458,-170.0304"/>
</g>
<!-- Node11 -->
<g id="node7" class="node">
<title>Node11</title>
<g id="a_node7"><a xlink:href="classgko_1_1EnableAbstractPolymorphicObject.html" target="_top" xlink:title="This mixin inherits from (a subclass of) PolymorphicObject and provides a base implementation of a ne...">
<polygon fill="#ffffff" stroke="#000000" points="138,-38.5 138,-79.5 336,-79.5 336,-38.5 138,-38.5"/>
<text text-anchor="start" x="146" y="-67.5" font-family="Helvetica,sans-Serif" font-size="10.00" fill="#000000">gko::EnableAbstractPolymorphic</text>
<text text-anchor="start" x="146" y="-56.5" font-family="Helvetica,sans-Serif" font-size="10.00" fill="#000000">Object&lt; AbstractObject, Polymorphic</text>
<text text-anchor="middle" x="237" y="-45.5" font-family="Helvetica,sans-Serif" font-size="10.00" fill="#000000">Base &gt;</text>
</a>
</g>
</g>
<!-- Node11&#45;&gt;Node3 -->
<g id="edge9" class="edge">
<title>Node11&#45;&gt;Node3</title>
<path fill="none" stroke="#ffa500" stroke-dasharray="5,2" d="M346.6018,-63.7157C425.3069,-66.7006 533.9234,-70 629.5,-70 629.5,-70 629.5,-70 1314,-70 1392.7339,-70 1482.3476,-70 1546.7594,-70"/>
<polygon fill="#ffa500" stroke="#ffa500" points="346.3124,-60.2021 336.1854,-63.3159 346.0438,-67.197 346.3124,-60.2021"/>
<text text-anchor="start" x="876" y="-84" font-family="Helvetica,sans-Serif" font-size="10.00" fill="#000000"> &lt; IdentityFactory&lt;</text>
<text text-anchor="middle" x="948.5" y="-73" font-family="Helvetica,sans-Serif" font-size="10.00" fill="#000000"> ValueType &gt;, LinOpFactory &gt;</text>
</g>
<!-- Node11&#45;&gt;Node6 -->
<g id="edge6" class="edge">
<title>Node11&#45;&gt;Node6</title>
<path fill="none" stroke="#ffa500" stroke-dasharray="5,2" d="M310.6703,-82.6496C378.2937,-104.358 478.3019,-136.4625 548.2268,-158.9097"/>
<polygon fill="#ffa500" stroke="#ffa500" points="311.5267,-79.2486 300.9355,-79.5245 309.3871,-85.9136 311.5267,-79.2486"/>
<text text-anchor="start" x="372" y="-169" font-family="Helvetica,sans-Serif" font-size="10.00" fill="#000000"> &lt; AbstractFactory&lt;</text>
<text text-anchor="start" x="372" y="-158" font-family="Helvetica,sans-Serif" font-size="10.00" fill="#000000"> LinOp, std::shared</text>
<text text-anchor="middle" x="432.5" y="-147" font-family="Helvetica,sans-Serif" font-size="10.00" fill="#000000">_ptr&lt; const LinOp &gt; &gt; &gt;</text>
</g>
<!-- Node16 -->
<g id="node11" class="node">
<title>Node16</title>
<g id="a_node11"><a xlink:href="classgko_1_1EnableAbstractPolymorphicObject.html" target="_top" xlink:title=" ">
<polygon fill="#ffffff" stroke="#000000" points="529,-.5 529,-41.5 730,-41.5 730,-.5 529,-.5"/>
<text text-anchor="start" x="537" y="-29.5" font-family="Helvetica,sans-Serif" font-size="10.00" fill="#000000">gko::EnableAbstractPolymorphic</text>
<text text-anchor="start" x="537" y="-18.5" font-family="Helvetica,sans-Serif" font-size="10.00" fill="#000000">Object&lt; ConcreteObject, Polymorphic</text>
<text text-anchor="middle" x="629.5" y="-7.5" font-family="Helvetica,sans-Serif" font-size="10.00" fill="#000000">Base &gt;</text>
</a>
</g>
</g>
<!-- Node11&#45;&gt;Node16 -->
<g id="edge13" class="edge">
<title>Node11&#45;&gt;Node16</title>
<path fill="none" stroke="#ffa500" stroke-dasharray="5,2" d="M335.4066,-36.7715C341.6803,-35.727 347.9169,-34.7881 354,-34 411.5771,-26.541 476.4158,-23.2314 528.7212,-21.8138"/>
<polygon fill="#ffa500" stroke="#ffa500" points="334.784,-33.3271 325.5341,-38.4932 335.9867,-40.223 334.784,-33.3271"/>
<text text-anchor="start" x="354" y="-48" font-family="Helvetica,sans-Serif" font-size="10.00" fill="#000000"> &lt; ConcreteObject, Polymorphic</text>
<text text-anchor="middle" x="432.5" y="-37" font-family="Helvetica,sans-Serif" font-size="10.00" fill="#000000">Base &gt;</text>
</g>
<!-- Node12 -->
<g id="node8" class="node">
<title>Node12</title>
<g id="a_node8"><a xlink:title=" ">
<polygon fill="#ffffff" stroke="#bfbfbf" points="0,-2.5 0,-21.5 101,-21.5 101,-2.5 0,-2.5"/>
<text text-anchor="middle" x="50.5" y="-9.5" font-family="Helvetica,sans-Serif" font-size="10.00" fill="#000000">PolymorphicBase</text>
</a>
</g>
</g>
<!-- Node12&#45;&gt;Node11 -->
<g id="edge7" class="edge">
<title>Node12&#45;&gt;Node11</title>
<path fill="none" stroke="#191970" d="M98.1547,-24.0095C115.5909,-28.4036 135.8484,-33.5087 155.4104,-38.4385"/>
<polygon fill="#191970" stroke="#191970" points="98.7932,-20.561 88.2411,-21.5112 97.0826,-27.3488 98.7932,-20.561"/>
</g>
<!-- Node12&#45;&gt;Node16 -->
<g id="edge12" class="edge">
<title>Node12&#45;&gt;Node16</title>
<path fill="none" stroke="#191970" d="M111.3507,-12.8925C199.4779,-14.1925 367.77,-16.7027 511,-19 516.8634,-19.094 522.8899,-19.1919 528.9706,-19.2917"/>
<polygon fill="#191970" stroke="#191970" points="111.3169,-9.3917 101.2663,-12.7439 111.2136,-16.391 111.3169,-9.3917"/>
</g>
<!-- Node13 -->
<g id="node9" class="node">
<title>Node13</title>
<g id="a_node9"><a xlink:href="classgko_1_1AbstractFactory.html" target="_top" xlink:title="The AbstractFactory is a generic interface template that enables easy implementation of the abstract ...">
<polygon fill="#ffffff" stroke="#ff0000" points="564,-98.5 564,-139.5 695,-139.5 695,-98.5 564,-98.5"/>
<text text-anchor="start" x="572" y="-127.5" font-family="Helvetica,sans-Serif" font-size="10.00" fill="#000000">gko::AbstractFactory</text>
<text text-anchor="start" x="572" y="-116.5" font-family="Helvetica,sans-Serif" font-size="10.00" fill="#000000">&lt; AbstractProductType,</text>
<text text-anchor="middle" x="629.5" y="-105.5" font-family="Helvetica,sans-Serif" font-size="10.00" fill="#000000"> ComponentsType &gt;</text>
</a>
</g>
</g>
<!-- Node13&#45;&gt;Node5 -->
<g id="edge8" class="edge">
<title>Node13&#45;&gt;Node5</title>
<path fill="none" stroke="#ffa500" stroke-dasharray="5,2" d="M705.239,-121.8491C760.1513,-123.9148 833.5558,-126.6761 885.3206,-128.6233"/>
<polygon fill="#ffa500" stroke="#ffa500" points="705.3347,-118.3503 695.2102,-121.4719 705.0715,-125.3454 705.3347,-118.3503"/>
<text text-anchor="start" x="748" y="-141" font-family="Helvetica,sans-Serif" font-size="10.00" fill="#000000"> &lt; LinOp, std::shared</text>
<text text-anchor="middle" x="803" y="-130" font-family="Helvetica,sans-Serif" font-size="10.00" fill="#000000">_ptr&lt; const LinOp &gt; &gt;</text>
</g>
<!-- Node15 -->
<g id="node10" class="node">
<title>Node15</title>
<g id="a_node10"><a xlink:href="classgko_1_1EnablePolymorphicObject.html" target="_top" xlink:title="This mixin inherits from (a subclass of) PolymorphicObject and provides a base implementation of a ne...">
<polygon fill="#ffffff" stroke="#000000" points="1039,-6 1039,-36 1244,-36 1244,-6 1039,-6"/>
<text text-anchor="start" x="1047" y="-24" font-family="Helvetica,sans-Serif" font-size="10.00" fill="#000000">gko::EnablePolymorphicObject</text>
<text text-anchor="middle" x="1141.5" y="-13" font-family="Helvetica,sans-Serif" font-size="10.00" fill="#000000">&lt; ConcreteObject, PolymorphicBase &gt;</text>
</a>
</g>
</g>
<!-- Node15&#45;&gt;Node2 -->
<g id="edge10" class="edge">
<title>Node15&#45;&gt;Node2</title>
<path fill="none" stroke="#ffa500" stroke-dasharray="5,2" d="M1254.5123,-22.936C1395.5531,-25.3521 1633.438,-29.4272 1758.8588,-31.5757"/>
<polygon fill="#ffa500" stroke="#ffa500" points="1254.1674,-19.4296 1244.1089,-22.7578 1254.0475,-26.4286 1254.1674,-19.4296"/>
<text text-anchor="start" x="1384" y="-42" font-family="Helvetica,sans-Serif" font-size="10.00" fill="#000000"> &lt; IdentityFactory&lt;</text>
<text text-anchor="middle" x="1456.5" y="-31" font-family="Helvetica,sans-Serif" font-size="10.00" fill="#000000"> ValueType &gt;, LinOpFactory &gt;</text>
</g>
<!-- Node16&#45;&gt;Node15 -->
<g id="edge11" class="edge">
<title>Node16&#45;&gt;Node15</title>
<path fill="none" stroke="#191970" d="M740.1446,-21C828.8864,-21 952.4809,-21 1038.9956,-21"/>
<polygon fill="#191970" stroke="#191970" points="740.0439,-17.5001 730.0438,-21 740.0438,-24.5001 740.0439,-17.5001"/>
</g>
</g>
</svg>
