<?xml version="1.0" encoding="UTF-8" standalone="no"?>
<!DOCTYPE svg PUBLIC "-//W3C//DTD SVG 1.1//EN"
 "http://www.w3.org/Graphics/SVG/1.1/DTD/svg11.dtd">
<!-- Generated by graphviz version 2.40.1 (20161225.0304)
 -->
<!-- Title: gko::version_info Pages: 1 -->
<svg width="147pt" height="161pt"
 viewBox="0.00 0.00 146.50 161.00" xmlns="http://www.w3.org/2000/svg" xmlns:xlink="http://www.w3.org/1999/xlink">
<g id="graph0" class="graph" transform="scale(1 1) rotate(0) translate(4 157)">
<title>gko::version_info</title>
<polygon fill="#ffffff" stroke="transparent" points="-4,4 -4,-157 142.5,-157 142.5,4 -4,4"/>
<!-- Node1 -->
<g id="node1" class="node">
<title>Node1</title>
<g id="a_node1"><a xlink:title="Ginkgo uses version numbers to label new features and to communicate backward compatibility guarantee...">
<polygon fill="#bfbfbf" stroke="#000000" points="0,-.5 0,-19.5 101,-19.5 101,-.5 0,-.5"/>
<text text-anchor="middle" x="50.5" y="-7.5" font-family="Helvetica,sans-Serif" font-size="10.00" fill="#000000">gko::version_info</text>
</a>
</g>
</g>
<!-- Node2 -->
<g id="node2" class="node">
<title>Node2</title>
<g id="a_node2"><a xlink:href="structgko_1_1version.html" target="_top" xlink:title="This structure is used to represent versions of various Ginkgo modules.">
<polygon fill="#ffffff" stroke="#000000" points="12,-133.5 12,-152.5 89,-152.5 89,-133.5 12,-133.5"/>
<text text-anchor="middle" x="50.5" y="-140.5" font-family="Helvetica,sans-Serif" font-size="10.00" fill="#000000">gko::version</text>
</a>
</g>
</g>
<!-- Node2&#45;&gt;Node1 -->
<g id="edge1" class="edge">
<title>Node2&#45;&gt;Node1</title>
<path fill="none" stroke="#9a32cd" stroke-dasharray="5,2" d="M50.5,-123.3284C50.5,-94.4521 50.5,-41.6559 50.5,-19.8372"/>
<polygon fill="#9a32cd" stroke="#9a32cd" points="47.0001,-123.4349 50.5,-133.435 54.0001,-123.435 47.0001,-123.4349"/>
<text text-anchor="middle" x="94.5" y="-107" font-family="Helvetica,sans-Serif" font-size="10.00" fill="#000000"> core_version</text>
<text text-anchor="middle" x="94.5" y="-96" font-family="Helvetica,sans-Serif" font-size="10.00" fill="#000000">hip_version</text>
<text text-anchor="middle" x="94.5" y="-85" font-family="Helvetica,sans-Serif" font-size="10.00" fill="#000000">dpcpp_version</text>
<text text-anchor="middle" x="94.5" y="-74" font-family="Helvetica,sans-Serif" font-size="10.00" fill="#000000">reference_version</text>
<text text-anchor="middle" x="94.5" y="-63" font-family="Helvetica,sans-Serif" font-size="10.00" fill="#000000">cuda_version</text>
<text text-anchor="middle" x="94.5" y="-52" font-family="Helvetica,sans-Serif" font-size="10.00" fill="#000000">omp_version</text>
<text text-anchor="middle" x="94.5" y="-41" font-family="Helvetica,sans-Serif" font-size="10.00" fill="#000000">header_version</text>
</g>
</g>
</svg>
