<?xml version="1.0" encoding="UTF-8" standalone="no"?>
<!DOCTYPE svg PUBLIC "-//W3C//DTD SVG 1.1//EN"
 "http://www.w3.org/Graphics/SVG/1.1/DTD/svg11.dtd">
<!-- Generated by graphviz version 2.40.1 (20161225.0304)
 -->
<!-- Title: gko::solver::Fcg&lt; ValueType &gt;::parameters_type Pages: 1 -->
<svg width="895pt" height="199pt"
 viewBox="0.00 0.00 895.00 198.50" xmlns="http://www.w3.org/2000/svg" xmlns:xlink="http://www.w3.org/1999/xlink">
<g id="graph0" class="graph" transform="scale(1 1) rotate(0) translate(4 194.5)">
<title>gko::solver::Fcg&lt; ValueType &gt;::parameters_type</title>
<polygon fill="#ffffff" stroke="transparent" points="-4,4 -4,-194.5 891,-194.5 891,4 -4,4"/>
<!-- Node1 -->
<g id="node1" class="node">
<title>Node1</title>
<g id="a_node1"><a xlink:title=" ">
<polygon fill="#bfbfbf" stroke="#000000" points="733,-70.5 733,-100.5 887,-100.5 887,-70.5 733,-70.5"/>
<text text-anchor="start" x="741" y="-88.5" font-family="Helvetica,sans-Serif" font-size="10.00" fill="#000000">gko::solver::Fcg&lt; ValueType</text>
<text text-anchor="middle" x="810" y="-77.5" font-family="Helvetica,sans-Serif" font-size="10.00" fill="#000000"> &gt;::parameters_type</text>
</a>
</g>
</g>
<!-- Node2 -->
<g id="node2" class="node">
<title>Node2</title>
<g id="a_node2"><a xlink:href="structgko_1_1enable__parameters__type.html" target="_top" xlink:title=" ">
<polygon fill="#ffffff" stroke="#000000" points="398.5,-148 398.5,-189 539.5,-189 539.5,-148 398.5,-148"/>
<text text-anchor="start" x="406.5" y="-177" font-family="Helvetica,sans-Serif" font-size="10.00" fill="#000000">gko::enable_parameters</text>
<text text-anchor="start" x="406.5" y="-166" font-family="Helvetica,sans-Serif" font-size="10.00" fill="#000000">_type&lt; parameters_type,</text>
<text text-anchor="middle" x="469" y="-155" font-family="Helvetica,sans-Serif" font-size="10.00" fill="#000000"> Factory &gt;</text>
</a>
</g>
</g>
<!-- Node2&#45;&gt;Node1 -->
<g id="edge1" class="edge">
<title>Node2&#45;&gt;Node1</title>
<path fill="none" stroke="#191970" d="M549.6638,-154.9192C597.9966,-146.0861 660.4547,-133.4447 715,-118.5 733.5231,-113.4249 753.6679,-106.6184 770.6208,-100.5054"/>
<polygon fill="#191970" stroke="#191970" points="548.7892,-151.5205 539.5725,-156.7457 550.036,-158.4086 548.7892,-151.5205"/>
</g>
<!-- Node3 -->
<g id="node3" class="node">
<title>Node3</title>
<g id="a_node3"><a xlink:href="structgko_1_1enable__parameters__type.html" target="_top" xlink:title="The enable_parameters_type mixin is used to create a base implementation of the factory parameters st...">
<polygon fill="#ffffff" stroke="#000000" points="0,-148 0,-189 179,-189 179,-148 0,-148"/>
<text text-anchor="start" x="8" y="-177" font-family="Helvetica,sans-Serif" font-size="10.00" fill="#000000">gko::enable_parameters</text>
<text text-anchor="start" x="8" y="-166" font-family="Helvetica,sans-Serif" font-size="10.00" fill="#000000">_type&lt; ConcreteParametersType,</text>
<text text-anchor="middle" x="89.5" y="-155" font-family="Helvetica,sans-Serif" font-size="10.00" fill="#000000"> Factory &gt;</text>
</a>
</g>
</g>
<!-- Node3&#45;&gt;Node2 -->
<g id="edge2" class="edge">
<title>Node3&#45;&gt;Node2</title>
<path fill="none" stroke="#ffa500" stroke-dasharray="5,2" d="M189.81,-168.5C255.4799,-168.5 339.6818,-168.5 398.3644,-168.5"/>
<polygon fill="#ffa500" stroke="#ffa500" points="189.4362,-165.0001 179.4362,-168.5 189.4362,-172.0001 189.4362,-165.0001"/>
<text text-anchor="start" x="224" y="-182.5" font-family="Helvetica,sans-Serif" font-size="10.00" fill="#000000"> &lt; parameters_type,</text>
<text text-anchor="middle" x="274.5" y="-171.5" font-family="Helvetica,sans-Serif" font-size="10.00" fill="#000000"> Factory &gt;</text>
</g>
<!-- Node4 -->
<g id="node4" class="node">
<title>Node4</title>
<g id="a_node4"><a xlink:title=" ">
<polygon fill="#ffffff" stroke="#bfbfbf" points="405.5,-98.5 405.5,-128.5 532.5,-128.5 532.5,-98.5 405.5,-98.5"/>
<text text-anchor="start" x="413.5" y="-116.5" font-family="Helvetica,sans-Serif" font-size="10.00" fill="#000000">std::shared_ptr&lt; const</text>
<text text-anchor="middle" x="469" y="-105.5" font-family="Helvetica,sans-Serif" font-size="10.00" fill="#000000"> gko::LinOpFactory &gt;</text>
</a>
</g>
</g>
<!-- Node4&#45;&gt;Node1 -->
<g id="edge3" class="edge">
<title>Node4&#45;&gt;Node1</title>
<path fill="none" stroke="#9a32cd" stroke-dasharray="5,2" d="M542.9631,-107.4268C599.0635,-102.8203 675.9611,-96.5061 732.8332,-91.8363"/>
<polygon fill="#9a32cd" stroke="#9a32cd" points="542.4195,-103.9596 532.7395,-108.2663 542.9924,-110.9361 542.4195,-103.9596"/>
<text text-anchor="middle" x="650.5" y="-106.5" font-family="Helvetica,sans-Serif" font-size="10.00" fill="#000000"> preconditioner</text>
</g>
<!-- Node5 -->
<g id="node5" class="node">
<title>Node5</title>
<g id="a_node5"><a xlink:title="STL class.">
<polygon fill="#ffffff" stroke="#bfbfbf" points="30.5,-80 30.5,-99 148.5,-99 148.5,-80 30.5,-80"/>
<text text-anchor="middle" x="89.5" y="-87" font-family="Helvetica,sans-Serif" font-size="10.00" fill="#000000">std::shared_ptr&lt; T &gt;</text>
</a>
</g>
</g>
<!-- Node5&#45;&gt;Node4 -->
<g id="edge4" class="edge">
<title>Node5&#45;&gt;Node4</title>
<path fill="none" stroke="#ffa500" stroke-dasharray="5,2" d="M158.894,-93.8886C229.2409,-98.3374 337.1717,-105.163 405.3733,-109.4762"/>
<polygon fill="#ffa500" stroke="#ffa500" points="158.9979,-90.3882 148.7969,-93.25 158.556,-97.3743 158.9979,-90.3882"/>
<text text-anchor="middle" x="274.5" y="-108.5" font-family="Helvetica,sans-Serif" font-size="10.00" fill="#000000"> &lt; const gko::LinOpFactory &gt;</text>
</g>
<!-- Node8 -->
<g id="node8" class="node">
<title>Node8</title>
<g id="a_node8"><a xlink:title=" ">
<polygon fill="#ffffff" stroke="#bfbfbf" points="405.5,-49.5 405.5,-79.5 532.5,-79.5 532.5,-49.5 405.5,-49.5"/>
<text text-anchor="start" x="413.5" y="-67.5" font-family="Helvetica,sans-Serif" font-size="10.00" fill="#000000">std::shared_ptr&lt; const</text>
<text text-anchor="middle" x="469" y="-56.5" font-family="Helvetica,sans-Serif" font-size="10.00" fill="#000000"> gko::LinOp &gt;</text>
</a>
</g>
</g>
<!-- Node5&#45;&gt;Node8 -->
<g id="edge8" class="edge">
<title>Node5&#45;&gt;Node8</title>
<path fill="none" stroke="#ffa500" stroke-dasharray="5,2" d="M158.7225,-84.227C171.4511,-83.292 184.6246,-82.3472 197,-81.5 268.2779,-76.6205 350.1032,-71.5828 405.2346,-68.2711"/>
<polygon fill="#ffa500" stroke="#ffa500" points="158.3483,-80.745 148.6336,-84.9727 158.8644,-87.726 158.3483,-80.745"/>
<text text-anchor="middle" x="274.5" y="-84.5" font-family="Helvetica,sans-Serif" font-size="10.00" fill="#000000"> &lt; const gko::LinOp &gt;</text>
</g>
<!-- Node6 -->
<g id="node6" class="node">
<title>Node6</title>
<g id="a_node6"><a xlink:title=" ">
<polygon fill="#ffffff" stroke="#bfbfbf" points="370,-.5 370,-30.5 568,-30.5 568,-.5 370,-.5"/>
<text text-anchor="start" x="378" y="-18.5" font-family="Helvetica,sans-Serif" font-size="10.00" fill="#000000">std::vector&lt; std::shared</text>
<text text-anchor="middle" x="469" y="-7.5" font-family="Helvetica,sans-Serif" font-size="10.00" fill="#000000">_ptr&lt; const gko::AbstractFactory &gt; &gt;</text>
</a>
</g>
</g>
<!-- Node6&#45;&gt;Node1 -->
<g id="edge5" class="edge">
<title>Node6&#45;&gt;Node1</title>
<path fill="none" stroke="#9a32cd" stroke-dasharray="5,2" d="M578.1343,-28.2586C621.1117,-34.3471 670.6926,-42.7003 715,-53.5 733.4303,-57.9923 753.3886,-64.4604 770.2324,-70.4074"/>
<polygon fill="#9a32cd" stroke="#9a32cd" points="578.6042,-24.7903 568.2169,-26.8769 577.6383,-31.7234 578.6042,-24.7903"/>
<text text-anchor="middle" x="650.5" y="-56.5" font-family="Helvetica,sans-Serif" font-size="10.00" fill="#000000"> criteria</text>
</g>
<!-- Node7 -->
<g id="node7" class="node">
<title>Node7</title>
<g id="a_node7"><a xlink:title="STL class.">
<polygon fill="#ffffff" stroke="#bfbfbf" points="41,-6 41,-25 138,-25 138,-6 41,-6"/>
<text text-anchor="middle" x="89.5" y="-13" font-family="Helvetica,sans-Serif" font-size="10.00" fill="#000000">std::vector&lt; T &gt;</text>
</a>
</g>
</g>
<!-- Node7&#45;&gt;Node6 -->
<g id="edge6" class="edge">
<title>Node7&#45;&gt;Node6</title>
<path fill="none" stroke="#ffa500" stroke-dasharray="5,2" d="M148.6138,-15.5C207.7109,-15.5 299.6605,-15.5 369.9239,-15.5"/>
<polygon fill="#ffa500" stroke="#ffa500" points="148.3361,-12.0001 138.3361,-15.5 148.336,-19.0001 148.3361,-12.0001"/>
<text text-anchor="start" x="197" y="-29.5" font-family="Helvetica,sans-Serif" font-size="10.00" fill="#000000"> &lt; std::shared_ptr&lt;</text>
<text text-anchor="middle" x="274.5" y="-18.5" font-family="Helvetica,sans-Serif" font-size="10.00" fill="#000000"> const gko::AbstractFactory &gt; &gt;</text>
</g>
<!-- Node8&#45;&gt;Node1 -->
<g id="edge7" class="edge">
<title>Node8&#45;&gt;Node1</title>
<path fill="none" stroke="#9a32cd" stroke-dasharray="5,2" d="M542.6765,-67.2136C591.5767,-69.2314 657.1653,-72.352 715,-76.5 720.7836,-76.9148 726.7614,-77.3844 732.7723,-77.8861"/>
<polygon fill="#9a32cd" stroke="#9a32cd" points="542.6379,-63.7093 532.5039,-66.7998 542.3533,-70.7035 542.6379,-63.7093"/>
<text text-anchor="middle" x="650.5" y="-79.5" font-family="Helvetica,sans-Serif" font-size="10.00" fill="#000000"> generated_preconditioner</text>
</g>
</g>
</svg>
