<?xml version="1.0" encoding="UTF-8" standalone="no"?>
<!DOCTYPE svg PUBLIC "-//W3C//DTD SVG 1.1//EN"
 "http://www.w3.org/Graphics/SVG/1.1/DTD/svg11.dtd">
<!-- Generated by graphviz version 2.40.1 (20161225.0304)
 -->
<!-- Title: gko::LinOpFactory Pages: 1 -->
<svg width="1825pt" height="144pt"
 viewBox="0.00 0.00 1825.00 144.28" xmlns="http://www.w3.org/2000/svg" xmlns:xlink="http://www.w3.org/1999/xlink">
<g id="graph0" class="graph" transform="scale(1 1) rotate(0) translate(4 140.2847)">
<title>gko::LinOpFactory</title>
<polygon fill="#ffffff" stroke="transparent" points="-4,4 -4,-140.2847 1821,-140.2847 1821,4 -4,4"/>
<!-- Node1 -->
<g id="node1" class="node">
<title>Node1</title>
<g id="a_node1"><a xlink:title="A LinOpFactory represents a higher order mapping which transforms one linear operator into another.">
<polygon fill="#bfbfbf" stroke="#000000" points="1713,-64.2847 1713,-83.2847 1817,-83.2847 1817,-64.2847 1713,-64.2847"/>
<text text-anchor="middle" x="1765" y="-71.2847" font-family="Helvetica,sans-Serif" font-size="10.00" fill="#000000">gko::LinOpFactory</text>
</a>
</g>
</g>
<!-- Node2 -->
<g id="node2" class="node">
<title>Node2</title>
<g id="a_node2"><a xlink:title=" ">
<polygon fill="#ffffff" stroke="#bfbfbf" points="1550,-53.2847 1550,-94.2847 1676,-94.2847 1676,-53.2847 1550,-53.2847"/>
<text text-anchor="start" x="1558" y="-82.2847" font-family="Helvetica,sans-Serif" font-size="10.00" fill="#000000">gko::AbstractFactory</text>
<text text-anchor="start" x="1558" y="-71.2847" font-family="Helvetica,sans-Serif" font-size="10.00" fill="#000000">&lt; LinOp, std::shared</text>
<text text-anchor="middle" x="1613" y="-60.2847" font-family="Helvetica,sans-Serif" font-size="10.00" fill="#000000">_ptr&lt; const LinOp &gt; &gt;</text>
</a>
</g>
</g>
<!-- Node2&#45;&gt;Node1 -->
<g id="edge1" class="edge">
<title>Node2&#45;&gt;Node1</title>
<path fill="none" stroke="#191970" d="M1686.2534,-73.7847C1695.2531,-73.7847 1704.3043,-73.7847 1712.9012,-73.7847"/>
<polygon fill="#191970" stroke="#191970" points="1686.1412,-70.2848 1676.1412,-73.7847 1686.1411,-77.2848 1686.1412,-70.2848"/>
</g>
<!-- Node3 -->
<g id="node3" class="node">
<title>Node3</title>
<g id="a_node3"><a xlink:title=" ">
<polygon fill="#ffffff" stroke="#bfbfbf" points="1032.5,-75.7847 1032.5,-127.7847 1207.5,-127.7847 1207.5,-75.7847 1032.5,-75.7847"/>
<text text-anchor="start" x="1040.5" y="-115.7847" font-family="Helvetica,sans-Serif" font-size="10.00" fill="#000000">gko::EnableAbstractPolymorphic</text>
<text text-anchor="start" x="1040.5" y="-104.7847" font-family="Helvetica,sans-Serif" font-size="10.00" fill="#000000">Object&lt; AbstractFactory&lt;</text>
<text text-anchor="start" x="1040.5" y="-93.7847" font-family="Helvetica,sans-Serif" font-size="10.00" fill="#000000"> LinOp, std::shared_ptr&lt; const</text>
<text text-anchor="middle" x="1120" y="-82.7847" font-family="Helvetica,sans-Serif" font-size="10.00" fill="#000000"> LinOp &gt; &gt; &gt;</text>
</a>
</g>
</g>
<!-- Node3&#45;&gt;Node2 -->
<g id="edge2" class="edge">
<title>Node3&#45;&gt;Node2</title>
<path fill="none" stroke="#191970" d="M1218.0055,-100.3233C1301.5856,-98.4593 1424.8668,-94.2485 1532,-84.7847 1537.796,-84.2727 1543.8131,-83.6425 1549.8318,-82.9452"/>
<polygon fill="#191970" stroke="#191970" points="1217.6807,-96.8294 1207.7586,-100.5445 1217.8318,-103.8278 1217.6807,-96.8294"/>
</g>
<!-- Node4 -->
<g id="node4" class="node">
<title>Node4</title>
<g id="a_node4"><a xlink:href="classgko_1_1PolymorphicObject.html" target="_top" xlink:title="A PolymorphicObject is the abstract base for all &quot;heavy&quot; objects in Ginkgo that behave polymorphicall...">
<polygon fill="#ffffff" stroke="#000000" points="681.5,-111.2847 681.5,-130.2847 814.5,-130.2847 814.5,-111.2847 681.5,-111.2847"/>
<text text-anchor="middle" x="748" y="-118.2847" font-family="Helvetica,sans-Serif" font-size="10.00" fill="#000000">gko::PolymorphicObject</text>
</a>
</g>
</g>
<!-- Node4&#45;&gt;Node3 -->
<g id="edge3" class="edge">
<title>Node4&#45;&gt;Node3</title>
<path fill="none" stroke="#191970" d="M824.5544,-122.9719C871.2577,-123.683 932.1384,-123.4998 986,-119.7847 1000.987,-118.751 1016.8555,-117.1091 1032.2281,-115.2278"/>
<polygon fill="#191970" stroke="#191970" points="824.569,-119.4717 814.5112,-122.8019 824.4505,-126.4707 824.569,-119.4717"/>
</g>
<!-- Node11 -->
<g id="node11" class="node">
<title>Node11</title>
<g id="a_node11"><a xlink:href="classgko_1_1EnableAbstractPolymorphicObject.html" target="_top" xlink:title=" ">
<polygon fill="#ffffff" stroke="#000000" points="1004,-15.2847 1004,-56.2847 1236,-56.2847 1236,-15.2847 1004,-15.2847"/>
<text text-anchor="start" x="1012" y="-44.2847" font-family="Helvetica,sans-Serif" font-size="10.00" fill="#000000">gko::EnableAbstractPolymorphic</text>
<text text-anchor="start" x="1012" y="-33.2847" font-family="Helvetica,sans-Serif" font-size="10.00" fill="#000000">Object&lt; AbstractFactory&lt;</text>
<text text-anchor="middle" x="1120" y="-22.2847" font-family="Helvetica,sans-Serif" font-size="10.00" fill="#000000"> AbstractProductType, ComponentsType &gt; &gt;</text>
</a>
</g>
</g>
<!-- Node4&#45;&gt;Node11 -->
<g id="edge12" class="edge">
<title>Node4&#45;&gt;Node11</title>
<path fill="none" stroke="#191970" d="M824.6623,-119.5885C883.8294,-117.359 959.8592,-111.2487 986,-94.7847 998.8361,-86.7003 991.7799,-74.7732 1004,-65.7847 1008.8594,-62.2103 1014.1065,-59.0608 1019.591,-56.2857"/>
<polygon fill="#191970" stroke="#191970" points="824.4487,-116.0937 814.5759,-119.9377 824.691,-123.0895 824.4487,-116.0937"/>
</g>
<!-- Node5 -->
<g id="node5" class="node">
<title>Node5</title>
<g id="a_node5"><a xlink:href="classgko_1_1log_1_1EnableLogging.html" target="_top" xlink:title=" ">
<polygon fill="#ffffff" stroke="#000000" points="479,-105.7847 479,-135.7847 612,-135.7847 612,-105.7847 479,-105.7847"/>
<text text-anchor="start" x="487" y="-123.7847" font-family="Helvetica,sans-Serif" font-size="10.00" fill="#000000">gko::log::EnableLogging</text>
<text text-anchor="middle" x="545.5" y="-112.7847" font-family="Helvetica,sans-Serif" font-size="10.00" fill="#000000">&lt; PolymorphicObject &gt;</text>
</a>
</g>
</g>
<!-- Node5&#45;&gt;Node4 -->
<g id="edge4" class="edge">
<title>Node5&#45;&gt;Node4</title>
<path fill="none" stroke="#191970" d="M622.1452,-120.7847C641.6376,-120.7847 662.4252,-120.7847 681.3734,-120.7847"/>
<polygon fill="#191970" stroke="#191970" points="622.0866,-117.2848 612.0865,-120.7847 622.0865,-124.2848 622.0866,-117.2848"/>
</g>
<!-- Node6 -->
<g id="node6" class="node">
<title>Node6</title>
<g id="a_node6"><a xlink:href="classgko_1_1log_1_1Loggable.html" target="_top" xlink:title="Loggable class is an interface which should be implemented by classes wanting to support logging.">
<polygon fill="#ffffff" stroke="#000000" points="0,-104.2847 0,-123.2847 106,-123.2847 106,-104.2847 0,-104.2847"/>
<text text-anchor="middle" x="53" y="-111.2847" font-family="Helvetica,sans-Serif" font-size="10.00" fill="#000000">gko::log::Loggable</text>
</a>
</g>
</g>
<!-- Node6&#45;&gt;Node5 -->
<g id="edge5" class="edge">
<title>Node6&#45;&gt;Node5</title>
<path fill="none" stroke="#191970" d="M116.2992,-118.4488C125.259,-118.9795 134.3594,-119.4494 143,-119.7847 284.2445,-125.2662 319.6887,-128.1275 461,-124.7847 466.7262,-124.6492 472.6688,-124.4622 478.629,-124.2425"/>
<polygon fill="#191970" stroke="#191970" points="116.4724,-114.953 106.275,-117.8277 116.0394,-121.9396 116.4724,-114.953"/>
</g>
<!-- Node7 -->
<g id="node7" class="node">
<title>Node7</title>
<g id="a_node7"><a xlink:href="classgko_1_1log_1_1EnableLogging.html" target="_top" xlink:title="EnableLogging is a mixin which should be inherited by any class which wants to enable logging.">
<polygon fill="#ffffff" stroke="#000000" points="143,-69.2847 143,-110.2847 325,-110.2847 325,-69.2847 143,-69.2847"/>
<text text-anchor="start" x="151" y="-98.2847" font-family="Helvetica,sans-Serif" font-size="10.00" fill="#000000">gko::log::EnableLogging</text>
<text text-anchor="start" x="151" y="-87.2847" font-family="Helvetica,sans-Serif" font-size="10.00" fill="#000000">&lt; ConcreteLoggable, Polymorphic</text>
<text text-anchor="middle" x="234" y="-76.2847" font-family="Helvetica,sans-Serif" font-size="10.00" fill="#000000">Base &gt;</text>
</a>
</g>
</g>
<!-- Node6&#45;&gt;Node7 -->
<g id="edge7" class="edge">
<title>Node6&#45;&gt;Node7</title>
<path fill="none" stroke="#191970" d="M116.4931,-105.3657C124.9883,-104.2393 133.833,-103.0665 142.688,-101.8924"/>
<polygon fill="#191970" stroke="#191970" points="115.7801,-101.9295 106.327,-106.7137 116.7003,-108.8688 115.7801,-101.9295"/>
</g>
<!-- Node7&#45;&gt;Node5 -->
<g id="edge6" class="edge">
<title>Node7&#45;&gt;Node5</title>
<path fill="none" stroke="#ffa500" stroke-dasharray="5,2" d="M335.5808,-99.8939C382.6219,-104.5753 437.1938,-110.0062 478.9039,-114.1571"/>
<polygon fill="#ffa500" stroke="#ffa500" points="335.653,-96.3838 325.3555,-98.8763 334.9597,-103.3494 335.653,-96.3838"/>
<text text-anchor="middle" x="402" y="-114.7847" font-family="Helvetica,sans-Serif" font-size="10.00" fill="#000000"> &lt; PolymorphicObject &gt;</text>
</g>
<!-- Node8 -->
<g id="node8" class="node">
<title>Node8</title>
<g id="a_node8"><a xlink:href="classgko_1_1EnableAbstractPolymorphicObject.html" target="_top" xlink:title="This mixin inherits from (a subclass of) PolymorphicObject and provides a base implementation of a ne...">
<polygon fill="#ffffff" stroke="#000000" points="649,-24.2847 649,-65.2847 847,-65.2847 847,-24.2847 649,-24.2847"/>
<text text-anchor="start" x="657" y="-53.2847" font-family="Helvetica,sans-Serif" font-size="10.00" fill="#000000">gko::EnableAbstractPolymorphic</text>
<text text-anchor="start" x="657" y="-42.2847" font-family="Helvetica,sans-Serif" font-size="10.00" fill="#000000">Object&lt; AbstractObject, Polymorphic</text>
<text text-anchor="middle" x="748" y="-31.2847" font-family="Helvetica,sans-Serif" font-size="10.00" fill="#000000">Base &gt;</text>
</a>
</g>
</g>
<!-- Node8&#45;&gt;Node3 -->
<g id="edge8" class="edge">
<title>Node8&#45;&gt;Node3</title>
<path fill="none" stroke="#ffa500" stroke-dasharray="5,2" d="M857.1346,-61.5069C912.991,-70.0656 980.0698,-80.3438 1032.485,-88.3751"/>
<polygon fill="#ffa500" stroke="#ffa500" points="857.6153,-58.0398 847.2005,-59.9848 856.555,-64.9591 857.6153,-58.0398"/>
<text text-anchor="start" x="865" y="-105.7847" font-family="Helvetica,sans-Serif" font-size="10.00" fill="#000000"> &lt; AbstractFactory&lt;</text>
<text text-anchor="start" x="865" y="-94.7847" font-family="Helvetica,sans-Serif" font-size="10.00" fill="#000000"> LinOp, std::shared</text>
<text text-anchor="middle" x="925.5" y="-83.7847" font-family="Helvetica,sans-Serif" font-size="10.00" fill="#000000">_ptr&lt; const LinOp &gt; &gt; &gt;</text>
</g>
<!-- Node8&#45;&gt;Node11 -->
<g id="edge13" class="edge">
<title>Node8&#45;&gt;Node11</title>
<path fill="none" stroke="#ffa500" stroke-dasharray="5,2" d="M807.3707,-20.8931C825.5585,-14.6973 845.8309,-8.8954 865,-5.7847 918.0834,2.8296 932.548,.1256 986,-5.7847 1004.2454,-7.8021 1023.638,-11.32 1041.837,-15.2533"/>
<polygon fill="#ffa500" stroke="#ffa500" points="806.0609,-17.6434 797.7849,-24.2585 808.3797,-24.2482 806.0609,-17.6434"/>
<text text-anchor="start" x="870.5" y="-30.7847" font-family="Helvetica,sans-Serif" font-size="10.00" fill="#000000"> &lt; AbstractFactory&lt;</text>
<text text-anchor="start" x="870.5" y="-19.7847" font-family="Helvetica,sans-Serif" font-size="10.00" fill="#000000"> AbstractProductType,</text>
<text text-anchor="middle" x="925.5" y="-8.7847" font-family="Helvetica,sans-Serif" font-size="10.00" fill="#000000"> ComponentsType &gt; &gt;</text>
</g>
<!-- Node9 -->
<g id="node9" class="node">
<title>Node9</title>
<g id="a_node9"><a xlink:title=" ">
<polygon fill="#ffffff" stroke="#bfbfbf" points="495,-35.2847 495,-54.2847 596,-54.2847 596,-35.2847 495,-35.2847"/>
<text text-anchor="middle" x="545.5" y="-42.2847" font-family="Helvetica,sans-Serif" font-size="10.00" fill="#000000">PolymorphicBase</text>
</a>
</g>
</g>
<!-- Node9&#45;&gt;Node8 -->
<g id="edge9" class="edge">
<title>Node9&#45;&gt;Node8</title>
<path fill="none" stroke="#191970" d="M606.1202,-44.7847C619.5722,-44.7847 634.1713,-44.7847 648.7162,-44.7847"/>
<polygon fill="#191970" stroke="#191970" points="606.077,-41.2848 596.0769,-44.7847 606.0769,-48.2848 606.077,-41.2848"/>
</g>
<!-- Node10 -->
<g id="node10" class="node">
<title>Node10</title>
<g id="a_node10"><a xlink:href="classgko_1_1AbstractFactory.html" target="_top" xlink:title="The AbstractFactory is a generic interface template that enables easy implementation of the abstract ...">
<polygon fill="#ffffff" stroke="#000000" points="1273,-27.2847 1273,-68.2847 1404,-68.2847 1404,-27.2847 1273,-27.2847"/>
<text text-anchor="start" x="1281" y="-56.2847" font-family="Helvetica,sans-Serif" font-size="10.00" fill="#000000">gko::AbstractFactory</text>
<text text-anchor="start" x="1281" y="-45.2847" font-family="Helvetica,sans-Serif" font-size="10.00" fill="#000000">&lt; AbstractProductType,</text>
<text text-anchor="middle" x="1338.5" y="-34.2847" font-family="Helvetica,sans-Serif" font-size="10.00" fill="#000000"> ComponentsType &gt;</text>
</a>
</g>
</g>
<!-- Node10&#45;&gt;Node2 -->
<g id="edge10" class="edge">
<title>Node10&#45;&gt;Node2</title>
<path fill="none" stroke="#ffa500" stroke-dasharray="5,2" d="M1414.7475,-52.6774C1450.4077,-55.2264 1493.4243,-58.6736 1532,-62.7847 1537.7858,-63.4013 1543.796,-64.1025 1549.8103,-64.8455"/>
<polygon fill="#ffa500" stroke="#ffa500" points="1414.6349,-49.1608 1404.4135,-51.949 1414.1427,-56.1435 1414.6349,-49.1608"/>
<text text-anchor="start" x="1422" y="-76.7847" font-family="Helvetica,sans-Serif" font-size="10.00" fill="#000000"> &lt; LinOp, std::shared</text>
<text text-anchor="middle" x="1477" y="-65.7847" font-family="Helvetica,sans-Serif" font-size="10.00" fill="#000000">_ptr&lt; const LinOp &gt; &gt;</text>
</g>
<!-- Node11&#45;&gt;Node10 -->
<g id="edge11" class="edge">
<title>Node11&#45;&gt;Node10</title>
<path fill="none" stroke="#191970" d="M1246.529,-42.7337C1255.5516,-43.2292 1264.413,-43.7158 1272.8583,-44.1797"/>
<polygon fill="#191970" stroke="#191970" points="1246.4641,-39.2249 1236.2872,-42.1712 1246.0802,-46.2144 1246.4641,-39.2249"/>
</g>
</g>
</svg>
