<?xml version="1.0" encoding="UTF-8" standalone="no"?>
<!DOCTYPE svg PUBLIC "-//W3C//DTD SVG 1.1//EN"
 "http://www.w3.org/Graphics/SVG/1.1/DTD/svg11.dtd">
<!-- Generated by graphviz version 2.40.1 (20161225.0304)
 -->
<!-- Title: Graphical Class Hierarchy Pages: 1 -->
<svg width="885pt" height="198pt"
 viewBox="0.00 0.00 885.00 198.00" xmlns="http://www.w3.org/2000/svg" xmlns:xlink="http://www.w3.org/1999/xlink">
<g id="graph0" class="graph" transform="scale(1 1) rotate(0) translate(4 194)">
<title>Graphical Class Hierarchy</title>
<polygon fill="#ffffff" stroke="transparent" points="-4,4 -4,-194 881,-194 881,4 -4,4"/>
<!-- Node339 -->
<g id="node1" class="node">
<title>Node339</title>
<g id="a_node1"><a xlink:title=" ">
<polygon fill="#ffffff" stroke="#bfbfbf" points="0,-88 0,-107 59,-107 59,-88 0,-88"/>
<text text-anchor="middle" x="29.5" y="-95" font-family="Helvetica,sans-Serif" font-size="10.00" fill="#000000">Criterion</text>
</a>
</g>
</g>
<!-- Node0 -->
<g id="node2" class="node">
<title>Node0</title>
<g id="a_node2"><a xlink:href="classgko_1_1EnableAbstractPolymorphicObject.html" target="_top" xlink:title=" ">
<polygon fill="#ffffff" stroke="#000000" points="101.5,-159.5 101.5,-189.5 276.5,-189.5 276.5,-159.5 101.5,-159.5"/>
<text text-anchor="start" x="109.5" y="-177.5" font-family="Helvetica,sans-Serif" font-size="10.00" fill="#000000">gko::EnableAbstractPolymorphic</text>
<text text-anchor="middle" x="189" y="-166.5" font-family="Helvetica,sans-Serif" font-size="10.00" fill="#000000">Object&lt; Combined, Criterion &gt;</text>
</a>
</g>
</g>
<!-- Node339&#45;&gt;Node0 -->
<g id="edge1" class="edge">
<title>Node339&#45;&gt;Node0</title>
<path fill="none" stroke="#191970" d="M46.0932,-114.3526C58.5441,-126.0899 76.5536,-141.2424 95,-150.5 101.7741,-153.8997 109.0712,-156.8458 116.4981,-159.3926"/>
<polygon fill="#191970" stroke="#191970" points="48.3752,-111.6897 38.7651,-107.2289 43.4959,-116.709 48.3752,-111.6897"/>
</g>
<!-- Node343 -->
<g id="node5" class="node">
<title>Node343</title>
<g id="a_node5"><a xlink:href="classgko_1_1EnableAbstractPolymorphicObject.html" target="_top" xlink:title=" ">
<polygon fill="#ffffff" stroke="#000000" points="101.5,-110.5 101.5,-140.5 276.5,-140.5 276.5,-110.5 101.5,-110.5"/>
<text text-anchor="start" x="109.5" y="-128.5" font-family="Helvetica,sans-Serif" font-size="10.00" fill="#000000">gko::EnableAbstractPolymorphic</text>
<text text-anchor="middle" x="189" y="-117.5" font-family="Helvetica,sans-Serif" font-size="10.00" fill="#000000">Object&lt; Iteration, Criterion &gt;</text>
</a>
</g>
</g>
<!-- Node339&#45;&gt;Node343 -->
<g id="edge4" class="edge">
<title>Node339&#45;&gt;Node343</title>
<path fill="none" stroke="#191970" d="M69.1493,-104.4604C79.6275,-106.2998 91.3541,-108.3584 103.2597,-110.4484"/>
<polygon fill="#191970" stroke="#191970" points="69.5815,-100.9828 59.1269,-102.701 68.3711,-107.8774 69.5815,-100.9828"/>
</g>
<!-- Node346 -->
<g id="node8" class="node">
<title>Node346</title>
<g id="a_node8"><a xlink:href="classgko_1_1EnableAbstractPolymorphicObject.html" target="_top" xlink:title=" ">
<polygon fill="#ffffff" stroke="#000000" points="95,-50 95,-91 283,-91 283,-50 95,-50"/>
<text text-anchor="start" x="103" y="-79" font-family="Helvetica,sans-Serif" font-size="10.00" fill="#000000">gko::EnableAbstractPolymorphic</text>
<text text-anchor="start" x="103" y="-68" font-family="Helvetica,sans-Serif" font-size="10.00" fill="#000000">Object&lt; ResidualNorm&lt; ValueType</text>
<text text-anchor="middle" x="189" y="-57" font-family="Helvetica,sans-Serif" font-size="10.00" fill="#000000"> &gt;, Criterion &gt;</text>
</a>
</g>
</g>
<!-- Node339&#45;&gt;Node346 -->
<g id="edge7" class="edge">
<title>Node339&#45;&gt;Node346</title>
<path fill="none" stroke="#191970" d="M69.1772,-90.7835C77.1706,-89.4304 85.8898,-87.9544 94.8601,-86.4359"/>
<polygon fill="#191970" stroke="#191970" points="68.4025,-87.3648 59.1269,-92.4848 69.5709,-94.2666 68.4025,-87.3648"/>
</g>
<!-- Node352 -->
<g id="node14" class="node">
<title>Node352</title>
<g id="a_node14"><a xlink:href="classgko_1_1EnableAbstractPolymorphicObject.html" target="_top" xlink:title=" ">
<polygon fill="#ffffff" stroke="#000000" points="101.5,-.5 101.5,-30.5 276.5,-30.5 276.5,-.5 101.5,-.5"/>
<text text-anchor="start" x="109.5" y="-18.5" font-family="Helvetica,sans-Serif" font-size="10.00" fill="#000000">gko::EnableAbstractPolymorphic</text>
<text text-anchor="middle" x="189" y="-7.5" font-family="Helvetica,sans-Serif" font-size="10.00" fill="#000000">Object&lt; Time, Criterion &gt;</text>
</a>
</g>
</g>
<!-- Node339&#45;&gt;Node352 -->
<g id="edge13" class="edge">
<title>Node339&#45;&gt;Node352</title>
<path fill="none" stroke="#191970" d="M44.6836,-80.6224C57.0536,-67.8495 75.5939,-50.8019 95,-40.5 102.1594,-36.6994 109.9387,-33.4451 117.8537,-30.6658"/>
<polygon fill="#191970" stroke="#191970" points="42.1206,-78.2388 37.8263,-87.9243 47.2233,-83.0307 42.1206,-78.2388"/>
</g>
<!-- Node1 -->
<g id="node3" class="node">
<title>Node1</title>
<g id="a_node3"><a xlink:href="classgko_1_1EnablePolymorphicObject.html" target="_top" xlink:title=" ">
<polygon fill="#ffffff" stroke="#000000" points="319,-159.5 319,-189.5 485,-189.5 485,-159.5 319,-159.5"/>
<text text-anchor="start" x="327" y="-177.5" font-family="Helvetica,sans-Serif" font-size="10.00" fill="#000000">gko::EnablePolymorphicObject</text>
<text text-anchor="middle" x="402" y="-166.5" font-family="Helvetica,sans-Serif" font-size="10.00" fill="#000000">&lt; Combined, Criterion &gt;</text>
</a>
</g>
</g>
<!-- Node0&#45;&gt;Node1 -->
<g id="edge2" class="edge">
<title>Node0&#45;&gt;Node1</title>
<path fill="none" stroke="#191970" d="M286.7933,-174.5C297.5223,-174.5 308.37,-174.5 318.8969,-174.5"/>
<polygon fill="#191970" stroke="#191970" points="286.5574,-171.0001 276.5573,-174.5 286.5573,-178.0001 286.5574,-171.0001"/>
</g>
<!-- Node2 -->
<g id="node4" class="node">
<title>Node2</title>
<g id="a_node4"><a xlink:href="classgko_1_1stop_1_1Combined.html" target="_top" xlink:title="The Combined class is used to combine multiple criterions together through an OR operation.">
<polygon fill="#ffffff" stroke="#000000" points="530.5,-165 530.5,-184 647.5,-184 647.5,-165 530.5,-165"/>
<text text-anchor="middle" x="589" y="-172" font-family="Helvetica,sans-Serif" font-size="10.00" fill="#000000">gko::stop::Combined</text>
</a>
</g>
</g>
<!-- Node1&#45;&gt;Node2 -->
<g id="edge3" class="edge">
<title>Node1&#45;&gt;Node2</title>
<path fill="none" stroke="#191970" d="M495.1323,-174.5C507.0864,-174.5 519.0485,-174.5 530.237,-174.5"/>
<polygon fill="#191970" stroke="#191970" points="495.11,-171.0001 485.1099,-174.5 495.1099,-178.0001 495.11,-171.0001"/>
</g>
<!-- Node344 -->
<g id="node6" class="node">
<title>Node344</title>
<g id="a_node6"><a xlink:href="classgko_1_1EnablePolymorphicObject.html" target="_top" xlink:title=" ">
<polygon fill="#ffffff" stroke="#000000" points="319,-110.5 319,-140.5 485,-140.5 485,-110.5 319,-110.5"/>
<text text-anchor="start" x="327" y="-128.5" font-family="Helvetica,sans-Serif" font-size="10.00" fill="#000000">gko::EnablePolymorphicObject</text>
<text text-anchor="middle" x="402" y="-117.5" font-family="Helvetica,sans-Serif" font-size="10.00" fill="#000000">&lt; Iteration, Criterion &gt;</text>
</a>
</g>
</g>
<!-- Node343&#45;&gt;Node344 -->
<g id="edge5" class="edge">
<title>Node343&#45;&gt;Node344</title>
<path fill="none" stroke="#191970" d="M286.7933,-125.5C297.5223,-125.5 308.37,-125.5 318.8969,-125.5"/>
<polygon fill="#191970" stroke="#191970" points="286.5574,-122.0001 276.5573,-125.5 286.5573,-129.0001 286.5574,-122.0001"/>
</g>
<!-- Node345 -->
<g id="node7" class="node">
<title>Node345</title>
<g id="a_node7"><a xlink:href="classgko_1_1stop_1_1Iteration.html" target="_top" xlink:title="The Iteration class is a stopping criterion which stops the iteration process after a preset number o...">
<polygon fill="#ffffff" stroke="#000000" points="534.5,-116 534.5,-135 643.5,-135 643.5,-116 534.5,-116"/>
<text text-anchor="middle" x="589" y="-123" font-family="Helvetica,sans-Serif" font-size="10.00" fill="#000000">gko::stop::Iteration</text>
</a>
</g>
</g>
<!-- Node344&#45;&gt;Node345 -->
<g id="edge6" class="edge">
<title>Node344&#45;&gt;Node345</title>
<path fill="none" stroke="#191970" d="M495.3116,-125.5C508.6773,-125.5 522.048,-125.5 534.3315,-125.5"/>
<polygon fill="#191970" stroke="#191970" points="495.11,-122.0001 485.1099,-125.5 495.1099,-129.0001 495.11,-122.0001"/>
</g>
<!-- Node347 -->
<g id="node9" class="node">
<title>Node347</title>
<g id="a_node9"><a xlink:href="classgko_1_1EnablePolymorphicObject.html" target="_top" xlink:title=" ">
<polygon fill="#ffffff" stroke="#000000" points="319,-50 319,-91 485,-91 485,-50 319,-50"/>
<text text-anchor="start" x="327" y="-79" font-family="Helvetica,sans-Serif" font-size="10.00" fill="#000000">gko::EnablePolymorphicObject</text>
<text text-anchor="start" x="327" y="-68" font-family="Helvetica,sans-Serif" font-size="10.00" fill="#000000">&lt; ResidualNorm&lt; ValueType</text>
<text text-anchor="middle" x="402" y="-57" font-family="Helvetica,sans-Serif" font-size="10.00" fill="#000000"> &gt;, Criterion &gt;</text>
</a>
</g>
</g>
<!-- Node346&#45;&gt;Node347 -->
<g id="edge8" class="edge">
<title>Node346&#45;&gt;Node347</title>
<path fill="none" stroke="#191970" d="M293.1429,-70.5C301.7644,-70.5 310.4066,-70.5 318.8432,-70.5"/>
<polygon fill="#191970" stroke="#191970" points="293.045,-67.0001 283.0449,-70.5 293.0449,-74.0001 293.045,-67.0001"/>
</g>
<!-- Node348 -->
<g id="node10" class="node">
<title>Node348</title>
<g id="a_node10"><a xlink:href="classgko_1_1stop_1_1ResidualNorm.html" target="_top" xlink:title="The ResidualNorm class provides a framework for stopping criteria related to the residual norm.">
<polygon fill="#ffffff" stroke="#000000" points="521,-55.5 521,-85.5 657,-85.5 657,-55.5 521,-55.5"/>
<text text-anchor="start" x="529" y="-73.5" font-family="Helvetica,sans-Serif" font-size="10.00" fill="#000000">gko::stop::ResidualNorm</text>
<text text-anchor="middle" x="589" y="-62.5" font-family="Helvetica,sans-Serif" font-size="10.00" fill="#000000">&lt; ValueType &gt;</text>
</a>
</g>
</g>
<!-- Node347&#45;&gt;Node348 -->
<g id="edge9" class="edge">
<title>Node347&#45;&gt;Node348</title>
<path fill="none" stroke="#191970" d="M495.2702,-70.5C503.9416,-70.5 512.6156,-70.5 520.9938,-70.5"/>
<polygon fill="#191970" stroke="#191970" points="495.11,-67.0001 485.1099,-70.5 495.1099,-74.0001 495.11,-67.0001"/>
</g>
<!-- Node349 -->
<g id="node11" class="node">
<title>Node349</title>
<g id="a_node11"><a xlink:href="classgko_1_1stop_1_1AbsoluteResidualNorm.html" target="_top" xlink:title="The AbsoluteResidualNorm class is a stopping criterion which stops the iteration process when the res...">
<polygon fill="#ffffff" stroke="#000000" points="709,-104.5 709,-134.5 861,-134.5 861,-104.5 709,-104.5"/>
<text text-anchor="start" x="717" y="-122.5" font-family="Helvetica,sans-Serif" font-size="10.00" fill="#000000">gko::stop::AbsoluteResidual</text>
<text text-anchor="middle" x="785" y="-111.5" font-family="Helvetica,sans-Serif" font-size="10.00" fill="#000000">Norm&lt; ValueType &gt;</text>
</a>
</g>
</g>
<!-- Node348&#45;&gt;Node349 -->
<g id="edge10" class="edge">
<title>Node348&#45;&gt;Node349</title>
<path fill="none" stroke="#191970" d="M658.9072,-87.9768C680.51,-93.3775 704.1021,-99.2755 724.9753,-104.4938"/>
<polygon fill="#191970" stroke="#191970" points="659.6888,-84.5645 649.1385,-85.5346 657.991,-91.3555 659.6888,-84.5645"/>
</g>
<!-- Node350 -->
<g id="node12" class="node">
<title>Node350</title>
<g id="a_node12"><a xlink:href="classgko_1_1stop_1_1RelativeResidualNorm.html" target="_top" xlink:title="The RelativeResidualNorm class is a stopping criterion which stops the iteration process when the res...">
<polygon fill="#ffffff" stroke="#000000" points="710.5,-55.5 710.5,-85.5 859.5,-85.5 859.5,-55.5 710.5,-55.5"/>
<text text-anchor="start" x="718.5" y="-73.5" font-family="Helvetica,sans-Serif" font-size="10.00" fill="#000000">gko::stop::RelativeResidual</text>
<text text-anchor="middle" x="785" y="-62.5" font-family="Helvetica,sans-Serif" font-size="10.00" fill="#000000">Norm&lt; ValueType &gt;</text>
</a>
</g>
</g>
<!-- Node348&#45;&gt;Node350 -->
<g id="edge11" class="edge">
<title>Node348&#45;&gt;Node350</title>
<path fill="none" stroke="#191970" d="M667.2465,-70.5C681.4823,-70.5 696.2984,-70.5 710.4247,-70.5"/>
<polygon fill="#191970" stroke="#191970" points="667.0013,-67.0001 657.0012,-70.5 667.0012,-74.0001 667.0013,-67.0001"/>
</g>
<!-- Node351 -->
<g id="node13" class="node">
<title>Node351</title>
<g id="a_node13"><a xlink:href="classgko_1_1stop_1_1ResidualNormReduction.html" target="_top" xlink:title="The ResidualNormReduction class is a stopping criterion which stops the iteration process when the re...">
<polygon fill="#ffffff" stroke="#000000" points="693,-6.5 693,-36.5 877,-36.5 877,-6.5 693,-6.5"/>
<text text-anchor="start" x="701" y="-24.5" font-family="Helvetica,sans-Serif" font-size="10.00" fill="#000000">gko::stop::ResidualNormReduction</text>
<text text-anchor="middle" x="785" y="-13.5" font-family="Helvetica,sans-Serif" font-size="10.00" fill="#000000">&lt; ValueType &gt;</text>
</a>
</g>
</g>
<!-- Node348&#45;&gt;Node351 -->
<g id="edge12" class="edge">
<title>Node348&#45;&gt;Node351</title>
<path fill="none" stroke="#191970" d="M658.9072,-53.0232C680.51,-47.6225 704.1021,-41.7245 724.9753,-36.5062"/>
<polygon fill="#191970" stroke="#191970" points="657.991,-49.6445 649.1385,-55.4654 659.6888,-56.4355 657.991,-49.6445"/>
</g>
<!-- Node353 -->
<g id="node15" class="node">
<title>Node353</title>
<g id="a_node15"><a xlink:href="classgko_1_1EnablePolymorphicObject.html" target="_top" xlink:title=" ">
<polygon fill="#ffffff" stroke="#000000" points="319,-.5 319,-30.5 485,-30.5 485,-.5 319,-.5"/>
<text text-anchor="start" x="327" y="-18.5" font-family="Helvetica,sans-Serif" font-size="10.00" fill="#000000">gko::EnablePolymorphicObject</text>
<text text-anchor="middle" x="402" y="-7.5" font-family="Helvetica,sans-Serif" font-size="10.00" fill="#000000">&lt; Time, Criterion &gt;</text>
</a>
</g>
</g>
<!-- Node352&#45;&gt;Node353 -->
<g id="edge14" class="edge">
<title>Node352&#45;&gt;Node353</title>
<path fill="none" stroke="#191970" d="M286.7933,-15.5C297.5223,-15.5 308.37,-15.5 318.8969,-15.5"/>
<polygon fill="#191970" stroke="#191970" points="286.5574,-12.0001 276.5573,-15.5 286.5573,-19.0001 286.5574,-12.0001"/>
</g>
<!-- Node354 -->
<g id="node16" class="node">
<title>Node354</title>
<g id="a_node16"><a xlink:href="classgko_1_1stop_1_1Time.html" target="_top" xlink:title="The Time class is a stopping criterion which stops the iteration process after a certain amout of tim...">
<polygon fill="#ffffff" stroke="#000000" points="543,-6 543,-25 635,-25 635,-6 543,-6"/>
<text text-anchor="middle" x="589" y="-13" font-family="Helvetica,sans-Serif" font-size="10.00" fill="#000000">gko::stop::Time</text>
</a>
</g>
</g>
<!-- Node353&#45;&gt;Node354 -->
<g id="edge15" class="edge">
<title>Node353&#45;&gt;Node354</title>
<path fill="none" stroke="#191970" d="M495.3576,-15.5C511.8467,-15.5 528.3416,-15.5 542.7912,-15.5"/>
<polygon fill="#191970" stroke="#191970" points="495.11,-12.0001 485.1099,-15.5 495.1099,-19.0001 495.11,-12.0001"/>
</g>
</g>
</svg>
