<?xml version="1.0" encoding="UTF-8" standalone="no"?>
<!DOCTYPE svg PUBLIC "-//W3C//DTD SVG 1.1//EN"
 "http://www.w3.org/Graphics/SVG/1.1/DTD/svg11.dtd">
<!-- Generated by graphviz version 2.40.1 (20161225.0304)
 -->
<!-- Title: gko::log::executor_data Pages: 1 -->
<svg width="269pt" height="309pt"
 viewBox="0.00 0.00 268.50 309.00" xmlns="http://www.w3.org/2000/svg" xmlns:xlink="http://www.w3.org/1999/xlink">
<g id="graph0" class="graph" transform="scale(1 1) rotate(0) translate(4 305)">
<title>gko::log::executor_data</title>
<polygon fill="#ffffff" stroke="transparent" points="-4,4 -4,-305 264.5,-305 264.5,4 -4,4"/>
<!-- Node1 -->
<g id="node1" class="node">
<title>Node1</title>
<g id="a_node1"><a xlink:title="Struct representing Executor related data.">
<polygon fill="#bfbfbf" stroke="#000000" points="1,-.5 1,-19.5 132,-19.5 132,-.5 1,-.5"/>
<text text-anchor="middle" x="66.5" y="-7.5" font-family="Helvetica,sans-Serif" font-size="10.00" fill="#000000">gko::log::executor_data</text>
</a>
</g>
</g>
<!-- Node2 -->
<g id="node2" class="node">
<title>Node2</title>
<g id="a_node2"><a xlink:href="classgko_1_1Executor.html" target="_top" xlink:title="The first step in using the Ginkgo library consists of creating an executor.">
<polygon fill="#ffffff" stroke="#000000" points="25,-67.5 25,-86.5 108,-86.5 108,-67.5 25,-67.5"/>
<text text-anchor="middle" x="66.5" y="-74.5" font-family="Helvetica,sans-Serif" font-size="10.00" fill="#000000">gko::Executor</text>
</a>
</g>
</g>
<!-- Node2&#45;&gt;Node1 -->
<g id="edge1" class="edge">
<title>Node2&#45;&gt;Node1</title>
<path fill="none" stroke="#9a32cd" stroke-dasharray="5,2" d="M66.5,-57.1079C66.5,-44.714 66.5,-29.3263 66.5,-19.5817"/>
<polygon fill="#9a32cd" stroke="#9a32cd" points="63.0001,-57.4005 66.5,-67.4005 70.0001,-57.4006 63.0001,-57.4005"/>
<text text-anchor="middle" x="80" y="-41" font-family="Helvetica,sans-Serif" font-size="10.00" fill="#000000"> exec</text>
</g>
<!-- Node3 -->
<g id="node3" class="node">
<title>Node3</title>
<g id="a_node3"><a xlink:href="classgko_1_1log_1_1EnableLogging.html" target="_top" xlink:title=" ">
<polygon fill="#ffffff" stroke="#000000" points="0,-124.5 0,-154.5 133,-154.5 133,-124.5 0,-124.5"/>
<text text-anchor="start" x="8" y="-142.5" font-family="Helvetica,sans-Serif" font-size="10.00" fill="#000000">gko::log::EnableLogging</text>
<text text-anchor="middle" x="66.5" y="-131.5" font-family="Helvetica,sans-Serif" font-size="10.00" fill="#000000">&lt; Executor &gt;</text>
</a>
</g>
</g>
<!-- Node3&#45;&gt;Node2 -->
<g id="edge2" class="edge">
<title>Node3&#45;&gt;Node2</title>
<path fill="none" stroke="#191970" d="M66.5,-114.3498C66.5,-104.6481 66.5,-94.1303 66.5,-86.7356"/>
<polygon fill="#191970" stroke="#191970" points="63.0001,-114.3705 66.5,-124.3705 70.0001,-114.3705 63.0001,-114.3705"/>
</g>
<!-- Node4 -->
<g id="node4" class="node">
<title>Node4</title>
<g id="a_node4"><a xlink:href="classgko_1_1log_1_1Loggable.html" target="_top" xlink:title="Loggable class is an interface which should be implemented by classes wanting to support logging.">
<polygon fill="#ffffff" stroke="#000000" points="9.5,-281.5 9.5,-300.5 115.5,-300.5 115.5,-281.5 9.5,-281.5"/>
<text text-anchor="middle" x="62.5" y="-288.5" font-family="Helvetica,sans-Serif" font-size="10.00" fill="#000000">gko::log::Loggable</text>
</a>
</g>
</g>
<!-- Node4&#45;&gt;Node3 -->
<g id="edge3" class="edge">
<title>Node4&#45;&gt;Node3</title>
<path fill="none" stroke="#191970" d="M63.035,-270.7354C63.8452,-240.0508 65.3656,-182.4661 66.0926,-154.9307"/>
<polygon fill="#191970" stroke="#191970" points="59.5277,-270.9707 62.7625,-281.0597 66.5253,-271.1556 59.5277,-270.9707"/>
</g>
<!-- Node5 -->
<g id="node5" class="node">
<title>Node5</title>
<g id="a_node5"><a xlink:href="classgko_1_1log_1_1EnableLogging.html" target="_top" xlink:title="EnableLogging is a mixin which should be inherited by any class which wants to enable logging.">
<polygon fill="#ffffff" stroke="#000000" points="78.5,-202.5 78.5,-243.5 260.5,-243.5 260.5,-202.5 78.5,-202.5"/>
<text text-anchor="start" x="86.5" y="-231.5" font-family="Helvetica,sans-Serif" font-size="10.00" fill="#000000">gko::log::EnableLogging</text>
<text text-anchor="start" x="86.5" y="-220.5" font-family="Helvetica,sans-Serif" font-size="10.00" fill="#000000">&lt; ConcreteLoggable, Polymorphic</text>
<text text-anchor="middle" x="169.5" y="-209.5" font-family="Helvetica,sans-Serif" font-size="10.00" fill="#000000">Base &gt;</text>
</a>
</g>
</g>
<!-- Node4&#45;&gt;Node5 -->
<g id="edge5" class="edge">
<title>Node4&#45;&gt;Node5</title>
<path fill="none" stroke="#191970" d="M86.4662,-275.7691C101.3678,-266.299 120.7214,-253.9995 136.9948,-243.6575"/>
<polygon fill="#191970" stroke="#191970" points="84.3931,-272.9396 77.8305,-281.2573 88.1477,-278.8475 84.3931,-272.9396"/>
</g>
<!-- Node5&#45;&gt;Node3 -->
<g id="edge4" class="edge">
<title>Node5&#45;&gt;Node3</title>
<path fill="none" stroke="#ffa500" stroke-dasharray="5,2" d="M136.0362,-195.8715C119.1734,-182.2012 99.3577,-166.1371 85.2029,-154.6621"/>
<polygon fill="#ffa500" stroke="#ffa500" points="134.0671,-198.7809 144.0393,-202.3595 138.4753,-193.3433 134.0671,-198.7809"/>
<text text-anchor="middle" x="155" y="-176" font-family="Helvetica,sans-Serif" font-size="10.00" fill="#000000"> &lt; Executor &gt;</text>
</g>
</g>
</svg>
