<?xml version="1.0" encoding="UTF-8" standalone="no"?>
<!DOCTYPE svg PUBLIC "-//W3C//DTD SVG 1.1//EN"
 "http://www.w3.org/Graphics/SVG/1.1/DTD/svg11.dtd">
<!-- Generated by graphviz version 2.40.1 (20161225.0304)
 -->
<!-- Title: gko::EnablePolymorphicObject&lt; ConcreteObject, PolymorphicBase &gt; Pages: 1 -->
<!--zoomable 77 -->
<svg id="main" version="1.1" xmlns="http://www.w3.org/2000/svg" xmlns:xlink="http://www.w3.org/1999/xlink" xml:space="preserve" onload="init(evt)">
<style type="text/css"><![CDATA[
.edge:hover path { stroke: red; }
.edge:hover polygon { stroke: red; fill: red; }
]]></style>
<script type="text/javascript"><![CDATA[
var edges = document.getElementsByTagName('g');
if (edges && edges.length) {
  for (var i=0;i<edges.length;i++) {
    if (edges[i].id.substr(0,4)=='edge') {
      edges[i].setAttribute('class','edge');
    }
  }
}
]]></script>
        <defs>
                <circle id="rim" cx="0" cy="0" r="7"/>
                <circle id="rim2" cx="0" cy="0" r="3.5"/>
                <g id="zoomPlus">
                        <use xlink:href="#rim" fill="#404040">
                                <set attributeName="fill" to="#808080" begin="zoomplus.mouseover" end="zoomplus.mouseout"/>
                        </use>
                        <path d="M-4,0h8M0,-4v8" fill="none" stroke="white" stroke-width="1.5" pointer-events="none"/>
                </g>
                <g id="zoomMin">
                        <use xlink:href="#rim" fill="#404040">
                                <set attributeName="fill" to="#808080" begin="zoomminus.mouseover" end="zoomminus.mouseout"/>
                        </use>
                        <path d="M-4,0h8" fill="none" stroke="white" stroke-width="1.5" pointer-events="none"/>
                </g>
                <g id="dirArrow">
                        <path fill="none" stroke="white" stroke-width="1.5" d="M0,-3.0v7 M-2.5,-0.5L0,-3.0L2.5,-0.5"/>
                </g>
               <g id="resetDef">
                       <use xlink:href="#rim2" fill="#404040">
                               <set attributeName="fill" to="#808080" begin="reset.mouseover" end="reset.mouseout"/>
                       </use>
               </g>
        </defs>

<script type="text/javascript">
var viewWidth = 980;
var viewHeight = 77;
var sectionId = 'dynsection-0';
</script>
<script xlink:href="svgpan.js"/>
<svg id="graph" class="graph">
<g id="viewport">
<title>gko::EnablePolymorphicObject&lt; ConcreteObject, PolymorphicBase &gt;</title>
<polygon fill="#ffffff" stroke="transparent" points="-4,4 -4,-73 976,-73 976,4 -4,4"/>
<!-- Node1 -->
<g id="node1" class="node">
<title>Node1</title>
<g id="a_node1"><a xlink:title="This mixin inherits from (a subclass of) PolymorphicObject and provides a base implementation of a ne...">
<polygon fill="#bfbfbf" stroke="#000000" points="767,-33 767,-63 972,-63 972,-33 767,-33"/>
<text text-anchor="start" x="775" y="-51" font-family="Helvetica,sans-Serif" font-size="10.00" fill="#000000">gko::EnablePolymorphicObject</text>
<text text-anchor="middle" x="869.5" y="-40" font-family="Helvetica,sans-Serif" font-size="10.00" fill="#000000">&lt; ConcreteObject, PolymorphicBase &gt;</text>
</a>
</g>
</g>
<!-- Node2 -->
<g id="node2" class="node">
<title>Node2</title>
<g id="a_node2"><a xlink:href="classgko_1_1EnableAbstractPolymorphicObject.html" target="_top" xlink:title=" ">
<polygon fill="#ffffff" stroke="#000000" points="529,-27.5 529,-68.5 730,-68.5 730,-27.5 529,-27.5"/>
<text text-anchor="start" x="537" y="-56.5" font-family="Helvetica,sans-Serif" font-size="10.00" fill="#000000">gko::EnableAbstractPolymorphic</text>
<text text-anchor="start" x="537" y="-45.5" font-family="Helvetica,sans-Serif" font-size="10.00" fill="#000000">Object&lt; ConcreteObject, Polymorphic</text>
<text text-anchor="middle" x="629.5" y="-34.5" font-family="Helvetica,sans-Serif" font-size="10.00" fill="#000000">Base &gt;</text>
</a>
</g>
</g>
<!-- Node2&#45;&gt;Node1 -->
<g id="edge1" class="edge">
<title>Node2&#45;&gt;Node1</title>
<path fill="none" stroke="#191970" d="M740.4645,-48C749.2104,-48 758.0206,-48 766.708,-48"/>
<polygon fill="#191970" stroke="#191970" points="740.2385,-44.5001 730.2384,-48 740.2384,-51.5001 740.2385,-44.5001"/>
</g>
<!-- Node3 -->
<g id="node3" class="node">
<title>Node3</title>
<g id="a_node3"><a xlink:title=" ">
<polygon fill="#ffffff" stroke="#bfbfbf" points="0,-35.5 0,-54.5 101,-54.5 101,-35.5 0,-35.5"/>
<text text-anchor="middle" x="50.5" y="-42.5" font-family="Helvetica,sans-Serif" font-size="10.00" fill="#000000">PolymorphicBase</text>
</a>
</g>
</g>
<!-- Node3&#45;&gt;Node2 -->
<g id="edge2" class="edge">
<title>Node3&#45;&gt;Node2</title>
<path fill="none" stroke="#191970" d="M111.3509,-49.654C120.2837,-50.1973 129.377,-50.6733 138,-51 303.6738,-57.276 345.3015,-61.5868 511,-56 516.8733,-55.802 522.9075,-55.5489 528.9941,-55.2554"/>
<polygon fill="#191970" stroke="#191970" points="111.5702,-46.1609 101.3674,-49.0163 111.124,-53.1467 111.5702,-46.1609"/>
</g>
<!-- Node4 -->
<g id="node4" class="node">
<title>Node4</title>
<g id="a_node4"><a xlink:href="classgko_1_1EnableAbstractPolymorphicObject.html" target="_top" xlink:title="This mixin inherits from (a subclass of) PolymorphicObject and provides a base implementation of a ne...">
<polygon fill="#ffffff" stroke="#000000" points="138,-.5 138,-41.5 336,-41.5 336,-.5 138,-.5"/>
<text text-anchor="start" x="146" y="-29.5" font-family="Helvetica,sans-Serif" font-size="10.00" fill="#000000">gko::EnableAbstractPolymorphic</text>
<text text-anchor="start" x="146" y="-18.5" font-family="Helvetica,sans-Serif" font-size="10.00" fill="#000000">Object&lt; AbstractObject, Polymorphic</text>
<text text-anchor="middle" x="237" y="-7.5" font-family="Helvetica,sans-Serif" font-size="10.00" fill="#000000">Base &gt;</text>
</a>
</g>
</g>
<!-- Node3&#45;&gt;Node4 -->
<g id="edge4" class="edge">
<title>Node3&#45;&gt;Node4</title>
<path fill="none" stroke="#191970" d="M111.5248,-37.1469C119.9555,-36.062 128.7869,-34.9255 137.6923,-33.7795"/>
<polygon fill="#191970" stroke="#191970" points="110.9334,-33.6941 101.4619,-38.4419 111.8269,-40.6368 110.9334,-33.6941"/>
</g>
<!-- Node4&#45;&gt;Node2 -->
<g id="edge3" class="edge">
<title>Node4&#45;&gt;Node2</title>
<path fill="none" stroke="#ffa500" stroke-dasharray="5,2" d="M346.2651,-24.4251C396.4971,-26.4513 456.8296,-29.5206 511,-34 516.7807,-34.478 522.7146,-35.019 528.6988,-35.6033"/>
<polygon fill="#ffa500" stroke="#ffa500" points="346.1626,-20.9185 336.0323,-24.0211 345.8864,-27.913 346.1626,-20.9185"/>
<text text-anchor="start" x="354" y="-48" font-family="Helvetica,sans-Serif" font-size="10.00" fill="#000000"> &lt; ConcreteObject, Polymorphic</text>
<text text-anchor="middle" x="432.5" y="-37" font-family="Helvetica,sans-Serif" font-size="10.00" fill="#000000">Base &gt;</text>
</g>
</g>
</svg>
        <g id="navigator" transform="translate(0 0)" fill="#404254">
                <rect fill="#f2f5e9" fill-opacity="0.5" stroke="#606060" stroke-width=".5" x="0" y="0" width="60" height="60"/>
                <use id="zoomplus" xlink:href="#zoomPlus" x="17" y="9" onmousedown="handleZoom(evt,'in')"/>
                <use id="zoomminus" xlink:href="#zoomMin" x="42" y="9" onmousedown="handleZoom(evt,'out')"/>
                <use id="reset" xlink:href="#resetDef" x="30" y="36" onmousedown="handleReset()"/>
                <g id="arrowUp" xlink:href="#dirArrow" transform="translate(30 24)" onmousedown="handlePan(0,-1)">
                  <use xlink:href="#rim" fill="#404040">
                        <set attributeName="fill" to="#808080" begin="arrowUp.mouseover" end="arrowUp.mouseout"/>
                  </use>
                  <path fill="none" stroke="white" stroke-width="1.5" d="M0,-3.0v7 M-2.5,-0.5L0,-3.0L2.5,-0.5"/>
                </g>
                <g id="arrowRight" xlink:href="#dirArrow" transform="rotate(90) translate(36 -43)" onmousedown="handlePan(1,0)">
                  <use xlink:href="#rim" fill="#404040">
                        <set attributeName="fill" to="#808080" begin="arrowRight.mouseover" end="arrowRight.mouseout"/>
                  </use>
                  <path fill="none" stroke="white" stroke-width="1.5" d="M0,-3.0v7 M-2.5,-0.5L0,-3.0L2.5,-0.5"/>
                </g>
                <g id="arrowDown" xlink:href="#dirArrow" transform="rotate(180) translate(-30 -48)" onmousedown="handlePan(0,1)">
                  <use xlink:href="#rim" fill="#404040">
                        <set attributeName="fill" to="#808080" begin="arrowDown.mouseover" end="arrowDown.mouseout"/>
                  </use>
                  <path fill="none" stroke="white" stroke-width="1.5" d="M0,-3.0v7 M-2.5,-0.5L0,-3.0L2.5,-0.5"/>
                </g>
                <g id="arrowLeft" xlink:href="#dirArrow" transform="rotate(270) translate(-36 17)" onmousedown="handlePan(-1,0)">
                  <use xlink:href="#rim" fill="#404040">
                        <set attributeName="fill" to="#808080" begin="arrowLeft.mouseover" end="arrowLeft.mouseout"/>
                  </use>
                  <path fill="none" stroke="white" stroke-width="1.5" d="M0,-3.0v7 M-2.5,-0.5L0,-3.0L2.5,-0.5"/>
                </g>
        </g>
        <svg viewBox="0 0 15 15" width="100%" height="30px" preserveAspectRatio="xMaxYMin meet">
         <g id="arrow_out" transform="scale(0.3 0.3)">
          <a xlink:href="classgko_1_1EnablePolymorphicObject__coll__graph_org.svg" target="_base">
           <rect id="button" ry="5" rx="5" y="6" x="6" height="38" width="38"
                fill="#f2f5e9" fill-opacity="0.5" stroke="#606060" stroke-width="1.0"/>
           <path id="arrow"
             d="M 11.500037,31.436501 C 11.940474,20.09759 22.043105,11.32322 32.158766,21.979434 L 37.068811,17.246167 C 37.068811,17.246167 37.088388,32 37.088388,32 L 22.160133,31.978069 C 22.160133,31.978069 26.997745,27.140456 26.997745,27.140456 C 18.528582,18.264221 13.291696,25.230495 11.500037,31.436501 z"
             style="fill:#404040;"/>
          </a>
         </g>
        </svg>
</svg>
