<?xml version="1.0" encoding="UTF-8" standalone="no"?>
<!DOCTYPE svg PUBLIC "-//W3C//DTD SVG 1.1//EN"
 "http://www.w3.org/Graphics/SVG/1.1/DTD/svg11.dtd">
<!-- Generated by graphviz version 2.40.1 (20161225.0304)
 -->
<!-- Title: gko::Composition&lt; ValueType &gt; Pages: 1 -->
<!--zoomable 335 -->
<svg id="main" version="1.1" xmlns="http://www.w3.org/2000/svg" xmlns:xlink="http://www.w3.org/1999/xlink" xml:space="preserve" onload="init(evt)">
<style type="text/css"><![CDATA[
.edge:hover path { stroke: red; }
.edge:hover polygon { stroke: red; fill: red; }
]]></style>
<script type="text/javascript"><![CDATA[
var edges = document.getElementsByTagName('g');
if (edges && edges.length) {
  for (var i=0;i<edges.length;i++) {
    if (edges[i].id.substr(0,4)=='edge') {
      edges[i].setAttribute('class','edge');
    }
  }
}
]]></script>
        <defs>
                <circle id="rim" cx="0" cy="0" r="7"/>
                <circle id="rim2" cx="0" cy="0" r="3.5"/>
                <g id="zoomPlus">
                        <use xlink:href="#rim" fill="#404040">
                                <set attributeName="fill" to="#808080" begin="zoomplus.mouseover" end="zoomplus.mouseout"/>
                        </use>
                        <path d="M-4,0h8M0,-4v8" fill="none" stroke="white" stroke-width="1.5" pointer-events="none"/>
                </g>
                <g id="zoomMin">
                        <use xlink:href="#rim" fill="#404040">
                                <set attributeName="fill" to="#808080" begin="zoomminus.mouseover" end="zoomminus.mouseout"/>
                        </use>
                        <path d="M-4,0h8" fill="none" stroke="white" stroke-width="1.5" pointer-events="none"/>
                </g>
                <g id="dirArrow">
                        <path fill="none" stroke="white" stroke-width="1.5" d="M0,-3.0v7 M-2.5,-0.5L0,-3.0L2.5,-0.5"/>
                </g>
               <g id="resetDef">
                       <use xlink:href="#rim2" fill="#404040">
                               <set attributeName="fill" to="#808080" begin="reset.mouseover" end="reset.mouseout"/>
                       </use>
               </g>
        </defs>

<script type="text/javascript">
var viewWidth = 2320;
var viewHeight = 335;
var sectionId = 'dynsection-0';
</script>
<script xlink:href="svgpan.js"/>
<svg id="graph" class="graph">
<g id="viewport">
<title>gko::Composition&lt; ValueType &gt;</title>
<polygon fill="#ffffff" stroke="transparent" points="-4,4 -4,-330.5 2316,-330.5 2316,4 -4,4"/>
<!-- Node1 -->
<g id="node1" class="node">
<title>Node1</title>
<g id="a_node1"><a xlink:title="The Composition class can be used to compose linear operators op1, op2, ..., opn and obtain the opera...">
<polygon fill="#bfbfbf" stroke="#000000" points="2138,-59 2138,-78 2312,-78 2312,-59 2138,-59"/>
<text text-anchor="middle" x="2225" y="-66" font-family="Helvetica,sans-Serif" font-size="10.00" fill="#000000">gko::Composition&lt; ValueType &gt;</text>
</a>
</g>
</g>
<!-- Node2 -->
<g id="node2" class="node">
<title>Node2</title>
<g id="a_node2"><a xlink:href="classgko_1_1EnableLinOp.html" target="_top" xlink:title=" ">
<polygon fill="#ffffff" stroke="#000000" points="1927,-124.5 1927,-154.5 2101,-154.5 2101,-124.5 1927,-124.5"/>
<text text-anchor="start" x="1935" y="-142.5" font-family="Helvetica,sans-Serif" font-size="10.00" fill="#000000">gko::EnableLinOp&lt; Composition</text>
<text text-anchor="middle" x="2014" y="-131.5" font-family="Helvetica,sans-Serif" font-size="10.00" fill="#000000">&lt; ValueType &gt; &gt;</text>
</a>
</g>
</g>
<!-- Node2&#45;&gt;Node1 -->
<g id="edge1" class="edge">
<title>Node2&#45;&gt;Node1</title>
<path fill="none" stroke="#191970" d="M2068.3112,-121.2247C2109.2387,-107.4529 2163.7319,-89.1163 2196.4888,-78.0938"/>
<polygon fill="#191970" stroke="#191970" points="2067.1092,-117.9362 2058.7477,-124.4427 2069.3417,-124.5707 2067.1092,-117.9362"/>
</g>
<!-- Node3 -->
<g id="node3" class="node">
<title>Node3</title>
<g id="a_node3"><a xlink:href="classgko_1_1EnablePolymorphicObject.html" target="_top" xlink:title=" ">
<polygon fill="#ffffff" stroke="#000000" points="1565,-207 1565,-248 1731,-248 1731,-207 1565,-207"/>
<text text-anchor="start" x="1573" y="-236" font-family="Helvetica,sans-Serif" font-size="10.00" fill="#000000">gko::EnablePolymorphicObject</text>
<text text-anchor="start" x="1573" y="-225" font-family="Helvetica,sans-Serif" font-size="10.00" fill="#000000">&lt; Composition&lt; ValueType</text>
<text text-anchor="middle" x="1648" y="-214" font-family="Helvetica,sans-Serif" font-size="10.00" fill="#000000"> &gt;, LinOp &gt;</text>
</a>
</g>
</g>
<!-- Node3&#45;&gt;Node2 -->
<g id="edge2" class="edge">
<title>Node3&#45;&gt;Node2</title>
<path fill="none" stroke="#191970" d="M1741.0377,-205.1303C1806.9931,-189.2721 1893.7022,-168.4241 1951.5161,-154.5235"/>
<polygon fill="#191970" stroke="#191970" points="1739.9557,-201.7906 1731.0511,-207.5314 1741.5922,-208.5966 1739.9557,-201.7906"/>
</g>
<!-- Node4 -->
<g id="node4" class="node">
<title>Node4</title>
<g id="a_node4"><a xlink:href="classgko_1_1EnableAbstractPolymorphicObject.html" target="_top" xlink:title=" ">
<polygon fill="#ffffff" stroke="#000000" points="1336.5,-268 1336.5,-309 1518.5,-309 1518.5,-268 1336.5,-268"/>
<text text-anchor="start" x="1344.5" y="-297" font-family="Helvetica,sans-Serif" font-size="10.00" fill="#000000">gko::EnableAbstractPolymorphic</text>
<text text-anchor="start" x="1344.5" y="-286" font-family="Helvetica,sans-Serif" font-size="10.00" fill="#000000">Object&lt; Composition&lt; ValueType</text>
<text text-anchor="middle" x="1427.5" y="-275" font-family="Helvetica,sans-Serif" font-size="10.00" fill="#000000"> &gt;, LinOp &gt;</text>
</a>
</g>
</g>
<!-- Node4&#45;&gt;Node3 -->
<g id="edge3" class="edge">
<title>Node4&#45;&gt;Node3</title>
<path fill="none" stroke="#191970" d="M1511.729,-265.1985C1532.098,-259.5636 1553.7236,-253.581 1573.6039,-248.0812"/>
<polygon fill="#191970" stroke="#191970" points="1510.5486,-261.8936 1501.8438,-267.9332 1512.4151,-268.6402 1510.5486,-261.8936"/>
</g>
<!-- Node5 -->
<g id="node5" class="node">
<title>Node5</title>
<g id="a_node5"><a xlink:href="classgko_1_1LinOp.html" target="_top" xlink:title=" ">
<polygon fill="#ffffff" stroke="#000000" points="994.5,-275 994.5,-294 1062.5,-294 1062.5,-275 994.5,-275"/>
<text text-anchor="middle" x="1028.5" y="-282" font-family="Helvetica,sans-Serif" font-size="10.00" fill="#000000">gko::LinOp</text>
</a>
</g>
</g>
<!-- Node5&#45;&gt;Node4 -->
<g id="edge4" class="edge">
<title>Node5&#45;&gt;Node4</title>
<path fill="none" stroke="#191970" d="M1072.5541,-284.9416C1135.7825,-285.5755 1253.7185,-286.7578 1336.231,-287.585"/>
<polygon fill="#191970" stroke="#191970" points="1072.5531,-281.4416 1062.5185,-284.841 1072.4829,-288.4412 1072.5531,-281.4416"/>
</g>
<!-- Node6 -->
<g id="node6" class="node">
<title>Node6</title>
<g id="a_node6"><a xlink:href="classgko_1_1EnableAbstractPolymorphicObject.html" target="_top" xlink:title=" ">
<polygon fill="#ffffff" stroke="#ff0000" points="542,-264.5 542,-294.5 717,-294.5 717,-264.5 542,-264.5"/>
<text text-anchor="start" x="550" y="-282.5" font-family="Helvetica,sans-Serif" font-size="10.00" fill="#000000">gko::EnableAbstractPolymorphic</text>
<text text-anchor="middle" x="629.5" y="-271.5" font-family="Helvetica,sans-Serif" font-size="10.00" fill="#000000">Object&lt; LinOp &gt;</text>
</a>
</g>
</g>
<!-- Node6&#45;&gt;Node5 -->
<g id="edge5" class="edge">
<title>Node6&#45;&gt;Node5</title>
<path fill="none" stroke="#191970" d="M727.1996,-280.7243C813.9858,-281.8119 935.8823,-283.3394 994.4546,-284.0734"/>
<polygon fill="#191970" stroke="#191970" points="727.1053,-277.2229 717.0622,-280.5973 727.0176,-284.2224 727.1053,-277.2229"/>
</g>
<!-- Node11 -->
<g id="node7" class="node">
<title>Node11</title>
<g id="a_node7"><a xlink:href="classgko_1_1EnableAbstractPolymorphicObject.html" target="_top" xlink:title="This mixin inherits from (a subclass of) PolymorphicObject and provides a base implementation of a ne...">
<polygon fill="#ffffff" stroke="#000000" points="138,-239 138,-280 336,-280 336,-239 138,-239"/>
<text text-anchor="start" x="146" y="-268" font-family="Helvetica,sans-Serif" font-size="10.00" fill="#000000">gko::EnableAbstractPolymorphic</text>
<text text-anchor="start" x="146" y="-257" font-family="Helvetica,sans-Serif" font-size="10.00" fill="#000000">Object&lt; AbstractObject, Polymorphic</text>
<text text-anchor="middle" x="237" y="-246" font-family="Helvetica,sans-Serif" font-size="10.00" fill="#000000">Base &gt;</text>
</a>
</g>
</g>
<!-- Node11&#45;&gt;Node4 -->
<g id="edge8" class="edge">
<title>Node11&#45;&gt;Node4</title>
<path fill="none" stroke="#ffa500" stroke-dasharray="5,2" d="M322.7837,-282.3382C333.2505,-284.6576 343.8353,-286.7858 354,-288.5 431.0147,-301.488 450.979,-300.9407 529,-304.5 566.4528,-306.2086 939.491,-305.3525 1131,-303.5 1210.1186,-302.7347 1230.0148,-305.1566 1309,-300.5 1317.8762,-299.9767 1327.1138,-299.2906 1336.3411,-298.5113"/>
<polygon fill="#ffa500" stroke="#ffa500" points="323.33,-278.873 312.8022,-280.0631 321.7743,-285.698 323.33,-278.873"/>
<text text-anchor="start" x="759.5" y="-318.5" font-family="Helvetica,sans-Serif" font-size="10.00" fill="#000000"> &lt; Composition&lt; ValueType</text>
<text text-anchor="middle" x="828" y="-307.5" font-family="Helvetica,sans-Serif" font-size="10.00" fill="#000000"> &gt;, LinOp &gt;</text>
</g>
<!-- Node11&#45;&gt;Node6 -->
<g id="edge6" class="edge">
<title>Node11&#45;&gt;Node6</title>
<path fill="none" stroke="#ffa500" stroke-dasharray="5,2" d="M346.3159,-266.0838C348.902,-266.2255 351.4664,-266.3644 354,-266.5 416.7568,-269.8579 487.5803,-273.1897 541.703,-275.6396"/>
<polygon fill="#ffa500" stroke="#ffa500" points="346.4309,-262.5848 336.2522,-265.5249 346.0427,-269.5741 346.4309,-262.5848"/>
<text text-anchor="middle" x="432.5" y="-276.5" font-family="Helvetica,sans-Serif" font-size="10.00" fill="#000000"> &lt; LinOp &gt;</text>
</g>
<!-- Node14 -->
<g id="node10" class="node">
<title>Node14</title>
<g id="a_node10"><a xlink:href="classgko_1_1EnableAbstractPolymorphicObject.html" target="_top" xlink:title=" ">
<polygon fill="#ffffff" stroke="#000000" points="529,-202 529,-243 730,-243 730,-202 529,-202"/>
<text text-anchor="start" x="537" y="-231" font-family="Helvetica,sans-Serif" font-size="10.00" fill="#000000">gko::EnableAbstractPolymorphic</text>
<text text-anchor="start" x="537" y="-220" font-family="Helvetica,sans-Serif" font-size="10.00" fill="#000000">Object&lt; ConcreteObject, Polymorphic</text>
<text text-anchor="middle" x="629.5" y="-209" font-family="Helvetica,sans-Serif" font-size="10.00" fill="#000000">Base &gt;</text>
</a>
</g>
</g>
<!-- Node11&#45;&gt;Node14 -->
<g id="edge12" class="edge">
<title>Node11&#45;&gt;Node14</title>
<path fill="none" stroke="#ffa500" stroke-dasharray="5,2" d="M346.2728,-241.4171C348.8718,-241.0961 351.4505,-240.7896 354,-240.5 411.7459,-233.94 476.5935,-229.5562 528.8616,-226.7587"/>
<polygon fill="#ffa500" stroke="#ffa500" points="345.6355,-237.9703 336.1662,-242.7224 346.5322,-244.9126 345.6355,-237.9703"/>
<text text-anchor="start" x="354" y="-254.5" font-family="Helvetica,sans-Serif" font-size="10.00" fill="#000000"> &lt; ConcreteObject, Polymorphic</text>
<text text-anchor="middle" x="432.5" y="-243.5" font-family="Helvetica,sans-Serif" font-size="10.00" fill="#000000">Base &gt;</text>
</g>
<!-- Node21 -->
<g id="node17" class="node">
<title>Node21</title>
<g id="a_node17"><a xlink:href="classgko_1_1EnableAbstractPolymorphicObject.html" target="_top" xlink:title=" ">
<polygon fill="#ffffff" stroke="#000000" points="531,-137 531,-178 728,-178 728,-137 531,-137"/>
<text text-anchor="start" x="539" y="-166" font-family="Helvetica,sans-Serif" font-size="10.00" fill="#000000">gko::EnableAbstractPolymorphic</text>
<text text-anchor="start" x="539" y="-155" font-family="Helvetica,sans-Serif" font-size="10.00" fill="#000000">Object&lt; ConcreteLinOp, Polymorphic</text>
<text text-anchor="middle" x="629.5" y="-144" font-family="Helvetica,sans-Serif" font-size="10.00" fill="#000000">Base &gt;</text>
</a>
</g>
</g>
<!-- Node11&#45;&gt;Node21 -->
<g id="edge22" class="edge">
<title>Node11&#45;&gt;Node21</title>
<path fill="none" stroke="#ffa500" stroke-dasharray="5,2" d="M280.2978,-234.1151C301.8104,-222.5335 328.5847,-209.6215 354,-201.5 411.2106,-183.2182 477.6361,-172.3236 530.9267,-165.9492"/>
<polygon fill="#ffa500" stroke="#ffa500" points="278.5078,-231.1049 271.4196,-238.9793 281.8713,-237.2439 278.5078,-231.1049"/>
<text text-anchor="start" x="356" y="-215.5" font-family="Helvetica,sans-Serif" font-size="10.00" fill="#000000"> &lt; ConcreteLinOp, Polymorphic</text>
<text text-anchor="middle" x="432.5" y="-204.5" font-family="Helvetica,sans-Serif" font-size="10.00" fill="#000000">Base &gt;</text>
</g>
<!-- Node12 -->
<g id="node8" class="node">
<title>Node12</title>
<g id="a_node8"><a xlink:title=" ">
<polygon fill="#ffffff" stroke="#bfbfbf" points="0,-201 0,-220 101,-220 101,-201 0,-201"/>
<text text-anchor="middle" x="50.5" y="-208" font-family="Helvetica,sans-Serif" font-size="10.00" fill="#000000">PolymorphicBase</text>
</a>
</g>
</g>
<!-- Node12&#45;&gt;Node11 -->
<g id="edge7" class="edge">
<title>Node12&#45;&gt;Node11</title>
<path fill="none" stroke="#191970" d="M96.6373,-222.6219C115.3596,-227.5409 137.5184,-233.3628 158.6324,-238.9101"/>
<polygon fill="#191970" stroke="#191970" points="97.463,-219.2201 86.9018,-220.064 95.6842,-225.9903 97.463,-219.2201"/>
</g>
<!-- Node12&#45;&gt;Node14 -->
<g id="edge11" class="edge">
<title>Node12&#45;&gt;Node14</title>
<path fill="none" stroke="#191970" d="M111.2841,-211.7598C210.5662,-213.8174 408.5048,-217.9198 528.9546,-220.4162"/>
<polygon fill="#191970" stroke="#191970" points="111.1924,-208.2572 101.122,-211.5492 111.0473,-215.2557 111.1924,-208.2572"/>
</g>
<!-- Node12&#45;&gt;Node21 -->
<g id="edge21" class="edge">
<title>Node12&#45;&gt;Node21</title>
<path fill="none" stroke="#191970" d="M110.3244,-199.1707C171.3459,-188.1489 268.8885,-172.0016 354,-164.5 412.5033,-159.3436 478.2438,-157.5227 530.8305,-157.0242"/>
<polygon fill="#191970" stroke="#191970" points="109.6932,-195.728 100.4812,-200.9614 110.9462,-202.6149 109.6932,-195.728"/>
</g>
<!-- Node13 -->
<g id="node9" class="node">
<title>Node13</title>
<g id="a_node9"><a xlink:href="classgko_1_1EnablePolymorphicObject.html" target="_top" xlink:title="This mixin inherits from (a subclass of) PolymorphicObject and provides a base implementation of a ne...">
<polygon fill="#ffffff" stroke="#000000" points="926,-207.5 926,-237.5 1131,-237.5 1131,-207.5 926,-207.5"/>
<text text-anchor="start" x="934" y="-225.5" font-family="Helvetica,sans-Serif" font-size="10.00" fill="#000000">gko::EnablePolymorphicObject</text>
<text text-anchor="middle" x="1028.5" y="-214.5" font-family="Helvetica,sans-Serif" font-size="10.00" fill="#000000">&lt; ConcreteObject, PolymorphicBase &gt;</text>
</a>
</g>
</g>
<!-- Node13&#45;&gt;Node3 -->
<g id="edge9" class="edge">
<title>Node13&#45;&gt;Node3</title>
<path fill="none" stroke="#ffa500" stroke-dasharray="5,2" d="M1141.2748,-223.4102C1263.3835,-224.3958 1455.2914,-225.9446 1564.5414,-226.8264"/>
<polygon fill="#ffa500" stroke="#ffa500" points="1141.1733,-219.9094 1131.1453,-223.3285 1141.1167,-226.9091 1141.1733,-219.9094"/>
<text text-anchor="start" x="1359" y="-240.5" font-family="Helvetica,sans-Serif" font-size="10.00" fill="#000000"> &lt; Composition&lt; ValueType</text>
<text text-anchor="middle" x="1427.5" y="-229.5" font-family="Helvetica,sans-Serif" font-size="10.00" fill="#000000"> &gt;, LinOp &gt;</text>
</g>
<!-- Node20 -->
<g id="node16" class="node">
<title>Node20</title>
<g id="a_node16"><a xlink:href="classgko_1_1EnablePolymorphicObject.html" target="_top" xlink:title=" ">
<polygon fill="#ffffff" stroke="#000000" points="1327,-144.5 1327,-174.5 1528,-174.5 1528,-144.5 1327,-144.5"/>
<text text-anchor="start" x="1335" y="-162.5" font-family="Helvetica,sans-Serif" font-size="10.00" fill="#000000">gko::EnablePolymorphicObject</text>
<text text-anchor="middle" x="1427.5" y="-151.5" font-family="Helvetica,sans-Serif" font-size="10.00" fill="#000000">&lt; ConcreteLinOp, PolymorphicBase &gt;</text>
</a>
</g>
</g>
<!-- Node13&#45;&gt;Node20 -->
<g id="edge23" class="edge">
<title>Node13&#45;&gt;Node20</title>
<path fill="none" stroke="#ffa500" stroke-dasharray="5,2" d="M1090.2444,-204.8785C1108.9956,-199.9981 1129.7353,-195.0673 1149,-191.5 1207.5031,-180.6667 1273.6413,-172.8827 1326.7812,-167.7061"/>
<polygon fill="#ffa500" stroke="#ffa500" points="1089.1194,-201.5556 1080.347,-207.4968 1090.9096,-208.3229 1089.1194,-201.5556"/>
<text text-anchor="start" x="1152.5" y="-205.5" font-family="Helvetica,sans-Serif" font-size="10.00" fill="#000000"> &lt; ConcreteLinOp, Polymorphic</text>
<text text-anchor="middle" x="1229" y="-194.5" font-family="Helvetica,sans-Serif" font-size="10.00" fill="#000000">Base &gt;</text>
</g>
<!-- Node14&#45;&gt;Node13 -->
<g id="edge10" class="edge">
<title>Node14&#45;&gt;Node13</title>
<path fill="none" stroke="#191970" d="M740.4914,-222.5C798.4959,-222.5 869.0206,-222.5 925.7638,-222.5"/>
<polygon fill="#191970" stroke="#191970" points="740.1846,-219.0001 730.1845,-222.5 740.1845,-226.0001 740.1846,-219.0001"/>
</g>
<!-- Node15 -->
<g id="node11" class="node">
<title>Node15</title>
<g id="a_node11"><a xlink:href="classgko_1_1EnablePolymorphicAssignment.html" target="_top" xlink:title=" ">
<polygon fill="#ffffff" stroke="#000000" points="1331.5,-95.5 1331.5,-125.5 1523.5,-125.5 1523.5,-95.5 1331.5,-95.5"/>
<text text-anchor="start" x="1339.5" y="-113.5" font-family="Helvetica,sans-Serif" font-size="10.00" fill="#000000">gko::EnablePolymorphicAssignment</text>
<text text-anchor="middle" x="1427.5" y="-102.5" font-family="Helvetica,sans-Serif" font-size="10.00" fill="#000000">&lt; Composition&lt; ValueType &gt; &gt;</text>
</a>
</g>
</g>
<!-- Node15&#45;&gt;Node2 -->
<g id="edge13" class="edge">
<title>Node15&#45;&gt;Node2</title>
<path fill="none" stroke="#191970" d="M1525.1244,-126.9386C1538.4916,-128.7416 1552.0627,-130.3408 1565,-131.5 1690.4091,-142.7367 1836.2818,-142.9797 1926.888,-141.628"/>
<polygon fill="#191970" stroke="#191970" points="1525.3429,-123.4353 1514.9559,-125.5239 1524.3782,-130.3686 1525.3429,-123.4353"/>
</g>
<!-- Node16 -->
<g id="node12" class="node">
<title>Node16</title>
<g id="a_node12"><a xlink:href="classgko_1_1ConvertibleTo.html" target="_top" xlink:title=" ">
<polygon fill="#ffffff" stroke="#000000" points="942,-98.5 942,-128.5 1115,-128.5 1115,-98.5 942,-98.5"/>
<text text-anchor="start" x="950" y="-116.5" font-family="Helvetica,sans-Serif" font-size="10.00" fill="#000000">gko::ConvertibleTo</text>
<text text-anchor="middle" x="1028.5" y="-105.5" font-family="Helvetica,sans-Serif" font-size="10.00" fill="#000000">&lt; Composition&lt; ValueType &gt; &gt;</text>
</a>
</g>
</g>
<!-- Node16&#45;&gt;Node15 -->
<g id="edge14" class="edge">
<title>Node16&#45;&gt;Node15</title>
<path fill="none" stroke="#191970" d="M1125.342,-112.7719C1187.8731,-112.3017 1268.8993,-111.6925 1331.3027,-111.2233"/>
<polygon fill="#191970" stroke="#191970" points="1125.0504,-109.2739 1115.0771,-112.849 1125.1031,-116.2737 1125.0504,-109.2739"/>
</g>
<!-- Node17 -->
<g id="node13" class="node">
<title>Node17</title>
<g id="a_node13"><a xlink:href="classgko_1_1ConvertibleTo.html" target="_top" xlink:title="ConvertibleTo interface is used to mark that the implementer can be converted to the object of Result...">
<polygon fill="#ffffff" stroke="#000000" points="576,-49.5 576,-79.5 683,-79.5 683,-49.5 576,-49.5"/>
<text text-anchor="start" x="584" y="-67.5" font-family="Helvetica,sans-Serif" font-size="10.00" fill="#000000">gko::ConvertibleTo</text>
<text text-anchor="middle" x="629.5" y="-56.5" font-family="Helvetica,sans-Serif" font-size="10.00" fill="#000000">&lt; ResultType &gt;</text>
</a>
</g>
</g>
<!-- Node17&#45;&gt;Node16 -->
<g id="edge15" class="edge">
<title>Node17&#45;&gt;Node16</title>
<path fill="none" stroke="#ffa500" stroke-dasharray="5,2" d="M693.3447,-72.3406C760.5635,-80.5955 866.8185,-93.6444 941.6366,-102.8326"/>
<polygon fill="#ffa500" stroke="#ffa500" points="693.663,-68.8535 683.3109,-71.1084 692.8097,-75.8013 693.663,-68.8535"/>
<text text-anchor="middle" x="828" y="-100.5" font-family="Helvetica,sans-Serif" font-size="10.00" fill="#000000"> &lt; Composition&lt; ValueType &gt; &gt;</text>
</g>
<!-- Node18 -->
<g id="node14" class="node">
<title>Node18</title>
<g id="a_node14"><a xlink:href="classgko_1_1EnablePolymorphicAssignment.html" target="_top" xlink:title="This mixin is used to enable a default PolymorphicObject::copy_from() implementation for objects that...">
<polygon fill="#ffffff" stroke="#000000" points="932.5,-49.5 932.5,-79.5 1124.5,-79.5 1124.5,-49.5 932.5,-49.5"/>
<text text-anchor="start" x="940.5" y="-67.5" font-family="Helvetica,sans-Serif" font-size="10.00" fill="#000000">gko::EnablePolymorphicAssignment</text>
<text text-anchor="middle" x="1028.5" y="-56.5" font-family="Helvetica,sans-Serif" font-size="10.00" fill="#000000">&lt; ConcreteType, ResultType &gt;</text>
</a>
</g>
</g>
<!-- Node17&#45;&gt;Node18 -->
<g id="edge17" class="edge">
<title>Node17&#45;&gt;Node18</title>
<path fill="none" stroke="#191970" d="M693.3441,-64.5C757.8404,-64.5 858.2754,-64.5 932.396,-64.5"/>
<polygon fill="#191970" stroke="#191970" points="693.311,-61.0001 683.3109,-64.5 693.3109,-68.0001 693.311,-61.0001"/>
</g>
<!-- Node23 -->
<g id="node19" class="node">
<title>Node23</title>
<g id="a_node19"><a xlink:href="classgko_1_1ConvertibleTo.html" target="_top" xlink:title=" ">
<polygon fill="#ffffff" stroke="#000000" points="973.5,-.5 973.5,-30.5 1083.5,-30.5 1083.5,-.5 973.5,-.5"/>
<text text-anchor="start" x="981.5" y="-18.5" font-family="Helvetica,sans-Serif" font-size="10.00" fill="#000000">gko::ConvertibleTo</text>
<text text-anchor="middle" x="1028.5" y="-7.5" font-family="Helvetica,sans-Serif" font-size="10.00" fill="#000000">&lt; ConcreteLinOp &gt;</text>
</a>
</g>
</g>
<!-- Node17&#45;&gt;Node23 -->
<g id="edge26" class="edge">
<title>Node17&#45;&gt;Node23</title>
<path fill="none" stroke="#ffa500" stroke-dasharray="5,2" d="M693.3888,-56.3499C711.0756,-54.1108 730.2805,-51.6954 748,-49.5 826.2565,-39.8043 916.8338,-28.879 973.4025,-22.0912"/>
<polygon fill="#ffa500" stroke="#ffa500" points="692.6537,-52.915 683.1733,-57.6449 693.5341,-59.8594 692.6537,-52.915"/>
<text text-anchor="middle" x="828" y="-52.5" font-family="Helvetica,sans-Serif" font-size="10.00" fill="#000000"> &lt; ConcreteLinOp &gt;</text>
</g>
<!-- Node18&#45;&gt;Node15 -->
<g id="edge16" class="edge">
<title>Node18&#45;&gt;Node15</title>
<path fill="none" stroke="#ffa500" stroke-dasharray="5,2" d="M1134.6088,-75.8261C1187.1042,-81.5315 1251.408,-88.6729 1309,-95.5 1316.3105,-96.3666 1323.8722,-97.2813 1331.4749,-98.2141"/>
<polygon fill="#ffa500" stroke="#ffa500" points="1134.9302,-72.3405 1124.611,-74.7413 1134.1751,-79.2996 1134.9302,-72.3405"/>
<text text-anchor="middle" x="1229" y="-98.5" font-family="Helvetica,sans-Serif" font-size="10.00" fill="#000000"> &lt; Composition&lt; ValueType &gt; &gt;</text>
</g>
<!-- Node22 -->
<g id="node18" class="node">
<title>Node22</title>
<g id="a_node18"><a xlink:href="classgko_1_1EnablePolymorphicAssignment.html" target="_top" xlink:title=" ">
<polygon fill="#ffffff" stroke="#000000" points="1331.5,-38.5 1331.5,-68.5 1523.5,-68.5 1523.5,-38.5 1331.5,-38.5"/>
<text text-anchor="start" x="1339.5" y="-56.5" font-family="Helvetica,sans-Serif" font-size="10.00" fill="#000000">gko::EnablePolymorphicAssignment</text>
<text text-anchor="middle" x="1427.5" y="-45.5" font-family="Helvetica,sans-Serif" font-size="10.00" fill="#000000">&lt; ConcreteLinOp &gt;</text>
</a>
</g>
</g>
<!-- Node18&#45;&gt;Node22 -->
<g id="edge27" class="edge">
<title>Node18&#45;&gt;Node22</title>
<path fill="none" stroke="#ffa500" stroke-dasharray="5,2" d="M1135.1259,-55.1969C1139.8124,-54.9315 1144.4532,-54.6965 1149,-54.5 1209.6239,-51.8798 1277.7398,-51.5883 1331.4323,-51.972"/>
<polygon fill="#ffa500" stroke="#ffa500" points="1134.5818,-51.7235 1124.8126,-55.8238 1135.0065,-58.7106 1134.5818,-51.7235"/>
<text text-anchor="middle" x="1229" y="-57.5" font-family="Helvetica,sans-Serif" font-size="10.00" fill="#000000"> &lt; ConcreteLinOp &gt;</text>
</g>
<!-- Node19 -->
<g id="node15" class="node">
<title>Node19</title>
<g id="a_node15"><a xlink:href="classgko_1_1EnableLinOp.html" target="_top" xlink:title="The EnableLinOp mixin can be used to provide sensible default implementations of the majority of the ...">
<polygon fill="#ffffff" stroke="#000000" points="1570,-91.5 1570,-121.5 1726,-121.5 1726,-91.5 1570,-91.5"/>
<text text-anchor="start" x="1578" y="-109.5" font-family="Helvetica,sans-Serif" font-size="10.00" fill="#000000">gko::EnableLinOp&lt; Concrete</text>
<text text-anchor="middle" x="1648" y="-98.5" font-family="Helvetica,sans-Serif" font-size="10.00" fill="#000000">LinOp, PolymorphicBase &gt;</text>
</a>
</g>
</g>
<!-- Node19&#45;&gt;Node2 -->
<g id="edge18" class="edge">
<title>Node19&#45;&gt;Node2</title>
<path fill="none" stroke="#ffa500" stroke-dasharray="5,2" d="M1736.3067,-111.6092C1786.921,-114.8676 1851.6041,-119.5898 1909,-125.5 1914.854,-126.1028 1920.8851,-126.7736 1926.9576,-127.4861"/>
<polygon fill="#ffa500" stroke="#ffa500" points="1736.2551,-108.0989 1726.053,-110.9566 1735.8105,-115.0848 1736.2551,-108.0989"/>
<text text-anchor="middle" x="1829" y="-128.5" font-family="Helvetica,sans-Serif" font-size="10.00" fill="#000000"> &lt; Composition&lt; ValueType &gt; &gt;</text>
</g>
<!-- Node20&#45;&gt;Node19 -->
<g id="edge19" class="edge">
<title>Node20&#45;&gt;Node19</title>
<path fill="none" stroke="#191970" d="M1500.4892,-142.0942C1509.7502,-139.8785 1519.0976,-137.6387 1528,-135.5 1546.8603,-130.9691 1567.3826,-126.0174 1586.0347,-121.5088"/>
<polygon fill="#191970" stroke="#191970" points="1499.4107,-138.7534 1490.4989,-144.4831 1501.0387,-145.5614 1499.4107,-138.7534"/>
</g>
<!-- Node21&#45;&gt;Node20 -->
<g id="edge20" class="edge">
<title>Node21&#45;&gt;Node20</title>
<path fill="none" stroke="#191970" d="M738.1848,-157.7724C893.3648,-158.1613 1176.2677,-158.8703 1326.8777,-159.2478"/>
<polygon fill="#191970" stroke="#191970" points="738.1596,-154.2724 728.1508,-157.7472 738.142,-161.2724 738.1596,-154.2724"/>
</g>
<!-- Node22&#45;&gt;Node19 -->
<g id="edge24" class="edge">
<title>Node22&#45;&gt;Node19</title>
<path fill="none" stroke="#191970" d="M1500.064,-70.9417C1527.5967,-77.5595 1558.694,-85.0342 1585.2468,-91.4165"/>
<polygon fill="#191970" stroke="#191970" points="1500.6377,-67.48 1490.0966,-68.5459 1499.0017,-74.2861 1500.6377,-67.48"/>
</g>
<!-- Node23&#45;&gt;Node22 -->
<g id="edge25" class="edge">
<title>Node23&#45;&gt;Node22</title>
<path fill="none" stroke="#191970" d="M1093.6014,-21.7001C1158.0971,-27.8426 1257.6233,-37.3213 1331.2496,-44.3333"/>
<polygon fill="#191970" stroke="#191970" points="1093.8471,-18.2078 1083.5603,-20.7438 1093.1834,-25.1763 1093.8471,-18.2078"/>
</g>
<!-- Node24 -->
<g id="node20" class="node">
<title>Node24</title>
<g id="a_node20"><a xlink:href="classgko_1_1EnableCreateMethod.html" target="_top" xlink:title=" ">
<polygon fill="#ffffff" stroke="#000000" points="1927.5,-53.5 1927.5,-83.5 2100.5,-83.5 2100.5,-53.5 1927.5,-53.5"/>
<text text-anchor="start" x="1935.5" y="-71.5" font-family="Helvetica,sans-Serif" font-size="10.00" fill="#000000">gko::EnableCreateMethod</text>
<text text-anchor="middle" x="2014" y="-60.5" font-family="Helvetica,sans-Serif" font-size="10.00" fill="#000000">&lt; Composition&lt; ValueType &gt; &gt;</text>
</a>
</g>
</g>
<!-- Node24&#45;&gt;Node1 -->
<g id="edge28" class="edge">
<title>Node24&#45;&gt;Node1</title>
<path fill="none" stroke="#191970" d="M2110.8696,-68.5C2119.8903,-68.5 2128.9956,-68.5 2137.9195,-68.5"/>
<polygon fill="#191970" stroke="#191970" points="2110.7352,-65.0001 2100.7352,-68.5 2110.7352,-72.0001 2110.7352,-65.0001"/>
</g>
<!-- Node25 -->
<g id="node21" class="node">
<title>Node25</title>
<g id="a_node21"><a xlink:href="classgko_1_1EnableCreateMethod.html" target="_top" xlink:title="This mixin implements a static create() method on ConcreteType that dynamically allocates the memory,...">
<polygon fill="#ffffff" stroke="#000000" points="1577,-42.5 1577,-72.5 1719,-72.5 1719,-42.5 1577,-42.5"/>
<text text-anchor="start" x="1585" y="-60.5" font-family="Helvetica,sans-Serif" font-size="10.00" fill="#000000">gko::EnableCreateMethod</text>
<text text-anchor="middle" x="1648" y="-49.5" font-family="Helvetica,sans-Serif" font-size="10.00" fill="#000000">&lt; ConcreteType &gt;</text>
</a>
</g>
</g>
<!-- Node25&#45;&gt;Node24 -->
<g id="edge29" class="edge">
<title>Node25&#45;&gt;Node24</title>
<path fill="none" stroke="#ffa500" stroke-dasharray="5,2" d="M1729.3615,-59.9453C1788.1505,-61.7122 1867.4339,-64.095 1927.3949,-65.8971"/>
<polygon fill="#ffa500" stroke="#ffa500" points="1729.1031,-56.436 1719.0025,-59.634 1728.8928,-63.4329 1729.1031,-56.436"/>
<text text-anchor="middle" x="1829" y="-67.5" font-family="Helvetica,sans-Serif" font-size="10.00" fill="#000000"> &lt; Composition&lt; ValueType &gt; &gt;</text>
</g>
<!-- Node26 -->
<g id="node22" class="node">
<title>Node26</title>
<g id="a_node22"><a xlink:href="classgko_1_1Transposable.html" target="_top" xlink:title="Linear operators which support transposition should implement the Transposable interface.">
<polygon fill="#ffffff" stroke="#000000" points="1962,-15 1962,-34 2066,-34 2066,-15 1962,-15"/>
<text text-anchor="middle" x="2014" y="-22" font-family="Helvetica,sans-Serif" font-size="10.00" fill="#000000">gko::Transposable</text>
</a>
</g>
</g>
<!-- Node26&#45;&gt;Node1 -->
<g id="edge30" class="edge">
<title>Node26&#45;&gt;Node1</title>
<path fill="none" stroke="#191970" d="M2069.6274,-36.1C2103.8292,-43.2322 2147.114,-52.2584 2179.3055,-58.9713"/>
<polygon fill="#191970" stroke="#191970" points="2070.2878,-32.6625 2059.7839,-34.0473 2068.8588,-39.5151 2070.2878,-32.6625"/>
</g>
</g>
</svg>
        <g id="navigator" transform="translate(0 0)" fill="#404254">
                <rect fill="#f2f5e9" fill-opacity="0.5" stroke="#606060" stroke-width=".5" x="0" y="0" width="60" height="60"/>
                <use id="zoomplus" xlink:href="#zoomPlus" x="17" y="9" onmousedown="handleZoom(evt,'in')"/>
                <use id="zoomminus" xlink:href="#zoomMin" x="42" y="9" onmousedown="handleZoom(evt,'out')"/>
                <use id="reset" xlink:href="#resetDef" x="30" y="36" onmousedown="handleReset()"/>
                <g id="arrowUp" xlink:href="#dirArrow" transform="translate(30 24)" onmousedown="handlePan(0,-1)">
                  <use xlink:href="#rim" fill="#404040">
                        <set attributeName="fill" to="#808080" begin="arrowUp.mouseover" end="arrowUp.mouseout"/>
                  </use>
                  <path fill="none" stroke="white" stroke-width="1.5" d="M0,-3.0v7 M-2.5,-0.5L0,-3.0L2.5,-0.5"/>
                </g>
                <g id="arrowRight" xlink:href="#dirArrow" transform="rotate(90) translate(36 -43)" onmousedown="handlePan(1,0)">
                  <use xlink:href="#rim" fill="#404040">
                        <set attributeName="fill" to="#808080" begin="arrowRight.mouseover" end="arrowRight.mouseout"/>
                  </use>
                  <path fill="none" stroke="white" stroke-width="1.5" d="M0,-3.0v7 M-2.5,-0.5L0,-3.0L2.5,-0.5"/>
                </g>
                <g id="arrowDown" xlink:href="#dirArrow" transform="rotate(180) translate(-30 -48)" onmousedown="handlePan(0,1)">
                  <use xlink:href="#rim" fill="#404040">
                        <set attributeName="fill" to="#808080" begin="arrowDown.mouseover" end="arrowDown.mouseout"/>
                  </use>
                  <path fill="none" stroke="white" stroke-width="1.5" d="M0,-3.0v7 M-2.5,-0.5L0,-3.0L2.5,-0.5"/>
                </g>
                <g id="arrowLeft" xlink:href="#dirArrow" transform="rotate(270) translate(-36 17)" onmousedown="handlePan(-1,0)">
                  <use xlink:href="#rim" fill="#404040">
                        <set attributeName="fill" to="#808080" begin="arrowLeft.mouseover" end="arrowLeft.mouseout"/>
                  </use>
                  <path fill="none" stroke="white" stroke-width="1.5" d="M0,-3.0v7 M-2.5,-0.5L0,-3.0L2.5,-0.5"/>
                </g>
        </g>
        <svg viewBox="0 0 15 15" width="100%" height="30px" preserveAspectRatio="xMaxYMin meet">
         <g id="arrow_out" transform="scale(0.3 0.3)">
          <a xlink:href="classgko_1_1Composition__coll__graph_org.svg" target="_base">
           <rect id="button" ry="5" rx="5" y="6" x="6" height="38" width="38"
                fill="#f2f5e9" fill-opacity="0.5" stroke="#606060" stroke-width="1.0"/>
           <path id="arrow"
             d="M 11.500037,31.436501 C 11.940474,20.09759 22.043105,11.32322 32.158766,21.979434 L 37.068811,17.246167 C 37.068811,17.246167 37.088388,32 37.088388,32 L 22.160133,31.978069 C 22.160133,31.978069 26.997745,27.140456 26.997745,27.140456 C 18.528582,18.264221 13.291696,25.230495 11.500037,31.436501 z"
             style="fill:#404040;"/>
          </a>
         </g>
        </svg>
</svg>
