<?xml version="1.0" encoding="UTF-8" standalone="no"?>
<!DOCTYPE svg PUBLIC "-//W3C//DTD SVG 1.1//EN"
 "http://www.w3.org/Graphics/SVG/1.1/DTD/svg11.dtd">
<!-- Generated by graphviz version 2.40.1 (20161225.0304)
 -->
<!-- Title: gko::stop::Iteration Pages: 1 -->
<svg width="1439pt" height="120pt"
 viewBox="0.00 0.00 1439.00 120.00" xmlns="http://www.w3.org/2000/svg" xmlns:xlink="http://www.w3.org/1999/xlink">
<g id="graph0" class="graph" transform="scale(1 1) rotate(0) translate(4 116)">
<title>gko::stop::Iteration</title>
<polygon fill="#ffffff" stroke="transparent" points="-4,4 -4,-116 1435,-116 1435,4 -4,4"/>
<!-- Node1 -->
<g id="node1" class="node">
<title>Node1</title>
<g id="a_node1"><a xlink:title="The Iteration class is a stopping criterion which stops the iteration process after a preset number o...">
<polygon fill="#bfbfbf" stroke="#000000" points="1322,-47.5 1322,-66.5 1431,-66.5 1431,-47.5 1322,-47.5"/>
<text text-anchor="middle" x="1376.5" y="-54.5" font-family="Helvetica,sans-Serif" font-size="10.00" fill="#000000">gko::stop::Iteration</text>
</a>
</g>
</g>
<!-- Node2 -->
<g id="node2" class="node">
<title>Node2</title>
<g id="a_node2"><a xlink:href="classgko_1_1EnablePolymorphicObject.html" target="_top" xlink:title=" ">
<polygon fill="#ffffff" stroke="#000000" points="1119,-42 1119,-72 1285,-72 1285,-42 1119,-42"/>
<text text-anchor="start" x="1127" y="-60" font-family="Helvetica,sans-Serif" font-size="10.00" fill="#000000">gko::EnablePolymorphicObject</text>
<text text-anchor="middle" x="1202" y="-49" font-family="Helvetica,sans-Serif" font-size="10.00" fill="#000000">&lt; Iteration, Criterion &gt;</text>
</a>
</g>
</g>
<!-- Node2&#45;&gt;Node1 -->
<g id="edge1" class="edge">
<title>Node2&#45;&gt;Node1</title>
<path fill="none" stroke="#191970" d="M1295.3909,-57C1304.4363,-57 1313.3934,-57 1321.8705,-57"/>
<polygon fill="#191970" stroke="#191970" points="1295.1615,-53.5001 1285.1615,-57 1295.1615,-60.5001 1295.1615,-53.5001"/>
</g>
<!-- Node3 -->
<g id="node3" class="node">
<title>Node3</title>
<g id="a_node3"><a xlink:href="classgko_1_1EnableAbstractPolymorphicObject.html" target="_top" xlink:title=" ">
<polygon fill="#ffffff" stroke="#000000" points="538,-66 538,-96 713,-96 713,-66 538,-66"/>
<text text-anchor="start" x="546" y="-84" font-family="Helvetica,sans-Serif" font-size="10.00" fill="#000000">gko::EnableAbstractPolymorphic</text>
<text text-anchor="middle" x="625.5" y="-73" font-family="Helvetica,sans-Serif" font-size="10.00" fill="#000000">Object&lt; Iteration, Criterion &gt;</text>
</a>
</g>
</g>
<!-- Node3&#45;&gt;Node2 -->
<g id="edge2" class="edge">
<title>Node3&#45;&gt;Node2</title>
<path fill="none" stroke="#191970" d="M723.1765,-78.4631C819.3317,-75.7403 970.3385,-70.8616 1101,-64 1106.7924,-63.6958 1112.7697,-63.3537 1118.788,-62.9886"/>
<polygon fill="#191970" stroke="#191970" points="723.0751,-74.9644 713.1773,-78.744 723.2717,-81.9617 723.0751,-74.9644"/>
</g>
<!-- Node4 -->
<g id="node4" class="node">
<title>Node4</title>
<g id="a_node4"><a xlink:title=" ">
<polygon fill="#ffffff" stroke="#bfbfbf" points="205.5,-92.5 205.5,-111.5 264.5,-111.5 264.5,-92.5 205.5,-92.5"/>
<text text-anchor="middle" x="235" y="-99.5" font-family="Helvetica,sans-Serif" font-size="10.00" fill="#000000">Criterion</text>
</a>
</g>
</g>
<!-- Node4&#45;&gt;Node3 -->
<g id="edge3" class="edge">
<title>Node4&#45;&gt;Node3</title>
<path fill="none" stroke="#191970" d="M274.7875,-100.0467C327.7827,-97.4233 424.4516,-92.5625 507,-88 516.98,-87.4484 527.4318,-86.8546 537.8184,-86.2543"/>
<polygon fill="#191970" stroke="#191970" points="274.603,-96.5514 264.7879,-100.5408 274.9485,-103.5429 274.603,-96.5514"/>
</g>
<!-- Node5 -->
<g id="node5" class="node">
<title>Node5</title>
<g id="a_node5"><a xlink:href="classgko_1_1EnableAbstractPolymorphicObject.html" target="_top" xlink:title="This mixin inherits from (a subclass of) PolymorphicObject and provides a base implementation of a ne...">
<polygon fill="#ffffff" stroke="#000000" points="138,-26.5 138,-67.5 332,-67.5 332,-26.5 138,-26.5"/>
<text text-anchor="start" x="146" y="-55.5" font-family="Helvetica,sans-Serif" font-size="10.00" fill="#000000">gko::EnableAbstractPolymorphic</text>
<text text-anchor="start" x="146" y="-44.5" font-family="Helvetica,sans-Serif" font-size="10.00" fill="#000000">Object&lt; AbstactObject, Polymorphic</text>
<text text-anchor="middle" x="235" y="-33.5" font-family="Helvetica,sans-Serif" font-size="10.00" fill="#000000">Base &gt;</text>
</a>
</g>
</g>
<!-- Node5&#45;&gt;Node3 -->
<g id="edge4" class="edge">
<title>Node5&#45;&gt;Node3</title>
<path fill="none" stroke="#ffa500" stroke-dasharray="5,2" d="M342.1667,-56.3308C403.7194,-61.69 480.0484,-68.3358 537.9691,-73.3789"/>
<polygon fill="#ffa500" stroke="#ffa500" points="342.2958,-52.8289 332.0298,-55.4482 341.6885,-59.8025 342.2958,-52.8289"/>
<text text-anchor="middle" x="428.5" y="-73" font-family="Helvetica,sans-Serif" font-size="10.00" fill="#000000"> &lt; Iteration, Criterion &gt;</text>
</g>
<!-- Node8 -->
<g id="node8" class="node">
<title>Node8</title>
<g id="a_node8"><a xlink:href="classgko_1_1EnableAbstractPolymorphicObject.html" target="_top" xlink:title=" ">
<polygon fill="#ffffff" stroke="#000000" points="525,-5.5 525,-46.5 726,-46.5 726,-5.5 525,-5.5"/>
<text text-anchor="start" x="533" y="-34.5" font-family="Helvetica,sans-Serif" font-size="10.00" fill="#000000">gko::EnableAbstractPolymorphic</text>
<text text-anchor="start" x="533" y="-23.5" font-family="Helvetica,sans-Serif" font-size="10.00" fill="#000000">Object&lt; ConcreteObject, Polymorphic</text>
<text text-anchor="middle" x="625.5" y="-12.5" font-family="Helvetica,sans-Serif" font-size="10.00" fill="#000000">Base &gt;</text>
</a>
</g>
</g>
<!-- Node5&#45;&gt;Node8 -->
<g id="edge9" class="edge">
<title>Node5&#45;&gt;Node8</title>
<path fill="none" stroke="#ffa500" stroke-dasharray="5,2" d="M342.2776,-32.6307C344.8756,-32.4043 347.4528,-32.1933 350,-32 407.8412,-27.6108 472.6938,-26.0334 524.9407,-25.5888"/>
<polygon fill="#ffa500" stroke="#ffa500" points="341.804,-29.1596 332.1735,-33.576 342.4561,-36.1292 341.804,-29.1596"/>
<text text-anchor="start" x="350" y="-46" font-family="Helvetica,sans-Serif" font-size="10.00" fill="#000000"> &lt; ConcreteObject, Polymorphic</text>
<text text-anchor="middle" x="428.5" y="-35" font-family="Helvetica,sans-Serif" font-size="10.00" fill="#000000">Base &gt;</text>
</g>
<!-- Node6 -->
<g id="node6" class="node">
<title>Node6</title>
<g id="a_node6"><a xlink:title=" ">
<polygon fill="#ffffff" stroke="#bfbfbf" points="0,-.5 0,-19.5 101,-19.5 101,-.5 0,-.5"/>
<text text-anchor="middle" x="50.5" y="-7.5" font-family="Helvetica,sans-Serif" font-size="10.00" fill="#000000">PolymorphicBase</text>
</a>
</g>
</g>
<!-- Node6&#45;&gt;Node5 -->
<g id="edge5" class="edge">
<title>Node6&#45;&gt;Node5</title>
<path fill="none" stroke="#191970" d="M108.0697,-21.5451C117.5665,-23.4496 127.6371,-25.4692 137.7881,-27.5049"/>
<polygon fill="#191970" stroke="#191970" points="108.5063,-18.0631 98.0133,-19.5284 107.1299,-24.9264 108.5063,-18.0631"/>
</g>
<!-- Node6&#45;&gt;Node8 -->
<g id="edge8" class="edge">
<title>Node6&#45;&gt;Node8</title>
<path fill="none" stroke="#191970" d="M111.1838,-11.1135C198.6526,-12.7977 365.2395,-16.3017 507,-21 512.8653,-21.1944 518.8933,-21.4075 524.9751,-21.6327"/>
<polygon fill="#191970" stroke="#191970" points="111.2378,-7.6139 101.1727,-10.922 111.1039,-14.6127 111.2378,-7.6139"/>
</g>
<!-- Node7 -->
<g id="node7" class="node">
<title>Node7</title>
<g id="a_node7"><a xlink:href="classgko_1_1EnablePolymorphicObject.html" target="_top" xlink:title="This mixin inherits from (a subclass of) PolymorphicObject and provides a base implementation of a ne...">
<polygon fill="#ffffff" stroke="#000000" points="763,-19 763,-49 968,-49 968,-19 763,-19"/>
<text text-anchor="start" x="771" y="-37" font-family="Helvetica,sans-Serif" font-size="10.00" fill="#000000">gko::EnablePolymorphicObject</text>
<text text-anchor="middle" x="865.5" y="-26" font-family="Helvetica,sans-Serif" font-size="10.00" fill="#000000">&lt; ConcreteObject, PolymorphicBase &gt;</text>
</a>
</g>
</g>
<!-- Node7&#45;&gt;Node2 -->
<g id="edge6" class="edge">
<title>Node7&#45;&gt;Node2</title>
<path fill="none" stroke="#ffa500" stroke-dasharray="5,2" d="M978.3121,-41.7108C1024.3291,-44.8561 1076.5751,-48.4271 1118.9956,-51.3266"/>
<polygon fill="#ffa500" stroke="#ffa500" points="978.505,-38.2159 968.2895,-41.0257 978.0275,-45.1996 978.505,-38.2159"/>
<text text-anchor="middle" x="1043.5" y="-52" font-family="Helvetica,sans-Serif" font-size="10.00" fill="#000000"> &lt; Iteration, Criterion &gt;</text>
</g>
<!-- Node8&#45;&gt;Node7 -->
<g id="edge7" class="edge">
<title>Node8&#45;&gt;Node7</title>
<path fill="none" stroke="#191970" d="M736.4645,-29.6988C745.2104,-29.9903 754.0206,-30.284 762.708,-30.5736"/>
<polygon fill="#191970" stroke="#191970" points="736.3495,-26.1931 726.2384,-29.3579 736.1163,-33.1892 736.3495,-26.1931"/>
</g>
</g>
</svg>
