<?xml version="1.0" encoding="UTF-8" standalone="no"?>
<!DOCTYPE svg PUBLIC "-//W3C//DTD SVG 1.1//EN"
 "http://www.w3.org/Graphics/SVG/1.1/DTD/svg11.dtd">
<!-- Generated by graphviz version 2.40.1 (20161225.0304)
 -->
<!-- Title: gko::solver::Gmres&lt; ValueType &gt; Pages: 1 -->
<svg width="2170pt" height="348pt"
 viewBox="0.00 0.00 2170.00 348.00" xmlns="http://www.w3.org/2000/svg" xmlns:xlink="http://www.w3.org/1999/xlink">
<g id="graph0" class="graph" transform="scale(1 1) rotate(0) translate(4 344)">
<title>gko::solver::Gmres&lt; ValueType &gt;</title>
<polygon fill="#ffffff" stroke="transparent" points="-4,4 -4,-344 2166,-344 2166,4 -4,4"/>
<!-- Node1 -->
<g id="node1" class="node">
<title>Node1</title>
<g id="a_node1"><a xlink:title="GMRES or the generalized minimal residual method is an iterative type Krylov subspace method which is...">
<polygon fill="#bfbfbf" stroke="#000000" points="2053,-78.5 2053,-108.5 2162,-108.5 2162,-78.5 2053,-78.5"/>
<text text-anchor="start" x="2061" y="-96.5" font-family="Helvetica,sans-Serif" font-size="10.00" fill="#000000">gko::solver::Gmres</text>
<text text-anchor="middle" x="2107.5" y="-85.5" font-family="Helvetica,sans-Serif" font-size="10.00" fill="#000000">&lt; ValueType &gt;</text>
</a>
</g>
</g>
<!-- Node2 -->
<g id="node2" class="node">
<title>Node2</title>
<g id="a_node2"><a xlink:href="classgko_1_1EnableLinOp.html" target="_top" xlink:title=" ">
<polygon fill="#ffffff" stroke="#000000" points="1871,-122.5 1871,-152.5 2016,-152.5 2016,-122.5 1871,-122.5"/>
<text text-anchor="start" x="1879" y="-140.5" font-family="Helvetica,sans-Serif" font-size="10.00" fill="#000000">gko::EnableLinOp&lt; Gmres</text>
<text text-anchor="middle" x="1943.5" y="-129.5" font-family="Helvetica,sans-Serif" font-size="10.00" fill="#000000">&lt; ValueType &gt; &gt;</text>
</a>
</g>
</g>
<!-- Node2&#45;&gt;Node1 -->
<g id="edge1" class="edge">
<title>Node2&#45;&gt;Node1</title>
<path fill="none" stroke="#191970" d="M2009.3469,-119.8338C2023.7922,-115.9582 2038.9338,-111.8958 2052.8815,-108.1538"/>
<polygon fill="#191970" stroke="#191970" points="2008.2323,-116.509 1999.4808,-122.4808 2010.0462,-123.2699 2008.2323,-116.509"/>
</g>
<!-- Node3 -->
<g id="node3" class="node">
<title>Node3</title>
<g id="a_node3"><a xlink:href="classgko_1_1EnablePolymorphicObject.html" target="_top" xlink:title=" ">
<polygon fill="#ffffff" stroke="#000000" points="1528,-212.5 1528,-242.5 1705,-242.5 1705,-212.5 1528,-212.5"/>
<text text-anchor="start" x="1536" y="-230.5" font-family="Helvetica,sans-Serif" font-size="10.00" fill="#000000">gko::EnablePolymorphicObject</text>
<text text-anchor="middle" x="1616.5" y="-219.5" font-family="Helvetica,sans-Serif" font-size="10.00" fill="#000000">&lt; Gmres&lt; ValueType &gt;, LinOp &gt;</text>
</a>
</g>
</g>
<!-- Node3&#45;&gt;Node2 -->
<g id="edge2" class="edge">
<title>Node3&#45;&gt;Node2</title>
<path fill="none" stroke="#191970" d="M1681.0886,-209.7233C1741.7898,-193.0166 1831.6323,-168.2893 1888.8618,-152.538"/>
<polygon fill="#191970" stroke="#191970" points="1679.9451,-206.4078 1671.2324,-212.436 1681.8027,-213.1569 1679.9451,-206.4078"/>
</g>
<!-- Node4 -->
<g id="node4" class="node">
<title>Node4</title>
<g id="a_node4"><a xlink:href="classgko_1_1EnableAbstractPolymorphicObject.html" target="_top" xlink:title=" ">
<polygon fill="#ffffff" stroke="#000000" points="1303,-268 1303,-309 1478,-309 1478,-268 1303,-268"/>
<text text-anchor="start" x="1311" y="-297" font-family="Helvetica,sans-Serif" font-size="10.00" fill="#000000">gko::EnableAbstractPolymorphic</text>
<text text-anchor="start" x="1311" y="-286" font-family="Helvetica,sans-Serif" font-size="10.00" fill="#000000">Object&lt; Gmres&lt; ValueType</text>
<text text-anchor="middle" x="1390.5" y="-275" font-family="Helvetica,sans-Serif" font-size="10.00" fill="#000000"> &gt;, LinOp &gt;</text>
</a>
</g>
</g>
<!-- Node4&#45;&gt;Node3 -->
<g id="edge3" class="edge">
<title>Node4&#45;&gt;Node3</title>
<path fill="none" stroke="#191970" d="M1476.5531,-265.2733C1504.7292,-257.6682 1535.2791,-249.4225 1560.6258,-242.5811"/>
<polygon fill="#191970" stroke="#191970" points="1475.4407,-261.9482 1466.6982,-267.9332 1477.2648,-268.7064 1475.4407,-261.9482"/>
</g>
<!-- Node5 -->
<g id="node5" class="node">
<title>Node5</title>
<g id="a_node5"><a xlink:href="classgko_1_1LinOp.html" target="_top" xlink:title=" ">
<polygon fill="#ffffff" stroke="#000000" points="964.5,-312 964.5,-331 1032.5,-331 1032.5,-312 964.5,-312"/>
<text text-anchor="middle" x="998.5" y="-319" font-family="Helvetica,sans-Serif" font-size="10.00" fill="#000000">gko::LinOp</text>
</a>
</g>
</g>
<!-- Node5&#45;&gt;Node4 -->
<g id="edge4" class="edge">
<title>Node5&#45;&gt;Node4</title>
<path fill="none" stroke="#191970" d="M1042.5774,-317.7894C1105.3955,-312.5011 1221.9999,-302.685 1302.805,-295.8825"/>
<polygon fill="#191970" stroke="#191970" points="1042.2728,-314.3026 1032.6017,-318.6292 1042.8601,-321.2779 1042.2728,-314.3026"/>
</g>
<!-- Node6 -->
<g id="node6" class="node">
<title>Node6</title>
<g id="a_node6"><a xlink:href="classgko_1_1EnableAbstractPolymorphicObject.html" target="_top" xlink:title=" ">
<polygon fill="#ffffff" stroke="#ff0000" points="542,-309.5 542,-339.5 717,-339.5 717,-309.5 542,-309.5"/>
<text text-anchor="start" x="550" y="-327.5" font-family="Helvetica,sans-Serif" font-size="10.00" fill="#000000">gko::EnableAbstractPolymorphic</text>
<text text-anchor="middle" x="629.5" y="-316.5" font-family="Helvetica,sans-Serif" font-size="10.00" fill="#000000">Object&lt; LinOp &gt;</text>
</a>
</g>
</g>
<!-- Node6&#45;&gt;Node5 -->
<g id="edge5" class="edge">
<title>Node6&#45;&gt;Node5</title>
<path fill="none" stroke="#191970" d="M727.7861,-323.7009C806.0277,-323.0648 910.9548,-322.2117 964.2826,-321.7782"/>
<polygon fill="#191970" stroke="#191970" points="727.3871,-320.204 717.4159,-323.7852 727.444,-327.2037 727.3871,-320.204"/>
</g>
<!-- Node11 -->
<g id="node7" class="node">
<title>Node11</title>
<g id="a_node7"><a xlink:href="classgko_1_1EnableAbstractPolymorphicObject.html" target="_top" xlink:title="This mixin inherits from (a subclass of) PolymorphicObject and provides a base implementation of a ne...">
<polygon fill="#ffffff" stroke="#000000" points="138,-223 138,-264 336,-264 336,-223 138,-223"/>
<text text-anchor="start" x="146" y="-252" font-family="Helvetica,sans-Serif" font-size="10.00" fill="#000000">gko::EnableAbstractPolymorphic</text>
<text text-anchor="start" x="146" y="-241" font-family="Helvetica,sans-Serif" font-size="10.00" fill="#000000">Object&lt; AbstractObject, Polymorphic</text>
<text text-anchor="middle" x="237" y="-230" font-family="Helvetica,sans-Serif" font-size="10.00" fill="#000000">Base &gt;</text>
</a>
</g>
</g>
<!-- Node11&#45;&gt;Node4 -->
<g id="edge8" class="edge">
<title>Node11&#45;&gt;Node4</title>
<path fill="none" stroke="#ffa500" stroke-dasharray="5,2" d="M346.2584,-261.722C348.8617,-262.0014 351.4452,-262.2616 354,-262.5 704.387,-295.1921 1124.094,-293.1152 1302.9016,-290.3076"/>
<polygon fill="#ffa500" stroke="#ffa500" points="346.4726,-258.2236 336.1375,-260.5551 345.6708,-265.1776 346.4726,-258.2236"/>
<text text-anchor="start" x="759" y="-302.5" font-family="Helvetica,sans-Serif" font-size="10.00" fill="#000000"> &lt; Gmres&lt; ValueType</text>
<text text-anchor="middle" x="813" y="-291.5" font-family="Helvetica,sans-Serif" font-size="10.00" fill="#000000"> &gt;, LinOp &gt;</text>
</g>
<!-- Node11&#45;&gt;Node6 -->
<g id="edge6" class="edge">
<title>Node11&#45;&gt;Node6</title>
<path fill="none" stroke="#ffa500" stroke-dasharray="5,2" d="M285.1891,-268.4291C305.8616,-278.0801 330.6008,-288.2812 354,-294.5 415.4942,-310.8433 486.977,-318.307 541.7169,-321.7038"/>
<polygon fill="#ffa500" stroke="#ffa500" points="286.5297,-265.1909 275.9965,-264.0498 283.5191,-271.5104 286.5297,-265.1909"/>
<text text-anchor="middle" x="432.5" y="-321.5" font-family="Helvetica,sans-Serif" font-size="10.00" fill="#000000"> &lt; LinOp &gt;</text>
</g>
<!-- Node14 -->
<g id="node10" class="node">
<title>Node14</title>
<g id="a_node10"><a xlink:href="classgko_1_1EnableAbstractPolymorphicObject.html" target="_top" xlink:title=" ">
<polygon fill="#ffffff" stroke="#000000" points="529,-202 529,-243 730,-243 730,-202 529,-202"/>
<text text-anchor="start" x="537" y="-231" font-family="Helvetica,sans-Serif" font-size="10.00" fill="#000000">gko::EnableAbstractPolymorphic</text>
<text text-anchor="start" x="537" y="-220" font-family="Helvetica,sans-Serif" font-size="10.00" fill="#000000">Object&lt; ConcreteObject, Polymorphic</text>
<text text-anchor="middle" x="629.5" y="-209" font-family="Helvetica,sans-Serif" font-size="10.00" fill="#000000">Base &gt;</text>
</a>
</g>
</g>
<!-- Node11&#45;&gt;Node14 -->
<g id="edge12" class="edge">
<title>Node11&#45;&gt;Node14</title>
<path fill="none" stroke="#ffa500" stroke-dasharray="5,2" d="M346.2032,-237.6573C403.3756,-234.5984 472.9091,-230.8781 528.78,-227.8888"/>
<polygon fill="#ffa500" stroke="#ffa500" points="345.843,-234.1715 336.0443,-238.2008 346.2171,-241.1615 345.843,-234.1715"/>
<text text-anchor="start" x="354" y="-250.5" font-family="Helvetica,sans-Serif" font-size="10.00" fill="#000000"> &lt; ConcreteObject, Polymorphic</text>
<text text-anchor="middle" x="432.5" y="-239.5" font-family="Helvetica,sans-Serif" font-size="10.00" fill="#000000">Base &gt;</text>
</g>
<!-- Node21 -->
<g id="node17" class="node">
<title>Node21</title>
<g id="a_node17"><a xlink:href="classgko_1_1EnableAbstractPolymorphicObject.html" target="_top" xlink:title=" ">
<polygon fill="#ffffff" stroke="#000000" points="531,-137 531,-178 728,-178 728,-137 531,-137"/>
<text text-anchor="start" x="539" y="-166" font-family="Helvetica,sans-Serif" font-size="10.00" fill="#000000">gko::EnableAbstractPolymorphic</text>
<text text-anchor="start" x="539" y="-155" font-family="Helvetica,sans-Serif" font-size="10.00" fill="#000000">Object&lt; ConcreteLinOp, Polymorphic</text>
<text text-anchor="middle" x="629.5" y="-144" font-family="Helvetica,sans-Serif" font-size="10.00" fill="#000000">Base &gt;</text>
</a>
</g>
</g>
<!-- Node11&#45;&gt;Node21 -->
<g id="edge22" class="edge">
<title>Node11&#45;&gt;Node21</title>
<path fill="none" stroke="#ffa500" stroke-dasharray="5,2" d="M298.9789,-219.5119C316.5708,-213.3262 335.8738,-207.1184 354,-202.5 411.8822,-187.7521 477.8883,-176.7743 530.7792,-169.3548"/>
<polygon fill="#ffa500" stroke="#ffa500" points="297.6384,-216.2741 289.4001,-222.936 299.9947,-222.8657 297.6384,-216.2741"/>
<text text-anchor="start" x="356" y="-216.5" font-family="Helvetica,sans-Serif" font-size="10.00" fill="#000000"> &lt; ConcreteLinOp, Polymorphic</text>
<text text-anchor="middle" x="432.5" y="-205.5" font-family="Helvetica,sans-Serif" font-size="10.00" fill="#000000">Base &gt;</text>
</g>
<!-- Node12 -->
<g id="node8" class="node">
<title>Node12</title>
<g id="a_node8"><a xlink:title=" ">
<polygon fill="#ffffff" stroke="#bfbfbf" points="0,-156 0,-175 101,-175 101,-156 0,-156"/>
<text text-anchor="middle" x="50.5" y="-163" font-family="Helvetica,sans-Serif" font-size="10.00" fill="#000000">PolymorphicBase</text>
</a>
</g>
</g>
<!-- Node12&#45;&gt;Node11 -->
<g id="edge7" class="edge">
<title>Node12&#45;&gt;Node11</title>
<path fill="none" stroke="#191970" d="M82.5985,-178.9246C111.5007,-191.0123 154.4214,-208.9631 187.6791,-222.8725"/>
<polygon fill="#191970" stroke="#191970" points="83.9447,-175.6939 73.3686,-175.0643 81.2437,-182.1518 83.9447,-175.6939"/>
</g>
<!-- Node12&#45;&gt;Node14 -->
<g id="edge11" class="edge">
<title>Node12&#45;&gt;Node14</title>
<path fill="none" stroke="#191970" d="M111.2279,-159.9886C200.225,-153.556 370.7292,-147.4976 511,-179.5 519.5352,-181.4473 520.8592,-184.2798 529,-187.5 541.4558,-192.427 554.9171,-197.3705 567.8153,-201.9259"/>
<polygon fill="#191970" stroke="#191970" points="110.7572,-156.514 101.047,-160.7521 111.2807,-163.4944 110.7572,-156.514"/>
</g>
<!-- Node12&#45;&gt;Node21 -->
<g id="edge21" class="edge">
<title>Node12&#45;&gt;Node21</title>
<path fill="none" stroke="#191970" d="M100.0089,-154.156C106.37,-153.0602 112.8183,-152.1252 119,-151.5 292.3378,-133.9679 336.8335,-147.0935 511,-151.5 517.4867,-151.6641 524.1712,-151.8787 530.9066,-152.1288"/>
<polygon fill="#191970" stroke="#191970" points="99.3286,-150.7224 90.1355,-155.9889 100.6063,-157.6048 99.3286,-150.7224"/>
</g>
<!-- Node13 -->
<g id="node9" class="node">
<title>Node13</title>
<g id="a_node9"><a xlink:href="classgko_1_1EnablePolymorphicObject.html" target="_top" xlink:title="This mixin inherits from (a subclass of) PolymorphicObject and provides a base implementation of a ne...">
<polygon fill="#ffffff" stroke="#000000" points="896,-207.5 896,-237.5 1101,-237.5 1101,-207.5 896,-207.5"/>
<text text-anchor="start" x="904" y="-225.5" font-family="Helvetica,sans-Serif" font-size="10.00" fill="#000000">gko::EnablePolymorphicObject</text>
<text text-anchor="middle" x="998.5" y="-214.5" font-family="Helvetica,sans-Serif" font-size="10.00" fill="#000000">&lt; ConcreteObject, PolymorphicBase &gt;</text>
</a>
</g>
</g>
<!-- Node13&#45;&gt;Node3 -->
<g id="edge9" class="edge">
<title>Node13&#45;&gt;Node3</title>
<path fill="none" stroke="#ffa500" stroke-dasharray="5,2" d="M1111.5401,-223.4146C1231.2846,-224.3834 1417.8732,-225.893 1527.5612,-226.7804"/>
<polygon fill="#ffa500" stroke="#ffa500" points="1111.2719,-219.9124 1101.2439,-223.3313 1111.2152,-226.9121 1111.2719,-219.9124"/>
<text text-anchor="start" x="1336.5" y="-239.5" font-family="Helvetica,sans-Serif" font-size="10.00" fill="#000000"> &lt; Gmres&lt; ValueType</text>
<text text-anchor="middle" x="1390.5" y="-228.5" font-family="Helvetica,sans-Serif" font-size="10.00" fill="#000000"> &gt;, LinOp &gt;</text>
</g>
<!-- Node20 -->
<g id="node16" class="node">
<title>Node20</title>
<g id="a_node16"><a xlink:href="classgko_1_1EnablePolymorphicObject.html" target="_top" xlink:title=" ">
<polygon fill="#ffffff" stroke="#000000" points="1290,-144.5 1290,-174.5 1491,-174.5 1491,-144.5 1290,-144.5"/>
<text text-anchor="start" x="1298" y="-162.5" font-family="Helvetica,sans-Serif" font-size="10.00" fill="#000000">gko::EnablePolymorphicObject</text>
<text text-anchor="middle" x="1390.5" y="-151.5" font-family="Helvetica,sans-Serif" font-size="10.00" fill="#000000">&lt; ConcreteLinOp, PolymorphicBase &gt;</text>
</a>
</g>
</g>
<!-- Node13&#45;&gt;Node20 -->
<g id="edge23" class="edge">
<title>Node13&#45;&gt;Node20</title>
<path fill="none" stroke="#ffa500" stroke-dasharray="5,2" d="M1060.5139,-204.8453C1079.1962,-199.9884 1099.8305,-195.0787 1119,-191.5 1175.1034,-181.0263 1238.4049,-173.3315 1289.7633,-168.116"/>
<polygon fill="#ffa500" stroke="#ffa500" points="1059.4245,-201.513 1050.65,-207.4509 1061.2123,-208.2808 1059.4245,-201.513"/>
<text text-anchor="start" x="1119" y="-205.5" font-family="Helvetica,sans-Serif" font-size="10.00" fill="#000000"> &lt; ConcreteLinOp, Polymorphic</text>
<text text-anchor="middle" x="1195.5" y="-194.5" font-family="Helvetica,sans-Serif" font-size="10.00" fill="#000000">Base &gt;</text>
</g>
<!-- Node14&#45;&gt;Node13 -->
<g id="edge10" class="edge">
<title>Node14&#45;&gt;Node13</title>
<path fill="none" stroke="#191970" d="M740.4059,-222.5C789.76,-222.5 847.5172,-222.5 895.8661,-222.5"/>
<polygon fill="#191970" stroke="#191970" points="740.3309,-219.0001 730.3309,-222.5 740.3308,-226.0001 740.3309,-219.0001"/>
</g>
<!-- Node15 -->
<g id="node11" class="node">
<title>Node15</title>
<g id="a_node11"><a xlink:href="classgko_1_1EnablePolymorphicAssignment.html" target="_top" xlink:title=" ">
<polygon fill="#ffffff" stroke="#000000" points="1294.5,-38.5 1294.5,-68.5 1486.5,-68.5 1486.5,-38.5 1294.5,-38.5"/>
<text text-anchor="start" x="1302.5" y="-56.5" font-family="Helvetica,sans-Serif" font-size="10.00" fill="#000000">gko::EnablePolymorphicAssignment</text>
<text text-anchor="middle" x="1390.5" y="-45.5" font-family="Helvetica,sans-Serif" font-size="10.00" fill="#000000">&lt; Gmres&lt; ValueType &gt; &gt;</text>
</a>
</g>
</g>
<!-- Node15&#45;&gt;Node2 -->
<g id="edge13" class="edge">
<title>Node15&#45;&gt;Node2</title>
<path fill="none" stroke="#191970" d="M1496.619,-69.6193C1606.4414,-86.3012 1775.0326,-111.91 1870.6638,-126.4363"/>
<polygon fill="#191970" stroke="#191970" points="1496.9216,-66.1252 1486.5094,-68.0837 1495.8703,-73.0459 1496.9216,-66.1252"/>
</g>
<!-- Node16 -->
<g id="node12" class="node">
<title>Node16</title>
<g id="a_node12"><a xlink:href="classgko_1_1ConvertibleTo.html" target="_top" xlink:title=" ">
<polygon fill="#ffffff" stroke="#000000" points="927,-.5 927,-30.5 1070,-30.5 1070,-.5 927,-.5"/>
<text text-anchor="start" x="935" y="-18.5" font-family="Helvetica,sans-Serif" font-size="10.00" fill="#000000">gko::ConvertibleTo</text>
<text text-anchor="middle" x="998.5" y="-7.5" font-family="Helvetica,sans-Serif" font-size="10.00" fill="#000000">&lt; Gmres&lt; ValueType &gt; &gt;</text>
</a>
</g>
</g>
<!-- Node16&#45;&gt;Node15 -->
<g id="edge14" class="edge">
<title>Node16&#45;&gt;Node15</title>
<path fill="none" stroke="#191970" d="M1080.5811,-23.4568C1142.9044,-29.4984 1228.7653,-37.8216 1294.3119,-44.1756"/>
<polygon fill="#191970" stroke="#191970" points="1080.6899,-19.9511 1070.3988,-22.4698 1080.0145,-26.9184 1080.6899,-19.9511"/>
</g>
<!-- Node17 -->
<g id="node13" class="node">
<title>Node17</title>
<g id="a_node13"><a xlink:href="classgko_1_1ConvertibleTo.html" target="_top" xlink:title="ConvertibleTo interface is used to mark that the implementer can be converted to the object of Result...">
<polygon fill="#ffffff" stroke="#000000" points="576,-49.5 576,-79.5 683,-79.5 683,-49.5 576,-49.5"/>
<text text-anchor="start" x="584" y="-67.5" font-family="Helvetica,sans-Serif" font-size="10.00" fill="#000000">gko::ConvertibleTo</text>
<text text-anchor="middle" x="629.5" y="-56.5" font-family="Helvetica,sans-Serif" font-size="10.00" fill="#000000">&lt; ResultType &gt;</text>
</a>
</g>
</g>
<!-- Node17&#45;&gt;Node16 -->
<g id="edge15" class="edge">
<title>Node17&#45;&gt;Node16</title>
<path fill="none" stroke="#ffa500" stroke-dasharray="5,2" d="M693.2729,-56.0315C758.283,-47.3987 858.9409,-34.0322 926.7093,-25.0332"/>
<polygon fill="#ffa500" stroke="#ffa500" points="692.608,-52.589 683.1558,-57.375 693.5295,-59.5281 692.608,-52.589"/>
<text text-anchor="middle" x="813" y="-52.5" font-family="Helvetica,sans-Serif" font-size="10.00" fill="#000000"> &lt; Gmres&lt; ValueType &gt; &gt;</text>
</g>
<!-- Node18 -->
<g id="node14" class="node">
<title>Node18</title>
<g id="a_node14"><a xlink:href="classgko_1_1EnablePolymorphicAssignment.html" target="_top" xlink:title="This mixin is used to enable a default PolymorphicObject::copy_from() implementation for objects that...">
<polygon fill="#ffffff" stroke="#000000" points="902.5,-49.5 902.5,-79.5 1094.5,-79.5 1094.5,-49.5 902.5,-49.5"/>
<text text-anchor="start" x="910.5" y="-67.5" font-family="Helvetica,sans-Serif" font-size="10.00" fill="#000000">gko::EnablePolymorphicAssignment</text>
<text text-anchor="middle" x="998.5" y="-56.5" font-family="Helvetica,sans-Serif" font-size="10.00" fill="#000000">&lt; ConcreteType, ResultType &gt;</text>
</a>
</g>
</g>
<!-- Node17&#45;&gt;Node18 -->
<g id="edge17" class="edge">
<title>Node17&#45;&gt;Node18</title>
<path fill="none" stroke="#191970" d="M693.2099,-64.5C750.7647,-64.5 836.2971,-64.5 902.198,-64.5"/>
<polygon fill="#191970" stroke="#191970" points="693.1558,-61.0001 683.1558,-64.5 693.1557,-68.0001 693.1558,-61.0001"/>
</g>
<!-- Node23 -->
<g id="node19" class="node">
<title>Node23</title>
<g id="a_node19"><a xlink:href="classgko_1_1ConvertibleTo.html" target="_top" xlink:title=" ">
<polygon fill="#ffffff" stroke="#000000" points="943.5,-98.5 943.5,-128.5 1053.5,-128.5 1053.5,-98.5 943.5,-98.5"/>
<text text-anchor="start" x="951.5" y="-116.5" font-family="Helvetica,sans-Serif" font-size="10.00" fill="#000000">gko::ConvertibleTo</text>
<text text-anchor="middle" x="998.5" y="-105.5" font-family="Helvetica,sans-Serif" font-size="10.00" fill="#000000">&lt; ConcreteLinOp &gt;</text>
</a>
</g>
</g>
<!-- Node17&#45;&gt;Node23 -->
<g id="edge26" class="edge">
<title>Node17&#45;&gt;Node23</title>
<path fill="none" stroke="#ffa500" stroke-dasharray="5,2" d="M693.2492,-72.9653C763.7965,-82.3334 876.3437,-97.2787 943.2718,-106.1662"/>
<polygon fill="#ffa500" stroke="#ffa500" points="693.5295,-69.4719 683.1558,-71.625 692.608,-76.411 693.5295,-69.4719"/>
<text text-anchor="middle" x="813" y="-98.5" font-family="Helvetica,sans-Serif" font-size="10.00" fill="#000000"> &lt; ConcreteLinOp &gt;</text>
</g>
<!-- Node18&#45;&gt;Node15 -->
<g id="edge16" class="edge">
<title>Node18&#45;&gt;Node15</title>
<path fill="none" stroke="#ffa500" stroke-dasharray="5,2" d="M1105.126,-55.1975C1109.8124,-54.9319 1114.4532,-54.6967 1119,-54.5 1177.1582,-51.9836 1242.3893,-51.6624 1294.3338,-52.0041"/>
<polygon fill="#ffa500" stroke="#ffa500" points="1104.5817,-51.724 1094.8126,-55.8245 1105.0066,-58.7111 1104.5817,-51.724"/>
<text text-anchor="middle" x="1195.5" y="-57.5" font-family="Helvetica,sans-Serif" font-size="10.00" fill="#000000"> &lt; Gmres&lt; ValueType &gt; &gt;</text>
</g>
<!-- Node22 -->
<g id="node18" class="node">
<title>Node22</title>
<g id="a_node18"><a xlink:href="classgko_1_1EnablePolymorphicAssignment.html" target="_top" xlink:title=" ">
<polygon fill="#ffffff" stroke="#000000" points="1294.5,-95.5 1294.5,-125.5 1486.5,-125.5 1486.5,-95.5 1294.5,-95.5"/>
<text text-anchor="start" x="1302.5" y="-113.5" font-family="Helvetica,sans-Serif" font-size="10.00" fill="#000000">gko::EnablePolymorphicAssignment</text>
<text text-anchor="middle" x="1390.5" y="-102.5" font-family="Helvetica,sans-Serif" font-size="10.00" fill="#000000">&lt; ConcreteLinOp &gt;</text>
</a>
</g>
</g>
<!-- Node18&#45;&gt;Node22 -->
<g id="edge27" class="edge">
<title>Node18&#45;&gt;Node22</title>
<path fill="none" stroke="#ffa500" stroke-dasharray="5,2" d="M1104.7161,-76.213C1155.3823,-81.8837 1216.8434,-88.8835 1272,-95.5 1279.3093,-96.3768 1286.8701,-97.2989 1294.4722,-98.2368"/>
<polygon fill="#ffa500" stroke="#ffa500" points="1105.0588,-72.7296 1094.7319,-75.0971 1104.2812,-79.6863 1105.0588,-72.7296"/>
<text text-anchor="middle" x="1195.5" y="-98.5" font-family="Helvetica,sans-Serif" font-size="10.00" fill="#000000"> &lt; ConcreteLinOp &gt;</text>
</g>
<!-- Node19 -->
<g id="node15" class="node">
<title>Node19</title>
<g id="a_node15"><a xlink:href="classgko_1_1EnableLinOp.html" target="_top" xlink:title="The EnableLinOp mixin can be used to provide sensible default implementations of the majority of the ...">
<polygon fill="#ffffff" stroke="#000000" points="1538.5,-122.5 1538.5,-152.5 1694.5,-152.5 1694.5,-122.5 1538.5,-122.5"/>
<text text-anchor="start" x="1546.5" y="-140.5" font-family="Helvetica,sans-Serif" font-size="10.00" fill="#000000">gko::EnableLinOp&lt; Concrete</text>
<text text-anchor="middle" x="1616.5" y="-129.5" font-family="Helvetica,sans-Serif" font-size="10.00" fill="#000000">LinOp, PolymorphicBase &gt;</text>
</a>
</g>
</g>
<!-- Node19&#45;&gt;Node2 -->
<g id="edge18" class="edge">
<title>Node19&#45;&gt;Node2</title>
<path fill="none" stroke="#ffa500" stroke-dasharray="5,2" d="M1705.0396,-137.5C1757.0173,-137.5 1821.8945,-137.5 1870.8504,-137.5"/>
<polygon fill="#ffa500" stroke="#ffa500" points="1704.8247,-134.0001 1694.8246,-137.5 1704.8246,-141.0001 1704.8247,-134.0001"/>
<text text-anchor="middle" x="1788" y="-140.5" font-family="Helvetica,sans-Serif" font-size="10.00" fill="#000000"> &lt; Gmres&lt; ValueType &gt; &gt;</text>
</g>
<!-- Node20&#45;&gt;Node19 -->
<g id="edge19" class="edge">
<title>Node20&#45;&gt;Node19</title>
<path fill="none" stroke="#191970" d="M1501.2848,-148.7156C1513.7938,-147.4979 1526.339,-146.2767 1538.307,-145.1117"/>
<polygon fill="#191970" stroke="#191970" points="1500.8861,-145.2378 1491.2723,-149.6903 1501.5644,-152.2049 1500.8861,-145.2378"/>
</g>
<!-- Node21&#45;&gt;Node20 -->
<g id="edge20" class="edge">
<title>Node21&#45;&gt;Node20</title>
<path fill="none" stroke="#191970" d="M738.6247,-157.7868C886.0762,-158.1743 1146.895,-158.8598 1289.8489,-159.2355"/>
<polygon fill="#191970" stroke="#191970" points="738.2165,-154.2858 728.2073,-157.7594 738.198,-161.2858 738.2165,-154.2858"/>
</g>
<!-- Node22&#45;&gt;Node19 -->
<g id="edge24" class="edge">
<title>Node22&#45;&gt;Node19</title>
<path fill="none" stroke="#191970" d="M1496.787,-123.198C1510.7281,-124.8635 1524.806,-126.5454 1538.1678,-128.1417"/>
<polygon fill="#191970" stroke="#191970" points="1497.0167,-119.7006 1486.6721,-121.9896 1496.1862,-126.6512 1497.0167,-119.7006"/>
</g>
<!-- Node23&#45;&gt;Node22 -->
<g id="edge25" class="edge">
<title>Node23&#45;&gt;Node22</title>
<path fill="none" stroke="#191970" d="M1064.0239,-112.9985C1126.9342,-112.5171 1222.7021,-111.7842 1294.2698,-111.2365"/>
<polygon fill="#191970" stroke="#191970" points="1063.8055,-109.5 1053.8326,-113.0765 1063.8591,-116.4998 1063.8055,-109.5"/>
</g>
<!-- Node24 -->
<g id="node20" class="node">
<title>Node24</title>
<g id="a_node20"><a xlink:href="classgko_1_1Preconditionable.html" target="_top" xlink:title="A LinOp implementing this interface can be preconditioned.">
<polygon fill="#ffffff" stroke="#000000" points="1882.5,-84 1882.5,-103 2004.5,-103 2004.5,-84 1882.5,-84"/>
<text text-anchor="middle" x="1943.5" y="-91" font-family="Helvetica,sans-Serif" font-size="10.00" fill="#000000">gko::Preconditionable</text>
</a>
</g>
</g>
<!-- Node24&#45;&gt;Node1 -->
<g id="edge28" class="edge">
<title>Node24&#45;&gt;Node1</title>
<path fill="none" stroke="#191970" d="M2014.72,-93.5C2027.5047,-93.5 2040.6451,-93.5 2052.869,-93.5"/>
<polygon fill="#191970" stroke="#191970" points="2014.5676,-90.0001 2004.5675,-93.5 2014.5675,-97.0001 2014.5676,-90.0001"/>
</g>
<!-- Node25 -->
<g id="node21" class="node">
<title>Node25</title>
<g id="a_node21"><a xlink:href="classgko_1_1Transposable.html" target="_top" xlink:title="Linear operators which support transposition should implement the Transposable interface.">
<polygon fill="#ffffff" stroke="#000000" points="1891.5,-46 1891.5,-65 1995.5,-65 1995.5,-46 1891.5,-46"/>
<text text-anchor="middle" x="1943.5" y="-53" font-family="Helvetica,sans-Serif" font-size="10.00" fill="#000000">gko::Transposable</text>
</a>
</g>
</g>
<!-- Node25&#45;&gt;Node1 -->
<g id="edge29" class="edge">
<title>Node25&#45;&gt;Node1</title>
<path fill="none" stroke="#191970" d="M1994.8421,-67.3963C2013.2652,-71.6651 2034.1002,-76.4927 2052.7978,-80.8251"/>
<polygon fill="#191970" stroke="#191970" points="1995.4161,-63.9367 1984.8841,-65.089 1993.836,-70.756 1995.4161,-63.9367"/>
</g>
</g>
</svg>
