<?xml version="1.0" encoding="UTF-8" standalone="no"?>
<!DOCTYPE svg PUBLIC "-//W3C//DTD SVG 1.1//EN"
 "http://www.w3.org/Graphics/SVG/1.1/DTD/svg11.dtd">
<!-- Generated by graphviz version 2.40.1 (20161225.0304)
 -->
<!-- Title: Solvers Pages: 1 -->
<svg width="298pt" height="111pt"
 viewBox="0.00 0.00 298.00 110.85" xmlns="http://www.w3.org/2000/svg" xmlns:xlink="http://www.w3.org/1999/xlink">
<g id="graph0" class="graph" transform="scale(1 1) rotate(0) translate(4 106.8521)">
<title>Solvers</title>
<polygon fill="#ffffff" stroke="transparent" points="-4,4 -4,-106.8521 294,-106.8521 294,4 -4,4"/>
<!-- Node2 -->
<g id="node1" class="node">
<title>Node2</title>
<g id="a_node1"><a xlink:href="group__LinOp.html" target="_top" xlink:title="A module dedicated to the implementation and usage of the Linear operators in Ginkgo.">
<polygon fill="#ffffff" stroke="#000000" points="98,-71.0489 0,-71.0489 0,-52.0489 98,-52.0489 98,-71.0489"/>
<text text-anchor="middle" x="49" y="-59.0489" font-family="Helvetica,sans-Serif" font-size="10.00" fill="#000000">Linear Operators</text>
</a>
</g>
</g>
<!-- Node1 -->
<g id="node2" class="node">
<title>Node1</title>
<g id="a_node2"><a xlink:title="A module dedicated to the implementation and usage of the Solvers in Ginkgo.">
<polygon fill="#bfbfbf" stroke="#000000" points="290,-71.0489 237,-71.0489 237,-52.0489 290,-52.0489 290,-71.0489"/>
<text text-anchor="middle" x="263.5" y="-59.0489" font-family="Helvetica,sans-Serif" font-size="10.00" fill="#000000">Solvers</text>
</a>
</g>
</g>
<!-- Node2&#45;&gt;Node1 -->
<g id="edge1" class="edge">
<title>Node2&#45;&gt;Node1</title>
<path fill="none" stroke="#000000" d="M72.7617,-76.098C85.1634,-82.8466 100.8724,-90.1218 116,-93.5489 160.6464,-103.6636 175.4283,-107.5886 219,-93.5489 232.5858,-89.1713 245.5286,-78.9374 253.9176,-71.213"/>
<polygon fill="#000000" stroke="#000000" points="74.4107,-73.0095 63.9871,-71.1123 70.9526,-79.0956 74.4107,-73.0095"/>
</g>
<!-- Node1&#45;&gt;Node2 -->
<g id="edge2" class="edge">
<title>Node1&#45;&gt;Node2</title>
<path fill="none" stroke="#ffa500" stroke-dasharray="5,2" d="M258.1085,-51.7684C250.9489,-39.9188 237.0737,-20.5497 219,-12.5489 177.1403,5.9813 159.515,1.6654 116,-12.5489 92.4387,-20.2453 70.293,-39.7191 58.2967,-51.6701"/>
<text text-anchor="middle" x="167.5" y="-81.5489" font-family="Helvetica,sans-Serif" font-size="10.00" fill="#000000">gko::solver::Bicgstab</text>
<text text-anchor="middle" x="167.5" y="-70.5489" font-family="Helvetica,sans-Serif" font-size="10.00" fill="#000000">gko::solver::Cg</text>
<text text-anchor="middle" x="167.5" y="-59.5489" font-family="Helvetica,sans-Serif" font-size="10.00" fill="#000000">gko::solver::Cgs</text>
<text text-anchor="middle" x="167.5" y="-48.5489" font-family="Helvetica,sans-Serif" font-size="10.00" fill="#000000">gko::solver::Fcg</text>
<text text-anchor="middle" x="167.5" y="-37.5489" font-family="Helvetica,sans-Serif" font-size="10.00" fill="#000000">gko::solver::Gmres</text>
<text text-anchor="middle" x="167.5" y="-26.5489" font-family="Helvetica,sans-Serif" font-size="10.00" fill="#000000">gko::solver::LowerTrs</text>
<text text-anchor="middle" x="167.5" y="-15.5489" font-family="Helvetica,sans-Serif" font-size="10.00" fill="#000000">gko::solver::UpperTrs</text>
</g>
</g>
</svg>
