<?xml version="1.0" encoding="UTF-8" standalone="no"?>
<!DOCTYPE svg PUBLIC "-//W3C//DTD SVG 1.1//EN"
 "http://www.w3.org/Graphics/SVG/1.1/DTD/svg11.dtd">
<!-- Generated by graphviz version 2.40.1 (20161225.0304)
 -->
<!-- Title: Graphical Class Hierarchy Pages: 1 -->
<svg width="360pt" height="235pt"
 viewBox="0.00 0.00 360.00 235.00" xmlns="http://www.w3.org/2000/svg" xmlns:xlink="http://www.w3.org/1999/xlink">
<g id="graph0" class="graph" transform="scale(1 1) rotate(0) translate(4 231)">
<title>Graphical Class Hierarchy</title>
<polygon fill="#ffffff" stroke="transparent" points="-4,4 -4,-231 356,-231 356,4 -4,4"/>
<!-- Node0 -->
<g id="node1" class="node">
<title>Node0</title>
<g id="a_node1"><a xlink:href="classgko_1_1matrix_1_1Csr_1_1strategy__type.html" target="_top" xlink:title=" ">
<polygon fill="#ffffff" stroke="#000000" points="0,-98.5 0,-128.5 158,-128.5 158,-98.5 0,-98.5"/>
<text text-anchor="start" x="8" y="-116.5" font-family="Helvetica,sans-Serif" font-size="10.00" fill="#000000">gko::matrix::Csr&lt; ValueType,</text>
<text text-anchor="middle" x="79" y="-105.5" font-family="Helvetica,sans-Serif" font-size="10.00" fill="#000000"> IndexType &gt;::strategy_type</text>
</a>
</g>
</g>
<!-- Node1 -->
<g id="node2" class="node">
<title>Node1</title>
<g id="a_node2"><a xlink:href="classgko_1_1matrix_1_1Csr_1_1automatical.html" target="_top" xlink:title=" ">
<polygon fill="#ffffff" stroke="#000000" points="194,-196.5 194,-226.5 352,-226.5 352,-196.5 194,-196.5"/>
<text text-anchor="start" x="202" y="-214.5" font-family="Helvetica,sans-Serif" font-size="10.00" fill="#000000">gko::matrix::Csr&lt; ValueType,</text>
<text text-anchor="middle" x="273" y="-203.5" font-family="Helvetica,sans-Serif" font-size="10.00" fill="#000000"> IndexType &gt;::automatical</text>
</a>
</g>
</g>
<!-- Node0&#45;&gt;Node1 -->
<g id="edge1" class="edge">
<title>Node0&#45;&gt;Node1</title>
<path fill="none" stroke="#191970" d="M106.8836,-134.5816C129.4214,-150.8292 162.475,-172.9137 194,-187.5 201.1551,-190.8106 208.8821,-193.8064 216.6052,-196.47"/>
<polygon fill="#191970" stroke="#191970" points="108.9258,-131.7391 98.7857,-128.6682 104.7976,-137.3922 108.9258,-131.7391"/>
</g>
<!-- Node2 -->
<g id="node3" class="node">
<title>Node2</title>
<g id="a_node3"><a xlink:href="classgko_1_1matrix_1_1Csr_1_1classical.html" target="_top" xlink:title=" ">
<polygon fill="#ffffff" stroke="#000000" points="194,-147.5 194,-177.5 352,-177.5 352,-147.5 194,-147.5"/>
<text text-anchor="start" x="202" y="-165.5" font-family="Helvetica,sans-Serif" font-size="10.00" fill="#000000">gko::matrix::Csr&lt; ValueType,</text>
<text text-anchor="middle" x="273" y="-154.5" font-family="Helvetica,sans-Serif" font-size="10.00" fill="#000000"> IndexType &gt;::classical</text>
</a>
</g>
</g>
<!-- Node0&#45;&gt;Node2 -->
<g id="edge2" class="edge">
<title>Node0&#45;&gt;Node2</title>
<path fill="none" stroke="#191970" d="M148.4829,-131.0498C169.7865,-136.4306 193.0207,-142.299 213.5878,-147.4938"/>
<polygon fill="#191970" stroke="#191970" points="149.0775,-127.5901 138.5248,-128.5346 147.3632,-134.377 149.0775,-127.5901"/>
</g>
<!-- Node3 -->
<g id="node4" class="node">
<title>Node3</title>
<g id="a_node4"><a xlink:href="classgko_1_1matrix_1_1Csr_1_1cusparse.html" target="_top" xlink:title=" ">
<polygon fill="#ffffff" stroke="#000000" points="194,-98.5 194,-128.5 352,-128.5 352,-98.5 194,-98.5"/>
<text text-anchor="start" x="202" y="-116.5" font-family="Helvetica,sans-Serif" font-size="10.00" fill="#000000">gko::matrix::Csr&lt; ValueType,</text>
<text text-anchor="middle" x="273" y="-105.5" font-family="Helvetica,sans-Serif" font-size="10.00" fill="#000000"> IndexType &gt;::cusparse</text>
</a>
</g>
</g>
<!-- Node0&#45;&gt;Node3 -->
<g id="edge3" class="edge">
<title>Node0&#45;&gt;Node3</title>
<path fill="none" stroke="#191970" d="M168.4359,-113.5C176.8837,-113.5 185.4084,-113.5 193.7517,-113.5"/>
<polygon fill="#191970" stroke="#191970" points="168.1871,-110.0001 158.187,-113.5 168.187,-117.0001 168.1871,-110.0001"/>
</g>
<!-- Node4 -->
<g id="node5" class="node">
<title>Node4</title>
<g id="a_node5"><a xlink:href="classgko_1_1matrix_1_1Csr_1_1load__balance.html" target="_top" xlink:title=" ">
<polygon fill="#ffffff" stroke="#000000" points="194,-49.5 194,-79.5 352,-79.5 352,-49.5 194,-49.5"/>
<text text-anchor="start" x="202" y="-67.5" font-family="Helvetica,sans-Serif" font-size="10.00" fill="#000000">gko::matrix::Csr&lt; ValueType,</text>
<text text-anchor="middle" x="273" y="-56.5" font-family="Helvetica,sans-Serif" font-size="10.00" fill="#000000"> IndexType &gt;::load_balance</text>
</a>
</g>
</g>
<!-- Node0&#45;&gt;Node4 -->
<g id="edge4" class="edge">
<title>Node0&#45;&gt;Node4</title>
<path fill="none" stroke="#191970" d="M148.4829,-95.9502C169.7865,-90.5694 193.0207,-84.701 213.5878,-79.5062"/>
<polygon fill="#191970" stroke="#191970" points="147.3632,-92.623 138.5248,-98.4654 149.0775,-99.4099 147.3632,-92.623"/>
</g>
<!-- Node5 -->
<g id="node6" class="node">
<title>Node5</title>
<g id="a_node6"><a xlink:href="classgko_1_1matrix_1_1Csr_1_1merge__path.html" target="_top" xlink:title=" ">
<polygon fill="#ffffff" stroke="#000000" points="194,-.5 194,-30.5 352,-30.5 352,-.5 194,-.5"/>
<text text-anchor="start" x="202" y="-18.5" font-family="Helvetica,sans-Serif" font-size="10.00" fill="#000000">gko::matrix::Csr&lt; ValueType,</text>
<text text-anchor="middle" x="273" y="-7.5" font-family="Helvetica,sans-Serif" font-size="10.00" fill="#000000"> IndexType &gt;::merge_path</text>
</a>
</g>
</g>
<!-- Node0&#45;&gt;Node5 -->
<g id="edge5" class="edge">
<title>Node0&#45;&gt;Node5</title>
<path fill="none" stroke="#191970" d="M107.6843,-92.3249C130.2517,-76.4138 162.9656,-54.9607 194,-40.5 201.8237,-36.8545 210.3197,-33.5445 218.743,-30.613"/>
<polygon fill="#191970" stroke="#191970" points="105.366,-89.6796 99.2614,-98.339 109.4336,-95.3765 105.366,-89.6796"/>
</g>
</g>
</svg>
