<?xml version="1.0" encoding="UTF-8" standalone="no"?>
<!DOCTYPE svg PUBLIC "-//W3C//DTD SVG 1.1//EN"
 "http://www.w3.org/Graphics/SVG/1.1/DTD/svg11.dtd">
<!-- Generated by graphviz version 2.40.1 (20161225.0304)
 -->
<!-- Title: gko::preconditioner::Ilu&lt; LSolverType, USolverType, ReverseApply, IndexType &gt;::parameters_type Pages: 1 -->
<svg width="797pt" height="199pt"
 viewBox="0.00 0.00 797.00 198.50" xmlns="http://www.w3.org/2000/svg" xmlns:xlink="http://www.w3.org/1999/xlink">
<g id="graph0" class="graph" transform="scale(1 1) rotate(0) translate(4 194.5)">
<title>gko::preconditioner::Ilu&lt; LSolverType, USolverType, ReverseApply, IndexType &gt;::parameters_type</title>
<polygon fill="#ffffff" stroke="transparent" points="-4,4 -4,-194.5 793,-194.5 793,4 -4,4"/>
<!-- Node1 -->
<g id="node1" class="node">
<title>Node1</title>
<g id="a_node1"><a xlink:title=" ">
<polygon fill="#bfbfbf" stroke="#000000" points="619,-62.5 619,-114.5 789,-114.5 789,-62.5 619,-62.5"/>
<text text-anchor="start" x="627" y="-102.5" font-family="Helvetica,sans-Serif" font-size="10.00" fill="#000000">gko::preconditioner</text>
<text text-anchor="start" x="627" y="-91.5" font-family="Helvetica,sans-Serif" font-size="10.00" fill="#000000">::Ilu&lt; LSolverType,</text>
<text text-anchor="start" x="627" y="-80.5" font-family="Helvetica,sans-Serif" font-size="10.00" fill="#000000"> USolverType, ReverseApply,</text>
<text text-anchor="middle" x="704" y="-69.5" font-family="Helvetica,sans-Serif" font-size="10.00" fill="#000000"> IndexType &gt;::parameters_type</text>
</a>
</g>
</g>
<!-- Node2 -->
<g id="node2" class="node">
<title>Node2</title>
<g id="a_node2"><a xlink:href="structgko_1_1enable__parameters__type.html" target="_top" xlink:title=" ">
<polygon fill="#ffffff" stroke="#000000" points="332.5,-148 332.5,-189 473.5,-189 473.5,-148 332.5,-148"/>
<text text-anchor="start" x="340.5" y="-177" font-family="Helvetica,sans-Serif" font-size="10.00" fill="#000000">gko::enable_parameters</text>
<text text-anchor="start" x="340.5" y="-166" font-family="Helvetica,sans-Serif" font-size="10.00" fill="#000000">_type&lt; parameters_type,</text>
<text text-anchor="middle" x="403" y="-155" font-family="Helvetica,sans-Serif" font-size="10.00" fill="#000000"> Factory &gt;</text>
</a>
</g>
</g>
<!-- Node2&#45;&gt;Node1 -->
<g id="edge1" class="edge">
<title>Node2&#45;&gt;Node1</title>
<path fill="none" stroke="#191970" d="M483.7441,-149.4804C519.7415,-140.7536 562.6021,-130.0226 601,-119.5 606.8533,-117.8959 612.8805,-116.1995 618.9431,-114.4601"/>
<polygon fill="#191970" stroke="#191970" points="482.6809,-146.1364 473.7824,-151.8868 484.3247,-152.9407 482.6809,-146.1364"/>
</g>
<!-- Node3 -->
<g id="node3" class="node">
<title>Node3</title>
<g id="a_node3"><a xlink:href="structgko_1_1enable__parameters__type.html" target="_top" xlink:title="The enable_parameters_type mixin is used to create a base implementation of the factory parameters st...">
<polygon fill="#ffffff" stroke="#000000" points="0,-148 0,-189 179,-189 179,-148 0,-148"/>
<text text-anchor="start" x="8" y="-177" font-family="Helvetica,sans-Serif" font-size="10.00" fill="#000000">gko::enable_parameters</text>
<text text-anchor="start" x="8" y="-166" font-family="Helvetica,sans-Serif" font-size="10.00" fill="#000000">_type&lt; ConcreteParametersType,</text>
<text text-anchor="middle" x="89.5" y="-155" font-family="Helvetica,sans-Serif" font-size="10.00" fill="#000000"> Factory &gt;</text>
</a>
</g>
</g>
<!-- Node3&#45;&gt;Node2 -->
<g id="edge2" class="edge">
<title>Node3&#45;&gt;Node2</title>
<path fill="none" stroke="#ffa500" stroke-dasharray="5,2" d="M189.4396,-168.5C235.9379,-168.5 290.1492,-168.5 332.317,-168.5"/>
<polygon fill="#ffa500" stroke="#ffa500" points="189.3366,-165.0001 179.3365,-168.5 189.3365,-172.0001 189.3366,-165.0001"/>
<text text-anchor="start" x="203" y="-182.5" font-family="Helvetica,sans-Serif" font-size="10.00" fill="#000000"> &lt; parameters_type,</text>
<text text-anchor="middle" x="253.5" y="-171.5" font-family="Helvetica,sans-Serif" font-size="10.00" fill="#000000"> Factory &gt;</text>
</g>
<!-- Node4 -->
<g id="node4" class="node">
<title>Node4</title>
<g id="a_node4"><a xlink:title=" ">
<polygon fill="#ffffff" stroke="#bfbfbf" points="328,-98.5 328,-128.5 478,-128.5 478,-98.5 328,-98.5"/>
<text text-anchor="start" x="336" y="-116.5" font-family="Helvetica,sans-Serif" font-size="10.00" fill="#000000">std::shared_ptr&lt; typename</text>
<text text-anchor="middle" x="403" y="-105.5" font-family="Helvetica,sans-Serif" font-size="10.00" fill="#000000"> u_solver_type::Factory &gt;</text>
</a>
</g>
</g>
<!-- Node4&#45;&gt;Node1 -->
<g id="edge3" class="edge">
<title>Node4&#45;&gt;Node1</title>
<path fill="none" stroke="#9a32cd" stroke-dasharray="5,2" d="M488.3881,-106.408C529.2563,-103.0136 578.0602,-98.9601 618.892,-95.5688"/>
<polygon fill="#9a32cd" stroke="#9a32cd" points="487.8545,-102.9401 478.1786,-107.2559 488.434,-109.9161 487.8545,-102.9401"/>
<text text-anchor="middle" x="548.5" y="-107.5" font-family="Helvetica,sans-Serif" font-size="10.00" fill="#000000"> u_solver_factory</text>
</g>
<!-- Node5 -->
<g id="node5" class="node">
<title>Node5</title>
<g id="a_node5"><a xlink:title="STL class.">
<polygon fill="#ffffff" stroke="#bfbfbf" points="30.5,-55 30.5,-74 148.5,-74 148.5,-55 30.5,-55"/>
<text text-anchor="middle" x="89.5" y="-62" font-family="Helvetica,sans-Serif" font-size="10.00" fill="#000000">std::shared_ptr&lt; T &gt;</text>
</a>
</g>
</g>
<!-- Node5&#45;&gt;Node4 -->
<g id="edge4" class="edge">
<title>Node5&#45;&gt;Node4</title>
<path fill="none" stroke="#ffa500" stroke-dasharray="5,2" d="M135.9342,-76.5025C154.7876,-81.0602 176.8377,-85.9925 197,-89.5 240.0997,-96.9978 288.6907,-102.7846 327.8522,-106.7957"/>
<polygon fill="#ffa500" stroke="#ffa500" points="136.6544,-73.0754 126.1084,-74.0918 134.9864,-79.8738 136.6544,-73.0754"/>
<text text-anchor="start" x="199" y="-118.5" font-family="Helvetica,sans-Serif" font-size="10.00" fill="#000000"> &lt; typename u_solver</text>
<text text-anchor="middle" x="253.5" y="-107.5" font-family="Helvetica,sans-Serif" font-size="10.00" fill="#000000">_type::Factory &gt;</text>
</g>
<!-- Node6 -->
<g id="node6" class="node">
<title>Node6</title>
<g id="a_node6"><a xlink:title=" ">
<polygon fill="#ffffff" stroke="#bfbfbf" points="328,-49.5 328,-79.5 478,-79.5 478,-49.5 328,-49.5"/>
<text text-anchor="start" x="336" y="-67.5" font-family="Helvetica,sans-Serif" font-size="10.00" fill="#000000">std::shared_ptr&lt; typename</text>
<text text-anchor="middle" x="403" y="-56.5" font-family="Helvetica,sans-Serif" font-size="10.00" fill="#000000"> l_solver_type::Factory &gt;</text>
</a>
</g>
</g>
<!-- Node5&#45;&gt;Node6 -->
<g id="edge6" class="edge">
<title>Node5&#45;&gt;Node6</title>
<path fill="none" stroke="#ffa500" stroke-dasharray="5,2" d="M158.9227,-64.5C208.9837,-64.5 276.4975,-64.5 327.8295,-64.5"/>
<polygon fill="#ffa500" stroke="#ffa500" points="158.8355,-61.0001 148.8355,-64.5 158.8355,-68.0001 158.8355,-61.0001"/>
<text text-anchor="start" x="200.5" y="-78.5" font-family="Helvetica,sans-Serif" font-size="10.00" fill="#000000"> &lt; typename l_solver</text>
<text text-anchor="middle" x="253.5" y="-67.5" font-family="Helvetica,sans-Serif" font-size="10.00" fill="#000000">_type::Factory &gt;</text>
</g>
<!-- Node7 -->
<g id="node7" class="node">
<title>Node7</title>
<g id="a_node7"><a xlink:title=" ">
<polygon fill="#ffffff" stroke="#bfbfbf" points="343.5,-.5 343.5,-30.5 462.5,-30.5 462.5,-.5 343.5,-.5"/>
<text text-anchor="start" x="351.5" y="-18.5" font-family="Helvetica,sans-Serif" font-size="10.00" fill="#000000">std::shared_ptr&lt; gko</text>
<text text-anchor="middle" x="403" y="-7.5" font-family="Helvetica,sans-Serif" font-size="10.00" fill="#000000">::LinOpFactory &gt;</text>
</a>
</g>
</g>
<!-- Node5&#45;&gt;Node7 -->
<g id="edge8" class="edge">
<title>Node5&#45;&gt;Node7</title>
<path fill="none" stroke="#ffa500" stroke-dasharray="5,2" d="M158.9029,-53.6523C214.2042,-45.0087 290.8126,-33.0349 343.3746,-24.8194"/>
<polygon fill="#ffa500" stroke="#ffa500" points="158.175,-50.2235 148.8355,-55.2259 159.2561,-57.1396 158.175,-50.2235"/>
<text text-anchor="middle" x="253.5" y="-50.5" font-family="Helvetica,sans-Serif" font-size="10.00" fill="#000000"> &lt; gko::LinOpFactory &gt;</text>
</g>
<!-- Node6&#45;&gt;Node1 -->
<g id="edge5" class="edge">
<title>Node6&#45;&gt;Node1</title>
<path fill="none" stroke="#9a32cd" stroke-dasharray="5,2" d="M488.4528,-68.6406C523.38,-70.6032 564.158,-73.24 601,-76.5 606.8282,-77.0157 612.8366,-77.5939 618.8856,-78.2104"/>
<polygon fill="#9a32cd" stroke="#9a32cd" points="488.4679,-65.1362 478.29,-68.0792 488.0817,-72.1256 488.4679,-65.1362"/>
<text text-anchor="middle" x="548.5" y="-79.5" font-family="Helvetica,sans-Serif" font-size="10.00" fill="#000000"> l_solver_factory</text>
</g>
<!-- Node7&#45;&gt;Node1 -->
<g id="edge7" class="edge">
<title>Node7&#45;&gt;Node1</title>
<path fill="none" stroke="#9a32cd" stroke-dasharray="5,2" d="M472.8172,-26.4764C510.9778,-33.0813 558.91,-42.3667 601,-53.5 610.9507,-56.1321 621.3328,-59.2298 631.5116,-62.4755"/>
<polygon fill="#9a32cd" stroke="#9a32cd" points="473.2788,-23.0047 462.8322,-24.7706 472.0999,-29.9047 473.2788,-23.0047"/>
<text text-anchor="middle" x="548.5" y="-56.5" font-family="Helvetica,sans-Serif" font-size="10.00" fill="#000000"> factorization_factory</text>
</g>
</g>
</svg>
