<?xml version="1.0" encoding="UTF-8" standalone="no"?>
<!DOCTYPE svg PUBLIC "-//W3C//DTD SVG 1.1//EN"
 "http://www.w3.org/Graphics/SVG/1.1/DTD/svg11.dtd">
<!-- Generated by graphviz version 2.40.1 (20161225.0304)
 -->
<!-- Title: gko::stop::ResidualNormReduction&lt; ValueType &gt;::parameters_type Pages: 1 -->
<svg width="201pt" height="218pt"
 viewBox="0.00 0.00 201.00 218.00" xmlns="http://www.w3.org/2000/svg" xmlns:xlink="http://www.w3.org/1999/xlink">
<g id="graph0" class="graph" transform="scale(1 1) rotate(0) translate(4 214)">
<title>gko::stop::ResidualNormReduction&lt; ValueType &gt;::parameters_type</title>
<polygon fill="#ffffff" stroke="transparent" points="-4,4 -4,-214 197,-214 197,4 -4,4"/>
<!-- Node0 -->
<g id="node1" class="node">
<title>Node0</title>
<polygon fill="#bfbfbf" stroke="#000000" points="0,-.5 0,-30.5 184,-30.5 184,-.5 0,-.5"/>
<text text-anchor="start" x="8" y="-18.5" font-family="Helvetica,sans-Serif" font-size="10.00" fill="#000000">gko::stop::ResidualNormReduction</text>
<text text-anchor="middle" x="92" y="-7.5" font-family="Helvetica,sans-Serif" font-size="10.00" fill="#000000">&lt; ValueType &gt;::parameters_type</text>
</g>
<!-- Node1 -->
<g id="node2" class="node">
<title>Node1</title>
<g id="a_node2"><a xlink:href="structgko_1_1enable__parameters__type.html" target="_top" xlink:title="gko::enable_parameters\l_type\&lt; parameters_type,\l Factory \&gt;">
<polygon fill="#ffffff" stroke="#000000" points="21.5,-68.5 21.5,-109.5 162.5,-109.5 162.5,-68.5 21.5,-68.5"/>
<text text-anchor="start" x="29.5" y="-97.5" font-family="Helvetica,sans-Serif" font-size="10.00" fill="#000000">gko::enable_parameters</text>
<text text-anchor="start" x="29.5" y="-86.5" font-family="Helvetica,sans-Serif" font-size="10.00" fill="#000000">_type&lt; parameters_type,</text>
<text text-anchor="middle" x="92" y="-75.5" font-family="Helvetica,sans-Serif" font-size="10.00" fill="#000000"> Factory &gt;</text>
</a>
</g>
</g>
<!-- Node1&#45;&gt;Node0 -->
<g id="edge1" class="edge">
<title>Node1&#45;&gt;Node0</title>
<path fill="none" stroke="#191970" d="M92,-57.9048C92,-48.5365 92,-38.666 92,-30.8074"/>
<polygon fill="#191970" stroke="#191970" points="88.5001,-58.1344 92,-68.1345 95.5001,-58.1345 88.5001,-58.1344"/>
</g>
<!-- Node2 -->
<g id="node3" class="node">
<title>Node2</title>
<g id="a_node3"><a xlink:href="structgko_1_1enable__parameters__type.html" target="_top" xlink:title="The enable_parameters_type mixin is used to create a base implementation of the factory parameters st...">
<polygon fill="#ffffff" stroke="#000000" points="2.5,-168.5 2.5,-209.5 181.5,-209.5 181.5,-168.5 2.5,-168.5"/>
<text text-anchor="start" x="10.5" y="-197.5" font-family="Helvetica,sans-Serif" font-size="10.00" fill="#000000">gko::enable_parameters</text>
<text text-anchor="start" x="10.5" y="-186.5" font-family="Helvetica,sans-Serif" font-size="10.00" fill="#000000">_type&lt; ConcreteParametersType,</text>
<text text-anchor="middle" x="92" y="-175.5" font-family="Helvetica,sans-Serif" font-size="10.00" fill="#000000"> Factory &gt;</text>
</a>
</g>
</g>
<!-- Node2&#45;&gt;Node1 -->
<g id="edge2" class="edge">
<title>Node2&#45;&gt;Node1</title>
<path fill="none" stroke="#ffa500" stroke-dasharray="5,2" d="M92,-157.9703C92,-142.2668 92,-123.6321 92,-109.6935"/>
<polygon fill="#ffa500" stroke="#ffa500" points="88.5001,-158.2799 92,-168.2799 95.5001,-158.28 88.5001,-158.2799"/>
<text text-anchor="start" x="92" y="-142" font-family="Helvetica,sans-Serif" font-size="10.00" fill="#000000"> &lt; parameters_type,</text>
<text text-anchor="middle" x="142.5" y="-131" font-family="Helvetica,sans-Serif" font-size="10.00" fill="#000000"> Factory &gt;</text>
</g>
</g>
</svg>
