<?xml version="1.0" encoding="UTF-8" standalone="no"?>
<!DOCTYPE svg PUBLIC "-//W3C//DTD SVG 1.1//EN"
 "http://www.w3.org/Graphics/SVG/1.1/DTD/svg11.dtd">
<!-- Generated by graphviz version 2.40.1 (20161225.0304)
 -->
<!-- Title: gko::preconditioner::Jacobi&lt; ValueType, IndexType &gt;::parameters_type Pages: 1 -->
<svg width="1179pt" height="178pt"
 viewBox="0.00 0.00 1179.00 177.50" xmlns="http://www.w3.org/2000/svg" xmlns:xlink="http://www.w3.org/1999/xlink">
<g id="graph0" class="graph" transform="scale(1 1) rotate(0) translate(4 173.5)">
<title>gko::preconditioner::Jacobi&lt; ValueType, IndexType &gt;::parameters_type</title>
<polygon fill="#ffffff" stroke="transparent" points="-4,4 -4,-173.5 1175,-173.5 1175,4 -4,4"/>
<!-- Node0 -->
<g id="node1" class="node">
<title>Node0</title>
<polygon fill="#bfbfbf" stroke="#000000" points="1001,-77 1001,-118 1171,-118 1171,-77 1001,-77"/>
<text text-anchor="start" x="1009" y="-106" font-family="Helvetica,sans-Serif" font-size="10.00" fill="#000000">gko::preconditioner</text>
<text text-anchor="start" x="1009" y="-95" font-family="Helvetica,sans-Serif" font-size="10.00" fill="#000000">::Jacobi&lt; ValueType,</text>
<text text-anchor="middle" x="1086" y="-84" font-family="Helvetica,sans-Serif" font-size="10.00" fill="#000000"> IndexType &gt;::parameters_type</text>
</g>
<!-- Node1 -->
<g id="node2" class="node">
<title>Node1</title>
<g id="a_node2"><a xlink:href="structgko_1_1enable__parameters__type.html" target="_top" xlink:title="gko::enable_parameters\l_type\&lt; parameters_type,\l Factory \&gt;">
<polygon fill="#ffffff" stroke="#000000" points="697.5,-127 697.5,-168 838.5,-168 838.5,-127 697.5,-127"/>
<text text-anchor="start" x="705.5" y="-156" font-family="Helvetica,sans-Serif" font-size="10.00" fill="#000000">gko::enable_parameters</text>
<text text-anchor="start" x="705.5" y="-145" font-family="Helvetica,sans-Serif" font-size="10.00" fill="#000000">_type&lt; parameters_type,</text>
<text text-anchor="middle" x="768" y="-134" font-family="Helvetica,sans-Serif" font-size="10.00" fill="#000000"> Factory &gt;</text>
</a>
</g>
</g>
<!-- Node1&#45;&gt;Node0 -->
<g id="edge1" class="edge">
<title>Node1&#45;&gt;Node0</title>
<path fill="none" stroke="#191970" d="M848.6174,-134.8243C895.1591,-127.5064 953.6502,-118.3097 1000.9255,-110.8765"/>
<polygon fill="#191970" stroke="#191970" points="847.9095,-131.3925 838.5745,-136.4034 848.9968,-138.3076 847.9095,-131.3925"/>
</g>
<!-- Node2 -->
<g id="node3" class="node">
<title>Node2</title>
<g id="a_node3"><a xlink:href="structgko_1_1enable__parameters__type.html" target="_top" xlink:title="The enable_parameters_type mixin is used to create a base implementation of the factory parameters st...">
<polygon fill="#ffffff" stroke="#000000" points="320,-127 320,-168 499,-168 499,-127 320,-127"/>
<text text-anchor="start" x="328" y="-156" font-family="Helvetica,sans-Serif" font-size="10.00" fill="#000000">gko::enable_parameters</text>
<text text-anchor="start" x="328" y="-145" font-family="Helvetica,sans-Serif" font-size="10.00" fill="#000000">_type&lt; ConcreteParametersType,</text>
<text text-anchor="middle" x="409.5" y="-134" font-family="Helvetica,sans-Serif" font-size="10.00" fill="#000000"> Factory &gt;</text>
</a>
</g>
</g>
<!-- Node2&#45;&gt;Node1 -->
<g id="edge2" class="edge">
<title>Node2&#45;&gt;Node1</title>
<path fill="none" stroke="#ffa500" stroke-dasharray="5,2" d="M509.2567,-147.5C569.0195,-147.5 643.5661,-147.5 697.2714,-147.5"/>
<polygon fill="#ffa500" stroke="#ffa500" points="509.04,-144.0001 499.0399,-147.5 509.0399,-151.0001 509.04,-144.0001"/>
<text text-anchor="start" x="538" y="-161.5" font-family="Helvetica,sans-Serif" font-size="10.00" fill="#000000"> &lt; parameters_type,</text>
<text text-anchor="middle" x="588.5" y="-150.5" font-family="Helvetica,sans-Serif" font-size="10.00" fill="#000000"> Factory &gt;</text>
</g>
<!-- Node3 -->
<g id="node4" class="node">
<title>Node3</title>
<polygon fill="#ffffff" stroke="#bfbfbf" points="678,-8.5 678,-60.5 858,-60.5 858,-8.5 678,-8.5"/>
<text text-anchor="start" x="686" y="-48.5" font-family="Helvetica,sans-Serif" font-size="10.00" fill="#000000">gko::preconditioner</text>
<text text-anchor="start" x="686" y="-37.5" font-family="Helvetica,sans-Serif" font-size="10.00" fill="#000000">::Jacobi&lt; ValueType,</text>
<text text-anchor="start" x="686" y="-26.5" font-family="Helvetica,sans-Serif" font-size="10.00" fill="#000000"> IndexType &gt;::parameters</text>
<text text-anchor="middle" x="768" y="-15.5" font-family="Helvetica,sans-Serif" font-size="10.00" fill="#000000">_type::storage_optimization_type</text>
</g>
<!-- Node3&#45;&gt;Node0 -->
<g id="edge3" class="edge">
<title>Node3&#45;&gt;Node0</title>
<path fill="none" stroke="#9a32cd" stroke-dasharray="5,2" d="M868.2898,-50.8735C904.531,-57.1465 945.6977,-64.6847 983,-72.5 989.6637,-73.8961 996.5528,-75.4109 1003.4629,-76.9809"/>
<polygon fill="#9a32cd" stroke="#9a32cd" points="868.6545,-47.3849 858.2058,-49.1385 867.4675,-54.2835 868.6545,-47.3849"/>
<text text-anchor="middle" x="929.5" y="-75.5" font-family="Helvetica,sans-Serif" font-size="10.00" fill="#000000"> storage_optimization</text>
</g>
<!-- Node4 -->
<g id="node5" class="node">
<title>Node4</title>
<g id="a_node5"><a xlink:href="classgko_1_1Array.html" target="_top" xlink:title="gko::Array\&lt; gko::precision\l_reduction \&gt;">
<polygon fill="#ffffff" stroke="#000000" points="336.5,-.5 336.5,-30.5 482.5,-30.5 482.5,-.5 336.5,-.5"/>
<text text-anchor="start" x="344.5" y="-18.5" font-family="Helvetica,sans-Serif" font-size="10.00" fill="#000000">gko::Array&lt; gko::precision</text>
<text text-anchor="middle" x="409.5" y="-7.5" font-family="Helvetica,sans-Serif" font-size="10.00" fill="#000000">_reduction &gt;</text>
</a>
</g>
</g>
<!-- Node4&#45;&gt;Node3 -->
<g id="edge4" class="edge">
<title>Node4&#45;&gt;Node3</title>
<path fill="none" stroke="#9a32cd" stroke-dasharray="5,2" d="M492.8773,-18.5334C541.6185,-20.4635 604.3174,-23.2159 660,-26.5 665.8183,-26.8432 671.8112,-27.2205 677.851,-27.6188"/>
<polygon fill="#9a32cd" stroke="#9a32cd" points="492.8254,-15.0287 482.6959,-18.1341 492.551,-22.0234 492.8254,-15.0287"/>
<text text-anchor="middle" x="588.5" y="-29.5" font-family="Helvetica,sans-Serif" font-size="10.00" fill="#000000"> block_wise</text>
</g>
<!-- Node5 -->
<g id="node6" class="node">
<title>Node5</title>
<g id="a_node6"><a xlink:href="classgko_1_1Array.html" target="_top" xlink:title="An Array is a container which encapsulates fixed&#45;sized arrays, stored on the Executor tied to the Arr...">
<polygon fill="#ffffff" stroke="#000000" points="0,-47 0,-66 139,-66 139,-47 0,-47"/>
<text text-anchor="middle" x="69.5" y="-54" font-family="Helvetica,sans-Serif" font-size="10.00" fill="#000000">gko::Array&lt; ValueType &gt;</text>
</a>
</g>
</g>
<!-- Node5&#45;&gt;Node4 -->
<g id="edge5" class="edge">
<title>Node5&#45;&gt;Node4</title>
<path fill="none" stroke="#ffa500" stroke-dasharray="5,2" d="M149.1175,-46.8991C205.7769,-40.0666 281.3228,-30.9567 336.444,-24.3097"/>
<polygon fill="#ffa500" stroke="#ffa500" points="148.6335,-43.432 139.1245,-48.1041 149.4717,-50.3816 148.6335,-43.432"/>
<text text-anchor="middle" x="229.5" y="-48.5" font-family="Helvetica,sans-Serif" font-size="10.00" fill="#000000"> &lt; gko::precision_reduction &gt;</text>
</g>
<!-- Node7 -->
<g id="node8" class="node">
<title>Node7</title>
<g id="a_node8"><a xlink:href="classgko_1_1Array.html" target="_top" xlink:title="gko::Array\&lt; index_type \&gt;">
<polygon fill="#ffffff" stroke="#000000" points="517,-88 517,-107 660,-107 660,-88 517,-88"/>
<text text-anchor="middle" x="588.5" y="-95" font-family="Helvetica,sans-Serif" font-size="10.00" fill="#000000">gko::Array&lt; index_type &gt;</text>
</a>
</g>
</g>
<!-- Node5&#45;&gt;Node7 -->
<g id="edge8" class="edge">
<title>Node5&#45;&gt;Node7</title>
<path fill="none" stroke="#ffa500" stroke-dasharray="5,2" d="M149.3783,-63.8629C198.5628,-68.3101 262.9143,-73.9738 320,-78.5 386.7329,-83.7911 462.8548,-89.11 516.9627,-92.7688"/>
<polygon fill="#ffa500" stroke="#ffa500" points="149.3963,-60.3502 139.1211,-62.9332 148.7644,-67.3216 149.3963,-60.3502"/>
<text text-anchor="middle" x="229.5" y="-79.5" font-family="Helvetica,sans-Serif" font-size="10.00" fill="#000000"> &lt; index_type &gt;</text>
</g>
<!-- Node6 -->
<g id="node7" class="node">
<title>Node6</title>
<g id="a_node7"><a xlink:href="classgko_1_1precision__reduction.html" target="_top" xlink:title="This class is used to encode storage precisions of low precision algorithms. ">
<polygon fill="#ffffff" stroke="#000000" points="341.5,-50 341.5,-69 477.5,-69 477.5,-50 341.5,-50"/>
<text text-anchor="middle" x="409.5" y="-57" font-family="Helvetica,sans-Serif" font-size="10.00" fill="#000000">gko::precision_reduction</text>
</a>
</g>
</g>
<!-- Node6&#45;&gt;Node3 -->
<g id="edge6" class="edge">
<title>Node6&#45;&gt;Node3</title>
<path fill="none" stroke="#9a32cd" stroke-dasharray="5,2" d="M487.9996,-54.0258C544.0156,-50.1196 619.472,-44.8576 677.9393,-40.7804"/>
<polygon fill="#9a32cd" stroke="#9a32cd" points="487.5072,-50.5516 477.7749,-54.7388 487.9942,-57.5346 487.5072,-50.5516"/>
<text text-anchor="middle" x="588.5" y="-53.5" font-family="Helvetica,sans-Serif" font-size="10.00" fill="#000000"> of_all_blocks</text>
</g>
<!-- Node7&#45;&gt;Node0 -->
<g id="edge7" class="edge">
<title>Node7&#45;&gt;Node0</title>
<path fill="none" stroke="#9a32cd" stroke-dasharray="5,2" d="M670.0552,-97.5C761.2132,-97.5 908.1492,-97.5 1000.7733,-97.5"/>
<polygon fill="#9a32cd" stroke="#9a32cd" points="670.0444,-94.0001 660.0444,-97.5 670.0443,-101.0001 670.0444,-94.0001"/>
<text text-anchor="middle" x="768" y="-100.5" font-family="Helvetica,sans-Serif" font-size="10.00" fill="#000000"> block_pointers</text>
</g>
</g>
</svg>
