<?xml version="1.0" encoding="UTF-8" standalone="no"?>
<!DOCTYPE svg PUBLIC "-//W3C//DTD SVG 1.1//EN"
 "http://www.w3.org/Graphics/SVG/1.1/DTD/svg11.dtd">
<!-- Generated by graphviz version 2.40.1 (20161225.0304)
 -->
<!-- Title: gko::matrix::Coo&lt; ValueType, IndexType &gt; Pages: 1 -->
<svg width="2535pt" height="495pt"
 viewBox="0.00 0.00 2535.00 494.50" xmlns="http://www.w3.org/2000/svg" xmlns:xlink="http://www.w3.org/1999/xlink">
<g id="graph0" class="graph" transform="scale(1 1) rotate(0) translate(4 490.5)">
<title>gko::matrix::Coo&lt; ValueType, IndexType &gt;</title>
<polygon fill="#ffffff" stroke="transparent" points="-4,4 -4,-490.5 2531,-490.5 2531,4 -4,4"/>
<!-- Node1 -->
<g id="node1" class="node">
<title>Node1</title>
<g id="a_node1"><a xlink:title="COO stores a matrix in the coordinate matrix format.">
<polygon fill="#bfbfbf" stroke="#000000" points="2366,-263.5 2366,-293.5 2527,-293.5 2527,-263.5 2366,-263.5"/>
<text text-anchor="start" x="2374" y="-281.5" font-family="Helvetica,sans-Serif" font-size="10.00" fill="#000000">gko::matrix::Coo&lt; ValueType,</text>
<text text-anchor="middle" x="2446.5" y="-270.5" font-family="Helvetica,sans-Serif" font-size="10.00" fill="#000000"> IndexType &gt;</text>
</a>
</g>
</g>
<!-- Node2 -->
<g id="node2" class="node">
<title>Node2</title>
<g id="a_node2"><a xlink:href="classgko_1_1EnableLinOp.html" target="_top" xlink:title=" ">
<polygon fill="#ffffff" stroke="#000000" points="2159,-282.5 2159,-312.5 2314,-312.5 2314,-282.5 2159,-282.5"/>
<text text-anchor="start" x="2167" y="-300.5" font-family="Helvetica,sans-Serif" font-size="10.00" fill="#000000">gko::EnableLinOp&lt; Coo</text>
<text text-anchor="middle" x="2236.5" y="-289.5" font-family="Helvetica,sans-Serif" font-size="10.00" fill="#000000">&lt; ValueType, IndexType &gt; &gt;</text>
</a>
</g>
</g>
<!-- Node2&#45;&gt;Node1 -->
<g id="edge1" class="edge">
<title>Node2&#45;&gt;Node1</title>
<path fill="none" stroke="#191970" d="M2324.0592,-289.578C2337.8567,-288.3296 2352.0677,-287.0439 2365.7027,-285.8102"/>
<polygon fill="#191970" stroke="#191970" points="2323.7435,-286.0921 2314.0996,-290.4791 2324.3743,-293.0637 2323.7435,-286.0921"/>
</g>
<!-- Node3 -->
<g id="node3" class="node">
<title>Node3</title>
<g id="a_node3"><a xlink:href="classgko_1_1EnablePolymorphicObject.html" target="_top" xlink:title=" ">
<polygon fill="#ffffff" stroke="#000000" points="1770,-121 1770,-162 1936,-162 1936,-121 1770,-121"/>
<text text-anchor="start" x="1778" y="-150" font-family="Helvetica,sans-Serif" font-size="10.00" fill="#000000">gko::EnablePolymorphicObject</text>
<text text-anchor="start" x="1778" y="-139" font-family="Helvetica,sans-Serif" font-size="10.00" fill="#000000">&lt; Coo&lt; ValueType, IndexType</text>
<text text-anchor="middle" x="1853" y="-128" font-family="Helvetica,sans-Serif" font-size="10.00" fill="#000000"> &gt;, LinOp &gt;</text>
</a>
</g>
</g>
<!-- Node3&#45;&gt;Node2 -->
<g id="edge2" class="edge">
<title>Node3&#45;&gt;Node2</title>
<path fill="none" stroke="#191970" d="M1945.967,-155.2978C2003.5466,-167.9842 2075.8205,-191.9134 2126,-236.5 2139.6703,-248.6467 2129.849,-261.9169 2144,-273.5 2148.4934,-277.178 2153.4872,-280.2989 2158.7605,-282.9463"/>
<polygon fill="#191970" stroke="#191970" points="1946.6376,-151.8622 1936.1285,-153.207 1945.1825,-158.7093 1946.6376,-151.8622"/>
</g>
<!-- Node4 -->
<g id="node4" class="node">
<title>Node4</title>
<g id="a_node4"><a xlink:href="classgko_1_1EnableAbstractPolymorphicObject.html" target="_top" xlink:title=" ">
<polygon fill="#ffffff" stroke="#000000" points="1354.5,-34 1354.5,-75 1548.5,-75 1548.5,-34 1354.5,-34"/>
<text text-anchor="start" x="1362.5" y="-63" font-family="Helvetica,sans-Serif" font-size="10.00" fill="#000000">gko::EnableAbstractPolymorphic</text>
<text text-anchor="start" x="1362.5" y="-52" font-family="Helvetica,sans-Serif" font-size="10.00" fill="#000000">Object&lt; Coo&lt; ValueType, IndexType</text>
<text text-anchor="middle" x="1451.5" y="-41" font-family="Helvetica,sans-Serif" font-size="10.00" fill="#000000"> &gt;, LinOp &gt;</text>
</a>
</g>
</g>
<!-- Node4&#45;&gt;Node3 -->
<g id="edge3" class="edge">
<title>Node4&#45;&gt;Node3</title>
<path fill="none" stroke="#191970" d="M1558.6874,-57.3493C1617.5425,-61.958 1690.7918,-72.782 1752,-97.5 1761.1503,-101.1952 1761.2997,-105.843 1770,-110.5 1776.9163,-114.2021 1784.371,-117.6595 1791.8751,-120.8228"/>
<polygon fill="#191970" stroke="#191970" points="1558.852,-53.8521 1548.6225,-56.6104 1558.3394,-60.8333 1558.852,-53.8521"/>
</g>
<!-- Node5 -->
<g id="node5" class="node">
<title>Node5</title>
<g id="a_node5"><a xlink:href="classgko_1_1LinOp.html" target="_top" xlink:title=" ">
<polygon fill="#ffffff" stroke="#000000" points="1006.5,-10 1006.5,-29 1074.5,-29 1074.5,-10 1006.5,-10"/>
<text text-anchor="middle" x="1040.5" y="-17" font-family="Helvetica,sans-Serif" font-size="10.00" fill="#000000">gko::LinOp</text>
</a>
</g>
</g>
<!-- Node5&#45;&gt;Node4 -->
<g id="edge4" class="edge">
<title>Node5&#45;&gt;Node4</title>
<path fill="none" stroke="#191970" d="M1084.9991,-23.2895C1149.0597,-28.7447 1268.9169,-38.9516 1354.113,-46.2067"/>
<polygon fill="#191970" stroke="#191970" points="1085.0957,-19.7851 1074.8347,-22.4239 1084.5016,-26.7599 1085.0957,-19.7851"/>
</g>
<!-- Node6 -->
<g id="node6" class="node">
<title>Node6</title>
<g id="a_node6"><a xlink:href="classgko_1_1EnableAbstractPolymorphicObject.html" target="_top" xlink:title=" ">
<polygon fill="#ffffff" stroke="#ff0000" points="542,-.5 542,-30.5 717,-30.5 717,-.5 542,-.5"/>
<text text-anchor="start" x="550" y="-18.5" font-family="Helvetica,sans-Serif" font-size="10.00" fill="#000000">gko::EnableAbstractPolymorphic</text>
<text text-anchor="middle" x="629.5" y="-7.5" font-family="Helvetica,sans-Serif" font-size="10.00" fill="#000000">Object&lt; LinOp &gt;</text>
</a>
</g>
</g>
<!-- Node6&#45;&gt;Node5 -->
<g id="edge5" class="edge">
<title>Node6&#45;&gt;Node5</title>
<path fill="none" stroke="#191970" d="M727.4012,-16.4528C817.4625,-17.3293 945.9278,-18.5796 1006.4624,-19.1687"/>
<polygon fill="#191970" stroke="#191970" points="727.1993,-12.9508 717.1657,-16.3532 727.1311,-19.9504 727.1993,-12.9508"/>
</g>
<!-- Node11 -->
<g id="node7" class="node">
<title>Node11</title>
<g id="a_node7"><a xlink:href="classgko_1_1EnableAbstractPolymorphicObject.html" target="_top" xlink:title="This mixin inherits from (a subclass of) PolymorphicObject and provides a base implementation of a ne...">
<polygon fill="#ffffff" stroke="#000000" points="138,-72 138,-113 336,-113 336,-72 138,-72"/>
<text text-anchor="start" x="146" y="-101" font-family="Helvetica,sans-Serif" font-size="10.00" fill="#000000">gko::EnableAbstractPolymorphic</text>
<text text-anchor="start" x="146" y="-90" font-family="Helvetica,sans-Serif" font-size="10.00" fill="#000000">Object&lt; AbstractObject, Polymorphic</text>
<text text-anchor="middle" x="237" y="-79" font-family="Helvetica,sans-Serif" font-size="10.00" fill="#000000">Base &gt;</text>
</a>
</g>
</g>
<!-- Node11&#45;&gt;Node4 -->
<g id="edge8" class="edge">
<title>Node11&#45;&gt;Node4</title>
<path fill="none" stroke="#ffa500" stroke-dasharray="5,2" d="M346.3102,-84.8844C348.898,-84.7498 351.4643,-84.6213 354,-84.5 723.1218,-66.8429 1162.614,-58.7239 1354.184,-55.8232"/>
<polygon fill="#ffa500" stroke="#ffa500" points="346.0358,-81.394 336.2407,-85.4322 346.4162,-88.3837 346.0358,-81.394"/>
<text text-anchor="start" x="759" y="-83.5" font-family="Helvetica,sans-Serif" font-size="10.00" fill="#000000"> &lt; Coo&lt; ValueType, IndexType</text>
<text text-anchor="middle" x="834" y="-72.5" font-family="Helvetica,sans-Serif" font-size="10.00" fill="#000000"> &gt;, LinOp &gt;</text>
</g>
<!-- Node11&#45;&gt;Node6 -->
<g id="edge6" class="edge">
<title>Node11&#45;&gt;Node6</title>
<path fill="none" stroke="#ffa500" stroke-dasharray="5,2" d="M278.8117,-66.77C300.4485,-54.7746 327.7681,-41.6059 354,-34.5 415.3152,-17.8904 486.9625,-13.3845 541.821,-12.9025"/>
<polygon fill="#ffa500" stroke="#ffa500" points="276.88,-63.8417 269.9065,-71.8179 280.332,-69.9314 276.88,-63.8417"/>
<text text-anchor="middle" x="432.5" y="-37.5" font-family="Helvetica,sans-Serif" font-size="10.00" fill="#000000"> &lt; LinOp &gt;</text>
</g>
<!-- Node14 -->
<g id="node10" class="node">
<title>Node14</title>
<g id="a_node10"><a xlink:href="classgko_1_1EnableAbstractPolymorphicObject.html" target="_top" xlink:title=" ">
<polygon fill="#ffffff" stroke="#000000" points="529,-97 529,-138 730,-138 730,-97 529,-97"/>
<text text-anchor="start" x="537" y="-126" font-family="Helvetica,sans-Serif" font-size="10.00" fill="#000000">gko::EnableAbstractPolymorphic</text>
<text text-anchor="start" x="537" y="-115" font-family="Helvetica,sans-Serif" font-size="10.00" fill="#000000">Object&lt; ConcreteObject, Polymorphic</text>
<text text-anchor="middle" x="629.5" y="-104" font-family="Helvetica,sans-Serif" font-size="10.00" fill="#000000">Base &gt;</text>
</a>
</g>
</g>
<!-- Node11&#45;&gt;Node14 -->
<g id="edge12" class="edge">
<title>Node11&#45;&gt;Node14</title>
<path fill="none" stroke="#ffa500" stroke-dasharray="5,2" d="M346.4094,-88.0008C396.6706,-87.1896 456.9862,-87.9856 511,-93.5 519.5617,-94.3741 528.4204,-95.5838 537.2615,-96.9992"/>
<polygon fill="#ffa500" stroke="#ffa500" points="346.1033,-84.5057 336.1699,-88.1903 346.233,-91.5045 346.1033,-84.5057"/>
<text text-anchor="start" x="354" y="-107.5" font-family="Helvetica,sans-Serif" font-size="10.00" fill="#000000"> &lt; ConcreteObject, Polymorphic</text>
<text text-anchor="middle" x="432.5" y="-96.5" font-family="Helvetica,sans-Serif" font-size="10.00" fill="#000000">Base &gt;</text>
</g>
<!-- Node21 -->
<g id="node17" class="node">
<title>Node21</title>
<g id="a_node17"><a xlink:href="classgko_1_1EnableAbstractPolymorphicObject.html" target="_top" xlink:title=" ">
<polygon fill="#ffffff" stroke="#000000" points="531,-161 531,-202 728,-202 728,-161 531,-161"/>
<text text-anchor="start" x="539" y="-190" font-family="Helvetica,sans-Serif" font-size="10.00" fill="#000000">gko::EnableAbstractPolymorphic</text>
<text text-anchor="start" x="539" y="-179" font-family="Helvetica,sans-Serif" font-size="10.00" fill="#000000">Object&lt; ConcreteLinOp, Polymorphic</text>
<text text-anchor="middle" x="629.5" y="-168" font-family="Helvetica,sans-Serif" font-size="10.00" fill="#000000">Base &gt;</text>
</a>
</g>
</g>
<!-- Node11&#45;&gt;Node21 -->
<g id="edge22" class="edge">
<title>Node11&#45;&gt;Node21</title>
<path fill="none" stroke="#ffa500" stroke-dasharray="5,2" d="M337.372,-115.2595C399.5774,-129.3647 478.8209,-147.3333 539.0758,-160.9962"/>
<polygon fill="#ffa500" stroke="#ffa500" points="338.0667,-111.8283 327.5403,-113.0301 336.5187,-118.655 338.0667,-111.8283"/>
<text text-anchor="start" x="356" y="-167.5" font-family="Helvetica,sans-Serif" font-size="10.00" fill="#000000"> &lt; ConcreteLinOp, Polymorphic</text>
<text text-anchor="middle" x="432.5" y="-156.5" font-family="Helvetica,sans-Serif" font-size="10.00" fill="#000000">Base &gt;</text>
</g>
<!-- Node12 -->
<g id="node8" class="node">
<title>Node12</title>
<g id="a_node8"><a xlink:title=" ">
<polygon fill="#ffffff" stroke="#bfbfbf" points="0,-165 0,-184 101,-184 101,-165 0,-165"/>
<text text-anchor="middle" x="50.5" y="-172" font-family="Helvetica,sans-Serif" font-size="10.00" fill="#000000">PolymorphicBase</text>
</a>
</g>
</g>
<!-- Node12&#45;&gt;Node11 -->
<g id="edge7" class="edge">
<title>Node12&#45;&gt;Node11</title>
<path fill="none" stroke="#191970" d="M81.6749,-160.7931C111.2807,-147.7761 156.181,-128.0344 190.1047,-113.1189"/>
<polygon fill="#191970" stroke="#191970" points="80.0044,-157.7041 72.2589,-164.9331 82.8219,-164.1121 80.0044,-157.7041"/>
</g>
<!-- Node12&#45;&gt;Node14 -->
<g id="edge11" class="edge">
<title>Node12&#45;&gt;Node14</title>
<path fill="none" stroke="#191970" d="M111.4303,-180.8542C200.6787,-188.3335 371.4922,-195.6797 511,-160.5 519.6728,-158.313 520.7442,-154.9413 529,-151.5 540.306,-146.7873 552.5197,-142.2287 564.4067,-138.0622"/>
<polygon fill="#191970" stroke="#191970" points="111.4851,-177.3458 101.2198,-179.9678 110.8796,-184.3196 111.4851,-177.3458"/>
</g>
<!-- Node12&#45;&gt;Node21 -->
<g id="edge21" class="edge">
<title>Node12&#45;&gt;Node21</title>
<path fill="none" stroke="#191970" d="M100.0089,-185.844C106.37,-186.9398 112.8183,-187.8748 119,-188.5 292.3378,-206.0321 336.8536,-193.6391 511,-188.5 517.4889,-188.3085 524.1751,-188.0582 530.9118,-187.7663"/>
<polygon fill="#191970" stroke="#191970" points="100.6063,-182.3952 90.1355,-184.0111 99.3286,-189.2776 100.6063,-182.3952"/>
</g>
<!-- Node13 -->
<g id="node9" class="node">
<title>Node13</title>
<g id="a_node9"><a xlink:href="classgko_1_1EnablePolymorphicObject.html" target="_top" xlink:title="This mixin inherits from (a subclass of) PolymorphicObject and provides a base implementation of a ne...">
<polygon fill="#ffffff" stroke="#000000" points="938,-102.5 938,-132.5 1143,-132.5 1143,-102.5 938,-102.5"/>
<text text-anchor="start" x="946" y="-120.5" font-family="Helvetica,sans-Serif" font-size="10.00" fill="#000000">gko::EnablePolymorphicObject</text>
<text text-anchor="middle" x="1040.5" y="-109.5" font-family="Helvetica,sans-Serif" font-size="10.00" fill="#000000">&lt; ConcreteObject, PolymorphicBase &gt;</text>
</a>
</g>
</g>
<!-- Node13&#45;&gt;Node3 -->
<g id="edge9" class="edge">
<title>Node13&#45;&gt;Node3</title>
<path fill="none" stroke="#ffa500" stroke-dasharray="5,2" d="M1153.0524,-120.4885C1207.4207,-121.9551 1273.6042,-123.774 1333,-125.5 1487.1572,-129.9798 1667.008,-135.6017 1769.6962,-138.8491"/>
<polygon fill="#ffa500" stroke="#ffa500" points="1153.1331,-116.9895 1143.0424,-120.2189 1152.9445,-123.987 1153.1331,-116.9895"/>
<text text-anchor="start" x="1376.5" y="-146.5" font-family="Helvetica,sans-Serif" font-size="10.00" fill="#000000"> &lt; Coo&lt; ValueType, IndexType</text>
<text text-anchor="middle" x="1451.5" y="-135.5" font-family="Helvetica,sans-Serif" font-size="10.00" fill="#000000"> &gt;, LinOp &gt;</text>
</g>
<!-- Node20 -->
<g id="node16" class="node">
<title>Node20</title>
<g id="a_node16"><a xlink:href="classgko_1_1EnablePolymorphicObject.html" target="_top" xlink:title=" ">
<polygon fill="#ffffff" stroke="#000000" points="1351,-166.5 1351,-196.5 1552,-196.5 1552,-166.5 1351,-166.5"/>
<text text-anchor="start" x="1359" y="-184.5" font-family="Helvetica,sans-Serif" font-size="10.00" fill="#000000">gko::EnablePolymorphicObject</text>
<text text-anchor="middle" x="1451.5" y="-173.5" font-family="Helvetica,sans-Serif" font-size="10.00" fill="#000000">&lt; ConcreteLinOp, PolymorphicBase &gt;</text>
</a>
</g>
</g>
<!-- Node13&#45;&gt;Node20 -->
<g id="edge23" class="edge">
<title>Node13&#45;&gt;Node20</title>
<path fill="none" stroke="#ffa500" stroke-dasharray="5,2" d="M1153.1543,-123.0166C1207.8212,-127.0292 1274.2273,-133.8804 1333,-145.5 1358.7335,-150.5876 1386.8525,-159.0021 1409.239,-166.4171"/>
<polygon fill="#ffa500" stroke="#ffa500" points="1153.3112,-119.519 1143.0879,-122.2999 1152.814,-126.5014 1153.3112,-119.519"/>
<text text-anchor="start" x="1170.5" y="-159.5" font-family="Helvetica,sans-Serif" font-size="10.00" fill="#000000"> &lt; ConcreteLinOp, Polymorphic</text>
<text text-anchor="middle" x="1247" y="-148.5" font-family="Helvetica,sans-Serif" font-size="10.00" fill="#000000">Base &gt;</text>
</g>
<!-- Node14&#45;&gt;Node13 -->
<g id="edge10" class="edge">
<title>Node14&#45;&gt;Node13</title>
<path fill="none" stroke="#191970" d="M740.1691,-117.5C801.6463,-117.5 877.6268,-117.5 937.7824,-117.5"/>
<polygon fill="#191970" stroke="#191970" points="740.0419,-114.0001 730.0419,-117.5 740.0419,-121.0001 740.0419,-114.0001"/>
</g>
<!-- Node15 -->
<g id="node11" class="node">
<title>Node15</title>
<g id="a_node11"><a xlink:href="classgko_1_1EnablePolymorphicAssignment.html" target="_top" xlink:title=" ">
<polygon fill="#ffffff" stroke="#000000" points="1355.5,-235.5 1355.5,-265.5 1547.5,-265.5 1547.5,-235.5 1355.5,-235.5"/>
<text text-anchor="start" x="1363.5" y="-253.5" font-family="Helvetica,sans-Serif" font-size="10.00" fill="#000000">gko::EnablePolymorphicAssignment</text>
<text text-anchor="middle" x="1451.5" y="-242.5" font-family="Helvetica,sans-Serif" font-size="10.00" fill="#000000">&lt; Coo&lt; ValueType, IndexType &gt; &gt;</text>
</a>
</g>
</g>
<!-- Node15&#45;&gt;Node2 -->
<g id="edge13" class="edge">
<title>Node15&#45;&gt;Node2</title>
<path fill="none" stroke="#191970" d="M1557.8425,-254.561C1656.0423,-258.5455 1805.9302,-265.2207 1936,-273.5 2011.7343,-278.3207 2098.0811,-285.38 2158.7216,-290.5955"/>
<polygon fill="#191970" stroke="#191970" points="1557.7473,-251.0544 1547.6142,-254.1482 1557.4649,-258.0487 1557.7473,-251.0544"/>
</g>
<!-- Node16 -->
<g id="node12" class="node">
<title>Node16</title>
<g id="a_node12"><a xlink:href="classgko_1_1ConvertibleTo.html" target="_top" xlink:title=" ">
<polygon fill="#ffffff" stroke="#000000" points="948,-210.5 948,-240.5 1133,-240.5 1133,-210.5 948,-210.5"/>
<text text-anchor="start" x="956" y="-228.5" font-family="Helvetica,sans-Serif" font-size="10.00" fill="#000000">gko::ConvertibleTo</text>
<text text-anchor="middle" x="1040.5" y="-217.5" font-family="Helvetica,sans-Serif" font-size="10.00" fill="#000000">&lt; Coo&lt; ValueType, IndexType &gt; &gt;</text>
</a>
</g>
</g>
<!-- Node16&#45;&gt;Node15 -->
<g id="edge14" class="edge">
<title>Node16&#45;&gt;Node15</title>
<path fill="none" stroke="#191970" d="M1143.499,-231.7651C1208.3819,-235.7118 1291.5896,-240.7731 1355.1606,-244.6399"/>
<polygon fill="#191970" stroke="#191970" points="1143.443,-228.2554 1133.2489,-231.1417 1143.0179,-235.2424 1143.443,-228.2554"/>
</g>
<!-- Node17 -->
<g id="node13" class="node">
<title>Node17</title>
<g id="a_node13"><a xlink:href="classgko_1_1ConvertibleTo.html" target="_top" xlink:title="ConvertibleTo interface is used to mark that the implementer can be converted to the object of Result...">
<polygon fill="#ffffff" stroke="#000000" points="576,-335.5 576,-365.5 683,-365.5 683,-335.5 576,-335.5"/>
<text text-anchor="start" x="584" y="-353.5" font-family="Helvetica,sans-Serif" font-size="10.00" fill="#000000">gko::ConvertibleTo</text>
<text text-anchor="middle" x="629.5" y="-342.5" font-family="Helvetica,sans-Serif" font-size="10.00" fill="#000000">&lt; ResultType &gt;</text>
</a>
</g>
</g>
<!-- Node17&#45;&gt;Node16 -->
<g id="edge15" class="edge">
<title>Node17&#45;&gt;Node16</title>
<path fill="none" stroke="#ffa500" stroke-dasharray="5,2" d="M657.0948,-329.3112C680.1592,-312.6668 714.5633,-290.2398 748,-277.5 812.3437,-252.9842 889.1231,-239.8964 947.8702,-232.9845"/>
<polygon fill="#ffa500" stroke="#ffa500" points="654.8253,-326.6354 648.836,-335.375 658.9681,-332.2779 654.8253,-326.6354"/>
<text text-anchor="middle" x="834" y="-280.5" font-family="Helvetica,sans-Serif" font-size="10.00" fill="#000000"> &lt; Coo&lt; ValueType, IndexType &gt; &gt;</text>
</g>
<!-- Node18 -->
<g id="node14" class="node">
<title>Node18</title>
<g id="a_node14"><a xlink:href="classgko_1_1EnablePolymorphicAssignment.html" target="_top" xlink:title="This mixin is used to enable a default PolymorphicObject::copy_from() implementation for objects that...">
<polygon fill="#ffffff" stroke="#000000" points="944.5,-259.5 944.5,-289.5 1136.5,-289.5 1136.5,-259.5 944.5,-259.5"/>
<text text-anchor="start" x="952.5" y="-277.5" font-family="Helvetica,sans-Serif" font-size="10.00" fill="#000000">gko::EnablePolymorphicAssignment</text>
<text text-anchor="middle" x="1040.5" y="-266.5" font-family="Helvetica,sans-Serif" font-size="10.00" fill="#000000">&lt; ConcreteType, ResultType &gt;</text>
</a>
</g>
</g>
<!-- Node17&#45;&gt;Node18 -->
<g id="edge17" class="edge">
<title>Node17&#45;&gt;Node18</title>
<path fill="none" stroke="#191970" d="M693.4423,-333.8511C711.0573,-329.5382 730.2127,-325.0995 748,-321.5 813.156,-308.3149 887.0799,-296.4631 944.3095,-287.9592"/>
<polygon fill="#191970" stroke="#191970" points="692.1369,-330.5685 683.2708,-336.3686 693.8188,-337.3634 692.1369,-330.5685"/>
</g>
<!-- Node23 -->
<g id="node19" class="node">
<title>Node23</title>
<g id="a_node19"><a xlink:href="classgko_1_1ConvertibleTo.html" target="_top" xlink:title=" ">
<polygon fill="#ffffff" stroke="#000000" points="985.5,-308.5 985.5,-338.5 1095.5,-338.5 1095.5,-308.5 985.5,-308.5"/>
<text text-anchor="start" x="993.5" y="-326.5" font-family="Helvetica,sans-Serif" font-size="10.00" fill="#000000">gko::ConvertibleTo</text>
<text text-anchor="middle" x="1040.5" y="-315.5" font-family="Helvetica,sans-Serif" font-size="10.00" fill="#000000">&lt; ConcreteLinOp &gt;</text>
</a>
</g>
</g>
<!-- Node17&#45;&gt;Node23 -->
<g id="edge26" class="edge">
<title>Node17&#45;&gt;Node23</title>
<path fill="none" stroke="#ffa500" stroke-dasharray="5,2" d="M693.2713,-340.7386C710.9575,-338.3454 730.1916,-336.0335 748,-334.5 830.5265,-327.3935 926.5433,-324.8772 985.4142,-323.9868"/>
<polygon fill="#ffa500" stroke="#ffa500" points="692.485,-337.314 683.0592,-342.1518 693.4447,-344.2479 692.485,-337.314"/>
<text text-anchor="middle" x="834" y="-337.5" font-family="Helvetica,sans-Serif" font-size="10.00" fill="#000000"> &lt; ConcreteLinOp &gt;</text>
</g>
<!-- Node26 -->
<g id="node22" class="node">
<title>Node26</title>
<g id="a_node22"><a xlink:href="classgko_1_1ConvertibleTo.html" target="_top" xlink:title=" ">
<polygon fill="#ffffff" stroke="#000000" points="1163.5,-340 1163.5,-381 1330.5,-381 1330.5,-340 1163.5,-340"/>
<text text-anchor="start" x="1171.5" y="-369" font-family="Helvetica,sans-Serif" font-size="10.00" fill="#000000">gko::ConvertibleTo</text>
<text text-anchor="start" x="1171.5" y="-358" font-family="Helvetica,sans-Serif" font-size="10.00" fill="#000000">&lt; Coo&lt; next_precision</text>
<text text-anchor="middle" x="1247" y="-347" font-family="Helvetica,sans-Serif" font-size="10.00" fill="#000000">&lt; ValueType &gt;, IndexType &gt; &gt;</text>
</a>
</g>
</g>
<!-- Node17&#45;&gt;Node26 -->
<g id="edge31" class="edge">
<title>Node17&#45;&gt;Node26</title>
<path fill="none" stroke="#ffa500" stroke-dasharray="5,2" d="M693.3784,-351.5345C805.6904,-353.3533 1038.4461,-357.1226 1163.3964,-359.1461"/>
<polygon fill="#ffa500" stroke="#ffa500" points="693.2743,-348.0324 683.2189,-351.3699 693.1608,-355.0315 693.2743,-348.0324"/>
<text text-anchor="start" x="758.5" y="-368.5" font-family="Helvetica,sans-Serif" font-size="10.00" fill="#000000"> &lt; Coo&lt; next_precision</text>
<text text-anchor="middle" x="834" y="-357.5" font-family="Helvetica,sans-Serif" font-size="10.00" fill="#000000">&lt; ValueType &gt;, IndexType &gt; &gt;</text>
</g>
<!-- Node27 -->
<g id="node23" class="node">
<title>Node27</title>
<g id="a_node23"><a xlink:href="classgko_1_1ConvertibleTo.html" target="_top" xlink:title=" ">
<polygon fill="#ffffff" stroke="#000000" points="1570,-432.5 1570,-462.5 1752,-462.5 1752,-432.5 1570,-432.5"/>
<text text-anchor="start" x="1578" y="-450.5" font-family="Helvetica,sans-Serif" font-size="10.00" fill="#000000">gko::ConvertibleTo</text>
<text text-anchor="middle" x="1661" y="-439.5" font-family="Helvetica,sans-Serif" font-size="10.00" fill="#000000">&lt; Csr&lt; ValueType, IndexType &gt; &gt;</text>
</a>
</g>
</g>
<!-- Node17&#45;&gt;Node27 -->
<g id="edge33" class="edge">
<title>Node17&#45;&gt;Node27</title>
<path fill="none" stroke="#ffa500" stroke-dasharray="5,2" d="M656.8531,-371.7722C679.777,-388.2281 714.1099,-409.7924 748,-419.5 1038.7994,-502.7973 1403.1368,-477.5077 1569.9716,-459.2045"/>
<polygon fill="#ffa500" stroke="#ffa500" points="658.7829,-368.847 648.6506,-365.7508 654.6406,-374.4898 658.7829,-368.847"/>
<text text-anchor="middle" x="1040.5" y="-478.5" font-family="Helvetica,sans-Serif" font-size="10.00" fill="#000000"> &lt; Csr&lt; ValueType, IndexType &gt; &gt;</text>
</g>
<!-- Node28 -->
<g id="node24" class="node">
<title>Node28</title>
<g id="a_node24"><a xlink:href="classgko_1_1ConvertibleTo.html" target="_top" xlink:title=" ">
<polygon fill="#ffffff" stroke="#000000" points="1969,-389.5 1969,-419.5 2111,-419.5 2111,-389.5 1969,-389.5"/>
<text text-anchor="start" x="1977" y="-407.5" font-family="Helvetica,sans-Serif" font-size="10.00" fill="#000000">gko::ConvertibleTo</text>
<text text-anchor="middle" x="2040" y="-396.5" font-family="Helvetica,sans-Serif" font-size="10.00" fill="#000000">&lt; Dense&lt; ValueType &gt; &gt;</text>
</a>
</g>
</g>
<!-- Node17&#45;&gt;Node28 -->
<g id="edge35" class="edge">
<title>Node17&#45;&gt;Node28</title>
<path fill="none" stroke="#ffa500" stroke-dasharray="5,2" d="M691.2026,-368.142C709.3694,-372.7858 729.3707,-377.3672 748,-380.5 876.6673,-402.1377 910.026,-405.5 1040.5,-405.5 1040.5,-405.5 1040.5,-405.5 1661,-405.5 1768.2521,-405.5 1892.576,-405.0946 1968.7507,-404.8"/>
<polygon fill="#ffa500" stroke="#ffa500" points="691.8786,-364.7013 681.319,-365.5645 690.1121,-371.4748 691.8786,-364.7013"/>
<text text-anchor="middle" x="1247" y="-408.5" font-family="Helvetica,sans-Serif" font-size="10.00" fill="#000000"> &lt; Dense&lt; ValueType &gt; &gt;</text>
</g>
<!-- Node18&#45;&gt;Node15 -->
<g id="edge16" class="edge">
<title>Node18&#45;&gt;Node15</title>
<path fill="none" stroke="#ffa500" stroke-dasharray="5,2" d="M1147.1263,-263.548C1151.8127,-263.1719 1156.4534,-262.82 1161,-262.5 1225.7029,-257.9457 1298.6437,-254.9401 1355.2499,-253.0758"/>
<polygon fill="#ffa500" stroke="#ffa500" points="1146.4882,-260.0889 1136.8132,-264.4068 1147.0692,-267.0647 1146.4882,-260.0889"/>
<text text-anchor="middle" x="1247" y="-265.5" font-family="Helvetica,sans-Serif" font-size="10.00" fill="#000000"> &lt; Coo&lt; ValueType, IndexType &gt; &gt;</text>
</g>
<!-- Node22 -->
<g id="node18" class="node">
<title>Node22</title>
<g id="a_node18"><a xlink:href="classgko_1_1EnablePolymorphicAssignment.html" target="_top" xlink:title=" ">
<polygon fill="#ffffff" stroke="#000000" points="1355.5,-285.5 1355.5,-315.5 1547.5,-315.5 1547.5,-285.5 1355.5,-285.5"/>
<text text-anchor="start" x="1363.5" y="-303.5" font-family="Helvetica,sans-Serif" font-size="10.00" fill="#000000">gko::EnablePolymorphicAssignment</text>
<text text-anchor="middle" x="1451.5" y="-292.5" font-family="Helvetica,sans-Serif" font-size="10.00" fill="#000000">&lt; ConcreteLinOp &gt;</text>
</a>
</g>
</g>
<!-- Node18&#45;&gt;Node22 -->
<g id="edge27" class="edge">
<title>Node18&#45;&gt;Node22</title>
<path fill="none" stroke="#ffa500" stroke-dasharray="5,2" d="M1146.7889,-281.2239C1211.2129,-285.2994 1292.7527,-290.4576 1355.2683,-294.4123"/>
<polygon fill="#ffa500" stroke="#ffa500" points="1146.8028,-277.7178 1136.6018,-280.5794 1146.3608,-284.7039 1146.8028,-277.7178"/>
<text text-anchor="middle" x="1247" y="-295.5" font-family="Helvetica,sans-Serif" font-size="10.00" fill="#000000"> &lt; ConcreteLinOp &gt;</text>
</g>
<!-- Node19 -->
<g id="node15" class="node">
<title>Node19</title>
<g id="a_node15"><a xlink:href="classgko_1_1EnableLinOp.html" target="_top" xlink:title="The EnableLinOp mixin can be used to provide sensible default implementations of the majority of the ...">
<polygon fill="#ffffff" stroke="#000000" points="1775,-282.5 1775,-312.5 1931,-312.5 1931,-282.5 1775,-282.5"/>
<text text-anchor="start" x="1783" y="-300.5" font-family="Helvetica,sans-Serif" font-size="10.00" fill="#000000">gko::EnableLinOp&lt; Concrete</text>
<text text-anchor="middle" x="1853" y="-289.5" font-family="Helvetica,sans-Serif" font-size="10.00" fill="#000000">LinOp, PolymorphicBase &gt;</text>
</a>
</g>
</g>
<!-- Node19&#45;&gt;Node2 -->
<g id="edge18" class="edge">
<title>Node19&#45;&gt;Node2</title>
<path fill="none" stroke="#ffa500" stroke-dasharray="5,2" d="M1941.4083,-297.5C2007.1102,-297.5 2095.8952,-297.5 2158.8682,-297.5"/>
<polygon fill="#ffa500" stroke="#ffa500" points="1941.0692,-294.0001 1931.0692,-297.5 1941.0692,-301.0001 1941.0692,-294.0001"/>
<text text-anchor="middle" x="2040" y="-300.5" font-family="Helvetica,sans-Serif" font-size="10.00" fill="#000000"> &lt; Coo&lt; ValueType, IndexType &gt; &gt;</text>
</g>
<!-- Node20&#45;&gt;Node19 -->
<g id="edge19" class="edge">
<title>Node20&#45;&gt;Node19</title>
<path fill="none" stroke="#191970" d="M1513.3808,-199.3784C1592.2541,-222.1662 1727.2035,-261.1553 1801.0148,-282.4806"/>
<polygon fill="#191970" stroke="#191970" points="1514.1561,-195.9593 1503.5775,-196.5461 1512.2131,-202.6842 1514.1561,-195.9593"/>
</g>
<!-- Node21&#45;&gt;Node20 -->
<g id="edge20" class="edge">
<title>Node21&#45;&gt;Node20</title>
<path fill="none" stroke="#191970" d="M738.5994,-181.5C898.8583,-181.5 1195.6624,-181.5 1350.9174,-181.5"/>
<polygon fill="#191970" stroke="#191970" points="738.2439,-178.0001 728.2438,-181.5 738.2438,-185.0001 738.2439,-178.0001"/>
</g>
<!-- Node22&#45;&gt;Node19 -->
<g id="edge24" class="edge">
<title>Node22&#45;&gt;Node19</title>
<path fill="none" stroke="#191970" d="M1558.0072,-299.7042C1626.1349,-299.1951 1712.9941,-298.5461 1774.7782,-298.0845"/>
<polygon fill="#191970" stroke="#191970" points="1557.6428,-296.2067 1547.6693,-299.7814 1557.6952,-303.2065 1557.6428,-296.2067"/>
</g>
<!-- Node23&#45;&gt;Node22 -->
<g id="edge25" class="edge">
<title>Node23&#45;&gt;Node22</title>
<path fill="none" stroke="#191970" d="M1105.8428,-320.4519C1165.1322,-317.6142 1254.9498,-313.1356 1333,-308.5 1340.3071,-308.066 1347.8664,-307.5985 1355.4674,-307.1152"/>
<polygon fill="#191970" stroke="#191970" points="1105.3246,-316.9726 1095.5027,-320.945 1105.6581,-323.9646 1105.3246,-316.9726"/>
</g>
<!-- Node24 -->
<g id="node20" class="node">
<title>Node24</title>
<g id="a_node20"><a xlink:href="classgko_1_1EnableCreateMethod.html" target="_top" xlink:title=" ">
<polygon fill="#ffffff" stroke="#000000" points="2144,-233.5 2144,-263.5 2329,-263.5 2329,-233.5 2144,-233.5"/>
<text text-anchor="start" x="2152" y="-251.5" font-family="Helvetica,sans-Serif" font-size="10.00" fill="#000000">gko::EnableCreateMethod</text>
<text text-anchor="middle" x="2236.5" y="-240.5" font-family="Helvetica,sans-Serif" font-size="10.00" fill="#000000">&lt; Coo&lt; ValueType, IndexType &gt; &gt;</text>
</a>
</g>
</g>
<!-- Node24&#45;&gt;Node1 -->
<g id="edge28" class="edge">
<title>Node24&#45;&gt;Node1</title>
<path fill="none" stroke="#191970" d="M2339.2616,-263.1802C2348.1754,-264.4536 2357.1108,-265.7301 2365.8106,-266.9729"/>
<polygon fill="#191970" stroke="#191970" points="2339.6148,-259.6952 2329.2203,-261.7458 2338.6248,-266.6249 2339.6148,-259.6952"/>
</g>
<!-- Node25 -->
<g id="node21" class="node">
<title>Node25</title>
<g id="a_node21"><a xlink:href="classgko_1_1EnableCreateMethod.html" target="_top" xlink:title="This mixin implements a static create() method on ConcreteType that dynamically allocates the memory,...">
<polygon fill="#ffffff" stroke="#000000" points="1782,-71.5 1782,-101.5 1924,-101.5 1924,-71.5 1782,-71.5"/>
<text text-anchor="start" x="1790" y="-89.5" font-family="Helvetica,sans-Serif" font-size="10.00" fill="#000000">gko::EnableCreateMethod</text>
<text text-anchor="middle" x="1853" y="-78.5" font-family="Helvetica,sans-Serif" font-size="10.00" fill="#000000">&lt; ConcreteType &gt;</text>
</a>
</g>
</g>
<!-- Node25&#45;&gt;Node24 -->
<g id="edge29" class="edge">
<title>Node25&#45;&gt;Node24</title>
<path fill="none" stroke="#ffa500" stroke-dasharray="5,2" d="M1934.444,-81.9081C1995.2245,-83.0914 2076.0688,-95.1631 2126,-144.5 2151.9239,-170.1154 2118.6527,-198.3139 2144,-224.5 2147.2309,-227.8378 2150.8616,-230.7326 2154.7661,-233.2413"/>
<polygon fill="#ffa500" stroke="#ffa500" points="1934.1405,-78.4051 1924.1067,-81.807 1934.0719,-85.4047 1934.1405,-78.4051"/>
<text text-anchor="middle" x="2040" y="-147.5" font-family="Helvetica,sans-Serif" font-size="10.00" fill="#000000"> &lt; Coo&lt; ValueType, IndexType &gt; &gt;</text>
</g>
<!-- Node26&#45;&gt;Node1 -->
<g id="edge30" class="edge">
<title>Node26&#45;&gt;Node1</title>
<path fill="none" stroke="#191970" d="M1340.6574,-356.9479C1424.5574,-354.0733 1550.9781,-350.5 1661,-350.5 1661,-350.5 1661,-350.5 2236.5,-350.5 2306.0677,-350.5 2381.9325,-314.7063 2420.6299,-293.5936"/>
<polygon fill="#191970" stroke="#191970" points="1340.5134,-353.4507 1330.6405,-357.2947 1340.7556,-360.4465 1340.5134,-353.4507"/>
</g>
<!-- Node27&#45;&gt;Node1 -->
<g id="edge32" class="edge">
<title>Node27&#45;&gt;Node1</title>
<path fill="none" stroke="#191970" d="M1757.5499,-463.8727C1893.2891,-482.0448 2144.5557,-497.6212 2329,-403.5 2379.6711,-377.6427 2420.1385,-320.7874 2437.4217,-293.5825"/>
<polygon fill="#191970" stroke="#191970" points="1757.962,-460.3965 1747.5791,-462.5052 1757.0108,-467.3316 1757.962,-460.3965"/>
</g>
<!-- Node28&#45;&gt;Node1 -->
<g id="edge34" class="edge">
<title>Node28&#45;&gt;Node1</title>
<path fill="none" stroke="#191970" d="M2121.1146,-406.6257C2185.3343,-405.3853 2275.9065,-396.9937 2348,-364.5 2384.4256,-348.0824 2417.3227,-313.5906 2434.3261,-293.6364"/>
<polygon fill="#191970" stroke="#191970" points="2120.9912,-403.127 2111.0409,-406.766 2121.0887,-410.1263 2120.9912,-403.127"/>
</g>
<!-- Node29 -->
<g id="node25" class="node">
<title>Node29</title>
<g id="a_node25"><a xlink:href="classgko_1_1DiagonalExtractable.html" target="_top" xlink:title="The diagonal of a LinOp implementing this interface can be extracted.">
<polygon fill="#ffffff" stroke="#000000" points="2166.5,-184.5 2166.5,-214.5 2306.5,-214.5 2306.5,-184.5 2166.5,-184.5"/>
<text text-anchor="start" x="2174.5" y="-202.5" font-family="Helvetica,sans-Serif" font-size="10.00" fill="#000000">gko::DiagonalExtractable</text>
<text text-anchor="middle" x="2236.5" y="-191.5" font-family="Helvetica,sans-Serif" font-size="10.00" fill="#000000">&lt; ValueType &gt;</text>
</a>
</g>
</g>
<!-- Node29&#45;&gt;Node1 -->
<g id="edge36" class="edge">
<title>Node29&#45;&gt;Node1</title>
<path fill="none" stroke="#191970" d="M2307.9238,-217.5161C2315.0951,-219.7087 2322.2252,-222.0471 2329,-224.5 2359.8198,-235.6585 2393.7034,-251.6532 2417.1318,-263.3384"/>
<polygon fill="#191970" stroke="#191970" points="2308.7309,-214.1049 2298.1486,-214.6195 2306.7421,-220.8164 2308.7309,-214.1049"/>
</g>
<!-- Node30 -->
<g id="node26" class="node">
<title>Node30</title>
<g id="a_node26"><a xlink:href="classgko_1_1ReadableFromMatrixData.html" target="_top" xlink:title="A LinOp implementing this interface can read its data from a matrix_data structure.">
<polygon fill="#ffffff" stroke="#000000" points="2154.5,-135.5 2154.5,-165.5 2318.5,-165.5 2318.5,-135.5 2154.5,-135.5"/>
<text text-anchor="start" x="2162.5" y="-153.5" font-family="Helvetica,sans-Serif" font-size="10.00" fill="#000000">gko::ReadableFromMatrixData</text>
<text text-anchor="middle" x="2236.5" y="-142.5" font-family="Helvetica,sans-Serif" font-size="10.00" fill="#000000">&lt; ValueType, IndexType &gt;</text>
</a>
</g>
</g>
<!-- Node30&#45;&gt;Node1 -->
<g id="edge37" class="edge">
<title>Node30&#45;&gt;Node1</title>
<path fill="none" stroke="#191970" d="M2315.6328,-169.2178C2320.2427,-171.1254 2324.7339,-173.2144 2329,-175.5 2372.2803,-198.688 2413.097,-240.5757 2433.2983,-263.1291"/>
<polygon fill="#191970" stroke="#191970" points="2316.6281,-165.8514 2306.0375,-165.5523 2314.13,-172.3905 2316.6281,-165.8514"/>
</g>
<!-- Node31 -->
<g id="node27" class="node">
<title>Node31</title>
<g id="a_node27"><a xlink:href="classgko_1_1WritableToMatrixData.html" target="_top" xlink:title="A LinOp implementing this interface can write its data to a matrix_data structure.">
<polygon fill="#ffffff" stroke="#000000" points="2163.5,-86.5 2163.5,-116.5 2309.5,-116.5 2309.5,-86.5 2163.5,-86.5"/>
<text text-anchor="start" x="2171.5" y="-104.5" font-family="Helvetica,sans-Serif" font-size="10.00" fill="#000000">gko::WritableToMatrixData</text>
<text text-anchor="middle" x="2236.5" y="-93.5" font-family="Helvetica,sans-Serif" font-size="10.00" fill="#000000">&lt; ValueType, IndexType &gt;</text>
</a>
</g>
</g>
<!-- Node31&#45;&gt;Node1 -->
<g id="edge38" class="edge">
<title>Node31&#45;&gt;Node1</title>
<path fill="none" stroke="#191970" d="M2319.0582,-119.7538C2322.5074,-121.4975 2325.84,-123.4076 2329,-125.5 2383.7326,-161.7417 2423.5322,-232.1741 2439.1818,-263.1985"/>
<polygon fill="#191970" stroke="#191970" points="2320.2476,-116.4504 2309.694,-115.5162 2317.3616,-122.8278 2320.2476,-116.4504"/>
</g>
</g>
</svg>
