<?xml version="1.0" encoding="UTF-8" standalone="no"?>
<!DOCTYPE svg PUBLIC "-//W3C//DTD SVG 1.1//EN"
 "http://www.w3.org/Graphics/SVG/1.1/DTD/svg11.dtd">
<!-- Generated by graphviz version 2.40.1 (20161225.0304)
 -->
<!-- Title: gko::CusparseError Pages: 1 -->
<svg width="117pt" height="140pt"
 viewBox="0.00 0.00 117.00 140.00" xmlns="http://www.w3.org/2000/svg" xmlns:xlink="http://www.w3.org/1999/xlink">
<g id="graph0" class="graph" transform="scale(1 1) rotate(0) translate(4 136)">
<title>gko::CusparseError</title>
<polygon fill="#ffffff" stroke="transparent" points="-4,4 -4,-136 113,-136 113,4 -4,4"/>
<!-- Node1 -->
<g id="node1" class="node">
<title>Node1</title>
<g id="a_node1"><a xlink:title="CusparseError is thrown when a cuSPARSE routine throws a non&#45;zero error code.">
<polygon fill="#bfbfbf" stroke="#000000" points="0,-.5 0,-19.5 109,-19.5 109,-.5 0,-.5"/>
<text text-anchor="middle" x="54.5" y="-7.5" font-family="Helvetica,sans-Serif" font-size="10.00" fill="#000000">gko::CusparseError</text>
</a>
</g>
</g>
<!-- Node2 -->
<g id="node2" class="node">
<title>Node2</title>
<g id="a_node2"><a xlink:href="classgko_1_1Error.html" target="_top" xlink:title="The Error class is used to report exceptional behaviour in library functions.">
<polygon fill="#ffffff" stroke="#000000" points="22.5,-56.5 22.5,-75.5 86.5,-75.5 86.5,-56.5 22.5,-56.5"/>
<text text-anchor="middle" x="54.5" y="-63.5" font-family="Helvetica,sans-Serif" font-size="10.00" fill="#000000">gko::Error</text>
</a>
</g>
</g>
<!-- Node2&#45;&gt;Node1 -->
<g id="edge1" class="edge">
<title>Node2&#45;&gt;Node1</title>
<path fill="none" stroke="#191970" d="M54.5,-46.1575C54.5,-37.155 54.5,-26.9199 54.5,-19.6427"/>
<polygon fill="#191970" stroke="#191970" points="51.0001,-46.2455 54.5,-56.2455 58.0001,-46.2456 51.0001,-46.2455"/>
</g>
<!-- Node3 -->
<g id="node3" class="node">
<title>Node3</title>
<g id="a_node3"><a xlink:title="STL class.">
<polygon fill="#ffffff" stroke="#bfbfbf" points="11.5,-112.5 11.5,-131.5 97.5,-131.5 97.5,-112.5 11.5,-112.5"/>
<text text-anchor="middle" x="54.5" y="-119.5" font-family="Helvetica,sans-Serif" font-size="10.00" fill="#000000">std::exception</text>
</a>
</g>
</g>
<!-- Node3&#45;&gt;Node2 -->
<g id="edge2" class="edge">
<title>Node3&#45;&gt;Node2</title>
<path fill="none" stroke="#191970" d="M54.5,-102.1575C54.5,-93.155 54.5,-82.9199 54.5,-75.6427"/>
<polygon fill="#191970" stroke="#191970" points="51.0001,-102.2455 54.5,-112.2455 58.0001,-102.2456 51.0001,-102.2455"/>
</g>
</g>
</svg>
