<?xml version="1.0" encoding="UTF-8" standalone="no"?>
<!DOCTYPE svg PUBLIC "-//W3C//DTD SVG 1.1//EN"
 "http://www.w3.org/Graphics/SVG/1.1/DTD/svg11.dtd">
<!-- Generated by graphviz version 2.40.1 (20161225.0304)
 -->
<!-- Title: gko::matrix::Hybrid&lt; ValueType, IndexType &gt;::imbalance_bounded_limit Pages: 1 -->
<svg width="168pt" height="128pt"
 viewBox="0.00 0.00 168.00 128.00" xmlns="http://www.w3.org/2000/svg" xmlns:xlink="http://www.w3.org/1999/xlink">
<g id="graph0" class="graph" transform="scale(1 1) rotate(0) translate(4 124)">
<title>gko::matrix::Hybrid&lt; ValueType, IndexType &gt;::imbalance_bounded_limit</title>
<polygon fill="#ffffff" stroke="transparent" points="-4,4 -4,-124 164,-124 164,4 -4,4"/>
<!-- Node1 -->
<g id="node1" class="node">
<title>Node1</title>
<g id="a_node1"><a xlink:title="imbalance_bounded_limit is a strategy_type which decides the number of stored elements per row of the...">
<polygon fill="#bfbfbf" stroke="#000000" points="0,-.5 0,-41.5 160,-41.5 160,-.5 0,-.5"/>
<text text-anchor="start" x="8" y="-29.5" font-family="Helvetica,sans-Serif" font-size="10.00" fill="#000000">gko::matrix::Hybrid</text>
<text text-anchor="start" x="8" y="-18.5" font-family="Helvetica,sans-Serif" font-size="10.00" fill="#000000">&lt; ValueType, IndexType</text>
<text text-anchor="middle" x="80" y="-7.5" font-family="Helvetica,sans-Serif" font-size="10.00" fill="#000000"> &gt;::imbalance_bounded_limit</text>
</a>
</g>
</g>
<!-- Node2 -->
<g id="node2" class="node">
<title>Node2</title>
<g id="a_node2"><a xlink:href="classgko_1_1matrix_1_1Hybrid_1_1strategy__type.html" target="_top" xlink:title="strategy_type is to decide how to set the hybrid config.">
<polygon fill="#ffffff" stroke="#000000" points="13.5,-78.5 13.5,-119.5 146.5,-119.5 146.5,-78.5 13.5,-78.5"/>
<text text-anchor="start" x="21.5" y="-107.5" font-family="Helvetica,sans-Serif" font-size="10.00" fill="#000000">gko::matrix::Hybrid</text>
<text text-anchor="start" x="21.5" y="-96.5" font-family="Helvetica,sans-Serif" font-size="10.00" fill="#000000">&lt; ValueType, IndexType</text>
<text text-anchor="middle" x="80" y="-85.5" font-family="Helvetica,sans-Serif" font-size="10.00" fill="#000000"> &gt;::strategy_type</text>
</a>
</g>
</g>
<!-- Node2&#45;&gt;Node1 -->
<g id="edge1" class="edge">
<title>Node2&#45;&gt;Node1</title>
<path fill="none" stroke="#191970" d="M80,-68.0789C80,-59.2178 80,-49.7747 80,-41.6898"/>
<polygon fill="#191970" stroke="#191970" points="76.5001,-68.0974 80,-78.0974 83.5001,-68.0975 76.5001,-68.0974"/>
</g>
</g>
</svg>
