<?xml version="1.0" encoding="UTF-8" standalone="no"?>
<!DOCTYPE svg PUBLIC "-//W3C//DTD SVG 1.1//EN"
 "http://www.w3.org/Graphics/SVG/1.1/DTD/svg11.dtd">
<!-- Generated by graphviz version 2.40.1 (20161225.0304)
 -->
<!-- Title: gko::matrix::Diagonal&lt; ValueType &gt; Pages: 1 -->
<svg width="2380pt" height="669pt"
 viewBox="0.00 0.00 2380.00 669.00" xmlns="http://www.w3.org/2000/svg" xmlns:xlink="http://www.w3.org/1999/xlink">
<g id="graph0" class="graph" transform="scale(1 1) rotate(0) translate(4 665)">
<title>gko::matrix::Diagonal&lt; ValueType &gt;</title>
<polygon fill="#ffffff" stroke="transparent" points="-4,4 -4,-665 2376,-665 2376,4 -4,4"/>
<!-- Node1 -->
<g id="node1" class="node">
<title>Node1</title>
<g id="a_node1"><a xlink:title="This class is a utility which efficiently implements the diagonal matrix (a linear operator which sca...">
<polygon fill="#bfbfbf" stroke="#000000" points="2250,-191.5 2250,-221.5 2372,-221.5 2372,-191.5 2250,-191.5"/>
<text text-anchor="start" x="2258" y="-209.5" font-family="Helvetica,sans-Serif" font-size="10.00" fill="#000000">gko::matrix::Diagonal</text>
<text text-anchor="middle" x="2311" y="-198.5" font-family="Helvetica,sans-Serif" font-size="10.00" fill="#000000">&lt; ValueType &gt;</text>
</a>
</g>
</g>
<!-- Node2 -->
<g id="node2" class="node">
<title>Node2</title>
<g id="a_node2"><a xlink:href="classgko_1_1EnableLinOp.html" target="_top" xlink:title=" ">
<polygon fill="#ffffff" stroke="#000000" points="2053,-398.5 2053,-428.5 2209,-428.5 2209,-398.5 2053,-398.5"/>
<text text-anchor="start" x="2061" y="-416.5" font-family="Helvetica,sans-Serif" font-size="10.00" fill="#000000">gko::EnableLinOp&lt; Diagonal</text>
<text text-anchor="middle" x="2131" y="-405.5" font-family="Helvetica,sans-Serif" font-size="10.00" fill="#000000">&lt; ValueType &gt; &gt;</text>
</a>
</g>
</g>
<!-- Node2&#45;&gt;Node1 -->
<g id="edge1" class="edge">
<title>Node2&#45;&gt;Node1</title>
<path fill="none" stroke="#191970" d="M2170.1119,-393.421C2190.3096,-381.6919 2214.349,-365.4694 2232,-346.5 2268.1216,-307.6805 2294.1417,-249.3658 2305.1575,-221.8775"/>
<polygon fill="#191970" stroke="#191970" points="2168.1257,-390.523 2161.1389,-398.4876 2171.5675,-396.6184 2168.1257,-390.523"/>
</g>
<!-- Node3 -->
<g id="node3" class="node">
<title>Node3</title>
<g id="a_node3"><a xlink:href="classgko_1_1EnablePolymorphicObject.html" target="_top" xlink:title=" ">
<polygon fill="#ffffff" stroke="#000000" points="1705,-527 1705,-568 1871,-568 1871,-527 1705,-527"/>
<text text-anchor="start" x="1713" y="-556" font-family="Helvetica,sans-Serif" font-size="10.00" fill="#000000">gko::EnablePolymorphicObject</text>
<text text-anchor="start" x="1713" y="-545" font-family="Helvetica,sans-Serif" font-size="10.00" fill="#000000">&lt; Diagonal&lt; ValueType &gt;,</text>
<text text-anchor="middle" x="1788" y="-534" font-family="Helvetica,sans-Serif" font-size="10.00" fill="#000000"> LinOp &gt;</text>
</a>
</g>
</g>
<!-- Node3&#45;&gt;Node2 -->
<g id="edge2" class="edge">
<title>Node3&#45;&gt;Node2</title>
<path fill="none" stroke="#191970" d="M1850.5113,-523.0787C1921.085,-495.5076 2033.7032,-451.511 2092.4681,-428.5533"/>
<polygon fill="#191970" stroke="#191970" points="1848.8829,-519.9572 1840.8421,-526.8562 1851.4301,-526.4773 1848.8829,-519.9572"/>
</g>
<!-- Node4 -->
<g id="node4" class="node">
<title>Node4</title>
<g id="a_node4"><a xlink:href="classgko_1_1EnableAbstractPolymorphicObject.html" target="_top" xlink:title=" ">
<polygon fill="#ffffff" stroke="#000000" points="1323,-588 1323,-629 1498,-629 1498,-588 1323,-588"/>
<text text-anchor="start" x="1331" y="-617" font-family="Helvetica,sans-Serif" font-size="10.00" fill="#000000">gko::EnableAbstractPolymorphic</text>
<text text-anchor="start" x="1331" y="-606" font-family="Helvetica,sans-Serif" font-size="10.00" fill="#000000">Object&lt; Diagonal&lt; ValueType</text>
<text text-anchor="middle" x="1410.5" y="-595" font-family="Helvetica,sans-Serif" font-size="10.00" fill="#000000"> &gt;, LinOp &gt;</text>
</a>
</g>
</g>
<!-- Node4&#45;&gt;Node3 -->
<g id="edge3" class="edge">
<title>Node4&#45;&gt;Node3</title>
<path fill="none" stroke="#191970" d="M1508.0778,-592.7325C1569.0589,-582.8786 1646.7505,-570.3244 1704.8056,-560.9433"/>
<polygon fill="#191970" stroke="#191970" points="1507.3685,-589.3016 1498.0549,-594.3521 1508.4852,-596.2119 1507.3685,-589.3016"/>
</g>
<!-- Node5 -->
<g id="node5" class="node">
<title>Node5</title>
<g id="a_node5"><a xlink:href="classgko_1_1LinOp.html" target="_top" xlink:title=" ">
<polygon fill="#ffffff" stroke="#000000" points="979.5,-632 979.5,-651 1047.5,-651 1047.5,-632 979.5,-632"/>
<text text-anchor="middle" x="1013.5" y="-639" font-family="Helvetica,sans-Serif" font-size="10.00" fill="#000000">gko::LinOp</text>
</a>
</g>
</g>
<!-- Node5&#45;&gt;Node4 -->
<g id="edge4" class="edge">
<title>Node5&#45;&gt;Node4</title>
<path fill="none" stroke="#191970" d="M1057.8185,-637.8161C1121.6269,-632.5121 1240.7047,-622.614 1322.7141,-615.7971"/>
<polygon fill="#191970" stroke="#191970" points="1057.3673,-634.3414 1047.6916,-638.6579 1057.9472,-641.3174 1057.3673,-634.3414"/>
</g>
<!-- Node6 -->
<g id="node6" class="node">
<title>Node6</title>
<g id="a_node6"><a xlink:href="classgko_1_1EnableAbstractPolymorphicObject.html" target="_top" xlink:title=" ">
<polygon fill="#ffffff" stroke="#ff0000" points="542,-630.5 542,-660.5 717,-660.5 717,-630.5 542,-630.5"/>
<text text-anchor="start" x="550" y="-648.5" font-family="Helvetica,sans-Serif" font-size="10.00" fill="#000000">gko::EnableAbstractPolymorphic</text>
<text text-anchor="middle" x="629.5" y="-637.5" font-family="Helvetica,sans-Serif" font-size="10.00" fill="#000000">Object&lt; LinOp &gt;</text>
</a>
</g>
</g>
<!-- Node6&#45;&gt;Node5 -->
<g id="edge5" class="edge">
<title>Node6&#45;&gt;Node5</title>
<path fill="none" stroke="#191970" d="M727.2877,-644.4814C809.921,-643.6206 923.5085,-642.4374 979.491,-641.8543"/>
<polygon fill="#191970" stroke="#191970" points="727.079,-640.9833 717.116,-644.5873 727.152,-647.9829 727.079,-640.9833"/>
</g>
<!-- Node11 -->
<g id="node7" class="node">
<title>Node11</title>
<g id="a_node7"><a xlink:href="classgko_1_1EnableAbstractPolymorphicObject.html" target="_top" xlink:title="This mixin inherits from (a subclass of) PolymorphicObject and provides a base implementation of a ne...">
<polygon fill="#ffffff" stroke="#000000" points="138,-560 138,-601 336,-601 336,-560 138,-560"/>
<text text-anchor="start" x="146" y="-589" font-family="Helvetica,sans-Serif" font-size="10.00" fill="#000000">gko::EnableAbstractPolymorphic</text>
<text text-anchor="start" x="146" y="-578" font-family="Helvetica,sans-Serif" font-size="10.00" fill="#000000">Object&lt; AbstractObject, Polymorphic</text>
<text text-anchor="middle" x="237" y="-567" font-family="Helvetica,sans-Serif" font-size="10.00" fill="#000000">Base &gt;</text>
</a>
</g>
</g>
<!-- Node11&#45;&gt;Node4 -->
<g id="edge8" class="edge">
<title>Node11&#45;&gt;Node4</title>
<path fill="none" stroke="#ffa500" stroke-dasharray="5,2" d="M346.3115,-587.1776C348.8989,-587.2912 351.4648,-587.399 354,-587.5 713.2895,-601.8131 1141.7179,-606.5191 1322.8073,-607.9388"/>
<polygon fill="#ffa500" stroke="#ffa500" points="346.3944,-583.6778 336.2434,-586.7121 346.0711,-590.6703 346.3944,-583.6778"/>
<text text-anchor="start" x="761" y="-615.5" font-family="Helvetica,sans-Serif" font-size="10.00" fill="#000000"> &lt; Diagonal&lt; ValueType</text>
<text text-anchor="middle" x="820.5" y="-604.5" font-family="Helvetica,sans-Serif" font-size="10.00" fill="#000000"> &gt;, LinOp &gt;</text>
</g>
<!-- Node11&#45;&gt;Node6 -->
<g id="edge6" class="edge">
<title>Node11&#45;&gt;Node6</title>
<path fill="none" stroke="#ffa500" stroke-dasharray="5,2" d="M307.8795,-603.9538C322.9743,-608.3131 338.9134,-612.4486 354,-615.5 416.1302,-628.0665 487.2798,-635.6443 541.7091,-640.0397"/>
<polygon fill="#ffa500" stroke="#ffa500" points="308.6812,-600.5412 298.0994,-601.066 306.6988,-607.2547 308.6812,-600.5412"/>
<text text-anchor="middle" x="432.5" y="-639.5" font-family="Helvetica,sans-Serif" font-size="10.00" fill="#000000"> &lt; LinOp &gt;</text>
</g>
<!-- Node14 -->
<g id="node10" class="node">
<title>Node14</title>
<g id="a_node10"><a xlink:href="classgko_1_1EnableAbstractPolymorphicObject.html" target="_top" xlink:title=" ">
<polygon fill="#ffffff" stroke="#000000" points="529,-522 529,-563 730,-563 730,-522 529,-522"/>
<text text-anchor="start" x="537" y="-551" font-family="Helvetica,sans-Serif" font-size="10.00" fill="#000000">gko::EnableAbstractPolymorphic</text>
<text text-anchor="start" x="537" y="-540" font-family="Helvetica,sans-Serif" font-size="10.00" fill="#000000">Object&lt; ConcreteObject, Polymorphic</text>
<text text-anchor="middle" x="629.5" y="-529" font-family="Helvetica,sans-Serif" font-size="10.00" fill="#000000">Base &gt;</text>
</a>
</g>
</g>
<!-- Node11&#45;&gt;Node14 -->
<g id="edge12" class="edge">
<title>Node11&#45;&gt;Node14</title>
<path fill="none" stroke="#ffa500" stroke-dasharray="5,2" d="M346.3005,-566.3326C348.8913,-566.0467 351.4607,-565.7686 354,-565.5 411.8725,-559.3775 476.7267,-553.8951 528.9667,-549.8199"/>
<polygon fill="#ffa500" stroke="#ffa500" points="345.7655,-562.8707 336.2216,-567.4711 346.5512,-569.8265 345.7655,-562.8707"/>
<text text-anchor="start" x="354" y="-579.5" font-family="Helvetica,sans-Serif" font-size="10.00" fill="#000000"> &lt; ConcreteObject, Polymorphic</text>
<text text-anchor="middle" x="432.5" y="-568.5" font-family="Helvetica,sans-Serif" font-size="10.00" fill="#000000">Base &gt;</text>
</g>
<!-- Node21 -->
<g id="node17" class="node">
<title>Node21</title>
<g id="a_node17"><a xlink:href="classgko_1_1EnableAbstractPolymorphicObject.html" target="_top" xlink:title=" ">
<polygon fill="#ffffff" stroke="#000000" points="531,-457 531,-498 728,-498 728,-457 531,-457"/>
<text text-anchor="start" x="539" y="-486" font-family="Helvetica,sans-Serif" font-size="10.00" fill="#000000">gko::EnableAbstractPolymorphic</text>
<text text-anchor="start" x="539" y="-475" font-family="Helvetica,sans-Serif" font-size="10.00" fill="#000000">Object&lt; ConcreteLinOp, Polymorphic</text>
<text text-anchor="middle" x="629.5" y="-464" font-family="Helvetica,sans-Serif" font-size="10.00" fill="#000000">Base &gt;</text>
</a>
</g>
</g>
<!-- Node11&#45;&gt;Node21 -->
<g id="edge22" class="edge">
<title>Node11&#45;&gt;Node21</title>
<path fill="none" stroke="#ffa500" stroke-dasharray="5,2" d="M282.413,-555.1335C303.6047,-544.2541 329.5093,-532.2827 354,-524.5 411.2246,-506.315 477.5019,-494.7285 530.7078,-487.6105"/>
<polygon fill="#ffa500" stroke="#ffa500" points="280.5784,-552.143 273.3344,-559.8746 283.8187,-558.3479 280.5784,-552.143"/>
<text text-anchor="start" x="356" y="-538.5" font-family="Helvetica,sans-Serif" font-size="10.00" fill="#000000"> &lt; ConcreteLinOp, Polymorphic</text>
<text text-anchor="middle" x="432.5" y="-527.5" font-family="Helvetica,sans-Serif" font-size="10.00" fill="#000000">Base &gt;</text>
</g>
<!-- Node12 -->
<g id="node8" class="node">
<title>Node12</title>
<g id="a_node8"><a xlink:title=" ">
<polygon fill="#ffffff" stroke="#bfbfbf" points="0,-522 0,-541 101,-541 101,-522 0,-522"/>
<text text-anchor="middle" x="50.5" y="-529" font-family="Helvetica,sans-Serif" font-size="10.00" fill="#000000">PolymorphicBase</text>
</a>
</g>
</g>
<!-- Node12&#45;&gt;Node11 -->
<g id="edge7" class="edge">
<title>Node12&#45;&gt;Node11</title>
<path fill="none" stroke="#191970" d="M96.6373,-543.6219C115.3596,-548.5409 137.5184,-554.3628 158.6324,-559.9101"/>
<polygon fill="#191970" stroke="#191970" points="97.463,-540.2201 86.9018,-541.064 95.6842,-546.9903 97.463,-540.2201"/>
</g>
<!-- Node12&#45;&gt;Node14 -->
<g id="edge11" class="edge">
<title>Node12&#45;&gt;Node14</title>
<path fill="none" stroke="#191970" d="M111.2841,-532.6548C210.5662,-534.541 408.5048,-538.3015 528.9546,-540.5898"/>
<polygon fill="#191970" stroke="#191970" points="111.1867,-529.1524 101.122,-532.4617 111.0537,-536.1511 111.1867,-529.1524"/>
</g>
<!-- Node12&#45;&gt;Node21 -->
<g id="edge21" class="edge">
<title>Node12&#45;&gt;Node21</title>
<path fill="none" stroke="#191970" d="M110.89,-520.4609C171.9644,-509.7894 269.1962,-494.1468 354,-486.5 412.5051,-481.2246 478.2457,-478.939 530.832,-477.9889"/>
<polygon fill="#191970" stroke="#191970" points="110.2768,-517.0149 101.0345,-522.1947 111.4897,-523.9091 110.2768,-517.0149"/>
</g>
<!-- Node13 -->
<g id="node9" class="node">
<title>Node13</title>
<g id="a_node9"><a xlink:href="classgko_1_1EnablePolymorphicObject.html" target="_top" xlink:title="This mixin inherits from (a subclass of) PolymorphicObject and provides a base implementation of a ne...">
<polygon fill="#ffffff" stroke="#000000" points="911,-527.5 911,-557.5 1116,-557.5 1116,-527.5 911,-527.5"/>
<text text-anchor="start" x="919" y="-545.5" font-family="Helvetica,sans-Serif" font-size="10.00" fill="#000000">gko::EnablePolymorphicObject</text>
<text text-anchor="middle" x="1013.5" y="-534.5" font-family="Helvetica,sans-Serif" font-size="10.00" fill="#000000">&lt; ConcreteObject, PolymorphicBase &gt;</text>
</a>
</g>
</g>
<!-- Node13&#45;&gt;Node3 -->
<g id="edge9" class="edge">
<title>Node13&#45;&gt;Node3</title>
<path fill="none" stroke="#ffa500" stroke-dasharray="5,2" d="M1126.5313,-543.2297C1283.9049,-544.2457 1565.3731,-546.0628 1704.8939,-546.9635"/>
<polygon fill="#ffa500" stroke="#ffa500" points="1126.37,-539.7287 1116.3476,-543.164 1126.3248,-546.7285 1126.37,-539.7287"/>
<text text-anchor="start" x="1351" y="-559.5" font-family="Helvetica,sans-Serif" font-size="10.00" fill="#000000"> &lt; Diagonal&lt; ValueType</text>
<text text-anchor="middle" x="1410.5" y="-548.5" font-family="Helvetica,sans-Serif" font-size="10.00" fill="#000000"> &gt;, LinOp &gt;</text>
</g>
<!-- Node20 -->
<g id="node16" class="node">
<title>Node20</title>
<g id="a_node16"><a xlink:href="classgko_1_1EnablePolymorphicObject.html" target="_top" xlink:title=" ">
<polygon fill="#ffffff" stroke="#000000" points="1310,-462.5 1310,-492.5 1511,-492.5 1511,-462.5 1310,-462.5"/>
<text text-anchor="start" x="1318" y="-480.5" font-family="Helvetica,sans-Serif" font-size="10.00" fill="#000000">gko::EnablePolymorphicObject</text>
<text text-anchor="middle" x="1410.5" y="-469.5" font-family="Helvetica,sans-Serif" font-size="10.00" fill="#000000">&lt; ConcreteLinOp, PolymorphicBase &gt;</text>
</a>
</g>
</g>
<!-- Node13&#45;&gt;Node20 -->
<g id="edge23" class="edge">
<title>Node13&#45;&gt;Node20</title>
<path fill="none" stroke="#ffa500" stroke-dasharray="5,2" d="M1075.7886,-524.8375C1094.4016,-520.0046 1114.9295,-515.1098 1134,-511.5 1191.857,-500.5483 1257.2214,-492.3233 1309.8661,-486.7086"/>
<polygon fill="#ffa500" stroke="#ffa500" points="1074.7353,-521.4955 1065.9581,-527.4295 1076.52,-528.2642 1074.7353,-521.4955"/>
<text text-anchor="start" x="1136.5" y="-525.5" font-family="Helvetica,sans-Serif" font-size="10.00" fill="#000000"> &lt; ConcreteLinOp, Polymorphic</text>
<text text-anchor="middle" x="1213" y="-514.5" font-family="Helvetica,sans-Serif" font-size="10.00" fill="#000000">Base &gt;</text>
</g>
<!-- Node14&#45;&gt;Node13 -->
<g id="edge10" class="edge">
<title>Node14&#45;&gt;Node13</title>
<path fill="none" stroke="#191970" d="M740.3927,-542.5C794.1162,-542.5 858.22,-542.5 910.8171,-542.5"/>
<polygon fill="#191970" stroke="#191970" points="740.1406,-539.0001 730.1406,-542.5 740.1406,-546.0001 740.1406,-539.0001"/>
</g>
<!-- Node15 -->
<g id="node11" class="node">
<title>Node15</title>
<g id="a_node11"><a xlink:href="classgko_1_1EnablePolymorphicAssignment.html" target="_top" xlink:title=" ">
<polygon fill="#ffffff" stroke="#000000" points="1314.5,-411.5 1314.5,-441.5 1506.5,-441.5 1506.5,-411.5 1314.5,-411.5"/>
<text text-anchor="start" x="1322.5" y="-429.5" font-family="Helvetica,sans-Serif" font-size="10.00" fill="#000000">gko::EnablePolymorphicAssignment</text>
<text text-anchor="middle" x="1410.5" y="-418.5" font-family="Helvetica,sans-Serif" font-size="10.00" fill="#000000">&lt; Diagonal&lt; ValueType &gt; &gt;</text>
</a>
</g>
</g>
<!-- Node15&#45;&gt;Node2 -->
<g id="edge13" class="edge">
<title>Node15&#45;&gt;Node2</title>
<path fill="none" stroke="#191970" d="M1516.8881,-424.5804C1663.2583,-421.9395 1923.3191,-417.2472 2052.986,-414.9076"/>
<polygon fill="#191970" stroke="#191970" points="1516.4844,-421.0871 1506.5492,-424.767 1516.6108,-428.0859 1516.4844,-421.0871"/>
</g>
<!-- Node16 -->
<g id="node12" class="node">
<title>Node16</title>
<g id="a_node12"><a xlink:href="classgko_1_1ConvertibleTo.html" target="_top" xlink:title=" ">
<polygon fill="#ffffff" stroke="#000000" points="936,-418.5 936,-448.5 1091,-448.5 1091,-418.5 936,-418.5"/>
<text text-anchor="start" x="944" y="-436.5" font-family="Helvetica,sans-Serif" font-size="10.00" fill="#000000">gko::ConvertibleTo</text>
<text text-anchor="middle" x="1013.5" y="-425.5" font-family="Helvetica,sans-Serif" font-size="10.00" fill="#000000">&lt; Diagonal&lt; ValueType &gt; &gt;</text>
</a>
</g>
</g>
<!-- Node16&#45;&gt;Node15 -->
<g id="edge14" class="edge">
<title>Node16&#45;&gt;Node15</title>
<path fill="none" stroke="#191970" d="M1101.7874,-431.9433C1164.8734,-430.8309 1249.7034,-429.3352 1314.4755,-428.1931"/>
<polygon fill="#191970" stroke="#191970" points="1101.3975,-428.4495 1091.4607,-432.1254 1101.5209,-435.4484 1101.3975,-428.4495"/>
</g>
<!-- Node17 -->
<g id="node13" class="node">
<title>Node17</title>
<g id="a_node13"><a xlink:href="classgko_1_1ConvertibleTo.html" target="_top" xlink:title="ConvertibleTo interface is used to mark that the implementer can be converted to the object of Result...">
<polygon fill="#ffffff" stroke="#000000" points="576,-320.5 576,-350.5 683,-350.5 683,-320.5 576,-320.5"/>
<text text-anchor="start" x="584" y="-338.5" font-family="Helvetica,sans-Serif" font-size="10.00" fill="#000000">gko::ConvertibleTo</text>
<text text-anchor="middle" x="629.5" y="-327.5" font-family="Helvetica,sans-Serif" font-size="10.00" fill="#000000">&lt; ResultType &gt;</text>
</a>
</g>
</g>
<!-- Node17&#45;&gt;Node16 -->
<g id="edge15" class="edge">
<title>Node17&#45;&gt;Node16</title>
<path fill="none" stroke="#ffa500" stroke-dasharray="5,2" d="M682.8085,-353.6965C703.0987,-360.3313 726.5053,-367.637 748,-373.5 811.9408,-390.9407 885.509,-407.28 938.9645,-418.4901"/>
<polygon fill="#ffa500" stroke="#ffa500" points="683.7134,-350.3096 673.1203,-350.5026 681.5217,-356.9576 683.7134,-350.3096"/>
<text text-anchor="middle" x="820.5" y="-410.5" font-family="Helvetica,sans-Serif" font-size="10.00" fill="#000000"> &lt; Diagonal&lt; ValueType &gt; &gt;</text>
</g>
<!-- Node18 -->
<g id="node14" class="node">
<title>Node18</title>
<g id="a_node14"><a xlink:href="classgko_1_1EnablePolymorphicAssignment.html" target="_top" xlink:title="This mixin is used to enable a default PolymorphicObject::copy_from() implementation for objects that...">
<polygon fill="#ffffff" stroke="#000000" points="917.5,-369.5 917.5,-399.5 1109.5,-399.5 1109.5,-369.5 917.5,-369.5"/>
<text text-anchor="start" x="925.5" y="-387.5" font-family="Helvetica,sans-Serif" font-size="10.00" fill="#000000">gko::EnablePolymorphicAssignment</text>
<text text-anchor="middle" x="1013.5" y="-376.5" font-family="Helvetica,sans-Serif" font-size="10.00" fill="#000000">&lt; ConcreteType, ResultType &gt;</text>
</a>
</g>
</g>
<!-- Node17&#45;&gt;Node18 -->
<g id="edge17" class="edge">
<title>Node17&#45;&gt;Node18</title>
<path fill="none" stroke="#191970" d="M693.5588,-343.6742C754.5716,-351.4597 847.2174,-363.2816 917.1378,-372.2038"/>
<polygon fill="#191970" stroke="#191970" points="693.6605,-340.1588 683.2979,-342.3648 692.7744,-347.1025 693.6605,-340.1588"/>
</g>
<!-- Node23 -->
<g id="node19" class="node">
<title>Node23</title>
<g id="a_node19"><a xlink:href="classgko_1_1ConvertibleTo.html" target="_top" xlink:title=" ">
<polygon fill="#ffffff" stroke="#000000" points="958.5,-320.5 958.5,-350.5 1068.5,-350.5 1068.5,-320.5 958.5,-320.5"/>
<text text-anchor="start" x="966.5" y="-338.5" font-family="Helvetica,sans-Serif" font-size="10.00" fill="#000000">gko::ConvertibleTo</text>
<text text-anchor="middle" x="1013.5" y="-327.5" font-family="Helvetica,sans-Serif" font-size="10.00" fill="#000000">&lt; ConcreteLinOp &gt;</text>
</a>
</g>
</g>
<!-- Node17&#45;&gt;Node23 -->
<g id="edge26" class="edge">
<title>Node17&#45;&gt;Node23</title>
<path fill="none" stroke="#ffa500" stroke-dasharray="5,2" d="M693.4194,-335.5C767.4168,-335.5 888.0785,-335.5 958.2011,-335.5"/>
<polygon fill="#ffa500" stroke="#ffa500" points="693.2979,-332.0001 683.2979,-335.5 693.2979,-339.0001 693.2979,-332.0001"/>
<text text-anchor="middle" x="820.5" y="-338.5" font-family="Helvetica,sans-Serif" font-size="10.00" fill="#000000"> &lt; ConcreteLinOp &gt;</text>
</g>
<!-- Node26 -->
<g id="node22" class="node">
<title>Node26</title>
<g id="a_node22"><a xlink:href="classgko_1_1ConvertibleTo.html" target="_top" xlink:title=" ">
<polygon fill="#ffffff" stroke="#000000" points="1134,-229.5 1134,-259.5 1292,-259.5 1292,-229.5 1134,-229.5"/>
<text text-anchor="start" x="1142" y="-247.5" font-family="Helvetica,sans-Serif" font-size="10.00" fill="#000000">gko::ConvertibleTo</text>
<text text-anchor="middle" x="1213" y="-236.5" font-family="Helvetica,sans-Serif" font-size="10.00" fill="#000000">&lt; Csr&lt; ValueType, int32 &gt; &gt;</text>
</a>
</g>
</g>
<!-- Node17&#45;&gt;Node26 -->
<g id="edge31" class="edge">
<title>Node17&#45;&gt;Node26</title>
<path fill="none" stroke="#ffa500" stroke-dasharray="5,2" d="M656.4308,-314.3495C679.3472,-297.6957 713.8847,-275.6562 748,-265.5 878.8941,-226.5324 1039.617,-229.8623 1133.7409,-236.6261"/>
<polygon fill="#ffa500" stroke="#ffa500" points="654.1824,-311.6596 648.2421,-320.4324 658.3567,-317.2789 654.1824,-311.6596"/>
<text text-anchor="middle" x="820.5" y="-268.5" font-family="Helvetica,sans-Serif" font-size="10.00" fill="#000000"> &lt; Csr&lt; ValueType, int32 &gt; &gt;</text>
</g>
<!-- Node27 -->
<g id="node23" class="node">
<title>Node27</title>
<g id="a_node23"><a xlink:href="classgko_1_1ConvertibleTo.html" target="_top" xlink:title=" ">
<polygon fill="#ffffff" stroke="#000000" points="1529,-296.5 1529,-326.5 1687,-326.5 1687,-296.5 1529,-296.5"/>
<text text-anchor="start" x="1537" y="-314.5" font-family="Helvetica,sans-Serif" font-size="10.00" fill="#000000">gko::ConvertibleTo</text>
<text text-anchor="middle" x="1608" y="-303.5" font-family="Helvetica,sans-Serif" font-size="10.00" fill="#000000">&lt; Csr&lt; ValueType, int64 &gt; &gt;</text>
</a>
</g>
</g>
<!-- Node17&#45;&gt;Node27 -->
<g id="edge33" class="edge">
<title>Node17&#45;&gt;Node27</title>
<path fill="none" stroke="#ffa500" stroke-dasharray="5,2" d="M692.9493,-325.3337C749.8662,-316.7586 835.7654,-305.1592 911,-300.5 1134.7646,-286.6426 1399.6626,-298.6006 1528.9899,-306.2686"/>
<polygon fill="#ffa500" stroke="#ffa500" points="692.3794,-321.88 683.0192,-326.8434 693.4317,-328.8005 692.3794,-321.88"/>
<text text-anchor="middle" x="1013.5" y="-303.5" font-family="Helvetica,sans-Serif" font-size="10.00" fill="#000000"> &lt; Csr&lt; ValueType, int64 &gt; &gt;</text>
</g>
<!-- Node18&#45;&gt;Node15 -->
<g id="edge16" class="edge">
<title>Node18&#45;&gt;Node15</title>
<path fill="none" stroke="#ffa500" stroke-dasharray="5,2" d="M1119.767,-395.4267C1171.7063,-400.8026 1235.1289,-407.4196 1292,-413.5 1299.3056,-414.2811 1306.8637,-415.0955 1314.4639,-415.9191"/>
<polygon fill="#ffa500" stroke="#ffa500" points="1119.8447,-391.9161 1109.5376,-394.3685 1119.1244,-398.8789 1119.8447,-391.9161"/>
<text text-anchor="middle" x="1213" y="-416.5" font-family="Helvetica,sans-Serif" font-size="10.00" fill="#000000"> &lt; Diagonal&lt; ValueType &gt; &gt;</text>
</g>
<!-- Node22 -->
<g id="node18" class="node">
<title>Node22</title>
<g id="a_node18"><a xlink:href="classgko_1_1EnablePolymorphicAssignment.html" target="_top" xlink:title=" ">
<polygon fill="#ffffff" stroke="#000000" points="1314.5,-358.5 1314.5,-388.5 1506.5,-388.5 1506.5,-358.5 1314.5,-358.5"/>
<text text-anchor="start" x="1322.5" y="-376.5" font-family="Helvetica,sans-Serif" font-size="10.00" fill="#000000">gko::EnablePolymorphicAssignment</text>
<text text-anchor="middle" x="1410.5" y="-365.5" font-family="Helvetica,sans-Serif" font-size="10.00" fill="#000000">&lt; ConcreteLinOp &gt;</text>
</a>
</g>
</g>
<!-- Node18&#45;&gt;Node22 -->
<g id="edge27" class="edge">
<title>Node18&#45;&gt;Node22</title>
<path fill="none" stroke="#ffa500" stroke-dasharray="5,2" d="M1120.126,-375.1971C1124.8124,-374.9316 1129.4532,-374.6966 1134,-374.5 1193.9487,-371.9082 1261.2765,-371.609 1314.4844,-371.9815"/>
<polygon fill="#ffa500" stroke="#ffa500" points="1119.5818,-371.7236 1109.8126,-375.824 1120.0065,-378.7107 1119.5818,-371.7236"/>
<text text-anchor="middle" x="1213" y="-377.5" font-family="Helvetica,sans-Serif" font-size="10.00" fill="#000000"> &lt; ConcreteLinOp &gt;</text>
</g>
<!-- Node19 -->
<g id="node15" class="node">
<title>Node19</title>
<g id="a_node15"><a xlink:href="classgko_1_1EnableLinOp.html" target="_top" xlink:title="The EnableLinOp mixin can be used to provide sensible default implementations of the majority of the ...">
<polygon fill="#ffffff" stroke="#000000" points="1710,-367.5 1710,-397.5 1866,-397.5 1866,-367.5 1710,-367.5"/>
<text text-anchor="start" x="1718" y="-385.5" font-family="Helvetica,sans-Serif" font-size="10.00" fill="#000000">gko::EnableLinOp&lt; Concrete</text>
<text text-anchor="middle" x="1788" y="-374.5" font-family="Helvetica,sans-Serif" font-size="10.00" fill="#000000">LinOp, PolymorphicBase &gt;</text>
</a>
</g>
</g>
<!-- Node19&#45;&gt;Node2 -->
<g id="edge18" class="edge">
<title>Node19&#45;&gt;Node2</title>
<path fill="none" stroke="#ffa500" stroke-dasharray="5,2" d="M1876.0227,-388.5003C1922.2067,-391.8716 1979.7047,-396.4191 2031,-401.5 2038.1342,-402.2067 2045.5482,-402.9948 2052.9695,-403.8201"/>
<polygon fill="#ffa500" stroke="#ffa500" points="1876.2729,-385.0094 1866.0461,-387.7775 1875.767,-391.9911 1876.2729,-385.0094"/>
<text text-anchor="middle" x="1960" y="-404.5" font-family="Helvetica,sans-Serif" font-size="10.00" fill="#000000"> &lt; Diagonal&lt; ValueType &gt; &gt;</text>
</g>
<!-- Node20&#45;&gt;Node19 -->
<g id="edge19" class="edge">
<title>Node20&#45;&gt;Node19</title>
<path fill="none" stroke="#191970" d="M1480.0986,-459.9851C1551.2861,-442.0704 1660.7277,-414.5288 1728.1522,-397.561"/>
<polygon fill="#191970" stroke="#191970" points="1479.1594,-456.6123 1470.316,-462.447 1480.8678,-463.4006 1479.1594,-456.6123"/>
</g>
<!-- Node21&#45;&gt;Node20 -->
<g id="edge20" class="edge">
<title>Node21&#45;&gt;Node20</title>
<path fill="none" stroke="#191970" d="M738.2744,-477.5C889.8867,-477.5 1162.6433,-477.5 1309.8068,-477.5"/>
<polygon fill="#191970" stroke="#191970" points="738.0185,-474.0001 728.0185,-477.5 738.0184,-481.0001 738.0185,-474.0001"/>
</g>
<!-- Node22&#45;&gt;Node19 -->
<g id="edge24" class="edge">
<title>Node22&#45;&gt;Node19</title>
<path fill="none" stroke="#191970" d="M1516.8349,-376.0351C1578.1431,-377.4968 1653.8863,-379.3026 1709.7245,-380.6338"/>
<polygon fill="#191970" stroke="#191970" points="1516.8166,-372.5338 1506.7359,-375.7944 1516.6496,-379.5318 1516.8166,-372.5338"/>
</g>
<!-- Node23&#45;&gt;Node22 -->
<g id="edge25" class="edge">
<title>Node23&#45;&gt;Node22</title>
<path fill="none" stroke="#191970" d="M1078.6711,-341.738C1142.6894,-347.8657 1241.1179,-357.2871 1314.1678,-364.2793"/>
<polygon fill="#191970" stroke="#191970" points="1078.9892,-338.2526 1068.7011,-340.7837 1078.3221,-345.2207 1078.9892,-338.2526"/>
</g>
<!-- Node24 -->
<g id="node20" class="node">
<title>Node24</title>
<g id="a_node20"><a xlink:href="classgko_1_1EnableCreateMethod.html" target="_top" xlink:title=" ">
<polygon fill="#ffffff" stroke="#000000" points="2053.5,-273.5 2053.5,-303.5 2208.5,-303.5 2208.5,-273.5 2053.5,-273.5"/>
<text text-anchor="start" x="2061.5" y="-291.5" font-family="Helvetica,sans-Serif" font-size="10.00" fill="#000000">gko::EnableCreateMethod</text>
<text text-anchor="middle" x="2131" y="-280.5" font-family="Helvetica,sans-Serif" font-size="10.00" fill="#000000">&lt; Diagonal&lt; ValueType &gt; &gt;</text>
</a>
</g>
</g>
<!-- Node24&#45;&gt;Node1 -->
<g id="edge28" class="edge">
<title>Node24&#45;&gt;Node1</title>
<path fill="none" stroke="#191970" d="M2201.9555,-270.3109C2212.2184,-266.8542 2222.5109,-262.9145 2232,-258.5 2253.587,-248.4574 2276.0645,-233.1088 2291.4982,-221.6866"/>
<polygon fill="#191970" stroke="#191970" points="2200.5926,-267.073 2192.1522,-273.4768 2202.7439,-273.7343 2200.5926,-267.073"/>
</g>
<!-- Node25 -->
<g id="node21" class="node">
<title>Node25</title>
<g id="a_node21"><a xlink:href="classgko_1_1EnableCreateMethod.html" target="_top" xlink:title="This mixin implements a static create() method on ConcreteType that dynamically allocates the memory,...">
<polygon fill="#ffffff" stroke="#000000" points="1717,-273.5 1717,-303.5 1859,-303.5 1859,-273.5 1717,-273.5"/>
<text text-anchor="start" x="1725" y="-291.5" font-family="Helvetica,sans-Serif" font-size="10.00" fill="#000000">gko::EnableCreateMethod</text>
<text text-anchor="middle" x="1788" y="-280.5" font-family="Helvetica,sans-Serif" font-size="10.00" fill="#000000">&lt; ConcreteType &gt;</text>
</a>
</g>
</g>
<!-- Node25&#45;&gt;Node24 -->
<g id="edge29" class="edge">
<title>Node25&#45;&gt;Node24</title>
<path fill="none" stroke="#ffa500" stroke-dasharray="5,2" d="M1869.2624,-288.5C1925.0029,-288.5 1998.5261,-288.5 2053.4526,-288.5"/>
<polygon fill="#ffa500" stroke="#ffa500" points="1869.0699,-285.0001 1859.0698,-288.5 1869.0698,-292.0001 1869.0699,-285.0001"/>
<text text-anchor="middle" x="1960" y="-291.5" font-family="Helvetica,sans-Serif" font-size="10.00" fill="#000000"> &lt; Diagonal&lt; ValueType &gt; &gt;</text>
</g>
<!-- Node26&#45;&gt;Node1 -->
<g id="edge30" class="edge">
<title>Node26&#45;&gt;Node1</title>
<path fill="none" stroke="#191970" d="M1302.1098,-244.5C1382.1677,-244.5 1502.9425,-244.5 1608,-244.5 1608,-244.5 1608,-244.5 2131,-244.5 2177.6306,-244.5 2229.6193,-232.1403 2265.6877,-221.5186"/>
<polygon fill="#191970" stroke="#191970" points="1302.0655,-241.0001 1292.0654,-244.5 1302.0654,-248.0001 1302.0655,-241.0001"/>
</g>
<!-- Node27&#45;&gt;Node1 -->
<g id="edge32" class="edge">
<title>Node27&#45;&gt;Node1</title>
<path fill="none" stroke="#191970" d="M1675.5387,-328.7794C1791.2775,-354.7735 2032.4806,-392.9564 2213,-313.5 2255.8838,-294.6245 2288.1856,-246.6929 2302.6443,-221.8916"/>
<polygon fill="#191970" stroke="#191970" points="1676.2716,-325.3567 1665.7432,-326.5408 1674.7121,-332.1808 1676.2716,-325.3567"/>
</g>
<!-- Node28 -->
<g id="node24" class="node">
<title>Node28</title>
<g id="a_node24"><a xlink:href="classgko_1_1Transposable.html" target="_top" xlink:title="Linear operators which support transposition should implement the Transposable interface.">
<polygon fill="#ffffff" stroke="#000000" points="2079,-197 2079,-216 2183,-216 2183,-197 2079,-197"/>
<text text-anchor="middle" x="2131" y="-204" font-family="Helvetica,sans-Serif" font-size="10.00" fill="#000000">gko::Transposable</text>
</a>
</g>
</g>
<!-- Node28&#45;&gt;Node1 -->
<g id="edge34" class="edge">
<title>Node28&#45;&gt;Node1</title>
<path fill="none" stroke="#191970" d="M2193.0679,-206.5C2211.435,-206.5 2231.5249,-206.5 2249.8346,-206.5"/>
<polygon fill="#191970" stroke="#191970" points="2193.0635,-203.0001 2183.0635,-206.5 2193.0634,-210.0001 2193.0635,-203.0001"/>
</g>
<!-- Node29 -->
<g id="node25" class="node">
<title>Node29</title>
<g id="a_node25"><a xlink:href="classgko_1_1WritableToMatrixData.html" target="_top" xlink:title=" ">
<polygon fill="#ffffff" stroke="#000000" points="2058,-147.5 2058,-177.5 2204,-177.5 2204,-147.5 2058,-147.5"/>
<text text-anchor="start" x="2066" y="-165.5" font-family="Helvetica,sans-Serif" font-size="10.00" fill="#000000">gko::WritableToMatrixData</text>
<text text-anchor="middle" x="2131" y="-154.5" font-family="Helvetica,sans-Serif" font-size="10.00" fill="#000000">&lt; ValueType, int32 &gt;</text>
</a>
</g>
</g>
<!-- Node29&#45;&gt;Node1 -->
<g id="edge35" class="edge">
<title>Node29&#45;&gt;Node1</title>
<path fill="none" stroke="#191970" d="M2202.5879,-179.9993C2218.2286,-183.8225 2234.6442,-187.8353 2249.8346,-191.5484"/>
<polygon fill="#191970" stroke="#191970" points="2202.9875,-176.4939 2192.4423,-177.5192 2201.3252,-183.2937 2202.9875,-176.4939"/>
</g>
<!-- Node30 -->
<g id="node26" class="node">
<title>Node30</title>
<g id="a_node26"><a xlink:href="classgko_1_1WritableToMatrixData.html" target="_top" xlink:title="A LinOp implementing this interface can write its data to a matrix_data structure.">
<polygon fill="#ffffff" stroke="#000000" points="1715,-107.5 1715,-137.5 1861,-137.5 1861,-107.5 1715,-107.5"/>
<text text-anchor="start" x="1723" y="-125.5" font-family="Helvetica,sans-Serif" font-size="10.00" fill="#000000">gko::WritableToMatrixData</text>
<text text-anchor="middle" x="1788" y="-114.5" font-family="Helvetica,sans-Serif" font-size="10.00" fill="#000000">&lt; ValueType, IndexType &gt;</text>
</a>
</g>
</g>
<!-- Node30&#45;&gt;Node29 -->
<g id="edge36" class="edge">
<title>Node30&#45;&gt;Node29</title>
<path fill="none" stroke="#ffa500" stroke-dasharray="5,2" d="M1871.2273,-132.4089C1877.2416,-133.1186 1883.2139,-133.8215 1889,-134.5 1945.7086,-141.1495 2009.9055,-148.5724 2057.9227,-154.1039"/>
<polygon fill="#ffa500" stroke="#ffa500" points="1871.4331,-128.9089 1861.0914,-131.211 1870.6115,-135.8605 1871.4331,-128.9089"/>
<text text-anchor="middle" x="1960" y="-153.5" font-family="Helvetica,sans-Serif" font-size="10.00" fill="#000000"> &lt; ValueType, int32 &gt;</text>
</g>
<!-- Node31 -->
<g id="node27" class="node">
<title>Node31</title>
<g id="a_node27"><a xlink:href="classgko_1_1WritableToMatrixData.html" target="_top" xlink:title=" ">
<polygon fill="#ffffff" stroke="#000000" points="2058,-98.5 2058,-128.5 2204,-128.5 2204,-98.5 2058,-98.5"/>
<text text-anchor="start" x="2066" y="-116.5" font-family="Helvetica,sans-Serif" font-size="10.00" fill="#000000">gko::WritableToMatrixData</text>
<text text-anchor="middle" x="2131" y="-105.5" font-family="Helvetica,sans-Serif" font-size="10.00" fill="#000000">&lt; ValueType, int64 &gt;</text>
</a>
</g>
</g>
<!-- Node30&#45;&gt;Node31 -->
<g id="edge38" class="edge">
<title>Node30&#45;&gt;Node31</title>
<path fill="none" stroke="#ffa500" stroke-dasharray="5,2" d="M1871.234,-120.316C1928.2754,-118.8193 2003.2253,-116.8527 2057.951,-115.4167"/>
<polygon fill="#ffa500" stroke="#ffa500" points="1871.0661,-116.8191 1861.1614,-120.5803 1871.2498,-123.8167 1871.0661,-116.8191"/>
<text text-anchor="middle" x="1960" y="-122.5" font-family="Helvetica,sans-Serif" font-size="10.00" fill="#000000"> &lt; ValueType, int64 &gt;</text>
</g>
<!-- Node31&#45;&gt;Node1 -->
<g id="edge37" class="edge">
<title>Node31&#45;&gt;Node1</title>
<path fill="none" stroke="#191970" d="M2198.4551,-132.1916C2203.4487,-134.1426 2208.348,-136.2455 2213,-138.5 2243.0032,-153.0401 2274.0293,-176.187 2292.9247,-191.3641"/>
<polygon fill="#191970" stroke="#191970" points="2199.369,-128.7985 2188.7756,-128.6271 2196.95,-135.3672 2199.369,-128.7985"/>
</g>
<!-- Node32 -->
<g id="node28" class="node">
<title>Node32</title>
<g id="a_node28"><a xlink:href="classgko_1_1ReadableFromMatrixData.html" target="_top" xlink:title=" ">
<polygon fill="#ffffff" stroke="#000000" points="2049,-49.5 2049,-79.5 2213,-79.5 2213,-49.5 2049,-49.5"/>
<text text-anchor="start" x="2057" y="-67.5" font-family="Helvetica,sans-Serif" font-size="10.00" fill="#000000">gko::ReadableFromMatrixData</text>
<text text-anchor="middle" x="2131" y="-56.5" font-family="Helvetica,sans-Serif" font-size="10.00" fill="#000000">&lt; ValueType, int32 &gt;</text>
</a>
</g>
</g>
<!-- Node32&#45;&gt;Node1 -->
<g id="edge39" class="edge">
<title>Node32&#45;&gt;Node1</title>
<path fill="none" stroke="#191970" d="M2203.2408,-83.8211C2206.627,-85.5599 2209.9013,-87.4488 2213,-89.5 2254.0957,-116.7035 2287.2077,-166.1404 2302.2432,-191.1423"/>
<polygon fill="#191970" stroke="#191970" points="2204.6041,-80.5953 2194.0599,-79.5609 2201.6576,-86.945 2204.6041,-80.5953"/>
</g>
<!-- Node33 -->
<g id="node29" class="node">
<title>Node33</title>
<g id="a_node29"><a xlink:href="classgko_1_1ReadableFromMatrixData.html" target="_top" xlink:title="A LinOp implementing this interface can read its data from a matrix_data structure.">
<polygon fill="#ffffff" stroke="#000000" points="1706,-41.5 1706,-71.5 1870,-71.5 1870,-41.5 1706,-41.5"/>
<text text-anchor="start" x="1714" y="-59.5" font-family="Helvetica,sans-Serif" font-size="10.00" fill="#000000">gko::ReadableFromMatrixData</text>
<text text-anchor="middle" x="1788" y="-48.5" font-family="Helvetica,sans-Serif" font-size="10.00" fill="#000000">&lt; ValueType, IndexType &gt;</text>
</a>
</g>
</g>
<!-- Node33&#45;&gt;Node32 -->
<g id="edge40" class="edge">
<title>Node33&#45;&gt;Node32</title>
<path fill="none" stroke="#ffa500" stroke-dasharray="5,2" d="M1880.1586,-58.6495C1932.7478,-59.876 1998.1042,-61.4004 2048.9196,-62.5856"/>
<polygon fill="#ffa500" stroke="#ffa500" points="1880.236,-55.1504 1870.157,-58.4162 1880.0727,-62.1485 1880.236,-55.1504"/>
<text text-anchor="middle" x="1960" y="-64.5" font-family="Helvetica,sans-Serif" font-size="10.00" fill="#000000"> &lt; ValueType, int32 &gt;</text>
</g>
<!-- Node34 -->
<g id="node30" class="node">
<title>Node34</title>
<g id="a_node30"><a xlink:href="classgko_1_1ReadableFromMatrixData.html" target="_top" xlink:title=" ">
<polygon fill="#ffffff" stroke="#000000" points="2049,-.5 2049,-30.5 2213,-30.5 2213,-.5 2049,-.5"/>
<text text-anchor="start" x="2057" y="-18.5" font-family="Helvetica,sans-Serif" font-size="10.00" fill="#000000">gko::ReadableFromMatrixData</text>
<text text-anchor="middle" x="2131" y="-7.5" font-family="Helvetica,sans-Serif" font-size="10.00" fill="#000000">&lt; ValueType, int64 &gt;</text>
</a>
</g>
</g>
<!-- Node33&#45;&gt;Node34 -->
<g id="edge42" class="edge">
<title>Node33&#45;&gt;Node34</title>
<path fill="none" stroke="#ffa500" stroke-dasharray="5,2" d="M1880.243,-44.5779C1883.196,-44.212 1886.1209,-43.8518 1889,-43.5 1942.212,-36.9974 2002.0558,-30.0699 2048.9199,-24.7324"/>
<polygon fill="#ffa500" stroke="#ffa500" points="1879.6101,-41.1296 1870.1203,-45.8407 1880.4767,-48.0758 1879.6101,-41.1296"/>
<text text-anchor="middle" x="1960" y="-46.5" font-family="Helvetica,sans-Serif" font-size="10.00" fill="#000000"> &lt; ValueType, int64 &gt;</text>
</g>
<!-- Node34&#45;&gt;Node1 -->
<g id="edge41" class="edge">
<title>Node34&#45;&gt;Node1</title>
<path fill="none" stroke="#191970" d="M2205.7334,-35.4472C2208.2639,-37.0069 2210.6974,-38.688 2213,-40.5 2265.0746,-81.4782 2295.2205,-158.3704 2306.2073,-191.1087"/>
<polygon fill="#191970" stroke="#191970" points="2207.2628,-32.295 2196.8047,-30.5984 2203.9222,-38.4464 2207.2628,-32.295"/>
</g>
</g>
</svg>
