<?xml version="1.0" encoding="UTF-8" standalone="no"?>
<!DOCTYPE svg PUBLIC "-//W3C//DTD SVG 1.1//EN"
 "http://www.w3.org/Graphics/SVG/1.1/DTD/svg11.dtd">
<!-- Generated by graphviz version 2.40.1 (20161225.0304)
 -->
<!-- Title: gko::matrix::Sellp&lt; ValueType, IndexType &gt; Pages: 1 -->
<!--zoomable 507 -->
<svg id="main" version="1.1" xmlns="http://www.w3.org/2000/svg" xmlns:xlink="http://www.w3.org/1999/xlink" xml:space="preserve" onload="init(evt)">
<style type="text/css"><![CDATA[
.edge:hover path { stroke: red; }
.edge:hover polygon { stroke: red; fill: red; }
]]></style>
<script type="text/javascript"><![CDATA[
var edges = document.getElementsByTagName('g');
if (edges && edges.length) {
  for (var i=0;i<edges.length;i++) {
    if (edges[i].id.substr(0,4)=='edge') {
      edges[i].setAttribute('class','edge');
    }
  }
}
]]></script>
        <defs>
                <circle id="rim" cx="0" cy="0" r="7"/>
                <circle id="rim2" cx="0" cy="0" r="3.5"/>
                <g id="zoomPlus">
                        <use xlink:href="#rim" fill="#404040">
                                <set attributeName="fill" to="#808080" begin="zoomplus.mouseover" end="zoomplus.mouseout"/>
                        </use>
                        <path d="M-4,0h8M0,-4v8" fill="none" stroke="white" stroke-width="1.5" pointer-events="none"/>
                </g>
                <g id="zoomMin">
                        <use xlink:href="#rim" fill="#404040">
                                <set attributeName="fill" to="#808080" begin="zoomminus.mouseover" end="zoomminus.mouseout"/>
                        </use>
                        <path d="M-4,0h8" fill="none" stroke="white" stroke-width="1.5" pointer-events="none"/>
                </g>
                <g id="dirArrow">
                        <path fill="none" stroke="white" stroke-width="1.5" d="M0,-3.0v7 M-2.5,-0.5L0,-3.0L2.5,-0.5"/>
                </g>
               <g id="resetDef">
                       <use xlink:href="#rim2" fill="#404040">
                               <set attributeName="fill" to="#808080" begin="reset.mouseover" end="reset.mouseout"/>
                       </use>
               </g>
        </defs>

<script type="text/javascript">
var viewWidth = 2472;
var viewHeight = 507;
var sectionId = 'dynsection-0';
</script>
<script xlink:href="svgpan.js"/>
<svg id="graph" class="graph">
<g id="viewport">
<title>gko::matrix::Sellp&lt; ValueType, IndexType &gt;</title>
<polygon fill="#ffffff" stroke="transparent" points="-4,4 -4,-502.5 2468,-502.5 2468,4 -4,4"/>
<!-- Node1 -->
<g id="node1" class="node">
<title>Node1</title>
<g id="a_node1"><a xlink:title="SELL&#45;P is a matrix format similar to ELL format.">
<polygon fill="#bfbfbf" stroke="#000000" points="2320,-293.5 2320,-323.5 2464,-323.5 2464,-293.5 2320,-293.5"/>
<text text-anchor="start" x="2328" y="-311.5" font-family="Helvetica,sans-Serif" font-size="10.00" fill="#000000">gko::matrix::Sellp</text>
<text text-anchor="middle" x="2392" y="-300.5" font-family="Helvetica,sans-Serif" font-size="10.00" fill="#000000">&lt; ValueType, IndexType &gt;</text>
</a>
</g>
</g>
<!-- Node2 -->
<g id="node2" class="node">
<title>Node2</title>
<g id="a_node2"><a xlink:href="classgko_1_1EnableLinOp.html" target="_top" xlink:title=" ">
<polygon fill="#ffffff" stroke="#000000" points="2110,-293.5 2110,-323.5 2265,-323.5 2265,-293.5 2110,-293.5"/>
<text text-anchor="start" x="2118" y="-311.5" font-family="Helvetica,sans-Serif" font-size="10.00" fill="#000000">gko::EnableLinOp&lt; Sellp</text>
<text text-anchor="middle" x="2187.5" y="-300.5" font-family="Helvetica,sans-Serif" font-size="10.00" fill="#000000">&lt; ValueType, IndexType &gt; &gt;</text>
</a>
</g>
</g>
<!-- Node2&#45;&gt;Node1 -->
<g id="edge1" class="edge">
<title>Node2&#45;&gt;Node1</title>
<path fill="none" stroke="#191970" d="M2275.3079,-308.5C2290.1652,-308.5 2305.4377,-308.5 2319.8363,-308.5"/>
<polygon fill="#191970" stroke="#191970" points="2275.1043,-305.0001 2265.1043,-308.5 2275.1042,-312.0001 2275.1043,-305.0001"/>
</g>
<!-- Node3 -->
<g id="node3" class="node">
<title>Node3</title>
<g id="a_node3"><a xlink:href="classgko_1_1EnablePolymorphicObject.html" target="_top" xlink:title=" ">
<polygon fill="#ffffff" stroke="#000000" points="1706,-122 1706,-163 1874,-163 1874,-122 1706,-122"/>
<text text-anchor="start" x="1714" y="-151" font-family="Helvetica,sans-Serif" font-size="10.00" fill="#000000">gko::EnablePolymorphicObject</text>
<text text-anchor="start" x="1714" y="-140" font-family="Helvetica,sans-Serif" font-size="10.00" fill="#000000">&lt; Sellp&lt; ValueType, IndexType</text>
<text text-anchor="middle" x="1790" y="-129" font-family="Helvetica,sans-Serif" font-size="10.00" fill="#000000"> &gt;, LinOp &gt;</text>
</a>
</g>
</g>
<!-- Node3&#45;&gt;Node2 -->
<g id="edge2" class="edge">
<title>Node3&#45;&gt;Node2</title>
<path fill="none" stroke="#191970" d="M1884.1849,-158.5419C1944.5195,-172.9869 2021.1353,-199.6089 2074,-247.5 2087.5528,-259.7777 2077.8048,-272.9711 2092,-284.5 2097.3081,-288.811 2103.2889,-292.3608 2109.6027,-295.2819"/>
<polygon fill="#191970" stroke="#191970" points="1884.7989,-155.0915 1874.2667,-156.2411 1883.217,-161.9104 1884.7989,-155.0915"/>
</g>
<!-- Node4 -->
<g id="node4" class="node">
<title>Node4</title>
<g id="a_node4"><a xlink:href="classgko_1_1EnableAbstractPolymorphicObject.html" target="_top" xlink:title=" ">
<polygon fill="#ffffff" stroke="#000000" points="1340,-34 1340,-75 1515,-75 1515,-34 1340,-34"/>
<text text-anchor="start" x="1348" y="-63" font-family="Helvetica,sans-Serif" font-size="10.00" fill="#000000">gko::EnableAbstractPolymorphic</text>
<text text-anchor="start" x="1348" y="-52" font-family="Helvetica,sans-Serif" font-size="10.00" fill="#000000">Object&lt; Sellp&lt; ValueType,</text>
<text text-anchor="middle" x="1427.5" y="-41" font-family="Helvetica,sans-Serif" font-size="10.00" fill="#000000"> IndexType &gt;, LinOp &gt;</text>
</a>
</g>
</g>
<!-- Node4&#45;&gt;Node3 -->
<g id="edge3" class="edge">
<title>Node4&#45;&gt;Node3</title>
<path fill="none" stroke="#191970" d="M1525.258,-59.1391C1575.5826,-64.3412 1636.9237,-75.1598 1688,-97.5 1697.2855,-101.5614 1697.1415,-106.5763 1706,-111.5 1712.7935,-115.2759 1720.1377,-118.7594 1727.5582,-121.9207"/>
<polygon fill="#191970" stroke="#191970" points="1525.313,-55.628 1515.0208,-58.1419 1524.6343,-62.595 1525.313,-55.628"/>
</g>
<!-- Node5 -->
<g id="node5" class="node">
<title>Node5</title>
<g id="a_node5"><a xlink:href="classgko_1_1LinOp.html" target="_top" xlink:title=" ">
<polygon fill="#ffffff" stroke="#000000" points="985.5,-10 985.5,-29 1053.5,-29 1053.5,-10 985.5,-10"/>
<text text-anchor="middle" x="1019.5" y="-17" font-family="Helvetica,sans-Serif" font-size="10.00" fill="#000000">gko::LinOp</text>
</a>
</g>
</g>
<!-- Node5&#45;&gt;Node4 -->
<g id="edge4" class="edge">
<title>Node5&#45;&gt;Node4</title>
<path fill="none" stroke="#191970" d="M1063.6219,-23.285C1129.4386,-28.931 1254.6694,-39.6738 1339.6204,-46.9613"/>
<polygon fill="#191970" stroke="#191970" points="1063.8467,-19.7915 1053.5841,-22.4239 1063.2483,-26.7659 1063.8467,-19.7915"/>
</g>
<!-- Node6 -->
<g id="node6" class="node">
<title>Node6</title>
<g id="a_node6"><a xlink:href="classgko_1_1EnableAbstractPolymorphicObject.html" target="_top" xlink:title=" ">
<polygon fill="#ffffff" stroke="#ff0000" points="542,-.5 542,-30.5 717,-30.5 717,-.5 542,-.5"/>
<text text-anchor="start" x="550" y="-18.5" font-family="Helvetica,sans-Serif" font-size="10.00" fill="#000000">gko::EnableAbstractPolymorphic</text>
<text text-anchor="middle" x="629.5" y="-7.5" font-family="Helvetica,sans-Serif" font-size="10.00" fill="#000000">Object&lt; LinOp &gt;</text>
</a>
</g>
</g>
<!-- Node6&#45;&gt;Node5 -->
<g id="edge5" class="edge">
<title>Node6&#45;&gt;Node5</title>
<path fill="none" stroke="#191970" d="M727.1193,-16.5012C811.2777,-17.3644 927.9924,-18.5615 985.1613,-19.1478"/>
<polygon fill="#191970" stroke="#191970" points="727.059,-13.0005 717.0236,-16.3977 726.9872,-20.0002 727.059,-13.0005"/>
</g>
<!-- Node11 -->
<g id="node7" class="node">
<title>Node11</title>
<g id="a_node7"><a xlink:href="classgko_1_1EnableAbstractPolymorphicObject.html" target="_top" xlink:title="This mixin inherits from (a subclass of) PolymorphicObject and provides a base implementation of a ne...">
<polygon fill="#ffffff" stroke="#000000" points="138,-72 138,-113 336,-113 336,-72 138,-72"/>
<text text-anchor="start" x="146" y="-101" font-family="Helvetica,sans-Serif" font-size="10.00" fill="#000000">gko::EnableAbstractPolymorphic</text>
<text text-anchor="start" x="146" y="-90" font-family="Helvetica,sans-Serif" font-size="10.00" fill="#000000">Object&lt; AbstractObject, Polymorphic</text>
<text text-anchor="middle" x="237" y="-79" font-family="Helvetica,sans-Serif" font-size="10.00" fill="#000000">Base &gt;</text>
</a>
</g>
</g>
<!-- Node11&#45;&gt;Node4 -->
<g id="edge8" class="edge">
<title>Node11&#45;&gt;Node4</title>
<path fill="none" stroke="#ffa500" stroke-dasharray="5,2" d="M346.3103,-84.8865C348.8981,-84.7512 351.4643,-84.6221 354,-84.5 719.9392,-66.8832 1156.5852,-58.6356 1339.7893,-55.7535"/>
<polygon fill="#ffa500" stroke="#ffa500" points="346.0352,-81.3962 336.241,-85.4364 346.417,-88.3858 346.0352,-81.3962"/>
<text text-anchor="start" x="769" y="-83.5" font-family="Helvetica,sans-Serif" font-size="10.00" fill="#000000"> &lt; Sellp&lt; ValueType,</text>
<text text-anchor="middle" x="823.5" y="-72.5" font-family="Helvetica,sans-Serif" font-size="10.00" fill="#000000"> IndexType &gt;, LinOp &gt;</text>
</g>
<!-- Node11&#45;&gt;Node6 -->
<g id="edge6" class="edge">
<title>Node11&#45;&gt;Node6</title>
<path fill="none" stroke="#ffa500" stroke-dasharray="5,2" d="M278.8117,-66.77C300.4485,-54.7746 327.7681,-41.6059 354,-34.5 415.3152,-17.8904 486.9625,-13.3845 541.821,-12.9025"/>
<polygon fill="#ffa500" stroke="#ffa500" points="276.88,-63.8417 269.9065,-71.8179 280.332,-69.9314 276.88,-63.8417"/>
<text text-anchor="middle" x="432.5" y="-37.5" font-family="Helvetica,sans-Serif" font-size="10.00" fill="#000000"> &lt; LinOp &gt;</text>
</g>
<!-- Node14 -->
<g id="node10" class="node">
<title>Node14</title>
<g id="a_node10"><a xlink:href="classgko_1_1EnableAbstractPolymorphicObject.html" target="_top" xlink:title=" ">
<polygon fill="#ffffff" stroke="#000000" points="529,-97 529,-138 730,-138 730,-97 529,-97"/>
<text text-anchor="start" x="537" y="-126" font-family="Helvetica,sans-Serif" font-size="10.00" fill="#000000">gko::EnableAbstractPolymorphic</text>
<text text-anchor="start" x="537" y="-115" font-family="Helvetica,sans-Serif" font-size="10.00" fill="#000000">Object&lt; ConcreteObject, Polymorphic</text>
<text text-anchor="middle" x="629.5" y="-104" font-family="Helvetica,sans-Serif" font-size="10.00" fill="#000000">Base &gt;</text>
</a>
</g>
</g>
<!-- Node11&#45;&gt;Node14 -->
<g id="edge12" class="edge">
<title>Node11&#45;&gt;Node14</title>
<path fill="none" stroke="#ffa500" stroke-dasharray="5,2" d="M346.4094,-88.0008C396.6706,-87.1896 456.9862,-87.9856 511,-93.5 519.5617,-94.3741 528.4204,-95.5838 537.2615,-96.9992"/>
<polygon fill="#ffa500" stroke="#ffa500" points="346.1033,-84.5057 336.1699,-88.1903 346.233,-91.5045 346.1033,-84.5057"/>
<text text-anchor="start" x="354" y="-107.5" font-family="Helvetica,sans-Serif" font-size="10.00" fill="#000000"> &lt; ConcreteObject, Polymorphic</text>
<text text-anchor="middle" x="432.5" y="-96.5" font-family="Helvetica,sans-Serif" font-size="10.00" fill="#000000">Base &gt;</text>
</g>
<!-- Node21 -->
<g id="node17" class="node">
<title>Node21</title>
<g id="a_node17"><a xlink:href="classgko_1_1EnableAbstractPolymorphicObject.html" target="_top" xlink:title=" ">
<polygon fill="#ffffff" stroke="#000000" points="531,-161 531,-202 728,-202 728,-161 531,-161"/>
<text text-anchor="start" x="539" y="-190" font-family="Helvetica,sans-Serif" font-size="10.00" fill="#000000">gko::EnableAbstractPolymorphic</text>
<text text-anchor="start" x="539" y="-179" font-family="Helvetica,sans-Serif" font-size="10.00" fill="#000000">Object&lt; ConcreteLinOp, Polymorphic</text>
<text text-anchor="middle" x="629.5" y="-168" font-family="Helvetica,sans-Serif" font-size="10.00" fill="#000000">Base &gt;</text>
</a>
</g>
</g>
<!-- Node11&#45;&gt;Node21 -->
<g id="edge22" class="edge">
<title>Node11&#45;&gt;Node21</title>
<path fill="none" stroke="#ffa500" stroke-dasharray="5,2" d="M337.372,-115.2595C399.5774,-129.3647 478.8209,-147.3333 539.0758,-160.9962"/>
<polygon fill="#ffa500" stroke="#ffa500" points="338.0667,-111.8283 327.5403,-113.0301 336.5187,-118.655 338.0667,-111.8283"/>
<text text-anchor="start" x="356" y="-167.5" font-family="Helvetica,sans-Serif" font-size="10.00" fill="#000000"> &lt; ConcreteLinOp, Polymorphic</text>
<text text-anchor="middle" x="432.5" y="-156.5" font-family="Helvetica,sans-Serif" font-size="10.00" fill="#000000">Base &gt;</text>
</g>
<!-- Node12 -->
<g id="node8" class="node">
<title>Node12</title>
<g id="a_node8"><a xlink:title=" ">
<polygon fill="#ffffff" stroke="#bfbfbf" points="0,-165 0,-184 101,-184 101,-165 0,-165"/>
<text text-anchor="middle" x="50.5" y="-172" font-family="Helvetica,sans-Serif" font-size="10.00" fill="#000000">PolymorphicBase</text>
</a>
</g>
</g>
<!-- Node12&#45;&gt;Node11 -->
<g id="edge7" class="edge">
<title>Node12&#45;&gt;Node11</title>
<path fill="none" stroke="#191970" d="M81.6749,-160.7931C111.2807,-147.7761 156.181,-128.0344 190.1047,-113.1189"/>
<polygon fill="#191970" stroke="#191970" points="80.0044,-157.7041 72.2589,-164.9331 82.8219,-164.1121 80.0044,-157.7041"/>
</g>
<!-- Node12&#45;&gt;Node14 -->
<g id="edge11" class="edge">
<title>Node12&#45;&gt;Node14</title>
<path fill="none" stroke="#191970" d="M111.4303,-180.8542C200.6787,-188.3335 371.4922,-195.6797 511,-160.5 519.6728,-158.313 520.7442,-154.9413 529,-151.5 540.306,-146.7873 552.5197,-142.2287 564.4067,-138.0622"/>
<polygon fill="#191970" stroke="#191970" points="111.4851,-177.3458 101.2198,-179.9678 110.8796,-184.3196 111.4851,-177.3458"/>
</g>
<!-- Node12&#45;&gt;Node21 -->
<g id="edge21" class="edge">
<title>Node12&#45;&gt;Node21</title>
<path fill="none" stroke="#191970" d="M100.0089,-185.844C106.37,-186.9398 112.8183,-187.8748 119,-188.5 292.3378,-206.0321 336.8536,-193.6391 511,-188.5 517.4889,-188.3085 524.1751,-188.0582 530.9118,-187.7663"/>
<polygon fill="#191970" stroke="#191970" points="100.6063,-182.3952 90.1355,-184.0111 99.3286,-189.2776 100.6063,-182.3952"/>
</g>
<!-- Node13 -->
<g id="node9" class="node">
<title>Node13</title>
<g id="a_node9"><a xlink:href="classgko_1_1EnablePolymorphicObject.html" target="_top" xlink:title="This mixin inherits from (a subclass of) PolymorphicObject and provides a base implementation of a ne...">
<polygon fill="#ffffff" stroke="#000000" points="917,-102.5 917,-132.5 1122,-132.5 1122,-102.5 917,-102.5"/>
<text text-anchor="start" x="925" y="-120.5" font-family="Helvetica,sans-Serif" font-size="10.00" fill="#000000">gko::EnablePolymorphicObject</text>
<text text-anchor="middle" x="1019.5" y="-109.5" font-family="Helvetica,sans-Serif" font-size="10.00" fill="#000000">&lt; ConcreteObject, PolymorphicBase &gt;</text>
</a>
</g>
</g>
<!-- Node13&#45;&gt;Node3 -->
<g id="edge9" class="edge">
<title>Node13&#45;&gt;Node3</title>
<path fill="none" stroke="#ffa500" stroke-dasharray="5,2" d="M1132.2111,-120.4131C1185.7734,-121.849 1250.6933,-123.664 1309,-125.5 1448.057,-129.8786 1609.6981,-135.7528 1705.7241,-139.3249"/>
<polygon fill="#ffa500" stroke="#ffa500" points="1132.0912,-116.9087 1122.0013,-120.1403 1131.9042,-123.9062 1132.0912,-116.9087"/>
<text text-anchor="start" x="1373" y="-147.5" font-family="Helvetica,sans-Serif" font-size="10.00" fill="#000000"> &lt; Sellp&lt; ValueType,</text>
<text text-anchor="middle" x="1427.5" y="-136.5" font-family="Helvetica,sans-Serif" font-size="10.00" fill="#000000"> IndexType &gt;, LinOp &gt;</text>
</g>
<!-- Node20 -->
<g id="node16" class="node">
<title>Node20</title>
<g id="a_node16"><a xlink:href="classgko_1_1EnablePolymorphicObject.html" target="_top" xlink:title=" ">
<polygon fill="#ffffff" stroke="#000000" points="1327,-166.5 1327,-196.5 1528,-196.5 1528,-166.5 1327,-166.5"/>
<text text-anchor="start" x="1335" y="-184.5" font-family="Helvetica,sans-Serif" font-size="10.00" fill="#000000">gko::EnablePolymorphicObject</text>
<text text-anchor="middle" x="1427.5" y="-173.5" font-family="Helvetica,sans-Serif" font-size="10.00" fill="#000000">&lt; ConcreteLinOp, PolymorphicBase &gt;</text>
</a>
</g>
</g>
<!-- Node13&#45;&gt;Node20 -->
<g id="edge23" class="edge">
<title>Node13&#45;&gt;Node20</title>
<path fill="none" stroke="#ffa500" stroke-dasharray="5,2" d="M1132.3118,-123.1935C1186.1661,-127.2369 1251.2999,-134.063 1309,-145.5 1334.731,-150.6003 1362.8499,-159.0154 1385.2369,-166.4275"/>
<polygon fill="#ffa500" stroke="#ffa500" points="1132.2726,-119.6815 1122.0448,-122.4459 1131.7642,-126.663 1132.2726,-119.6815"/>
<text text-anchor="start" x="1148" y="-159.5" font-family="Helvetica,sans-Serif" font-size="10.00" fill="#000000"> &lt; ConcreteLinOp, Polymorphic</text>
<text text-anchor="middle" x="1224.5" y="-148.5" font-family="Helvetica,sans-Serif" font-size="10.00" fill="#000000">Base &gt;</text>
</g>
<!-- Node14&#45;&gt;Node13 -->
<g id="edge10" class="edge">
<title>Node14&#45;&gt;Node13</title>
<path fill="none" stroke="#191970" d="M740.4069,-117.5C795.8628,-117.5 862.5426,-117.5 916.818,-117.5"/>
<polygon fill="#191970" stroke="#191970" points="740.1882,-114.0001 730.1882,-117.5 740.1882,-121.0001 740.1882,-114.0001"/>
</g>
<!-- Node15 -->
<g id="node11" class="node">
<title>Node15</title>
<g id="a_node11"><a xlink:href="classgko_1_1EnablePolymorphicAssignment.html" target="_top" xlink:title=" ">
<polygon fill="#ffffff" stroke="#000000" points="1331.5,-246.5 1331.5,-276.5 1523.5,-276.5 1523.5,-246.5 1331.5,-246.5"/>
<text text-anchor="start" x="1339.5" y="-264.5" font-family="Helvetica,sans-Serif" font-size="10.00" fill="#000000">gko::EnablePolymorphicAssignment</text>
<text text-anchor="middle" x="1427.5" y="-253.5" font-family="Helvetica,sans-Serif" font-size="10.00" fill="#000000">&lt; Sellp&lt; ValueType, IndexType &gt; &gt;</text>
</a>
</g>
</g>
<!-- Node15&#45;&gt;Node2 -->
<g id="edge13" class="edge">
<title>Node15&#45;&gt;Node2</title>
<path fill="none" stroke="#191970" d="M1533.7761,-266.2279C1624.2672,-270.4323 1757.7129,-277.0549 1874,-284.5 1954.4865,-289.653 2046.4947,-296.8523 2109.915,-302.0194"/>
<polygon fill="#191970" stroke="#191970" points="1533.9347,-262.7315 1523.7836,-265.7653 1533.611,-269.7241 1533.9347,-262.7315"/>
</g>
<!-- Node16 -->
<g id="node12" class="node">
<title>Node16</title>
<g id="a_node12"><a xlink:href="classgko_1_1ConvertibleTo.html" target="_top" xlink:title=" ">
<polygon fill="#ffffff" stroke="#000000" points="961.5,-210 961.5,-251 1077.5,-251 1077.5,-210 961.5,-210"/>
<text text-anchor="start" x="969.5" y="-239" font-family="Helvetica,sans-Serif" font-size="10.00" fill="#000000">gko::ConvertibleTo</text>
<text text-anchor="start" x="969.5" y="-228" font-family="Helvetica,sans-Serif" font-size="10.00" fill="#000000">&lt; Sellp&lt; ValueType,</text>
<text text-anchor="middle" x="1019.5" y="-217" font-family="Helvetica,sans-Serif" font-size="10.00" fill="#000000"> IndexType &gt; &gt;</text>
</a>
</g>
</g>
<!-- Node16&#45;&gt;Node15 -->
<g id="edge14" class="edge">
<title>Node16&#45;&gt;Node15</title>
<path fill="none" stroke="#191970" d="M1087.8996,-235.697C1154.4978,-240.7572 1256.3364,-248.4949 1331.1287,-254.1777"/>
<polygon fill="#191970" stroke="#191970" points="1087.7596,-232.1764 1077.5232,-234.9086 1087.2292,-239.1563 1087.7596,-232.1764"/>
</g>
<!-- Node17 -->
<g id="node13" class="node">
<title>Node17</title>
<g id="a_node13"><a xlink:href="classgko_1_1ConvertibleTo.html" target="_top" xlink:title="ConvertibleTo interface is used to mark that the implementer can be converted to the object of Result...">
<polygon fill="#ffffff" stroke="#000000" points="576,-341.5 576,-371.5 683,-371.5 683,-341.5 576,-341.5"/>
<text text-anchor="start" x="584" y="-359.5" font-family="Helvetica,sans-Serif" font-size="10.00" fill="#000000">gko::ConvertibleTo</text>
<text text-anchor="middle" x="629.5" y="-348.5" font-family="Helvetica,sans-Serif" font-size="10.00" fill="#000000">&lt; ResultType &gt;</text>
</a>
</g>
</g>
<!-- Node17&#45;&gt;Node16 -->
<g id="edge15" class="edge">
<title>Node17&#45;&gt;Node16</title>
<path fill="none" stroke="#ffa500" stroke-dasharray="5,2" d="M656.1539,-335.0776C679.1468,-317.7004 713.9358,-293.9556 748,-280.5 818.3193,-252.7233 905.0684,-240.1934 961.2975,-234.6671"/>
<polygon fill="#ffa500" stroke="#ffa500" points="653.7382,-332.5201 647.9454,-341.3911 658.0059,-338.0688 653.7382,-332.5201"/>
<text text-anchor="start" x="772" y="-294.5" font-family="Helvetica,sans-Serif" font-size="10.00" fill="#000000"> &lt; Sellp&lt; ValueType,</text>
<text text-anchor="middle" x="823.5" y="-283.5" font-family="Helvetica,sans-Serif" font-size="10.00" fill="#000000"> IndexType &gt; &gt;</text>
</g>
<!-- Node18 -->
<g id="node14" class="node">
<title>Node18</title>
<g id="a_node14"><a xlink:href="classgko_1_1EnablePolymorphicAssignment.html" target="_top" xlink:title="This mixin is used to enable a default PolymorphicObject::copy_from() implementation for objects that...">
<polygon fill="#ffffff" stroke="#000000" points="923.5,-270.5 923.5,-300.5 1115.5,-300.5 1115.5,-270.5 923.5,-270.5"/>
<text text-anchor="start" x="931.5" y="-288.5" font-family="Helvetica,sans-Serif" font-size="10.00" fill="#000000">gko::EnablePolymorphicAssignment</text>
<text text-anchor="middle" x="1019.5" y="-277.5" font-family="Helvetica,sans-Serif" font-size="10.00" fill="#000000">&lt; ConcreteType, ResultType &gt;</text>
</a>
</g>
</g>
<!-- Node17&#45;&gt;Node18 -->
<g id="edge17" class="edge">
<title>Node17&#45;&gt;Node18</title>
<path fill="none" stroke="#191970" d="M693.3594,-343.9023C711.046,-340.4685 730.2583,-336.7899 748,-333.5 809.5363,-322.0893 879.0371,-309.8133 932.3145,-300.5324"/>
<polygon fill="#191970" stroke="#191970" points="692.2916,-340.5444 683.1448,-345.8909 693.6293,-347.4154 692.2916,-340.5444"/>
</g>
<!-- Node23 -->
<g id="node19" class="node">
<title>Node23</title>
<g id="a_node19"><a xlink:href="classgko_1_1ConvertibleTo.html" target="_top" xlink:title=" ">
<polygon fill="#ffffff" stroke="#000000" points="964.5,-319.5 964.5,-349.5 1074.5,-349.5 1074.5,-319.5 964.5,-319.5"/>
<text text-anchor="start" x="972.5" y="-337.5" font-family="Helvetica,sans-Serif" font-size="10.00" fill="#000000">gko::ConvertibleTo</text>
<text text-anchor="middle" x="1019.5" y="-326.5" font-family="Helvetica,sans-Serif" font-size="10.00" fill="#000000">&lt; ConcreteLinOp &gt;</text>
</a>
</g>
</g>
<!-- Node17&#45;&gt;Node23 -->
<g id="edge26" class="edge">
<title>Node17&#45;&gt;Node23</title>
<path fill="none" stroke="#ffa500" stroke-dasharray="5,2" d="M693.348,-349.9586C711.0345,-348.3141 730.2496,-346.6826 748,-345.5 822.8409,-340.5137 909.4485,-337.478 964.3359,-335.8934"/>
<polygon fill="#ffa500" stroke="#ffa500" points="692.7594,-346.4986 683.1336,-350.9252 693.4189,-353.4675 692.7594,-346.4986"/>
<text text-anchor="middle" x="823.5" y="-348.5" font-family="Helvetica,sans-Serif" font-size="10.00" fill="#000000"> &lt; ConcreteLinOp &gt;</text>
</g>
<!-- Node26 -->
<g id="node22" class="node">
<title>Node26</title>
<g id="a_node22"><a xlink:href="classgko_1_1ConvertibleTo.html" target="_top" xlink:title=" ">
<polygon fill="#ffffff" stroke="#000000" points="1141,-351 1141,-392 1308,-392 1308,-351 1141,-351"/>
<text text-anchor="start" x="1149" y="-380" font-family="Helvetica,sans-Serif" font-size="10.00" fill="#000000">gko::ConvertibleTo</text>
<text text-anchor="start" x="1149" y="-369" font-family="Helvetica,sans-Serif" font-size="10.00" fill="#000000">&lt; Sellp&lt; next_precision</text>
<text text-anchor="middle" x="1224.5" y="-358" font-family="Helvetica,sans-Serif" font-size="10.00" fill="#000000">&lt; ValueType &gt;, IndexType &gt; &gt;</text>
</a>
</g>
</g>
<!-- Node17&#45;&gt;Node26 -->
<g id="edge31" class="edge">
<title>Node17&#45;&gt;Node26</title>
<path fill="none" stroke="#ffa500" stroke-dasharray="5,2" d="M693.1908,-358.1056C801.2381,-360.8295 1020.4135,-366.355 1140.7456,-369.3885"/>
<polygon fill="#ffa500" stroke="#ffa500" points="693.1736,-354.6042 683.0885,-357.851 692.9971,-361.602 693.1736,-354.6042"/>
<text text-anchor="start" x="748" y="-376.5" font-family="Helvetica,sans-Serif" font-size="10.00" fill="#000000"> &lt; Sellp&lt; next_precision</text>
<text text-anchor="middle" x="823.5" y="-365.5" font-family="Helvetica,sans-Serif" font-size="10.00" fill="#000000">&lt; ValueType &gt;, IndexType &gt; &gt;</text>
</g>
<!-- Node27 -->
<g id="node23" class="node">
<title>Node27</title>
<g id="a_node23"><a xlink:href="classgko_1_1ConvertibleTo.html" target="_top" xlink:title=" ">
<polygon fill="#ffffff" stroke="#000000" points="1546,-445.5 1546,-475.5 1688,-475.5 1688,-445.5 1546,-445.5"/>
<text text-anchor="start" x="1554" y="-463.5" font-family="Helvetica,sans-Serif" font-size="10.00" fill="#000000">gko::ConvertibleTo</text>
<text text-anchor="middle" x="1617" y="-452.5" font-family="Helvetica,sans-Serif" font-size="10.00" fill="#000000">&lt; Dense&lt; ValueType &gt; &gt;</text>
</a>
</g>
</g>
<!-- Node17&#45;&gt;Node27 -->
<g id="edge33" class="edge">
<title>Node17&#45;&gt;Node27</title>
<path fill="none" stroke="#ffa500" stroke-dasharray="5,2" d="M654.9902,-378.0151C677.747,-395.7814 712.826,-419.7594 748,-430.5 1032.9638,-517.5157 1395.0797,-488.1869 1545.9872,-470.1908"/>
<polygon fill="#ffa500" stroke="#ffa500" points="656.8951,-375.0572 646.8973,-371.5507 652.5263,-380.5265 656.8951,-375.0572"/>
<text text-anchor="middle" x="1019.5" y="-490.5" font-family="Helvetica,sans-Serif" font-size="10.00" fill="#000000"> &lt; Dense&lt; ValueType &gt; &gt;</text>
</g>
<!-- Node28 -->
<g id="node24" class="node">
<title>Node28</title>
<g id="a_node24"><a xlink:href="classgko_1_1ConvertibleTo.html" target="_top" xlink:title=" ">
<polygon fill="#ffffff" stroke="#000000" points="1892,-398.5 1892,-428.5 2074,-428.5 2074,-398.5 1892,-398.5"/>
<text text-anchor="start" x="1900" y="-416.5" font-family="Helvetica,sans-Serif" font-size="10.00" fill="#000000">gko::ConvertibleTo</text>
<text text-anchor="middle" x="1983" y="-405.5" font-family="Helvetica,sans-Serif" font-size="10.00" fill="#000000">&lt; Csr&lt; ValueType, IndexType &gt; &gt;</text>
</a>
</g>
</g>
<!-- Node17&#45;&gt;Node28 -->
<g id="edge35" class="edge">
<title>Node17&#45;&gt;Node28</title>
<path fill="none" stroke="#ffa500" stroke-dasharray="5,2" d="M687.8241,-374.2523C706.8593,-379.5066 728.1945,-384.8293 748,-388.5 867.2754,-410.6064 898.1933,-416.5 1019.5,-416.5 1019.5,-416.5 1019.5,-416.5 1617,-416.5 1710.5682,-416.5 1817.5874,-415.5075 1891.6267,-414.6642"/>
<polygon fill="#ffa500" stroke="#ffa500" points="688.6738,-370.8556 678.0999,-371.5201 686.7803,-377.5947 688.6738,-370.8556"/>
<text text-anchor="middle" x="1224.5" y="-419.5" font-family="Helvetica,sans-Serif" font-size="10.00" fill="#000000"> &lt; Csr&lt; ValueType, IndexType &gt; &gt;</text>
</g>
<!-- Node18&#45;&gt;Node15 -->
<g id="edge16" class="edge">
<title>Node18&#45;&gt;Node15</title>
<path fill="none" stroke="#ffa500" stroke-dasharray="5,2" d="M1105.0086,-268.8415C1116.7265,-267.0737 1128.6329,-265.5429 1140,-264.5 1203.6252,-258.6628 1275.5002,-257.9128 1331.4689,-258.6221"/>
<polygon fill="#ffa500" stroke="#ffa500" points="1104.113,-265.4392 1094.7779,-270.4498 1105.2001,-272.3543 1104.113,-265.4392"/>
<text text-anchor="start" x="1173" y="-278.5" font-family="Helvetica,sans-Serif" font-size="10.00" fill="#000000"> &lt; Sellp&lt; ValueType,</text>
<text text-anchor="middle" x="1224.5" y="-267.5" font-family="Helvetica,sans-Serif" font-size="10.00" fill="#000000"> IndexType &gt; &gt;</text>
</g>
<!-- Node22 -->
<g id="node18" class="node">
<title>Node22</title>
<g id="a_node18"><a xlink:href="classgko_1_1EnablePolymorphicAssignment.html" target="_top" xlink:title=" ">
<polygon fill="#ffffff" stroke="#000000" points="1331.5,-296.5 1331.5,-326.5 1523.5,-326.5 1523.5,-296.5 1331.5,-296.5"/>
<text text-anchor="start" x="1339.5" y="-314.5" font-family="Helvetica,sans-Serif" font-size="10.00" fill="#000000">gko::EnablePolymorphicAssignment</text>
<text text-anchor="middle" x="1427.5" y="-303.5" font-family="Helvetica,sans-Serif" font-size="10.00" fill="#000000">&lt; ConcreteLinOp &gt;</text>
</a>
</g>
</g>
<!-- Node18&#45;&gt;Node22 -->
<g id="edge27" class="edge">
<title>Node18&#45;&gt;Node22</title>
<path fill="none" stroke="#ffa500" stroke-dasharray="5,2" d="M1125.7328,-292.2697C1189.3309,-296.3226 1269.5326,-301.4334 1331.2658,-305.3674"/>
<polygon fill="#ffa500" stroke="#ffa500" points="1125.876,-288.7719 1115.6737,-291.6287 1125.4308,-295.7577 1125.876,-288.7719"/>
<text text-anchor="middle" x="1224.5" y="-306.5" font-family="Helvetica,sans-Serif" font-size="10.00" fill="#000000"> &lt; ConcreteLinOp &gt;</text>
</g>
<!-- Node19 -->
<g id="node15" class="node">
<title>Node19</title>
<g id="a_node15"><a xlink:href="classgko_1_1EnableLinOp.html" target="_top" xlink:title="The EnableLinOp mixin can be used to provide sensible default implementations of the majority of the ...">
<polygon fill="#ffffff" stroke="#000000" points="1712,-293.5 1712,-323.5 1868,-323.5 1868,-293.5 1712,-293.5"/>
<text text-anchor="start" x="1720" y="-311.5" font-family="Helvetica,sans-Serif" font-size="10.00" fill="#000000">gko::EnableLinOp&lt; Concrete</text>
<text text-anchor="middle" x="1790" y="-300.5" font-family="Helvetica,sans-Serif" font-size="10.00" fill="#000000">LinOp, PolymorphicBase &gt;</text>
</a>
</g>
</g>
<!-- Node19&#45;&gt;Node2 -->
<g id="edge18" class="edge">
<title>Node19&#45;&gt;Node2</title>
<path fill="none" stroke="#ffa500" stroke-dasharray="5,2" d="M1878.1047,-308.5C1947.5377,-308.5 2043.4123,-308.5 2109.9582,-308.5"/>
<polygon fill="#ffa500" stroke="#ffa500" points="1878.059,-305.0001 1868.0589,-308.5 1878.0589,-312.0001 1878.059,-305.0001"/>
<text text-anchor="start" x="1931.5" y="-322.5" font-family="Helvetica,sans-Serif" font-size="10.00" fill="#000000"> &lt; Sellp&lt; ValueType,</text>
<text text-anchor="middle" x="1983" y="-311.5" font-family="Helvetica,sans-Serif" font-size="10.00" fill="#000000"> IndexType &gt; &gt;</text>
</g>
<!-- Node20&#45;&gt;Node19 -->
<g id="edge19" class="edge">
<title>Node20&#45;&gt;Node19</title>
<path fill="none" stroke="#191970" d="M1480.3042,-199.9997C1552.4502,-225.2756 1680.451,-270.1201 1747.0489,-293.4523"/>
<polygon fill="#191970" stroke="#191970" points="1481.1019,-196.5706 1470.507,-196.5673 1478.7873,-203.1769 1481.1019,-196.5706"/>
</g>
<!-- Node21&#45;&gt;Node20 -->
<g id="edge20" class="edge">
<title>Node21&#45;&gt;Node20</title>
<path fill="none" stroke="#191970" d="M738.1848,-181.5C893.3648,-181.5 1176.2677,-181.5 1326.8777,-181.5"/>
<polygon fill="#191970" stroke="#191970" points="738.1509,-178.0001 728.1508,-181.5 738.1508,-185.0001 738.1509,-178.0001"/>
</g>
<!-- Node22&#45;&gt;Node19 -->
<g id="edge24" class="edge">
<title>Node22&#45;&gt;Node19</title>
<path fill="none" stroke="#191970" d="M1533.8316,-310.62C1590.8821,-310.1479 1659.9505,-309.5763 1711.9868,-309.1456"/>
<polygon fill="#191970" stroke="#191970" points="1533.6623,-307.1212 1523.6916,-310.7039 1533.7203,-314.121 1533.6623,-307.1212"/>
</g>
<!-- Node23&#45;&gt;Node22 -->
<g id="edge25" class="edge">
<title>Node23&#45;&gt;Node22</title>
<path fill="none" stroke="#191970" d="M1084.9962,-331.8466C1143.691,-329.3463 1232.1298,-325.2769 1309,-320.5 1316.3103,-320.0457 1323.8719,-319.5444 1331.4745,-319.0177"/>
<polygon fill="#191970" stroke="#191970" points="1084.5976,-328.3602 1074.7544,-332.2798 1084.8934,-335.354 1084.5976,-328.3602"/>
</g>
<!-- Node24 -->
<g id="node20" class="node">
<title>Node24</title>
<g id="a_node20"><a xlink:href="classgko_1_1EnableCreateMethod.html" target="_top" xlink:title=" ">
<polygon fill="#ffffff" stroke="#000000" points="2092,-244.5 2092,-274.5 2283,-274.5 2283,-244.5 2092,-244.5"/>
<text text-anchor="start" x="2100" y="-262.5" font-family="Helvetica,sans-Serif" font-size="10.00" fill="#000000">gko::EnableCreateMethod</text>
<text text-anchor="middle" x="2187.5" y="-251.5" font-family="Helvetica,sans-Serif" font-size="10.00" fill="#000000">&lt; Sellp&lt; ValueType, IndexType &gt; &gt;</text>
</a>
</g>
</g>
<!-- Node24&#45;&gt;Node1 -->
<g id="edge28" class="edge">
<title>Node24&#45;&gt;Node1</title>
<path fill="none" stroke="#191970" d="M2260.1344,-276.9038C2282.7567,-282.3243 2307.4957,-288.252 2329.3721,-293.4938"/>
<polygon fill="#191970" stroke="#191970" points="2260.7868,-273.4612 2250.2465,-274.5346 2259.1557,-280.2685 2260.7868,-273.4612"/>
</g>
<!-- Node25 -->
<g id="node21" class="node">
<title>Node25</title>
<g id="a_node21"><a xlink:href="classgko_1_1EnableCreateMethod.html" target="_top" xlink:title="This mixin implements a static create() method on ConcreteType that dynamically allocates the memory,...">
<polygon fill="#ffffff" stroke="#000000" points="1719,-72.5 1719,-102.5 1861,-102.5 1861,-72.5 1719,-72.5"/>
<text text-anchor="start" x="1727" y="-90.5" font-family="Helvetica,sans-Serif" font-size="10.00" fill="#000000">gko::EnableCreateMethod</text>
<text text-anchor="middle" x="1790" y="-79.5" font-family="Helvetica,sans-Serif" font-size="10.00" fill="#000000">&lt; ConcreteType &gt;</text>
</a>
</g>
</g>
<!-- Node25&#45;&gt;Node24 -->
<g id="edge29" class="edge">
<title>Node25&#45;&gt;Node24</title>
<path fill="none" stroke="#ffa500" stroke-dasharray="5,2" d="M1871.1056,-78.1204C1934.8766,-75.5559 2021.4474,-83.5047 2074,-135.5 2106.1018,-167.2614 2061.1738,-202.4991 2092,-235.5 2095.1508,-238.8731 2098.6993,-241.8016 2102.5265,-244.3419"/>
<polygon fill="#ffa500" stroke="#ffa500" points="1870.8898,-74.6267 1861.0752,-78.6172 1871.2361,-81.6182 1870.8898,-74.6267"/>
<text text-anchor="start" x="1931.5" y="-149.5" font-family="Helvetica,sans-Serif" font-size="10.00" fill="#000000"> &lt; Sellp&lt; ValueType,</text>
<text text-anchor="middle" x="1983" y="-138.5" font-family="Helvetica,sans-Serif" font-size="10.00" fill="#000000"> IndexType &gt; &gt;</text>
</g>
<!-- Node26&#45;&gt;Node1 -->
<g id="edge30" class="edge">
<title>Node26&#45;&gt;Node1</title>
<path fill="none" stroke="#191970" d="M1318.8046,-368.125C1398.3026,-365.5708 1515.0758,-362.5 1617,-362.5 1617,-362.5 1617,-362.5 2187.5,-362.5 2248.8231,-362.5 2317.1641,-339.5202 2357.2708,-323.542"/>
<polygon fill="#191970" stroke="#191970" points="1318.2078,-364.6424 1308.3268,-368.4656 1318.4353,-371.6387 1318.2078,-364.6424"/>
</g>
<!-- Node27&#45;&gt;Node1 -->
<g id="edge32" class="edge">
<title>Node27&#45;&gt;Node1</title>
<path fill="none" stroke="#191970" d="M1698.353,-472.9637C1828.7827,-489.0845 2089.6431,-505.2099 2283,-413.5 2326.6826,-392.7812 2363.881,-347.6025 2381.3498,-323.8284"/>
<polygon fill="#191970" stroke="#191970" points="1698.4084,-469.4427 1688.0473,-471.6561 1697.5272,-476.3871 1698.4084,-469.4427"/>
</g>
<!-- Node28&#45;&gt;Node1 -->
<g id="edge34" class="edge">
<title>Node28&#45;&gt;Node1</title>
<path fill="none" stroke="#191970" d="M2084.2774,-415.2324C2148.7049,-413.1119 2232.7379,-404.2653 2302,-376.5 2331.9925,-364.4768 2360.7107,-339.7036 2377.3377,-323.6107"/>
<polygon fill="#191970" stroke="#191970" points="2084.0089,-411.7384 2074.1108,-415.5168 2084.2048,-418.7357 2084.0089,-411.7384"/>
</g>
<!-- Node29 -->
<g id="node25" class="node">
<title>Node29</title>
<g id="a_node25"><a xlink:href="classgko_1_1ReadableFromMatrixData.html" target="_top" xlink:title="A LinOp implementing this interface can read its data from a matrix_data structure.">
<polygon fill="#ffffff" stroke="#000000" points="2105.5,-195.5 2105.5,-225.5 2269.5,-225.5 2269.5,-195.5 2105.5,-195.5"/>
<text text-anchor="start" x="2113.5" y="-213.5" font-family="Helvetica,sans-Serif" font-size="10.00" fill="#000000">gko::ReadableFromMatrixData</text>
<text text-anchor="middle" x="2187.5" y="-202.5" font-family="Helvetica,sans-Serif" font-size="10.00" fill="#000000">&lt; ValueType, IndexType &gt;</text>
</a>
</g>
</g>
<!-- Node29&#45;&gt;Node1 -->
<g id="edge36" class="edge">
<title>Node29&#45;&gt;Node1</title>
<path fill="none" stroke="#191970" d="M2266.1084,-228.7915C2271.9049,-230.833 2277.5939,-233.0658 2283,-235.5 2317.2662,-250.9289 2352.642,-276.7947 2373.4621,-293.2341"/>
<polygon fill="#191970" stroke="#191970" points="2266.8758,-225.3587 2256.2824,-225.5348 2264.6735,-232.0033 2266.8758,-225.3587"/>
</g>
<!-- Node30 -->
<g id="node26" class="node">
<title>Node30</title>
<g id="a_node26"><a xlink:href="classgko_1_1WritableToMatrixData.html" target="_top" xlink:title="A LinOp implementing this interface can write its data to a matrix_data structure.">
<polygon fill="#ffffff" stroke="#000000" points="2114.5,-146.5 2114.5,-176.5 2260.5,-176.5 2260.5,-146.5 2114.5,-146.5"/>
<text text-anchor="start" x="2122.5" y="-164.5" font-family="Helvetica,sans-Serif" font-size="10.00" fill="#000000">gko::WritableToMatrixData</text>
<text text-anchor="middle" x="2187.5" y="-153.5" font-family="Helvetica,sans-Serif" font-size="10.00" fill="#000000">&lt; ValueType, IndexType &gt;</text>
</a>
</g>
</g>
<!-- Node30&#45;&gt;Node1 -->
<g id="edge37" class="edge">
<title>Node30&#45;&gt;Node1</title>
<path fill="none" stroke="#191970" d="M2270.1253,-179.7313C2274.5941,-181.7567 2278.9197,-184.0049 2283,-186.5 2328.5552,-214.3566 2365.9856,-267.0942 2382.6563,-293.1456"/>
<polygon fill="#191970" stroke="#191970" points="2271.3629,-176.4558 2260.7838,-175.8788 2268.6941,-182.9271 2271.3629,-176.4558"/>
</g>
</g>
</svg>
        <g id="navigator" transform="translate(0 0)" fill="#404254">
                <rect fill="#f2f5e9" fill-opacity="0.5" stroke="#606060" stroke-width=".5" x="0" y="0" width="60" height="60"/>
                <use id="zoomplus" xlink:href="#zoomPlus" x="17" y="9" onmousedown="handleZoom(evt,'in')"/>
                <use id="zoomminus" xlink:href="#zoomMin" x="42" y="9" onmousedown="handleZoom(evt,'out')"/>
                <use id="reset" xlink:href="#resetDef" x="30" y="36" onmousedown="handleReset()"/>
                <g id="arrowUp" xlink:href="#dirArrow" transform="translate(30 24)" onmousedown="handlePan(0,-1)">
                  <use xlink:href="#rim" fill="#404040">
                        <set attributeName="fill" to="#808080" begin="arrowUp.mouseover" end="arrowUp.mouseout"/>
                  </use>
                  <path fill="none" stroke="white" stroke-width="1.5" d="M0,-3.0v7 M-2.5,-0.5L0,-3.0L2.5,-0.5"/>
                </g>
                <g id="arrowRight" xlink:href="#dirArrow" transform="rotate(90) translate(36 -43)" onmousedown="handlePan(1,0)">
                  <use xlink:href="#rim" fill="#404040">
                        <set attributeName="fill" to="#808080" begin="arrowRight.mouseover" end="arrowRight.mouseout"/>
                  </use>
                  <path fill="none" stroke="white" stroke-width="1.5" d="M0,-3.0v7 M-2.5,-0.5L0,-3.0L2.5,-0.5"/>
                </g>
                <g id="arrowDown" xlink:href="#dirArrow" transform="rotate(180) translate(-30 -48)" onmousedown="handlePan(0,1)">
                  <use xlink:href="#rim" fill="#404040">
                        <set attributeName="fill" to="#808080" begin="arrowDown.mouseover" end="arrowDown.mouseout"/>
                  </use>
                  <path fill="none" stroke="white" stroke-width="1.5" d="M0,-3.0v7 M-2.5,-0.5L0,-3.0L2.5,-0.5"/>
                </g>
                <g id="arrowLeft" xlink:href="#dirArrow" transform="rotate(270) translate(-36 17)" onmousedown="handlePan(-1,0)">
                  <use xlink:href="#rim" fill="#404040">
                        <set attributeName="fill" to="#808080" begin="arrowLeft.mouseover" end="arrowLeft.mouseout"/>
                  </use>
                  <path fill="none" stroke="white" stroke-width="1.5" d="M0,-3.0v7 M-2.5,-0.5L0,-3.0L2.5,-0.5"/>
                </g>
        </g>
        <svg viewBox="0 0 15 15" width="100%" height="30px" preserveAspectRatio="xMaxYMin meet">
         <g id="arrow_out" transform="scale(0.3 0.3)">
          <a xlink:href="classgko_1_1matrix_1_1Sellp__coll__graph_org.svg" target="_base">
           <rect id="button" ry="5" rx="5" y="6" x="6" height="38" width="38"
                fill="#f2f5e9" fill-opacity="0.5" stroke="#606060" stroke-width="1.0"/>
           <path id="arrow"
             d="M 11.500037,31.436501 C 11.940474,20.09759 22.043105,11.32322 32.158766,21.979434 L 37.068811,17.246167 C 37.068811,17.246167 37.088388,32 37.088388,32 L 22.160133,31.978069 C 22.160133,31.978069 26.997745,27.140456 26.997745,27.140456 C 18.528582,18.264221 13.291696,25.230495 11.500037,31.436501 z"
             style="fill:#404040;"/>
          </a>
         </g>
        </svg>
</svg>
