<?xml version="1.0" encoding="UTF-8" standalone="no"?>
<!DOCTYPE svg PUBLIC "-//W3C//DTD SVG 1.1//EN"
 "http://www.w3.org/Graphics/SVG/1.1/DTD/svg11.dtd">
<!-- Generated by graphviz version 2.40.1 (20161225.0304)
 -->
<!-- Title: gko::Perturbation&lt; ValueType &gt; Pages: 1 -->
<!--zoomable 334 -->
<svg id="main" version="1.1" xmlns="http://www.w3.org/2000/svg" xmlns:xlink="http://www.w3.org/1999/xlink" xml:space="preserve" onload="init(evt)">
<style type="text/css"><![CDATA[
.edge:hover path { stroke: red; }
.edge:hover polygon { stroke: red; fill: red; }
]]></style>
<script type="text/javascript"><![CDATA[
var edges = document.getElementsByTagName('g');
if (edges && edges.length) {
  for (var i=0;i<edges.length;i++) {
    if (edges[i].id.substr(0,4)=='edge') {
      edges[i].setAttribute('class','edge');
    }
  }
}
]]></script>
        <defs>
                <circle id="rim" cx="0" cy="0" r="7"/>
                <circle id="rim2" cx="0" cy="0" r="3.5"/>
                <g id="zoomPlus">
                        <use xlink:href="#rim" fill="#404040">
                                <set attributeName="fill" to="#808080" begin="zoomplus.mouseover" end="zoomplus.mouseout"/>
                        </use>
                        <path d="M-4,0h8M0,-4v8" fill="none" stroke="white" stroke-width="1.5" pointer-events="none"/>
                </g>
                <g id="zoomMin">
                        <use xlink:href="#rim" fill="#404040">
                                <set attributeName="fill" to="#808080" begin="zoomminus.mouseover" end="zoomminus.mouseout"/>
                        </use>
                        <path d="M-4,0h8" fill="none" stroke="white" stroke-width="1.5" pointer-events="none"/>
                </g>
                <g id="dirArrow">
                        <path fill="none" stroke="white" stroke-width="1.5" d="M0,-3.0v7 M-2.5,-0.5L0,-3.0L2.5,-0.5"/>
                </g>
               <g id="resetDef">
                       <use xlink:href="#rim2" fill="#404040">
                               <set attributeName="fill" to="#808080" begin="reset.mouseover" end="reset.mouseout"/>
                       </use>
               </g>
        </defs>

<script type="text/javascript">
var viewWidth = 2248;
var viewHeight = 334;
var sectionId = 'dynsection-0';
</script>
<script xlink:href="svgpan.js"/>
<svg id="graph" class="graph">
<g id="viewport">
<title>gko::Perturbation&lt; ValueType &gt;</title>
<polygon fill="#ffffff" stroke="transparent" points="-4,4 -4,-329.5 2244,-329.5 2244,4 -4,4"/>
<!-- Node1 -->
<g id="node1" class="node">
<title>Node1</title>
<g id="a_node1"><a xlink:title="The Perturbation class can be used to construct a LinOp to represent the operation (identity + scalar...">
<polygon fill="#bfbfbf" stroke="#000000" points="2131,-82.5 2131,-112.5 2240,-112.5 2240,-82.5 2131,-82.5"/>
<text text-anchor="start" x="2139" y="-100.5" font-family="Helvetica,sans-Serif" font-size="10.00" fill="#000000">gko::Perturbation&lt;</text>
<text text-anchor="middle" x="2185.5" y="-89.5" font-family="Helvetica,sans-Serif" font-size="10.00" fill="#000000"> ValueType &gt;</text>
</a>
</g>
</g>
<!-- Node2 -->
<g id="node2" class="node">
<title>Node2</title>
<g id="a_node2"><a xlink:href="classgko_1_1EnableLinOp.html" target="_top" xlink:title=" ">
<polygon fill="#ffffff" stroke="#000000" points="1921,-116.5 1921,-146.5 2094,-146.5 2094,-116.5 1921,-116.5"/>
<text text-anchor="start" x="1929" y="-134.5" font-family="Helvetica,sans-Serif" font-size="10.00" fill="#000000">gko::EnableLinOp&lt; Perturbation</text>
<text text-anchor="middle" x="2007.5" y="-123.5" font-family="Helvetica,sans-Serif" font-size="10.00" fill="#000000">&lt; ValueType &gt; &gt;</text>
</a>
</g>
</g>
<!-- Node2&#45;&gt;Node1 -->
<g id="edge1" class="edge">
<title>Node2&#45;&gt;Node1</title>
<path fill="none" stroke="#191970" d="M2096.0322,-114.5893C2107.8915,-112.3241 2119.7619,-110.0567 2130.801,-107.9481"/>
<polygon fill="#191970" stroke="#191970" points="2095.2573,-111.174 2086.0915,-116.4881 2096.5706,-118.0497 2095.2573,-111.174"/>
</g>
<!-- Node3 -->
<g id="node3" class="node">
<title>Node3</title>
<g id="a_node3"><a xlink:href="classgko_1_1EnablePolymorphicObject.html" target="_top" xlink:title=" ">
<polygon fill="#ffffff" stroke="#000000" points="1561,-207 1561,-248 1727,-248 1727,-207 1561,-207"/>
<text text-anchor="start" x="1569" y="-236" font-family="Helvetica,sans-Serif" font-size="10.00" fill="#000000">gko::EnablePolymorphicObject</text>
<text text-anchor="start" x="1569" y="-225" font-family="Helvetica,sans-Serif" font-size="10.00" fill="#000000">&lt; Perturbation&lt; ValueType</text>
<text text-anchor="middle" x="1644" y="-214" font-family="Helvetica,sans-Serif" font-size="10.00" fill="#000000"> &gt;, LinOp &gt;</text>
</a>
</g>
</g>
<!-- Node3&#45;&gt;Node2 -->
<g id="edge2" class="edge">
<title>Node3&#45;&gt;Node2</title>
<path fill="none" stroke="#191970" d="M1734.6549,-204.464C1784.4102,-191.7165 1847.1686,-175.4671 1903,-160.5 1919.6401,-156.0392 1937.735,-151.0624 1954.119,-146.5083"/>
<polygon fill="#191970" stroke="#191970" points="1733.7028,-201.0948 1724.8832,-206.9654 1735.4388,-207.8762 1733.7028,-201.0948"/>
</g>
<!-- Node4 -->
<g id="node4" class="node">
<title>Node4</title>
<g id="a_node4"><a xlink:href="classgko_1_1EnableAbstractPolymorphicObject.html" target="_top" xlink:title=" ">
<polygon fill="#ffffff" stroke="#000000" points="1333.5,-268 1333.5,-309 1513.5,-309 1513.5,-268 1333.5,-268"/>
<text text-anchor="start" x="1341.5" y="-297" font-family="Helvetica,sans-Serif" font-size="10.00" fill="#000000">gko::EnableAbstractPolymorphic</text>
<text text-anchor="start" x="1341.5" y="-286" font-family="Helvetica,sans-Serif" font-size="10.00" fill="#000000">Object&lt; Perturbation&lt; ValueType</text>
<text text-anchor="middle" x="1423.5" y="-275" font-family="Helvetica,sans-Serif" font-size="10.00" fill="#000000"> &gt;, LinOp &gt;</text>
</a>
</g>
</g>
<!-- Node4&#45;&gt;Node3 -->
<g id="edge3" class="edge">
<title>Node4&#45;&gt;Node3</title>
<path fill="none" stroke="#191970" d="M1507.729,-265.1985C1528.098,-259.5636 1549.7236,-253.581 1569.6039,-248.0812"/>
<polygon fill="#191970" stroke="#191970" points="1506.5486,-261.8936 1497.8438,-267.9332 1508.4151,-268.6402 1506.5486,-261.8936"/>
</g>
<!-- Node5 -->
<g id="node5" class="node">
<title>Node5</title>
<g id="a_node5"><a xlink:href="classgko_1_1LinOp.html" target="_top" xlink:title=" ">
<polygon fill="#ffffff" stroke="#000000" points="992.5,-274 992.5,-293 1060.5,-293 1060.5,-274 992.5,-274"/>
<text text-anchor="middle" x="1026.5" y="-281" font-family="Helvetica,sans-Serif" font-size="10.00" fill="#000000">gko::LinOp</text>
</a>
</g>
</g>
<!-- Node5&#45;&gt;Node4 -->
<g id="edge4" class="edge">
<title>Node5&#45;&gt;Node4</title>
<path fill="none" stroke="#191970" d="M1070.7192,-284.0569C1133.8764,-284.8523 1251.3248,-286.3315 1333.2837,-287.3638"/>
<polygon fill="#191970" stroke="#191970" points="1070.7349,-280.5569 1060.6916,-283.9306 1070.6467,-287.5564 1070.7349,-280.5569"/>
</g>
<!-- Node6 -->
<g id="node6" class="node">
<title>Node6</title>
<g id="a_node6"><a xlink:href="classgko_1_1EnableAbstractPolymorphicObject.html" target="_top" xlink:title=" ">
<polygon fill="#ffffff" stroke="#ff0000" points="542,-263.5 542,-293.5 717,-293.5 717,-263.5 542,-263.5"/>
<text text-anchor="start" x="550" y="-281.5" font-family="Helvetica,sans-Serif" font-size="10.00" fill="#000000">gko::EnableAbstractPolymorphic</text>
<text text-anchor="middle" x="629.5" y="-270.5" font-family="Helvetica,sans-Serif" font-size="10.00" fill="#000000">Object&lt; LinOp &gt;</text>
</a>
</g>
</g>
<!-- Node6&#45;&gt;Node5 -->
<g id="edge5" class="edge">
<title>Node6&#45;&gt;Node5</title>
<path fill="none" stroke="#191970" d="M727.1771,-279.7302C813.3055,-280.8149 933.9122,-282.3339 992.2351,-283.0685"/>
<polygon fill="#191970" stroke="#191970" points="727.1581,-276.2298 717.1148,-279.6035 727.0699,-283.2292 727.1581,-276.2298"/>
</g>
<!-- Node11 -->
<g id="node7" class="node">
<title>Node11</title>
<g id="a_node7"><a xlink:href="classgko_1_1EnableAbstractPolymorphicObject.html" target="_top" xlink:title="This mixin inherits from (a subclass of) PolymorphicObject and provides a base implementation of a ne...">
<polygon fill="#ffffff" stroke="#000000" points="138,-238 138,-279 336,-279 336,-238 138,-238"/>
<text text-anchor="start" x="146" y="-267" font-family="Helvetica,sans-Serif" font-size="10.00" fill="#000000">gko::EnableAbstractPolymorphic</text>
<text text-anchor="start" x="146" y="-256" font-family="Helvetica,sans-Serif" font-size="10.00" fill="#000000">Object&lt; AbstractObject, Polymorphic</text>
<text text-anchor="middle" x="237" y="-245" font-family="Helvetica,sans-Serif" font-size="10.00" fill="#000000">Base &gt;</text>
</a>
</g>
</g>
<!-- Node11&#45;&gt;Node4 -->
<g id="edge8" class="edge">
<title>Node11&#45;&gt;Node4</title>
<path fill="none" stroke="#ffa500" stroke-dasharray="5,2" d="M322.7837,-281.3382C333.2505,-283.6576 343.8353,-285.7858 354,-287.5 431.0147,-300.488 450.979,-299.9407 529,-303.5 566.5138,-305.2113 940.7773,-304.3399 1129,-302.5 1207.2298,-301.7353 1226.8839,-303.7853 1305,-299.5 1314.1805,-298.9964 1323.75,-298.3355 1333.2958,-297.5872"/>
<polygon fill="#ffa500" stroke="#ffa500" points="323.33,-277.873 312.8022,-279.0631 321.7743,-284.698 323.33,-277.873"/>
<text text-anchor="start" x="759" y="-317.5" font-family="Helvetica,sans-Serif" font-size="10.00" fill="#000000"> &lt; Perturbation&lt; ValueType</text>
<text text-anchor="middle" x="827" y="-306.5" font-family="Helvetica,sans-Serif" font-size="10.00" fill="#000000"> &gt;, LinOp &gt;</text>
</g>
<!-- Node11&#45;&gt;Node6 -->
<g id="edge6" class="edge">
<title>Node11&#45;&gt;Node6</title>
<path fill="none" stroke="#ffa500" stroke-dasharray="5,2" d="M346.3159,-265.0838C348.902,-265.2255 351.4664,-265.3644 354,-265.5 416.7568,-268.8579 487.5803,-272.1897 541.703,-274.6396"/>
<polygon fill="#ffa500" stroke="#ffa500" points="346.4309,-261.5848 336.2522,-264.5249 346.0427,-268.5741 346.4309,-261.5848"/>
<text text-anchor="middle" x="432.5" y="-275.5" font-family="Helvetica,sans-Serif" font-size="10.00" fill="#000000"> &lt; LinOp &gt;</text>
</g>
<!-- Node14 -->
<g id="node10" class="node">
<title>Node14</title>
<g id="a_node10"><a xlink:href="classgko_1_1EnableAbstractPolymorphicObject.html" target="_top" xlink:title=" ">
<polygon fill="#ffffff" stroke="#000000" points="529,-202 529,-243 730,-243 730,-202 529,-202"/>
<text text-anchor="start" x="537" y="-231" font-family="Helvetica,sans-Serif" font-size="10.00" fill="#000000">gko::EnableAbstractPolymorphic</text>
<text text-anchor="start" x="537" y="-220" font-family="Helvetica,sans-Serif" font-size="10.00" fill="#000000">Object&lt; ConcreteObject, Polymorphic</text>
<text text-anchor="middle" x="629.5" y="-209" font-family="Helvetica,sans-Serif" font-size="10.00" fill="#000000">Base &gt;</text>
</a>
</g>
</g>
<!-- Node11&#45;&gt;Node14 -->
<g id="edge12" class="edge">
<title>Node11&#45;&gt;Node14</title>
<path fill="none" stroke="#ffa500" stroke-dasharray="5,2" d="M346.2714,-240.4046C348.8708,-240.0873 351.45,-239.785 354,-239.5 411.7444,-233.0459 476.5919,-228.892 528.8603,-226.3072"/>
<polygon fill="#ffa500" stroke="#ffa500" points="345.6385,-236.957 336.1634,-241.6975 346.5267,-243.9004 345.6385,-236.957"/>
<text text-anchor="start" x="354" y="-253.5" font-family="Helvetica,sans-Serif" font-size="10.00" fill="#000000"> &lt; ConcreteObject, Polymorphic</text>
<text text-anchor="middle" x="432.5" y="-242.5" font-family="Helvetica,sans-Serif" font-size="10.00" fill="#000000">Base &gt;</text>
</g>
<!-- Node21 -->
<g id="node17" class="node">
<title>Node21</title>
<g id="a_node17"><a xlink:href="classgko_1_1EnableAbstractPolymorphicObject.html" target="_top" xlink:title=" ">
<polygon fill="#ffffff" stroke="#000000" points="531,-137 531,-178 728,-178 728,-137 531,-137"/>
<text text-anchor="start" x="539" y="-166" font-family="Helvetica,sans-Serif" font-size="10.00" fill="#000000">gko::EnableAbstractPolymorphic</text>
<text text-anchor="start" x="539" y="-155" font-family="Helvetica,sans-Serif" font-size="10.00" fill="#000000">Object&lt; ConcreteLinOp, Polymorphic</text>
<text text-anchor="middle" x="629.5" y="-144" font-family="Helvetica,sans-Serif" font-size="10.00" fill="#000000">Base &gt;</text>
</a>
</g>
</g>
<!-- Node11&#45;&gt;Node21 -->
<g id="edge22" class="edge">
<title>Node11&#45;&gt;Node21</title>
<path fill="none" stroke="#ffa500" stroke-dasharray="5,2" d="M280.2852,-233.0757C301.7949,-221.4849 328.5704,-208.5765 354,-200.5 411.2109,-182.3297 477.6363,-171.6732 530.9269,-165.5147"/>
<polygon fill="#ffa500" stroke="#ffa500" points="278.493,-230.0667 271.4085,-237.9446 281.8594,-236.2042 278.493,-230.0667"/>
<text text-anchor="start" x="356" y="-214.5" font-family="Helvetica,sans-Serif" font-size="10.00" fill="#000000"> &lt; ConcreteLinOp, Polymorphic</text>
<text text-anchor="middle" x="432.5" y="-203.5" font-family="Helvetica,sans-Serif" font-size="10.00" fill="#000000">Base &gt;</text>
</g>
<!-- Node12 -->
<g id="node8" class="node">
<title>Node12</title>
<g id="a_node8"><a xlink:title=" ">
<polygon fill="#ffffff" stroke="#bfbfbf" points="0,-200 0,-219 101,-219 101,-200 0,-200"/>
<text text-anchor="middle" x="50.5" y="-207" font-family="Helvetica,sans-Serif" font-size="10.00" fill="#000000">PolymorphicBase</text>
</a>
</g>
</g>
<!-- Node12&#45;&gt;Node11 -->
<g id="edge7" class="edge">
<title>Node12&#45;&gt;Node11</title>
<path fill="none" stroke="#191970" d="M96.6373,-221.6219C115.3596,-226.5409 137.5184,-232.3628 158.6324,-237.9101"/>
<polygon fill="#191970" stroke="#191970" points="97.463,-218.2201 86.9018,-219.064 95.6842,-224.9903 97.463,-218.2201"/>
</g>
<!-- Node12&#45;&gt;Node14 -->
<g id="edge11" class="edge">
<title>Node12&#45;&gt;Node14</title>
<path fill="none" stroke="#191970" d="M111.2841,-210.8648C210.5662,-213.0939 408.5048,-217.5381 528.9546,-220.2425"/>
<polygon fill="#191970" stroke="#191970" points="111.1981,-207.362 101.122,-210.6366 111.0409,-214.3603 111.1981,-207.362"/>
</g>
<!-- Node12&#45;&gt;Node21 -->
<g id="edge21" class="edge">
<title>Node12&#45;&gt;Node21</title>
<path fill="none" stroke="#191970" d="M110.8785,-198.3307C171.944,-187.5583 269.169,-171.8392 354,-164.5 412.5115,-159.4379 478.2524,-157.6208 530.8372,-157.1008"/>
<polygon fill="#191970" stroke="#191970" points="110.258,-194.8861 101.0245,-200.0815 111.4826,-201.7781 110.258,-194.8861"/>
</g>
<!-- Node13 -->
<g id="node9" class="node">
<title>Node13</title>
<g id="a_node9"><a xlink:href="classgko_1_1EnablePolymorphicObject.html" target="_top" xlink:title="This mixin inherits from (a subclass of) PolymorphicObject and provides a base implementation of a ne...">
<polygon fill="#ffffff" stroke="#000000" points="924,-207.5 924,-237.5 1129,-237.5 1129,-207.5 924,-207.5"/>
<text text-anchor="start" x="932" y="-225.5" font-family="Helvetica,sans-Serif" font-size="10.00" fill="#000000">gko::EnablePolymorphicObject</text>
<text text-anchor="middle" x="1026.5" y="-214.5" font-family="Helvetica,sans-Serif" font-size="10.00" fill="#000000">&lt; ConcreteObject, PolymorphicBase &gt;</text>
</a>
</g>
</g>
<!-- Node13&#45;&gt;Node3 -->
<g id="edge9" class="edge">
<title>Node13&#45;&gt;Node3</title>
<path fill="none" stroke="#ffa500" stroke-dasharray="5,2" d="M1139.2626,-223.4131C1261.0308,-224.399 1452.135,-225.9464 1560.9104,-226.8272"/>
<polygon fill="#ffa500" stroke="#ffa500" points="1139.1888,-219.9124 1129.1607,-223.3313 1139.132,-226.9122 1139.1888,-219.9124"/>
<text text-anchor="start" x="1355.5" y="-240.5" font-family="Helvetica,sans-Serif" font-size="10.00" fill="#000000"> &lt; Perturbation&lt; ValueType</text>
<text text-anchor="middle" x="1423.5" y="-229.5" font-family="Helvetica,sans-Serif" font-size="10.00" fill="#000000"> &gt;, LinOp &gt;</text>
</g>
<!-- Node20 -->
<g id="node16" class="node">
<title>Node20</title>
<g id="a_node16"><a xlink:href="classgko_1_1EnablePolymorphicObject.html" target="_top" xlink:title=" ">
<polygon fill="#ffffff" stroke="#000000" points="1323,-145.5 1323,-175.5 1524,-175.5 1524,-145.5 1323,-145.5"/>
<text text-anchor="start" x="1331" y="-163.5" font-family="Helvetica,sans-Serif" font-size="10.00" fill="#000000">gko::EnablePolymorphicObject</text>
<text text-anchor="middle" x="1423.5" y="-152.5" font-family="Helvetica,sans-Serif" font-size="10.00" fill="#000000">&lt; ConcreteLinOp, PolymorphicBase &gt;</text>
</a>
</g>
</g>
<!-- Node13&#45;&gt;Node20 -->
<g id="edge23" class="edge">
<title>Node13&#45;&gt;Node20</title>
<path fill="none" stroke="#ffa500" stroke-dasharray="5,2" d="M1088.2383,-204.8454C1106.9893,-199.9639 1127.7304,-195.0408 1147,-191.5 1204.842,-180.8714 1270.2056,-173.3408 1322.8537,-168.3654"/>
<polygon fill="#ffa500" stroke="#ffa500" points="1087.1127,-201.5227 1078.3412,-207.465 1088.9039,-208.2897 1087.1127,-201.5227"/>
<text text-anchor="start" x="1149.5" y="-205.5" font-family="Helvetica,sans-Serif" font-size="10.00" fill="#000000"> &lt; ConcreteLinOp, Polymorphic</text>
<text text-anchor="middle" x="1226" y="-194.5" font-family="Helvetica,sans-Serif" font-size="10.00" fill="#000000">Base &gt;</text>
</g>
<!-- Node14&#45;&gt;Node13 -->
<g id="edge10" class="edge">
<title>Node14&#45;&gt;Node13</title>
<path fill="none" stroke="#191970" d="M740.4075,-222.5C797.8822,-222.5 867.6119,-222.5 923.8412,-222.5"/>
<polygon fill="#191970" stroke="#191970" points="740.1931,-219.0001 730.1931,-222.5 740.193,-226.0001 740.1931,-219.0001"/>
</g>
<!-- Node15 -->
<g id="node11" class="node">
<title>Node15</title>
<g id="a_node11"><a xlink:href="classgko_1_1EnablePolymorphicAssignment.html" target="_top" xlink:title=" ">
<polygon fill="#ffffff" stroke="#000000" points="1327.5,-96.5 1327.5,-126.5 1519.5,-126.5 1519.5,-96.5 1327.5,-96.5"/>
<text text-anchor="start" x="1335.5" y="-114.5" font-family="Helvetica,sans-Serif" font-size="10.00" fill="#000000">gko::EnablePolymorphicAssignment</text>
<text text-anchor="middle" x="1423.5" y="-103.5" font-family="Helvetica,sans-Serif" font-size="10.00" fill="#000000">&lt; Perturbation&lt; ValueType &gt; &gt;</text>
</a>
</g>
</g>
<!-- Node15&#45;&gt;Node2 -->
<g id="edge13" class="edge">
<title>Node15&#45;&gt;Node2</title>
<path fill="none" stroke="#191970" d="M1529.6942,-123.8986C1540.2613,-124.8879 1550.8348,-125.7808 1561,-126.5 1685.8862,-135.3353 1830.9008,-135.0129 1920.9448,-133.5709"/>
<polygon fill="#191970" stroke="#191970" points="1529.8682,-120.3992 1519.5783,-122.9231 1529.1962,-127.3669 1529.8682,-120.3992"/>
</g>
<!-- Node16 -->
<g id="node12" class="node">
<title>Node16</title>
<g id="a_node12"><a xlink:href="classgko_1_1ConvertibleTo.html" target="_top" xlink:title=" ">
<polygon fill="#ffffff" stroke="#000000" points="941,-98.5 941,-128.5 1112,-128.5 1112,-98.5 941,-98.5"/>
<text text-anchor="start" x="949" y="-116.5" font-family="Helvetica,sans-Serif" font-size="10.00" fill="#000000">gko::ConvertibleTo</text>
<text text-anchor="middle" x="1026.5" y="-105.5" font-family="Helvetica,sans-Serif" font-size="10.00" fill="#000000">&lt; Perturbation&lt; ValueType &gt; &gt;</text>
</a>
</g>
</g>
<!-- Node16&#45;&gt;Node15 -->
<g id="edge14" class="edge">
<title>Node16&#45;&gt;Node15</title>
<path fill="none" stroke="#191970" d="M1122.346,-113.0171C1184.4375,-112.7043 1265.0175,-112.2984 1327.199,-111.9851"/>
<polygon fill="#191970" stroke="#191970" points="1122.1365,-109.5181 1112.1543,-113.0685 1122.1719,-116.518 1122.1365,-109.5181"/>
</g>
<!-- Node17 -->
<g id="node13" class="node">
<title>Node17</title>
<g id="a_node13"><a xlink:href="classgko_1_1ConvertibleTo.html" target="_top" xlink:title="ConvertibleTo interface is used to mark that the implementer can be converted to the object of Result...">
<polygon fill="#ffffff" stroke="#000000" points="576,-49.5 576,-79.5 683,-79.5 683,-49.5 576,-49.5"/>
<text text-anchor="start" x="584" y="-67.5" font-family="Helvetica,sans-Serif" font-size="10.00" fill="#000000">gko::ConvertibleTo</text>
<text text-anchor="middle" x="629.5" y="-56.5" font-family="Helvetica,sans-Serif" font-size="10.00" fill="#000000">&lt; ResultType &gt;</text>
</a>
</g>
</g>
<!-- Node17&#45;&gt;Node16 -->
<g id="edge15" class="edge">
<title>Node17&#45;&gt;Node16</title>
<path fill="none" stroke="#ffa500" stroke-dasharray="5,2" d="M693.0578,-72.3447C760.1672,-80.6277 866.3552,-93.734 940.8247,-102.9255"/>
<polygon fill="#ffa500" stroke="#ffa500" points="693.3946,-68.8598 683.0412,-71.1084 692.5371,-75.807 693.3946,-68.8598"/>
<text text-anchor="middle" x="827" y="-101.5" font-family="Helvetica,sans-Serif" font-size="10.00" fill="#000000"> &lt; Perturbation&lt; ValueType &gt; &gt;</text>
</g>
<!-- Node18 -->
<g id="node14" class="node">
<title>Node18</title>
<g id="a_node14"><a xlink:href="classgko_1_1EnablePolymorphicAssignment.html" target="_top" xlink:title="This mixin is used to enable a default PolymorphicObject::copy_from() implementation for objects that...">
<polygon fill="#ffffff" stroke="#000000" points="930.5,-49.5 930.5,-79.5 1122.5,-79.5 1122.5,-49.5 930.5,-49.5"/>
<text text-anchor="start" x="938.5" y="-67.5" font-family="Helvetica,sans-Serif" font-size="10.00" fill="#000000">gko::EnablePolymorphicAssignment</text>
<text text-anchor="middle" x="1026.5" y="-56.5" font-family="Helvetica,sans-Serif" font-size="10.00" fill="#000000">&lt; ConcreteType, ResultType &gt;</text>
</a>
</g>
</g>
<!-- Node17&#45;&gt;Node18 -->
<g id="edge17" class="edge">
<title>Node17&#45;&gt;Node18</title>
<path fill="none" stroke="#191970" d="M693.4027,-64.5C757.4766,-64.5 856.9224,-64.5 930.4884,-64.5"/>
<polygon fill="#191970" stroke="#191970" points="693.0412,-61.0001 683.0412,-64.5 693.0412,-68.0001 693.0412,-61.0001"/>
</g>
<!-- Node23 -->
<g id="node19" class="node">
<title>Node23</title>
<g id="a_node19"><a xlink:href="classgko_1_1ConvertibleTo.html" target="_top" xlink:title=" ">
<polygon fill="#ffffff" stroke="#000000" points="971.5,-.5 971.5,-30.5 1081.5,-30.5 1081.5,-.5 971.5,-.5"/>
<text text-anchor="start" x="979.5" y="-18.5" font-family="Helvetica,sans-Serif" font-size="10.00" fill="#000000">gko::ConvertibleTo</text>
<text text-anchor="middle" x="1026.5" y="-7.5" font-family="Helvetica,sans-Serif" font-size="10.00" fill="#000000">&lt; ConcreteLinOp &gt;</text>
</a>
</g>
</g>
<!-- Node17&#45;&gt;Node23 -->
<g id="edge26" class="edge">
<title>Node17&#45;&gt;Node23</title>
<path fill="none" stroke="#ffa500" stroke-dasharray="5,2" d="M693.3901,-56.36C711.0768,-54.1209 730.2815,-51.703 748,-49.5 825.4608,-39.8692 915.0736,-28.9729 971.2719,-22.1693"/>
<polygon fill="#ffa500" stroke="#ffa500" points="692.6551,-52.925 683.1745,-57.6546 693.5352,-59.8695 692.6551,-52.925"/>
<text text-anchor="middle" x="827" y="-52.5" font-family="Helvetica,sans-Serif" font-size="10.00" fill="#000000"> &lt; ConcreteLinOp &gt;</text>
</g>
<!-- Node18&#45;&gt;Node15 -->
<g id="edge16" class="edge">
<title>Node18&#45;&gt;Node15</title>
<path fill="none" stroke="#ffa500" stroke-dasharray="5,2" d="M1132.571,-77.0575C1193.1128,-84.2249 1268.4229,-93.1408 1327.2509,-100.1053"/>
<polygon fill="#ffa500" stroke="#ffa500" points="1132.9448,-73.5774 1122.6026,-75.8774 1132.1218,-80.5289 1132.9448,-73.5774"/>
<text text-anchor="middle" x="1226" y="-99.5" font-family="Helvetica,sans-Serif" font-size="10.00" fill="#000000"> &lt; Perturbation&lt; ValueType &gt; &gt;</text>
</g>
<!-- Node22 -->
<g id="node18" class="node">
<title>Node22</title>
<g id="a_node18"><a xlink:href="classgko_1_1EnablePolymorphicAssignment.html" target="_top" xlink:title=" ">
<polygon fill="#ffffff" stroke="#000000" points="1327.5,-38.5 1327.5,-68.5 1519.5,-68.5 1519.5,-38.5 1327.5,-38.5"/>
<text text-anchor="start" x="1335.5" y="-56.5" font-family="Helvetica,sans-Serif" font-size="10.00" fill="#000000">gko::EnablePolymorphicAssignment</text>
<text text-anchor="middle" x="1423.5" y="-45.5" font-family="Helvetica,sans-Serif" font-size="10.00" fill="#000000">&lt; ConcreteLinOp &gt;</text>
</a>
</g>
</g>
<!-- Node18&#45;&gt;Node22 -->
<g id="edge27" class="edge">
<title>Node18&#45;&gt;Node22</title>
<path fill="none" stroke="#ffa500" stroke-dasharray="5,2" d="M1133.126,-55.1971C1137.8124,-54.9316 1142.4532,-54.6966 1147,-54.5 1206.9487,-51.9082 1274.2765,-51.609 1327.4844,-51.9815"/>
<polygon fill="#ffa500" stroke="#ffa500" points="1132.5818,-51.7236 1122.8126,-55.824 1133.0065,-58.7107 1132.5818,-51.7236"/>
<text text-anchor="middle" x="1226" y="-57.5" font-family="Helvetica,sans-Serif" font-size="10.00" fill="#000000"> &lt; ConcreteLinOp &gt;</text>
</g>
<!-- Node19 -->
<g id="node15" class="node">
<title>Node19</title>
<g id="a_node15"><a xlink:href="classgko_1_1EnableLinOp.html" target="_top" xlink:title="The EnableLinOp mixin can be used to provide sensible default implementations of the majority of the ...">
<polygon fill="#ffffff" stroke="#000000" points="1566,-87.5 1566,-117.5 1722,-117.5 1722,-87.5 1566,-87.5"/>
<text text-anchor="start" x="1574" y="-105.5" font-family="Helvetica,sans-Serif" font-size="10.00" fill="#000000">gko::EnableLinOp&lt; Concrete</text>
<text text-anchor="middle" x="1644" y="-94.5" font-family="Helvetica,sans-Serif" font-size="10.00" fill="#000000">LinOp, PolymorphicBase &gt;</text>
</a>
</g>
</g>
<!-- Node19&#45;&gt;Node2 -->
<g id="edge18" class="edge">
<title>Node19&#45;&gt;Node2</title>
<path fill="none" stroke="#ffa500" stroke-dasharray="5,2" d="M1732.3871,-108.4965C1782.4646,-112.0162 1846.2591,-116.7045 1903,-121.5 1908.8114,-121.9912 1914.8027,-122.5158 1920.8382,-123.0578"/>
<polygon fill="#ffa500" stroke="#ffa500" points="1732.4592,-104.9931 1722.2392,-107.786 1731.9703,-111.976 1732.4592,-104.9931"/>
<text text-anchor="middle" x="1824" y="-124.5" font-family="Helvetica,sans-Serif" font-size="10.00" fill="#000000"> &lt; Perturbation&lt; ValueType &gt; &gt;</text>
</g>
<!-- Node20&#45;&gt;Node19 -->
<g id="edge19" class="edge">
<title>Node20&#45;&gt;Node19</title>
<path fill="none" stroke="#191970" d="M1494.724,-143.0128C1504.5684,-140.5286 1514.5424,-137.9763 1524,-135.5 1545.7382,-129.8082 1569.6188,-123.2947 1590.3134,-117.5665"/>
<polygon fill="#191970" stroke="#191970" points="1493.7927,-139.6379 1484.9468,-145.469 1495.4982,-146.427 1493.7927,-139.6379"/>
</g>
<!-- Node21&#45;&gt;Node20 -->
<g id="edge20" class="edge">
<title>Node21&#45;&gt;Node20</title>
<path fill="none" stroke="#191970" d="M738.4966,-157.9118C892.9047,-158.4952 1173.1628,-159.5541 1322.8692,-160.1198"/>
<polygon fill="#191970" stroke="#191970" points="738.0687,-154.4103 728.0555,-157.8724 738.0421,-161.4102 738.0687,-154.4103"/>
</g>
<!-- Node22&#45;&gt;Node19 -->
<g id="edge24" class="edge">
<title>Node22&#45;&gt;Node19</title>
<path fill="none" stroke="#191970" d="M1501.1615,-70.7581C1525.7308,-76.218 1552.6725,-82.205 1576.4722,-87.4938"/>
<polygon fill="#191970" stroke="#191970" points="1501.6769,-67.2873 1491.1558,-68.5346 1500.1584,-74.1207 1501.6769,-67.2873"/>
</g>
<!-- Node23&#45;&gt;Node22 -->
<g id="edge25" class="edge">
<title>Node23&#45;&gt;Node22</title>
<path fill="none" stroke="#191970" d="M1091.6711,-21.738C1155.6894,-27.8657 1254.1179,-37.2871 1327.1678,-44.2793"/>
<polygon fill="#191970" stroke="#191970" points="1091.9892,-18.2526 1081.7011,-20.7837 1091.3221,-25.2207 1091.9892,-18.2526"/>
</g>
<!-- Node24 -->
<g id="node20" class="node">
<title>Node24</title>
<g id="a_node20"><a xlink:href="classgko_1_1EnableCreateMethod.html" target="_top" xlink:title=" ">
<polygon fill="#ffffff" stroke="#000000" points="1922,-58.5 1922,-88.5 2093,-88.5 2093,-58.5 1922,-58.5"/>
<text text-anchor="start" x="1930" y="-76.5" font-family="Helvetica,sans-Serif" font-size="10.00" fill="#000000">gko::EnableCreateMethod</text>
<text text-anchor="middle" x="2007.5" y="-65.5" font-family="Helvetica,sans-Serif" font-size="10.00" fill="#000000">&lt; Perturbation&lt; ValueType &gt; &gt;</text>
</a>
</g>
</g>
<!-- Node24&#45;&gt;Node1 -->
<g id="edge28" class="edge">
<title>Node24&#45;&gt;Node1</title>
<path fill="none" stroke="#191970" d="M2103.031,-86.3806C2112.5329,-87.6617 2121.9351,-88.9294 2130.801,-90.1249"/>
<polygon fill="#191970" stroke="#191970" points="2103.4891,-82.9108 2093.1111,-85.0431 2102.5537,-89.848 2103.4891,-82.9108"/>
</g>
<!-- Node25 -->
<g id="node21" class="node">
<title>Node25</title>
<g id="a_node21"><a xlink:href="classgko_1_1EnableCreateMethod.html" target="_top" xlink:title="This mixin implements a static create() method on ConcreteType that dynamically allocates the memory,...">
<polygon fill="#ffffff" stroke="#000000" points="1573,-38.5 1573,-68.5 1715,-68.5 1715,-38.5 1573,-38.5"/>
<text text-anchor="start" x="1581" y="-56.5" font-family="Helvetica,sans-Serif" font-size="10.00" fill="#000000">gko::EnableCreateMethod</text>
<text text-anchor="middle" x="1644" y="-45.5" font-family="Helvetica,sans-Serif" font-size="10.00" fill="#000000">&lt; ConcreteType &gt;</text>
</a>
</g>
</g>
<!-- Node25&#45;&gt;Node24 -->
<g id="edge29" class="edge">
<title>Node25&#45;&gt;Node24</title>
<path fill="none" stroke="#ffa500" stroke-dasharray="5,2" d="M1725.6816,-57.9942C1784.1118,-61.209 1862.5895,-65.5269 1921.8918,-68.7898"/>
<polygon fill="#ffa500" stroke="#ffa500" points="1725.5594,-54.4822 1715.3822,-57.4275 1725.1748,-61.4717 1725.5594,-54.4822"/>
<text text-anchor="middle" x="1824" y="-71.5" font-family="Helvetica,sans-Serif" font-size="10.00" fill="#000000"> &lt; Perturbation&lt; ValueType &gt; &gt;</text>
</g>
</g>
</svg>
        <g id="navigator" transform="translate(0 0)" fill="#404254">
                <rect fill="#f2f5e9" fill-opacity="0.5" stroke="#606060" stroke-width=".5" x="0" y="0" width="60" height="60"/>
                <use id="zoomplus" xlink:href="#zoomPlus" x="17" y="9" onmousedown="handleZoom(evt,'in')"/>
                <use id="zoomminus" xlink:href="#zoomMin" x="42" y="9" onmousedown="handleZoom(evt,'out')"/>
                <use id="reset" xlink:href="#resetDef" x="30" y="36" onmousedown="handleReset()"/>
                <g id="arrowUp" xlink:href="#dirArrow" transform="translate(30 24)" onmousedown="handlePan(0,-1)">
                  <use xlink:href="#rim" fill="#404040">
                        <set attributeName="fill" to="#808080" begin="arrowUp.mouseover" end="arrowUp.mouseout"/>
                  </use>
                  <path fill="none" stroke="white" stroke-width="1.5" d="M0,-3.0v7 M-2.5,-0.5L0,-3.0L2.5,-0.5"/>
                </g>
                <g id="arrowRight" xlink:href="#dirArrow" transform="rotate(90) translate(36 -43)" onmousedown="handlePan(1,0)">
                  <use xlink:href="#rim" fill="#404040">
                        <set attributeName="fill" to="#808080" begin="arrowRight.mouseover" end="arrowRight.mouseout"/>
                  </use>
                  <path fill="none" stroke="white" stroke-width="1.5" d="M0,-3.0v7 M-2.5,-0.5L0,-3.0L2.5,-0.5"/>
                </g>
                <g id="arrowDown" xlink:href="#dirArrow" transform="rotate(180) translate(-30 -48)" onmousedown="handlePan(0,1)">
                  <use xlink:href="#rim" fill="#404040">
                        <set attributeName="fill" to="#808080" begin="arrowDown.mouseover" end="arrowDown.mouseout"/>
                  </use>
                  <path fill="none" stroke="white" stroke-width="1.5" d="M0,-3.0v7 M-2.5,-0.5L0,-3.0L2.5,-0.5"/>
                </g>
                <g id="arrowLeft" xlink:href="#dirArrow" transform="rotate(270) translate(-36 17)" onmousedown="handlePan(-1,0)">
                  <use xlink:href="#rim" fill="#404040">
                        <set attributeName="fill" to="#808080" begin="arrowLeft.mouseover" end="arrowLeft.mouseout"/>
                  </use>
                  <path fill="none" stroke="white" stroke-width="1.5" d="M0,-3.0v7 M-2.5,-0.5L0,-3.0L2.5,-0.5"/>
                </g>
        </g>
        <svg viewBox="0 0 15 15" width="100%" height="30px" preserveAspectRatio="xMaxYMin meet">
         <g id="arrow_out" transform="scale(0.3 0.3)">
          <a xlink:href="classgko_1_1Perturbation__coll__graph_org.svg" target="_base">
           <rect id="button" ry="5" rx="5" y="6" x="6" height="38" width="38"
                fill="#f2f5e9" fill-opacity="0.5" stroke="#606060" stroke-width="1.0"/>
           <path id="arrow"
             d="M 11.500037,31.436501 C 11.940474,20.09759 22.043105,11.32322 32.158766,21.979434 L 37.068811,17.246167 C 37.068811,17.246167 37.088388,32 37.088388,32 L 22.160133,31.978069 C 22.160133,31.978069 26.997745,27.140456 26.997745,27.140456 C 18.528582,18.264221 13.291696,25.230495 11.500037,31.436501 z"
             style="fill:#404040;"/>
          </a>
         </g>
        </svg>
</svg>
