<?xml version="1.0" encoding="UTF-8" standalone="no"?>
<!DOCTYPE svg PUBLIC "-//W3C//DTD SVG 1.1//EN"
 "http://www.w3.org/Graphics/SVG/1.1/DTD/svg11.dtd">
<!-- Generated by graphviz version 2.40.1 (20161225.0304)
 -->
<!-- Title: Graphical Class Hierarchy Pages: 1 -->
<svg width="1047pt" height="1072pt"
 viewBox="0.00 0.00 1047.00 1072.00" xmlns="http://www.w3.org/2000/svg" xmlns:xlink="http://www.w3.org/1999/xlink">
<g id="graph0" class="graph" transform="scale(1 1) rotate(0) translate(4 1068)">
<title>Graphical Class Hierarchy</title>
<polygon fill="#ffffff" stroke="transparent" points="-4,4 -4,-1068 1043,-1068 1043,4 -4,4"/>
<!-- Node409 -->
<g id="node1" class="node">
<title>Node409</title>
<g id="a_node1"><a xlink:href="classgko_1_1ConvertibleTo.html" target="_top" xlink:title=" ">
<polygon fill="#ffffff" stroke="#000000" points="178.5,-506 178.5,-536 296.5,-536 296.5,-506 178.5,-506"/>
<text text-anchor="start" x="186.5" y="-524" font-family="Helvetica,sans-Serif" font-size="10.00" fill="#000000">gko::ConvertibleTo</text>
<text text-anchor="middle" x="237.5" y="-513" font-family="Helvetica,sans-Serif" font-size="10.00" fill="#000000">&lt; ConcreteFactory &gt;</text>
</a>
</g>
</g>
<!-- Node410 -->
<g id="node2" class="node">
<title>Node410</title>
<g id="a_node2"><a xlink:href="classgko_1_1EnablePolymorphicAssignment.html" target="_top" xlink:title=" ">
<polygon fill="#ffffff" stroke="#000000" points="382.5,-504 382.5,-534 574.5,-534 574.5,-504 382.5,-504"/>
<text text-anchor="start" x="390.5" y="-522" font-family="Helvetica,sans-Serif" font-size="10.00" fill="#000000">gko::EnablePolymorphicAssignment</text>
<text text-anchor="middle" x="478.5" y="-511" font-family="Helvetica,sans-Serif" font-size="10.00" fill="#000000">&lt; ConcreteFactory &gt;</text>
</a>
</g>
</g>
<!-- Node409&#45;&gt;Node410 -->
<g id="edge1" class="edge">
<title>Node409&#45;&gt;Node410</title>
<path fill="none" stroke="#191970" d="M306.9738,-520.4235C330.4758,-520.2284 357.1541,-520.007 382.3502,-519.7979"/>
<polygon fill="#191970" stroke="#191970" points="306.7345,-516.9252 296.7639,-520.5082 306.7926,-523.925 306.7345,-516.9252"/>
</g>
<!-- Node2 -->
<g id="node3" class="node">
<title>Node2</title>
<g id="a_node3"><a xlink:href="classgko_1_1EnableDefaultFactory.html" target="_top" xlink:title="This mixin provides a default implementation of a concrete factory.">
<polygon fill="#ffffff" stroke="#000000" points="619,-472.5 619,-513.5 819,-513.5 819,-472.5 619,-472.5"/>
<text text-anchor="start" x="627" y="-501.5" font-family="Helvetica,sans-Serif" font-size="10.00" fill="#000000">gko::EnableDefaultFactory</text>
<text text-anchor="start" x="627" y="-490.5" font-family="Helvetica,sans-Serif" font-size="10.00" fill="#000000">&lt; ConcreteFactory, ProductType,</text>
<text text-anchor="middle" x="719" y="-479.5" font-family="Helvetica,sans-Serif" font-size="10.00" fill="#000000"> ParametersType, PolymorphicBase &gt;</text>
</a>
</g>
</g>
<!-- Node410&#45;&gt;Node2 -->
<g id="edge2" class="edge">
<title>Node410&#45;&gt;Node2</title>
<path fill="none" stroke="#191970" d="M584.8695,-507.5006C596.127,-506.2836 607.5489,-505.0488 618.7336,-503.8396"/>
<polygon fill="#191970" stroke="#191970" points="584.1547,-504.0574 574.5888,-508.612 584.9071,-511.0168 584.1547,-504.0574"/>
</g>
<!-- Node3 -->
<g id="node4" class="node">
<title>Node3</title>
<g id="a_node4"><a xlink:href="classgko_1_1factorization_1_1Ilu_1_1Factory.html" target="_top" xlink:title=" ">
<polygon fill="#ffffff" stroke="#000000" points="871.5,-1022.5 871.5,-1063.5 1022.5,-1063.5 1022.5,-1022.5 871.5,-1022.5"/>
<text text-anchor="start" x="879.5" y="-1051.5" font-family="Helvetica,sans-Serif" font-size="10.00" fill="#000000">gko::factorization</text>
<text text-anchor="start" x="879.5" y="-1040.5" font-family="Helvetica,sans-Serif" font-size="10.00" fill="#000000">::Ilu&lt; ValueType, IndexType</text>
<text text-anchor="middle" x="947" y="-1029.5" font-family="Helvetica,sans-Serif" font-size="10.00" fill="#000000"> &gt;::Factory</text>
</a>
</g>
</g>
<!-- Node2&#45;&gt;Node3 -->
<g id="edge3" class="edge">
<title>Node2&#45;&gt;Node3</title>
<path fill="none" stroke="#191970" d="M723.1172,-523.5737C737.1859,-623.7896 786.3091,-940.1022 855,-1013 859.7237,-1018.013 865.2942,-1022.1898 871.319,-1025.6697"/>
<polygon fill="#191970" stroke="#191970" points="726.561,-522.9259 721.7197,-513.5018 719.6274,-523.888 726.561,-522.9259"/>
</g>
<!-- Node4 -->
<g id="node5" class="node">
<title>Node4</title>
<g id="a_node5"><a xlink:href="classgko_1_1factorization_1_1ParIct_1_1Factory.html" target="_top" xlink:title=" ">
<polygon fill="#ffffff" stroke="#000000" points="886,-962.5 886,-1003.5 1008,-1003.5 1008,-962.5 886,-962.5"/>
<text text-anchor="start" x="894" y="-991.5" font-family="Helvetica,sans-Serif" font-size="10.00" fill="#000000">gko::factorization</text>
<text text-anchor="start" x="894" y="-980.5" font-family="Helvetica,sans-Serif" font-size="10.00" fill="#000000">::ParIct&lt; ValueType,</text>
<text text-anchor="middle" x="947" y="-969.5" font-family="Helvetica,sans-Serif" font-size="10.00" fill="#000000"> IndexType &gt;::Factory</text>
</a>
</g>
</g>
<!-- Node2&#45;&gt;Node4 -->
<g id="edge4" class="edge">
<title>Node2&#45;&gt;Node4</title>
<path fill="none" stroke="#191970" d="M724.2492,-523.6684C740.6444,-616.1413 793.4924,-889.7614 855,-953 863.4336,-961.671 874.4007,-967.8376 885.809,-972.2227"/>
<polygon fill="#191970" stroke="#191970" points="727.6512,-522.8048 722.4749,-513.5605 720.7567,-524.0151 727.6512,-522.8048"/>
</g>
<!-- Node5 -->
<g id="node6" class="node">
<title>Node5</title>
<g id="a_node6"><a xlink:href="classgko_1_1factorization_1_1ParIlu_1_1Factory.html" target="_top" xlink:title=" ">
<polygon fill="#ffffff" stroke="#000000" points="886,-902.5 886,-943.5 1008,-943.5 1008,-902.5 886,-902.5"/>
<text text-anchor="start" x="894" y="-931.5" font-family="Helvetica,sans-Serif" font-size="10.00" fill="#000000">gko::factorization</text>
<text text-anchor="start" x="894" y="-920.5" font-family="Helvetica,sans-Serif" font-size="10.00" fill="#000000">::ParIlu&lt; ValueType,</text>
<text text-anchor="middle" x="947" y="-909.5" font-family="Helvetica,sans-Serif" font-size="10.00" fill="#000000"> IndexType &gt;::Factory</text>
</a>
</g>
</g>
<!-- Node2&#45;&gt;Node5 -->
<g id="edge5" class="edge">
<title>Node2&#45;&gt;Node5</title>
<path fill="none" stroke="#191970" d="M720.45,-523.8649C725.6123,-598.1296 749.0481,-788.3668 855,-893 863.487,-901.3814 874.343,-907.4213 885.601,-911.7738"/>
<polygon fill="#191970" stroke="#191970" points="723.9361,-523.533 719.8132,-513.7733 716.95,-523.9738 723.9361,-523.533"/>
</g>
<!-- Node6 -->
<g id="node7" class="node">
<title>Node6</title>
<g id="a_node7"><a xlink:href="classgko_1_1factorization_1_1ParIlut_1_1Factory.html" target="_top" xlink:title=" ">
<polygon fill="#ffffff" stroke="#000000" points="886,-842.5 886,-883.5 1008,-883.5 1008,-842.5 886,-842.5"/>
<text text-anchor="start" x="894" y="-871.5" font-family="Helvetica,sans-Serif" font-size="10.00" fill="#000000">gko::factorization</text>
<text text-anchor="start" x="894" y="-860.5" font-family="Helvetica,sans-Serif" font-size="10.00" fill="#000000">::ParIlut&lt; ValueType,</text>
<text text-anchor="middle" x="947" y="-849.5" font-family="Helvetica,sans-Serif" font-size="10.00" fill="#000000"> IndexType &gt;::Factory</text>
</a>
</g>
</g>
<!-- Node2&#45;&gt;Node6 -->
<g id="edge6" class="edge">
<title>Node2&#45;&gt;Node6</title>
<path fill="none" stroke="#191970" d="M722.5689,-523.7434C731.8749,-589.9013 762.923,-746.7468 855,-833 863.7052,-841.1546 874.6583,-847.0935 885.9428,-851.4185"/>
<polygon fill="#191970" stroke="#191970" points="726.0027,-523.0142 721.2101,-513.5654 719.0642,-523.9406 726.0027,-523.0142"/>
</g>
<!-- Node7 -->
<g id="node8" class="node">
<title>Node7</title>
<g id="a_node8"><a xlink:href="classgko_1_1preconditioner_1_1Ilu_1_1Factory.html" target="_top" xlink:title=" ">
<polygon fill="#ffffff" stroke="#000000" points="869,-771 869,-823 1025,-823 1025,-771 869,-771"/>
<text text-anchor="start" x="877" y="-811" font-family="Helvetica,sans-Serif" font-size="10.00" fill="#000000">gko::preconditioner</text>
<text text-anchor="start" x="877" y="-800" font-family="Helvetica,sans-Serif" font-size="10.00" fill="#000000">::Ilu&lt; LSolverType,</text>
<text text-anchor="start" x="877" y="-789" font-family="Helvetica,sans-Serif" font-size="10.00" fill="#000000"> USolverType, ReverseApply,</text>
<text text-anchor="middle" x="947" y="-778" font-family="Helvetica,sans-Serif" font-size="10.00" fill="#000000"> IndexType &gt;::Factory</text>
</a>
</g>
</g>
<!-- Node2&#45;&gt;Node7 -->
<g id="edge7" class="edge">
<title>Node2&#45;&gt;Node7</title>
<path fill="none" stroke="#191970" d="M726.6497,-523.3545C741.9445,-578.1557 781.3246,-694.1196 855,-761 859.1908,-764.8043 863.8299,-768.226 868.7321,-771.3005"/>
<polygon fill="#191970" stroke="#191970" points="729.9862,-522.2852 723.9898,-513.5505 723.2304,-524.1181 729.9862,-522.2852"/>
</g>
<!-- Node8 -->
<g id="node9" class="node">
<title>Node8</title>
<g id="a_node9"><a xlink:href="classgko_1_1preconditioner_1_1Isai_1_1Factory.html" target="_top" xlink:title=" ">
<polygon fill="#ffffff" stroke="#000000" points="872.5,-710.5 872.5,-751.5 1021.5,-751.5 1021.5,-710.5 872.5,-710.5"/>
<text text-anchor="start" x="880.5" y="-739.5" font-family="Helvetica,sans-Serif" font-size="10.00" fill="#000000">gko::preconditioner</text>
<text text-anchor="start" x="880.5" y="-728.5" font-family="Helvetica,sans-Serif" font-size="10.00" fill="#000000">::Isai&lt; IsaiType, ValueType,</text>
<text text-anchor="middle" x="947" y="-717.5" font-family="Helvetica,sans-Serif" font-size="10.00" fill="#000000"> IndexType &gt;::Factory</text>
</a>
</g>
</g>
<!-- Node2&#45;&gt;Node8 -->
<g id="edge8" class="edge">
<title>Node2&#45;&gt;Node8</title>
<path fill="none" stroke="#191970" d="M730.8499,-523.0244C750.1539,-568.1447 792.607,-653.2262 855,-701 860.3355,-705.0854 866.2498,-708.6265 872.4317,-711.6937"/>
<polygon fill="#191970" stroke="#191970" points="734.0654,-521.6415 726.9758,-513.7682 727.6082,-524.3441 734.0654,-521.6415"/>
</g>
<!-- Node9 -->
<g id="node10" class="node">
<title>Node9</title>
<g id="a_node10"><a xlink:href="classgko_1_1preconditioner_1_1Jacobi_1_1Factory.html" target="_top" xlink:title=" ">
<polygon fill="#ffffff" stroke="#000000" points="886,-650.5 886,-691.5 1008,-691.5 1008,-650.5 886,-650.5"/>
<text text-anchor="start" x="894" y="-679.5" font-family="Helvetica,sans-Serif" font-size="10.00" fill="#000000">gko::preconditioner</text>
<text text-anchor="start" x="894" y="-668.5" font-family="Helvetica,sans-Serif" font-size="10.00" fill="#000000">::Jacobi&lt; ValueType,</text>
<text text-anchor="middle" x="947" y="-657.5" font-family="Helvetica,sans-Serif" font-size="10.00" fill="#000000"> IndexType &gt;::Factory</text>
</a>
</g>
</g>
<!-- Node2&#45;&gt;Node9 -->
<g id="edge9" class="edge">
<title>Node2&#45;&gt;Node9</title>
<path fill="none" stroke="#191970" d="M738.4922,-521.937C762.2987,-555.1773 805.5579,-609.21 855,-641 864.3265,-646.9967 874.959,-651.8953 885.6042,-655.8636"/>
<polygon fill="#191970" stroke="#191970" points="741.2068,-519.713 732.5856,-513.5546 735.4847,-523.7451 741.2068,-519.713"/>
</g>
<!-- Node10 -->
<g id="node11" class="node">
<title>Node10</title>
<g id="a_node11"><a xlink:href="classgko_1_1solver_1_1Bicg_1_1Factory.html" target="_top" xlink:title=" ">
<polygon fill="#ffffff" stroke="#000000" points="886,-601 886,-631 1008,-631 1008,-601 886,-601"/>
<text text-anchor="start" x="894" y="-619" font-family="Helvetica,sans-Serif" font-size="10.00" fill="#000000">gko::solver::Bicg&lt;</text>
<text text-anchor="middle" x="947" y="-608" font-family="Helvetica,sans-Serif" font-size="10.00" fill="#000000"> ValueType &gt;::Factory</text>
</a>
</g>
</g>
<!-- Node2&#45;&gt;Node10 -->
<g id="edge10" class="edge">
<title>Node2&#45;&gt;Node10</title>
<path fill="none" stroke="#191970" d="M749.5235,-520.4308C775.7697,-542.6789 815.531,-573.3122 855,-592 864.6973,-596.5915 875.4013,-600.3986 885.9756,-603.5237"/>
<polygon fill="#191970" stroke="#191970" points="751.6931,-517.6805 741.8274,-513.818 747.1311,-522.9898 751.6931,-517.6805"/>
</g>
<!-- Node11 -->
<g id="node12" class="node">
<title>Node11</title>
<g id="a_node12"><a xlink:href="classgko_1_1solver_1_1Bicgstab_1_1Factory.html" target="_top" xlink:title=" ">
<polygon fill="#ffffff" stroke="#000000" points="882,-552 882,-582 1012,-582 1012,-552 882,-552"/>
<text text-anchor="start" x="890" y="-570" font-family="Helvetica,sans-Serif" font-size="10.00" fill="#000000">gko::solver::Bicgstab</text>
<text text-anchor="middle" x="947" y="-559" font-family="Helvetica,sans-Serif" font-size="10.00" fill="#000000">&lt; ValueType &gt;::Factory</text>
</a>
</g>
</g>
<!-- Node2&#45;&gt;Node11 -->
<g id="edge11" class="edge">
<title>Node2&#45;&gt;Node11</title>
<path fill="none" stroke="#191970" d="M780.5858,-517.0808C803.7469,-525.7557 830.421,-535.2958 855,-543 864.9232,-546.1104 875.5341,-549.1434 885.8931,-551.9487"/>
<polygon fill="#191970" stroke="#191970" points="781.819,-513.8053 771.2273,-513.5515 779.349,-520.355 781.819,-513.8053"/>
</g>
<!-- Node12 -->
<g id="node13" class="node">
<title>Node12</title>
<g id="a_node13"><a xlink:href="classgko_1_1solver_1_1Cg_1_1Factory.html" target="_top" xlink:title=" ">
<polygon fill="#ffffff" stroke="#000000" points="872,-503 872,-533 1022,-533 1022,-503 872,-503"/>
<text text-anchor="start" x="880" y="-521" font-family="Helvetica,sans-Serif" font-size="10.00" fill="#000000">gko::solver::Cg&lt; ValueType</text>
<text text-anchor="middle" x="947" y="-510" font-family="Helvetica,sans-Serif" font-size="10.00" fill="#000000"> &gt;::Factory</text>
</a>
</g>
</g>
<!-- Node2&#45;&gt;Node12 -->
<g id="edge12" class="edge">
<title>Node2&#45;&gt;Node12</title>
<path fill="none" stroke="#191970" d="M829.0017,-505.0616C843.4792,-506.649 858.0427,-508.2459 871.7569,-509.7497"/>
<polygon fill="#191970" stroke="#191970" points="829.3261,-501.5763 819.0041,-503.9654 828.563,-508.5346 829.3261,-501.5763"/>
</g>
<!-- Node13 -->
<g id="node14" class="node">
<title>Node13</title>
<g id="a_node14"><a xlink:href="classgko_1_1solver_1_1Cgs_1_1Factory.html" target="_top" xlink:title=" ">
<polygon fill="#ffffff" stroke="#000000" points="869.5,-454 869.5,-484 1024.5,-484 1024.5,-454 869.5,-454"/>
<text text-anchor="start" x="877.5" y="-472" font-family="Helvetica,sans-Serif" font-size="10.00" fill="#000000">gko::solver::Cgs&lt; ValueType</text>
<text text-anchor="middle" x="947" y="-461" font-family="Helvetica,sans-Serif" font-size="10.00" fill="#000000"> &gt;::Factory</text>
</a>
</g>
</g>
<!-- Node2&#45;&gt;Node13 -->
<g id="edge13" class="edge">
<title>Node2&#45;&gt;Node13</title>
<path fill="none" stroke="#191970" d="M829.3234,-481.387C842.852,-479.9629 856.4497,-478.5316 869.3534,-477.1733"/>
<polygon fill="#191970" stroke="#191970" points="828.5827,-477.9455 819.0041,-482.4733 829.3156,-484.9071 828.5827,-477.9455"/>
</g>
<!-- Node14 -->
<g id="node15" class="node">
<title>Node14</title>
<g id="a_node15"><a xlink:href="classgko_1_1solver_1_1Fcg_1_1Factory.html" target="_top" xlink:title=" ">
<polygon fill="#ffffff" stroke="#000000" points="870,-405 870,-435 1024,-435 1024,-405 870,-405"/>
<text text-anchor="start" x="878" y="-423" font-family="Helvetica,sans-Serif" font-size="10.00" fill="#000000">gko::solver::Fcg&lt; ValueType</text>
<text text-anchor="middle" x="947" y="-412" font-family="Helvetica,sans-Serif" font-size="10.00" fill="#000000"> &gt;::Factory</text>
</a>
</g>
</g>
<!-- Node2&#45;&gt;Node14 -->
<g id="edge14" class="edge">
<title>Node2&#45;&gt;Node14</title>
<path fill="none" stroke="#191970" d="M783.6993,-469.0655C806.1546,-461.052 831.575,-452.3056 855,-445 865.9026,-441.5998 877.6115,-438.2163 888.9001,-435.0876"/>
<polygon fill="#191970" stroke="#191970" points="782.5018,-465.7767 774.2716,-472.4487 784.8662,-472.3653 782.5018,-465.7767"/>
</g>
<!-- Node15 -->
<g id="node16" class="node">
<title>Node15</title>
<g id="a_node16"><a xlink:href="classgko_1_1solver_1_1Gmres_1_1Factory.html" target="_top" xlink:title=" ">
<polygon fill="#ffffff" stroke="#000000" points="882,-356 882,-386 1012,-386 1012,-356 882,-356"/>
<text text-anchor="start" x="890" y="-374" font-family="Helvetica,sans-Serif" font-size="10.00" fill="#000000">gko::solver::Gmres</text>
<text text-anchor="middle" x="947" y="-363" font-family="Helvetica,sans-Serif" font-size="10.00" fill="#000000">&lt; ValueType &gt;::Factory</text>
</a>
</g>
</g>
<!-- Node2&#45;&gt;Node15 -->
<g id="edge15" class="edge">
<title>Node2&#45;&gt;Node15</title>
<path fill="none" stroke="#191970" d="M749.5717,-465.8611C775.8469,-443.8468 815.6238,-413.5277 855,-395 863.3641,-391.0644 872.4713,-387.7022 881.5962,-384.8509"/>
<polygon fill="#191970" stroke="#191970" points="747.2233,-463.2636 741.8662,-472.4043 751.7543,-468.5994 747.2233,-463.2636"/>
</g>
<!-- Node16 -->
<g id="node17" class="node">
<title>Node16</title>
<g id="a_node17"><a xlink:href="classgko_1_1solver_1_1Ir_1_1Factory.html" target="_top" xlink:title=" ">
<polygon fill="#ffffff" stroke="#000000" points="875,-307 875,-337 1019,-337 1019,-307 875,-307"/>
<text text-anchor="start" x="883" y="-325" font-family="Helvetica,sans-Serif" font-size="10.00" fill="#000000">gko::solver::Ir&lt; ValueType</text>
<text text-anchor="middle" x="947" y="-314" font-family="Helvetica,sans-Serif" font-size="10.00" fill="#000000"> &gt;::Factory</text>
</a>
</g>
</g>
<!-- Node2&#45;&gt;Node16 -->
<g id="edge16" class="edge">
<title>Node2&#45;&gt;Node16</title>
<path fill="none" stroke="#191970" d="M738.0201,-464.013C761.5182,-430.5263 804.6225,-376.1782 855,-346 861.089,-342.3524 867.7281,-339.2531 874.5607,-336.6208"/>
<polygon fill="#191970" stroke="#191970" points="734.9924,-462.2383 732.1991,-472.4583 740.756,-466.2109 734.9924,-462.2383"/>
</g>
<!-- Node17 -->
<g id="node18" class="node">
<title>Node17</title>
<g id="a_node18"><a xlink:href="classgko_1_1solver_1_1LowerTrs_1_1Factory.html" target="_top" xlink:title=" ">
<polygon fill="#ffffff" stroke="#000000" points="880.5,-246.5 880.5,-287.5 1013.5,-287.5 1013.5,-246.5 880.5,-246.5"/>
<text text-anchor="start" x="888.5" y="-275.5" font-family="Helvetica,sans-Serif" font-size="10.00" fill="#000000">gko::solver::LowerTrs</text>
<text text-anchor="start" x="888.5" y="-264.5" font-family="Helvetica,sans-Serif" font-size="10.00" fill="#000000">&lt; ValueType, IndexType</text>
<text text-anchor="middle" x="947" y="-253.5" font-family="Helvetica,sans-Serif" font-size="10.00" fill="#000000"> &gt;::Factory</text>
</a>
</g>
</g>
<!-- Node2&#45;&gt;Node17 -->
<g id="edge17" class="edge">
<title>Node2&#45;&gt;Node17</title>
<path fill="none" stroke="#191970" d="M741.5799,-463.962C762.3994,-436.8056 793.7989,-394.8657 819,-357 836.2301,-331.1111 830.6785,-316.3797 855,-297 862.4892,-291.0325 871.2043,-286.2351 880.2282,-282.3826"/>
<polygon fill="#191970" stroke="#191970" points="738.538,-462.1759 735.2134,-472.2356 744.0857,-466.4449 738.538,-462.1759"/>
</g>
<!-- Node18 -->
<g id="node19" class="node">
<title>Node18</title>
<g id="a_node19"><a xlink:href="classgko_1_1solver_1_1UpperTrs_1_1Factory.html" target="_top" xlink:title=" ">
<polygon fill="#ffffff" stroke="#000000" points="880.5,-186.5 880.5,-227.5 1013.5,-227.5 1013.5,-186.5 880.5,-186.5"/>
<text text-anchor="start" x="888.5" y="-215.5" font-family="Helvetica,sans-Serif" font-size="10.00" fill="#000000">gko::solver::UpperTrs</text>
<text text-anchor="start" x="888.5" y="-204.5" font-family="Helvetica,sans-Serif" font-size="10.00" fill="#000000">&lt; ValueType, IndexType</text>
<text text-anchor="middle" x="947" y="-193.5" font-family="Helvetica,sans-Serif" font-size="10.00" fill="#000000"> &gt;::Factory</text>
</a>
</g>
</g>
<!-- Node2&#45;&gt;Node18 -->
<g id="edge18" class="edge">
<title>Node2&#45;&gt;Node18</title>
<path fill="none" stroke="#191970" d="M744.3526,-464.7C766.7314,-438.4313 798.8446,-397.4025 819,-357 843.8564,-307.1742 816.0976,-276.8378 855,-237 862.0424,-229.7882 870.8375,-224.309 880.1767,-220.1464"/>
<polygon fill="#191970" stroke="#191970" points="741.6254,-462.5031 737.744,-472.3614 746.926,-467.0753 741.6254,-462.5031"/>
</g>
<!-- Node19 -->
<g id="node20" class="node">
<title>Node19</title>
<g id="a_node20"><a xlink:href="classgko_1_1stop_1_1Combined_1_1Factory.html" target="_top" xlink:title=" ">
<polygon fill="#ffffff" stroke="#000000" points="888.5,-137 888.5,-167 1005.5,-167 1005.5,-137 888.5,-137"/>
<text text-anchor="start" x="896.5" y="-155" font-family="Helvetica,sans-Serif" font-size="10.00" fill="#000000">gko::stop::Combined</text>
<text text-anchor="middle" x="947" y="-144" font-family="Helvetica,sans-Serif" font-size="10.00" fill="#000000">::Factory</text>
</a>
</g>
</g>
<!-- Node2&#45;&gt;Node19 -->
<g id="edge19" class="edge">
<title>Node2&#45;&gt;Node19</title>
<path fill="none" stroke="#191970" d="M745.6735,-464.6695C768.6437,-438.6698 800.8736,-398.0624 819,-357 851.9469,-282.3642 799.3037,-236.6148 855,-177 863.8135,-167.5664 875.7971,-161.5605 888.2007,-157.7694"/>
<polygon fill="#191970" stroke="#191970" points="742.9417,-462.4733 738.868,-472.2537 748.1517,-467.1484 742.9417,-462.4733"/>
</g>
<!-- Node20 -->
<g id="node21" class="node">
<title>Node20</title>
<g id="a_node21"><a xlink:href="classgko_1_1stop_1_1Iteration_1_1Factory.html" target="_top" xlink:title=" ">
<polygon fill="#ffffff" stroke="#000000" points="892.5,-88 892.5,-118 1001.5,-118 1001.5,-88 892.5,-88"/>
<text text-anchor="start" x="900.5" y="-106" font-family="Helvetica,sans-Serif" font-size="10.00" fill="#000000">gko::stop::Iteration</text>
<text text-anchor="middle" x="947" y="-95" font-family="Helvetica,sans-Serif" font-size="10.00" fill="#000000">::Factory</text>
</a>
</g>
</g>
<!-- Node2&#45;&gt;Node20 -->
<g id="edge20" class="edge">
<title>Node2&#45;&gt;Node20</title>
<path fill="none" stroke="#191970" d="M746.0943,-464.8499C769.3419,-438.9693 801.7426,-398.4352 819,-357 858.7807,-261.4862 785.5829,-203.7245 855,-127 864.6349,-116.3509 878.3465,-110.168 892.2511,-106.6456"/>
<polygon fill="#191970" stroke="#191970" points="743.3611,-462.6525 739.2002,-472.3962 748.5291,-467.3739 743.3611,-462.6525"/>
</g>
<!-- Node21 -->
<g id="node22" class="node">
<title>Node21</title>
<g id="a_node22"><a xlink:href="classgko_1_1stop_1_1ResidualNormReduction_1_1Factory.html" target="_top" xlink:title=" ">
<polygon fill="#ffffff" stroke="#000000" points="855,-39 855,-69 1039,-69 1039,-39 855,-39"/>
<text text-anchor="start" x="863" y="-57" font-family="Helvetica,sans-Serif" font-size="10.00" fill="#000000">gko::stop::ResidualNormReduction</text>
<text text-anchor="middle" x="947" y="-46" font-family="Helvetica,sans-Serif" font-size="10.00" fill="#000000">&lt; ValueType &gt;::Factory</text>
</a>
</g>
</g>
<!-- Node2&#45;&gt;Node21 -->
<g id="edge21" class="edge">
<title>Node2&#45;&gt;Node21</title>
<path fill="none" stroke="#191970" d="M746.3652,-464.9606C769.7916,-439.153 802.3022,-398.6638 819,-357 865.5116,-240.9454 772.3736,-171.8343 855,-78 857.9454,-74.6551 861.2928,-71.7488 864.9248,-69.2258"/>
<polygon fill="#191970" stroke="#191970" points="743.6299,-462.7636 739.4142,-472.4836 748.7713,-467.5141 743.6299,-462.7636"/>
</g>
<!-- Node22 -->
<g id="node23" class="node">
<title>Node22</title>
<g id="a_node23"><a xlink:href="classgko_1_1stop_1_1Time_1_1Factory.html" target="_top" xlink:title=" ">
<polygon fill="#ffffff" stroke="#000000" points="880,-.5 880,-19.5 1014,-19.5 1014,-.5 880,-.5"/>
<text text-anchor="middle" x="947" y="-7.5" font-family="Helvetica,sans-Serif" font-size="10.00" fill="#000000">gko::stop::Time::Factory</text>
</a>
</g>
</g>
<!-- Node2&#45;&gt;Node22 -->
<g id="edge22" class="edge">
<title>Node2&#45;&gt;Node22</title>
<path fill="none" stroke="#191970" d="M746.9763,-464.5778C770.4954,-438.8002 802.7953,-398.5732 819,-357 845.6302,-288.68 805.6528,-83.2369 855,-29 861.6952,-21.6414 870.4233,-16.7108 879.8354,-13.469"/>
<polygon fill="#191970" stroke="#191970" points="744.2302,-462.3914 739.9868,-472.0993 749.358,-467.1565 744.2302,-462.3914"/>
</g>
<!-- Node407 -->
<g id="node24" class="node">
<title>Node407</title>
<g id="a_node24"><a xlink:href="classgko_1_1ConvertibleTo.html" target="_top" xlink:title=" ">
<polygon fill="#ffffff" stroke="#000000" points="182.5,-216 182.5,-246 292.5,-246 292.5,-216 182.5,-216"/>
<text text-anchor="start" x="190.5" y="-234" font-family="Helvetica,sans-Serif" font-size="10.00" fill="#000000">gko::ConvertibleTo</text>
<text text-anchor="middle" x="237.5" y="-223" font-family="Helvetica,sans-Serif" font-size="10.00" fill="#000000">&lt; ConcreteLinOp &gt;</text>
</a>
</g>
</g>
<!-- Node408 -->
<g id="node25" class="node">
<title>Node408</title>
<g id="a_node25"><a xlink:href="classgko_1_1EnablePolymorphicAssignment.html" target="_top" xlink:title=" ">
<polygon fill="#ffffff" stroke="#000000" points="382.5,-249 382.5,-279 574.5,-279 574.5,-249 382.5,-249"/>
<text text-anchor="start" x="390.5" y="-267" font-family="Helvetica,sans-Serif" font-size="10.00" fill="#000000">gko::EnablePolymorphicAssignment</text>
<text text-anchor="middle" x="478.5" y="-256" font-family="Helvetica,sans-Serif" font-size="10.00" fill="#000000">&lt; ConcreteLinOp &gt;</text>
</a>
</g>
</g>
<!-- Node407&#45;&gt;Node408 -->
<g id="edge23" class="edge">
<title>Node407&#45;&gt;Node408</title>
<path fill="none" stroke="#191970" d="M303.011,-239.9704C327.4452,-243.3161 355.7195,-247.1877 382.34,-250.8329"/>
<polygon fill="#191970" stroke="#191970" points="303.1727,-236.4599 292.7903,-238.5709 302.223,-243.3952 303.1727,-236.4599"/>
</g>
<!-- Node88 -->
<g id="node26" class="node">
<title>Node88</title>
<g id="a_node26"><a xlink:href="classgko_1_1EnableLinOp.html" target="_top" xlink:title="The EnableLinOp mixin can be used to provide sensible default implementations of the majority of the ...">
<polygon fill="#ffffff" stroke="#000000" points="641,-318 641,-348 797,-348 797,-318 641,-318"/>
<text text-anchor="start" x="649" y="-336" font-family="Helvetica,sans-Serif" font-size="10.00" fill="#000000">gko::EnableLinOp&lt; Concrete</text>
<text text-anchor="middle" x="719" y="-325" font-family="Helvetica,sans-Serif" font-size="10.00" fill="#000000">LinOp, PolymorphicBase &gt;</text>
</a>
</g>
</g>
<!-- Node408&#45;&gt;Node88 -->
<g id="edge24" class="edge">
<title>Node408&#45;&gt;Node88</title>
<path fill="none" stroke="#191970" d="M540.6687,-281.8363C579.7402,-293.0461 629.5785,-307.3448 666.6303,-317.975"/>
<polygon fill="#191970" stroke="#191970" points="541.559,-278.4506 530.9816,-279.0571 539.6285,-285.1792 541.559,-278.4506"/>
</g>
<!-- Node62 -->
<g id="node27" class="node">
<title>Node62</title>
<g id="a_node27"><a xlink:title=" ">
<polygon fill="#ffffff" stroke="#bfbfbf" points="0,-366.5 0,-385.5 101,-385.5 101,-366.5 0,-366.5"/>
<text text-anchor="middle" x="50.5" y="-373.5" font-family="Helvetica,sans-Serif" font-size="10.00" fill="#000000">PolymorphicBase</text>
</a>
</g>
</g>
<!-- Node0 -->
<g id="node28" class="node">
<title>Node0</title>
<g id="a_node28"><a xlink:href="classgko_1_1EnableAbstractPolymorphicObject.html" target="_top" xlink:title=" ">
<polygon fill="#ffffff" stroke="#000000" points="150,-445.5 150,-486.5 325,-486.5 325,-445.5 150,-445.5"/>
<text text-anchor="start" x="158" y="-474.5" font-family="Helvetica,sans-Serif" font-size="10.00" fill="#000000">gko::EnableAbstractPolymorphic</text>
<text text-anchor="start" x="158" y="-463.5" font-family="Helvetica,sans-Serif" font-size="10.00" fill="#000000">Object&lt; ConcreteFactory,</text>
<text text-anchor="middle" x="237.5" y="-452.5" font-family="Helvetica,sans-Serif" font-size="10.00" fill="#000000"> PolymorphicBase &gt;</text>
</a>
</g>
</g>
<!-- Node62&#45;&gt;Node0 -->
<g id="edge25" class="edge">
<title>Node62&#45;&gt;Node0</title>
<path fill="none" stroke="#191970" d="M69.7579,-392.0372C86.5963,-405.3812 112.1743,-424.0608 137,-436 144.2203,-439.4724 151.9274,-442.6373 159.7408,-445.498"/>
<polygon fill="#191970" stroke="#191970" points="71.7781,-389.1699 61.7994,-385.6095 67.3798,-394.6156 71.7781,-389.1699"/>
</g>
<!-- Node86 -->
<g id="node30" class="node">
<title>Node86</title>
<g id="a_node30"><a xlink:href="classgko_1_1EnableAbstractPolymorphicObject.html" target="_top" xlink:title=" ">
<polygon fill="#ffffff" stroke="#000000" points="139,-385.5 139,-426.5 336,-426.5 336,-385.5 139,-385.5"/>
<text text-anchor="start" x="147" y="-414.5" font-family="Helvetica,sans-Serif" font-size="10.00" fill="#000000">gko::EnableAbstractPolymorphic</text>
<text text-anchor="start" x="147" y="-403.5" font-family="Helvetica,sans-Serif" font-size="10.00" fill="#000000">Object&lt; ConcreteLinOp, Polymorphic</text>
<text text-anchor="middle" x="237.5" y="-392.5" font-family="Helvetica,sans-Serif" font-size="10.00" fill="#000000">Base &gt;</text>
</a>
</g>
</g>
<!-- Node62&#45;&gt;Node86 -->
<g id="edge28" class="edge">
<title>Node62&#45;&gt;Node86</title>
<path fill="none" stroke="#191970" d="M111.016,-385.7084C119.9879,-387.1478 129.4246,-388.6617 138.9314,-390.1869"/>
<polygon fill="#191970" stroke="#191970" points="111.5331,-382.2467 101.1049,-384.1184 110.4242,-389.1584 111.5331,-382.2467"/>
</g>
<!-- Node89 -->
<g id="node32" class="node">
<title>Node89</title>
<g id="a_node32"><a xlink:href="classgko_1_1EnableAbstractPolymorphicObject.html" target="_top" xlink:title=" ">
<polygon fill="#ffffff" stroke="#000000" points="137,-325.5 137,-366.5 338,-366.5 338,-325.5 137,-325.5"/>
<text text-anchor="start" x="145" y="-354.5" font-family="Helvetica,sans-Serif" font-size="10.00" fill="#000000">gko::EnableAbstractPolymorphic</text>
<text text-anchor="start" x="145" y="-343.5" font-family="Helvetica,sans-Serif" font-size="10.00" fill="#000000">Object&lt; ConcreteObject, Polymorphic</text>
<text text-anchor="middle" x="237.5" y="-332.5" font-family="Helvetica,sans-Serif" font-size="10.00" fill="#000000">Base &gt;</text>
</a>
</g>
</g>
<!-- Node62&#45;&gt;Node89 -->
<g id="edge31" class="edge">
<title>Node62&#45;&gt;Node89</title>
<path fill="none" stroke="#191970" d="M111.0054,-366.2933C119.3008,-364.9624 127.9936,-363.5679 136.772,-362.1596"/>
<polygon fill="#191970" stroke="#191970" points="110.4242,-362.8416 101.1049,-367.8816 111.5331,-369.7533 110.4242,-362.8416"/>
</g>
<!-- Node91 -->
<g id="node34" class="node">
<title>Node91</title>
<g id="a_node34"><a xlink:href="classgko_1_1EnableAbstractPolymorphicObject.html" target="_top" xlink:title="This mixin inherits from (a subclass of) PolymorphicObject and provides a base implementation of a ne...">
<polygon fill="#ffffff" stroke="#000000" points="138.5,-265.5 138.5,-306.5 336.5,-306.5 336.5,-265.5 138.5,-265.5"/>
<text text-anchor="start" x="146.5" y="-294.5" font-family="Helvetica,sans-Serif" font-size="10.00" fill="#000000">gko::EnableAbstractPolymorphic</text>
<text text-anchor="start" x="146.5" y="-283.5" font-family="Helvetica,sans-Serif" font-size="10.00" fill="#000000">Object&lt; AbstractObject, Polymorphic</text>
<text text-anchor="middle" x="237.5" y="-272.5" font-family="Helvetica,sans-Serif" font-size="10.00" fill="#000000">Base &gt;</text>
</a>
</g>
</g>
<!-- Node62&#45;&gt;Node91 -->
<g id="edge33" class="edge">
<title>Node62&#45;&gt;Node91</title>
<path fill="none" stroke="#191970" d="M69.7579,-359.9628C86.5963,-346.6188 112.1743,-327.9392 137,-316 144.2203,-312.5276 151.9274,-309.3627 159.7408,-306.502"/>
<polygon fill="#191970" stroke="#191970" points="67.3798,-357.3844 61.7994,-366.3905 71.7781,-362.8301 67.3798,-357.3844"/>
</g>
<!-- Node1 -->
<g id="node29" class="node">
<title>Node1</title>
<g id="a_node29"><a xlink:href="classgko_1_1EnablePolymorphicObject.html" target="_top" xlink:title=" ">
<polygon fill="#ffffff" stroke="#000000" points="374,-452 374,-482 583,-482 583,-452 374,-452"/>
<text text-anchor="start" x="382" y="-470" font-family="Helvetica,sans-Serif" font-size="10.00" fill="#000000">gko::EnablePolymorphicObject</text>
<text text-anchor="middle" x="478.5" y="-459" font-family="Helvetica,sans-Serif" font-size="10.00" fill="#000000">&lt; ConcreteFactory, PolymorphicBase &gt;</text>
</a>
</g>
</g>
<!-- Node0&#45;&gt;Node1 -->
<g id="edge26" class="edge">
<title>Node0&#45;&gt;Node1</title>
<path fill="none" stroke="#191970" d="M335.2497,-466.4056C347.9022,-466.4581 360.902,-466.512 373.6633,-466.565"/>
<polygon fill="#191970" stroke="#191970" points="335.2027,-462.9055 325.1883,-466.3639 335.1736,-469.9054 335.2027,-462.9055"/>
</g>
<!-- Node1&#45;&gt;Node2 -->
<g id="edge27" class="edge">
<title>Node1&#45;&gt;Node2</title>
<path fill="none" stroke="#191970" d="M593.2573,-479.4062C601.7736,-480.3269 610.3266,-481.2515 618.7451,-482.1616"/>
<polygon fill="#191970" stroke="#191970" points="593.6055,-475.9235 583.2872,-478.3283 592.853,-482.883 593.6055,-475.9235"/>
</g>
<!-- Node87 -->
<g id="node31" class="node">
<title>Node87</title>
<g id="a_node31"><a xlink:href="classgko_1_1EnablePolymorphicObject.html" target="_top" xlink:title=" ">
<polygon fill="#ffffff" stroke="#000000" points="378,-386 378,-416 579,-416 579,-386 378,-386"/>
<text text-anchor="start" x="386" y="-404" font-family="Helvetica,sans-Serif" font-size="10.00" fill="#000000">gko::EnablePolymorphicObject</text>
<text text-anchor="middle" x="478.5" y="-393" font-family="Helvetica,sans-Serif" font-size="10.00" fill="#000000">&lt; ConcreteLinOp, PolymorphicBase &gt;</text>
</a>
</g>
</g>
<!-- Node86&#45;&gt;Node87 -->
<g id="edge29" class="edge">
<title>Node86&#45;&gt;Node87</title>
<path fill="none" stroke="#191970" d="M346.2891,-403.743C356.8418,-403.524 367.5155,-403.3026 377.9822,-403.0854"/>
<polygon fill="#191970" stroke="#191970" points="346.1445,-400.2451 336.2193,-403.9519 346.2898,-407.2436 346.1445,-400.2451"/>
</g>
<!-- Node87&#45;&gt;Node88 -->
<g id="edge30" class="edge">
<title>Node87&#45;&gt;Node88</title>
<path fill="none" stroke="#191970" d="M541.657,-383.1427C580.2306,-372.2363 629.011,-358.4439 665.6439,-348.0861"/>
<polygon fill="#191970" stroke="#191970" points="540.2469,-379.9041 531.5765,-385.9929 542.1515,-386.64 540.2469,-379.9041"/>
</g>
<!-- Node90 -->
<g id="node33" class="node">
<title>Node90</title>
<g id="a_node33"><a xlink:href="classgko_1_1EnablePolymorphicObject.html" target="_top" xlink:title="This mixin inherits from (a subclass of) PolymorphicObject and provides a base implementation of a ne...">
<polygon fill="#ffffff" stroke="#000000" points="376,-331 376,-361 581,-361 581,-331 376,-331"/>
<text text-anchor="start" x="384" y="-349" font-family="Helvetica,sans-Serif" font-size="10.00" fill="#000000">gko::EnablePolymorphicObject</text>
<text text-anchor="middle" x="478.5" y="-338" font-family="Helvetica,sans-Serif" font-size="10.00" fill="#000000">&lt; ConcreteObject, PolymorphicBase &gt;</text>
</a>
</g>
</g>
<!-- Node89&#45;&gt;Node90 -->
<g id="edge32" class="edge">
<title>Node89&#45;&gt;Node90</title>
<path fill="none" stroke="#191970" d="M348.5197,-346C357.6003,-346 366.753,-346 375.7701,-346"/>
<polygon fill="#191970" stroke="#191970" points="348.3093,-342.5001 338.3093,-346 348.3093,-349.5001 348.3093,-342.5001"/>
</g>
</g>
</svg>
