<?xml version="1.0" encoding="UTF-8" standalone="no"?>
<!DOCTYPE svg PUBLIC "-//W3C//DTD SVG 1.1//EN"
 "http://www.w3.org/Graphics/SVG/1.1/DTD/svg11.dtd">
<!-- Generated by graphviz version 2.40.1 (20161225.0304)
 -->
<!-- Title: gko::matrix::SparsityCsr&lt; ValueType, IndexType &gt; Pages: 1 -->
<!--zoomable 443 -->
<svg id="main" version="1.1" xmlns="http://www.w3.org/2000/svg" xmlns:xlink="http://www.w3.org/1999/xlink" xml:space="preserve" onload="init(evt)">
<style type="text/css"><![CDATA[
.edge:hover path { stroke: red; }
.edge:hover polygon { stroke: red; fill: red; }
]]></style>
<script type="text/javascript"><![CDATA[
var edges = document.getElementsByTagName('g');
if (edges && edges.length) {
  for (var i=0;i<edges.length;i++) {
    if (edges[i].id.substr(0,4)=='edge') {
      edges[i].setAttribute('class','edge');
    }
  }
}
]]></script>
        <defs>
                <circle id="rim" cx="0" cy="0" r="7"/>
                <circle id="rim2" cx="0" cy="0" r="3.5"/>
                <g id="zoomPlus">
                        <use xlink:href="#rim" fill="#404040">
                                <set attributeName="fill" to="#808080" begin="zoomplus.mouseover" end="zoomplus.mouseout"/>
                        </use>
                        <path d="M-4,0h8M0,-4v8" fill="none" stroke="white" stroke-width="1.5" pointer-events="none"/>
                </g>
                <g id="zoomMin">
                        <use xlink:href="#rim" fill="#404040">
                                <set attributeName="fill" to="#808080" begin="zoomminus.mouseover" end="zoomminus.mouseout"/>
                        </use>
                        <path d="M-4,0h8" fill="none" stroke="white" stroke-width="1.5" pointer-events="none"/>
                </g>
                <g id="dirArrow">
                        <path fill="none" stroke="white" stroke-width="1.5" d="M0,-3.0v7 M-2.5,-0.5L0,-3.0L2.5,-0.5"/>
                </g>
               <g id="resetDef">
                       <use xlink:href="#rim2" fill="#404040">
                               <set attributeName="fill" to="#808080" begin="reset.mouseover" end="reset.mouseout"/>
                       </use>
               </g>
        </defs>

<script type="text/javascript">
var viewWidth = 2245;
var viewHeight = 443;
var sectionId = 'dynsection-0';
</script>
<script xlink:href="svgpan.js"/>
<svg id="graph" class="graph">
<g id="viewport">
<title>gko::matrix::SparsityCsr&lt; ValueType, IndexType &gt;</title>
<polygon fill="#ffffff" stroke="transparent" points="-4,4 -4,-439 2241,-439 2241,4 -4,4"/>
<!-- Node1 -->
<g id="node1" class="node">
<title>Node1</title>
<g id="a_node1"><a xlink:title="SparsityCsr is a matrix format which stores only the sparsity pattern of a sparse matrix by compressi...">
<polygon fill="#bfbfbf" stroke="#000000" points="2093,-88 2093,-118 2237,-118 2237,-88 2093,-88"/>
<text text-anchor="start" x="2101" y="-106" font-family="Helvetica,sans-Serif" font-size="10.00" fill="#000000">gko::matrix::SparsityCsr</text>
<text text-anchor="middle" x="2165" y="-95" font-family="Helvetica,sans-Serif" font-size="10.00" fill="#000000">&lt; ValueType, IndexType &gt;</text>
</a>
</g>
</g>
<!-- Node2 -->
<g id="node2" class="node">
<title>Node2</title>
<g id="a_node2"><a xlink:href="classgko_1_1EnableLinOp.html" target="_top" xlink:title=" ">
<polygon fill="#ffffff" stroke="#000000" points="1885,-217 1885,-247 2056,-247 2056,-217 1885,-217"/>
<text text-anchor="start" x="1893" y="-235" font-family="Helvetica,sans-Serif" font-size="10.00" fill="#000000">gko::EnableLinOp&lt; Sparsity</text>
<text text-anchor="middle" x="1970.5" y="-224" font-family="Helvetica,sans-Serif" font-size="10.00" fill="#000000">Csr&lt; ValueType, IndexType &gt; &gt;</text>
</a>
</g>
</g>
<!-- Node2&#45;&gt;Node1 -->
<g id="edge1" class="edge">
<title>Node2&#45;&gt;Node1</title>
<path fill="none" stroke="#191970" d="M2012.4185,-212.3932C2026.5785,-205.2586 2042.2696,-196.7774 2056,-188 2090.17,-166.1562 2126.7278,-136.1095 2147.6293,-118.21"/>
<polygon fill="#191970" stroke="#191970" points="2010.7767,-209.3006 2003.3705,-216.8768 2013.8847,-215.5727 2010.7767,-209.3006"/>
</g>
<!-- Node3 -->
<g id="node3" class="node">
<title>Node3</title>
<g id="a_node3"><a xlink:href="classgko_1_1EnablePolymorphicObject.html" target="_top" xlink:title=" ">
<polygon fill="#ffffff" stroke="#000000" points="1549,-316.5 1549,-357.5 1715,-357.5 1715,-316.5 1549,-316.5"/>
<text text-anchor="start" x="1557" y="-345.5" font-family="Helvetica,sans-Serif" font-size="10.00" fill="#000000">gko::EnablePolymorphicObject</text>
<text text-anchor="start" x="1557" y="-334.5" font-family="Helvetica,sans-Serif" font-size="10.00" fill="#000000">&lt; SparsityCsr&lt; ValueType,</text>
<text text-anchor="middle" x="1632" y="-323.5" font-family="Helvetica,sans-Serif" font-size="10.00" fill="#000000"> IndexType &gt;, LinOp &gt;</text>
</a>
</g>
</g>
<!-- Node3&#45;&gt;Node2 -->
<g id="edge2" class="edge">
<title>Node3&#45;&gt;Node2</title>
<path fill="none" stroke="#191970" d="M1708.3341,-313.3218C1773.8025,-293.014 1866.1493,-264.3688 1921.9671,-247.0545"/>
<polygon fill="#191970" stroke="#191970" points="1706.9869,-310.0751 1698.4728,-316.3807 1709.0608,-316.7608 1706.9869,-310.0751"/>
</g>
<!-- Node4 -->
<g id="node4" class="node">
<title>Node4</title>
<g id="a_node4"><a xlink:href="classgko_1_1EnableAbstractPolymorphicObject.html" target="_top" xlink:title=" ">
<polygon fill="#ffffff" stroke="#000000" points="1311.5,-377.5 1311.5,-418.5 1490.5,-418.5 1490.5,-377.5 1311.5,-377.5"/>
<text text-anchor="start" x="1319.5" y="-406.5" font-family="Helvetica,sans-Serif" font-size="10.00" fill="#000000">gko::EnableAbstractPolymorphic</text>
<text text-anchor="start" x="1319.5" y="-395.5" font-family="Helvetica,sans-Serif" font-size="10.00" fill="#000000">Object&lt; SparsityCsr&lt; ValueType,</text>
<text text-anchor="middle" x="1401" y="-384.5" font-family="Helvetica,sans-Serif" font-size="10.00" fill="#000000"> IndexType &gt;, LinOp &gt;</text>
</a>
</g>
</g>
<!-- Node4&#45;&gt;Node3 -->
<g id="edge3" class="edge">
<title>Node4&#45;&gt;Node3</title>
<path fill="none" stroke="#191970" d="M1488.6583,-374.8521C1510.1667,-369.1724 1533.045,-363.131 1554.0613,-357.5812"/>
<polygon fill="#191970" stroke="#191970" points="1487.659,-371.496 1478.884,-377.4332 1489.4462,-378.264 1487.659,-371.496"/>
</g>
<!-- Node5 -->
<g id="node5" class="node">
<title>Node5</title>
<g id="a_node5"><a xlink:href="classgko_1_1LinOp.html" target="_top" xlink:title=" ">
<polygon fill="#ffffff" stroke="#000000" points="964.5,-383.5 964.5,-402.5 1032.5,-402.5 1032.5,-383.5 964.5,-383.5"/>
<text text-anchor="middle" x="998.5" y="-390.5" font-family="Helvetica,sans-Serif" font-size="10.00" fill="#000000">gko::LinOp</text>
</a>
</g>
</g>
<!-- Node5&#45;&gt;Node4 -->
<g id="edge4" class="edge">
<title>Node5&#45;&gt;Node4</title>
<path fill="none" stroke="#191970" d="M1043.0409,-393.5533C1107.4831,-394.3538 1228.1088,-395.8523 1311.4027,-396.887"/>
<polygon fill="#191970" stroke="#191970" points="1042.8597,-390.0509 1032.8169,-393.4263 1042.7726,-397.0503 1042.8597,-390.0509"/>
</g>
<!-- Node6 -->
<g id="node6" class="node">
<title>Node6</title>
<g id="a_node6"><a xlink:href="classgko_1_1EnableAbstractPolymorphicObject.html" target="_top" xlink:title=" ">
<polygon fill="#ffffff" stroke="#ff0000" points="538,-373 538,-403 713,-403 713,-373 538,-373"/>
<text text-anchor="start" x="546" y="-391" font-family="Helvetica,sans-Serif" font-size="10.00" fill="#000000">gko::EnableAbstractPolymorphic</text>
<text text-anchor="middle" x="625.5" y="-380" font-family="Helvetica,sans-Serif" font-size="10.00" fill="#000000">Object&lt; LinOp &gt;</text>
</a>
</g>
</g>
<!-- Node6&#45;&gt;Node5 -->
<g id="edge5" class="edge">
<title>Node6&#45;&gt;Node5</title>
<path fill="none" stroke="#191970" d="M723.4478,-389.313C802.8148,-390.3769 910.0455,-391.8143 964.1842,-392.54"/>
<polygon fill="#191970" stroke="#191970" points="723.4695,-385.813 713.4235,-389.1786 723.3756,-392.8124 723.4695,-385.813"/>
</g>
<!-- Node11 -->
<g id="node7" class="node">
<title>Node11</title>
<g id="a_node7"><a xlink:href="classgko_1_1EnableAbstractPolymorphicObject.html" target="_top" xlink:title="This mixin inherits from (a subclass of) PolymorphicObject and provides a base implementation of a ne...">
<polygon fill="#ffffff" stroke="#000000" points="138,-347.5 138,-388.5 332,-388.5 332,-347.5 138,-347.5"/>
<text text-anchor="start" x="146" y="-376.5" font-family="Helvetica,sans-Serif" font-size="10.00" fill="#000000">gko::EnableAbstractPolymorphic</text>
<text text-anchor="start" x="146" y="-365.5" font-family="Helvetica,sans-Serif" font-size="10.00" fill="#000000">Object&lt; AbstactObject, Polymorphic</text>
<text text-anchor="middle" x="235" y="-354.5" font-family="Helvetica,sans-Serif" font-size="10.00" fill="#000000">Base &gt;</text>
</a>
</g>
</g>
<!-- Node11&#45;&gt;Node4 -->
<g id="edge8" class="edge">
<title>Node11&#45;&gt;Node4</title>
<path fill="none" stroke="#ffa500" stroke-dasharray="5,2" d="M319.0668,-390.799C329.4342,-393.1367 339.9254,-395.28 350,-397 426.9882,-410.1442 446.979,-409.4407 525,-413 561.6566,-414.6722 947.7732,-413.5483 1101,-412 1177.0078,-411.232 1196.0883,-412.898 1272,-409 1284.6829,-408.3487 1298.051,-407.4492 1311.1841,-406.4426"/>
<polygon fill="#ffa500" stroke="#ffa500" points="319.7147,-387.3564 309.1824,-388.5055 318.1325,-394.1753 319.7147,-387.3564"/>
<text text-anchor="start" x="744" y="-427" font-family="Helvetica,sans-Serif" font-size="10.00" fill="#000000"> &lt; SparsityCsr&lt; ValueType,</text>
<text text-anchor="middle" x="811" y="-416" font-family="Helvetica,sans-Serif" font-size="10.00" fill="#000000"> IndexType &gt;, LinOp &gt;</text>
</g>
<!-- Node11&#45;&gt;Node6 -->
<g id="edge6" class="edge">
<title>Node11&#45;&gt;Node6</title>
<path fill="none" stroke="#ffa500" stroke-dasharray="5,2" d="M342.3132,-374.5791C344.9005,-374.7226 347.4659,-374.8631 350,-375 412.755,-378.3904 483.5786,-381.7214 537.7017,-384.1628"/>
<polygon fill="#ffa500" stroke="#ffa500" points="342.4252,-371.08 332.2444,-374.0127 342.032,-378.0689 342.4252,-371.08"/>
<text text-anchor="middle" x="428.5" y="-385" font-family="Helvetica,sans-Serif" font-size="10.00" fill="#000000"> &lt; LinOp &gt;</text>
</g>
<!-- Node14 -->
<g id="node10" class="node">
<title>Node14</title>
<g id="a_node10"><a xlink:href="classgko_1_1EnableAbstractPolymorphicObject.html" target="_top" xlink:title=" ">
<polygon fill="#ffffff" stroke="#000000" points="525,-307.5 525,-348.5 726,-348.5 726,-307.5 525,-307.5"/>
<text text-anchor="start" x="533" y="-336.5" font-family="Helvetica,sans-Serif" font-size="10.00" fill="#000000">gko::EnableAbstractPolymorphic</text>
<text text-anchor="start" x="533" y="-325.5" font-family="Helvetica,sans-Serif" font-size="10.00" fill="#000000">Object&lt; ConcreteObject, Polymorphic</text>
<text text-anchor="middle" x="625.5" y="-314.5" font-family="Helvetica,sans-Serif" font-size="10.00" fill="#000000">Base &gt;</text>
</a>
</g>
</g>
<!-- Node11&#45;&gt;Node14 -->
<g id="edge12" class="edge">
<title>Node11&#45;&gt;Node14</title>
<path fill="none" stroke="#ffa500" stroke-dasharray="5,2" d="M342.2728,-349.9677C344.8722,-349.6305 347.451,-349.3071 350,-349 407.7443,-342.0426 472.5918,-336.9648 524.8602,-333.5469"/>
<polygon fill="#ffa500" stroke="#ffa500" points="341.6059,-346.5259 332.164,-351.3321 342.5423,-353.463 341.6059,-346.5259"/>
<text text-anchor="start" x="350" y="-363" font-family="Helvetica,sans-Serif" font-size="10.00" fill="#000000"> &lt; ConcreteObject, Polymorphic</text>
<text text-anchor="middle" x="428.5" y="-352" font-family="Helvetica,sans-Serif" font-size="10.00" fill="#000000">Base &gt;</text>
</g>
<!-- Node21 -->
<g id="node17" class="node">
<title>Node21</title>
<g id="a_node17"><a xlink:href="classgko_1_1EnableAbstractPolymorphicObject.html" target="_top" xlink:title=" ">
<polygon fill="#ffffff" stroke="#000000" points="527,-246.5 527,-287.5 724,-287.5 724,-246.5 527,-246.5"/>
<text text-anchor="start" x="535" y="-275.5" font-family="Helvetica,sans-Serif" font-size="10.00" fill="#000000">gko::EnableAbstractPolymorphic</text>
<text text-anchor="start" x="535" y="-264.5" font-family="Helvetica,sans-Serif" font-size="10.00" fill="#000000">Object&lt; ConcreteLinOp, Polymorphic</text>
<text text-anchor="middle" x="625.5" y="-253.5" font-family="Helvetica,sans-Serif" font-size="10.00" fill="#000000">Base &gt;</text>
</a>
</g>
</g>
<!-- Node11&#45;&gt;Node21 -->
<g id="edge22" class="edge">
<title>Node11&#45;&gt;Node21</title>
<path fill="none" stroke="#ffa500" stroke-dasharray="5,2" d="M276.1911,-342.2266C297.4819,-330.0317 324.3275,-316.3458 350,-308 407.0246,-289.462 473.4442,-279.2633 526.7783,-273.6746"/>
<polygon fill="#ffa500" stroke="#ffa500" points="274.2988,-339.2785 267.4262,-347.3418 277.8272,-345.3242 274.2988,-339.2785"/>
<text text-anchor="start" x="352" y="-322" font-family="Helvetica,sans-Serif" font-size="10.00" fill="#000000"> &lt; ConcreteLinOp, Polymorphic</text>
<text text-anchor="middle" x="428.5" y="-311" font-family="Helvetica,sans-Serif" font-size="10.00" fill="#000000">Base &gt;</text>
</g>
<!-- Node12 -->
<g id="node8" class="node">
<title>Node12</title>
<g id="a_node8"><a xlink:title=" ">
<polygon fill="#ffffff" stroke="#bfbfbf" points="0,-309.5 0,-328.5 101,-328.5 101,-309.5 0,-309.5"/>
<text text-anchor="middle" x="50.5" y="-316.5" font-family="Helvetica,sans-Serif" font-size="10.00" fill="#000000">PolymorphicBase</text>
</a>
</g>
</g>
<!-- Node12&#45;&gt;Node11 -->
<g id="edge7" class="edge">
<title>Node12&#45;&gt;Node11</title>
<path fill="none" stroke="#191970" d="M96.3988,-331.1899C114.8661,-336.0945 136.6815,-341.8883 157.4728,-347.4101"/>
<polygon fill="#191970" stroke="#191970" points="97.0748,-327.7482 86.5114,-328.564 95.278,-334.5137 97.0748,-327.7482"/>
</g>
<!-- Node12&#45;&gt;Node14 -->
<g id="edge11" class="edge">
<title>Node12&#45;&gt;Node14</title>
<path fill="none" stroke="#191970" d="M111.106,-319.9486C209.5893,-321.4901 405.3646,-324.5544 524.9499,-326.4262"/>
<polygon fill="#191970" stroke="#191970" points="111.0771,-316.4478 101.0235,-319.7908 110.9674,-323.447 111.0771,-316.4478"/>
</g>
<!-- Node12&#45;&gt;Node21 -->
<g id="edge21" class="edge">
<title>Node12&#45;&gt;Node21</title>
<path fill="none" stroke="#191970" d="M108.0208,-307.5622C168.1069,-296.1828 265.2408,-279.3844 350,-272 408.4992,-266.9034 474.2396,-265.5448 526.8272,-265.5113"/>
<polygon fill="#191970" stroke="#191970" points="107.1406,-304.167 97.9742,-309.4799 108.4531,-311.0428 107.1406,-304.167"/>
</g>
<!-- Node13 -->
<g id="node9" class="node">
<title>Node13</title>
<g id="a_node9"><a xlink:href="classgko_1_1EnablePolymorphicObject.html" target="_top" xlink:title="This mixin inherits from (a subclass of) PolymorphicObject and provides a base implementation of a ne...">
<polygon fill="#ffffff" stroke="#000000" points="896,-313 896,-343 1101,-343 1101,-313 896,-313"/>
<text text-anchor="start" x="904" y="-331" font-family="Helvetica,sans-Serif" font-size="10.00" fill="#000000">gko::EnablePolymorphicObject</text>
<text text-anchor="middle" x="998.5" y="-320" font-family="Helvetica,sans-Serif" font-size="10.00" fill="#000000">&lt; ConcreteObject, PolymorphicBase &gt;</text>
</a>
</g>
</g>
<!-- Node13&#45;&gt;Node3 -->
<g id="edge9" class="edge">
<title>Node13&#45;&gt;Node3</title>
<path fill="none" stroke="#ffa500" stroke-dasharray="5,2" d="M1111.3768,-329.6036C1236.9753,-331.388 1436.9401,-334.2288 1548.9699,-335.8204"/>
<polygon fill="#ffa500" stroke="#ffa500" points="1111.3882,-326.1035 1101.3395,-329.461 1111.2887,-333.1028 1111.3882,-326.1035"/>
<text text-anchor="start" x="1334" y="-349" font-family="Helvetica,sans-Serif" font-size="10.00" fill="#000000"> &lt; SparsityCsr&lt; ValueType,</text>
<text text-anchor="middle" x="1401" y="-338" font-family="Helvetica,sans-Serif" font-size="10.00" fill="#000000"> IndexType &gt;, LinOp &gt;</text>
</g>
<!-- Node20 -->
<g id="node16" class="node">
<title>Node20</title>
<g id="a_node16"><a xlink:href="classgko_1_1EnablePolymorphicObject.html" target="_top" xlink:title=" ">
<polygon fill="#ffffff" stroke="#000000" points="1300.5,-252 1300.5,-282 1501.5,-282 1501.5,-252 1300.5,-252"/>
<text text-anchor="start" x="1308.5" y="-270" font-family="Helvetica,sans-Serif" font-size="10.00" fill="#000000">gko::EnablePolymorphicObject</text>
<text text-anchor="middle" x="1401" y="-259" font-family="Helvetica,sans-Serif" font-size="10.00" fill="#000000">&lt; ConcreteLinOp, PolymorphicBase &gt;</text>
</a>
</g>
</g>
<!-- Node13&#45;&gt;Node20 -->
<g id="edge23" class="edge">
<title>Node13&#45;&gt;Node20</title>
<path fill="none" stroke="#ffa500" stroke-dasharray="5,2" d="M1069.7731,-310.7875C1085.9003,-307.2399 1102.9898,-303.7517 1119,-301 1178.8999,-290.705 1246.4874,-282.4421 1300.476,-276.6409"/>
<polygon fill="#ffa500" stroke="#ffa500" points="1068.871,-307.4027 1059.8742,-312.9981 1070.3966,-314.2344 1068.871,-307.4027"/>
<text text-anchor="start" x="1119" y="-315" font-family="Helvetica,sans-Serif" font-size="10.00" fill="#000000"> &lt; ConcreteLinOp, Polymorphic</text>
<text text-anchor="middle" x="1195.5" y="-304" font-family="Helvetica,sans-Serif" font-size="10.00" fill="#000000">Base &gt;</text>
</g>
<!-- Node14&#45;&gt;Node13 -->
<g id="edge10" class="edge">
<title>Node14&#45;&gt;Node13</title>
<path fill="none" stroke="#191970" d="M736.7355,-328C787.191,-328 846.4775,-328 895.858,-328"/>
<polygon fill="#191970" stroke="#191970" points="736.4392,-324.5001 726.4392,-328 736.4391,-331.5001 736.4392,-324.5001"/>
</g>
<!-- Node15 -->
<g id="node11" class="node">
<title>Node15</title>
<g id="a_node11"><a xlink:href="classgko_1_1EnablePolymorphicAssignment.html" target="_top" xlink:title=" ">
<polygon fill="#ffffff" stroke="#000000" points="1290,-203 1290,-233 1512,-233 1512,-203 1290,-203"/>
<text text-anchor="start" x="1298" y="-221" font-family="Helvetica,sans-Serif" font-size="10.00" fill="#000000">gko::EnablePolymorphicAssignment</text>
<text text-anchor="middle" x="1401" y="-210" font-family="Helvetica,sans-Serif" font-size="10.00" fill="#000000">&lt; SparsityCsr&lt; ValueType, IndexType &gt; &gt;</text>
</a>
</g>
</g>
<!-- Node15&#45;&gt;Node2 -->
<g id="edge13" class="edge">
<title>Node15&#45;&gt;Node2</title>
<path fill="none" stroke="#191970" d="M1522.3937,-221.467C1585.2501,-223.2175 1663.2439,-225.3203 1733,-227 1783.3004,-228.2112 1839.5973,-229.4036 1884.7514,-230.3199"/>
<polygon fill="#191970" stroke="#191970" points="1522.1346,-217.9585 1512.0408,-221.178 1521.9393,-224.9558 1522.1346,-217.9585"/>
</g>
<!-- Node16 -->
<g id="node12" class="node">
<title>Node16</title>
<g id="a_node12"><a xlink:href="classgko_1_1ConvertibleTo.html" target="_top" xlink:title=" ">
<polygon fill="#ffffff" stroke="#000000" points="925,-197.5 925,-238.5 1072,-238.5 1072,-197.5 925,-197.5"/>
<text text-anchor="start" x="933" y="-226.5" font-family="Helvetica,sans-Serif" font-size="10.00" fill="#000000">gko::ConvertibleTo</text>
<text text-anchor="start" x="933" y="-215.5" font-family="Helvetica,sans-Serif" font-size="10.00" fill="#000000">&lt; SparsityCsr&lt; ValueType,</text>
<text text-anchor="middle" x="998.5" y="-204.5" font-family="Helvetica,sans-Serif" font-size="10.00" fill="#000000"> IndexType &gt; &gt;</text>
</a>
</g>
</g>
<!-- Node16&#45;&gt;Node15 -->
<g id="edge14" class="edge">
<title>Node16&#45;&gt;Node15</title>
<path fill="none" stroke="#191970" d="M1082.5328,-218C1142.6314,-218 1224.1388,-218 1289.6495,-218"/>
<polygon fill="#191970" stroke="#191970" points="1082.3247,-214.5001 1072.3247,-218 1082.3247,-221.5001 1082.3247,-214.5001"/>
</g>
<!-- Node17 -->
<g id="node13" class="node">
<title>Node17</title>
<g id="a_node13"><a xlink:href="classgko_1_1ConvertibleTo.html" target="_top" xlink:title="ConvertibleTo interface is used to mark that the implementer can be converted to the object of Result...">
<polygon fill="#ffffff" stroke="#000000" points="572,-148 572,-178 679,-178 679,-148 572,-148"/>
<text text-anchor="start" x="580" y="-166" font-family="Helvetica,sans-Serif" font-size="10.00" fill="#000000">gko::ConvertibleTo</text>
<text text-anchor="middle" x="625.5" y="-155" font-family="Helvetica,sans-Serif" font-size="10.00" fill="#000000">&lt; ResultType &gt;</text>
</a>
</g>
</g>
<!-- Node17&#45;&gt;Node16 -->
<g id="edge15" class="edge">
<title>Node17&#45;&gt;Node16</title>
<path fill="none" stroke="#ffa500" stroke-dasharray="5,2" d="M689.504,-172.4376C754.828,-182.0698 856.1034,-197.0032 924.7515,-207.1256"/>
<polygon fill="#ffa500" stroke="#ffa500" points="689.7427,-168.935 679.339,-170.9387 688.7215,-175.8601 689.7427,-168.935"/>
<text text-anchor="start" x="744" y="-214" font-family="Helvetica,sans-Serif" font-size="10.00" fill="#000000"> &lt; SparsityCsr&lt; ValueType,</text>
<text text-anchor="middle" x="811" y="-203" font-family="Helvetica,sans-Serif" font-size="10.00" fill="#000000"> IndexType &gt; &gt;</text>
</g>
<!-- Node18 -->
<g id="node14" class="node">
<title>Node18</title>
<g id="a_node14"><a xlink:href="classgko_1_1EnablePolymorphicAssignment.html" target="_top" xlink:title="This mixin is used to enable a default PolymorphicObject::copy_from() implementation for objects that...">
<polygon fill="#ffffff" stroke="#000000" points="902.5,-148 902.5,-178 1094.5,-178 1094.5,-148 902.5,-148"/>
<text text-anchor="start" x="910.5" y="-166" font-family="Helvetica,sans-Serif" font-size="10.00" fill="#000000">gko::EnablePolymorphicAssignment</text>
<text text-anchor="middle" x="998.5" y="-155" font-family="Helvetica,sans-Serif" font-size="10.00" fill="#000000">&lt; ConcreteType, ResultType &gt;</text>
</a>
</g>
</g>
<!-- Node17&#45;&gt;Node18 -->
<g id="edge17" class="edge">
<title>Node17&#45;&gt;Node18</title>
<path fill="none" stroke="#191970" d="M689.5626,-163C748.1119,-163 835.5071,-163 902.4181,-163"/>
<polygon fill="#191970" stroke="#191970" points="689.3391,-159.5001 679.339,-163 689.339,-166.5001 689.3391,-159.5001"/>
</g>
<!-- Node23 -->
<g id="node19" class="node">
<title>Node23</title>
<g id="a_node19"><a xlink:href="classgko_1_1ConvertibleTo.html" target="_top" xlink:title=" ">
<polygon fill="#ffffff" stroke="#000000" points="943.5,-99 943.5,-129 1053.5,-129 1053.5,-99 943.5,-99"/>
<text text-anchor="start" x="951.5" y="-117" font-family="Helvetica,sans-Serif" font-size="10.00" fill="#000000">gko::ConvertibleTo</text>
<text text-anchor="middle" x="998.5" y="-106" font-family="Helvetica,sans-Serif" font-size="10.00" fill="#000000">&lt; ConcreteLinOp &gt;</text>
</a>
</g>
</g>
<!-- Node17&#45;&gt;Node23 -->
<g id="edge26" class="edge">
<title>Node17&#45;&gt;Node23</title>
<path fill="none" stroke="#ffa500" stroke-dasharray="5,2" d="M689.5745,-154.5827C761.1401,-145.1813 875.7916,-130.1199 943.4618,-121.2302"/>
<polygon fill="#ffa500" stroke="#ffa500" points="688.798,-151.1546 679.339,-155.9273 689.7098,-158.0949 688.798,-151.1546"/>
<text text-anchor="middle" x="811" y="-150" font-family="Helvetica,sans-Serif" font-size="10.00" fill="#000000"> &lt; ConcreteLinOp &gt;</text>
</g>
<!-- Node18&#45;&gt;Node15 -->
<g id="edge16" class="edge">
<title>Node18&#45;&gt;Node15</title>
<path fill="none" stroke="#ffa500" stroke-dasharray="5,2" d="M1104.6694,-171.9347C1155.452,-176.8007 1217.0236,-183.5639 1272,-192 1291.7591,-195.032 1313.0815,-199.0288 1332.5901,-202.9767"/>
<polygon fill="#ffa500" stroke="#ffa500" points="1104.9474,-168.4455 1094.6619,-170.9869 1104.2873,-175.4143 1104.9474,-168.4455"/>
<text text-anchor="start" x="1128.5" y="-206" font-family="Helvetica,sans-Serif" font-size="10.00" fill="#000000"> &lt; SparsityCsr&lt; ValueType,</text>
<text text-anchor="middle" x="1195.5" y="-195" font-family="Helvetica,sans-Serif" font-size="10.00" fill="#000000"> IndexType &gt; &gt;</text>
</g>
<!-- Node22 -->
<g id="node18" class="node">
<title>Node22</title>
<g id="a_node18"><a xlink:href="classgko_1_1EnablePolymorphicAssignment.html" target="_top" xlink:title=" ">
<polygon fill="#ffffff" stroke="#000000" points="1305,-132 1305,-162 1497,-162 1497,-132 1305,-132"/>
<text text-anchor="start" x="1313" y="-150" font-family="Helvetica,sans-Serif" font-size="10.00" fill="#000000">gko::EnablePolymorphicAssignment</text>
<text text-anchor="middle" x="1401" y="-139" font-family="Helvetica,sans-Serif" font-size="10.00" fill="#000000">&lt; ConcreteLinOp &gt;</text>
</a>
</g>
</g>
<!-- Node18&#45;&gt;Node22 -->
<g id="edge27" class="edge">
<title>Node18&#45;&gt;Node22</title>
<path fill="none" stroke="#ffa500" stroke-dasharray="5,2" d="M1105.0898,-149.0357C1109.786,-148.6401 1114.4388,-148.2909 1119,-148 1180.8071,-144.0579 1250.3887,-143.7675 1304.9697,-144.4825"/>
<polygon fill="#ffa500" stroke="#ffa500" points="1104.4018,-145.5836 1094.7582,-149.971 1105.033,-152.5551 1104.4018,-145.5836"/>
<text text-anchor="middle" x="1195.5" y="-151" font-family="Helvetica,sans-Serif" font-size="10.00" fill="#000000"> &lt; ConcreteLinOp &gt;</text>
</g>
<!-- Node19 -->
<g id="node15" class="node">
<title>Node19</title>
<g id="a_node15"><a xlink:href="classgko_1_1EnableLinOp.html" target="_top" xlink:title="The EnableLinOp mixin can be used to provide sensible default implementations of the majority of the ...">
<polygon fill="#ffffff" stroke="#000000" points="1554,-182 1554,-212 1710,-212 1710,-182 1554,-182"/>
<text text-anchor="start" x="1562" y="-200" font-family="Helvetica,sans-Serif" font-size="10.00" fill="#000000">gko::EnableLinOp&lt; Concrete</text>
<text text-anchor="middle" x="1632" y="-189" font-family="Helvetica,sans-Serif" font-size="10.00" fill="#000000">LinOp, PolymorphicBase &gt;</text>
</a>
</g>
</g>
<!-- Node19&#45;&gt;Node2 -->
<g id="edge18" class="edge">
<title>Node19&#45;&gt;Node2</title>
<path fill="none" stroke="#ffa500" stroke-dasharray="5,2" d="M1720.3321,-195.4047C1764.5751,-195.7709 1818.8422,-197.9871 1867,-205 1885.1925,-207.6492 1904.7928,-212.2873 1921.9914,-216.9799"/>
<polygon fill="#ffa500" stroke="#ffa500" points="1720.2015,-191.9041 1710.1833,-195.3514 1720.1647,-198.904 1720.2015,-191.9041"/>
<text text-anchor="start" x="1733" y="-219" font-family="Helvetica,sans-Serif" font-size="10.00" fill="#000000"> &lt; SparsityCsr&lt; ValueType,</text>
<text text-anchor="middle" x="1800" y="-208" font-family="Helvetica,sans-Serif" font-size="10.00" fill="#000000"> IndexType &gt; &gt;</text>
</g>
<!-- Node20&#45;&gt;Node19 -->
<g id="edge19" class="edge">
<title>Node20&#45;&gt;Node19</title>
<path fill="none" stroke="#191970" d="M1487.5666,-249.6351C1495.8677,-247.5649 1504.1229,-245.3463 1512,-243 1541.188,-234.3059 1573.3664,-221.8052 1597.0479,-212.029"/>
<polygon fill="#191970" stroke="#191970" points="1486.7155,-246.24 1477.8206,-251.996 1488.3635,-253.0433 1486.7155,-246.24"/>
</g>
<!-- Node21&#45;&gt;Node20 -->
<g id="edge20" class="edge">
<title>Node21&#45;&gt;Node20</title>
<path fill="none" stroke="#191970" d="M734.291,-267C884.7509,-267 1154.2852,-267 1300.321,-267"/>
<polygon fill="#191970" stroke="#191970" points="734.1112,-263.5001 724.1112,-267 734.1111,-270.5001 734.1112,-263.5001"/>
</g>
<!-- Node22&#45;&gt;Node19 -->
<g id="edge24" class="edge">
<title>Node22&#45;&gt;Node19</title>
<path fill="none" stroke="#191970" d="M1480.3653,-164.1786C1507.0074,-169.9453 1536.5021,-176.3295 1562.3424,-181.9226"/>
<polygon fill="#191970" stroke="#191970" points="1480.8217,-160.6965 1470.3076,-162.0016 1479.3408,-167.538 1480.8217,-160.6965"/>
</g>
<!-- Node23&#45;&gt;Node22 -->
<g id="edge25" class="edge">
<title>Node23&#45;&gt;Node22</title>
<path fill="none" stroke="#191970" d="M1063.7894,-119.3529C1129.1212,-124.7093 1230.36,-133.0096 1304.871,-139.1186"/>
<polygon fill="#191970" stroke="#191970" points="1063.8745,-115.8482 1053.622,-118.5193 1063.3025,-122.8248 1063.8745,-115.8482"/>
</g>
<!-- Node24 -->
<g id="node20" class="node">
<title>Node24</title>
<g id="a_node20"><a xlink:href="classgko_1_1EnableCreateMethod.html" target="_top" xlink:title=" ">
<polygon fill="#ffffff" stroke="#000000" points="1897,-137.5 1897,-178.5 2044,-178.5 2044,-137.5 1897,-137.5"/>
<text text-anchor="start" x="1905" y="-166.5" font-family="Helvetica,sans-Serif" font-size="10.00" fill="#000000">gko::EnableCreateMethod</text>
<text text-anchor="start" x="1905" y="-155.5" font-family="Helvetica,sans-Serif" font-size="10.00" fill="#000000">&lt; SparsityCsr&lt; ValueType,</text>
<text text-anchor="middle" x="1970.5" y="-144.5" font-family="Helvetica,sans-Serif" font-size="10.00" fill="#000000"> IndexType &gt; &gt;</text>
</a>
</g>
</g>
<!-- Node24&#45;&gt;Node1 -->
<g id="edge28" class="edge">
<title>Node24&#45;&gt;Node1</title>
<path fill="none" stroke="#191970" d="M2052.9048,-134.6979C2072.8418,-129.0602 2093.6312,-123.1814 2111.8144,-118.0396"/>
<polygon fill="#191970" stroke="#191970" points="2051.8715,-131.3527 2043.2012,-137.4418 2053.7763,-138.0886 2051.8715,-131.3527"/>
</g>
<!-- Node25 -->
<g id="node21" class="node">
<title>Node25</title>
<g id="a_node21"><a xlink:href="classgko_1_1EnableCreateMethod.html" target="_top" xlink:title="This mixin implements a static create() method on ConcreteType that dynamically allocates the memory,...">
<polygon fill="#ffffff" stroke="#000000" points="1561,-133 1561,-163 1703,-163 1703,-133 1561,-133"/>
<text text-anchor="start" x="1569" y="-151" font-family="Helvetica,sans-Serif" font-size="10.00" fill="#000000">gko::EnableCreateMethod</text>
<text text-anchor="middle" x="1632" y="-140" font-family="Helvetica,sans-Serif" font-size="10.00" fill="#000000">&lt; ConcreteType &gt;</text>
</a>
</g>
</g>
<!-- Node25&#45;&gt;Node24 -->
<g id="edge29" class="edge">
<title>Node25&#45;&gt;Node24</title>
<path fill="none" stroke="#ffa500" stroke-dasharray="5,2" d="M1713.5858,-150.4102C1769.4204,-152.0597 1842.837,-154.2286 1896.8851,-155.8253"/>
<polygon fill="#ffa500" stroke="#ffa500" points="1713.4725,-146.9054 1703.3735,-150.1085 1713.2658,-153.9024 1713.4725,-146.9054"/>
<text text-anchor="start" x="1733" y="-168" font-family="Helvetica,sans-Serif" font-size="10.00" fill="#000000"> &lt; SparsityCsr&lt; ValueType,</text>
<text text-anchor="middle" x="1800" y="-157" font-family="Helvetica,sans-Serif" font-size="10.00" fill="#000000"> IndexType &gt; &gt;</text>
</g>
<!-- Node26 -->
<g id="node22" class="node">
<title>Node26</title>
<g id="a_node22"><a xlink:href="classgko_1_1ReadableFromMatrixData.html" target="_top" xlink:title="A LinOp implementing this interface can read its data from a matrix_data structure.">
<polygon fill="#ffffff" stroke="#000000" points="1888.5,-88 1888.5,-118 2052.5,-118 2052.5,-88 1888.5,-88"/>
<text text-anchor="start" x="1896.5" y="-106" font-family="Helvetica,sans-Serif" font-size="10.00" fill="#000000">gko::ReadableFromMatrixData</text>
<text text-anchor="middle" x="1970.5" y="-95" font-family="Helvetica,sans-Serif" font-size="10.00" fill="#000000">&lt; ValueType, IndexType &gt;</text>
</a>
</g>
</g>
<!-- Node26&#45;&gt;Node1 -->
<g id="edge30" class="edge">
<title>Node26&#45;&gt;Node1</title>
<path fill="none" stroke="#191970" d="M2062.7911,-103C2072.919,-103 2083.1187,-103 2092.9494,-103"/>
<polygon fill="#191970" stroke="#191970" points="2062.7036,-99.5001 2052.7036,-103 2062.7036,-106.5001 2062.7036,-99.5001"/>
</g>
<!-- Node27 -->
<g id="node23" class="node">
<title>Node27</title>
<g id="a_node23"><a xlink:href="classgko_1_1WritableToMatrixData.html" target="_top" xlink:title="A LinOp implementing this interface can write its data to a matrix_data structure.">
<polygon fill="#ffffff" stroke="#000000" points="1897.5,-39 1897.5,-69 2043.5,-69 2043.5,-39 1897.5,-39"/>
<text text-anchor="start" x="1905.5" y="-57" font-family="Helvetica,sans-Serif" font-size="10.00" fill="#000000">gko::WritableToMatrixData</text>
<text text-anchor="middle" x="1970.5" y="-46" font-family="Helvetica,sans-Serif" font-size="10.00" fill="#000000">&lt; ValueType, IndexType &gt;</text>
</a>
</g>
</g>
<!-- Node27&#45;&gt;Node1 -->
<g id="edge31" class="edge">
<title>Node27&#45;&gt;Node1</title>
<path fill="none" stroke="#191970" d="M2040.162,-71.5498C2061.5205,-76.9306 2084.8145,-82.799 2105.4346,-87.9938"/>
<polygon fill="#191970" stroke="#191970" points="2040.7303,-68.0837 2030.1782,-69.0346 2039.0202,-74.8716 2040.7303,-68.0837"/>
</g>
<!-- Node28 -->
<g id="node24" class="node">
<title>Node28</title>
<g id="a_node24"><a xlink:href="classgko_1_1Transposable.html" target="_top" xlink:title="Linear operators which support transposition should implement the Transposable interface.">
<polygon fill="#ffffff" stroke="#000000" points="1918.5,-.5 1918.5,-19.5 2022.5,-19.5 2022.5,-.5 1918.5,-.5"/>
<text text-anchor="middle" x="1970.5" y="-7.5" font-family="Helvetica,sans-Serif" font-size="10.00" fill="#000000">gko::Transposable</text>
</a>
</g>
</g>
<!-- Node28&#45;&gt;Node1 -->
<g id="edge32" class="edge">
<title>Node28&#45;&gt;Node1</title>
<path fill="none" stroke="#191970" d="M2032.4201,-20.8276C2040.5042,-23.0872 2048.5563,-25.7864 2056,-29 2091.0687,-44.1397 2126.7689,-71.0177 2147.3531,-87.8765"/>
<polygon fill="#191970" stroke="#191970" points="2033.14,-17.3987 2022.5822,-18.2843 2031.3879,-24.1759 2033.14,-17.3987"/>
</g>
</g>
</svg>
        <g id="navigator" transform="translate(0 0)" fill="#404254">
                <rect fill="#f2f5e9" fill-opacity="0.5" stroke="#606060" stroke-width=".5" x="0" y="0" width="60" height="60"/>
                <use id="zoomplus" xlink:href="#zoomPlus" x="17" y="9" onmousedown="handleZoom(evt,'in')"/>
                <use id="zoomminus" xlink:href="#zoomMin" x="42" y="9" onmousedown="handleZoom(evt,'out')"/>
                <use id="reset" xlink:href="#resetDef" x="30" y="36" onmousedown="handleReset()"/>
                <g id="arrowUp" xlink:href="#dirArrow" transform="translate(30 24)" onmousedown="handlePan(0,-1)">
                  <use xlink:href="#rim" fill="#404040">
                        <set attributeName="fill" to="#808080" begin="arrowUp.mouseover" end="arrowUp.mouseout"/>
                  </use>
                  <path fill="none" stroke="white" stroke-width="1.5" d="M0,-3.0v7 M-2.5,-0.5L0,-3.0L2.5,-0.5"/>
                </g>
                <g id="arrowRight" xlink:href="#dirArrow" transform="rotate(90) translate(36 -43)" onmousedown="handlePan(1,0)">
                  <use xlink:href="#rim" fill="#404040">
                        <set attributeName="fill" to="#808080" begin="arrowRight.mouseover" end="arrowRight.mouseout"/>
                  </use>
                  <path fill="none" stroke="white" stroke-width="1.5" d="M0,-3.0v7 M-2.5,-0.5L0,-3.0L2.5,-0.5"/>
                </g>
                <g id="arrowDown" xlink:href="#dirArrow" transform="rotate(180) translate(-30 -48)" onmousedown="handlePan(0,1)">
                  <use xlink:href="#rim" fill="#404040">
                        <set attributeName="fill" to="#808080" begin="arrowDown.mouseover" end="arrowDown.mouseout"/>
                  </use>
                  <path fill="none" stroke="white" stroke-width="1.5" d="M0,-3.0v7 M-2.5,-0.5L0,-3.0L2.5,-0.5"/>
                </g>
                <g id="arrowLeft" xlink:href="#dirArrow" transform="rotate(270) translate(-36 17)" onmousedown="handlePan(-1,0)">
                  <use xlink:href="#rim" fill="#404040">
                        <set attributeName="fill" to="#808080" begin="arrowLeft.mouseover" end="arrowLeft.mouseout"/>
                  </use>
                  <path fill="none" stroke="white" stroke-width="1.5" d="M0,-3.0v7 M-2.5,-0.5L0,-3.0L2.5,-0.5"/>
                </g>
        </g>
        <svg viewBox="0 0 15 15" width="100%" height="30px" preserveAspectRatio="xMaxYMin meet">
         <g id="arrow_out" transform="scale(0.3 0.3)">
          <a xlink:href="classgko_1_1matrix_1_1SparsityCsr__coll__graph_org.svg" target="_base">
           <rect id="button" ry="5" rx="5" y="6" x="6" height="38" width="38"
                fill="#f2f5e9" fill-opacity="0.5" stroke="#606060" stroke-width="1.0"/>
           <path id="arrow"
             d="M 11.500037,31.436501 C 11.940474,20.09759 22.043105,11.32322 32.158766,21.979434 L 37.068811,17.246167 C 37.068811,17.246167 37.088388,32 37.088388,32 L 22.160133,31.978069 C 22.160133,31.978069 26.997745,27.140456 26.997745,27.140456 C 18.528582,18.264221 13.291696,25.230495 11.500037,31.436501 z"
             style="fill:#404040;"/>
          </a>
         </g>
        </svg>
</svg>
