<?xml version="1.0" encoding="UTF-8" standalone="no"?>
<!DOCTYPE svg PUBLIC "-//W3C//DTD SVG 1.1//EN"
 "http://www.w3.org/Graphics/SVG/1.1/DTD/svg11.dtd">
<!-- Generated by graphviz version 2.40.1 (20161225.0304)
 -->
<!-- Title: gko::CudaExecutor Pages: 1 -->
<svg width="1031pt" height="88pt"
 viewBox="0.00 0.00 1031.00 88.00" xmlns="http://www.w3.org/2000/svg" xmlns:xlink="http://www.w3.org/1999/xlink">
<g id="graph0" class="graph" transform="scale(1 1) rotate(0) translate(4 84)">
<title>gko::CudaExecutor</title>
<polygon fill="#ffffff" stroke="transparent" points="-4,4 -4,-84 1027,-84 1027,4 -4,4"/>
<!-- Node1 -->
<g id="node1" class="node">
<title>Node1</title>
<g id="a_node1"><a xlink:title="This is the Executor subclass which represents the CUDA device.">
<polygon fill="#bfbfbf" stroke="#000000" points="915,-18 915,-37 1023,-37 1023,-18 915,-18"/>
<text text-anchor="middle" x="969" y="-25" font-family="Helvetica,sans-Serif" font-size="10.00" fill="#000000">gko::CudaExecutor</text>
</a>
</g>
</g>
<!-- Node2 -->
<g id="node2" class="node">
<title>Node2</title>
<g id="a_node2"><a xlink:title=" ">
<polygon fill="#ffffff" stroke="#bfbfbf" points="728.5,-49.5 728.5,-79.5 869.5,-79.5 869.5,-49.5 728.5,-49.5"/>
<text text-anchor="start" x="736.5" y="-67.5" font-family="Helvetica,sans-Serif" font-size="10.00" fill="#000000">gko::detail::ExecutorBase</text>
<text text-anchor="middle" x="799" y="-56.5" font-family="Helvetica,sans-Serif" font-size="10.00" fill="#000000">&lt; CudaExecutor &gt;</text>
</a>
</g>
</g>
<!-- Node2&#45;&gt;Node1 -->
<g id="edge1" class="edge">
<title>Node2&#45;&gt;Node1</title>
<path fill="none" stroke="#191970" d="M878.1783,-47.2671C894.3844,-43.7399 910.8741,-40.1509 925.276,-37.0164"/>
<polygon fill="#191970" stroke="#191970" points="877.1724,-43.904 868.1455,-49.4507 878.6611,-50.7439 877.1724,-43.904"/>
</g>
<!-- Node3 -->
<g id="node3" class="node">
<title>Node3</title>
<g id="a_node3"><a xlink:href="classgko_1_1Executor.html" target="_top" xlink:title="The first step in using the Ginkgo library consists of creating an executor.">
<polygon fill="#ffffff" stroke="#000000" points="600,-55 600,-74 683,-74 683,-55 600,-55"/>
<text text-anchor="middle" x="641.5" y="-62" font-family="Helvetica,sans-Serif" font-size="10.00" fill="#000000">gko::Executor</text>
</a>
</g>
</g>
<!-- Node3&#45;&gt;Node2 -->
<g id="edge2" class="edge">
<title>Node3&#45;&gt;Node2</title>
<path fill="none" stroke="#191970" d="M693.3278,-64.5C704.5409,-64.5 716.5818,-64.5 728.377,-64.5"/>
<polygon fill="#191970" stroke="#191970" points="693.2936,-61.0001 683.2936,-64.5 693.2936,-68.0001 693.2936,-61.0001"/>
</g>
<!-- Node4 -->
<g id="node4" class="node">
<title>Node4</title>
<g id="a_node4"><a xlink:href="classgko_1_1log_1_1EnableLogging.html" target="_top" xlink:title=" ">
<polygon fill="#ffffff" stroke="#000000" points="430,-49.5 430,-79.5 563,-79.5 563,-49.5 430,-49.5"/>
<text text-anchor="start" x="438" y="-67.5" font-family="Helvetica,sans-Serif" font-size="10.00" fill="#000000">gko::log::EnableLogging</text>
<text text-anchor="middle" x="496.5" y="-56.5" font-family="Helvetica,sans-Serif" font-size="10.00" fill="#000000">&lt; Executor &gt;</text>
</a>
</g>
</g>
<!-- Node4&#45;&gt;Node3 -->
<g id="edge3" class="edge">
<title>Node4&#45;&gt;Node3</title>
<path fill="none" stroke="#191970" d="M573.3413,-64.5C582.4415,-64.5 591.4501,-64.5 599.791,-64.5"/>
<polygon fill="#191970" stroke="#191970" points="573.0587,-61.0001 563.0587,-64.5 573.0586,-68.0001 573.0587,-61.0001"/>
</g>
<!-- Node5 -->
<g id="node5" class="node">
<title>Node5</title>
<g id="a_node5"><a xlink:href="classgko_1_1log_1_1Loggable.html" target="_top" xlink:title="Loggable class is an interface which should be implemented by classes wanting to support logging.">
<polygon fill="#ffffff" stroke="#000000" points="0,-49 0,-68 106,-68 106,-49 0,-49"/>
<text text-anchor="middle" x="53" y="-56" font-family="Helvetica,sans-Serif" font-size="10.00" fill="#000000">gko::log::Loggable</text>
</a>
</g>
</g>
<!-- Node5&#45;&gt;Node4 -->
<g id="edge4" class="edge">
<title>Node5&#45;&gt;Node4</title>
<path fill="none" stroke="#191970" d="M116.2992,-63.1642C125.259,-63.6949 134.3594,-64.1647 143,-64.5 262.4863,-69.1371 292.476,-73.0331 412,-69.5 417.7289,-69.3307 423.6733,-69.0969 429.6348,-68.8222"/>
<polygon fill="#191970" stroke="#191970" points="116.4724,-59.6683 106.275,-62.543 116.0394,-66.6549 116.4724,-59.6683"/>
</g>
<!-- Node6 -->
<g id="node6" class="node">
<title>Node6</title>
<g id="a_node6"><a xlink:href="classgko_1_1log_1_1EnableLogging.html" target="_top" xlink:title="EnableLogging is a mixin which should be inherited by any class which wants to enable logging.">
<polygon fill="#ffffff" stroke="#000000" points="143,-14 143,-55 325,-55 325,-14 143,-14"/>
<text text-anchor="start" x="151" y="-43" font-family="Helvetica,sans-Serif" font-size="10.00" fill="#000000">gko::log::EnableLogging</text>
<text text-anchor="start" x="151" y="-32" font-family="Helvetica,sans-Serif" font-size="10.00" fill="#000000">&lt; ConcreteLoggable, Polymorphic</text>
<text text-anchor="middle" x="234" y="-21" font-family="Helvetica,sans-Serif" font-size="10.00" fill="#000000">Base &gt;</text>
</a>
</g>
</g>
<!-- Node5&#45;&gt;Node6 -->
<g id="edge6" class="edge">
<title>Node5&#45;&gt;Node6</title>
<path fill="none" stroke="#191970" d="M116.4931,-50.081C124.9883,-48.9546 133.833,-47.7818 142.688,-46.6077"/>
<polygon fill="#191970" stroke="#191970" points="115.7801,-46.6448 106.327,-51.429 116.7003,-53.5841 115.7801,-46.6448"/>
</g>
<!-- Node6&#45;&gt;Node4 -->
<g id="edge5" class="edge">
<title>Node6&#45;&gt;Node4</title>
<path fill="none" stroke="#ffa500" stroke-dasharray="5,2" d="M335.2441,-46.0708C366.8673,-49.6848 400.946,-53.5795 429.5916,-56.8533"/>
<polygon fill="#ffa500" stroke="#ffa500" points="335.4058,-42.5665 325.0731,-44.9084 334.6109,-49.5213 335.4058,-42.5665"/>
<text text-anchor="middle" x="377.5" y="-58.5" font-family="Helvetica,sans-Serif" font-size="10.00" fill="#000000"> &lt; Executor &gt;</text>
</g>
<!-- Node7 -->
<g id="node7" class="node">
<title>Node7</title>
<g id="a_node7"><a xlink:title=" ">
<polygon fill="#ffffff" stroke="#bfbfbf" points="720,-.5 720,-30.5 878,-30.5 878,-.5 720,-.5"/>
<text text-anchor="start" x="728" y="-18.5" font-family="Helvetica,sans-Serif" font-size="10.00" fill="#000000">std::enable_shared</text>
<text text-anchor="middle" x="799" y="-7.5" font-family="Helvetica,sans-Serif" font-size="10.00" fill="#000000">_from_this&lt; CudaExecutor &gt;</text>
</a>
</g>
</g>
<!-- Node7&#45;&gt;Node1 -->
<g id="edge7" class="edge">
<title>Node7&#45;&gt;Node1</title>
<path fill="none" stroke="#191970" d="M888.2867,-21.8026C897.3682,-22.4436 906.3843,-23.0801 914.9189,-23.6825"/>
<polygon fill="#191970" stroke="#191970" points="888.2495,-18.2913 878.0278,-21.0784 887.7565,-25.274 888.2495,-18.2913"/>
</g>
</g>
</svg>
