<?xml version="1.0" encoding="UTF-8" standalone="no"?>
<!DOCTYPE svg PUBLIC "-//W3C//DTD SVG 1.1//EN"
 "http://www.w3.org/Graphics/SVG/1.1/DTD/svg11.dtd">
<!-- Generated by graphviz version 2.40.1 (20161225.0304)
 -->
<!-- Title: gko::preconditioner::Ilu&lt; LSolverType, USolverType, ReverseApply, IndexTypeParIlu &gt;::parameters_type Pages: 1 -->
<svg width="800pt" height="150pt"
 viewBox="0.00 0.00 800.00 149.50" xmlns="http://www.w3.org/2000/svg" xmlns:xlink="http://www.w3.org/1999/xlink">
<g id="graph0" class="graph" transform="scale(1 1) rotate(0) translate(4 145.5)">
<title>gko::preconditioner::Ilu&lt; LSolverType, USolverType, ReverseApply, IndexTypeParIlu &gt;::parameters_type</title>
<polygon fill="#ffffff" stroke="transparent" points="-4,4 -4,-145.5 796,-145.5 796,4 -4,4"/>
<!-- Node1 -->
<g id="node1" class="node">
<title>Node1</title>
<g id="a_node1"><a xlink:title=" ">
<polygon fill="#bfbfbf" stroke="#000000" points="595,-38.5 595,-90.5 792,-90.5 792,-38.5 595,-38.5"/>
<text text-anchor="start" x="603" y="-78.5" font-family="Helvetica,sans-Serif" font-size="10.00" fill="#000000">gko::preconditioner</text>
<text text-anchor="start" x="603" y="-67.5" font-family="Helvetica,sans-Serif" font-size="10.00" fill="#000000">::Ilu&lt; LSolverType,</text>
<text text-anchor="start" x="603" y="-56.5" font-family="Helvetica,sans-Serif" font-size="10.00" fill="#000000"> USolverType, ReverseApply,</text>
<text text-anchor="middle" x="693.5" y="-45.5" font-family="Helvetica,sans-Serif" font-size="10.00" fill="#000000"> IndexTypeParIlu &gt;::parameters_type</text>
</a>
</g>
</g>
<!-- Node2 -->
<g id="node2" class="node">
<title>Node2</title>
<g id="a_node2"><a xlink:href="structgko_1_1enable__parameters__type.html" target="_top" xlink:title=" ">
<polygon fill="#ffffff" stroke="#000000" points="328.5,-99 328.5,-140 469.5,-140 469.5,-99 328.5,-99"/>
<text text-anchor="start" x="336.5" y="-128" font-family="Helvetica,sans-Serif" font-size="10.00" fill="#000000">gko::enable_parameters</text>
<text text-anchor="start" x="336.5" y="-117" font-family="Helvetica,sans-Serif" font-size="10.00" fill="#000000">_type&lt; parameters_type,</text>
<text text-anchor="middle" x="399" y="-106" font-family="Helvetica,sans-Serif" font-size="10.00" fill="#000000"> Factory &gt;</text>
</a>
</g>
</g>
<!-- Node2&#45;&gt;Node1 -->
<g id="edge1" class="edge">
<title>Node2&#45;&gt;Node1</title>
<path fill="none" stroke="#191970" d="M479.4085,-104.4831C515.0535,-97.8262 557.3318,-89.9304 594.8639,-82.921"/>
<polygon fill="#191970" stroke="#191970" points="478.7276,-101.0497 469.5401,-106.3261 480.0127,-107.9307 478.7276,-101.0497"/>
</g>
<!-- Node3 -->
<g id="node3" class="node">
<title>Node3</title>
<g id="a_node3"><a xlink:href="structgko_1_1enable__parameters__type.html" target="_top" xlink:title="The enable_parameters_type mixin is used to create a base implementation of the factory parameters st...">
<polygon fill="#ffffff" stroke="#000000" points="0,-99 0,-140 179,-140 179,-99 0,-99"/>
<text text-anchor="start" x="8" y="-128" font-family="Helvetica,sans-Serif" font-size="10.00" fill="#000000">gko::enable_parameters</text>
<text text-anchor="start" x="8" y="-117" font-family="Helvetica,sans-Serif" font-size="10.00" fill="#000000">_type&lt; ConcreteParametersType,</text>
<text text-anchor="middle" x="89.5" y="-106" font-family="Helvetica,sans-Serif" font-size="10.00" fill="#000000"> Factory &gt;</text>
</a>
</g>
</g>
<!-- Node3&#45;&gt;Node2 -->
<g id="edge2" class="edge">
<title>Node3&#45;&gt;Node2</title>
<path fill="none" stroke="#ffa500" stroke-dasharray="5,2" d="M189.1781,-119.5C234.5326,-119.5 287.145,-119.5 328.34,-119.5"/>
<polygon fill="#ffa500" stroke="#ffa500" points="189.0203,-116.0001 179.0202,-119.5 189.0202,-123.0001 189.0203,-116.0001"/>
<text text-anchor="start" x="201" y="-133.5" font-family="Helvetica,sans-Serif" font-size="10.00" fill="#000000"> &lt; parameters_type,</text>
<text text-anchor="middle" x="251.5" y="-122.5" font-family="Helvetica,sans-Serif" font-size="10.00" fill="#000000"> Factory &gt;</text>
</g>
<!-- Node4 -->
<g id="node4" class="node">
<title>Node4</title>
<g id="a_node4"><a xlink:title=" ">
<polygon fill="#ffffff" stroke="#bfbfbf" points="324,-49.5 324,-79.5 474,-79.5 474,-49.5 324,-49.5"/>
<text text-anchor="start" x="332" y="-67.5" font-family="Helvetica,sans-Serif" font-size="10.00" fill="#000000">std::shared_ptr&lt; typename</text>
<text text-anchor="middle" x="399" y="-56.5" font-family="Helvetica,sans-Serif" font-size="10.00" fill="#000000"> u_solver_type::Factory &gt;</text>
</a>
</g>
</g>
<!-- Node4&#45;&gt;Node1 -->
<g id="edge3" class="edge">
<title>Node4&#45;&gt;Node1</title>
<path fill="none" stroke="#9a32cd" stroke-dasharray="5,2" d="M484.1583,-64.5C518.7879,-64.5 559.0264,-64.5 594.9183,-64.5"/>
<polygon fill="#9a32cd" stroke="#9a32cd" points="484.0768,-61.0001 474.0768,-64.5 484.0767,-68.0001 484.0768,-61.0001"/>
<text text-anchor="middle" x="534.5" y="-67.5" font-family="Helvetica,sans-Serif" font-size="10.00" fill="#000000"> u_solver_factory</text>
</g>
<!-- Node5 -->
<g id="node5" class="node">
<title>Node5</title>
<g id="a_node5"><a xlink:title="STL class.">
<polygon fill="#ffffff" stroke="#bfbfbf" points="30.5,-30 30.5,-49 148.5,-49 148.5,-30 30.5,-30"/>
<text text-anchor="middle" x="89.5" y="-37" font-family="Helvetica,sans-Serif" font-size="10.00" fill="#000000">std::shared_ptr&lt; T &gt;</text>
</a>
</g>
</g>
<!-- Node5&#45;&gt;Node4 -->
<g id="edge4" class="edge">
<title>Node5&#45;&gt;Node4</title>
<path fill="none" stroke="#ffa500" stroke-dasharray="5,2" d="M158.9962,-45.1136C207.97,-49.0695 273.5036,-54.363 323.7171,-58.419"/>
<polygon fill="#ffa500" stroke="#ffa500" points="159.0579,-41.6073 148.8085,-44.2907 158.4942,-48.5845 159.0579,-41.6073"/>
<text text-anchor="start" x="197" y="-70.5" font-family="Helvetica,sans-Serif" font-size="10.00" fill="#000000"> &lt; typename u_solver</text>
<text text-anchor="middle" x="251.5" y="-59.5" font-family="Helvetica,sans-Serif" font-size="10.00" fill="#000000">_type::Factory &gt;</text>
</g>
<!-- Node6 -->
<g id="node6" class="node">
<title>Node6</title>
<g id="a_node6"><a xlink:title=" ">
<polygon fill="#ffffff" stroke="#bfbfbf" points="324,-.5 324,-30.5 474,-30.5 474,-.5 324,-.5"/>
<text text-anchor="start" x="332" y="-18.5" font-family="Helvetica,sans-Serif" font-size="10.00" fill="#000000">std::shared_ptr&lt; typename</text>
<text text-anchor="middle" x="399" y="-7.5" font-family="Helvetica,sans-Serif" font-size="10.00" fill="#000000"> l_solver_type::Factory &gt;</text>
</a>
</g>
</g>
<!-- Node5&#45;&gt;Node6 -->
<g id="edge6" class="edge">
<title>Node5&#45;&gt;Node6</title>
<path fill="none" stroke="#ffa500" stroke-dasharray="5,2" d="M139.3404,-27.8465C157.3976,-24.1339 178.0182,-20.479 197,-18.5 238.8611,-14.1356 285.8622,-13.2036 323.9865,-13.4452"/>
<polygon fill="#ffa500" stroke="#ffa500" points="138.3785,-24.4724 129.3189,-29.9655 139.8266,-31.321 138.3785,-24.4724"/>
<text text-anchor="start" x="198.5" y="-32.5" font-family="Helvetica,sans-Serif" font-size="10.00" fill="#000000"> &lt; typename l_solver</text>
<text text-anchor="middle" x="251.5" y="-21.5" font-family="Helvetica,sans-Serif" font-size="10.00" fill="#000000">_type::Factory &gt;</text>
</g>
<!-- Node6&#45;&gt;Node1 -->
<g id="edge5" class="edge">
<title>Node6&#45;&gt;Node1</title>
<path fill="none" stroke="#9a32cd" stroke-dasharray="5,2" d="M484.1583,-29.669C518.7879,-35.4307 559.0264,-42.1258 594.9183,-48.0976"/>
<polygon fill="#9a32cd" stroke="#9a32cd" points="484.5156,-26.1804 474.0768,-27.9916 483.3667,-33.0854 484.5156,-26.1804"/>
<text text-anchor="middle" x="534.5" y="-47.5" font-family="Helvetica,sans-Serif" font-size="10.00" fill="#000000"> l_solver_factory</text>
</g>
</g>
</svg>
