<?xml version="1.0" encoding="UTF-8" standalone="no"?>
<!DOCTYPE svg PUBLIC "-//W3C//DTD SVG 1.1//EN"
 "http://www.w3.org/Graphics/SVG/1.1/DTD/svg11.dtd">
<!-- Generated by graphviz version 2.40.1 (20161225.0304)
 -->
<!-- Title: gko::matrix::Csr&lt; ValueType, IndexType &gt; Pages: 1 -->
<!--zoomable 861 -->
<svg id="main" version="1.1" xmlns="http://www.w3.org/2000/svg" xmlns:xlink="http://www.w3.org/1999/xlink" xml:space="preserve" onload="init(evt)">
<style type="text/css"><![CDATA[
.edge:hover path { stroke: red; }
.edge:hover polygon { stroke: red; fill: red; }
]]></style>
<script type="text/javascript"><![CDATA[
var edges = document.getElementsByTagName('g');
if (edges && edges.length) {
  for (var i=0;i<edges.length;i++) {
    if (edges[i].id.substr(0,4)=='edge') {
      edges[i].setAttribute('class','edge');
    }
  }
}
]]></script>
        <defs>
                <circle id="rim" cx="0" cy="0" r="7"/>
                <circle id="rim2" cx="0" cy="0" r="3.5"/>
                <g id="zoomPlus">
                        <use xlink:href="#rim" fill="#404040">
                                <set attributeName="fill" to="#808080" begin="zoomplus.mouseover" end="zoomplus.mouseout"/>
                        </use>
                        <path d="M-4,0h8M0,-4v8" fill="none" stroke="white" stroke-width="1.5" pointer-events="none"/>
                </g>
                <g id="zoomMin">
                        <use xlink:href="#rim" fill="#404040">
                                <set attributeName="fill" to="#808080" begin="zoomminus.mouseover" end="zoomminus.mouseout"/>
                        </use>
                        <path d="M-4,0h8" fill="none" stroke="white" stroke-width="1.5" pointer-events="none"/>
                </g>
                <g id="dirArrow">
                        <path fill="none" stroke="white" stroke-width="1.5" d="M0,-3.0v7 M-2.5,-0.5L0,-3.0L2.5,-0.5"/>
                </g>
               <g id="resetDef">
                       <use xlink:href="#rim2" fill="#404040">
                               <set attributeName="fill" to="#808080" begin="reset.mouseover" end="reset.mouseout"/>
                       </use>
               </g>
        </defs>

<script type="text/javascript">
var viewWidth = 2506;
var viewHeight = 861;
var sectionId = 'dynsection-0';
</script>
<script xlink:href="svgpan.js"/>
<svg id="graph" class="graph">
<g id="viewport">
<title>gko::matrix::Csr&lt; ValueType, IndexType &gt;</title>
<polygon fill="#ffffff" stroke="transparent" points="-4,4 -4,-856.5 2502,-856.5 2502,4 -4,4"/>
<!-- Node1 -->
<g id="node1" class="node">
<title>Node1</title>
<g id="a_node1"><a xlink:title="CSR is a matrix format which stores only the nonzero coefficients by compressing each row of the matr...">
<polygon fill="#bfbfbf" stroke="#000000" points="2340,-276 2340,-306 2498,-306 2498,-276 2340,-276"/>
<text text-anchor="start" x="2348" y="-294" font-family="Helvetica,sans-Serif" font-size="10.00" fill="#000000">gko::matrix::Csr&lt; ValueType,</text>
<text text-anchor="middle" x="2419" y="-283" font-family="Helvetica,sans-Serif" font-size="10.00" fill="#000000"> IndexType &gt;</text>
</a>
</g>
</g>
<!-- Node2 -->
<g id="node2" class="node">
<title>Node2</title>
<g id="a_node2"><a xlink:href="classgko_1_1EnableLinOp.html" target="_top" xlink:title=" ">
<polygon fill="#ffffff" stroke="#000000" points="2134.5,-564 2134.5,-594 2289.5,-594 2289.5,-564 2134.5,-564"/>
<text text-anchor="start" x="2142.5" y="-582" font-family="Helvetica,sans-Serif" font-size="10.00" fill="#000000">gko::EnableLinOp&lt; Csr</text>
<text text-anchor="middle" x="2212" y="-571" font-family="Helvetica,sans-Serif" font-size="10.00" fill="#000000">&lt; ValueType, IndexType &gt; &gt;</text>
</a>
</g>
</g>
<!-- Node2&#45;&gt;Node1 -->
<g id="edge1" class="edge">
<title>Node2&#45;&gt;Node1</title>
<path fill="none" stroke="#191970" d="M2271.1806,-559.951C2289.3154,-551.8051 2308.1209,-540.7015 2322,-526 2384.7196,-459.5639 2409.4308,-346.9188 2416.5927,-306.2309"/>
<polygon fill="#191970" stroke="#191970" points="2269.6212,-556.8107 2261.788,-563.9446 2272.3603,-563.2526 2269.6212,-556.8107"/>
</g>
<!-- Node3 -->
<g id="node3" class="node">
<title>Node3</title>
<g id="a_node3"><a xlink:href="classgko_1_1EnablePolymorphicObject.html" target="_top" xlink:title=" ">
<polygon fill="#ffffff" stroke="#000000" points="1734,-710.5 1734,-751.5 1900,-751.5 1900,-710.5 1734,-710.5"/>
<text text-anchor="start" x="1742" y="-739.5" font-family="Helvetica,sans-Serif" font-size="10.00" fill="#000000">gko::EnablePolymorphicObject</text>
<text text-anchor="start" x="1742" y="-728.5" font-family="Helvetica,sans-Serif" font-size="10.00" fill="#000000">&lt; Csr&lt; ValueType, IndexType</text>
<text text-anchor="middle" x="1817" y="-717.5" font-family="Helvetica,sans-Serif" font-size="10.00" fill="#000000"> &gt;, LinOp &gt;</text>
</a>
</g>
</g>
<!-- Node3&#45;&gt;Node2 -->
<g id="edge2" class="edge">
<title>Node3&#45;&gt;Node2</title>
<path fill="none" stroke="#191970" d="M1880.1846,-706.6859C1962.5975,-674.9726 2104.3074,-620.4412 2172.7457,-594.1054"/>
<polygon fill="#191970" stroke="#191970" points="1878.7584,-703.4845 1870.6825,-710.3424 1881.2724,-710.0175 1878.7584,-703.4845"/>
</g>
<!-- Node4 -->
<g id="node4" class="node">
<title>Node4</title>
<g id="a_node4"><a xlink:href="classgko_1_1EnableAbstractPolymorphicObject.html" target="_top" xlink:title=" ">
<polygon fill="#ffffff" stroke="#000000" points="1360,-710.5 1360,-751.5 1551,-751.5 1551,-710.5 1360,-710.5"/>
<text text-anchor="start" x="1368" y="-739.5" font-family="Helvetica,sans-Serif" font-size="10.00" fill="#000000">gko::EnableAbstractPolymorphic</text>
<text text-anchor="start" x="1368" y="-728.5" font-family="Helvetica,sans-Serif" font-size="10.00" fill="#000000">Object&lt; Csr&lt; ValueType, IndexType</text>
<text text-anchor="middle" x="1455.5" y="-717.5" font-family="Helvetica,sans-Serif" font-size="10.00" fill="#000000"> &gt;, LinOp &gt;</text>
</a>
</g>
</g>
<!-- Node4&#45;&gt;Node3 -->
<g id="edge3" class="edge">
<title>Node4&#45;&gt;Node3</title>
<path fill="none" stroke="#191970" d="M1561.5515,-731C1616.5069,-731 1682.6419,-731 1733.8493,-731"/>
<polygon fill="#191970" stroke="#191970" points="1561.4263,-727.5001 1551.4263,-731 1561.4262,-734.5001 1561.4263,-727.5001"/>
</g>
<!-- Node5 -->
<g id="node5" class="node">
<title>Node5</title>
<g id="a_node5"><a xlink:href="classgko_1_1LinOp.html" target="_top" xlink:title=" ">
<polygon fill="#ffffff" stroke="#000000" points="1003.5,-819.5 1003.5,-838.5 1071.5,-838.5 1071.5,-819.5 1003.5,-819.5"/>
<text text-anchor="middle" x="1037.5" y="-826.5" font-family="Helvetica,sans-Serif" font-size="10.00" fill="#000000">gko::LinOp</text>
</a>
</g>
</g>
<!-- Node5&#45;&gt;Node4 -->
<g id="edge4" class="edge">
<title>Node5&#45;&gt;Node4</title>
<path fill="none" stroke="#191970" d="M1081.699,-819.7655C1099.7934,-815.9194 1120.923,-811.3443 1140,-807 1219.1059,-788.9857 1309.0439,-767.1906 1372.5982,-751.568"/>
<polygon fill="#191970" stroke="#191970" points="1080.7719,-816.3841 1071.7138,-821.8796 1082.2219,-823.2323 1080.7719,-816.3841"/>
</g>
<!-- Node6 -->
<g id="node6" class="node">
<title>Node6</title>
<g id="a_node6"><a xlink:href="classgko_1_1EnableAbstractPolymorphicObject.html" target="_top" xlink:title=" ">
<polygon fill="#ffffff" stroke="#ff0000" points="542,-822 542,-852 717,-852 717,-822 542,-822"/>
<text text-anchor="start" x="550" y="-840" font-family="Helvetica,sans-Serif" font-size="10.00" fill="#000000">gko::EnableAbstractPolymorphic</text>
<text text-anchor="middle" x="629.5" y="-829" font-family="Helvetica,sans-Serif" font-size="10.00" fill="#000000">Object&lt; LinOp &gt;</text>
</a>
</g>
</g>
<!-- Node6&#45;&gt;Node5 -->
<g id="edge5" class="edge">
<title>Node6&#45;&gt;Node5</title>
<path fill="none" stroke="#191970" d="M727.1636,-835.085C816.3446,-833.3364 943.1591,-830.8498 1003.3094,-829.6704"/>
<polygon fill="#191970" stroke="#191970" points="726.9557,-831.5883 717.0262,-835.2838 727.093,-838.587 726.9557,-831.5883"/>
</g>
<!-- Node11 -->
<g id="node7" class="node">
<title>Node11</title>
<g id="a_node7"><a xlink:href="classgko_1_1EnableAbstractPolymorphicObject.html" target="_top" xlink:title="This mixin inherits from (a subclass of) PolymorphicObject and provides a base implementation of a ne...">
<polygon fill="#ffffff" stroke="#000000" points="138,-722.5 138,-763.5 336,-763.5 336,-722.5 138,-722.5"/>
<text text-anchor="start" x="146" y="-751.5" font-family="Helvetica,sans-Serif" font-size="10.00" fill="#000000">gko::EnableAbstractPolymorphic</text>
<text text-anchor="start" x="146" y="-740.5" font-family="Helvetica,sans-Serif" font-size="10.00" fill="#000000">Object&lt; AbstractObject, Polymorphic</text>
<text text-anchor="middle" x="237" y="-729.5" font-family="Helvetica,sans-Serif" font-size="10.00" fill="#000000">Base &gt;</text>
</a>
</g>
</g>
<!-- Node11&#45;&gt;Node4 -->
<g id="edge8" class="edge">
<title>Node11&#45;&gt;Node4</title>
<path fill="none" stroke="#ffa500" stroke-dasharray="5,2" d="M346.5194,-741.9214C582.7115,-739.5954 1136.6305,-734.1403 1359.8102,-731.9424"/>
<polygon fill="#ffa500" stroke="#ffa500" points="346.1633,-738.4247 336.1983,-742.0231 346.2323,-745.4243 346.1633,-738.4247"/>
<text text-anchor="start" x="759" y="-751" font-family="Helvetica,sans-Serif" font-size="10.00" fill="#000000"> &lt; Csr&lt; ValueType, IndexType</text>
<text text-anchor="middle" x="832.5" y="-740" font-family="Helvetica,sans-Serif" font-size="10.00" fill="#000000"> &gt;, LinOp &gt;</text>
</g>
<!-- Node11&#45;&gt;Node6 -->
<g id="edge6" class="edge">
<title>Node11&#45;&gt;Node6</title>
<path fill="none" stroke="#ffa500" stroke-dasharray="5,2" d="M287.6547,-767.8668C307.8851,-776.9393 331.6484,-786.5457 354,-793 415.5422,-810.7711 487.0235,-821.9236 541.7505,-828.5532"/>
<polygon fill="#ffa500" stroke="#ffa500" points="288.8791,-764.5784 278.3285,-763.6111 285.9732,-770.9467 288.8791,-764.5784"/>
<text text-anchor="middle" x="432.5" y="-827" font-family="Helvetica,sans-Serif" font-size="10.00" fill="#000000"> &lt; LinOp &gt;</text>
</g>
<!-- Node14 -->
<g id="node10" class="node">
<title>Node14</title>
<g id="a_node10"><a xlink:href="classgko_1_1EnableAbstractPolymorphicObject.html" target="_top" xlink:title=" ">
<polygon fill="#ffffff" stroke="#000000" points="529,-761.5 529,-802.5 730,-802.5 730,-761.5 529,-761.5"/>
<text text-anchor="start" x="537" y="-790.5" font-family="Helvetica,sans-Serif" font-size="10.00" fill="#000000">gko::EnableAbstractPolymorphic</text>
<text text-anchor="start" x="537" y="-779.5" font-family="Helvetica,sans-Serif" font-size="10.00" fill="#000000">Object&lt; ConcreteObject, Polymorphic</text>
<text text-anchor="middle" x="629.5" y="-768.5" font-family="Helvetica,sans-Serif" font-size="10.00" fill="#000000">Base &gt;</text>
</a>
</g>
</g>
<!-- Node11&#45;&gt;Node14 -->
<g id="edge12" class="edge">
<title>Node11&#45;&gt;Node14</title>
<path fill="none" stroke="#ffa500" stroke-dasharray="5,2" d="M346.2448,-751.5976C396.4726,-755.7999 456.8075,-761.1989 511,-767 516.7734,-767.618 522.7015,-768.2803 528.6813,-768.9697"/>
<polygon fill="#ffa500" stroke="#ffa500" points="346.2687,-748.0876 336.0129,-750.7463 345.6883,-755.0635 346.2687,-748.0876"/>
<text text-anchor="start" x="354" y="-781" font-family="Helvetica,sans-Serif" font-size="10.00" fill="#000000"> &lt; ConcreteObject, Polymorphic</text>
<text text-anchor="middle" x="432.5" y="-770" font-family="Helvetica,sans-Serif" font-size="10.00" fill="#000000">Base &gt;</text>
</g>
<!-- Node21 -->
<g id="node17" class="node">
<title>Node21</title>
<g id="a_node17"><a xlink:href="classgko_1_1EnableAbstractPolymorphicObject.html" target="_top" xlink:title=" ">
<polygon fill="#ffffff" stroke="#000000" points="531,-642.5 531,-683.5 728,-683.5 728,-642.5 531,-642.5"/>
<text text-anchor="start" x="539" y="-671.5" font-family="Helvetica,sans-Serif" font-size="10.00" fill="#000000">gko::EnableAbstractPolymorphic</text>
<text text-anchor="start" x="539" y="-660.5" font-family="Helvetica,sans-Serif" font-size="10.00" fill="#000000">Object&lt; ConcreteLinOp, Polymorphic</text>
<text text-anchor="middle" x="629.5" y="-649.5" font-family="Helvetica,sans-Serif" font-size="10.00" fill="#000000">Base &gt;</text>
</a>
</g>
</g>
<!-- Node11&#45;&gt;Node21 -->
<g id="edge22" class="edge">
<title>Node11&#45;&gt;Node21</title>
<path fill="none" stroke="#ffa500" stroke-dasharray="5,2" d="M290.754,-718.5863C310.3124,-710.5857 332.8207,-702.3785 354,-697 386.6386,-688.7114 465.7429,-679.3401 530.8553,-672.5382"/>
<polygon fill="#ffa500" stroke="#ffa500" points="289.2905,-715.4044 281.4083,-722.4841 291.985,-721.8651 289.2905,-715.4044"/>
<text text-anchor="start" x="356" y="-711" font-family="Helvetica,sans-Serif" font-size="10.00" fill="#000000"> &lt; ConcreteLinOp, Polymorphic</text>
<text text-anchor="middle" x="432.5" y="-700" font-family="Helvetica,sans-Serif" font-size="10.00" fill="#000000">Base &gt;</text>
</g>
<!-- Node12 -->
<g id="node8" class="node">
<title>Node12</title>
<g id="a_node8"><a xlink:title=" ">
<polygon fill="#ffffff" stroke="#bfbfbf" points="0,-733.5 0,-752.5 101,-752.5 101,-733.5 0,-733.5"/>
<text text-anchor="middle" x="50.5" y="-740.5" font-family="Helvetica,sans-Serif" font-size="10.00" fill="#000000">PolymorphicBase</text>
</a>
</g>
</g>
<!-- Node12&#45;&gt;Node11 -->
<g id="edge7" class="edge">
<title>Node12&#45;&gt;Node11</title>
<path fill="none" stroke="#191970" d="M111.5248,-743C119.9555,-743 128.7869,-743 137.6923,-743"/>
<polygon fill="#191970" stroke="#191970" points="111.462,-739.5001 101.4619,-743 111.4619,-746.5001 111.462,-739.5001"/>
</g>
<!-- Node12&#45;&gt;Node14 -->
<g id="edge11" class="edge">
<title>Node12&#45;&gt;Node14</title>
<path fill="none" stroke="#191970" d="M82.6692,-756.2448C98.9705,-762.3832 119.2394,-769.1557 138,-773 300.5525,-806.3096 345.142,-793.8945 511,-789 516.8709,-788.8267 522.9034,-788.6053 528.9886,-788.3486"/>
<polygon fill="#191970" stroke="#191970" points="83.6704,-752.8794 73.0811,-752.5365 81.1453,-759.4081 83.6704,-752.8794"/>
</g>
<!-- Node12&#45;&gt;Node21 -->
<g id="edge21" class="edge">
<title>Node12&#45;&gt;Node21</title>
<path fill="none" stroke="#191970" d="M84.2068,-729.9855C100.3026,-724.1484 119.9499,-717.5652 138,-713 271.251,-679.2984 430.2707,-668.1973 530.5838,-664.6078"/>
<polygon fill="#191970" stroke="#191970" points="82.8589,-726.7522 74.6899,-733.4988 85.2832,-733.319 82.8589,-726.7522"/>
</g>
<!-- Node13 -->
<g id="node9" class="node">
<title>Node13</title>
<g id="a_node9"><a xlink:href="classgko_1_1EnablePolymorphicObject.html" target="_top" xlink:title="This mixin inherits from (a subclass of) PolymorphicObject and provides a base implementation of a ne...">
<polygon fill="#ffffff" stroke="#000000" points="935,-767 935,-797 1140,-797 1140,-767 935,-767"/>
<text text-anchor="start" x="943" y="-785" font-family="Helvetica,sans-Serif" font-size="10.00" fill="#000000">gko::EnablePolymorphicObject</text>
<text text-anchor="middle" x="1037.5" y="-774" font-family="Helvetica,sans-Serif" font-size="10.00" fill="#000000">&lt; ConcreteObject, PolymorphicBase &gt;</text>
</a>
</g>
</g>
<!-- Node13&#45;&gt;Node3 -->
<g id="edge9" class="edge">
<title>Node13&#45;&gt;Node3</title>
<path fill="none" stroke="#ffa500" stroke-dasharray="5,2" d="M1150.7165,-779.3435C1255.8288,-776.4195 1416.6244,-770.7826 1556,-761 1627.2904,-755.9962 1645.0371,-753.4633 1716,-745 1721.8007,-744.3082 1727.7842,-743.5621 1733.8069,-742.7872"/>
<polygon fill="#ffa500" stroke="#ffa500" points="1150.3041,-775.8534 1140.4039,-779.6266 1150.4962,-782.8507 1150.3041,-775.8534"/>
<text text-anchor="start" x="1382" y="-785" font-family="Helvetica,sans-Serif" font-size="10.00" fill="#000000"> &lt; Csr&lt; ValueType, IndexType</text>
<text text-anchor="middle" x="1455.5" y="-774" font-family="Helvetica,sans-Serif" font-size="10.00" fill="#000000"> &gt;, LinOp &gt;</text>
</g>
<!-- Node20 -->
<g id="node16" class="node">
<title>Node20</title>
<g id="a_node16"><a xlink:href="classgko_1_1EnablePolymorphicObject.html" target="_top" xlink:title=" ">
<polygon fill="#ffffff" stroke="#000000" points="1355,-648 1355,-678 1556,-678 1556,-648 1355,-648"/>
<text text-anchor="start" x="1363" y="-666" font-family="Helvetica,sans-Serif" font-size="10.00" fill="#000000">gko::EnablePolymorphicObject</text>
<text text-anchor="middle" x="1455.5" y="-655" font-family="Helvetica,sans-Serif" font-size="10.00" fill="#000000">&lt; ConcreteLinOp, PolymorphicBase &gt;</text>
</a>
</g>
</g>
<!-- Node13&#45;&gt;Node20 -->
<g id="edge23" class="edge">
<title>Node13&#45;&gt;Node20</title>
<path fill="none" stroke="#ffa500" stroke-dasharray="5,2" d="M1080.9106,-762.9399C1103.5949,-753.4337 1131.9833,-742.2386 1158,-734 1232.0352,-710.5557 1318.5748,-690.726 1379.1686,-678.0325"/>
<polygon fill="#ffa500" stroke="#ffa500" points="1079.4063,-759.776 1071.5616,-766.8971 1082.1349,-766.2223 1079.4063,-759.776"/>
<text text-anchor="start" x="1171" y="-748" font-family="Helvetica,sans-Serif" font-size="10.00" fill="#000000"> &lt; ConcreteLinOp, Polymorphic</text>
<text text-anchor="middle" x="1247.5" y="-737" font-family="Helvetica,sans-Serif" font-size="10.00" fill="#000000">Base &gt;</text>
</g>
<!-- Node14&#45;&gt;Node13 -->
<g id="edge10" class="edge">
<title>Node14&#45;&gt;Node13</title>
<path fill="none" stroke="#191970" d="M740.4636,-782C801.0615,-782 875.5974,-782 934.8448,-782"/>
<polygon fill="#191970" stroke="#191970" points="740.0922,-778.5001 730.0922,-782 740.0921,-785.5001 740.0922,-778.5001"/>
</g>
<!-- Node15 -->
<g id="node11" class="node">
<title>Node15</title>
<g id="a_node11"><a xlink:href="classgko_1_1EnablePolymorphicAssignment.html" target="_top" xlink:title=" ">
<polygon fill="#ffffff" stroke="#000000" points="1359.5,-544 1359.5,-574 1551.5,-574 1551.5,-544 1359.5,-544"/>
<text text-anchor="start" x="1367.5" y="-562" font-family="Helvetica,sans-Serif" font-size="10.00" fill="#000000">gko::EnablePolymorphicAssignment</text>
<text text-anchor="middle" x="1455.5" y="-551" font-family="Helvetica,sans-Serif" font-size="10.00" fill="#000000">&lt; Csr&lt; ValueType, IndexType &gt; &gt;</text>
</a>
</g>
</g>
<!-- Node15&#45;&gt;Node2 -->
<g id="edge13" class="edge">
<title>Node15&#45;&gt;Node2</title>
<path fill="none" stroke="#191970" d="M1562.1274,-561.819C1716.4513,-565.8989 1998.4324,-573.3538 2134.4923,-576.9509"/>
<polygon fill="#191970" stroke="#191970" points="1561.7842,-558.3088 1551.6951,-561.5432 1561.5991,-565.3063 1561.7842,-558.3088"/>
</g>
<!-- Node16 -->
<g id="node12" class="node">
<title>Node16</title>
<g id="a_node12"><a xlink:href="classgko_1_1ConvertibleTo.html" target="_top" xlink:title=" ">
<polygon fill="#ffffff" stroke="#000000" points="946.5,-506 946.5,-536 1128.5,-536 1128.5,-506 946.5,-506"/>
<text text-anchor="start" x="954.5" y="-524" font-family="Helvetica,sans-Serif" font-size="10.00" fill="#000000">gko::ConvertibleTo</text>
<text text-anchor="middle" x="1037.5" y="-513" font-family="Helvetica,sans-Serif" font-size="10.00" fill="#000000">&lt; Csr&lt; ValueType, IndexType &gt; &gt;</text>
</a>
</g>
</g>
<!-- Node16&#45;&gt;Node15 -->
<g id="edge14" class="edge">
<title>Node16&#45;&gt;Node15</title>
<path fill="none" stroke="#191970" d="M1138.881,-530.2165C1205.9711,-536.3156 1293.4076,-544.2643 1359.3933,-550.263"/>
<polygon fill="#191970" stroke="#191970" points="1138.9912,-526.7121 1128.7154,-529.2923 1138.3574,-533.6834 1138.9912,-526.7121"/>
</g>
<!-- Node17 -->
<g id="node13" class="node">
<title>Node17</title>
<g id="a_node13"><a xlink:href="classgko_1_1ConvertibleTo.html" target="_top" xlink:title="ConvertibleTo interface is used to mark that the implementer can be converted to the object of Result...">
<polygon fill="#ffffff" stroke="#000000" points="576,-389 576,-419 683,-419 683,-389 576,-389"/>
<text text-anchor="start" x="584" y="-407" font-family="Helvetica,sans-Serif" font-size="10.00" fill="#000000">gko::ConvertibleTo</text>
<text text-anchor="middle" x="629.5" y="-396" font-family="Helvetica,sans-Serif" font-size="10.00" fill="#000000">&lt; ResultType &gt;</text>
</a>
</g>
</g>
<!-- Node17&#45;&gt;Node16 -->
<g id="edge15" class="edge">
<title>Node17&#45;&gt;Node16</title>
<path fill="none" stroke="#ffa500" stroke-dasharray="5,2" d="M651.5613,-426.2577C673.7997,-447.1631 710.1624,-477.3547 748,-492 811.2404,-516.4777 887.768,-523.2578 946.2549,-524.1704"/>
<polygon fill="#ffa500" stroke="#ffa500" points="653.9427,-423.6921 644.3051,-419.2912 649.0948,-428.7416 653.9427,-423.6921"/>
<text text-anchor="middle" x="832.5" y="-526" font-family="Helvetica,sans-Serif" font-size="10.00" fill="#000000"> &lt; Csr&lt; ValueType, IndexType &gt; &gt;</text>
</g>
<!-- Node18 -->
<g id="node14" class="node">
<title>Node18</title>
<g id="a_node14"><a xlink:href="classgko_1_1EnablePolymorphicAssignment.html" target="_top" xlink:title="This mixin is used to enable a default PolymorphicObject::copy_from() implementation for objects that...">
<polygon fill="#ffffff" stroke="#000000" points="941.5,-555 941.5,-585 1133.5,-585 1133.5,-555 941.5,-555"/>
<text text-anchor="start" x="949.5" y="-573" font-family="Helvetica,sans-Serif" font-size="10.00" fill="#000000">gko::EnablePolymorphicAssignment</text>
<text text-anchor="middle" x="1037.5" y="-562" font-family="Helvetica,sans-Serif" font-size="10.00" fill="#000000">&lt; ConcreteType, ResultType &gt;</text>
</a>
</g>
</g>
<!-- Node17&#45;&gt;Node18 -->
<g id="edge17" class="edge">
<title>Node17&#45;&gt;Node18</title>
<path fill="none" stroke="#191970" d="M643.1233,-428.2922C662.1346,-459.6065 699.7798,-512.9942 748,-538 807.2543,-568.7279 882.3717,-576.2754 941.2395,-576.3778"/>
<polygon fill="#191970" stroke="#191970" points="645.9321,-426.1658 637.8303,-419.3385 639.9062,-429.728 645.9321,-426.1658"/>
</g>
<!-- Node23 -->
<g id="node19" class="node">
<title>Node23</title>
<g id="a_node19"><a xlink:href="classgko_1_1ConvertibleTo.html" target="_top" xlink:title=" ">
<polygon fill="#ffffff" stroke="#000000" points="982.5,-604 982.5,-634 1092.5,-634 1092.5,-604 982.5,-604"/>
<text text-anchor="start" x="990.5" y="-622" font-family="Helvetica,sans-Serif" font-size="10.00" fill="#000000">gko::ConvertibleTo</text>
<text text-anchor="middle" x="1037.5" y="-611" font-family="Helvetica,sans-Serif" font-size="10.00" fill="#000000">&lt; ConcreteLinOp &gt;</text>
</a>
</g>
</g>
<!-- Node17&#45;&gt;Node23 -->
<g id="edge26" class="edge">
<title>Node17&#45;&gt;Node23</title>
<path fill="none" stroke="#ffa500" stroke-dasharray="5,2" d="M639.6891,-428.8036C656.3814,-466.06 693.2666,-535.7421 748,-570 819.9436,-615.0299 920.7651,-622.2131 982.468,-621.7319"/>
<polygon fill="#ffa500" stroke="#ffa500" points="642.7156,-426.9866 635.5184,-419.2116 636.2962,-429.7779 642.7156,-426.9866"/>
<text text-anchor="middle" x="832.5" y="-621" font-family="Helvetica,sans-Serif" font-size="10.00" fill="#000000"> &lt; ConcreteLinOp &gt;</text>
</g>
<!-- Node26 -->
<g id="node22" class="node">
<title>Node26</title>
<g id="a_node22"><a xlink:href="classgko_1_1ConvertibleTo.html" target="_top" xlink:title=" ">
<polygon fill="#ffffff" stroke="#000000" points="1164,-274.5 1164,-315.5 1331,-315.5 1331,-274.5 1164,-274.5"/>
<text text-anchor="start" x="1172" y="-303.5" font-family="Helvetica,sans-Serif" font-size="10.00" fill="#000000">gko::ConvertibleTo</text>
<text text-anchor="start" x="1172" y="-292.5" font-family="Helvetica,sans-Serif" font-size="10.00" fill="#000000">&lt; Csr&lt; next_precision</text>
<text text-anchor="middle" x="1247.5" y="-281.5" font-family="Helvetica,sans-Serif" font-size="10.00" fill="#000000">&lt; ValueType &gt;, IndexType &gt; &gt;</text>
</a>
</g>
</g>
<!-- Node17&#45;&gt;Node26 -->
<g id="edge31" class="edge">
<title>Node17&#45;&gt;Node26</title>
<path fill="none" stroke="#ffa500" stroke-dasharray="5,2" d="M646.4825,-380.723C667.1053,-354.6389 704.5688,-313.8066 748,-297 821.3943,-268.5986 1041.7958,-279.4642 1163.8607,-288.1936"/>
<polygon fill="#ffa500" stroke="#ffa500" points="643.4775,-378.8887 640.15,-388.9475 649.0239,-383.1592 643.4775,-378.8887"/>
<text text-anchor="start" x="757" y="-311" font-family="Helvetica,sans-Serif" font-size="10.00" fill="#000000"> &lt; Csr&lt; next_precision</text>
<text text-anchor="middle" x="832.5" y="-300" font-family="Helvetica,sans-Serif" font-size="10.00" fill="#000000">&lt; ValueType &gt;, IndexType &gt; &gt;</text>
</g>
<!-- Node27 -->
<g id="node23" class="node">
<title>Node27</title>
<g id="a_node23"><a xlink:href="classgko_1_1ConvertibleTo.html" target="_top" xlink:title=" ">
<polygon fill="#ffffff" stroke="#000000" points="1574,-250 1574,-280 1716,-280 1716,-250 1574,-250"/>
<text text-anchor="start" x="1582" y="-268" font-family="Helvetica,sans-Serif" font-size="10.00" fill="#000000">gko::ConvertibleTo</text>
<text text-anchor="middle" x="1645" y="-257" font-family="Helvetica,sans-Serif" font-size="10.00" fill="#000000">&lt; Dense&lt; ValueType &gt; &gt;</text>
</a>
</g>
</g>
<!-- Node17&#45;&gt;Node27 -->
<g id="edge33" class="edge">
<title>Node17&#45;&gt;Node27</title>
<path fill="none" stroke="#ffa500" stroke-dasharray="5,2" d="M643.127,-380.0545C662.1424,-349.257 699.7921,-297.0023 748,-274 893.2125,-204.7122 1388.3716,-241.4097 1573.9735,-258.1429"/>
<polygon fill="#ffa500" stroke="#ffa500" points="639.9822,-378.4928 637.8328,-388.8673 645.9827,-382.0975 639.9822,-378.4928"/>
<text text-anchor="middle" x="1037.5" y="-240" font-family="Helvetica,sans-Serif" font-size="10.00" fill="#000000"> &lt; Dense&lt; ValueType &gt; &gt;</text>
</g>
<!-- Node28 -->
<g id="node24" class="node">
<title>Node28</title>
<g id="a_node24"><a xlink:href="classgko_1_1ConvertibleTo.html" target="_top" xlink:title=" ">
<polygon fill="#ffffff" stroke="#000000" points="1918,-209 1918,-239 2103,-239 2103,-209 1918,-209"/>
<text text-anchor="start" x="1926" y="-227" font-family="Helvetica,sans-Serif" font-size="10.00" fill="#000000">gko::ConvertibleTo</text>
<text text-anchor="middle" x="2010.5" y="-216" font-family="Helvetica,sans-Serif" font-size="10.00" fill="#000000">&lt; Coo&lt; ValueType, IndexType &gt; &gt;</text>
</a>
</g>
</g>
<!-- Node17&#45;&gt;Node28 -->
<g id="edge35" class="edge">
<title>Node17&#45;&gt;Node28</title>
<path fill="none" stroke="#ffa500" stroke-dasharray="5,2" d="M638.6749,-379.6413C654.4839,-341.4806 690.7793,-268.6017 748,-236 860.1468,-172.104 908.4279,-213 1037.5,-213 1037.5,-213 1037.5,-213 1645,-213 1737.8448,-213 1843.8958,-216.5901 1917.7621,-219.6683"/>
<polygon fill="#ffa500" stroke="#ffa500" points="635.401,-378.4021 634.9272,-388.9864 641.898,-381.0077 635.401,-378.4021"/>
<text text-anchor="middle" x="1247.5" y="-216" font-family="Helvetica,sans-Serif" font-size="10.00" fill="#000000"> &lt; Coo&lt; ValueType, IndexType &gt; &gt;</text>
</g>
<!-- Node29 -->
<g id="node25" class="node">
<title>Node29</title>
<g id="a_node25"><a xlink:href="classgko_1_1ConvertibleTo.html" target="_top" xlink:title=" ">
<polygon fill="#ffffff" stroke="#000000" points="1158,-469 1158,-499 1337,-499 1337,-469 1158,-469"/>
<text text-anchor="start" x="1166" y="-487" font-family="Helvetica,sans-Serif" font-size="10.00" fill="#000000">gko::ConvertibleTo</text>
<text text-anchor="middle" x="1247.5" y="-476" font-family="Helvetica,sans-Serif" font-size="10.00" fill="#000000">&lt; Ell&lt; ValueType, IndexType &gt; &gt;</text>
</a>
</g>
</g>
<!-- Node17&#45;&gt;Node29 -->
<g id="edge37" class="edge">
<title>Node17&#45;&gt;Node29</title>
<path fill="none" stroke="#ffa500" stroke-dasharray="5,2" d="M679.6757,-422.3125C700.5432,-429.2315 725.1802,-436.5104 748,-441 889.5544,-468.8495 1057.2001,-478.6619 1157.8106,-482.1192"/>
<polygon fill="#ffa500" stroke="#ffa500" points="680.6613,-418.9512 670.0671,-419.0648 678.4198,-425.5827 680.6613,-418.9512"/>
<text text-anchor="middle" x="832.5" y="-468" font-family="Helvetica,sans-Serif" font-size="10.00" fill="#000000"> &lt; Ell&lt; ValueType, IndexType &gt; &gt;</text>
</g>
<!-- Node30 -->
<g id="node26" class="node">
<title>Node30</title>
<g id="a_node26"><a xlink:href="classgko_1_1ConvertibleTo.html" target="_top" xlink:title=" ">
<polygon fill="#ffffff" stroke="#000000" points="1583,-404.5 1583,-445.5 1707,-445.5 1707,-404.5 1583,-404.5"/>
<text text-anchor="start" x="1591" y="-433.5" font-family="Helvetica,sans-Serif" font-size="10.00" fill="#000000">gko::ConvertibleTo</text>
<text text-anchor="start" x="1591" y="-422.5" font-family="Helvetica,sans-Serif" font-size="10.00" fill="#000000">&lt; Hybrid&lt; ValueType,</text>
<text text-anchor="middle" x="1645" y="-411.5" font-family="Helvetica,sans-Serif" font-size="10.00" fill="#000000"> IndexType &gt; &gt;</text>
</a>
</g>
</g>
<!-- Node17&#45;&gt;Node30 -->
<g id="edge39" class="edge">
<title>Node17&#45;&gt;Node30</title>
<path fill="none" stroke="#ffa500" stroke-dasharray="5,2" d="M693.0217,-405.3136C875.8706,-409.0948 1401.925,-419.9733 1582.9359,-423.7165"/>
<polygon fill="#ffa500" stroke="#ffa500" points="693.094,-401.8144 683.0238,-405.1068 692.9492,-408.8129 693.094,-401.8144"/>
<text text-anchor="start" x="982" y="-428" font-family="Helvetica,sans-Serif" font-size="10.00" fill="#000000"> &lt; Hybrid&lt; ValueType,</text>
<text text-anchor="middle" x="1037.5" y="-417" font-family="Helvetica,sans-Serif" font-size="10.00" fill="#000000"> IndexType &gt; &gt;</text>
</g>
<!-- Node31 -->
<g id="node27" class="node">
<title>Node31</title>
<g id="a_node27"><a xlink:href="classgko_1_1ConvertibleTo.html" target="_top" xlink:title=" ">
<polygon fill="#ffffff" stroke="#000000" points="1952.5,-365.5 1952.5,-406.5 2068.5,-406.5 2068.5,-365.5 1952.5,-365.5"/>
<text text-anchor="start" x="1960.5" y="-394.5" font-family="Helvetica,sans-Serif" font-size="10.00" fill="#000000">gko::ConvertibleTo</text>
<text text-anchor="start" x="1960.5" y="-383.5" font-family="Helvetica,sans-Serif" font-size="10.00" fill="#000000">&lt; Sellp&lt; ValueType,</text>
<text text-anchor="middle" x="2010.5" y="-372.5" font-family="Helvetica,sans-Serif" font-size="10.00" fill="#000000"> IndexType &gt; &gt;</text>
</a>
</g>
</g>
<!-- Node17&#45;&gt;Node31 -->
<g id="edge41" class="edge">
<title>Node17&#45;&gt;Node31</title>
<path fill="none" stroke="#ffa500" stroke-dasharray="5,2" d="M693.299,-401.6774C792.6213,-398.1771 990.2454,-391.6754 1158,-389 1456.7459,-384.2355 1814.4517,-385.1198 1952.3539,-385.7067"/>
<polygon fill="#ffa500" stroke="#ffa500" points="692.9991,-398.1857 683.1292,-402.0374 693.2468,-405.1813 692.9991,-398.1857"/>
<text text-anchor="start" x="1196" y="-403" font-family="Helvetica,sans-Serif" font-size="10.00" fill="#000000"> &lt; Sellp&lt; ValueType,</text>
<text text-anchor="middle" x="1247.5" y="-392" font-family="Helvetica,sans-Serif" font-size="10.00" fill="#000000"> IndexType &gt; &gt;</text>
</g>
<!-- Node32 -->
<g id="node28" class="node">
<title>Node32</title>
<g id="a_node28"><a xlink:href="classgko_1_1ConvertibleTo.html" target="_top" xlink:title=" ">
<polygon fill="#ffffff" stroke="#000000" points="1174,-321.5 1174,-362.5 1321,-362.5 1321,-321.5 1174,-321.5"/>
<text text-anchor="start" x="1182" y="-350.5" font-family="Helvetica,sans-Serif" font-size="10.00" fill="#000000">gko::ConvertibleTo</text>
<text text-anchor="start" x="1182" y="-339.5" font-family="Helvetica,sans-Serif" font-size="10.00" fill="#000000">&lt; SparsityCsr&lt; ValueType,</text>
<text text-anchor="middle" x="1247.5" y="-328.5" font-family="Helvetica,sans-Serif" font-size="10.00" fill="#000000"> IndexType &gt; &gt;</text>
</a>
</g>
</g>
<!-- Node17&#45;&gt;Node32 -->
<g id="edge43" class="edge">
<title>Node17&#45;&gt;Node32</title>
<path fill="none" stroke="#ffa500" stroke-dasharray="5,2" d="M660.5493,-383.6008C683.6157,-369.709 716.4227,-352.5264 748,-345 895.8361,-309.7636 1075.3477,-321.3649 1173.8852,-332.1895"/>
<polygon fill="#ffa500" stroke="#ffa500" points="658.581,-380.7025 651.9041,-388.9287 662.2536,-386.6617 658.581,-380.7025"/>
<text text-anchor="start" x="765.5" y="-359" font-family="Helvetica,sans-Serif" font-size="10.00" fill="#000000"> &lt; SparsityCsr&lt; ValueType,</text>
<text text-anchor="middle" x="832.5" y="-348" font-family="Helvetica,sans-Serif" font-size="10.00" fill="#000000"> IndexType &gt; &gt;</text>
</g>
<!-- Node18&#45;&gt;Node15 -->
<g id="edge16" class="edge">
<title>Node18&#45;&gt;Node15</title>
<path fill="none" stroke="#ffa500" stroke-dasharray="5,2" d="M1144.1259,-560.6956C1148.8123,-560.4305 1153.4532,-560.196 1158,-560 1225.2112,-557.1028 1301.0425,-556.8948 1359.3235,-557.3896"/>
<polygon fill="#ffa500" stroke="#ffa500" points="1143.582,-557.2221 1133.8125,-561.3218 1144.0062,-564.2092 1143.582,-557.2221"/>
<text text-anchor="middle" x="1247.5" y="-563" font-family="Helvetica,sans-Serif" font-size="10.00" fill="#000000"> &lt; Csr&lt; ValueType, IndexType &gt; &gt;</text>
</g>
<!-- Node22 -->
<g id="node18" class="node">
<title>Node22</title>
<g id="a_node18"><a xlink:href="classgko_1_1EnablePolymorphicAssignment.html" target="_top" xlink:title=" ">
<polygon fill="#ffffff" stroke="#000000" points="1359.5,-596 1359.5,-626 1551.5,-626 1551.5,-596 1359.5,-596"/>
<text text-anchor="start" x="1367.5" y="-614" font-family="Helvetica,sans-Serif" font-size="10.00" fill="#000000">gko::EnablePolymorphicAssignment</text>
<text text-anchor="middle" x="1455.5" y="-603" font-family="Helvetica,sans-Serif" font-size="10.00" fill="#000000">&lt; ConcreteLinOp &gt;</text>
</a>
</g>
</g>
<!-- Node18&#45;&gt;Node22 -->
<g id="edge27" class="edge">
<title>Node18&#45;&gt;Node22</title>
<path fill="none" stroke="#ffa500" stroke-dasharray="5,2" d="M1143.7933,-579.5191C1201.0573,-584.7528 1272.9155,-591.4896 1337,-598 1344.3096,-598.7426 1351.8706,-599.5292 1359.4729,-600.3334"/>
<polygon fill="#ffa500" stroke="#ffa500" points="1143.918,-576.016 1133.6413,-578.593 1143.282,-582.987 1143.918,-576.016"/>
<text text-anchor="middle" x="1247.5" y="-601" font-family="Helvetica,sans-Serif" font-size="10.00" fill="#000000"> &lt; ConcreteLinOp &gt;</text>
</g>
<!-- Node19 -->
<g id="node15" class="node">
<title>Node19</title>
<g id="a_node15"><a xlink:href="classgko_1_1EnableLinOp.html" target="_top" xlink:title="The EnableLinOp mixin can be used to provide sensible default implementations of the majority of the ...">
<polygon fill="#ffffff" stroke="#000000" points="1739,-596 1739,-626 1895,-626 1895,-596 1739,-596"/>
<text text-anchor="start" x="1747" y="-614" font-family="Helvetica,sans-Serif" font-size="10.00" fill="#000000">gko::EnableLinOp&lt; Concrete</text>
<text text-anchor="middle" x="1817" y="-603" font-family="Helvetica,sans-Serif" font-size="10.00" fill="#000000">LinOp, PolymorphicBase &gt;</text>
</a>
</g>
</g>
<!-- Node19&#45;&gt;Node2 -->
<g id="edge18" class="edge">
<title>Node19&#45;&gt;Node2</title>
<path fill="none" stroke="#ffa500" stroke-dasharray="5,2" d="M1905.4175,-603.8371C1974.1737,-598.2669 2068.6292,-590.6149 2134.4596,-585.2818"/>
<polygon fill="#ffa500" stroke="#ffa500" points="1904.724,-600.3817 1895.0393,-604.6778 1905.2893,-607.3588 1904.724,-600.3817"/>
<text text-anchor="middle" x="2010.5" y="-605" font-family="Helvetica,sans-Serif" font-size="10.00" fill="#000000"> &lt; Csr&lt; ValueType, IndexType &gt; &gt;</text>
</g>
<!-- Node20&#45;&gt;Node19 -->
<g id="edge19" class="edge">
<title>Node20&#45;&gt;Node19</title>
<path fill="none" stroke="#191970" d="M1566.1393,-647.0851C1621.9978,-639.0501 1688.4282,-629.4944 1738.892,-622.2354"/>
<polygon fill="#191970" stroke="#191970" points="1565.5977,-643.6269 1556.1979,-648.5151 1566.5944,-650.5556 1565.5977,-643.6269"/>
</g>
<!-- Node21&#45;&gt;Node20 -->
<g id="edge20" class="edge">
<title>Node21&#45;&gt;Node20</title>
<path fill="none" stroke="#191970" d="M738.725,-663C899.8513,-663 1198.9661,-663 1354.9602,-663"/>
<polygon fill="#191970" stroke="#191970" points="738.3145,-659.5001 728.3145,-663 738.3144,-666.5001 738.3145,-659.5001"/>
</g>
<!-- Node22&#45;&gt;Node19 -->
<g id="edge24" class="edge">
<title>Node22&#45;&gt;Node19</title>
<path fill="none" stroke="#191970" d="M1561.974,-611C1618.6413,-611 1687.0999,-611 1738.8151,-611"/>
<polygon fill="#191970" stroke="#191970" points="1561.9005,-607.5001 1551.9005,-611 1561.9005,-614.5001 1561.9005,-607.5001"/>
</g>
<!-- Node23&#45;&gt;Node22 -->
<g id="edge25" class="edge">
<title>Node23&#45;&gt;Node22</title>
<path fill="none" stroke="#191970" d="M1102.8508,-617.7493C1171.6983,-616.4316 1280.8342,-614.3429 1359.4692,-612.8379"/>
<polygon fill="#191970" stroke="#191970" points="1102.5072,-614.2551 1092.576,-617.9459 1102.6412,-621.2538 1102.5072,-614.2551"/>
</g>
<!-- Node24 -->
<g id="node20" class="node">
<title>Node24</title>
<g id="a_node20"><a xlink:href="classgko_1_1EnableCreateMethod.html" target="_top" xlink:title=" ">
<polygon fill="#ffffff" stroke="#000000" points="2121,-453 2121,-483 2303,-483 2303,-453 2121,-453"/>
<text text-anchor="start" x="2129" y="-471" font-family="Helvetica,sans-Serif" font-size="10.00" fill="#000000">gko::EnableCreateMethod</text>
<text text-anchor="middle" x="2212" y="-460" font-family="Helvetica,sans-Serif" font-size="10.00" fill="#000000">&lt; Csr&lt; ValueType, IndexType &gt; &gt;</text>
</a>
</g>
</g>
<!-- Node24&#45;&gt;Node1 -->
<g id="edge28" class="edge">
<title>Node24&#45;&gt;Node1</title>
<path fill="none" stroke="#191970" d="M2303.0586,-448.9875C2309.7518,-445.8656 2316.1587,-442.2311 2322,-438 2370.2868,-403.0232 2401.2926,-336.0397 2413.3271,-306.1038"/>
<polygon fill="#191970" stroke="#191970" points="2301.6119,-445.7993 2293.7802,-452.9348 2304.3523,-452.2406 2301.6119,-445.7993"/>
</g>
<!-- Node25 -->
<g id="node21" class="node">
<title>Node25</title>
<g id="a_node21"><a xlink:href="classgko_1_1EnableCreateMethod.html" target="_top" xlink:title="This mixin implements a static create() method on ConcreteType that dynamically allocates the memory,...">
<polygon fill="#ffffff" stroke="#000000" points="1746,-453 1746,-483 1888,-483 1888,-453 1746,-453"/>
<text text-anchor="start" x="1754" y="-471" font-family="Helvetica,sans-Serif" font-size="10.00" fill="#000000">gko::EnableCreateMethod</text>
<text text-anchor="middle" x="1817" y="-460" font-family="Helvetica,sans-Serif" font-size="10.00" fill="#000000">&lt; ConcreteType &gt;</text>
</a>
</g>
</g>
<!-- Node25&#45;&gt;Node24 -->
<g id="edge29" class="edge">
<title>Node25&#45;&gt;Node24</title>
<path fill="none" stroke="#ffa500" stroke-dasharray="5,2" d="M1898.2434,-468C1963.0387,-468 2053.7565,-468 2120.9882,-468"/>
<polygon fill="#ffa500" stroke="#ffa500" points="1898.0743,-464.5001 1888.0743,-468 1898.0742,-471.5001 1898.0743,-464.5001"/>
<text text-anchor="middle" x="2010.5" y="-471" font-family="Helvetica,sans-Serif" font-size="10.00" fill="#000000"> &lt; Csr&lt; ValueType, IndexType &gt; &gt;</text>
</g>
<!-- Node26&#45;&gt;Node1 -->
<g id="edge30" class="edge">
<title>Node26&#45;&gt;Node1</title>
<path fill="none" stroke="#191970" d="M1341.3329,-300.5377C1421.8572,-304.8116 1541.0236,-310 1645,-310 1645,-310 1645,-310 2212,-310 2254.2236,-310 2301.0899,-306.0313 2339.5355,-301.7216"/>
<polygon fill="#191970" stroke="#191970" points="1341.3903,-297.0358 1331.2171,-299.9948 1341.0151,-304.0258 1341.3903,-297.0358"/>
</g>
<!-- Node27&#45;&gt;Node1 -->
<g id="edge32" class="edge">
<title>Node27&#45;&gt;Node1</title>
<path fill="none" stroke="#191970" d="M1726.1085,-267.7246C1875.4454,-272.7411 2192.1143,-283.3785 2339.9207,-288.3436"/>
<polygon fill="#191970" stroke="#191970" points="1726.1955,-264.2256 1716.0836,-267.3878 1725.9604,-271.2217 1726.1955,-264.2256"/>
</g>
<!-- Node28&#45;&gt;Node1 -->
<g id="edge34" class="edge">
<title>Node28&#45;&gt;Node1</title>
<path fill="none" stroke="#191970" d="M2113.0767,-229.5196C2174.271,-234.2147 2253.2024,-242.7368 2322,-258 2341.7971,-262.3921 2363.1979,-269.4165 2380.8481,-275.8579"/>
<polygon fill="#191970" stroke="#191970" points="2113.2589,-226.0236 2103.0264,-228.7706 2112.7386,-233.0042 2113.2589,-226.0236"/>
</g>
<!-- Node29&#45;&gt;Node1 -->
<g id="edge36" class="edge">
<title>Node29&#45;&gt;Node1</title>
<path fill="none" stroke="#191970" d="M1347.4642,-494.9499C1427.7668,-502.8022 1543.4938,-512 1645,-512 1645,-512 1645,-512 2212,-512 2253.3166,-512 2269.5586,-517.2638 2303,-493 2370.1013,-444.3137 2404.1208,-344.0689 2415.0122,-306.0599"/>
<polygon fill="#191970" stroke="#191970" points="1347.6548,-491.4518 1337.3589,-493.9506 1346.9659,-498.4178 1347.6548,-491.4518"/>
</g>
<!-- Node30&#45;&gt;Node1 -->
<g id="edge38" class="edge">
<title>Node30&#45;&gt;Node1</title>
<path fill="none" stroke="#191970" d="M1717.4559,-427.8658C1865.9231,-432.7249 2199.4285,-438.1522 2303,-394 2348.5858,-374.5669 2388.5678,-329.8589 2407.4518,-306.2479"/>
<polygon fill="#191970" stroke="#191970" points="1717.2037,-424.3554 1707.0917,-427.5176 1716.9686,-431.3515 1717.2037,-424.3554"/>
</g>
<!-- Node31&#45;&gt;Node1 -->
<g id="edge40" class="edge">
<title>Node31&#45;&gt;Node1</title>
<path fill="none" stroke="#191970" d="M2078.8618,-391.2848C2143.5475,-393.8702 2242.3271,-391.4785 2322,-362 2354.8822,-349.8338 2386.3809,-323.0586 2404.1508,-306.0882"/>
<polygon fill="#191970" stroke="#191970" points="2078.9285,-387.7844 2068.781,-390.8306 2078.6133,-394.7773 2078.9285,-387.7844"/>
</g>
<!-- Node32&#45;&gt;Node1 -->
<g id="edge42" class="edge">
<title>Node32&#45;&gt;Node1</title>
<path fill="none" stroke="#191970" d="M1331.1944,-343.9968C1411.6324,-345.7423 1536.6181,-348 1645,-348 1645,-348 1645,-348 2212,-348 2275.1813,-348 2345.4432,-323.0118 2385.7115,-306.1253"/>
<polygon fill="#191970" stroke="#191970" points="1331.1971,-340.4961 1321.1227,-343.7758 1331.0435,-347.4944 1331.1971,-340.4961"/>
</g>
<!-- Node33 -->
<g id="node29" class="node">
<title>Node33</title>
<g id="a_node29"><a xlink:href="classgko_1_1DiagonalExtractable.html" target="_top" xlink:title="The diagonal of a LinOp implementing this interface can be extracted.">
<polygon fill="#ffffff" stroke="#000000" points="2142,-175 2142,-205 2282,-205 2282,-175 2142,-175"/>
<text text-anchor="start" x="2150" y="-193" font-family="Helvetica,sans-Serif" font-size="10.00" fill="#000000">gko::DiagonalExtractable</text>
<text text-anchor="middle" x="2212" y="-182" font-family="Helvetica,sans-Serif" font-size="10.00" fill="#000000">&lt; ValueType &gt;</text>
</a>
</g>
</g>
<!-- Node33&#45;&gt;Node1 -->
<g id="edge44" class="edge">
<title>Node33&#45;&gt;Node1</title>
<path fill="none" stroke="#191970" d="M2291.6325,-207.9692C2302.0665,-211.4027 2312.443,-215.3946 2322,-220 2352.8327,-234.8579 2383.9699,-259.8176 2402.3676,-275.8384"/>
<polygon fill="#191970" stroke="#191970" points="2292.6449,-204.6187 2282.0559,-204.9714 2290.5537,-211.299 2292.6449,-204.6187"/>
</g>
<!-- Node34 -->
<g id="node30" class="node">
<title>Node34</title>
<g id="a_node30"><a xlink:href="classgko_1_1ReadableFromMatrixData.html" target="_top" xlink:title="A LinOp implementing this interface can read its data from a matrix_data structure.">
<polygon fill="#ffffff" stroke="#000000" points="2130,-126 2130,-156 2294,-156 2294,-126 2130,-126"/>
<text text-anchor="start" x="2138" y="-144" font-family="Helvetica,sans-Serif" font-size="10.00" fill="#000000">gko::ReadableFromMatrixData</text>
<text text-anchor="middle" x="2212" y="-133" font-family="Helvetica,sans-Serif" font-size="10.00" fill="#000000">&lt; ValueType, IndexType &gt;</text>
</a>
</g>
</g>
<!-- Node34&#45;&gt;Node1 -->
<g id="edge45" class="edge">
<title>Node34&#45;&gt;Node1</title>
<path fill="none" stroke="#191970" d="M2292.1905,-160.2247C2295.9278,-161.9877 2299.553,-163.9083 2303,-166 2350.8371,-195.0284 2391.2666,-249.327 2409.1522,-275.7605"/>
<polygon fill="#191970" stroke="#191970" points="2293.2775,-156.8827 2282.7074,-156.1591 2290.5192,-163.3164 2293.2775,-156.8827"/>
</g>
<!-- Node35 -->
<g id="node31" class="node">
<title>Node35</title>
<g id="a_node31"><a xlink:href="classgko_1_1WritableToMatrixData.html" target="_top" xlink:title="A LinOp implementing this interface can write its data to a matrix_data structure.">
<polygon fill="#ffffff" stroke="#000000" points="2139,-77 2139,-107 2285,-107 2285,-77 2139,-77"/>
<text text-anchor="start" x="2147" y="-95" font-family="Helvetica,sans-Serif" font-size="10.00" fill="#000000">gko::WritableToMatrixData</text>
<text text-anchor="middle" x="2212" y="-84" font-family="Helvetica,sans-Serif" font-size="10.00" fill="#000000">&lt; ValueType, IndexType &gt;</text>
</a>
</g>
</g>
<!-- Node35&#45;&gt;Node1 -->
<g id="edge46" class="edge">
<title>Node35&#45;&gt;Node1</title>
<path fill="none" stroke="#191970" d="M2294.43,-111.5525C2297.4067,-113.2218 2300.2771,-115.0336 2303,-117 2361.8663,-159.5116 2399.5548,-241.8 2413.2267,-275.7669"/>
<polygon fill="#191970" stroke="#191970" points="2295.7327,-108.2911 2285.2218,-106.9598 2292.6084,-114.5552 2295.7327,-108.2911"/>
</g>
<!-- Node36 -->
<g id="node32" class="node">
<title>Node36</title>
<g id="a_node32"><a xlink:href="classgko_1_1Transposable.html" target="_top" xlink:title="Linear operators which support transposition should implement the Transposable interface.">
<polygon fill="#ffffff" stroke="#000000" points="2160,-38.5 2160,-57.5 2264,-57.5 2264,-38.5 2160,-38.5"/>
<text text-anchor="middle" x="2212" y="-45.5" font-family="Helvetica,sans-Serif" font-size="10.00" fill="#000000">gko::Transposable</text>
</a>
</g>
</g>
<!-- Node36&#45;&gt;Node1 -->
<g id="edge47" class="edge">
<title>Node36&#45;&gt;Node1</title>
<path fill="none" stroke="#191970" d="M2274.0017,-53.9779C2284.3934,-57.0426 2294.5343,-61.5143 2303,-68 2374.8824,-123.0705 2406.4471,-235.3745 2415.8271,-275.9506"/>
<polygon fill="#191970" stroke="#191970" points="2274.5611,-50.5093 2264.0082,-51.4508 2272.8449,-57.2956 2274.5611,-50.5093"/>
</g>
<!-- Node37 -->
<g id="node33" class="node">
<title>Node37</title>
<g id="a_node33"><a xlink:href="classgko_1_1Permutable.html" target="_top" xlink:title="Linear operators which support permutation should implement the Permutable interface.">
<polygon fill="#ffffff" stroke="#000000" points="2127.5,-.5 2127.5,-19.5 2296.5,-19.5 2296.5,-.5 2127.5,-.5"/>
<text text-anchor="middle" x="2212" y="-7.5" font-family="Helvetica,sans-Serif" font-size="10.00" fill="#000000">gko::Permutable&lt; IndexType &gt;</text>
</a>
</g>
</g>
<!-- Node37&#45;&gt;Node1 -->
<g id="edge48" class="edge">
<title>Node37&#45;&gt;Node1</title>
<path fill="none" stroke="#191970" d="M2296.6061,-24.4575C2298.8299,-25.8466 2300.9684,-27.3574 2303,-29 2384.8147,-95.1485 2410.6204,-230.8276 2417.1197,-275.9986"/>
<polygon fill="#191970" stroke="#191970" points="2298.1222,-21.2994 2287.6517,-19.6812 2294.8278,-27.4757 2298.1222,-21.2994"/>
</g>
</g>
</svg>
        <g id="navigator" transform="translate(0 0)" fill="#404254">
                <rect fill="#f2f5e9" fill-opacity="0.5" stroke="#606060" stroke-width=".5" x="0" y="0" width="60" height="60"/>
                <use id="zoomplus" xlink:href="#zoomPlus" x="17" y="9" onmousedown="handleZoom(evt,'in')"/>
                <use id="zoomminus" xlink:href="#zoomMin" x="42" y="9" onmousedown="handleZoom(evt,'out')"/>
                <use id="reset" xlink:href="#resetDef" x="30" y="36" onmousedown="handleReset()"/>
                <g id="arrowUp" xlink:href="#dirArrow" transform="translate(30 24)" onmousedown="handlePan(0,-1)">
                  <use xlink:href="#rim" fill="#404040">
                        <set attributeName="fill" to="#808080" begin="arrowUp.mouseover" end="arrowUp.mouseout"/>
                  </use>
                  <path fill="none" stroke="white" stroke-width="1.5" d="M0,-3.0v7 M-2.5,-0.5L0,-3.0L2.5,-0.5"/>
                </g>
                <g id="arrowRight" xlink:href="#dirArrow" transform="rotate(90) translate(36 -43)" onmousedown="handlePan(1,0)">
                  <use xlink:href="#rim" fill="#404040">
                        <set attributeName="fill" to="#808080" begin="arrowRight.mouseover" end="arrowRight.mouseout"/>
                  </use>
                  <path fill="none" stroke="white" stroke-width="1.5" d="M0,-3.0v7 M-2.5,-0.5L0,-3.0L2.5,-0.5"/>
                </g>
                <g id="arrowDown" xlink:href="#dirArrow" transform="rotate(180) translate(-30 -48)" onmousedown="handlePan(0,1)">
                  <use xlink:href="#rim" fill="#404040">
                        <set attributeName="fill" to="#808080" begin="arrowDown.mouseover" end="arrowDown.mouseout"/>
                  </use>
                  <path fill="none" stroke="white" stroke-width="1.5" d="M0,-3.0v7 M-2.5,-0.5L0,-3.0L2.5,-0.5"/>
                </g>
                <g id="arrowLeft" xlink:href="#dirArrow" transform="rotate(270) translate(-36 17)" onmousedown="handlePan(-1,0)">
                  <use xlink:href="#rim" fill="#404040">
                        <set attributeName="fill" to="#808080" begin="arrowLeft.mouseover" end="arrowLeft.mouseout"/>
                  </use>
                  <path fill="none" stroke="white" stroke-width="1.5" d="M0,-3.0v7 M-2.5,-0.5L0,-3.0L2.5,-0.5"/>
                </g>
        </g>
        <svg viewBox="0 0 15 15" width="100%" height="30px" preserveAspectRatio="xMaxYMin meet">
         <g id="arrow_out" transform="scale(0.3 0.3)">
          <a xlink:href="classgko_1_1matrix_1_1Csr__coll__graph_org.svg" target="_base">
           <rect id="button" ry="5" rx="5" y="6" x="6" height="38" width="38"
                fill="#f2f5e9" fill-opacity="0.5" stroke="#606060" stroke-width="1.0"/>
           <path id="arrow"
             d="M 11.500037,31.436501 C 11.940474,20.09759 22.043105,11.32322 32.158766,21.979434 L 37.068811,17.246167 C 37.068811,17.246167 37.088388,32 37.088388,32 L 22.160133,31.978069 C 22.160133,31.978069 26.997745,27.140456 26.997745,27.140456 C 18.528582,18.264221 13.291696,25.230495 11.500037,31.436501 z"
             style="fill:#404040;"/>
          </a>
         </g>
        </svg>
</svg>
