<?xml version="1.0" encoding="UTF-8" standalone="no"?>
<!DOCTYPE svg PUBLIC "-//W3C//DTD SVG 1.1//EN"
 "http://www.w3.org/Graphics/SVG/1.1/DTD/svg11.dtd">
<!-- Generated by graphviz version 2.40.1 (20161225.0304)
 -->
<!-- Title: gko::matrix::Ell&lt; ValueType, IndexType &gt; Pages: 1 -->
<svg width="2484pt" height="493pt"
 viewBox="0.00 0.00 2484.00 492.50" xmlns="http://www.w3.org/2000/svg" xmlns:xlink="http://www.w3.org/1999/xlink">
<g id="graph0" class="graph" transform="scale(1 1) rotate(0) translate(4 488.5)">
<title>gko::matrix::Ell&lt; ValueType, IndexType &gt;</title>
<polygon fill="#ffffff" stroke="transparent" points="-4,4 -4,-488.5 2480,-488.5 2480,4 -4,4"/>
<!-- Node1 -->
<g id="node1" class="node">
<title>Node1</title>
<g id="a_node1"><a xlink:title="ELL is a matrix format where stride with explicit zeros is used such that all rows have the same numb...">
<polygon fill="#bfbfbf" stroke="#000000" points="2321,-263.5 2321,-293.5 2476,-293.5 2476,-263.5 2321,-263.5"/>
<text text-anchor="start" x="2329" y="-281.5" font-family="Helvetica,sans-Serif" font-size="10.00" fill="#000000">gko::matrix::Ell&lt; ValueType,</text>
<text text-anchor="middle" x="2398.5" y="-270.5" font-family="Helvetica,sans-Serif" font-size="10.00" fill="#000000"> IndexType &gt;</text>
</a>
</g>
</g>
<!-- Node2 -->
<g id="node2" class="node">
<title>Node2</title>
<g id="a_node2"><a xlink:href="classgko_1_1EnableLinOp.html" target="_top" xlink:title=" ">
<polygon fill="#ffffff" stroke="#000000" points="2117,-282.5 2117,-312.5 2272,-312.5 2272,-282.5 2117,-282.5"/>
<text text-anchor="start" x="2125" y="-300.5" font-family="Helvetica,sans-Serif" font-size="10.00" fill="#000000">gko::EnableLinOp&lt; Ell</text>
<text text-anchor="middle" x="2194.5" y="-289.5" font-family="Helvetica,sans-Serif" font-size="10.00" fill="#000000">&lt; ValueType, IndexType &gt; &gt;</text>
</a>
</g>
</g>
<!-- Node2&#45;&gt;Node1 -->
<g id="edge1" class="edge">
<title>Node2&#45;&gt;Node1</title>
<path fill="none" stroke="#191970" d="M2282.348,-289.3181C2295.0946,-288.1309 2308.1419,-286.9157 2320.6727,-285.7486"/>
<polygon fill="#191970" stroke="#191970" points="2281.8379,-285.8503 2272.2056,-290.2627 2282.4871,-292.8202 2281.8379,-285.8503"/>
</g>
<!-- Node3 -->
<g id="node3" class="node">
<title>Node3</title>
<g id="a_node3"><a xlink:href="classgko_1_1EnablePolymorphicObject.html" target="_top" xlink:title=" ">
<polygon fill="#ffffff" stroke="#000000" points="1721,-121 1721,-162 1887,-162 1887,-121 1721,-121"/>
<text text-anchor="start" x="1729" y="-150" font-family="Helvetica,sans-Serif" font-size="10.00" fill="#000000">gko::EnablePolymorphicObject</text>
<text text-anchor="start" x="1729" y="-139" font-family="Helvetica,sans-Serif" font-size="10.00" fill="#000000">&lt; Ell&lt; ValueType, IndexType</text>
<text text-anchor="middle" x="1804" y="-128" font-family="Helvetica,sans-Serif" font-size="10.00" fill="#000000"> &gt;, LinOp &gt;</text>
</a>
</g>
</g>
<!-- Node3&#45;&gt;Node2 -->
<g id="edge2" class="edge">
<title>Node3&#45;&gt;Node2</title>
<path fill="none" stroke="#191970" d="M1897.1258,-153.8382C1957.302,-166.0109 2033.9878,-189.9161 2087,-236.5 2100.737,-248.5712 2090.8962,-261.8595 2105,-273.5 2109.0943,-276.8792 2113.6203,-279.7861 2118.3986,-282.2862"/>
<polygon fill="#191970" stroke="#191970" points="1897.7209,-150.3884 1887.2362,-151.9125 1896.3829,-157.2594 1897.7209,-150.3884"/>
</g>
<!-- Node4 -->
<g id="node4" class="node">
<title>Node4</title>
<g id="a_node4"><a xlink:href="classgko_1_1EnableAbstractPolymorphicObject.html" target="_top" xlink:title=" ">
<polygon fill="#ffffff" stroke="#000000" points="1348.5,-34 1348.5,-75 1536.5,-75 1536.5,-34 1348.5,-34"/>
<text text-anchor="start" x="1356.5" y="-63" font-family="Helvetica,sans-Serif" font-size="10.00" fill="#000000">gko::EnableAbstractPolymorphic</text>
<text text-anchor="start" x="1356.5" y="-52" font-family="Helvetica,sans-Serif" font-size="10.00" fill="#000000">Object&lt; Ell&lt; ValueType, IndexType</text>
<text text-anchor="middle" x="1442.5" y="-41" font-family="Helvetica,sans-Serif" font-size="10.00" fill="#000000"> &gt;, LinOp &gt;</text>
</a>
</g>
</g>
<!-- Node4&#45;&gt;Node3 -->
<g id="edge3" class="edge">
<title>Node4&#45;&gt;Node3</title>
<path fill="none" stroke="#191970" d="M1546.666,-60.6418C1595.5828,-66.2721 1653.811,-77.0192 1703,-97.5 1712.1101,-101.2932 1712.2997,-105.843 1721,-110.5 1727.9163,-114.2021 1735.371,-117.6595 1742.8751,-120.8228"/>
<polygon fill="#191970" stroke="#191970" points="1547.0162,-57.1593 1536.6945,-59.5495 1546.2539,-64.1177 1547.0162,-57.1593"/>
</g>
<!-- Node5 -->
<g id="node5" class="node">
<title>Node5</title>
<g id="a_node5"><a xlink:href="classgko_1_1LinOp.html" target="_top" xlink:title=" ">
<polygon fill="#ffffff" stroke="#000000" points="1000.5,-10 1000.5,-29 1068.5,-29 1068.5,-10 1000.5,-10"/>
<text text-anchor="middle" x="1034.5" y="-17" font-family="Helvetica,sans-Serif" font-size="10.00" fill="#000000">gko::LinOp</text>
</a>
</g>
</g>
<!-- Node5&#45;&gt;Node4 -->
<g id="edge4" class="edge">
<title>Node5&#45;&gt;Node4</title>
<path fill="none" stroke="#191970" d="M1078.7755,-23.2981C1143.0334,-28.8105 1263.6922,-39.1611 1348.3642,-46.4246"/>
<polygon fill="#191970" stroke="#191970" points="1078.8467,-19.7915 1068.5841,-22.4239 1078.2483,-26.7659 1078.8467,-19.7915"/>
</g>
<!-- Node6 -->
<g id="node6" class="node">
<title>Node6</title>
<g id="a_node6"><a xlink:href="classgko_1_1EnableAbstractPolymorphicObject.html" target="_top" xlink:title=" ">
<polygon fill="#ffffff" stroke="#ff0000" points="542,-.5 542,-30.5 717,-30.5 717,-.5 542,-.5"/>
<text text-anchor="start" x="550" y="-18.5" font-family="Helvetica,sans-Serif" font-size="10.00" fill="#000000">gko::EnableAbstractPolymorphic</text>
<text text-anchor="middle" x="629.5" y="-7.5" font-family="Helvetica,sans-Serif" font-size="10.00" fill="#000000">Object&lt; LinOp &gt;</text>
</a>
</g>
</g>
<!-- Node6&#45;&gt;Node5 -->
<g id="edge5" class="edge">
<title>Node6&#45;&gt;Node5</title>
<path fill="none" stroke="#191970" d="M727.4215,-16.4671C815.7403,-17.3394 940.6381,-18.573 1000.2509,-19.1617"/>
<polygon fill="#191970" stroke="#191970" points="727.4131,-12.967 717.379,-16.3679 727.3439,-19.9666 727.4131,-12.967"/>
</g>
<!-- Node11 -->
<g id="node7" class="node">
<title>Node11</title>
<g id="a_node7"><a xlink:href="classgko_1_1EnableAbstractPolymorphicObject.html" target="_top" xlink:title="This mixin inherits from (a subclass of) PolymorphicObject and provides a base implementation of a ne...">
<polygon fill="#ffffff" stroke="#000000" points="138,-72 138,-113 336,-113 336,-72 138,-72"/>
<text text-anchor="start" x="146" y="-101" font-family="Helvetica,sans-Serif" font-size="10.00" fill="#000000">gko::EnableAbstractPolymorphic</text>
<text text-anchor="start" x="146" y="-90" font-family="Helvetica,sans-Serif" font-size="10.00" fill="#000000">Object&lt; AbstractObject, Polymorphic</text>
<text text-anchor="middle" x="237" y="-79" font-family="Helvetica,sans-Serif" font-size="10.00" fill="#000000">Base &gt;</text>
</a>
</g>
</g>
<!-- Node11&#45;&gt;Node4 -->
<g id="edge8" class="edge">
<title>Node11&#45;&gt;Node4</title>
<path fill="none" stroke="#ffa500" stroke-dasharray="5,2" d="M346.3102,-84.8852C348.898,-84.7503 351.4643,-84.6216 354,-84.5 721.5114,-66.8784 1159.3566,-58.711 1348.1761,-55.8076"/>
<polygon fill="#ffa500" stroke="#ffa500" points="346.0356,-81.3948 336.2408,-85.4338 346.4165,-88.3845 346.0356,-81.3948"/>
<text text-anchor="start" x="759.5" y="-83.5" font-family="Helvetica,sans-Serif" font-size="10.00" fill="#000000"> &lt; Ell&lt; ValueType, IndexType</text>
<text text-anchor="middle" x="831" y="-72.5" font-family="Helvetica,sans-Serif" font-size="10.00" fill="#000000"> &gt;, LinOp &gt;</text>
</g>
<!-- Node11&#45;&gt;Node6 -->
<g id="edge6" class="edge">
<title>Node11&#45;&gt;Node6</title>
<path fill="none" stroke="#ffa500" stroke-dasharray="5,2" d="M278.8117,-66.77C300.4485,-54.7746 327.7681,-41.6059 354,-34.5 415.3152,-17.8904 486.9625,-13.3845 541.821,-12.9025"/>
<polygon fill="#ffa500" stroke="#ffa500" points="276.88,-63.8417 269.9065,-71.8179 280.332,-69.9314 276.88,-63.8417"/>
<text text-anchor="middle" x="432.5" y="-37.5" font-family="Helvetica,sans-Serif" font-size="10.00" fill="#000000"> &lt; LinOp &gt;</text>
</g>
<!-- Node14 -->
<g id="node10" class="node">
<title>Node14</title>
<g id="a_node10"><a xlink:href="classgko_1_1EnableAbstractPolymorphicObject.html" target="_top" xlink:title=" ">
<polygon fill="#ffffff" stroke="#000000" points="529,-97 529,-138 730,-138 730,-97 529,-97"/>
<text text-anchor="start" x="537" y="-126" font-family="Helvetica,sans-Serif" font-size="10.00" fill="#000000">gko::EnableAbstractPolymorphic</text>
<text text-anchor="start" x="537" y="-115" font-family="Helvetica,sans-Serif" font-size="10.00" fill="#000000">Object&lt; ConcreteObject, Polymorphic</text>
<text text-anchor="middle" x="629.5" y="-104" font-family="Helvetica,sans-Serif" font-size="10.00" fill="#000000">Base &gt;</text>
</a>
</g>
</g>
<!-- Node11&#45;&gt;Node14 -->
<g id="edge12" class="edge">
<title>Node11&#45;&gt;Node14</title>
<path fill="none" stroke="#ffa500" stroke-dasharray="5,2" d="M346.4094,-88.0008C396.6706,-87.1896 456.9862,-87.9856 511,-93.5 519.5617,-94.3741 528.4204,-95.5838 537.2615,-96.9992"/>
<polygon fill="#ffa500" stroke="#ffa500" points="346.1033,-84.5057 336.1699,-88.1903 346.233,-91.5045 346.1033,-84.5057"/>
<text text-anchor="start" x="354" y="-107.5" font-family="Helvetica,sans-Serif" font-size="10.00" fill="#000000"> &lt; ConcreteObject, Polymorphic</text>
<text text-anchor="middle" x="432.5" y="-96.5" font-family="Helvetica,sans-Serif" font-size="10.00" fill="#000000">Base &gt;</text>
</g>
<!-- Node21 -->
<g id="node17" class="node">
<title>Node21</title>
<g id="a_node17"><a xlink:href="classgko_1_1EnableAbstractPolymorphicObject.html" target="_top" xlink:title=" ">
<polygon fill="#ffffff" stroke="#000000" points="531,-161 531,-202 728,-202 728,-161 531,-161"/>
<text text-anchor="start" x="539" y="-190" font-family="Helvetica,sans-Serif" font-size="10.00" fill="#000000">gko::EnableAbstractPolymorphic</text>
<text text-anchor="start" x="539" y="-179" font-family="Helvetica,sans-Serif" font-size="10.00" fill="#000000">Object&lt; ConcreteLinOp, Polymorphic</text>
<text text-anchor="middle" x="629.5" y="-168" font-family="Helvetica,sans-Serif" font-size="10.00" fill="#000000">Base &gt;</text>
</a>
</g>
</g>
<!-- Node11&#45;&gt;Node21 -->
<g id="edge22" class="edge">
<title>Node11&#45;&gt;Node21</title>
<path fill="none" stroke="#ffa500" stroke-dasharray="5,2" d="M337.372,-115.2595C399.5774,-129.3647 478.8209,-147.3333 539.0758,-160.9962"/>
<polygon fill="#ffa500" stroke="#ffa500" points="338.0667,-111.8283 327.5403,-113.0301 336.5187,-118.655 338.0667,-111.8283"/>
<text text-anchor="start" x="356" y="-167.5" font-family="Helvetica,sans-Serif" font-size="10.00" fill="#000000"> &lt; ConcreteLinOp, Polymorphic</text>
<text text-anchor="middle" x="432.5" y="-156.5" font-family="Helvetica,sans-Serif" font-size="10.00" fill="#000000">Base &gt;</text>
</g>
<!-- Node12 -->
<g id="node8" class="node">
<title>Node12</title>
<g id="a_node8"><a xlink:title=" ">
<polygon fill="#ffffff" stroke="#bfbfbf" points="0,-165 0,-184 101,-184 101,-165 0,-165"/>
<text text-anchor="middle" x="50.5" y="-172" font-family="Helvetica,sans-Serif" font-size="10.00" fill="#000000">PolymorphicBase</text>
</a>
</g>
</g>
<!-- Node12&#45;&gt;Node11 -->
<g id="edge7" class="edge">
<title>Node12&#45;&gt;Node11</title>
<path fill="none" stroke="#191970" d="M81.6749,-160.7931C111.2807,-147.7761 156.181,-128.0344 190.1047,-113.1189"/>
<polygon fill="#191970" stroke="#191970" points="80.0044,-157.7041 72.2589,-164.9331 82.8219,-164.1121 80.0044,-157.7041"/>
</g>
<!-- Node12&#45;&gt;Node14 -->
<g id="edge11" class="edge">
<title>Node12&#45;&gt;Node14</title>
<path fill="none" stroke="#191970" d="M111.4303,-180.8542C200.6787,-188.3335 371.4922,-195.6797 511,-160.5 519.6728,-158.313 520.7442,-154.9413 529,-151.5 540.306,-146.7873 552.5197,-142.2287 564.4067,-138.0622"/>
<polygon fill="#191970" stroke="#191970" points="111.4851,-177.3458 101.2198,-179.9678 110.8796,-184.3196 111.4851,-177.3458"/>
</g>
<!-- Node12&#45;&gt;Node21 -->
<g id="edge21" class="edge">
<title>Node12&#45;&gt;Node21</title>
<path fill="none" stroke="#191970" d="M100.0089,-185.844C106.37,-186.9398 112.8183,-187.8748 119,-188.5 292.3378,-206.0321 336.8536,-193.6391 511,-188.5 517.4889,-188.3085 524.1751,-188.0582 530.9118,-187.7663"/>
<polygon fill="#191970" stroke="#191970" points="100.6063,-182.3952 90.1355,-184.0111 99.3286,-189.2776 100.6063,-182.3952"/>
</g>
<!-- Node13 -->
<g id="node9" class="node">
<title>Node13</title>
<g id="a_node9"><a xlink:href="classgko_1_1EnablePolymorphicObject.html" target="_top" xlink:title="This mixin inherits from (a subclass of) PolymorphicObject and provides a base implementation of a ne...">
<polygon fill="#ffffff" stroke="#000000" points="932,-102.5 932,-132.5 1137,-132.5 1137,-102.5 932,-102.5"/>
<text text-anchor="start" x="940" y="-120.5" font-family="Helvetica,sans-Serif" font-size="10.00" fill="#000000">gko::EnablePolymorphicObject</text>
<text text-anchor="middle" x="1034.5" y="-109.5" font-family="Helvetica,sans-Serif" font-size="10.00" fill="#000000">&lt; ConcreteObject, PolymorphicBase &gt;</text>
</a>
</g>
</g>
<!-- Node13&#45;&gt;Node3 -->
<g id="edge9" class="edge">
<title>Node13&#45;&gt;Node3</title>
<path fill="none" stroke="#ffa500" stroke-dasharray="5,2" d="M1147.5349,-120.4744C1201.0342,-121.9203 1265.8095,-123.7262 1324,-125.5 1463.1793,-129.7427 1625.0383,-135.2588 1720.7589,-138.5815"/>
<polygon fill="#ffa500" stroke="#ffa500" points="1147.4269,-116.9703 1137.3362,-120.1994 1147.2382,-123.9677 1147.4269,-116.9703"/>
<text text-anchor="start" x="1371" y="-146.5" font-family="Helvetica,sans-Serif" font-size="10.00" fill="#000000"> &lt; Ell&lt; ValueType, IndexType</text>
<text text-anchor="middle" x="1442.5" y="-135.5" font-family="Helvetica,sans-Serif" font-size="10.00" fill="#000000"> &gt;, LinOp &gt;</text>
</g>
<!-- Node20 -->
<g id="node16" class="node">
<title>Node20</title>
<g id="a_node16"><a xlink:href="classgko_1_1EnablePolymorphicObject.html" target="_top" xlink:title=" ">
<polygon fill="#ffffff" stroke="#000000" points="1342,-166.5 1342,-196.5 1543,-196.5 1543,-166.5 1342,-166.5"/>
<text text-anchor="start" x="1350" y="-184.5" font-family="Helvetica,sans-Serif" font-size="10.00" fill="#000000">gko::EnablePolymorphicObject</text>
<text text-anchor="middle" x="1442.5" y="-173.5" font-family="Helvetica,sans-Serif" font-size="10.00" fill="#000000">&lt; ConcreteLinOp, PolymorphicBase &gt;</text>
</a>
</g>
</g>
<!-- Node13&#45;&gt;Node20 -->
<g id="edge23" class="edge">
<title>Node13&#45;&gt;Node20</title>
<path fill="none" stroke="#ffa500" stroke-dasharray="5,2" d="M1147.3118,-123.1935C1201.1661,-127.2369 1266.2999,-134.063 1324,-145.5 1349.731,-150.6003 1377.8499,-159.0154 1400.2369,-166.4275"/>
<polygon fill="#ffa500" stroke="#ffa500" points="1147.2726,-119.6815 1137.0448,-122.4459 1146.7642,-126.663 1147.2726,-119.6815"/>
<text text-anchor="start" x="1163" y="-159.5" font-family="Helvetica,sans-Serif" font-size="10.00" fill="#000000"> &lt; ConcreteLinOp, Polymorphic</text>
<text text-anchor="middle" x="1239.5" y="-148.5" font-family="Helvetica,sans-Serif" font-size="10.00" fill="#000000">Base &gt;</text>
</g>
<!-- Node14&#45;&gt;Node13 -->
<g id="edge10" class="edge">
<title>Node14&#45;&gt;Node13</title>
<path fill="none" stroke="#191970" d="M740.3684,-117.5C800.1586,-117.5 873.4543,-117.5 931.9206,-117.5"/>
<polygon fill="#191970" stroke="#191970" points="740.1328,-114.0001 730.1327,-117.5 740.1327,-121.0001 740.1328,-114.0001"/>
</g>
<!-- Node15 -->
<g id="node11" class="node">
<title>Node15</title>
<g id="a_node11"><a xlink:href="classgko_1_1EnablePolymorphicAssignment.html" target="_top" xlink:title=" ">
<polygon fill="#ffffff" stroke="#000000" points="1346.5,-235.5 1346.5,-265.5 1538.5,-265.5 1538.5,-235.5 1346.5,-235.5"/>
<text text-anchor="start" x="1354.5" y="-253.5" font-family="Helvetica,sans-Serif" font-size="10.00" fill="#000000">gko::EnablePolymorphicAssignment</text>
<text text-anchor="middle" x="1442.5" y="-242.5" font-family="Helvetica,sans-Serif" font-size="10.00" fill="#000000">&lt; Ell&lt; ValueType, IndexType &gt; &gt;</text>
</a>
</g>
</g>
<!-- Node15&#45;&gt;Node2 -->
<g id="edge13" class="edge">
<title>Node15&#45;&gt;Node2</title>
<path fill="none" stroke="#191970" d="M1549.0107,-255.2268C1639.0851,-259.4123 1771.5418,-266.0085 1887,-273.5 1965.2829,-278.5794 2054.6711,-285.705 2116.8175,-290.8714"/>
<polygon fill="#191970" stroke="#191970" points="1548.9398,-251.7199 1538.7887,-254.7538 1548.6162,-258.7124 1548.9398,-251.7199"/>
</g>
<!-- Node16 -->
<g id="node12" class="node">
<title>Node16</title>
<g id="a_node12"><a xlink:href="classgko_1_1ConvertibleTo.html" target="_top" xlink:title=" ">
<polygon fill="#ffffff" stroke="#000000" points="945,-210.5 945,-240.5 1124,-240.5 1124,-210.5 945,-210.5"/>
<text text-anchor="start" x="953" y="-228.5" font-family="Helvetica,sans-Serif" font-size="10.00" fill="#000000">gko::ConvertibleTo</text>
<text text-anchor="middle" x="1034.5" y="-217.5" font-family="Helvetica,sans-Serif" font-size="10.00" fill="#000000">&lt; Ell&lt; ValueType, IndexType &gt; &gt;</text>
</a>
</g>
</g>
<!-- Node16&#45;&gt;Node15 -->
<g id="edge14" class="edge">
<title>Node16&#45;&gt;Node15</title>
<path fill="none" stroke="#191970" d="M1134.237,-231.6113C1198.8466,-235.5703 1282.539,-240.6985 1346.412,-244.6123"/>
<polygon fill="#191970" stroke="#191970" points="1134.2327,-228.1046 1124.0373,-230.9864 1133.8045,-235.0915 1134.2327,-228.1046"/>
</g>
<!-- Node17 -->
<g id="node13" class="node">
<title>Node17</title>
<g id="a_node13"><a xlink:href="classgko_1_1ConvertibleTo.html" target="_top" xlink:title="ConvertibleTo interface is used to mark that the implementer can be converted to the object of Result...">
<polygon fill="#ffffff" stroke="#000000" points="576,-335.5 576,-365.5 683,-365.5 683,-335.5 576,-335.5"/>
<text text-anchor="start" x="584" y="-353.5" font-family="Helvetica,sans-Serif" font-size="10.00" fill="#000000">gko::ConvertibleTo</text>
<text text-anchor="middle" x="629.5" y="-342.5" font-family="Helvetica,sans-Serif" font-size="10.00" fill="#000000">&lt; ResultType &gt;</text>
</a>
</g>
</g>
<!-- Node17&#45;&gt;Node16 -->
<g id="edge15" class="edge">
<title>Node17&#45;&gt;Node16</title>
<path fill="none" stroke="#ffa500" stroke-dasharray="5,2" d="M657.1071,-329.3434C680.1786,-312.7176 714.5863,-290.3001 748,-277.5 811.3753,-253.2222 887.0712,-240.1071 944.7367,-233.1236"/>
<polygon fill="#ffa500" stroke="#ffa500" points="654.8413,-326.6646 648.8454,-335.3996 658.9798,-332.3102 654.8413,-326.6646"/>
<text text-anchor="middle" x="831" y="-280.5" font-family="Helvetica,sans-Serif" font-size="10.00" fill="#000000"> &lt; Ell&lt; ValueType, IndexType &gt; &gt;</text>
</g>
<!-- Node18 -->
<g id="node14" class="node">
<title>Node18</title>
<g id="a_node14"><a xlink:href="classgko_1_1EnablePolymorphicAssignment.html" target="_top" xlink:title="This mixin is used to enable a default PolymorphicObject::copy_from() implementation for objects that...">
<polygon fill="#ffffff" stroke="#000000" points="938.5,-259.5 938.5,-289.5 1130.5,-289.5 1130.5,-259.5 938.5,-259.5"/>
<text text-anchor="start" x="946.5" y="-277.5" font-family="Helvetica,sans-Serif" font-size="10.00" fill="#000000">gko::EnablePolymorphicAssignment</text>
<text text-anchor="middle" x="1034.5" y="-266.5" font-family="Helvetica,sans-Serif" font-size="10.00" fill="#000000">&lt; ConcreteType, ResultType &gt;</text>
</a>
</g>
</g>
<!-- Node17&#45;&gt;Node18 -->
<g id="edge17" class="edge">
<title>Node17&#45;&gt;Node18</title>
<path fill="none" stroke="#191970" d="M693.4501,-333.8898C711.0652,-329.5769 730.2187,-325.1286 748,-321.5 811.0914,-308.625 882.5601,-296.8957 938.3339,-288.3749"/>
<polygon fill="#191970" stroke="#191970" points="692.1452,-330.607 683.2784,-336.4062 693.8263,-337.4022 692.1452,-330.607"/>
</g>
<!-- Node23 -->
<g id="node19" class="node">
<title>Node23</title>
<g id="a_node19"><a xlink:href="classgko_1_1ConvertibleTo.html" target="_top" xlink:title=" ">
<polygon fill="#ffffff" stroke="#000000" points="979.5,-308.5 979.5,-338.5 1089.5,-338.5 1089.5,-308.5 979.5,-308.5"/>
<text text-anchor="start" x="987.5" y="-326.5" font-family="Helvetica,sans-Serif" font-size="10.00" fill="#000000">gko::ConvertibleTo</text>
<text text-anchor="middle" x="1034.5" y="-315.5" font-family="Helvetica,sans-Serif" font-size="10.00" fill="#000000">&lt; ConcreteLinOp &gt;</text>
</a>
</g>
</g>
<!-- Node17&#45;&gt;Node23 -->
<g id="edge26" class="edge">
<title>Node17&#45;&gt;Node23</title>
<path fill="none" stroke="#ffa500" stroke-dasharray="5,2" d="M693.2721,-340.7479C710.9583,-338.3547 730.1922,-336.0405 748,-334.5 828.3375,-327.5502 921.7272,-324.9913 979.4787,-324.0491"/>
<polygon fill="#ffa500" stroke="#ffa500" points="692.4859,-337.3232 683.06,-342.1608 693.4454,-344.2572 692.4859,-337.3232"/>
<text text-anchor="middle" x="831" y="-337.5" font-family="Helvetica,sans-Serif" font-size="10.00" fill="#000000"> &lt; ConcreteLinOp &gt;</text>
</g>
<!-- Node26 -->
<g id="node22" class="node">
<title>Node26</title>
<g id="a_node22"><a xlink:href="classgko_1_1ConvertibleTo.html" target="_top" xlink:title=" ">
<polygon fill="#ffffff" stroke="#000000" points="1156,-340 1156,-381 1323,-381 1323,-340 1156,-340"/>
<text text-anchor="start" x="1164" y="-369" font-family="Helvetica,sans-Serif" font-size="10.00" fill="#000000">gko::ConvertibleTo</text>
<text text-anchor="start" x="1164" y="-358" font-family="Helvetica,sans-Serif" font-size="10.00" fill="#000000">&lt; Ell&lt; next_precision</text>
<text text-anchor="middle" x="1239.5" y="-347" font-family="Helvetica,sans-Serif" font-size="10.00" fill="#000000">&lt; ValueType &gt;, IndexType &gt; &gt;</text>
</a>
</g>
</g>
<!-- Node17&#45;&gt;Node26 -->
<g id="edge31" class="edge">
<title>Node17&#45;&gt;Node26</title>
<path fill="none" stroke="#ffa500" stroke-dasharray="5,2" d="M693.1264,-351.5431C803.9366,-353.3596 1032.2867,-357.1031 1155.7908,-359.1277"/>
<polygon fill="#ffa500" stroke="#ffa500" points="693.1549,-348.0431 683.0988,-351.3787 693.0401,-355.0422 693.1549,-348.0431"/>
<text text-anchor="start" x="755.5" y="-368.5" font-family="Helvetica,sans-Serif" font-size="10.00" fill="#000000"> &lt; Ell&lt; next_precision</text>
<text text-anchor="middle" x="831" y="-357.5" font-family="Helvetica,sans-Serif" font-size="10.00" fill="#000000">&lt; ValueType &gt;, IndexType &gt; &gt;</text>
</g>
<!-- Node27 -->
<g id="node23" class="node">
<title>Node27</title>
<g id="a_node23"><a xlink:href="classgko_1_1ConvertibleTo.html" target="_top" xlink:title=" ">
<polygon fill="#ffffff" stroke="#000000" points="1561,-432.5 1561,-462.5 1703,-462.5 1703,-432.5 1561,-432.5"/>
<text text-anchor="start" x="1569" y="-450.5" font-family="Helvetica,sans-Serif" font-size="10.00" fill="#000000">gko::ConvertibleTo</text>
<text text-anchor="middle" x="1632" y="-439.5" font-family="Helvetica,sans-Serif" font-size="10.00" fill="#000000">&lt; Dense&lt; ValueType &gt; &gt;</text>
</a>
</g>
</g>
<!-- Node17&#45;&gt;Node27 -->
<g id="edge33" class="edge">
<title>Node17&#45;&gt;Node27</title>
<path fill="none" stroke="#ffa500" stroke-dasharray="5,2" d="M656.8557,-371.7631C679.7811,-388.2138 714.1148,-409.7754 748,-419.5 1039.8622,-503.2605 1408.2993,-474.325 1560.8561,-456.8205"/>
<polygon fill="#ffa500" stroke="#ffa500" points="658.7856,-368.838 648.6526,-365.7438 654.6443,-374.4817 658.7856,-368.838"/>
<text text-anchor="middle" x="1034.5" y="-476.5" font-family="Helvetica,sans-Serif" font-size="10.00" fill="#000000"> &lt; Dense&lt; ValueType &gt; &gt;</text>
</g>
<!-- Node28 -->
<g id="node24" class="node">
<title>Node28</title>
<g id="a_node24"><a xlink:href="classgko_1_1ConvertibleTo.html" target="_top" xlink:title=" ">
<polygon fill="#ffffff" stroke="#000000" points="1905,-389.5 1905,-419.5 2087,-419.5 2087,-389.5 1905,-389.5"/>
<text text-anchor="start" x="1913" y="-407.5" font-family="Helvetica,sans-Serif" font-size="10.00" fill="#000000">gko::ConvertibleTo</text>
<text text-anchor="middle" x="1996" y="-396.5" font-family="Helvetica,sans-Serif" font-size="10.00" fill="#000000">&lt; Csr&lt; ValueType, IndexType &gt; &gt;</text>
</a>
</g>
</g>
<!-- Node17&#45;&gt;Node28 -->
<g id="edge35" class="edge">
<title>Node17&#45;&gt;Node28</title>
<path fill="none" stroke="#ffa500" stroke-dasharray="5,2" d="M691.2061,-368.1209C709.373,-372.7642 729.3735,-377.3506 748,-380.5 874.0284,-401.8091 906.6828,-405.5 1034.5,-405.5 1034.5,-405.5 1034.5,-405.5 1632,-405.5 1724.8962,-405.5 1831.1276,-405.1703 1904.7492,-404.8895"/>
<polygon fill="#ffa500" stroke="#ffa500" points="691.8819,-364.6802 681.3224,-365.5442 690.116,-371.4538 691.8819,-364.6802"/>
<text text-anchor="middle" x="1239.5" y="-408.5" font-family="Helvetica,sans-Serif" font-size="10.00" fill="#000000"> &lt; Csr&lt; ValueType, IndexType &gt; &gt;</text>
</g>
<!-- Node18&#45;&gt;Node15 -->
<g id="edge16" class="edge">
<title>Node18&#45;&gt;Node15</title>
<path fill="none" stroke="#ffa500" stroke-dasharray="5,2" d="M1141.1265,-263.5504C1145.8128,-263.1737 1150.4535,-262.821 1155,-262.5 1218.6612,-258.0053 1290.38,-255.0082 1346.2614,-253.1334"/>
<polygon fill="#ffa500" stroke="#ffa500" points="1140.4879,-260.0914 1130.8134,-264.4105 1141.0698,-267.0672 1140.4879,-260.0914"/>
<text text-anchor="middle" x="1239.5" y="-265.5" font-family="Helvetica,sans-Serif" font-size="10.00" fill="#000000"> &lt; Ell&lt; ValueType, IndexType &gt; &gt;</text>
</g>
<!-- Node22 -->
<g id="node18" class="node">
<title>Node22</title>
<g id="a_node18"><a xlink:href="classgko_1_1EnablePolymorphicAssignment.html" target="_top" xlink:title=" ">
<polygon fill="#ffffff" stroke="#000000" points="1346.5,-285.5 1346.5,-315.5 1538.5,-315.5 1538.5,-285.5 1346.5,-285.5"/>
<text text-anchor="start" x="1354.5" y="-303.5" font-family="Helvetica,sans-Serif" font-size="10.00" fill="#000000">gko::EnablePolymorphicAssignment</text>
<text text-anchor="middle" x="1442.5" y="-292.5" font-family="Helvetica,sans-Serif" font-size="10.00" fill="#000000">&lt; ConcreteLinOp &gt;</text>
</a>
</g>
</g>
<!-- Node18&#45;&gt;Node22 -->
<g id="edge27" class="edge">
<title>Node18&#45;&gt;Node22</title>
<path fill="none" stroke="#ffa500" stroke-dasharray="5,2" d="M1140.7328,-281.2697C1204.3309,-285.3226 1284.5326,-290.4334 1346.2658,-294.3674"/>
<polygon fill="#ffa500" stroke="#ffa500" points="1140.876,-277.7719 1130.6737,-280.6287 1140.4308,-284.7577 1140.876,-277.7719"/>
<text text-anchor="middle" x="1239.5" y="-295.5" font-family="Helvetica,sans-Serif" font-size="10.00" fill="#000000"> &lt; ConcreteLinOp &gt;</text>
</g>
<!-- Node19 -->
<g id="node15" class="node">
<title>Node19</title>
<g id="a_node15"><a xlink:href="classgko_1_1EnableLinOp.html" target="_top" xlink:title="The EnableLinOp mixin can be used to provide sensible default implementations of the majority of the ...">
<polygon fill="#ffffff" stroke="#000000" points="1726,-282.5 1726,-312.5 1882,-312.5 1882,-282.5 1726,-282.5"/>
<text text-anchor="start" x="1734" y="-300.5" font-family="Helvetica,sans-Serif" font-size="10.00" fill="#000000">gko::EnableLinOp&lt; Concrete</text>
<text text-anchor="middle" x="1804" y="-289.5" font-family="Helvetica,sans-Serif" font-size="10.00" fill="#000000">LinOp, PolymorphicBase &gt;</text>
</a>
</g>
</g>
<!-- Node19&#45;&gt;Node2 -->
<g id="edge18" class="edge">
<title>Node19&#45;&gt;Node2</title>
<path fill="none" stroke="#ffa500" stroke-dasharray="5,2" d="M1892.2875,-297.5C1959.8505,-297.5 2052.1283,-297.5 2116.8838,-297.5"/>
<polygon fill="#ffa500" stroke="#ffa500" points="1892.085,-294.0001 1882.085,-297.5 1892.0849,-301.0001 1892.085,-294.0001"/>
<text text-anchor="middle" x="1996" y="-300.5" font-family="Helvetica,sans-Serif" font-size="10.00" fill="#000000"> &lt; Ell&lt; ValueType, IndexType &gt; &gt;</text>
</g>
<!-- Node20&#45;&gt;Node19 -->
<g id="edge19" class="edge">
<title>Node20&#45;&gt;Node19</title>
<path fill="none" stroke="#191970" d="M1499.0862,-199.6577C1570.2203,-222.4835 1691.0069,-261.2422 1757.1939,-282.4806"/>
<polygon fill="#191970" stroke="#191970" points="1499.9804,-196.2689 1489.3892,-196.5461 1497.8416,-202.9342 1499.9804,-196.2689"/>
</g>
<!-- Node21&#45;&gt;Node20 -->
<g id="edge20" class="edge">
<title>Node21&#45;&gt;Node20</title>
<path fill="none" stroke="#191970" d="M738.6122,-181.5C896.9635,-181.5 1188.2617,-181.5 1341.765,-181.5"/>
<polygon fill="#191970" stroke="#191970" points="738.377,-178.0001 728.377,-181.5 738.3769,-185.0001 738.377,-178.0001"/>
</g>
<!-- Node22&#45;&gt;Node19 -->
<g id="edge24" class="edge">
<title>Node22&#45;&gt;Node19</title>
<path fill="none" stroke="#191970" d="M1548.974,-299.6164C1605.6413,-299.1461 1674.0999,-298.578 1725.8151,-298.1488"/>
<polygon fill="#191970" stroke="#191970" points="1548.8711,-296.117 1538.9005,-299.7 1548.9292,-303.1168 1548.8711,-296.117"/>
</g>
<!-- Node23&#45;&gt;Node22 -->
<g id="edge25" class="edge">
<title>Node23&#45;&gt;Node22</title>
<path fill="none" stroke="#191970" d="M1099.9841,-320.3997C1158.671,-317.5514 1247.1049,-313.0874 1324,-308.5 1331.307,-308.0641 1338.8662,-307.5952 1346.4672,-307.1109"/>
<polygon fill="#191970" stroke="#191970" points="1099.5631,-316.9158 1089.7438,-320.8949 1099.9013,-323.9077 1099.5631,-316.9158"/>
</g>
<!-- Node24 -->
<g id="node20" class="node">
<title>Node24</title>
<g id="a_node20"><a xlink:href="classgko_1_1EnableCreateMethod.html" target="_top" xlink:title=" ">
<polygon fill="#ffffff" stroke="#000000" points="2105,-233.5 2105,-263.5 2284,-263.5 2284,-233.5 2105,-233.5"/>
<text text-anchor="start" x="2113" y="-251.5" font-family="Helvetica,sans-Serif" font-size="10.00" fill="#000000">gko::EnableCreateMethod</text>
<text text-anchor="middle" x="2194.5" y="-240.5" font-family="Helvetica,sans-Serif" font-size="10.00" fill="#000000">&lt; Ell&lt; ValueType, IndexType &gt; &gt;</text>
</a>
</g>
</g>
<!-- Node24&#45;&gt;Node1 -->
<g id="edge28" class="edge">
<title>Node24&#45;&gt;Node1</title>
<path fill="none" stroke="#191970" d="M2294.3092,-263.1778C2303.2185,-264.488 2312.1501,-265.8015 2320.8319,-267.0782"/>
<polygon fill="#191970" stroke="#191970" points="2294.6771,-259.6944 2284.2742,-261.7021 2293.6586,-266.6199 2294.6771,-259.6944"/>
</g>
<!-- Node25 -->
<g id="node21" class="node">
<title>Node25</title>
<g id="a_node21"><a xlink:href="classgko_1_1EnableCreateMethod.html" target="_top" xlink:title="This mixin implements a static create() method on ConcreteType that dynamically allocates the memory,...">
<polygon fill="#ffffff" stroke="#000000" points="1733,-71.5 1733,-101.5 1875,-101.5 1875,-71.5 1733,-71.5"/>
<text text-anchor="start" x="1741" y="-89.5" font-family="Helvetica,sans-Serif" font-size="10.00" fill="#000000">gko::EnableCreateMethod</text>
<text text-anchor="middle" x="1804" y="-78.5" font-family="Helvetica,sans-Serif" font-size="10.00" fill="#000000">&lt; ConcreteType &gt;</text>
</a>
</g>
</g>
<!-- Node25&#45;&gt;Node24 -->
<g id="edge29" class="edge">
<title>Node25&#45;&gt;Node24</title>
<path fill="none" stroke="#ffa500" stroke-dasharray="5,2" d="M1885.5451,-79.9347C1948.8349,-79.5342 2034.3929,-90.0175 2087,-141.5 2113.9775,-167.9008 2078.9634,-197.1708 2105,-224.5 2108.218,-227.8778 2111.8554,-230.7982 2115.776,-233.3217"/>
<polygon fill="#ffa500" stroke="#ffa500" points="1885.1353,-76.4406 1875.1916,-80.0975 1885.2454,-83.4397 1885.1353,-76.4406"/>
<text text-anchor="middle" x="1996" y="-144.5" font-family="Helvetica,sans-Serif" font-size="10.00" fill="#000000"> &lt; Ell&lt; ValueType, IndexType &gt; &gt;</text>
</g>
<!-- Node26&#45;&gt;Node1 -->
<g id="edge30" class="edge">
<title>Node26&#45;&gt;Node1</title>
<path fill="none" stroke="#191970" d="M1333.8013,-356.75C1413.2974,-353.912 1530.0695,-350.5 1632,-350.5 1632,-350.5 1632,-350.5 2194.5,-350.5 2262.2919,-350.5 2335.9022,-314.7063 2373.4243,-293.5936"/>
<polygon fill="#191970" stroke="#191970" points="1333.191,-353.2696 1323.3238,-357.1284 1333.4437,-360.2651 1333.191,-353.2696"/>
</g>
<!-- Node27&#45;&gt;Node1 -->
<g id="edge32" class="edge">
<title>Node27&#45;&gt;Node1</title>
<path fill="none" stroke="#191970" d="M1713.2302,-461.8226C1842.311,-480.4211 2098.5977,-500.0734 2284,-403.5 2333.8529,-377.5323 2373.053,-320.7313 2389.7454,-293.5611"/>
<polygon fill="#191970" stroke="#191970" points="1713.431,-458.3144 1703.027,-460.3162 1712.4086,-465.2393 1713.431,-458.3144"/>
</g>
<!-- Node28&#45;&gt;Node1 -->
<g id="edge34" class="edge">
<title>Node28&#45;&gt;Node1</title>
<path fill="none" stroke="#191970" d="M2097.4085,-406.2969C2159.3397,-403.8216 2238.7106,-394.0883 2303,-364.5 2338.672,-348.0825 2370.4337,-313.5906 2386.8011,-293.6365"/>
<polygon fill="#191970" stroke="#191970" points="2097.1075,-402.805 2087.2331,-406.645 2097.3469,-409.8009 2097.1075,-402.805"/>
</g>
<!-- Node29 -->
<g id="node25" class="node">
<title>Node29</title>
<g id="a_node25"><a xlink:href="classgko_1_1DiagonalExtractable.html" target="_top" xlink:title="The diagonal of a LinOp implementing this interface can be extracted.">
<polygon fill="#ffffff" stroke="#000000" points="2124.5,-184.5 2124.5,-214.5 2264.5,-214.5 2264.5,-184.5 2124.5,-184.5"/>
<text text-anchor="start" x="2132.5" y="-202.5" font-family="Helvetica,sans-Serif" font-size="10.00" fill="#000000">gko::DiagonalExtractable</text>
<text text-anchor="middle" x="2194.5" y="-191.5" font-family="Helvetica,sans-Serif" font-size="10.00" fill="#000000">&lt; ValueType &gt;</text>
</a>
</g>
</g>
<!-- Node29&#45;&gt;Node1 -->
<g id="edge36" class="edge">
<title>Node29&#45;&gt;Node1</title>
<path fill="none" stroke="#191970" d="M2263.2912,-217.441C2270.3385,-219.658 2277.3479,-222.0224 2284,-224.5 2314.0703,-235.6998 2347.0835,-251.6886 2369.9023,-263.3612"/>
<polygon fill="#191970" stroke="#191970" points="2264.2738,-214.0815 2253.6877,-214.5124 2262.2319,-220.7771 2264.2738,-214.0815"/>
</g>
<!-- Node30 -->
<g id="node26" class="node">
<title>Node30</title>
<g id="a_node26"><a xlink:href="classgko_1_1ReadableFromMatrixData.html" target="_top" xlink:title="A LinOp implementing this interface can read its data from a matrix_data structure.">
<polygon fill="#ffffff" stroke="#000000" points="2112.5,-135.5 2112.5,-165.5 2276.5,-165.5 2276.5,-135.5 2112.5,-135.5"/>
<text text-anchor="start" x="2120.5" y="-153.5" font-family="Helvetica,sans-Serif" font-size="10.00" fill="#000000">gko::ReadableFromMatrixData</text>
<text text-anchor="middle" x="2194.5" y="-142.5" font-family="Helvetica,sans-Serif" font-size="10.00" fill="#000000">&lt; ValueType, IndexType &gt;</text>
</a>
</g>
</g>
<!-- Node30&#45;&gt;Node1 -->
<g id="edge37" class="edge">
<title>Node30&#45;&gt;Node1</title>
<path fill="none" stroke="#191970" d="M2271.4511,-169.4269C2275.78,-171.279 2279.9947,-173.299 2284,-175.5 2326.4135,-198.8074 2366.0894,-240.6457 2385.6967,-263.1598"/>
<polygon fill="#191970" stroke="#191970" points="2272.4162,-166.0452 2261.8293,-165.6353 2269.8498,-172.5579 2272.4162,-166.0452"/>
</g>
<!-- Node31 -->
<g id="node27" class="node">
<title>Node31</title>
<g id="a_node27"><a xlink:href="classgko_1_1WritableToMatrixData.html" target="_top" xlink:title="A LinOp implementing this interface can write its data to a matrix_data structure.">
<polygon fill="#ffffff" stroke="#000000" points="2121.5,-86.5 2121.5,-116.5 2267.5,-116.5 2267.5,-86.5 2121.5,-86.5"/>
<text text-anchor="start" x="2129.5" y="-104.5" font-family="Helvetica,sans-Serif" font-size="10.00" fill="#000000">gko::WritableToMatrixData</text>
<text text-anchor="middle" x="2194.5" y="-93.5" font-family="Helvetica,sans-Serif" font-size="10.00" fill="#000000">&lt; ValueType, IndexType &gt;</text>
</a>
</g>
</g>
<!-- Node31&#45;&gt;Node1 -->
<g id="edge38" class="edge">
<title>Node31&#45;&gt;Node1</title>
<path fill="none" stroke="#191970" d="M2276.8532,-121.1355C2279.3162,-122.4943 2281.7063,-123.947 2284,-125.5 2337.846,-161.9573 2376.3581,-232.2751 2391.4528,-263.234"/>
<polygon fill="#191970" stroke="#191970" points="2278.1755,-117.8856 2267.6571,-116.6145 2275.0871,-124.1675 2278.1755,-117.8856"/>
</g>
</g>
</svg>
