<?xml version="1.0" encoding="UTF-8" standalone="no"?>
<!DOCTYPE svg PUBLIC "-//W3C//DTD SVG 1.1//EN"
 "http://www.w3.org/Graphics/SVG/1.1/DTD/svg11.dtd">
<!-- Generated by graphviz version 2.40.1 (20161225.0304)
 -->
<!-- Title: gko::accessor::squared_norm_operaton&lt; Operand &gt; Pages: 1 -->
<svg width="730pt" height="61pt"
 viewBox="0.00 0.00 730.00 61.00" xmlns="http://www.w3.org/2000/svg" xmlns:xlink="http://www.w3.org/1999/xlink">
<g id="graph0" class="graph" transform="scale(1 1) rotate(0) translate(4 57)">
<title>gko::accessor::squared_norm_operaton&lt; Operand &gt;</title>
<polygon fill="#ffffff" stroke="transparent" points="-4,4 -4,-57 726,-57 726,4 -4,4"/>
<!-- Node1 -->
<g id="node1" class="node">
<title>Node1</title>
<g id="a_node1"><a xlink:title=" ">
<polygon fill="#bfbfbf" stroke="#000000" points="562,-11.5 562,-41.5 722,-41.5 722,-11.5 562,-11.5"/>
<text text-anchor="start" x="570" y="-29.5" font-family="Helvetica,sans-Serif" font-size="10.00" fill="#000000">gko::accessor::squared</text>
<text text-anchor="middle" x="642" y="-18.5" font-family="Helvetica,sans-Serif" font-size="10.00" fill="#000000">_norm_operaton&lt; Operand &gt;</text>
</a>
</g>
</g>
<!-- Node2 -->
<g id="node2" class="node">
<title>Node2</title>
<g id="a_node2"><a xlink:title=" ">
<polygon fill="#ffffff" stroke="#bfbfbf" points="368,-.5 368,-52.5 525,-52.5 525,-.5 368,-.5"/>
<text text-anchor="start" x="376" y="-40.5" font-family="Helvetica,sans-Serif" font-size="10.00" fill="#000000">gko::detail::implement</text>
<text text-anchor="start" x="376" y="-29.5" font-family="Helvetica,sans-Serif" font-size="10.00" fill="#000000">_unary_operation&lt; Operand,</text>
<text text-anchor="start" x="376" y="-18.5" font-family="Helvetica,sans-Serif" font-size="10.00" fill="#000000"> ::gko::accessor::detail</text>
<text text-anchor="middle" x="446.5" y="-7.5" font-family="Helvetica,sans-Serif" font-size="10.00" fill="#000000">::squared_norm_operation &gt;</text>
</a>
</g>
</g>
<!-- Node2&#45;&gt;Node1 -->
<g id="edge1" class="edge">
<title>Node2&#45;&gt;Node1</title>
<path fill="none" stroke="#191970" d="M535.4568,-26.5C544.2702,-26.5 553.1796,-26.5 561.8954,-26.5"/>
<polygon fill="#191970" stroke="#191970" points="535.1723,-23.0001 525.1723,-26.5 535.1722,-30.0001 535.1723,-23.0001"/>
</g>
<!-- Node3 -->
<g id="node3" class="node">
<title>Node3</title>
<g id="a_node3"><a xlink:title=" ">
<polygon fill="#ffffff" stroke="#bfbfbf" points="0,-6 0,-47 159,-47 159,-6 0,-6"/>
<text text-anchor="start" x="8" y="-35" font-family="Helvetica,sans-Serif" font-size="10.00" fill="#000000">gko::detail::implement</text>
<text text-anchor="start" x="8" y="-24" font-family="Helvetica,sans-Serif" font-size="10.00" fill="#000000">_unary_operation&lt; Accessor,</text>
<text text-anchor="middle" x="79.5" y="-13" font-family="Helvetica,sans-Serif" font-size="10.00" fill="#000000"> Operation &gt;</text>
</a>
</g>
</g>
<!-- Node3&#45;&gt;Node2 -->
<g id="edge2" class="edge">
<title>Node3&#45;&gt;Node2</title>
<path fill="none" stroke="#ffa500" stroke-dasharray="5,2" d="M169.4879,-26.5C230.2739,-26.5 309.7432,-26.5 367.9681,-26.5"/>
<polygon fill="#ffa500" stroke="#ffa500" points="169.1336,-23.0001 159.1335,-26.5 169.1335,-30.0001 169.1336,-23.0001"/>
<text text-anchor="start" x="177" y="-40.5" font-family="Helvetica,sans-Serif" font-size="10.00" fill="#000000"> &lt; Operand, ::gko::accessor</text>
<text text-anchor="middle" x="263.5" y="-29.5" font-family="Helvetica,sans-Serif" font-size="10.00" fill="#000000">::detail::squared_norm_operation &gt;</text>
</g>
</g>
</svg>
