<?xml version="1.0" encoding="UTF-8" standalone="no"?>
<!DOCTYPE svg PUBLIC "-//W3C//DTD SVG 1.1//EN"
 "http://www.w3.org/Graphics/SVG/1.1/DTD/svg11.dtd">
<!-- Generated by graphviz version 2.40.1 (20161225.0304)
 -->
<!-- Title: gko::accessor::bitwise_xor&lt; Kind, FirstOperand, SecondOperand &gt; Pages: 1 -->
<svg width="746pt" height="68pt"
 viewBox="0.00 0.00 746.00 67.50" xmlns="http://www.w3.org/2000/svg" xmlns:xlink="http://www.w3.org/1999/xlink">
<g id="graph0" class="graph" transform="scale(1 1) rotate(0) translate(4 63.5)">
<title>gko::accessor::bitwise_xor&lt; Kind, FirstOperand, SecondOperand &gt;</title>
<polygon fill="#ffffff" stroke="transparent" points="-4,4 -4,-63.5 742,-63.5 742,4 -4,4"/>
<!-- Node1 -->
<g id="node1" class="node">
<title>Node1</title>
<g id="a_node1"><a xlink:title=" ">
<polygon fill="#bfbfbf" stroke="#000000" points="597,-6 597,-47 738,-47 738,-6 597,-6"/>
<text text-anchor="start" x="605" y="-35" font-family="Helvetica,sans-Serif" font-size="10.00" fill="#000000">gko::accessor::bitwise</text>
<text text-anchor="start" x="605" y="-24" font-family="Helvetica,sans-Serif" font-size="10.00" fill="#000000">_xor&lt; Kind, FirstOperand,</text>
<text text-anchor="middle" x="667.5" y="-13" font-family="Helvetica,sans-Serif" font-size="10.00" fill="#000000"> SecondOperand &gt;</text>
</a>
</g>
</g>
<!-- Node2 -->
<g id="node2" class="node">
<title>Node2</title>
<g id="a_node2"><a xlink:title=" ">
<polygon fill="#ffffff" stroke="#bfbfbf" points="360,-.5 360,-52.5 560,-52.5 560,-.5 360,-.5"/>
<text text-anchor="start" x="368" y="-40.5" font-family="Helvetica,sans-Serif" font-size="10.00" fill="#000000">gko::detail::implement</text>
<text text-anchor="start" x="368" y="-29.5" font-family="Helvetica,sans-Serif" font-size="10.00" fill="#000000">_binary_operation&lt; Kind,</text>
<text text-anchor="start" x="368" y="-18.5" font-family="Helvetica,sans-Serif" font-size="10.00" fill="#000000"> FirstOperand, SecondOperand,</text>
<text text-anchor="middle" x="460" y="-7.5" font-family="Helvetica,sans-Serif" font-size="10.00" fill="#000000"> ::gko::accessor::detail::bitwise_xor &gt;</text>
</a>
</g>
</g>
<!-- Node2&#45;&gt;Node1 -->
<g id="edge1" class="edge">
<title>Node2&#45;&gt;Node1</title>
<path fill="none" stroke="#191970" d="M570.3059,-26.5C579.3306,-26.5 588.2889,-26.5 596.9061,-26.5"/>
<polygon fill="#191970" stroke="#191970" points="570.1032,-23.0001 560.1032,-26.5 570.1032,-30.0001 570.1032,-23.0001"/>
</g>
<!-- Node3 -->
<g id="node3" class="node">
<title>Node3</title>
<g id="a_node3"><a xlink:title=" ">
<polygon fill="#ffffff" stroke="#bfbfbf" points="0,-.5 0,-52.5 167,-52.5 167,-.5 0,-.5"/>
<text text-anchor="start" x="8" y="-40.5" font-family="Helvetica,sans-Serif" font-size="10.00" fill="#000000">gko::detail::implement</text>
<text text-anchor="start" x="8" y="-29.5" font-family="Helvetica,sans-Serif" font-size="10.00" fill="#000000">_binary_operation&lt; Kind,</text>
<text text-anchor="start" x="8" y="-18.5" font-family="Helvetica,sans-Serif" font-size="10.00" fill="#000000"> FirstOperand, SecondOperand,</text>
<text text-anchor="middle" x="83.5" y="-7.5" font-family="Helvetica,sans-Serif" font-size="10.00" fill="#000000"> Operation &gt;</text>
</a>
</g>
</g>
<!-- Node3&#45;&gt;Node2 -->
<g id="edge2" class="edge">
<title>Node3&#45;&gt;Node2</title>
<path fill="none" stroke="#ffa500" stroke-dasharray="5,2" d="M177.2593,-26.5C232.8561,-26.5 303.2983,-26.5 359.9623,-26.5"/>
<polygon fill="#ffa500" stroke="#ffa500" points="177.0576,-23.0001 167.0576,-26.5 177.0575,-30.0001 177.0576,-23.0001"/>
<text text-anchor="start" x="185" y="-51.5" font-family="Helvetica,sans-Serif" font-size="10.00" fill="#000000"> &lt; Kind, FirstOperand,</text>
<text text-anchor="start" x="185" y="-40.5" font-family="Helvetica,sans-Serif" font-size="10.00" fill="#000000"> SecondOperand, ::gko</text>
<text text-anchor="middle" x="263.5" y="-29.5" font-family="Helvetica,sans-Serif" font-size="10.00" fill="#000000">::accessor::detail::bitwise_xor &gt;</text>
</g>
</g>
</svg>
