<?xml version="1.0" encoding="UTF-8" standalone="no"?>
<!DOCTYPE svg PUBLIC "-//W3C//DTD SVG 1.1//EN"
 "http://www.w3.org/Graphics/SVG/1.1/DTD/svg11.dtd">
<!-- Generated by graphviz version 2.40.1 (20161225.0304)
 -->
<!-- Title: gko::matrix::Sellp&lt; ValueType, IndexType &gt; Pages: 1 -->
<!--zoomable 544 -->
<svg id="main" version="1.1" xmlns="http://www.w3.org/2000/svg" xmlns:xlink="http://www.w3.org/1999/xlink" xml:space="preserve" onload="init(evt)">
<style type="text/css"><![CDATA[
.edge:hover path { stroke: red; }
.edge:hover polygon { stroke: red; fill: red; }
]]></style>
<script type="text/javascript"><![CDATA[
var edges = document.getElementsByTagName('g');
if (edges && edges.length) {
  for (var i=0;i<edges.length;i++) {
    if (edges[i].id.substr(0,4)=='edge') {
      edges[i].setAttribute('class','edge');
    }
  }
}
]]></script>
        <defs>
                <circle id="rim" cx="0" cy="0" r="7"/>
                <circle id="rim2" cx="0" cy="0" r="3.5"/>
                <g id="zoomPlus">
                        <use xlink:href="#rim" fill="#404040">
                                <set attributeName="fill" to="#808080" begin="zoomplus.mouseover" end="zoomplus.mouseout"/>
                        </use>
                        <path d="M-4,0h8M0,-4v8" fill="none" stroke="white" stroke-width="1.5" pointer-events="none"/>
                </g>
                <g id="zoomMin">
                        <use xlink:href="#rim" fill="#404040">
                                <set attributeName="fill" to="#808080" begin="zoomminus.mouseover" end="zoomminus.mouseout"/>
                        </use>
                        <path d="M-4,0h8" fill="none" stroke="white" stroke-width="1.5" pointer-events="none"/>
                </g>
                <g id="dirArrow">
                        <path fill="none" stroke="white" stroke-width="1.5" d="M0,-3.0v7 M-2.5,-0.5L0,-3.0L2.5,-0.5"/>
                </g>
               <g id="resetDef">
                       <use xlink:href="#rim2" fill="#404040">
                               <set attributeName="fill" to="#808080" begin="reset.mouseover" end="reset.mouseout"/>
                       </use>
               </g>
        </defs>

<script type="text/javascript">
var viewWidth = 2395;
var viewHeight = 544;
var sectionId = 'dynsection-0';
</script>
<script xlink:href="svgpan.js"/>
<svg id="graph" class="graph">
<g id="viewport">
<title>gko::matrix::Sellp&lt; ValueType, IndexType &gt;</title>
<polygon fill="#ffffff" stroke="transparent" points="-4,4 -4,-540 2391,-540 2391,4 -4,4"/>
<!-- Node1 -->
<g id="node1" class="node">
<title>Node1</title>
<g id="a_node1"><a xlink:title="SELL&#45;P is a matrix format similar to ELL format.">
<polygon fill="#bfbfbf" stroke="#000000" points="2243,-115.5 2243,-145.5 2387,-145.5 2387,-115.5 2243,-115.5"/>
<text text-anchor="start" x="2251" y="-133.5" font-family="Helvetica,sans-Serif" font-size="10.00" fill="#000000">gko::matrix::Sellp</text>
<text text-anchor="middle" x="2315" y="-122.5" font-family="Helvetica,sans-Serif" font-size="10.00" fill="#000000">&lt; ValueType, IndexType &gt;</text>
</a>
</g>
</g>
<!-- Node2 -->
<g id="node2" class="node">
<title>Node2</title>
<g id="a_node2"><a xlink:href="classgko_1_1EnableLinOp.html" target="_top" xlink:title=" ">
<polygon fill="#ffffff" stroke="#000000" points="2033,-240.5 2033,-270.5 2188,-270.5 2188,-240.5 2033,-240.5"/>
<text text-anchor="start" x="2041" y="-258.5" font-family="Helvetica,sans-Serif" font-size="10.00" fill="#000000">gko::EnableLinOp&lt; Sellp</text>
<text text-anchor="middle" x="2110.5" y="-247.5" font-family="Helvetica,sans-Serif" font-size="10.00" fill="#000000">&lt; ValueType, IndexType &gt; &gt;</text>
</a>
</g>
</g>
<!-- Node2&#45;&gt;Node1 -->
<g id="edge1" class="edge">
<title>Node2&#45;&gt;Node1</title>
<path fill="none" stroke="#191970" d="M2169.1606,-236.9813C2187.6844,-229.9593 2207.7944,-221.062 2225,-210.5 2255.1097,-192.0165 2284.6878,-163.0725 2301.3141,-145.5344"/>
<polygon fill="#191970" stroke="#191970" points="2167.8198,-233.7451 2159.6422,-240.4813 2170.2357,-240.315 2167.8198,-233.7451"/>
</g>
<!-- Node3 -->
<g id="node3" class="node">
<title>Node3</title>
<g id="a_node3"><a xlink:href="classgko_1_1EnablePolymorphicObject.html" target="_top" xlink:title=" ">
<polygon fill="#ffffff" stroke="#000000" points="1708,-402 1708,-443 1876,-443 1876,-402 1708,-402"/>
<text text-anchor="start" x="1716" y="-431" font-family="Helvetica,sans-Serif" font-size="10.00" fill="#000000">gko::EnablePolymorphicObject</text>
<text text-anchor="start" x="1716" y="-420" font-family="Helvetica,sans-Serif" font-size="10.00" fill="#000000">&lt; Sellp&lt; ValueType, IndexType</text>
<text text-anchor="middle" x="1792" y="-409" font-family="Helvetica,sans-Serif" font-size="10.00" fill="#000000"> &gt;, LinOp &gt;</text>
</a>
</g>
</g>
<!-- Node3&#45;&gt;Node2 -->
<g id="edge2" class="edge">
<title>Node3&#45;&gt;Node2</title>
<path fill="none" stroke="#191970" d="M1840.4911,-397.0745C1907.6389,-361.8667 2026.8349,-299.3684 2081.5644,-270.6719"/>
<polygon fill="#191970" stroke="#191970" points="1838.6049,-394.1115 1831.3738,-401.855 1841.8555,-400.311 1838.6049,-394.1115"/>
</g>
<!-- Node4 -->
<g id="node4" class="node">
<title>Node4</title>
<g id="a_node4"><a xlink:href="classgko_1_1EnableAbstractPolymorphicObject.html" target="_top" xlink:title=" ">
<polygon fill="#ffffff" stroke="#000000" points="1302,-463 1302,-504 1477,-504 1477,-463 1302,-463"/>
<text text-anchor="start" x="1310" y="-492" font-family="Helvetica,sans-Serif" font-size="10.00" fill="#000000">gko::EnableAbstractPolymorphic</text>
<text text-anchor="start" x="1310" y="-481" font-family="Helvetica,sans-Serif" font-size="10.00" fill="#000000">Object&lt; Sellp&lt; ValueType,</text>
<text text-anchor="middle" x="1389.5" y="-470" font-family="Helvetica,sans-Serif" font-size="10.00" fill="#000000"> IndexType &gt;, LinOp &gt;</text>
</a>
</g>
</g>
<!-- Node4&#45;&gt;Node3 -->
<g id="edge3" class="edge">
<title>Node4&#45;&gt;Node3</title>
<path fill="none" stroke="#191970" d="M1487.5423,-468.6414C1554.9627,-458.4237 1643.5708,-444.9949 1707.799,-435.2609"/>
<polygon fill="#191970" stroke="#191970" points="1486.6956,-465.2297 1477.333,-470.1887 1487.7445,-472.1507 1486.6956,-465.2297"/>
</g>
<!-- Node5 -->
<g id="node5" class="node">
<title>Node5</title>
<g id="a_node5"><a xlink:href="classgko_1_1LinOp.html" target="_top" xlink:title=" ">
<polygon fill="#ffffff" stroke="#000000" points="963.5,-507 963.5,-526 1031.5,-526 1031.5,-507 963.5,-507"/>
<text text-anchor="middle" x="997.5" y="-514" font-family="Helvetica,sans-Serif" font-size="10.00" fill="#000000">gko::LinOp</text>
</a>
</g>
</g>
<!-- Node5&#45;&gt;Node4 -->
<g id="edge4" class="edge">
<title>Node5&#45;&gt;Node4</title>
<path fill="none" stroke="#191970" d="M1041.5774,-512.7894C1104.3955,-507.5011 1220.9999,-497.685 1301.805,-490.8825"/>
<polygon fill="#191970" stroke="#191970" points="1041.2728,-509.3026 1031.6017,-513.6292 1041.8601,-516.2779 1041.2728,-509.3026"/>
</g>
<!-- Node6 -->
<g id="node6" class="node">
<title>Node6</title>
<g id="a_node6"><a xlink:href="classgko_1_1EnableAbstractPolymorphicObject.html" target="_top" xlink:title=" ">
<polygon fill="#ffffff" stroke="#ff0000" points="542,-505.5 542,-535.5 717,-535.5 717,-505.5 542,-505.5"/>
<text text-anchor="start" x="550" y="-523.5" font-family="Helvetica,sans-Serif" font-size="10.00" fill="#000000">gko::EnableAbstractPolymorphic</text>
<text text-anchor="middle" x="629.5" y="-512.5" font-family="Helvetica,sans-Serif" font-size="10.00" fill="#000000">Object&lt; LinOp &gt;</text>
</a>
</g>
</g>
<!-- Node6&#45;&gt;Node5 -->
<g id="edge5" class="edge">
<title>Node6&#45;&gt;Node5</title>
<path fill="none" stroke="#191970" d="M727.5197,-519.4346C805.5493,-518.5864 910.1921,-517.449 963.3753,-516.8709"/>
<polygon fill="#191970" stroke="#191970" points="727.139,-515.9384 717.1776,-519.547 727.2151,-522.938 727.139,-515.9384"/>
</g>
<!-- Node11 -->
<g id="node7" class="node">
<title>Node11</title>
<g id="a_node7"><a xlink:href="classgko_1_1EnableAbstractPolymorphicObject.html" target="_top" xlink:title="This mixin inherits from (a subclass of) PolymorphicObject and provides a base implementation of a ne...">
<polygon fill="#ffffff" stroke="#000000" points="138,-435 138,-476 336,-476 336,-435 138,-435"/>
<text text-anchor="start" x="146" y="-464" font-family="Helvetica,sans-Serif" font-size="10.00" fill="#000000">gko::EnableAbstractPolymorphic</text>
<text text-anchor="start" x="146" y="-453" font-family="Helvetica,sans-Serif" font-size="10.00" fill="#000000">Object&lt; AbstractObject, Polymorphic</text>
<text text-anchor="middle" x="237" y="-442" font-family="Helvetica,sans-Serif" font-size="10.00" fill="#000000">Base &gt;</text>
</a>
</g>
</g>
<!-- Node11&#45;&gt;Node4 -->
<g id="edge8" class="edge">
<title>Node11&#45;&gt;Node4</title>
<path fill="none" stroke="#ffa500" stroke-dasharray="5,2" d="M346.3116,-462.1762C348.899,-462.2903 351.4648,-462.3985 354,-462.5 705.025,-476.5547 1123.3831,-481.3882 1301.845,-482.8893"/>
<polygon fill="#ffa500" stroke="#ffa500" points="346.395,-458.6764 336.2435,-461.7093 346.0707,-465.6689 346.395,-458.6764"/>
<text text-anchor="start" x="758" y="-490.5" font-family="Helvetica,sans-Serif" font-size="10.00" fill="#000000"> &lt; Sellp&lt; ValueType,</text>
<text text-anchor="middle" x="812.5" y="-479.5" font-family="Helvetica,sans-Serif" font-size="10.00" fill="#000000"> IndexType &gt;, LinOp &gt;</text>
</g>
<!-- Node11&#45;&gt;Node6 -->
<g id="edge6" class="edge">
<title>Node11&#45;&gt;Node6</title>
<path fill="none" stroke="#ffa500" stroke-dasharray="5,2" d="M307.8795,-478.9538C322.9743,-483.3131 338.9134,-487.4486 354,-490.5 416.1302,-503.0665 487.2798,-510.6443 541.7091,-515.0397"/>
<polygon fill="#ffa500" stroke="#ffa500" points="308.6812,-475.5412 298.0994,-476.066 306.6988,-482.2547 308.6812,-475.5412"/>
<text text-anchor="middle" x="432.5" y="-514.5" font-family="Helvetica,sans-Serif" font-size="10.00" fill="#000000"> &lt; LinOp &gt;</text>
</g>
<!-- Node14 -->
<g id="node10" class="node">
<title>Node14</title>
<g id="a_node10"><a xlink:href="classgko_1_1EnableAbstractPolymorphicObject.html" target="_top" xlink:title=" ">
<polygon fill="#ffffff" stroke="#000000" points="529,-397 529,-438 730,-438 730,-397 529,-397"/>
<text text-anchor="start" x="537" y="-426" font-family="Helvetica,sans-Serif" font-size="10.00" fill="#000000">gko::EnableAbstractPolymorphic</text>
<text text-anchor="start" x="537" y="-415" font-family="Helvetica,sans-Serif" font-size="10.00" fill="#000000">Object&lt; ConcreteObject, Polymorphic</text>
<text text-anchor="middle" x="629.5" y="-404" font-family="Helvetica,sans-Serif" font-size="10.00" fill="#000000">Base &gt;</text>
</a>
</g>
</g>
<!-- Node11&#45;&gt;Node14 -->
<g id="edge12" class="edge">
<title>Node11&#45;&gt;Node14</title>
<path fill="none" stroke="#ffa500" stroke-dasharray="5,2" d="M346.3005,-441.3326C348.8913,-441.0467 351.4607,-440.7686 354,-440.5 411.8725,-434.3775 476.7267,-428.8951 528.9667,-424.8199"/>
<polygon fill="#ffa500" stroke="#ffa500" points="345.7655,-437.8707 336.2216,-442.4711 346.5512,-444.8265 345.7655,-437.8707"/>
<text text-anchor="start" x="354" y="-454.5" font-family="Helvetica,sans-Serif" font-size="10.00" fill="#000000"> &lt; ConcreteObject, Polymorphic</text>
<text text-anchor="middle" x="432.5" y="-443.5" font-family="Helvetica,sans-Serif" font-size="10.00" fill="#000000">Base &gt;</text>
</g>
<!-- Node21 -->
<g id="node17" class="node">
<title>Node21</title>
<g id="a_node17"><a xlink:href="classgko_1_1EnableAbstractPolymorphicObject.html" target="_top" xlink:title=" ">
<polygon fill="#ffffff" stroke="#000000" points="531,-332 531,-373 728,-373 728,-332 531,-332"/>
<text text-anchor="start" x="539" y="-361" font-family="Helvetica,sans-Serif" font-size="10.00" fill="#000000">gko::EnableAbstractPolymorphic</text>
<text text-anchor="start" x="539" y="-350" font-family="Helvetica,sans-Serif" font-size="10.00" fill="#000000">Object&lt; ConcreteLinOp, Polymorphic</text>
<text text-anchor="middle" x="629.5" y="-339" font-family="Helvetica,sans-Serif" font-size="10.00" fill="#000000">Base &gt;</text>
</a>
</g>
</g>
<!-- Node11&#45;&gt;Node21 -->
<g id="edge22" class="edge">
<title>Node11&#45;&gt;Node21</title>
<path fill="none" stroke="#ffa500" stroke-dasharray="5,2" d="M282.413,-430.1335C303.6047,-419.2541 329.5093,-407.2827 354,-399.5 411.2246,-381.315 477.5019,-369.7285 530.7078,-362.6105"/>
<polygon fill="#ffa500" stroke="#ffa500" points="280.5784,-427.143 273.3344,-434.8746 283.8187,-433.3479 280.5784,-427.143"/>
<text text-anchor="start" x="356" y="-413.5" font-family="Helvetica,sans-Serif" font-size="10.00" fill="#000000"> &lt; ConcreteLinOp, Polymorphic</text>
<text text-anchor="middle" x="432.5" y="-402.5" font-family="Helvetica,sans-Serif" font-size="10.00" fill="#000000">Base &gt;</text>
</g>
<!-- Node12 -->
<g id="node8" class="node">
<title>Node12</title>
<g id="a_node8"><a xlink:title=" ">
<polygon fill="#ffffff" stroke="#bfbfbf" points="0,-397 0,-416 101,-416 101,-397 0,-397"/>
<text text-anchor="middle" x="50.5" y="-404" font-family="Helvetica,sans-Serif" font-size="10.00" fill="#000000">PolymorphicBase</text>
</a>
</g>
</g>
<!-- Node12&#45;&gt;Node11 -->
<g id="edge7" class="edge">
<title>Node12&#45;&gt;Node11</title>
<path fill="none" stroke="#191970" d="M96.6373,-418.6219C115.3596,-423.5409 137.5184,-429.3628 158.6324,-434.9101"/>
<polygon fill="#191970" stroke="#191970" points="97.463,-415.2201 86.9018,-416.064 95.6842,-421.9903 97.463,-415.2201"/>
</g>
<!-- Node12&#45;&gt;Node14 -->
<g id="edge11" class="edge">
<title>Node12&#45;&gt;Node14</title>
<path fill="none" stroke="#191970" d="M111.2841,-407.6548C210.5662,-409.541 408.5048,-413.3015 528.9546,-415.5898"/>
<polygon fill="#191970" stroke="#191970" points="111.1867,-404.1524 101.122,-407.4617 111.0537,-411.1511 111.1867,-404.1524"/>
</g>
<!-- Node12&#45;&gt;Node21 -->
<g id="edge21" class="edge">
<title>Node12&#45;&gt;Node21</title>
<path fill="none" stroke="#191970" d="M110.89,-395.4609C171.9644,-384.7894 269.1962,-369.1468 354,-361.5 412.5051,-356.2246 478.2457,-353.939 530.832,-352.9889"/>
<polygon fill="#191970" stroke="#191970" points="110.2768,-392.0149 101.0345,-397.1947 111.4897,-398.9091 110.2768,-392.0149"/>
</g>
<!-- Node13 -->
<g id="node9" class="node">
<title>Node13</title>
<g id="a_node9"><a xlink:href="classgko_1_1EnablePolymorphicObject.html" target="_top" xlink:title="This mixin inherits from (a subclass of) PolymorphicObject and provides a base implementation of a ne...">
<polygon fill="#ffffff" stroke="#000000" points="895,-402.5 895,-432.5 1100,-432.5 1100,-402.5 895,-402.5"/>
<text text-anchor="start" x="903" y="-420.5" font-family="Helvetica,sans-Serif" font-size="10.00" fill="#000000">gko::EnablePolymorphicObject</text>
<text text-anchor="middle" x="997.5" y="-409.5" font-family="Helvetica,sans-Serif" font-size="10.00" fill="#000000">&lt; ConcreteObject, PolymorphicBase &gt;</text>
</a>
</g>
</g>
<!-- Node13&#45;&gt;Node3 -->
<g id="edge9" class="edge">
<title>Node13&#45;&gt;Node3</title>
<path fill="none" stroke="#ffa500" stroke-dasharray="5,2" d="M1110.5753,-418.2116C1271.8323,-419.2264 1564.1979,-421.0664 1707.8026,-421.9701"/>
<polygon fill="#ffa500" stroke="#ffa500" points="1110.168,-414.7091 1100.1462,-418.146 1110.1239,-421.7089 1110.168,-414.7091"/>
<text text-anchor="start" x="1335" y="-434.5" font-family="Helvetica,sans-Serif" font-size="10.00" fill="#000000"> &lt; Sellp&lt; ValueType,</text>
<text text-anchor="middle" x="1389.5" y="-423.5" font-family="Helvetica,sans-Serif" font-size="10.00" fill="#000000"> IndexType &gt;, LinOp &gt;</text>
</g>
<!-- Node20 -->
<g id="node16" class="node">
<title>Node20</title>
<g id="a_node16"><a xlink:href="classgko_1_1EnablePolymorphicObject.html" target="_top" xlink:title=" ">
<polygon fill="#ffffff" stroke="#000000" points="1289,-337.5 1289,-367.5 1490,-367.5 1490,-337.5 1289,-337.5"/>
<text text-anchor="start" x="1297" y="-355.5" font-family="Helvetica,sans-Serif" font-size="10.00" fill="#000000">gko::EnablePolymorphicObject</text>
<text text-anchor="middle" x="1389.5" y="-344.5" font-family="Helvetica,sans-Serif" font-size="10.00" fill="#000000">&lt; ConcreteLinOp, PolymorphicBase &gt;</text>
</a>
</g>
</g>
<!-- Node13&#45;&gt;Node20 -->
<g id="edge23" class="edge">
<title>Node13&#45;&gt;Node20</title>
<path fill="none" stroke="#ffa500" stroke-dasharray="5,2" d="M1059.7937,-399.8644C1078.4068,-395.0322 1098.9335,-390.1311 1118,-386.5 1174.1145,-375.8133 1237.4166,-367.6644 1288.7727,-362.0271"/>
<polygon fill="#ffa500" stroke="#ffa500" points="1058.7408,-396.5223 1049.963,-402.4553 1060.5248,-403.2911 1058.7408,-396.5223"/>
<text text-anchor="start" x="1118" y="-400.5" font-family="Helvetica,sans-Serif" font-size="10.00" fill="#000000"> &lt; ConcreteLinOp, Polymorphic</text>
<text text-anchor="middle" x="1194.5" y="-389.5" font-family="Helvetica,sans-Serif" font-size="10.00" fill="#000000">Base &gt;</text>
</g>
<!-- Node14&#45;&gt;Node13 -->
<g id="edge10" class="edge">
<title>Node14&#45;&gt;Node13</title>
<path fill="none" stroke="#191970" d="M740.0843,-417.5C789.2,-417.5 846.6641,-417.5 894.8233,-417.5"/>
<polygon fill="#191970" stroke="#191970" points="740.0577,-414.0001 730.0576,-417.5 740.0576,-421.0001 740.0577,-414.0001"/>
</g>
<!-- Node15 -->
<g id="node11" class="node">
<title>Node15</title>
<g id="a_node11"><a xlink:href="classgko_1_1EnablePolymorphicAssignment.html" target="_top" xlink:title=" ">
<polygon fill="#ffffff" stroke="#000000" points="1293.5,-222.5 1293.5,-252.5 1485.5,-252.5 1485.5,-222.5 1293.5,-222.5"/>
<text text-anchor="start" x="1301.5" y="-240.5" font-family="Helvetica,sans-Serif" font-size="10.00" fill="#000000">gko::EnablePolymorphicAssignment</text>
<text text-anchor="middle" x="1389.5" y="-229.5" font-family="Helvetica,sans-Serif" font-size="10.00" fill="#000000">&lt; Sellp&lt; ValueType, IndexType &gt; &gt;</text>
</a>
</g>
</g>
<!-- Node15&#45;&gt;Node2 -->
<g id="edge13" class="edge">
<title>Node15&#45;&gt;Node2</title>
<path fill="none" stroke="#191970" d="M1495.9759,-240.1582C1642.6496,-243.82 1903.3876,-250.3294 2032.9609,-253.5642"/>
<polygon fill="#191970" stroke="#191970" points="1495.7002,-236.6503 1485.6159,-239.8996 1495.5254,-243.6481 1495.7002,-236.6503"/>
</g>
<!-- Node16 -->
<g id="node12" class="node">
<title>Node16</title>
<g id="a_node12"><a xlink:href="classgko_1_1ConvertibleTo.html" target="_top" xlink:title=" ">
<polygon fill="#ffffff" stroke="#000000" points="939.5,-184 939.5,-225 1055.5,-225 1055.5,-184 939.5,-184"/>
<text text-anchor="start" x="947.5" y="-213" font-family="Helvetica,sans-Serif" font-size="10.00" fill="#000000">gko::ConvertibleTo</text>
<text text-anchor="start" x="947.5" y="-202" font-family="Helvetica,sans-Serif" font-size="10.00" fill="#000000">&lt; Sellp&lt; ValueType,</text>
<text text-anchor="middle" x="997.5" y="-191" font-family="Helvetica,sans-Serif" font-size="10.00" fill="#000000"> IndexType &gt; &gt;</text>
</a>
</g>
</g>
<!-- Node16&#45;&gt;Node15 -->
<g id="edge14" class="edge">
<title>Node16&#45;&gt;Node15</title>
<path fill="none" stroke="#191970" d="M1065.973,-210.2643C1128.8874,-215.5607 1222.7814,-223.465 1293.2359,-229.3961"/>
<polygon fill="#191970" stroke="#191970" points="1066.0215,-206.7561 1055.7631,-209.4048 1065.4342,-213.7314 1066.0215,-206.7561"/>
</g>
<!-- Node17 -->
<g id="node13" class="node">
<title>Node17</title>
<g id="a_node13"><a xlink:href="classgko_1_1ConvertibleTo.html" target="_top" xlink:title="ConvertibleTo interface is used to mark that the implementer can be converted to the object of Result...">
<polygon fill="#ffffff" stroke="#000000" points="576,-189.5 576,-219.5 683,-219.5 683,-189.5 576,-189.5"/>
<text text-anchor="start" x="584" y="-207.5" font-family="Helvetica,sans-Serif" font-size="10.00" fill="#000000">gko::ConvertibleTo</text>
<text text-anchor="middle" x="629.5" y="-196.5" font-family="Helvetica,sans-Serif" font-size="10.00" fill="#000000">&lt; ResultType &gt;</text>
</a>
</g>
</g>
<!-- Node17&#45;&gt;Node16 -->
<g id="edge15" class="edge">
<title>Node17&#45;&gt;Node16</title>
<path fill="none" stroke="#ffa500" stroke-dasharray="5,2" d="M693.3536,-204.5C762.6632,-204.5 872.3848,-204.5 939.3678,-204.5"/>
<polygon fill="#ffa500" stroke="#ffa500" points="693.0104,-201.0001 683.0104,-204.5 693.0103,-208.0001 693.0104,-201.0001"/>
<text text-anchor="start" x="761" y="-218.5" font-family="Helvetica,sans-Serif" font-size="10.00" fill="#000000"> &lt; Sellp&lt; ValueType,</text>
<text text-anchor="middle" x="812.5" y="-207.5" font-family="Helvetica,sans-Serif" font-size="10.00" fill="#000000"> IndexType &gt; &gt;</text>
</g>
<!-- Node18 -->
<g id="node14" class="node">
<title>Node18</title>
<g id="a_node14"><a xlink:href="classgko_1_1EnablePolymorphicAssignment.html" target="_top" xlink:title="This mixin is used to enable a default PolymorphicObject::copy_from() implementation for objects that...">
<polygon fill="#ffffff" stroke="#000000" points="901.5,-244.5 901.5,-274.5 1093.5,-274.5 1093.5,-244.5 901.5,-244.5"/>
<text text-anchor="start" x="909.5" y="-262.5" font-family="Helvetica,sans-Serif" font-size="10.00" fill="#000000">gko::EnablePolymorphicAssignment</text>
<text text-anchor="middle" x="997.5" y="-251.5" font-family="Helvetica,sans-Serif" font-size="10.00" fill="#000000">&lt; ConcreteType, ResultType &gt;</text>
</a>
</g>
</g>
<!-- Node17&#45;&gt;Node18 -->
<g id="edge17" class="edge">
<title>Node17&#45;&gt;Node18</title>
<path fill="none" stroke="#191970" d="M693.4263,-219.7556C711.0413,-223.623 730.2007,-227.5206 748,-230.5 798.3208,-238.9231 854.7602,-245.7044 901.2145,-250.5852"/>
<polygon fill="#191970" stroke="#191970" points="693.7771,-216.248 683.2552,-217.4891 692.2546,-223.0804 693.7771,-216.248"/>
</g>
<!-- Node23 -->
<g id="node19" class="node">
<title>Node23</title>
<g id="a_node19"><a xlink:href="classgko_1_1ConvertibleTo.html" target="_top" xlink:title=" ">
<polygon fill="#ffffff" stroke="#000000" points="942.5,-293.5 942.5,-323.5 1052.5,-323.5 1052.5,-293.5 942.5,-293.5"/>
<text text-anchor="start" x="950.5" y="-311.5" font-family="Helvetica,sans-Serif" font-size="10.00" fill="#000000">gko::ConvertibleTo</text>
<text text-anchor="middle" x="997.5" y="-300.5" font-family="Helvetica,sans-Serif" font-size="10.00" fill="#000000">&lt; ConcreteLinOp &gt;</text>
</a>
</g>
</g>
<!-- Node17&#45;&gt;Node23 -->
<g id="edge26" class="edge">
<title>Node17&#45;&gt;Node23</title>
<path fill="none" stroke="#ffa500" stroke-dasharray="5,2" d="M671.6329,-223.5336C693.9992,-233.1328 722.1391,-244.4201 748,-252.5 813.6791,-273.0205 891.2897,-289.2212 942.3061,-298.8103"/>
<polygon fill="#ffa500" stroke="#ffa500" points="672.991,-220.3077 662.4243,-219.5373 670.2043,-226.7291 672.991,-220.3077"/>
<text text-anchor="middle" x="812.5" y="-287.5" font-family="Helvetica,sans-Serif" font-size="10.00" fill="#000000"> &lt; ConcreteLinOp &gt;</text>
</g>
<!-- Node26 -->
<g id="node22" class="node">
<title>Node26</title>
<g id="a_node22"><a xlink:href="classgko_1_1ConvertibleTo.html" target="_top" xlink:title=" ">
<polygon fill="#ffffff" stroke="#000000" points="1123.5,-93.5 1123.5,-123.5 1265.5,-123.5 1265.5,-93.5 1123.5,-93.5"/>
<text text-anchor="start" x="1131.5" y="-111.5" font-family="Helvetica,sans-Serif" font-size="10.00" fill="#000000">gko::ConvertibleTo</text>
<text text-anchor="middle" x="1194.5" y="-100.5" font-family="Helvetica,sans-Serif" font-size="10.00" fill="#000000">&lt; Dense&lt; ValueType &gt; &gt;</text>
</a>
</g>
</g>
<!-- Node17&#45;&gt;Node26 -->
<g id="edge31" class="edge">
<title>Node17&#45;&gt;Node26</title>
<path fill="none" stroke="#ffa500" stroke-dasharray="5,2" d="M654.6741,-183.0418C677.4115,-165.0832 712.6384,-140.6573 748,-129.5 875.4765,-89.2787 1033.5511,-93.676 1123.3355,-100.8579"/>
<polygon fill="#ffa500" stroke="#ffa500" points="652.4681,-180.3244 646.8851,-189.3289 656.8648,-185.7714 652.4681,-180.3244"/>
<text text-anchor="middle" x="812.5" y="-132.5" font-family="Helvetica,sans-Serif" font-size="10.00" fill="#000000"> &lt; Dense&lt; ValueType &gt; &gt;</text>
</g>
<!-- Node27 -->
<g id="node23" class="node">
<title>Node27</title>
<g id="a_node23"><a xlink:href="classgko_1_1ConvertibleTo.html" target="_top" xlink:title=" ">
<polygon fill="#ffffff" stroke="#000000" points="1508,-160.5 1508,-190.5 1690,-190.5 1690,-160.5 1508,-160.5"/>
<text text-anchor="start" x="1516" y="-178.5" font-family="Helvetica,sans-Serif" font-size="10.00" fill="#000000">gko::ConvertibleTo</text>
<text text-anchor="middle" x="1599" y="-167.5" font-family="Helvetica,sans-Serif" font-size="10.00" fill="#000000">&lt; Csr&lt; ValueType, IndexType &gt; &gt;</text>
</a>
</g>
</g>
<!-- Node17&#45;&gt;Node27 -->
<g id="edge33" class="edge">
<title>Node17&#45;&gt;Node27</title>
<path fill="none" stroke="#ffa500" stroke-dasharray="5,2" d="M693.1578,-191.8618C746.7435,-181.9004 825.5366,-168.8319 895,-163.5 1114.539,-146.6487 1373.6673,-159.4518 1507.9863,-168.5215"/>
<polygon fill="#ffa500" stroke="#ffa500" points="692.303,-188.461 683.1205,-193.7462 693.5946,-195.3408 692.303,-188.461"/>
<text text-anchor="middle" x="997.5" y="-166.5" font-family="Helvetica,sans-Serif" font-size="10.00" fill="#000000"> &lt; Csr&lt; ValueType, IndexType &gt; &gt;</text>
</g>
<!-- Node18&#45;&gt;Node15 -->
<g id="edge16" class="edge">
<title>Node18&#45;&gt;Node15</title>
<path fill="none" stroke="#ffa500" stroke-dasharray="5,2" d="M1082.1364,-242.8999C1094.134,-241.0877 1106.3493,-239.5292 1118,-238.5 1175.9868,-233.3774 1241.2118,-232.9646 1293.196,-233.9095"/>
<polygon fill="#ffa500" stroke="#ffa500" points="1081.4607,-239.4631 1072.1268,-244.4759 1082.5495,-246.3779 1081.4607,-239.4631"/>
<text text-anchor="start" x="1143" y="-252.5" font-family="Helvetica,sans-Serif" font-size="10.00" fill="#000000"> &lt; Sellp&lt; ValueType,</text>
<text text-anchor="middle" x="1194.5" y="-241.5" font-family="Helvetica,sans-Serif" font-size="10.00" fill="#000000"> IndexType &gt; &gt;</text>
</g>
<!-- Node22 -->
<g id="node18" class="node">
<title>Node22</title>
<g id="a_node18"><a xlink:href="classgko_1_1EnablePolymorphicAssignment.html" target="_top" xlink:title=" ">
<polygon fill="#ffffff" stroke="#000000" points="1293.5,-282.5 1293.5,-312.5 1485.5,-312.5 1485.5,-282.5 1293.5,-282.5"/>
<text text-anchor="start" x="1301.5" y="-300.5" font-family="Helvetica,sans-Serif" font-size="10.00" fill="#000000">gko::EnablePolymorphicAssignment</text>
<text text-anchor="middle" x="1389.5" y="-289.5" font-family="Helvetica,sans-Serif" font-size="10.00" fill="#000000">&lt; ConcreteLinOp &gt;</text>
</a>
</g>
</g>
<!-- Node18&#45;&gt;Node22 -->
<g id="edge27" class="edge">
<title>Node18&#45;&gt;Node22</title>
<path fill="none" stroke="#ffa500" stroke-dasharray="5,2" d="M1103.6932,-269.4422C1154.3543,-274.2244 1215.8178,-280.0831 1271,-285.5 1278.3056,-286.2171 1285.8638,-286.9662 1293.4641,-287.7244"/>
<polygon fill="#ffa500" stroke="#ffa500" points="1103.9946,-265.9552 1093.7101,-268.5006 1103.3372,-272.9243 1103.9946,-265.9552"/>
<text text-anchor="middle" x="1194.5" y="-288.5" font-family="Helvetica,sans-Serif" font-size="10.00" fill="#000000"> &lt; ConcreteLinOp &gt;</text>
</g>
<!-- Node19 -->
<g id="node15" class="node">
<title>Node19</title>
<g id="a_node15"><a xlink:href="classgko_1_1EnableLinOp.html" target="_top" xlink:title="The EnableLinOp mixin can be used to provide sensible default implementations of the majority of the ...">
<polygon fill="#ffffff" stroke="#000000" points="1714,-282.5 1714,-312.5 1870,-312.5 1870,-282.5 1714,-282.5"/>
<text text-anchor="start" x="1722" y="-300.5" font-family="Helvetica,sans-Serif" font-size="10.00" fill="#000000">gko::EnableLinOp&lt; Concrete</text>
<text text-anchor="middle" x="1792" y="-289.5" font-family="Helvetica,sans-Serif" font-size="10.00" fill="#000000">LinOp, PolymorphicBase &gt;</text>
</a>
</g>
</g>
<!-- Node19&#45;&gt;Node2 -->
<g id="edge18" class="edge">
<title>Node19&#45;&gt;Node2</title>
<path fill="none" stroke="#ffa500" stroke-dasharray="5,2" d="M1880.3534,-285.849C1928.1653,-279.5441 1986.69,-271.8266 2032.7568,-265.7518"/>
<polygon fill="#ffa500" stroke="#ffa500" points="1879.7784,-282.3944 1870.3218,-287.1719 1880.6936,-289.3344 1879.7784,-282.3944"/>
<text text-anchor="start" x="1894" y="-297.5" font-family="Helvetica,sans-Serif" font-size="10.00" fill="#000000"> &lt; Sellp&lt; ValueType,</text>
<text text-anchor="middle" x="1945.5" y="-286.5" font-family="Helvetica,sans-Serif" font-size="10.00" fill="#000000"> IndexType &gt; &gt;</text>
</g>
<!-- Node20&#45;&gt;Node19 -->
<g id="edge19" class="edge">
<title>Node20&#45;&gt;Node19</title>
<path fill="none" stroke="#191970" d="M1500.0875,-337.4331C1556.8594,-329.6927 1627.131,-320.1034 1690,-311.5 1697.7035,-310.4458 1705.7342,-309.3456 1713.7583,-308.2455"/>
<polygon fill="#191970" stroke="#191970" points="1499.4475,-333.9879 1490.012,-338.8067 1500.3931,-340.9237 1499.4475,-333.9879"/>
</g>
<!-- Node21&#45;&gt;Node20 -->
<g id="edge20" class="edge">
<title>Node21&#45;&gt;Node20</title>
<path fill="none" stroke="#191970" d="M738.4813,-352.5C885.7391,-352.5 1146.2151,-352.5 1288.9812,-352.5"/>
<polygon fill="#191970" stroke="#191970" points="738.0776,-349.0001 728.0776,-352.5 738.0776,-356.0001 738.0776,-349.0001"/>
</g>
<!-- Node22&#45;&gt;Node19 -->
<g id="edge24" class="edge">
<title>Node22&#45;&gt;Node19</title>
<path fill="none" stroke="#191970" d="M1496.0339,-297.5C1564.4504,-297.5 1651.7862,-297.5 1713.8103,-297.5"/>
<polygon fill="#191970" stroke="#191970" points="1495.653,-294.0001 1485.653,-297.5 1495.653,-301.0001 1495.653,-294.0001"/>
</g>
<!-- Node23&#45;&gt;Node22 -->
<g id="edge25" class="edge">
<title>Node23&#45;&gt;Node22</title>
<path fill="none" stroke="#191970" d="M1063.0239,-306.6613C1125.9342,-304.896 1221.7021,-302.2086 1293.2698,-300.2003"/>
<polygon fill="#191970" stroke="#191970" points="1062.7305,-303.1681 1052.8326,-306.9473 1062.9269,-310.1653 1062.7305,-303.1681"/>
</g>
<!-- Node24 -->
<g id="node20" class="node">
<title>Node24</title>
<g id="a_node20"><a xlink:href="classgko_1_1EnableCreateMethod.html" target="_top" xlink:title=" ">
<polygon fill="#ffffff" stroke="#000000" points="2015,-137.5 2015,-167.5 2206,-167.5 2206,-137.5 2015,-137.5"/>
<text text-anchor="start" x="2023" y="-155.5" font-family="Helvetica,sans-Serif" font-size="10.00" fill="#000000">gko::EnableCreateMethod</text>
<text text-anchor="middle" x="2110.5" y="-144.5" font-family="Helvetica,sans-Serif" font-size="10.00" fill="#000000">&lt; Sellp&lt; ValueType, IndexType &gt; &gt;</text>
</a>
</g>
</g>
<!-- Node24&#45;&gt;Node1 -->
<g id="edge28" class="edge">
<title>Node24&#45;&gt;Node1</title>
<path fill="none" stroke="#191970" d="M2216.3253,-141.1154C2225.3248,-140.1472 2234.2873,-139.183 2242.9335,-138.2529"/>
<polygon fill="#191970" stroke="#191970" points="2215.732,-137.6589 2206.1637,-142.2085 2216.4808,-144.6188 2215.732,-137.6589"/>
</g>
<!-- Node25 -->
<g id="node21" class="node">
<title>Node25</title>
<g id="a_node21"><a xlink:href="classgko_1_1EnableCreateMethod.html" target="_top" xlink:title="This mixin implements a static create() method on ConcreteType that dynamically allocates the memory,...">
<polygon fill="#ffffff" stroke="#000000" points="1721,-137.5 1721,-167.5 1863,-167.5 1863,-137.5 1721,-137.5"/>
<text text-anchor="start" x="1729" y="-155.5" font-family="Helvetica,sans-Serif" font-size="10.00" fill="#000000">gko::EnableCreateMethod</text>
<text text-anchor="middle" x="1792" y="-144.5" font-family="Helvetica,sans-Serif" font-size="10.00" fill="#000000">&lt; ConcreteType &gt;</text>
</a>
</g>
</g>
<!-- Node25&#45;&gt;Node24 -->
<g id="edge29" class="edge">
<title>Node25&#45;&gt;Node24</title>
<path fill="none" stroke="#ffa500" stroke-dasharray="5,2" d="M1873.2562,-152.5C1916.4155,-152.5 1969.7236,-152.5 2014.8687,-152.5"/>
<polygon fill="#ffa500" stroke="#ffa500" points="1873.0812,-149.0001 1863.0812,-152.5 1873.0812,-156.0001 1873.0812,-149.0001"/>
<text text-anchor="start" x="1894" y="-166.5" font-family="Helvetica,sans-Serif" font-size="10.00" fill="#000000"> &lt; Sellp&lt; ValueType,</text>
<text text-anchor="middle" x="1945.5" y="-155.5" font-family="Helvetica,sans-Serif" font-size="10.00" fill="#000000"> IndexType &gt; &gt;</text>
</g>
<!-- Node26&#45;&gt;Node1 -->
<g id="edge30" class="edge">
<title>Node26&#45;&gt;Node1</title>
<path fill="none" stroke="#191970" d="M1275.9565,-108.5C1357.6449,-108.5 1487.0384,-108.5 1599,-108.5 1599,-108.5 1599,-108.5 2110.5,-108.5 2154.5998,-108.5 2203.7436,-113.6201 2242.8014,-118.9202"/>
<polygon fill="#191970" stroke="#191970" points="1275.7421,-105.0001 1265.742,-108.5 1275.742,-112.0001 1275.7421,-105.0001"/>
</g>
<!-- Node27&#45;&gt;Node1 -->
<g id="edge32" class="edge">
<title>Node27&#45;&gt;Node1</title>
<path fill="none" stroke="#191970" d="M1700.2153,-188.5449C1821.7747,-201.3097 2031.1664,-214.0238 2206,-177.5 2235.4517,-171.3474 2266.763,-156.9255 2288.2334,-145.6677"/>
<polygon fill="#191970" stroke="#191970" points="1700.4902,-185.0544 1690.1742,-187.4693 1699.7445,-192.0146 1700.4902,-185.0544"/>
</g>
<!-- Node28 -->
<g id="node24" class="node">
<title>Node28</title>
<g id="a_node24"><a xlink:href="classgko_1_1ReadableFromMatrixData.html" target="_top" xlink:title="A LinOp implementing this interface can read its data from a matrix_data structure.">
<polygon fill="#ffffff" stroke="#000000" points="2028.5,-49.5 2028.5,-79.5 2192.5,-79.5 2192.5,-49.5 2028.5,-49.5"/>
<text text-anchor="start" x="2036.5" y="-67.5" font-family="Helvetica,sans-Serif" font-size="10.00" fill="#000000">gko::ReadableFromMatrixData</text>
<text text-anchor="middle" x="2110.5" y="-56.5" font-family="Helvetica,sans-Serif" font-size="10.00" fill="#000000">&lt; ValueType, IndexType &gt;</text>
</a>
</g>
</g>
<!-- Node28&#45;&gt;Node1 -->
<g id="edge34" class="edge">
<title>Node28&#45;&gt;Node1</title>
<path fill="none" stroke="#191970" d="M2183.586,-82.1981C2197.4306,-85.9593 2211.7294,-90.1261 2225,-94.5 2243.5402,-100.6107 2263.7573,-108.5751 2280.325,-115.4587"/>
<polygon fill="#191970" stroke="#191970" points="2184.1709,-78.7317 2173.6064,-79.5339 2182.3653,-85.4949 2184.1709,-78.7317"/>
</g>
<!-- Node29 -->
<g id="node25" class="node">
<title>Node29</title>
<g id="a_node25"><a xlink:href="classgko_1_1WritableToMatrixData.html" target="_top" xlink:title="A LinOp implementing this interface can write its data to a matrix_data structure.">
<polygon fill="#ffffff" stroke="#000000" points="2037.5,-.5 2037.5,-30.5 2183.5,-30.5 2183.5,-.5 2037.5,-.5"/>
<text text-anchor="start" x="2045.5" y="-18.5" font-family="Helvetica,sans-Serif" font-size="10.00" fill="#000000">gko::WritableToMatrixData</text>
<text text-anchor="middle" x="2110.5" y="-7.5" font-family="Helvetica,sans-Serif" font-size="10.00" fill="#000000">&lt; ValueType, IndexType &gt;</text>
</a>
</g>
</g>
<!-- Node29&#45;&gt;Node1 -->
<g id="edge35" class="edge">
<title>Node29&#45;&gt;Node1</title>
<path fill="none" stroke="#191970" d="M2191.5911,-34.0408C2196.555,-35.9967 2201.3982,-38.1443 2206,-40.5 2244.447,-60.181 2281.5489,-95.3397 2300.983,-115.3919"/>
<polygon fill="#191970" stroke="#191970" points="2192.5222,-30.6548 2181.9283,-30.5115 2190.1206,-37.2299 2192.5222,-30.6548"/>
</g>
</g>
</svg>
        <g id="navigator" transform="translate(0 0)" fill="#404254">
                <rect fill="#f2f5e9" fill-opacity="0.5" stroke="#606060" stroke-width=".5" x="0" y="0" width="60" height="60"/>
                <use id="zoomplus" xlink:href="#zoomPlus" x="17" y="9" onmousedown="handleZoom(evt,'in')"/>
                <use id="zoomminus" xlink:href="#zoomMin" x="42" y="9" onmousedown="handleZoom(evt,'out')"/>
                <use id="reset" xlink:href="#resetDef" x="30" y="36" onmousedown="handleReset()"/>
                <g id="arrowUp" xlink:href="#dirArrow" transform="translate(30 24)" onmousedown="handlePan(0,-1)">
                  <use xlink:href="#rim" fill="#404040">
                        <set attributeName="fill" to="#808080" begin="arrowUp.mouseover" end="arrowUp.mouseout"/>
                  </use>
                  <path fill="none" stroke="white" stroke-width="1.5" d="M0,-3.0v7 M-2.5,-0.5L0,-3.0L2.5,-0.5"/>
                </g>
                <g id="arrowRight" xlink:href="#dirArrow" transform="rotate(90) translate(36 -43)" onmousedown="handlePan(1,0)">
                  <use xlink:href="#rim" fill="#404040">
                        <set attributeName="fill" to="#808080" begin="arrowRight.mouseover" end="arrowRight.mouseout"/>
                  </use>
                  <path fill="none" stroke="white" stroke-width="1.5" d="M0,-3.0v7 M-2.5,-0.5L0,-3.0L2.5,-0.5"/>
                </g>
                <g id="arrowDown" xlink:href="#dirArrow" transform="rotate(180) translate(-30 -48)" onmousedown="handlePan(0,1)">
                  <use xlink:href="#rim" fill="#404040">
                        <set attributeName="fill" to="#808080" begin="arrowDown.mouseover" end="arrowDown.mouseout"/>
                  </use>
                  <path fill="none" stroke="white" stroke-width="1.5" d="M0,-3.0v7 M-2.5,-0.5L0,-3.0L2.5,-0.5"/>
                </g>
                <g id="arrowLeft" xlink:href="#dirArrow" transform="rotate(270) translate(-36 17)" onmousedown="handlePan(-1,0)">
                  <use xlink:href="#rim" fill="#404040">
                        <set attributeName="fill" to="#808080" begin="arrowLeft.mouseover" end="arrowLeft.mouseout"/>
                  </use>
                  <path fill="none" stroke="white" stroke-width="1.5" d="M0,-3.0v7 M-2.5,-0.5L0,-3.0L2.5,-0.5"/>
                </g>
        </g>
        <svg viewBox="0 0 15 15" width="100%" height="30px" preserveAspectRatio="xMaxYMin meet">
         <g id="arrow_out" transform="scale(0.3 0.3)">
          <a xlink:href="classgko_1_1matrix_1_1Sellp__coll__graph_org.svg" target="_base">
           <rect id="button" ry="5" rx="5" y="6" x="6" height="38" width="38"
                fill="#f2f5e9" fill-opacity="0.5" stroke="#606060" stroke-width="1.0"/>
           <path id="arrow"
             d="M 11.500037,31.436501 C 11.940474,20.09759 22.043105,11.32322 32.158766,21.979434 L 37.068811,17.246167 C 37.068811,17.246167 37.088388,32 37.088388,32 L 22.160133,31.978069 C 22.160133,31.978069 26.997745,27.140456 26.997745,27.140456 C 18.528582,18.264221 13.291696,25.230495 11.500037,31.436501 z"
             style="fill:#404040;"/>
          </a>
         </g>
        </svg>
</svg>
