<?xml version="1.0" encoding="UTF-8" standalone="no"?>
<!DOCTYPE svg PUBLIC "-//W3C//DTD SVG 1.1//EN"
 "http://www.w3.org/Graphics/SVG/1.1/DTD/svg11.dtd">
<!-- Generated by graphviz version 2.40.1 (20161225.0304)
 -->
<!-- Title: gko::matrix::Csr&lt; ValueType, IndexType &gt; Pages: 1 -->
<svg width="2529pt" height="608pt"
 viewBox="0.00 0.00 2529.00 608.00" xmlns="http://www.w3.org/2000/svg" xmlns:xlink="http://www.w3.org/1999/xlink">
<g id="graph0" class="graph" transform="scale(1 1) rotate(0) translate(4 604)">
<title>gko::matrix::Csr&lt; ValueType, IndexType &gt;</title>
<polygon fill="#ffffff" stroke="transparent" points="-4,4 -4,-604 2525,-604 2525,4 -4,4"/>
<!-- Node1 -->
<g id="node1" class="node">
<title>Node1</title>
<g id="a_node1"><a xlink:title="CSR is a matrix format which stores only the nonzero coefficients by compressing each row of the matr...">
<polygon fill="#bfbfbf" stroke="#000000" points="2363,-347.5 2363,-377.5 2521,-377.5 2521,-347.5 2363,-347.5"/>
<text text-anchor="start" x="2371" y="-365.5" font-family="Helvetica,sans-Serif" font-size="10.00" fill="#000000">gko::matrix::Csr&lt; ValueType,</text>
<text text-anchor="middle" x="2442" y="-354.5" font-family="Helvetica,sans-Serif" font-size="10.00" fill="#000000"> IndexType &gt;</text>
</a>
</g>
</g>
<!-- Node2 -->
<g id="node2" class="node">
<title>Node2</title>
<g id="a_node2"><a xlink:href="classgko_1_1EnableLinOp.html" target="_top" xlink:title=" ">
<polygon fill="#ffffff" stroke="#000000" points="2157.5,-316.5 2157.5,-346.5 2312.5,-346.5 2312.5,-316.5 2157.5,-316.5"/>
<text text-anchor="start" x="2165.5" y="-334.5" font-family="Helvetica,sans-Serif" font-size="10.00" fill="#000000">gko::EnableLinOp&lt; Csr</text>
<text text-anchor="middle" x="2235" y="-323.5" font-family="Helvetica,sans-Serif" font-size="10.00" fill="#000000">&lt; ValueType, IndexType &gt; &gt;</text>
</a>
</g>
</g>
<!-- Node2&#45;&gt;Node1 -->
<g id="edge1" class="edge">
<title>Node2&#45;&gt;Node1</title>
<path fill="none" stroke="#191970" d="M2322.7644,-344.6435C2336.0776,-346.6372 2349.7464,-348.6842 2362.8619,-350.6484"/>
<polygon fill="#191970" stroke="#191970" points="2323.0762,-341.1512 2312.6681,-343.1315 2322.0394,-348.074 2323.0762,-341.1512"/>
</g>
<!-- Node3 -->
<g id="node3" class="node">
<title>Node3</title>
<g id="a_node3"><a xlink:href="classgko_1_1EnablePolymorphicObject.html" target="_top" xlink:title=" ">
<polygon fill="#ffffff" stroke="#000000" points="1763,-144 1763,-185 1929,-185 1929,-144 1763,-144"/>
<text text-anchor="start" x="1771" y="-173" font-family="Helvetica,sans-Serif" font-size="10.00" fill="#000000">gko::EnablePolymorphicObject</text>
<text text-anchor="start" x="1771" y="-162" font-family="Helvetica,sans-Serif" font-size="10.00" fill="#000000">&lt; Csr&lt; ValueType, IndexType</text>
<text text-anchor="middle" x="1846" y="-151" font-family="Helvetica,sans-Serif" font-size="10.00" fill="#000000"> &gt;, LinOp &gt;</text>
</a>
</g>
</g>
<!-- Node3&#45;&gt;Node2 -->
<g id="edge2" class="edge">
<title>Node3&#45;&gt;Node2</title>
<path fill="none" stroke="#191970" d="M1939.0443,-171.1413C1999.7006,-180.2163 2076.5016,-201.3902 2126,-250.5 2144.8592,-269.2112 2124.7691,-289.171 2144,-307.5 2148.0213,-311.3327 2152.5796,-314.5707 2157.4613,-317.3043"/>
<polygon fill="#191970" stroke="#191970" points="1939.4624,-167.6657 1929.0717,-169.7355 1938.4852,-174.5972 1939.4624,-167.6657"/>
</g>
<!-- Node4 -->
<g id="node4" class="node">
<title>Node4</title>
<g id="a_node4"><a xlink:href="classgko_1_1EnableAbstractPolymorphicObject.html" target="_top" xlink:title=" ">
<polygon fill="#ffffff" stroke="#000000" points="1346,-34 1346,-75 1537,-75 1537,-34 1346,-34"/>
<text text-anchor="start" x="1354" y="-63" font-family="Helvetica,sans-Serif" font-size="10.00" fill="#000000">gko::EnableAbstractPolymorphic</text>
<text text-anchor="start" x="1354" y="-52" font-family="Helvetica,sans-Serif" font-size="10.00" fill="#000000">Object&lt; Csr&lt; ValueType, IndexType</text>
<text text-anchor="middle" x="1441.5" y="-41" font-family="Helvetica,sans-Serif" font-size="10.00" fill="#000000"> &gt;, LinOp &gt;</text>
</a>
</g>
</g>
<!-- Node4&#45;&gt;Node3 -->
<g id="edge3" class="edge">
<title>Node4&#45;&gt;Node3</title>
<path fill="none" stroke="#191970" d="M1547.506,-46.1121C1610.3222,-46.471 1688.4387,-56.7824 1745,-97.5 1759.518,-107.9512 1749.6974,-121.5401 1763,-133.5 1767.3467,-137.408 1772.2317,-140.8388 1777.3996,-143.848"/>
<polygon fill="#191970" stroke="#191970" points="1547.1537,-42.613 1537.1636,-46.1412 1547.1735,-49.613 1547.1537,-42.613"/>
</g>
<!-- Node5 -->
<g id="node5" class="node">
<title>Node5</title>
<g id="a_node5"><a xlink:href="classgko_1_1LinOp.html" target="_top" xlink:title=" ">
<polygon fill="#ffffff" stroke="#000000" points="999.5,-11 999.5,-30 1067.5,-30 1067.5,-11 999.5,-11"/>
<text text-anchor="middle" x="1033.5" y="-18" font-family="Helvetica,sans-Serif" font-size="10.00" fill="#000000">gko::LinOp</text>
</a>
</g>
</g>
<!-- Node5&#45;&gt;Node4 -->
<g id="edge4" class="edge">
<title>Node5&#45;&gt;Node4</title>
<path fill="none" stroke="#191970" d="M1077.708,-24.184C1141.5225,-29.5019 1261.0626,-39.4636 1345.673,-46.5144"/>
<polygon fill="#191970" stroke="#191970" points="1077.8402,-20.683 1067.5841,-23.3403 1077.2589,-27.6588 1077.8402,-20.683"/>
</g>
<!-- Node6 -->
<g id="node6" class="node">
<title>Node6</title>
<g id="a_node6"><a xlink:href="classgko_1_1EnableAbstractPolymorphicObject.html" target="_top" xlink:title=" ">
<polygon fill="#ffffff" stroke="#ff0000" points="538,-.5 538,-30.5 713,-30.5 713,-.5 538,-.5"/>
<text text-anchor="start" x="546" y="-18.5" font-family="Helvetica,sans-Serif" font-size="10.00" fill="#000000">gko::EnableAbstractPolymorphic</text>
<text text-anchor="middle" x="625.5" y="-7.5" font-family="Helvetica,sans-Serif" font-size="10.00" fill="#000000">Object&lt; LinOp &gt;</text>
</a>
</g>
</g>
<!-- Node6&#45;&gt;Node5 -->
<g id="edge5" class="edge">
<title>Node6&#45;&gt;Node5</title>
<path fill="none" stroke="#191970" d="M723.1636,-16.6969C812.3446,-17.7898 939.1591,-19.3439 999.3094,-20.081"/>
<polygon fill="#191970" stroke="#191970" points="723.0684,-13.1955 713.0262,-16.5726 722.9826,-20.195 723.0684,-13.1955"/>
</g>
<!-- Node11 -->
<g id="node7" class="node">
<title>Node11</title>
<g id="a_node7"><a xlink:href="classgko_1_1EnableAbstractPolymorphicObject.html" target="_top" xlink:title="This mixin inherits from (a subclass of) PolymorphicObject and provides a base implementation of a ne...">
<polygon fill="#ffffff" stroke="#000000" points="138,-72 138,-113 332,-113 332,-72 138,-72"/>
<text text-anchor="start" x="146" y="-101" font-family="Helvetica,sans-Serif" font-size="10.00" fill="#000000">gko::EnableAbstractPolymorphic</text>
<text text-anchor="start" x="146" y="-90" font-family="Helvetica,sans-Serif" font-size="10.00" fill="#000000">Object&lt; AbstactObject, Polymorphic</text>
<text text-anchor="middle" x="235" y="-79" font-family="Helvetica,sans-Serif" font-size="10.00" fill="#000000">Base &gt;</text>
</a>
</g>
</g>
<!-- Node11&#45;&gt;Node4 -->
<g id="edge8" class="edge">
<title>Node11&#45;&gt;Node4</title>
<path fill="none" stroke="#ffa500" stroke-dasharray="5,2" d="M342.3074,-84.8904C344.8965,-84.7535 347.4638,-84.623 350,-84.5 717.8036,-66.6601 1155.8795,-58.6208 1345.817,-55.7805"/>
<polygon fill="#ffa500" stroke="#ffa500" points="342.0241,-81.4006 332.2328,-85.448 342.411,-88.3899 342.0241,-81.4006"/>
<text text-anchor="start" x="755" y="-83.5" font-family="Helvetica,sans-Serif" font-size="10.00" fill="#000000"> &lt; Csr&lt; ValueType, IndexType</text>
<text text-anchor="middle" x="828.5" y="-72.5" font-family="Helvetica,sans-Serif" font-size="10.00" fill="#000000"> &gt;, LinOp &gt;</text>
</g>
<!-- Node11&#45;&gt;Node6 -->
<g id="edge6" class="edge">
<title>Node11&#45;&gt;Node6</title>
<path fill="none" stroke="#ffa500" stroke-dasharray="5,2" d="M276.0421,-66.7631C297.2951,-54.7659 324.1518,-41.5978 350,-34.5 411.2576,-17.6791 482.9069,-13.1806 537.7808,-12.755"/>
<polygon fill="#ffa500" stroke="#ffa500" points="274.2067,-63.7812 267.296,-71.8119 277.7064,-69.8436 274.2067,-63.7812"/>
<text text-anchor="middle" x="428.5" y="-37.5" font-family="Helvetica,sans-Serif" font-size="10.00" fill="#000000"> &lt; LinOp &gt;</text>
</g>
<!-- Node14 -->
<g id="node10" class="node">
<title>Node14</title>
<g id="a_node10"><a xlink:href="classgko_1_1EnableAbstractPolymorphicObject.html" target="_top" xlink:title=" ">
<polygon fill="#ffffff" stroke="#000000" points="525,-97 525,-138 726,-138 726,-97 525,-97"/>
<text text-anchor="start" x="533" y="-126" font-family="Helvetica,sans-Serif" font-size="10.00" fill="#000000">gko::EnableAbstractPolymorphic</text>
<text text-anchor="start" x="533" y="-115" font-family="Helvetica,sans-Serif" font-size="10.00" fill="#000000">Object&lt; ConcreteObject, Polymorphic</text>
<text text-anchor="middle" x="625.5" y="-104" font-family="Helvetica,sans-Serif" font-size="10.00" fill="#000000">Base &gt;</text>
</a>
</g>
</g>
<!-- Node11&#45;&gt;Node14 -->
<g id="edge12" class="edge">
<title>Node11&#45;&gt;Node14</title>
<path fill="none" stroke="#ffa500" stroke-dasharray="5,2" d="M342.3859,-88.0573C392.5232,-87.2208 452.941,-87.9803 507,-93.5 515.5616,-94.3742 524.4204,-95.584 533.2615,-96.9994"/>
<polygon fill="#ffa500" stroke="#ffa500" points="342.1068,-84.5619 332.1754,-88.2518 342.2403,-91.5606 342.1068,-84.5619"/>
<text text-anchor="start" x="350" y="-107.5" font-family="Helvetica,sans-Serif" font-size="10.00" fill="#000000"> &lt; ConcreteObject, Polymorphic</text>
<text text-anchor="middle" x="428.5" y="-96.5" font-family="Helvetica,sans-Serif" font-size="10.00" fill="#000000">Base &gt;</text>
</g>
<!-- Node21 -->
<g id="node17" class="node">
<title>Node21</title>
<g id="a_node17"><a xlink:href="classgko_1_1EnableAbstractPolymorphicObject.html" target="_top" xlink:title=" ">
<polygon fill="#ffffff" stroke="#000000" points="527,-161 527,-202 724,-202 724,-161 527,-161"/>
<text text-anchor="start" x="535" y="-190" font-family="Helvetica,sans-Serif" font-size="10.00" fill="#000000">gko::EnableAbstractPolymorphic</text>
<text text-anchor="start" x="535" y="-179" font-family="Helvetica,sans-Serif" font-size="10.00" fill="#000000">Object&lt; ConcreteLinOp, Polymorphic</text>
<text text-anchor="middle" x="625.5" y="-168" font-family="Helvetica,sans-Serif" font-size="10.00" fill="#000000">Base &gt;</text>
</a>
</g>
</g>
<!-- Node11&#45;&gt;Node21 -->
<g id="edge22" class="edge">
<title>Node11&#45;&gt;Node21</title>
<path fill="none" stroke="#ffa500" stroke-dasharray="5,2" d="M334.8606,-115.2595C396.749,-129.3647 475.5887,-147.3333 535.5366,-160.9962"/>
<polygon fill="#ffa500" stroke="#ffa500" points="335.6067,-111.8399 325.0789,-113.0301 334.0511,-118.6649 335.6067,-111.8399"/>
<text text-anchor="start" x="352" y="-166.5" font-family="Helvetica,sans-Serif" font-size="10.00" fill="#000000"> &lt; ConcreteLinOp, Polymorphic</text>
<text text-anchor="middle" x="428.5" y="-155.5" font-family="Helvetica,sans-Serif" font-size="10.00" fill="#000000">Base &gt;</text>
</g>
<!-- Node12 -->
<g id="node8" class="node">
<title>Node12</title>
<g id="a_node8"><a xlink:title=" ">
<polygon fill="#ffffff" stroke="#bfbfbf" points="0,-165 0,-184 101,-184 101,-165 0,-165"/>
<text text-anchor="middle" x="50.5" y="-172" font-family="Helvetica,sans-Serif" font-size="10.00" fill="#000000">PolymorphicBase</text>
</a>
</g>
</g>
<!-- Node12&#45;&gt;Node11 -->
<g id="edge7" class="edge">
<title>Node12&#45;&gt;Node11</title>
<path fill="none" stroke="#191970" d="M81.3405,-160.7931C110.6288,-147.7761 155.0477,-128.0344 188.6076,-113.1189"/>
<polygon fill="#191970" stroke="#191970" points="79.7422,-157.6733 72.0256,-164.9331 82.5852,-164.07 79.7422,-157.6733"/>
</g>
<!-- Node12&#45;&gt;Node14 -->
<g id="edge11" class="edge">
<title>Node12&#45;&gt;Node14</title>
<path fill="none" stroke="#191970" d="M111.2572,-180.8077C199.829,-188.1821 368.8924,-195.3462 507,-160.5 515.6725,-158.3118 516.7442,-154.9413 525,-151.5 536.306,-146.7873 548.5197,-142.2287 560.4067,-138.0622"/>
<polygon fill="#191970" stroke="#191970" points="111.3859,-177.3059 101.122,-179.9333 110.7842,-184.28 111.3859,-177.3059"/>
</g>
<!-- Node12&#45;&gt;Node21 -->
<g id="edge21" class="edge">
<title>Node12&#45;&gt;Node21</title>
<path fill="none" stroke="#191970" d="M100.0089,-185.844C106.37,-186.9398 112.8183,-187.8748 119,-188.5 290.5691,-205.8532 334.6306,-193.5866 507,-188.5 513.4889,-188.3085 520.1751,-188.0582 526.9118,-187.7663"/>
<polygon fill="#191970" stroke="#191970" points="100.6063,-182.3952 90.1355,-184.0111 99.3286,-189.2776 100.6063,-182.3952"/>
</g>
<!-- Node13 -->
<g id="node9" class="node">
<title>Node13</title>
<g id="a_node9"><a xlink:href="classgko_1_1EnablePolymorphicObject.html" target="_top" xlink:title="This mixin inherits from (a subclass of) PolymorphicObject and provides a base implementation of a ne...">
<polygon fill="#ffffff" stroke="#000000" points="931,-102.5 931,-132.5 1136,-132.5 1136,-102.5 931,-102.5"/>
<text text-anchor="start" x="939" y="-120.5" font-family="Helvetica,sans-Serif" font-size="10.00" fill="#000000">gko::EnablePolymorphicObject</text>
<text text-anchor="middle" x="1033.5" y="-109.5" font-family="Helvetica,sans-Serif" font-size="10.00" fill="#000000">&lt; ConcreteObject, PolymorphicBase &gt;</text>
</a>
</g>
</g>
<!-- Node13&#45;&gt;Node3 -->
<g id="edge9" class="edge">
<title>Node13&#45;&gt;Node3</title>
<path fill="none" stroke="#ffa500" stroke-dasharray="5,2" d="M1146.2202,-120.1437C1199.7846,-121.5206 1264.7035,-123.3637 1323,-125.5 1420.3694,-129.0681 1444.8064,-128.6493 1542,-135.5 1616.8339,-140.7747 1701.8179,-149.0783 1762.8685,-155.451"/>
<polygon fill="#ffa500" stroke="#ffa500" points="1146.096,-116.6395 1136.01,-119.8834 1145.9175,-123.6372 1146.096,-116.6395"/>
<text text-anchor="start" x="1368" y="-149.5" font-family="Helvetica,sans-Serif" font-size="10.00" fill="#000000"> &lt; Csr&lt; ValueType, IndexType</text>
<text text-anchor="middle" x="1441.5" y="-138.5" font-family="Helvetica,sans-Serif" font-size="10.00" fill="#000000"> &gt;, LinOp &gt;</text>
</g>
<!-- Node20 -->
<g id="node16" class="node">
<title>Node20</title>
<g id="a_node16"><a xlink:href="classgko_1_1EnablePolymorphicObject.html" target="_top" xlink:title=" ">
<polygon fill="#ffffff" stroke="#000000" points="1341,-166.5 1341,-196.5 1542,-196.5 1542,-166.5 1341,-166.5"/>
<text text-anchor="start" x="1349" y="-184.5" font-family="Helvetica,sans-Serif" font-size="10.00" fill="#000000">gko::EnablePolymorphicObject</text>
<text text-anchor="middle" x="1441.5" y="-173.5" font-family="Helvetica,sans-Serif" font-size="10.00" fill="#000000">&lt; ConcreteLinOp, PolymorphicBase &gt;</text>
</a>
</g>
</g>
<!-- Node13&#45;&gt;Node20 -->
<g id="edge23" class="edge">
<title>Node13&#45;&gt;Node20</title>
<path fill="none" stroke="#ffa500" stroke-dasharray="5,2" d="M1146.3118,-123.1935C1200.1661,-127.2369 1265.2999,-134.063 1323,-145.5 1348.731,-150.6003 1376.8499,-159.0154 1399.2369,-166.4275"/>
<polygon fill="#ffa500" stroke="#ffa500" points="1146.2726,-119.6815 1136.0448,-122.4459 1145.7642,-126.663 1146.2726,-119.6815"/>
<text text-anchor="start" x="1162" y="-159.5" font-family="Helvetica,sans-Serif" font-size="10.00" fill="#000000"> &lt; ConcreteLinOp, Polymorphic</text>
<text text-anchor="middle" x="1238.5" y="-148.5" font-family="Helvetica,sans-Serif" font-size="10.00" fill="#000000">Base &gt;</text>
</g>
<!-- Node14&#45;&gt;Node13 -->
<g id="edge10" class="edge">
<title>Node14&#45;&gt;Node13</title>
<path fill="none" stroke="#191970" d="M736.4636,-117.5C797.0615,-117.5 871.5974,-117.5 930.8448,-117.5"/>
<polygon fill="#191970" stroke="#191970" points="736.0922,-114.0001 726.0922,-117.5 736.0921,-121.0001 736.0922,-114.0001"/>
</g>
<!-- Node15 -->
<g id="node11" class="node">
<title>Node15</title>
<g id="a_node11"><a xlink:href="classgko_1_1EnablePolymorphicAssignment.html" target="_top" xlink:title=" ">
<polygon fill="#ffffff" stroke="#000000" points="1345.5,-248.5 1345.5,-278.5 1537.5,-278.5 1537.5,-248.5 1345.5,-248.5"/>
<text text-anchor="start" x="1353.5" y="-266.5" font-family="Helvetica,sans-Serif" font-size="10.00" fill="#000000">gko::EnablePolymorphicAssignment</text>
<text text-anchor="middle" x="1441.5" y="-255.5" font-family="Helvetica,sans-Serif" font-size="10.00" fill="#000000">&lt; Csr&lt; ValueType, IndexType &gt; &gt;</text>
</a>
</g>
</g>
<!-- Node15&#45;&gt;Node2 -->
<g id="edge13" class="edge">
<title>Node15&#45;&gt;Node2</title>
<path fill="none" stroke="#191970" d="M1547.8083,-268.6427C1646.6494,-273.8076 1797.9362,-282.6902 1929,-294.5 2016.7946,-302.4109 2038.5048,-306.7738 2126,-317.5 2136.1315,-318.742 2146.7888,-320.0764 2157.3097,-321.4102"/>
<polygon fill="#191970" stroke="#191970" points="1547.9813,-265.147 1537.8132,-268.1237 1547.6182,-272.1376 1547.9813,-265.147"/>
</g>
<!-- Node16 -->
<g id="node12" class="node">
<title>Node16</title>
<g id="a_node12"><a xlink:href="classgko_1_1ConvertibleTo.html" target="_top" xlink:title=" ">
<polygon fill="#ffffff" stroke="#000000" points="942.5,-210.5 942.5,-240.5 1124.5,-240.5 1124.5,-210.5 942.5,-210.5"/>
<text text-anchor="start" x="950.5" y="-228.5" font-family="Helvetica,sans-Serif" font-size="10.00" fill="#000000">gko::ConvertibleTo</text>
<text text-anchor="middle" x="1033.5" y="-217.5" font-family="Helvetica,sans-Serif" font-size="10.00" fill="#000000">&lt; Csr&lt; ValueType, IndexType &gt; &gt;</text>
</a>
</g>
</g>
<!-- Node16&#45;&gt;Node15 -->
<g id="edge14" class="edge">
<title>Node16&#45;&gt;Node15</title>
<path fill="none" stroke="#191970" d="M1134.726,-234.9279C1199.1228,-240.9257 1282.014,-248.6459 1345.3954,-254.5491"/>
<polygon fill="#191970" stroke="#191970" points="1134.8369,-231.4232 1124.5553,-233.9806 1134.1876,-238.393 1134.8369,-231.4232"/>
</g>
<!-- Node17 -->
<g id="node13" class="node">
<title>Node17</title>
<g id="a_node13"><a xlink:href="classgko_1_1ConvertibleTo.html" target="_top" xlink:title="ConvertibleTo interface is used to mark that the implementer can be converted to the object of Result...">
<polygon fill="#ffffff" stroke="#000000" points="572,-399.5 572,-429.5 679,-429.5 679,-399.5 572,-399.5"/>
<text text-anchor="start" x="580" y="-417.5" font-family="Helvetica,sans-Serif" font-size="10.00" fill="#000000">gko::ConvertibleTo</text>
<text text-anchor="middle" x="625.5" y="-406.5" font-family="Helvetica,sans-Serif" font-size="10.00" fill="#000000">&lt; ResultType &gt;</text>
</a>
</g>
</g>
<!-- Node17&#45;&gt;Node16 -->
<g id="edge15" class="edge">
<title>Node17&#45;&gt;Node16</title>
<path fill="none" stroke="#ffa500" stroke-dasharray="5,2" d="M637.0576,-389.9253C654.763,-355.2997 692.0874,-293.083 744,-263.5 804.1177,-229.2413 882.432,-220.7126 942.4461,-220.2153"/>
<polygon fill="#ffa500" stroke="#ffa500" points="633.7076,-388.8018 632.3927,-399.3148 639.9766,-391.9164 633.7076,-388.8018"/>
<text text-anchor="middle" x="828.5" y="-266.5" font-family="Helvetica,sans-Serif" font-size="10.00" fill="#000000"> &lt; Csr&lt; ValueType, IndexType &gt; &gt;</text>
</g>
<!-- Node18 -->
<g id="node14" class="node">
<title>Node18</title>
<g id="a_node14"><a xlink:href="classgko_1_1EnablePolymorphicAssignment.html" target="_top" xlink:title="This mixin is used to enable a default PolymorphicObject::copy_from() implementation for objects that...">
<polygon fill="#ffffff" stroke="#000000" points="937.5,-259.5 937.5,-289.5 1129.5,-289.5 1129.5,-259.5 937.5,-259.5"/>
<text text-anchor="start" x="945.5" y="-277.5" font-family="Helvetica,sans-Serif" font-size="10.00" fill="#000000">gko::EnablePolymorphicAssignment</text>
<text text-anchor="middle" x="1033.5" y="-266.5" font-family="Helvetica,sans-Serif" font-size="10.00" fill="#000000">&lt; ConcreteType, ResultType &gt;</text>
</a>
</g>
</g>
<!-- Node17&#45;&gt;Node18 -->
<g id="edge17" class="edge">
<title>Node17&#45;&gt;Node18</title>
<path fill="none" stroke="#191970" d="M646.2884,-392.0397C668.2901,-369.7843 705.1472,-336.6175 744,-319.5 804.9762,-292.6355 879.3544,-281.4816 937.4515,-276.9941"/>
<polygon fill="#191970" stroke="#191970" points="643.5904,-389.7946 639.1468,-399.4125 648.6183,-394.6649 643.5904,-389.7946"/>
</g>
<!-- Node23 -->
<g id="node19" class="node">
<title>Node23</title>
<g id="a_node19"><a xlink:href="classgko_1_1ConvertibleTo.html" target="_top" xlink:title=" ">
<polygon fill="#ffffff" stroke="#000000" points="978.5,-308.5 978.5,-338.5 1088.5,-338.5 1088.5,-308.5 978.5,-308.5"/>
<text text-anchor="start" x="986.5" y="-326.5" font-family="Helvetica,sans-Serif" font-size="10.00" fill="#000000">gko::ConvertibleTo</text>
<text text-anchor="middle" x="1033.5" y="-315.5" font-family="Helvetica,sans-Serif" font-size="10.00" fill="#000000">&lt; ConcreteLinOp &gt;</text>
</a>
</g>
</g>
<!-- Node17&#45;&gt;Node23 -->
<g id="edge26" class="edge">
<title>Node17&#45;&gt;Node23</title>
<path fill="none" stroke="#ffa500" stroke-dasharray="5,2" d="M655.6704,-393.7694C678.7674,-379.0303 711.9963,-360.1933 744,-350.5 822.9888,-326.5759 919.1693,-322.1977 978.3621,-322.1573"/>
<polygon fill="#ffa500" stroke="#ffa500" points="653.5056,-391.0022 647.0346,-399.3913 657.3248,-396.8687 653.5056,-391.0022"/>
<text text-anchor="middle" x="828.5" y="-353.5" font-family="Helvetica,sans-Serif" font-size="10.00" fill="#000000"> &lt; ConcreteLinOp &gt;</text>
</g>
<!-- Node26 -->
<g id="node22" class="node">
<title>Node26</title>
<g id="a_node22"><a xlink:href="classgko_1_1ConvertibleTo.html" target="_top" xlink:title=" ">
<polygon fill="#ffffff" stroke="#000000" points="1167.5,-398.5 1167.5,-428.5 1309.5,-428.5 1309.5,-398.5 1167.5,-398.5"/>
<text text-anchor="start" x="1175.5" y="-416.5" font-family="Helvetica,sans-Serif" font-size="10.00" fill="#000000">gko::ConvertibleTo</text>
<text text-anchor="middle" x="1238.5" y="-405.5" font-family="Helvetica,sans-Serif" font-size="10.00" fill="#000000">&lt; Dense&lt; ValueType &gt; &gt;</text>
</a>
</g>
</g>
<!-- Node17&#45;&gt;Node26 -->
<g id="edge31" class="edge">
<title>Node17&#45;&gt;Node26</title>
<path fill="none" stroke="#ffa500" stroke-dasharray="5,2" d="M689.173,-414.3961C804.3941,-414.2082 1046.6982,-413.8129 1167.2498,-413.6162"/>
<polygon fill="#ffa500" stroke="#ffa500" points="689.0889,-410.8962 679.0946,-414.4126 689.1003,-417.8962 689.0889,-410.8962"/>
<text text-anchor="middle" x="828.5" y="-416.5" font-family="Helvetica,sans-Serif" font-size="10.00" fill="#000000"> &lt; Dense&lt; ValueType &gt; &gt;</text>
</g>
<!-- Node27 -->
<g id="node23" class="node">
<title>Node27</title>
<g id="a_node23"><a xlink:href="classgko_1_1ConvertibleTo.html" target="_top" xlink:title=" ">
<polygon fill="#ffffff" stroke="#000000" points="1560,-360.5 1560,-390.5 1745,-390.5 1745,-360.5 1560,-360.5"/>
<text text-anchor="start" x="1568" y="-378.5" font-family="Helvetica,sans-Serif" font-size="10.00" fill="#000000">gko::ConvertibleTo</text>
<text text-anchor="middle" x="1652.5" y="-367.5" font-family="Helvetica,sans-Serif" font-size="10.00" fill="#000000">&lt; Coo&lt; ValueType, IndexType &gt; &gt;</text>
</a>
</g>
</g>
<!-- Node17&#45;&gt;Node27 -->
<g id="edge33" class="edge">
<title>Node17&#45;&gt;Node27</title>
<path fill="none" stroke="#ffa500" stroke-dasharray="5,2" d="M689.0086,-410.9515C750.7933,-407.5519 847.3235,-402.3796 931,-398.5 1030.0854,-393.906 1054.8662,-392.8924 1154,-389.5 1295.4743,-384.6587 1459.5763,-380.2908 1559.6951,-377.7664"/>
<polygon fill="#ffa500" stroke="#ffa500" points="688.8133,-407.4569 679.0212,-411.5023 689.1988,-414.4463 688.8133,-407.4569"/>
<text text-anchor="middle" x="1033.5" y="-401.5" font-family="Helvetica,sans-Serif" font-size="10.00" fill="#000000"> &lt; Coo&lt; ValueType, IndexType &gt; &gt;</text>
</g>
<!-- Node28 -->
<g id="node24" class="node">
<title>Node28</title>
<g id="a_node24"><a xlink:href="classgko_1_1ConvertibleTo.html" target="_top" xlink:title=" ">
<polygon fill="#ffffff" stroke="#000000" points="1947,-569.5 1947,-599.5 2126,-599.5 2126,-569.5 1947,-569.5"/>
<text text-anchor="start" x="1955" y="-587.5" font-family="Helvetica,sans-Serif" font-size="10.00" fill="#000000">gko::ConvertibleTo</text>
<text text-anchor="middle" x="2036.5" y="-576.5" font-family="Helvetica,sans-Serif" font-size="10.00" fill="#000000">&lt; Ell&lt; ValueType, IndexType &gt; &gt;</text>
</a>
</g>
</g>
<!-- Node17&#45;&gt;Node28 -->
<g id="edge35" class="edge">
<title>Node17&#45;&gt;Node28</title>
<path fill="none" stroke="#ffa500" stroke-dasharray="5,2" d="M637.0081,-438.9264C654.6527,-473.2806 691.9034,-534.7673 744,-562.5 857.9662,-623.1679 904.3919,-586.5 1033.5,-586.5 1033.5,-586.5 1033.5,-586.5 1652.5,-586.5 1753.3347,-586.5 1869.0614,-585.8019 1946.8848,-585.2305"/>
<polygon fill="#ffa500" stroke="#ffa500" points="639.9547,-436.9923 632.3605,-429.6046 633.6901,-440.1157 639.9547,-436.9923"/>
<text text-anchor="middle" x="1238.5" y="-589.5" font-family="Helvetica,sans-Serif" font-size="10.00" fill="#000000"> &lt; Ell&lt; ValueType, IndexType &gt; &gt;</text>
</g>
<!-- Node29 -->
<g id="node25" class="node">
<title>Node29</title>
<g id="a_node25"><a xlink:href="classgko_1_1ConvertibleTo.html" target="_top" xlink:title=" ">
<polygon fill="#ffffff" stroke="#000000" points="1176.5,-521 1176.5,-562 1300.5,-562 1300.5,-521 1176.5,-521"/>
<text text-anchor="start" x="1184.5" y="-550" font-family="Helvetica,sans-Serif" font-size="10.00" fill="#000000">gko::ConvertibleTo</text>
<text text-anchor="start" x="1184.5" y="-539" font-family="Helvetica,sans-Serif" font-size="10.00" fill="#000000">&lt; Hybrid&lt; ValueType,</text>
<text text-anchor="middle" x="1238.5" y="-528" font-family="Helvetica,sans-Serif" font-size="10.00" fill="#000000"> IndexType &gt; &gt;</text>
</a>
</g>
</g>
<!-- Node17&#45;&gt;Node29 -->
<g id="edge37" class="edge">
<title>Node17&#45;&gt;Node29</title>
<path fill="none" stroke="#ffa500" stroke-dasharray="5,2" d="M644.8346,-437.3289C666.3346,-460.8909 703.4209,-496.408 744,-512.5 820.8441,-542.9733 1061.153,-544.0321 1176.0729,-542.6698"/>
<polygon fill="#ffa500" stroke="#ffa500" points="647.4261,-434.9761 638.1583,-429.8419 642.2016,-439.635 647.4261,-434.9761"/>
<text text-anchor="start" x="773" y="-550.5" font-family="Helvetica,sans-Serif" font-size="10.00" fill="#000000"> &lt; Hybrid&lt; ValueType,</text>
<text text-anchor="middle" x="828.5" y="-539.5" font-family="Helvetica,sans-Serif" font-size="10.00" fill="#000000"> IndexType &gt; &gt;</text>
</g>
<!-- Node30 -->
<g id="node26" class="node">
<title>Node30</title>
<g id="a_node26"><a xlink:href="classgko_1_1ConvertibleTo.html" target="_top" xlink:title=" ">
<polygon fill="#ffffff" stroke="#000000" points="1594.5,-474 1594.5,-515 1710.5,-515 1710.5,-474 1594.5,-474"/>
<text text-anchor="start" x="1602.5" y="-503" font-family="Helvetica,sans-Serif" font-size="10.00" fill="#000000">gko::ConvertibleTo</text>
<text text-anchor="start" x="1602.5" y="-492" font-family="Helvetica,sans-Serif" font-size="10.00" fill="#000000">&lt; Sellp&lt; ValueType,</text>
<text text-anchor="middle" x="1652.5" y="-481" font-family="Helvetica,sans-Serif" font-size="10.00" fill="#000000"> IndexType &gt; &gt;</text>
</a>
</g>
</g>
<!-- Node17&#45;&gt;Node30 -->
<g id="edge39" class="edge">
<title>Node17&#45;&gt;Node30</title>
<path fill="none" stroke="#ffa500" stroke-dasharray="5,2" d="M660.7885,-434.2608C683.7323,-446.0147 714.7237,-459.8867 744,-466.5 906.7729,-503.2691 1420.6947,-498.3947 1594.4445,-495.589"/>
<polygon fill="#ffa500" stroke="#ffa500" points="662.2714,-431.0865 651.7889,-429.5477 659.0239,-437.2876 662.2714,-431.0865"/>
<text text-anchor="start" x="982" y="-508.5" font-family="Helvetica,sans-Serif" font-size="10.00" fill="#000000"> &lt; Sellp&lt; ValueType,</text>
<text text-anchor="middle" x="1033.5" y="-497.5" font-family="Helvetica,sans-Serif" font-size="10.00" fill="#000000"> IndexType &gt; &gt;</text>
</g>
<!-- Node31 -->
<g id="node27" class="node">
<title>Node31</title>
<g id="a_node27"><a xlink:href="classgko_1_1ConvertibleTo.html" target="_top" xlink:title=" ">
<polygon fill="#ffffff" stroke="#000000" points="1963,-432 1963,-473 2110,-473 2110,-432 1963,-432"/>
<text text-anchor="start" x="1971" y="-461" font-family="Helvetica,sans-Serif" font-size="10.00" fill="#000000">gko::ConvertibleTo</text>
<text text-anchor="start" x="1971" y="-450" font-family="Helvetica,sans-Serif" font-size="10.00" fill="#000000">&lt; SparsityCsr&lt; ValueType,</text>
<text text-anchor="middle" x="2036.5" y="-439" font-family="Helvetica,sans-Serif" font-size="10.00" fill="#000000"> IndexType &gt; &gt;</text>
</a>
</g>
</g>
<!-- Node17&#45;&gt;Node31 -->
<g id="edge41" class="edge">
<title>Node17&#45;&gt;Node31</title>
<path fill="none" stroke="#ffa500" stroke-dasharray="5,2" d="M689.076,-424.109C769.1917,-435.3665 911.212,-452.5 1033.5,-452.5 1033.5,-452.5 1033.5,-452.5 1652.5,-452.5 1760.5,-452.5 1885.5859,-452.5 1962.8846,-452.5"/>
<polygon fill="#ffa500" stroke="#ffa500" points="689.5352,-420.6392 679.1425,-422.6987 688.5512,-427.5697 689.5352,-420.6392"/>
<text text-anchor="start" x="1171.5" y="-466.5" font-family="Helvetica,sans-Serif" font-size="10.00" fill="#000000"> &lt; SparsityCsr&lt; ValueType,</text>
<text text-anchor="middle" x="1238.5" y="-455.5" font-family="Helvetica,sans-Serif" font-size="10.00" fill="#000000"> IndexType &gt; &gt;</text>
</g>
<!-- Node18&#45;&gt;Node15 -->
<g id="edge16" class="edge">
<title>Node18&#45;&gt;Node15</title>
<path fill="none" stroke="#ffa500" stroke-dasharray="5,2" d="M1140.1259,-265.1963C1144.8123,-264.931 1149.4532,-264.6963 1154,-264.5 1217.7052,-261.7502 1289.4241,-261.4958 1345.2946,-261.931"/>
<polygon fill="#ffa500" stroke="#ffa500" points="1139.5819,-261.7228 1129.8125,-265.8228 1140.0064,-268.7099 1139.5819,-261.7228"/>
<text text-anchor="middle" x="1238.5" y="-267.5" font-family="Helvetica,sans-Serif" font-size="10.00" fill="#000000"> &lt; Csr&lt; ValueType, IndexType &gt; &gt;</text>
</g>
<!-- Node22 -->
<g id="node18" class="node">
<title>Node22</title>
<g id="a_node18"><a xlink:href="classgko_1_1EnablePolymorphicAssignment.html" target="_top" xlink:title=" ">
<polygon fill="#ffffff" stroke="#000000" points="1345.5,-303.5 1345.5,-333.5 1537.5,-333.5 1537.5,-303.5 1345.5,-303.5"/>
<text text-anchor="start" x="1353.5" y="-321.5" font-family="Helvetica,sans-Serif" font-size="10.00" fill="#000000">gko::EnablePolymorphicAssignment</text>
<text text-anchor="middle" x="1441.5" y="-310.5" font-family="Helvetica,sans-Serif" font-size="10.00" fill="#000000">&lt; ConcreteLinOp &gt;</text>
</a>
</g>
</g>
<!-- Node18&#45;&gt;Node22 -->
<g id="edge27" class="edge">
<title>Node18&#45;&gt;Node22</title>
<path fill="none" stroke="#ffa500" stroke-dasharray="5,2" d="M1139.7746,-285.1446C1194.5304,-290.7224 1262.3646,-297.7768 1323,-304.5 1330.3094,-305.3105 1337.8703,-306.1654 1345.4724,-307.0368"/>
<polygon fill="#ffa500" stroke="#ffa500" points="1140.0102,-281.6506 1129.7074,-284.1207 1139.3019,-288.6147 1140.0102,-281.6506"/>
<text text-anchor="middle" x="1238.5" y="-307.5" font-family="Helvetica,sans-Serif" font-size="10.00" fill="#000000"> &lt; ConcreteLinOp &gt;</text>
</g>
<!-- Node19 -->
<g id="node15" class="node">
<title>Node19</title>
<g id="a_node15"><a xlink:href="classgko_1_1EnableLinOp.html" target="_top" xlink:title="The EnableLinOp mixin can be used to provide sensible default implementations of the majority of the ...">
<polygon fill="#ffffff" stroke="#000000" points="1768,-303.5 1768,-333.5 1924,-333.5 1924,-303.5 1768,-303.5"/>
<text text-anchor="start" x="1776" y="-321.5" font-family="Helvetica,sans-Serif" font-size="10.00" fill="#000000">gko::EnableLinOp&lt; Concrete</text>
<text text-anchor="middle" x="1846" y="-310.5" font-family="Helvetica,sans-Serif" font-size="10.00" fill="#000000">LinOp, PolymorphicBase &gt;</text>
</a>
</g>
</g>
<!-- Node19&#45;&gt;Node2 -->
<g id="edge18" class="edge">
<title>Node19&#45;&gt;Node2</title>
<path fill="none" stroke="#ffa500" stroke-dasharray="5,2" d="M1934.3865,-321.4538C2001.4845,-323.6961 2092.8632,-326.7499 2157.2054,-328.9002"/>
<polygon fill="#ffa500" stroke="#ffa500" points="1934.3634,-317.9512 1924.252,-321.1151 1934.1295,-324.9473 1934.3634,-317.9512"/>
<text text-anchor="middle" x="2036.5" y="-330.5" font-family="Helvetica,sans-Serif" font-size="10.00" fill="#000000"> &lt; Csr&lt; ValueType, IndexType &gt; &gt;</text>
</g>
<!-- Node20&#45;&gt;Node19 -->
<g id="edge19" class="edge">
<title>Node20&#45;&gt;Node19</title>
<path fill="none" stroke="#191970" d="M1495.427,-199.7645C1576.0965,-227.0864 1726.6871,-278.09 1801.4808,-303.4218"/>
<polygon fill="#191970" stroke="#191970" points="1496.54,-196.4462 1485.9457,-196.5533 1494.2944,-203.0763 1496.54,-196.4462"/>
</g>
<!-- Node21&#45;&gt;Node20 -->
<g id="edge20" class="edge">
<title>Node21&#45;&gt;Node20</title>
<path fill="none" stroke="#191970" d="M734.6127,-181.5C893.6378,-181.5 1186.8605,-181.5 1340.9196,-181.5"/>
<polygon fill="#191970" stroke="#191970" points="734.3349,-178.0001 724.3349,-181.5 734.3349,-185.0001 734.3349,-178.0001"/>
</g>
<!-- Node22&#45;&gt;Node19 -->
<g id="edge24" class="edge">
<title>Node22&#45;&gt;Node19</title>
<path fill="none" stroke="#191970" d="M1547.6594,-318.5C1616.7168,-318.5 1705.246,-318.5 1767.8787,-318.5"/>
<polygon fill="#191970" stroke="#191970" points="1547.6173,-315.0001 1537.6173,-318.5 1547.6172,-322.0001 1547.6173,-315.0001"/>
</g>
<!-- Node23&#45;&gt;Node22 -->
<g id="edge25" class="edge">
<title>Node23&#45;&gt;Node22</title>
<path fill="none" stroke="#191970" d="M1098.8725,-322.6989C1165.4073,-321.8835 1269.2785,-320.6106 1345.2215,-319.6799"/>
<polygon fill="#191970" stroke="#191970" points="1098.481,-319.2033 1088.5247,-322.8257 1098.5669,-326.2028 1098.481,-319.2033"/>
</g>
<!-- Node24 -->
<g id="node20" class="node">
<title>Node24</title>
<g id="a_node20"><a xlink:href="classgko_1_1EnableCreateMethod.html" target="_top" xlink:title=" ">
<polygon fill="#ffffff" stroke="#000000" points="2144,-267.5 2144,-297.5 2326,-297.5 2326,-267.5 2144,-267.5"/>
<text text-anchor="start" x="2152" y="-285.5" font-family="Helvetica,sans-Serif" font-size="10.00" fill="#000000">gko::EnableCreateMethod</text>
<text text-anchor="middle" x="2235" y="-274.5" font-family="Helvetica,sans-Serif" font-size="10.00" fill="#000000">&lt; Csr&lt; ValueType, IndexType &gt; &gt;</text>
</a>
</g>
</g>
<!-- Node24&#45;&gt;Node1 -->
<g id="edge28" class="edge">
<title>Node24&#45;&gt;Node1</title>
<path fill="none" stroke="#191970" d="M2305.2907,-300.4817C2312.3407,-302.6811 2319.3472,-305.0305 2326,-307.5 2356.7154,-318.9013 2390.4045,-335.3439 2413.5244,-347.2789"/>
<polygon fill="#191970" stroke="#191970" points="2306.2639,-297.1195 2295.679,-297.5784 2304.2397,-303.8205 2306.2639,-297.1195"/>
</g>
<!-- Node25 -->
<g id="node21" class="node">
<title>Node25</title>
<g id="a_node21"><a xlink:href="classgko_1_1EnableCreateMethod.html" target="_top" xlink:title="This mixin implements a static create() method on ConcreteType that dynamically allocates the memory,...">
<polygon fill="#ffffff" stroke="#000000" points="1775,-94.5 1775,-124.5 1917,-124.5 1917,-94.5 1775,-94.5"/>
<text text-anchor="start" x="1783" y="-112.5" font-family="Helvetica,sans-Serif" font-size="10.00" fill="#000000">gko::EnableCreateMethod</text>
<text text-anchor="middle" x="1846" y="-101.5" font-family="Helvetica,sans-Serif" font-size="10.00" fill="#000000">&lt; ConcreteType &gt;</text>
</a>
</g>
</g>
<!-- Node25&#45;&gt;Node24 -->
<g id="edge29" class="edge">
<title>Node25&#45;&gt;Node24</title>
<path fill="none" stroke="#ffa500" stroke-dasharray="5,2" d="M1927.3064,-100.3977C1990.0771,-98.1807 2074.6265,-106.4638 2126,-157.5 2158.3474,-189.635 2113.0988,-224.9719 2144,-258.5 2147.1005,-261.864 2150.6113,-264.7793 2154.4057,-267.3037"/>
<polygon fill="#ffa500" stroke="#ffa500" points="1926.8675,-96.9138 1917.035,-100.86 1927.1823,-103.9068 1926.8675,-96.9138"/>
<text text-anchor="middle" x="2036.5" y="-160.5" font-family="Helvetica,sans-Serif" font-size="10.00" fill="#000000"> &lt; Csr&lt; ValueType, IndexType &gt; &gt;</text>
</g>
<!-- Node26&#45;&gt;Node1 -->
<g id="edge30" class="edge">
<title>Node26&#45;&gt;Node1</title>
<path fill="none" stroke="#191970" d="M1319.7371,-413.5C1403.212,-413.5 1536.9297,-413.5 1652.5,-413.5 1652.5,-413.5 1652.5,-413.5 2235,-413.5 2295.6999,-413.5 2363.581,-392.5696 2404.531,-377.5258"/>
<polygon fill="#191970" stroke="#191970" points="1319.5594,-410.0001 1309.5594,-413.5 1319.5593,-417.0001 1319.5594,-410.0001"/>
</g>
<!-- Node27&#45;&gt;Node1 -->
<g id="edge32" class="edge">
<title>Node27&#45;&gt;Node1</title>
<path fill="none" stroke="#191970" d="M1755.6968,-373.8007C1915.423,-371.1707 2219.0578,-366.171 2362.7893,-363.8043"/>
<polygon fill="#191970" stroke="#191970" points="1755.3283,-370.3062 1745.3873,-373.9705 1755.4436,-377.3053 1755.3283,-370.3062"/>
</g>
<!-- Node28&#45;&gt;Node1 -->
<g id="edge34" class="edge">
<title>Node28&#45;&gt;Node1</title>
<path fill="none" stroke="#191970" d="M2136.529,-597.7214C2201.3389,-601.0285 2284.6118,-594.8597 2345,-553.5 2407.5955,-510.6285 2432.0254,-414.7966 2439.3673,-377.6337"/>
<polygon fill="#191970" stroke="#191970" points="2136.4823,-594.2125 2126.2923,-597.1132 2136.067,-601.2002 2136.4823,-594.2125"/>
</g>
<!-- Node29&#45;&gt;Node1 -->
<g id="edge36" class="edge">
<title>Node29&#45;&gt;Node1</title>
<path fill="none" stroke="#191970" d="M1310.6058,-540.9407C1393.2068,-540.349 1532.616,-539.5 1652.5,-539.5 1652.5,-539.5 1652.5,-539.5 2235,-539.5 2334.2966,-539.5 2409.9776,-420.3945 2433.9694,-377.5909"/>
<polygon fill="#191970" stroke="#191970" points="1310.5466,-537.4409 1300.5722,-541.0133 1310.5973,-544.4407 1310.5466,-537.4409"/>
</g>
<!-- Node30&#45;&gt;Node1 -->
<g id="edge38" class="edge">
<title>Node30&#45;&gt;Node1</title>
<path fill="none" stroke="#191970" d="M1721.0271,-505.5745C1846.6315,-522.771 2119.7633,-545.6214 2326,-459.5 2370.089,-441.0891 2410.1191,-399.8293 2429.5775,-377.5143"/>
<polygon fill="#191970" stroke="#191970" points="1721.1775,-502.0615 1710.7885,-504.1402 1720.2062,-508.9938 1721.1775,-502.0615"/>
</g>
<!-- Node31&#45;&gt;Node1 -->
<g id="edge40" class="edge">
<title>Node31&#45;&gt;Node1</title>
<path fill="none" stroke="#191970" d="M2120.3598,-456.9692C2183.7708,-457.6926 2272.0674,-452.94 2345,-427.5 2376.1992,-416.6172 2406.993,-393.2413 2425.2492,-377.6934"/>
<polygon fill="#191970" stroke="#191970" points="2120.0637,-453.464 2110.0078,-456.8001 2119.9493,-460.463 2120.0637,-453.464"/>
</g>
<!-- Node32 -->
<g id="node28" class="node">
<title>Node32</title>
<g id="a_node28"><a xlink:href="classgko_1_1ReadableFromMatrixData.html" target="_top" xlink:title="A LinOp implementing this interface can read its data from a matrix_data structure.">
<polygon fill="#ffffff" stroke="#000000" points="2153,-218.5 2153,-248.5 2317,-248.5 2317,-218.5 2153,-218.5"/>
<text text-anchor="start" x="2161" y="-236.5" font-family="Helvetica,sans-Serif" font-size="10.00" fill="#000000">gko::ReadableFromMatrixData</text>
<text text-anchor="middle" x="2235" y="-225.5" font-family="Helvetica,sans-Serif" font-size="10.00" fill="#000000">&lt; ValueType, IndexType &gt;</text>
</a>
</g>
</g>
<!-- Node32&#45;&gt;Node1 -->
<g id="edge42" class="edge">
<title>Node32&#45;&gt;Node1</title>
<path fill="none" stroke="#191970" d="M2312.8793,-252.2235C2317.4071,-254.1296 2321.8157,-256.2168 2326,-258.5 2369.2122,-282.0794 2409.6122,-324.6968 2429.3577,-347.3647"/>
<polygon fill="#191970" stroke="#191970" points="2314.0403,-248.9197 2303.4516,-248.5602 2311.505,-255.4444 2314.0403,-248.9197"/>
</g>
<!-- Node33 -->
<g id="node29" class="node">
<title>Node33</title>
<g id="a_node29"><a xlink:href="classgko_1_1WritableToMatrixData.html" target="_top" xlink:title="A LinOp implementing this interface can write its data to a matrix_data structure.">
<polygon fill="#ffffff" stroke="#000000" points="2162,-169.5 2162,-199.5 2308,-199.5 2308,-169.5 2162,-169.5"/>
<text text-anchor="start" x="2170" y="-187.5" font-family="Helvetica,sans-Serif" font-size="10.00" fill="#000000">gko::WritableToMatrixData</text>
<text text-anchor="middle" x="2235" y="-176.5" font-family="Helvetica,sans-Serif" font-size="10.00" fill="#000000">&lt; ValueType, IndexType &gt;</text>
</a>
</g>
</g>
<!-- Node33&#45;&gt;Node1 -->
<g id="edge43" class="edge">
<title>Node33&#45;&gt;Node1</title>
<path fill="none" stroke="#191970" d="M2316.7702,-203.9932C2319.9695,-205.6795 2323.0618,-207.5109 2326,-209.5 2380.1028,-246.1258 2419.3578,-316.3541 2434.7866,-347.2617"/>
<polygon fill="#191970" stroke="#191970" points="2318.0462,-200.7251 2307.5097,-199.6151 2315.0543,-207.0535 2318.0462,-200.7251"/>
</g>
<!-- Node34 -->
<g id="node30" class="node">
<title>Node34</title>
<g id="a_node30"><a xlink:href="classgko_1_1Transposable.html" target="_top" xlink:title="Linear operators which support transposition should implement the Transposable interface.">
<polygon fill="#ffffff" stroke="#000000" points="2183,-131 2183,-150 2287,-150 2287,-131 2183,-131"/>
<text text-anchor="middle" x="2235" y="-138" font-family="Helvetica,sans-Serif" font-size="10.00" fill="#000000">gko::Transposable</text>
</a>
</g>
</g>
<!-- Node34&#45;&gt;Node1 -->
<g id="edge44" class="edge">
<title>Node34&#45;&gt;Node1</title>
<path fill="none" stroke="#191970" d="M2297.1406,-146.8767C2307.4302,-149.9074 2317.5,-154.2643 2326,-160.5 2392.8446,-209.5381 2427.0185,-309.5712 2437.9817,-347.482"/>
<polygon fill="#191970" stroke="#191970" points="2297.8065,-143.4347 2287.2521,-144.3594 2296.0796,-150.2183 2297.8065,-143.4347"/>
</g>
<!-- Node35 -->
<g id="node31" class="node">
<title>Node35</title>
<g id="a_node31"><a xlink:href="classgko_1_1Permutable.html" target="_top" xlink:title="Linear operators which support permutation should implement the Permutable interface.">
<polygon fill="#ffffff" stroke="#000000" points="2150.5,-93 2150.5,-112 2319.5,-112 2319.5,-93 2150.5,-93"/>
<text text-anchor="middle" x="2235" y="-100" font-family="Helvetica,sans-Serif" font-size="10.00" fill="#000000">gko::Permutable&lt; IndexType &gt;</text>
</a>
</g>
</g>
<!-- Node35&#45;&gt;Node1 -->
<g id="edge45" class="edge">
<title>Node35&#45;&gt;Node1</title>
<path fill="none" stroke="#191970" d="M2319.356,-116.9326C2321.6646,-118.3275 2323.8869,-119.8464 2326,-121.5 2402.6109,-181.4526 2431.5179,-304.6803 2439.4916,-347.4685"/>
<polygon fill="#191970" stroke="#191970" points="2320.5649,-113.6182 2310.0729,-112.1459 2317.3568,-119.8397 2320.5649,-113.6182"/>
</g>
</g>
</svg>
