<?xml version="1.0" encoding="UTF-8" standalone="no"?>
<!DOCTYPE svg PUBLIC "-//W3C//DTD SVG 1.1//EN"
 "http://www.w3.org/Graphics/SVG/1.1/DTD/svg11.dtd">
<!-- Generated by graphviz version 2.40.1 (20161225.0304)
 -->
<!-- Title: gko::matrix::Hybrid&lt; ValueType, IndexType &gt; Pages: 1 -->
<svg width="2415pt" height="544pt"
 viewBox="0.00 0.00 2415.00 544.00" xmlns="http://www.w3.org/2000/svg" xmlns:xlink="http://www.w3.org/1999/xlink">
<g id="graph0" class="graph" transform="scale(1 1) rotate(0) translate(4 540)">
<title>gko::matrix::Hybrid&lt; ValueType, IndexType &gt;</title>
<polygon fill="#ffffff" stroke="transparent" points="-4,4 -4,-540 2411,-540 2411,4 -4,4"/>
<!-- Node0 -->
<g id="node1" class="node">
<title>Node0</title>
<polygon fill="#bfbfbf" stroke="#000000" points="2263,-115.5 2263,-145.5 2407,-145.5 2407,-115.5 2263,-115.5"/>
<text text-anchor="start" x="2271" y="-133.5" font-family="Helvetica,sans-Serif" font-size="10.00" fill="#000000">gko::matrix::Hybrid</text>
<text text-anchor="middle" x="2335" y="-122.5" font-family="Helvetica,sans-Serif" font-size="10.00" fill="#000000">&lt; ValueType, IndexType &gt;</text>
</g>
<!-- Node1 -->
<g id="node2" class="node">
<title>Node1</title>
<g id="a_node2"><a xlink:href="classgko_1_1EnableLinOp.html" target="_top" xlink:title="gko::EnableLinOp\&lt; Hybrid\l\&lt; ValueType, IndexType \&gt; \&gt;">
<polygon fill="#ffffff" stroke="#000000" points="2049,-240.5 2049,-270.5 2204,-270.5 2204,-240.5 2049,-240.5"/>
<text text-anchor="start" x="2057" y="-258.5" font-family="Helvetica,sans-Serif" font-size="10.00" fill="#000000">gko::EnableLinOp&lt; Hybrid</text>
<text text-anchor="middle" x="2126.5" y="-247.5" font-family="Helvetica,sans-Serif" font-size="10.00" fill="#000000">&lt; ValueType, IndexType &gt; &gt;</text>
</a>
</g>
</g>
<!-- Node1&#45;&gt;Node0 -->
<g id="edge1" class="edge">
<title>Node1&#45;&gt;Node0</title>
<path fill="none" stroke="#191970" d="M2187.7472,-237.0519C2206.7757,-230.073 2227.3699,-221.183 2245,-210.5 2275.2159,-192.1906 2304.7599,-163.1908 2321.3509,-145.5947"/>
<polygon fill="#191970" stroke="#191970" points="2186.5086,-233.7776 2178.2585,-240.4249 2188.8532,-240.3732 2186.5086,-233.7776"/>
</g>
<!-- Node2 -->
<g id="node3" class="node">
<title>Node2</title>
<g id="a_node3"><a xlink:href="classgko_1_1EnablePolymorphicObject.html" target="_top" xlink:title="gko::EnablePolymorphicObject\l\&lt; Hybrid\&lt; ValueType, IndexType\l \&gt;, LinOp \&gt;">
<polygon fill="#ffffff" stroke="#000000" points="1704,-402 1704,-443 1880,-443 1880,-402 1704,-402"/>
<text text-anchor="start" x="1712" y="-431" font-family="Helvetica,sans-Serif" font-size="10.00" fill="#000000">gko::EnablePolymorphicObject</text>
<text text-anchor="start" x="1712" y="-420" font-family="Helvetica,sans-Serif" font-size="10.00" fill="#000000">&lt; Hybrid&lt; ValueType, IndexType</text>
<text text-anchor="middle" x="1792" y="-409" font-family="Helvetica,sans-Serif" font-size="10.00" fill="#000000"> &gt;, LinOp &gt;</text>
</a>
</g>
</g>
<!-- Node2&#45;&gt;Node1 -->
<g id="edge2" class="edge">
<title>Node2&#45;&gt;Node1</title>
<path fill="none" stroke="#191970" d="M1842.4951,-397.2902C1912.9358,-362.1225 2038.5144,-299.427 2096.1108,-270.6719"/>
<polygon fill="#191970" stroke="#191970" points="1840.7353,-394.2568 1833.3518,-401.855 1843.8621,-400.5196 1840.7353,-394.2568"/>
</g>
<!-- Node3 -->
<g id="node4" class="node">
<title>Node3</title>
<g id="a_node4"><a xlink:href="classgko_1_1EnableAbstractPolymorphicObject.html" target="_top" xlink:title="gko::EnableAbstractPolymorphic\lObject\&lt; Hybrid\&lt; ValueType,\l IndexType \&gt;, LinOp \&gt;">
<polygon fill="#ffffff" stroke="#000000" points="1298,-463 1298,-504 1473,-504 1473,-463 1298,-463"/>
<text text-anchor="start" x="1306" y="-492" font-family="Helvetica,sans-Serif" font-size="10.00" fill="#000000">gko::EnableAbstractPolymorphic</text>
<text text-anchor="start" x="1306" y="-481" font-family="Helvetica,sans-Serif" font-size="10.00" fill="#000000">Object&lt; Hybrid&lt; ValueType,</text>
<text text-anchor="middle" x="1385.5" y="-470" font-family="Helvetica,sans-Serif" font-size="10.00" fill="#000000"> IndexType &gt;, LinOp &gt;</text>
</a>
</g>
</g>
<!-- Node3&#45;&gt;Node2 -->
<g id="edge3" class="edge">
<title>Node3&#45;&gt;Node2</title>
<path fill="none" stroke="#191970" d="M1483.3668,-468.814C1550.4848,-458.7421 1638.7972,-445.4898 1703.7525,-435.7426"/>
<polygon fill="#191970" stroke="#191970" points="1482.5738,-465.3937 1473.204,-470.339 1483.6127,-472.3162 1482.5738,-465.3937"/>
</g>
<!-- Node4 -->
<g id="node5" class="node">
<title>Node4</title>
<g id="a_node5"><a xlink:href="classgko_1_1LinOp.html" target="_top" xlink:title="gko::LinOp">
<polygon fill="#ffffff" stroke="#000000" points="959.5,-507 959.5,-526 1027.5,-526 1027.5,-507 959.5,-507"/>
<text text-anchor="middle" x="993.5" y="-514" font-family="Helvetica,sans-Serif" font-size="10.00" fill="#000000">gko::LinOp</text>
</a>
</g>
</g>
<!-- Node4&#45;&gt;Node3 -->
<g id="edge4" class="edge">
<title>Node4&#45;&gt;Node3</title>
<path fill="none" stroke="#191970" d="M1037.5774,-512.7894C1100.3955,-507.5011 1216.9999,-497.685 1297.805,-490.8825"/>
<polygon fill="#191970" stroke="#191970" points="1037.2728,-509.3026 1027.6017,-513.6292 1037.8601,-516.2779 1037.2728,-509.3026"/>
</g>
<!-- Node5 -->
<g id="node6" class="node">
<title>Node5</title>
<g id="a_node6"><a xlink:href="classgko_1_1EnableAbstractPolymorphicObject.html" target="_top" xlink:title="gko::EnableAbstractPolymorphic\lObject\&lt; LinOp \&gt;">
<polygon fill="#ffffff" stroke="#ff0000" points="538,-505.5 538,-535.5 713,-535.5 713,-505.5 538,-505.5"/>
<text text-anchor="start" x="546" y="-523.5" font-family="Helvetica,sans-Serif" font-size="10.00" fill="#000000">gko::EnableAbstractPolymorphic</text>
<text text-anchor="middle" x="625.5" y="-512.5" font-family="Helvetica,sans-Serif" font-size="10.00" fill="#000000">Object&lt; LinOp &gt;</text>
</a>
</g>
</g>
<!-- Node5&#45;&gt;Node4 -->
<g id="edge5" class="edge">
<title>Node5&#45;&gt;Node4</title>
<path fill="none" stroke="#191970" d="M723.5197,-519.4346C801.5493,-518.5864 906.1921,-517.449 959.3753,-516.8709"/>
<polygon fill="#191970" stroke="#191970" points="723.139,-515.9384 713.1776,-519.547 723.2151,-522.938 723.139,-515.9384"/>
</g>
<!-- Node10 -->
<g id="node7" class="node">
<title>Node10</title>
<g id="a_node7"><a xlink:href="classgko_1_1EnableAbstractPolymorphicObject.html" target="_top" xlink:title="This mixin inherits from (a subclass of) PolymorphicObject and provides a base implementation of a ne...">
<polygon fill="#ffffff" stroke="#000000" points="138,-435 138,-476 332,-476 332,-435 138,-435"/>
<text text-anchor="start" x="146" y="-464" font-family="Helvetica,sans-Serif" font-size="10.00" fill="#000000">gko::EnableAbstractPolymorphic</text>
<text text-anchor="start" x="146" y="-453" font-family="Helvetica,sans-Serif" font-size="10.00" fill="#000000">Object&lt; AbstactObject, Polymorphic</text>
<text text-anchor="middle" x="235" y="-442" font-family="Helvetica,sans-Serif" font-size="10.00" fill="#000000">Base &gt;</text>
</a>
</g>
</g>
<!-- Node10&#45;&gt;Node3 -->
<g id="edge8" class="edge">
<title>Node10&#45;&gt;Node3</title>
<path fill="none" stroke="#ffa500" stroke-dasharray="5,2" d="M342.3088,-462.1714C344.8975,-462.2873 347.4643,-462.3972 350,-462.5 701.0177,-476.7366 1119.3796,-481.4744 1297.8438,-482.9199"/>
<polygon fill="#ffa500" stroke="#ffa500" points="342.3895,-458.6714 332.2357,-461.6964 342.0597,-465.6637 342.3895,-458.6714"/>
<text text-anchor="start" x="753" y="-490.5" font-family="Helvetica,sans-Serif" font-size="10.00" fill="#000000"> &lt; Hybrid&lt; ValueType,</text>
<text text-anchor="middle" x="808.5" y="-479.5" font-family="Helvetica,sans-Serif" font-size="10.00" fill="#000000"> IndexType &gt;, LinOp &gt;</text>
</g>
<!-- Node10&#45;&gt;Node5 -->
<g id="edge6" class="edge">
<title>Node10&#45;&gt;Node5</title>
<path fill="none" stroke="#ffa500" stroke-dasharray="5,2" d="M304.6461,-478.973C319.4844,-483.3309 335.1572,-487.461 350,-490.5 412.2179,-503.2388 483.5206,-510.8168 537.9975,-515.1692"/>
<polygon fill="#ffa500" stroke="#ffa500" points="305.617,-475.6102 295.0328,-476.0855 303.6032,-482.3143 305.617,-475.6102"/>
<text text-anchor="middle" x="428.5" y="-514.5" font-family="Helvetica,sans-Serif" font-size="10.00" fill="#000000"> &lt; LinOp &gt;</text>
</g>
<!-- Node13 -->
<g id="node10" class="node">
<title>Node13</title>
<g id="a_node10"><a xlink:href="classgko_1_1EnableAbstractPolymorphicObject.html" target="_top" xlink:title="gko::EnableAbstractPolymorphic\lObject\&lt; ConcreteObject, Polymorphic\lBase \&gt;">
<polygon fill="#ffffff" stroke="#000000" points="525,-397 525,-438 726,-438 726,-397 525,-397"/>
<text text-anchor="start" x="533" y="-426" font-family="Helvetica,sans-Serif" font-size="10.00" fill="#000000">gko::EnableAbstractPolymorphic</text>
<text text-anchor="start" x="533" y="-415" font-family="Helvetica,sans-Serif" font-size="10.00" fill="#000000">Object&lt; ConcreteObject, Polymorphic</text>
<text text-anchor="middle" x="625.5" y="-404" font-family="Helvetica,sans-Serif" font-size="10.00" fill="#000000">Base &gt;</text>
</a>
</g>
</g>
<!-- Node10&#45;&gt;Node13 -->
<g id="edge12" class="edge">
<title>Node10&#45;&gt;Node13</title>
<path fill="none" stroke="#ffa500" stroke-dasharray="5,2" d="M342.297,-441.3427C344.8891,-441.053 347.4599,-440.7715 350,-440.5 407.8658,-434.3141 472.7196,-428.8283 524.9611,-424.7672"/>
<polygon fill="#ffa500" stroke="#ffa500" points="341.7488,-437.8826 332.2121,-442.4979 342.5454,-444.8371 341.7488,-437.8826"/>
<text text-anchor="start" x="350" y="-454.5" font-family="Helvetica,sans-Serif" font-size="10.00" fill="#000000"> &lt; ConcreteObject, Polymorphic</text>
<text text-anchor="middle" x="428.5" y="-443.5" font-family="Helvetica,sans-Serif" font-size="10.00" fill="#000000">Base &gt;</text>
</g>
<!-- Node20 -->
<g id="node17" class="node">
<title>Node20</title>
<g id="a_node17"><a xlink:href="classgko_1_1EnableAbstractPolymorphicObject.html" target="_top" xlink:title="gko::EnableAbstractPolymorphic\lObject\&lt; ConcreteLinOp, Polymorphic\lBase \&gt;">
<polygon fill="#ffffff" stroke="#000000" points="527,-332 527,-373 724,-373 724,-332 527,-332"/>
<text text-anchor="start" x="535" y="-361" font-family="Helvetica,sans-Serif" font-size="10.00" fill="#000000">gko::EnableAbstractPolymorphic</text>
<text text-anchor="start" x="535" y="-350" font-family="Helvetica,sans-Serif" font-size="10.00" fill="#000000">Object&lt; ConcreteLinOp, Polymorphic</text>
<text text-anchor="middle" x="625.5" y="-339" font-family="Helvetica,sans-Serif" font-size="10.00" fill="#000000">Base &gt;</text>
</a>
</g>
</g>
<!-- Node10&#45;&gt;Node20 -->
<g id="edge22" class="edge">
<title>Node10&#45;&gt;Node20</title>
<path fill="none" stroke="#ffa500" stroke-dasharray="5,2" d="M279.3501,-430.2336C300.2135,-419.3161 325.7834,-407.2857 350,-399.5 407.2784,-381.0848 473.7059,-369.4823 526.9808,-362.4131"/>
<polygon fill="#ffa500" stroke="#ffa500" points="277.5987,-427.2009 270.4167,-434.99 280.8884,-433.3797 277.5987,-427.2009"/>
<text text-anchor="start" x="352" y="-413.5" font-family="Helvetica,sans-Serif" font-size="10.00" fill="#000000"> &lt; ConcreteLinOp, Polymorphic</text>
<text text-anchor="middle" x="428.5" y="-402.5" font-family="Helvetica,sans-Serif" font-size="10.00" fill="#000000">Base &gt;</text>
</g>
<!-- Node11 -->
<g id="node8" class="node">
<title>Node11</title>
<polygon fill="#ffffff" stroke="#bfbfbf" points="0,-397 0,-416 101,-416 101,-397 0,-397"/>
<text text-anchor="middle" x="50.5" y="-404" font-family="Helvetica,sans-Serif" font-size="10.00" fill="#000000">PolymorphicBase</text>
</g>
<!-- Node11&#45;&gt;Node10 -->
<g id="edge7" class="edge">
<title>Node11&#45;&gt;Node10</title>
<path fill="none" stroke="#191970" d="M96.3988,-418.6899C114.8661,-423.5945 136.6815,-429.3883 157.4728,-434.9101"/>
<polygon fill="#191970" stroke="#191970" points="97.0748,-415.2482 86.5114,-416.064 95.278,-422.0137 97.0748,-415.2482"/>
</g>
<!-- Node11&#45;&gt;Node13 -->
<g id="edge11" class="edge">
<title>Node11&#45;&gt;Node13</title>
<path fill="none" stroke="#191970" d="M111.106,-407.6594C209.5893,-409.5434 405.3646,-413.2887 524.9499,-415.5764"/>
<polygon fill="#191970" stroke="#191970" points="111.0886,-404.1585 101.0235,-407.4665 110.9547,-411.1573 111.0886,-404.1585"/>
</g>
<!-- Node11&#45;&gt;Node20 -->
<g id="edge21" class="edge">
<title>Node11&#45;&gt;Node20</title>
<path fill="none" stroke="#191970" d="M110.1743,-395.1122C170.4306,-384.1389 266.303,-368.1134 350,-360.5 408.4944,-355.1791 474.2345,-353.1216 526.8233,-352.4212"/>
<polygon fill="#191970" stroke="#191970" points="109.2877,-391.7164 100.0834,-396.9634 110.5508,-398.6015 109.2877,-391.7164"/>
</g>
<!-- Node12 -->
<g id="node9" class="node">
<title>Node12</title>
<g id="a_node9"><a xlink:href="classgko_1_1EnablePolymorphicObject.html" target="_top" xlink:title="This mixin inherits from (a subclass of) PolymorphicObject and provides a base implementation of a ne...">
<polygon fill="#ffffff" stroke="#000000" points="891,-402.5 891,-432.5 1096,-432.5 1096,-402.5 891,-402.5"/>
<text text-anchor="start" x="899" y="-420.5" font-family="Helvetica,sans-Serif" font-size="10.00" fill="#000000">gko::EnablePolymorphicObject</text>
<text text-anchor="middle" x="993.5" y="-409.5" font-family="Helvetica,sans-Serif" font-size="10.00" fill="#000000">&lt; ConcreteObject, PolymorphicBase &gt;</text>
</a>
</g>
</g>
<!-- Node12&#45;&gt;Node2 -->
<g id="edge9" class="edge">
<title>Node12&#45;&gt;Node2</title>
<path fill="none" stroke="#ffa500" stroke-dasharray="5,2" d="M1106.6436,-418.2085C1267.259,-419.2142 1558.0121,-421.0348 1703.74,-421.9473"/>
<polygon fill="#ffa500" stroke="#ffa500" points="1106.277,-414.7062 1096.2552,-418.1434 1106.2331,-421.7061 1106.277,-414.7062"/>
<text text-anchor="start" x="1330" y="-434.5" font-family="Helvetica,sans-Serif" font-size="10.00" fill="#000000"> &lt; Hybrid&lt; ValueType,</text>
<text text-anchor="middle" x="1385.5" y="-423.5" font-family="Helvetica,sans-Serif" font-size="10.00" fill="#000000"> IndexType &gt;, LinOp &gt;</text>
</g>
<!-- Node19 -->
<g id="node16" class="node">
<title>Node19</title>
<g id="a_node16"><a xlink:href="classgko_1_1EnablePolymorphicObject.html" target="_top" xlink:title="gko::EnablePolymorphicObject\l\&lt; ConcreteLinOp, PolymorphicBase \&gt;">
<polygon fill="#ffffff" stroke="#000000" points="1285,-337.5 1285,-367.5 1486,-367.5 1486,-337.5 1285,-337.5"/>
<text text-anchor="start" x="1293" y="-355.5" font-family="Helvetica,sans-Serif" font-size="10.00" fill="#000000">gko::EnablePolymorphicObject</text>
<text text-anchor="middle" x="1385.5" y="-344.5" font-family="Helvetica,sans-Serif" font-size="10.00" fill="#000000">&lt; ConcreteLinOp, PolymorphicBase &gt;</text>
</a>
</g>
</g>
<!-- Node12&#45;&gt;Node19 -->
<g id="edge23" class="edge">
<title>Node12&#45;&gt;Node19</title>
<path fill="none" stroke="#ffa500" stroke-dasharray="5,2" d="M1055.7937,-399.8644C1074.4068,-395.0322 1094.9335,-390.1311 1114,-386.5 1170.1145,-375.8133 1233.4166,-367.6644 1284.7727,-362.0271"/>
<polygon fill="#ffa500" stroke="#ffa500" points="1054.7408,-396.5223 1045.963,-402.4553 1056.5248,-403.2911 1054.7408,-396.5223"/>
<text text-anchor="start" x="1114" y="-400.5" font-family="Helvetica,sans-Serif" font-size="10.00" fill="#000000"> &lt; ConcreteLinOp, Polymorphic</text>
<text text-anchor="middle" x="1190.5" y="-389.5" font-family="Helvetica,sans-Serif" font-size="10.00" fill="#000000">Base &gt;</text>
</g>
<!-- Node13&#45;&gt;Node12 -->
<g id="edge10" class="edge">
<title>Node13&#45;&gt;Node12</title>
<path fill="none" stroke="#191970" d="M736.0843,-417.5C785.2,-417.5 842.6641,-417.5 890.8233,-417.5"/>
<polygon fill="#191970" stroke="#191970" points="736.0577,-414.0001 726.0576,-417.5 736.0576,-421.0001 736.0577,-414.0001"/>
</g>
<!-- Node14 -->
<g id="node11" class="node">
<title>Node14</title>
<g id="a_node11"><a xlink:href="classgko_1_1EnablePolymorphicAssignment.html" target="_top" xlink:title="gko::EnablePolymorphicAssignment\l\&lt; Hybrid\&lt; ValueType, IndexType \&gt; \&gt;">
<polygon fill="#ffffff" stroke="#000000" points="1286,-222.5 1286,-252.5 1485,-252.5 1485,-222.5 1286,-222.5"/>
<text text-anchor="start" x="1294" y="-240.5" font-family="Helvetica,sans-Serif" font-size="10.00" fill="#000000">gko::EnablePolymorphicAssignment</text>
<text text-anchor="middle" x="1385.5" y="-229.5" font-family="Helvetica,sans-Serif" font-size="10.00" fill="#000000">&lt; Hybrid&lt; ValueType, IndexType &gt; &gt;</text>
</a>
</g>
</g>
<!-- Node14&#45;&gt;Node1 -->
<g id="edge13" class="edge">
<title>Node14&#45;&gt;Node1</title>
<path fill="none" stroke="#191970" d="M1495.3097,-240.1674C1646.9093,-243.85 1916.5519,-250.4 2048.8828,-253.6146"/>
<polygon fill="#191970" stroke="#191970" points="1495.1319,-236.6622 1485.0498,-239.9182 1494.9619,-243.6601 1495.1319,-236.6622"/>
</g>
<!-- Node15 -->
<g id="node12" class="node">
<title>Node15</title>
<g id="a_node12"><a xlink:href="classgko_1_1ConvertibleTo.html" target="_top" xlink:title="gko::ConvertibleTo\l\&lt; Hybrid\&lt; ValueType,\l IndexType \&gt; \&gt;">
<polygon fill="#ffffff" stroke="#000000" points="931.5,-184 931.5,-225 1055.5,-225 1055.5,-184 931.5,-184"/>
<text text-anchor="start" x="939.5" y="-213" font-family="Helvetica,sans-Serif" font-size="10.00" fill="#000000">gko::ConvertibleTo</text>
<text text-anchor="start" x="939.5" y="-202" font-family="Helvetica,sans-Serif" font-size="10.00" fill="#000000">&lt; Hybrid&lt; ValueType,</text>
<text text-anchor="middle" x="993.5" y="-191" font-family="Helvetica,sans-Serif" font-size="10.00" fill="#000000"> IndexType &gt; &gt;</text>
</a>
</g>
</g>
<!-- Node15&#45;&gt;Node14 -->
<g id="edge14" class="edge">
<title>Node15&#45;&gt;Node14</title>
<path fill="none" stroke="#191970" d="M1065.6745,-210.5759C1127.5167,-215.782 1217.2126,-223.3329 1285.8878,-229.1143"/>
<polygon fill="#191970" stroke="#191970" points="1065.872,-207.0802 1055.6136,-209.7289 1065.2847,-214.0556 1065.872,-207.0802"/>
</g>
<!-- Node16 -->
<g id="node13" class="node">
<title>Node16</title>
<g id="a_node13"><a xlink:href="classgko_1_1ConvertibleTo.html" target="_top" xlink:title="ConvertibleTo interface is used to mark that the implementer can be converted to the object of Result...">
<polygon fill="#ffffff" stroke="#000000" points="572,-189.5 572,-219.5 679,-219.5 679,-189.5 572,-189.5"/>
<text text-anchor="start" x="580" y="-207.5" font-family="Helvetica,sans-Serif" font-size="10.00" fill="#000000">gko::ConvertibleTo</text>
<text text-anchor="middle" x="625.5" y="-196.5" font-family="Helvetica,sans-Serif" font-size="10.00" fill="#000000">&lt; ResultType &gt;</text>
</a>
</g>
</g>
<!-- Node16&#45;&gt;Node15 -->
<g id="edge15" class="edge">
<title>Node16&#45;&gt;Node15</title>
<path fill="none" stroke="#ffa500" stroke-dasharray="5,2" d="M689.1511,-204.5C757.0681,-204.5 863.9556,-204.5 931.308,-204.5"/>
<polygon fill="#ffa500" stroke="#ffa500" points="689.0104,-201.0001 679.0104,-204.5 689.0103,-208.0001 689.0104,-201.0001"/>
<text text-anchor="start" x="753" y="-218.5" font-family="Helvetica,sans-Serif" font-size="10.00" fill="#000000"> &lt; Hybrid&lt; ValueType,</text>
<text text-anchor="middle" x="808.5" y="-207.5" font-family="Helvetica,sans-Serif" font-size="10.00" fill="#000000"> IndexType &gt; &gt;</text>
</g>
<!-- Node17 -->
<g id="node14" class="node">
<title>Node17</title>
<g id="a_node14"><a xlink:href="classgko_1_1EnablePolymorphicAssignment.html" target="_top" xlink:title="This mixin is used to enable a default PolymorphicObject::copy_from() implementation for objects that...">
<polygon fill="#ffffff" stroke="#000000" points="897.5,-244.5 897.5,-274.5 1089.5,-274.5 1089.5,-244.5 897.5,-244.5"/>
<text text-anchor="start" x="905.5" y="-262.5" font-family="Helvetica,sans-Serif" font-size="10.00" fill="#000000">gko::EnablePolymorphicAssignment</text>
<text text-anchor="middle" x="993.5" y="-251.5" font-family="Helvetica,sans-Serif" font-size="10.00" fill="#000000">&lt; ConcreteType, ResultType &gt;</text>
</a>
</g>
</g>
<!-- Node16&#45;&gt;Node17 -->
<g id="edge17" class="edge">
<title>Node16&#45;&gt;Node17</title>
<path fill="none" stroke="#191970" d="M689.4263,-219.7556C707.0413,-223.623 726.2007,-227.5206 744,-230.5 794.3208,-238.9231 850.7602,-245.7044 897.2145,-250.5852"/>
<polygon fill="#191970" stroke="#191970" points="689.7771,-216.248 679.2552,-217.4891 688.2546,-223.0804 689.7771,-216.248"/>
</g>
<!-- Node22 -->
<g id="node19" class="node">
<title>Node22</title>
<g id="a_node19"><a xlink:href="classgko_1_1ConvertibleTo.html" target="_top" xlink:title="gko::ConvertibleTo\l\&lt; ConcreteLinOp \&gt;">
<polygon fill="#ffffff" stroke="#000000" points="938.5,-293.5 938.5,-323.5 1048.5,-323.5 1048.5,-293.5 938.5,-293.5"/>
<text text-anchor="start" x="946.5" y="-311.5" font-family="Helvetica,sans-Serif" font-size="10.00" fill="#000000">gko::ConvertibleTo</text>
<text text-anchor="middle" x="993.5" y="-300.5" font-family="Helvetica,sans-Serif" font-size="10.00" fill="#000000">&lt; ConcreteLinOp &gt;</text>
</a>
</g>
</g>
<!-- Node16&#45;&gt;Node22 -->
<g id="edge26" class="edge">
<title>Node16&#45;&gt;Node22</title>
<path fill="none" stroke="#ffa500" stroke-dasharray="5,2" d="M667.6329,-223.5336C689.9992,-233.1328 718.1391,-244.4201 744,-252.5 809.6791,-273.0205 887.2897,-289.2212 938.3061,-298.8103"/>
<polygon fill="#ffa500" stroke="#ffa500" points="668.991,-220.3077 658.4243,-219.5373 666.2043,-226.7291 668.991,-220.3077"/>
<text text-anchor="middle" x="808.5" y="-287.5" font-family="Helvetica,sans-Serif" font-size="10.00" fill="#000000"> &lt; ConcreteLinOp &gt;</text>
</g>
<!-- Node25 -->
<g id="node22" class="node">
<title>Node25</title>
<g id="a_node22"><a xlink:href="classgko_1_1ConvertibleTo.html" target="_top" xlink:title="gko::ConvertibleTo\l\&lt; Dense\&lt; ValueType \&gt; \&gt;">
<polygon fill="#ffffff" stroke="#000000" points="1119.5,-93.5 1119.5,-123.5 1261.5,-123.5 1261.5,-93.5 1119.5,-93.5"/>
<text text-anchor="start" x="1127.5" y="-111.5" font-family="Helvetica,sans-Serif" font-size="10.00" fill="#000000">gko::ConvertibleTo</text>
<text text-anchor="middle" x="1190.5" y="-100.5" font-family="Helvetica,sans-Serif" font-size="10.00" fill="#000000">&lt; Dense&lt; ValueType &gt; &gt;</text>
</a>
</g>
</g>
<!-- Node16&#45;&gt;Node25 -->
<g id="edge31" class="edge">
<title>Node16&#45;&gt;Node25</title>
<path fill="none" stroke="#ffa500" stroke-dasharray="5,2" d="M650.6741,-183.0418C673.4115,-165.0832 708.6384,-140.6573 744,-129.5 871.4765,-89.2787 1029.5511,-93.676 1119.3355,-100.8579"/>
<polygon fill="#ffa500" stroke="#ffa500" points="648.4681,-180.3244 642.8851,-189.3289 652.8648,-185.7714 648.4681,-180.3244"/>
<text text-anchor="middle" x="808.5" y="-132.5" font-family="Helvetica,sans-Serif" font-size="10.00" fill="#000000"> &lt; Dense&lt; ValueType &gt; &gt;</text>
</g>
<!-- Node26 -->
<g id="node23" class="node">
<title>Node26</title>
<g id="a_node23"><a xlink:href="classgko_1_1ConvertibleTo.html" target="_top" xlink:title="gko::ConvertibleTo\l\&lt; Csr\&lt; ValueType, IndexType \&gt; \&gt;">
<polygon fill="#ffffff" stroke="#000000" points="1504,-160.5 1504,-190.5 1686,-190.5 1686,-160.5 1504,-160.5"/>
<text text-anchor="start" x="1512" y="-178.5" font-family="Helvetica,sans-Serif" font-size="10.00" fill="#000000">gko::ConvertibleTo</text>
<text text-anchor="middle" x="1595" y="-167.5" font-family="Helvetica,sans-Serif" font-size="10.00" fill="#000000">&lt; Csr&lt; ValueType, IndexType &gt; &gt;</text>
</a>
</g>
</g>
<!-- Node16&#45;&gt;Node26 -->
<g id="edge33" class="edge">
<title>Node16&#45;&gt;Node26</title>
<path fill="none" stroke="#ffa500" stroke-dasharray="5,2" d="M689.1578,-191.8618C742.7435,-181.9004 821.5366,-168.8319 891,-163.5 1110.539,-146.6487 1369.6673,-159.4518 1503.9863,-168.5215"/>
<polygon fill="#ffa500" stroke="#ffa500" points="688.303,-188.461 679.1205,-193.7462 689.5946,-195.3408 688.303,-188.461"/>
<text text-anchor="middle" x="993.5" y="-166.5" font-family="Helvetica,sans-Serif" font-size="10.00" fill="#000000"> &lt; Csr&lt; ValueType, IndexType &gt; &gt;</text>
</g>
<!-- Node17&#45;&gt;Node14 -->
<g id="edge16" class="edge">
<title>Node17&#45;&gt;Node14</title>
<path fill="none" stroke="#ffa500" stroke-dasharray="5,2" d="M1078.1364,-242.8999C1090.134,-241.0877 1102.3493,-239.5292 1114,-238.5 1170.6956,-233.4915 1234.3107,-232.9853 1285.7039,-233.8485"/>
<polygon fill="#ffa500" stroke="#ffa500" points="1077.4607,-239.4631 1068.1268,-244.4759 1078.5495,-246.3779 1077.4607,-239.4631"/>
<text text-anchor="start" x="1135" y="-252.5" font-family="Helvetica,sans-Serif" font-size="10.00" fill="#000000"> &lt; Hybrid&lt; ValueType,</text>
<text text-anchor="middle" x="1190.5" y="-241.5" font-family="Helvetica,sans-Serif" font-size="10.00" fill="#000000"> IndexType &gt; &gt;</text>
</g>
<!-- Node21 -->
<g id="node18" class="node">
<title>Node21</title>
<g id="a_node18"><a xlink:href="classgko_1_1EnablePolymorphicAssignment.html" target="_top" xlink:title="gko::EnablePolymorphicAssignment\l\&lt; ConcreteLinOp \&gt;">
<polygon fill="#ffffff" stroke="#000000" points="1289.5,-282.5 1289.5,-312.5 1481.5,-312.5 1481.5,-282.5 1289.5,-282.5"/>
<text text-anchor="start" x="1297.5" y="-300.5" font-family="Helvetica,sans-Serif" font-size="10.00" fill="#000000">gko::EnablePolymorphicAssignment</text>
<text text-anchor="middle" x="1385.5" y="-289.5" font-family="Helvetica,sans-Serif" font-size="10.00" fill="#000000">&lt; ConcreteLinOp &gt;</text>
</a>
</g>
</g>
<!-- Node17&#45;&gt;Node21 -->
<g id="edge27" class="edge">
<title>Node17&#45;&gt;Node21</title>
<path fill="none" stroke="#ffa500" stroke-dasharray="5,2" d="M1099.6932,-269.4422C1150.3543,-274.2244 1211.8178,-280.0831 1267,-285.5 1274.3056,-286.2171 1281.8638,-286.9662 1289.4641,-287.7244"/>
<polygon fill="#ffa500" stroke="#ffa500" points="1099.9946,-265.9552 1089.7101,-268.5006 1099.3372,-272.9243 1099.9946,-265.9552"/>
<text text-anchor="middle" x="1190.5" y="-288.5" font-family="Helvetica,sans-Serif" font-size="10.00" fill="#000000"> &lt; ConcreteLinOp &gt;</text>
</g>
<!-- Node18 -->
<g id="node15" class="node">
<title>Node18</title>
<g id="a_node15"><a xlink:href="classgko_1_1EnableLinOp.html" target="_top" xlink:title="The EnableLinOp mixin can be used to provide sensible default implementations of the majority of the ...">
<polygon fill="#ffffff" stroke="#000000" points="1714,-282.5 1714,-312.5 1870,-312.5 1870,-282.5 1714,-282.5"/>
<text text-anchor="start" x="1722" y="-300.5" font-family="Helvetica,sans-Serif" font-size="10.00" fill="#000000">gko::EnableLinOp&lt; Concrete</text>
<text text-anchor="middle" x="1792" y="-289.5" font-family="Helvetica,sans-Serif" font-size="10.00" fill="#000000">LinOp, PolymorphicBase &gt;</text>
</a>
</g>
</g>
<!-- Node18&#45;&gt;Node1 -->
<g id="edge18" class="edge">
<title>Node18&#45;&gt;Node1</title>
<path fill="none" stroke="#ffa500" stroke-dasharray="5,2" d="M1879.9709,-286.4543C1932.4371,-279.8666 1998.4446,-271.5787 2048.9519,-265.237"/>
<polygon fill="#ffa500" stroke="#ffa500" points="1879.4893,-282.9872 1870.0032,-287.7059 1880.3614,-289.9327 1879.4893,-282.9872"/>
<text text-anchor="start" x="1898" y="-297.5" font-family="Helvetica,sans-Serif" font-size="10.00" fill="#000000"> &lt; Hybrid&lt; ValueType,</text>
<text text-anchor="middle" x="1953.5" y="-286.5" font-family="Helvetica,sans-Serif" font-size="10.00" fill="#000000"> IndexType &gt; &gt;</text>
</g>
<!-- Node19&#45;&gt;Node18 -->
<g id="edge19" class="edge">
<title>Node19&#45;&gt;Node18</title>
<path fill="none" stroke="#191970" d="M1496.2714,-337.5125C1565.154,-328.1926 1652.0479,-316.4357 1713.7792,-308.0834"/>
<polygon fill="#191970" stroke="#191970" points="1495.6846,-334.0599 1486.2442,-338.8692 1496.6232,-340.9967 1495.6846,-334.0599"/>
</g>
<!-- Node20&#45;&gt;Node19 -->
<g id="edge20" class="edge">
<title>Node20&#45;&gt;Node19</title>
<path fill="none" stroke="#191970" d="M734.4813,-352.5C881.7391,-352.5 1142.2151,-352.5 1284.9812,-352.5"/>
<polygon fill="#191970" stroke="#191970" points="734.0776,-349.0001 724.0776,-352.5 734.0776,-356.0001 734.0776,-349.0001"/>
</g>
<!-- Node21&#45;&gt;Node18 -->
<g id="edge24" class="edge">
<title>Node21&#45;&gt;Node18</title>
<path fill="none" stroke="#191970" d="M1491.7021,-297.5C1561.3398,-297.5 1650.8386,-297.5 1713.9526,-297.5"/>
<polygon fill="#191970" stroke="#191970" points="1491.5774,-294.0001 1481.5773,-297.5 1491.5773,-301.0001 1491.5774,-294.0001"/>
</g>
<!-- Node22&#45;&gt;Node21 -->
<g id="edge25" class="edge">
<title>Node22&#45;&gt;Node21</title>
<path fill="none" stroke="#191970" d="M1059.0239,-306.6613C1121.9342,-304.896 1217.7021,-302.2086 1289.2698,-300.2003"/>
<polygon fill="#191970" stroke="#191970" points="1058.7305,-303.1681 1048.8326,-306.9473 1058.9269,-310.1653 1058.7305,-303.1681"/>
</g>
<!-- Node23 -->
<g id="node20" class="node">
<title>Node23</title>
<g id="a_node20"><a xlink:href="classgko_1_1EnableCreateMethod.html" target="_top" xlink:title="gko::EnableCreateMethod\l\&lt; Hybrid\&lt; ValueType, IndexType \&gt; \&gt;">
<polygon fill="#ffffff" stroke="#000000" points="2027,-137.5 2027,-167.5 2226,-167.5 2226,-137.5 2027,-137.5"/>
<text text-anchor="start" x="2035" y="-155.5" font-family="Helvetica,sans-Serif" font-size="10.00" fill="#000000">gko::EnableCreateMethod</text>
<text text-anchor="middle" x="2126.5" y="-144.5" font-family="Helvetica,sans-Serif" font-size="10.00" fill="#000000">&lt; Hybrid&lt; ValueType, IndexType &gt; &gt;</text>
</a>
</g>
</g>
<!-- Node23&#45;&gt;Node0 -->
<g id="edge28" class="edge">
<title>Node23&#45;&gt;Node0</title>
<path fill="none" stroke="#191970" d="M2236.3096,-140.9134C2245.2823,-139.9666 2254.1999,-139.0257 2262.7955,-138.1187"/>
<polygon fill="#191970" stroke="#191970" points="2235.7475,-137.4532 2226.17,-141.9833 2236.4821,-144.4145 2235.7475,-137.4532"/>
</g>
<!-- Node24 -->
<g id="node21" class="node">
<title>Node24</title>
<g id="a_node21"><a xlink:href="classgko_1_1EnableCreateMethod.html" target="_top" xlink:title="This mixin implements a static create() method on ConcreteType that dynamically allocates the memory...">
<polygon fill="#ffffff" stroke="#000000" points="1721,-137.5 1721,-167.5 1863,-167.5 1863,-137.5 1721,-137.5"/>
<text text-anchor="start" x="1729" y="-155.5" font-family="Helvetica,sans-Serif" font-size="10.00" fill="#000000">gko::EnableCreateMethod</text>
<text text-anchor="middle" x="1792" y="-144.5" font-family="Helvetica,sans-Serif" font-size="10.00" fill="#000000">&lt; ConcreteType &gt;</text>
</a>
</g>
</g>
<!-- Node24&#45;&gt;Node23 -->
<g id="edge29" class="edge">
<title>Node24&#45;&gt;Node23</title>
<path fill="none" stroke="#ffa500" stroke-dasharray="5,2" d="M1873.6086,-152.5C1919.7714,-152.5 1977.8554,-152.5 2026.7123,-152.5"/>
<polygon fill="#ffa500" stroke="#ffa500" points="1873.3484,-149.0001 1863.3484,-152.5 1873.3483,-156.0001 1873.3484,-149.0001"/>
<text text-anchor="start" x="1898" y="-166.5" font-family="Helvetica,sans-Serif" font-size="10.00" fill="#000000"> &lt; Hybrid&lt; ValueType,</text>
<text text-anchor="middle" x="1953.5" y="-155.5" font-family="Helvetica,sans-Serif" font-size="10.00" fill="#000000"> IndexType &gt; &gt;</text>
</g>
<!-- Node25&#45;&gt;Node0 -->
<g id="edge30" class="edge">
<title>Node25&#45;&gt;Node0</title>
<path fill="none" stroke="#191970" d="M1271.9565,-108.5C1353.6449,-108.5 1483.0384,-108.5 1595,-108.5 1595,-108.5 1595,-108.5 2126.5,-108.5 2171.9986,-108.5 2222.7752,-113.7452 2262.8279,-119.1134"/>
<polygon fill="#191970" stroke="#191970" points="1271.7421,-105.0001 1261.742,-108.5 1271.742,-112.0001 1271.7421,-105.0001"/>
</g>
<!-- Node26&#45;&gt;Node0 -->
<g id="edge32" class="edge">
<title>Node26&#45;&gt;Node0</title>
<path fill="none" stroke="#191970" d="M1696.058,-188.595C1821.7627,-201.9772 2042.2408,-215.8715 2226,-177.5 2255.4522,-171.35 2286.7634,-156.9278 2308.2337,-145.6692"/>
<polygon fill="#191970" stroke="#191970" points="1696.3756,-185.109 1686.0564,-187.51 1695.6206,-192.0682 1696.3756,-185.109"/>
</g>
<!-- Node27 -->
<g id="node24" class="node">
<title>Node27</title>
<g id="a_node24"><a xlink:href="classgko_1_1ReadableFromMatrixData.html" target="_top" xlink:title="A LinOp implementing this interface can read its data from a matrix_data structure. ">
<polygon fill="#ffffff" stroke="#000000" points="2044.5,-49.5 2044.5,-79.5 2208.5,-79.5 2208.5,-49.5 2044.5,-49.5"/>
<text text-anchor="start" x="2052.5" y="-67.5" font-family="Helvetica,sans-Serif" font-size="10.00" fill="#000000">gko::ReadableFromMatrixData</text>
<text text-anchor="middle" x="2126.5" y="-56.5" font-family="Helvetica,sans-Serif" font-size="10.00" fill="#000000">&lt; ValueType, IndexType &gt;</text>
</a>
</g>
</g>
<!-- Node27&#45;&gt;Node0 -->
<g id="edge34" class="edge">
<title>Node27&#45;&gt;Node0</title>
<path fill="none" stroke="#191970" d="M2202.2528,-82.0839C2216.5494,-85.8515 2231.3072,-90.0499 2245,-94.5 2263.5654,-100.5337 2283.7849,-108.491 2300.3476,-115.3897"/>
<polygon fill="#191970" stroke="#191970" points="2203.0055,-78.6634 2192.4476,-79.5466 2201.2519,-85.4402 2203.0055,-78.6634"/>
</g>
<!-- Node28 -->
<g id="node25" class="node">
<title>Node28</title>
<g id="a_node25"><a xlink:href="classgko_1_1WritableToMatrixData.html" target="_top" xlink:title="A LinOp implementing this interface can write its data to a matrix_data structure. ">
<polygon fill="#ffffff" stroke="#000000" points="2053.5,-.5 2053.5,-30.5 2199.5,-30.5 2199.5,-.5 2053.5,-.5"/>
<text text-anchor="start" x="2061.5" y="-18.5" font-family="Helvetica,sans-Serif" font-size="10.00" fill="#000000">gko::WritableToMatrixData</text>
<text text-anchor="middle" x="2126.5" y="-7.5" font-family="Helvetica,sans-Serif" font-size="10.00" fill="#000000">&lt; ValueType, IndexType &gt;</text>
</a>
</g>
</g>
<!-- Node28&#45;&gt;Node0 -->
<g id="edge35" class="edge">
<title>Node28&#45;&gt;Node0</title>
<path fill="none" stroke="#191970" d="M2209.3644,-33.2621C2215.1034,-35.4184 2220.7051,-37.8225 2226,-40.5 2264.5437,-59.9909 2301.6093,-95.2209 2321.0113,-115.3362"/>
<polygon fill="#191970" stroke="#191970" points="2210.2012,-29.8473 2199.6064,-29.8624 2207.8981,-36.4576 2210.2012,-29.8473"/>
</g>
</g>
</svg>
