<?xml version="1.0" encoding="UTF-8" standalone="no"?>
<!DOCTYPE svg PUBLIC "-//W3C//DTD SVG 1.1//EN"
 "http://www.w3.org/Graphics/SVG/1.1/DTD/svg11.dtd">
<!-- Generated by graphviz version 2.40.1 (20161225.0304)
 -->
<!-- Title: gko::accessor::row_major&lt; ValueType, Dimensionality &gt; Pages: 1 -->
<svg width="277pt" height="195pt"
 viewBox="0.00 0.00 276.50 195.00" xmlns="http://www.w3.org/2000/svg" xmlns:xlink="http://www.w3.org/1999/xlink">
<g id="graph0" class="graph" transform="scale(1 1) rotate(0) translate(4 191)">
<title>gko::accessor::row_major&lt; ValueType, Dimensionality &gt;</title>
<polygon fill="#ffffff" stroke="transparent" points="-4,4 -4,-191 272.5,-191 272.5,4 -4,4"/>
<!-- Node1 -->
<g id="node1" class="node">
<title>Node1</title>
<g id="a_node1"><a xlink:title="A row_major accessor is a bridge between a range and the row&#45;major memory layout.">
<polygon fill="#bfbfbf" stroke="#000000" points="0,-.5 0,-30.5 203,-30.5 203,-.5 0,-.5"/>
<text text-anchor="start" x="8" y="-18.5" font-family="Helvetica,sans-Serif" font-size="10.00" fill="#000000">gko::accessor::row</text>
<text text-anchor="middle" x="101.5" y="-7.5" font-family="Helvetica,sans-Serif" font-size="10.00" fill="#000000">_major&lt; ValueType, Dimensionality &gt;</text>
</a>
</g>
</g>
<!-- Node2 -->
<g id="node2" class="node">
<title>Node2</title>
<g id="a_node2"><a xlink:title="STL class.">
<polygon fill="#ffffff" stroke="#bfbfbf" points="55.5,-167.5 55.5,-186.5 147.5,-186.5 147.5,-167.5 55.5,-167.5"/>
<text text-anchor="middle" x="101.5" y="-174.5" font-family="Helvetica,sans-Serif" font-size="10.00" fill="#000000">std::array&lt; T &gt;</text>
</a>
</g>
</g>
<!-- Node2&#45;&gt;Node1 -->
<g id="edge1" class="edge">
<title>Node2&#45;&gt;Node1</title>
<path fill="none" stroke="#9a32cd" stroke-dasharray="5,2" d="M98.6565,-157.4416C96.0979,-137.4792 92.9594,-105.5964 94.5,-78 95.4068,-61.7567 97.6293,-43.2491 99.3288,-30.6155"/>
<polygon fill="#9a32cd" stroke="#9a32cd" points="95.202,-158.0134 100.0206,-167.449 102.1379,-157.0679 95.202,-158.0134"/>
<text text-anchor="middle" x="110" y="-91" font-family="Helvetica,sans-Serif" font-size="10.00" fill="#000000"> stride</text>
</g>
<!-- Node3 -->
<g id="node3" class="node">
<title>Node3</title>
<g id="a_node3"><a xlink:title=" ">
<polygon fill="#ffffff" stroke="#bfbfbf" points="134.5,-78.5 134.5,-108.5 268.5,-108.5 268.5,-78.5 134.5,-78.5"/>
<text text-anchor="start" x="142.5" y="-96.5" font-family="Helvetica,sans-Serif" font-size="10.00" fill="#000000">std::array&lt; const size</text>
<text text-anchor="middle" x="201.5" y="-85.5" font-family="Helvetica,sans-Serif" font-size="10.00" fill="#000000">_type, dimensionality &gt;</text>
</a>
</g>
</g>
<!-- Node2&#45;&gt;Node3 -->
<g id="edge3" class="edge">
<title>Node2&#45;&gt;Node3</title>
<path fill="none" stroke="#ffa500" stroke-dasharray="5,2" d="M121.0858,-160.6458C139.1742,-145.5421 165.827,-123.2869 183.4197,-108.597"/>
<polygon fill="#ffa500" stroke="#ffa500" points="118.4039,-158.3255 112.9713,-167.4215 122.8905,-163.6986 118.4039,-158.3255"/>
<text text-anchor="start" x="159.5" y="-141" font-family="Helvetica,sans-Serif" font-size="10.00" fill="#000000"> &lt; const size_type,</text>
<text text-anchor="middle" x="206.5" y="-130" font-family="Helvetica,sans-Serif" font-size="10.00" fill="#000000"> dimensionality &gt;</text>
</g>
<!-- Node3&#45;&gt;Node1 -->
<g id="edge2" class="edge">
<title>Node3&#45;&gt;Node1</title>
<path fill="none" stroke="#9a32cd" stroke-dasharray="5,2" d="M173.8903,-71.9644C157.1224,-58.8854 136.1204,-42.5039 121.063,-30.7592"/>
<polygon fill="#9a32cd" stroke="#9a32cd" points="172.1813,-75.0702 182.219,-78.4608 176.4866,-69.5507 172.1813,-75.0702"/>
<text text-anchor="middle" x="176.5" y="-52" font-family="Helvetica,sans-Serif" font-size="10.00" fill="#000000"> lengths</text>
</g>
</g>
</svg>
