<?xml version="1.0" encoding="UTF-8" standalone="no"?>
<!DOCTYPE svg PUBLIC "-//W3C//DTD SVG 1.1//EN"
 "http://www.w3.org/Graphics/SVG/1.1/DTD/svg11.dtd">
<!-- Generated by graphviz version 2.40.1 (20161225.0304)
 -->
<!-- Title: gko::stop::Criterion::Updater Pages: 1 -->
<svg width="1447pt" height="94pt"
 viewBox="0.00 0.00 1447.00 93.50" xmlns="http://www.w3.org/2000/svg" xmlns:xlink="http://www.w3.org/1999/xlink">
<g id="graph0" class="graph" transform="scale(1 1) rotate(0) translate(4 89.5)">
<title>gko::stop::Criterion::Updater</title>
<polygon fill="#ffffff" stroke="transparent" points="-4,4 -4,-89.5 1443,-89.5 1443,4 -4,4"/>
<!-- Node1 -->
<g id="node1" class="node">
<title>Node1</title>
<g id="a_node1"><a xlink:title="The Updater class serves for convenient argument passing to the Criterion&#39;s check function.">
<polygon fill="#bfbfbf" stroke="#000000" points="1329,-30 1329,-60 1439,-60 1439,-30 1329,-30"/>
<text text-anchor="start" x="1337" y="-48" font-family="Helvetica,sans-Serif" font-size="10.00" fill="#000000">gko::stop::Criterion</text>
<text text-anchor="middle" x="1384" y="-37" font-family="Helvetica,sans-Serif" font-size="10.00" fill="#000000">::Updater</text>
</a>
</g>
</g>
<!-- Node2 -->
<g id="node2" class="node">
<title>Node2</title>
<g id="a_node2"><a xlink:href="classgko_1_1LinOp.html" target="_top" xlink:title=" ">
<polygon fill="#ffffff" stroke="#000000" points="1149,-35.5 1149,-54.5 1217,-54.5 1217,-35.5 1149,-35.5"/>
<text text-anchor="middle" x="1183" y="-42.5" font-family="Helvetica,sans-Serif" font-size="10.00" fill="#000000">gko::LinOp</text>
</a>
</g>
</g>
<!-- Node2&#45;&gt;Node1 -->
<g id="edge1" class="edge">
<title>Node2&#45;&gt;Node1</title>
<path fill="none" stroke="#9a32cd" stroke-dasharray="5,2" d="M1227.2383,-45C1257.1474,-45 1296.8647,-45 1328.837,-45"/>
<polygon fill="#9a32cd" stroke="#9a32cd" points="1227.0969,-41.5001 1217.0969,-45 1227.0969,-48.5001 1227.0969,-41.5001"/>
<text text-anchor="middle" x="1273" y="-70" font-family="Helvetica,sans-Serif" font-size="10.00" fill="#000000"> solution_</text>
<text text-anchor="middle" x="1273" y="-59" font-family="Helvetica,sans-Serif" font-size="10.00" fill="#000000">residual_norm_</text>
<text text-anchor="middle" x="1273" y="-48" font-family="Helvetica,sans-Serif" font-size="10.00" fill="#000000">residual_</text>
</g>
<!-- Node3 -->
<g id="node3" class="node">
<title>Node3</title>
<g id="a_node3"><a xlink:href="classgko_1_1EnableAbstractPolymorphicObject.html" target="_top" xlink:title=" ">
<polygon fill="#ffffff" stroke="#000000" points="937,-30 937,-60 1112,-60 1112,-30 937,-30"/>
<text text-anchor="start" x="945" y="-48" font-family="Helvetica,sans-Serif" font-size="10.00" fill="#000000">gko::EnableAbstractPolymorphic</text>
<text text-anchor="middle" x="1024.5" y="-37" font-family="Helvetica,sans-Serif" font-size="10.00" fill="#000000">Object&lt; LinOp &gt;</text>
</a>
</g>
</g>
<!-- Node3&#45;&gt;Node2 -->
<g id="edge2" class="edge">
<title>Node3&#45;&gt;Node2</title>
<path fill="none" stroke="#191970" d="M1122.387,-45C1131.7633,-45 1140.7706,-45 1148.8426,-45"/>
<polygon fill="#191970" stroke="#191970" points="1122.0947,-41.5001 1112.0946,-45 1122.0946,-48.5001 1122.0947,-41.5001"/>
</g>
<!-- Node4 -->
<g id="node4" class="node">
<title>Node4</title>
<g id="a_node4"><a xlink:href="classgko_1_1PolymorphicObject.html" target="_top" xlink:title="A PolymorphicObject is the abstract base for all &quot;heavy&quot; objects in Ginkgo that behave polymorphicall...">
<polygon fill="#ffffff" stroke="#000000" points="681.5,-60.5 681.5,-79.5 814.5,-79.5 814.5,-60.5 681.5,-60.5"/>
<text text-anchor="middle" x="748" y="-67.5" font-family="Helvetica,sans-Serif" font-size="10.00" fill="#000000">gko::PolymorphicObject</text>
</a>
</g>
</g>
<!-- Node4&#45;&gt;Node3 -->
<g id="edge3" class="edge">
<title>Node4&#45;&gt;Node3</title>
<path fill="none" stroke="#191970" d="M824.679,-63.067C859.4631,-59.922 900.7823,-56.186 936.7952,-52.9299"/>
<polygon fill="#191970" stroke="#191970" points="824.2247,-59.5937 814.5805,-63.9801 824.8551,-66.5653 824.2247,-59.5937"/>
</g>
<!-- Node5 -->
<g id="node5" class="node">
<title>Node5</title>
<g id="a_node5"><a xlink:href="classgko_1_1log_1_1EnableLogging.html" target="_top" xlink:title=" ">
<polygon fill="#ffffff" stroke="#000000" points="479,-55 479,-85 612,-85 612,-55 479,-55"/>
<text text-anchor="start" x="487" y="-73" font-family="Helvetica,sans-Serif" font-size="10.00" fill="#000000">gko::log::EnableLogging</text>
<text text-anchor="middle" x="545.5" y="-62" font-family="Helvetica,sans-Serif" font-size="10.00" fill="#000000">&lt; PolymorphicObject &gt;</text>
</a>
</g>
</g>
<!-- Node5&#45;&gt;Node4 -->
<g id="edge4" class="edge">
<title>Node5&#45;&gt;Node4</title>
<path fill="none" stroke="#191970" d="M622.1452,-70C641.6376,-70 662.4252,-70 681.3734,-70"/>
<polygon fill="#191970" stroke="#191970" points="622.0866,-66.5001 612.0865,-70 622.0865,-73.5001 622.0866,-66.5001"/>
</g>
<!-- Node6 -->
<g id="node6" class="node">
<title>Node6</title>
<g id="a_node6"><a xlink:href="classgko_1_1log_1_1Loggable.html" target="_top" xlink:title="Loggable class is an interface which should be implemented by classes wanting to support logging.">
<polygon fill="#ffffff" stroke="#000000" points="0,-53.5 0,-72.5 106,-72.5 106,-53.5 0,-53.5"/>
<text text-anchor="middle" x="53" y="-60.5" font-family="Helvetica,sans-Serif" font-size="10.00" fill="#000000">gko::log::Loggable</text>
</a>
</g>
</g>
<!-- Node6&#45;&gt;Node5 -->
<g id="edge5" class="edge">
<title>Node6&#45;&gt;Node5</title>
<path fill="none" stroke="#191970" d="M116.3039,-67.5527C125.2631,-68.1001 134.362,-68.6043 143,-69 284.2027,-75.469 319.6887,-77.3428 461,-74 466.7262,-73.8645 472.6688,-73.6775 478.629,-73.4578"/>
<polygon fill="#191970" stroke="#191970" points="116.481,-64.057 106.2803,-66.9197 116.0398,-71.0431 116.481,-64.057"/>
</g>
<!-- Node7 -->
<g id="node7" class="node">
<title>Node7</title>
<g id="a_node7"><a xlink:href="classgko_1_1log_1_1EnableLogging.html" target="_top" xlink:title="EnableLogging is a mixin which should be inherited by any class which wants to enable logging.">
<polygon fill="#ffffff" stroke="#000000" points="143,-18.5 143,-59.5 325,-59.5 325,-18.5 143,-18.5"/>
<text text-anchor="start" x="151" y="-47.5" font-family="Helvetica,sans-Serif" font-size="10.00" fill="#000000">gko::log::EnableLogging</text>
<text text-anchor="start" x="151" y="-36.5" font-family="Helvetica,sans-Serif" font-size="10.00" fill="#000000">&lt; ConcreteLoggable, Polymorphic</text>
<text text-anchor="middle" x="234" y="-25.5" font-family="Helvetica,sans-Serif" font-size="10.00" fill="#000000">Base &gt;</text>
</a>
</g>
</g>
<!-- Node6&#45;&gt;Node7 -->
<g id="edge7" class="edge">
<title>Node6&#45;&gt;Node7</title>
<path fill="none" stroke="#191970" d="M116.4931,-54.581C124.9883,-53.4546 133.833,-52.2818 142.688,-51.1077"/>
<polygon fill="#191970" stroke="#191970" points="115.7801,-51.1448 106.327,-55.929 116.7003,-58.0841 115.7801,-51.1448"/>
</g>
<!-- Node7&#45;&gt;Node5 -->
<g id="edge6" class="edge">
<title>Node7&#45;&gt;Node5</title>
<path fill="none" stroke="#ffa500" stroke-dasharray="5,2" d="M335.5808,-49.1092C382.6219,-53.7906 437.1938,-59.2215 478.9039,-63.3725"/>
<polygon fill="#ffa500" stroke="#ffa500" points="335.653,-45.5991 325.3555,-48.0916 334.9597,-52.5647 335.653,-45.5991"/>
<text text-anchor="middle" x="402" y="-63" font-family="Helvetica,sans-Serif" font-size="10.00" fill="#000000"> &lt; PolymorphicObject &gt;</text>
</g>
<!-- Node8 -->
<g id="node8" class="node">
<title>Node8</title>
<g id="a_node8"><a xlink:href="classgko_1_1EnableAbstractPolymorphicObject.html" target="_top" xlink:title="This mixin inherits from (a subclass of) PolymorphicObject and provides a base implementation of a ne...">
<polygon fill="#ffffff" stroke="#000000" points="649,-.5 649,-41.5 847,-41.5 847,-.5 649,-.5"/>
<text text-anchor="start" x="657" y="-29.5" font-family="Helvetica,sans-Serif" font-size="10.00" fill="#000000">gko::EnableAbstractPolymorphic</text>
<text text-anchor="start" x="657" y="-18.5" font-family="Helvetica,sans-Serif" font-size="10.00" fill="#000000">Object&lt; AbstractObject, Polymorphic</text>
<text text-anchor="middle" x="748" y="-7.5" font-family="Helvetica,sans-Serif" font-size="10.00" fill="#000000">Base &gt;</text>
</a>
</g>
</g>
<!-- Node8&#45;&gt;Node3 -->
<g id="edge8" class="edge">
<title>Node8&#45;&gt;Node3</title>
<path fill="none" stroke="#ffa500" stroke-dasharray="5,2" d="M857.0849,-30.4685C883.5016,-32.7614 911.4067,-35.1836 936.7006,-37.3791"/>
<polygon fill="#ffa500" stroke="#ffa500" points="857.3071,-26.9747 847.0419,-29.5968 856.7017,-33.9485 857.3071,-26.9747"/>
<text text-anchor="middle" x="892" y="-39" font-family="Helvetica,sans-Serif" font-size="10.00" fill="#000000"> &lt; LinOp &gt;</text>
</g>
<!-- Node9 -->
<g id="node9" class="node">
<title>Node9</title>
<g id="a_node9"><a xlink:title=" ">
<polygon fill="#ffffff" stroke="#bfbfbf" points="495,-11.5 495,-30.5 596,-30.5 596,-11.5 495,-11.5"/>
<text text-anchor="middle" x="545.5" y="-18.5" font-family="Helvetica,sans-Serif" font-size="10.00" fill="#000000">PolymorphicBase</text>
</a>
</g>
</g>
<!-- Node9&#45;&gt;Node8 -->
<g id="edge9" class="edge">
<title>Node9&#45;&gt;Node8</title>
<path fill="none" stroke="#191970" d="M606.1202,-21C619.5722,-21 634.1713,-21 648.7162,-21"/>
<polygon fill="#191970" stroke="#191970" points="606.077,-17.5001 596.0769,-21 606.0769,-24.5001 606.077,-17.5001"/>
</g>
</g>
</svg>
