<?xml version="1.0" encoding="UTF-8" standalone="no"?>
<!DOCTYPE svg PUBLIC "-//W3C//DTD SVG 1.1//EN"
 "http://www.w3.org/Graphics/SVG/1.1/DTD/svg11.dtd">
<!-- Generated by graphviz version 2.40.1 (20161225.0304)
 -->
<!-- Title: gko::solver::Bicg&lt; ValueType &gt; Pages: 1 -->
<svg width="2123pt" height="348pt"
 viewBox="0.00 0.00 2123.00 348.00" xmlns="http://www.w3.org/2000/svg" xmlns:xlink="http://www.w3.org/1999/xlink">
<g id="graph0" class="graph" transform="scale(1 1) rotate(0) translate(4 344)">
<title>gko::solver::Bicg&lt; ValueType &gt;</title>
<polygon fill="#ffffff" stroke="transparent" points="-4,4 -4,-344 2119,-344 2119,4 -4,4"/>
<!-- Node1 -->
<g id="node1" class="node">
<title>Node1</title>
<g id="a_node1"><a xlink:title="BICG or the Biconjugate gradient method is a Krylov subspace solver.">
<polygon fill="#bfbfbf" stroke="#000000" points="2009,-90.5 2009,-120.5 2115,-120.5 2115,-90.5 2009,-90.5"/>
<text text-anchor="start" x="2017" y="-108.5" font-family="Helvetica,sans-Serif" font-size="10.00" fill="#000000">gko::solver::Bicg&lt;</text>
<text text-anchor="middle" x="2062" y="-97.5" font-family="Helvetica,sans-Serif" font-size="10.00" fill="#000000"> ValueType &gt;</text>
</a>
</g>
</g>
<!-- Node2 -->
<g id="node2" class="node">
<title>Node2</title>
<g id="a_node2"><a xlink:href="classgko_1_1EnableLinOp.html" target="_top" xlink:title=" ">
<polygon fill="#ffffff" stroke="#000000" points="1838,-122.5 1838,-152.5 1972,-152.5 1972,-122.5 1838,-122.5"/>
<text text-anchor="start" x="1846" y="-140.5" font-family="Helvetica,sans-Serif" font-size="10.00" fill="#000000">gko::EnableLinOp&lt; Bicg</text>
<text text-anchor="middle" x="1905" y="-129.5" font-family="Helvetica,sans-Serif" font-size="10.00" fill="#000000">&lt; ValueType &gt; &gt;</text>
</a>
</g>
</g>
<!-- Node2&#45;&gt;Node1 -->
<g id="edge1" class="edge">
<title>Node2&#45;&gt;Node1</title>
<path fill="none" stroke="#191970" d="M1981.9251,-121.821C1991.0691,-119.9572 2000.2417,-118.0877 2008.9462,-116.3135"/>
<polygon fill="#191970" stroke="#191970" points="1981.137,-118.4096 1972.0375,-123.8363 1982.5351,-125.2686 1981.137,-118.4096"/>
</g>
<!-- Node3 -->
<g id="node3" class="node">
<title>Node3</title>
<g id="a_node3"><a xlink:href="classgko_1_1EnablePolymorphicObject.html" target="_top" xlink:title=" ">
<polygon fill="#ffffff" stroke="#000000" points="1517,-212.5 1517,-242.5 1683,-242.5 1683,-212.5 1517,-212.5"/>
<text text-anchor="start" x="1525" y="-230.5" font-family="Helvetica,sans-Serif" font-size="10.00" fill="#000000">gko::EnablePolymorphicObject</text>
<text text-anchor="middle" x="1600" y="-219.5" font-family="Helvetica,sans-Serif" font-size="10.00" fill="#000000">&lt; Bicg&lt; ValueType &gt;, LinOp &gt;</text>
</a>
</g>
</g>
<!-- Node3&#45;&gt;Node2 -->
<g id="edge2" class="edge">
<title>Node3&#45;&gt;Node2</title>
<path fill="none" stroke="#191970" d="M1660.945,-209.5162C1717.5512,-192.8128 1800.8787,-168.2243 1854.0378,-152.538"/>
<polygon fill="#191970" stroke="#191970" points="1659.6507,-206.2489 1651.0501,-212.436 1661.6319,-212.9627 1659.6507,-206.2489"/>
</g>
<!-- Node4 -->
<g id="node4" class="node">
<title>Node4</title>
<g id="a_node4"><a xlink:href="classgko_1_1EnableAbstractPolymorphicObject.html" target="_top" xlink:title=" ">
<polygon fill="#ffffff" stroke="#000000" points="1292,-268 1292,-309 1467,-309 1467,-268 1292,-268"/>
<text text-anchor="start" x="1300" y="-297" font-family="Helvetica,sans-Serif" font-size="10.00" fill="#000000">gko::EnableAbstractPolymorphic</text>
<text text-anchor="start" x="1300" y="-286" font-family="Helvetica,sans-Serif" font-size="10.00" fill="#000000">Object&lt; Bicg&lt; ValueType &gt;</text>
<text text-anchor="middle" x="1379.5" y="-275" font-family="Helvetica,sans-Serif" font-size="10.00" fill="#000000">, LinOp &gt;</text>
</a>
</g>
</g>
<!-- Node4&#45;&gt;Node3 -->
<g id="edge3" class="edge">
<title>Node4&#45;&gt;Node3</title>
<path fill="none" stroke="#191970" d="M1463.8191,-265.1736C1491.2095,-257.5962 1520.8637,-249.3926 1545.4855,-242.5811"/>
<polygon fill="#191970" stroke="#191970" points="1462.5486,-261.8936 1453.8438,-267.9332 1464.4151,-268.6402 1462.5486,-261.8936"/>
</g>
<!-- Node5 -->
<g id="node5" class="node">
<title>Node5</title>
<g id="a_node5"><a xlink:href="classgko_1_1LinOp.html" target="_top" xlink:title=" ">
<polygon fill="#ffffff" stroke="#000000" points="953.5,-312 953.5,-331 1021.5,-331 1021.5,-312 953.5,-312"/>
<text text-anchor="middle" x="987.5" y="-319" font-family="Helvetica,sans-Serif" font-size="10.00" fill="#000000">gko::LinOp</text>
</a>
</g>
</g>
<!-- Node5&#45;&gt;Node4 -->
<g id="edge4" class="edge">
<title>Node5&#45;&gt;Node4</title>
<path fill="none" stroke="#191970" d="M1031.5774,-317.7894C1094.3955,-312.5011 1210.9999,-302.685 1291.805,-295.8825"/>
<polygon fill="#191970" stroke="#191970" points="1031.2728,-314.3026 1021.6017,-318.6292 1031.8601,-321.2779 1031.2728,-314.3026"/>
</g>
<!-- Node6 -->
<g id="node6" class="node">
<title>Node6</title>
<g id="a_node6"><a xlink:href="classgko_1_1EnableAbstractPolymorphicObject.html" target="_top" xlink:title=" ">
<polygon fill="#ffffff" stroke="#ff0000" points="542,-309.5 542,-339.5 717,-339.5 717,-309.5 542,-309.5"/>
<text text-anchor="start" x="550" y="-327.5" font-family="Helvetica,sans-Serif" font-size="10.00" fill="#000000">gko::EnableAbstractPolymorphic</text>
<text text-anchor="middle" x="629.5" y="-316.5" font-family="Helvetica,sans-Serif" font-size="10.00" fill="#000000">Object&lt; LinOp &gt;</text>
</a>
</g>
</g>
<!-- Node6&#45;&gt;Node5 -->
<g id="edge5" class="edge">
<title>Node6&#45;&gt;Node5</title>
<path fill="none" stroke="#191970" d="M727.518,-323.6786C802.7046,-323.0486 902.0446,-322.2161 953.4368,-321.7854"/>
<polygon fill="#191970" stroke="#191970" points="727.0469,-320.1823 717.0767,-323.7661 727.1057,-327.1821 727.0469,-320.1823"/>
</g>
<!-- Node11 -->
<g id="node7" class="node">
<title>Node11</title>
<g id="a_node7"><a xlink:href="classgko_1_1EnableAbstractPolymorphicObject.html" target="_top" xlink:title="This mixin inherits from (a subclass of) PolymorphicObject and provides a base implementation of a ne...">
<polygon fill="#ffffff" stroke="#000000" points="138,-223 138,-264 336,-264 336,-223 138,-223"/>
<text text-anchor="start" x="146" y="-252" font-family="Helvetica,sans-Serif" font-size="10.00" fill="#000000">gko::EnableAbstractPolymorphic</text>
<text text-anchor="start" x="146" y="-241" font-family="Helvetica,sans-Serif" font-size="10.00" fill="#000000">Object&lt; AbstractObject, Polymorphic</text>
<text text-anchor="middle" x="237" y="-230" font-family="Helvetica,sans-Serif" font-size="10.00" fill="#000000">Base &gt;</text>
</a>
</g>
</g>
<!-- Node11&#45;&gt;Node4 -->
<g id="edge8" class="edge">
<title>Node11&#45;&gt;Node4</title>
<path fill="none" stroke="#ffa500" stroke-dasharray="5,2" d="M346.2585,-261.7211C348.8618,-262.0008 351.4452,-262.2613 354,-262.5 700.0015,-294.8298 1114.3275,-292.9806 1291.8103,-290.273"/>
<polygon fill="#ffa500" stroke="#ffa500" points="346.473,-258.2227 336.1377,-260.5533 345.6705,-265.1766 346.473,-258.2227"/>
<text text-anchor="start" x="753.5" y="-302.5" font-family="Helvetica,sans-Serif" font-size="10.00" fill="#000000"> &lt; Bicg&lt; ValueType &gt;</text>
<text text-anchor="middle" x="807.5" y="-291.5" font-family="Helvetica,sans-Serif" font-size="10.00" fill="#000000">, LinOp &gt;</text>
</g>
<!-- Node11&#45;&gt;Node6 -->
<g id="edge6" class="edge">
<title>Node11&#45;&gt;Node6</title>
<path fill="none" stroke="#ffa500" stroke-dasharray="5,2" d="M285.1891,-268.4291C305.8616,-278.0801 330.6008,-288.2812 354,-294.5 415.4942,-310.8433 486.977,-318.307 541.7169,-321.7038"/>
<polygon fill="#ffa500" stroke="#ffa500" points="286.5297,-265.1909 275.9965,-264.0498 283.5191,-271.5104 286.5297,-265.1909"/>
<text text-anchor="middle" x="432.5" y="-321.5" font-family="Helvetica,sans-Serif" font-size="10.00" fill="#000000"> &lt; LinOp &gt;</text>
</g>
<!-- Node14 -->
<g id="node10" class="node">
<title>Node14</title>
<g id="a_node10"><a xlink:href="classgko_1_1EnableAbstractPolymorphicObject.html" target="_top" xlink:title=" ">
<polygon fill="#ffffff" stroke="#000000" points="529,-202 529,-243 730,-243 730,-202 529,-202"/>
<text text-anchor="start" x="537" y="-231" font-family="Helvetica,sans-Serif" font-size="10.00" fill="#000000">gko::EnableAbstractPolymorphic</text>
<text text-anchor="start" x="537" y="-220" font-family="Helvetica,sans-Serif" font-size="10.00" fill="#000000">Object&lt; ConcreteObject, Polymorphic</text>
<text text-anchor="middle" x="629.5" y="-209" font-family="Helvetica,sans-Serif" font-size="10.00" fill="#000000">Base &gt;</text>
</a>
</g>
</g>
<!-- Node11&#45;&gt;Node14 -->
<g id="edge12" class="edge">
<title>Node11&#45;&gt;Node14</title>
<path fill="none" stroke="#ffa500" stroke-dasharray="5,2" d="M346.2032,-237.6573C403.3756,-234.5984 472.9091,-230.8781 528.78,-227.8888"/>
<polygon fill="#ffa500" stroke="#ffa500" points="345.843,-234.1715 336.0443,-238.2008 346.2171,-241.1615 345.843,-234.1715"/>
<text text-anchor="start" x="354" y="-250.5" font-family="Helvetica,sans-Serif" font-size="10.00" fill="#000000"> &lt; ConcreteObject, Polymorphic</text>
<text text-anchor="middle" x="432.5" y="-239.5" font-family="Helvetica,sans-Serif" font-size="10.00" fill="#000000">Base &gt;</text>
</g>
<!-- Node21 -->
<g id="node17" class="node">
<title>Node21</title>
<g id="a_node17"><a xlink:href="classgko_1_1EnableAbstractPolymorphicObject.html" target="_top" xlink:title=" ">
<polygon fill="#ffffff" stroke="#000000" points="531,-137 531,-178 728,-178 728,-137 531,-137"/>
<text text-anchor="start" x="539" y="-166" font-family="Helvetica,sans-Serif" font-size="10.00" fill="#000000">gko::EnableAbstractPolymorphic</text>
<text text-anchor="start" x="539" y="-155" font-family="Helvetica,sans-Serif" font-size="10.00" fill="#000000">Object&lt; ConcreteLinOp, Polymorphic</text>
<text text-anchor="middle" x="629.5" y="-144" font-family="Helvetica,sans-Serif" font-size="10.00" fill="#000000">Base &gt;</text>
</a>
</g>
</g>
<!-- Node11&#45;&gt;Node21 -->
<g id="edge22" class="edge">
<title>Node11&#45;&gt;Node21</title>
<path fill="none" stroke="#ffa500" stroke-dasharray="5,2" d="M298.9789,-219.5119C316.5708,-213.3262 335.8738,-207.1184 354,-202.5 411.8822,-187.7521 477.8883,-176.7743 530.7792,-169.3548"/>
<polygon fill="#ffa500" stroke="#ffa500" points="297.6384,-216.2741 289.4001,-222.936 299.9947,-222.8657 297.6384,-216.2741"/>
<text text-anchor="start" x="356" y="-216.5" font-family="Helvetica,sans-Serif" font-size="10.00" fill="#000000"> &lt; ConcreteLinOp, Polymorphic</text>
<text text-anchor="middle" x="432.5" y="-205.5" font-family="Helvetica,sans-Serif" font-size="10.00" fill="#000000">Base &gt;</text>
</g>
<!-- Node12 -->
<g id="node8" class="node">
<title>Node12</title>
<g id="a_node8"><a xlink:title=" ">
<polygon fill="#ffffff" stroke="#bfbfbf" points="0,-156 0,-175 101,-175 101,-156 0,-156"/>
<text text-anchor="middle" x="50.5" y="-163" font-family="Helvetica,sans-Serif" font-size="10.00" fill="#000000">PolymorphicBase</text>
</a>
</g>
</g>
<!-- Node12&#45;&gt;Node11 -->
<g id="edge7" class="edge">
<title>Node12&#45;&gt;Node11</title>
<path fill="none" stroke="#191970" d="M82.5985,-178.9246C111.5007,-191.0123 154.4214,-208.9631 187.6791,-222.8725"/>
<polygon fill="#191970" stroke="#191970" points="83.9447,-175.6939 73.3686,-175.0643 81.2437,-182.1518 83.9447,-175.6939"/>
</g>
<!-- Node12&#45;&gt;Node14 -->
<g id="edge11" class="edge">
<title>Node12&#45;&gt;Node14</title>
<path fill="none" stroke="#191970" d="M111.2279,-159.9886C200.225,-153.556 370.7292,-147.4976 511,-179.5 519.5352,-181.4473 520.8592,-184.2798 529,-187.5 541.4558,-192.427 554.9171,-197.3705 567.8153,-201.9259"/>
<polygon fill="#191970" stroke="#191970" points="110.7572,-156.514 101.047,-160.7521 111.2807,-163.4944 110.7572,-156.514"/>
</g>
<!-- Node12&#45;&gt;Node21 -->
<g id="edge21" class="edge">
<title>Node12&#45;&gt;Node21</title>
<path fill="none" stroke="#191970" d="M100.0089,-154.156C106.37,-153.0602 112.8183,-152.1252 119,-151.5 292.3378,-133.9679 336.8335,-147.0935 511,-151.5 517.4867,-151.6641 524.1712,-151.8787 530.9066,-152.1288"/>
<polygon fill="#191970" stroke="#191970" points="99.3286,-150.7224 90.1355,-155.9889 100.6063,-157.6048 99.3286,-150.7224"/>
</g>
<!-- Node13 -->
<g id="node9" class="node">
<title>Node13</title>
<g id="a_node9"><a xlink:href="classgko_1_1EnablePolymorphicObject.html" target="_top" xlink:title="This mixin inherits from (a subclass of) PolymorphicObject and provides a base implementation of a ne...">
<polygon fill="#ffffff" stroke="#000000" points="885,-207.5 885,-237.5 1090,-237.5 1090,-207.5 885,-207.5"/>
<text text-anchor="start" x="893" y="-225.5" font-family="Helvetica,sans-Serif" font-size="10.00" fill="#000000">gko::EnablePolymorphicObject</text>
<text text-anchor="middle" x="987.5" y="-214.5" font-family="Helvetica,sans-Serif" font-size="10.00" fill="#000000">&lt; ConcreteObject, PolymorphicBase &gt;</text>
</a>
</g>
</g>
<!-- Node13&#45;&gt;Node3 -->
<g id="edge9" class="edge">
<title>Node13&#45;&gt;Node3</title>
<path fill="none" stroke="#ffa500" stroke-dasharray="5,2" d="M1100.0199,-223.4185C1220.5539,-224.4025 1409.0176,-225.941 1516.8379,-226.8211"/>
<polygon fill="#ffa500" stroke="#ffa500" points="1100.047,-219.9187 1090.0187,-223.3369 1099.9898,-226.9185 1100.047,-219.9187"/>
<text text-anchor="start" x="1325.5" y="-240.5" font-family="Helvetica,sans-Serif" font-size="10.00" fill="#000000"> &lt; Bicg&lt; ValueType &gt;</text>
<text text-anchor="middle" x="1379.5" y="-229.5" font-family="Helvetica,sans-Serif" font-size="10.00" fill="#000000">, LinOp &gt;</text>
</g>
<!-- Node20 -->
<g id="node16" class="node">
<title>Node20</title>
<g id="a_node16"><a xlink:href="classgko_1_1EnablePolymorphicObject.html" target="_top" xlink:title=" ">
<polygon fill="#ffffff" stroke="#000000" points="1279,-144.5 1279,-174.5 1480,-174.5 1480,-144.5 1279,-144.5"/>
<text text-anchor="start" x="1287" y="-162.5" font-family="Helvetica,sans-Serif" font-size="10.00" fill="#000000">gko::EnablePolymorphicObject</text>
<text text-anchor="middle" x="1379.5" y="-151.5" font-family="Helvetica,sans-Serif" font-size="10.00" fill="#000000">&lt; ConcreteLinOp, PolymorphicBase &gt;</text>
</a>
</g>
</g>
<!-- Node13&#45;&gt;Node20 -->
<g id="edge23" class="edge">
<title>Node13&#45;&gt;Node20</title>
<path fill="none" stroke="#ffa500" stroke-dasharray="5,2" d="M1049.5139,-204.8453C1068.1962,-199.9884 1088.8305,-195.0787 1108,-191.5 1164.1034,-181.0263 1227.4049,-173.3315 1278.7633,-168.116"/>
<polygon fill="#ffa500" stroke="#ffa500" points="1048.4245,-201.513 1039.65,-207.4509 1050.2123,-208.2808 1048.4245,-201.513"/>
<text text-anchor="start" x="1108" y="-205.5" font-family="Helvetica,sans-Serif" font-size="10.00" fill="#000000"> &lt; ConcreteLinOp, Polymorphic</text>
<text text-anchor="middle" x="1184.5" y="-194.5" font-family="Helvetica,sans-Serif" font-size="10.00" fill="#000000">Base &gt;</text>
</g>
<!-- Node14&#45;&gt;Node13 -->
<g id="edge10" class="edge">
<title>Node14&#45;&gt;Node13</title>
<path fill="none" stroke="#191970" d="M740.2058,-222.5C786.3205,-222.5 839.5493,-222.5 884.7833,-222.5"/>
<polygon fill="#191970" stroke="#191970" points="740.1757,-219.0001 730.1757,-222.5 740.1756,-226.0001 740.1757,-219.0001"/>
</g>
<!-- Node15 -->
<g id="node11" class="node">
<title>Node15</title>
<g id="a_node11"><a xlink:href="classgko_1_1EnablePolymorphicAssignment.html" target="_top" xlink:title=" ">
<polygon fill="#ffffff" stroke="#000000" points="1283.5,-38.5 1283.5,-68.5 1475.5,-68.5 1475.5,-38.5 1283.5,-38.5"/>
<text text-anchor="start" x="1291.5" y="-56.5" font-family="Helvetica,sans-Serif" font-size="10.00" fill="#000000">gko::EnablePolymorphicAssignment</text>
<text text-anchor="middle" x="1379.5" y="-45.5" font-family="Helvetica,sans-Serif" font-size="10.00" fill="#000000">&lt; Bicg&lt; ValueType &gt; &gt;</text>
</a>
</g>
</g>
<!-- Node15&#45;&gt;Node2 -->
<g id="edge13" class="edge">
<title>Node15&#45;&gt;Node2</title>
<path fill="none" stroke="#191970" d="M1483.452,-70.1165C1588.6128,-86.9262 1748.081,-112.4168 1837.7149,-126.7446"/>
<polygon fill="#191970" stroke="#191970" points="1483.876,-66.6399 1473.4489,-68.5175 1482.771,-73.5522 1483.876,-66.6399"/>
</g>
<!-- Node16 -->
<g id="node12" class="node">
<title>Node16</title>
<g id="a_node12"><a xlink:href="classgko_1_1ConvertibleTo.html" target="_top" xlink:title=" ">
<polygon fill="#ffffff" stroke="#000000" points="921.5,-.5 921.5,-30.5 1053.5,-30.5 1053.5,-.5 921.5,-.5"/>
<text text-anchor="start" x="929.5" y="-18.5" font-family="Helvetica,sans-Serif" font-size="10.00" fill="#000000">gko::ConvertibleTo</text>
<text text-anchor="middle" x="987.5" y="-7.5" font-family="Helvetica,sans-Serif" font-size="10.00" fill="#000000">&lt; Bicg&lt; ValueType &gt; &gt;</text>
</a>
</g>
</g>
<!-- Node16&#45;&gt;Node15 -->
<g id="edge14" class="edge">
<title>Node16&#45;&gt;Node15</title>
<path fill="none" stroke="#191970" d="M1063.7763,-22.8941C1126.5091,-28.9754 1215.7662,-37.6278 1283.3811,-44.1823"/>
<polygon fill="#191970" stroke="#191970" points="1063.8453,-19.3845 1053.5542,-21.9032 1063.1698,-26.3518 1063.8453,-19.3845"/>
</g>
<!-- Node17 -->
<g id="node13" class="node">
<title>Node17</title>
<g id="a_node13"><a xlink:href="classgko_1_1ConvertibleTo.html" target="_top" xlink:title="ConvertibleTo interface is used to mark that the implementer can be converted to the object of Result...">
<polygon fill="#ffffff" stroke="#000000" points="576,-49.5 576,-79.5 683,-79.5 683,-49.5 576,-49.5"/>
<text text-anchor="start" x="584" y="-67.5" font-family="Helvetica,sans-Serif" font-size="10.00" fill="#000000">gko::ConvertibleTo</text>
<text text-anchor="middle" x="629.5" y="-56.5" font-family="Helvetica,sans-Serif" font-size="10.00" fill="#000000">&lt; ResultType &gt;</text>
</a>
</g>
</g>
<!-- Node17&#45;&gt;Node16 -->
<g id="edge15" class="edge">
<title>Node17&#45;&gt;Node16</title>
<path fill="none" stroke="#ffa500" stroke-dasharray="5,2" d="M693.1014,-55.7948C757.3567,-47.0001 856.1918,-33.4723 921.345,-24.5547"/>
<polygon fill="#ffa500" stroke="#ffa500" points="692.5292,-52.3404 683.0962,-57.1642 693.4785,-59.2757 692.5292,-52.3404"/>
<text text-anchor="middle" x="807.5" y="-50.5" font-family="Helvetica,sans-Serif" font-size="10.00" fill="#000000"> &lt; Bicg&lt; ValueType &gt; &gt;</text>
</g>
<!-- Node18 -->
<g id="node14" class="node">
<title>Node18</title>
<g id="a_node14"><a xlink:href="classgko_1_1EnablePolymorphicAssignment.html" target="_top" xlink:title="This mixin is used to enable a default PolymorphicObject::copy_from() implementation for objects that...">
<polygon fill="#ffffff" stroke="#000000" points="891.5,-49.5 891.5,-79.5 1083.5,-79.5 1083.5,-49.5 891.5,-49.5"/>
<text text-anchor="start" x="899.5" y="-67.5" font-family="Helvetica,sans-Serif" font-size="10.00" fill="#000000">gko::EnablePolymorphicAssignment</text>
<text text-anchor="middle" x="987.5" y="-56.5" font-family="Helvetica,sans-Serif" font-size="10.00" fill="#000000">&lt; ConcreteType, ResultType &gt;</text>
</a>
</g>
</g>
<!-- Node17&#45;&gt;Node18 -->
<g id="edge17" class="edge">
<title>Node17&#45;&gt;Node18</title>
<path fill="none" stroke="#191970" d="M693.4065,-64.5C748.4132,-64.5 828.5969,-64.5 891.3502,-64.5"/>
<polygon fill="#191970" stroke="#191970" points="693.0963,-61.0001 683.0962,-64.5 693.0962,-68.0001 693.0963,-61.0001"/>
</g>
<!-- Node23 -->
<g id="node19" class="node">
<title>Node23</title>
<g id="a_node19"><a xlink:href="classgko_1_1ConvertibleTo.html" target="_top" xlink:title=" ">
<polygon fill="#ffffff" stroke="#000000" points="932.5,-98.5 932.5,-128.5 1042.5,-128.5 1042.5,-98.5 932.5,-98.5"/>
<text text-anchor="start" x="940.5" y="-116.5" font-family="Helvetica,sans-Serif" font-size="10.00" fill="#000000">gko::ConvertibleTo</text>
<text text-anchor="middle" x="987.5" y="-105.5" font-family="Helvetica,sans-Serif" font-size="10.00" fill="#000000">&lt; ConcreteLinOp &gt;</text>
</a>
</g>
</g>
<!-- Node17&#45;&gt;Node23 -->
<g id="edge26" class="edge">
<title>Node17&#45;&gt;Node23</title>
<path fill="none" stroke="#ffa500" stroke-dasharray="5,2" d="M693.2524,-73.2259C761.2521,-82.5331 867.8548,-97.124 932.3593,-105.9528"/>
<polygon fill="#ffa500" stroke="#ffa500" points="693.4785,-69.7243 683.0962,-71.8358 692.5292,-76.6596 693.4785,-69.7243"/>
<text text-anchor="middle" x="807.5" y="-99.5" font-family="Helvetica,sans-Serif" font-size="10.00" fill="#000000"> &lt; ConcreteLinOp &gt;</text>
</g>
<!-- Node18&#45;&gt;Node15 -->
<g id="edge16" class="edge">
<title>Node18&#45;&gt;Node15</title>
<path fill="none" stroke="#ffa500" stroke-dasharray="5,2" d="M1094.126,-55.1975C1098.8124,-54.9319 1103.4532,-54.6967 1108,-54.5 1166.1582,-51.9836 1231.3893,-51.6624 1283.3338,-52.0041"/>
<polygon fill="#ffa500" stroke="#ffa500" points="1093.5817,-51.724 1083.8126,-55.8245 1094.0066,-58.7111 1093.5817,-51.724"/>
<text text-anchor="middle" x="1184.5" y="-57.5" font-family="Helvetica,sans-Serif" font-size="10.00" fill="#000000"> &lt; Bicg&lt; ValueType &gt; &gt;</text>
</g>
<!-- Node22 -->
<g id="node18" class="node">
<title>Node22</title>
<g id="a_node18"><a xlink:href="classgko_1_1EnablePolymorphicAssignment.html" target="_top" xlink:title=" ">
<polygon fill="#ffffff" stroke="#000000" points="1283.5,-95.5 1283.5,-125.5 1475.5,-125.5 1475.5,-95.5 1283.5,-95.5"/>
<text text-anchor="start" x="1291.5" y="-113.5" font-family="Helvetica,sans-Serif" font-size="10.00" fill="#000000">gko::EnablePolymorphicAssignment</text>
<text text-anchor="middle" x="1379.5" y="-102.5" font-family="Helvetica,sans-Serif" font-size="10.00" fill="#000000">&lt; ConcreteLinOp &gt;</text>
</a>
</g>
</g>
<!-- Node18&#45;&gt;Node22 -->
<g id="edge27" class="edge">
<title>Node18&#45;&gt;Node22</title>
<path fill="none" stroke="#ffa500" stroke-dasharray="5,2" d="M1093.6818,-76.8953C1144.3404,-82.8162 1205.8051,-90.0106 1261,-96.5 1268.3039,-97.3587 1275.8608,-98.2485 1283.4602,-99.1442"/>
<polygon fill="#ffa500" stroke="#ffa500" points="1094.038,-73.4132 1083.6993,-75.7287 1093.2254,-80.3659 1094.038,-73.4132"/>
<text text-anchor="middle" x="1184.5" y="-99.5" font-family="Helvetica,sans-Serif" font-size="10.00" fill="#000000"> &lt; ConcreteLinOp &gt;</text>
</g>
<!-- Node19 -->
<g id="node15" class="node">
<title>Node19</title>
<g id="a_node15"><a xlink:href="classgko_1_1EnableLinOp.html" target="_top" xlink:title="The EnableLinOp mixin can be used to provide sensible default implementations of the majority of the ...">
<polygon fill="#ffffff" stroke="#000000" points="1522,-122.5 1522,-152.5 1678,-152.5 1678,-122.5 1522,-122.5"/>
<text text-anchor="start" x="1530" y="-140.5" font-family="Helvetica,sans-Serif" font-size="10.00" fill="#000000">gko::EnableLinOp&lt; Concrete</text>
<text text-anchor="middle" x="1600" y="-129.5" font-family="Helvetica,sans-Serif" font-size="10.00" fill="#000000">LinOp, PolymorphicBase &gt;</text>
</a>
</g>
</g>
<!-- Node19&#45;&gt;Node2 -->
<g id="edge18" class="edge">
<title>Node19&#45;&gt;Node2</title>
<path fill="none" stroke="#ffa500" stroke-dasharray="5,2" d="M1688.168,-137.5C1735.893,-137.5 1793.9106,-137.5 1837.919,-137.5"/>
<polygon fill="#ffa500" stroke="#ffa500" points="1688.1491,-134.0001 1678.149,-137.5 1688.149,-141.0001 1688.1491,-134.0001"/>
<text text-anchor="middle" x="1760.5" y="-140.5" font-family="Helvetica,sans-Serif" font-size="10.00" fill="#000000"> &lt; Bicg&lt; ValueType &gt; &gt;</text>
</g>
<!-- Node20&#45;&gt;Node19 -->
<g id="edge19" class="edge">
<title>Node20&#45;&gt;Node19</title>
<path fill="none" stroke="#191970" d="M1490.2456,-148.4505C1500.8692,-147.3906 1511.4867,-146.3313 1521.7034,-145.3119"/>
<polygon fill="#191970" stroke="#191970" points="1489.6742,-144.9901 1480.0711,-149.4657 1490.3693,-151.9555 1489.6742,-144.9901"/>
</g>
<!-- Node21&#45;&gt;Node20 -->
<g id="edge20" class="edge">
<title>Node21&#45;&gt;Node20</title>
<path fill="none" stroke="#191970" d="M738.5775,-157.7909C883.7034,-158.1779 1138.2868,-158.8568 1278.9633,-159.2319"/>
<polygon fill="#191970" stroke="#191970" points="738.33,-154.2903 728.3206,-157.7635 738.3112,-161.2903 738.33,-154.2903"/>
</g>
<!-- Node22&#45;&gt;Node19 -->
<g id="edge24" class="edge">
<title>Node22&#45;&gt;Node19</title>
<path fill="none" stroke="#191970" d="M1485.7437,-123.5094C1497.8851,-124.9961 1510.0914,-126.4908 1521.7726,-127.9211"/>
<polygon fill="#191970" stroke="#191970" points="1485.9244,-120.0055 1475.5731,-122.264 1485.0735,-126.9536 1485.9244,-120.0055"/>
</g>
<!-- Node23&#45;&gt;Node22 -->
<g id="edge25" class="edge">
<title>Node23&#45;&gt;Node22</title>
<path fill="none" stroke="#191970" d="M1053.0239,-112.9985C1115.9342,-112.5171 1211.7021,-111.7842 1283.2698,-111.2365"/>
<polygon fill="#191970" stroke="#191970" points="1052.8055,-109.5 1042.8326,-113.0765 1052.8591,-116.4998 1052.8055,-109.5"/>
</g>
<!-- Node24 -->
<g id="node20" class="node">
<title>Node24</title>
<g id="a_node20"><a xlink:href="classgko_1_1Preconditionable.html" target="_top" xlink:title="A LinOp implementing this interface can be preconditioned.">
<polygon fill="#ffffff" stroke="#000000" points="1844,-84 1844,-103 1966,-103 1966,-84 1844,-84"/>
<text text-anchor="middle" x="1905" y="-91" font-family="Helvetica,sans-Serif" font-size="10.00" fill="#000000">gko::Preconditionable</text>
</a>
</g>
</g>
<!-- Node24&#45;&gt;Node1 -->
<g id="edge28" class="edge">
<title>Node24&#45;&gt;Node1</title>
<path fill="none" stroke="#191970" d="M1976.183,-98.9407C1987.1946,-99.7824 1998.4,-100.6389 2008.9222,-101.4431"/>
<polygon fill="#191970" stroke="#191970" points="1976.3875,-95.4463 1966.1499,-98.1739 1975.854,-102.4259 1976.3875,-95.4463"/>
</g>
</g>
</svg>
