<?xml version="1.0" encoding="UTF-8" standalone="no"?>
<!DOCTYPE svg PUBLIC "-//W3C//DTD SVG 1.1//EN"
 "http://www.w3.org/Graphics/SVG/1.1/DTD/svg11.dtd">
<!-- Generated by graphviz version 2.40.1 (20161225.0304)
 -->
<!-- Title: gko::matrix::Diagonal&lt; ValueType &gt; Pages: 1 -->
<svg width="2420pt" height="720pt"
 viewBox="0.00 0.00 2420.00 720.00" xmlns="http://www.w3.org/2000/svg" xmlns:xlink="http://www.w3.org/1999/xlink">
<g id="graph0" class="graph" transform="scale(1 1) rotate(0) translate(4 716)">
<title>gko::matrix::Diagonal&lt; ValueType &gt;</title>
<polygon fill="#ffffff" stroke="transparent" points="-4,4 -4,-716 2416,-716 2416,4 -4,4"/>
<!-- Node1 -->
<g id="node1" class="node">
<title>Node1</title>
<g id="a_node1"><a xlink:title="This class is a utility which efficiently implements the diagonal matrix (a linear operator which sca...">
<polygon fill="#bfbfbf" stroke="#000000" points="2290,-240 2290,-270 2412,-270 2412,-240 2290,-240"/>
<text text-anchor="start" x="2298" y="-258" font-family="Helvetica,sans-Serif" font-size="10.00" fill="#000000">gko::matrix::Diagonal</text>
<text text-anchor="middle" x="2351" y="-247" font-family="Helvetica,sans-Serif" font-size="10.00" fill="#000000">&lt; ValueType &gt;</text>
</a>
</g>
</g>
<!-- Node2 -->
<g id="node2" class="node">
<title>Node2</title>
<g id="a_node2"><a xlink:href="classgko_1_1EnableLinOp.html" target="_top" xlink:title=" ">
<polygon fill="#ffffff" stroke="#000000" points="2085.5,-461 2085.5,-491 2241.5,-491 2241.5,-461 2085.5,-461"/>
<text text-anchor="start" x="2093.5" y="-479" font-family="Helvetica,sans-Serif" font-size="10.00" fill="#000000">gko::EnableLinOp&lt; Diagonal</text>
<text text-anchor="middle" x="2163.5" y="-468" font-family="Helvetica,sans-Serif" font-size="10.00" fill="#000000">&lt; ValueType &gt; &gt;</text>
</a>
</g>
</g>
<!-- Node2&#45;&gt;Node1 -->
<g id="edge1" class="edge">
<title>Node2&#45;&gt;Node1</title>
<path fill="none" stroke="#191970" d="M2209.1788,-456.4572C2230.2883,-445.7022 2254.4964,-430.7126 2272,-412 2312.6461,-368.5465 2337.2074,-300.1978 2346.6046,-270.0927"/>
<polygon fill="#191970" stroke="#191970" points="2207.4704,-453.3969 2200.0426,-460.9519 2210.5606,-459.6779 2207.4704,-453.3969"/>
</g>
<!-- Node3 -->
<g id="node3" class="node">
<title>Node3</title>
<g id="a_node3"><a xlink:href="classgko_1_1EnablePolymorphicObject.html" target="_top" xlink:title=" ">
<polygon fill="#ffffff" stroke="#000000" points="1711.5,-592.5 1711.5,-633.5 1877.5,-633.5 1877.5,-592.5 1711.5,-592.5"/>
<text text-anchor="start" x="1719.5" y="-621.5" font-family="Helvetica,sans-Serif" font-size="10.00" fill="#000000">gko::EnablePolymorphicObject</text>
<text text-anchor="start" x="1719.5" y="-610.5" font-family="Helvetica,sans-Serif" font-size="10.00" fill="#000000">&lt; Diagonal&lt; ValueType &gt;,</text>
<text text-anchor="middle" x="1794.5" y="-599.5" font-family="Helvetica,sans-Serif" font-size="10.00" fill="#000000"> LinOp &gt;</text>
</a>
</g>
</g>
<!-- Node3&#45;&gt;Node2 -->
<g id="edge2" class="edge">
<title>Node3&#45;&gt;Node2</title>
<path fill="none" stroke="#191970" d="M1859.238,-588.9645C1935.3521,-560.7053 2059.351,-514.6678 2122.9958,-491.0382"/>
<polygon fill="#191970" stroke="#191970" points="1857.8995,-585.7279 1849.743,-592.4897 1860.336,-592.2902 1857.8995,-585.7279"/>
</g>
<!-- Node4 -->
<g id="node4" class="node">
<title>Node4</title>
<g id="a_node4"><a xlink:href="classgko_1_1EnableAbstractPolymorphicObject.html" target="_top" xlink:title=" ">
<polygon fill="#ffffff" stroke="#000000" points="1323,-653.5 1323,-694.5 1498,-694.5 1498,-653.5 1323,-653.5"/>
<text text-anchor="start" x="1331" y="-682.5" font-family="Helvetica,sans-Serif" font-size="10.00" fill="#000000">gko::EnableAbstractPolymorphic</text>
<text text-anchor="start" x="1331" y="-671.5" font-family="Helvetica,sans-Serif" font-size="10.00" fill="#000000">Object&lt; Diagonal&lt; ValueType</text>
<text text-anchor="middle" x="1410.5" y="-660.5" font-family="Helvetica,sans-Serif" font-size="10.00" fill="#000000"> &gt;, LinOp &gt;</text>
</a>
</g>
</g>
<!-- Node4&#45;&gt;Node3 -->
<g id="edge3" class="edge">
<title>Node4&#45;&gt;Node3</title>
<path fill="none" stroke="#191970" d="M1508.0276,-658.5073C1570.7807,-648.5387 1651.4675,-635.7213 1711.2101,-626.231"/>
<polygon fill="#191970" stroke="#191970" points="1507.4431,-655.0562 1498.116,-660.0818 1508.5413,-661.9695 1507.4431,-655.0562"/>
</g>
<!-- Node5 -->
<g id="node5" class="node">
<title>Node5</title>
<g id="a_node5"><a xlink:href="classgko_1_1LinOp.html" target="_top" xlink:title=" ">
<polygon fill="#ffffff" stroke="#000000" points="979.5,-660.5 979.5,-679.5 1047.5,-679.5 1047.5,-660.5 979.5,-660.5"/>
<text text-anchor="middle" x="1013.5" y="-667.5" font-family="Helvetica,sans-Serif" font-size="10.00" fill="#000000">gko::LinOp</text>
</a>
</g>
</g>
<!-- Node5&#45;&gt;Node4 -->
<g id="edge4" class="edge">
<title>Node5&#45;&gt;Node4</title>
<path fill="none" stroke="#191970" d="M1057.8185,-670.4465C1121.6269,-671.0894 1240.7047,-672.2892 1322.7141,-673.1155"/>
<polygon fill="#191970" stroke="#191970" points="1057.7264,-666.9455 1047.6916,-670.3445 1057.6558,-673.9452 1057.7264,-666.9455"/>
</g>
<!-- Node6 -->
<g id="node6" class="node">
<title>Node6</title>
<g id="a_node6"><a xlink:href="classgko_1_1EnableAbstractPolymorphicObject.html" target="_top" xlink:title=" ">
<polygon fill="#ffffff" stroke="#ff0000" points="542,-650 542,-680 717,-680 717,-650 542,-650"/>
<text text-anchor="start" x="550" y="-668" font-family="Helvetica,sans-Serif" font-size="10.00" fill="#000000">gko::EnableAbstractPolymorphic</text>
<text text-anchor="middle" x="629.5" y="-657" font-family="Helvetica,sans-Serif" font-size="10.00" fill="#000000">Object&lt; LinOp &gt;</text>
</a>
</g>
</g>
<!-- Node6&#45;&gt;Node5 -->
<g id="edge5" class="edge">
<title>Node6&#45;&gt;Node5</title>
<path fill="none" stroke="#191970" d="M727.2877,-666.2733C809.921,-667.3492 923.5085,-668.8282 979.491,-669.5572"/>
<polygon fill="#191970" stroke="#191970" points="727.1608,-662.7714 717.116,-666.1408 727.0696,-669.7708 727.1608,-662.7714"/>
</g>
<!-- Node11 -->
<g id="node7" class="node">
<title>Node11</title>
<g id="a_node7"><a xlink:href="classgko_1_1EnableAbstractPolymorphicObject.html" target="_top" xlink:title="This mixin inherits from (a subclass of) PolymorphicObject and provides a base implementation of a ne...">
<polygon fill="#ffffff" stroke="#000000" points="138,-608.5 138,-649.5 336,-649.5 336,-608.5 138,-608.5"/>
<text text-anchor="start" x="146" y="-637.5" font-family="Helvetica,sans-Serif" font-size="10.00" fill="#000000">gko::EnableAbstractPolymorphic</text>
<text text-anchor="start" x="146" y="-626.5" font-family="Helvetica,sans-Serif" font-size="10.00" fill="#000000">Object&lt; AbstractObject, Polymorphic</text>
<text text-anchor="middle" x="237" y="-615.5" font-family="Helvetica,sans-Serif" font-size="10.00" fill="#000000">Base &gt;</text>
</a>
</g>
</g>
<!-- Node11&#45;&gt;Node4 -->
<g id="edge8" class="edge">
<title>Node11&#45;&gt;Node4</title>
<path fill="none" stroke="#ffa500" stroke-dasharray="5,2" d="M289.893,-653.5433C309.6144,-661.6867 332.4501,-669.9531 354,-675 430.0064,-692.8005 451.0084,-686.6636 529,-690 567.8315,-691.6612 950.4462,-690.6253 1116,-689 1194.2298,-688.232 1213.9025,-690.6118 1292,-686 1302.0115,-685.4088 1312.4828,-684.6109 1322.8804,-683.7059"/>
<polygon fill="#ffa500" stroke="#ffa500" points="291.0549,-650.2348 280.481,-649.5701 288.3326,-656.6837 291.0549,-650.2348"/>
<text text-anchor="start" x="761" y="-704" font-family="Helvetica,sans-Serif" font-size="10.00" fill="#000000"> &lt; Diagonal&lt; ValueType</text>
<text text-anchor="middle" x="820.5" y="-693" font-family="Helvetica,sans-Serif" font-size="10.00" fill="#000000"> &gt;, LinOp &gt;</text>
</g>
<!-- Node11&#45;&gt;Node6 -->
<g id="edge6" class="edge">
<title>Node11&#45;&gt;Node6</title>
<path fill="none" stroke="#ffa500" stroke-dasharray="5,2" d="M346.2714,-647.0954C348.8708,-647.4127 351.45,-647.715 354,-648 416.6259,-654.9997 487.6066,-659.2939 541.8344,-661.8151"/>
<polygon fill="#ffa500" stroke="#ffa500" points="346.5267,-643.5996 336.1634,-645.8025 345.6385,-650.543 346.5267,-643.5996"/>
<text text-anchor="middle" x="432.5" y="-663" font-family="Helvetica,sans-Serif" font-size="10.00" fill="#000000"> &lt; LinOp &gt;</text>
</g>
<!-- Node14 -->
<g id="node10" class="node">
<title>Node14</title>
<g id="a_node10"><a xlink:href="classgko_1_1EnableAbstractPolymorphicObject.html" target="_top" xlink:title=" ">
<polygon fill="#ffffff" stroke="#000000" points="529,-587.5 529,-628.5 730,-628.5 730,-587.5 529,-587.5"/>
<text text-anchor="start" x="537" y="-616.5" font-family="Helvetica,sans-Serif" font-size="10.00" fill="#000000">gko::EnableAbstractPolymorphic</text>
<text text-anchor="start" x="537" y="-605.5" font-family="Helvetica,sans-Serif" font-size="10.00" fill="#000000">Object&lt; ConcreteObject, Polymorphic</text>
<text text-anchor="middle" x="629.5" y="-594.5" font-family="Helvetica,sans-Serif" font-size="10.00" fill="#000000">Base &gt;</text>
</a>
</g>
</g>
<!-- Node11&#45;&gt;Node14 -->
<g id="edge12" class="edge">
<title>Node11&#45;&gt;Node14</title>
<path fill="none" stroke="#ffa500" stroke-dasharray="5,2" d="M346.2032,-623.1573C403.3756,-620.0984 472.9091,-616.3781 528.78,-613.3888"/>
<polygon fill="#ffa500" stroke="#ffa500" points="345.843,-619.6715 336.0443,-623.7008 346.2171,-626.6615 345.843,-619.6715"/>
<text text-anchor="start" x="354" y="-636" font-family="Helvetica,sans-Serif" font-size="10.00" fill="#000000"> &lt; ConcreteObject, Polymorphic</text>
<text text-anchor="middle" x="432.5" y="-625" font-family="Helvetica,sans-Serif" font-size="10.00" fill="#000000">Base &gt;</text>
</g>
<!-- Node21 -->
<g id="node17" class="node">
<title>Node21</title>
<g id="a_node17"><a xlink:href="classgko_1_1EnableAbstractPolymorphicObject.html" target="_top" xlink:title=" ">
<polygon fill="#ffffff" stroke="#000000" points="531,-522.5 531,-563.5 728,-563.5 728,-522.5 531,-522.5"/>
<text text-anchor="start" x="539" y="-551.5" font-family="Helvetica,sans-Serif" font-size="10.00" fill="#000000">gko::EnableAbstractPolymorphic</text>
<text text-anchor="start" x="539" y="-540.5" font-family="Helvetica,sans-Serif" font-size="10.00" fill="#000000">Object&lt; ConcreteLinOp, Polymorphic</text>
<text text-anchor="middle" x="629.5" y="-529.5" font-family="Helvetica,sans-Serif" font-size="10.00" fill="#000000">Base &gt;</text>
</a>
</g>
</g>
<!-- Node11&#45;&gt;Node21 -->
<g id="edge22" class="edge">
<title>Node11&#45;&gt;Node21</title>
<path fill="none" stroke="#ffa500" stroke-dasharray="5,2" d="M298.9789,-605.0119C316.5708,-598.8262 335.8738,-592.6184 354,-588 411.8822,-573.2521 477.8883,-562.2743 530.7792,-554.8548"/>
<polygon fill="#ffa500" stroke="#ffa500" points="297.6384,-601.7741 289.4001,-608.436 299.9947,-608.3657 297.6384,-601.7741"/>
<text text-anchor="start" x="356" y="-602" font-family="Helvetica,sans-Serif" font-size="10.00" fill="#000000"> &lt; ConcreteLinOp, Polymorphic</text>
<text text-anchor="middle" x="432.5" y="-591" font-family="Helvetica,sans-Serif" font-size="10.00" fill="#000000">Base &gt;</text>
</g>
<!-- Node12 -->
<g id="node8" class="node">
<title>Node12</title>
<g id="a_node8"><a xlink:title=" ">
<polygon fill="#ffffff" stroke="#bfbfbf" points="0,-541.5 0,-560.5 101,-560.5 101,-541.5 0,-541.5"/>
<text text-anchor="middle" x="50.5" y="-548.5" font-family="Helvetica,sans-Serif" font-size="10.00" fill="#000000">PolymorphicBase</text>
</a>
</g>
</g>
<!-- Node12&#45;&gt;Node11 -->
<g id="edge7" class="edge">
<title>Node12&#45;&gt;Node11</title>
<path fill="none" stroke="#191970" d="M82.5985,-564.4246C111.5007,-576.5123 154.4214,-594.4631 187.6791,-608.3725"/>
<polygon fill="#191970" stroke="#191970" points="83.9447,-561.1939 73.3686,-560.5643 81.2437,-567.6518 83.9447,-561.1939"/>
</g>
<!-- Node12&#45;&gt;Node14 -->
<g id="edge11" class="edge">
<title>Node12&#45;&gt;Node14</title>
<path fill="none" stroke="#191970" d="M111.2279,-545.4886C200.225,-539.056 370.7292,-532.9976 511,-565 519.5352,-566.9473 520.8592,-569.7798 529,-573 541.4558,-577.927 554.9171,-582.8705 567.8153,-587.4259"/>
<polygon fill="#191970" stroke="#191970" points="110.7572,-542.014 101.047,-546.2521 111.2807,-548.9944 110.7572,-542.014"/>
</g>
<!-- Node12&#45;&gt;Node21 -->
<g id="edge21" class="edge">
<title>Node12&#45;&gt;Node21</title>
<path fill="none" stroke="#191970" d="M100.0089,-539.656C106.37,-538.5602 112.8183,-537.6252 119,-537 292.3378,-519.4679 336.8335,-532.5935 511,-537 517.4867,-537.1641 524.1712,-537.3787 530.9066,-537.6288"/>
<polygon fill="#191970" stroke="#191970" points="99.3286,-536.2224 90.1355,-541.4889 100.6063,-543.1048 99.3286,-536.2224"/>
</g>
<!-- Node13 -->
<g id="node9" class="node">
<title>Node13</title>
<g id="a_node9"><a xlink:href="classgko_1_1EnablePolymorphicObject.html" target="_top" xlink:title="This mixin inherits from (a subclass of) PolymorphicObject and provides a base implementation of a ne...">
<polygon fill="#ffffff" stroke="#000000" points="911,-593 911,-623 1116,-623 1116,-593 911,-593"/>
<text text-anchor="start" x="919" y="-611" font-family="Helvetica,sans-Serif" font-size="10.00" fill="#000000">gko::EnablePolymorphicObject</text>
<text text-anchor="middle" x="1013.5" y="-600" font-family="Helvetica,sans-Serif" font-size="10.00" fill="#000000">&lt; ConcreteObject, PolymorphicBase &gt;</text>
</a>
</g>
</g>
<!-- Node13&#45;&gt;Node3 -->
<g id="edge9" class="edge">
<title>Node13&#45;&gt;Node3</title>
<path fill="none" stroke="#ffa500" stroke-dasharray="5,2" d="M1126.2684,-608.7219C1284.9381,-609.7378 1570.4091,-611.5654 1711.2621,-612.4671"/>
<polygon fill="#ffa500" stroke="#ffa500" points="1126.0256,-605.2204 1116.0034,-608.6562 1125.9807,-612.2203 1126.0256,-605.2204"/>
<text text-anchor="start" x="1351" y="-625" font-family="Helvetica,sans-Serif" font-size="10.00" fill="#000000"> &lt; Diagonal&lt; ValueType</text>
<text text-anchor="middle" x="1410.5" y="-614" font-family="Helvetica,sans-Serif" font-size="10.00" fill="#000000"> &gt;, LinOp &gt;</text>
</g>
<!-- Node20 -->
<g id="node16" class="node">
<title>Node20</title>
<g id="a_node16"><a xlink:href="classgko_1_1EnablePolymorphicObject.html" target="_top" xlink:title=" ">
<polygon fill="#ffffff" stroke="#000000" points="1310,-528 1310,-558 1511,-558 1511,-528 1310,-528"/>
<text text-anchor="start" x="1318" y="-546" font-family="Helvetica,sans-Serif" font-size="10.00" fill="#000000">gko::EnablePolymorphicObject</text>
<text text-anchor="middle" x="1410.5" y="-535" font-family="Helvetica,sans-Serif" font-size="10.00" fill="#000000">&lt; ConcreteLinOp, PolymorphicBase &gt;</text>
</a>
</g>
</g>
<!-- Node13&#45;&gt;Node20 -->
<g id="edge23" class="edge">
<title>Node13&#45;&gt;Node20</title>
<path fill="none" stroke="#ffa500" stroke-dasharray="5,2" d="M1075.7886,-590.3375C1094.4016,-585.5046 1114.9295,-580.6098 1134,-577 1191.857,-566.0483 1257.2214,-557.8233 1309.8661,-552.2086"/>
<polygon fill="#ffa500" stroke="#ffa500" points="1074.7353,-586.9955 1065.9581,-592.9295 1076.52,-593.7642 1074.7353,-586.9955"/>
<text text-anchor="start" x="1136.5" y="-591" font-family="Helvetica,sans-Serif" font-size="10.00" fill="#000000"> &lt; ConcreteLinOp, Polymorphic</text>
<text text-anchor="middle" x="1213" y="-580" font-family="Helvetica,sans-Serif" font-size="10.00" fill="#000000">Base &gt;</text>
</g>
<!-- Node14&#45;&gt;Node13 -->
<g id="edge10" class="edge">
<title>Node14&#45;&gt;Node13</title>
<path fill="none" stroke="#191970" d="M740.3927,-608C794.1162,-608 858.22,-608 910.8171,-608"/>
<polygon fill="#191970" stroke="#191970" points="740.1406,-604.5001 730.1406,-608 740.1406,-611.5001 740.1406,-604.5001"/>
</g>
<!-- Node15 -->
<g id="node11" class="node">
<title>Node15</title>
<g id="a_node11"><a xlink:href="classgko_1_1EnablePolymorphicAssignment.html" target="_top" xlink:title=" ">
<polygon fill="#ffffff" stroke="#000000" points="1314.5,-478 1314.5,-508 1506.5,-508 1506.5,-478 1314.5,-478"/>
<text text-anchor="start" x="1322.5" y="-496" font-family="Helvetica,sans-Serif" font-size="10.00" fill="#000000">gko::EnablePolymorphicAssignment</text>
<text text-anchor="middle" x="1410.5" y="-485" font-family="Helvetica,sans-Serif" font-size="10.00" fill="#000000">&lt; Diagonal&lt; ValueType &gt; &gt;</text>
</a>
</g>
</g>
<!-- Node15&#45;&gt;Node2 -->
<g id="edge13" class="edge">
<title>Node15&#45;&gt;Node2</title>
<path fill="none" stroke="#191970" d="M1516.9308,-490.8942C1644.893,-488.3156 1866.1604,-483.7076 2056,-479 2065.519,-478.764 2075.5118,-478.5029 2085.4117,-478.2361"/>
<polygon fill="#191970" stroke="#191970" points="1516.67,-487.3987 1506.7424,-491.0992 1516.8108,-494.3973 1516.67,-487.3987"/>
</g>
<!-- Node16 -->
<g id="node12" class="node">
<title>Node16</title>
<g id="a_node12"><a xlink:href="classgko_1_1ConvertibleTo.html" target="_top" xlink:title=" ">
<polygon fill="#ffffff" stroke="#000000" points="936,-484 936,-514 1091,-514 1091,-484 936,-484"/>
<text text-anchor="start" x="944" y="-502" font-family="Helvetica,sans-Serif" font-size="10.00" fill="#000000">gko::ConvertibleTo</text>
<text text-anchor="middle" x="1013.5" y="-491" font-family="Helvetica,sans-Serif" font-size="10.00" fill="#000000">&lt; Diagonal&lt; ValueType &gt; &gt;</text>
</a>
</g>
</g>
<!-- Node16&#45;&gt;Node15 -->
<g id="edge14" class="edge">
<title>Node16&#45;&gt;Node15</title>
<path fill="none" stroke="#191970" d="M1101.7874,-497.6657C1164.8734,-496.7122 1249.7034,-495.4302 1314.4755,-494.4513"/>
<polygon fill="#191970" stroke="#191970" points="1101.4067,-494.1709 1091.4607,-497.8218 1101.5125,-501.1701 1101.4067,-494.1709"/>
</g>
<!-- Node17 -->
<g id="node13" class="node">
<title>Node17</title>
<g id="a_node13"><a xlink:href="classgko_1_1ConvertibleTo.html" target="_top" xlink:title="ConvertibleTo interface is used to mark that the implementer can be converted to the object of Result...">
<polygon fill="#ffffff" stroke="#000000" points="576,-386 576,-416 683,-416 683,-386 576,-386"/>
<text text-anchor="start" x="584" y="-404" font-family="Helvetica,sans-Serif" font-size="10.00" fill="#000000">gko::ConvertibleTo</text>
<text text-anchor="middle" x="629.5" y="-393" font-family="Helvetica,sans-Serif" font-size="10.00" fill="#000000">&lt; ResultType &gt;</text>
</a>
</g>
</g>
<!-- Node17&#45;&gt;Node16 -->
<g id="edge15" class="edge">
<title>Node17&#45;&gt;Node16</title>
<path fill="none" stroke="#ffa500" stroke-dasharray="5,2" d="M682.8085,-419.1965C703.0987,-425.8313 726.5053,-433.137 748,-439 811.9408,-456.4407 885.509,-472.78 938.9645,-483.9901"/>
<polygon fill="#ffa500" stroke="#ffa500" points="683.7134,-415.8096 673.1203,-416.0026 681.5217,-422.4576 683.7134,-415.8096"/>
<text text-anchor="middle" x="820.5" y="-476" font-family="Helvetica,sans-Serif" font-size="10.00" fill="#000000"> &lt; Diagonal&lt; ValueType &gt; &gt;</text>
</g>
<!-- Node18 -->
<g id="node14" class="node">
<title>Node18</title>
<g id="a_node14"><a xlink:href="classgko_1_1EnablePolymorphicAssignment.html" target="_top" xlink:title="This mixin is used to enable a default PolymorphicObject::copy_from() implementation for objects that...">
<polygon fill="#ffffff" stroke="#000000" points="917.5,-435 917.5,-465 1109.5,-465 1109.5,-435 917.5,-435"/>
<text text-anchor="start" x="925.5" y="-453" font-family="Helvetica,sans-Serif" font-size="10.00" fill="#000000">gko::EnablePolymorphicAssignment</text>
<text text-anchor="middle" x="1013.5" y="-442" font-family="Helvetica,sans-Serif" font-size="10.00" fill="#000000">&lt; ConcreteType, ResultType &gt;</text>
</a>
</g>
</g>
<!-- Node17&#45;&gt;Node18 -->
<g id="edge17" class="edge">
<title>Node17&#45;&gt;Node18</title>
<path fill="none" stroke="#191970" d="M693.5588,-409.1742C754.5716,-416.9597 847.2174,-428.7816 917.1378,-437.7038"/>
<polygon fill="#191970" stroke="#191970" points="693.6605,-405.6588 683.2979,-407.8648 692.7744,-412.6025 693.6605,-405.6588"/>
</g>
<!-- Node23 -->
<g id="node19" class="node">
<title>Node23</title>
<g id="a_node19"><a xlink:href="classgko_1_1ConvertibleTo.html" target="_top" xlink:title=" ">
<polygon fill="#ffffff" stroke="#000000" points="958.5,-386 958.5,-416 1068.5,-416 1068.5,-386 958.5,-386"/>
<text text-anchor="start" x="966.5" y="-404" font-family="Helvetica,sans-Serif" font-size="10.00" fill="#000000">gko::ConvertibleTo</text>
<text text-anchor="middle" x="1013.5" y="-393" font-family="Helvetica,sans-Serif" font-size="10.00" fill="#000000">&lt; ConcreteLinOp &gt;</text>
</a>
</g>
</g>
<!-- Node17&#45;&gt;Node23 -->
<g id="edge26" class="edge">
<title>Node17&#45;&gt;Node23</title>
<path fill="none" stroke="#ffa500" stroke-dasharray="5,2" d="M693.4194,-401C767.4168,-401 888.0785,-401 958.2011,-401"/>
<polygon fill="#ffa500" stroke="#ffa500" points="693.2979,-397.5001 683.2979,-401 693.2979,-404.5001 693.2979,-397.5001"/>
<text text-anchor="middle" x="820.5" y="-404" font-family="Helvetica,sans-Serif" font-size="10.00" fill="#000000"> &lt; ConcreteLinOp &gt;</text>
</g>
<!-- Node26 -->
<g id="node22" class="node">
<title>Node26</title>
<g id="a_node22"><a xlink:href="classgko_1_1ConvertibleTo.html" target="_top" xlink:title=" ">
<polygon fill="#ffffff" stroke="#000000" points="1134,-295 1134,-325 1292,-325 1292,-295 1134,-295"/>
<text text-anchor="start" x="1142" y="-313" font-family="Helvetica,sans-Serif" font-size="10.00" fill="#000000">gko::ConvertibleTo</text>
<text text-anchor="middle" x="1213" y="-302" font-family="Helvetica,sans-Serif" font-size="10.00" fill="#000000">&lt; Csr&lt; ValueType, int32 &gt; &gt;</text>
</a>
</g>
</g>
<!-- Node17&#45;&gt;Node26 -->
<g id="edge31" class="edge">
<title>Node17&#45;&gt;Node26</title>
<path fill="none" stroke="#ffa500" stroke-dasharray="5,2" d="M656.4308,-379.8495C679.3472,-363.1957 713.8847,-341.1562 748,-331 878.8941,-292.0324 1039.617,-295.3623 1133.7409,-302.1261"/>
<polygon fill="#ffa500" stroke="#ffa500" points="654.1824,-377.1596 648.2421,-385.9324 658.3567,-382.7789 654.1824,-377.1596"/>
<text text-anchor="middle" x="820.5" y="-334" font-family="Helvetica,sans-Serif" font-size="10.00" fill="#000000"> &lt; Csr&lt; ValueType, int32 &gt; &gt;</text>
</g>
<!-- Node27 -->
<g id="node23" class="node">
<title>Node27</title>
<g id="a_node23"><a xlink:href="classgko_1_1ConvertibleTo.html" target="_top" xlink:title=" ">
<polygon fill="#ffffff" stroke="#000000" points="1529,-362 1529,-392 1687,-392 1687,-362 1529,-362"/>
<text text-anchor="start" x="1537" y="-380" font-family="Helvetica,sans-Serif" font-size="10.00" fill="#000000">gko::ConvertibleTo</text>
<text text-anchor="middle" x="1608" y="-369" font-family="Helvetica,sans-Serif" font-size="10.00" fill="#000000">&lt; Csr&lt; ValueType, int64 &gt; &gt;</text>
</a>
</g>
</g>
<!-- Node17&#45;&gt;Node27 -->
<g id="edge33" class="edge">
<title>Node17&#45;&gt;Node27</title>
<path fill="none" stroke="#ffa500" stroke-dasharray="5,2" d="M692.9493,-390.8337C749.8662,-382.2586 835.7654,-370.6592 911,-366 1134.7646,-352.1426 1399.6626,-364.1006 1528.9899,-371.7686"/>
<polygon fill="#ffa500" stroke="#ffa500" points="692.3794,-387.38 683.0192,-392.3434 693.4317,-394.3005 692.3794,-387.38"/>
<text text-anchor="middle" x="1013.5" y="-369" font-family="Helvetica,sans-Serif" font-size="10.00" fill="#000000"> &lt; Csr&lt; ValueType, int64 &gt; &gt;</text>
</g>
<!-- Node18&#45;&gt;Node15 -->
<g id="edge16" class="edge">
<title>Node18&#45;&gt;Node15</title>
<path fill="none" stroke="#ffa500" stroke-dasharray="5,2" d="M1119.7897,-460.7192C1171.7342,-466.0466 1235.1547,-472.6827 1292,-479 1299.3092,-479.8123 1306.87,-480.6685 1314.472,-481.5408"/>
<polygon fill="#ffa500" stroke="#ffa500" points="1119.8636,-457.2085 1109.5591,-459.6716 1119.1505,-464.1721 1119.8636,-457.2085"/>
<text text-anchor="middle" x="1213" y="-482" font-family="Helvetica,sans-Serif" font-size="10.00" fill="#000000"> &lt; Diagonal&lt; ValueType &gt; &gt;</text>
</g>
<!-- Node22 -->
<g id="node18" class="node">
<title>Node22</title>
<g id="a_node18"><a xlink:href="classgko_1_1EnablePolymorphicAssignment.html" target="_top" xlink:title=" ">
<polygon fill="#ffffff" stroke="#000000" points="1314.5,-424 1314.5,-454 1506.5,-454 1506.5,-424 1314.5,-424"/>
<text text-anchor="start" x="1322.5" y="-442" font-family="Helvetica,sans-Serif" font-size="10.00" fill="#000000">gko::EnablePolymorphicAssignment</text>
<text text-anchor="middle" x="1410.5" y="-431" font-family="Helvetica,sans-Serif" font-size="10.00" fill="#000000">&lt; ConcreteLinOp &gt;</text>
</a>
</g>
</g>
<!-- Node18&#45;&gt;Node22 -->
<g id="edge27" class="edge">
<title>Node18&#45;&gt;Node22</title>
<path fill="none" stroke="#ffa500" stroke-dasharray="5,2" d="M1120.126,-440.6971C1124.8124,-440.4316 1129.4532,-440.1966 1134,-440 1193.9487,-437.4082 1261.2765,-437.109 1314.4844,-437.4815"/>
<polygon fill="#ffa500" stroke="#ffa500" points="1119.5818,-437.2236 1109.8126,-441.324 1120.0065,-444.2107 1119.5818,-437.2236"/>
<text text-anchor="middle" x="1213" y="-443" font-family="Helvetica,sans-Serif" font-size="10.00" fill="#000000"> &lt; ConcreteLinOp &gt;</text>
</g>
<!-- Node19 -->
<g id="node15" class="node">
<title>Node19</title>
<g id="a_node15"><a xlink:href="classgko_1_1EnableLinOp.html" target="_top" xlink:title="The EnableLinOp mixin can be used to provide sensible default implementations of the majority of the ...">
<polygon fill="#ffffff" stroke="#000000" points="1716.5,-434 1716.5,-464 1872.5,-464 1872.5,-434 1716.5,-434"/>
<text text-anchor="start" x="1724.5" y="-452" font-family="Helvetica,sans-Serif" font-size="10.00" fill="#000000">gko::EnableLinOp&lt; Concrete</text>
<text text-anchor="middle" x="1794.5" y="-441" font-family="Helvetica,sans-Serif" font-size="10.00" fill="#000000">LinOp, PolymorphicBase &gt;</text>
</a>
</g>
</g>
<!-- Node19&#45;&gt;Node2 -->
<g id="edge18" class="edge">
<title>Node19&#45;&gt;Node2</title>
<path fill="none" stroke="#ffa500" stroke-dasharray="5,2" d="M1882.8633,-455.3816C1933.5382,-459.051 1998.3464,-463.7603 2056,-468 2065.5188,-468.7 2075.5115,-469.4386 2085.4114,-470.1726"/>
<polygon fill="#ffa500" stroke="#ffa500" points="1882.8246,-451.8697 1872.598,-454.6385 1882.3191,-458.8515 1882.8246,-451.8697"/>
<text text-anchor="middle" x="1979" y="-471" font-family="Helvetica,sans-Serif" font-size="10.00" fill="#000000"> &lt; Diagonal&lt; ValueType &gt; &gt;</text>
</g>
<!-- Node20&#45;&gt;Node19 -->
<g id="edge19" class="edge">
<title>Node20&#45;&gt;Node19</title>
<path fill="none" stroke="#191970" d="M1482.1226,-525.4674C1554.3196,-507.7942 1664.5798,-480.8034 1732.9569,-464.0652"/>
<polygon fill="#191970" stroke="#191970" points="1481.0772,-522.1199 1472.1962,-527.8973 1482.7417,-528.9191 1481.0772,-522.1199"/>
</g>
<!-- Node21&#45;&gt;Node20 -->
<g id="edge20" class="edge">
<title>Node21&#45;&gt;Node20</title>
<path fill="none" stroke="#191970" d="M738.2744,-543C889.8867,-543 1162.6433,-543 1309.8068,-543"/>
<polygon fill="#191970" stroke="#191970" points="738.0185,-539.5001 728.0185,-543 738.0184,-546.5001 738.0185,-539.5001"/>
</g>
<!-- Node22&#45;&gt;Node19 -->
<g id="edge24" class="edge">
<title>Node22&#45;&gt;Node19</title>
<path fill="none" stroke="#191970" d="M1516.9147,-441.7712C1580.1594,-443.4182 1658.9813,-445.4709 1716.4552,-446.9676"/>
<polygon fill="#191970" stroke="#191970" points="1516.9915,-438.2721 1506.9038,-441.5105 1516.8092,-445.2698 1516.9915,-438.2721"/>
</g>
<!-- Node23&#45;&gt;Node22 -->
<g id="edge25" class="edge">
<title>Node23&#45;&gt;Node22</title>
<path fill="none" stroke="#191970" d="M1078.6711,-407.238C1142.6894,-413.3657 1241.1179,-422.7871 1314.1678,-429.7793"/>
<polygon fill="#191970" stroke="#191970" points="1078.9892,-403.7526 1068.7011,-406.2837 1078.3221,-410.7207 1078.9892,-403.7526"/>
</g>
<!-- Node24 -->
<g id="node20" class="node">
<title>Node24</title>
<g id="a_node20"><a xlink:href="classgko_1_1EnableCreateMethod.html" target="_top" xlink:title=" ">
<polygon fill="#ffffff" stroke="#000000" points="2086,-339 2086,-369 2241,-369 2241,-339 2086,-339"/>
<text text-anchor="start" x="2094" y="-357" font-family="Helvetica,sans-Serif" font-size="10.00" fill="#000000">gko::EnableCreateMethod</text>
<text text-anchor="middle" x="2163.5" y="-346" font-family="Helvetica,sans-Serif" font-size="10.00" fill="#000000">&lt; Diagonal&lt; ValueType &gt; &gt;</text>
</a>
</g>
</g>
<!-- Node24&#45;&gt;Node1 -->
<g id="edge28" class="edge">
<title>Node24&#45;&gt;Node1</title>
<path fill="none" stroke="#191970" d="M2245.2781,-335.7011C2254.5334,-332.3784 2263.6344,-328.5035 2272,-324 2298.136,-309.93 2323.0169,-285.8039 2337.6451,-270.1317"/>
<polygon fill="#191970" stroke="#191970" points="2243.9571,-332.4529 2235.6014,-338.967 2246.1956,-339.0854 2243.9571,-332.4529"/>
</g>
<!-- Node25 -->
<g id="node21" class="node">
<title>Node25</title>
<g id="a_node21"><a xlink:href="classgko_1_1EnableCreateMethod.html" target="_top" xlink:title="This mixin implements a static create() method on ConcreteType that dynamically allocates the memory,...">
<polygon fill="#ffffff" stroke="#000000" points="1723.5,-339 1723.5,-369 1865.5,-369 1865.5,-339 1723.5,-339"/>
<text text-anchor="start" x="1731.5" y="-357" font-family="Helvetica,sans-Serif" font-size="10.00" fill="#000000">gko::EnableCreateMethod</text>
<text text-anchor="middle" x="1794.5" y="-346" font-family="Helvetica,sans-Serif" font-size="10.00" fill="#000000">&lt; ConcreteType &gt;</text>
</a>
</g>
</g>
<!-- Node25&#45;&gt;Node24 -->
<g id="edge29" class="edge">
<title>Node25&#45;&gt;Node24</title>
<path fill="none" stroke="#ffa500" stroke-dasharray="5,2" d="M1875.8693,-354C1938.424,-354 2024.2809,-354 2085.8784,-354"/>
<polygon fill="#ffa500" stroke="#ffa500" points="1875.6469,-350.5001 1865.6469,-354 1875.6469,-357.5001 1875.6469,-350.5001"/>
<text text-anchor="middle" x="1979" y="-357" font-family="Helvetica,sans-Serif" font-size="10.00" fill="#000000"> &lt; Diagonal&lt; ValueType &gt; &gt;</text>
</g>
<!-- Node26&#45;&gt;Node1 -->
<g id="edge30" class="edge">
<title>Node26&#45;&gt;Node1</title>
<path fill="none" stroke="#191970" d="M1302.1098,-310C1382.1677,-310 1502.9425,-310 1608,-310 1608,-310 1608,-310 2163.5,-310 2220.4917,-310 2283.4313,-286.3135 2319.9679,-270.029"/>
<polygon fill="#191970" stroke="#191970" points="1302.0655,-306.5001 1292.0654,-310 1302.0654,-313.5001 1302.0655,-306.5001"/>
</g>
<!-- Node27&#45;&gt;Node1 -->
<g id="edge32" class="edge">
<title>Node27&#45;&gt;Node1</title>
<path fill="none" stroke="#191970" d="M1697.4695,-386.7799C1851.086,-402.0148 2157.6822,-425.1605 2253,-379 2300.416,-356.0374 2331.833,-297.7687 2344.578,-270.0695"/>
<polygon fill="#191970" stroke="#191970" points="1697.4265,-383.2581 1687.1272,-385.7432 1696.7283,-390.2232 1697.4265,-383.2581"/>
</g>
<!-- Node28 -->
<g id="node24" class="node">
<title>Node28</title>
<g id="a_node24"><a xlink:href="classgko_1_1Transposable.html" target="_top" xlink:title="Linear operators which support transposition should implement the Transposable interface.">
<polygon fill="#ffffff" stroke="#000000" points="2111.5,-262.5 2111.5,-281.5 2215.5,-281.5 2215.5,-262.5 2111.5,-262.5"/>
<text text-anchor="middle" x="2163.5" y="-269.5" font-family="Helvetica,sans-Serif" font-size="10.00" fill="#000000">gko::Transposable</text>
</a>
</g>
</g>
<!-- Node28&#45;&gt;Node1 -->
<g id="edge34" class="edge">
<title>Node28&#45;&gt;Node1</title>
<path fill="none" stroke="#191970" d="M2225.9286,-266.3398C2246.4792,-264.4766 2269.2984,-262.4076 2289.7596,-260.5525"/>
<polygon fill="#191970" stroke="#191970" points="2225.3723,-262.8758 2215.7292,-267.2646 2226.0044,-269.8472 2225.3723,-262.8758"/>
</g>
<!-- Node29 -->
<g id="node25" class="node">
<title>Node29</title>
<g id="a_node25"><a xlink:href="classgko_1_1WritableToMatrixData.html" target="_top" xlink:title=" ">
<polygon fill="#ffffff" stroke="#000000" points="2090.5,-213 2090.5,-243 2236.5,-243 2236.5,-213 2090.5,-213"/>
<text text-anchor="start" x="2098.5" y="-231" font-family="Helvetica,sans-Serif" font-size="10.00" fill="#000000">gko::WritableToMatrixData</text>
<text text-anchor="middle" x="2163.5" y="-220" font-family="Helvetica,sans-Serif" font-size="10.00" fill="#000000">&lt; ValueType, int32 &gt;</text>
</a>
</g>
</g>
<!-- Node29&#45;&gt;Node1 -->
<g id="edge35" class="edge">
<title>Node29&#45;&gt;Node1</title>
<path fill="none" stroke="#191970" d="M2246.5104,-239.9535C2261.0331,-242.0448 2275.9042,-244.1862 2289.7048,-246.1735"/>
<polygon fill="#191970" stroke="#191970" points="2246.9261,-236.4773 2236.5293,-238.5162 2245.9283,-243.4059 2246.9261,-236.4773"/>
</g>
<!-- Node30 -->
<g id="node26" class="node">
<title>Node30</title>
<g id="a_node26"><a xlink:href="classgko_1_1WritableToMatrixData.html" target="_top" xlink:title="A LinOp implementing this interface can write its data to a matrix_data structure.">
<polygon fill="#ffffff" stroke="#000000" points="1721.5,-187 1721.5,-217 1867.5,-217 1867.5,-187 1721.5,-187"/>
<text text-anchor="start" x="1729.5" y="-205" font-family="Helvetica,sans-Serif" font-size="10.00" fill="#000000">gko::WritableToMatrixData</text>
<text text-anchor="middle" x="1794.5" y="-194" font-family="Helvetica,sans-Serif" font-size="10.00" fill="#000000">&lt; ValueType, IndexType &gt;</text>
</a>
</g>
</g>
<!-- Node30&#45;&gt;Node29 -->
<g id="edge36" class="edge">
<title>Node30&#45;&gt;Node29</title>
<path fill="none" stroke="#ffa500" stroke-dasharray="5,2" d="M1877.8898,-207.8757C1941.7842,-212.3778 2029.0863,-218.5291 2090.2951,-222.8419"/>
<polygon fill="#ffa500" stroke="#ffa500" points="1878.065,-204.3795 1867.8437,-207.1678 1877.5729,-211.3622 1878.065,-204.3795"/>
<text text-anchor="middle" x="1979" y="-223" font-family="Helvetica,sans-Serif" font-size="10.00" fill="#000000"> &lt; ValueType, int32 &gt;</text>
</g>
<!-- Node31 -->
<g id="node27" class="node">
<title>Node31</title>
<g id="a_node27"><a xlink:href="classgko_1_1WritableToMatrixData.html" target="_top" xlink:title=" ">
<polygon fill="#ffffff" stroke="#000000" points="2090.5,-164 2090.5,-194 2236.5,-194 2236.5,-164 2090.5,-164"/>
<text text-anchor="start" x="2098.5" y="-182" font-family="Helvetica,sans-Serif" font-size="10.00" fill="#000000">gko::WritableToMatrixData</text>
<text text-anchor="middle" x="2163.5" y="-171" font-family="Helvetica,sans-Serif" font-size="10.00" fill="#000000">&lt; ValueType, int64 &gt;</text>
</a>
</g>
</g>
<!-- Node30&#45;&gt;Node31 -->
<g id="edge38" class="edge">
<title>Node30&#45;&gt;Node31</title>
<path fill="none" stroke="#ffa500" stroke-dasharray="5,2" d="M1877.5774,-190.3829C1885.8178,-189.4703 1894.0654,-188.6517 1902,-188 1965.4964,-182.7846 2037.9066,-180.5824 2090.4057,-179.6573"/>
<polygon fill="#ffa500" stroke="#ffa500" points="1877.0848,-186.9164 1867.551,-191.5376 1877.8858,-193.8704 1877.0848,-186.9164"/>
<text text-anchor="middle" x="1979" y="-191" font-family="Helvetica,sans-Serif" font-size="10.00" fill="#000000"> &lt; ValueType, int64 &gt;</text>
</g>
<!-- Node31&#45;&gt;Node1 -->
<g id="edge37" class="edge">
<title>Node31&#45;&gt;Node1</title>
<path fill="none" stroke="#191970" d="M2233.8377,-197.1431C2240.3755,-199.2796 2246.8502,-201.5714 2253,-204 2278.5101,-214.0743 2306.0993,-228.8071 2325.485,-239.8505"/>
<polygon fill="#191970" stroke="#191970" points="2234.8337,-193.7874 2224.2443,-194.1261 2232.7337,-200.465 2234.8337,-193.7874"/>
</g>
<!-- Node32 -->
<g id="node28" class="node">
<title>Node32</title>
<g id="a_node28"><a xlink:href="classgko_1_1ReadableFromMatrixData.html" target="_top" xlink:title=" ">
<polygon fill="#ffffff" stroke="#000000" points="2081.5,-115 2081.5,-145 2245.5,-145 2245.5,-115 2081.5,-115"/>
<text text-anchor="start" x="2089.5" y="-133" font-family="Helvetica,sans-Serif" font-size="10.00" fill="#000000">gko::ReadableFromMatrixData</text>
<text text-anchor="middle" x="2163.5" y="-122" font-family="Helvetica,sans-Serif" font-size="10.00" fill="#000000">&lt; ValueType, int32 &gt;</text>
</a>
</g>
</g>
<!-- Node32&#45;&gt;Node1 -->
<g id="edge39" class="edge">
<title>Node32&#45;&gt;Node1</title>
<path fill="none" stroke="#191970" d="M2241.4766,-149.0187C2245.4608,-150.8404 2249.3285,-152.8293 2253,-155 2290.6642,-177.268 2323.8128,-217.6601 2340.1753,-239.6803"/>
<polygon fill="#191970" stroke="#191970" points="2242.5827,-145.6878 2232.0062,-145.0652 2239.886,-152.1475 2242.5827,-145.6878"/>
</g>
<!-- Node33 -->
<g id="node29" class="node">
<title>Node33</title>
<g id="a_node29"><a xlink:href="classgko_1_1ReadableFromMatrixData.html" target="_top" xlink:title="A LinOp implementing this interface can read its data from a matrix_data structure.">
<polygon fill="#ffffff" stroke="#000000" points="1712.5,-92 1712.5,-122 1876.5,-122 1876.5,-92 1712.5,-92"/>
<text text-anchor="start" x="1720.5" y="-110" font-family="Helvetica,sans-Serif" font-size="10.00" fill="#000000">gko::ReadableFromMatrixData</text>
<text text-anchor="middle" x="1794.5" y="-99" font-family="Helvetica,sans-Serif" font-size="10.00" fill="#000000">&lt; ValueType, IndexType &gt;</text>
</a>
</g>
</g>
<!-- Node33&#45;&gt;Node32 -->
<g id="edge40" class="edge">
<title>Node33&#45;&gt;Node32</title>
<path fill="none" stroke="#ffa500" stroke-dasharray="5,2" d="M1887.0407,-112.7681C1946.7912,-116.4924 2023.8297,-121.2943 2081.4002,-124.8827"/>
<polygon fill="#ffa500" stroke="#ffa500" points="1887.0499,-109.262 1876.8515,-112.133 1886.6144,-116.2484 1887.0499,-109.262"/>
<text text-anchor="middle" x="1979" y="-126" font-family="Helvetica,sans-Serif" font-size="10.00" fill="#000000"> &lt; ValueType, int32 &gt;</text>
</g>
<!-- Node34 -->
<g id="node30" class="node">
<title>Node34</title>
<g id="a_node30"><a xlink:href="classgko_1_1ReadableFromMatrixData.html" target="_top" xlink:title=" ">
<polygon fill="#ffffff" stroke="#000000" points="2081.5,-66 2081.5,-96 2245.5,-96 2245.5,-66 2081.5,-66"/>
<text text-anchor="start" x="2089.5" y="-84" font-family="Helvetica,sans-Serif" font-size="10.00" fill="#000000">gko::ReadableFromMatrixData</text>
<text text-anchor="middle" x="2163.5" y="-73" font-family="Helvetica,sans-Serif" font-size="10.00" fill="#000000">&lt; ValueType, int64 &gt;</text>
</a>
</g>
</g>
<!-- Node33&#45;&gt;Node34 -->
<g id="edge42" class="edge">
<title>Node33&#45;&gt;Node34</title>
<path fill="none" stroke="#ffa500" stroke-dasharray="5,2" d="M1886.6682,-99.1709C1891.8542,-98.7655 1896.9922,-98.3724 1902,-98 1962.0017,-93.5383 2029.7978,-89.1496 2081.3221,-85.9491"/>
<polygon fill="#ffa500" stroke="#ffa500" points="1886.35,-95.685 1876.6575,-99.9634 1886.9025,-102.6632 1886.35,-95.685"/>
<text text-anchor="middle" x="1979" y="-101" font-family="Helvetica,sans-Serif" font-size="10.00" fill="#000000"> &lt; ValueType, int64 &gt;</text>
</g>
<!-- Node34&#45;&gt;Node1 -->
<g id="edge41" class="edge">
<title>Node34&#45;&gt;Node1</title>
<path fill="none" stroke="#191970" d="M2244.5891,-100.5933C2247.5119,-102.2514 2250.329,-104.0497 2253,-106 2301.76,-141.604 2333.0983,-209.4196 2345.2645,-239.7165"/>
<polygon fill="#191970" stroke="#191970" points="2246.0489,-97.4096 2235.5446,-96.0278 2242.8945,-103.6586 2246.0489,-97.4096"/>
</g>
<!-- Node35 -->
<g id="node31" class="node">
<title>Node35</title>
<g id="a_node31"><a xlink:href="classgko_1_1EnableAbsoluteComputation.html" target="_top" xlink:title=" ">
<polygon fill="#ffffff" stroke="#000000" points="2074,-5.5 2074,-46.5 2253,-46.5 2253,-5.5 2074,-5.5"/>
<text text-anchor="start" x="2082" y="-34.5" font-family="Helvetica,sans-Serif" font-size="10.00" fill="#000000">gko::EnableAbsoluteComputation</text>
<text text-anchor="start" x="2082" y="-23.5" font-family="Helvetica,sans-Serif" font-size="10.00" fill="#000000">&lt; remove_complex&lt; Diagonal</text>
<text text-anchor="middle" x="2163.5" y="-12.5" font-family="Helvetica,sans-Serif" font-size="10.00" fill="#000000">&lt; ValueType &gt; &gt; &gt;</text>
</a>
</g>
</g>
<!-- Node35&#45;&gt;Node1 -->
<g id="edge43" class="edge">
<title>Node35&#45;&gt;Node1</title>
<path fill="none" stroke="#191970" d="M2246.8912,-52.1383C2249.014,-53.6688 2251.0569,-55.2877 2253,-57 2311.561,-108.6025 2338.9454,-203.2814 2347.7144,-239.9444"/>
<polygon fill="#191970" stroke="#191970" points="2248.6554,-49.1119 2238.3477,-46.6622 2244.878,-55.0052 2248.6554,-49.1119"/>
</g>
<!-- Node36 -->
<g id="node32" class="node">
<title>Node36</title>
<g id="a_node32"><a xlink:href="classgko_1_1AbsoluteComputable.html" target="_top" xlink:title="The AbsoluteComputable is an interface that allows to get the component wise absolute of a LinOp.">
<polygon fill="#ffffff" stroke="#000000" points="1339,-.5 1339,-19.5 1482,-19.5 1482,-.5 1339,-.5"/>
<text text-anchor="middle" x="1410.5" y="-7.5" font-family="Helvetica,sans-Serif" font-size="10.00" fill="#000000">gko::AbsoluteComputable</text>
</a>
</g>
</g>
<!-- Node36&#45;&gt;Node35 -->
<g id="edge44" class="edge">
<title>Node36&#45;&gt;Node35</title>
<path fill="none" stroke="#191970" d="M1492.3677,-8.8945C1586.7794,-7.9165 1746.6401,-7.1716 1884,-11 1947.5122,-12.7702 2019.0573,-16.645 2073.8623,-20.0128"/>
<polygon fill="#191970" stroke="#191970" points="1492.2743,-5.3952 1482.3123,-9.0022 1492.3493,-12.3948 1492.2743,-5.3952"/>
</g>
<!-- Node37 -->
<g id="node33" class="node">
<title>Node37</title>
<g id="a_node33"><a xlink:href="classgko_1_1EnableAbsoluteComputation.html" target="_top" xlink:title="The EnableAbsoluteComputation mixin provides the default implementations of compute_absolute_linop an...">
<polygon fill="#ffffff" stroke="#000000" points="1705,-21 1705,-51 1884,-51 1884,-21 1705,-21"/>
<text text-anchor="start" x="1713" y="-39" font-family="Helvetica,sans-Serif" font-size="10.00" fill="#000000">gko::EnableAbsoluteComputation</text>
<text text-anchor="middle" x="1794.5" y="-28" font-family="Helvetica,sans-Serif" font-size="10.00" fill="#000000">&lt; AbsoluteLinOp &gt;</text>
</a>
</g>
</g>
<!-- Node36&#45;&gt;Node37 -->
<g id="edge46" class="edge">
<title>Node36&#45;&gt;Node37</title>
<path fill="none" stroke="#191970" d="M1492.4692,-15.55C1554.8452,-19.7734 1640.6089,-25.5803 1704.8118,-29.9274"/>
<polygon fill="#191970" stroke="#191970" points="1492.4906,-12.0435 1482.277,-14.8599 1492.0177,-19.0275 1492.4906,-12.0435"/>
</g>
<!-- Node37&#45;&gt;Node35 -->
<g id="edge45" class="edge">
<title>Node37&#45;&gt;Node35</title>
<path fill="none" stroke="#ffa500" stroke-dasharray="5,2" d="M1894.5878,-33.2876C1950.5665,-31.7706 2019.7614,-29.8954 2073.9418,-28.4271"/>
<polygon fill="#ffa500" stroke="#ffa500" points="1894.1972,-29.7968 1884.2957,-33.5665 1894.3869,-36.7942 1894.1972,-29.7968"/>
<text text-anchor="start" x="1902" y="-48" font-family="Helvetica,sans-Serif" font-size="10.00" fill="#000000"> &lt; remove_complex&lt; Diagonal</text>
<text text-anchor="middle" x="1979" y="-37" font-family="Helvetica,sans-Serif" font-size="10.00" fill="#000000">&lt; ValueType &gt; &gt; &gt;</text>
</g>
</g>
</svg>
