<?xml version="1.0" encoding="UTF-8" standalone="no"?>
<!DOCTYPE svg PUBLIC "-//W3C//DTD SVG 1.1//EN"
 "http://www.w3.org/Graphics/SVG/1.1/DTD/svg11.dtd">
<!-- Generated by graphviz version 2.40.1 (20161225.0304)
 -->
<!-- Title: gko::solver::LowerTrs&lt; ValueType, IndexType &gt;::Factory Pages: 1 -->
<svg width="1849pt" height="196pt"
 viewBox="0.00 0.00 1849.00 195.86" xmlns="http://www.w3.org/2000/svg" xmlns:xlink="http://www.w3.org/1999/xlink">
<g id="graph0" class="graph" transform="scale(1 1) rotate(0) translate(4 191.862)">
<title>gko::solver::LowerTrs&lt; ValueType, IndexType &gt;::Factory</title>
<polygon fill="#ffffff" stroke="transparent" points="-4,4 -4,-191.862 1845,-191.862 1845,4 -4,4"/>
<!-- Node1 -->
<g id="node1" class="node">
<title>Node1</title>
<g id="a_node1"><a xlink:title=" ">
<polygon fill="#bfbfbf" stroke="#000000" points="1708,-68 1708,-109 1841,-109 1841,-68 1708,-68"/>
<text text-anchor="start" x="1716" y="-97" font-family="Helvetica,sans-Serif" font-size="10.00" fill="#000000">gko::solver::LowerTrs</text>
<text text-anchor="start" x="1716" y="-86" font-family="Helvetica,sans-Serif" font-size="10.00" fill="#000000">&lt; ValueType, IndexType</text>
<text text-anchor="middle" x="1774.5" y="-75" font-family="Helvetica,sans-Serif" font-size="10.00" fill="#000000"> &gt;::Factory</text>
</a>
</g>
</g>
<!-- Node2 -->
<g id="node2" class="node">
<title>Node2</title>
<g id="a_node2"><a xlink:href="classgko_1_1EnableDefaultFactory.html" target="_top" xlink:title="This mixin provides a default implementation of a concrete factory.">
<polygon fill="#ffffff" stroke="#000000" points="1459,-73.5 1459,-103.5 1671,-103.5 1671,-73.5 1459,-73.5"/>
<text text-anchor="start" x="1467" y="-91.5" font-family="Helvetica,sans-Serif" font-size="10.00" fill="#000000">gko::EnableDefaultLinOpFactory</text>
<text text-anchor="middle" x="1565" y="-80.5" font-family="Helvetica,sans-Serif" font-size="10.00" fill="#000000">&lt; Factory, LowerTrs, parameters_type &gt;</text>
</a>
</g>
</g>
<!-- Node2&#45;&gt;Node1 -->
<g id="edge1" class="edge">
<title>Node2&#45;&gt;Node1</title>
<path fill="none" stroke="#191970" d="M1681.4831,-88.5C1690.485,-88.5 1699.3698,-88.5 1707.8671,-88.5"/>
<polygon fill="#191970" stroke="#191970" points="1681.2844,-85.0001 1671.2844,-88.5 1681.2843,-92.0001 1681.2844,-85.0001"/>
</g>
<!-- Node3 -->
<g id="node3" class="node">
<title>Node3</title>
<g id="a_node3"><a xlink:href="classgko_1_1EnablePolymorphicObject.html" target="_top" xlink:title=" ">
<polygon fill="#ffffff" stroke="#000000" points="1213,-98.5 1213,-128.5 1422,-128.5 1422,-98.5 1213,-98.5"/>
<text text-anchor="start" x="1221" y="-116.5" font-family="Helvetica,sans-Serif" font-size="10.00" fill="#000000">gko::EnablePolymorphicObject</text>
<text text-anchor="middle" x="1317.5" y="-105.5" font-family="Helvetica,sans-Serif" font-size="10.00" fill="#000000">&lt; ConcreteFactory, PolymorphicBase &gt;</text>
</a>
</g>
</g>
<!-- Node3&#45;&gt;Node2 -->
<g id="edge2" class="edge">
<title>Node3&#45;&gt;Node2</title>
<path fill="none" stroke="#191970" d="M1432.1068,-101.9236C1440.9994,-101.0253 1449.9553,-100.1207 1458.7894,-99.2283"/>
<polygon fill="#191970" stroke="#191970" points="1431.7011,-98.4466 1422.1035,-102.934 1432.4047,-105.4112 1431.7011,-98.4466"/>
</g>
<!-- Node4 -->
<g id="node4" class="node">
<title>Node4</title>
<g id="a_node4"><a xlink:href="classgko_1_1EnableAbstractPolymorphicObject.html" target="_top" xlink:title=" ">
<polygon fill="#ffffff" stroke="#000000" points="538,-143 538,-184 713,-184 713,-143 538,-143"/>
<text text-anchor="start" x="546" y="-172" font-family="Helvetica,sans-Serif" font-size="10.00" fill="#000000">gko::EnableAbstractPolymorphic</text>
<text text-anchor="start" x="546" y="-161" font-family="Helvetica,sans-Serif" font-size="10.00" fill="#000000">Object&lt; ConcreteFactory,</text>
<text text-anchor="middle" x="625.5" y="-150" font-family="Helvetica,sans-Serif" font-size="10.00" fill="#000000"> PolymorphicBase &gt;</text>
</a>
</g>
</g>
<!-- Node4&#45;&gt;Node3 -->
<g id="edge3" class="edge">
<title>Node4&#45;&gt;Node3</title>
<path fill="none" stroke="#191970" d="M723.2802,-164.3254C837.0568,-164.1431 1030.364,-160.2926 1195,-139.5 1215.1677,-136.9529 1236.9446,-132.7981 1256.4649,-128.5497"/>
<polygon fill="#191970" stroke="#191970" points="723.1964,-160.8254 713.1988,-164.3323 723.2013,-167.8254 723.1964,-160.8254"/>
</g>
<!-- Node5 -->
<g id="node5" class="node">
<title>Node5</title>
<g id="a_node5"><a xlink:title=" ">
<polygon fill="#ffffff" stroke="#bfbfbf" points="0,-125 0,-144 101,-144 101,-125 0,-125"/>
<text text-anchor="middle" x="50.5" y="-132" font-family="Helvetica,sans-Serif" font-size="10.00" fill="#000000">PolymorphicBase</text>
</a>
</g>
</g>
<!-- Node5&#45;&gt;Node4 -->
<g id="edge4" class="edge">
<title>Node5&#45;&gt;Node4</title>
<path fill="none" stroke="#191970" d="M82.6562,-147.809C98.9542,-153.9634 119.2242,-160.7307 138,-164.5 298.9076,-196.8027 343.2071,-188.8254 507,-178.5 517.0376,-177.8672 527.5251,-176.9358 537.9318,-175.8417"/>
<polygon fill="#191970" stroke="#191970" points="83.6594,-144.444 73.0705,-144.0885 81.1266,-150.9698 83.6594,-144.444"/>
</g>
<!-- Node6 -->
<g id="node6" class="node">
<title>Node6</title>
<g id="a_node6"><a xlink:href="classgko_1_1EnableAbstractPolymorphicObject.html" target="_top" xlink:title="This mixin inherits from (a subclass of) PolymorphicObject and provides a base implementation of a ne...">
<polygon fill="#ffffff" stroke="#000000" points="138,-114 138,-155 332,-155 332,-114 138,-114"/>
<text text-anchor="start" x="146" y="-143" font-family="Helvetica,sans-Serif" font-size="10.00" fill="#000000">gko::EnableAbstractPolymorphic</text>
<text text-anchor="start" x="146" y="-132" font-family="Helvetica,sans-Serif" font-size="10.00" fill="#000000">Object&lt; AbstactObject, Polymorphic</text>
<text text-anchor="middle" x="235" y="-121" font-family="Helvetica,sans-Serif" font-size="10.00" fill="#000000">Base &gt;</text>
</a>
</g>
</g>
<!-- Node5&#45;&gt;Node6 -->
<g id="edge6" class="edge">
<title>Node5&#45;&gt;Node6</title>
<path fill="none" stroke="#191970" d="M111.545,-134.5C120.0403,-134.5 128.9358,-134.5 137.8925,-134.5"/>
<polygon fill="#191970" stroke="#191970" points="111.4039,-131.0001 101.4038,-134.5 111.4038,-138.0001 111.4039,-131.0001"/>
</g>
<!-- Node8 -->
<g id="node8" class="node">
<title>Node8</title>
<g id="a_node8"><a xlink:href="classgko_1_1EnableAbstractPolymorphicObject.html" target="_top" xlink:title=" ">
<polygon fill="#ffffff" stroke="#000000" points="525,-83 525,-124 726,-124 726,-83 525,-83"/>
<text text-anchor="start" x="533" y="-112" font-family="Helvetica,sans-Serif" font-size="10.00" fill="#000000">gko::EnableAbstractPolymorphic</text>
<text text-anchor="start" x="533" y="-101" font-family="Helvetica,sans-Serif" font-size="10.00" fill="#000000">Object&lt; ConcreteObject, Polymorphic</text>
<text text-anchor="middle" x="625.5" y="-90" font-family="Helvetica,sans-Serif" font-size="10.00" fill="#000000">Base &gt;</text>
</a>
</g>
</g>
<!-- Node5&#45;&gt;Node8 -->
<g id="edge9" class="edge">
<title>Node5&#45;&gt;Node8</title>
<path fill="none" stroke="#191970" d="M81.9021,-121.0342C98.2932,-114.7036 118.8709,-107.8275 138,-104.5 299.5791,-76.3938 343.0004,-100.1161 507,-101.5 512.8639,-101.5495 518.8909,-101.6127 524.9719,-101.6861"/>
<polygon fill="#191970" stroke="#191970" points="80.2796,-117.9131 72.2877,-124.8688 82.8729,-124.4151 80.2796,-117.9131"/>
</g>
<!-- Node6&#45;&gt;Node4 -->
<g id="edge5" class="edge">
<title>Node6&#45;&gt;Node4</title>
<path fill="none" stroke="#ffa500" stroke-dasharray="5,2" d="M342.1667,-142.4586C403.7194,-147.0297 480.0484,-152.6982 537.9691,-156.9996"/>
<polygon fill="#ffa500" stroke="#ffa500" points="342.2616,-138.9561 332.0298,-141.7058 341.7431,-145.9369 342.2616,-138.9561"/>
<text text-anchor="start" x="378.5" y="-167.5" font-family="Helvetica,sans-Serif" font-size="10.00" fill="#000000"> &lt; ConcreteFactory,</text>
<text text-anchor="middle" x="428.5" y="-156.5" font-family="Helvetica,sans-Serif" font-size="10.00" fill="#000000"> PolymorphicBase &gt;</text>
</g>
<!-- Node6&#45;&gt;Node8 -->
<g id="edge10" class="edge">
<title>Node6&#45;&gt;Node8</title>
<path fill="none" stroke="#ffa500" stroke-dasharray="5,2" d="M342.2679,-117.3303C344.8687,-117.0366 347.4492,-116.759 350,-116.5 407.7611,-110.6341 472.6095,-107.4085 524.8742,-105.638"/>
<polygon fill="#ffa500" stroke="#ffa500" points="341.6689,-113.8768 332.1542,-118.5373 342.4985,-120.8275 341.6689,-113.8768"/>
<text text-anchor="start" x="350" y="-130.5" font-family="Helvetica,sans-Serif" font-size="10.00" fill="#000000"> &lt; ConcreteObject, Polymorphic</text>
<text text-anchor="middle" x="428.5" y="-119.5" font-family="Helvetica,sans-Serif" font-size="10.00" fill="#000000">Base &gt;</text>
</g>
<!-- Node7 -->
<g id="node7" class="node">
<title>Node7</title>
<g id="a_node7"><a xlink:href="classgko_1_1EnablePolymorphicObject.html" target="_top" xlink:title="This mixin inherits from (a subclass of) PolymorphicObject and provides a base implementation of a ne...">
<polygon fill="#ffffff" stroke="#000000" points="867,-98.5 867,-128.5 1072,-128.5 1072,-98.5 867,-98.5"/>
<text text-anchor="start" x="875" y="-116.5" font-family="Helvetica,sans-Serif" font-size="10.00" fill="#000000">gko::EnablePolymorphicObject</text>
<text text-anchor="middle" x="969.5" y="-105.5" font-family="Helvetica,sans-Serif" font-size="10.00" fill="#000000">&lt; ConcreteObject, PolymorphicBase &gt;</text>
</a>
</g>
</g>
<!-- Node7&#45;&gt;Node3 -->
<g id="edge7" class="edge">
<title>Node7&#45;&gt;Node3</title>
<path fill="none" stroke="#ffa500" stroke-dasharray="5,2" d="M1082.0353,-113.5C1124.1057,-113.5 1171.6768,-113.5 1212.9927,-113.5"/>
<polygon fill="#ffa500" stroke="#ffa500" points="1082.0293,-110.0001 1072.0293,-113.5 1082.0292,-117.0001 1082.0293,-110.0001"/>
<text text-anchor="start" x="1092.5" y="-127.5" font-family="Helvetica,sans-Serif" font-size="10.00" fill="#000000"> &lt; ConcreteFactory,</text>
<text text-anchor="middle" x="1142.5" y="-116.5" font-family="Helvetica,sans-Serif" font-size="10.00" fill="#000000"> PolymorphicBase &gt;</text>
</g>
<!-- Node8&#45;&gt;Node7 -->
<g id="edge8" class="edge">
<title>Node8&#45;&gt;Node7</title>
<path fill="none" stroke="#191970" d="M736.6155,-106.7301C778.4481,-107.9462 825.7976,-109.3226 866.8265,-110.5153"/>
<polygon fill="#191970" stroke="#191970" points="736.4845,-103.2249 726.387,-106.4328 736.281,-110.222 736.4845,-103.2249"/>
</g>
<!-- Node9 -->
<g id="node9" class="node">
<title>Node9</title>
<g id="a_node9"><a xlink:href="classgko_1_1EnablePolymorphicAssignment.html" target="_top" xlink:title=" ">
<polygon fill="#ffffff" stroke="#000000" points="1221.5,-49.5 1221.5,-79.5 1413.5,-79.5 1413.5,-49.5 1221.5,-49.5"/>
<text text-anchor="start" x="1229.5" y="-67.5" font-family="Helvetica,sans-Serif" font-size="10.00" fill="#000000">gko::EnablePolymorphicAssignment</text>
<text text-anchor="middle" x="1317.5" y="-56.5" font-family="Helvetica,sans-Serif" font-size="10.00" fill="#000000">&lt; ConcreteFactory &gt;</text>
</a>
</g>
</g>
<!-- Node9&#45;&gt;Node2 -->
<g id="edge11" class="edge">
<title>Node9&#45;&gt;Node2</title>
<path fill="none" stroke="#191970" d="M1423.6864,-74.7969C1435.3012,-75.9231 1447.1267,-77.0699 1458.7424,-78.1962"/>
<polygon fill="#191970" stroke="#191970" points="1423.8354,-71.295 1413.5442,-73.8134 1423.1597,-78.2623 1423.8354,-71.295"/>
</g>
<!-- Node10 -->
<g id="node10" class="node">
<title>Node10</title>
<g id="a_node10"><a xlink:href="classgko_1_1ConvertibleTo.html" target="_top" xlink:title=" ">
<polygon fill="#ffffff" stroke="#000000" points="910.5,-49.5 910.5,-79.5 1028.5,-79.5 1028.5,-49.5 910.5,-49.5"/>
<text text-anchor="start" x="918.5" y="-67.5" font-family="Helvetica,sans-Serif" font-size="10.00" fill="#000000">gko::ConvertibleTo</text>
<text text-anchor="middle" x="969.5" y="-56.5" font-family="Helvetica,sans-Serif" font-size="10.00" fill="#000000">&lt; ConcreteFactory &gt;</text>
</a>
</g>
</g>
<!-- Node10&#45;&gt;Node9 -->
<g id="edge12" class="edge">
<title>Node10&#45;&gt;Node9</title>
<path fill="none" stroke="#191970" d="M1038.712,-64.5C1090.9969,-64.5 1163.3976,-64.5 1221.3133,-64.5"/>
<polygon fill="#191970" stroke="#191970" points="1038.5335,-61.0001 1028.5335,-64.5 1038.5334,-68.0001 1038.5335,-61.0001"/>
</g>
<!-- Node11 -->
<g id="node11" class="node">
<title>Node11</title>
<g id="a_node11"><a xlink:href="classgko_1_1ConvertibleTo.html" target="_top" xlink:title="ConvertibleTo interface is used to mark that the implementer can be converted to the object of Result...">
<polygon fill="#ffffff" stroke="#000000" points="572,-24.5 572,-54.5 679,-54.5 679,-24.5 572,-24.5"/>
<text text-anchor="start" x="580" y="-42.5" font-family="Helvetica,sans-Serif" font-size="10.00" fill="#000000">gko::ConvertibleTo</text>
<text text-anchor="middle" x="625.5" y="-31.5" font-family="Helvetica,sans-Serif" font-size="10.00" fill="#000000">&lt; ResultType &gt;</text>
</a>
</g>
</g>
<!-- Node11&#45;&gt;Node10 -->
<g id="edge13" class="edge">
<title>Node11&#45;&gt;Node10</title>
<path fill="none" stroke="#ffa500" stroke-dasharray="5,2" d="M689.5029,-44.1514C752.7866,-48.7505 848.8289,-55.7303 910.3643,-60.2023"/>
<polygon fill="#ffa500" stroke="#ffa500" points="689.4774,-40.6404 679.25,-43.4063 688.97,-47.622 689.4774,-40.6404"/>
<text text-anchor="middle" x="796.5" y="-59.5" font-family="Helvetica,sans-Serif" font-size="10.00" fill="#000000"> &lt; ConcreteFactory &gt;</text>
</g>
<!-- Node12 -->
<g id="node12" class="node">
<title>Node12</title>
<g id="a_node12"><a xlink:href="classgko_1_1EnablePolymorphicAssignment.html" target="_top" xlink:title="This mixin is used to enable a default PolymorphicObject::copy_from() implementation for objects that...">
<polygon fill="#ffffff" stroke="#000000" points="873.5,-.5 873.5,-30.5 1065.5,-30.5 1065.5,-.5 873.5,-.5"/>
<text text-anchor="start" x="881.5" y="-18.5" font-family="Helvetica,sans-Serif" font-size="10.00" fill="#000000">gko::EnablePolymorphicAssignment</text>
<text text-anchor="middle" x="969.5" y="-7.5" font-family="Helvetica,sans-Serif" font-size="10.00" fill="#000000">&lt; ConcreteType, ResultType &gt;</text>
</a>
</g>
</g>
<!-- Node11&#45;&gt;Node12 -->
<g id="edge15" class="edge">
<title>Node11&#45;&gt;Node12</title>
<path fill="none" stroke="#191970" d="M689.2719,-35.0508C740.8964,-31.4491 814.4304,-26.3188 873.2194,-22.2173"/>
<polygon fill="#191970" stroke="#191970" points="688.9821,-31.5624 679.25,-35.75 689.4694,-38.5454 688.9821,-31.5624"/>
</g>
<!-- Node12&#45;&gt;Node9 -->
<g id="edge14" class="edge">
<title>Node12&#45;&gt;Node9</title>
<path fill="none" stroke="#ffa500" stroke-dasharray="5,2" d="M1075.6145,-30.4414C1122.0928,-36.9858 1176.235,-44.6092 1221.498,-50.9825"/>
<polygon fill="#ffa500" stroke="#ffa500" points="1075.9041,-26.9477 1065.5137,-29.0192 1074.928,-33.8794 1075.9041,-26.9477"/>
<text text-anchor="middle" x="1142.5" y="-49.5" font-family="Helvetica,sans-Serif" font-size="10.00" fill="#000000"> &lt; ConcreteFactory &gt;</text>
</g>
</g>
</svg>
