<?xml version="1.0" encoding="UTF-8" standalone="no"?>
<!DOCTYPE svg PUBLIC "-//W3C//DTD SVG 1.1//EN"
 "http://www.w3.org/Graphics/SVG/1.1/DTD/svg11.dtd">
<!-- Generated by graphviz version 2.40.1 (20161225.0304)
 -->
<!-- Title: gko::preconditioner::Ic&lt; LSolverType, IndexType &gt; Pages: 1 -->
<svg width="2181pt" height="347pt"
 viewBox="0.00 0.00 2181.00 347.00" xmlns="http://www.w3.org/2000/svg" xmlns:xlink="http://www.w3.org/1999/xlink">
<g id="graph0" class="graph" transform="scale(1 1) rotate(0) translate(4 343)">
<title>gko::preconditioner::Ic&lt; LSolverType, IndexType &gt;</title>
<polygon fill="#ffffff" stroke="transparent" points="-4,4 -4,-343 2177,-343 2177,4 -4,4"/>
<!-- Node1 -->
<g id="node1" class="node">
<title>Node1</title>
<g id="a_node1"><a xlink:title="The Incomplete Cholesky (IC) preconditioner solves the equation &#160;for a given lower triangular matrix ...">
<polygon fill="#bfbfbf" stroke="#000000" points="2006,-85.5 2006,-115.5 2173,-115.5 2173,-85.5 2006,-85.5"/>
<text text-anchor="start" x="2014" y="-103.5" font-family="Helvetica,sans-Serif" font-size="10.00" fill="#000000">gko::preconditioner</text>
<text text-anchor="middle" x="2089.5" y="-92.5" font-family="Helvetica,sans-Serif" font-size="10.00" fill="#000000">::Ic&lt; LSolverType, IndexType &gt;</text>
</a>
</g>
</g>
<!-- Node2 -->
<g id="node2" class="node">
<title>Node2</title>
<g id="a_node2"><a xlink:href="classgko_1_1EnableLinOp.html" target="_top" xlink:title=" ">
<polygon fill="#ffffff" stroke="#000000" points="1805,-117.5 1805,-147.5 1969,-147.5 1969,-117.5 1805,-117.5"/>
<text text-anchor="start" x="1813" y="-135.5" font-family="Helvetica,sans-Serif" font-size="10.00" fill="#000000">gko::EnableLinOp&lt; Ic</text>
<text text-anchor="middle" x="1887" y="-124.5" font-family="Helvetica,sans-Serif" font-size="10.00" fill="#000000">&lt; LSolverType, IndexType &gt; &gt;</text>
</a>
</g>
</g>
<!-- Node2&#45;&gt;Node1 -->
<g id="edge1" class="edge">
<title>Node2&#45;&gt;Node1</title>
<path fill="none" stroke="#191970" d="M1979.1262,-117.9418C1988.0803,-116.5268 1997.1304,-115.0967 2005.9932,-113.6961"/>
<polygon fill="#191970" stroke="#191970" points="1978.4037,-114.5124 1969.0726,-119.5305 1979.4963,-121.4266 1978.4037,-114.5124"/>
</g>
<!-- Node3 -->
<g id="node3" class="node">
<title>Node3</title>
<g id="a_node3"><a xlink:href="classgko_1_1EnablePolymorphicObject.html" target="_top" xlink:title=" ">
<polygon fill="#ffffff" stroke="#000000" points="1507,-207 1507,-248 1673,-248 1673,-207 1507,-207"/>
<text text-anchor="start" x="1515" y="-236" font-family="Helvetica,sans-Serif" font-size="10.00" fill="#000000">gko::EnablePolymorphicObject</text>
<text text-anchor="start" x="1515" y="-225" font-family="Helvetica,sans-Serif" font-size="10.00" fill="#000000">&lt; Ic&lt; LSolverType, IndexType</text>
<text text-anchor="middle" x="1590" y="-214" font-family="Helvetica,sans-Serif" font-size="10.00" fill="#000000"> &gt;, LinOp &gt;</text>
</a>
</g>
</g>
<!-- Node3&#45;&gt;Node2 -->
<g id="edge2" class="edge">
<title>Node3&#45;&gt;Node2</title>
<path fill="none" stroke="#191970" d="M1664.1417,-203.7846C1719.1317,-186.1952 1792.4568,-162.7411 1839.7061,-147.6277"/>
<polygon fill="#191970" stroke="#191970" points="1662.9029,-200.5061 1654.4446,-206.8864 1665.0355,-207.1734 1662.9029,-200.5061"/>
</g>
<!-- Node4 -->
<g id="node4" class="node">
<title>Node4</title>
<g id="a_node4"><a xlink:href="classgko_1_1EnableAbstractPolymorphicObject.html" target="_top" xlink:title=" ">
<polygon fill="#ffffff" stroke="#000000" points="1282,-268 1282,-309 1457,-309 1457,-268 1282,-268"/>
<text text-anchor="start" x="1290" y="-297" font-family="Helvetica,sans-Serif" font-size="10.00" fill="#000000">gko::EnableAbstractPolymorphic</text>
<text text-anchor="start" x="1290" y="-286" font-family="Helvetica,sans-Serif" font-size="10.00" fill="#000000">Object&lt; Ic&lt; LSolverType,</text>
<text text-anchor="middle" x="1369.5" y="-275" font-family="Helvetica,sans-Serif" font-size="10.00" fill="#000000"> IndexType &gt;, LinOp &gt;</text>
</a>
</g>
</g>
<!-- Node4&#45;&gt;Node3 -->
<g id="edge3" class="edge">
<title>Node4&#45;&gt;Node3</title>
<path fill="none" stroke="#191970" d="M1453.729,-265.1985C1474.098,-259.5636 1495.7236,-253.581 1515.6039,-248.0812"/>
<polygon fill="#191970" stroke="#191970" points="1452.5486,-261.8936 1443.8438,-267.9332 1454.4151,-268.6402 1452.5486,-261.8936"/>
</g>
<!-- Node5 -->
<g id="node5" class="node">
<title>Node5</title>
<g id="a_node5"><a xlink:href="classgko_1_1LinOp.html" target="_top" xlink:title=" ">
<polygon fill="#ffffff" stroke="#000000" points="943.5,-311 943.5,-330 1011.5,-330 1011.5,-311 943.5,-311"/>
<text text-anchor="middle" x="977.5" y="-318" font-family="Helvetica,sans-Serif" font-size="10.00" fill="#000000">gko::LinOp</text>
</a>
</g>
</g>
<!-- Node5&#45;&gt;Node4 -->
<g id="edge4" class="edge">
<title>Node5&#45;&gt;Node4</title>
<path fill="none" stroke="#191970" d="M1021.5774,-316.9018C1084.3955,-311.7738 1200.9999,-302.2551 1281.805,-295.6588"/>
<polygon fill="#191970" stroke="#191970" points="1021.2837,-313.4141 1011.6017,-317.7162 1021.8533,-320.3909 1021.2837,-313.4141"/>
</g>
<!-- Node6 -->
<g id="node6" class="node">
<title>Node6</title>
<g id="a_node6"><a xlink:href="classgko_1_1EnableAbstractPolymorphicObject.html" target="_top" xlink:title=" ">
<polygon fill="#ffffff" stroke="#ff0000" points="542,-308.5 542,-338.5 717,-338.5 717,-308.5 542,-308.5"/>
<text text-anchor="start" x="550" y="-326.5" font-family="Helvetica,sans-Serif" font-size="10.00" fill="#000000">gko::EnableAbstractPolymorphic</text>
<text text-anchor="middle" x="629.5" y="-315.5" font-family="Helvetica,sans-Serif" font-size="10.00" fill="#000000">Object&lt; LinOp &gt;</text>
</a>
</g>
</g>
<!-- Node6&#45;&gt;Node5 -->
<g id="edge5" class="edge">
<title>Node6&#45;&gt;Node5</title>
<path fill="none" stroke="#191970" d="M727.3507,-322.6565C799.5462,-322.0341 893.53,-321.2239 943.2199,-320.7955"/>
<polygon fill="#191970" stroke="#191970" points="727.2845,-319.1568 717.3151,-322.743 727.3449,-326.1565 727.2845,-319.1568"/>
</g>
<!-- Node11 -->
<g id="node7" class="node">
<title>Node11</title>
<g id="a_node7"><a xlink:href="classgko_1_1EnableAbstractPolymorphicObject.html" target="_top" xlink:title="This mixin inherits from (a subclass of) PolymorphicObject and provides a base implementation of a ne...">
<polygon fill="#ffffff" stroke="#000000" points="138,-222 138,-263 336,-263 336,-222 138,-222"/>
<text text-anchor="start" x="146" y="-251" font-family="Helvetica,sans-Serif" font-size="10.00" fill="#000000">gko::EnableAbstractPolymorphic</text>
<text text-anchor="start" x="146" y="-240" font-family="Helvetica,sans-Serif" font-size="10.00" fill="#000000">Object&lt; AbstractObject, Polymorphic</text>
<text text-anchor="middle" x="237" y="-229" font-family="Helvetica,sans-Serif" font-size="10.00" fill="#000000">Base &gt;</text>
</a>
</g>
</g>
<!-- Node11&#45;&gt;Node4 -->
<g id="edge8" class="edge">
<title>Node11&#45;&gt;Node4</title>
<path fill="none" stroke="#ffa500" stroke-dasharray="5,2" d="M346.2589,-260.7168C348.8621,-260.9978 351.4454,-261.2597 354,-261.5 696.1797,-293.6856 1105.8578,-292.5156 1281.9872,-290.122"/>
<polygon fill="#ffa500" stroke="#ffa500" points="346.4748,-257.2185 336.1385,-259.5447 345.6694,-264.172 346.4748,-257.2185"/>
<text text-anchor="start" x="748" y="-301.5" font-family="Helvetica,sans-Serif" font-size="10.00" fill="#000000"> &lt; Ic&lt; LSolverType,</text>
<text text-anchor="middle" x="802.5" y="-290.5" font-family="Helvetica,sans-Serif" font-size="10.00" fill="#000000"> IndexType &gt;, LinOp &gt;</text>
</g>
<!-- Node11&#45;&gt;Node6 -->
<g id="edge6" class="edge">
<title>Node11&#45;&gt;Node6</title>
<path fill="none" stroke="#ffa500" stroke-dasharray="5,2" d="M285.1891,-267.4291C305.8616,-277.0801 330.6008,-287.2812 354,-293.5 415.4942,-309.8433 486.977,-317.307 541.7169,-320.7038"/>
<polygon fill="#ffa500" stroke="#ffa500" points="286.5297,-264.1909 275.9965,-263.0498 283.5191,-270.5104 286.5297,-264.1909"/>
<text text-anchor="middle" x="432.5" y="-320.5" font-family="Helvetica,sans-Serif" font-size="10.00" fill="#000000"> &lt; LinOp &gt;</text>
</g>
<!-- Node14 -->
<g id="node10" class="node">
<title>Node14</title>
<g id="a_node10"><a xlink:href="classgko_1_1EnableAbstractPolymorphicObject.html" target="_top" xlink:title=" ">
<polygon fill="#ffffff" stroke="#000000" points="529,-202 529,-243 730,-243 730,-202 529,-202"/>
<text text-anchor="start" x="537" y="-231" font-family="Helvetica,sans-Serif" font-size="10.00" fill="#000000">gko::EnableAbstractPolymorphic</text>
<text text-anchor="start" x="537" y="-220" font-family="Helvetica,sans-Serif" font-size="10.00" fill="#000000">Object&lt; ConcreteObject, Polymorphic</text>
<text text-anchor="middle" x="629.5" y="-209" font-family="Helvetica,sans-Serif" font-size="10.00" fill="#000000">Base &gt;</text>
</a>
</g>
</g>
<!-- Node11&#45;&gt;Node14 -->
<g id="edge12" class="edge">
<title>Node11&#45;&gt;Node14</title>
<path fill="none" stroke="#ffa500" stroke-dasharray="5,2" d="M346.2032,-236.9355C403.3756,-234.0223 472.9091,-230.4792 528.78,-227.6322"/>
<polygon fill="#ffa500" stroke="#ffa500" points="345.8532,-233.4487 336.0443,-237.4532 346.2095,-240.4396 345.8532,-233.4487"/>
<text text-anchor="start" x="354" y="-249.5" font-family="Helvetica,sans-Serif" font-size="10.00" fill="#000000"> &lt; ConcreteObject, Polymorphic</text>
<text text-anchor="middle" x="432.5" y="-238.5" font-family="Helvetica,sans-Serif" font-size="10.00" fill="#000000">Base &gt;</text>
</g>
<!-- Node21 -->
<g id="node17" class="node">
<title>Node21</title>
<g id="a_node17"><a xlink:href="classgko_1_1EnableAbstractPolymorphicObject.html" target="_top" xlink:title=" ">
<polygon fill="#ffffff" stroke="#000000" points="531,-137 531,-178 728,-178 728,-137 531,-137"/>
<text text-anchor="start" x="539" y="-166" font-family="Helvetica,sans-Serif" font-size="10.00" fill="#000000">gko::EnableAbstractPolymorphic</text>
<text text-anchor="start" x="539" y="-155" font-family="Helvetica,sans-Serif" font-size="10.00" fill="#000000">Object&lt; ConcreteLinOp, Polymorphic</text>
<text text-anchor="middle" x="629.5" y="-144" font-family="Helvetica,sans-Serif" font-size="10.00" fill="#000000">Base &gt;</text>
</a>
</g>
</g>
<!-- Node11&#45;&gt;Node21 -->
<g id="edge22" class="edge">
<title>Node11&#45;&gt;Node21</title>
<path fill="none" stroke="#ffa500" stroke-dasharray="5,2" d="M300.7821,-218.5351C317.8948,-212.7012 336.5069,-206.8861 354,-202.5 411.9381,-187.9731 477.9462,-177.0035 530.8243,-169.5331"/>
<polygon fill="#ffa500" stroke="#ffa500" points="299.2011,-215.3788 290.8994,-221.9615 301.4942,-221.9926 299.2011,-215.3788"/>
<text text-anchor="start" x="356" y="-216.5" font-family="Helvetica,sans-Serif" font-size="10.00" fill="#000000"> &lt; ConcreteLinOp, Polymorphic</text>
<text text-anchor="middle" x="432.5" y="-205.5" font-family="Helvetica,sans-Serif" font-size="10.00" fill="#000000">Base &gt;</text>
</g>
<!-- Node12 -->
<g id="node8" class="node">
<title>Node12</title>
<g id="a_node8"><a xlink:title=" ">
<polygon fill="#ffffff" stroke="#bfbfbf" points="0,-155 0,-174 101,-174 101,-155 0,-155"/>
<text text-anchor="middle" x="50.5" y="-162" font-family="Helvetica,sans-Serif" font-size="10.00" fill="#000000">PolymorphicBase</text>
</a>
</g>
</g>
<!-- Node12&#45;&gt;Node11 -->
<g id="edge7" class="edge">
<title>Node12&#45;&gt;Node11</title>
<path fill="none" stroke="#191970" d="M82.5985,-177.9246C111.5007,-190.0123 154.4214,-207.9631 187.6791,-221.8725"/>
<polygon fill="#191970" stroke="#191970" points="83.9447,-174.6939 73.3686,-174.0643 81.2437,-181.1518 83.9447,-174.6939"/>
</g>
<!-- Node12&#45;&gt;Node14 -->
<g id="edge11" class="edge">
<title>Node12&#45;&gt;Node14</title>
<path fill="none" stroke="#191970" d="M111.4303,-158.1458C200.6787,-150.6665 371.4922,-143.3203 511,-178.5 519.6728,-180.687 520.7596,-184.022 529,-187.5 541.0003,-192.5649 554.013,-197.4946 566.5703,-201.9794"/>
<polygon fill="#191970" stroke="#191970" points="110.8796,-154.6804 101.2198,-159.0322 111.4851,-161.6542 110.8796,-154.6804"/>
</g>
<!-- Node12&#45;&gt;Node21 -->
<g id="edge21" class="edge">
<title>Node12&#45;&gt;Node21</title>
<path fill="none" stroke="#191970" d="M100.0089,-153.156C106.37,-152.0602 112.8183,-151.1252 119,-150.5 292.3378,-132.9679 336.8536,-145.3609 511,-150.5 517.4889,-150.6915 524.1751,-150.9418 530.9118,-151.2337"/>
<polygon fill="#191970" stroke="#191970" points="99.3286,-149.7224 90.1355,-154.9889 100.6063,-156.6048 99.3286,-149.7224"/>
</g>
<!-- Node13 -->
<g id="node9" class="node">
<title>Node13</title>
<g id="a_node9"><a xlink:href="classgko_1_1EnablePolymorphicObject.html" target="_top" xlink:title="This mixin inherits from (a subclass of) PolymorphicObject and provides a base implementation of a ne...">
<polygon fill="#ffffff" stroke="#000000" points="875,-207.5 875,-237.5 1080,-237.5 1080,-207.5 875,-207.5"/>
<text text-anchor="start" x="883" y="-225.5" font-family="Helvetica,sans-Serif" font-size="10.00" fill="#000000">gko::EnablePolymorphicObject</text>
<text text-anchor="middle" x="977.5" y="-214.5" font-family="Helvetica,sans-Serif" font-size="10.00" fill="#000000">&lt; ConcreteObject, PolymorphicBase &gt;</text>
</a>
</g>
</g>
<!-- Node13&#45;&gt;Node3 -->
<g id="edge9" class="edge">
<title>Node13&#45;&gt;Node3</title>
<path fill="none" stroke="#ffa500" stroke-dasharray="5,2" d="M1090.0199,-223.4185C1210.5539,-224.4025 1399.0176,-225.941 1506.8379,-226.8211"/>
<polygon fill="#ffa500" stroke="#ffa500" points="1090.047,-219.9187 1080.0187,-223.3369 1089.9898,-226.9185 1090.047,-219.9187"/>
<text text-anchor="start" x="1315" y="-240.5" font-family="Helvetica,sans-Serif" font-size="10.00" fill="#000000"> &lt; Ic&lt; LSolverType,</text>
<text text-anchor="middle" x="1369.5" y="-229.5" font-family="Helvetica,sans-Serif" font-size="10.00" fill="#000000"> IndexType &gt;, LinOp &gt;</text>
</g>
<!-- Node20 -->
<g id="node16" class="node">
<title>Node20</title>
<g id="a_node16"><a xlink:href="classgko_1_1EnablePolymorphicObject.html" target="_top" xlink:title=" ">
<polygon fill="#ffffff" stroke="#000000" points="1269,-147.5 1269,-177.5 1470,-177.5 1470,-147.5 1269,-147.5"/>
<text text-anchor="start" x="1277" y="-165.5" font-family="Helvetica,sans-Serif" font-size="10.00" fill="#000000">gko::EnablePolymorphicObject</text>
<text text-anchor="middle" x="1369.5" y="-154.5" font-family="Helvetica,sans-Serif" font-size="10.00" fill="#000000">&lt; ConcreteLinOp, PolymorphicBase &gt;</text>
</a>
</g>
</g>
<!-- Node13&#45;&gt;Node20 -->
<g id="edge23" class="edge">
<title>Node13&#45;&gt;Node20</title>
<path fill="none" stroke="#ffa500" stroke-dasharray="5,2" d="M1038.704,-204.9185C1057.5914,-199.9902 1078.5418,-195.0228 1098,-191.5 1154.0909,-181.345 1217.3916,-174.3315 1268.7528,-169.7488"/>
<polygon fill="#ffa500" stroke="#ffa500" points="1037.8019,-201.5367 1029.034,-207.4843 1039.5972,-208.3026 1037.8019,-201.5367"/>
<text text-anchor="start" x="1098" y="-205.5" font-family="Helvetica,sans-Serif" font-size="10.00" fill="#000000"> &lt; ConcreteLinOp, Polymorphic</text>
<text text-anchor="middle" x="1174.5" y="-194.5" font-family="Helvetica,sans-Serif" font-size="10.00" fill="#000000">Base &gt;</text>
</g>
<!-- Node14&#45;&gt;Node13 -->
<g id="edge10" class="edge">
<title>Node14&#45;&gt;Node13</title>
<path fill="none" stroke="#191970" d="M740.4081,-222.5C783.5422,-222.5 832.6593,-222.5 874.9579,-222.5"/>
<polygon fill="#191970" stroke="#191970" points="740.1561,-219.0001 730.156,-222.5 740.156,-226.0001 740.1561,-219.0001"/>
</g>
<!-- Node15 -->
<g id="node11" class="node">
<title>Node15</title>
<g id="a_node11"><a xlink:href="classgko_1_1EnablePolymorphicAssignment.html" target="_top" xlink:title=" ">
<polygon fill="#ffffff" stroke="#000000" points="1273.5,-33.5 1273.5,-63.5 1465.5,-63.5 1465.5,-33.5 1273.5,-33.5"/>
<text text-anchor="start" x="1281.5" y="-51.5" font-family="Helvetica,sans-Serif" font-size="10.00" fill="#000000">gko::EnablePolymorphicAssignment</text>
<text text-anchor="middle" x="1369.5" y="-40.5" font-family="Helvetica,sans-Serif" font-size="10.00" fill="#000000">&lt; Ic&lt; LSolverType, IndexType &gt; &gt;</text>
</a>
</g>
</g>
<!-- Node15&#45;&gt;Node2 -->
<g id="edge13" class="edge">
<title>Node15&#45;&gt;Node2</title>
<path fill="none" stroke="#191970" d="M1471.896,-65.1208C1569.433,-80.9529 1714.3934,-104.4827 1804.6655,-119.1356"/>
<polygon fill="#191970" stroke="#191970" points="1472.4502,-61.665 1462.0186,-63.5175 1471.3286,-68.5746 1472.4502,-61.665"/>
</g>
<!-- Node16 -->
<g id="node12" class="node">
<title>Node16</title>
<g id="a_node12"><a xlink:href="classgko_1_1ConvertibleTo.html" target="_top" xlink:title=" ">
<polygon fill="#ffffff" stroke="#000000" points="885.5,-.5 885.5,-30.5 1069.5,-30.5 1069.5,-.5 885.5,-.5"/>
<text text-anchor="start" x="893.5" y="-18.5" font-family="Helvetica,sans-Serif" font-size="10.00" fill="#000000">gko::ConvertibleTo</text>
<text text-anchor="middle" x="977.5" y="-7.5" font-family="Helvetica,sans-Serif" font-size="10.00" fill="#000000">&lt; Ic&lt; LSolverType, IndexType &gt; &gt;</text>
</a>
</g>
</g>
<!-- Node16&#45;&gt;Node15 -->
<g id="edge14" class="edge">
<title>Node16&#45;&gt;Node15</title>
<path fill="none" stroke="#191970" d="M1080.1112,-24.1382C1139.8432,-29.1666 1214.6772,-35.4664 1273.281,-40.3999"/>
<polygon fill="#191970" stroke="#191970" points="1080.1605,-20.63 1069.9021,-23.2788 1079.5733,-27.6054 1080.1605,-20.63"/>
</g>
<!-- Node17 -->
<g id="node13" class="node">
<title>Node17</title>
<g id="a_node13"><a xlink:href="classgko_1_1ConvertibleTo.html" target="_top" xlink:title="ConvertibleTo interface is used to mark that the implementer can be converted to the object of Result...">
<polygon fill="#ffffff" stroke="#000000" points="576,-49.5 576,-79.5 683,-79.5 683,-49.5 576,-49.5"/>
<text text-anchor="start" x="584" y="-67.5" font-family="Helvetica,sans-Serif" font-size="10.00" fill="#000000">gko::ConvertibleTo</text>
<text text-anchor="middle" x="629.5" y="-56.5" font-family="Helvetica,sans-Serif" font-size="10.00" fill="#000000">&lt; ResultType &gt;</text>
</a>
</g>
</g>
<!-- Node17&#45;&gt;Node16 -->
<g id="edge15" class="edge">
<title>Node17&#45;&gt;Node16</title>
<path fill="none" stroke="#ffa500" stroke-dasharray="5,2" d="M693.3957,-49.0573C711.0107,-45.1894 730.1777,-41.3384 748,-38.5 792.9824,-31.336 843.3014,-25.9975 885.3334,-22.2766"/>
<polygon fill="#ffa500" stroke="#ffa500" points="692.222,-45.7331 683.2255,-51.329 693.7481,-52.5647 692.222,-45.7331"/>
<text text-anchor="start" x="754.5" y="-52.5" font-family="Helvetica,sans-Serif" font-size="10.00" fill="#000000"> &lt; Ic&lt; LSolverType,</text>
<text text-anchor="middle" x="802.5" y="-41.5" font-family="Helvetica,sans-Serif" font-size="10.00" fill="#000000"> IndexType &gt; &gt;</text>
</g>
<!-- Node18 -->
<g id="node14" class="node">
<title>Node18</title>
<g id="a_node14"><a xlink:href="classgko_1_1EnablePolymorphicAssignment.html" target="_top" xlink:title="This mixin is used to enable a default PolymorphicObject::copy_from() implementation for objects that...">
<polygon fill="#ffffff" stroke="#000000" points="881.5,-49.5 881.5,-79.5 1073.5,-79.5 1073.5,-49.5 881.5,-49.5"/>
<text text-anchor="start" x="889.5" y="-67.5" font-family="Helvetica,sans-Serif" font-size="10.00" fill="#000000">gko::EnablePolymorphicAssignment</text>
<text text-anchor="middle" x="977.5" y="-56.5" font-family="Helvetica,sans-Serif" font-size="10.00" fill="#000000">&lt; ConcreteType, ResultType &gt;</text>
</a>
</g>
</g>
<!-- Node17&#45;&gt;Node18 -->
<g id="edge17" class="edge">
<title>Node17&#45;&gt;Node18</title>
<path fill="none" stroke="#191970" d="M693.3243,-64.5C745.9644,-64.5 821.4601,-64.5 881.4079,-64.5"/>
<polygon fill="#191970" stroke="#191970" points="693.1124,-61.0001 683.1123,-64.5 693.1123,-68.0001 693.1124,-61.0001"/>
</g>
<!-- Node23 -->
<g id="node19" class="node">
<title>Node23</title>
<g id="a_node19"><a xlink:href="classgko_1_1ConvertibleTo.html" target="_top" xlink:title=" ">
<polygon fill="#ffffff" stroke="#000000" points="922.5,-98.5 922.5,-128.5 1032.5,-128.5 1032.5,-98.5 922.5,-98.5"/>
<text text-anchor="start" x="930.5" y="-116.5" font-family="Helvetica,sans-Serif" font-size="10.00" fill="#000000">gko::ConvertibleTo</text>
<text text-anchor="middle" x="977.5" y="-105.5" font-family="Helvetica,sans-Serif" font-size="10.00" fill="#000000">&lt; ConcreteLinOp &gt;</text>
</a>
</g>
</g>
<!-- Node17&#45;&gt;Node23 -->
<g id="edge26" class="edge">
<title>Node17&#45;&gt;Node23</title>
<path fill="none" stroke="#ffa500" stroke-dasharray="5,2" d="M693.3302,-73.4876C758.9672,-82.7296 860.1344,-96.9744 922.3891,-105.7401"/>
<polygon fill="#ffa500" stroke="#ffa500" points="693.5027,-69.9774 683.1123,-72.0489 692.5266,-76.9091 693.5027,-69.9774"/>
<text text-anchor="middle" x="802.5" y="-99.5" font-family="Helvetica,sans-Serif" font-size="10.00" fill="#000000"> &lt; ConcreteLinOp &gt;</text>
</g>
<!-- Node18&#45;&gt;Node15 -->
<g id="edge16" class="edge">
<title>Node18&#45;&gt;Node15</title>
<path fill="none" stroke="#ffa500" stroke-dasharray="5,2" d="M1084.0898,-50.5365C1088.7861,-50.1407 1093.4389,-49.7912 1098,-49.5 1156.0943,-45.7907 1221.3231,-45.4275 1273.2824,-46.0453"/>
<polygon fill="#ffa500" stroke="#ffa500" points="1083.4017,-47.0844 1073.7583,-51.4722 1084.0332,-54.0559 1083.4017,-47.0844"/>
<text text-anchor="start" x="1126.5" y="-63.5" font-family="Helvetica,sans-Serif" font-size="10.00" fill="#000000"> &lt; Ic&lt; LSolverType,</text>
<text text-anchor="middle" x="1174.5" y="-52.5" font-family="Helvetica,sans-Serif" font-size="10.00" fill="#000000"> IndexType &gt; &gt;</text>
</g>
<!-- Node22 -->
<g id="node18" class="node">
<title>Node22</title>
<g id="a_node18"><a xlink:href="classgko_1_1EnablePolymorphicAssignment.html" target="_top" xlink:title=" ">
<polygon fill="#ffffff" stroke="#000000" points="1273.5,-98.5 1273.5,-128.5 1465.5,-128.5 1465.5,-98.5 1273.5,-98.5"/>
<text text-anchor="start" x="1281.5" y="-116.5" font-family="Helvetica,sans-Serif" font-size="10.00" fill="#000000">gko::EnablePolymorphicAssignment</text>
<text text-anchor="middle" x="1369.5" y="-105.5" font-family="Helvetica,sans-Serif" font-size="10.00" fill="#000000">&lt; ConcreteLinOp &gt;</text>
</a>
</g>
</g>
<!-- Node18&#45;&gt;Node22 -->
<g id="edge27" class="edge">
<title>Node18&#45;&gt;Node22</title>
<path fill="none" stroke="#ffa500" stroke-dasharray="5,2" d="M1083.6855,-77.6444C1134.3448,-83.9298 1195.8091,-91.5764 1251,-98.5 1258.3044,-99.4163 1265.8617,-100.367 1273.4614,-101.3248"/>
<polygon fill="#ffa500" stroke="#ffa500" points="1084.0575,-74.1639 1073.7027,-76.4062 1083.1958,-81.1106 1084.0575,-74.1639"/>
<text text-anchor="middle" x="1174.5" y="-101.5" font-family="Helvetica,sans-Serif" font-size="10.00" fill="#000000"> &lt; ConcreteLinOp &gt;</text>
</g>
<!-- Node19 -->
<g id="node15" class="node">
<title>Node19</title>
<g id="a_node15"><a xlink:href="classgko_1_1EnableLinOp.html" target="_top" xlink:title="The EnableLinOp mixin can be used to provide sensible default implementations of the majority of the ...">
<polygon fill="#ffffff" stroke="#000000" points="1512,-117.5 1512,-147.5 1668,-147.5 1668,-117.5 1512,-117.5"/>
<text text-anchor="start" x="1520" y="-135.5" font-family="Helvetica,sans-Serif" font-size="10.00" fill="#000000">gko::EnableLinOp&lt; Concrete</text>
<text text-anchor="middle" x="1590" y="-124.5" font-family="Helvetica,sans-Serif" font-size="10.00" fill="#000000">LinOp, PolymorphicBase &gt;</text>
</a>
</g>
</g>
<!-- Node19&#45;&gt;Node2 -->
<g id="edge18" class="edge">
<title>Node19&#45;&gt;Node2</title>
<path fill="none" stroke="#ffa500" stroke-dasharray="5,2" d="M1678.0733,-132.5C1718.2013,-132.5 1765.4266,-132.5 1804.8173,-132.5"/>
<polygon fill="#ffa500" stroke="#ffa500" points="1678.0333,-129.0001 1668.0333,-132.5 1678.0332,-136.0001 1678.0333,-129.0001"/>
<text text-anchor="start" x="1691" y="-146.5" font-family="Helvetica,sans-Serif" font-size="10.00" fill="#000000"> &lt; Ic&lt; LSolverType,</text>
<text text-anchor="middle" x="1739" y="-135.5" font-family="Helvetica,sans-Serif" font-size="10.00" fill="#000000"> IndexType &gt; &gt;</text>
</g>
<!-- Node20&#45;&gt;Node19 -->
<g id="edge19" class="edge">
<title>Node20&#45;&gt;Node19</title>
<path fill="none" stroke="#191970" d="M1480.2456,-147.4326C1490.8692,-145.9872 1501.4867,-144.5426 1511.7034,-143.1526"/>
<polygon fill="#191970" stroke="#191970" points="1479.508,-144.0006 1470.0711,-148.8169 1480.4517,-150.9367 1479.508,-144.0006"/>
</g>
<!-- Node21&#45;&gt;Node20 -->
<g id="edge20" class="edge">
<title>Node21&#45;&gt;Node20</title>
<path fill="none" stroke="#191970" d="M738.2501,-158.2348C881.1342,-159.2002 1130.1416,-160.8827 1268.8675,-161.8201"/>
<polygon fill="#191970" stroke="#191970" points="738.1722,-154.7343 728.1488,-158.1665 738.1249,-161.7341 738.1722,-154.7343"/>
</g>
<!-- Node22&#45;&gt;Node19 -->
<g id="edge24" class="edge">
<title>Node22&#45;&gt;Node19</title>
<path fill="none" stroke="#191970" d="M1475.7437,-122.6548C1487.8851,-123.701 1500.0914,-124.7528 1511.7726,-125.7593"/>
<polygon fill="#191970" stroke="#191970" points="1475.8367,-119.1499 1465.5731,-121.7784 1475.2356,-126.1241 1475.8367,-119.1499"/>
</g>
<!-- Node23&#45;&gt;Node22 -->
<g id="edge25" class="edge">
<title>Node23&#45;&gt;Node22</title>
<path fill="none" stroke="#191970" d="M1043.0239,-113.5C1105.9342,-113.5 1201.7021,-113.5 1273.2698,-113.5"/>
<polygon fill="#191970" stroke="#191970" points="1042.8327,-110.0001 1032.8326,-113.5 1042.8326,-117.0001 1042.8327,-110.0001"/>
</g>
<!-- Node24 -->
<g id="node20" class="node">
<title>Node24</title>
<g id="a_node20"><a xlink:href="classgko_1_1Transposable.html" target="_top" xlink:title="Linear operators which support transposition should implement the Transposable interface.">
<polygon fill="#ffffff" stroke="#000000" points="1835,-79 1835,-98 1939,-98 1939,-79 1835,-79"/>
<text text-anchor="middle" x="1887" y="-86" font-family="Helvetica,sans-Serif" font-size="10.00" fill="#000000">gko::Transposable</text>
</a>
</g>
</g>
<!-- Node24&#45;&gt;Node1 -->
<g id="edge28" class="edge">
<title>Node24&#45;&gt;Node1</title>
<path fill="none" stroke="#191970" d="M1949.3863,-92.197C1967.1791,-93.2514 1986.8597,-94.4176 2005.7081,-95.5346"/>
<polygon fill="#191970" stroke="#191970" points="1949.3383,-88.6881 1939.1488,-91.5903 1948.9242,-95.6758 1949.3383,-88.6881"/>
</g>
</g>
</svg>
