<?xml version="1.0" encoding="UTF-8" standalone="no"?>
<!DOCTYPE svg PUBLIC "-//W3C//DTD SVG 1.1//EN"
 "http://www.w3.org/Graphics/SVG/1.1/DTD/svg11.dtd">
<!-- Generated by graphviz version 2.40.1 (20161225.0304)
 -->
<!-- Title: gko::solver::LowerTrs&lt; ValueType, IndexType &gt; Pages: 1 -->
<!--zoomable 359 -->
<svg id="main" version="1.1" xmlns="http://www.w3.org/2000/svg" xmlns:xlink="http://www.w3.org/1999/xlink" xml:space="preserve" onload="init(evt)">
<style type="text/css"><![CDATA[
.edge:hover path { stroke: red; }
.edge:hover polygon { stroke: red; fill: red; }
]]></style>
<script type="text/javascript"><![CDATA[
var edges = document.getElementsByTagName('g');
if (edges && edges.length) {
  for (var i=0;i<edges.length;i++) {
    if (edges[i].id.substr(0,4)=='edge') {
      edges[i].setAttribute('class','edge');
    }
  }
}
]]></script>
        <defs>
                <circle id="rim" cx="0" cy="0" r="7"/>
                <circle id="rim2" cx="0" cy="0" r="3.5"/>
                <g id="zoomPlus">
                        <use xlink:href="#rim" fill="#404040">
                                <set attributeName="fill" to="#808080" begin="zoomplus.mouseover" end="zoomplus.mouseout"/>
                        </use>
                        <path d="M-4,0h8M0,-4v8" fill="none" stroke="white" stroke-width="1.5" pointer-events="none"/>
                </g>
                <g id="zoomMin">
                        <use xlink:href="#rim" fill="#404040">
                                <set attributeName="fill" to="#808080" begin="zoomminus.mouseover" end="zoomminus.mouseout"/>
                        </use>
                        <path d="M-4,0h8" fill="none" stroke="white" stroke-width="1.5" pointer-events="none"/>
                </g>
                <g id="dirArrow">
                        <path fill="none" stroke="white" stroke-width="1.5" d="M0,-3.0v7 M-2.5,-0.5L0,-3.0L2.5,-0.5"/>
                </g>
               <g id="resetDef">
                       <use xlink:href="#rim2" fill="#404040">
                               <set attributeName="fill" to="#808080" begin="reset.mouseover" end="reset.mouseout"/>
                       </use>
               </g>
        </defs>

<script type="text/javascript">
var viewWidth = 2211;
var viewHeight = 359;
var sectionId = 'dynsection-0';
</script>
<script xlink:href="svgpan.js"/>
<svg id="graph" class="graph">
<g id="viewport">
<title>gko::solver::LowerTrs&lt; ValueType, IndexType &gt;</title>
<polygon fill="#ffffff" stroke="transparent" points="-4,4 -4,-354.5 2207,-354.5 2207,4 -4,4"/>
<!-- Node0 -->
<g id="node1" class="node">
<title>Node0</title>
<polygon fill="#bfbfbf" stroke="#000000" points="2059,-96 2059,-126 2203,-126 2203,-96 2059,-96"/>
<text text-anchor="start" x="2067" y="-114" font-family="Helvetica,sans-Serif" font-size="10.00" fill="#000000">gko::solver::LowerTrs</text>
<text text-anchor="middle" x="2131" y="-103" font-family="Helvetica,sans-Serif" font-size="10.00" fill="#000000">&lt; ValueType, IndexType &gt;</text>
</g>
<!-- Node1 -->
<g id="node2" class="node">
<title>Node1</title>
<g id="a_node2"><a xlink:href="classgko_1_1EnableLinOp.html" target="_top" xlink:title="gko::EnableLinOp\&lt; LowerTrs\l\&lt; ValueType, IndexType \&gt; \&gt;">
<polygon fill="#ffffff" stroke="#000000" points="1867,-128 1867,-158 2022,-158 2022,-128 1867,-128"/>
<text text-anchor="start" x="1875" y="-146" font-family="Helvetica,sans-Serif" font-size="10.00" fill="#000000">gko::EnableLinOp&lt; LowerTrs</text>
<text text-anchor="middle" x="1944.5" y="-135" font-family="Helvetica,sans-Serif" font-size="10.00" fill="#000000">&lt; ValueType, IndexType &gt; &gt;</text>
</a>
</g>
</g>
<!-- Node1&#45;&gt;Node0 -->
<g id="edge1" class="edge">
<title>Node1&#45;&gt;Node0</title>
<path fill="none" stroke="#191970" d="M2032.226,-127.9478C2041.1092,-126.4236 2050.0595,-124.8879 2058.753,-123.3963"/>
<polygon fill="#191970" stroke="#191970" points="2031.5064,-124.5201 2022.2423,-129.6608 2032.6902,-131.4192 2031.5064,-124.5201"/>
</g>
<!-- Node2 -->
<g id="node3" class="node">
<title>Node2</title>
<g id="a_node3"><a xlink:href="classgko_1_1EnablePolymorphicObject.html" target="_top" xlink:title="gko::EnablePolymorphicObject\l\&lt; LowerTrs\&lt; ValueType, IndexType\l \&gt;, LinOp \&gt;">
<polygon fill="#ffffff" stroke="#000000" points="1523,-218.5 1523,-259.5 1710,-259.5 1710,-218.5 1523,-218.5"/>
<text text-anchor="start" x="1531" y="-247.5" font-family="Helvetica,sans-Serif" font-size="10.00" fill="#000000">gko::EnablePolymorphicObject</text>
<text text-anchor="start" x="1531" y="-236.5" font-family="Helvetica,sans-Serif" font-size="10.00" fill="#000000">&lt; LowerTrs&lt; ValueType, IndexType</text>
<text text-anchor="middle" x="1616.5" y="-225.5" font-family="Helvetica,sans-Serif" font-size="10.00" fill="#000000"> &gt;, LinOp &gt;</text>
</a>
</g>
</g>
<!-- Node2&#45;&gt;Node1 -->
<g id="edge2" class="edge">
<title>Node2&#45;&gt;Node1</title>
<path fill="none" stroke="#191970" d="M1696.4983,-215.5859C1757.7191,-197.6676 1840.3328,-173.488 1893.0232,-158.0664"/>
<polygon fill="#191970" stroke="#191970" points="1695.4784,-212.2374 1686.8642,-218.4056 1697.4448,-218.9556 1695.4784,-212.2374"/>
</g>
<!-- Node3 -->
<g id="node4" class="node">
<title>Node3</title>
<g id="a_node4"><a xlink:href="classgko_1_1EnableAbstractPolymorphicObject.html" target="_top" xlink:title="gko::EnableAbstractPolymorphic\lObject\&lt; LowerTrs\&lt; ValueType,\l IndexType \&gt;, LinOp \&gt;">
<polygon fill="#ffffff" stroke="#000000" points="1294,-279.5 1294,-320.5 1469,-320.5 1469,-279.5 1294,-279.5"/>
<text text-anchor="start" x="1302" y="-308.5" font-family="Helvetica,sans-Serif" font-size="10.00" fill="#000000">gko::EnableAbstractPolymorphic</text>
<text text-anchor="start" x="1302" y="-297.5" font-family="Helvetica,sans-Serif" font-size="10.00" fill="#000000">Object&lt; LowerTrs&lt; ValueType,</text>
<text text-anchor="middle" x="1381.5" y="-286.5" font-family="Helvetica,sans-Serif" font-size="10.00" fill="#000000"> IndexType &gt;, LinOp &gt;</text>
</a>
</g>
</g>
<!-- Node3&#45;&gt;Node2 -->
<g id="edge3" class="edge">
<title>Node3&#45;&gt;Node2</title>
<path fill="none" stroke="#191970" d="M1470.6762,-276.8521C1492.5571,-271.1724 1515.8315,-265.131 1537.2117,-259.5812"/>
<polygon fill="#191970" stroke="#191970" points="1469.5325,-273.5329 1460.7327,-279.4332 1471.2913,-280.3084 1469.5325,-273.5329"/>
</g>
<!-- Node4 -->
<g id="node5" class="node">
<title>Node4</title>
<g id="a_node5"><a xlink:href="classgko_1_1LinOp.html" target="_top" xlink:title="gko::LinOp">
<polygon fill="#ffffff" stroke="#000000" points="951.5,-322.5 951.5,-341.5 1019.5,-341.5 1019.5,-322.5 951.5,-322.5"/>
<text text-anchor="middle" x="985.5" y="-329.5" font-family="Helvetica,sans-Serif" font-size="10.00" fill="#000000">gko::LinOp</text>
</a>
</g>
</g>
<!-- Node4&#45;&gt;Node3 -->
<g id="edge4" class="edge">
<title>Node4&#45;&gt;Node3</title>
<path fill="none" stroke="#191970" d="M1029.7068,-328.4277C1093.3545,-323.2845 1212.1324,-313.6863 1293.9352,-307.0759"/>
<polygon fill="#191970" stroke="#191970" points="1029.291,-324.9498 1019.6055,-329.244 1029.8549,-331.9271 1029.291,-324.9498"/>
</g>
<!-- Node5 -->
<g id="node6" class="node">
<title>Node5</title>
<g id="a_node6"><a xlink:href="classgko_1_1EnableAbstractPolymorphicObject.html" target="_top" xlink:title="gko::EnableAbstractPolymorphic\lObject\&lt; LinOp \&gt;">
<polygon fill="#ffffff" stroke="#ff0000" points="538,-320 538,-350 713,-350 713,-320 538,-320"/>
<text text-anchor="start" x="546" y="-338" font-family="Helvetica,sans-Serif" font-size="10.00" fill="#000000">gko::EnableAbstractPolymorphic</text>
<text text-anchor="middle" x="625.5" y="-327" font-family="Helvetica,sans-Serif" font-size="10.00" fill="#000000">Object&lt; LinOp &gt;</text>
</a>
</g>
</g>
<!-- Node5&#45;&gt;Node4 -->
<g id="edge5" class="edge">
<title>Node5&#45;&gt;Node4</title>
<path fill="none" stroke="#191970" d="M723.1416,-334.1863C798.8119,-333.5557 899.2382,-332.7188 951.1549,-332.2862"/>
<polygon fill="#191970" stroke="#191970" points="723.076,-330.6866 713.1056,-334.27 723.1344,-337.6864 723.076,-330.6866"/>
</g>
<!-- Node10 -->
<g id="node7" class="node">
<title>Node10</title>
<g id="a_node7"><a xlink:href="classgko_1_1EnableAbstractPolymorphicObject.html" target="_top" xlink:title="This mixin inherits from (a subclass of) PolymorphicObject and provides a base implementation of a ne...">
<polygon fill="#ffffff" stroke="#000000" points="138,-233.5 138,-274.5 332,-274.5 332,-233.5 138,-233.5"/>
<text text-anchor="start" x="146" y="-262.5" font-family="Helvetica,sans-Serif" font-size="10.00" fill="#000000">gko::EnableAbstractPolymorphic</text>
<text text-anchor="start" x="146" y="-251.5" font-family="Helvetica,sans-Serif" font-size="10.00" fill="#000000">Object&lt; AbstactObject, Polymorphic</text>
<text text-anchor="middle" x="235" y="-240.5" font-family="Helvetica,sans-Serif" font-size="10.00" fill="#000000">Base &gt;</text>
</a>
</g>
</g>
<!-- Node10&#45;&gt;Node3 -->
<g id="edge8" class="edge">
<title>Node10&#45;&gt;Node3</title>
<path fill="none" stroke="#ffa500" stroke-dasharray="5,2" d="M342.2468,-273.1709C344.8539,-273.4693 347.4414,-273.7467 350,-274 698.2852,-308.4863 1115.7556,-305.4775 1293.9508,-302.1184"/>
<polygon fill="#ffa500" stroke="#ffa500" points="342.4652,-269.6715 332.1122,-271.9223 341.6091,-276.6189 342.4652,-269.6715"/>
<text text-anchor="start" x="744" y="-315" font-family="Helvetica,sans-Serif" font-size="10.00" fill="#000000"> &lt; LowerTrs&lt; ValueType,</text>
<text text-anchor="middle" x="804.5" y="-304" font-family="Helvetica,sans-Serif" font-size="10.00" fill="#000000"> IndexType &gt;, LinOp &gt;</text>
</g>
<!-- Node10&#45;&gt;Node5 -->
<g id="edge6" class="edge">
<title>Node10&#45;&gt;Node5</title>
<path fill="none" stroke="#ffa500" stroke-dasharray="5,2" d="M282.3212,-278.9448C302.6332,-288.5984 326.956,-298.7972 350,-305 411.5581,-321.5698 483.1969,-329.0239 537.9906,-332.3596"/>
<polygon fill="#ffa500" stroke="#ffa500" points="283.8149,-275.7793 273.29,-274.564 280.7598,-282.0775 283.8149,-275.7793"/>
<text text-anchor="middle" x="428.5" y="-333" font-family="Helvetica,sans-Serif" font-size="10.00" fill="#000000"> &lt; LinOp &gt;</text>
</g>
<!-- Node13 -->
<g id="node10" class="node">
<title>Node13</title>
<g id="a_node10"><a xlink:href="classgko_1_1EnableAbstractPolymorphicObject.html" target="_top" xlink:title="gko::EnableAbstractPolymorphic\lObject\&lt; ConcreteObject, Polymorphic\lBase \&gt;">
<polygon fill="#ffffff" stroke="#000000" points="525,-213.5 525,-254.5 726,-254.5 726,-213.5 525,-213.5"/>
<text text-anchor="start" x="533" y="-242.5" font-family="Helvetica,sans-Serif" font-size="10.00" fill="#000000">gko::EnableAbstractPolymorphic</text>
<text text-anchor="start" x="533" y="-231.5" font-family="Helvetica,sans-Serif" font-size="10.00" fill="#000000">Object&lt; ConcreteObject, Polymorphic</text>
<text text-anchor="middle" x="625.5" y="-220.5" font-family="Helvetica,sans-Serif" font-size="10.00" fill="#000000">Base &gt;</text>
</a>
</g>
</g>
<!-- Node10&#45;&gt;Node13 -->
<g id="edge12" class="edge">
<title>Node10&#45;&gt;Node13</title>
<path fill="none" stroke="#ffa500" stroke-dasharray="5,2" d="M342.1578,-248.5118C399.1787,-245.5914 468.8822,-242.0214 524.885,-239.1531"/>
<polygon fill="#ffa500" stroke="#ffa500" points="341.8377,-245.0235 332.0298,-249.0305 342.1958,-252.0143 341.8377,-245.0235"/>
<text text-anchor="start" x="350" y="-262" font-family="Helvetica,sans-Serif" font-size="10.00" fill="#000000"> &lt; ConcreteObject, Polymorphic</text>
<text text-anchor="middle" x="428.5" y="-251" font-family="Helvetica,sans-Serif" font-size="10.00" fill="#000000">Base &gt;</text>
</g>
<!-- Node20 -->
<g id="node17" class="node">
<title>Node20</title>
<g id="a_node17"><a xlink:href="classgko_1_1EnableAbstractPolymorphicObject.html" target="_top" xlink:title="gko::EnableAbstractPolymorphic\lObject\&lt; ConcreteLinOp, Polymorphic\lBase \&gt;">
<polygon fill="#ffffff" stroke="#000000" points="527,-148.5 527,-189.5 724,-189.5 724,-148.5 527,-148.5"/>
<text text-anchor="start" x="535" y="-177.5" font-family="Helvetica,sans-Serif" font-size="10.00" fill="#000000">gko::EnableAbstractPolymorphic</text>
<text text-anchor="start" x="535" y="-166.5" font-family="Helvetica,sans-Serif" font-size="10.00" fill="#000000">Object&lt; ConcreteLinOp, Polymorphic</text>
<text text-anchor="middle" x="625.5" y="-155.5" font-family="Helvetica,sans-Serif" font-size="10.00" fill="#000000">Base &gt;</text>
</a>
</g>
</g>
<!-- Node10&#45;&gt;Node20 -->
<g id="edge22" class="edge">
<title>Node10&#45;&gt;Node20</title>
<path fill="none" stroke="#ffa500" stroke-dasharray="5,2" d="M297.6647,-230.0063C314.4851,-224.1726 332.7859,-218.3648 350,-214 407.8993,-199.3193 473.9059,-188.3439 526.793,-180.909"/>
<polygon fill="#ffa500" stroke="#ffa500" points="296.2173,-226.8054 287.9516,-233.4333 298.5464,-233.4066 296.2173,-226.8054"/>
<text text-anchor="start" x="352" y="-228" font-family="Helvetica,sans-Serif" font-size="10.00" fill="#000000"> &lt; ConcreteLinOp, Polymorphic</text>
<text text-anchor="middle" x="428.5" y="-217" font-family="Helvetica,sans-Serif" font-size="10.00" fill="#000000">Base &gt;</text>
</g>
<!-- Node11 -->
<g id="node8" class="node">
<title>Node11</title>
<polygon fill="#ffffff" stroke="#bfbfbf" points="0,-166.5 0,-185.5 101,-185.5 101,-166.5 0,-166.5"/>
<text text-anchor="middle" x="50.5" y="-173.5" font-family="Helvetica,sans-Serif" font-size="10.00" fill="#000000">PolymorphicBase</text>
</g>
<!-- Node11&#45;&gt;Node10 -->
<g id="edge7" class="edge">
<title>Node11&#45;&gt;Node10</title>
<path fill="none" stroke="#191970" d="M82.628,-189.5826C111.2155,-201.6684 153.45,-219.5236 186.208,-233.3725"/>
<polygon fill="#191970" stroke="#191970" points="83.6969,-186.2346 73.1233,-185.5643 80.9711,-192.6821 83.6969,-186.2346"/>
</g>
<!-- Node11&#45;&gt;Node13 -->
<g id="edge11" class="edge">
<title>Node11&#45;&gt;Node13</title>
<path fill="none" stroke="#191970" d="M111.2572,-169.6923C199.829,-162.3179 368.8924,-155.1538 507,-190 515.6725,-192.1882 516.7596,-195.522 525,-199 537.0003,-204.0649 550.013,-208.9946 562.5703,-213.4794"/>
<polygon fill="#191970" stroke="#191970" points="110.7842,-166.22 101.122,-170.5667 111.3859,-173.1941 110.7842,-166.22"/>
</g>
<!-- Node11&#45;&gt;Node20 -->
<g id="edge21" class="edge">
<title>Node11&#45;&gt;Node20</title>
<path fill="none" stroke="#191970" d="M100.0089,-164.656C106.37,-163.5602 112.8183,-162.6252 119,-162 290.5691,-144.6468 334.6306,-156.9134 507,-162 513.4889,-162.1915 520.1751,-162.4418 526.9118,-162.7337"/>
<polygon fill="#191970" stroke="#191970" points="99.3286,-161.2224 90.1355,-166.4889 100.6063,-168.1048 99.3286,-161.2224"/>
</g>
<!-- Node12 -->
<g id="node9" class="node">
<title>Node12</title>
<g id="a_node9"><a xlink:href="classgko_1_1EnablePolymorphicObject.html" target="_top" xlink:title="This mixin inherits from (a subclass of) PolymorphicObject and provides a base implementation of a ne...">
<polygon fill="#ffffff" stroke="#000000" points="883,-219 883,-249 1088,-249 1088,-219 883,-219"/>
<text text-anchor="start" x="891" y="-237" font-family="Helvetica,sans-Serif" font-size="10.00" fill="#000000">gko::EnablePolymorphicObject</text>
<text text-anchor="middle" x="985.5" y="-226" font-family="Helvetica,sans-Serif" font-size="10.00" fill="#000000">&lt; ConcreteObject, PolymorphicBase &gt;</text>
</a>
</g>
</g>
<!-- Node12&#45;&gt;Node2 -->
<g id="edge9" class="edge">
<title>Node12&#45;&gt;Node2</title>
<path fill="none" stroke="#ffa500" stroke-dasharray="5,2" d="M1098.3318,-234.8941C1219.4329,-235.8537 1409.608,-237.3606 1522.7721,-238.2573"/>
<polygon fill="#ffa500" stroke="#ffa500" points="1098.3129,-231.3939 1088.2854,-234.8145 1098.2573,-238.3937 1098.3129,-231.3939"/>
<text text-anchor="start" x="1321" y="-251" font-family="Helvetica,sans-Serif" font-size="10.00" fill="#000000"> &lt; LowerTrs&lt; ValueType,</text>
<text text-anchor="middle" x="1381.5" y="-240" font-family="Helvetica,sans-Serif" font-size="10.00" fill="#000000"> IndexType &gt;, LinOp &gt;</text>
</g>
<!-- Node19 -->
<g id="node16" class="node">
<title>Node19</title>
<g id="a_node16"><a xlink:href="classgko_1_1EnablePolymorphicObject.html" target="_top" xlink:title="gko::EnablePolymorphicObject\l\&lt; ConcreteLinOp, PolymorphicBase \&gt;">
<polygon fill="#ffffff" stroke="#000000" points="1281,-156 1281,-186 1482,-186 1482,-156 1281,-156"/>
<text text-anchor="start" x="1289" y="-174" font-family="Helvetica,sans-Serif" font-size="10.00" fill="#000000">gko::EnablePolymorphicObject</text>
<text text-anchor="middle" x="1381.5" y="-163" font-family="Helvetica,sans-Serif" font-size="10.00" fill="#000000">&lt; ConcreteLinOp, PolymorphicBase &gt;</text>
</a>
</g>
</g>
<!-- Node12&#45;&gt;Node19 -->
<g id="edge23" class="edge">
<title>Node12&#45;&gt;Node19</title>
<path fill="none" stroke="#ffa500" stroke-dasharray="5,2" d="M1047.5101,-216.325C1066.1923,-211.4674 1086.8275,-206.5625 1106,-203 1163.5194,-192.3121 1228.4978,-184.5613 1280.8985,-179.367"/>
<polygon fill="#ffa500" stroke="#ffa500" points="1046.4204,-212.9927 1037.6464,-218.9314 1048.2087,-219.7604 1046.4204,-212.9927"/>
<text text-anchor="start" x="1106" y="-217" font-family="Helvetica,sans-Serif" font-size="10.00" fill="#000000"> &lt; ConcreteLinOp, Polymorphic</text>
<text text-anchor="middle" x="1182.5" y="-206" font-family="Helvetica,sans-Serif" font-size="10.00" fill="#000000">Base &gt;</text>
</g>
<!-- Node13&#45;&gt;Node12 -->
<g id="edge10" class="edge">
<title>Node13&#45;&gt;Node12</title>
<path fill="none" stroke="#191970" d="M736.4138,-234C783.1115,-234 837.1224,-234 882.8889,-234"/>
<polygon fill="#191970" stroke="#191970" points="736.2588,-230.5001 726.2588,-234 736.2587,-237.5001 736.2588,-230.5001"/>
</g>
<!-- Node14 -->
<g id="node11" class="node">
<title>Node14</title>
<g id="a_node11"><a xlink:href="classgko_1_1EnablePolymorphicAssignment.html" target="_top" xlink:title="gko::EnablePolymorphicAssignment\l\&lt; LowerTrs\&lt; ValueType, IndexType \&gt; \&gt;">
<polygon fill="#ffffff" stroke="#000000" points="1277,-39 1277,-69 1486,-69 1486,-39 1277,-39"/>
<text text-anchor="start" x="1285" y="-57" font-family="Helvetica,sans-Serif" font-size="10.00" fill="#000000">gko::EnablePolymorphicAssignment</text>
<text text-anchor="middle" x="1381.5" y="-46" font-family="Helvetica,sans-Serif" font-size="10.00" fill="#000000">&lt; LowerTrs&lt; ValueType, IndexType &gt; &gt;</text>
</a>
</g>
</g>
<!-- Node14&#45;&gt;Node1 -->
<g id="edge13" class="edge">
<title>Node14&#45;&gt;Node1</title>
<path fill="none" stroke="#191970" d="M1486.8382,-70.652C1597.1563,-88.0913 1767.8265,-115.0711 1866.595,-130.6846"/>
<polygon fill="#191970" stroke="#191970" points="1487.1106,-67.1517 1476.6868,-69.0473 1486.0176,-74.0659 1487.1106,-67.1517"/>
</g>
<!-- Node15 -->
<g id="node12" class="node">
<title>Node15</title>
<g id="a_node12"><a xlink:href="classgko_1_1ConvertibleTo.html" target="_top" xlink:title="gko::ConvertibleTo\l\&lt; LowerTrs\&lt; ValueType,\l IndexType \&gt; \&gt;">
<polygon fill="#ffffff" stroke="#000000" points="918.5,-.5 918.5,-41.5 1052.5,-41.5 1052.5,-.5 918.5,-.5"/>
<text text-anchor="start" x="926.5" y="-29.5" font-family="Helvetica,sans-Serif" font-size="10.00" fill="#000000">gko::ConvertibleTo</text>
<text text-anchor="start" x="926.5" y="-18.5" font-family="Helvetica,sans-Serif" font-size="10.00" fill="#000000">&lt; LowerTrs&lt; ValueType,</text>
<text text-anchor="middle" x="985.5" y="-7.5" font-family="Helvetica,sans-Serif" font-size="10.00" fill="#000000"> IndexType &gt; &gt;</text>
</a>
</g>
</g>
<!-- Node15&#45;&gt;Node14 -->
<g id="edge14" class="edge">
<title>Node15&#45;&gt;Node14</title>
<path fill="none" stroke="#191970" d="M1063.0041,-27.4587C1123.9855,-32.5405 1209.573,-39.6728 1276.6703,-45.2642"/>
<polygon fill="#191970" stroke="#191970" points="1062.9322,-23.9406 1052.676,-26.598 1062.3508,-30.9165 1062.9322,-23.9406"/>
</g>
<!-- Node16 -->
<g id="node13" class="node">
<title>Node16</title>
<g id="a_node13"><a xlink:href="classgko_1_1ConvertibleTo.html" target="_top" xlink:title="ConvertibleTo interface is used to mark that the implementer can be converted to the object of Result...">
<polygon fill="#ffffff" stroke="#000000" points="572,-61 572,-91 679,-91 679,-61 572,-61"/>
<text text-anchor="start" x="580" y="-79" font-family="Helvetica,sans-Serif" font-size="10.00" fill="#000000">gko::ConvertibleTo</text>
<text text-anchor="middle" x="625.5" y="-68" font-family="Helvetica,sans-Serif" font-size="10.00" fill="#000000">&lt; ResultType &gt;</text>
</a>
</g>
</g>
<!-- Node16&#45;&gt;Node15 -->
<g id="edge15" class="edge">
<title>Node16&#45;&gt;Node15</title>
<path fill="none" stroke="#ffa500" stroke-dasharray="5,2" d="M689.4339,-60.7893C707.0489,-56.922 726.2064,-53.0132 744,-50 802.602,-40.0763 869.7666,-32.2986 918.3637,-27.3068"/>
<polygon fill="#ffa500" stroke="#ffa500" points="688.2626,-57.4643 679.2626,-63.0545 689.7843,-64.2969 688.2626,-57.4643"/>
<text text-anchor="start" x="744" y="-64" font-family="Helvetica,sans-Serif" font-size="10.00" fill="#000000"> &lt; LowerTrs&lt; ValueType,</text>
<text text-anchor="middle" x="804.5" y="-53" font-family="Helvetica,sans-Serif" font-size="10.00" fill="#000000"> IndexType &gt; &gt;</text>
</g>
<!-- Node17 -->
<g id="node14" class="node">
<title>Node17</title>
<g id="a_node14"><a xlink:href="classgko_1_1EnablePolymorphicAssignment.html" target="_top" xlink:title="This mixin is used to enable a default PolymorphicObject::copy_from() implementation for objects that...">
<polygon fill="#ffffff" stroke="#000000" points="889.5,-61 889.5,-91 1081.5,-91 1081.5,-61 889.5,-61"/>
<text text-anchor="start" x="897.5" y="-79" font-family="Helvetica,sans-Serif" font-size="10.00" fill="#000000">gko::EnablePolymorphicAssignment</text>
<text text-anchor="middle" x="985.5" y="-68" font-family="Helvetica,sans-Serif" font-size="10.00" fill="#000000">&lt; ConcreteType, ResultType &gt;</text>
</a>
</g>
</g>
<!-- Node16&#45;&gt;Node17 -->
<g id="edge17" class="edge">
<title>Node16&#45;&gt;Node17</title>
<path fill="none" stroke="#191970" d="M689.055,-76C744.5338,-76 825.8688,-76 889.3162,-76"/>
<polygon fill="#191970" stroke="#191970" points="689.0069,-72.5001 679.0069,-76 689.0069,-79.5001 689.0069,-72.5001"/>
</g>
<!-- Node22 -->
<g id="node19" class="node">
<title>Node22</title>
<g id="a_node19"><a xlink:href="classgko_1_1ConvertibleTo.html" target="_top" xlink:title="gko::ConvertibleTo\l\&lt; ConcreteLinOp \&gt;">
<polygon fill="#ffffff" stroke="#000000" points="930.5,-110 930.5,-140 1040.5,-140 1040.5,-110 930.5,-110"/>
<text text-anchor="start" x="938.5" y="-128" font-family="Helvetica,sans-Serif" font-size="10.00" fill="#000000">gko::ConvertibleTo</text>
<text text-anchor="middle" x="985.5" y="-117" font-family="Helvetica,sans-Serif" font-size="10.00" fill="#000000">&lt; ConcreteLinOp &gt;</text>
</a>
</g>
</g>
<!-- Node16&#45;&gt;Node22 -->
<g id="edge26" class="edge">
<title>Node16&#45;&gt;Node22</title>
<path fill="none" stroke="#ffa500" stroke-dasharray="5,2" d="M689.2231,-84.6734C757.644,-93.9863 865.2504,-108.6327 930.2198,-117.4758"/>
<polygon fill="#ffa500" stroke="#ffa500" points="689.3876,-81.1636 679.0069,-83.2829 688.4435,-88.0997 689.3876,-81.1636"/>
<text text-anchor="middle" x="804.5" y="-111" font-family="Helvetica,sans-Serif" font-size="10.00" fill="#000000"> &lt; ConcreteLinOp &gt;</text>
</g>
<!-- Node17&#45;&gt;Node14 -->
<g id="edge16" class="edge">
<title>Node17&#45;&gt;Node14</title>
<path fill="none" stroke="#ffa500" stroke-dasharray="5,2" d="M1070.1364,-59.3994C1082.134,-57.5872 1094.3493,-56.0289 1106,-55 1162.3399,-50.0244 1225.4134,-49.432 1276.9788,-50.2352"/>
<polygon fill="#ffa500" stroke="#ffa500" points="1069.4607,-55.9625 1060.1268,-60.9753 1070.5494,-62.8774 1069.4607,-55.9625"/>
<text text-anchor="start" x="1122" y="-69" font-family="Helvetica,sans-Serif" font-size="10.00" fill="#000000"> &lt; LowerTrs&lt; ValueType,</text>
<text text-anchor="middle" x="1182.5" y="-58" font-family="Helvetica,sans-Serif" font-size="10.00" fill="#000000"> IndexType &gt; &gt;</text>
</g>
<!-- Node21 -->
<g id="node18" class="node">
<title>Node21</title>
<g id="a_node18"><a xlink:href="classgko_1_1EnablePolymorphicAssignment.html" target="_top" xlink:title="gko::EnablePolymorphicAssignment\l\&lt; ConcreteLinOp \&gt;">
<polygon fill="#ffffff" stroke="#000000" points="1285.5,-107 1285.5,-137 1477.5,-137 1477.5,-107 1285.5,-107"/>
<text text-anchor="start" x="1293.5" y="-125" font-family="Helvetica,sans-Serif" font-size="10.00" fill="#000000">gko::EnablePolymorphicAssignment</text>
<text text-anchor="middle" x="1381.5" y="-114" font-family="Helvetica,sans-Serif" font-size="10.00" fill="#000000">&lt; ConcreteLinOp &gt;</text>
</a>
</g>
</g>
<!-- Node17&#45;&gt;Node21 -->
<g id="edge27" class="edge">
<title>Node17&#45;&gt;Node21</title>
<path fill="none" stroke="#ffa500" stroke-dasharray="5,2" d="M1091.9111,-88.3609C1152.1192,-95.3548 1226.819,-104.032 1285.2692,-110.8217"/>
<polygon fill="#ffa500" stroke="#ffa500" points="1091.9503,-84.842 1081.6132,-87.1647 1091.1426,-91.7952 1091.9503,-84.842"/>
<text text-anchor="middle" x="1182.5" y="-111" font-family="Helvetica,sans-Serif" font-size="10.00" fill="#000000"> &lt; ConcreteLinOp &gt;</text>
</g>
<!-- Node18 -->
<g id="node15" class="node">
<title>Node18</title>
<g id="a_node15"><a xlink:href="classgko_1_1EnableLinOp.html" target="_top" xlink:title="The EnableLinOp mixin can be used to provide sensible default implementations of the majority of the ...">
<polygon fill="#ffffff" stroke="#000000" points="1538.5,-128 1538.5,-158 1694.5,-158 1694.5,-128 1538.5,-128"/>
<text text-anchor="start" x="1546.5" y="-146" font-family="Helvetica,sans-Serif" font-size="10.00" fill="#000000">gko::EnableLinOp&lt; Concrete</text>
<text text-anchor="middle" x="1616.5" y="-135" font-family="Helvetica,sans-Serif" font-size="10.00" fill="#000000">LinOp, PolymorphicBase &gt;</text>
</a>
</g>
</g>
<!-- Node18&#45;&gt;Node1 -->
<g id="edge18" class="edge">
<title>Node18&#45;&gt;Node1</title>
<path fill="none" stroke="#ffa500" stroke-dasharray="5,2" d="M1704.9151,-143C1755.481,-143 1818.3177,-143 1866.9512,-143"/>
<polygon fill="#ffa500" stroke="#ffa500" points="1704.6475,-139.5001 1694.6475,-143 1704.6474,-146.5001 1704.6475,-139.5001"/>
<text text-anchor="start" x="1728" y="-157" font-family="Helvetica,sans-Serif" font-size="10.00" fill="#000000"> &lt; LowerTrs&lt; ValueType,</text>
<text text-anchor="middle" x="1788.5" y="-146" font-family="Helvetica,sans-Serif" font-size="10.00" fill="#000000"> IndexType &gt; &gt;</text>
</g>
<!-- Node19&#45;&gt;Node18 -->
<g id="edge19" class="edge">
<title>Node19&#45;&gt;Node18</title>
<path fill="none" stroke="#191970" d="M1492.3695,-157.79C1507.921,-155.9371 1523.6278,-154.0656 1538.3957,-152.306"/>
<polygon fill="#191970" stroke="#191970" points="1491.6995,-154.345 1482.1838,-159.0036 1492.5277,-161.2958 1491.6995,-154.345"/>
</g>
<!-- Node20&#45;&gt;Node19 -->
<g id="edge20" class="edge">
<title>Node20&#45;&gt;Node19</title>
<path fill="none" stroke="#191970" d="M734.6779,-169.2888C881.0643,-169.6761 1138.924,-170.3583 1280.8343,-170.7337"/>
<polygon fill="#191970" stroke="#191970" points="734.3431,-165.788 724.3338,-169.2615 734.3245,-172.788 734.3431,-165.788"/>
</g>
<!-- Node21&#45;&gt;Node18 -->
<g id="edge24" class="edge">
<title>Node21&#45;&gt;Node18</title>
<path fill="none" stroke="#191970" d="M1487.7398,-131.4938C1504.768,-133.0154 1522.1146,-134.5656 1538.3313,-136.0147"/>
<polygon fill="#191970" stroke="#191970" points="1488.0334,-128.0061 1477.7615,-130.6021 1487.4103,-134.9784 1488.0334,-128.0061"/>
</g>
<!-- Node22&#45;&gt;Node21 -->
<g id="edge25" class="edge">
<title>Node22&#45;&gt;Node21</title>
<path fill="none" stroke="#191970" d="M1050.9015,-124.5045C1114.7679,-124.0207 1212.6945,-123.2788 1285.4105,-122.728"/>
<polygon fill="#191970" stroke="#191970" points="1050.5353,-121.0071 1040.5621,-124.5829 1050.5884,-128.0069 1050.5353,-121.0071"/>
</g>
<!-- Node23 -->
<g id="node20" class="node">
<title>Node23</title>
<g id="a_node20"><a xlink:href="classgko_1_1Preconditionable.html" target="_top" xlink:title="A LinOp implementing this interface can be preconditioned. ">
<polygon fill="#ffffff" stroke="#000000" points="1883.5,-89.5 1883.5,-108.5 2005.5,-108.5 2005.5,-89.5 1883.5,-89.5"/>
<text text-anchor="middle" x="1944.5" y="-96.5" font-family="Helvetica,sans-Serif" font-size="10.00" fill="#000000">gko::Preconditionable</text>
</a>
</g>
</g>
<!-- Node23&#45;&gt;Node0 -->
<g id="edge28" class="edge">
<title>Node23&#45;&gt;Node0</title>
<path fill="none" stroke="#191970" d="M2015.6926,-103.5808C2029.799,-104.4884 2044.6199,-105.442 2058.7608,-106.3519"/>
<polygon fill="#191970" stroke="#191970" points="2015.7712,-100.0787 2005.5671,-102.9292 2015.3217,-107.0642 2015.7712,-100.0787"/>
</g>
</g>
</svg>
        <g id="navigator" transform="translate(0 0)" fill="#404254">
                <rect fill="#f2f5e9" fill-opacity="0.5" stroke="#606060" stroke-width=".5" x="0" y="0" width="60" height="60"/>
                <use id="zoomplus" xlink:href="#zoomPlus" x="17" y="9" onmousedown="handleZoom(evt,'in')"/>
                <use id="zoomminus" xlink:href="#zoomMin" x="42" y="9" onmousedown="handleZoom(evt,'out')"/>
                <use id="reset" xlink:href="#resetDef" x="30" y="36" onmousedown="handleReset()"/>
                <g id="arrowUp" xlink:href="#dirArrow" transform="translate(30 24)" onmousedown="handlePan(0,-1)">
                  <use xlink:href="#rim" fill="#404040">
                        <set attributeName="fill" to="#808080" begin="arrowUp.mouseover" end="arrowUp.mouseout"/>
                  </use>
                  <path fill="none" stroke="white" stroke-width="1.5" d="M0,-3.0v7 M-2.5,-0.5L0,-3.0L2.5,-0.5"/>
                </g>
                <g id="arrowRight" xlink:href="#dirArrow" transform="rotate(90) translate(36 -43)" onmousedown="handlePan(1,0)">
                  <use xlink:href="#rim" fill="#404040">
                        <set attributeName="fill" to="#808080" begin="arrowRight.mouseover" end="arrowRight.mouseout"/>
                  </use>
                  <path fill="none" stroke="white" stroke-width="1.5" d="M0,-3.0v7 M-2.5,-0.5L0,-3.0L2.5,-0.5"/>
                </g>
                <g id="arrowDown" xlink:href="#dirArrow" transform="rotate(180) translate(-30 -48)" onmousedown="handlePan(0,1)">
                  <use xlink:href="#rim" fill="#404040">
                        <set attributeName="fill" to="#808080" begin="arrowDown.mouseover" end="arrowDown.mouseout"/>
                  </use>
                  <path fill="none" stroke="white" stroke-width="1.5" d="M0,-3.0v7 M-2.5,-0.5L0,-3.0L2.5,-0.5"/>
                </g>
                <g id="arrowLeft" xlink:href="#dirArrow" transform="rotate(270) translate(-36 17)" onmousedown="handlePan(-1,0)">
                  <use xlink:href="#rim" fill="#404040">
                        <set attributeName="fill" to="#808080" begin="arrowLeft.mouseover" end="arrowLeft.mouseout"/>
                  </use>
                  <path fill="none" stroke="white" stroke-width="1.5" d="M0,-3.0v7 M-2.5,-0.5L0,-3.0L2.5,-0.5"/>
                </g>
        </g>
        <svg viewBox="0 0 15 15" width="100%" height="30px" preserveAspectRatio="xMaxYMin meet">
         <g id="arrow_out" transform="scale(0.3 0.3)">
          <a xlink:href="classgko_1_1solver_1_1LowerTrs__coll__graph_org.svg" target="_base">
           <rect id="button" ry="5" rx="5" y="6" x="6" height="38" width="38"
                fill="#f2f5e9" fill-opacity="0.5" stroke="#606060" stroke-width="1.0"/>
           <path id="arrow"
             d="M 11.500037,31.436501 C 11.940474,20.09759 22.043105,11.32322 32.158766,21.979434 L 37.068811,17.246167 C 37.068811,17.246167 37.088388,32 37.088388,32 L 22.160133,31.978069 C 22.160133,31.978069 26.997745,27.140456 26.997745,27.140456 C 18.528582,18.264221 13.291696,25.230495 11.500037,31.436501 z"
             style="fill:#404040;"/>
          </a>
         </g>
        </svg>
</svg>
