<?xml version="1.0" encoding="UTF-8" standalone="no"?>
<!DOCTYPE svg PUBLIC "-//W3C//DTD SVG 1.1//EN"
 "http://www.w3.org/Graphics/SVG/1.1/DTD/svg11.dtd">
<!-- Generated by graphviz version 2.40.1 (20161225.0304)
 -->
<!-- Title: gko::matrix::Sellp&lt; ValueType, IndexType &gt; Pages: 1 -->
<!--zoomable 504 -->
<svg id="main" version="1.1" xmlns="http://www.w3.org/2000/svg" xmlns:xlink="http://www.w3.org/1999/xlink" xml:space="preserve" onload="init(evt)">
<style type="text/css"><![CDATA[
.edge:hover path { stroke: red; }
.edge:hover polygon { stroke: red; fill: red; }
]]></style>
<script type="text/javascript"><![CDATA[
var edges = document.getElementsByTagName('g');
if (edges && edges.length) {
  for (var i=0;i<edges.length;i++) {
    if (edges[i].id.substr(0,4)=='edge') {
      edges[i].setAttribute('class','edge');
    }
  }
}
]]></script>
        <defs>
                <circle id="rim" cx="0" cy="0" r="7"/>
                <circle id="rim2" cx="0" cy="0" r="3.5"/>
                <g id="zoomPlus">
                        <use xlink:href="#rim" fill="#404040">
                                <set attributeName="fill" to="#808080" begin="zoomplus.mouseover" end="zoomplus.mouseout"/>
                        </use>
                        <path d="M-4,0h8M0,-4v8" fill="none" stroke="white" stroke-width="1.5" pointer-events="none"/>
                </g>
                <g id="zoomMin">
                        <use xlink:href="#rim" fill="#404040">
                                <set attributeName="fill" to="#808080" begin="zoomminus.mouseover" end="zoomminus.mouseout"/>
                        </use>
                        <path d="M-4,0h8" fill="none" stroke="white" stroke-width="1.5" pointer-events="none"/>
                </g>
                <g id="dirArrow">
                        <path fill="none" stroke="white" stroke-width="1.5" d="M0,-3.0v7 M-2.5,-0.5L0,-3.0L2.5,-0.5"/>
                </g>
               <g id="resetDef">
                       <use xlink:href="#rim2" fill="#404040">
                               <set attributeName="fill" to="#808080" begin="reset.mouseover" end="reset.mouseout"/>
                       </use>
               </g>
        </defs>

<script type="text/javascript">
var viewWidth = 2472;
var viewHeight = 504;
var sectionId = 'dynsection-0';
</script>
<script xlink:href="svgpan.js"/>
<svg id="graph" class="graph">
<g id="viewport">
<title>gko::matrix::Sellp&lt; ValueType, IndexType &gt;</title>
<polygon fill="#ffffff" stroke="transparent" points="-4,4 -4,-499.5 2468,-499.5 2468,4 -4,4"/>
<!-- Node1 -->
<g id="node1" class="node">
<title>Node1</title>
<g id="a_node1"><a xlink:title="SELL&#45;P is a matrix format similar to ELL format.">
<polygon fill="#bfbfbf" stroke="#000000" points="2320,-274.5 2320,-304.5 2464,-304.5 2464,-274.5 2320,-274.5"/>
<text text-anchor="start" x="2328" y="-292.5" font-family="Helvetica,sans-Serif" font-size="10.00" fill="#000000">gko::matrix::Sellp</text>
<text text-anchor="middle" x="2392" y="-281.5" font-family="Helvetica,sans-Serif" font-size="10.00" fill="#000000">&lt; ValueType, IndexType &gt;</text>
</a>
</g>
</g>
<!-- Node2 -->
<g id="node2" class="node">
<title>Node2</title>
<g id="a_node2"><a xlink:href="classgko_1_1EnableLinOp.html" target="_top" xlink:title=" ">
<polygon fill="#ffffff" stroke="#000000" points="2110,-293.5 2110,-323.5 2265,-323.5 2265,-293.5 2110,-293.5"/>
<text text-anchor="start" x="2118" y="-311.5" font-family="Helvetica,sans-Serif" font-size="10.00" fill="#000000">gko::EnableLinOp&lt; Sellp</text>
<text text-anchor="middle" x="2187.5" y="-300.5" font-family="Helvetica,sans-Serif" font-size="10.00" fill="#000000">&lt; ValueType, IndexType &gt; &gt;</text>
</a>
</g>
</g>
<!-- Node2&#45;&gt;Node1 -->
<g id="edge1" class="edge">
<title>Node2&#45;&gt;Node1</title>
<path fill="none" stroke="#191970" d="M2275.3079,-300.3418C2290.1652,-298.9614 2305.4377,-297.5425 2319.8363,-296.2047"/>
<polygon fill="#191970" stroke="#191970" points="2274.7376,-296.8796 2265.1043,-301.2898 2275.3852,-303.8496 2274.7376,-296.8796"/>
</g>
<!-- Node3 -->
<g id="node3" class="node">
<title>Node3</title>
<g id="a_node3"><a xlink:href="classgko_1_1EnablePolymorphicObject.html" target="_top" xlink:title=" ">
<polygon fill="#ffffff" stroke="#000000" points="1706,-141 1706,-182 1874,-182 1874,-141 1706,-141"/>
<text text-anchor="start" x="1714" y="-170" font-family="Helvetica,sans-Serif" font-size="10.00" fill="#000000">gko::EnablePolymorphicObject</text>
<text text-anchor="start" x="1714" y="-159" font-family="Helvetica,sans-Serif" font-size="10.00" fill="#000000">&lt; Sellp&lt; ValueType, IndexType</text>
<text text-anchor="middle" x="1790" y="-148" font-family="Helvetica,sans-Serif" font-size="10.00" fill="#000000"> &gt;, LinOp &gt;</text>
</a>
</g>
</g>
<!-- Node3&#45;&gt;Node2 -->
<g id="edge2" class="edge">
<title>Node3&#45;&gt;Node2</title>
<path fill="none" stroke="#191970" d="M1883.9664,-170.5771C1944.2096,-180.7078 2020.8055,-202.1439 2074,-247.5 2087.9155,-259.365 2077.8048,-272.9711 2092,-284.5 2097.3081,-288.811 2103.2889,-292.3608 2109.6027,-295.2819"/>
<polygon fill="#191970" stroke="#191970" points="1884.4923,-167.1168 1874.0641,-168.9881 1883.3832,-174.0284 1884.4923,-167.1168"/>
</g>
<!-- Node4 -->
<g id="node4" class="node">
<title>Node4</title>
<g id="a_node4"><a xlink:href="classgko_1_1EnableAbstractPolymorphicObject.html" target="_top" xlink:title=" ">
<polygon fill="#ffffff" stroke="#000000" points="1340,-34 1340,-75 1515,-75 1515,-34 1340,-34"/>
<text text-anchor="start" x="1348" y="-63" font-family="Helvetica,sans-Serif" font-size="10.00" fill="#000000">gko::EnableAbstractPolymorphic</text>
<text text-anchor="start" x="1348" y="-52" font-family="Helvetica,sans-Serif" font-size="10.00" fill="#000000">Object&lt; Sellp&lt; ValueType,</text>
<text text-anchor="middle" x="1427.5" y="-41" font-family="Helvetica,sans-Serif" font-size="10.00" fill="#000000"> IndexType &gt;, LinOp &gt;</text>
</a>
</g>
</g>
<!-- Node4&#45;&gt;Node3 -->
<g id="edge3" class="edge">
<title>Node4&#45;&gt;Node3</title>
<path fill="none" stroke="#191970" d="M1525.1057,-50.668C1577.6599,-53.2212 1641.1289,-64.2134 1688,-97.5 1701.6212,-107.1734 1693.3576,-119.5785 1706,-130.5 1710.5877,-134.4632 1715.727,-137.9383 1721.1436,-140.9821"/>
<polygon fill="#191970" stroke="#191970" points="1525.2171,-47.1698 1515.0878,-50.2758 1524.9432,-54.1644 1525.2171,-47.1698"/>
</g>
<!-- Node5 -->
<g id="node5" class="node">
<title>Node5</title>
<g id="a_node5"><a xlink:href="classgko_1_1LinOp.html" target="_top" xlink:title=" ">
<polygon fill="#ffffff" stroke="#000000" points="985.5,-11 985.5,-30 1053.5,-30 1053.5,-11 985.5,-11"/>
<text text-anchor="middle" x="1019.5" y="-18" font-family="Helvetica,sans-Serif" font-size="10.00" fill="#000000">gko::LinOp</text>
</a>
</g>
</g>
<!-- Node5&#45;&gt;Node4 -->
<g id="edge4" class="edge">
<title>Node5&#45;&gt;Node4</title>
<path fill="none" stroke="#191970" d="M1063.6219,-24.1768C1129.4386,-29.6615 1254.6694,-40.0974 1339.6204,-47.1767"/>
<polygon fill="#191970" stroke="#191970" points="1063.8402,-20.683 1053.5841,-23.3403 1063.2589,-27.6588 1063.8402,-20.683"/>
</g>
<!-- Node6 -->
<g id="node6" class="node">
<title>Node6</title>
<g id="a_node6"><a xlink:href="classgko_1_1EnableAbstractPolymorphicObject.html" target="_top" xlink:title=" ">
<polygon fill="#ffffff" stroke="#ff0000" points="542,-.5 542,-30.5 717,-30.5 717,-.5 542,-.5"/>
<text text-anchor="start" x="550" y="-18.5" font-family="Helvetica,sans-Serif" font-size="10.00" fill="#000000">gko::EnableAbstractPolymorphic</text>
<text text-anchor="middle" x="629.5" y="-7.5" font-family="Helvetica,sans-Serif" font-size="10.00" fill="#000000">Object&lt; LinOp &gt;</text>
</a>
</g>
</g>
<!-- Node6&#45;&gt;Node5 -->
<g id="edge5" class="edge">
<title>Node6&#45;&gt;Node5</title>
<path fill="none" stroke="#191970" d="M727.1193,-16.7515C811.2777,-17.8305 927.9924,-19.3268 985.1613,-20.0598"/>
<polygon fill="#191970" stroke="#191970" points="727.0677,-13.2507 717.0236,-16.6221 726.9779,-20.2501 727.0677,-13.2507"/>
</g>
<!-- Node11 -->
<g id="node7" class="node">
<title>Node11</title>
<g id="a_node7"><a xlink:href="classgko_1_1EnableAbstractPolymorphicObject.html" target="_top" xlink:title="This mixin inherits from (a subclass of) PolymorphicObject and provides a base implementation of a ne...">
<polygon fill="#ffffff" stroke="#000000" points="138,-72 138,-113 336,-113 336,-72 138,-72"/>
<text text-anchor="start" x="146" y="-101" font-family="Helvetica,sans-Serif" font-size="10.00" fill="#000000">gko::EnableAbstractPolymorphic</text>
<text text-anchor="start" x="146" y="-90" font-family="Helvetica,sans-Serif" font-size="10.00" fill="#000000">Object&lt; AbstractObject, Polymorphic</text>
<text text-anchor="middle" x="237" y="-79" font-family="Helvetica,sans-Serif" font-size="10.00" fill="#000000">Base &gt;</text>
</a>
</g>
</g>
<!-- Node11&#45;&gt;Node4 -->
<g id="edge8" class="edge">
<title>Node11&#45;&gt;Node4</title>
<path fill="none" stroke="#ffa500" stroke-dasharray="5,2" d="M346.3103,-84.8865C348.8981,-84.7512 351.4643,-84.6221 354,-84.5 719.9392,-66.8832 1156.5852,-58.6356 1339.7893,-55.7535"/>
<polygon fill="#ffa500" stroke="#ffa500" points="346.0352,-81.3962 336.241,-85.4364 346.417,-88.3858 346.0352,-81.3962"/>
<text text-anchor="start" x="769" y="-83.5" font-family="Helvetica,sans-Serif" font-size="10.00" fill="#000000"> &lt; Sellp&lt; ValueType,</text>
<text text-anchor="middle" x="823.5" y="-72.5" font-family="Helvetica,sans-Serif" font-size="10.00" fill="#000000"> IndexType &gt;, LinOp &gt;</text>
</g>
<!-- Node11&#45;&gt;Node6 -->
<g id="edge6" class="edge">
<title>Node11&#45;&gt;Node6</title>
<path fill="none" stroke="#ffa500" stroke-dasharray="5,2" d="M278.8117,-66.77C300.4485,-54.7746 327.7681,-41.6059 354,-34.5 415.3152,-17.8904 486.9625,-13.3845 541.821,-12.9025"/>
<polygon fill="#ffa500" stroke="#ffa500" points="276.88,-63.8417 269.9065,-71.8179 280.332,-69.9314 276.88,-63.8417"/>
<text text-anchor="middle" x="432.5" y="-37.5" font-family="Helvetica,sans-Serif" font-size="10.00" fill="#000000"> &lt; LinOp &gt;</text>
</g>
<!-- Node14 -->
<g id="node10" class="node">
<title>Node14</title>
<g id="a_node10"><a xlink:href="classgko_1_1EnableAbstractPolymorphicObject.html" target="_top" xlink:title=" ">
<polygon fill="#ffffff" stroke="#000000" points="529,-97 529,-138 730,-138 730,-97 529,-97"/>
<text text-anchor="start" x="537" y="-126" font-family="Helvetica,sans-Serif" font-size="10.00" fill="#000000">gko::EnableAbstractPolymorphic</text>
<text text-anchor="start" x="537" y="-115" font-family="Helvetica,sans-Serif" font-size="10.00" fill="#000000">Object&lt; ConcreteObject, Polymorphic</text>
<text text-anchor="middle" x="629.5" y="-104" font-family="Helvetica,sans-Serif" font-size="10.00" fill="#000000">Base &gt;</text>
</a>
</g>
</g>
<!-- Node11&#45;&gt;Node14 -->
<g id="edge12" class="edge">
<title>Node11&#45;&gt;Node14</title>
<path fill="none" stroke="#ffa500" stroke-dasharray="5,2" d="M346.4094,-88.0008C396.6706,-87.1896 456.9862,-87.9856 511,-93.5 519.5617,-94.3741 528.4204,-95.5838 537.2615,-96.9992"/>
<polygon fill="#ffa500" stroke="#ffa500" points="346.1033,-84.5057 336.1699,-88.1903 346.233,-91.5045 346.1033,-84.5057"/>
<text text-anchor="start" x="354" y="-107.5" font-family="Helvetica,sans-Serif" font-size="10.00" fill="#000000"> &lt; ConcreteObject, Polymorphic</text>
<text text-anchor="middle" x="432.5" y="-96.5" font-family="Helvetica,sans-Serif" font-size="10.00" fill="#000000">Base &gt;</text>
</g>
<!-- Node21 -->
<g id="node17" class="node">
<title>Node21</title>
<g id="a_node17"><a xlink:href="classgko_1_1EnableAbstractPolymorphicObject.html" target="_top" xlink:title=" ">
<polygon fill="#ffffff" stroke="#000000" points="531,-161 531,-202 728,-202 728,-161 531,-161"/>
<text text-anchor="start" x="539" y="-190" font-family="Helvetica,sans-Serif" font-size="10.00" fill="#000000">gko::EnableAbstractPolymorphic</text>
<text text-anchor="start" x="539" y="-179" font-family="Helvetica,sans-Serif" font-size="10.00" fill="#000000">Object&lt; ConcreteLinOp, Polymorphic</text>
<text text-anchor="middle" x="629.5" y="-168" font-family="Helvetica,sans-Serif" font-size="10.00" fill="#000000">Base &gt;</text>
</a>
</g>
</g>
<!-- Node11&#45;&gt;Node21 -->
<g id="edge22" class="edge">
<title>Node11&#45;&gt;Node21</title>
<path fill="none" stroke="#ffa500" stroke-dasharray="5,2" d="M337.372,-115.2595C399.5774,-129.3647 478.8209,-147.3333 539.0758,-160.9962"/>
<polygon fill="#ffa500" stroke="#ffa500" points="338.0667,-111.8283 327.5403,-113.0301 336.5187,-118.655 338.0667,-111.8283"/>
<text text-anchor="start" x="356" y="-167.5" font-family="Helvetica,sans-Serif" font-size="10.00" fill="#000000"> &lt; ConcreteLinOp, Polymorphic</text>
<text text-anchor="middle" x="432.5" y="-156.5" font-family="Helvetica,sans-Serif" font-size="10.00" fill="#000000">Base &gt;</text>
</g>
<!-- Node12 -->
<g id="node8" class="node">
<title>Node12</title>
<g id="a_node8"><a xlink:title=" ">
<polygon fill="#ffffff" stroke="#bfbfbf" points="0,-165 0,-184 101,-184 101,-165 0,-165"/>
<text text-anchor="middle" x="50.5" y="-172" font-family="Helvetica,sans-Serif" font-size="10.00" fill="#000000">PolymorphicBase</text>
</a>
</g>
</g>
<!-- Node12&#45;&gt;Node11 -->
<g id="edge7" class="edge">
<title>Node12&#45;&gt;Node11</title>
<path fill="none" stroke="#191970" d="M81.6749,-160.7931C111.2807,-147.7761 156.181,-128.0344 190.1047,-113.1189"/>
<polygon fill="#191970" stroke="#191970" points="80.0044,-157.7041 72.2589,-164.9331 82.8219,-164.1121 80.0044,-157.7041"/>
</g>
<!-- Node12&#45;&gt;Node14 -->
<g id="edge11" class="edge">
<title>Node12&#45;&gt;Node14</title>
<path fill="none" stroke="#191970" d="M111.4303,-180.8542C200.6787,-188.3335 371.4922,-195.6797 511,-160.5 519.6728,-158.313 520.7442,-154.9413 529,-151.5 540.306,-146.7873 552.5197,-142.2287 564.4067,-138.0622"/>
<polygon fill="#191970" stroke="#191970" points="111.4851,-177.3458 101.2198,-179.9678 110.8796,-184.3196 111.4851,-177.3458"/>
</g>
<!-- Node12&#45;&gt;Node21 -->
<g id="edge21" class="edge">
<title>Node12&#45;&gt;Node21</title>
<path fill="none" stroke="#191970" d="M100.0089,-185.844C106.37,-186.9398 112.8183,-187.8748 119,-188.5 292.3378,-206.0321 336.8536,-193.6391 511,-188.5 517.4889,-188.3085 524.1751,-188.0582 530.9118,-187.7663"/>
<polygon fill="#191970" stroke="#191970" points="100.6063,-182.3952 90.1355,-184.0111 99.3286,-189.2776 100.6063,-182.3952"/>
</g>
<!-- Node13 -->
<g id="node9" class="node">
<title>Node13</title>
<g id="a_node9"><a xlink:href="classgko_1_1EnablePolymorphicObject.html" target="_top" xlink:title="This mixin inherits from (a subclass of) PolymorphicObject and provides a base implementation of a ne...">
<polygon fill="#ffffff" stroke="#000000" points="917,-102.5 917,-132.5 1122,-132.5 1122,-102.5 917,-102.5"/>
<text text-anchor="start" x="925" y="-120.5" font-family="Helvetica,sans-Serif" font-size="10.00" fill="#000000">gko::EnablePolymorphicObject</text>
<text text-anchor="middle" x="1019.5" y="-109.5" font-family="Helvetica,sans-Serif" font-size="10.00" fill="#000000">&lt; ConcreteObject, PolymorphicBase &gt;</text>
</a>
</g>
</g>
<!-- Node13&#45;&gt;Node3 -->
<g id="edge9" class="edge">
<title>Node13&#45;&gt;Node3</title>
<path fill="none" stroke="#ffa500" stroke-dasharray="5,2" d="M1132.4943,-118.7889C1235.6275,-120.5566 1392.2183,-124.7229 1528,-134.5 1587.5196,-138.7858 1654.4407,-145.7183 1705.7504,-151.4854"/>
<polygon fill="#ffa500" stroke="#ffa500" points="1132.4289,-115.2874 1122.3719,-118.6201 1132.3122,-122.2864 1132.4289,-115.2874"/>
<text text-anchor="start" x="1373" y="-148.5" font-family="Helvetica,sans-Serif" font-size="10.00" fill="#000000"> &lt; Sellp&lt; ValueType,</text>
<text text-anchor="middle" x="1427.5" y="-137.5" font-family="Helvetica,sans-Serif" font-size="10.00" fill="#000000"> IndexType &gt;, LinOp &gt;</text>
</g>
<!-- Node20 -->
<g id="node16" class="node">
<title>Node20</title>
<g id="a_node16"><a xlink:href="classgko_1_1EnablePolymorphicObject.html" target="_top" xlink:title=" ">
<polygon fill="#ffffff" stroke="#000000" points="1327,-166.5 1327,-196.5 1528,-196.5 1528,-166.5 1327,-166.5"/>
<text text-anchor="start" x="1335" y="-184.5" font-family="Helvetica,sans-Serif" font-size="10.00" fill="#000000">gko::EnablePolymorphicObject</text>
<text text-anchor="middle" x="1427.5" y="-173.5" font-family="Helvetica,sans-Serif" font-size="10.00" fill="#000000">&lt; ConcreteLinOp, PolymorphicBase &gt;</text>
</a>
</g>
</g>
<!-- Node13&#45;&gt;Node20 -->
<g id="edge23" class="edge">
<title>Node13&#45;&gt;Node20</title>
<path fill="none" stroke="#ffa500" stroke-dasharray="5,2" d="M1132.3118,-123.1935C1186.1661,-127.2369 1251.2999,-134.063 1309,-145.5 1334.731,-150.6003 1362.8499,-159.0154 1385.2369,-166.4275"/>
<polygon fill="#ffa500" stroke="#ffa500" points="1132.2726,-119.6815 1122.0448,-122.4459 1131.7642,-126.663 1132.2726,-119.6815"/>
<text text-anchor="start" x="1148" y="-159.5" font-family="Helvetica,sans-Serif" font-size="10.00" fill="#000000"> &lt; ConcreteLinOp, Polymorphic</text>
<text text-anchor="middle" x="1224.5" y="-148.5" font-family="Helvetica,sans-Serif" font-size="10.00" fill="#000000">Base &gt;</text>
</g>
<!-- Node14&#45;&gt;Node13 -->
<g id="edge10" class="edge">
<title>Node14&#45;&gt;Node13</title>
<path fill="none" stroke="#191970" d="M740.4069,-117.5C795.8628,-117.5 862.5426,-117.5 916.818,-117.5"/>
<polygon fill="#191970" stroke="#191970" points="740.1882,-114.0001 730.1882,-117.5 740.1882,-121.0001 740.1882,-114.0001"/>
</g>
<!-- Node15 -->
<g id="node11" class="node">
<title>Node15</title>
<g id="a_node11"><a xlink:href="classgko_1_1EnablePolymorphicAssignment.html" target="_top" xlink:title=" ">
<polygon fill="#ffffff" stroke="#000000" points="1331.5,-246.5 1331.5,-276.5 1523.5,-276.5 1523.5,-246.5 1331.5,-246.5"/>
<text text-anchor="start" x="1339.5" y="-264.5" font-family="Helvetica,sans-Serif" font-size="10.00" fill="#000000">gko::EnablePolymorphicAssignment</text>
<text text-anchor="middle" x="1427.5" y="-253.5" font-family="Helvetica,sans-Serif" font-size="10.00" fill="#000000">&lt; Sellp&lt; ValueType, IndexType &gt; &gt;</text>
</a>
</g>
</g>
<!-- Node15&#45;&gt;Node2 -->
<g id="edge13" class="edge">
<title>Node15&#45;&gt;Node2</title>
<path fill="none" stroke="#191970" d="M1533.7761,-266.2279C1624.2672,-270.4323 1757.7129,-277.0549 1874,-284.5 1954.4865,-289.653 2046.4947,-296.8523 2109.915,-302.0194"/>
<polygon fill="#191970" stroke="#191970" points="1533.9347,-262.7315 1523.7836,-265.7653 1533.611,-269.7241 1533.9347,-262.7315"/>
</g>
<!-- Node16 -->
<g id="node12" class="node">
<title>Node16</title>
<g id="a_node12"><a xlink:href="classgko_1_1ConvertibleTo.html" target="_top" xlink:title=" ">
<polygon fill="#ffffff" stroke="#000000" points="961.5,-210 961.5,-251 1077.5,-251 1077.5,-210 961.5,-210"/>
<text text-anchor="start" x="969.5" y="-239" font-family="Helvetica,sans-Serif" font-size="10.00" fill="#000000">gko::ConvertibleTo</text>
<text text-anchor="start" x="969.5" y="-228" font-family="Helvetica,sans-Serif" font-size="10.00" fill="#000000">&lt; Sellp&lt; ValueType,</text>
<text text-anchor="middle" x="1019.5" y="-217" font-family="Helvetica,sans-Serif" font-size="10.00" fill="#000000"> IndexType &gt; &gt;</text>
</a>
</g>
</g>
<!-- Node16&#45;&gt;Node15 -->
<g id="edge14" class="edge">
<title>Node16&#45;&gt;Node15</title>
<path fill="none" stroke="#191970" d="M1087.8996,-235.697C1154.4978,-240.7572 1256.3364,-248.4949 1331.1287,-254.1777"/>
<polygon fill="#191970" stroke="#191970" points="1087.7596,-232.1764 1077.5232,-234.9086 1087.2292,-239.1563 1087.7596,-232.1764"/>
</g>
<!-- Node17 -->
<g id="node13" class="node">
<title>Node17</title>
<g id="a_node13"><a xlink:href="classgko_1_1ConvertibleTo.html" target="_top" xlink:title="ConvertibleTo interface is used to mark that the implementer can be converted to the object of Result...">
<polygon fill="#ffffff" stroke="#000000" points="576,-346.5 576,-376.5 683,-376.5 683,-346.5 576,-346.5"/>
<text text-anchor="start" x="584" y="-364.5" font-family="Helvetica,sans-Serif" font-size="10.00" fill="#000000">gko::ConvertibleTo</text>
<text text-anchor="middle" x="629.5" y="-353.5" font-family="Helvetica,sans-Serif" font-size="10.00" fill="#000000">&lt; ResultType &gt;</text>
</a>
</g>
</g>
<!-- Node17&#45;&gt;Node16 -->
<g id="edge15" class="edge">
<title>Node17&#45;&gt;Node16</title>
<path fill="none" stroke="#ffa500" stroke-dasharray="5,2" d="M653.8934,-339.5547C676.6074,-320.3675 712.2499,-293.3207 748,-278.5 817.8633,-249.5372 904.909,-238.0412 961.3152,-233.4839"/>
<polygon fill="#ffa500" stroke="#ffa500" points="651.4315,-337.0557 646.1337,-346.2309 655.9969,-342.362 651.4315,-337.0557"/>
<text text-anchor="start" x="772" y="-292.5" font-family="Helvetica,sans-Serif" font-size="10.00" fill="#000000"> &lt; Sellp&lt; ValueType,</text>
<text text-anchor="middle" x="823.5" y="-281.5" font-family="Helvetica,sans-Serif" font-size="10.00" fill="#000000"> IndexType &gt; &gt;</text>
</g>
<!-- Node18 -->
<g id="node14" class="node">
<title>Node18</title>
<g id="a_node14"><a xlink:href="classgko_1_1EnablePolymorphicAssignment.html" target="_top" xlink:title="This mixin is used to enable a default PolymorphicObject::copy_from() implementation for objects that...">
<polygon fill="#ffffff" stroke="#000000" points="923.5,-270.5 923.5,-300.5 1115.5,-300.5 1115.5,-270.5 923.5,-270.5"/>
<text text-anchor="start" x="931.5" y="-288.5" font-family="Helvetica,sans-Serif" font-size="10.00" fill="#000000">gko::EnablePolymorphicAssignment</text>
<text text-anchor="middle" x="1019.5" y="-277.5" font-family="Helvetica,sans-Serif" font-size="10.00" fill="#000000">&lt; ConcreteType, ResultType &gt;</text>
</a>
</g>
</g>
<!-- Node17&#45;&gt;Node18 -->
<g id="edge17" class="edge">
<title>Node17&#45;&gt;Node18</title>
<path fill="none" stroke="#191970" d="M692.7185,-345.1783C710.54,-340.809 729.9813,-336.2598 748,-332.5 805.9495,-320.4081 871.3161,-309.0239 923.3877,-300.4888"/>
<polygon fill="#191970" stroke="#191970" points="691.8708,-341.7824 683.0036,-347.581 693.5515,-348.5777 691.8708,-341.7824"/>
</g>
<!-- Node23 -->
<g id="node19" class="node">
<title>Node23</title>
<g id="a_node19"><a xlink:href="classgko_1_1ConvertibleTo.html" target="_top" xlink:title=" ">
<polygon fill="#ffffff" stroke="#000000" points="964.5,-319.5 964.5,-349.5 1074.5,-349.5 1074.5,-319.5 964.5,-319.5"/>
<text text-anchor="start" x="972.5" y="-337.5" font-family="Helvetica,sans-Serif" font-size="10.00" fill="#000000">gko::ConvertibleTo</text>
<text text-anchor="middle" x="1019.5" y="-326.5" font-family="Helvetica,sans-Serif" font-size="10.00" fill="#000000">&lt; ConcreteLinOp &gt;</text>
</a>
</g>
</g>
<!-- Node17&#45;&gt;Node23 -->
<g id="edge26" class="edge">
<title>Node17&#45;&gt;Node23</title>
<path fill="none" stroke="#ffa500" stroke-dasharray="5,2" d="M693.2742,-351.7728C710.9605,-349.3797 730.1938,-347.0594 748,-345.5 822.7208,-338.9564 909.3575,-336.2978 964.2842,-335.2226"/>
<polygon fill="#ffa500" stroke="#ffa500" points="692.4884,-348.3481 683.0621,-353.185 693.4473,-355.2821 692.4884,-348.3481"/>
<text text-anchor="middle" x="823.5" y="-348.5" font-family="Helvetica,sans-Serif" font-size="10.00" fill="#000000"> &lt; ConcreteLinOp &gt;</text>
</g>
<!-- Node26 -->
<g id="node22" class="node">
<title>Node26</title>
<g id="a_node22"><a xlink:href="classgko_1_1ConvertibleTo.html" target="_top" xlink:title=" ">
<polygon fill="#ffffff" stroke="#000000" points="1141,-351 1141,-392 1308,-392 1308,-351 1141,-351"/>
<text text-anchor="start" x="1149" y="-380" font-family="Helvetica,sans-Serif" font-size="10.00" fill="#000000">gko::ConvertibleTo</text>
<text text-anchor="start" x="1149" y="-369" font-family="Helvetica,sans-Serif" font-size="10.00" fill="#000000">&lt; Sellp&lt; next_precision</text>
<text text-anchor="middle" x="1224.5" y="-358" font-family="Helvetica,sans-Serif" font-size="10.00" fill="#000000">&lt; ValueType &gt;, IndexType &gt; &gt;</text>
</a>
</g>
</g>
<!-- Node17&#45;&gt;Node26 -->
<g id="edge31" class="edge">
<title>Node17&#45;&gt;Node26</title>
<path fill="none" stroke="#ffa500" stroke-dasharray="5,2" d="M693.1908,-362.5704C801.2381,-364.3864 1020.4135,-368.07 1140.7456,-370.0924"/>
<polygon fill="#ffa500" stroke="#ffa500" points="693.146,-359.0693 683.0885,-362.4006 693.0283,-366.0683 693.146,-359.0693"/>
<text text-anchor="start" x="748" y="-379.5" font-family="Helvetica,sans-Serif" font-size="10.00" fill="#000000"> &lt; Sellp&lt; next_precision</text>
<text text-anchor="middle" x="823.5" y="-368.5" font-family="Helvetica,sans-Serif" font-size="10.00" fill="#000000">&lt; ValueType &gt;, IndexType &gt; &gt;</text>
</g>
<!-- Node27 -->
<g id="node23" class="node">
<title>Node27</title>
<g id="a_node23"><a xlink:href="classgko_1_1ConvertibleTo.html" target="_top" xlink:title=" ">
<polygon fill="#ffffff" stroke="#000000" points="1546,-443.5 1546,-473.5 1688,-473.5 1688,-443.5 1546,-443.5"/>
<text text-anchor="start" x="1554" y="-461.5" font-family="Helvetica,sans-Serif" font-size="10.00" fill="#000000">gko::ConvertibleTo</text>
<text text-anchor="middle" x="1617" y="-450.5" font-family="Helvetica,sans-Serif" font-size="10.00" fill="#000000">&lt; Dense&lt; ValueType &gt; &gt;</text>
</a>
</g>
</g>
<!-- Node17&#45;&gt;Node27 -->
<g id="edge33" class="edge">
<title>Node17&#45;&gt;Node27</title>
<path fill="none" stroke="#ffa500" stroke-dasharray="5,2" d="M656.8571,-382.7582C679.7833,-399.206 714.1174,-420.7662 748,-430.5 1034.1669,-512.7106 1395.2561,-484.8565 1545.9189,-467.7421"/>
<polygon fill="#ffa500" stroke="#ffa500" points="658.787,-379.8331 648.6537,-376.74 654.6464,-385.4772 658.787,-379.8331"/>
<text text-anchor="middle" x="1019.5" y="-487.5" font-family="Helvetica,sans-Serif" font-size="10.00" fill="#000000"> &lt; Dense&lt; ValueType &gt; &gt;</text>
</g>
<!-- Node28 -->
<g id="node24" class="node">
<title>Node28</title>
<g id="a_node24"><a xlink:href="classgko_1_1ConvertibleTo.html" target="_top" xlink:title=" ">
<polygon fill="#ffffff" stroke="#000000" points="1892,-400.5 1892,-430.5 2074,-430.5 2074,-400.5 1892,-400.5"/>
<text text-anchor="start" x="1900" y="-418.5" font-family="Helvetica,sans-Serif" font-size="10.00" fill="#000000">gko::ConvertibleTo</text>
<text text-anchor="middle" x="1983" y="-407.5" font-family="Helvetica,sans-Serif" font-size="10.00" fill="#000000">&lt; Csr&lt; ValueType, IndexType &gt; &gt;</text>
</a>
</g>
</g>
<!-- Node17&#45;&gt;Node28 -->
<g id="edge35" class="edge">
<title>Node17&#45;&gt;Node28</title>
<path fill="none" stroke="#ffa500" stroke-dasharray="5,2" d="M691.4742,-379.1301C709.5724,-383.7497 729.4693,-388.3212 748,-391.5 867.4326,-411.9877 898.3229,-416.5 1019.5,-416.5 1019.5,-416.5 1019.5,-416.5 1617,-416.5 1710.5655,-416.5 1817.5851,-416.1692 1891.6252,-415.8881"/>
<polygon fill="#ffa500" stroke="#ffa500" points="692.1839,-375.6982 681.6248,-376.5672 690.4212,-382.4727 692.1839,-375.6982"/>
<text text-anchor="middle" x="1224.5" y="-419.5" font-family="Helvetica,sans-Serif" font-size="10.00" fill="#000000"> &lt; Csr&lt; ValueType, IndexType &gt; &gt;</text>
</g>
<!-- Node18&#45;&gt;Node15 -->
<g id="edge16" class="edge">
<title>Node18&#45;&gt;Node15</title>
<path fill="none" stroke="#ffa500" stroke-dasharray="5,2" d="M1105.0086,-268.8415C1116.7265,-267.0737 1128.6329,-265.5429 1140,-264.5 1203.6252,-258.6628 1275.5002,-257.9128 1331.4689,-258.6221"/>
<polygon fill="#ffa500" stroke="#ffa500" points="1104.113,-265.4392 1094.7779,-270.4498 1105.2001,-272.3543 1104.113,-265.4392"/>
<text text-anchor="start" x="1173" y="-278.5" font-family="Helvetica,sans-Serif" font-size="10.00" fill="#000000"> &lt; Sellp&lt; ValueType,</text>
<text text-anchor="middle" x="1224.5" y="-267.5" font-family="Helvetica,sans-Serif" font-size="10.00" fill="#000000"> IndexType &gt; &gt;</text>
</g>
<!-- Node22 -->
<g id="node18" class="node">
<title>Node22</title>
<g id="a_node18"><a xlink:href="classgko_1_1EnablePolymorphicAssignment.html" target="_top" xlink:title=" ">
<polygon fill="#ffffff" stroke="#000000" points="1331.5,-296.5 1331.5,-326.5 1523.5,-326.5 1523.5,-296.5 1331.5,-296.5"/>
<text text-anchor="start" x="1339.5" y="-314.5" font-family="Helvetica,sans-Serif" font-size="10.00" fill="#000000">gko::EnablePolymorphicAssignment</text>
<text text-anchor="middle" x="1427.5" y="-303.5" font-family="Helvetica,sans-Serif" font-size="10.00" fill="#000000">&lt; ConcreteLinOp &gt;</text>
</a>
</g>
</g>
<!-- Node18&#45;&gt;Node22 -->
<g id="edge27" class="edge">
<title>Node18&#45;&gt;Node22</title>
<path fill="none" stroke="#ffa500" stroke-dasharray="5,2" d="M1125.7328,-292.2697C1189.3309,-296.3226 1269.5326,-301.4334 1331.2658,-305.3674"/>
<polygon fill="#ffa500" stroke="#ffa500" points="1125.876,-288.7719 1115.6737,-291.6287 1125.4308,-295.7577 1125.876,-288.7719"/>
<text text-anchor="middle" x="1224.5" y="-306.5" font-family="Helvetica,sans-Serif" font-size="10.00" fill="#000000"> &lt; ConcreteLinOp &gt;</text>
</g>
<!-- Node19 -->
<g id="node15" class="node">
<title>Node19</title>
<g id="a_node15"><a xlink:href="classgko_1_1EnableLinOp.html" target="_top" xlink:title="The EnableLinOp mixin can be used to provide sensible default implementations of the majority of the ...">
<polygon fill="#ffffff" stroke="#000000" points="1712,-293.5 1712,-323.5 1868,-323.5 1868,-293.5 1712,-293.5"/>
<text text-anchor="start" x="1720" y="-311.5" font-family="Helvetica,sans-Serif" font-size="10.00" fill="#000000">gko::EnableLinOp&lt; Concrete</text>
<text text-anchor="middle" x="1790" y="-300.5" font-family="Helvetica,sans-Serif" font-size="10.00" fill="#000000">LinOp, PolymorphicBase &gt;</text>
</a>
</g>
</g>
<!-- Node19&#45;&gt;Node2 -->
<g id="edge18" class="edge">
<title>Node19&#45;&gt;Node2</title>
<path fill="none" stroke="#ffa500" stroke-dasharray="5,2" d="M1878.1047,-308.5C1947.5377,-308.5 2043.4123,-308.5 2109.9582,-308.5"/>
<polygon fill="#ffa500" stroke="#ffa500" points="1878.059,-305.0001 1868.0589,-308.5 1878.0589,-312.0001 1878.059,-305.0001"/>
<text text-anchor="start" x="1931.5" y="-322.5" font-family="Helvetica,sans-Serif" font-size="10.00" fill="#000000"> &lt; Sellp&lt; ValueType,</text>
<text text-anchor="middle" x="1983" y="-311.5" font-family="Helvetica,sans-Serif" font-size="10.00" fill="#000000"> IndexType &gt; &gt;</text>
</g>
<!-- Node20&#45;&gt;Node19 -->
<g id="edge19" class="edge">
<title>Node20&#45;&gt;Node19</title>
<path fill="none" stroke="#191970" d="M1480.3042,-199.9997C1552.4502,-225.2756 1680.451,-270.1201 1747.0489,-293.4523"/>
<polygon fill="#191970" stroke="#191970" points="1481.1019,-196.5706 1470.507,-196.5673 1478.7873,-203.1769 1481.1019,-196.5706"/>
</g>
<!-- Node21&#45;&gt;Node20 -->
<g id="edge20" class="edge">
<title>Node21&#45;&gt;Node20</title>
<path fill="none" stroke="#191970" d="M738.1848,-181.5C893.3648,-181.5 1176.2677,-181.5 1326.8777,-181.5"/>
<polygon fill="#191970" stroke="#191970" points="738.1509,-178.0001 728.1508,-181.5 738.1508,-185.0001 738.1509,-178.0001"/>
</g>
<!-- Node22&#45;&gt;Node19 -->
<g id="edge24" class="edge">
<title>Node22&#45;&gt;Node19</title>
<path fill="none" stroke="#191970" d="M1533.8316,-310.62C1590.8821,-310.1479 1659.9505,-309.5763 1711.9868,-309.1456"/>
<polygon fill="#191970" stroke="#191970" points="1533.6623,-307.1212 1523.6916,-310.7039 1533.7203,-314.121 1533.6623,-307.1212"/>
</g>
<!-- Node23&#45;&gt;Node22 -->
<g id="edge25" class="edge">
<title>Node23&#45;&gt;Node22</title>
<path fill="none" stroke="#191970" d="M1084.9962,-331.8466C1143.691,-329.3463 1232.1298,-325.2769 1309,-320.5 1316.3103,-320.0457 1323.8719,-319.5444 1331.4745,-319.0177"/>
<polygon fill="#191970" stroke="#191970" points="1084.5976,-328.3602 1074.7544,-332.2798 1084.8934,-335.354 1084.5976,-328.3602"/>
</g>
<!-- Node24 -->
<g id="node20" class="node">
<title>Node24</title>
<g id="a_node20"><a xlink:href="classgko_1_1EnableCreateMethod.html" target="_top" xlink:title=" ">
<polygon fill="#ffffff" stroke="#000000" points="2092,-244.5 2092,-274.5 2283,-274.5 2283,-244.5 2092,-244.5"/>
<text text-anchor="start" x="2100" y="-262.5" font-family="Helvetica,sans-Serif" font-size="10.00" fill="#000000">gko::EnableCreateMethod</text>
<text text-anchor="middle" x="2187.5" y="-251.5" font-family="Helvetica,sans-Serif" font-size="10.00" fill="#000000">&lt; Sellp&lt; ValueType, IndexType &gt; &gt;</text>
</a>
</g>
</g>
<!-- Node24&#45;&gt;Node1 -->
<g id="edge28" class="edge">
<title>Node24&#45;&gt;Node1</title>
<path fill="none" stroke="#191970" d="M2293.3253,-275.0245C2302.3248,-276.3447 2311.2873,-277.6595 2319.9335,-278.9279"/>
<polygon fill="#191970" stroke="#191970" points="2293.5659,-271.5224 2283.1637,-273.5338 2292.5498,-278.4483 2293.5659,-271.5224"/>
</g>
<!-- Node25 -->
<g id="node21" class="node">
<title>Node25</title>
<g id="a_node21"><a xlink:href="classgko_1_1EnableCreateMethod.html" target="_top" xlink:title="This mixin implements a static create() method on ConcreteType that dynamically allocates the memory,...">
<polygon fill="#ffffff" stroke="#000000" points="1719,-91.5 1719,-121.5 1861,-121.5 1861,-91.5 1719,-91.5"/>
<text text-anchor="start" x="1727" y="-109.5" font-family="Helvetica,sans-Serif" font-size="10.00" fill="#000000">gko::EnableCreateMethod</text>
<text text-anchor="middle" x="1790" y="-98.5" font-family="Helvetica,sans-Serif" font-size="10.00" fill="#000000">&lt; ConcreteType &gt;</text>
</a>
</g>
</g>
<!-- Node25&#45;&gt;Node24 -->
<g id="edge29" class="edge">
<title>Node25&#45;&gt;Node24</title>
<path fill="none" stroke="#ffa500" stroke-dasharray="5,2" d="M1871.1667,-94.8142C1934.5621,-90.5423 2020.591,-96.1845 2074,-146.5 2103.3743,-174.1729 2064.1371,-206.3058 2092,-235.5 2095.1868,-238.8391 2098.7637,-241.7408 2102.613,-244.2602"/>
<polygon fill="#ffa500" stroke="#ffa500" points="1870.8977,-91.3245 1861.1949,-95.5796 1871.4335,-98.3039 1870.8977,-91.3245"/>
<text text-anchor="start" x="1931.5" y="-160.5" font-family="Helvetica,sans-Serif" font-size="10.00" fill="#000000"> &lt; Sellp&lt; ValueType,</text>
<text text-anchor="middle" x="1983" y="-149.5" font-family="Helvetica,sans-Serif" font-size="10.00" fill="#000000"> IndexType &gt; &gt;</text>
</g>
<!-- Node26&#45;&gt;Node1 -->
<g id="edge30" class="edge">
<title>Node26&#45;&gt;Node1</title>
<path fill="none" stroke="#191970" d="M1318.8101,-368.875C1398.3114,-366.8884 1515.0863,-364.5 1617,-364.5 1617,-364.5 1617,-364.5 2187.5,-364.5 2256.3249,-364.5 2330.6502,-326.5926 2367.8688,-304.6774"/>
<polygon fill="#191970" stroke="#191970" points="1318.2402,-365.3882 1308.3319,-369.1399 1318.4172,-372.3859 1318.2402,-365.3882"/>
</g>
<!-- Node27&#45;&gt;Node1 -->
<g id="edge32" class="edge">
<title>Node27&#45;&gt;Node1</title>
<path fill="none" stroke="#191970" d="M1698.2017,-473.8947C1829.6652,-494.5509 2093.4748,-517.983 2283,-417.5 2332.5123,-391.2494 2369.0686,-332.3747 2384.2523,-304.578"/>
<polygon fill="#191970" stroke="#191970" points="1698.6287,-470.4185 1688.2001,-472.2882 1697.5185,-477.3299 1698.6287,-470.4185"/>
</g>
<!-- Node28&#45;&gt;Node1 -->
<g id="edge34" class="edge">
<title>Node28&#45;&gt;Node1</title>
<path fill="none" stroke="#191970" d="M2084.6047,-420.3427C2149.7128,-419.5295 2234.3744,-410.9704 2302,-378.5 2337.2609,-361.5695 2366.9985,-325.1551 2381.8464,-304.5368"/>
<polygon fill="#191970" stroke="#191970" points="2084.3058,-416.8445 2074.3287,-420.4092 2084.3512,-423.8443 2084.3058,-416.8445"/>
</g>
<!-- Node29 -->
<g id="node25" class="node">
<title>Node29</title>
<g id="a_node25"><a xlink:href="classgko_1_1DiagonalExtractable.html" target="_top" xlink:title="The diagonal of a LinOp implementing this interface can be extracted.">
<polygon fill="#ffffff" stroke="#000000" points="2117.5,-195.5 2117.5,-225.5 2257.5,-225.5 2257.5,-195.5 2117.5,-195.5"/>
<text text-anchor="start" x="2125.5" y="-213.5" font-family="Helvetica,sans-Serif" font-size="10.00" fill="#000000">gko::DiagonalExtractable</text>
<text text-anchor="middle" x="2187.5" y="-202.5" font-family="Helvetica,sans-Serif" font-size="10.00" fill="#000000">&lt; ValueType &gt;</text>
</a>
</g>
</g>
<!-- Node29&#45;&gt;Node1 -->
<g id="edge36" class="edge">
<title>Node29&#45;&gt;Node1</title>
<path fill="none" stroke="#191970" d="M2262.0305,-228.4242C2269.1791,-230.6172 2276.2682,-232.9815 2283,-235.5 2312.076,-246.3781 2343.7003,-262.5686 2365.3592,-274.3838"/>
<polygon fill="#191970" stroke="#191970" points="2262.8552,-225.0184 2252.2733,-225.5416 2260.8719,-231.7316 2262.8552,-225.0184"/>
</g>
<!-- Node30 -->
<g id="node26" class="node">
<title>Node30</title>
<g id="a_node26"><a xlink:href="classgko_1_1ReadableFromMatrixData.html" target="_top" xlink:title="A LinOp implementing this interface can read its data from a matrix_data structure.">
<polygon fill="#ffffff" stroke="#000000" points="2105.5,-146.5 2105.5,-176.5 2269.5,-176.5 2269.5,-146.5 2105.5,-146.5"/>
<text text-anchor="start" x="2113.5" y="-164.5" font-family="Helvetica,sans-Serif" font-size="10.00" fill="#000000">gko::ReadableFromMatrixData</text>
<text text-anchor="middle" x="2187.5" y="-153.5" font-family="Helvetica,sans-Serif" font-size="10.00" fill="#000000">&lt; ValueType, IndexType &gt;</text>
</a>
</g>
</g>
<!-- Node30&#45;&gt;Node1 -->
<g id="edge37" class="edge">
<title>Node30&#45;&gt;Node1</title>
<path fill="none" stroke="#191970" d="M2270.0274,-180.2085C2274.5065,-182.1128 2278.8624,-184.2042 2283,-186.5 2324.4344,-209.4904 2362.0464,-251.8508 2380.3286,-274.4195"/>
<polygon fill="#191970" stroke="#191970" points="2271.2791,-176.9399 2260.6912,-176.5566 2268.7292,-183.4589 2271.2791,-176.9399"/>
</g>
<!-- Node31 -->
<g id="node27" class="node">
<title>Node31</title>
<g id="a_node27"><a xlink:href="classgko_1_1WritableToMatrixData.html" target="_top" xlink:title="A LinOp implementing this interface can write its data to a matrix_data structure.">
<polygon fill="#ffffff" stroke="#000000" points="2114.5,-97.5 2114.5,-127.5 2260.5,-127.5 2260.5,-97.5 2114.5,-97.5"/>
<text text-anchor="start" x="2122.5" y="-115.5" font-family="Helvetica,sans-Serif" font-size="10.00" fill="#000000">gko::WritableToMatrixData</text>
<text text-anchor="middle" x="2187.5" y="-104.5" font-family="Helvetica,sans-Serif" font-size="10.00" fill="#000000">&lt; ValueType, IndexType &gt;</text>
</a>
</g>
</g>
<!-- Node31&#45;&gt;Node1 -->
<g id="edge38" class="edge">
<title>Node31&#45;&gt;Node1</title>
<path fill="none" stroke="#191970" d="M2270.1791,-129.1656C2274.6644,-131.3202 2278.9761,-133.753 2283,-136.5 2335.7944,-172.5409 2371.6412,-243.08 2385.5443,-274.1654"/>
<polygon fill="#191970" stroke="#191970" points="2271.3344,-125.8527 2260.7648,-125.1224 2268.5721,-132.2846 2271.3344,-125.8527"/>
</g>
</g>
</svg>
        <g id="navigator" transform="translate(0 0)" fill="#404254">
                <rect fill="#f2f5e9" fill-opacity="0.5" stroke="#606060" stroke-width=".5" x="0" y="0" width="60" height="60"/>
                <use id="zoomplus" xlink:href="#zoomPlus" x="17" y="9" onmousedown="handleZoom(evt,'in')"/>
                <use id="zoomminus" xlink:href="#zoomMin" x="42" y="9" onmousedown="handleZoom(evt,'out')"/>
                <use id="reset" xlink:href="#resetDef" x="30" y="36" onmousedown="handleReset()"/>
                <g id="arrowUp" xlink:href="#dirArrow" transform="translate(30 24)" onmousedown="handlePan(0,-1)">
                  <use xlink:href="#rim" fill="#404040">
                        <set attributeName="fill" to="#808080" begin="arrowUp.mouseover" end="arrowUp.mouseout"/>
                  </use>
                  <path fill="none" stroke="white" stroke-width="1.5" d="M0,-3.0v7 M-2.5,-0.5L0,-3.0L2.5,-0.5"/>
                </g>
                <g id="arrowRight" xlink:href="#dirArrow" transform="rotate(90) translate(36 -43)" onmousedown="handlePan(1,0)">
                  <use xlink:href="#rim" fill="#404040">
                        <set attributeName="fill" to="#808080" begin="arrowRight.mouseover" end="arrowRight.mouseout"/>
                  </use>
                  <path fill="none" stroke="white" stroke-width="1.5" d="M0,-3.0v7 M-2.5,-0.5L0,-3.0L2.5,-0.5"/>
                </g>
                <g id="arrowDown" xlink:href="#dirArrow" transform="rotate(180) translate(-30 -48)" onmousedown="handlePan(0,1)">
                  <use xlink:href="#rim" fill="#404040">
                        <set attributeName="fill" to="#808080" begin="arrowDown.mouseover" end="arrowDown.mouseout"/>
                  </use>
                  <path fill="none" stroke="white" stroke-width="1.5" d="M0,-3.0v7 M-2.5,-0.5L0,-3.0L2.5,-0.5"/>
                </g>
                <g id="arrowLeft" xlink:href="#dirArrow" transform="rotate(270) translate(-36 17)" onmousedown="handlePan(-1,0)">
                  <use xlink:href="#rim" fill="#404040">
                        <set attributeName="fill" to="#808080" begin="arrowLeft.mouseover" end="arrowLeft.mouseout"/>
                  </use>
                  <path fill="none" stroke="white" stroke-width="1.5" d="M0,-3.0v7 M-2.5,-0.5L0,-3.0L2.5,-0.5"/>
                </g>
        </g>
        <svg viewBox="0 0 15 15" width="100%" height="30px" preserveAspectRatio="xMaxYMin meet">
         <g id="arrow_out" transform="scale(0.3 0.3)">
          <a xlink:href="classgko_1_1matrix_1_1Sellp__coll__graph_org.svg" target="_base">
           <rect id="button" ry="5" rx="5" y="6" x="6" height="38" width="38"
                fill="#f2f5e9" fill-opacity="0.5" stroke="#606060" stroke-width="1.0"/>
           <path id="arrow"
             d="M 11.500037,31.436501 C 11.940474,20.09759 22.043105,11.32322 32.158766,21.979434 L 37.068811,17.246167 C 37.068811,17.246167 37.088388,32 37.088388,32 L 22.160133,31.978069 C 22.160133,31.978069 26.997745,27.140456 26.997745,27.140456 C 18.528582,18.264221 13.291696,25.230495 11.500037,31.436501 z"
             style="fill:#404040;"/>
          </a>
         </g>
        </svg>
</svg>
