<?xml version="1.0" encoding="UTF-8" standalone="no"?>
<!DOCTYPE svg PUBLIC "-//W3C//DTD SVG 1.1//EN"
 "http://www.w3.org/Graphics/SVG/1.1/DTD/svg11.dtd">
<!-- Generated by graphviz version 2.40.1 (20161225.0304)
 -->
<!-- Title: gko::matrix::Ell&lt; ValueType, IndexType &gt; Pages: 1 -->
<svg width="2501pt" height="533pt"
 viewBox="0.00 0.00 2501.00 533.00" xmlns="http://www.w3.org/2000/svg" xmlns:xlink="http://www.w3.org/1999/xlink">
<g id="graph0" class="graph" transform="scale(1 1) rotate(0) translate(4 529)">
<title>gko::matrix::Ell&lt; ValueType, IndexType &gt;</title>
<polygon fill="#ffffff" stroke="transparent" points="-4,4 -4,-529 2497,-529 2497,4 -4,4"/>
<!-- Node0 -->
<g id="node1" class="node">
<title>Node0</title>
<polygon fill="#bfbfbf" stroke="#000000" points="2338,-105.5 2338,-135.5 2493,-135.5 2493,-105.5 2338,-105.5"/>
<text text-anchor="start" x="2346" y="-123.5" font-family="Helvetica,sans-Serif" font-size="10.00" fill="#000000">gko::matrix::Ell&lt; ValueType,</text>
<text text-anchor="middle" x="2415.5" y="-112.5" font-family="Helvetica,sans-Serif" font-size="10.00" fill="#000000"> IndexType &gt;</text>
</g>
<!-- Node1 -->
<g id="node2" class="node">
<title>Node1</title>
<g id="a_node2"><a xlink:href="classgko_1_1EnableLinOp.html" target="_top" xlink:title="gko::EnableLinOp\&lt; Ell\l\&lt; ValueType, IndexType \&gt; \&gt;">
<polygon fill="#ffffff" stroke="#000000" points="2134,-240.5 2134,-270.5 2289,-270.5 2289,-240.5 2134,-240.5"/>
<text text-anchor="start" x="2142" y="-258.5" font-family="Helvetica,sans-Serif" font-size="10.00" fill="#000000">gko::EnableLinOp&lt; Ell</text>
<text text-anchor="middle" x="2211.5" y="-247.5" font-family="Helvetica,sans-Serif" font-size="10.00" fill="#000000">&lt; ValueType, IndexType &gt; &gt;</text>
</a>
</g>
</g>
<!-- Node1&#45;&gt;Node0 -->
<g id="edge1" class="edge">
<title>Node1&#45;&gt;Node0</title>
<path fill="none" stroke="#191970" d="M2267.4808,-236.7769C2284.9732,-229.7647 2303.8944,-220.9247 2320,-210.5 2353.2783,-188.9599 2385.4375,-155.1231 2402.6252,-135.6564"/>
<polygon fill="#191970" stroke="#191970" points="2265.9917,-233.6004 2257.9368,-240.4829 2268.5256,-240.1257 2265.9917,-233.6004"/>
</g>
<!-- Node2 -->
<g id="node3" class="node">
<title>Node2</title>
<g id="a_node3"><a xlink:href="classgko_1_1EnablePolymorphicObject.html" target="_top" xlink:title="gko::EnablePolymorphicObject\l\&lt; Ell\&lt; ValueType, IndexType\l \&gt;, LinOp \&gt;">
<polygon fill="#ffffff" stroke="#000000" points="1754,-391 1754,-432 1920,-432 1920,-391 1754,-391"/>
<text text-anchor="start" x="1762" y="-420" font-family="Helvetica,sans-Serif" font-size="10.00" fill="#000000">gko::EnablePolymorphicObject</text>
<text text-anchor="start" x="1762" y="-409" font-family="Helvetica,sans-Serif" font-size="10.00" fill="#000000">&lt; Ell&lt; ValueType, IndexType</text>
<text text-anchor="middle" x="1837" y="-398" font-family="Helvetica,sans-Serif" font-size="10.00" fill="#000000"> &gt;, LinOp &gt;</text>
</a>
</g>
</g>
<!-- Node2&#45;&gt;Node1 -->
<g id="edge2" class="edge">
<title>Node2&#45;&gt;Node1</title>
<path fill="none" stroke="#191970" d="M1895.5996,-387.09C1973.9266,-354.4625 2110.3932,-297.6166 2175.2587,-270.5965"/>
<polygon fill="#191970" stroke="#191970" points="1894.2297,-383.8691 1886.3444,-390.9453 1896.9214,-390.3309 1894.2297,-383.8691"/>
</g>
<!-- Node3 -->
<g id="node4" class="node">
<title>Node3</title>
<g id="a_node4"><a xlink:href="classgko_1_1EnableAbstractPolymorphicObject.html" target="_top" xlink:title="gko::EnableAbstractPolymorphic\lObject\&lt; Ell\&lt; ValueType, IndexType\l \&gt;, LinOp \&gt;">
<polygon fill="#ffffff" stroke="#000000" points="1341.5,-452 1341.5,-493 1529.5,-493 1529.5,-452 1341.5,-452"/>
<text text-anchor="start" x="1349.5" y="-481" font-family="Helvetica,sans-Serif" font-size="10.00" fill="#000000">gko::EnableAbstractPolymorphic</text>
<text text-anchor="start" x="1349.5" y="-470" font-family="Helvetica,sans-Serif" font-size="10.00" fill="#000000">Object&lt; Ell&lt; ValueType, IndexType</text>
<text text-anchor="middle" x="1435.5" y="-459" font-family="Helvetica,sans-Serif" font-size="10.00" fill="#000000"> &gt;, LinOp &gt;</text>
</a>
</g>
</g>
<!-- Node3&#45;&gt;Node2 -->
<g id="edge3" class="edge">
<title>Node3&#45;&gt;Node2</title>
<path fill="none" stroke="#191970" d="M1539.7403,-456.6627C1606.3559,-446.5418 1691.5767,-433.5942 1753.6776,-424.1592"/>
<polygon fill="#191970" stroke="#191970" points="1538.9947,-453.2358 1529.6339,-458.1982 1540.0462,-460.1564 1538.9947,-453.2358"/>
</g>
<!-- Node4 -->
<g id="node5" class="node">
<title>Node4</title>
<g id="a_node5"><a xlink:href="classgko_1_1LinOp.html" target="_top" xlink:title="gko::LinOp">
<polygon fill="#ffffff" stroke="#000000" points="996.5,-496 996.5,-515 1064.5,-515 1064.5,-496 996.5,-496"/>
<text text-anchor="middle" x="1030.5" y="-503" font-family="Helvetica,sans-Serif" font-size="10.00" fill="#000000">gko::LinOp</text>
</a>
</g>
</g>
<!-- Node4&#45;&gt;Node3 -->
<g id="edge4" class="edge">
<title>Node4&#45;&gt;Node3</title>
<path fill="none" stroke="#191970" d="M1074.7906,-501.8911C1138.4979,-496.7002 1257.546,-487 1341.4125,-480.1664"/>
<polygon fill="#191970" stroke="#191970" points="1074.3637,-498.4142 1064.681,-502.7149 1074.9323,-505.3911 1074.3637,-498.4142"/>
</g>
<!-- Node5 -->
<g id="node6" class="node">
<title>Node5</title>
<g id="a_node6"><a xlink:href="classgko_1_1EnableAbstractPolymorphicObject.html" target="_top" xlink:title="gko::EnableAbstractPolymorphic\lObject\&lt; LinOp \&gt;">
<polygon fill="#ffffff" stroke="#ff0000" points="538,-494.5 538,-524.5 713,-524.5 713,-494.5 538,-494.5"/>
<text text-anchor="start" x="546" y="-512.5" font-family="Helvetica,sans-Serif" font-size="10.00" fill="#000000">gko::EnableAbstractPolymorphic</text>
<text text-anchor="middle" x="625.5" y="-501.5" font-family="Helvetica,sans-Serif" font-size="10.00" fill="#000000">Object&lt; LinOp &gt;</text>
</a>
</g>
</g>
<!-- Node5&#45;&gt;Node4 -->
<g id="edge5" class="edge">
<title>Node5&#45;&gt;Node4</title>
<path fill="none" stroke="#191970" d="M723.4215,-508.5329C811.7403,-507.6606 936.6381,-506.427 996.2509,-505.8383"/>
<polygon fill="#191970" stroke="#191970" points="723.3439,-505.0334 713.379,-508.6321 723.4131,-512.033 723.3439,-505.0334"/>
</g>
<!-- Node10 -->
<g id="node7" class="node">
<title>Node10</title>
<g id="a_node7"><a xlink:href="classgko_1_1EnableAbstractPolymorphicObject.html" target="_top" xlink:title="This mixin inherits from (a subclass of) PolymorphicObject and provides a base implementation of a ne...">
<polygon fill="#ffffff" stroke="#000000" points="138,-424 138,-465 332,-465 332,-424 138,-424"/>
<text text-anchor="start" x="146" y="-453" font-family="Helvetica,sans-Serif" font-size="10.00" fill="#000000">gko::EnableAbstractPolymorphic</text>
<text text-anchor="start" x="146" y="-442" font-family="Helvetica,sans-Serif" font-size="10.00" fill="#000000">Object&lt; AbstactObject, Polymorphic</text>
<text text-anchor="middle" x="235" y="-431" font-family="Helvetica,sans-Serif" font-size="10.00" fill="#000000">Base &gt;</text>
</a>
</g>
</g>
<!-- Node10&#45;&gt;Node3 -->
<g id="edge8" class="edge">
<title>Node10&#45;&gt;Node3</title>
<path fill="none" stroke="#ffa500" stroke-dasharray="5,2" d="M342.3087,-451.1746C344.8974,-451.2896 347.4643,-451.3983 350,-451.5 716.5544,-466.1953 1153.1638,-470.684 1341.4457,-471.9916"/>
<polygon fill="#ffa500" stroke="#ffa500" points="342.3883,-447.6746 332.2354,-450.7028 342.0607,-454.6669 342.3883,-447.6746"/>
<text text-anchor="start" x="755.5" y="-480.5" font-family="Helvetica,sans-Serif" font-size="10.00" fill="#000000"> &lt; Ell&lt; ValueType, IndexType</text>
<text text-anchor="middle" x="827" y="-469.5" font-family="Helvetica,sans-Serif" font-size="10.00" fill="#000000"> &gt;, LinOp &gt;</text>
</g>
<!-- Node10&#45;&gt;Node5 -->
<g id="edge6" class="edge">
<title>Node10&#45;&gt;Node5</title>
<path fill="none" stroke="#ffa500" stroke-dasharray="5,2" d="M304.6461,-467.973C319.4844,-472.3309 335.1572,-476.461 350,-479.5 412.2179,-492.2388 483.5206,-499.8168 537.9975,-504.1692"/>
<polygon fill="#ffa500" stroke="#ffa500" points="305.617,-464.6102 295.0328,-465.0855 303.6032,-471.3143 305.617,-464.6102"/>
<text text-anchor="middle" x="428.5" y="-503.5" font-family="Helvetica,sans-Serif" font-size="10.00" fill="#000000"> &lt; LinOp &gt;</text>
</g>
<!-- Node13 -->
<g id="node10" class="node">
<title>Node13</title>
<g id="a_node10"><a xlink:href="classgko_1_1EnableAbstractPolymorphicObject.html" target="_top" xlink:title="gko::EnableAbstractPolymorphic\lObject\&lt; ConcreteObject, Polymorphic\lBase \&gt;">
<polygon fill="#ffffff" stroke="#000000" points="525,-386 525,-427 726,-427 726,-386 525,-386"/>
<text text-anchor="start" x="533" y="-415" font-family="Helvetica,sans-Serif" font-size="10.00" fill="#000000">gko::EnableAbstractPolymorphic</text>
<text text-anchor="start" x="533" y="-404" font-family="Helvetica,sans-Serif" font-size="10.00" fill="#000000">Object&lt; ConcreteObject, Polymorphic</text>
<text text-anchor="middle" x="625.5" y="-393" font-family="Helvetica,sans-Serif" font-size="10.00" fill="#000000">Base &gt;</text>
</a>
</g>
</g>
<!-- Node10&#45;&gt;Node13 -->
<g id="edge12" class="edge">
<title>Node10&#45;&gt;Node13</title>
<path fill="none" stroke="#ffa500" stroke-dasharray="5,2" d="M342.297,-430.3427C344.8891,-430.053 347.4599,-429.7715 350,-429.5 407.8658,-423.3141 472.7196,-417.8283 524.9611,-413.7672"/>
<polygon fill="#ffa500" stroke="#ffa500" points="341.7488,-426.8826 332.2121,-431.4979 342.5454,-433.8371 341.7488,-426.8826"/>
<text text-anchor="start" x="350" y="-443.5" font-family="Helvetica,sans-Serif" font-size="10.00" fill="#000000"> &lt; ConcreteObject, Polymorphic</text>
<text text-anchor="middle" x="428.5" y="-432.5" font-family="Helvetica,sans-Serif" font-size="10.00" fill="#000000">Base &gt;</text>
</g>
<!-- Node20 -->
<g id="node17" class="node">
<title>Node20</title>
<g id="a_node17"><a xlink:href="classgko_1_1EnableAbstractPolymorphicObject.html" target="_top" xlink:title="gko::EnableAbstractPolymorphic\lObject\&lt; ConcreteLinOp, Polymorphic\lBase \&gt;">
<polygon fill="#ffffff" stroke="#000000" points="527,-321 527,-362 724,-362 724,-321 527,-321"/>
<text text-anchor="start" x="535" y="-350" font-family="Helvetica,sans-Serif" font-size="10.00" fill="#000000">gko::EnableAbstractPolymorphic</text>
<text text-anchor="start" x="535" y="-339" font-family="Helvetica,sans-Serif" font-size="10.00" fill="#000000">Object&lt; ConcreteLinOp, Polymorphic</text>
<text text-anchor="middle" x="625.5" y="-328" font-family="Helvetica,sans-Serif" font-size="10.00" fill="#000000">Base &gt;</text>
</a>
</g>
</g>
<!-- Node10&#45;&gt;Node20 -->
<g id="edge22" class="edge">
<title>Node10&#45;&gt;Node20</title>
<path fill="none" stroke="#ffa500" stroke-dasharray="5,2" d="M279.3501,-419.2336C300.2135,-408.3161 325.7834,-396.2857 350,-388.5 407.2784,-370.0848 473.7059,-358.4823 526.9808,-351.4131"/>
<polygon fill="#ffa500" stroke="#ffa500" points="277.5987,-416.2009 270.4167,-423.99 280.8884,-422.3797 277.5987,-416.2009"/>
<text text-anchor="start" x="352" y="-402.5" font-family="Helvetica,sans-Serif" font-size="10.00" fill="#000000"> &lt; ConcreteLinOp, Polymorphic</text>
<text text-anchor="middle" x="428.5" y="-391.5" font-family="Helvetica,sans-Serif" font-size="10.00" fill="#000000">Base &gt;</text>
</g>
<!-- Node11 -->
<g id="node8" class="node">
<title>Node11</title>
<polygon fill="#ffffff" stroke="#bfbfbf" points="0,-386 0,-405 101,-405 101,-386 0,-386"/>
<text text-anchor="middle" x="50.5" y="-393" font-family="Helvetica,sans-Serif" font-size="10.00" fill="#000000">PolymorphicBase</text>
</g>
<!-- Node11&#45;&gt;Node10 -->
<g id="edge7" class="edge">
<title>Node11&#45;&gt;Node10</title>
<path fill="none" stroke="#191970" d="M96.3988,-407.6899C114.8661,-412.5945 136.6815,-418.3883 157.4728,-423.9101"/>
<polygon fill="#191970" stroke="#191970" points="97.0748,-404.2482 86.5114,-405.064 95.278,-411.0137 97.0748,-404.2482"/>
</g>
<!-- Node11&#45;&gt;Node13 -->
<g id="edge11" class="edge">
<title>Node11&#45;&gt;Node13</title>
<path fill="none" stroke="#191970" d="M111.106,-396.6594C209.5893,-398.5434 405.3646,-402.2887 524.9499,-404.5764"/>
<polygon fill="#191970" stroke="#191970" points="111.0886,-393.1585 101.0235,-396.4665 110.9547,-400.1573 111.0886,-393.1585"/>
</g>
<!-- Node11&#45;&gt;Node20 -->
<g id="edge21" class="edge">
<title>Node11&#45;&gt;Node20</title>
<path fill="none" stroke="#191970" d="M110.1743,-384.1122C170.4306,-373.1389 266.303,-357.1134 350,-349.5 408.4944,-344.1791 474.2345,-342.1216 526.8233,-341.4212"/>
<polygon fill="#191970" stroke="#191970" points="109.2877,-380.7164 100.0834,-385.9634 110.5508,-387.6015 109.2877,-380.7164"/>
</g>
<!-- Node12 -->
<g id="node9" class="node">
<title>Node12</title>
<g id="a_node9"><a xlink:href="classgko_1_1EnablePolymorphicObject.html" target="_top" xlink:title="This mixin inherits from (a subclass of) PolymorphicObject and provides a base implementation of a ne...">
<polygon fill="#ffffff" stroke="#000000" points="928,-391.5 928,-421.5 1133,-421.5 1133,-391.5 928,-391.5"/>
<text text-anchor="start" x="936" y="-409.5" font-family="Helvetica,sans-Serif" font-size="10.00" fill="#000000">gko::EnablePolymorphicObject</text>
<text text-anchor="middle" x="1030.5" y="-398.5" font-family="Helvetica,sans-Serif" font-size="10.00" fill="#000000">&lt; ConcreteObject, PolymorphicBase &gt;</text>
</a>
</g>
</g>
<!-- Node12&#45;&gt;Node2 -->
<g id="edge9" class="edge">
<title>Node12&#45;&gt;Node2</title>
<path fill="none" stroke="#ffa500" stroke-dasharray="5,2" d="M1143.1767,-407.1986C1307.2601,-408.2158 1608.2158,-410.0816 1753.7849,-410.9841"/>
<polygon fill="#ffa500" stroke="#ffa500" points="1143.0746,-403.698 1133.0531,-407.1358 1143.0311,-410.6978 1143.0746,-403.698"/>
<text text-anchor="start" x="1364" y="-423.5" font-family="Helvetica,sans-Serif" font-size="10.00" fill="#000000"> &lt; Ell&lt; ValueType, IndexType</text>
<text text-anchor="middle" x="1435.5" y="-412.5" font-family="Helvetica,sans-Serif" font-size="10.00" fill="#000000"> &gt;, LinOp &gt;</text>
</g>
<!-- Node19 -->
<g id="node16" class="node">
<title>Node19</title>
<g id="a_node16"><a xlink:href="classgko_1_1EnablePolymorphicObject.html" target="_top" xlink:title="gko::EnablePolymorphicObject\l\&lt; ConcreteLinOp, PolymorphicBase \&gt;">
<polygon fill="#ffffff" stroke="#000000" points="1335,-326.5 1335,-356.5 1536,-356.5 1536,-326.5 1335,-326.5"/>
<text text-anchor="start" x="1343" y="-344.5" font-family="Helvetica,sans-Serif" font-size="10.00" fill="#000000">gko::EnablePolymorphicObject</text>
<text text-anchor="middle" x="1435.5" y="-333.5" font-family="Helvetica,sans-Serif" font-size="10.00" fill="#000000">&lt; ConcreteLinOp, PolymorphicBase &gt;</text>
</a>
</g>
</g>
<!-- Node12&#45;&gt;Node19 -->
<g id="edge23" class="edge">
<title>Node12&#45;&gt;Node19</title>
<path fill="none" stroke="#ffa500" stroke-dasharray="5,2" d="M1092.5176,-388.8649C1111.1999,-384.0085 1131.8334,-379.0942 1151,-375.5 1185.3463,-369.0592 1267.6871,-359.447 1334.9954,-352.0845"/>
<polygon fill="#ffa500" stroke="#ffa500" points="1091.4285,-385.5324 1082.6535,-391.4696 1093.2157,-392.3004 1091.4285,-385.5324"/>
<text text-anchor="start" x="1157.5" y="-389.5" font-family="Helvetica,sans-Serif" font-size="10.00" fill="#000000"> &lt; ConcreteLinOp, Polymorphic</text>
<text text-anchor="middle" x="1234" y="-378.5" font-family="Helvetica,sans-Serif" font-size="10.00" fill="#000000">Base &gt;</text>
</g>
<!-- Node13&#45;&gt;Node12 -->
<g id="edge10" class="edge">
<title>Node13&#45;&gt;Node12</title>
<path fill="none" stroke="#191970" d="M736.3684,-406.5C796.1586,-406.5 869.4543,-406.5 927.9206,-406.5"/>
<polygon fill="#191970" stroke="#191970" points="736.1328,-403.0001 726.1327,-406.5 736.1327,-410.0001 736.1328,-403.0001"/>
</g>
<!-- Node14 -->
<g id="node11" class="node">
<title>Node14</title>
<g id="a_node11"><a xlink:href="classgko_1_1EnablePolymorphicAssignment.html" target="_top" xlink:title="gko::EnablePolymorphicAssignment\l\&lt; Ell\&lt; ValueType, IndexType \&gt; \&gt;">
<polygon fill="#ffffff" stroke="#000000" points="1339.5,-222.5 1339.5,-252.5 1531.5,-252.5 1531.5,-222.5 1339.5,-222.5"/>
<text text-anchor="start" x="1347.5" y="-240.5" font-family="Helvetica,sans-Serif" font-size="10.00" fill="#000000">gko::EnablePolymorphicAssignment</text>
<text text-anchor="middle" x="1435.5" y="-229.5" font-family="Helvetica,sans-Serif" font-size="10.00" fill="#000000">&lt; Ell&lt; ValueType, IndexType &gt; &gt;</text>
</a>
</g>
</g>
<!-- Node14&#45;&gt;Node1 -->
<g id="edge13" class="edge">
<title>Node14&#45;&gt;Node1</title>
<path fill="none" stroke="#191970" d="M1542.0562,-239.9717C1700.463,-243.646 1994.3463,-250.4629 2133.9677,-253.7016"/>
<polygon fill="#191970" stroke="#191970" points="1541.8997,-236.4672 1531.8212,-239.7343 1541.7373,-243.4653 1541.8997,-236.4672"/>
</g>
<!-- Node15 -->
<g id="node12" class="node">
<title>Node15</title>
<g id="a_node12"><a xlink:href="classgko_1_1ConvertibleTo.html" target="_top" xlink:title="gko::ConvertibleTo\l\&lt; Ell\&lt; ValueType, IndexType \&gt; \&gt;">
<polygon fill="#ffffff" stroke="#000000" points="941,-184.5 941,-214.5 1120,-214.5 1120,-184.5 941,-184.5"/>
<text text-anchor="start" x="949" y="-202.5" font-family="Helvetica,sans-Serif" font-size="10.00" fill="#000000">gko::ConvertibleTo</text>
<text text-anchor="middle" x="1030.5" y="-191.5" font-family="Helvetica,sans-Serif" font-size="10.00" fill="#000000">&lt; Ell&lt; ValueType, IndexType &gt; &gt;</text>
</a>
</g>
</g>
<!-- Node15&#45;&gt;Node14 -->
<g id="edge14" class="edge">
<title>Node15&#45;&gt;Node14</title>
<path fill="none" stroke="#191970" d="M1130.2051,-208.855C1193.9991,-214.8407 1276.3163,-222.5642 1339.3958,-228.4828"/>
<polygon fill="#191970" stroke="#191970" points="1130.4146,-205.3594 1120.1314,-207.9099 1129.7607,-212.3288 1130.4146,-205.3594"/>
</g>
<!-- Node16 -->
<g id="node13" class="node">
<title>Node16</title>
<g id="a_node13"><a xlink:href="classgko_1_1ConvertibleTo.html" target="_top" xlink:title="ConvertibleTo interface is used to mark that the implementer can be converted to the object of Result...">
<polygon fill="#ffffff" stroke="#000000" points="572,-184.5 572,-214.5 679,-214.5 679,-184.5 572,-184.5"/>
<text text-anchor="start" x="580" y="-202.5" font-family="Helvetica,sans-Serif" font-size="10.00" fill="#000000">gko::ConvertibleTo</text>
<text text-anchor="middle" x="625.5" y="-191.5" font-family="Helvetica,sans-Serif" font-size="10.00" fill="#000000">&lt; ResultType &gt;</text>
</a>
</g>
</g>
<!-- Node16&#45;&gt;Node15 -->
<g id="edge15" class="edge">
<title>Node16&#45;&gt;Node15</title>
<path fill="none" stroke="#ffa500" stroke-dasharray="5,2" d="M689.3854,-199.5C757.1013,-199.5 864.5798,-199.5 940.7784,-199.5"/>
<polygon fill="#ffa500" stroke="#ffa500" points="689.2809,-196.0001 679.2809,-199.5 689.2808,-203.0001 689.2809,-196.0001"/>
<text text-anchor="middle" x="827" y="-202.5" font-family="Helvetica,sans-Serif" font-size="10.00" fill="#000000"> &lt; Ell&lt; ValueType, IndexType &gt; &gt;</text>
</g>
<!-- Node17 -->
<g id="node14" class="node">
<title>Node17</title>
<g id="a_node14"><a xlink:href="classgko_1_1EnablePolymorphicAssignment.html" target="_top" xlink:title="This mixin is used to enable a default PolymorphicObject::copy_from() implementation for objects that...">
<polygon fill="#ffffff" stroke="#000000" points="934.5,-233.5 934.5,-263.5 1126.5,-263.5 1126.5,-233.5 934.5,-233.5"/>
<text text-anchor="start" x="942.5" y="-251.5" font-family="Helvetica,sans-Serif" font-size="10.00" fill="#000000">gko::EnablePolymorphicAssignment</text>
<text text-anchor="middle" x="1030.5" y="-240.5" font-family="Helvetica,sans-Serif" font-size="10.00" fill="#000000">&lt; ConcreteType, ResultType &gt;</text>
</a>
</g>
</g>
<!-- Node16&#45;&gt;Node17 -->
<g id="edge17" class="edge">
<title>Node16&#45;&gt;Node17</title>
<path fill="none" stroke="#191970" d="M689.3852,-207.6794C707.072,-209.9186 726.2778,-212.3268 744,-214.5 807.3882,-222.273 878.7023,-230.7371 934.3239,-237.2758"/>
<polygon fill="#191970" stroke="#191970" points="689.5308,-204.1699 679.1698,-206.3835 688.6498,-211.1142 689.5308,-204.1699"/>
</g>
<!-- Node22 -->
<g id="node19" class="node">
<title>Node22</title>
<g id="a_node19"><a xlink:href="classgko_1_1ConvertibleTo.html" target="_top" xlink:title="gko::ConvertibleTo\l\&lt; ConcreteLinOp \&gt;">
<polygon fill="#ffffff" stroke="#000000" points="975.5,-282.5 975.5,-312.5 1085.5,-312.5 1085.5,-282.5 975.5,-282.5"/>
<text text-anchor="start" x="983.5" y="-300.5" font-family="Helvetica,sans-Serif" font-size="10.00" fill="#000000">gko::ConvertibleTo</text>
<text text-anchor="middle" x="1030.5" y="-289.5" font-family="Helvetica,sans-Serif" font-size="10.00" fill="#000000">&lt; ConcreteLinOp &gt;</text>
</a>
</g>
</g>
<!-- Node16&#45;&gt;Node22 -->
<g id="edge26" class="edge">
<title>Node16&#45;&gt;Node22</title>
<path fill="none" stroke="#ffa500" stroke-dasharray="5,2" d="M678.5062,-217.7953C698.8489,-224.4738 722.3698,-231.7835 744,-237.5 823.7163,-258.5678 917.4697,-277.0319 975.446,-287.7299"/>
<polygon fill="#ffa500" stroke="#ffa500" points="679.3907,-214.4013 668.7973,-214.5773 677.1883,-221.0458 679.3907,-214.4013"/>
<text text-anchor="middle" x="827" y="-276.5" font-family="Helvetica,sans-Serif" font-size="10.00" fill="#000000"> &lt; ConcreteLinOp &gt;</text>
</g>
<!-- Node25 -->
<g id="node22" class="node">
<title>Node25</title>
<g id="a_node22"><a xlink:href="classgko_1_1ConvertibleTo.html" target="_top" xlink:title="gko::ConvertibleTo\l\&lt; Dense\&lt; ValueType \&gt; \&gt;">
<polygon fill="#ffffff" stroke="#000000" points="1163,-93.5 1163,-123.5 1305,-123.5 1305,-93.5 1163,-93.5"/>
<text text-anchor="start" x="1171" y="-111.5" font-family="Helvetica,sans-Serif" font-size="10.00" fill="#000000">gko::ConvertibleTo</text>
<text text-anchor="middle" x="1234" y="-100.5" font-family="Helvetica,sans-Serif" font-size="10.00" fill="#000000">&lt; Dense&lt; ValueType &gt; &gt;</text>
</a>
</g>
</g>
<!-- Node16&#45;&gt;Node25 -->
<g id="edge31" class="edge">
<title>Node16&#45;&gt;Node25</title>
<path fill="none" stroke="#ffa500" stroke-dasharray="5,2" d="M652.4247,-178.3289C675.3374,-161.6629 709.8731,-139.617 744,-129.5 887.8832,-86.8456 1065.9059,-92.9703 1162.8591,-100.9258"/>
<polygon fill="#ffa500" stroke="#ffa500" points="650.1737,-175.6411 644.2374,-184.4168 654.3505,-181.2584 650.1737,-175.6411"/>
<text text-anchor="middle" x="827" y="-132.5" font-family="Helvetica,sans-Serif" font-size="10.00" fill="#000000"> &lt; Dense&lt; ValueType &gt; &gt;</text>
</g>
<!-- Node26 -->
<g id="node23" class="node">
<title>Node26</title>
<g id="a_node23"><a xlink:href="classgko_1_1ConvertibleTo.html" target="_top" xlink:title="gko::ConvertibleTo\l\&lt; Csr\&lt; ValueType, IndexType \&gt; \&gt;">
<polygon fill="#ffffff" stroke="#000000" points="1554,-160.5 1554,-190.5 1736,-190.5 1736,-160.5 1554,-160.5"/>
<text text-anchor="start" x="1562" y="-178.5" font-family="Helvetica,sans-Serif" font-size="10.00" fill="#000000">gko::ConvertibleTo</text>
<text text-anchor="middle" x="1645" y="-167.5" font-family="Helvetica,sans-Serif" font-size="10.00" fill="#000000">&lt; Csr&lt; ValueType, IndexType &gt; &gt;</text>
</a>
</g>
</g>
<!-- Node16&#45;&gt;Node26 -->
<g id="edge33" class="edge">
<title>Node16&#45;&gt;Node26</title>
<path fill="none" stroke="#ffa500" stroke-dasharray="5,2" d="M689.418,-189.9372C750.5154,-181.311 845.3013,-169.2683 928,-164.5 1152.6495,-151.547 1417.5033,-162.3687 1553.7978,-169.8499"/>
<polygon fill="#ffa500" stroke="#ffa500" points="688.568,-186.5229 679.1614,-191.398 689.555,-193.453 688.568,-186.5229"/>
<text text-anchor="middle" x="1030.5" y="-167.5" font-family="Helvetica,sans-Serif" font-size="10.00" fill="#000000"> &lt; Csr&lt; ValueType, IndexType &gt; &gt;</text>
</g>
<!-- Node17&#45;&gt;Node14 -->
<g id="edge16" class="edge">
<title>Node17&#45;&gt;Node14</title>
<path fill="none" stroke="#ffa500" stroke-dasharray="5,2" d="M1137.1259,-239.1965C1141.8124,-238.9312 1146.4532,-238.6963 1151,-238.5 1213.6703,-235.7937 1284.1779,-235.5264 1339.323,-235.9443"/>
<polygon fill="#ffa500" stroke="#ffa500" points="1136.5819,-235.723 1126.8125,-239.8231 1137.0064,-242.7101 1136.5819,-235.723"/>
<text text-anchor="middle" x="1234" y="-241.5" font-family="Helvetica,sans-Serif" font-size="10.00" fill="#000000"> &lt; Ell&lt; ValueType, IndexType &gt; &gt;</text>
</g>
<!-- Node21 -->
<g id="node18" class="node">
<title>Node21</title>
<g id="a_node18"><a xlink:href="classgko_1_1EnablePolymorphicAssignment.html" target="_top" xlink:title="gko::EnablePolymorphicAssignment\l\&lt; ConcreteLinOp \&gt;">
<polygon fill="#ffffff" stroke="#000000" points="1339.5,-274.5 1339.5,-304.5 1531.5,-304.5 1531.5,-274.5 1339.5,-274.5"/>
<text text-anchor="start" x="1347.5" y="-292.5" font-family="Helvetica,sans-Serif" font-size="10.00" fill="#000000">gko::EnablePolymorphicAssignment</text>
<text text-anchor="middle" x="1435.5" y="-281.5" font-family="Helvetica,sans-Serif" font-size="10.00" fill="#000000">&lt; ConcreteLinOp &gt;</text>
</a>
</g>
</g>
<!-- Node17&#45;&gt;Node21 -->
<g id="edge27" class="edge">
<title>Node17&#45;&gt;Node21</title>
<path fill="none" stroke="#ffa500" stroke-dasharray="5,2" d="M1136.953,-258.6012C1190.9124,-263.7982 1257.4573,-270.3246 1317,-276.5 1324.308,-277.2579 1331.8679,-278.0557 1339.4693,-278.8676"/>
<polygon fill="#ffa500" stroke="#ffa500" points="1136.9713,-255.0869 1126.6821,-257.6134 1136.3011,-262.0547 1136.9713,-255.0869"/>
<text text-anchor="middle" x="1234" y="-279.5" font-family="Helvetica,sans-Serif" font-size="10.00" fill="#000000"> &lt; ConcreteLinOp &gt;</text>
</g>
<!-- Node18 -->
<g id="node15" class="node">
<title>Node18</title>
<g id="a_node15"><a xlink:href="classgko_1_1EnableLinOp.html" target="_top" xlink:title="The EnableLinOp mixin can be used to provide sensible default implementations of the majority of the ...">
<polygon fill="#ffffff" stroke="#000000" points="1759,-274.5 1759,-304.5 1915,-304.5 1915,-274.5 1759,-274.5"/>
<text text-anchor="start" x="1767" y="-292.5" font-family="Helvetica,sans-Serif" font-size="10.00" fill="#000000">gko::EnableLinOp&lt; Concrete</text>
<text text-anchor="middle" x="1837" y="-281.5" font-family="Helvetica,sans-Serif" font-size="10.00" fill="#000000">LinOp, PolymorphicBase &gt;</text>
</a>
</g>
</g>
<!-- Node18&#45;&gt;Node1 -->
<g id="edge18" class="edge">
<title>Node18&#45;&gt;Node1</title>
<path fill="none" stroke="#ffa500" stroke-dasharray="5,2" d="M1925.0292,-281.508C1988.3803,-275.7565 2073.0376,-268.0707 2133.8701,-262.5478"/>
<polygon fill="#ffa500" stroke="#ffa500" points="1924.6942,-278.024 1915.0516,-282.4139 1925.3271,-284.9953 1924.6942,-278.024"/>
<text text-anchor="middle" x="2021" y="-281.5" font-family="Helvetica,sans-Serif" font-size="10.00" fill="#000000"> &lt; Ell&lt; ValueType, IndexType &gt; &gt;</text>
</g>
<!-- Node19&#45;&gt;Node18 -->
<g id="edge19" class="edge">
<title>Node19&#45;&gt;Node18</title>
<path fill="none" stroke="#191970" d="M1546.1254,-327.8314C1602.9072,-320.7343 1673.1762,-311.826 1736,-303.5 1743.4583,-302.5116 1751.2239,-301.4654 1758.9892,-300.4081"/>
<polygon fill="#191970" stroke="#191970" points="1545.5373,-324.3776 1536.048,-329.0897 1546.4047,-331.3236 1545.5373,-324.3776"/>
</g>
<!-- Node20&#45;&gt;Node19 -->
<g id="edge20" class="edge">
<title>Node20&#45;&gt;Node19</title>
<path fill="none" stroke="#191970" d="M734.2025,-341.5C891.8584,-341.5 1181.7947,-341.5 1334.818,-341.5"/>
<polygon fill="#191970" stroke="#191970" points="734.0121,-338.0001 724.0121,-341.5 734.0121,-345.0001 734.0121,-338.0001"/>
</g>
<!-- Node21&#45;&gt;Node18 -->
<g id="edge24" class="edge">
<title>Node21&#45;&gt;Node18</title>
<path fill="none" stroke="#191970" d="M1542.0072,-289.5C1610.1349,-289.5 1696.9941,-289.5 1758.7782,-289.5"/>
<polygon fill="#191970" stroke="#191970" points="1541.6693,-286.0001 1531.6693,-289.5 1541.6692,-293.0001 1541.6693,-286.0001"/>
</g>
<!-- Node22&#45;&gt;Node21 -->
<g id="edge25" class="edge">
<title>Node22&#45;&gt;Node21</title>
<path fill="none" stroke="#191970" d="M1095.7929,-296.2103C1161.6851,-294.9087 1264.171,-292.8843 1339.3512,-291.3992"/>
<polygon fill="#191970" stroke="#191970" points="1095.4705,-292.7159 1085.5416,-296.4128 1095.6088,-299.7145 1095.4705,-292.7159"/>
</g>
<!-- Node23 -->
<g id="node20" class="node">
<title>Node23</title>
<g id="a_node20"><a xlink:href="classgko_1_1EnableCreateMethod.html" target="_top" xlink:title="gko::EnableCreateMethod\l\&lt; Ell\&lt; ValueType, IndexType \&gt; \&gt;">
<polygon fill="#ffffff" stroke="#000000" points="2122,-137.5 2122,-167.5 2301,-167.5 2301,-137.5 2122,-137.5"/>
<text text-anchor="start" x="2130" y="-155.5" font-family="Helvetica,sans-Serif" font-size="10.00" fill="#000000">gko::EnableCreateMethod</text>
<text text-anchor="middle" x="2211.5" y="-144.5" font-family="Helvetica,sans-Serif" font-size="10.00" fill="#000000">&lt; Ell&lt; ValueType, IndexType &gt; &gt;</text>
</a>
</g>
</g>
<!-- Node23&#45;&gt;Node0 -->
<g id="edge28" class="edge">
<title>Node23&#45;&gt;Node0</title>
<path fill="none" stroke="#191970" d="M2311.3092,-136.8437C2320.2185,-135.4461 2329.1501,-134.0451 2337.8319,-132.6832"/>
<polygon fill="#191970" stroke="#191970" points="2310.611,-133.4103 2301.2742,-138.4178 2311.6958,-140.3257 2310.611,-133.4103"/>
</g>
<!-- Node24 -->
<g id="node21" class="node">
<title>Node24</title>
<g id="a_node21"><a xlink:href="classgko_1_1EnableCreateMethod.html" target="_top" xlink:title="This mixin implements a static create() method on ConcreteType that dynamically allocates the memory...">
<polygon fill="#ffffff" stroke="#000000" points="1766,-137.5 1766,-167.5 1908,-167.5 1908,-137.5 1766,-137.5"/>
<text text-anchor="start" x="1774" y="-155.5" font-family="Helvetica,sans-Serif" font-size="10.00" fill="#000000">gko::EnableCreateMethod</text>
<text text-anchor="middle" x="1837" y="-144.5" font-family="Helvetica,sans-Serif" font-size="10.00" fill="#000000">&lt; ConcreteType &gt;</text>
</a>
</g>
</g>
<!-- Node24&#45;&gt;Node23 -->
<g id="edge29" class="edge">
<title>Node24&#45;&gt;Node23</title>
<path fill="none" stroke="#ffa500" stroke-dasharray="5,2" d="M1918.5123,-152.5C1978.5205,-152.5 2060.0816,-152.5 2121.9132,-152.5"/>
<polygon fill="#ffa500" stroke="#ffa500" points="1918.3221,-149.0001 1908.3221,-152.5 1918.3221,-156.0001 1918.3221,-149.0001"/>
<text text-anchor="middle" x="2021" y="-155.5" font-family="Helvetica,sans-Serif" font-size="10.00" fill="#000000"> &lt; Ell&lt; ValueType, IndexType &gt; &gt;</text>
</g>
<!-- Node25&#45;&gt;Node0 -->
<g id="edge30" class="edge">
<title>Node25&#45;&gt;Node0</title>
<path fill="none" stroke="#191970" d="M1315.3919,-108.5C1398.3108,-108.5 1530.6097,-108.5 1645,-108.5 1645,-108.5 1645,-108.5 2211.5,-108.5 2253.1865,-108.5 2299.5821,-111.028 2337.582,-113.7634"/>
<polygon fill="#191970" stroke="#191970" points="1315.2791,-105.0001 1305.2791,-108.5 1315.2791,-112.0001 1315.2791,-105.0001"/>
</g>
<!-- Node26&#45;&gt;Node0 -->
<g id="edge32" class="edge">
<title>Node26&#45;&gt;Node0</title>
<path fill="none" stroke="#191970" d="M1746.1385,-190.1528C1876.4134,-205.7853 2108.94,-222.662 2301,-177.5 2335.1531,-169.4691 2370.7638,-149.6389 2393.0233,-135.6332"/>
<polygon fill="#191970" stroke="#191970" points="1746.5181,-186.6732 1736.1674,-188.9347 1745.6692,-193.6216 1746.5181,-186.6732"/>
</g>
<!-- Node27 -->
<g id="node24" class="node">
<title>Node27</title>
<g id="a_node24"><a xlink:href="classgko_1_1ReadableFromMatrixData.html" target="_top" xlink:title="A LinOp implementing this interface can read its data from a matrix_data structure. ">
<polygon fill="#ffffff" stroke="#000000" points="2129.5,-49.5 2129.5,-79.5 2293.5,-79.5 2293.5,-49.5 2129.5,-49.5"/>
<text text-anchor="start" x="2137.5" y="-67.5" font-family="Helvetica,sans-Serif" font-size="10.00" fill="#000000">gko::ReadableFromMatrixData</text>
<text text-anchor="middle" x="2211.5" y="-56.5" font-family="Helvetica,sans-Serif" font-size="10.00" fill="#000000">&lt; ValueType, IndexType &gt;</text>
</a>
</g>
</g>
<!-- Node27&#45;&gt;Node0 -->
<g id="edge34" class="edge">
<title>Node27&#45;&gt;Node0</title>
<path fill="none" stroke="#191970" d="M2275.9946,-82.2044C2303.2223,-89.6787 2334.5923,-98.29 2360.6808,-105.4516"/>
<polygon fill="#191970" stroke="#191970" points="2276.7381,-78.7791 2266.1683,-79.507 2274.885,-85.5294 2276.7381,-78.7791"/>
</g>
<!-- Node28 -->
<g id="node25" class="node">
<title>Node28</title>
<g id="a_node25"><a xlink:href="classgko_1_1WritableToMatrixData.html" target="_top" xlink:title="A LinOp implementing this interface can write its data to a matrix_data structure. ">
<polygon fill="#ffffff" stroke="#000000" points="2138.5,-.5 2138.5,-30.5 2284.5,-30.5 2284.5,-.5 2138.5,-.5"/>
<text text-anchor="start" x="2146.5" y="-18.5" font-family="Helvetica,sans-Serif" font-size="10.00" fill="#000000">gko::WritableToMatrixData</text>
<text text-anchor="middle" x="2211.5" y="-7.5" font-family="Helvetica,sans-Serif" font-size="10.00" fill="#000000">&lt; ValueType, IndexType &gt;</text>
</a>
</g>
</g>
<!-- Node28&#45;&gt;Node0 -->
<g id="edge35" class="edge">
<title>Node28&#45;&gt;Node0</title>
<path fill="none" stroke="#191970" d="M2285.3167,-33.9451C2290.7033,-35.9496 2295.9851,-38.1323 2301,-40.5 2338.2785,-58.1009 2376.5386,-87.6039 2398.0376,-105.4399"/>
<polygon fill="#191970" stroke="#191970" points="2286.1373,-30.5243 2275.5425,-30.5277 2283.827,-37.1321 2286.1373,-30.5243"/>
</g>
</g>
</svg>
