<?xml version="1.0" encoding="UTF-8" standalone="no"?>
<!DOCTYPE svg PUBLIC "-//W3C//DTD SVG 1.1//EN"
 "http://www.w3.org/Graphics/SVG/1.1/DTD/svg11.dtd">
<!-- Generated by graphviz version 2.40.1 (20161225.0304)
 -->
<!-- Title: gko::reorder::Rcm&lt; ValueType, IndexType &gt; Pages: 1 -->
<svg width="1730pt" height="212pt"
 viewBox="0.00 0.00 1730.00 211.50" xmlns="http://www.w3.org/2000/svg" xmlns:xlink="http://www.w3.org/1999/xlink">
<g id="graph0" class="graph" transform="scale(1 1) rotate(0) translate(4 207.5)">
<title>gko::reorder::Rcm&lt; ValueType, IndexType &gt;</title>
<polygon fill="#ffffff" stroke="transparent" points="-4,4 -4,-207.5 1726,-207.5 1726,4 -4,4"/>
<!-- Node1 -->
<g id="node1" class="node">
<title>Node1</title>
<g id="a_node1"><a xlink:title="Rcm is a reordering algorithm minimizing the bandwidth of a matrix.">
<polygon fill="#bfbfbf" stroke="#000000" points="1586,-72.5 1586,-102.5 1722,-102.5 1722,-72.5 1586,-72.5"/>
<text text-anchor="start" x="1594" y="-90.5" font-family="Helvetica,sans-Serif" font-size="10.00" fill="#000000">gko::reorder::Rcm&lt;</text>
<text text-anchor="middle" x="1654" y="-79.5" font-family="Helvetica,sans-Serif" font-size="10.00" fill="#000000"> ValueType, IndexType &gt;</text>
</a>
</g>
</g>
<!-- Node2 -->
<g id="node2" class="node">
<title>Node2</title>
<g id="a_node2"><a xlink:href="classgko_1_1EnablePolymorphicObject.html" target="_top" xlink:title=" ">
<polygon fill="#ffffff" stroke="#000000" points="1370,-95 1370,-136 1536,-136 1536,-95 1370,-95"/>
<text text-anchor="start" x="1378" y="-124" font-family="Helvetica,sans-Serif" font-size="10.00" fill="#000000">gko::EnablePolymorphicObject</text>
<text text-anchor="start" x="1378" y="-113" font-family="Helvetica,sans-Serif" font-size="10.00" fill="#000000">&lt; Rcm&lt; ValueType, IndexType</text>
<text text-anchor="middle" x="1453" y="-102" font-family="Helvetica,sans-Serif" font-size="10.00" fill="#000000"> &gt;, ReorderingBase &gt;</text>
</a>
</g>
</g>
<!-- Node2&#45;&gt;Node1 -->
<g id="edge1" class="edge">
<title>Node2&#45;&gt;Node1</title>
<path fill="none" stroke="#191970" d="M1546.3387,-102.4976C1559.6534,-100.6428 1573.1366,-98.7646 1585.8471,-96.9939"/>
<polygon fill="#191970" stroke="#191970" points="1545.6267,-99.0629 1536.2053,-103.9092 1546.5926,-105.9959 1545.6267,-99.0629"/>
</g>
<!-- Node3 -->
<g id="node3" class="node">
<title>Node3</title>
<g id="a_node3"><a xlink:href="classgko_1_1EnableAbstractPolymorphicObject.html" target="_top" xlink:title=" ">
<polygon fill="#ffffff" stroke="#000000" points="531,-144 531,-185 728,-185 728,-144 531,-144"/>
<text text-anchor="start" x="539" y="-173" font-family="Helvetica,sans-Serif" font-size="10.00" fill="#000000">gko::EnableAbstractPolymorphic</text>
<text text-anchor="start" x="539" y="-162" font-family="Helvetica,sans-Serif" font-size="10.00" fill="#000000">Object&lt; Rcm&lt; ValueType, IndexType</text>
<text text-anchor="middle" x="629.5" y="-151" font-family="Helvetica,sans-Serif" font-size="10.00" fill="#000000"> &gt;, ReorderingBase &gt;</text>
</a>
</g>
</g>
<!-- Node3&#45;&gt;Node2 -->
<g id="edge2" class="edge">
<title>Node3&#45;&gt;Node2</title>
<path fill="none" stroke="#191970" d="M738.3538,-166.9426C878.0261,-168.6753 1127.5359,-167.0387 1339,-140.5 1349.0521,-139.2385 1359.5264,-137.516 1369.8745,-135.5609"/>
<polygon fill="#191970" stroke="#191970" points="738.122,-163.4393 728.0765,-166.8065 738.0293,-170.4387 738.122,-163.4393"/>
</g>
<!-- Node4 -->
<g id="node4" class="node">
<title>Node4</title>
<g id="a_node4"><a xlink:title=" ">
<polygon fill="#ffffff" stroke="#bfbfbf" points="190.5,-184 190.5,-203 283.5,-203 283.5,-184 190.5,-184"/>
<text text-anchor="middle" x="237" y="-191" font-family="Helvetica,sans-Serif" font-size="10.00" fill="#000000">ReorderingBase</text>
</a>
</g>
</g>
<!-- Node4&#45;&gt;Node3 -->
<g id="edge3" class="edge">
<title>Node4&#45;&gt;Node3</title>
<path fill="none" stroke="#191970" d="M293.9424,-191.8333C349.4228,-189.9163 436.1182,-186.143 511,-179.5 517.5066,-178.9228 524.2062,-178.2605 530.9526,-177.5428"/>
<polygon fill="#191970" stroke="#191970" points="293.4924,-188.3464 283.6159,-192.1811 293.7281,-195.3424 293.4924,-188.3464"/>
</g>
<!-- Node5 -->
<g id="node5" class="node">
<title>Node5</title>
<g id="a_node5"><a xlink:href="classgko_1_1EnableAbstractPolymorphicObject.html" target="_top" xlink:title="This mixin inherits from (a subclass of) PolymorphicObject and provides a base implementation of a ne...">
<polygon fill="#ffffff" stroke="#000000" points="138,-107 138,-148 336,-148 336,-107 138,-107"/>
<text text-anchor="start" x="146" y="-136" font-family="Helvetica,sans-Serif" font-size="10.00" fill="#000000">gko::EnableAbstractPolymorphic</text>
<text text-anchor="start" x="146" y="-125" font-family="Helvetica,sans-Serif" font-size="10.00" fill="#000000">Object&lt; AbstractObject, Polymorphic</text>
<text text-anchor="middle" x="237" y="-114" font-family="Helvetica,sans-Serif" font-size="10.00" fill="#000000">Base &gt;</text>
</a>
</g>
</g>
<!-- Node5&#45;&gt;Node3 -->
<g id="edge4" class="edge">
<title>Node5&#45;&gt;Node3</title>
<path fill="none" stroke="#ffa500" stroke-dasharray="5,2" d="M346.3222,-137.8055C404.173,-143.259 474.6538,-149.903 530.8278,-155.1984"/>
<polygon fill="#ffa500" stroke="#ffa500" points="346.3287,-134.2907 336.0443,-136.8367 345.6717,-141.2598 346.3287,-134.2907"/>
<text text-anchor="start" x="356" y="-166.5" font-family="Helvetica,sans-Serif" font-size="10.00" fill="#000000"> &lt; Rcm&lt; ValueType, IndexType</text>
<text text-anchor="middle" x="432.5" y="-155.5" font-family="Helvetica,sans-Serif" font-size="10.00" fill="#000000"> &gt;, ReorderingBase &gt;</text>
</g>
<!-- Node8 -->
<g id="node8" class="node">
<title>Node8</title>
<g id="a_node8"><a xlink:href="classgko_1_1EnableAbstractPolymorphicObject.html" target="_top" xlink:title=" ">
<polygon fill="#ffffff" stroke="#000000" points="529,-84 529,-125 730,-125 730,-84 529,-84"/>
<text text-anchor="start" x="537" y="-113" font-family="Helvetica,sans-Serif" font-size="10.00" fill="#000000">gko::EnableAbstractPolymorphic</text>
<text text-anchor="start" x="537" y="-102" font-family="Helvetica,sans-Serif" font-size="10.00" fill="#000000">Object&lt; ConcreteObject, Polymorphic</text>
<text text-anchor="middle" x="629.5" y="-91" font-family="Helvetica,sans-Serif" font-size="10.00" fill="#000000">Base &gt;</text>
</a>
</g>
</g>
<!-- Node5&#45;&gt;Node8 -->
<g id="edge9" class="edge">
<title>Node5&#45;&gt;Node8</title>
<path fill="none" stroke="#ffa500" stroke-dasharray="5,2" d="M346.2833,-113.1453C348.8792,-112.9154 351.4544,-112.6997 354,-112.5 411.8405,-107.9636 476.6931,-105.9297 528.9402,-105.0455"/>
<polygon fill="#ffa500" stroke="#ffa500" points="345.8143,-109.6739 336.1871,-114.0975 346.4716,-116.643 345.8143,-109.6739"/>
<text text-anchor="start" x="354" y="-126.5" font-family="Helvetica,sans-Serif" font-size="10.00" fill="#000000"> &lt; ConcreteObject, Polymorphic</text>
<text text-anchor="middle" x="432.5" y="-115.5" font-family="Helvetica,sans-Serif" font-size="10.00" fill="#000000">Base &gt;</text>
</g>
<!-- Node6 -->
<g id="node6" class="node">
<title>Node6</title>
<g id="a_node6"><a xlink:title=" ">
<polygon fill="#ffffff" stroke="#bfbfbf" points="0,-81 0,-100 101,-100 101,-81 0,-81"/>
<text text-anchor="middle" x="50.5" y="-88" font-family="Helvetica,sans-Serif" font-size="10.00" fill="#000000">PolymorphicBase</text>
</a>
</g>
</g>
<!-- Node6&#45;&gt;Node5 -->
<g id="edge5" class="edge">
<title>Node6&#45;&gt;Node5</title>
<path fill="none" stroke="#191970" d="M108.4222,-101.9913C117.7608,-103.844 127.6541,-105.8067 137.6412,-107.7881"/>
<polygon fill="#191970" stroke="#191970" points="109.0183,-98.5414 98.5284,-100.0284 107.6561,-105.4076 109.0183,-98.5414"/>
</g>
<!-- Node6&#45;&gt;Node8 -->
<g id="edge8" class="edge">
<title>Node6&#45;&gt;Node8</title>
<path fill="none" stroke="#191970" d="M111.3559,-91.5885C199.4895,-93.2179 367.7894,-96.5281 511,-100.5 516.8644,-100.6626 522.8917,-100.8387 528.973,-101.023"/>
<polygon fill="#191970" stroke="#191970" points="111.3336,-88.0876 101.2708,-91.403 111.2047,-95.0864 111.3336,-88.0876"/>
</g>
<!-- Node7 -->
<g id="node7" class="node">
<title>Node7</title>
<g id="a_node7"><a xlink:href="classgko_1_1EnablePolymorphicObject.html" target="_top" xlink:title="This mixin inherits from (a subclass of) PolymorphicObject and provides a base implementation of a ne...">
<polygon fill="#ffffff" stroke="#000000" points="941,-99.5 941,-129.5 1146,-129.5 1146,-99.5 941,-99.5"/>
<text text-anchor="start" x="949" y="-117.5" font-family="Helvetica,sans-Serif" font-size="10.00" fill="#000000">gko::EnablePolymorphicObject</text>
<text text-anchor="middle" x="1043.5" y="-106.5" font-family="Helvetica,sans-Serif" font-size="10.00" fill="#000000">&lt; ConcreteObject, PolymorphicBase &gt;</text>
</a>
</g>
</g>
<!-- Node7&#45;&gt;Node2 -->
<g id="edge6" class="edge">
<title>Node7&#45;&gt;Node2</title>
<path fill="none" stroke="#ffa500" stroke-dasharray="5,2" d="M1156.3193,-114.7755C1223.9579,-114.9407 1308.4883,-115.1471 1369.9986,-115.2973"/>
<polygon fill="#ffa500" stroke="#ffa500" points="1156.0501,-111.2749 1146.0416,-114.7504 1156.033,-118.2749 1156.0501,-111.2749"/>
<text text-anchor="start" x="1175" y="-128.5" font-family="Helvetica,sans-Serif" font-size="10.00" fill="#000000"> &lt; Rcm&lt; ValueType, IndexType</text>
<text text-anchor="middle" x="1251.5" y="-117.5" font-family="Helvetica,sans-Serif" font-size="10.00" fill="#000000"> &gt;, ReorderingBase &gt;</text>
</g>
<!-- Node8&#45;&gt;Node7 -->
<g id="edge7" class="edge">
<title>Node8&#45;&gt;Node7</title>
<path fill="none" stroke="#191970" d="M740.5057,-107.1813C802.7963,-108.6859 879.9829,-110.5503 940.8607,-112.0208"/>
<polygon fill="#191970" stroke="#191970" points="740.328,-103.6761 730.2464,-106.9335 740.1589,-110.674 740.328,-103.6761"/>
</g>
<!-- Node9 -->
<g id="node9" class="node">
<title>Node9</title>
<g id="a_node9"><a xlink:href="classgko_1_1EnablePolymorphicAssignment.html" target="_top" xlink:title=" ">
<polygon fill="#ffffff" stroke="#000000" points="1357,-45.5 1357,-75.5 1549,-75.5 1549,-45.5 1357,-45.5"/>
<text text-anchor="start" x="1365" y="-63.5" font-family="Helvetica,sans-Serif" font-size="10.00" fill="#000000">gko::EnablePolymorphicAssignment</text>
<text text-anchor="middle" x="1453" y="-52.5" font-family="Helvetica,sans-Serif" font-size="10.00" fill="#000000">&lt; Rcm&lt; ValueType, IndexType &gt; &gt;</text>
</a>
</g>
</g>
<!-- Node9&#45;&gt;Node1 -->
<g id="edge10" class="edge">
<title>Node9&#45;&gt;Node1</title>
<path fill="none" stroke="#191970" d="M1559.2734,-74.7755C1568.288,-75.9865 1577.2405,-77.189 1585.8394,-78.3441"/>
<polygon fill="#191970" stroke="#191970" points="1559.4617,-71.2695 1549.0848,-73.4069 1558.5297,-78.2072 1559.4617,-71.2695"/>
</g>
<!-- Node10 -->
<g id="node10" class="node">
<title>Node10</title>
<g id="a_node10"><a xlink:href="classgko_1_1ConvertibleTo.html" target="_top" xlink:title=" ">
<polygon fill="#ffffff" stroke="#000000" points="949.5,-49.5 949.5,-79.5 1137.5,-79.5 1137.5,-49.5 949.5,-49.5"/>
<text text-anchor="start" x="957.5" y="-67.5" font-family="Helvetica,sans-Serif" font-size="10.00" fill="#000000">gko::ConvertibleTo</text>
<text text-anchor="middle" x="1043.5" y="-56.5" font-family="Helvetica,sans-Serif" font-size="10.00" fill="#000000">&lt; Rcm&lt; ValueType, IndexType &gt; &gt;</text>
</a>
</g>
</g>
<!-- Node10&#45;&gt;Node9 -->
<g id="edge11" class="edge">
<title>Node10&#45;&gt;Node9</title>
<path fill="none" stroke="#191970" d="M1147.8685,-63.4805C1212.1716,-62.8524 1294.0268,-62.0529 1356.7651,-61.44"/>
<polygon fill="#191970" stroke="#191970" points="1147.6699,-59.9822 1137.7045,-63.5798 1147.7383,-66.9819 1147.6699,-59.9822"/>
</g>
<!-- Node11 -->
<g id="node11" class="node">
<title>Node11</title>
<g id="a_node11"><a xlink:href="classgko_1_1ConvertibleTo.html" target="_top" xlink:title="ConvertibleTo interface is used to mark that the implementer can be converted to the object of Result...">
<polygon fill="#ffffff" stroke="#000000" points="576,-25.5 576,-55.5 683,-55.5 683,-25.5 576,-25.5"/>
<text text-anchor="start" x="584" y="-43.5" font-family="Helvetica,sans-Serif" font-size="10.00" fill="#000000">gko::ConvertibleTo</text>
<text text-anchor="middle" x="629.5" y="-32.5" font-family="Helvetica,sans-Serif" font-size="10.00" fill="#000000">&lt; ResultType &gt;</text>
</a>
</g>
</g>
<!-- Node11&#45;&gt;Node10 -->
<g id="edge12" class="edge">
<title>Node11&#45;&gt;Node10</title>
<path fill="none" stroke="#ffa500" stroke-dasharray="5,2" d="M693.3957,-44.2041C761.7639,-48.1675 870.9204,-54.4954 949.1761,-59.032"/>
<polygon fill="#ffa500" stroke="#ffa500" points="693.3847,-40.6977 683.1988,-43.613 692.9795,-47.6859 693.3847,-40.6977"/>
<text text-anchor="middle" x="835.5" y="-60.5" font-family="Helvetica,sans-Serif" font-size="10.00" fill="#000000"> &lt; Rcm&lt; ValueType, IndexType &gt; &gt;</text>
</g>
<!-- Node12 -->
<g id="node12" class="node">
<title>Node12</title>
<g id="a_node12"><a xlink:href="classgko_1_1EnablePolymorphicAssignment.html" target="_top" xlink:title="This mixin is used to enable a default PolymorphicObject::copy_from() implementation for objects that...">
<polygon fill="#ffffff" stroke="#000000" points="947.5,-.5 947.5,-30.5 1139.5,-30.5 1139.5,-.5 947.5,-.5"/>
<text text-anchor="start" x="955.5" y="-18.5" font-family="Helvetica,sans-Serif" font-size="10.00" fill="#000000">gko::EnablePolymorphicAssignment</text>
<text text-anchor="middle" x="1043.5" y="-7.5" font-family="Helvetica,sans-Serif" font-size="10.00" fill="#000000">&lt; ConcreteType, ResultType &gt;</text>
</a>
</g>
</g>
<!-- Node11&#45;&gt;Node12 -->
<g id="edge14" class="edge">
<title>Node11&#45;&gt;Node12</title>
<path fill="none" stroke="#191970" d="M693.3101,-36.6467C761.0887,-32.5538 869.0245,-26.036 947.1628,-21.3175"/>
<polygon fill="#191970" stroke="#191970" points="692.9697,-33.1608 683.1988,-37.2573 693.3917,-40.1481 692.9697,-33.1608"/>
</g>
<!-- Node12&#45;&gt;Node9 -->
<g id="edge13" class="edge">
<title>Node12&#45;&gt;Node9</title>
<path fill="none" stroke="#ffa500" stroke-dasharray="5,2" d="M1149.682,-26.1809C1205.969,-31.9587 1276.2665,-39.3579 1339,-46.5 1344.8446,-47.1654 1350.8561,-47.8634 1356.9183,-48.5775"/>
<polygon fill="#ffa500" stroke="#ffa500" points="1150.0042,-22.6957 1139.6995,-25.1582 1149.2907,-29.6593 1150.0042,-22.6957"/>
<text text-anchor="middle" x="1251.5" y="-49.5" font-family="Helvetica,sans-Serif" font-size="10.00" fill="#000000"> &lt; Rcm&lt; ValueType, IndexType &gt; &gt;</text>
</g>
</g>
</svg>
