<?xml version="1.0" encoding="UTF-8" standalone="no"?>
<!DOCTYPE svg PUBLIC "-//W3C//DTD SVG 1.1//EN"
 "http://www.w3.org/Graphics/SVG/1.1/DTD/svg11.dtd">
<!-- Generated by graphviz version 2.40.1 (20161225.0304)
 -->
<!-- Title: gko::preconditioner::Jacobi&lt; ValueType, IndexType &gt; Pages: 1 -->
<!--zoomable 409 -->
<svg id="main" version="1.1" xmlns="http://www.w3.org/2000/svg" xmlns:xlink="http://www.w3.org/1999/xlink" xml:space="preserve" onload="init(evt)">
<style type="text/css"><![CDATA[
.edge:hover path { stroke: red; }
.edge:hover polygon { stroke: red; fill: red; }
]]></style>
<script type="text/javascript"><![CDATA[
var edges = document.getElementsByTagName('g');
if (edges && edges.length) {
  for (var i=0;i<edges.length;i++) {
    if (edges[i].id.substr(0,4)=='edge') {
      edges[i].setAttribute('class','edge');
    }
  }
}
]]></script>
        <defs>
                <circle id="rim" cx="0" cy="0" r="7"/>
                <circle id="rim2" cx="0" cy="0" r="3.5"/>
                <g id="zoomPlus">
                        <use xlink:href="#rim" fill="#404040">
                                <set attributeName="fill" to="#808080" begin="zoomplus.mouseover" end="zoomplus.mouseout"/>
                        </use>
                        <path d="M-4,0h8M0,-4v8" fill="none" stroke="white" stroke-width="1.5" pointer-events="none"/>
                </g>
                <g id="zoomMin">
                        <use xlink:href="#rim" fill="#404040">
                                <set attributeName="fill" to="#808080" begin="zoomminus.mouseover" end="zoomminus.mouseout"/>
                        </use>
                        <path d="M-4,0h8" fill="none" stroke="white" stroke-width="1.5" pointer-events="none"/>
                </g>
                <g id="dirArrow">
                        <path fill="none" stroke="white" stroke-width="1.5" d="M0,-3.0v7 M-2.5,-0.5L0,-3.0L2.5,-0.5"/>
                </g>
               <g id="resetDef">
                       <use xlink:href="#rim2" fill="#404040">
                               <set attributeName="fill" to="#808080" begin="reset.mouseover" end="reset.mouseout"/>
                       </use>
               </g>
        </defs>

<script type="text/javascript">
var viewWidth = 2225;
var viewHeight = 409;
var sectionId = 'dynsection-0';
</script>
<script xlink:href="svgpan.js"/>
<svg id="graph" class="graph">
<g id="viewport">
<title>gko::preconditioner::Jacobi&lt; ValueType, IndexType &gt;</title>
<polygon fill="#ffffff" stroke="transparent" points="-4,4 -4,-404.5 2221,-404.5 2221,4 -4,4"/>
<!-- Node1 -->
<g id="node1" class="node">
<title>Node1</title>
<g id="a_node1"><a xlink:title="A block&#45;Jacobi preconditioner is a block&#45;diagonal linear operator, obtained by inverting the diagonal...">
<polygon fill="#bfbfbf" stroke="#000000" points="2101,-39 2101,-80 2217,-80 2217,-39 2101,-39"/>
<text text-anchor="start" x="2109" y="-68" font-family="Helvetica,sans-Serif" font-size="10.00" fill="#000000">gko::preconditioner</text>
<text text-anchor="start" x="2109" y="-57" font-family="Helvetica,sans-Serif" font-size="10.00" fill="#000000">::Jacobi&lt; ValueType,</text>
<text text-anchor="middle" x="2159" y="-46" font-family="Helvetica,sans-Serif" font-size="10.00" fill="#000000"> IndexType &gt;</text>
</a>
</g>
</g>
<!-- Node2 -->
<g id="node2" class="node">
<title>Node2</title>
<g id="a_node2"><a xlink:href="classgko_1_1EnableLinOp.html" target="_top" xlink:title=" ">
<polygon fill="#ffffff" stroke="#000000" points="1909,-163.5 1909,-193.5 2064,-193.5 2064,-163.5 1909,-163.5"/>
<text text-anchor="start" x="1917" y="-181.5" font-family="Helvetica,sans-Serif" font-size="10.00" fill="#000000">gko::EnableLinOp&lt; Jacobi</text>
<text text-anchor="middle" x="1986.5" y="-170.5" font-family="Helvetica,sans-Serif" font-size="10.00" fill="#000000">&lt; ValueType, IndexType &gt; &gt;</text>
</a>
</g>
</g>
<!-- Node2&#45;&gt;Node1 -->
<g id="edge1" class="edge">
<title>Node2&#45;&gt;Node1</title>
<path fill="none" stroke="#191970" d="M2016.776,-157.614C2048.4292,-135.7778 2097.7876,-101.7277 2129.2449,-80.0267"/>
<polygon fill="#191970" stroke="#191970" points="2014.5911,-154.8691 2008.3472,-163.4286 2018.5661,-160.6311 2014.5911,-154.8691"/>
</g>
<!-- Node3 -->
<g id="node3" class="node">
<title>Node3</title>
<g id="a_node3"><a xlink:href="classgko_1_1EnablePolymorphicObject.html" target="_top" xlink:title=" ">
<polygon fill="#ffffff" stroke="#000000" points="1592,-218 1592,-259 1765,-259 1765,-218 1592,-218"/>
<text text-anchor="start" x="1600" y="-247" font-family="Helvetica,sans-Serif" font-size="10.00" fill="#000000">gko::EnablePolymorphicObject</text>
<text text-anchor="start" x="1600" y="-236" font-family="Helvetica,sans-Serif" font-size="10.00" fill="#000000">&lt; Jacobi&lt; ValueType, IndexType</text>
<text text-anchor="middle" x="1678.5" y="-225" font-family="Helvetica,sans-Serif" font-size="10.00" fill="#000000"> &gt;, LinOp &gt;</text>
</a>
</g>
</g>
<!-- Node3&#45;&gt;Node2 -->
<g id="edge2" class="edge">
<title>Node3&#45;&gt;Node2</title>
<path fill="none" stroke="#191970" d="M1775.0956,-219.6827C1818.3902,-211.2487 1868.7489,-201.4385 1909.4538,-193.509"/>
<polygon fill="#191970" stroke="#191970" points="1774.261,-216.2794 1765.1148,-221.627 1775.5996,-223.1502 1774.261,-216.2794"/>
</g>
<!-- Node4 -->
<g id="node4" class="node">
<title>Node4</title>
<g id="a_node4"><a xlink:href="classgko_1_1EnableAbstractPolymorphicObject.html" target="_top" xlink:title=" ">
<polygon fill="#ffffff" stroke="#000000" points="1367,-218 1367,-259 1542,-259 1542,-218 1367,-218"/>
<text text-anchor="start" x="1375" y="-247" font-family="Helvetica,sans-Serif" font-size="10.00" fill="#000000">gko::EnableAbstractPolymorphic</text>
<text text-anchor="start" x="1375" y="-236" font-family="Helvetica,sans-Serif" font-size="10.00" fill="#000000">Object&lt; Jacobi&lt; ValueType,</text>
<text text-anchor="middle" x="1454.5" y="-225" font-family="Helvetica,sans-Serif" font-size="10.00" fill="#000000"> IndexType &gt;, LinOp &gt;</text>
</a>
</g>
</g>
<!-- Node4&#45;&gt;Node3 -->
<g id="edge3" class="edge">
<title>Node4&#45;&gt;Node3</title>
<path fill="none" stroke="#191970" d="M1552.0892,-238.5C1565.2811,-238.5 1578.7441,-238.5 1591.7298,-238.5"/>
<polygon fill="#191970" stroke="#191970" points="1552.0667,-235.0001 1542.0666,-238.5 1552.0666,-242.0001 1552.0667,-235.0001"/>
</g>
<!-- Node5 -->
<g id="node5" class="node">
<title>Node5</title>
<g id="a_node5"><a xlink:href="classgko_1_1LinOp.html" target="_top" xlink:title=" ">
<polygon fill="#ffffff" stroke="#000000" points="1001.5,-223 1001.5,-242 1069.5,-242 1069.5,-223 1001.5,-223"/>
<text text-anchor="middle" x="1035.5" y="-230" font-family="Helvetica,sans-Serif" font-size="10.00" fill="#000000">gko::LinOp</text>
</a>
</g>
</g>
<!-- Node5&#45;&gt;Node4 -->
<g id="edge4" class="edge">
<title>Node5&#45;&gt;Node4</title>
<path fill="none" stroke="#191970" d="M1080.1579,-233.1395C1148.2374,-234.1144 1279.2882,-235.991 1366.8353,-237.2447"/>
<polygon fill="#191970" stroke="#191970" points="1079.8377,-229.6346 1069.7885,-232.991 1079.7374,-236.6339 1079.8377,-229.6346"/>
</g>
<!-- Node6 -->
<g id="node6" class="node">
<title>Node6</title>
<g id="a_node6"><a xlink:href="classgko_1_1EnableAbstractPolymorphicObject.html" target="_top" xlink:title=" ">
<polygon fill="#ffffff" stroke="#ff0000" points="542,-211.5 542,-241.5 717,-241.5 717,-211.5 542,-211.5"/>
<text text-anchor="start" x="550" y="-229.5" font-family="Helvetica,sans-Serif" font-size="10.00" fill="#000000">gko::EnableAbstractPolymorphic</text>
<text text-anchor="middle" x="629.5" y="-218.5" font-family="Helvetica,sans-Serif" font-size="10.00" fill="#000000">Object&lt; LinOp &gt;</text>
</a>
</g>
</g>
<!-- Node6&#45;&gt;Node5 -->
<g id="edge5" class="edge">
<title>Node6&#45;&gt;Node5</title>
<path fill="none" stroke="#191970" d="M727.1602,-227.9433C815.6812,-229.2514 941.1681,-231.1059 1001.0769,-231.9913"/>
<polygon fill="#191970" stroke="#191970" points="727.1468,-224.4428 717.0961,-227.7945 727.0433,-231.442 727.1468,-224.4428"/>
</g>
<!-- Node11 -->
<g id="node7" class="node">
<title>Node11</title>
<g id="a_node7"><a xlink:href="classgko_1_1EnableAbstractPolymorphicObject.html" target="_top" xlink:title="This mixin inherits from (a subclass of) PolymorphicObject and provides a base implementation of a ne...">
<polygon fill="#ffffff" stroke="#000000" points="138,-271 138,-312 336,-312 336,-271 138,-271"/>
<text text-anchor="start" x="146" y="-300" font-family="Helvetica,sans-Serif" font-size="10.00" fill="#000000">gko::EnableAbstractPolymorphic</text>
<text text-anchor="start" x="146" y="-289" font-family="Helvetica,sans-Serif" font-size="10.00" fill="#000000">Object&lt; AbstractObject, Polymorphic</text>
<text text-anchor="middle" x="237" y="-278" font-family="Helvetica,sans-Serif" font-size="10.00" fill="#000000">Base &gt;</text>
</a>
</g>
</g>
<!-- Node11&#45;&gt;Node4 -->
<g id="edge8" class="edge">
<title>Node11&#45;&gt;Node4</title>
<path fill="none" stroke="#ffa500" stroke-dasharray="5,2" d="M346.4569,-289.287C544.2027,-284.8501 974.0933,-273.1952 1336,-249.5 1345.9994,-248.8453 1356.4631,-248.0439 1366.8565,-247.1748"/>
<polygon fill="#ffa500" stroke="#ffa500" points="346.274,-285.7901 336.3544,-289.512 346.4299,-292.7884 346.274,-285.7901"/>
<text text-anchor="start" x="777" y="-291.5" font-family="Helvetica,sans-Serif" font-size="10.00" fill="#000000"> &lt; Jacobi&lt; ValueType,</text>
<text text-anchor="middle" x="831.5" y="-280.5" font-family="Helvetica,sans-Serif" font-size="10.00" fill="#000000"> IndexType &gt;, LinOp &gt;</text>
</g>
<!-- Node11&#45;&gt;Node6 -->
<g id="edge6" class="edge">
<title>Node11&#45;&gt;Node6</title>
<path fill="none" stroke="#ffa500" stroke-dasharray="5,2" d="M289.3472,-266.9678C309.1773,-258.7362 332.2259,-250.4086 354,-245.5 415.853,-231.5562 487.324,-226.9486 541.9684,-225.7521"/>
<polygon fill="#ffa500" stroke="#ffa500" points="287.7257,-263.8539 279.8907,-270.9857 290.4631,-270.2965 287.7257,-263.8539"/>
<text text-anchor="middle" x="432.5" y="-248.5" font-family="Helvetica,sans-Serif" font-size="10.00" fill="#000000"> &lt; LinOp &gt;</text>
</g>
<!-- Node14 -->
<g id="node10" class="node">
<title>Node14</title>
<g id="a_node10"><a xlink:href="classgko_1_1EnableAbstractPolymorphicObject.html" target="_top" xlink:title=" ">
<polygon fill="#ffffff" stroke="#000000" points="529,-299 529,-340 730,-340 730,-299 529,-299"/>
<text text-anchor="start" x="537" y="-328" font-family="Helvetica,sans-Serif" font-size="10.00" fill="#000000">gko::EnableAbstractPolymorphic</text>
<text text-anchor="start" x="537" y="-317" font-family="Helvetica,sans-Serif" font-size="10.00" fill="#000000">Object&lt; ConcreteObject, Polymorphic</text>
<text text-anchor="middle" x="629.5" y="-306" font-family="Helvetica,sans-Serif" font-size="10.00" fill="#000000">Base &gt;</text>
</a>
</g>
</g>
<!-- Node11&#45;&gt;Node14 -->
<g id="edge12" class="edge">
<title>Node11&#45;&gt;Node14</title>
<path fill="none" stroke="#ffa500" stroke-dasharray="5,2" d="M346.2827,-294.7177C396.5183,-296.7017 456.8487,-299.7954 511,-304.5 516.7846,-305.0026 522.7214,-305.5746 528.7079,-306.195"/>
<polygon fill="#ffa500" stroke="#ffa500" points="346.1765,-291.2111 336.0491,-294.3233 345.9068,-298.2059 346.1765,-291.2111"/>
<text text-anchor="start" x="354" y="-318.5" font-family="Helvetica,sans-Serif" font-size="10.00" fill="#000000"> &lt; ConcreteObject, Polymorphic</text>
<text text-anchor="middle" x="432.5" y="-307.5" font-family="Helvetica,sans-Serif" font-size="10.00" fill="#000000">Base &gt;</text>
</g>
<!-- Node21 -->
<g id="node17" class="node">
<title>Node21</title>
<g id="a_node17"><a xlink:href="classgko_1_1EnableAbstractPolymorphicObject.html" target="_top" xlink:title=" ">
<polygon fill="#ffffff" stroke="#000000" points="531,-359 531,-400 728,-400 728,-359 531,-359"/>
<text text-anchor="start" x="539" y="-388" font-family="Helvetica,sans-Serif" font-size="10.00" fill="#000000">gko::EnableAbstractPolymorphic</text>
<text text-anchor="start" x="539" y="-377" font-family="Helvetica,sans-Serif" font-size="10.00" fill="#000000">Object&lt; ConcreteLinOp, Polymorphic</text>
<text text-anchor="middle" x="629.5" y="-366" font-family="Helvetica,sans-Serif" font-size="10.00" fill="#000000">Base &gt;</text>
</a>
</g>
</g>
<!-- Node11&#45;&gt;Node21 -->
<g id="edge22" class="edge">
<title>Node11&#45;&gt;Node21</title>
<path fill="none" stroke="#ffa500" stroke-dasharray="5,2" d="M302.6556,-315.2512C319.2681,-320.7434 337.1734,-326.2235 354,-330.5 412.0306,-345.2487 478.0421,-357.1537 530.8989,-365.5346"/>
<polygon fill="#ffa500" stroke="#ffa500" points="303.6357,-311.8883 293.0417,-312.025 301.4087,-318.5246 303.6357,-311.8883"/>
<text text-anchor="start" x="356" y="-375.5" font-family="Helvetica,sans-Serif" font-size="10.00" fill="#000000"> &lt; ConcreteLinOp, Polymorphic</text>
<text text-anchor="middle" x="432.5" y="-364.5" font-family="Helvetica,sans-Serif" font-size="10.00" fill="#000000">Base &gt;</text>
</g>
<!-- Node12 -->
<g id="node8" class="node">
<title>Node12</title>
<g id="a_node8"><a xlink:title=" ">
<polygon fill="#ffffff" stroke="#bfbfbf" points="0,-331 0,-350 101,-350 101,-331 0,-331"/>
<text text-anchor="middle" x="50.5" y="-338" font-family="Helvetica,sans-Serif" font-size="10.00" fill="#000000">PolymorphicBase</text>
</a>
</g>
</g>
<!-- Node12&#45;&gt;Node11 -->
<g id="edge7" class="edge">
<title>Node12&#45;&gt;Node11</title>
<path fill="none" stroke="#191970" d="M96.6373,-328.3781C115.3596,-323.4591 137.5184,-317.6372 158.6324,-312.0899"/>
<polygon fill="#191970" stroke="#191970" points="95.6842,-325.0097 86.9018,-330.936 97.463,-331.7799 95.6842,-325.0097"/>
</g>
<!-- Node12&#45;&gt;Node14 -->
<g id="edge11" class="edge">
<title>Node12&#45;&gt;Node14</title>
<path fill="none" stroke="#191970" d="M111.371,-339.2038C199.5229,-337.2006 367.8451,-332.903 511,-326.5 516.8676,-326.2376 522.8975,-325.9468 528.9807,-325.6373"/>
<polygon fill="#191970" stroke="#191970" points="111.2024,-335.7066 101.2837,-339.4309 111.36,-342.7048 111.2024,-335.7066"/>
</g>
<!-- Node12&#45;&gt;Node21 -->
<g id="edge21" class="edge">
<title>Node12&#45;&gt;Node21</title>
<path fill="none" stroke="#191970" d="M111.3657,-351.2458C113.9441,-351.6747 116.4972,-352.0945 119,-352.5 223.237,-369.3897 248.6919,-379.7009 354,-387.5 423.5872,-392.6536 441.2619,-389.8514 511,-387.5 517.4915,-387.2811 524.1797,-386.995 530.9178,-386.6615"/>
<polygon fill="#191970" stroke="#191970" points="111.7917,-347.7683 101.3489,-349.5568 110.6277,-354.6709 111.7917,-347.7683"/>
</g>
<!-- Node13 -->
<g id="node9" class="node">
<title>Node13</title>
<g id="a_node9"><a xlink:href="classgko_1_1EnablePolymorphicObject.html" target="_top" xlink:title="This mixin inherits from (a subclass of) PolymorphicObject and provides a base implementation of a ne...">
<polygon fill="#ffffff" stroke="#000000" points="933,-304.5 933,-334.5 1138,-334.5 1138,-304.5 933,-304.5"/>
<text text-anchor="start" x="941" y="-322.5" font-family="Helvetica,sans-Serif" font-size="10.00" fill="#000000">gko::EnablePolymorphicObject</text>
<text text-anchor="middle" x="1035.5" y="-311.5" font-family="Helvetica,sans-Serif" font-size="10.00" fill="#000000">&lt; ConcreteObject, PolymorphicBase &gt;</text>
</a>
</g>
</g>
<!-- Node13&#45;&gt;Node3 -->
<g id="edge9" class="edge">
<title>Node13&#45;&gt;Node3</title>
<path fill="none" stroke="#ffa500" stroke-dasharray="5,2" d="M1148.1309,-313.0223C1253.7671,-305.8667 1415.8623,-292.1088 1555,-268.5 1570.01,-265.9531 1585.9005,-262.5998 1601.1066,-259.0597"/>
<polygon fill="#ffa500" stroke="#ffa500" points="1147.831,-309.5345 1138.087,-313.6943 1148.2983,-316.5189 1147.831,-309.5345"/>
<text text-anchor="start" x="1400" y="-308.5" font-family="Helvetica,sans-Serif" font-size="10.00" fill="#000000"> &lt; Jacobi&lt; ValueType,</text>
<text text-anchor="middle" x="1454.5" y="-297.5" font-family="Helvetica,sans-Serif" font-size="10.00" fill="#000000"> IndexType &gt;, LinOp &gt;</text>
</g>
<!-- Node20 -->
<g id="node16" class="node">
<title>Node20</title>
<g id="a_node16"><a xlink:href="classgko_1_1EnablePolymorphicObject.html" target="_top" xlink:title=" ">
<polygon fill="#ffffff" stroke="#000000" points="1354,-336.5 1354,-366.5 1555,-366.5 1555,-336.5 1354,-336.5"/>
<text text-anchor="start" x="1362" y="-354.5" font-family="Helvetica,sans-Serif" font-size="10.00" fill="#000000">gko::EnablePolymorphicObject</text>
<text text-anchor="middle" x="1454.5" y="-343.5" font-family="Helvetica,sans-Serif" font-size="10.00" fill="#000000">&lt; ConcreteLinOp, PolymorphicBase &gt;</text>
</a>
</g>
</g>
<!-- Node13&#45;&gt;Node20 -->
<g id="edge23" class="edge">
<title>Node13&#45;&gt;Node20</title>
<path fill="none" stroke="#ffa500" stroke-dasharray="5,2" d="M1148.1589,-326.0755C1204.591,-329.6038 1273.9463,-334.2946 1336,-339.5 1341.8726,-339.9926 1347.9064,-340.5243 1353.9926,-341.0802"/>
<polygon fill="#ffa500" stroke="#ffa500" points="1148.3362,-322.5798 1138.1383,-325.4527 1147.9019,-329.5664 1148.3362,-322.5798"/>
<text text-anchor="start" x="1169.5" y="-353.5" font-family="Helvetica,sans-Serif" font-size="10.00" fill="#000000"> &lt; ConcreteLinOp, Polymorphic</text>
<text text-anchor="middle" x="1246" y="-342.5" font-family="Helvetica,sans-Serif" font-size="10.00" fill="#000000">Base &gt;</text>
</g>
<!-- Node14&#45;&gt;Node13 -->
<g id="edge10" class="edge">
<title>Node14&#45;&gt;Node13</title>
<path fill="none" stroke="#191970" d="M740.4012,-319.5C800.4601,-319.5 874.1675,-319.5 932.8938,-319.5"/>
<polygon fill="#191970" stroke="#191970" points="740.1203,-316.0001 730.1203,-319.5 740.1203,-323.0001 740.1203,-316.0001"/>
</g>
<!-- Node15 -->
<g id="node11" class="node">
<title>Node15</title>
<g id="a_node11"><a xlink:href="classgko_1_1EnablePolymorphicAssignment.html" target="_top" xlink:title=" ">
<polygon fill="#ffffff" stroke="#000000" points="1356.5,-102.5 1356.5,-132.5 1552.5,-132.5 1552.5,-102.5 1356.5,-102.5"/>
<text text-anchor="start" x="1364.5" y="-120.5" font-family="Helvetica,sans-Serif" font-size="10.00" fill="#000000">gko::EnablePolymorphicAssignment</text>
<text text-anchor="middle" x="1454.5" y="-109.5" font-family="Helvetica,sans-Serif" font-size="10.00" fill="#000000">&lt; Jacobi&lt; ValueType, IndexType &gt; &gt;</text>
</a>
</g>
</g>
<!-- Node15&#45;&gt;Node2 -->
<g id="edge13" class="edge">
<title>Node15&#45;&gt;Node2</title>
<path fill="none" stroke="#191970" d="M1562.7956,-129.9173C1665.5608,-141.7006 1817.4767,-159.1195 1908.7444,-169.5844"/>
<polygon fill="#191970" stroke="#191970" points="1563.0306,-126.4215 1552.697,-128.7594 1562.2331,-133.3759 1563.0306,-126.4215"/>
</g>
<!-- Node16 -->
<g id="node12" class="node">
<title>Node16</title>
<g id="a_node12"><a xlink:href="classgko_1_1ConvertibleTo.html" target="_top" xlink:title=" ">
<polygon fill="#ffffff" stroke="#000000" points="975,-64 975,-105 1096,-105 1096,-64 975,-64"/>
<text text-anchor="start" x="983" y="-93" font-family="Helvetica,sans-Serif" font-size="10.00" fill="#000000">gko::ConvertibleTo</text>
<text text-anchor="start" x="983" y="-82" font-family="Helvetica,sans-Serif" font-size="10.00" fill="#000000">&lt; Jacobi&lt; ValueType,</text>
<text text-anchor="middle" x="1035.5" y="-71" font-family="Helvetica,sans-Serif" font-size="10.00" fill="#000000"> IndexType &gt; &gt;</text>
</a>
</g>
</g>
<!-- Node16&#45;&gt;Node15 -->
<g id="edge14" class="edge">
<title>Node16&#45;&gt;Node15</title>
<path fill="none" stroke="#191970" d="M1106.7004,-90.1077C1175.3063,-95.511 1279.6767,-103.7311 1356.1887,-109.7571"/>
<polygon fill="#191970" stroke="#191970" points="1106.6702,-86.5945 1096.4262,-89.2985 1106.1205,-93.5729 1106.6702,-86.5945"/>
</g>
<!-- Node17 -->
<g id="node13" class="node">
<title>Node17</title>
<g id="a_node13"><a xlink:href="classgko_1_1ConvertibleTo.html" target="_top" xlink:title="ConvertibleTo interface is used to mark that the implementer can be converted to the object of Result...">
<polygon fill="#ffffff" stroke="#000000" points="576,-92.5 576,-122.5 683,-122.5 683,-92.5 576,-92.5"/>
<text text-anchor="start" x="584" y="-110.5" font-family="Helvetica,sans-Serif" font-size="10.00" fill="#000000">gko::ConvertibleTo</text>
<text text-anchor="middle" x="629.5" y="-99.5" font-family="Helvetica,sans-Serif" font-size="10.00" fill="#000000">&lt; ResultType &gt;</text>
</a>
</g>
</g>
<!-- Node17&#45;&gt;Node16 -->
<g id="edge15" class="edge">
<title>Node17&#45;&gt;Node16</title>
<path fill="none" stroke="#ffa500" stroke-dasharray="5,2" d="M693.3172,-99.6168C711.0036,-97.6725 730.2263,-95.7822 748,-94.5 826.2078,-88.8579 916.6216,-86.375 974.8549,-85.2985"/>
<polygon fill="#ffa500" stroke="#ffa500" points="692.6508,-96.1696 683.1038,-100.7636 693.4319,-103.1258 692.6508,-96.1696"/>
<text text-anchor="start" x="777.5" y="-108.5" font-family="Helvetica,sans-Serif" font-size="10.00" fill="#000000"> &lt; Jacobi&lt; ValueType,</text>
<text text-anchor="middle" x="831.5" y="-97.5" font-family="Helvetica,sans-Serif" font-size="10.00" fill="#000000"> IndexType &gt; &gt;</text>
</g>
<!-- Node18 -->
<g id="node14" class="node">
<title>Node18</title>
<g id="a_node14"><a xlink:href="classgko_1_1EnablePolymorphicAssignment.html" target="_top" xlink:title="This mixin is used to enable a default PolymorphicObject::copy_from() implementation for objects that...">
<polygon fill="#ffffff" stroke="#000000" points="939.5,-124.5 939.5,-154.5 1131.5,-154.5 1131.5,-124.5 939.5,-124.5"/>
<text text-anchor="start" x="947.5" y="-142.5" font-family="Helvetica,sans-Serif" font-size="10.00" fill="#000000">gko::EnablePolymorphicAssignment</text>
<text text-anchor="middle" x="1035.5" y="-131.5" font-family="Helvetica,sans-Serif" font-size="10.00" fill="#000000">&lt; ConcreteType, ResultType &gt;</text>
</a>
</g>
</g>
<!-- Node17&#45;&gt;Node18 -->
<g id="edge17" class="edge">
<title>Node17&#45;&gt;Node18</title>
<path fill="none" stroke="#191970" d="M693.6808,-112.5586C759.7286,-117.7643 863.4057,-125.9359 939.2716,-131.9155"/>
<polygon fill="#191970" stroke="#191970" points="693.6578,-109.046 683.4137,-111.7494 693.1077,-116.0244 693.6578,-109.046"/>
</g>
<!-- Node23 -->
<g id="node19" class="node">
<title>Node23</title>
<g id="a_node19"><a xlink:href="classgko_1_1ConvertibleTo.html" target="_top" xlink:title=" ">
<polygon fill="#ffffff" stroke="#000000" points="980.5,-173.5 980.5,-203.5 1090.5,-203.5 1090.5,-173.5 980.5,-173.5"/>
<text text-anchor="start" x="988.5" y="-191.5" font-family="Helvetica,sans-Serif" font-size="10.00" fill="#000000">gko::ConvertibleTo</text>
<text text-anchor="middle" x="1035.5" y="-180.5" font-family="Helvetica,sans-Serif" font-size="10.00" fill="#000000">&lt; ConcreteLinOp &gt;</text>
</a>
</g>
</g>
<!-- Node17&#45;&gt;Node23 -->
<g id="edge26" class="edge">
<title>Node17&#45;&gt;Node23</title>
<path fill="none" stroke="#ffa500" stroke-dasharray="5,2" d="M693.4552,-124.5925C711.0703,-129.0539 730.2224,-133.6781 748,-137.5 828.4113,-154.7871 922.3804,-170.6475 980.4215,-179.9457"/>
<polygon fill="#ffa500" stroke="#ffa500" points="693.8386,-121.078 683.2833,-121.9918 692.1047,-127.8599 693.8386,-121.078"/>
<text text-anchor="middle" x="831.5" y="-171.5" font-family="Helvetica,sans-Serif" font-size="10.00" fill="#000000"> &lt; ConcreteLinOp &gt;</text>
</g>
<!-- Node24 -->
<g id="node20" class="node">
<title>Node24</title>
<g id="a_node20"><a xlink:href="classgko_1_1ConvertibleTo.html" target="_top" xlink:title=" ">
<polygon fill="#ffffff" stroke="#000000" points="1156,-29.5 1156,-59.5 1336,-59.5 1336,-29.5 1156,-29.5"/>
<text text-anchor="start" x="1164" y="-47.5" font-family="Helvetica,sans-Serif" font-size="10.00" fill="#000000">gko::ConvertibleTo</text>
<text text-anchor="middle" x="1246" y="-36.5" font-family="Helvetica,sans-Serif" font-size="10.00" fill="#000000">&lt; matrix::Dense&lt; ValueType &gt; &gt;</text>
</a>
</g>
</g>
<!-- Node17&#45;&gt;Node24 -->
<g id="edge29" class="edge">
<title>Node17&#45;&gt;Node24</title>
<path fill="none" stroke="#ffa500" stroke-dasharray="5,2" d="M682.8263,-89.4029C703.031,-83.1696 726.3755,-76.7058 748,-72.5 888.466,-45.1807 1055.095,-41.464 1155.5808,-42.262"/>
<polygon fill="#ffa500" stroke="#ffa500" points="681.6721,-86.0968 673.1812,-92.4336 683.7705,-92.7749 681.6721,-86.0968"/>
<text text-anchor="middle" x="831.5" y="-75.5" font-family="Helvetica,sans-Serif" font-size="10.00" fill="#000000"> &lt; matrix::Dense&lt; ValueType &gt; &gt;</text>
</g>
<!-- Node18&#45;&gt;Node15 -->
<g id="edge16" class="edge">
<title>Node18&#45;&gt;Node15</title>
<path fill="none" stroke="#ffa500" stroke-dasharray="5,2" d="M1120.1361,-122.8963C1132.1337,-121.0846 1144.3491,-119.5273 1156,-118.5 1222.5936,-112.6282 1297.8689,-112.4202 1356.1668,-113.6589"/>
<polygon fill="#ffa500" stroke="#ffa500" points="1119.4606,-119.4595 1110.1265,-124.472 1120.5491,-126.3744 1119.4606,-119.4595"/>
<text text-anchor="start" x="1192" y="-132.5" font-family="Helvetica,sans-Serif" font-size="10.00" fill="#000000"> &lt; Jacobi&lt; ValueType,</text>
<text text-anchor="middle" x="1246" y="-121.5" font-family="Helvetica,sans-Serif" font-size="10.00" fill="#000000"> IndexType &gt; &gt;</text>
</g>
<!-- Node22 -->
<g id="node18" class="node">
<title>Node22</title>
<g id="a_node18"><a xlink:href="classgko_1_1EnablePolymorphicAssignment.html" target="_top" xlink:title=" ">
<polygon fill="#ffffff" stroke="#000000" points="1358.5,-168.5 1358.5,-198.5 1550.5,-198.5 1550.5,-168.5 1358.5,-168.5"/>
<text text-anchor="start" x="1366.5" y="-186.5" font-family="Helvetica,sans-Serif" font-size="10.00" fill="#000000">gko::EnablePolymorphicAssignment</text>
<text text-anchor="middle" x="1454.5" y="-175.5" font-family="Helvetica,sans-Serif" font-size="10.00" fill="#000000">&lt; ConcreteLinOp &gt;</text>
</a>
</g>
</g>
<!-- Node18&#45;&gt;Node22 -->
<g id="edge27" class="edge">
<title>Node18&#45;&gt;Node22</title>
<path fill="none" stroke="#ffa500" stroke-dasharray="5,2" d="M1141.7958,-150.2964C1199.2981,-156.1796 1271.55,-163.6405 1336,-170.5 1343.3059,-171.2776 1350.8644,-172.0895 1358.4648,-172.9113"/>
<polygon fill="#ffa500" stroke="#ffa500" points="1141.9068,-146.7896 1131.6027,-149.2543 1141.1948,-153.7533 1141.9068,-146.7896"/>
<text text-anchor="middle" x="1246" y="-173.5" font-family="Helvetica,sans-Serif" font-size="10.00" fill="#000000"> &lt; ConcreteLinOp &gt;</text>
</g>
<!-- Node19 -->
<g id="node15" class="node">
<title>Node19</title>
<g id="a_node15"><a xlink:href="classgko_1_1EnableLinOp.html" target="_top" xlink:title="The EnableLinOp mixin can be used to provide sensible default implementations of the majority of the ...">
<polygon fill="#ffffff" stroke="#000000" points="1600.5,-305.5 1600.5,-335.5 1756.5,-335.5 1756.5,-305.5 1600.5,-305.5"/>
<text text-anchor="start" x="1608.5" y="-323.5" font-family="Helvetica,sans-Serif" font-size="10.00" fill="#000000">gko::EnableLinOp&lt; Concrete</text>
<text text-anchor="middle" x="1678.5" y="-312.5" font-family="Helvetica,sans-Serif" font-size="10.00" fill="#000000">LinOp, PolymorphicBase &gt;</text>
</a>
</g>
</g>
<!-- Node19&#45;&gt;Node2 -->
<g id="edge18" class="edge">
<title>Node19&#45;&gt;Node2</title>
<path fill="none" stroke="#ffa500" stroke-dasharray="5,2" d="M1720.2829,-301.2364C1782.2806,-272.6531 1897.3589,-219.5975 1953.7016,-193.6213"/>
<polygon fill="#ffa500" stroke="#ffa500" points="1718.7857,-298.0726 1711.1698,-305.4379 1721.7165,-304.4295 1718.7857,-298.0726"/>
<text text-anchor="start" x="1783" y="-284.5" font-family="Helvetica,sans-Serif" font-size="10.00" fill="#000000"> &lt; Jacobi&lt; ValueType,</text>
<text text-anchor="middle" x="1837" y="-273.5" font-family="Helvetica,sans-Serif" font-size="10.00" fill="#000000"> IndexType &gt; &gt;</text>
</g>
<!-- Node20&#45;&gt;Node19 -->
<g id="edge19" class="edge">
<title>Node20&#45;&gt;Node19</title>
<path fill="none" stroke="#191970" d="M1565.0613,-336.1991C1577.0194,-334.5442 1588.9995,-332.8862 1600.456,-331.3007"/>
<polygon fill="#191970" stroke="#191970" points="1564.4593,-332.749 1555.0335,-337.5869 1565.4189,-339.6829 1564.4593,-332.749"/>
</g>
<!-- Node21&#45;&gt;Node20 -->
<g id="edge20" class="edge">
<title>Node21&#45;&gt;Node20</title>
<path fill="none" stroke="#191970" d="M738.3705,-378.7077C877.1934,-377.2421 1124.5978,-373.1029 1336,-361.5 1341.8753,-361.1775 1347.9111,-360.8029 1353.9988,-360.3918"/>
<polygon fill="#191970" stroke="#191970" points="738.118,-375.21 728.1546,-378.8128 738.1901,-382.2097 738.118,-375.21"/>
</g>
<!-- Node22&#45;&gt;Node19 -->
<g id="edge24" class="edge">
<title>Node22&#45;&gt;Node19</title>
<path fill="none" stroke="#191970" d="M1546.6852,-203.128C1549.5682,-204.7773 1552.3506,-206.5642 1555,-208.5 1580.2964,-226.9831 1569.7218,-246.4725 1592,-268.5 1607.4502,-283.7764 1628.2276,-296.454 1645.5465,-305.4662"/>
<polygon fill="#191970" stroke="#191970" points="1548.2656,-200.0051 1537.7669,-198.5813 1545.0862,-206.2415 1548.2656,-200.0051"/>
</g>
<!-- Node23&#45;&gt;Node22 -->
<g id="edge25" class="edge">
<title>Node23&#45;&gt;Node22</title>
<path fill="none" stroke="#191970" d="M1101.0071,-187.7183C1170.0194,-186.8948 1279.4164,-185.5893 1358.2394,-184.6487"/>
<polygon fill="#191970" stroke="#191970" points="1100.6653,-184.222 1090.7078,-187.8412 1100.7489,-191.2215 1100.6653,-184.222"/>
</g>
<!-- Node24&#45;&gt;Node1 -->
<g id="edge28" class="edge">
<title>Node24&#45;&gt;Node1</title>
<path fill="none" stroke="#191970" d="M1346.5123,-51.4871C1411.2813,-55.4 1497.322,-59.5 1573.5,-59.5 1573.5,-59.5 1573.5,-59.5 1986.5,-59.5 2024.5339,-59.5 2067.2848,-59.5 2100.7121,-59.5"/>
<polygon fill="#191970" stroke="#191970" points="1346.5002,-47.9799 1336.3047,-50.8614 1346.0718,-54.9667 1346.5002,-47.9799"/>
</g>
<!-- Node25 -->
<g id="node21" class="node">
<title>Node25</title>
<g id="a_node21"><a xlink:href="classgko_1_1WritableToMatrixData.html" target="_top" xlink:title="A LinOp implementing this interface can write its data to a matrix_data structure.">
<polygon fill="#ffffff" stroke="#000000" points="1913.5,-.5 1913.5,-30.5 2059.5,-30.5 2059.5,-.5 1913.5,-.5"/>
<text text-anchor="start" x="1921.5" y="-18.5" font-family="Helvetica,sans-Serif" font-size="10.00" fill="#000000">gko::WritableToMatrixData</text>
<text text-anchor="middle" x="1986.5" y="-7.5" font-family="Helvetica,sans-Serif" font-size="10.00" fill="#000000">&lt; ValueType, IndexType &gt;</text>
</a>
</g>
</g>
<!-- Node25&#45;&gt;Node1 -->
<g id="edge30" class="edge">
<title>Node25&#45;&gt;Node1</title>
<path fill="none" stroke="#191970" d="M2055.2133,-33.0269C2070.3706,-36.8931 2086.2823,-40.9517 2100.9675,-44.6975"/>
<polygon fill="#191970" stroke="#191970" points="2055.9371,-29.5995 2045.3822,-30.5192 2054.2069,-36.3823 2055.9371,-29.5995"/>
</g>
</g>
</svg>
        <g id="navigator" transform="translate(0 0)" fill="#404254">
                <rect fill="#f2f5e9" fill-opacity="0.5" stroke="#606060" stroke-width=".5" x="0" y="0" width="60" height="60"/>
                <use id="zoomplus" xlink:href="#zoomPlus" x="17" y="9" onmousedown="handleZoom(evt,'in')"/>
                <use id="zoomminus" xlink:href="#zoomMin" x="42" y="9" onmousedown="handleZoom(evt,'out')"/>
                <use id="reset" xlink:href="#resetDef" x="30" y="36" onmousedown="handleReset()"/>
                <g id="arrowUp" xlink:href="#dirArrow" transform="translate(30 24)" onmousedown="handlePan(0,-1)">
                  <use xlink:href="#rim" fill="#404040">
                        <set attributeName="fill" to="#808080" begin="arrowUp.mouseover" end="arrowUp.mouseout"/>
                  </use>
                  <path fill="none" stroke="white" stroke-width="1.5" d="M0,-3.0v7 M-2.5,-0.5L0,-3.0L2.5,-0.5"/>
                </g>
                <g id="arrowRight" xlink:href="#dirArrow" transform="rotate(90) translate(36 -43)" onmousedown="handlePan(1,0)">
                  <use xlink:href="#rim" fill="#404040">
                        <set attributeName="fill" to="#808080" begin="arrowRight.mouseover" end="arrowRight.mouseout"/>
                  </use>
                  <path fill="none" stroke="white" stroke-width="1.5" d="M0,-3.0v7 M-2.5,-0.5L0,-3.0L2.5,-0.5"/>
                </g>
                <g id="arrowDown" xlink:href="#dirArrow" transform="rotate(180) translate(-30 -48)" onmousedown="handlePan(0,1)">
                  <use xlink:href="#rim" fill="#404040">
                        <set attributeName="fill" to="#808080" begin="arrowDown.mouseover" end="arrowDown.mouseout"/>
                  </use>
                  <path fill="none" stroke="white" stroke-width="1.5" d="M0,-3.0v7 M-2.5,-0.5L0,-3.0L2.5,-0.5"/>
                </g>
                <g id="arrowLeft" xlink:href="#dirArrow" transform="rotate(270) translate(-36 17)" onmousedown="handlePan(-1,0)">
                  <use xlink:href="#rim" fill="#404040">
                        <set attributeName="fill" to="#808080" begin="arrowLeft.mouseover" end="arrowLeft.mouseout"/>
                  </use>
                  <path fill="none" stroke="white" stroke-width="1.5" d="M0,-3.0v7 M-2.5,-0.5L0,-3.0L2.5,-0.5"/>
                </g>
        </g>
        <svg viewBox="0 0 15 15" width="100%" height="30px" preserveAspectRatio="xMaxYMin meet">
         <g id="arrow_out" transform="scale(0.3 0.3)">
          <a xlink:href="classgko_1_1preconditioner_1_1Jacobi__coll__graph_org.svg" target="_base">
           <rect id="button" ry="5" rx="5" y="6" x="6" height="38" width="38"
                fill="#f2f5e9" fill-opacity="0.5" stroke="#606060" stroke-width="1.0"/>
           <path id="arrow"
             d="M 11.500037,31.436501 C 11.940474,20.09759 22.043105,11.32322 32.158766,21.979434 L 37.068811,17.246167 C 37.068811,17.246167 37.088388,32 37.088388,32 L 22.160133,31.978069 C 22.160133,31.978069 26.997745,27.140456 26.997745,27.140456 C 18.528582,18.264221 13.291696,25.230495 11.500037,31.436501 z"
             style="fill:#404040;"/>
          </a>
         </g>
        </svg>
</svg>
