<?xml version="1.0" encoding="UTF-8" standalone="no"?>
<!DOCTYPE svg PUBLIC "-//W3C//DTD SVG 1.1//EN"
 "http://www.w3.org/Graphics/SVG/1.1/DTD/svg11.dtd">
<!-- Generated by graphviz version 2.40.1 (20161225.0304)
 -->
<!-- Title: gko::matrix::Identity&lt; ValueType &gt; Pages: 1 -->
<!--zoomable 335 -->
<svg id="main" version="1.1" xmlns="http://www.w3.org/2000/svg" xmlns:xlink="http://www.w3.org/1999/xlink" xml:space="preserve" onload="init(evt)">
<style type="text/css"><![CDATA[
.edge:hover path { stroke: red; }
.edge:hover polygon { stroke: red; fill: red; }
]]></style>
<script type="text/javascript"><![CDATA[
var edges = document.getElementsByTagName('g');
if (edges && edges.length) {
  for (var i=0;i<edges.length;i++) {
    if (edges[i].id.substr(0,4)=='edge') {
      edges[i].setAttribute('class','edge');
    }
  }
}
]]></script>
        <defs>
                <circle id="rim" cx="0" cy="0" r="7"/>
                <circle id="rim2" cx="0" cy="0" r="3.5"/>
                <g id="zoomPlus">
                        <use xlink:href="#rim" fill="#404040">
                                <set attributeName="fill" to="#808080" begin="zoomplus.mouseover" end="zoomplus.mouseout"/>
                        </use>
                        <path d="M-4,0h8M0,-4v8" fill="none" stroke="white" stroke-width="1.5" pointer-events="none"/>
                </g>
                <g id="zoomMin">
                        <use xlink:href="#rim" fill="#404040">
                                <set attributeName="fill" to="#808080" begin="zoomminus.mouseover" end="zoomminus.mouseout"/>
                        </use>
                        <path d="M-4,0h8" fill="none" stroke="white" stroke-width="1.5" pointer-events="none"/>
                </g>
                <g id="dirArrow">
                        <path fill="none" stroke="white" stroke-width="1.5" d="M0,-3.0v7 M-2.5,-0.5L0,-3.0L2.5,-0.5"/>
                </g>
               <g id="resetDef">
                       <use xlink:href="#rim2" fill="#404040">
                               <set attributeName="fill" to="#808080" begin="reset.mouseover" end="reset.mouseout"/>
                       </use>
               </g>
        </defs>

<script type="text/javascript">
var viewWidth = 2179;
var viewHeight = 335;
var sectionId = 'dynsection-0';
</script>
<script xlink:href="svgpan.js"/>
<svg id="graph" class="graph">
<g id="viewport">
<title>gko::matrix::Identity&lt; ValueType &gt;</title>
<polygon fill="#ffffff" stroke="transparent" points="-4,4 -4,-330.5 2175,-330.5 2175,4 -4,4"/>
<!-- Node1 -->
<g id="node1" class="node">
<title>Node1</title>
<g id="a_node1"><a xlink:title="This class is a utility which efficiently implements the identity matrix (a linear operator which map...">
<polygon fill="#bfbfbf" stroke="#000000" points="2055,-53.5 2055,-83.5 2171,-83.5 2171,-53.5 2055,-53.5"/>
<text text-anchor="start" x="2063" y="-71.5" font-family="Helvetica,sans-Serif" font-size="10.00" fill="#000000">gko::matrix::Identity</text>
<text text-anchor="middle" x="2113" y="-60.5" font-family="Helvetica,sans-Serif" font-size="10.00" fill="#000000">&lt; ValueType &gt;</text>
</a>
</g>
</g>
<!-- Node2 -->
<g id="node2" class="node">
<title>Node2</title>
<g id="a_node2"><a xlink:href="classgko_1_1EnableLinOp.html" target="_top" xlink:title=" ">
<polygon fill="#ffffff" stroke="#000000" points="1868,-124.5 1868,-154.5 2018,-154.5 2018,-124.5 1868,-124.5"/>
<text text-anchor="start" x="1876" y="-142.5" font-family="Helvetica,sans-Serif" font-size="10.00" fill="#000000">gko::EnableLinOp&lt; Identity</text>
<text text-anchor="middle" x="1943" y="-131.5" font-family="Helvetica,sans-Serif" font-size="10.00" fill="#000000">&lt; ValueType &gt; &gt;</text>
</a>
</g>
</g>
<!-- Node2&#45;&gt;Node1 -->
<g id="edge1" class="edge">
<title>Node2&#45;&gt;Node1</title>
<path fill="none" stroke="#191970" d="M1988.5348,-120.4825C2016.2677,-108.9 2051.2048,-94.3086 2076.9993,-83.5356"/>
<polygon fill="#191970" stroke="#191970" points="1986.9313,-117.3592 1979.0526,-124.4427 1989.6291,-123.8185 1986.9313,-117.3592"/>
</g>
<!-- Node3 -->
<g id="node3" class="node">
<title>Node3</title>
<g id="a_node3"><a xlink:href="classgko_1_1EnablePolymorphicObject.html" target="_top" xlink:title=" ">
<polygon fill="#ffffff" stroke="#000000" points="1530,-207 1530,-248 1696,-248 1696,-207 1530,-207"/>
<text text-anchor="start" x="1538" y="-236" font-family="Helvetica,sans-Serif" font-size="10.00" fill="#000000">gko::EnablePolymorphicObject</text>
<text text-anchor="start" x="1538" y="-225" font-family="Helvetica,sans-Serif" font-size="10.00" fill="#000000">&lt; Identity&lt; ValueType &gt;,</text>
<text text-anchor="middle" x="1613" y="-214" font-family="Helvetica,sans-Serif" font-size="10.00" fill="#000000"> LinOp &gt;</text>
</a>
</g>
</g>
<!-- Node3&#45;&gt;Node2 -->
<g id="edge2" class="edge">
<title>Node3&#45;&gt;Node2</title>
<path fill="none" stroke="#191970" d="M1700.0834,-204.4135C1744.888,-192.5197 1800.3771,-177.7652 1850,-164.5 1861.9524,-161.3049 1874.7656,-157.868 1886.9433,-154.5961"/>
<polygon fill="#191970" stroke="#191970" points="1699.1673,-201.0354 1690.3999,-206.9837 1700.9631,-207.8012 1699.1673,-201.0354"/>
</g>
<!-- Node4 -->
<g id="node4" class="node">
<title>Node4</title>
<g id="a_node4"><a xlink:href="classgko_1_1EnableAbstractPolymorphicObject.html" target="_top" xlink:title=" ">
<polygon fill="#ffffff" stroke="#000000" points="1305,-268 1305,-309 1480,-309 1480,-268 1305,-268"/>
<text text-anchor="start" x="1313" y="-297" font-family="Helvetica,sans-Serif" font-size="10.00" fill="#000000">gko::EnableAbstractPolymorphic</text>
<text text-anchor="start" x="1313" y="-286" font-family="Helvetica,sans-Serif" font-size="10.00" fill="#000000">Object&lt; Identity&lt; ValueType</text>
<text text-anchor="middle" x="1392.5" y="-275" font-family="Helvetica,sans-Serif" font-size="10.00" fill="#000000"> &gt;, LinOp &gt;</text>
</a>
</g>
</g>
<!-- Node4&#45;&gt;Node3 -->
<g id="edge3" class="edge">
<title>Node4&#45;&gt;Node3</title>
<path fill="none" stroke="#191970" d="M1476.729,-265.1985C1497.098,-259.5636 1518.7236,-253.581 1538.6039,-248.0812"/>
<polygon fill="#191970" stroke="#191970" points="1475.5486,-261.8936 1466.8438,-267.9332 1477.4151,-268.6402 1475.5486,-261.8936"/>
</g>
<!-- Node5 -->
<g id="node5" class="node">
<title>Node5</title>
<g id="a_node5"><a xlink:href="classgko_1_1LinOp.html" target="_top" xlink:title=" ">
<polygon fill="#ffffff" stroke="#000000" points="966.5,-275 966.5,-294 1034.5,-294 1034.5,-275 966.5,-275"/>
<text text-anchor="middle" x="1000.5" y="-282" font-family="Helvetica,sans-Serif" font-size="10.00" fill="#000000">gko::LinOp</text>
</a>
</g>
</g>
<!-- Node5&#45;&gt;Node4 -->
<g id="edge4" class="edge">
<title>Node5&#45;&gt;Node4</title>
<path fill="none" stroke="#191970" d="M1044.9667,-284.9537C1107.8762,-285.5957 1224.1665,-286.7823 1304.805,-287.6052"/>
<polygon fill="#191970" stroke="#191970" points="1044.6369,-281.4503 1034.6017,-284.848 1044.5654,-288.4499 1044.6369,-281.4503"/>
</g>
<!-- Node6 -->
<g id="node6" class="node">
<title>Node6</title>
<g id="a_node6"><a xlink:href="classgko_1_1EnableAbstractPolymorphicObject.html" target="_top" xlink:title=" ">
<polygon fill="#ffffff" stroke="#ff0000" points="538,-264.5 538,-294.5 713,-294.5 713,-264.5 538,-264.5"/>
<text text-anchor="start" x="546" y="-282.5" font-family="Helvetica,sans-Serif" font-size="10.00" fill="#000000">gko::EnableAbstractPolymorphic</text>
<text text-anchor="middle" x="625.5" y="-271.5" font-family="Helvetica,sans-Serif" font-size="10.00" fill="#000000">Object&lt; LinOp &gt;</text>
</a>
</g>
</g>
<!-- Node6&#45;&gt;Node5 -->
<g id="edge5" class="edge">
<title>Node6&#45;&gt;Node5</title>
<path fill="none" stroke="#191970" d="M723.5253,-280.807C803.541,-281.8739 911.9545,-283.3194 966.3664,-284.0449"/>
<polygon fill="#191970" stroke="#191970" points="723.4666,-277.306 713.4208,-280.6723 723.3733,-284.3054 723.4666,-277.306"/>
</g>
<!-- Node11 -->
<g id="node7" class="node">
<title>Node11</title>
<g id="a_node7"><a xlink:href="classgko_1_1EnableAbstractPolymorphicObject.html" target="_top" xlink:title="This mixin inherits from (a subclass of) PolymorphicObject and provides a base implementation of a ne...">
<polygon fill="#ffffff" stroke="#000000" points="138,-239 138,-280 332,-280 332,-239 138,-239"/>
<text text-anchor="start" x="146" y="-268" font-family="Helvetica,sans-Serif" font-size="10.00" fill="#000000">gko::EnableAbstractPolymorphic</text>
<text text-anchor="start" x="146" y="-257" font-family="Helvetica,sans-Serif" font-size="10.00" fill="#000000">Object&lt; AbstactObject, Polymorphic</text>
<text text-anchor="middle" x="235" y="-246" font-family="Helvetica,sans-Serif" font-size="10.00" fill="#000000">Base &gt;</text>
</a>
</g>
</g>
<!-- Node11&#45;&gt;Node4 -->
<g id="edge8" class="edge">
<title>Node11&#45;&gt;Node4</title>
<path fill="none" stroke="#ffa500" stroke-dasharray="5,2" d="M319.0668,-282.299C329.4342,-284.6367 339.9254,-286.78 350,-288.5 426.9882,-301.6442 446.979,-300.9407 525,-304.5 561.761,-306.177 947.0081,-305.0751 1103,-303.5 1179.0078,-302.7325 1198.1216,-304.9997 1274,-300.5 1284.0113,-299.9063 1294.4825,-299.1069 1304.8801,-298.2009"/>
<polygon fill="#ffa500" stroke="#ffa500" points="319.7147,-278.8564 309.1824,-280.0055 318.1325,-285.6753 319.7147,-278.8564"/>
<text text-anchor="start" x="755.5" y="-318.5" font-family="Helvetica,sans-Serif" font-size="10.00" fill="#000000"> &lt; Identity&lt; ValueType</text>
<text text-anchor="middle" x="812" y="-307.5" font-family="Helvetica,sans-Serif" font-size="10.00" fill="#000000"> &gt;, LinOp &gt;</text>
</g>
<!-- Node11&#45;&gt;Node6 -->
<g id="edge6" class="edge">
<title>Node11&#45;&gt;Node6</title>
<path fill="none" stroke="#ffa500" stroke-dasharray="5,2" d="M342.3132,-266.0791C344.9005,-266.2226 347.4659,-266.3631 350,-266.5 412.755,-269.8904 483.5786,-273.2214 537.7017,-275.6628"/>
<polygon fill="#ffa500" stroke="#ffa500" points="342.4252,-262.58 332.2444,-265.5127 342.032,-269.5689 342.4252,-262.58"/>
<text text-anchor="middle" x="428.5" y="-276.5" font-family="Helvetica,sans-Serif" font-size="10.00" fill="#000000"> &lt; LinOp &gt;</text>
</g>
<!-- Node14 -->
<g id="node10" class="node">
<title>Node14</title>
<g id="a_node10"><a xlink:href="classgko_1_1EnableAbstractPolymorphicObject.html" target="_top" xlink:title=" ">
<polygon fill="#ffffff" stroke="#000000" points="525,-202 525,-243 726,-243 726,-202 525,-202"/>
<text text-anchor="start" x="533" y="-231" font-family="Helvetica,sans-Serif" font-size="10.00" fill="#000000">gko::EnableAbstractPolymorphic</text>
<text text-anchor="start" x="533" y="-220" font-family="Helvetica,sans-Serif" font-size="10.00" fill="#000000">Object&lt; ConcreteObject, Polymorphic</text>
<text text-anchor="middle" x="625.5" y="-209" font-family="Helvetica,sans-Serif" font-size="10.00" fill="#000000">Base &gt;</text>
</a>
</g>
</g>
<!-- Node11&#45;&gt;Node14 -->
<g id="edge12" class="edge">
<title>Node11&#45;&gt;Node14</title>
<path fill="none" stroke="#ffa500" stroke-dasharray="5,2" d="M342.2684,-241.4302C344.8691,-241.1042 347.4494,-240.7933 350,-240.5 407.7369,-233.8606 472.584,-229.4726 524.854,-226.6927"/>
<polygon fill="#ffa500" stroke="#ffa500" points="341.6147,-237.9859 332.1552,-242.7576 342.5257,-244.9264 341.6147,-237.9859"/>
<text text-anchor="start" x="350" y="-254.5" font-family="Helvetica,sans-Serif" font-size="10.00" fill="#000000"> &lt; ConcreteObject, Polymorphic</text>
<text text-anchor="middle" x="428.5" y="-243.5" font-family="Helvetica,sans-Serif" font-size="10.00" fill="#000000">Base &gt;</text>
</g>
<!-- Node21 -->
<g id="node17" class="node">
<title>Node21</title>
<g id="a_node17"><a xlink:href="classgko_1_1EnableAbstractPolymorphicObject.html" target="_top" xlink:title=" ">
<polygon fill="#ffffff" stroke="#000000" points="527,-137 527,-178 724,-178 724,-137 527,-137"/>
<text text-anchor="start" x="535" y="-166" font-family="Helvetica,sans-Serif" font-size="10.00" fill="#000000">gko::EnableAbstractPolymorphic</text>
<text text-anchor="start" x="535" y="-155" font-family="Helvetica,sans-Serif" font-size="10.00" fill="#000000">Object&lt; ConcreteLinOp, Polymorphic</text>
<text text-anchor="middle" x="625.5" y="-144" font-family="Helvetica,sans-Serif" font-size="10.00" fill="#000000">Base &gt;</text>
</a>
</g>
</g>
<!-- Node11&#45;&gt;Node21 -->
<g id="edge22" class="edge">
<title>Node11&#45;&gt;Node21</title>
<path fill="none" stroke="#ffa500" stroke-dasharray="5,2" d="M278.0251,-233.8093C299.069,-222.2962 325.1651,-209.5306 350,-201.5 407.1473,-183.021 473.5707,-172.1203 526.8762,-165.7919"/>
<polygon fill="#ffa500" stroke="#ffa500" points="276.0668,-230.8937 269.0351,-238.8188 279.4741,-237.0085 276.0668,-230.8937"/>
<text text-anchor="start" x="352" y="-215.5" font-family="Helvetica,sans-Serif" font-size="10.00" fill="#000000"> &lt; ConcreteLinOp, Polymorphic</text>
<text text-anchor="middle" x="428.5" y="-204.5" font-family="Helvetica,sans-Serif" font-size="10.00" fill="#000000">Base &gt;</text>
</g>
<!-- Node12 -->
<g id="node8" class="node">
<title>Node12</title>
<g id="a_node8"><a xlink:title=" ">
<polygon fill="#ffffff" stroke="#bfbfbf" points="0,-201 0,-220 101,-220 101,-201 0,-201"/>
<text text-anchor="middle" x="50.5" y="-208" font-family="Helvetica,sans-Serif" font-size="10.00" fill="#000000">PolymorphicBase</text>
</a>
</g>
</g>
<!-- Node12&#45;&gt;Node11 -->
<g id="edge7" class="edge">
<title>Node12&#45;&gt;Node11</title>
<path fill="none" stroke="#191970" d="M96.3988,-222.6899C114.8661,-227.5945 136.6815,-233.3883 157.4728,-238.9101"/>
<polygon fill="#191970" stroke="#191970" points="97.0748,-219.2482 86.5114,-220.064 95.278,-226.0137 97.0748,-219.2482"/>
</g>
<!-- Node12&#45;&gt;Node14 -->
<g id="edge11" class="edge">
<title>Node12&#45;&gt;Node14</title>
<path fill="none" stroke="#191970" d="M111.106,-211.7648C209.5893,-213.8201 405.3646,-217.9059 524.9499,-220.4016"/>
<polygon fill="#191970" stroke="#191970" points="111.0944,-208.2639 101.0235,-211.5544 110.9482,-215.2624 111.0944,-208.2639"/>
</g>
<!-- Node12&#45;&gt;Node21 -->
<g id="edge21" class="edge">
<title>Node12&#45;&gt;Node21</title>
<path fill="none" stroke="#191970" d="M109.9013,-199.0967C170.1366,-188.0723 266.1655,-171.9726 350,-164.5 408.4982,-159.2857 474.2385,-157.4625 526.8263,-156.9771"/>
<polygon fill="#191970" stroke="#191970" points="109.0154,-195.701 99.8159,-200.9565 110.2848,-202.5849 109.0154,-195.701"/>
</g>
<!-- Node13 -->
<g id="node9" class="node">
<title>Node13</title>
<g id="a_node9"><a xlink:href="classgko_1_1EnablePolymorphicObject.html" target="_top" xlink:title="This mixin inherits from (a subclass of) PolymorphicObject and provides a base implementation of a ne...">
<polygon fill="#ffffff" stroke="#000000" points="898,-207.5 898,-237.5 1103,-237.5 1103,-207.5 898,-207.5"/>
<text text-anchor="start" x="906" y="-225.5" font-family="Helvetica,sans-Serif" font-size="10.00" fill="#000000">gko::EnablePolymorphicObject</text>
<text text-anchor="middle" x="1000.5" y="-214.5" font-family="Helvetica,sans-Serif" font-size="10.00" fill="#000000">&lt; ConcreteObject, PolymorphicBase &gt;</text>
</a>
</g>
</g>
<!-- Node13&#45;&gt;Node3 -->
<g id="edge9" class="edge">
<title>Node13&#45;&gt;Node3</title>
<path fill="none" stroke="#ffa500" stroke-dasharray="5,2" d="M1113.0199,-223.4185C1233.5539,-224.4025 1422.0176,-225.941 1529.8379,-226.8211"/>
<polygon fill="#ffa500" stroke="#ffa500" points="1113.047,-219.9187 1103.0187,-223.3369 1112.9898,-226.9185 1113.047,-219.9187"/>
<text text-anchor="start" x="1336" y="-240.5" font-family="Helvetica,sans-Serif" font-size="10.00" fill="#000000"> &lt; Identity&lt; ValueType</text>
<text text-anchor="middle" x="1392.5" y="-229.5" font-family="Helvetica,sans-Serif" font-size="10.00" fill="#000000"> &gt;, LinOp &gt;</text>
</g>
<!-- Node20 -->
<g id="node16" class="node">
<title>Node20</title>
<g id="a_node16"><a xlink:href="classgko_1_1EnablePolymorphicObject.html" target="_top" xlink:title=" ">
<polygon fill="#ffffff" stroke="#000000" points="1292,-144.5 1292,-174.5 1493,-174.5 1493,-144.5 1292,-144.5"/>
<text text-anchor="start" x="1300" y="-162.5" font-family="Helvetica,sans-Serif" font-size="10.00" fill="#000000">gko::EnablePolymorphicObject</text>
<text text-anchor="middle" x="1392.5" y="-151.5" font-family="Helvetica,sans-Serif" font-size="10.00" fill="#000000">&lt; ConcreteLinOp, PolymorphicBase &gt;</text>
</a>
</g>
</g>
<!-- Node13&#45;&gt;Node20 -->
<g id="edge23" class="edge">
<title>Node13&#45;&gt;Node20</title>
<path fill="none" stroke="#ffa500" stroke-dasharray="5,2" d="M1062.5139,-204.8453C1081.1962,-199.9884 1101.8305,-195.0787 1121,-191.5 1177.1034,-181.0263 1240.4049,-173.3315 1291.7633,-168.116"/>
<polygon fill="#ffa500" stroke="#ffa500" points="1061.4245,-201.513 1052.65,-207.4509 1063.2123,-208.2808 1061.4245,-201.513"/>
<text text-anchor="start" x="1121" y="-205.5" font-family="Helvetica,sans-Serif" font-size="10.00" fill="#000000"> &lt; ConcreteLinOp, Polymorphic</text>
<text text-anchor="middle" x="1197.5" y="-194.5" font-family="Helvetica,sans-Serif" font-size="10.00" fill="#000000">Base &gt;</text>
</g>
<!-- Node14&#45;&gt;Node13 -->
<g id="edge10" class="edge">
<title>Node14&#45;&gt;Node13</title>
<path fill="none" stroke="#191970" d="M736.5643,-222.5C787.5899,-222.5 847.7277,-222.5 897.7018,-222.5"/>
<polygon fill="#191970" stroke="#191970" points="736.4865,-219.0001 726.4864,-222.5 736.4864,-226.0001 736.4865,-219.0001"/>
</g>
<!-- Node15 -->
<g id="node11" class="node">
<title>Node15</title>
<g id="a_node11"><a xlink:href="classgko_1_1EnablePolymorphicAssignment.html" target="_top" xlink:title=" ">
<polygon fill="#ffffff" stroke="#000000" points="1296.5,-95.5 1296.5,-125.5 1488.5,-125.5 1488.5,-95.5 1296.5,-95.5"/>
<text text-anchor="start" x="1304.5" y="-113.5" font-family="Helvetica,sans-Serif" font-size="10.00" fill="#000000">gko::EnablePolymorphicAssignment</text>
<text text-anchor="middle" x="1392.5" y="-102.5" font-family="Helvetica,sans-Serif" font-size="10.00" fill="#000000">&lt; Identity&lt; ValueType &gt; &gt;</text>
</a>
</g>
</g>
<!-- Node15&#45;&gt;Node2 -->
<g id="edge13" class="edge">
<title>Node15&#45;&gt;Node2</title>
<path fill="none" stroke="#191970" d="M1490.1244,-126.9386C1503.4916,-128.7416 1517.0627,-130.3408 1530,-131.5 1647.6788,-142.0441 1784.9413,-142.3301 1867.8429,-141.1943"/>
<polygon fill="#191970" stroke="#191970" points="1490.3429,-123.4353 1479.9559,-125.5239 1489.3782,-130.3686 1490.3429,-123.4353"/>
</g>
<!-- Node16 -->
<g id="node12" class="node">
<title>Node16</title>
<g id="a_node12"><a xlink:href="classgko_1_1ConvertibleTo.html" target="_top" xlink:title=" ">
<polygon fill="#ffffff" stroke="#000000" points="926,-98.5 926,-128.5 1075,-128.5 1075,-98.5 926,-98.5"/>
<text text-anchor="start" x="934" y="-116.5" font-family="Helvetica,sans-Serif" font-size="10.00" fill="#000000">gko::ConvertibleTo</text>
<text text-anchor="middle" x="1000.5" y="-105.5" font-family="Helvetica,sans-Serif" font-size="10.00" fill="#000000">&lt; Identity&lt; ValueType &gt; &gt;</text>
</a>
</g>
</g>
<!-- Node16&#45;&gt;Node15 -->
<g id="edge14" class="edge">
<title>Node16&#45;&gt;Node15</title>
<path fill="none" stroke="#191970" d="M1085.3039,-112.851C1147.3525,-112.3761 1231.62,-111.7312 1296.2031,-111.237"/>
<polygon fill="#191970" stroke="#191970" points="1085.1278,-109.3521 1075.1549,-112.9287 1085.1814,-116.3519 1085.1278,-109.3521"/>
</g>
<!-- Node17 -->
<g id="node13" class="node">
<title>Node17</title>
<g id="a_node13"><a xlink:href="classgko_1_1ConvertibleTo.html" target="_top" xlink:title="ConvertibleTo interface is used to mark that the implementer can be converted to the object of Result...">
<polygon fill="#ffffff" stroke="#000000" points="572,-49.5 572,-79.5 679,-79.5 679,-49.5 572,-49.5"/>
<text text-anchor="start" x="580" y="-67.5" font-family="Helvetica,sans-Serif" font-size="10.00" fill="#000000">gko::ConvertibleTo</text>
<text text-anchor="middle" x="625.5" y="-56.5" font-family="Helvetica,sans-Serif" font-size="10.00" fill="#000000">&lt; ResultType &gt;</text>
</a>
</g>
</g>
<!-- Node17&#45;&gt;Node16 -->
<g id="edge15" class="edge">
<title>Node17&#45;&gt;Node16</title>
<path fill="none" stroke="#ffa500" stroke-dasharray="5,2" d="M689.4184,-72.852C754.9164,-81.4104 856.6885,-94.7086 925.8462,-103.7452"/>
<polygon fill="#ffa500" stroke="#ffa500" points="689.5976,-69.3457 679.2284,-71.5205 688.6906,-76.2867 689.5976,-69.3457"/>
<text text-anchor="middle" x="812" y="-100.5" font-family="Helvetica,sans-Serif" font-size="10.00" fill="#000000"> &lt; Identity&lt; ValueType &gt; &gt;</text>
</g>
<!-- Node18 -->
<g id="node14" class="node">
<title>Node18</title>
<g id="a_node14"><a xlink:href="classgko_1_1EnablePolymorphicAssignment.html" target="_top" xlink:title="This mixin is used to enable a default PolymorphicObject::copy_from() implementation for objects that...">
<polygon fill="#ffffff" stroke="#000000" points="904.5,-49.5 904.5,-79.5 1096.5,-79.5 1096.5,-49.5 904.5,-49.5"/>
<text text-anchor="start" x="912.5" y="-67.5" font-family="Helvetica,sans-Serif" font-size="10.00" fill="#000000">gko::EnablePolymorphicAssignment</text>
<text text-anchor="middle" x="1000.5" y="-56.5" font-family="Helvetica,sans-Serif" font-size="10.00" fill="#000000">&lt; ConcreteType, ResultType &gt;</text>
</a>
</g>
</g>
<!-- Node17&#45;&gt;Node18 -->
<g id="edge17" class="edge">
<title>Node17&#45;&gt;Node18</title>
<path fill="none" stroke="#191970" d="M689.5304,-64.5C748.5493,-64.5 836.9516,-64.5 904.4323,-64.5"/>
<polygon fill="#191970" stroke="#191970" points="689.2284,-61.0001 679.2284,-64.5 689.2283,-68.0001 689.2284,-61.0001"/>
</g>
<!-- Node23 -->
<g id="node19" class="node">
<title>Node23</title>
<g id="a_node19"><a xlink:href="classgko_1_1ConvertibleTo.html" target="_top" xlink:title=" ">
<polygon fill="#ffffff" stroke="#000000" points="945.5,-.5 945.5,-30.5 1055.5,-30.5 1055.5,-.5 945.5,-.5"/>
<text text-anchor="start" x="953.5" y="-18.5" font-family="Helvetica,sans-Serif" font-size="10.00" fill="#000000">gko::ConvertibleTo</text>
<text text-anchor="middle" x="1000.5" y="-7.5" font-family="Helvetica,sans-Serif" font-size="10.00" fill="#000000">&lt; ConcreteLinOp &gt;</text>
</a>
</g>
</g>
<!-- Node17&#45;&gt;Node23 -->
<g id="edge26" class="edge">
<title>Node17&#45;&gt;Node23</title>
<path fill="none" stroke="#ffa500" stroke-dasharray="5,2" d="M689.5209,-56.1346C761.5054,-46.7286 877.2104,-31.6098 945.3454,-22.7069"/>
<polygon fill="#ffa500" stroke="#ffa500" points="688.6906,-52.7133 679.2284,-57.4795 689.5976,-59.6543 688.6906,-52.7133"/>
<text text-anchor="middle" x="812" y="-51.5" font-family="Helvetica,sans-Serif" font-size="10.00" fill="#000000"> &lt; ConcreteLinOp &gt;</text>
</g>
<!-- Node18&#45;&gt;Node15 -->
<g id="edge16" class="edge">
<title>Node18&#45;&gt;Node15</title>
<path fill="none" stroke="#ffa500" stroke-dasharray="5,2" d="M1106.7161,-76.213C1157.3823,-81.8837 1218.8434,-88.8835 1274,-95.5 1281.3093,-96.3768 1288.8701,-97.2989 1296.4722,-98.2368"/>
<polygon fill="#ffa500" stroke="#ffa500" points="1107.0588,-72.7296 1096.7319,-75.0971 1106.2812,-79.6863 1107.0588,-72.7296"/>
<text text-anchor="middle" x="1197.5" y="-98.5" font-family="Helvetica,sans-Serif" font-size="10.00" fill="#000000"> &lt; Identity&lt; ValueType &gt; &gt;</text>
</g>
<!-- Node22 -->
<g id="node18" class="node">
<title>Node22</title>
<g id="a_node18"><a xlink:href="classgko_1_1EnablePolymorphicAssignment.html" target="_top" xlink:title=" ">
<polygon fill="#ffffff" stroke="#000000" points="1296.5,-38.5 1296.5,-68.5 1488.5,-68.5 1488.5,-38.5 1296.5,-38.5"/>
<text text-anchor="start" x="1304.5" y="-56.5" font-family="Helvetica,sans-Serif" font-size="10.00" fill="#000000">gko::EnablePolymorphicAssignment</text>
<text text-anchor="middle" x="1392.5" y="-45.5" font-family="Helvetica,sans-Serif" font-size="10.00" fill="#000000">&lt; ConcreteLinOp &gt;</text>
</a>
</g>
</g>
<!-- Node18&#45;&gt;Node22 -->
<g id="edge27" class="edge">
<title>Node18&#45;&gt;Node22</title>
<path fill="none" stroke="#ffa500" stroke-dasharray="5,2" d="M1107.126,-55.1975C1111.8124,-54.9319 1116.4532,-54.6967 1121,-54.5 1179.1582,-51.9836 1244.3893,-51.6624 1296.3338,-52.0041"/>
<polygon fill="#ffa500" stroke="#ffa500" points="1106.5817,-51.724 1096.8126,-55.8245 1107.0066,-58.7111 1106.5817,-51.724"/>
<text text-anchor="middle" x="1197.5" y="-57.5" font-family="Helvetica,sans-Serif" font-size="10.00" fill="#000000"> &lt; ConcreteLinOp &gt;</text>
</g>
<!-- Node19 -->
<g id="node15" class="node">
<title>Node19</title>
<g id="a_node15"><a xlink:href="classgko_1_1EnableLinOp.html" target="_top" xlink:title="The EnableLinOp mixin can be used to provide sensible default implementations of the majority of the ...">
<polygon fill="#ffffff" stroke="#000000" points="1535,-91.5 1535,-121.5 1691,-121.5 1691,-91.5 1535,-91.5"/>
<text text-anchor="start" x="1543" y="-109.5" font-family="Helvetica,sans-Serif" font-size="10.00" fill="#000000">gko::EnableLinOp&lt; Concrete</text>
<text text-anchor="middle" x="1613" y="-98.5" font-family="Helvetica,sans-Serif" font-size="10.00" fill="#000000">LinOp, PolymorphicBase &gt;</text>
</a>
</g>
</g>
<!-- Node19&#45;&gt;Node2 -->
<g id="edge18" class="edge">
<title>Node19&#45;&gt;Node2</title>
<path fill="none" stroke="#ffa500" stroke-dasharray="5,2" d="M1701.292,-112.1152C1745.9376,-115.3258 1800.9243,-119.8459 1850,-125.5 1855.8394,-126.1728 1861.8755,-126.9332 1867.9376,-127.7433"/>
<polygon fill="#ffa500" stroke="#ffa500" points="1701.2776,-108.6055 1691.055,-111.3889 1700.7822,-115.588 1701.2776,-108.6055"/>
<text text-anchor="middle" x="1782" y="-128.5" font-family="Helvetica,sans-Serif" font-size="10.00" fill="#000000"> &lt; Identity&lt; ValueType &gt; &gt;</text>
</g>
<!-- Node20&#45;&gt;Node19 -->
<g id="edge19" class="edge">
<title>Node20&#45;&gt;Node19</title>
<path fill="none" stroke="#191970" d="M1465.4892,-142.0942C1474.7502,-139.8785 1484.0976,-137.6387 1493,-135.5 1511.8603,-130.9691 1532.3826,-126.0174 1551.0347,-121.5088"/>
<polygon fill="#191970" stroke="#191970" points="1464.4107,-138.7534 1455.4989,-144.4831 1466.0387,-145.5614 1464.4107,-138.7534"/>
</g>
<!-- Node21&#45;&gt;Node20 -->
<g id="edge20" class="edge">
<title>Node21&#45;&gt;Node20</title>
<path fill="none" stroke="#191970" d="M734.2601,-157.7836C882.886,-158.1711 1147.4148,-158.8609 1291.7416,-159.2373"/>
<polygon fill="#191970" stroke="#191970" points="734.2108,-154.2836 724.2016,-157.7574 734.1924,-161.2835 734.2108,-154.2836"/>
</g>
<!-- Node22&#45;&gt;Node19 -->
<g id="edge24" class="edge">
<title>Node22&#45;&gt;Node19</title>
<path fill="none" stroke="#191970" d="M1465.064,-70.9417C1492.5967,-77.5595 1523.694,-85.0342 1550.2468,-91.4165"/>
<polygon fill="#191970" stroke="#191970" points="1465.6377,-67.48 1455.0966,-68.5459 1464.0017,-74.2861 1465.6377,-67.48"/>
</g>
<!-- Node23&#45;&gt;Node22 -->
<g id="edge25" class="edge">
<title>Node23&#45;&gt;Node22</title>
<path fill="none" stroke="#191970" d="M1066.0239,-21.8518C1128.9342,-27.9503 1224.7021,-37.2339 1296.2698,-44.1716"/>
<polygon fill="#191970" stroke="#191970" points="1066.1237,-18.3452 1055.8326,-20.8639 1065.4482,-25.3125 1066.1237,-18.3452"/>
</g>
<!-- Node24 -->
<g id="node20" class="node">
<title>Node24</title>
<g id="a_node20"><a xlink:href="classgko_1_1EnableCreateMethod.html" target="_top" xlink:title=" ">
<polygon fill="#ffffff" stroke="#000000" points="1868.5,-53.5 1868.5,-83.5 2017.5,-83.5 2017.5,-53.5 1868.5,-53.5"/>
<text text-anchor="start" x="1876.5" y="-71.5" font-family="Helvetica,sans-Serif" font-size="10.00" fill="#000000">gko::EnableCreateMethod</text>
<text text-anchor="middle" x="1943" y="-60.5" font-family="Helvetica,sans-Serif" font-size="10.00" fill="#000000">&lt; Identity&lt; ValueType &gt; &gt;</text>
</a>
</g>
</g>
<!-- Node24&#45;&gt;Node1 -->
<g id="edge28" class="edge">
<title>Node24&#45;&gt;Node1</title>
<path fill="none" stroke="#191970" d="M2027.8559,-68.5C2036.992,-68.5 2046.1303,-68.5 2054.8486,-68.5"/>
<polygon fill="#191970" stroke="#191970" points="2027.5645,-65.0001 2017.5645,-68.5 2027.5644,-72.0001 2027.5645,-65.0001"/>
</g>
<!-- Node25 -->
<g id="node21" class="node">
<title>Node25</title>
<g id="a_node21"><a xlink:href="classgko_1_1EnableCreateMethod.html" target="_top" xlink:title="This mixin implements a static create() method on ConcreteType that dynamically allocates the memory,...">
<polygon fill="#ffffff" stroke="#000000" points="1542,-42.5 1542,-72.5 1684,-72.5 1684,-42.5 1542,-42.5"/>
<text text-anchor="start" x="1550" y="-60.5" font-family="Helvetica,sans-Serif" font-size="10.00" fill="#000000">gko::EnableCreateMethod</text>
<text text-anchor="middle" x="1613" y="-49.5" font-family="Helvetica,sans-Serif" font-size="10.00" fill="#000000">&lt; ConcreteType &gt;</text>
</a>
</g>
</g>
<!-- Node25&#45;&gt;Node24 -->
<g id="edge29" class="edge">
<title>Node25&#45;&gt;Node24</title>
<path fill="none" stroke="#ffa500" stroke-dasharray="5,2" d="M1694.2913,-60.2097C1747.5561,-61.9852 1816.6528,-64.2884 1868.4939,-66.0165"/>
<polygon fill="#ffa500" stroke="#ffa500" points="1694.3099,-56.7085 1684.1988,-59.8733 1694.0766,-63.7046 1694.3099,-56.7085"/>
<text text-anchor="middle" x="1782" y="-67.5" font-family="Helvetica,sans-Serif" font-size="10.00" fill="#000000"> &lt; Identity&lt; ValueType &gt; &gt;</text>
</g>
<!-- Node26 -->
<g id="node22" class="node">
<title>Node26</title>
<g id="a_node22"><a xlink:href="classgko_1_1Transposable.html" target="_top" xlink:title="Linear operators which support transposition should implement the Transposable interface.">
<polygon fill="#ffffff" stroke="#000000" points="1891,-15 1891,-34 1995,-34 1995,-15 1891,-15"/>
<text text-anchor="middle" x="1943" y="-22" font-family="Helvetica,sans-Serif" font-size="10.00" fill="#000000">gko::Transposable</text>
</a>
</g>
</g>
<!-- Node26&#45;&gt;Node1 -->
<g id="edge30" class="edge">
<title>Node26&#45;&gt;Node1</title>
<path fill="none" stroke="#191970" d="M1989.7399,-36.5974C2009.8461,-41.8013 2033.5616,-47.9395 2054.7929,-53.4346"/>
<polygon fill="#191970" stroke="#191970" points="1990.4455,-33.1647 1979.8875,-34.0473 1988.6915,-39.9414 1990.4455,-33.1647"/>
</g>
</g>
</svg>
        <g id="navigator" transform="translate(0 0)" fill="#404254">
                <rect fill="#f2f5e9" fill-opacity="0.5" stroke="#606060" stroke-width=".5" x="0" y="0" width="60" height="60"/>
                <use id="zoomplus" xlink:href="#zoomPlus" x="17" y="9" onmousedown="handleZoom(evt,'in')"/>
                <use id="zoomminus" xlink:href="#zoomMin" x="42" y="9" onmousedown="handleZoom(evt,'out')"/>
                <use id="reset" xlink:href="#resetDef" x="30" y="36" onmousedown="handleReset()"/>
                <g id="arrowUp" xlink:href="#dirArrow" transform="translate(30 24)" onmousedown="handlePan(0,-1)">
                  <use xlink:href="#rim" fill="#404040">
                        <set attributeName="fill" to="#808080" begin="arrowUp.mouseover" end="arrowUp.mouseout"/>
                  </use>
                  <path fill="none" stroke="white" stroke-width="1.5" d="M0,-3.0v7 M-2.5,-0.5L0,-3.0L2.5,-0.5"/>
                </g>
                <g id="arrowRight" xlink:href="#dirArrow" transform="rotate(90) translate(36 -43)" onmousedown="handlePan(1,0)">
                  <use xlink:href="#rim" fill="#404040">
                        <set attributeName="fill" to="#808080" begin="arrowRight.mouseover" end="arrowRight.mouseout"/>
                  </use>
                  <path fill="none" stroke="white" stroke-width="1.5" d="M0,-3.0v7 M-2.5,-0.5L0,-3.0L2.5,-0.5"/>
                </g>
                <g id="arrowDown" xlink:href="#dirArrow" transform="rotate(180) translate(-30 -48)" onmousedown="handlePan(0,1)">
                  <use xlink:href="#rim" fill="#404040">
                        <set attributeName="fill" to="#808080" begin="arrowDown.mouseover" end="arrowDown.mouseout"/>
                  </use>
                  <path fill="none" stroke="white" stroke-width="1.5" d="M0,-3.0v7 M-2.5,-0.5L0,-3.0L2.5,-0.5"/>
                </g>
                <g id="arrowLeft" xlink:href="#dirArrow" transform="rotate(270) translate(-36 17)" onmousedown="handlePan(-1,0)">
                  <use xlink:href="#rim" fill="#404040">
                        <set attributeName="fill" to="#808080" begin="arrowLeft.mouseover" end="arrowLeft.mouseout"/>
                  </use>
                  <path fill="none" stroke="white" stroke-width="1.5" d="M0,-3.0v7 M-2.5,-0.5L0,-3.0L2.5,-0.5"/>
                </g>
        </g>
        <svg viewBox="0 0 15 15" width="100%" height="30px" preserveAspectRatio="xMaxYMin meet">
         <g id="arrow_out" transform="scale(0.3 0.3)">
          <a xlink:href="classgko_1_1matrix_1_1Identity__coll__graph_org.svg" target="_base">
           <rect id="button" ry="5" rx="5" y="6" x="6" height="38" width="38"
                fill="#f2f5e9" fill-opacity="0.5" stroke="#606060" stroke-width="1.0"/>
           <path id="arrow"
             d="M 11.500037,31.436501 C 11.940474,20.09759 22.043105,11.32322 32.158766,21.979434 L 37.068811,17.246167 C 37.068811,17.246167 37.088388,32 37.088388,32 L 22.160133,31.978069 C 22.160133,31.978069 26.997745,27.140456 26.997745,27.140456 C 18.528582,18.264221 13.291696,25.230495 11.500037,31.436501 z"
             style="fill:#404040;"/>
          </a>
         </g>
        </svg>
</svg>
