<?xml version="1.0" encoding="UTF-8" standalone="no"?>
<!DOCTYPE svg PUBLIC "-//W3C//DTD SVG 1.1//EN"
 "http://www.w3.org/Graphics/SVG/1.1/DTD/svg11.dtd">
<!-- Generated by graphviz version 2.40.1 (20161225.0304)
 -->
<!-- Title: gko::stop::ImplicitResidualNorm&lt; ValueType &gt; Pages: 1 -->
<!--zoomable 131 -->
<svg id="main" version="1.1" xmlns="http://www.w3.org/2000/svg" xmlns:xlink="http://www.w3.org/1999/xlink" xml:space="preserve" onload="init(evt)">
<style type="text/css"><![CDATA[
.edge:hover path { stroke: red; }
.edge:hover polygon { stroke: red; fill: red; }
]]></style>
<script type="text/javascript"><![CDATA[
var edges = document.getElementsByTagName('g');
if (edges && edges.length) {
  for (var i=0;i<edges.length;i++) {
    if (edges[i].id.substr(0,4)=='edge') {
      edges[i].setAttribute('class','edge');
    }
  }
}
]]></script>
        <defs>
                <circle id="rim" cx="0" cy="0" r="7"/>
                <circle id="rim2" cx="0" cy="0" r="3.5"/>
                <g id="zoomPlus">
                        <use xlink:href="#rim" fill="#404040">
                                <set attributeName="fill" to="#808080" begin="zoomplus.mouseover" end="zoomplus.mouseout"/>
                        </use>
                        <path d="M-4,0h8M0,-4v8" fill="none" stroke="white" stroke-width="1.5" pointer-events="none"/>
                </g>
                <g id="zoomMin">
                        <use xlink:href="#rim" fill="#404040">
                                <set attributeName="fill" to="#808080" begin="zoomminus.mouseover" end="zoomminus.mouseout"/>
                        </use>
                        <path d="M-4,0h8" fill="none" stroke="white" stroke-width="1.5" pointer-events="none"/>
                </g>
                <g id="dirArrow">
                        <path fill="none" stroke="white" stroke-width="1.5" d="M0,-3.0v7 M-2.5,-0.5L0,-3.0L2.5,-0.5"/>
                </g>
               <g id="resetDef">
                       <use xlink:href="#rim2" fill="#404040">
                               <set attributeName="fill" to="#808080" begin="reset.mouseover" end="reset.mouseout"/>
                       </use>
               </g>
        </defs>

<script type="text/javascript">
var viewWidth = 1709;
var viewHeight = 131;
var sectionId = 'dynsection-0';
</script>
<script xlink:href="svgpan.js"/>
<svg id="graph" class="graph">
<g id="viewport">
<title>gko::stop::ImplicitResidualNorm&lt; ValueType &gt;</title>
<polygon fill="#ffffff" stroke="transparent" points="-4,4 -4,-127 1705,-127 1705,4 -4,4"/>
<!-- Node1 -->
<g id="node1" class="node">
<title>Node1</title>
<g id="a_node1"><a xlink:title="The ImplicitResidualNorm class is a stopping criterion which stops the iteration process when the imp...">
<polygon fill="#bfbfbf" stroke="#000000" points="1555,-44 1555,-74 1701,-74 1701,-44 1555,-44"/>
<text text-anchor="start" x="1563" y="-62" font-family="Helvetica,sans-Serif" font-size="10.00" fill="#000000">gko::stop::ImplicitResidual</text>
<text text-anchor="middle" x="1628" y="-51" font-family="Helvetica,sans-Serif" font-size="10.00" fill="#000000">Norm&lt; ValueType &gt;</text>
</a>
</g>
</g>
<!-- Node2 -->
<g id="node2" class="node">
<title>Node2</title>
<g id="a_node2"><a xlink:href="classgko_1_1stop_1_1ResidualNormBase.html" target="_top" xlink:title="The ResidualNormBase class provides a framework for stopping criteria related to the residual norm.">
<polygon fill="#ffffff" stroke="#000000" points="1358,-44 1358,-74 1518,-74 1518,-44 1358,-44"/>
<text text-anchor="start" x="1366" y="-62" font-family="Helvetica,sans-Serif" font-size="10.00" fill="#000000">gko::stop::ResidualNormBase</text>
<text text-anchor="middle" x="1438" y="-51" font-family="Helvetica,sans-Serif" font-size="10.00" fill="#000000">&lt; ValueType &gt;</text>
</a>
</g>
</g>
<!-- Node2&#45;&gt;Node1 -->
<g id="edge1" class="edge">
<title>Node2&#45;&gt;Node1</title>
<path fill="none" stroke="#191970" d="M1528.0682,-59C1536.9993,-59 1545.9887,-59 1554.7194,-59"/>
<polygon fill="#191970" stroke="#191970" points="1528.0265,-55.5001 1518.0264,-59 1528.0264,-62.5001 1528.0265,-55.5001"/>
</g>
<!-- Node3 -->
<g id="node3" class="node">
<title>Node3</title>
<g id="a_node3"><a xlink:href="classgko_1_1EnablePolymorphicObject.html" target="_top" xlink:title=" ">
<polygon fill="#ffffff" stroke="#000000" points="1140,-38.5 1140,-79.5 1321,-79.5 1321,-38.5 1140,-38.5"/>
<text text-anchor="start" x="1148" y="-67.5" font-family="Helvetica,sans-Serif" font-size="10.00" fill="#000000">gko::EnablePolymorphicObject</text>
<text text-anchor="start" x="1148" y="-56.5" font-family="Helvetica,sans-Serif" font-size="10.00" fill="#000000">&lt; ResidualNormBase&lt; ValueType</text>
<text text-anchor="middle" x="1230.5" y="-45.5" font-family="Helvetica,sans-Serif" font-size="10.00" fill="#000000"> &gt;, Criterion &gt;</text>
</a>
</g>
</g>
<!-- Node3&#45;&gt;Node2 -->
<g id="edge2" class="edge">
<title>Node3&#45;&gt;Node2</title>
<path fill="none" stroke="#191970" d="M1331.2707,-59C1340.2046,-59 1349.1681,-59 1357.8957,-59"/>
<polygon fill="#191970" stroke="#191970" points="1331.2107,-55.5001 1321.2107,-59 1331.2106,-62.5001 1331.2107,-55.5001"/>
</g>
<!-- Node4 -->
<g id="node4" class="node">
<title>Node4</title>
<g id="a_node4"><a xlink:href="classgko_1_1EnableAbstractPolymorphicObject.html" target="_top" xlink:title=" ">
<polygon fill="#ffffff" stroke="#000000" points="542,-62.5 542,-103.5 717,-103.5 717,-62.5 542,-62.5"/>
<text text-anchor="start" x="550" y="-91.5" font-family="Helvetica,sans-Serif" font-size="10.00" fill="#000000">gko::EnableAbstractPolymorphic</text>
<text text-anchor="start" x="550" y="-80.5" font-family="Helvetica,sans-Serif" font-size="10.00" fill="#000000">Object&lt; ResidualNormBase</text>
<text text-anchor="middle" x="629.5" y="-69.5" font-family="Helvetica,sans-Serif" font-size="10.00" fill="#000000">&lt; ValueType &gt;, Criterion &gt;</text>
</a>
</g>
</g>
<!-- Node4&#45;&gt;Node3 -->
<g id="edge3" class="edge">
<title>Node4&#45;&gt;Node3</title>
<path fill="none" stroke="#191970" d="M727.2067,-81.0094C826.6155,-78.7059 985.1041,-74.2675 1122,-67 1127.847,-66.6896 1133.869,-66.3371 1139.9378,-65.9571"/>
<polygon fill="#191970" stroke="#191970" points="727.094,-77.511 717.1769,-81.2392 727.2544,-84.5091 727.094,-77.511"/>
</g>
<!-- Node5 -->
<g id="node5" class="node">
<title>Node5</title>
<g id="a_node5"><a xlink:title=" ">
<polygon fill="#ffffff" stroke="#bfbfbf" points="207.5,-103.5 207.5,-122.5 266.5,-122.5 266.5,-103.5 207.5,-103.5"/>
<text text-anchor="middle" x="237" y="-110.5" font-family="Helvetica,sans-Serif" font-size="10.00" fill="#000000">Criterion</text>
</a>
</g>
</g>
<!-- Node5&#45;&gt;Node4 -->
<g id="edge4" class="edge">
<title>Node5&#45;&gt;Node4</title>
<path fill="none" stroke="#191970" d="M276.7209,-112.0063C330.0892,-110.4345 427.854,-106.7239 511,-99 521.0252,-98.0687 531.5051,-96.916 541.9075,-95.6592"/>
<polygon fill="#191970" stroke="#191970" points="276.5531,-108.5095 266.6567,-112.2927 276.7522,-115.5067 276.5531,-108.5095"/>
</g>
<!-- Node6 -->
<g id="node6" class="node">
<title>Node6</title>
<g id="a_node6"><a xlink:href="classgko_1_1EnableAbstractPolymorphicObject.html" target="_top" xlink:title="This mixin inherits from (a subclass of) PolymorphicObject and provides a base implementation of a ne...">
<polygon fill="#ffffff" stroke="#000000" points="138,-26.5 138,-67.5 336,-67.5 336,-26.5 138,-26.5"/>
<text text-anchor="start" x="146" y="-55.5" font-family="Helvetica,sans-Serif" font-size="10.00" fill="#000000">gko::EnableAbstractPolymorphic</text>
<text text-anchor="start" x="146" y="-44.5" font-family="Helvetica,sans-Serif" font-size="10.00" fill="#000000">Object&lt; AbstractObject, Polymorphic</text>
<text text-anchor="middle" x="237" y="-33.5" font-family="Helvetica,sans-Serif" font-size="10.00" fill="#000000">Base &gt;</text>
</a>
</g>
</g>
<!-- Node6&#45;&gt;Node4 -->
<g id="edge5" class="edge">
<title>Node6&#45;&gt;Node4</title>
<path fill="none" stroke="#ffa500" stroke-dasharray="5,2" d="M346.2134,-57.017C407.9382,-62.6784 484.0683,-69.661 541.8581,-74.9615"/>
<polygon fill="#ffa500" stroke="#ffa500" points="346.3222,-53.5124 336.0443,-56.0843 345.6828,-60.4831 346.3222,-53.5124"/>
<text text-anchor="start" x="366.5" y="-85" font-family="Helvetica,sans-Serif" font-size="10.00" fill="#000000"> &lt; ResidualNormBase</text>
<text text-anchor="middle" x="432.5" y="-74" font-family="Helvetica,sans-Serif" font-size="10.00" fill="#000000">&lt; ValueType &gt;, Criterion &gt;</text>
</g>
<!-- Node9 -->
<g id="node9" class="node">
<title>Node9</title>
<g id="a_node9"><a xlink:href="classgko_1_1EnableAbstractPolymorphicObject.html" target="_top" xlink:title=" ">
<polygon fill="#ffffff" stroke="#000000" points="529,-2.5 529,-43.5 730,-43.5 730,-2.5 529,-2.5"/>
<text text-anchor="start" x="537" y="-31.5" font-family="Helvetica,sans-Serif" font-size="10.00" fill="#000000">gko::EnableAbstractPolymorphic</text>
<text text-anchor="start" x="537" y="-20.5" font-family="Helvetica,sans-Serif" font-size="10.00" fill="#000000">Object&lt; ConcreteObject, Polymorphic</text>
<text text-anchor="middle" x="629.5" y="-9.5" font-family="Helvetica,sans-Serif" font-size="10.00" fill="#000000">Base &gt;</text>
</a>
</g>
</g>
<!-- Node6&#45;&gt;Node9 -->
<g id="edge10" class="edge">
<title>Node6&#45;&gt;Node9</title>
<path fill="none" stroke="#ffa500" stroke-dasharray="5,2" d="M346.2843,-32.6579C348.8799,-32.4242 351.4547,-32.2043 354,-32 411.8387,-27.3582 476.6911,-25.0944 528.9386,-23.9974"/>
<polygon fill="#ffa500" stroke="#ffa500" points="345.8108,-29.1871 336.1891,-33.6225 346.4768,-36.1553 345.8108,-29.1871"/>
<text text-anchor="start" x="354" y="-46" font-family="Helvetica,sans-Serif" font-size="10.00" fill="#000000"> &lt; ConcreteObject, Polymorphic</text>
<text text-anchor="middle" x="432.5" y="-35" font-family="Helvetica,sans-Serif" font-size="10.00" fill="#000000">Base &gt;</text>
</g>
<!-- Node7 -->
<g id="node7" class="node">
<title>Node7</title>
<g id="a_node7"><a xlink:title=" ">
<polygon fill="#ffffff" stroke="#bfbfbf" points="0,-.5 0,-19.5 101,-19.5 101,-.5 0,-.5"/>
<text text-anchor="middle" x="50.5" y="-7.5" font-family="Helvetica,sans-Serif" font-size="10.00" fill="#000000">PolymorphicBase</text>
</a>
</g>
</g>
<!-- Node7&#45;&gt;Node6 -->
<g id="edge6" class="edge">
<title>Node7&#45;&gt;Node6</title>
<path fill="none" stroke="#191970" d="M108.4222,-21.4913C117.7608,-23.344 127.6541,-25.3067 137.6412,-27.2881"/>
<polygon fill="#191970" stroke="#191970" points="109.0183,-18.0414 98.5284,-19.5284 107.6561,-24.9076 109.0183,-18.0414"/>
</g>
<!-- Node7&#45;&gt;Node9 -->
<g id="edge9" class="edge">
<title>Node7&#45;&gt;Node9</title>
<path fill="none" stroke="#191970" d="M111.3518,-11.2517C199.4802,-13.0804 367.7739,-16.6319 511,-20 516.8635,-20.1379 522.8902,-20.2823 528.971,-20.4299"/>
<polygon fill="#191970" stroke="#191970" points="111.3377,-7.7508 101.2673,-11.0427 111.1926,-14.7493 111.3377,-7.7508"/>
</g>
<!-- Node8 -->
<g id="node8" class="node">
<title>Node8</title>
<g id="a_node8"><a xlink:href="classgko_1_1EnablePolymorphicObject.html" target="_top" xlink:title="This mixin inherits from (a subclass of) PolymorphicObject and provides a base implementation of a ne...">
<polygon fill="#ffffff" stroke="#000000" points="767,-20 767,-50 972,-50 972,-20 767,-20"/>
<text text-anchor="start" x="775" y="-38" font-family="Helvetica,sans-Serif" font-size="10.00" fill="#000000">gko::EnablePolymorphicObject</text>
<text text-anchor="middle" x="869.5" y="-27" font-family="Helvetica,sans-Serif" font-size="10.00" fill="#000000">&lt; ConcreteObject, PolymorphicBase &gt;</text>
</a>
</g>
</g>
<!-- Node8&#45;&gt;Node3 -->
<g id="edge7" class="edge">
<title>Node8&#45;&gt;Node3</title>
<path fill="none" stroke="#ffa500" stroke-dasharray="5,2" d="M982.2918,-37.3278C1025.9802,-38.7895 1076.3729,-41.1604 1122,-45 1127.8671,-45.4937 1133.9042,-46.0732 1139.9843,-46.7103"/>
<polygon fill="#ffa500" stroke="#ffa500" points="982.3176,-33.8269 972.2099,-37.0025 982.0918,-40.8233 982.3176,-33.8269"/>
<text text-anchor="start" x="990" y="-59" font-family="Helvetica,sans-Serif" font-size="10.00" fill="#000000"> &lt; ResidualNormBase</text>
<text text-anchor="middle" x="1056" y="-48" font-family="Helvetica,sans-Serif" font-size="10.00" fill="#000000">&lt; ValueType &gt;, Criterion &gt;</text>
</g>
<!-- Node9&#45;&gt;Node8 -->
<g id="edge8" class="edge">
<title>Node9&#45;&gt;Node8</title>
<path fill="none" stroke="#191970" d="M740.4645,-28.5482C749.2104,-28.9855 758.0206,-29.426 766.708,-29.8604"/>
<polygon fill="#191970" stroke="#191970" points="740.4008,-25.0408 730.2384,-28.0369 740.0511,-32.032 740.4008,-25.0408"/>
</g>
</g>
</svg>
        <g id="navigator" transform="translate(0 0)" fill="#404254">
                <rect fill="#f2f5e9" fill-opacity="0.5" stroke="#606060" stroke-width=".5" x="0" y="0" width="60" height="60"/>
                <use id="zoomplus" xlink:href="#zoomPlus" x="17" y="9" onmousedown="handleZoom(evt,'in')"/>
                <use id="zoomminus" xlink:href="#zoomMin" x="42" y="9" onmousedown="handleZoom(evt,'out')"/>
                <use id="reset" xlink:href="#resetDef" x="30" y="36" onmousedown="handleReset()"/>
                <g id="arrowUp" xlink:href="#dirArrow" transform="translate(30 24)" onmousedown="handlePan(0,-1)">
                  <use xlink:href="#rim" fill="#404040">
                        <set attributeName="fill" to="#808080" begin="arrowUp.mouseover" end="arrowUp.mouseout"/>
                  </use>
                  <path fill="none" stroke="white" stroke-width="1.5" d="M0,-3.0v7 M-2.5,-0.5L0,-3.0L2.5,-0.5"/>
                </g>
                <g id="arrowRight" xlink:href="#dirArrow" transform="rotate(90) translate(36 -43)" onmousedown="handlePan(1,0)">
                  <use xlink:href="#rim" fill="#404040">
                        <set attributeName="fill" to="#808080" begin="arrowRight.mouseover" end="arrowRight.mouseout"/>
                  </use>
                  <path fill="none" stroke="white" stroke-width="1.5" d="M0,-3.0v7 M-2.5,-0.5L0,-3.0L2.5,-0.5"/>
                </g>
                <g id="arrowDown" xlink:href="#dirArrow" transform="rotate(180) translate(-30 -48)" onmousedown="handlePan(0,1)">
                  <use xlink:href="#rim" fill="#404040">
                        <set attributeName="fill" to="#808080" begin="arrowDown.mouseover" end="arrowDown.mouseout"/>
                  </use>
                  <path fill="none" stroke="white" stroke-width="1.5" d="M0,-3.0v7 M-2.5,-0.5L0,-3.0L2.5,-0.5"/>
                </g>
                <g id="arrowLeft" xlink:href="#dirArrow" transform="rotate(270) translate(-36 17)" onmousedown="handlePan(-1,0)">
                  <use xlink:href="#rim" fill="#404040">
                        <set attributeName="fill" to="#808080" begin="arrowLeft.mouseover" end="arrowLeft.mouseout"/>
                  </use>
                  <path fill="none" stroke="white" stroke-width="1.5" d="M0,-3.0v7 M-2.5,-0.5L0,-3.0L2.5,-0.5"/>
                </g>
        </g>
        <svg viewBox="0 0 15 15" width="100%" height="30px" preserveAspectRatio="xMaxYMin meet">
         <g id="arrow_out" transform="scale(0.3 0.3)">
          <a xlink:href="classgko_1_1stop_1_1ImplicitResidualNorm__coll__graph_org.svg" target="_base">
           <rect id="button" ry="5" rx="5" y="6" x="6" height="38" width="38"
                fill="#f2f5e9" fill-opacity="0.5" stroke="#606060" stroke-width="1.0"/>
           <path id="arrow"
             d="M 11.500037,31.436501 C 11.940474,20.09759 22.043105,11.32322 32.158766,21.979434 L 37.068811,17.246167 C 37.068811,17.246167 37.088388,32 37.088388,32 L 22.160133,31.978069 C 22.160133,31.978069 26.997745,27.140456 26.997745,27.140456 C 18.528582,18.264221 13.291696,25.230495 11.500037,31.436501 z"
             style="fill:#404040;"/>
          </a>
         </g>
        </svg>
</svg>
