<?xml version="1.0" encoding="UTF-8" standalone="no"?>
<!DOCTYPE svg PUBLIC "-//W3C//DTD SVG 1.1//EN"
 "http://www.w3.org/Graphics/SVG/1.1/DTD/svg11.dtd">
<!-- Generated by graphviz version 2.40.1 (20161225.0304)
 -->
<!-- Title: gko::matrix::Csr&lt; ValueType, IndexType &gt; Pages: 1 -->
<!--zoomable 812 -->
<svg id="main" version="1.1" xmlns="http://www.w3.org/2000/svg" xmlns:xlink="http://www.w3.org/1999/xlink" xml:space="preserve" onload="init(evt)">
<style type="text/css"><![CDATA[
.edge:hover path { stroke: red; }
.edge:hover polygon { stroke: red; fill: red; }
]]></style>
<script type="text/javascript"><![CDATA[
var edges = document.getElementsByTagName('g');
if (edges && edges.length) {
  for (var i=0;i<edges.length;i++) {
    if (edges[i].id.substr(0,4)=='edge') {
      edges[i].setAttribute('class','edge');
    }
  }
}
]]></script>
        <defs>
                <circle id="rim" cx="0" cy="0" r="7"/>
                <circle id="rim2" cx="0" cy="0" r="3.5"/>
                <g id="zoomPlus">
                        <use xlink:href="#rim" fill="#404040">
                                <set attributeName="fill" to="#808080" begin="zoomplus.mouseover" end="zoomplus.mouseout"/>
                        </use>
                        <path d="M-4,0h8M0,-4v8" fill="none" stroke="white" stroke-width="1.5" pointer-events="none"/>
                </g>
                <g id="zoomMin">
                        <use xlink:href="#rim" fill="#404040">
                                <set attributeName="fill" to="#808080" begin="zoomminus.mouseover" end="zoomminus.mouseout"/>
                        </use>
                        <path d="M-4,0h8" fill="none" stroke="white" stroke-width="1.5" pointer-events="none"/>
                </g>
                <g id="dirArrow">
                        <path fill="none" stroke="white" stroke-width="1.5" d="M0,-3.0v7 M-2.5,-0.5L0,-3.0L2.5,-0.5"/>
                </g>
               <g id="resetDef">
                       <use xlink:href="#rim2" fill="#404040">
                               <set attributeName="fill" to="#808080" begin="reset.mouseover" end="reset.mouseout"/>
                       </use>
               </g>
        </defs>

<script type="text/javascript">
var viewWidth = 2506;
var viewHeight = 812;
var sectionId = 'dynsection-0';
</script>
<script xlink:href="svgpan.js"/>
<svg id="graph" class="graph">
<g id="viewport">
<title>gko::matrix::Csr&lt; ValueType, IndexType &gt;</title>
<polygon fill="#ffffff" stroke="transparent" points="-4,4 -4,-807.5 2502,-807.5 2502,4 -4,4"/>
<!-- Node1 -->
<g id="node1" class="node">
<title>Node1</title>
<g id="a_node1"><a xlink:title="CSR is a matrix format which stores only the nonzero coefficients by compressing each row of the matr...">
<polygon fill="#bfbfbf" stroke="#000000" points="2340,-246 2340,-276 2498,-276 2498,-246 2340,-246"/>
<text text-anchor="start" x="2348" y="-264" font-family="Helvetica,sans-Serif" font-size="10.00" fill="#000000">gko::matrix::Csr&lt; ValueType,</text>
<text text-anchor="middle" x="2419" y="-253" font-family="Helvetica,sans-Serif" font-size="10.00" fill="#000000"> IndexType &gt;</text>
</a>
</g>
</g>
<!-- Node2 -->
<g id="node2" class="node">
<title>Node2</title>
<g id="a_node2"><a xlink:href="classgko_1_1EnableLinOp.html" target="_top" xlink:title=" ">
<polygon fill="#ffffff" stroke="#000000" points="2134.5,-520 2134.5,-550 2289.5,-550 2289.5,-520 2134.5,-520"/>
<text text-anchor="start" x="2142.5" y="-538" font-family="Helvetica,sans-Serif" font-size="10.00" fill="#000000">gko::EnableLinOp&lt; Csr</text>
<text text-anchor="middle" x="2212" y="-527" font-family="Helvetica,sans-Serif" font-size="10.00" fill="#000000">&lt; ValueType, IndexType &gt; &gt;</text>
</a>
</g>
</g>
<!-- Node2&#45;&gt;Node1 -->
<g id="edge1" class="edge">
<title>Node2&#45;&gt;Node1</title>
<path fill="none" stroke="#191970" d="M2264.8044,-515.8299C2284.711,-506.5406 2306.3098,-493.7135 2322,-477 2379.5371,-415.7101 2407.048,-314.5051 2415.7882,-276.2663"/>
<polygon fill="#191970" stroke="#191970" points="2263.2108,-512.7083 2255.504,-519.9786 2266.0625,-519.1011 2263.2108,-512.7083"/>
</g>
<!-- Node3 -->
<g id="node3" class="node">
<title>Node3</title>
<g id="a_node3"><a xlink:href="classgko_1_1EnablePolymorphicObject.html" target="_top" xlink:title=" ">
<polygon fill="#ffffff" stroke="#000000" points="1734,-661.5 1734,-702.5 1900,-702.5 1900,-661.5 1734,-661.5"/>
<text text-anchor="start" x="1742" y="-690.5" font-family="Helvetica,sans-Serif" font-size="10.00" fill="#000000">gko::EnablePolymorphicObject</text>
<text text-anchor="start" x="1742" y="-679.5" font-family="Helvetica,sans-Serif" font-size="10.00" fill="#000000">&lt; Csr&lt; ValueType, IndexType</text>
<text text-anchor="middle" x="1817" y="-668.5" font-family="Helvetica,sans-Serif" font-size="10.00" fill="#000000"> &gt;, LinOp &gt;</text>
</a>
</g>
</g>
<!-- Node3&#45;&gt;Node2 -->
<g id="edge2" class="edge">
<title>Node3&#45;&gt;Node2</title>
<path fill="none" stroke="#191970" d="M1882.0672,-657.7851C1964.2129,-627.2144 2103.0425,-575.5487 2171.4384,-550.0951"/>
<polygon fill="#191970" stroke="#191970" points="1880.4903,-654.6374 1872.339,-661.4055 1882.9318,-661.1978 1880.4903,-654.6374"/>
</g>
<!-- Node4 -->
<g id="node4" class="node">
<title>Node4</title>
<g id="a_node4"><a xlink:href="classgko_1_1EnableAbstractPolymorphicObject.html" target="_top" xlink:title=" ">
<polygon fill="#ffffff" stroke="#000000" points="1360,-661.5 1360,-702.5 1551,-702.5 1551,-661.5 1360,-661.5"/>
<text text-anchor="start" x="1368" y="-690.5" font-family="Helvetica,sans-Serif" font-size="10.00" fill="#000000">gko::EnableAbstractPolymorphic</text>
<text text-anchor="start" x="1368" y="-679.5" font-family="Helvetica,sans-Serif" font-size="10.00" fill="#000000">Object&lt; Csr&lt; ValueType, IndexType</text>
<text text-anchor="middle" x="1455.5" y="-668.5" font-family="Helvetica,sans-Serif" font-size="10.00" fill="#000000"> &gt;, LinOp &gt;</text>
</a>
</g>
</g>
<!-- Node4&#45;&gt;Node3 -->
<g id="edge3" class="edge">
<title>Node4&#45;&gt;Node3</title>
<path fill="none" stroke="#191970" d="M1561.5515,-682C1616.5069,-682 1682.6419,-682 1733.8493,-682"/>
<polygon fill="#191970" stroke="#191970" points="1561.4263,-678.5001 1551.4263,-682 1561.4262,-685.5001 1561.4263,-678.5001"/>
</g>
<!-- Node5 -->
<g id="node5" class="node">
<title>Node5</title>
<g id="a_node5"><a xlink:href="classgko_1_1LinOp.html" target="_top" xlink:title=" ">
<polygon fill="#ffffff" stroke="#000000" points="1003.5,-770.5 1003.5,-789.5 1071.5,-789.5 1071.5,-770.5 1003.5,-770.5"/>
<text text-anchor="middle" x="1037.5" y="-777.5" font-family="Helvetica,sans-Serif" font-size="10.00" fill="#000000">gko::LinOp</text>
</a>
</g>
</g>
<!-- Node5&#45;&gt;Node4 -->
<g id="edge4" class="edge">
<title>Node5&#45;&gt;Node4</title>
<path fill="none" stroke="#191970" d="M1081.699,-770.7655C1099.7934,-766.9194 1120.923,-762.3443 1140,-758 1219.1059,-739.9857 1309.0439,-718.1906 1372.5982,-702.568"/>
<polygon fill="#191970" stroke="#191970" points="1080.7719,-767.3841 1071.7138,-772.8796 1082.2219,-774.2323 1080.7719,-767.3841"/>
</g>
<!-- Node6 -->
<g id="node6" class="node">
<title>Node6</title>
<g id="a_node6"><a xlink:href="classgko_1_1EnableAbstractPolymorphicObject.html" target="_top" xlink:title=" ">
<polygon fill="#ffffff" stroke="#ff0000" points="542,-773 542,-803 717,-803 717,-773 542,-773"/>
<text text-anchor="start" x="550" y="-791" font-family="Helvetica,sans-Serif" font-size="10.00" fill="#000000">gko::EnableAbstractPolymorphic</text>
<text text-anchor="middle" x="629.5" y="-780" font-family="Helvetica,sans-Serif" font-size="10.00" fill="#000000">Object&lt; LinOp &gt;</text>
</a>
</g>
</g>
<!-- Node6&#45;&gt;Node5 -->
<g id="edge5" class="edge">
<title>Node6&#45;&gt;Node5</title>
<path fill="none" stroke="#191970" d="M727.1636,-786.085C816.3446,-784.3364 943.1591,-781.8498 1003.3094,-780.6704"/>
<polygon fill="#191970" stroke="#191970" points="726.9557,-782.5883 717.0262,-786.2838 727.093,-789.587 726.9557,-782.5883"/>
</g>
<!-- Node11 -->
<g id="node7" class="node">
<title>Node11</title>
<g id="a_node7"><a xlink:href="classgko_1_1EnableAbstractPolymorphicObject.html" target="_top" xlink:title="This mixin inherits from (a subclass of) PolymorphicObject and provides a base implementation of a ne...">
<polygon fill="#ffffff" stroke="#000000" points="138,-673.5 138,-714.5 336,-714.5 336,-673.5 138,-673.5"/>
<text text-anchor="start" x="146" y="-702.5" font-family="Helvetica,sans-Serif" font-size="10.00" fill="#000000">gko::EnableAbstractPolymorphic</text>
<text text-anchor="start" x="146" y="-691.5" font-family="Helvetica,sans-Serif" font-size="10.00" fill="#000000">Object&lt; AbstractObject, Polymorphic</text>
<text text-anchor="middle" x="237" y="-680.5" font-family="Helvetica,sans-Serif" font-size="10.00" fill="#000000">Base &gt;</text>
</a>
</g>
</g>
<!-- Node11&#45;&gt;Node4 -->
<g id="edge8" class="edge">
<title>Node11&#45;&gt;Node4</title>
<path fill="none" stroke="#ffa500" stroke-dasharray="5,2" d="M346.5194,-692.9214C582.7115,-690.5954 1136.6305,-685.1403 1359.8102,-682.9424"/>
<polygon fill="#ffa500" stroke="#ffa500" points="346.1633,-689.4247 336.1983,-693.0231 346.2323,-696.4243 346.1633,-689.4247"/>
<text text-anchor="start" x="759" y="-702" font-family="Helvetica,sans-Serif" font-size="10.00" fill="#000000"> &lt; Csr&lt; ValueType, IndexType</text>
<text text-anchor="middle" x="832.5" y="-691" font-family="Helvetica,sans-Serif" font-size="10.00" fill="#000000"> &gt;, LinOp &gt;</text>
</g>
<!-- Node11&#45;&gt;Node6 -->
<g id="edge6" class="edge">
<title>Node11&#45;&gt;Node6</title>
<path fill="none" stroke="#ffa500" stroke-dasharray="5,2" d="M287.6547,-718.8668C307.8851,-727.9393 331.6484,-737.5457 354,-744 415.5422,-761.7711 487.0235,-772.9236 541.7505,-779.5532"/>
<polygon fill="#ffa500" stroke="#ffa500" points="288.8791,-715.5784 278.3285,-714.6111 285.9732,-721.9467 288.8791,-715.5784"/>
<text text-anchor="middle" x="432.5" y="-778" font-family="Helvetica,sans-Serif" font-size="10.00" fill="#000000"> &lt; LinOp &gt;</text>
</g>
<!-- Node14 -->
<g id="node10" class="node">
<title>Node14</title>
<g id="a_node10"><a xlink:href="classgko_1_1EnableAbstractPolymorphicObject.html" target="_top" xlink:title=" ">
<polygon fill="#ffffff" stroke="#000000" points="529,-712.5 529,-753.5 730,-753.5 730,-712.5 529,-712.5"/>
<text text-anchor="start" x="537" y="-741.5" font-family="Helvetica,sans-Serif" font-size="10.00" fill="#000000">gko::EnableAbstractPolymorphic</text>
<text text-anchor="start" x="537" y="-730.5" font-family="Helvetica,sans-Serif" font-size="10.00" fill="#000000">Object&lt; ConcreteObject, Polymorphic</text>
<text text-anchor="middle" x="629.5" y="-719.5" font-family="Helvetica,sans-Serif" font-size="10.00" fill="#000000">Base &gt;</text>
</a>
</g>
</g>
<!-- Node11&#45;&gt;Node14 -->
<g id="edge12" class="edge">
<title>Node11&#45;&gt;Node14</title>
<path fill="none" stroke="#ffa500" stroke-dasharray="5,2" d="M346.2448,-702.5976C396.4726,-706.7999 456.8075,-712.1989 511,-718 516.7734,-718.618 522.7015,-719.2803 528.6813,-719.9697"/>
<polygon fill="#ffa500" stroke="#ffa500" points="346.2687,-699.0876 336.0129,-701.7463 345.6883,-706.0635 346.2687,-699.0876"/>
<text text-anchor="start" x="354" y="-732" font-family="Helvetica,sans-Serif" font-size="10.00" fill="#000000"> &lt; ConcreteObject, Polymorphic</text>
<text text-anchor="middle" x="432.5" y="-721" font-family="Helvetica,sans-Serif" font-size="10.00" fill="#000000">Base &gt;</text>
</g>
<!-- Node21 -->
<g id="node17" class="node">
<title>Node21</title>
<g id="a_node17"><a xlink:href="classgko_1_1EnableAbstractPolymorphicObject.html" target="_top" xlink:title=" ">
<polygon fill="#ffffff" stroke="#000000" points="531,-593.5 531,-634.5 728,-634.5 728,-593.5 531,-593.5"/>
<text text-anchor="start" x="539" y="-622.5" font-family="Helvetica,sans-Serif" font-size="10.00" fill="#000000">gko::EnableAbstractPolymorphic</text>
<text text-anchor="start" x="539" y="-611.5" font-family="Helvetica,sans-Serif" font-size="10.00" fill="#000000">Object&lt; ConcreteLinOp, Polymorphic</text>
<text text-anchor="middle" x="629.5" y="-600.5" font-family="Helvetica,sans-Serif" font-size="10.00" fill="#000000">Base &gt;</text>
</a>
</g>
</g>
<!-- Node11&#45;&gt;Node21 -->
<g id="edge22" class="edge">
<title>Node11&#45;&gt;Node21</title>
<path fill="none" stroke="#ffa500" stroke-dasharray="5,2" d="M290.754,-669.5863C310.3124,-661.5857 332.8207,-653.3785 354,-648 386.6386,-639.7114 465.7429,-630.3401 530.8553,-623.5382"/>
<polygon fill="#ffa500" stroke="#ffa500" points="289.2905,-666.4044 281.4083,-673.4841 291.985,-672.8651 289.2905,-666.4044"/>
<text text-anchor="start" x="356" y="-662" font-family="Helvetica,sans-Serif" font-size="10.00" fill="#000000"> &lt; ConcreteLinOp, Polymorphic</text>
<text text-anchor="middle" x="432.5" y="-651" font-family="Helvetica,sans-Serif" font-size="10.00" fill="#000000">Base &gt;</text>
</g>
<!-- Node12 -->
<g id="node8" class="node">
<title>Node12</title>
<g id="a_node8"><a xlink:title=" ">
<polygon fill="#ffffff" stroke="#bfbfbf" points="0,-684.5 0,-703.5 101,-703.5 101,-684.5 0,-684.5"/>
<text text-anchor="middle" x="50.5" y="-691.5" font-family="Helvetica,sans-Serif" font-size="10.00" fill="#000000">PolymorphicBase</text>
</a>
</g>
</g>
<!-- Node12&#45;&gt;Node11 -->
<g id="edge7" class="edge">
<title>Node12&#45;&gt;Node11</title>
<path fill="none" stroke="#191970" d="M111.5248,-694C119.9555,-694 128.7869,-694 137.6923,-694"/>
<polygon fill="#191970" stroke="#191970" points="111.462,-690.5001 101.4619,-694 111.4619,-697.5001 111.462,-690.5001"/>
</g>
<!-- Node12&#45;&gt;Node14 -->
<g id="edge11" class="edge">
<title>Node12&#45;&gt;Node14</title>
<path fill="none" stroke="#191970" d="M82.6692,-707.2448C98.9705,-713.3832 119.2394,-720.1557 138,-724 300.5525,-757.3096 345.142,-744.8945 511,-740 516.8709,-739.8267 522.9034,-739.6053 528.9886,-739.3486"/>
<polygon fill="#191970" stroke="#191970" points="83.6704,-703.8794 73.0811,-703.5365 81.1453,-710.4081 83.6704,-703.8794"/>
</g>
<!-- Node12&#45;&gt;Node21 -->
<g id="edge21" class="edge">
<title>Node12&#45;&gt;Node21</title>
<path fill="none" stroke="#191970" d="M84.2068,-680.9855C100.3026,-675.1484 119.9499,-668.5652 138,-664 271.251,-630.2984 430.2707,-619.1973 530.5838,-615.6078"/>
<polygon fill="#191970" stroke="#191970" points="82.8589,-677.7522 74.6899,-684.4988 85.2832,-684.319 82.8589,-677.7522"/>
</g>
<!-- Node13 -->
<g id="node9" class="node">
<title>Node13</title>
<g id="a_node9"><a xlink:href="classgko_1_1EnablePolymorphicObject.html" target="_top" xlink:title="This mixin inherits from (a subclass of) PolymorphicObject and provides a base implementation of a ne...">
<polygon fill="#ffffff" stroke="#000000" points="935,-718 935,-748 1140,-748 1140,-718 935,-718"/>
<text text-anchor="start" x="943" y="-736" font-family="Helvetica,sans-Serif" font-size="10.00" fill="#000000">gko::EnablePolymorphicObject</text>
<text text-anchor="middle" x="1037.5" y="-725" font-family="Helvetica,sans-Serif" font-size="10.00" fill="#000000">&lt; ConcreteObject, PolymorphicBase &gt;</text>
</a>
</g>
</g>
<!-- Node13&#45;&gt;Node3 -->
<g id="edge9" class="edge">
<title>Node13&#45;&gt;Node3</title>
<path fill="none" stroke="#ffa500" stroke-dasharray="5,2" d="M1150.7165,-730.3435C1255.8288,-727.4195 1416.6244,-721.7826 1556,-712 1627.2904,-706.9962 1645.0371,-704.4633 1716,-696 1721.8007,-695.3082 1727.7842,-694.5621 1733.8069,-693.7872"/>
<polygon fill="#ffa500" stroke="#ffa500" points="1150.3041,-726.8534 1140.4039,-730.6266 1150.4962,-733.8507 1150.3041,-726.8534"/>
<text text-anchor="start" x="1382" y="-736" font-family="Helvetica,sans-Serif" font-size="10.00" fill="#000000"> &lt; Csr&lt; ValueType, IndexType</text>
<text text-anchor="middle" x="1455.5" y="-725" font-family="Helvetica,sans-Serif" font-size="10.00" fill="#000000"> &gt;, LinOp &gt;</text>
</g>
<!-- Node20 -->
<g id="node16" class="node">
<title>Node20</title>
<g id="a_node16"><a xlink:href="classgko_1_1EnablePolymorphicObject.html" target="_top" xlink:title=" ">
<polygon fill="#ffffff" stroke="#000000" points="1355,-599 1355,-629 1556,-629 1556,-599 1355,-599"/>
<text text-anchor="start" x="1363" y="-617" font-family="Helvetica,sans-Serif" font-size="10.00" fill="#000000">gko::EnablePolymorphicObject</text>
<text text-anchor="middle" x="1455.5" y="-606" font-family="Helvetica,sans-Serif" font-size="10.00" fill="#000000">&lt; ConcreteLinOp, PolymorphicBase &gt;</text>
</a>
</g>
</g>
<!-- Node13&#45;&gt;Node20 -->
<g id="edge23" class="edge">
<title>Node13&#45;&gt;Node20</title>
<path fill="none" stroke="#ffa500" stroke-dasharray="5,2" d="M1080.9106,-713.9399C1103.5949,-704.4337 1131.9833,-693.2386 1158,-685 1232.0352,-661.5557 1318.5748,-641.726 1379.1686,-629.0325"/>
<polygon fill="#ffa500" stroke="#ffa500" points="1079.4063,-710.776 1071.5616,-717.8971 1082.1349,-717.2223 1079.4063,-710.776"/>
<text text-anchor="start" x="1171" y="-699" font-family="Helvetica,sans-Serif" font-size="10.00" fill="#000000"> &lt; ConcreteLinOp, Polymorphic</text>
<text text-anchor="middle" x="1247.5" y="-688" font-family="Helvetica,sans-Serif" font-size="10.00" fill="#000000">Base &gt;</text>
</g>
<!-- Node14&#45;&gt;Node13 -->
<g id="edge10" class="edge">
<title>Node14&#45;&gt;Node13</title>
<path fill="none" stroke="#191970" d="M740.4636,-733C801.0615,-733 875.5974,-733 934.8448,-733"/>
<polygon fill="#191970" stroke="#191970" points="740.0922,-729.5001 730.0922,-733 740.0921,-736.5001 740.0922,-729.5001"/>
</g>
<!-- Node15 -->
<g id="node11" class="node">
<title>Node15</title>
<g id="a_node11"><a xlink:href="classgko_1_1EnablePolymorphicAssignment.html" target="_top" xlink:title=" ">
<polygon fill="#ffffff" stroke="#000000" points="1359.5,-495 1359.5,-525 1551.5,-525 1551.5,-495 1359.5,-495"/>
<text text-anchor="start" x="1367.5" y="-513" font-family="Helvetica,sans-Serif" font-size="10.00" fill="#000000">gko::EnablePolymorphicAssignment</text>
<text text-anchor="middle" x="1455.5" y="-502" font-family="Helvetica,sans-Serif" font-size="10.00" fill="#000000">&lt; Csr&lt; ValueType, IndexType &gt; &gt;</text>
</a>
</g>
</g>
<!-- Node15&#45;&gt;Node2 -->
<g id="edge13" class="edge">
<title>Node15&#45;&gt;Node2</title>
<path fill="none" stroke="#191970" d="M1562.1274,-513.5237C1716.4513,-518.6236 1998.4324,-527.9422 2134.4923,-532.4386"/>
<polygon fill="#191970" stroke="#191970" points="1561.8053,-510.0112 1551.6951,-513.179 1561.5741,-517.0074 1561.8053,-510.0112"/>
</g>
<!-- Node16 -->
<g id="node12" class="node">
<title>Node16</title>
<g id="a_node12"><a xlink:href="classgko_1_1ConvertibleTo.html" target="_top" xlink:title=" ">
<polygon fill="#ffffff" stroke="#000000" points="946.5,-457 946.5,-487 1128.5,-487 1128.5,-457 946.5,-457"/>
<text text-anchor="start" x="954.5" y="-475" font-family="Helvetica,sans-Serif" font-size="10.00" fill="#000000">gko::ConvertibleTo</text>
<text text-anchor="middle" x="1037.5" y="-464" font-family="Helvetica,sans-Serif" font-size="10.00" fill="#000000">&lt; Csr&lt; ValueType, IndexType &gt; &gt;</text>
</a>
</g>
</g>
<!-- Node16&#45;&gt;Node15 -->
<g id="edge14" class="edge">
<title>Node16&#45;&gt;Node15</title>
<path fill="none" stroke="#191970" d="M1138.881,-481.2165C1205.9711,-487.3156 1293.4076,-495.2643 1359.3933,-501.263"/>
<polygon fill="#191970" stroke="#191970" points="1138.9912,-477.7121 1128.7154,-480.2923 1138.3574,-484.6834 1138.9912,-477.7121"/>
</g>
<!-- Node17 -->
<g id="node13" class="node">
<title>Node17</title>
<g id="a_node13"><a xlink:href="classgko_1_1ConvertibleTo.html" target="_top" xlink:title="ConvertibleTo interface is used to mark that the implementer can be converted to the object of Result...">
<polygon fill="#ffffff" stroke="#000000" points="576,-340 576,-370 683,-370 683,-340 576,-340"/>
<text text-anchor="start" x="584" y="-358" font-family="Helvetica,sans-Serif" font-size="10.00" fill="#000000">gko::ConvertibleTo</text>
<text text-anchor="middle" x="629.5" y="-347" font-family="Helvetica,sans-Serif" font-size="10.00" fill="#000000">&lt; ResultType &gt;</text>
</a>
</g>
</g>
<!-- Node17&#45;&gt;Node16 -->
<g id="edge15" class="edge">
<title>Node17&#45;&gt;Node16</title>
<path fill="none" stroke="#ffa500" stroke-dasharray="5,2" d="M651.5613,-377.2577C673.7997,-398.1631 710.1624,-428.3547 748,-443 811.2404,-467.4777 887.768,-474.2578 946.2549,-475.1704"/>
<polygon fill="#ffa500" stroke="#ffa500" points="653.9427,-374.6921 644.3051,-370.2912 649.0948,-379.7416 653.9427,-374.6921"/>
<text text-anchor="middle" x="832.5" y="-477" font-family="Helvetica,sans-Serif" font-size="10.00" fill="#000000"> &lt; Csr&lt; ValueType, IndexType &gt; &gt;</text>
</g>
<!-- Node18 -->
<g id="node14" class="node">
<title>Node18</title>
<g id="a_node14"><a xlink:href="classgko_1_1EnablePolymorphicAssignment.html" target="_top" xlink:title="This mixin is used to enable a default PolymorphicObject::copy_from() implementation for objects that...">
<polygon fill="#ffffff" stroke="#000000" points="941.5,-506 941.5,-536 1133.5,-536 1133.5,-506 941.5,-506"/>
<text text-anchor="start" x="949.5" y="-524" font-family="Helvetica,sans-Serif" font-size="10.00" fill="#000000">gko::EnablePolymorphicAssignment</text>
<text text-anchor="middle" x="1037.5" y="-513" font-family="Helvetica,sans-Serif" font-size="10.00" fill="#000000">&lt; ConcreteType, ResultType &gt;</text>
</a>
</g>
</g>
<!-- Node17&#45;&gt;Node18 -->
<g id="edge17" class="edge">
<title>Node17&#45;&gt;Node18</title>
<path fill="none" stroke="#191970" d="M643.1233,-379.2922C662.1346,-410.6065 699.7798,-463.9942 748,-489 807.2543,-519.7279 882.3717,-527.2754 941.2395,-527.3778"/>
<polygon fill="#191970" stroke="#191970" points="645.9321,-377.1658 637.8303,-370.3385 639.9062,-380.728 645.9321,-377.1658"/>
</g>
<!-- Node23 -->
<g id="node19" class="node">
<title>Node23</title>
<g id="a_node19"><a xlink:href="classgko_1_1ConvertibleTo.html" target="_top" xlink:title=" ">
<polygon fill="#ffffff" stroke="#000000" points="982.5,-555 982.5,-585 1092.5,-585 1092.5,-555 982.5,-555"/>
<text text-anchor="start" x="990.5" y="-573" font-family="Helvetica,sans-Serif" font-size="10.00" fill="#000000">gko::ConvertibleTo</text>
<text text-anchor="middle" x="1037.5" y="-562" font-family="Helvetica,sans-Serif" font-size="10.00" fill="#000000">&lt; ConcreteLinOp &gt;</text>
</a>
</g>
</g>
<!-- Node17&#45;&gt;Node23 -->
<g id="edge26" class="edge">
<title>Node17&#45;&gt;Node23</title>
<path fill="none" stroke="#ffa500" stroke-dasharray="5,2" d="M639.6891,-379.8036C656.3814,-417.06 693.2666,-486.7421 748,-521 819.9436,-566.0299 920.7651,-573.2131 982.468,-572.7319"/>
<polygon fill="#ffa500" stroke="#ffa500" points="642.7156,-377.9866 635.5184,-370.2116 636.2962,-380.7779 642.7156,-377.9866"/>
<text text-anchor="middle" x="832.5" y="-572" font-family="Helvetica,sans-Serif" font-size="10.00" fill="#000000"> &lt; ConcreteLinOp &gt;</text>
</g>
<!-- Node26 -->
<g id="node22" class="node">
<title>Node26</title>
<g id="a_node22"><a xlink:href="classgko_1_1ConvertibleTo.html" target="_top" xlink:title=" ">
<polygon fill="#ffffff" stroke="#000000" points="1164,-225.5 1164,-266.5 1331,-266.5 1331,-225.5 1164,-225.5"/>
<text text-anchor="start" x="1172" y="-254.5" font-family="Helvetica,sans-Serif" font-size="10.00" fill="#000000">gko::ConvertibleTo</text>
<text text-anchor="start" x="1172" y="-243.5" font-family="Helvetica,sans-Serif" font-size="10.00" fill="#000000">&lt; Csr&lt; next_precision</text>
<text text-anchor="middle" x="1247.5" y="-232.5" font-family="Helvetica,sans-Serif" font-size="10.00" fill="#000000">&lt; ValueType &gt;, IndexType &gt; &gt;</text>
</a>
</g>
</g>
<!-- Node17&#45;&gt;Node26 -->
<g id="edge31" class="edge">
<title>Node17&#45;&gt;Node26</title>
<path fill="none" stroke="#ffa500" stroke-dasharray="5,2" d="M646.4825,-331.723C667.1053,-305.6389 704.5688,-264.8066 748,-248 821.3943,-219.5986 1041.7958,-230.4642 1163.8607,-239.1936"/>
<polygon fill="#ffa500" stroke="#ffa500" points="643.4775,-329.8887 640.15,-339.9475 649.0239,-334.1592 643.4775,-329.8887"/>
<text text-anchor="start" x="757" y="-262" font-family="Helvetica,sans-Serif" font-size="10.00" fill="#000000"> &lt; Csr&lt; next_precision</text>
<text text-anchor="middle" x="832.5" y="-251" font-family="Helvetica,sans-Serif" font-size="10.00" fill="#000000">&lt; ValueType &gt;, IndexType &gt; &gt;</text>
</g>
<!-- Node27 -->
<g id="node23" class="node">
<title>Node27</title>
<g id="a_node23"><a xlink:href="classgko_1_1ConvertibleTo.html" target="_top" xlink:title=" ">
<polygon fill="#ffffff" stroke="#000000" points="1574,-201 1574,-231 1716,-231 1716,-201 1574,-201"/>
<text text-anchor="start" x="1582" y="-219" font-family="Helvetica,sans-Serif" font-size="10.00" fill="#000000">gko::ConvertibleTo</text>
<text text-anchor="middle" x="1645" y="-208" font-family="Helvetica,sans-Serif" font-size="10.00" fill="#000000">&lt; Dense&lt; ValueType &gt; &gt;</text>
</a>
</g>
</g>
<!-- Node17&#45;&gt;Node27 -->
<g id="edge33" class="edge">
<title>Node17&#45;&gt;Node27</title>
<path fill="none" stroke="#ffa500" stroke-dasharray="5,2" d="M643.127,-331.0545C662.1424,-300.257 699.7921,-248.0023 748,-225 893.2125,-155.7122 1388.3716,-192.4097 1573.9735,-209.1429"/>
<polygon fill="#ffa500" stroke="#ffa500" points="639.9822,-329.4928 637.8328,-339.8673 645.9827,-333.0975 639.9822,-329.4928"/>
<text text-anchor="middle" x="1037.5" y="-191" font-family="Helvetica,sans-Serif" font-size="10.00" fill="#000000"> &lt; Dense&lt; ValueType &gt; &gt;</text>
</g>
<!-- Node28 -->
<g id="node24" class="node">
<title>Node28</title>
<g id="a_node24"><a xlink:href="classgko_1_1ConvertibleTo.html" target="_top" xlink:title=" ">
<polygon fill="#ffffff" stroke="#000000" points="1918,-159 1918,-189 2103,-189 2103,-159 1918,-159"/>
<text text-anchor="start" x="1926" y="-177" font-family="Helvetica,sans-Serif" font-size="10.00" fill="#000000">gko::ConvertibleTo</text>
<text text-anchor="middle" x="2010.5" y="-166" font-family="Helvetica,sans-Serif" font-size="10.00" fill="#000000">&lt; Coo&lt; ValueType, IndexType &gt; &gt;</text>
</a>
</g>
</g>
<!-- Node17&#45;&gt;Node28 -->
<g id="edge35" class="edge">
<title>Node17&#45;&gt;Node28</title>
<path fill="none" stroke="#ffa500" stroke-dasharray="5,2" d="M638.6749,-330.6413C654.4839,-292.4806 690.7793,-219.6017 748,-187 860.1468,-123.104 908.4279,-164 1037.5,-164 1037.5,-164 1037.5,-164 1645,-164 1737.8375,-164 1843.8895,-167.2637 1917.758,-170.0621"/>
<polygon fill="#ffa500" stroke="#ffa500" points="635.401,-329.4021 634.9272,-339.9864 641.898,-332.0077 635.401,-329.4021"/>
<text text-anchor="middle" x="1247.5" y="-167" font-family="Helvetica,sans-Serif" font-size="10.00" fill="#000000"> &lt; Coo&lt; ValueType, IndexType &gt; &gt;</text>
</g>
<!-- Node29 -->
<g id="node25" class="node">
<title>Node29</title>
<g id="a_node25"><a xlink:href="classgko_1_1ConvertibleTo.html" target="_top" xlink:title=" ">
<polygon fill="#ffffff" stroke="#000000" points="1158,-420 1158,-450 1337,-450 1337,-420 1158,-420"/>
<text text-anchor="start" x="1166" y="-438" font-family="Helvetica,sans-Serif" font-size="10.00" fill="#000000">gko::ConvertibleTo</text>
<text text-anchor="middle" x="1247.5" y="-427" font-family="Helvetica,sans-Serif" font-size="10.00" fill="#000000">&lt; Ell&lt; ValueType, IndexType &gt; &gt;</text>
</a>
</g>
</g>
<!-- Node17&#45;&gt;Node29 -->
<g id="edge37" class="edge">
<title>Node17&#45;&gt;Node29</title>
<path fill="none" stroke="#ffa500" stroke-dasharray="5,2" d="M679.6757,-373.3125C700.5432,-380.2315 725.1802,-387.5104 748,-392 889.5544,-419.8495 1057.2001,-429.6619 1157.8106,-433.1192"/>
<polygon fill="#ffa500" stroke="#ffa500" points="680.6613,-369.9512 670.0671,-370.0648 678.4198,-376.5827 680.6613,-369.9512"/>
<text text-anchor="middle" x="832.5" y="-419" font-family="Helvetica,sans-Serif" font-size="10.00" fill="#000000"> &lt; Ell&lt; ValueType, IndexType &gt; &gt;</text>
</g>
<!-- Node30 -->
<g id="node26" class="node">
<title>Node30</title>
<g id="a_node26"><a xlink:href="classgko_1_1ConvertibleTo.html" target="_top" xlink:title=" ">
<polygon fill="#ffffff" stroke="#000000" points="1583,-355.5 1583,-396.5 1707,-396.5 1707,-355.5 1583,-355.5"/>
<text text-anchor="start" x="1591" y="-384.5" font-family="Helvetica,sans-Serif" font-size="10.00" fill="#000000">gko::ConvertibleTo</text>
<text text-anchor="start" x="1591" y="-373.5" font-family="Helvetica,sans-Serif" font-size="10.00" fill="#000000">&lt; Hybrid&lt; ValueType,</text>
<text text-anchor="middle" x="1645" y="-362.5" font-family="Helvetica,sans-Serif" font-size="10.00" fill="#000000"> IndexType &gt; &gt;</text>
</a>
</g>
</g>
<!-- Node17&#45;&gt;Node30 -->
<g id="edge39" class="edge">
<title>Node17&#45;&gt;Node30</title>
<path fill="none" stroke="#ffa500" stroke-dasharray="5,2" d="M693.0217,-356.3136C875.8706,-360.0948 1401.925,-370.9733 1582.9359,-374.7165"/>
<polygon fill="#ffa500" stroke="#ffa500" points="693.094,-352.8144 683.0238,-356.1068 692.9492,-359.8129 693.094,-352.8144"/>
<text text-anchor="start" x="982" y="-379" font-family="Helvetica,sans-Serif" font-size="10.00" fill="#000000"> &lt; Hybrid&lt; ValueType,</text>
<text text-anchor="middle" x="1037.5" y="-368" font-family="Helvetica,sans-Serif" font-size="10.00" fill="#000000"> IndexType &gt; &gt;</text>
</g>
<!-- Node31 -->
<g id="node27" class="node">
<title>Node31</title>
<g id="a_node27"><a xlink:href="classgko_1_1ConvertibleTo.html" target="_top" xlink:title=" ">
<polygon fill="#ffffff" stroke="#000000" points="1952.5,-316.5 1952.5,-357.5 2068.5,-357.5 2068.5,-316.5 1952.5,-316.5"/>
<text text-anchor="start" x="1960.5" y="-345.5" font-family="Helvetica,sans-Serif" font-size="10.00" fill="#000000">gko::ConvertibleTo</text>
<text text-anchor="start" x="1960.5" y="-334.5" font-family="Helvetica,sans-Serif" font-size="10.00" fill="#000000">&lt; Sellp&lt; ValueType,</text>
<text text-anchor="middle" x="2010.5" y="-323.5" font-family="Helvetica,sans-Serif" font-size="10.00" fill="#000000"> IndexType &gt; &gt;</text>
</a>
</g>
</g>
<!-- Node17&#45;&gt;Node31 -->
<g id="edge41" class="edge">
<title>Node17&#45;&gt;Node31</title>
<path fill="none" stroke="#ffa500" stroke-dasharray="5,2" d="M693.299,-352.6774C792.6213,-349.1771 990.2454,-342.6754 1158,-340 1456.7459,-335.2355 1814.4517,-336.1198 1952.3539,-336.7067"/>
<polygon fill="#ffa500" stroke="#ffa500" points="692.9991,-349.1857 683.1292,-353.0374 693.2468,-356.1813 692.9991,-349.1857"/>
<text text-anchor="start" x="1196" y="-354" font-family="Helvetica,sans-Serif" font-size="10.00" fill="#000000"> &lt; Sellp&lt; ValueType,</text>
<text text-anchor="middle" x="1247.5" y="-343" font-family="Helvetica,sans-Serif" font-size="10.00" fill="#000000"> IndexType &gt; &gt;</text>
</g>
<!-- Node32 -->
<g id="node28" class="node">
<title>Node32</title>
<g id="a_node28"><a xlink:href="classgko_1_1ConvertibleTo.html" target="_top" xlink:title=" ">
<polygon fill="#ffffff" stroke="#000000" points="1174,-272.5 1174,-313.5 1321,-313.5 1321,-272.5 1174,-272.5"/>
<text text-anchor="start" x="1182" y="-301.5" font-family="Helvetica,sans-Serif" font-size="10.00" fill="#000000">gko::ConvertibleTo</text>
<text text-anchor="start" x="1182" y="-290.5" font-family="Helvetica,sans-Serif" font-size="10.00" fill="#000000">&lt; SparsityCsr&lt; ValueType,</text>
<text text-anchor="middle" x="1247.5" y="-279.5" font-family="Helvetica,sans-Serif" font-size="10.00" fill="#000000"> IndexType &gt; &gt;</text>
</a>
</g>
</g>
<!-- Node17&#45;&gt;Node32 -->
<g id="edge43" class="edge">
<title>Node17&#45;&gt;Node32</title>
<path fill="none" stroke="#ffa500" stroke-dasharray="5,2" d="M660.5493,-334.6008C683.6157,-320.709 716.4227,-303.5264 748,-296 895.8361,-260.7636 1075.3477,-272.3649 1173.8852,-283.1895"/>
<polygon fill="#ffa500" stroke="#ffa500" points="658.581,-331.7025 651.9041,-339.9287 662.2536,-337.6617 658.581,-331.7025"/>
<text text-anchor="start" x="765.5" y="-310" font-family="Helvetica,sans-Serif" font-size="10.00" fill="#000000"> &lt; SparsityCsr&lt; ValueType,</text>
<text text-anchor="middle" x="832.5" y="-299" font-family="Helvetica,sans-Serif" font-size="10.00" fill="#000000"> IndexType &gt; &gt;</text>
</g>
<!-- Node18&#45;&gt;Node15 -->
<g id="edge16" class="edge">
<title>Node18&#45;&gt;Node15</title>
<path fill="none" stroke="#ffa500" stroke-dasharray="5,2" d="M1144.1259,-511.6956C1148.8123,-511.4305 1153.4532,-511.196 1158,-511 1225.2112,-508.1028 1301.0425,-507.8948 1359.3235,-508.3896"/>
<polygon fill="#ffa500" stroke="#ffa500" points="1143.582,-508.2221 1133.8125,-512.3218 1144.0062,-515.2092 1143.582,-508.2221"/>
<text text-anchor="middle" x="1247.5" y="-514" font-family="Helvetica,sans-Serif" font-size="10.00" fill="#000000"> &lt; Csr&lt; ValueType, IndexType &gt; &gt;</text>
</g>
<!-- Node22 -->
<g id="node18" class="node">
<title>Node22</title>
<g id="a_node18"><a xlink:href="classgko_1_1EnablePolymorphicAssignment.html" target="_top" xlink:title=" ">
<polygon fill="#ffffff" stroke="#000000" points="1359.5,-547 1359.5,-577 1551.5,-577 1551.5,-547 1359.5,-547"/>
<text text-anchor="start" x="1367.5" y="-565" font-family="Helvetica,sans-Serif" font-size="10.00" fill="#000000">gko::EnablePolymorphicAssignment</text>
<text text-anchor="middle" x="1455.5" y="-554" font-family="Helvetica,sans-Serif" font-size="10.00" fill="#000000">&lt; ConcreteLinOp &gt;</text>
</a>
</g>
</g>
<!-- Node18&#45;&gt;Node22 -->
<g id="edge27" class="edge">
<title>Node18&#45;&gt;Node22</title>
<path fill="none" stroke="#ffa500" stroke-dasharray="5,2" d="M1143.7933,-530.5191C1201.0573,-535.7528 1272.9155,-542.4896 1337,-549 1344.3096,-549.7426 1351.8706,-550.5292 1359.4729,-551.3334"/>
<polygon fill="#ffa500" stroke="#ffa500" points="1143.918,-527.016 1133.6413,-529.593 1143.282,-533.987 1143.918,-527.016"/>
<text text-anchor="middle" x="1247.5" y="-552" font-family="Helvetica,sans-Serif" font-size="10.00" fill="#000000"> &lt; ConcreteLinOp &gt;</text>
</g>
<!-- Node19 -->
<g id="node15" class="node">
<title>Node19</title>
<g id="a_node15"><a xlink:href="classgko_1_1EnableLinOp.html" target="_top" xlink:title="The EnableLinOp mixin can be used to provide sensible default implementations of the majority of the ...">
<polygon fill="#ffffff" stroke="#000000" points="1739,-547 1739,-577 1895,-577 1895,-547 1739,-547"/>
<text text-anchor="start" x="1747" y="-565" font-family="Helvetica,sans-Serif" font-size="10.00" fill="#000000">gko::EnableLinOp&lt; Concrete</text>
<text text-anchor="middle" x="1817" y="-554" font-family="Helvetica,sans-Serif" font-size="10.00" fill="#000000">LinOp, PolymorphicBase &gt;</text>
</a>
</g>
</g>
<!-- Node19&#45;&gt;Node2 -->
<g id="edge18" class="edge">
<title>Node19&#45;&gt;Node2</title>
<path fill="none" stroke="#ffa500" stroke-dasharray="5,2" d="M1905.4175,-555.9563C1974.1737,-551.2565 2068.6292,-544.8 2134.4596,-540.3002"/>
<polygon fill="#ffa500" stroke="#ffa500" points="1904.7773,-552.4918 1895.0393,-556.6657 1905.2547,-559.4755 1904.7773,-552.4918"/>
<text text-anchor="middle" x="2010.5" y="-557" font-family="Helvetica,sans-Serif" font-size="10.00" fill="#000000"> &lt; Csr&lt; ValueType, IndexType &gt; &gt;</text>
</g>
<!-- Node20&#45;&gt;Node19 -->
<g id="edge19" class="edge">
<title>Node20&#45;&gt;Node19</title>
<path fill="none" stroke="#191970" d="M1566.1393,-598.0851C1621.9978,-590.0501 1688.4282,-580.4944 1738.892,-573.2354"/>
<polygon fill="#191970" stroke="#191970" points="1565.5977,-594.6269 1556.1979,-599.5151 1566.5944,-601.5556 1565.5977,-594.6269"/>
</g>
<!-- Node21&#45;&gt;Node20 -->
<g id="edge20" class="edge">
<title>Node21&#45;&gt;Node20</title>
<path fill="none" stroke="#191970" d="M738.725,-614C899.8513,-614 1198.9661,-614 1354.9602,-614"/>
<polygon fill="#191970" stroke="#191970" points="738.3145,-610.5001 728.3145,-614 738.3144,-617.5001 738.3145,-610.5001"/>
</g>
<!-- Node22&#45;&gt;Node19 -->
<g id="edge24" class="edge">
<title>Node22&#45;&gt;Node19</title>
<path fill="none" stroke="#191970" d="M1561.974,-562C1618.6413,-562 1687.0999,-562 1738.8151,-562"/>
<polygon fill="#191970" stroke="#191970" points="1561.9005,-558.5001 1551.9005,-562 1561.9005,-565.5001 1561.9005,-558.5001"/>
</g>
<!-- Node23&#45;&gt;Node22 -->
<g id="edge25" class="edge">
<title>Node23&#45;&gt;Node22</title>
<path fill="none" stroke="#191970" d="M1102.8508,-568.7493C1171.6983,-567.4316 1280.8342,-565.3429 1359.4692,-563.8379"/>
<polygon fill="#191970" stroke="#191970" points="1102.5072,-565.2551 1092.576,-568.9459 1102.6412,-572.2538 1102.5072,-565.2551"/>
</g>
<!-- Node24 -->
<g id="node20" class="node">
<title>Node24</title>
<g id="a_node20"><a xlink:href="classgko_1_1EnableCreateMethod.html" target="_top" xlink:title=" ">
<polygon fill="#ffffff" stroke="#000000" points="2121,-404 2121,-434 2303,-434 2303,-404 2121,-404"/>
<text text-anchor="start" x="2129" y="-422" font-family="Helvetica,sans-Serif" font-size="10.00" fill="#000000">gko::EnableCreateMethod</text>
<text text-anchor="middle" x="2212" y="-411" font-family="Helvetica,sans-Serif" font-size="10.00" fill="#000000">&lt; Csr&lt; ValueType, IndexType &gt; &gt;</text>
</a>
</g>
</g>
<!-- Node24&#45;&gt;Node1 -->
<g id="edge28" class="edge">
<title>Node24&#45;&gt;Node1</title>
<path fill="none" stroke="#191970" d="M2301.3181,-400.1998C2308.5948,-397.0287 2315.5998,-393.3251 2322,-389 2365.8936,-359.3378 2398.0643,-303.1976 2411.7349,-276.2219"/>
<polygon fill="#191970" stroke="#191970" points="2299.9633,-396.972 2291.9808,-403.9384 2302.5653,-403.4705 2299.9633,-396.972"/>
</g>
<!-- Node25 -->
<g id="node21" class="node">
<title>Node25</title>
<g id="a_node21"><a xlink:href="classgko_1_1EnableCreateMethod.html" target="_top" xlink:title="This mixin implements a static create() method on ConcreteType that dynamically allocates the memory,...">
<polygon fill="#ffffff" stroke="#000000" points="1746,-404 1746,-434 1888,-434 1888,-404 1746,-404"/>
<text text-anchor="start" x="1754" y="-422" font-family="Helvetica,sans-Serif" font-size="10.00" fill="#000000">gko::EnableCreateMethod</text>
<text text-anchor="middle" x="1817" y="-411" font-family="Helvetica,sans-Serif" font-size="10.00" fill="#000000">&lt; ConcreteType &gt;</text>
</a>
</g>
</g>
<!-- Node25&#45;&gt;Node24 -->
<g id="edge29" class="edge">
<title>Node25&#45;&gt;Node24</title>
<path fill="none" stroke="#ffa500" stroke-dasharray="5,2" d="M1898.2434,-419C1963.0387,-419 2053.7565,-419 2120.9882,-419"/>
<polygon fill="#ffa500" stroke="#ffa500" points="1898.0743,-415.5001 1888.0743,-419 1898.0742,-422.5001 1898.0743,-415.5001"/>
<text text-anchor="middle" x="2010.5" y="-422" font-family="Helvetica,sans-Serif" font-size="10.00" fill="#000000"> &lt; Csr&lt; ValueType, IndexType &gt; &gt;</text>
</g>
<!-- Node26&#45;&gt;Node1 -->
<g id="edge30" class="edge">
<title>Node26&#45;&gt;Node1</title>
<path fill="none" stroke="#191970" d="M1341.3329,-251.5377C1421.8572,-255.8116 1541.0236,-261 1645,-261 1645,-261 1645,-261 2212,-261 2254.2266,-261 2301.2985,-261 2339.8721,-261"/>
<polygon fill="#191970" stroke="#191970" points="1341.3903,-248.0358 1331.2171,-250.9948 1341.0151,-255.0258 1341.3903,-248.0358"/>
</g>
<!-- Node27&#45;&gt;Node1 -->
<g id="edge32" class="edge">
<title>Node27&#45;&gt;Node1</title>
<path fill="none" stroke="#191970" d="M1726.3742,-217.1642C1853.685,-219.5626 2107.5974,-226.6678 2322,-247 2327.8439,-247.5542 2333.8743,-248.2133 2339.935,-248.9389"/>
<polygon fill="#191970" stroke="#191970" points="1726.3754,-213.6637 1716.3128,-216.9795 1726.2469,-220.6625 1726.3754,-213.6637"/>
</g>
<!-- Node28&#45;&gt;Node1 -->
<g id="edge34" class="edge">
<title>Node28&#45;&gt;Node1</title>
<path fill="none" stroke="#191970" d="M2113.1579,-175.7782C2174.8794,-179.2284 2254.326,-187.9181 2322,-209 2349.1817,-217.4677 2377.582,-233.694 2396.5742,-245.7789"/>
<polygon fill="#191970" stroke="#191970" points="2113.1884,-172.2751 2103.0197,-175.2494 2112.8238,-179.2656 2113.1884,-172.2751"/>
</g>
<!-- Node29&#45;&gt;Node1 -->
<g id="edge36" class="edge">
<title>Node29&#45;&gt;Node1</title>
<path fill="none" stroke="#191970" d="M1347.4642,-445.9499C1427.7668,-453.8022 1543.4938,-463 1645,-463 1645,-463 1645,-463 2212,-463 2253.3166,-463 2269.0367,-467.5277 2303,-444 2365.4611,-400.7308 2401.5746,-311.8064 2414.0309,-276.2167"/>
<polygon fill="#191970" stroke="#191970" points="1347.6548,-442.4518 1337.3589,-444.9506 1346.9659,-449.4178 1347.6548,-442.4518"/>
</g>
<!-- Node30&#45;&gt;Node1 -->
<g id="edge38" class="edge">
<title>Node30&#45;&gt;Node1</title>
<path fill="none" stroke="#191970" d="M1717.3938,-377.7576C1865.3612,-380.4764 2197.3848,-381.8579 2303,-343 2343.2735,-328.1826 2382.3893,-295.6256 2403.3158,-276.2891"/>
<polygon fill="#191970" stroke="#191970" points="1717.129,-374.252 1707.0639,-377.5601 1716.9951,-381.2507 1717.129,-374.252"/>
</g>
<!-- Node31&#45;&gt;Node1 -->
<g id="edge40" class="edge">
<title>Node31&#45;&gt;Node1</title>
<path fill="none" stroke="#191970" d="M2078.9987,-339.7485C2143.0997,-340.4577 2240.8776,-336.7224 2322,-313 2349.5091,-304.9556 2378.0833,-288.4854 2397.0299,-276.2253"/>
<polygon fill="#191970" stroke="#191970" points="2078.6668,-336.2432 2068.615,-339.5915 2078.5609,-343.2424 2078.6668,-336.2432"/>
</g>
<!-- Node32&#45;&gt;Node1 -->
<g id="edge42" class="edge">
<title>Node32&#45;&gt;Node1</title>
<path fill="none" stroke="#191970" d="M1331.1944,-294.9968C1411.6324,-296.7423 1536.6181,-299 1645,-299 1645,-299 1645,-299 2212,-299 2265.3455,-299 2325.1719,-286.6403 2366.7359,-276.0186"/>
<polygon fill="#191970" stroke="#191970" points="1331.1971,-291.4961 1321.1227,-294.7758 1331.0435,-298.4944 1331.1971,-291.4961"/>
</g>
<!-- Node33 -->
<g id="node29" class="node">
<title>Node33</title>
<g id="a_node29"><a xlink:href="classgko_1_1ReadableFromMatrixData.html" target="_top" xlink:title="A LinOp implementing this interface can read its data from a matrix_data structure.">
<polygon fill="#ffffff" stroke="#000000" points="2130,-126 2130,-156 2294,-156 2294,-126 2130,-126"/>
<text text-anchor="start" x="2138" y="-144" font-family="Helvetica,sans-Serif" font-size="10.00" fill="#000000">gko::ReadableFromMatrixData</text>
<text text-anchor="middle" x="2212" y="-133" font-family="Helvetica,sans-Serif" font-size="10.00" fill="#000000">&lt; ValueType, IndexType &gt;</text>
</a>
</g>
</g>
<!-- Node33&#45;&gt;Node1 -->
<g id="edge44" class="edge">
<title>Node33&#45;&gt;Node1</title>
<path fill="none" stroke="#191970" d="M2295.9022,-159.2758C2304.9646,-162.59 2313.845,-166.4693 2322,-171 2357.3432,-190.636 2389.9372,-225.8116 2406.8569,-245.8787"/>
<polygon fill="#191970" stroke="#191970" points="2297.0097,-155.9556 2286.4151,-156.0231 2294.7394,-162.5772 2297.0097,-155.9556"/>
</g>
<!-- Node34 -->
<g id="node30" class="node">
<title>Node34</title>
<g id="a_node30"><a xlink:href="classgko_1_1WritableToMatrixData.html" target="_top" xlink:title="A LinOp implementing this interface can write its data to a matrix_data structure.">
<polygon fill="#ffffff" stroke="#000000" points="2139,-77 2139,-107 2285,-107 2285,-77 2139,-77"/>
<text text-anchor="start" x="2147" y="-95" font-family="Helvetica,sans-Serif" font-size="10.00" fill="#000000">gko::WritableToMatrixData</text>
<text text-anchor="middle" x="2212" y="-84" font-family="Helvetica,sans-Serif" font-size="10.00" fill="#000000">&lt; ValueType, IndexType &gt;</text>
</a>
</g>
</g>
<!-- Node34&#45;&gt;Node1 -->
<g id="edge45" class="edge">
<title>Node34&#45;&gt;Node1</title>
<path fill="none" stroke="#191970" d="M2293.167,-111.3311C2296.5743,-113.0626 2299.8702,-114.9477 2303,-117 2355.0806,-151.1509 2394.843,-216.2381 2411.0481,-245.7616"/>
<polygon fill="#191970" stroke="#191970" points="2294.4739,-108.0801 2283.9247,-107.0977 2291.5588,-114.4443 2294.4739,-108.0801"/>
</g>
<!-- Node35 -->
<g id="node31" class="node">
<title>Node35</title>
<g id="a_node31"><a xlink:href="classgko_1_1Transposable.html" target="_top" xlink:title="Linear operators which support transposition should implement the Transposable interface.">
<polygon fill="#ffffff" stroke="#000000" points="2160,-38.5 2160,-57.5 2264,-57.5 2264,-38.5 2160,-38.5"/>
<text text-anchor="middle" x="2212" y="-45.5" font-family="Helvetica,sans-Serif" font-size="10.00" fill="#000000">gko::Transposable</text>
</a>
</g>
</g>
<!-- Node35&#45;&gt;Node1 -->
<g id="edge46" class="edge">
<title>Node35&#45;&gt;Node1</title>
<path fill="none" stroke="#191970" d="M2274.0379,-54.5182C2284.3383,-57.5339 2294.4384,-61.8492 2303,-68 2367.6101,-114.4168 2402.8007,-208.995 2414.5171,-245.8347"/>
<polygon fill="#191970" stroke="#191970" points="2274.6982,-51.0749 2264.1445,-52.0076 2272.9764,-57.8599 2274.6982,-51.0749"/>
</g>
<!-- Node36 -->
<g id="node32" class="node">
<title>Node36</title>
<g id="a_node32"><a xlink:href="classgko_1_1Permutable.html" target="_top" xlink:title="Linear operators which support permutation should implement the Permutable interface.">
<polygon fill="#ffffff" stroke="#000000" points="2127.5,-.5 2127.5,-19.5 2296.5,-19.5 2296.5,-.5 2127.5,-.5"/>
<text text-anchor="middle" x="2212" y="-7.5" font-family="Helvetica,sans-Serif" font-size="10.00" fill="#000000">gko::Permutable&lt; IndexType &gt;</text>
</a>
</g>
</g>
<!-- Node36&#45;&gt;Node1 -->
<g id="edge47" class="edge">
<title>Node36&#45;&gt;Node1</title>
<path fill="none" stroke="#191970" d="M2295.6282,-24.0648C2298.1954,-25.5587 2300.6628,-27.1992 2303,-29 2377.3751,-86.3059 2407.5469,-204.1593 2416.1829,-245.9211"/>
<polygon fill="#191970" stroke="#191970" points="2297.0695,-20.8724 2286.56,-19.5305 2293.9388,-27.1333 2297.0695,-20.8724"/>
</g>
</g>
</svg>
        <g id="navigator" transform="translate(0 0)" fill="#404254">
                <rect fill="#f2f5e9" fill-opacity="0.5" stroke="#606060" stroke-width=".5" x="0" y="0" width="60" height="60"/>
                <use id="zoomplus" xlink:href="#zoomPlus" x="17" y="9" onmousedown="handleZoom(evt,'in')"/>
                <use id="zoomminus" xlink:href="#zoomMin" x="42" y="9" onmousedown="handleZoom(evt,'out')"/>
                <use id="reset" xlink:href="#resetDef" x="30" y="36" onmousedown="handleReset()"/>
                <g id="arrowUp" xlink:href="#dirArrow" transform="translate(30 24)" onmousedown="handlePan(0,-1)">
                  <use xlink:href="#rim" fill="#404040">
                        <set attributeName="fill" to="#808080" begin="arrowUp.mouseover" end="arrowUp.mouseout"/>
                  </use>
                  <path fill="none" stroke="white" stroke-width="1.5" d="M0,-3.0v7 M-2.5,-0.5L0,-3.0L2.5,-0.5"/>
                </g>
                <g id="arrowRight" xlink:href="#dirArrow" transform="rotate(90) translate(36 -43)" onmousedown="handlePan(1,0)">
                  <use xlink:href="#rim" fill="#404040">
                        <set attributeName="fill" to="#808080" begin="arrowRight.mouseover" end="arrowRight.mouseout"/>
                  </use>
                  <path fill="none" stroke="white" stroke-width="1.5" d="M0,-3.0v7 M-2.5,-0.5L0,-3.0L2.5,-0.5"/>
                </g>
                <g id="arrowDown" xlink:href="#dirArrow" transform="rotate(180) translate(-30 -48)" onmousedown="handlePan(0,1)">
                  <use xlink:href="#rim" fill="#404040">
                        <set attributeName="fill" to="#808080" begin="arrowDown.mouseover" end="arrowDown.mouseout"/>
                  </use>
                  <path fill="none" stroke="white" stroke-width="1.5" d="M0,-3.0v7 M-2.5,-0.5L0,-3.0L2.5,-0.5"/>
                </g>
                <g id="arrowLeft" xlink:href="#dirArrow" transform="rotate(270) translate(-36 17)" onmousedown="handlePan(-1,0)">
                  <use xlink:href="#rim" fill="#404040">
                        <set attributeName="fill" to="#808080" begin="arrowLeft.mouseover" end="arrowLeft.mouseout"/>
                  </use>
                  <path fill="none" stroke="white" stroke-width="1.5" d="M0,-3.0v7 M-2.5,-0.5L0,-3.0L2.5,-0.5"/>
                </g>
        </g>
        <svg viewBox="0 0 15 15" width="100%" height="30px" preserveAspectRatio="xMaxYMin meet">
         <g id="arrow_out" transform="scale(0.3 0.3)">
          <a xlink:href="classgko_1_1matrix_1_1Csr__coll__graph_org.svg" target="_base">
           <rect id="button" ry="5" rx="5" y="6" x="6" height="38" width="38"
                fill="#f2f5e9" fill-opacity="0.5" stroke="#606060" stroke-width="1.0"/>
           <path id="arrow"
             d="M 11.500037,31.436501 C 11.940474,20.09759 22.043105,11.32322 32.158766,21.979434 L 37.068811,17.246167 C 37.068811,17.246167 37.088388,32 37.088388,32 L 22.160133,31.978069 C 22.160133,31.978069 26.997745,27.140456 26.997745,27.140456 C 18.528582,18.264221 13.291696,25.230495 11.500037,31.436501 z"
             style="fill:#404040;"/>
          </a>
         </g>
        </svg>
</svg>
