<?xml version="1.0" encoding="UTF-8" standalone="no"?>
<!DOCTYPE svg PUBLIC "-//W3C//DTD SVG 1.1//EN"
 "http://www.w3.org/Graphics/SVG/1.1/DTD/svg11.dtd">
<!-- Generated by graphviz version 2.40.1 (20161225.0304)
 -->
<!-- Title: gko::matrix::Coo&lt; ValueType, IndexType &gt; Pages: 1 -->
<!--zoomable 496 -->
<svg id="main" version="1.1" xmlns="http://www.w3.org/2000/svg" xmlns:xlink="http://www.w3.org/1999/xlink" xml:space="preserve" onload="init(evt)">
<style type="text/css"><![CDATA[
.edge:hover path { stroke: red; }
.edge:hover polygon { stroke: red; fill: red; }
]]></style>
<script type="text/javascript"><![CDATA[
var edges = document.getElementsByTagName('g');
if (edges && edges.length) {
  for (var i=0;i<edges.length;i++) {
    if (edges[i].id.substr(0,4)=='edge') {
      edges[i].setAttribute('class','edge');
    }
  }
}
]]></script>
        <defs>
                <circle id="rim" cx="0" cy="0" r="7"/>
                <circle id="rim2" cx="0" cy="0" r="3.5"/>
                <g id="zoomPlus">
                        <use xlink:href="#rim" fill="#404040">
                                <set attributeName="fill" to="#808080" begin="zoomplus.mouseover" end="zoomplus.mouseout"/>
                        </use>
                        <path d="M-4,0h8M0,-4v8" fill="none" stroke="white" stroke-width="1.5" pointer-events="none"/>
                </g>
                <g id="zoomMin">
                        <use xlink:href="#rim" fill="#404040">
                                <set attributeName="fill" to="#808080" begin="zoomminus.mouseover" end="zoomminus.mouseout"/>
                        </use>
                        <path d="M-4,0h8" fill="none" stroke="white" stroke-width="1.5" pointer-events="none"/>
                </g>
                <g id="dirArrow">
                        <path fill="none" stroke="white" stroke-width="1.5" d="M0,-3.0v7 M-2.5,-0.5L0,-3.0L2.5,-0.5"/>
                </g>
               <g id="resetDef">
                       <use xlink:href="#rim2" fill="#404040">
                               <set attributeName="fill" to="#808080" begin="reset.mouseover" end="reset.mouseout"/>
                       </use>
               </g>
        </defs>

<script type="text/javascript">
var viewWidth = 2569;
var viewHeight = 496;
var sectionId = 'dynsection-0';
</script>
<script xlink:href="svgpan.js"/>
<svg id="graph" class="graph">
<g id="viewport">
<title>gko::matrix::Coo&lt; ValueType, IndexType &gt;</title>
<polygon fill="#ffffff" stroke="transparent" points="-4,4 -4,-492 2565,-492 2565,4 -4,4"/>
<!-- Node1 -->
<g id="node1" class="node">
<title>Node1</title>
<g id="a_node1"><a xlink:title="COO stores a matrix in the coordinate matrix format.">
<polygon fill="#bfbfbf" stroke="#000000" points="2400,-235 2400,-265 2561,-265 2561,-235 2400,-235"/>
<text text-anchor="start" x="2408" y="-253" font-family="Helvetica,sans-Serif" font-size="10.00" fill="#000000">gko::matrix::Coo&lt; ValueType,</text>
<text text-anchor="middle" x="2480.5" y="-242" font-family="Helvetica,sans-Serif" font-size="10.00" fill="#000000"> IndexType &gt;</text>
</a>
</g>
</g>
<!-- Node2 -->
<g id="node2" class="node">
<title>Node2</title>
<g id="a_node2"><a xlink:href="classgko_1_1EnableLinOp.html" target="_top" xlink:title=" ">
<polygon fill="#ffffff" stroke="#000000" points="2182.5,-284 2182.5,-314 2337.5,-314 2337.5,-284 2182.5,-284"/>
<text text-anchor="start" x="2190.5" y="-302" font-family="Helvetica,sans-Serif" font-size="10.00" fill="#000000">gko::EnableLinOp&lt; Coo</text>
<text text-anchor="middle" x="2260" y="-291" font-family="Helvetica,sans-Serif" font-size="10.00" fill="#000000">&lt; ValueType, IndexType &gt; &gt;</text>
</a>
</g>
</g>
<!-- Node2&#45;&gt;Node1 -->
<g id="edge1" class="edge">
<title>Node2&#45;&gt;Node1</title>
<path fill="none" stroke="#191970" d="M2337.6615,-281.7419C2362.2308,-276.282 2389.1725,-270.295 2412.9722,-265.0062"/>
<polygon fill="#191970" stroke="#191970" points="2336.6584,-278.3793 2327.6558,-283.9654 2338.1769,-285.2127 2336.6584,-278.3793"/>
</g>
<!-- Node3 -->
<g id="node3" class="node">
<title>Node3</title>
<g id="a_node3"><a xlink:href="classgko_1_1EnablePolymorphicObject.html" target="_top" xlink:title=" ">
<polygon fill="#ffffff" stroke="#000000" points="1776.5,-151.5 1776.5,-192.5 1942.5,-192.5 1942.5,-151.5 1776.5,-151.5"/>
<text text-anchor="start" x="1784.5" y="-180.5" font-family="Helvetica,sans-Serif" font-size="10.00" fill="#000000">gko::EnablePolymorphicObject</text>
<text text-anchor="start" x="1784.5" y="-169.5" font-family="Helvetica,sans-Serif" font-size="10.00" fill="#000000">&lt; Coo&lt; ValueType, IndexType</text>
<text text-anchor="middle" x="1859.5" y="-158.5" font-family="Helvetica,sans-Serif" font-size="10.00" fill="#000000"> &gt;, LinOp &gt;</text>
</a>
</g>
</g>
<!-- Node3&#45;&gt;Node2 -->
<g id="edge2" class="edge">
<title>Node3&#45;&gt;Node2</title>
<path fill="none" stroke="#191970" d="M1952.5695,-181.3071C2010.5153,-190.844 2084.187,-210.1131 2139,-249 2150.4629,-257.1323 2145.3772,-267.098 2157,-275 2164.668,-280.2132 2173.3188,-284.3036 2182.2663,-287.5113"/>
<polygon fill="#191970" stroke="#191970" points="1953.1005,-177.8477 1942.6774,-179.7477 1952.0104,-184.7623 1953.1005,-177.8477"/>
</g>
<!-- Node4 -->
<g id="node4" class="node">
<title>Node4</title>
<g id="a_node4"><a xlink:href="classgko_1_1EnableAbstractPolymorphicObject.html" target="_top" xlink:title=" ">
<polygon fill="#ffffff" stroke="#000000" points="1354.5,-40.5 1354.5,-81.5 1548.5,-81.5 1548.5,-40.5 1354.5,-40.5"/>
<text text-anchor="start" x="1362.5" y="-69.5" font-family="Helvetica,sans-Serif" font-size="10.00" fill="#000000">gko::EnableAbstractPolymorphic</text>
<text text-anchor="start" x="1362.5" y="-58.5" font-family="Helvetica,sans-Serif" font-size="10.00" fill="#000000">Object&lt; Coo&lt; ValueType, IndexType</text>
<text text-anchor="middle" x="1451.5" y="-47.5" font-family="Helvetica,sans-Serif" font-size="10.00" fill="#000000"> &gt;, LinOp &gt;</text>
</a>
</g>
</g>
<!-- Node4&#45;&gt;Node3 -->
<g id="edge3" class="edge">
<title>Node4&#45;&gt;Node3</title>
<path fill="none" stroke="#191970" d="M1558.8133,-52.4554C1620.7685,-52.9662 1697.0499,-63.4893 1752,-104 1767.042,-115.0893 1756.0236,-129.5945 1770,-142 1773.922,-145.4812 1778.2619,-148.5608 1782.8541,-151.2849"/>
<polygon fill="#191970" stroke="#191970" points="1558.604,-48.9554 1548.6055,-52.4597 1558.607,-55.9554 1558.604,-48.9554"/>
</g>
<!-- Node5 -->
<g id="node5" class="node">
<title>Node5</title>
<g id="a_node5"><a xlink:href="classgko_1_1LinOp.html" target="_top" xlink:title=" ">
<polygon fill="#ffffff" stroke="#000000" points="1006.5,-53.5 1006.5,-72.5 1074.5,-72.5 1074.5,-53.5 1006.5,-53.5"/>
<text text-anchor="middle" x="1040.5" y="-60.5" font-family="Helvetica,sans-Serif" font-size="10.00" fill="#000000">gko::LinOp</text>
</a>
</g>
</g>
<!-- Node5&#45;&gt;Node4 -->
<g id="edge4" class="edge">
<title>Node5&#45;&gt;Node4</title>
<path fill="none" stroke="#191970" d="M1084.9991,-62.7835C1149.0597,-62.4717 1268.9169,-61.8885 1354.113,-61.4739"/>
<polygon fill="#191970" stroke="#191970" points="1084.8175,-59.2842 1074.8347,-62.8329 1084.8517,-66.2841 1084.8175,-59.2842"/>
</g>
<!-- Node6 -->
<g id="node6" class="node">
<title>Node6</title>
<g id="a_node6"><a xlink:href="classgko_1_1EnableAbstractPolymorphicObject.html" target="_top" xlink:title=" ">
<polygon fill="#ffffff" stroke="#ff0000" points="542,-52 542,-82 717,-82 717,-52 542,-52"/>
<text text-anchor="start" x="550" y="-70" font-family="Helvetica,sans-Serif" font-size="10.00" fill="#000000">gko::EnableAbstractPolymorphic</text>
<text text-anchor="middle" x="629.5" y="-59" font-family="Helvetica,sans-Serif" font-size="10.00" fill="#000000">Object&lt; LinOp &gt;</text>
</a>
</g>
</g>
<!-- Node6&#45;&gt;Node5 -->
<g id="edge5" class="edge">
<title>Node6&#45;&gt;Node5</title>
<path fill="none" stroke="#191970" d="M727.4012,-66.0472C817.4625,-65.1707 945.9278,-63.9204 1006.4624,-63.3313"/>
<polygon fill="#191970" stroke="#191970" points="727.1311,-62.5496 717.1657,-66.1468 727.1993,-69.5492 727.1311,-62.5496"/>
</g>
<!-- Node11 -->
<g id="node7" class="node">
<title>Node11</title>
<g id="a_node7"><a xlink:href="classgko_1_1EnableAbstractPolymorphicObject.html" target="_top" xlink:title="This mixin inherits from (a subclass of) PolymorphicObject and provides a base implementation of a ne...">
<polygon fill="#ffffff" stroke="#000000" points="138,-74.5 138,-115.5 336,-115.5 336,-74.5 138,-74.5"/>
<text text-anchor="start" x="146" y="-103.5" font-family="Helvetica,sans-Serif" font-size="10.00" fill="#000000">gko::EnableAbstractPolymorphic</text>
<text text-anchor="start" x="146" y="-92.5" font-family="Helvetica,sans-Serif" font-size="10.00" fill="#000000">Object&lt; AbstractObject, Polymorphic</text>
<text text-anchor="middle" x="237" y="-81.5" font-family="Helvetica,sans-Serif" font-size="10.00" fill="#000000">Base &gt;</text>
</a>
</g>
</g>
<!-- Node11&#45;&gt;Node4 -->
<g id="edge8" class="edge">
<title>Node11&#45;&gt;Node4</title>
<path fill="none" stroke="#ffa500" stroke-dasharray="5,2" d="M292.7467,-70.7038C311.8199,-63.4231 333.5167,-56.2512 354,-52 430.2791,-36.1687 451.1441,-44.7564 529,-42 801.7195,-32.3446 870.3143,-33.4326 1143,-44 1213.7521,-46.7419 1293.5617,-51.176 1354.2775,-54.8282"/>
<polygon fill="#ffa500" stroke="#ffa500" points="291.3608,-67.4877 283.3227,-74.3898 293.9106,-74.0068 291.3608,-67.4877"/>
<text text-anchor="start" x="759" y="-51" font-family="Helvetica,sans-Serif" font-size="10.00" fill="#000000"> &lt; Coo&lt; ValueType, IndexType</text>
<text text-anchor="middle" x="834" y="-40" font-family="Helvetica,sans-Serif" font-size="10.00" fill="#000000"> &gt;, LinOp &gt;</text>
</g>
<!-- Node11&#45;&gt;Node6 -->
<g id="edge6" class="edge">
<title>Node11&#45;&gt;Node6</title>
<path fill="none" stroke="#ffa500" stroke-dasharray="5,2" d="M307.484,-71.7573C322.6639,-67.7023 338.737,-64.1113 354,-62 416.4318,-53.364 487.5725,-54.9413 541.9222,-58.5068"/>
<polygon fill="#ffa500" stroke="#ffa500" points="306.3589,-68.437 297.6551,-74.4781 308.2265,-75.1833 306.3589,-68.437"/>
<text text-anchor="middle" x="432.5" y="-65" font-family="Helvetica,sans-Serif" font-size="10.00" fill="#000000"> &lt; LinOp &gt;</text>
</g>
<!-- Node14 -->
<g id="node10" class="node">
<title>Node14</title>
<g id="a_node10"><a xlink:href="classgko_1_1EnableAbstractPolymorphicObject.html" target="_top" xlink:title=" ">
<polygon fill="#ffffff" stroke="#000000" points="529,-105.5 529,-146.5 730,-146.5 730,-105.5 529,-105.5"/>
<text text-anchor="start" x="537" y="-134.5" font-family="Helvetica,sans-Serif" font-size="10.00" fill="#000000">gko::EnableAbstractPolymorphic</text>
<text text-anchor="start" x="537" y="-123.5" font-family="Helvetica,sans-Serif" font-size="10.00" fill="#000000">Object&lt; ConcreteObject, Polymorphic</text>
<text text-anchor="middle" x="629.5" y="-112.5" font-family="Helvetica,sans-Serif" font-size="10.00" fill="#000000">Base &gt;</text>
</a>
</g>
</g>
<!-- Node11&#45;&gt;Node14 -->
<g id="edge12" class="edge">
<title>Node11&#45;&gt;Node14</title>
<path fill="none" stroke="#ffa500" stroke-dasharray="5,2" d="M346.546,-89.305C396.835,-88.251 457.1345,-89.1876 511,-96 527.1065,-98.037 544.1687,-101.5355 560.1771,-105.4402"/>
<polygon fill="#ffa500" stroke="#ffa500" points="346.2136,-85.8118 336.3002,-89.5499 346.381,-92.8098 346.2136,-85.8118"/>
<text text-anchor="start" x="354" y="-110" font-family="Helvetica,sans-Serif" font-size="10.00" fill="#000000"> &lt; ConcreteObject, Polymorphic</text>
<text text-anchor="middle" x="432.5" y="-99" font-family="Helvetica,sans-Serif" font-size="10.00" fill="#000000">Base &gt;</text>
</g>
<!-- Node21 -->
<g id="node17" class="node">
<title>Node21</title>
<g id="a_node17"><a xlink:href="classgko_1_1EnableAbstractPolymorphicObject.html" target="_top" xlink:title=" ">
<polygon fill="#ffffff" stroke="#000000" points="531,-167.5 531,-208.5 728,-208.5 728,-167.5 531,-167.5"/>
<text text-anchor="start" x="539" y="-196.5" font-family="Helvetica,sans-Serif" font-size="10.00" fill="#000000">gko::EnableAbstractPolymorphic</text>
<text text-anchor="start" x="539" y="-185.5" font-family="Helvetica,sans-Serif" font-size="10.00" fill="#000000">Object&lt; ConcreteLinOp, Polymorphic</text>
<text text-anchor="middle" x="629.5" y="-174.5" font-family="Helvetica,sans-Serif" font-size="10.00" fill="#000000">Base &gt;</text>
</a>
</g>
</g>
<!-- Node11&#45;&gt;Node21 -->
<g id="edge22" class="edge">
<title>Node11&#45;&gt;Node21</title>
<path fill="none" stroke="#ffa500" stroke-dasharray="5,2" d="M333.7212,-117.9174C397.715,-133.0802 480.9108,-152.7929 542.761,-167.4478"/>
<polygon fill="#ffa500" stroke="#ffa500" points="334.1593,-114.4243 323.6217,-115.5244 332.5453,-121.2357 334.1593,-114.4243"/>
<text text-anchor="start" x="356" y="-171" font-family="Helvetica,sans-Serif" font-size="10.00" fill="#000000"> &lt; ConcreteLinOp, Polymorphic</text>
<text text-anchor="middle" x="432.5" y="-160" font-family="Helvetica,sans-Serif" font-size="10.00" fill="#000000">Base &gt;</text>
</g>
<!-- Node12 -->
<g id="node8" class="node">
<title>Node12</title>
<g id="a_node8"><a xlink:title=" ">
<polygon fill="#ffffff" stroke="#bfbfbf" points="0,-167.5 0,-186.5 101,-186.5 101,-167.5 0,-167.5"/>
<text text-anchor="middle" x="50.5" y="-174.5" font-family="Helvetica,sans-Serif" font-size="10.00" fill="#000000">PolymorphicBase</text>
</a>
</g>
</g>
<!-- Node12&#45;&gt;Node11 -->
<g id="edge7" class="edge">
<title>Node12&#45;&gt;Node11</title>
<path fill="none" stroke="#191970" d="M81.6749,-163.2931C111.2807,-150.2761 156.181,-130.5344 190.1047,-115.6189"/>
<polygon fill="#191970" stroke="#191970" points="80.0044,-160.2041 72.2589,-167.4331 82.8219,-166.6121 80.0044,-160.2041"/>
</g>
<!-- Node12&#45;&gt;Node14 -->
<g id="edge11" class="edge">
<title>Node12&#45;&gt;Node14</title>
<path fill="none" stroke="#191970" d="M111.155,-180.3632C199.7191,-184.1014 369.3047,-186.8154 511,-163 514.0952,-162.4798 538.9141,-154.7705 565.0439,-146.523"/>
<polygon fill="#191970" stroke="#191970" points="111.1676,-176.8605 101.023,-179.916 110.8589,-183.8536 111.1676,-176.8605"/>
</g>
<!-- Node12&#45;&gt;Node21 -->
<g id="edge21" class="edge">
<title>Node12&#45;&gt;Node21</title>
<path fill="none" stroke="#191970" d="M100.0089,-188.344C106.37,-189.4398 112.8183,-190.3748 119,-191 292.3378,-208.5321 336.7917,-193.2048 511,-191 517.482,-190.918 524.163,-190.8107 530.8959,-190.6856"/>
<polygon fill="#191970" stroke="#191970" points="100.6063,-184.8952 90.1355,-186.5111 99.3286,-191.7776 100.6063,-184.8952"/>
</g>
<!-- Node13 -->
<g id="node9" class="node">
<title>Node13</title>
<g id="a_node9"><a xlink:href="classgko_1_1EnablePolymorphicObject.html" target="_top" xlink:title="This mixin inherits from (a subclass of) PolymorphicObject and provides a base implementation of a ne...">
<polygon fill="#ffffff" stroke="#000000" points="938,-111 938,-141 1143,-141 1143,-111 938,-111"/>
<text text-anchor="start" x="946" y="-129" font-family="Helvetica,sans-Serif" font-size="10.00" fill="#000000">gko::EnablePolymorphicObject</text>
<text text-anchor="middle" x="1040.5" y="-118" font-family="Helvetica,sans-Serif" font-size="10.00" fill="#000000">&lt; ConcreteObject, PolymorphicBase &gt;</text>
</a>
</g>
</g>
<!-- Node13&#45;&gt;Node3 -->
<g id="edge9" class="edge">
<title>Node13&#45;&gt;Node3</title>
<path fill="none" stroke="#ffa500" stroke-dasharray="5,2" d="M1153.0675,-127.6487C1207.4393,-128.6137 1273.6213,-130.0356 1333,-132 1430.3815,-135.2216 1454.8138,-135.045 1552,-142 1628.1067,-147.4465 1714.5783,-156.103 1776.3972,-162.7205"/>
<polygon fill="#ffa500" stroke="#ffa500" points="1153.1165,-124.1491 1143.0569,-127.4738 1152.9942,-131.148 1153.1165,-124.1491"/>
<text text-anchor="start" x="1376.5" y="-156" font-family="Helvetica,sans-Serif" font-size="10.00" fill="#000000"> &lt; Coo&lt; ValueType, IndexType</text>
<text text-anchor="middle" x="1451.5" y="-145" font-family="Helvetica,sans-Serif" font-size="10.00" fill="#000000"> &gt;, LinOp &gt;</text>
</g>
<!-- Node20 -->
<g id="node16" class="node">
<title>Node20</title>
<g id="a_node16"><a xlink:href="classgko_1_1EnablePolymorphicObject.html" target="_top" xlink:title=" ">
<polygon fill="#ffffff" stroke="#000000" points="1351,-173 1351,-203 1552,-203 1552,-173 1351,-173"/>
<text text-anchor="start" x="1359" y="-191" font-family="Helvetica,sans-Serif" font-size="10.00" fill="#000000">gko::EnablePolymorphicObject</text>
<text text-anchor="middle" x="1451.5" y="-180" font-family="Helvetica,sans-Serif" font-size="10.00" fill="#000000">&lt; ConcreteLinOp, PolymorphicBase &gt;</text>
</a>
</g>
</g>
<!-- Node13&#45;&gt;Node20 -->
<g id="edge23" class="edge">
<title>Node13&#45;&gt;Node20</title>
<path fill="none" stroke="#ffa500" stroke-dasharray="5,2" d="M1153.1523,-130.5746C1207.8187,-134.1735 1274.225,-140.5869 1333,-152 1358.8562,-157.0208 1387.101,-165.4798 1409.5279,-172.9367"/>
<polygon fill="#ffa500" stroke="#ffa500" points="1153.2879,-127.0763 1143.086,-129.9348 1152.8438,-134.0622 1153.2879,-127.0763"/>
<text text-anchor="start" x="1170.5" y="-166" font-family="Helvetica,sans-Serif" font-size="10.00" fill="#000000"> &lt; ConcreteLinOp, Polymorphic</text>
<text text-anchor="middle" x="1247" y="-155" font-family="Helvetica,sans-Serif" font-size="10.00" fill="#000000">Base &gt;</text>
</g>
<!-- Node14&#45;&gt;Node13 -->
<g id="edge10" class="edge">
<title>Node14&#45;&gt;Node13</title>
<path fill="none" stroke="#191970" d="M740.1691,-126C801.6463,-126 877.6268,-126 937.7824,-126"/>
<polygon fill="#191970" stroke="#191970" points="740.0419,-122.5001 730.0419,-126 740.0419,-129.5001 740.0419,-122.5001"/>
</g>
<!-- Node15 -->
<g id="node11" class="node">
<title>Node15</title>
<g id="a_node11"><a xlink:href="classgko_1_1EnablePolymorphicAssignment.html" target="_top" xlink:title=" ">
<polygon fill="#ffffff" stroke="#000000" points="1355.5,-284 1355.5,-314 1547.5,-314 1547.5,-284 1355.5,-284"/>
<text text-anchor="start" x="1363.5" y="-302" font-family="Helvetica,sans-Serif" font-size="10.00" fill="#000000">gko::EnablePolymorphicAssignment</text>
<text text-anchor="middle" x="1451.5" y="-291" font-family="Helvetica,sans-Serif" font-size="10.00" fill="#000000">&lt; Coo&lt; ValueType, IndexType &gt; &gt;</text>
</a>
</g>
</g>
<!-- Node15&#45;&gt;Node2 -->
<g id="edge13" class="edge">
<title>Node15&#45;&gt;Node2</title>
<path fill="none" stroke="#191970" d="M1557.9912,-299C1723.0777,-299 2036.874,-299 2182.3551,-299"/>
<polygon fill="#191970" stroke="#191970" points="1557.8204,-295.5001 1547.8204,-299 1557.8203,-302.5001 1557.8204,-295.5001"/>
</g>
<!-- Node16 -->
<g id="node12" class="node">
<title>Node16</title>
<g id="a_node12"><a xlink:href="classgko_1_1ConvertibleTo.html" target="_top" xlink:title=" ">
<polygon fill="#ffffff" stroke="#000000" points="948,-315 948,-345 1133,-345 1133,-315 948,-315"/>
<text text-anchor="start" x="956" y="-333" font-family="Helvetica,sans-Serif" font-size="10.00" fill="#000000">gko::ConvertibleTo</text>
<text text-anchor="middle" x="1040.5" y="-322" font-family="Helvetica,sans-Serif" font-size="10.00" fill="#000000">&lt; Coo&lt; ValueType, IndexType &gt; &gt;</text>
</a>
</g>
</g>
<!-- Node16&#45;&gt;Node15 -->
<g id="edge14" class="edge">
<title>Node16&#45;&gt;Node15</title>
<path fill="none" stroke="#191970" d="M1143.3392,-322.2836C1199.4047,-318.0721 1270.0176,-312.7603 1333,-308 1340.3036,-307.448 1347.8603,-306.876 1355.4595,-306.3002"/>
<polygon fill="#191970" stroke="#191970" points="1142.7547,-318.8175 1133.045,-323.0567 1143.2791,-325.7978 1142.7547,-318.8175"/>
</g>
<!-- Node17 -->
<g id="node13" class="node">
<title>Node17</title>
<g id="a_node13"><a xlink:href="classgko_1_1ConvertibleTo.html" target="_top" xlink:title="ConvertibleTo interface is used to mark that the implementer can be converted to the object of Result...">
<polygon fill="#ffffff" stroke="#000000" points="576,-342 576,-372 683,-372 683,-342 576,-342"/>
<text text-anchor="start" x="584" y="-360" font-family="Helvetica,sans-Serif" font-size="10.00" fill="#000000">gko::ConvertibleTo</text>
<text text-anchor="middle" x="629.5" y="-349" font-family="Helvetica,sans-Serif" font-size="10.00" fill="#000000">&lt; ResultType &gt;</text>
</a>
</g>
</g>
<!-- Node17&#45;&gt;Node16 -->
<g id="edge15" class="edge">
<title>Node17&#45;&gt;Node16</title>
<path fill="none" stroke="#ffa500" stroke-dasharray="5,2" d="M693.3946,-352.6566C711.0814,-351.4624 730.2849,-350.1733 748,-349 814.8987,-344.569 890.4112,-339.6665 947.9524,-335.9513"/>
<polygon fill="#ffa500" stroke="#ffa500" points="692.92,-349.1806 683.1789,-353.3471 693.3922,-356.1646 692.92,-349.1806"/>
<text text-anchor="middle" x="834" y="-352" font-family="Helvetica,sans-Serif" font-size="10.00" fill="#000000"> &lt; Coo&lt; ValueType, IndexType &gt; &gt;</text>
</g>
<!-- Node18 -->
<g id="node14" class="node">
<title>Node18</title>
<g id="a_node14"><a xlink:href="classgko_1_1EnablePolymorphicAssignment.html" target="_top" xlink:title="This mixin is used to enable a default PolymorphicObject::copy_from() implementation for objects that...">
<polygon fill="#ffffff" stroke="#000000" points="944.5,-266 944.5,-296 1136.5,-296 1136.5,-266 944.5,-266"/>
<text text-anchor="start" x="952.5" y="-284" font-family="Helvetica,sans-Serif" font-size="10.00" fill="#000000">gko::EnablePolymorphicAssignment</text>
<text text-anchor="middle" x="1040.5" y="-273" font-family="Helvetica,sans-Serif" font-size="10.00" fill="#000000">&lt; ConcreteType, ResultType &gt;</text>
</a>
</g>
</g>
<!-- Node17&#45;&gt;Node18 -->
<g id="edge17" class="edge">
<title>Node17&#45;&gt;Node18</title>
<path fill="none" stroke="#191970" d="M693.3687,-344.4523C711.0554,-341.0187 730.2653,-337.3277 748,-334 817.9977,-320.8658 897.5262,-306.4908 955.9696,-296.0293"/>
<polygon fill="#191970" stroke="#191970" points="692.3014,-341.0942 683.1538,-346.4394 693.6382,-347.9654 692.3014,-341.0942"/>
</g>
<!-- Node23 -->
<g id="node19" class="node">
<title>Node23</title>
<g id="a_node19"><a xlink:href="classgko_1_1ConvertibleTo.html" target="_top" xlink:title=" ">
<polygon fill="#ffffff" stroke="#000000" points="985.5,-217 985.5,-247 1095.5,-247 1095.5,-217 985.5,-217"/>
<text text-anchor="start" x="993.5" y="-235" font-family="Helvetica,sans-Serif" font-size="10.00" fill="#000000">gko::ConvertibleTo</text>
<text text-anchor="middle" x="1040.5" y="-224" font-family="Helvetica,sans-Serif" font-size="10.00" fill="#000000">&lt; ConcreteLinOp &gt;</text>
</a>
</g>
</g>
<!-- Node17&#45;&gt;Node23 -->
<g id="edge26" class="edge">
<title>Node17&#45;&gt;Node23</title>
<path fill="none" stroke="#ffa500" stroke-dasharray="5,2" d="M658.5804,-336.2942C681.7526,-320.7513 715.5779,-300.1381 748,-288 827.5322,-258.2249 925.4168,-243.6047 985.3643,-236.9497"/>
<polygon fill="#ffa500" stroke="#ffa500" points="656.5381,-333.4505 650.2462,-341.9747 660.4806,-339.2347 656.5381,-333.4505"/>
<text text-anchor="middle" x="834" y="-291" font-family="Helvetica,sans-Serif" font-size="10.00" fill="#000000"> &lt; ConcreteLinOp &gt;</text>
</g>
<!-- Node26 -->
<g id="node22" class="node">
<title>Node26</title>
<g id="a_node22"><a xlink:href="classgko_1_1ConvertibleTo.html" target="_top" xlink:title=" ">
<polygon fill="#ffffff" stroke="#000000" points="1163.5,-437.5 1163.5,-478.5 1330.5,-478.5 1330.5,-437.5 1163.5,-437.5"/>
<text text-anchor="start" x="1171.5" y="-466.5" font-family="Helvetica,sans-Serif" font-size="10.00" fill="#000000">gko::ConvertibleTo</text>
<text text-anchor="start" x="1171.5" y="-455.5" font-family="Helvetica,sans-Serif" font-size="10.00" fill="#000000">&lt; Coo&lt; next_precision</text>
<text text-anchor="middle" x="1247" y="-444.5" font-family="Helvetica,sans-Serif" font-size="10.00" fill="#000000">&lt; ValueType &gt;, IndexType &gt; &gt;</text>
</a>
</g>
</g>
<!-- Node17&#45;&gt;Node26 -->
<g id="edge31" class="edge">
<title>Node17&#45;&gt;Node26</title>
<path fill="none" stroke="#ffa500" stroke-dasharray="5,2" d="M654.18,-378.6979C676.8392,-397.1579 712.2321,-422.458 748,-434 888.3197,-479.28 1062.3258,-475.006 1163.4005,-467.0244"/>
<polygon fill="#ffa500" stroke="#ffa500" points="656.3549,-375.9544 646.4308,-372.2445 651.8753,-381.3334 656.3549,-375.9544"/>
<text text-anchor="start" x="758.5" y="-480" font-family="Helvetica,sans-Serif" font-size="10.00" fill="#000000"> &lt; Coo&lt; next_precision</text>
<text text-anchor="middle" x="834" y="-469" font-family="Helvetica,sans-Serif" font-size="10.00" fill="#000000">&lt; ValueType &gt;, IndexType &gt; &gt;</text>
</g>
<!-- Node27 -->
<g id="node23" class="node">
<title>Node27</title>
<g id="a_node23"><a xlink:href="classgko_1_1ConvertibleTo.html" target="_top" xlink:title=" ">
<polygon fill="#ffffff" stroke="#000000" points="1570,-405 1570,-435 1752,-435 1752,-405 1570,-405"/>
<text text-anchor="start" x="1578" y="-423" font-family="Helvetica,sans-Serif" font-size="10.00" fill="#000000">gko::ConvertibleTo</text>
<text text-anchor="middle" x="1661" y="-412" font-family="Helvetica,sans-Serif" font-size="10.00" fill="#000000">&lt; Csr&lt; ValueType, IndexType &gt; &gt;</text>
</a>
</g>
</g>
<!-- Node17&#45;&gt;Node27 -->
<g id="edge33" class="edge">
<title>Node17&#45;&gt;Node27</title>
<path fill="none" stroke="#ffa500" stroke-dasharray="5,2" d="M686.955,-374.7564C706.1772,-379.9632 727.8429,-385.0472 748,-388 1046.166,-431.6773 1404.6609,-428.1481 1569.6915,-423.4252"/>
<polygon fill="#ffa500" stroke="#ffa500" points="687.7185,-371.3361 677.1466,-372.0331 685.8457,-378.0809 687.7185,-371.3361"/>
<text text-anchor="middle" x="1040.5" y="-424" font-family="Helvetica,sans-Serif" font-size="10.00" fill="#000000"> &lt; Csr&lt; ValueType, IndexType &gt; &gt;</text>
</g>
<!-- Node28 -->
<g id="node24" class="node">
<title>Node28</title>
<g id="a_node24"><a xlink:href="classgko_1_1ConvertibleTo.html" target="_top" xlink:title=" ">
<polygon fill="#ffffff" stroke="#000000" points="1982,-351 1982,-381 2124,-381 2124,-351 1982,-351"/>
<text text-anchor="start" x="1990" y="-369" font-family="Helvetica,sans-Serif" font-size="10.00" fill="#000000">gko::ConvertibleTo</text>
<text text-anchor="middle" x="2053" y="-358" font-family="Helvetica,sans-Serif" font-size="10.00" fill="#000000">&lt; Dense&lt; ValueType &gt; &gt;</text>
</a>
</g>
</g>
<!-- Node17&#45;&gt;Node28 -->
<g id="edge35" class="edge">
<title>Node17&#45;&gt;Node28</title>
<path fill="none" stroke="#ffa500" stroke-dasharray="5,2" d="M693.0063,-361.2567C773.7291,-366.2922 917.3963,-374 1040.5,-374 1040.5,-374 1040.5,-374 1661,-374 1773.1449,-374 1903.2988,-370.6867 1981.8359,-368.3247"/>
<polygon fill="#ffa500" stroke="#ffa500" points="693.2012,-357.7621 683.0008,-360.6261 692.7608,-364.7483 693.2012,-357.7621"/>
<text text-anchor="middle" x="1247" y="-377" font-family="Helvetica,sans-Serif" font-size="10.00" fill="#000000"> &lt; Dense&lt; ValueType &gt; &gt;</text>
</g>
<!-- Node18&#45;&gt;Node15 -->
<g id="edge16" class="edge">
<title>Node18&#45;&gt;Node15</title>
<path fill="none" stroke="#ffa500" stroke-dasharray="5,2" d="M1146.7889,-285.655C1211.2129,-288.4765 1292.7527,-292.0476 1355.2683,-294.7855"/>
<polygon fill="#ffa500" stroke="#ffa500" points="1146.7454,-282.1498 1136.6018,-285.2088 1146.439,-289.1431 1146.7454,-282.1498"/>
<text text-anchor="middle" x="1247" y="-296" font-family="Helvetica,sans-Serif" font-size="10.00" fill="#000000"> &lt; Coo&lt; ValueType, IndexType &gt; &gt;</text>
</g>
<!-- Node22 -->
<g id="node18" class="node">
<title>Node22</title>
<g id="a_node18"><a xlink:href="classgko_1_1EnablePolymorphicAssignment.html" target="_top" xlink:title=" ">
<polygon fill="#ffffff" stroke="#000000" points="1355.5,-229 1355.5,-259 1547.5,-259 1547.5,-229 1355.5,-229"/>
<text text-anchor="start" x="1363.5" y="-247" font-family="Helvetica,sans-Serif" font-size="10.00" fill="#000000">gko::EnablePolymorphicAssignment</text>
<text text-anchor="middle" x="1451.5" y="-236" font-family="Helvetica,sans-Serif" font-size="10.00" fill="#000000">&lt; ConcreteLinOp &gt;</text>
</a>
</g>
</g>
<!-- Node18&#45;&gt;Node22 -->
<g id="edge27" class="edge">
<title>Node18&#45;&gt;Node22</title>
<path fill="none" stroke="#ffa500" stroke-dasharray="5,2" d="M1146.7889,-271.4314C1211.2129,-265.6317 1292.7527,-258.2911 1355.2683,-252.6632"/>
<polygon fill="#ffa500" stroke="#ffa500" points="1146.2477,-267.9659 1136.6018,-272.3485 1146.8753,-274.9377 1146.2477,-267.9659"/>
<text text-anchor="middle" x="1247" y="-273" font-family="Helvetica,sans-Serif" font-size="10.00" fill="#000000"> &lt; ConcreteLinOp &gt;</text>
</g>
<!-- Node19 -->
<g id="node15" class="node">
<title>Node19</title>
<g id="a_node15"><a xlink:href="classgko_1_1EnableLinOp.html" target="_top" xlink:title="The EnableLinOp mixin can be used to provide sensible default implementations of the majority of the ...">
<polygon fill="#ffffff" stroke="#000000" points="1781.5,-229 1781.5,-259 1937.5,-259 1937.5,-229 1781.5,-229"/>
<text text-anchor="start" x="1789.5" y="-247" font-family="Helvetica,sans-Serif" font-size="10.00" fill="#000000">gko::EnableLinOp&lt; Concrete</text>
<text text-anchor="middle" x="1859.5" y="-236" font-family="Helvetica,sans-Serif" font-size="10.00" fill="#000000">LinOp, PolymorphicBase &gt;</text>
</a>
</g>
</g>
<!-- Node19&#45;&gt;Node2 -->
<g id="edge18" class="edge">
<title>Node19&#45;&gt;Node2</title>
<path fill="none" stroke="#ffa500" stroke-dasharray="5,2" d="M1947.8644,-251.2784C2002.9988,-256.3652 2075.3401,-264.0311 2139,-274 2156.5897,-276.7545 2175.4928,-280.3508 2193.0087,-283.9535"/>
<polygon fill="#ffa500" stroke="#ffa500" points="1948.0523,-247.7811 1937.7758,-250.3586 1947.4167,-254.7522 1948.0523,-247.7811"/>
<text text-anchor="middle" x="2053" y="-277" font-family="Helvetica,sans-Serif" font-size="10.00" fill="#000000"> &lt; Coo&lt; ValueType, IndexType &gt; &gt;</text>
</g>
<!-- Node20&#45;&gt;Node19 -->
<g id="edge19" class="edge">
<title>Node20&#45;&gt;Node19</title>
<path fill="none" stroke="#191970" d="M1562.1905,-203.1928C1631.5728,-212.7159 1719.31,-224.7582 1781.4424,-233.2862"/>
<polygon fill="#191970" stroke="#191970" points="1562.4752,-199.6992 1552.0922,-201.8068 1561.5233,-206.6341 1562.4752,-199.6992"/>
</g>
<!-- Node21&#45;&gt;Node20 -->
<g id="edge20" class="edge">
<title>Node21&#45;&gt;Node20</title>
<path fill="none" stroke="#191970" d="M738.5994,-188C898.8583,-188 1195.6624,-188 1350.9174,-188"/>
<polygon fill="#191970" stroke="#191970" points="738.2439,-184.5001 728.2438,-188 738.2438,-191.5001 738.2439,-184.5001"/>
</g>
<!-- Node22&#45;&gt;Node19 -->
<g id="edge24" class="edge">
<title>Node22&#45;&gt;Node19</title>
<path fill="none" stroke="#191970" d="M1557.8523,-244C1627.8665,-244 1717.9635,-244 1781.3958,-244"/>
<polygon fill="#191970" stroke="#191970" points="1557.6737,-240.5001 1547.6737,-244 1557.6736,-247.5001 1557.6737,-240.5001"/>
</g>
<!-- Node23&#45;&gt;Node22 -->
<g id="edge25" class="edge">
<title>Node23&#45;&gt;Node22</title>
<path fill="none" stroke="#191970" d="M1105.5331,-233.8988C1172.6921,-235.8596 1278.2366,-238.9412 1355.1012,-241.1854"/>
<polygon fill="#191970" stroke="#191970" points="1105.6007,-230.3994 1095.5028,-233.6059 1105.3964,-237.3964 1105.6007,-230.3994"/>
</g>
<!-- Node24 -->
<g id="node20" class="node">
<title>Node24</title>
<g id="a_node20"><a xlink:href="classgko_1_1EnableCreateMethod.html" target="_top" xlink:title=" ">
<polygon fill="#ffffff" stroke="#000000" points="2167.5,-235 2167.5,-265 2352.5,-265 2352.5,-235 2167.5,-235"/>
<text text-anchor="start" x="2175.5" y="-253" font-family="Helvetica,sans-Serif" font-size="10.00" fill="#000000">gko::EnableCreateMethod</text>
<text text-anchor="middle" x="2260" y="-242" font-family="Helvetica,sans-Serif" font-size="10.00" fill="#000000">&lt; Coo&lt; ValueType, IndexType &gt; &gt;</text>
</a>
</g>
</g>
<!-- Node24&#45;&gt;Node1 -->
<g id="edge28" class="edge">
<title>Node24&#45;&gt;Node1</title>
<path fill="none" stroke="#191970" d="M2362.8967,-250C2375.261,-250 2387.7493,-250 2399.7357,-250"/>
<polygon fill="#191970" stroke="#191970" points="2362.5535,-246.5001 2352.5534,-250 2362.5534,-253.5001 2362.5535,-246.5001"/>
</g>
<!-- Node25 -->
<g id="node21" class="node">
<title>Node25</title>
<g id="a_node21"><a xlink:href="classgko_1_1EnableCreateMethod.html" target="_top" xlink:title="This mixin implements a static create() method on ConcreteType that dynamically allocates the memory,...">
<polygon fill="#ffffff" stroke="#000000" points="1788.5,-102 1788.5,-132 1930.5,-132 1930.5,-102 1788.5,-102"/>
<text text-anchor="start" x="1796.5" y="-120" font-family="Helvetica,sans-Serif" font-size="10.00" fill="#000000">gko::EnableCreateMethod</text>
<text text-anchor="middle" x="1859.5" y="-109" font-family="Helvetica,sans-Serif" font-size="10.00" fill="#000000">&lt; ConcreteType &gt;</text>
</a>
</g>
</g>
<!-- Node25&#45;&gt;Node24 -->
<g id="edge29" class="edge">
<title>Node25&#45;&gt;Node24</title>
<path fill="none" stroke="#ffa500" stroke-dasharray="5,2" d="M1940.7876,-111.5065C2002.3287,-111.8198 2085.1804,-122.4528 2139,-170 2158.5923,-187.3089 2137.7713,-208.2881 2157,-226 2160.6463,-229.3587 2164.6692,-232.2759 2168.9487,-234.8073"/>
<polygon fill="#ffa500" stroke="#ffa500" points="1940.7027,-108.0067 1930.7164,-111.5456 1940.7299,-115.0067 1940.7027,-108.0067"/>
<text text-anchor="middle" x="2053" y="-173" font-family="Helvetica,sans-Serif" font-size="10.00" fill="#000000"> &lt; Coo&lt; ValueType, IndexType &gt; &gt;</text>
</g>
<!-- Node26&#45;&gt;Node1 -->
<g id="edge30" class="edge">
<title>Node26&#45;&gt;Node1</title>
<path fill="none" stroke="#191970" d="M1340.673,-458C1424.5832,-458 1551.0102,-458 1661,-458 1661,-458 1661,-458 2260,-458 2372.3559,-458 2450.67,-313.3298 2473.5761,-265.2947"/>
<polygon fill="#191970" stroke="#191970" points="1340.6548,-454.5001 1330.6548,-458 1340.6548,-461.5001 1340.6548,-454.5001"/>
</g>
<!-- Node27&#45;&gt;Node1 -->
<g id="edge32" class="edge">
<title>Node27&#45;&gt;Node1</title>
<path fill="none" stroke="#191970" d="M1762.0858,-432.1154C1903.8535,-444.551 2166.3938,-450.6774 2363,-357 2409.0785,-335.0449 2449.9214,-288.9429 2469.0322,-265.0595"/>
<polygon fill="#191970" stroke="#191970" points="1762.3647,-428.6264 1752.0898,-431.2104 1761.7334,-435.5979 1762.3647,-428.6264"/>
</g>
<!-- Node28&#45;&gt;Node1 -->
<g id="edge34" class="edge">
<title>Node28&#45;&gt;Node1</title>
<path fill="none" stroke="#191970" d="M2134.3132,-364.3885C2198.1912,-360.9135 2288.4977,-351.0561 2363,-324 2401.295,-310.0928 2440.2359,-282.2978 2462.2807,-265.0121"/>
<polygon fill="#191970" stroke="#191970" points="2134.1058,-360.8944 2124.2946,-364.8931 2134.458,-367.8856 2134.1058,-360.8944"/>
</g>
<!-- Node29 -->
<g id="node25" class="node">
<title>Node29</title>
<g id="a_node25"><a xlink:href="classgko_1_1DiagonalExtractable.html" target="_top" xlink:title="The diagonal of a LinOp implementing this interface can be extracted.">
<polygon fill="#ffffff" stroke="#000000" points="2190,-186 2190,-216 2330,-216 2330,-186 2190,-186"/>
<text text-anchor="start" x="2198" y="-204" font-family="Helvetica,sans-Serif" font-size="10.00" fill="#000000">gko::DiagonalExtractable</text>
<text text-anchor="middle" x="2260" y="-193" font-family="Helvetica,sans-Serif" font-size="10.00" fill="#000000">&lt; ValueType &gt;</text>
</a>
</g>
</g>
<!-- Node29&#45;&gt;Node1 -->
<g id="edge36" class="edge">
<title>Node29&#45;&gt;Node1</title>
<path fill="none" stroke="#191970" d="M2337.6615,-218.2581C2362.2308,-223.718 2389.1725,-229.705 2412.9722,-234.9938"/>
<polygon fill="#191970" stroke="#191970" points="2338.1769,-214.7873 2327.6558,-216.0346 2336.6584,-221.6207 2338.1769,-214.7873"/>
</g>
<!-- Node30 -->
<g id="node26" class="node">
<title>Node30</title>
<g id="a_node26"><a xlink:href="classgko_1_1ReadableFromMatrixData.html" target="_top" xlink:title="A LinOp implementing this interface can read its data from a matrix_data structure.">
<polygon fill="#ffffff" stroke="#000000" points="2178,-137 2178,-167 2342,-167 2342,-137 2178,-137"/>
<text text-anchor="start" x="2186" y="-155" font-family="Helvetica,sans-Serif" font-size="10.00" fill="#000000">gko::ReadableFromMatrixData</text>
<text text-anchor="middle" x="2260" y="-144" font-family="Helvetica,sans-Serif" font-size="10.00" fill="#000000">&lt; ValueType, IndexType &gt;</text>
</a>
</g>
</g>
<!-- Node30&#45;&gt;Node1 -->
<g id="edge37" class="edge">
<title>Node30&#45;&gt;Node1</title>
<path fill="none" stroke="#191970" d="M2343.9568,-169.9905C2350.4825,-172.1102 2356.9001,-174.4424 2363,-177 2399.7652,-192.4149 2438.2559,-218.533 2460.7756,-234.9921"/>
<polygon fill="#191970" stroke="#191970" points="2344.9297,-166.628 2334.3427,-167.0354 2342.873,-173.319 2344.9297,-166.628"/>
</g>
<!-- Node31 -->
<g id="node27" class="node">
<title>Node31</title>
<g id="a_node27"><a xlink:href="classgko_1_1WritableToMatrixData.html" target="_top" xlink:title="A LinOp implementing this interface can write its data to a matrix_data structure.">
<polygon fill="#ffffff" stroke="#000000" points="2187,-88 2187,-118 2333,-118 2333,-88 2187,-88"/>
<text text-anchor="start" x="2195" y="-106" font-family="Helvetica,sans-Serif" font-size="10.00" fill="#000000">gko::WritableToMatrixData</text>
<text text-anchor="middle" x="2260" y="-95" font-family="Helvetica,sans-Serif" font-size="10.00" fill="#000000">&lt; ValueType, IndexType &gt;</text>
</a>
</g>
</g>
<!-- Node31&#45;&gt;Node1 -->
<g id="edge38" class="edge">
<title>Node31&#45;&gt;Node1</title>
<path fill="none" stroke="#191970" d="M2342.8584,-118.6272C2349.8752,-121.2791 2356.6915,-124.3783 2363,-128 2411.2003,-155.6713 2452.2743,-208.9814 2470.4724,-234.9905"/>
<polygon fill="#191970" stroke="#191970" points="2343.7894,-115.2457 2333.1947,-115.2813 2341.4991,-121.8605 2343.7894,-115.2457"/>
</g>
<!-- Node32 -->
<g id="node28" class="node">
<title>Node32</title>
<g id="a_node28"><a xlink:href="classgko_1_1EnableAbsoluteComputation.html" target="_top" xlink:title=" ">
<polygon fill="#ffffff" stroke="#000000" points="2157,-27.5 2157,-68.5 2363,-68.5 2363,-27.5 2157,-27.5"/>
<text text-anchor="start" x="2165" y="-56.5" font-family="Helvetica,sans-Serif" font-size="10.00" fill="#000000">gko::EnableAbsoluteComputation</text>
<text text-anchor="start" x="2165" y="-45.5" font-family="Helvetica,sans-Serif" font-size="10.00" fill="#000000">&lt; remove_complex&lt; Coo&lt; ValueType,</text>
<text text-anchor="middle" x="2260" y="-34.5" font-family="Helvetica,sans-Serif" font-size="10.00" fill="#000000"> IndexType &gt; &gt; &gt;</text>
</a>
</g>
</g>
<!-- Node32&#45;&gt;Node1 -->
<g id="edge39" class="edge">
<title>Node32&#45;&gt;Node1</title>
<path fill="none" stroke="#191970" d="M2354.5041,-73.423C2357.4426,-75.1618 2360.285,-77.0182 2363,-79 2421.0423,-121.3686 2459.9784,-201.5507 2474.3378,-234.8798"/>
<polygon fill="#191970" stroke="#191970" points="2355.8978,-70.1987 2345.4317,-68.5515 2352.5862,-76.3659 2355.8978,-70.1987"/>
</g>
<!-- Node33 -->
<g id="node29" class="node">
<title>Node33</title>
<g id="a_node29"><a xlink:href="classgko_1_1AbsoluteComputable.html" target="_top" xlink:title="The AbsoluteComputable is an interface that allows to get the component wise absolute of a LinOp.">
<polygon fill="#ffffff" stroke="#000000" points="1380,-.5 1380,-19.5 1523,-19.5 1523,-.5 1380,-.5"/>
<text text-anchor="middle" x="1451.5" y="-7.5" font-family="Helvetica,sans-Serif" font-size="10.00" fill="#000000">gko::AbsoluteComputable</text>
</a>
</g>
</g>
<!-- Node33&#45;&gt;Node32 -->
<g id="edge40" class="edge">
<title>Node33&#45;&gt;Node32</title>
<path fill="none" stroke="#191970" d="M1533.4137,-11.3738C1632.0531,-13.2814 1802.7303,-17.3899 1949,-25 2018.3414,-28.6077 2096.26,-34.3731 2156.7587,-39.2289"/>
<polygon fill="#191970" stroke="#191970" points="1533.2812,-7.8707 1523.2163,-11.1795 1533.1478,-14.8694 1533.2812,-7.8707"/>
</g>
<!-- Node34 -->
<g id="node30" class="node">
<title>Node34</title>
<g id="a_node30"><a xlink:href="classgko_1_1EnableAbsoluteComputation.html" target="_top" xlink:title="The EnableAbsoluteComputation mixin provides the default implementations of compute_absolute_linop an...">
<polygon fill="#ffffff" stroke="#000000" points="1770,-35 1770,-65 1949,-65 1949,-35 1770,-35"/>
<text text-anchor="start" x="1778" y="-53" font-family="Helvetica,sans-Serif" font-size="10.00" fill="#000000">gko::EnableAbsoluteComputation</text>
<text text-anchor="middle" x="1859.5" y="-42" font-family="Helvetica,sans-Serif" font-size="10.00" fill="#000000">&lt; AbsoluteLinOp &gt;</text>
</a>
</g>
</g>
<!-- Node33&#45;&gt;Node34 -->
<g id="edge42" class="edge">
<title>Node33&#45;&gt;Node34</title>
<path fill="none" stroke="#191970" d="M1533.3399,-18.0235C1601.7931,-24.7346 1699.2967,-34.2938 1769.8478,-41.2106"/>
<polygon fill="#191970" stroke="#191970" points="1533.3289,-14.5057 1523.0351,-17.0132 1532.6458,-21.4723 1533.3289,-14.5057"/>
</g>
<!-- Node34&#45;&gt;Node32 -->
<g id="edge41" class="edge">
<title>Node34&#45;&gt;Node32</title>
<path fill="none" stroke="#ffa500" stroke-dasharray="5,2" d="M1959.658,-49.4998C2019.8543,-49.1992 2096.2947,-48.8175 2156.9934,-48.5144"/>
<polygon fill="#ffa500" stroke="#ffa500" points="1959.3624,-46.0012 1949.38,-49.5512 1959.3974,-53.0011 1959.3624,-46.0012"/>
<text text-anchor="start" x="1977.5" y="-64" font-family="Helvetica,sans-Serif" font-size="10.00" fill="#000000"> &lt; remove_complex&lt; Coo</text>
<text text-anchor="middle" x="2053" y="-53" font-family="Helvetica,sans-Serif" font-size="10.00" fill="#000000">&lt; ValueType, IndexType &gt; &gt; &gt;</text>
</g>
</g>
</svg>
        <g id="navigator" transform="translate(0 0)" fill="#404254">
                <rect fill="#f2f5e9" fill-opacity="0.5" stroke="#606060" stroke-width=".5" x="0" y="0" width="60" height="60"/>
                <use id="zoomplus" xlink:href="#zoomPlus" x="17" y="9" onmousedown="handleZoom(evt,'in')"/>
                <use id="zoomminus" xlink:href="#zoomMin" x="42" y="9" onmousedown="handleZoom(evt,'out')"/>
                <use id="reset" xlink:href="#resetDef" x="30" y="36" onmousedown="handleReset()"/>
                <g id="arrowUp" xlink:href="#dirArrow" transform="translate(30 24)" onmousedown="handlePan(0,-1)">
                  <use xlink:href="#rim" fill="#404040">
                        <set attributeName="fill" to="#808080" begin="arrowUp.mouseover" end="arrowUp.mouseout"/>
                  </use>
                  <path fill="none" stroke="white" stroke-width="1.5" d="M0,-3.0v7 M-2.5,-0.5L0,-3.0L2.5,-0.5"/>
                </g>
                <g id="arrowRight" xlink:href="#dirArrow" transform="rotate(90) translate(36 -43)" onmousedown="handlePan(1,0)">
                  <use xlink:href="#rim" fill="#404040">
                        <set attributeName="fill" to="#808080" begin="arrowRight.mouseover" end="arrowRight.mouseout"/>
                  </use>
                  <path fill="none" stroke="white" stroke-width="1.5" d="M0,-3.0v7 M-2.5,-0.5L0,-3.0L2.5,-0.5"/>
                </g>
                <g id="arrowDown" xlink:href="#dirArrow" transform="rotate(180) translate(-30 -48)" onmousedown="handlePan(0,1)">
                  <use xlink:href="#rim" fill="#404040">
                        <set attributeName="fill" to="#808080" begin="arrowDown.mouseover" end="arrowDown.mouseout"/>
                  </use>
                  <path fill="none" stroke="white" stroke-width="1.5" d="M0,-3.0v7 M-2.5,-0.5L0,-3.0L2.5,-0.5"/>
                </g>
                <g id="arrowLeft" xlink:href="#dirArrow" transform="rotate(270) translate(-36 17)" onmousedown="handlePan(-1,0)">
                  <use xlink:href="#rim" fill="#404040">
                        <set attributeName="fill" to="#808080" begin="arrowLeft.mouseover" end="arrowLeft.mouseout"/>
                  </use>
                  <path fill="none" stroke="white" stroke-width="1.5" d="M0,-3.0v7 M-2.5,-0.5L0,-3.0L2.5,-0.5"/>
                </g>
        </g>
        <svg viewBox="0 0 15 15" width="100%" height="30px" preserveAspectRatio="xMaxYMin meet">
         <g id="arrow_out" transform="scale(0.3 0.3)">
          <a xlink:href="classgko_1_1matrix_1_1Coo__coll__graph_org.svg" target="_base">
           <rect id="button" ry="5" rx="5" y="6" x="6" height="38" width="38"
                fill="#f2f5e9" fill-opacity="0.5" stroke="#606060" stroke-width="1.0"/>
           <path id="arrow"
             d="M 11.500037,31.436501 C 11.940474,20.09759 22.043105,11.32322 32.158766,21.979434 L 37.068811,17.246167 C 37.068811,17.246167 37.088388,32 37.088388,32 L 22.160133,31.978069 C 22.160133,31.978069 26.997745,27.140456 26.997745,27.140456 C 18.528582,18.264221 13.291696,25.230495 11.500037,31.436501 z"
             style="fill:#404040;"/>
          </a>
         </g>
        </svg>
</svg>
