<?xml version="1.0" encoding="UTF-8" standalone="no"?>
<!DOCTYPE svg PUBLIC "-//W3C//DTD SVG 1.1//EN"
 "http://www.w3.org/Graphics/SVG/1.1/DTD/svg11.dtd">
<!-- Generated by graphviz version 2.40.1 (20161225.0304)
 -->
<!-- Title: gko::solver::Bicg&lt; ValueType &gt; Pages: 1 -->
<svg width="2119pt" height="348pt"
 viewBox="0.00 0.00 2119.00 348.00" xmlns="http://www.w3.org/2000/svg" xmlns:xlink="http://www.w3.org/1999/xlink">
<g id="graph0" class="graph" transform="scale(1 1) rotate(0) translate(4 344)">
<title>gko::solver::Bicg&lt; ValueType &gt;</title>
<polygon fill="#ffffff" stroke="transparent" points="-4,4 -4,-344 2115,-344 2115,4 -4,4"/>
<!-- Node1 -->
<g id="node1" class="node">
<title>Node1</title>
<g id="a_node1"><a xlink:title="BICG or the Biconjugate gradient method is a Krylov subspace solver.">
<polygon fill="#bfbfbf" stroke="#000000" points="2005,-90.5 2005,-120.5 2111,-120.5 2111,-90.5 2005,-90.5"/>
<text text-anchor="start" x="2013" y="-108.5" font-family="Helvetica,sans-Serif" font-size="10.00" fill="#000000">gko::solver::Bicg&lt;</text>
<text text-anchor="middle" x="2058" y="-97.5" font-family="Helvetica,sans-Serif" font-size="10.00" fill="#000000"> ValueType &gt;</text>
</a>
</g>
</g>
<!-- Node2 -->
<g id="node2" class="node">
<title>Node2</title>
<g id="a_node2"><a xlink:href="classgko_1_1EnableLinOp.html" target="_top" xlink:title=" ">
<polygon fill="#ffffff" stroke="#000000" points="1834,-122.5 1834,-152.5 1968,-152.5 1968,-122.5 1834,-122.5"/>
<text text-anchor="start" x="1842" y="-140.5" font-family="Helvetica,sans-Serif" font-size="10.00" fill="#000000">gko::EnableLinOp&lt; Bicg</text>
<text text-anchor="middle" x="1901" y="-129.5" font-family="Helvetica,sans-Serif" font-size="10.00" fill="#000000">&lt; ValueType &gt; &gt;</text>
</a>
</g>
</g>
<!-- Node2&#45;&gt;Node1 -->
<g id="edge1" class="edge">
<title>Node2&#45;&gt;Node1</title>
<path fill="none" stroke="#191970" d="M1977.9251,-121.821C1987.0691,-119.9572 1996.2417,-118.0877 2004.9462,-116.3135"/>
<polygon fill="#191970" stroke="#191970" points="1977.137,-118.4096 1968.0375,-123.8363 1978.5351,-125.2686 1977.137,-118.4096"/>
</g>
<!-- Node3 -->
<g id="node3" class="node">
<title>Node3</title>
<g id="a_node3"><a xlink:href="classgko_1_1EnablePolymorphicObject.html" target="_top" xlink:title=" ">
<polygon fill="#ffffff" stroke="#000000" points="1513,-212.5 1513,-242.5 1679,-242.5 1679,-212.5 1513,-212.5"/>
<text text-anchor="start" x="1521" y="-230.5" font-family="Helvetica,sans-Serif" font-size="10.00" fill="#000000">gko::EnablePolymorphicObject</text>
<text text-anchor="middle" x="1596" y="-219.5" font-family="Helvetica,sans-Serif" font-size="10.00" fill="#000000">&lt; Bicg&lt; ValueType &gt;, LinOp &gt;</text>
</a>
</g>
</g>
<!-- Node3&#45;&gt;Node2 -->
<g id="edge2" class="edge">
<title>Node3&#45;&gt;Node2</title>
<path fill="none" stroke="#191970" d="M1656.945,-209.5162C1713.5512,-192.8128 1796.8787,-168.2243 1850.0378,-152.538"/>
<polygon fill="#191970" stroke="#191970" points="1655.6507,-206.2489 1647.0501,-212.436 1657.6319,-212.9627 1655.6507,-206.2489"/>
</g>
<!-- Node4 -->
<g id="node4" class="node">
<title>Node4</title>
<g id="a_node4"><a xlink:href="classgko_1_1EnableAbstractPolymorphicObject.html" target="_top" xlink:title=" ">
<polygon fill="#ffffff" stroke="#000000" points="1288,-268 1288,-309 1463,-309 1463,-268 1288,-268"/>
<text text-anchor="start" x="1296" y="-297" font-family="Helvetica,sans-Serif" font-size="10.00" fill="#000000">gko::EnableAbstractPolymorphic</text>
<text text-anchor="start" x="1296" y="-286" font-family="Helvetica,sans-Serif" font-size="10.00" fill="#000000">Object&lt; Bicg&lt; ValueType &gt;</text>
<text text-anchor="middle" x="1375.5" y="-275" font-family="Helvetica,sans-Serif" font-size="10.00" fill="#000000">, LinOp &gt;</text>
</a>
</g>
</g>
<!-- Node4&#45;&gt;Node3 -->
<g id="edge3" class="edge">
<title>Node4&#45;&gt;Node3</title>
<path fill="none" stroke="#191970" d="M1459.8191,-265.1736C1487.2095,-257.5962 1516.8637,-249.3926 1541.4855,-242.5811"/>
<polygon fill="#191970" stroke="#191970" points="1458.5486,-261.8936 1449.8438,-267.9332 1460.4151,-268.6402 1458.5486,-261.8936"/>
</g>
<!-- Node5 -->
<g id="node5" class="node">
<title>Node5</title>
<g id="a_node5"><a xlink:href="classgko_1_1LinOp.html" target="_top" xlink:title=" ">
<polygon fill="#ffffff" stroke="#000000" points="949.5,-312 949.5,-331 1017.5,-331 1017.5,-312 949.5,-312"/>
<text text-anchor="middle" x="983.5" y="-319" font-family="Helvetica,sans-Serif" font-size="10.00" fill="#000000">gko::LinOp</text>
</a>
</g>
</g>
<!-- Node5&#45;&gt;Node4 -->
<g id="edge4" class="edge">
<title>Node5&#45;&gt;Node4</title>
<path fill="none" stroke="#191970" d="M1027.5774,-317.7894C1090.3955,-312.5011 1206.9999,-302.685 1287.805,-295.8825"/>
<polygon fill="#191970" stroke="#191970" points="1027.2728,-314.3026 1017.6017,-318.6292 1027.8601,-321.2779 1027.2728,-314.3026"/>
</g>
<!-- Node6 -->
<g id="node6" class="node">
<title>Node6</title>
<g id="a_node6"><a xlink:href="classgko_1_1EnableAbstractPolymorphicObject.html" target="_top" xlink:title=" ">
<polygon fill="#ffffff" stroke="#ff0000" points="538,-309.5 538,-339.5 713,-339.5 713,-309.5 538,-309.5"/>
<text text-anchor="start" x="546" y="-327.5" font-family="Helvetica,sans-Serif" font-size="10.00" fill="#000000">gko::EnableAbstractPolymorphic</text>
<text text-anchor="middle" x="625.5" y="-316.5" font-family="Helvetica,sans-Serif" font-size="10.00" fill="#000000">Object&lt; LinOp &gt;</text>
</a>
</g>
</g>
<!-- Node6&#45;&gt;Node5 -->
<g id="edge5" class="edge">
<title>Node6&#45;&gt;Node5</title>
<path fill="none" stroke="#191970" d="M723.518,-323.6786C798.7046,-323.0486 898.0446,-322.2161 949.4368,-321.7854"/>
<polygon fill="#191970" stroke="#191970" points="723.0469,-320.1823 713.0767,-323.7661 723.1057,-327.1821 723.0469,-320.1823"/>
</g>
<!-- Node11 -->
<g id="node7" class="node">
<title>Node11</title>
<g id="a_node7"><a xlink:href="classgko_1_1EnableAbstractPolymorphicObject.html" target="_top" xlink:title="This mixin inherits from (a subclass of) PolymorphicObject and provides a base implementation of a ne...">
<polygon fill="#ffffff" stroke="#000000" points="138,-223 138,-264 332,-264 332,-223 138,-223"/>
<text text-anchor="start" x="146" y="-252" font-family="Helvetica,sans-Serif" font-size="10.00" fill="#000000">gko::EnableAbstractPolymorphic</text>
<text text-anchor="start" x="146" y="-241" font-family="Helvetica,sans-Serif" font-size="10.00" fill="#000000">Object&lt; AbstactObject, Polymorphic</text>
<text text-anchor="middle" x="235" y="-230" font-family="Helvetica,sans-Serif" font-size="10.00" fill="#000000">Base &gt;</text>
</a>
</g>
</g>
<!-- Node11&#45;&gt;Node4 -->
<g id="edge8" class="edge">
<title>Node11&#45;&gt;Node4</title>
<path fill="none" stroke="#ffa500" stroke-dasharray="5,2" d="M342.2539,-261.7078C344.8589,-261.9926 347.444,-262.2576 350,-262.5 695.9567,-295.3056 1110.3062,-293.2068 1287.8027,-290.3537"/>
<polygon fill="#ffa500" stroke="#ffa500" points="342.4667,-258.2088 332.1264,-260.517 341.6493,-265.1609 342.4667,-258.2088"/>
<text text-anchor="start" x="749.5" y="-302.5" font-family="Helvetica,sans-Serif" font-size="10.00" fill="#000000"> &lt; Bicg&lt; ValueType &gt;</text>
<text text-anchor="middle" x="803.5" y="-291.5" font-family="Helvetica,sans-Serif" font-size="10.00" fill="#000000">, LinOp &gt;</text>
</g>
<!-- Node11&#45;&gt;Node6 -->
<g id="edge6" class="edge">
<title>Node11&#45;&gt;Node6</title>
<path fill="none" stroke="#ffa500" stroke-dasharray="5,2" d="M282.3212,-268.4448C302.6332,-278.0984 326.956,-288.2972 350,-294.5 411.5581,-311.0698 483.1969,-318.5239 537.9906,-321.8596"/>
<polygon fill="#ffa500" stroke="#ffa500" points="283.8149,-265.2793 273.29,-264.064 280.7598,-271.5775 283.8149,-265.2793"/>
<text text-anchor="middle" x="428.5" y="-322.5" font-family="Helvetica,sans-Serif" font-size="10.00" fill="#000000"> &lt; LinOp &gt;</text>
</g>
<!-- Node14 -->
<g id="node10" class="node">
<title>Node14</title>
<g id="a_node10"><a xlink:href="classgko_1_1EnableAbstractPolymorphicObject.html" target="_top" xlink:title=" ">
<polygon fill="#ffffff" stroke="#000000" points="525,-202 525,-243 726,-243 726,-202 525,-202"/>
<text text-anchor="start" x="533" y="-231" font-family="Helvetica,sans-Serif" font-size="10.00" fill="#000000">gko::EnableAbstractPolymorphic</text>
<text text-anchor="start" x="533" y="-220" font-family="Helvetica,sans-Serif" font-size="10.00" fill="#000000">Object&lt; ConcreteObject, Polymorphic</text>
<text text-anchor="middle" x="625.5" y="-209" font-family="Helvetica,sans-Serif" font-size="10.00" fill="#000000">Base &gt;</text>
</a>
</g>
</g>
<!-- Node11&#45;&gt;Node14 -->
<g id="edge12" class="edge">
<title>Node11&#45;&gt;Node14</title>
<path fill="none" stroke="#ffa500" stroke-dasharray="5,2" d="M342.1578,-237.7374C399.1787,-234.6709 468.8822,-230.9225 524.885,-227.9108"/>
<polygon fill="#ffa500" stroke="#ffa500" points="341.8274,-234.25 332.0298,-238.282 342.2034,-241.2399 341.8274,-234.25"/>
<text text-anchor="start" x="350" y="-250.5" font-family="Helvetica,sans-Serif" font-size="10.00" fill="#000000"> &lt; ConcreteObject, Polymorphic</text>
<text text-anchor="middle" x="428.5" y="-239.5" font-family="Helvetica,sans-Serif" font-size="10.00" fill="#000000">Base &gt;</text>
</g>
<!-- Node21 -->
<g id="node17" class="node">
<title>Node21</title>
<g id="a_node17"><a xlink:href="classgko_1_1EnableAbstractPolymorphicObject.html" target="_top" xlink:title=" ">
<polygon fill="#ffffff" stroke="#000000" points="527,-137 527,-178 724,-178 724,-137 527,-137"/>
<text text-anchor="start" x="535" y="-166" font-family="Helvetica,sans-Serif" font-size="10.00" fill="#000000">gko::EnableAbstractPolymorphic</text>
<text text-anchor="start" x="535" y="-155" font-family="Helvetica,sans-Serif" font-size="10.00" fill="#000000">Object&lt; ConcreteLinOp, Polymorphic</text>
<text text-anchor="middle" x="625.5" y="-144" font-family="Helvetica,sans-Serif" font-size="10.00" fill="#000000">Base &gt;</text>
</a>
</g>
</g>
<!-- Node11&#45;&gt;Node21 -->
<g id="edge22" class="edge">
<title>Node11&#45;&gt;Node21</title>
<path fill="none" stroke="#ffa500" stroke-dasharray="5,2" d="M295.891,-219.4832C313.1818,-213.2972 332.1619,-207.0965 350,-202.5 407.8421,-187.5954 473.8466,-176.6118 526.7468,-169.2284"/>
<polygon fill="#ffa500" stroke="#ffa500" points="294.6776,-216.2002 286.4767,-222.9081 297.0708,-222.7784 294.6776,-216.2002"/>
<text text-anchor="start" x="352" y="-216.5" font-family="Helvetica,sans-Serif" font-size="10.00" fill="#000000"> &lt; ConcreteLinOp, Polymorphic</text>
<text text-anchor="middle" x="428.5" y="-205.5" font-family="Helvetica,sans-Serif" font-size="10.00" fill="#000000">Base &gt;</text>
</g>
<!-- Node12 -->
<g id="node8" class="node">
<title>Node12</title>
<g id="a_node8"><a xlink:title=" ">
<polygon fill="#ffffff" stroke="#bfbfbf" points="0,-156 0,-175 101,-175 101,-156 0,-156"/>
<text text-anchor="middle" x="50.5" y="-163" font-family="Helvetica,sans-Serif" font-size="10.00" fill="#000000">PolymorphicBase</text>
</a>
</g>
</g>
<!-- Node12&#45;&gt;Node11 -->
<g id="edge7" class="edge">
<title>Node12&#45;&gt;Node11</title>
<path fill="none" stroke="#191970" d="M82.628,-179.0826C111.2155,-191.1684 153.45,-209.0236 186.208,-222.8725"/>
<polygon fill="#191970" stroke="#191970" points="83.6969,-175.7346 73.1233,-175.0643 80.9711,-182.1821 83.6969,-175.7346"/>
</g>
<!-- Node12&#45;&gt;Node14 -->
<g id="edge11" class="edge">
<title>Node12&#45;&gt;Node14</title>
<path fill="none" stroke="#191970" d="M111.4107,-160.0065C199.8299,-153.6786 368.3225,-147.8417 507,-179.5 515.535,-181.4484 516.8592,-184.2798 525,-187.5 537.4558,-192.427 550.9171,-197.3705 563.8153,-201.9259"/>
<polygon fill="#191970" stroke="#191970" points="111.0047,-156.5269 101.2915,-160.7581 111.5233,-163.5077 111.0047,-156.5269"/>
</g>
<!-- Node12&#45;&gt;Node21 -->
<g id="edge21" class="edge">
<title>Node12&#45;&gt;Node21</title>
<path fill="none" stroke="#191970" d="M100.0089,-154.156C106.37,-153.0602 112.8183,-152.1252 119,-151.5 290.5691,-134.1468 334.6107,-147.1385 507,-151.5 513.4867,-151.6641 520.1712,-151.8787 526.9066,-152.1288"/>
<polygon fill="#191970" stroke="#191970" points="99.3286,-150.7224 90.1355,-155.9889 100.6063,-157.6048 99.3286,-150.7224"/>
</g>
<!-- Node13 -->
<g id="node9" class="node">
<title>Node13</title>
<g id="a_node9"><a xlink:href="classgko_1_1EnablePolymorphicObject.html" target="_top" xlink:title="This mixin inherits from (a subclass of) PolymorphicObject and provides a base implementation of a ne...">
<polygon fill="#ffffff" stroke="#000000" points="881,-207.5 881,-237.5 1086,-237.5 1086,-207.5 881,-207.5"/>
<text text-anchor="start" x="889" y="-225.5" font-family="Helvetica,sans-Serif" font-size="10.00" fill="#000000">gko::EnablePolymorphicObject</text>
<text text-anchor="middle" x="983.5" y="-214.5" font-family="Helvetica,sans-Serif" font-size="10.00" fill="#000000">&lt; ConcreteObject, PolymorphicBase &gt;</text>
</a>
</g>
</g>
<!-- Node13&#45;&gt;Node3 -->
<g id="edge9" class="edge">
<title>Node13&#45;&gt;Node3</title>
<path fill="none" stroke="#ffa500" stroke-dasharray="5,2" d="M1096.0199,-223.4185C1216.5539,-224.4025 1405.0176,-225.941 1512.8379,-226.8211"/>
<polygon fill="#ffa500" stroke="#ffa500" points="1096.047,-219.9187 1086.0187,-223.3369 1095.9898,-226.9185 1096.047,-219.9187"/>
<text text-anchor="start" x="1321.5" y="-240.5" font-family="Helvetica,sans-Serif" font-size="10.00" fill="#000000"> &lt; Bicg&lt; ValueType &gt;</text>
<text text-anchor="middle" x="1375.5" y="-229.5" font-family="Helvetica,sans-Serif" font-size="10.00" fill="#000000">, LinOp &gt;</text>
</g>
<!-- Node20 -->
<g id="node16" class="node">
<title>Node20</title>
<g id="a_node16"><a xlink:href="classgko_1_1EnablePolymorphicObject.html" target="_top" xlink:title=" ">
<polygon fill="#ffffff" stroke="#000000" points="1275,-144.5 1275,-174.5 1476,-174.5 1476,-144.5 1275,-144.5"/>
<text text-anchor="start" x="1283" y="-162.5" font-family="Helvetica,sans-Serif" font-size="10.00" fill="#000000">gko::EnablePolymorphicObject</text>
<text text-anchor="middle" x="1375.5" y="-151.5" font-family="Helvetica,sans-Serif" font-size="10.00" fill="#000000">&lt; ConcreteLinOp, PolymorphicBase &gt;</text>
</a>
</g>
</g>
<!-- Node13&#45;&gt;Node20 -->
<g id="edge23" class="edge">
<title>Node13&#45;&gt;Node20</title>
<path fill="none" stroke="#ffa500" stroke-dasharray="5,2" d="M1045.5139,-204.8453C1064.1962,-199.9884 1084.8305,-195.0787 1104,-191.5 1160.1034,-181.0263 1223.4049,-173.3315 1274.7633,-168.116"/>
<polygon fill="#ffa500" stroke="#ffa500" points="1044.4245,-201.513 1035.65,-207.4509 1046.2123,-208.2808 1044.4245,-201.513"/>
<text text-anchor="start" x="1104" y="-205.5" font-family="Helvetica,sans-Serif" font-size="10.00" fill="#000000"> &lt; ConcreteLinOp, Polymorphic</text>
<text text-anchor="middle" x="1180.5" y="-194.5" font-family="Helvetica,sans-Serif" font-size="10.00" fill="#000000">Base &gt;</text>
</g>
<!-- Node14&#45;&gt;Node13 -->
<g id="edge10" class="edge">
<title>Node14&#45;&gt;Node13</title>
<path fill="none" stroke="#191970" d="M736.2058,-222.5C782.3205,-222.5 835.5493,-222.5 880.7833,-222.5"/>
<polygon fill="#191970" stroke="#191970" points="736.1757,-219.0001 726.1757,-222.5 736.1756,-226.0001 736.1757,-219.0001"/>
</g>
<!-- Node15 -->
<g id="node11" class="node">
<title>Node15</title>
<g id="a_node11"><a xlink:href="classgko_1_1EnablePolymorphicAssignment.html" target="_top" xlink:title=" ">
<polygon fill="#ffffff" stroke="#000000" points="1279.5,-38.5 1279.5,-68.5 1471.5,-68.5 1471.5,-38.5 1279.5,-38.5"/>
<text text-anchor="start" x="1287.5" y="-56.5" font-family="Helvetica,sans-Serif" font-size="10.00" fill="#000000">gko::EnablePolymorphicAssignment</text>
<text text-anchor="middle" x="1375.5" y="-45.5" font-family="Helvetica,sans-Serif" font-size="10.00" fill="#000000">&lt; Bicg&lt; ValueType &gt; &gt;</text>
</a>
</g>
</g>
<!-- Node15&#45;&gt;Node2 -->
<g id="edge13" class="edge">
<title>Node15&#45;&gt;Node2</title>
<path fill="none" stroke="#191970" d="M1479.452,-70.1165C1584.6128,-86.9262 1744.081,-112.4168 1833.7149,-126.7446"/>
<polygon fill="#191970" stroke="#191970" points="1479.876,-66.6399 1469.4489,-68.5175 1478.771,-73.5522 1479.876,-66.6399"/>
</g>
<!-- Node16 -->
<g id="node12" class="node">
<title>Node16</title>
<g id="a_node12"><a xlink:href="classgko_1_1ConvertibleTo.html" target="_top" xlink:title=" ">
<polygon fill="#ffffff" stroke="#000000" points="917.5,-.5 917.5,-30.5 1049.5,-30.5 1049.5,-.5 917.5,-.5"/>
<text text-anchor="start" x="925.5" y="-18.5" font-family="Helvetica,sans-Serif" font-size="10.00" fill="#000000">gko::ConvertibleTo</text>
<text text-anchor="middle" x="983.5" y="-7.5" font-family="Helvetica,sans-Serif" font-size="10.00" fill="#000000">&lt; Bicg&lt; ValueType &gt; &gt;</text>
</a>
</g>
</g>
<!-- Node16&#45;&gt;Node15 -->
<g id="edge14" class="edge">
<title>Node16&#45;&gt;Node15</title>
<path fill="none" stroke="#191970" d="M1059.7763,-22.8941C1122.5091,-28.9754 1211.7662,-37.6278 1279.3811,-44.1823"/>
<polygon fill="#191970" stroke="#191970" points="1059.8453,-19.3845 1049.5542,-21.9032 1059.1698,-26.3518 1059.8453,-19.3845"/>
</g>
<!-- Node17 -->
<g id="node13" class="node">
<title>Node17</title>
<g id="a_node13"><a xlink:href="classgko_1_1ConvertibleTo.html" target="_top" xlink:title="ConvertibleTo interface is used to mark that the implementer can be converted to the object of Result...">
<polygon fill="#ffffff" stroke="#000000" points="572,-49.5 572,-79.5 679,-79.5 679,-49.5 572,-49.5"/>
<text text-anchor="start" x="580" y="-67.5" font-family="Helvetica,sans-Serif" font-size="10.00" fill="#000000">gko::ConvertibleTo</text>
<text text-anchor="middle" x="625.5" y="-56.5" font-family="Helvetica,sans-Serif" font-size="10.00" fill="#000000">&lt; ResultType &gt;</text>
</a>
</g>
</g>
<!-- Node17&#45;&gt;Node16 -->
<g id="edge15" class="edge">
<title>Node17&#45;&gt;Node16</title>
<path fill="none" stroke="#ffa500" stroke-dasharray="5,2" d="M689.1014,-55.7948C753.3567,-47.0001 852.1918,-33.4723 917.345,-24.5547"/>
<polygon fill="#ffa500" stroke="#ffa500" points="688.5292,-52.3404 679.0962,-57.1642 689.4785,-59.2757 688.5292,-52.3404"/>
<text text-anchor="middle" x="803.5" y="-50.5" font-family="Helvetica,sans-Serif" font-size="10.00" fill="#000000"> &lt; Bicg&lt; ValueType &gt; &gt;</text>
</g>
<!-- Node18 -->
<g id="node14" class="node">
<title>Node18</title>
<g id="a_node14"><a xlink:href="classgko_1_1EnablePolymorphicAssignment.html" target="_top" xlink:title="This mixin is used to enable a default PolymorphicObject::copy_from() implementation for objects that...">
<polygon fill="#ffffff" stroke="#000000" points="887.5,-49.5 887.5,-79.5 1079.5,-79.5 1079.5,-49.5 887.5,-49.5"/>
<text text-anchor="start" x="895.5" y="-67.5" font-family="Helvetica,sans-Serif" font-size="10.00" fill="#000000">gko::EnablePolymorphicAssignment</text>
<text text-anchor="middle" x="983.5" y="-56.5" font-family="Helvetica,sans-Serif" font-size="10.00" fill="#000000">&lt; ConcreteType, ResultType &gt;</text>
</a>
</g>
</g>
<!-- Node17&#45;&gt;Node18 -->
<g id="edge17" class="edge">
<title>Node17&#45;&gt;Node18</title>
<path fill="none" stroke="#191970" d="M689.4065,-64.5C744.4132,-64.5 824.5969,-64.5 887.3502,-64.5"/>
<polygon fill="#191970" stroke="#191970" points="689.0963,-61.0001 679.0962,-64.5 689.0962,-68.0001 689.0963,-61.0001"/>
</g>
<!-- Node23 -->
<g id="node19" class="node">
<title>Node23</title>
<g id="a_node19"><a xlink:href="classgko_1_1ConvertibleTo.html" target="_top" xlink:title=" ">
<polygon fill="#ffffff" stroke="#000000" points="928.5,-98.5 928.5,-128.5 1038.5,-128.5 1038.5,-98.5 928.5,-98.5"/>
<text text-anchor="start" x="936.5" y="-116.5" font-family="Helvetica,sans-Serif" font-size="10.00" fill="#000000">gko::ConvertibleTo</text>
<text text-anchor="middle" x="983.5" y="-105.5" font-family="Helvetica,sans-Serif" font-size="10.00" fill="#000000">&lt; ConcreteLinOp &gt;</text>
</a>
</g>
</g>
<!-- Node17&#45;&gt;Node23 -->
<g id="edge26" class="edge">
<title>Node17&#45;&gt;Node23</title>
<path fill="none" stroke="#ffa500" stroke-dasharray="5,2" d="M689.2524,-73.2259C757.2521,-82.5331 863.8548,-97.124 928.3593,-105.9528"/>
<polygon fill="#ffa500" stroke="#ffa500" points="689.4785,-69.7243 679.0962,-71.8358 688.5292,-76.6596 689.4785,-69.7243"/>
<text text-anchor="middle" x="803.5" y="-99.5" font-family="Helvetica,sans-Serif" font-size="10.00" fill="#000000"> &lt; ConcreteLinOp &gt;</text>
</g>
<!-- Node18&#45;&gt;Node15 -->
<g id="edge16" class="edge">
<title>Node18&#45;&gt;Node15</title>
<path fill="none" stroke="#ffa500" stroke-dasharray="5,2" d="M1090.126,-55.1975C1094.8124,-54.9319 1099.4532,-54.6967 1104,-54.5 1162.1582,-51.9836 1227.3893,-51.6624 1279.3338,-52.0041"/>
<polygon fill="#ffa500" stroke="#ffa500" points="1089.5817,-51.724 1079.8126,-55.8245 1090.0066,-58.7111 1089.5817,-51.724"/>
<text text-anchor="middle" x="1180.5" y="-57.5" font-family="Helvetica,sans-Serif" font-size="10.00" fill="#000000"> &lt; Bicg&lt; ValueType &gt; &gt;</text>
</g>
<!-- Node22 -->
<g id="node18" class="node">
<title>Node22</title>
<g id="a_node18"><a xlink:href="classgko_1_1EnablePolymorphicAssignment.html" target="_top" xlink:title=" ">
<polygon fill="#ffffff" stroke="#000000" points="1279.5,-95.5 1279.5,-125.5 1471.5,-125.5 1471.5,-95.5 1279.5,-95.5"/>
<text text-anchor="start" x="1287.5" y="-113.5" font-family="Helvetica,sans-Serif" font-size="10.00" fill="#000000">gko::EnablePolymorphicAssignment</text>
<text text-anchor="middle" x="1375.5" y="-102.5" font-family="Helvetica,sans-Serif" font-size="10.00" fill="#000000">&lt; ConcreteLinOp &gt;</text>
</a>
</g>
</g>
<!-- Node18&#45;&gt;Node22 -->
<g id="edge27" class="edge">
<title>Node18&#45;&gt;Node22</title>
<path fill="none" stroke="#ffa500" stroke-dasharray="5,2" d="M1089.6818,-76.8953C1140.3404,-82.8162 1201.8051,-90.0106 1257,-96.5 1264.3039,-97.3587 1271.8608,-98.2485 1279.4602,-99.1442"/>
<polygon fill="#ffa500" stroke="#ffa500" points="1090.038,-73.4132 1079.6993,-75.7287 1089.2254,-80.3659 1090.038,-73.4132"/>
<text text-anchor="middle" x="1180.5" y="-99.5" font-family="Helvetica,sans-Serif" font-size="10.00" fill="#000000"> &lt; ConcreteLinOp &gt;</text>
</g>
<!-- Node19 -->
<g id="node15" class="node">
<title>Node19</title>
<g id="a_node15"><a xlink:href="classgko_1_1EnableLinOp.html" target="_top" xlink:title="The EnableLinOp mixin can be used to provide sensible default implementations of the majority of the ...">
<polygon fill="#ffffff" stroke="#000000" points="1518,-122.5 1518,-152.5 1674,-152.5 1674,-122.5 1518,-122.5"/>
<text text-anchor="start" x="1526" y="-140.5" font-family="Helvetica,sans-Serif" font-size="10.00" fill="#000000">gko::EnableLinOp&lt; Concrete</text>
<text text-anchor="middle" x="1596" y="-129.5" font-family="Helvetica,sans-Serif" font-size="10.00" fill="#000000">LinOp, PolymorphicBase &gt;</text>
</a>
</g>
</g>
<!-- Node19&#45;&gt;Node2 -->
<g id="edge18" class="edge">
<title>Node19&#45;&gt;Node2</title>
<path fill="none" stroke="#ffa500" stroke-dasharray="5,2" d="M1684.168,-137.5C1731.893,-137.5 1789.9106,-137.5 1833.919,-137.5"/>
<polygon fill="#ffa500" stroke="#ffa500" points="1684.1491,-134.0001 1674.149,-137.5 1684.149,-141.0001 1684.1491,-134.0001"/>
<text text-anchor="middle" x="1756.5" y="-140.5" font-family="Helvetica,sans-Serif" font-size="10.00" fill="#000000"> &lt; Bicg&lt; ValueType &gt; &gt;</text>
</g>
<!-- Node20&#45;&gt;Node19 -->
<g id="edge19" class="edge">
<title>Node20&#45;&gt;Node19</title>
<path fill="none" stroke="#191970" d="M1486.2456,-148.4505C1496.8692,-147.3906 1507.4867,-146.3313 1517.7034,-145.3119"/>
<polygon fill="#191970" stroke="#191970" points="1485.6742,-144.9901 1476.0711,-149.4657 1486.3693,-151.9555 1485.6742,-144.9901"/>
</g>
<!-- Node21&#45;&gt;Node20 -->
<g id="edge20" class="edge">
<title>Node21&#45;&gt;Node20</title>
<path fill="none" stroke="#191970" d="M734.5775,-157.7909C879.7034,-158.1779 1134.2868,-158.8568 1274.9633,-159.2319"/>
<polygon fill="#191970" stroke="#191970" points="734.33,-154.2903 724.3206,-157.7635 734.3112,-161.2903 734.33,-154.2903"/>
</g>
<!-- Node22&#45;&gt;Node19 -->
<g id="edge24" class="edge">
<title>Node22&#45;&gt;Node19</title>
<path fill="none" stroke="#191970" d="M1481.7437,-123.5094C1493.8851,-124.9961 1506.0914,-126.4908 1517.7726,-127.9211"/>
<polygon fill="#191970" stroke="#191970" points="1481.9244,-120.0055 1471.5731,-122.264 1481.0735,-126.9536 1481.9244,-120.0055"/>
</g>
<!-- Node23&#45;&gt;Node22 -->
<g id="edge25" class="edge">
<title>Node23&#45;&gt;Node22</title>
<path fill="none" stroke="#191970" d="M1049.0239,-112.9985C1111.9342,-112.5171 1207.7021,-111.7842 1279.2698,-111.2365"/>
<polygon fill="#191970" stroke="#191970" points="1048.8055,-109.5 1038.8326,-113.0765 1048.8591,-116.4998 1048.8055,-109.5"/>
</g>
<!-- Node24 -->
<g id="node20" class="node">
<title>Node24</title>
<g id="a_node20"><a xlink:href="classgko_1_1Preconditionable.html" target="_top" xlink:title="A LinOp implementing this interface can be preconditioned.">
<polygon fill="#ffffff" stroke="#000000" points="1840,-84 1840,-103 1962,-103 1962,-84 1840,-84"/>
<text text-anchor="middle" x="1901" y="-91" font-family="Helvetica,sans-Serif" font-size="10.00" fill="#000000">gko::Preconditionable</text>
</a>
</g>
</g>
<!-- Node24&#45;&gt;Node1 -->
<g id="edge28" class="edge">
<title>Node24&#45;&gt;Node1</title>
<path fill="none" stroke="#191970" d="M1972.183,-98.9407C1983.1946,-99.7824 1994.4,-100.6389 2004.9222,-101.4431"/>
<polygon fill="#191970" stroke="#191970" points="1972.3875,-95.4463 1962.1499,-98.1739 1971.854,-102.4259 1972.3875,-95.4463"/>
</g>
</g>
</svg>
