<?xml version="1.0" encoding="UTF-8" standalone="no"?>
<!DOCTYPE svg PUBLIC "-//W3C//DTD SVG 1.1//EN"
 "http://www.w3.org/Graphics/SVG/1.1/DTD/svg11.dtd">
<!-- Generated by graphviz version 2.40.1 (20161225.0304)
 -->
<!-- Title: gko::matrix::Coo&lt; ValueType, IndexType &gt; Pages: 1 -->
<svg width="2535pt" height="495pt"
 viewBox="0.00 0.00 2535.00 494.50" xmlns="http://www.w3.org/2000/svg" xmlns:xlink="http://www.w3.org/1999/xlink">
<g id="graph0" class="graph" transform="scale(1 1) rotate(0) translate(4 490.5)">
<title>gko::matrix::Coo&lt; ValueType, IndexType &gt;</title>
<polygon fill="#ffffff" stroke="transparent" points="-4,4 -4,-490.5 2531,-490.5 2531,4 -4,4"/>
<!-- Node1 -->
<g id="node1" class="node">
<title>Node1</title>
<g id="a_node1"><a xlink:title="COO stores a matrix in the coordinate matrix format.">
<polygon fill="#bfbfbf" stroke="#000000" points="2366,-280.5 2366,-310.5 2527,-310.5 2527,-280.5 2366,-280.5"/>
<text text-anchor="start" x="2374" y="-298.5" font-family="Helvetica,sans-Serif" font-size="10.00" fill="#000000">gko::matrix::Coo&lt; ValueType,</text>
<text text-anchor="middle" x="2446.5" y="-287.5" font-family="Helvetica,sans-Serif" font-size="10.00" fill="#000000"> IndexType &gt;</text>
</a>
</g>
</g>
<!-- Node2 -->
<g id="node2" class="node">
<title>Node2</title>
<g id="a_node2"><a xlink:href="classgko_1_1EnableLinOp.html" target="_top" xlink:title=" ">
<polygon fill="#ffffff" stroke="#000000" points="2159,-280.5 2159,-310.5 2314,-310.5 2314,-280.5 2159,-280.5"/>
<text text-anchor="start" x="2167" y="-298.5" font-family="Helvetica,sans-Serif" font-size="10.00" fill="#000000">gko::EnableLinOp&lt; Coo</text>
<text text-anchor="middle" x="2236.5" y="-287.5" font-family="Helvetica,sans-Serif" font-size="10.00" fill="#000000">&lt; ValueType, IndexType &gt; &gt;</text>
</a>
</g>
</g>
<!-- Node2&#45;&gt;Node1 -->
<g id="edge1" class="edge">
<title>Node2&#45;&gt;Node1</title>
<path fill="none" stroke="#191970" d="M2324.4612,-295.5C2338.1326,-295.5 2352.2001,-295.5 2365.7027,-295.5"/>
<polygon fill="#191970" stroke="#191970" points="2324.0996,-292.0001 2314.0996,-295.5 2324.0996,-299.0001 2324.0996,-292.0001"/>
</g>
<!-- Node3 -->
<g id="node3" class="node">
<title>Node3</title>
<g id="a_node3"><a xlink:href="classgko_1_1EnablePolymorphicObject.html" target="_top" xlink:title=" ">
<polygon fill="#ffffff" stroke="#000000" points="1770,-138 1770,-179 1936,-179 1936,-138 1770,-138"/>
<text text-anchor="start" x="1778" y="-167" font-family="Helvetica,sans-Serif" font-size="10.00" fill="#000000">gko::EnablePolymorphicObject</text>
<text text-anchor="start" x="1778" y="-156" font-family="Helvetica,sans-Serif" font-size="10.00" fill="#000000">&lt; Coo&lt; ValueType, IndexType</text>
<text text-anchor="middle" x="1853" y="-145" font-family="Helvetica,sans-Serif" font-size="10.00" fill="#000000"> &gt;, LinOp &gt;</text>
</a>
</g>
</g>
<!-- Node3&#45;&gt;Node2 -->
<g id="edge2" class="edge">
<title>Node3&#45;&gt;Node2</title>
<path fill="none" stroke="#191970" d="M1946.3716,-165.2154C2003.7419,-173.6613 2075.6394,-192.5305 2126,-234.5 2140.0483,-246.2075 2129.849,-259.9169 2144,-271.5 2148.4934,-275.178 2153.4872,-278.2989 2158.7605,-280.9463"/>
<polygon fill="#191970" stroke="#191970" points="1946.589,-161.7121 1936.2028,-163.8041 1945.6267,-168.6457 1946.589,-161.7121"/>
</g>
<!-- Node4 -->
<g id="node4" class="node">
<title>Node4</title>
<g id="a_node4"><a xlink:href="classgko_1_1EnableAbstractPolymorphicObject.html" target="_top" xlink:title=" ">
<polygon fill="#ffffff" stroke="#000000" points="1354.5,-34 1354.5,-75 1548.5,-75 1548.5,-34 1354.5,-34"/>
<text text-anchor="start" x="1362.5" y="-63" font-family="Helvetica,sans-Serif" font-size="10.00" fill="#000000">gko::EnableAbstractPolymorphic</text>
<text text-anchor="start" x="1362.5" y="-52" font-family="Helvetica,sans-Serif" font-size="10.00" fill="#000000">Object&lt; Coo&lt; ValueType, IndexType</text>
<text text-anchor="middle" x="1451.5" y="-41" font-family="Helvetica,sans-Serif" font-size="10.00" fill="#000000"> &gt;, LinOp &gt;</text>
</a>
</g>
</g>
<!-- Node4&#45;&gt;Node3 -->
<g id="edge3" class="edge">
<title>Node4&#45;&gt;Node3</title>
<path fill="none" stroke="#191970" d="M1558.7591,-47.9904C1619.9867,-49.3305 1695.5466,-60.0069 1752,-97.5 1764.9528,-106.1025 1758.0466,-117.5555 1770,-127.5 1774.73,-131.435 1780.0082,-134.8972 1785.5478,-137.9382"/>
<polygon fill="#191970" stroke="#191970" points="1558.7201,-44.4896 1548.6725,-47.8503 1558.6229,-51.4889 1558.7201,-44.4896"/>
</g>
<!-- Node5 -->
<g id="node5" class="node">
<title>Node5</title>
<g id="a_node5"><a xlink:href="classgko_1_1LinOp.html" target="_top" xlink:title=" ">
<polygon fill="#ffffff" stroke="#000000" points="1006.5,-10 1006.5,-29 1074.5,-29 1074.5,-10 1006.5,-10"/>
<text text-anchor="middle" x="1040.5" y="-17" font-family="Helvetica,sans-Serif" font-size="10.00" fill="#000000">gko::LinOp</text>
</a>
</g>
</g>
<!-- Node5&#45;&gt;Node4 -->
<g id="edge4" class="edge">
<title>Node5&#45;&gt;Node4</title>
<path fill="none" stroke="#191970" d="M1084.9991,-23.2895C1149.0597,-28.7447 1268.9169,-38.9516 1354.113,-46.2067"/>
<polygon fill="#191970" stroke="#191970" points="1085.0957,-19.7851 1074.8347,-22.4239 1084.5016,-26.7599 1085.0957,-19.7851"/>
</g>
<!-- Node6 -->
<g id="node6" class="node">
<title>Node6</title>
<g id="a_node6"><a xlink:href="classgko_1_1EnableAbstractPolymorphicObject.html" target="_top" xlink:title=" ">
<polygon fill="#ffffff" stroke="#ff0000" points="542,-.5 542,-30.5 717,-30.5 717,-.5 542,-.5"/>
<text text-anchor="start" x="550" y="-18.5" font-family="Helvetica,sans-Serif" font-size="10.00" fill="#000000">gko::EnableAbstractPolymorphic</text>
<text text-anchor="middle" x="629.5" y="-7.5" font-family="Helvetica,sans-Serif" font-size="10.00" fill="#000000">Object&lt; LinOp &gt;</text>
</a>
</g>
</g>
<!-- Node6&#45;&gt;Node5 -->
<g id="edge5" class="edge">
<title>Node6&#45;&gt;Node5</title>
<path fill="none" stroke="#191970" d="M727.4012,-16.4528C817.4625,-17.3293 945.9278,-18.5796 1006.4624,-19.1687"/>
<polygon fill="#191970" stroke="#191970" points="727.1993,-12.9508 717.1657,-16.3532 727.1311,-19.9504 727.1993,-12.9508"/>
</g>
<!-- Node11 -->
<g id="node7" class="node">
<title>Node11</title>
<g id="a_node7"><a xlink:href="classgko_1_1EnableAbstractPolymorphicObject.html" target="_top" xlink:title="This mixin inherits from (a subclass of) PolymorphicObject and provides a base implementation of a ne...">
<polygon fill="#ffffff" stroke="#000000" points="138,-72 138,-113 336,-113 336,-72 138,-72"/>
<text text-anchor="start" x="146" y="-101" font-family="Helvetica,sans-Serif" font-size="10.00" fill="#000000">gko::EnableAbstractPolymorphic</text>
<text text-anchor="start" x="146" y="-90" font-family="Helvetica,sans-Serif" font-size="10.00" fill="#000000">Object&lt; AbstractObject, Polymorphic</text>
<text text-anchor="middle" x="237" y="-79" font-family="Helvetica,sans-Serif" font-size="10.00" fill="#000000">Base &gt;</text>
</a>
</g>
</g>
<!-- Node11&#45;&gt;Node4 -->
<g id="edge8" class="edge">
<title>Node11&#45;&gt;Node4</title>
<path fill="none" stroke="#ffa500" stroke-dasharray="5,2" d="M346.3102,-84.8844C348.898,-84.7498 351.4643,-84.6213 354,-84.5 723.1218,-66.8429 1162.614,-58.7239 1354.184,-55.8232"/>
<polygon fill="#ffa500" stroke="#ffa500" points="346.0358,-81.394 336.2407,-85.4322 346.4162,-88.3837 346.0358,-81.394"/>
<text text-anchor="start" x="759" y="-83.5" font-family="Helvetica,sans-Serif" font-size="10.00" fill="#000000"> &lt; Coo&lt; ValueType, IndexType</text>
<text text-anchor="middle" x="834" y="-72.5" font-family="Helvetica,sans-Serif" font-size="10.00" fill="#000000"> &gt;, LinOp &gt;</text>
</g>
<!-- Node11&#45;&gt;Node6 -->
<g id="edge6" class="edge">
<title>Node11&#45;&gt;Node6</title>
<path fill="none" stroke="#ffa500" stroke-dasharray="5,2" d="M278.8117,-66.77C300.4485,-54.7746 327.7681,-41.6059 354,-34.5 415.3152,-17.8904 486.9625,-13.3845 541.821,-12.9025"/>
<polygon fill="#ffa500" stroke="#ffa500" points="276.88,-63.8417 269.9065,-71.8179 280.332,-69.9314 276.88,-63.8417"/>
<text text-anchor="middle" x="432.5" y="-37.5" font-family="Helvetica,sans-Serif" font-size="10.00" fill="#000000"> &lt; LinOp &gt;</text>
</g>
<!-- Node14 -->
<g id="node10" class="node">
<title>Node14</title>
<g id="a_node10"><a xlink:href="classgko_1_1EnableAbstractPolymorphicObject.html" target="_top" xlink:title=" ">
<polygon fill="#ffffff" stroke="#000000" points="529,-97 529,-138 730,-138 730,-97 529,-97"/>
<text text-anchor="start" x="537" y="-126" font-family="Helvetica,sans-Serif" font-size="10.00" fill="#000000">gko::EnableAbstractPolymorphic</text>
<text text-anchor="start" x="537" y="-115" font-family="Helvetica,sans-Serif" font-size="10.00" fill="#000000">Object&lt; ConcreteObject, Polymorphic</text>
<text text-anchor="middle" x="629.5" y="-104" font-family="Helvetica,sans-Serif" font-size="10.00" fill="#000000">Base &gt;</text>
</a>
</g>
</g>
<!-- Node11&#45;&gt;Node14 -->
<g id="edge12" class="edge">
<title>Node11&#45;&gt;Node14</title>
<path fill="none" stroke="#ffa500" stroke-dasharray="5,2" d="M346.4094,-88.0008C396.6706,-87.1896 456.9862,-87.9856 511,-93.5 519.5617,-94.3741 528.4204,-95.5838 537.2615,-96.9992"/>
<polygon fill="#ffa500" stroke="#ffa500" points="346.1033,-84.5057 336.1699,-88.1903 346.233,-91.5045 346.1033,-84.5057"/>
<text text-anchor="start" x="354" y="-107.5" font-family="Helvetica,sans-Serif" font-size="10.00" fill="#000000"> &lt; ConcreteObject, Polymorphic</text>
<text text-anchor="middle" x="432.5" y="-96.5" font-family="Helvetica,sans-Serif" font-size="10.00" fill="#000000">Base &gt;</text>
</g>
<!-- Node21 -->
<g id="node17" class="node">
<title>Node21</title>
<g id="a_node17"><a xlink:href="classgko_1_1EnableAbstractPolymorphicObject.html" target="_top" xlink:title=" ">
<polygon fill="#ffffff" stroke="#000000" points="531,-161 531,-202 728,-202 728,-161 531,-161"/>
<text text-anchor="start" x="539" y="-190" font-family="Helvetica,sans-Serif" font-size="10.00" fill="#000000">gko::EnableAbstractPolymorphic</text>
<text text-anchor="start" x="539" y="-179" font-family="Helvetica,sans-Serif" font-size="10.00" fill="#000000">Object&lt; ConcreteLinOp, Polymorphic</text>
<text text-anchor="middle" x="629.5" y="-168" font-family="Helvetica,sans-Serif" font-size="10.00" fill="#000000">Base &gt;</text>
</a>
</g>
</g>
<!-- Node11&#45;&gt;Node21 -->
<g id="edge22" class="edge">
<title>Node11&#45;&gt;Node21</title>
<path fill="none" stroke="#ffa500" stroke-dasharray="5,2" d="M337.372,-115.2595C399.5774,-129.3647 478.8209,-147.3333 539.0758,-160.9962"/>
<polygon fill="#ffa500" stroke="#ffa500" points="338.0667,-111.8283 327.5403,-113.0301 336.5187,-118.655 338.0667,-111.8283"/>
<text text-anchor="start" x="356" y="-167.5" font-family="Helvetica,sans-Serif" font-size="10.00" fill="#000000"> &lt; ConcreteLinOp, Polymorphic</text>
<text text-anchor="middle" x="432.5" y="-156.5" font-family="Helvetica,sans-Serif" font-size="10.00" fill="#000000">Base &gt;</text>
</g>
<!-- Node12 -->
<g id="node8" class="node">
<title>Node12</title>
<g id="a_node8"><a xlink:title=" ">
<polygon fill="#ffffff" stroke="#bfbfbf" points="0,-165 0,-184 101,-184 101,-165 0,-165"/>
<text text-anchor="middle" x="50.5" y="-172" font-family="Helvetica,sans-Serif" font-size="10.00" fill="#000000">PolymorphicBase</text>
</a>
</g>
</g>
<!-- Node12&#45;&gt;Node11 -->
<g id="edge7" class="edge">
<title>Node12&#45;&gt;Node11</title>
<path fill="none" stroke="#191970" d="M81.6749,-160.7931C111.2807,-147.7761 156.181,-128.0344 190.1047,-113.1189"/>
<polygon fill="#191970" stroke="#191970" points="80.0044,-157.7041 72.2589,-164.9331 82.8219,-164.1121 80.0044,-157.7041"/>
</g>
<!-- Node12&#45;&gt;Node14 -->
<g id="edge11" class="edge">
<title>Node12&#45;&gt;Node14</title>
<path fill="none" stroke="#191970" d="M111.4303,-180.8542C200.6787,-188.3335 371.4922,-195.6797 511,-160.5 519.6728,-158.313 520.7442,-154.9413 529,-151.5 540.306,-146.7873 552.5197,-142.2287 564.4067,-138.0622"/>
<polygon fill="#191970" stroke="#191970" points="111.4851,-177.3458 101.2198,-179.9678 110.8796,-184.3196 111.4851,-177.3458"/>
</g>
<!-- Node12&#45;&gt;Node21 -->
<g id="edge21" class="edge">
<title>Node12&#45;&gt;Node21</title>
<path fill="none" stroke="#191970" d="M100.0089,-185.844C106.37,-186.9398 112.8183,-187.8748 119,-188.5 292.3378,-206.0321 336.8536,-193.6391 511,-188.5 517.4889,-188.3085 524.1751,-188.0582 530.9118,-187.7663"/>
<polygon fill="#191970" stroke="#191970" points="100.6063,-182.3952 90.1355,-184.0111 99.3286,-189.2776 100.6063,-182.3952"/>
</g>
<!-- Node13 -->
<g id="node9" class="node">
<title>Node13</title>
<g id="a_node9"><a xlink:href="classgko_1_1EnablePolymorphicObject.html" target="_top" xlink:title="This mixin inherits from (a subclass of) PolymorphicObject and provides a base implementation of a ne...">
<polygon fill="#ffffff" stroke="#000000" points="938,-102.5 938,-132.5 1143,-132.5 1143,-102.5 938,-102.5"/>
<text text-anchor="start" x="946" y="-120.5" font-family="Helvetica,sans-Serif" font-size="10.00" fill="#000000">gko::EnablePolymorphicObject</text>
<text text-anchor="middle" x="1040.5" y="-109.5" font-family="Helvetica,sans-Serif" font-size="10.00" fill="#000000">&lt; ConcreteObject, PolymorphicBase &gt;</text>
</a>
</g>
</g>
<!-- Node13&#45;&gt;Node3 -->
<g id="edge9" class="edge">
<title>Node13&#45;&gt;Node3</title>
<path fill="none" stroke="#ffa500" stroke-dasharray="5,2" d="M1153.0652,-120.0978C1207.4364,-121.4754 1273.6186,-123.3324 1333,-125.5 1430.3699,-129.0543 1454.7462,-129.5653 1552,-135.5 1625.6291,-139.993 1709.2828,-146.4981 1769.681,-151.4445"/>
<polygon fill="#ffa500" stroke="#ffa500" points="1153.1395,-116.5987 1143.0546,-119.8462 1152.9635,-123.5964 1153.1395,-116.5987"/>
<text text-anchor="start" x="1376.5" y="-149.5" font-family="Helvetica,sans-Serif" font-size="10.00" fill="#000000"> &lt; Coo&lt; ValueType, IndexType</text>
<text text-anchor="middle" x="1451.5" y="-138.5" font-family="Helvetica,sans-Serif" font-size="10.00" fill="#000000"> &gt;, LinOp &gt;</text>
</g>
<!-- Node20 -->
<g id="node16" class="node">
<title>Node20</title>
<g id="a_node16"><a xlink:href="classgko_1_1EnablePolymorphicObject.html" target="_top" xlink:title=" ">
<polygon fill="#ffffff" stroke="#000000" points="1351,-166.5 1351,-196.5 1552,-196.5 1552,-166.5 1351,-166.5"/>
<text text-anchor="start" x="1359" y="-184.5" font-family="Helvetica,sans-Serif" font-size="10.00" fill="#000000">gko::EnablePolymorphicObject</text>
<text text-anchor="middle" x="1451.5" y="-173.5" font-family="Helvetica,sans-Serif" font-size="10.00" fill="#000000">&lt; ConcreteLinOp, PolymorphicBase &gt;</text>
</a>
</g>
</g>
<!-- Node13&#45;&gt;Node20 -->
<g id="edge23" class="edge">
<title>Node13&#45;&gt;Node20</title>
<path fill="none" stroke="#ffa500" stroke-dasharray="5,2" d="M1153.1543,-123.0166C1207.8212,-127.0292 1274.2273,-133.8804 1333,-145.5 1358.7335,-150.5876 1386.8525,-159.0021 1409.239,-166.4171"/>
<polygon fill="#ffa500" stroke="#ffa500" points="1153.3112,-119.519 1143.0879,-122.2999 1152.814,-126.5014 1153.3112,-119.519"/>
<text text-anchor="start" x="1170.5" y="-159.5" font-family="Helvetica,sans-Serif" font-size="10.00" fill="#000000"> &lt; ConcreteLinOp, Polymorphic</text>
<text text-anchor="middle" x="1247" y="-148.5" font-family="Helvetica,sans-Serif" font-size="10.00" fill="#000000">Base &gt;</text>
</g>
<!-- Node14&#45;&gt;Node13 -->
<g id="edge10" class="edge">
<title>Node14&#45;&gt;Node13</title>
<path fill="none" stroke="#191970" d="M740.1691,-117.5C801.6463,-117.5 877.6268,-117.5 937.7824,-117.5"/>
<polygon fill="#191970" stroke="#191970" points="740.0419,-114.0001 730.0419,-117.5 740.0419,-121.0001 740.0419,-114.0001"/>
</g>
<!-- Node15 -->
<g id="node11" class="node">
<title>Node15</title>
<g id="a_node11"><a xlink:href="classgko_1_1EnablePolymorphicAssignment.html" target="_top" xlink:title=" ">
<polygon fill="#ffffff" stroke="#000000" points="1355.5,-233.5 1355.5,-263.5 1547.5,-263.5 1547.5,-233.5 1355.5,-233.5"/>
<text text-anchor="start" x="1363.5" y="-251.5" font-family="Helvetica,sans-Serif" font-size="10.00" fill="#000000">gko::EnablePolymorphicAssignment</text>
<text text-anchor="middle" x="1451.5" y="-240.5" font-family="Helvetica,sans-Serif" font-size="10.00" fill="#000000">&lt; Coo&lt; ValueType, IndexType &gt; &gt;</text>
</a>
</g>
</g>
<!-- Node15&#45;&gt;Node2 -->
<g id="edge13" class="edge">
<title>Node15&#45;&gt;Node2</title>
<path fill="none" stroke="#191970" d="M1557.8425,-252.561C1656.0423,-256.5455 1805.9302,-263.2207 1936,-271.5 2011.7343,-276.3207 2098.0811,-283.38 2158.7216,-288.5955"/>
<polygon fill="#191970" stroke="#191970" points="1557.7473,-249.0544 1547.6142,-252.1482 1557.4649,-256.0487 1557.7473,-249.0544"/>
</g>
<!-- Node16 -->
<g id="node12" class="node">
<title>Node16</title>
<g id="a_node12"><a xlink:href="classgko_1_1ConvertibleTo.html" target="_top" xlink:title=" ">
<polygon fill="#ffffff" stroke="#000000" points="948,-210.5 948,-240.5 1133,-240.5 1133,-210.5 948,-210.5"/>
<text text-anchor="start" x="956" y="-228.5" font-family="Helvetica,sans-Serif" font-size="10.00" fill="#000000">gko::ConvertibleTo</text>
<text text-anchor="middle" x="1040.5" y="-217.5" font-family="Helvetica,sans-Serif" font-size="10.00" fill="#000000">&lt; Coo&lt; ValueType, IndexType &gt; &gt;</text>
</a>
</g>
</g>
<!-- Node16&#45;&gt;Node15 -->
<g id="edge14" class="edge">
<title>Node16&#45;&gt;Node15</title>
<path fill="none" stroke="#191970" d="M1143.3764,-229.72C1199.4527,-232.1976 1270.0642,-235.6046 1333,-239.5 1340.3104,-239.9525 1347.8721,-240.4525 1355.4748,-240.9783"/>
<polygon fill="#191970" stroke="#191970" points="1143.2238,-226.21 1133.08,-229.2683 1142.9169,-233.2033 1143.2238,-226.21"/>
</g>
<!-- Node17 -->
<g id="node13" class="node">
<title>Node17</title>
<g id="a_node13"><a xlink:href="classgko_1_1ConvertibleTo.html" target="_top" xlink:title="ConvertibleTo interface is used to mark that the implementer can be converted to the object of Result...">
<polygon fill="#ffffff" stroke="#000000" points="576,-335.5 576,-365.5 683,-365.5 683,-335.5 576,-335.5"/>
<text text-anchor="start" x="584" y="-353.5" font-family="Helvetica,sans-Serif" font-size="10.00" fill="#000000">gko::ConvertibleTo</text>
<text text-anchor="middle" x="629.5" y="-342.5" font-family="Helvetica,sans-Serif" font-size="10.00" fill="#000000">&lt; ResultType &gt;</text>
</a>
</g>
</g>
<!-- Node17&#45;&gt;Node16 -->
<g id="edge15" class="edge">
<title>Node17&#45;&gt;Node16</title>
<path fill="none" stroke="#ffa500" stroke-dasharray="5,2" d="M657.0948,-329.3112C680.1592,-312.6668 714.5633,-290.2398 748,-277.5 812.3437,-252.9842 889.1231,-239.8964 947.8702,-232.9845"/>
<polygon fill="#ffa500" stroke="#ffa500" points="654.8253,-326.6354 648.836,-335.375 658.9681,-332.2779 654.8253,-326.6354"/>
<text text-anchor="middle" x="834" y="-280.5" font-family="Helvetica,sans-Serif" font-size="10.00" fill="#000000"> &lt; Coo&lt; ValueType, IndexType &gt; &gt;</text>
</g>
<!-- Node18 -->
<g id="node14" class="node">
<title>Node18</title>
<g id="a_node14"><a xlink:href="classgko_1_1EnablePolymorphicAssignment.html" target="_top" xlink:title="This mixin is used to enable a default PolymorphicObject::copy_from() implementation for objects that...">
<polygon fill="#ffffff" stroke="#000000" points="944.5,-259.5 944.5,-289.5 1136.5,-289.5 1136.5,-259.5 944.5,-259.5"/>
<text text-anchor="start" x="952.5" y="-277.5" font-family="Helvetica,sans-Serif" font-size="10.00" fill="#000000">gko::EnablePolymorphicAssignment</text>
<text text-anchor="middle" x="1040.5" y="-266.5" font-family="Helvetica,sans-Serif" font-size="10.00" fill="#000000">&lt; ConcreteType, ResultType &gt;</text>
</a>
</g>
</g>
<!-- Node17&#45;&gt;Node18 -->
<g id="edge17" class="edge">
<title>Node17&#45;&gt;Node18</title>
<path fill="none" stroke="#191970" d="M693.4423,-333.8511C711.0573,-329.5382 730.2127,-325.0995 748,-321.5 813.156,-308.3149 887.0799,-296.4631 944.3095,-287.9592"/>
<polygon fill="#191970" stroke="#191970" points="692.1369,-330.5685 683.2708,-336.3686 693.8188,-337.3634 692.1369,-330.5685"/>
</g>
<!-- Node23 -->
<g id="node19" class="node">
<title>Node23</title>
<g id="a_node19"><a xlink:href="classgko_1_1ConvertibleTo.html" target="_top" xlink:title=" ">
<polygon fill="#ffffff" stroke="#000000" points="985.5,-308.5 985.5,-338.5 1095.5,-338.5 1095.5,-308.5 985.5,-308.5"/>
<text text-anchor="start" x="993.5" y="-326.5" font-family="Helvetica,sans-Serif" font-size="10.00" fill="#000000">gko::ConvertibleTo</text>
<text text-anchor="middle" x="1040.5" y="-315.5" font-family="Helvetica,sans-Serif" font-size="10.00" fill="#000000">&lt; ConcreteLinOp &gt;</text>
</a>
</g>
</g>
<!-- Node17&#45;&gt;Node23 -->
<g id="edge26" class="edge">
<title>Node17&#45;&gt;Node23</title>
<path fill="none" stroke="#ffa500" stroke-dasharray="5,2" d="M693.2713,-340.7386C710.9575,-338.3454 730.1916,-336.0335 748,-334.5 830.5265,-327.3935 926.5433,-324.8772 985.4142,-323.9868"/>
<polygon fill="#ffa500" stroke="#ffa500" points="692.485,-337.314 683.0592,-342.1518 693.4447,-344.2479 692.485,-337.314"/>
<text text-anchor="middle" x="834" y="-337.5" font-family="Helvetica,sans-Serif" font-size="10.00" fill="#000000"> &lt; ConcreteLinOp &gt;</text>
</g>
<!-- Node26 -->
<g id="node22" class="node">
<title>Node26</title>
<g id="a_node22"><a xlink:href="classgko_1_1ConvertibleTo.html" target="_top" xlink:title=" ">
<polygon fill="#ffffff" stroke="#000000" points="1163.5,-340 1163.5,-381 1330.5,-381 1330.5,-340 1163.5,-340"/>
<text text-anchor="start" x="1171.5" y="-369" font-family="Helvetica,sans-Serif" font-size="10.00" fill="#000000">gko::ConvertibleTo</text>
<text text-anchor="start" x="1171.5" y="-358" font-family="Helvetica,sans-Serif" font-size="10.00" fill="#000000">&lt; Coo&lt; next_precision</text>
<text text-anchor="middle" x="1247" y="-347" font-family="Helvetica,sans-Serif" font-size="10.00" fill="#000000">&lt; ValueType &gt;, IndexType &gt; &gt;</text>
</a>
</g>
</g>
<!-- Node17&#45;&gt;Node26 -->
<g id="edge31" class="edge">
<title>Node17&#45;&gt;Node26</title>
<path fill="none" stroke="#ffa500" stroke-dasharray="5,2" d="M693.3784,-351.5345C805.6904,-353.3533 1038.4461,-357.1226 1163.3964,-359.1461"/>
<polygon fill="#ffa500" stroke="#ffa500" points="693.2743,-348.0324 683.2189,-351.3699 693.1608,-355.0315 693.2743,-348.0324"/>
<text text-anchor="start" x="758.5" y="-368.5" font-family="Helvetica,sans-Serif" font-size="10.00" fill="#000000"> &lt; Coo&lt; next_precision</text>
<text text-anchor="middle" x="834" y="-357.5" font-family="Helvetica,sans-Serif" font-size="10.00" fill="#000000">&lt; ValueType &gt;, IndexType &gt; &gt;</text>
</g>
<!-- Node27 -->
<g id="node23" class="node">
<title>Node27</title>
<g id="a_node23"><a xlink:href="classgko_1_1ConvertibleTo.html" target="_top" xlink:title=" ">
<polygon fill="#ffffff" stroke="#000000" points="1570,-434.5 1570,-464.5 1752,-464.5 1752,-434.5 1570,-434.5"/>
<text text-anchor="start" x="1578" y="-452.5" font-family="Helvetica,sans-Serif" font-size="10.00" fill="#000000">gko::ConvertibleTo</text>
<text text-anchor="middle" x="1661" y="-441.5" font-family="Helvetica,sans-Serif" font-size="10.00" fill="#000000">&lt; Csr&lt; ValueType, IndexType &gt; &gt;</text>
</a>
</g>
</g>
<!-- Node17&#45;&gt;Node27 -->
<g id="edge33" class="edge">
<title>Node17&#45;&gt;Node27</title>
<path fill="none" stroke="#ffa500" stroke-dasharray="5,2" d="M656.8588,-371.7524C679.7859,-388.1969 714.1205,-409.7554 748,-419.5 1038.7283,-503.1212 1403.1005,-478.7832 1569.9578,-460.9441"/>
<polygon fill="#ffa500" stroke="#ffa500" points="658.7886,-368.8274 648.655,-365.7356 654.6488,-374.472 658.7886,-368.8274"/>
<text text-anchor="middle" x="1040.5" y="-478.5" font-family="Helvetica,sans-Serif" font-size="10.00" fill="#000000"> &lt; Csr&lt; ValueType, IndexType &gt; &gt;</text>
</g>
<!-- Node28 -->
<g id="node24" class="node">
<title>Node28</title>
<g id="a_node24"><a xlink:href="classgko_1_1ConvertibleTo.html" target="_top" xlink:title=" ">
<polygon fill="#ffffff" stroke="#000000" points="1969,-385.5 1969,-415.5 2111,-415.5 2111,-385.5 1969,-385.5"/>
<text text-anchor="start" x="1977" y="-403.5" font-family="Helvetica,sans-Serif" font-size="10.00" fill="#000000">gko::ConvertibleTo</text>
<text text-anchor="middle" x="2040" y="-392.5" font-family="Helvetica,sans-Serif" font-size="10.00" fill="#000000">&lt; Dense&lt; ValueType &gt; &gt;</text>
</a>
</g>
</g>
<!-- Node17&#45;&gt;Node28 -->
<g id="edge35" class="edge">
<title>Node17&#45;&gt;Node28</title>
<path fill="none" stroke="#ffa500" stroke-dasharray="5,2" d="M691.2026,-368.142C709.3694,-372.7858 729.3707,-377.3672 748,-380.5 876.6673,-402.1377 910.026,-405.5 1040.5,-405.5 1040.5,-405.5 1040.5,-405.5 1661,-405.5 1768.2611,-405.5 1892.5826,-403.4729 1968.7543,-402.0002"/>
<polygon fill="#ffa500" stroke="#ffa500" points="691.8786,-364.7013 681.319,-365.5645 690.1121,-371.4748 691.8786,-364.7013"/>
<text text-anchor="middle" x="1247" y="-408.5" font-family="Helvetica,sans-Serif" font-size="10.00" fill="#000000"> &lt; Dense&lt; ValueType &gt; &gt;</text>
</g>
<!-- Node18&#45;&gt;Node15 -->
<g id="edge16" class="edge">
<title>Node18&#45;&gt;Node15</title>
<path fill="none" stroke="#ffa500" stroke-dasharray="5,2" d="M1146.581,-267.4312C1151.4545,-267.1147 1156.2792,-266.803 1161,-266.5 1225.7987,-262.3415 1298.7391,-257.8225 1355.3212,-254.3527"/>
<polygon fill="#ffa500" stroke="#ffa500" points="1146.2774,-263.9435 1136.5263,-268.0865 1146.7328,-270.9286 1146.2774,-263.9435"/>
<text text-anchor="middle" x="1247" y="-269.5" font-family="Helvetica,sans-Serif" font-size="10.00" fill="#000000"> &lt; Coo&lt; ValueType, IndexType &gt; &gt;</text>
</g>
<!-- Node22 -->
<g id="node18" class="node">
<title>Node22</title>
<g id="a_node18"><a xlink:href="classgko_1_1EnablePolymorphicAssignment.html" target="_top" xlink:title=" ">
<polygon fill="#ffffff" stroke="#000000" points="1355.5,-283.5 1355.5,-313.5 1547.5,-313.5 1547.5,-283.5 1355.5,-283.5"/>
<text text-anchor="start" x="1363.5" y="-301.5" font-family="Helvetica,sans-Serif" font-size="10.00" fill="#000000">gko::EnablePolymorphicAssignment</text>
<text text-anchor="middle" x="1451.5" y="-290.5" font-family="Helvetica,sans-Serif" font-size="10.00" fill="#000000">&lt; ConcreteLinOp &gt;</text>
</a>
</g>
</g>
<!-- Node18&#45;&gt;Node22 -->
<g id="edge27" class="edge">
<title>Node18&#45;&gt;Node22</title>
<path fill="none" stroke="#ffa500" stroke-dasharray="5,2" d="M1146.7889,-280.7067C1211.2129,-284.4686 1292.7527,-289.2301 1355.2683,-292.8806"/>
<polygon fill="#ffa500" stroke="#ffa500" points="1146.7888,-277.2008 1136.6018,-280.1118 1146.3807,-284.1889 1146.7888,-277.2008"/>
<text text-anchor="middle" x="1247" y="-293.5" font-family="Helvetica,sans-Serif" font-size="10.00" fill="#000000"> &lt; ConcreteLinOp &gt;</text>
</g>
<!-- Node19 -->
<g id="node15" class="node">
<title>Node19</title>
<g id="a_node15"><a xlink:href="classgko_1_1EnableLinOp.html" target="_top" xlink:title="The EnableLinOp mixin can be used to provide sensible default implementations of the majority of the ...">
<polygon fill="#ffffff" stroke="#000000" points="1775,-280.5 1775,-310.5 1931,-310.5 1931,-280.5 1775,-280.5"/>
<text text-anchor="start" x="1783" y="-298.5" font-family="Helvetica,sans-Serif" font-size="10.00" fill="#000000">gko::EnableLinOp&lt; Concrete</text>
<text text-anchor="middle" x="1853" y="-287.5" font-family="Helvetica,sans-Serif" font-size="10.00" fill="#000000">LinOp, PolymorphicBase &gt;</text>
</a>
</g>
</g>
<!-- Node19&#45;&gt;Node2 -->
<g id="edge18" class="edge">
<title>Node19&#45;&gt;Node2</title>
<path fill="none" stroke="#ffa500" stroke-dasharray="5,2" d="M1941.4083,-295.5C2007.1102,-295.5 2095.8952,-295.5 2158.8682,-295.5"/>
<polygon fill="#ffa500" stroke="#ffa500" points="1941.0692,-292.0001 1931.0692,-295.5 1941.0692,-299.0001 1941.0692,-292.0001"/>
<text text-anchor="middle" x="2040" y="-298.5" font-family="Helvetica,sans-Serif" font-size="10.00" fill="#000000"> &lt; Coo&lt; ValueType, IndexType &gt; &gt;</text>
</g>
<!-- Node20&#45;&gt;Node19 -->
<g id="edge19" class="edge">
<title>Node20&#45;&gt;Node19</title>
<path fill="none" stroke="#191970" d="M1514.1793,-199.2969C1592.7935,-221.6182 1726.1997,-259.4969 1799.9809,-280.446"/>
<polygon fill="#191970" stroke="#191970" points="1514.9777,-195.8853 1504.402,-196.5207 1513.0657,-202.6191 1514.9777,-195.8853"/>
</g>
<!-- Node21&#45;&gt;Node20 -->
<g id="edge20" class="edge">
<title>Node21&#45;&gt;Node20</title>
<path fill="none" stroke="#191970" d="M738.5994,-181.5C898.8583,-181.5 1195.6624,-181.5 1350.9174,-181.5"/>
<polygon fill="#191970" stroke="#191970" points="738.2439,-178.0001 728.2438,-181.5 738.2438,-185.0001 738.2439,-178.0001"/>
</g>
<!-- Node22&#45;&gt;Node19 -->
<g id="edge24" class="edge">
<title>Node22&#45;&gt;Node19</title>
<path fill="none" stroke="#191970" d="M1558.0072,-297.7042C1626.1349,-297.1951 1712.9941,-296.5461 1774.7782,-296.0845"/>
<polygon fill="#191970" stroke="#191970" points="1557.6428,-294.2067 1547.6693,-297.7814 1557.6952,-301.2065 1557.6428,-294.2067"/>
</g>
<!-- Node23&#45;&gt;Node22 -->
<g id="edge25" class="edge">
<title>Node23&#45;&gt;Node22</title>
<path fill="none" stroke="#191970" d="M1105.5331,-319.5442C1172.6921,-315.4591 1278.2366,-309.0391 1355.1012,-304.3637"/>
<polygon fill="#191970" stroke="#191970" points="1105.2718,-316.0535 1095.5028,-320.1543 1105.6969,-323.0406 1105.2718,-316.0535"/>
</g>
<!-- Node24 -->
<g id="node20" class="node">
<title>Node24</title>
<g id="a_node20"><a xlink:href="classgko_1_1EnableCreateMethod.html" target="_top" xlink:title=" ">
<polygon fill="#ffffff" stroke="#000000" points="2144,-231.5 2144,-261.5 2329,-261.5 2329,-231.5 2144,-231.5"/>
<text text-anchor="start" x="2152" y="-249.5" font-family="Helvetica,sans-Serif" font-size="10.00" fill="#000000">gko::EnableCreateMethod</text>
<text text-anchor="middle" x="2236.5" y="-238.5" font-family="Helvetica,sans-Serif" font-size="10.00" fill="#000000">&lt; Coo&lt; ValueType, IndexType &gt; &gt;</text>
</a>
</g>
</g>
<!-- Node24&#45;&gt;Node1 -->
<g id="edge28" class="edge">
<title>Node24&#45;&gt;Node1</title>
<path fill="none" stroke="#191970" d="M2310.7755,-263.8309C2334.0907,-269.2712 2359.6222,-275.2285 2382.1878,-280.4938"/>
<polygon fill="#191970" stroke="#191970" points="2311.4678,-260.3985 2300.9341,-261.5346 2309.8772,-267.2154 2311.4678,-260.3985"/>
</g>
<!-- Node25 -->
<g id="node21" class="node">
<title>Node25</title>
<g id="a_node21"><a xlink:href="classgko_1_1EnableCreateMethod.html" target="_top" xlink:title="This mixin implements a static create() method on ConcreteType that dynamically allocates the memory,...">
<polygon fill="#ffffff" stroke="#000000" points="1782,-88.5 1782,-118.5 1924,-118.5 1924,-88.5 1782,-88.5"/>
<text text-anchor="start" x="1790" y="-106.5" font-family="Helvetica,sans-Serif" font-size="10.00" fill="#000000">gko::EnableCreateMethod</text>
<text text-anchor="middle" x="1853" y="-95.5" font-family="Helvetica,sans-Serif" font-size="10.00" fill="#000000">&lt; ConcreteType &gt;</text>
</a>
</g>
</g>
<!-- Node25&#45;&gt;Node24 -->
<g id="edge29" class="edge">
<title>Node25&#45;&gt;Node24</title>
<path fill="none" stroke="#ffa500" stroke-dasharray="5,2" d="M1934.3638,-96.343C1994.7183,-95.6596 2075.0465,-105.1885 2126,-152.5 2149.5403,-174.3576 2121.3101,-199.7608 2144,-222.5 2147.3984,-225.9058 2151.2139,-228.848 2155.3084,-231.3878"/>
<polygon fill="#ffa500" stroke="#ffa500" points="1934.0233,-92.8493 1924.0991,-96.5588 1934.1705,-99.8478 1934.0233,-92.8493"/>
<text text-anchor="middle" x="2040" y="-155.5" font-family="Helvetica,sans-Serif" font-size="10.00" fill="#000000"> &lt; Coo&lt; ValueType, IndexType &gt; &gt;</text>
</g>
<!-- Node26&#45;&gt;Node1 -->
<g id="edge30" class="edge">
<title>Node26&#45;&gt;Node1</title>
<path fill="none" stroke="#191970" d="M1340.6631,-357.6583C1424.5667,-355.3586 1550.9897,-352.5 1661,-352.5 1661,-352.5 1661,-352.5 2236.5,-352.5 2300.5328,-352.5 2371.8338,-327.5118 2412.7071,-310.6253"/>
<polygon fill="#191970" stroke="#191970" points="1340.5449,-354.1601 1330.6456,-357.9357 1340.7387,-361.1574 1340.5449,-354.1601"/>
</g>
<!-- Node27&#45;&gt;Node1 -->
<g id="edge32" class="edge">
<title>Node27&#45;&gt;Node1</title>
<path fill="none" stroke="#191970" d="M1762.246,-463.2257C1897.8912,-477.0598 2143.0557,-485.8424 2329,-401.5 2375.2869,-380.5047 2416.0371,-334.4976 2435.0803,-310.5929"/>
<polygon fill="#191970" stroke="#191970" points="1762.5815,-459.7418 1752.2708,-462.179 1761.8509,-466.7036 1762.5815,-459.7418"/>
</g>
<!-- Node28&#45;&gt;Node1 -->
<g id="edge34" class="edge">
<title>Node28&#45;&gt;Node1</title>
<path fill="none" stroke="#191970" d="M2121.5948,-402.6761C2185.264,-401.7592 2274.8735,-394.6321 2348,-366.5 2380.8564,-353.86 2412.7624,-327.497 2430.9758,-310.6943"/>
<polygon fill="#191970" stroke="#191970" points="2121.1764,-399.1798 2111.2099,-402.7741 2121.2425,-406.1795 2121.1764,-399.1798"/>
</g>
<!-- Node29 -->
<g id="node25" class="node">
<title>Node29</title>
<g id="a_node25"><a xlink:href="classgko_1_1ReadableFromMatrixData.html" target="_top" xlink:title="A LinOp implementing this interface can read its data from a matrix_data structure.">
<polygon fill="#ffffff" stroke="#000000" points="2154.5,-182.5 2154.5,-212.5 2318.5,-212.5 2318.5,-182.5 2154.5,-182.5"/>
<text text-anchor="start" x="2162.5" y="-200.5" font-family="Helvetica,sans-Serif" font-size="10.00" fill="#000000">gko::ReadableFromMatrixData</text>
<text text-anchor="middle" x="2236.5" y="-189.5" font-family="Helvetica,sans-Serif" font-size="10.00" fill="#000000">&lt; ValueType, IndexType &gt;</text>
</a>
</g>
</g>
<!-- Node29&#45;&gt;Node1 -->
<g id="edge36" class="edge">
<title>Node29&#45;&gt;Node1</title>
<path fill="none" stroke="#191970" d="M2311.919,-215.8889C2317.7707,-217.9186 2323.5266,-220.1215 2329,-222.5 2365.3426,-238.2931 2403.6492,-264.0536 2426.2907,-280.3721"/>
<polygon fill="#191970" stroke="#191970" points="2312.6063,-212.4308 2302.0134,-212.6361 2310.4223,-219.0814 2312.6063,-212.4308"/>
</g>
<!-- Node30 -->
<g id="node26" class="node">
<title>Node30</title>
<g id="a_node26"><a xlink:href="classgko_1_1WritableToMatrixData.html" target="_top" xlink:title="A LinOp implementing this interface can write its data to a matrix_data structure.">
<polygon fill="#ffffff" stroke="#000000" points="2163.5,-133.5 2163.5,-163.5 2309.5,-163.5 2309.5,-133.5 2163.5,-133.5"/>
<text text-anchor="start" x="2171.5" y="-151.5" font-family="Helvetica,sans-Serif" font-size="10.00" fill="#000000">gko::WritableToMatrixData</text>
<text text-anchor="middle" x="2236.5" y="-140.5" font-family="Helvetica,sans-Serif" font-size="10.00" fill="#000000">&lt; ValueType, IndexType &gt;</text>
</a>
</g>
</g>
<!-- Node30&#45;&gt;Node1 -->
<g id="edge37" class="edge">
<title>Node30&#45;&gt;Node1</title>
<path fill="none" stroke="#191970" d="M2317.3746,-167.4737C2321.3941,-169.3053 2325.2951,-171.3089 2329,-173.5 2376.5855,-201.6422 2417.6483,-254.246 2436.1055,-280.2061"/>
<polygon fill="#191970" stroke="#191970" points="2318.3947,-164.1076 2307.817,-163.5049 2315.7101,-170.5724 2318.3947,-164.1076"/>
</g>
</g>
</svg>
