<?xml version="1.0" encoding="UTF-8" standalone="no"?>
<!DOCTYPE svg PUBLIC "-//W3C//DTD SVG 1.1//EN"
 "http://www.w3.org/Graphics/SVG/1.1/DTD/svg11.dtd">
<!-- Generated by graphviz version 2.40.1 (20161225.0304)
 -->
<!-- Title: gko::multigrid::AmgxPgm&lt; ValueType, IndexType &gt; Pages: 1 -->
<!--zoomable 363 -->
<svg id="main" version="1.1" xmlns="http://www.w3.org/2000/svg" xmlns:xlink="http://www.w3.org/1999/xlink" xml:space="preserve" onload="init(evt)">
<style type="text/css"><![CDATA[
.edge:hover path { stroke: red; }
.edge:hover polygon { stroke: red; fill: red; }
]]></style>
<script type="text/javascript"><![CDATA[
var edges = document.getElementsByTagName('g');
if (edges && edges.length) {
  for (var i=0;i<edges.length;i++) {
    if (edges[i].id.substr(0,4)=='edge') {
      edges[i].setAttribute('class','edge');
    }
  }
}
]]></script>
        <defs>
                <circle id="rim" cx="0" cy="0" r="7"/>
                <circle id="rim2" cx="0" cy="0" r="3.5"/>
                <g id="zoomPlus">
                        <use xlink:href="#rim" fill="#404040">
                                <set attributeName="fill" to="#808080" begin="zoomplus.mouseover" end="zoomplus.mouseout"/>
                        </use>
                        <path d="M-4,0h8M0,-4v8" fill="none" stroke="white" stroke-width="1.5" pointer-events="none"/>
                </g>
                <g id="zoomMin">
                        <use xlink:href="#rim" fill="#404040">
                                <set attributeName="fill" to="#808080" begin="zoomminus.mouseover" end="zoomminus.mouseout"/>
                        </use>
                        <path d="M-4,0h8" fill="none" stroke="white" stroke-width="1.5" pointer-events="none"/>
                </g>
                <g id="dirArrow">
                        <path fill="none" stroke="white" stroke-width="1.5" d="M0,-3.0v7 M-2.5,-0.5L0,-3.0L2.5,-0.5"/>
                </g>
               <g id="resetDef">
                       <use xlink:href="#rim2" fill="#404040">
                               <set attributeName="fill" to="#808080" begin="reset.mouseover" end="reset.mouseout"/>
                       </use>
               </g>
        </defs>

<script type="text/javascript">
var viewWidth = 2258;
var viewHeight = 363;
var sectionId = 'dynsection-0';
</script>
<script xlink:href="svgpan.js"/>
<svg id="graph" class="graph">
<g id="viewport">
<title>gko::multigrid::AmgxPgm&lt; ValueType, IndexType &gt;</title>
<polygon fill="#ffffff" stroke="transparent" points="-4,4 -4,-358.5 2254,-358.5 2254,4 -4,4"/>
<!-- Node1 -->
<g id="node1" class="node">
<title>Node1</title>
<g id="a_node1"><a xlink:title="Amgx parallel graph match (AmgxPgm) is the aggregate method introduced in the paper M.">
<polygon fill="#bfbfbf" stroke="#000000" points="2106,-73.5 2106,-103.5 2250,-103.5 2250,-73.5 2106,-73.5"/>
<text text-anchor="start" x="2114" y="-91.5" font-family="Helvetica,sans-Serif" font-size="10.00" fill="#000000">gko::multigrid::AmgxPgm</text>
<text text-anchor="middle" x="2178" y="-80.5" font-family="Helvetica,sans-Serif" font-size="10.00" fill="#000000">&lt; ValueType, IndexType &gt;</text>
</a>
</g>
</g>
<!-- Node2 -->
<g id="node2" class="node">
<title>Node2</title>
<g id="a_node2"><a xlink:href="classgko_1_1EnableLinOp.html" target="_top" xlink:title=" ">
<polygon fill="#ffffff" stroke="#000000" points="1904,-114.5 1904,-144.5 2067,-144.5 2067,-114.5 1904,-114.5"/>
<text text-anchor="start" x="1912" y="-132.5" font-family="Helvetica,sans-Serif" font-size="10.00" fill="#000000">gko::EnableLinOp&lt; AmgxPgm</text>
<text text-anchor="middle" x="1985.5" y="-121.5" font-family="Helvetica,sans-Serif" font-size="10.00" fill="#000000">&lt; ValueType, IndexType &gt; &gt;</text>
</a>
</g>
</g>
<!-- Node2&#45;&gt;Node1 -->
<g id="edge1" class="edge">
<title>Node2&#45;&gt;Node1</title>
<path fill="none" stroke="#191970" d="M2066.0062,-112.3532C2079.7588,-109.4241 2093.9521,-106.4011 2107.4217,-103.5323"/>
<polygon fill="#191970" stroke="#191970" points="2065.1383,-108.9595 2056.0868,-114.4659 2066.5966,-115.8059 2065.1383,-108.9595"/>
</g>
<!-- Node3 -->
<g id="node3" class="node">
<title>Node3</title>
<g id="a_node3"><a xlink:href="classgko_1_1EnablePolymorphicObject.html" target="_top" xlink:title=" ">
<polygon fill="#ffffff" stroke="#000000" points="1543,-233 1543,-274 1737,-274 1737,-233 1543,-233"/>
<text text-anchor="start" x="1551" y="-262" font-family="Helvetica,sans-Serif" font-size="10.00" fill="#000000">gko::EnablePolymorphicObject</text>
<text text-anchor="start" x="1551" y="-251" font-family="Helvetica,sans-Serif" font-size="10.00" fill="#000000">&lt; AmgxPgm&lt; ValueType, IndexType</text>
<text text-anchor="middle" x="1640" y="-240" font-family="Helvetica,sans-Serif" font-size="10.00" fill="#000000"> &gt;, LinOp &gt;</text>
</a>
</g>
</g>
<!-- Node3&#45;&gt;Node2 -->
<g id="edge2" class="edge">
<title>Node3&#45;&gt;Node2</title>
<path fill="none" stroke="#191970" d="M1711.7098,-229.7345C1760.4812,-213.3456 1826.3712,-190.7635 1884,-169.5 1905.5011,-161.5666 1929.3525,-152.1966 1948.5289,-144.5204"/>
<polygon fill="#191970" stroke="#191970" points="1710.559,-226.4288 1702.1913,-232.9274 1712.7853,-233.0653 1710.559,-226.4288"/>
</g>
<!-- Node4 -->
<g id="node4" class="node">
<title>Node4</title>
<g id="a_node4"><a xlink:href="classgko_1_1EnableAbstractPolymorphicObject.html" target="_top" xlink:title=" ">
<polygon fill="#ffffff" stroke="#000000" points="1310,-294 1310,-335 1485,-335 1485,-294 1310,-294"/>
<text text-anchor="start" x="1318" y="-323" font-family="Helvetica,sans-Serif" font-size="10.00" fill="#000000">gko::EnableAbstractPolymorphic</text>
<text text-anchor="start" x="1318" y="-312" font-family="Helvetica,sans-Serif" font-size="10.00" fill="#000000">Object&lt; AmgxPgm&lt; ValueType,</text>
<text text-anchor="middle" x="1397.5" y="-301" font-family="Helvetica,sans-Serif" font-size="10.00" fill="#000000"> IndexType &gt;, LinOp &gt;</text>
</a>
</g>
</g>
<!-- Node4&#45;&gt;Node3 -->
<g id="edge3" class="edge">
<title>Node4&#45;&gt;Node3</title>
<path fill="none" stroke="#191970" d="M1489.2172,-291.4289C1511.885,-285.7269 1536.0192,-279.656 1558.1812,-274.0812"/>
<polygon fill="#191970" stroke="#191970" points="1488.1054,-288.0994 1479.2614,-293.9332 1489.8131,-294.8879 1488.1054,-288.0994"/>
</g>
<!-- Node5 -->
<g id="node5" class="node">
<title>Node5</title>
<g id="a_node5"><a xlink:href="classgko_1_1LinOp.html" target="_top" xlink:title=" ">
<polygon fill="#ffffff" stroke="#000000" points="963.5,-301 963.5,-320 1031.5,-320 1031.5,-301 963.5,-301"/>
<text text-anchor="middle" x="997.5" y="-308" font-family="Helvetica,sans-Serif" font-size="10.00" fill="#000000">gko::LinOp</text>
</a>
</g>
</g>
<!-- Node5&#45;&gt;Node4 -->
<g id="edge4" class="edge">
<title>Node5&#45;&gt;Node4</title>
<path fill="none" stroke="#191970" d="M1041.8142,-310.9431C1106.184,-311.5868 1226.8863,-312.7939 1309.6796,-313.6218"/>
<polygon fill="#191970" stroke="#191970" points="1041.6383,-307.4413 1031.6038,-310.841 1041.5682,-314.441 1041.6383,-307.4413"/>
</g>
<!-- Node6 -->
<g id="node6" class="node">
<title>Node6</title>
<g id="a_node6"><a xlink:href="classgko_1_1EnableAbstractPolymorphicObject.html" target="_top" xlink:title=" ">
<polygon fill="#ffffff" stroke="#ff0000" points="542,-292.5 542,-322.5 717,-322.5 717,-292.5 542,-292.5"/>
<text text-anchor="start" x="550" y="-310.5" font-family="Helvetica,sans-Serif" font-size="10.00" fill="#000000">gko::EnableAbstractPolymorphic</text>
<text text-anchor="middle" x="629.5" y="-299.5" font-family="Helvetica,sans-Serif" font-size="10.00" fill="#000000">Object&lt; LinOp &gt;</text>
</a>
</g>
</g>
<!-- Node6&#45;&gt;Node5 -->
<g id="edge5" class="edge">
<title>Node6&#45;&gt;Node5</title>
<path fill="none" stroke="#191970" d="M727.5197,-308.2991C805.5493,-308.9352 910.1921,-309.7883 963.3753,-310.2218"/>
<polygon fill="#191970" stroke="#191970" points="727.2059,-304.7965 717.1776,-308.2148 727.1487,-311.7963 727.2059,-304.7965"/>
</g>
<!-- Node11 -->
<g id="node7" class="node">
<title>Node11</title>
<g id="a_node7"><a xlink:href="classgko_1_1EnableAbstractPolymorphicObject.html" target="_top" xlink:title="This mixin inherits from (a subclass of) PolymorphicObject and provides a base implementation of a ne...">
<polygon fill="#ffffff" stroke="#000000" points="138,-251 138,-292 336,-292 336,-251 138,-251"/>
<text text-anchor="start" x="146" y="-280" font-family="Helvetica,sans-Serif" font-size="10.00" fill="#000000">gko::EnableAbstractPolymorphic</text>
<text text-anchor="start" x="146" y="-269" font-family="Helvetica,sans-Serif" font-size="10.00" fill="#000000">Object&lt; AbstractObject, Polymorphic</text>
<text text-anchor="middle" x="237" y="-258" font-family="Helvetica,sans-Serif" font-size="10.00" fill="#000000">Base &gt;</text>
</a>
</g>
</g>
<!-- Node11&#45;&gt;Node4 -->
<g id="edge8" class="edge">
<title>Node11&#45;&gt;Node4</title>
<path fill="none" stroke="#ffa500" stroke-dasharray="5,2" d="M290.9619,-295.831C310.4575,-303.6577 332.8721,-311.5714 354,-316.5 430.0601,-334.2428 450.979,-328.9407 529,-332.5 598.3521,-335.6638 1014.2528,-330.5998 1100,-329.5 1176.0054,-328.5252 1195.1077,-330.759 1271,-326.5 1283.5547,-325.7954 1296.7899,-324.8097 1309.7803,-323.703"/>
<polygon fill="#ffa500" stroke="#ffa500" points="292.2245,-292.5659 281.6443,-292.0092 289.568,-299.0423 292.2245,-292.5659"/>
<text text-anchor="start" x="748" y="-346.5" font-family="Helvetica,sans-Serif" font-size="10.00" fill="#000000"> &lt; AmgxPgm&lt; ValueType,</text>
<text text-anchor="middle" x="812.5" y="-335.5" font-family="Helvetica,sans-Serif" font-size="10.00" fill="#000000"> IndexType &gt;, LinOp &gt;</text>
</g>
<!-- Node11&#45;&gt;Node6 -->
<g id="edge6" class="edge">
<title>Node11&#45;&gt;Node6</title>
<path fill="none" stroke="#ffa500" stroke-dasharray="5,2" d="M346.2787,-288.6196C348.8759,-288.9272 351.4527,-289.2214 354,-289.5 416.6567,-296.3533 487.6365,-300.9154 541.8562,-303.7318"/>
<polygon fill="#ffa500" stroke="#ffa500" points="346.5317,-285.1244 336.178,-287.3716 345.6733,-292.0715 346.5317,-285.1244"/>
<text text-anchor="middle" x="432.5" y="-304.5" font-family="Helvetica,sans-Serif" font-size="10.00" fill="#000000"> &lt; LinOp &gt;</text>
</g>
<!-- Node14 -->
<g id="node10" class="node">
<title>Node14</title>
<g id="a_node10"><a xlink:href="classgko_1_1EnableAbstractPolymorphicObject.html" target="_top" xlink:title=" ">
<polygon fill="#ffffff" stroke="#000000" points="529,-228 529,-269 730,-269 730,-228 529,-228"/>
<text text-anchor="start" x="537" y="-257" font-family="Helvetica,sans-Serif" font-size="10.00" fill="#000000">gko::EnableAbstractPolymorphic</text>
<text text-anchor="start" x="537" y="-246" font-family="Helvetica,sans-Serif" font-size="10.00" fill="#000000">Object&lt; ConcreteObject, Polymorphic</text>
<text text-anchor="middle" x="629.5" y="-235" font-family="Helvetica,sans-Serif" font-size="10.00" fill="#000000">Base &gt;</text>
</a>
</g>
</g>
<!-- Node11&#45;&gt;Node14 -->
<g id="edge12" class="edge">
<title>Node11&#45;&gt;Node14</title>
<path fill="none" stroke="#ffa500" stroke-dasharray="5,2" d="M346.2032,-265.1008C403.3756,-261.7506 472.9091,-257.676 528.78,-254.4021"/>
<polygon fill="#ffa500" stroke="#ffa500" points="345.8224,-261.617 336.0443,-265.6961 346.232,-268.6051 345.8224,-261.617"/>
<text text-anchor="start" x="354" y="-277.5" font-family="Helvetica,sans-Serif" font-size="10.00" fill="#000000"> &lt; ConcreteObject, Polymorphic</text>
<text text-anchor="middle" x="432.5" y="-266.5" font-family="Helvetica,sans-Serif" font-size="10.00" fill="#000000">Base &gt;</text>
</g>
<!-- Node21 -->
<g id="node17" class="node">
<title>Node21</title>
<g id="a_node17"><a xlink:href="classgko_1_1EnableAbstractPolymorphicObject.html" target="_top" xlink:title=" ">
<polygon fill="#ffffff" stroke="#000000" points="531,-163 531,-204 728,-204 728,-163 531,-163"/>
<text text-anchor="start" x="539" y="-192" font-family="Helvetica,sans-Serif" font-size="10.00" fill="#000000">gko::EnableAbstractPolymorphic</text>
<text text-anchor="start" x="539" y="-181" font-family="Helvetica,sans-Serif" font-size="10.00" fill="#000000">Object&lt; ConcreteLinOp, Polymorphic</text>
<text text-anchor="middle" x="629.5" y="-170" font-family="Helvetica,sans-Serif" font-size="10.00" fill="#000000">Base &gt;</text>
</a>
</g>
</g>
<!-- Node11&#45;&gt;Node21 -->
<g id="edge22" class="edge">
<title>Node11&#45;&gt;Node21</title>
<path fill="none" stroke="#ffa500" stroke-dasharray="5,2" d="M297.6712,-247.3893C315.6025,-240.901 335.4104,-234.3467 354,-229.5 411.8331,-214.4216 477.8372,-203.1997 530.7395,-195.616"/>
<polygon fill="#ffa500" stroke="#ffa500" points="296.0987,-244.2384 287.9221,-250.9758 298.5156,-250.8079 296.0987,-244.2384"/>
<text text-anchor="start" x="356" y="-243.5" font-family="Helvetica,sans-Serif" font-size="10.00" fill="#000000"> &lt; ConcreteLinOp, Polymorphic</text>
<text text-anchor="middle" x="432.5" y="-232.5" font-family="Helvetica,sans-Serif" font-size="10.00" fill="#000000">Base &gt;</text>
</g>
<!-- Node12 -->
<g id="node8" class="node">
<title>Node12</title>
<g id="a_node8"><a xlink:title=" ">
<polygon fill="#ffffff" stroke="#bfbfbf" points="0,-184 0,-203 101,-203 101,-184 0,-184"/>
<text text-anchor="middle" x="50.5" y="-191" font-family="Helvetica,sans-Serif" font-size="10.00" fill="#000000">PolymorphicBase</text>
</a>
</g>
</g>
<!-- Node12&#45;&gt;Node11 -->
<g id="edge7" class="edge">
<title>Node12&#45;&gt;Node11</title>
<path fill="none" stroke="#191970" d="M82.5985,-206.9246C111.5007,-219.0123 154.4214,-236.9631 187.6791,-250.8725"/>
<polygon fill="#191970" stroke="#191970" points="83.9447,-203.6939 73.3686,-203.0643 81.2437,-210.1518 83.9447,-203.6939"/>
</g>
<!-- Node12&#45;&gt;Node14 -->
<g id="edge11" class="edge">
<title>Node12&#45;&gt;Node14</title>
<path fill="none" stroke="#191970" d="M111.2562,-189.5616C199.9452,-185.1131 369.6838,-181.5298 511,-207.5 512.6995,-207.8123 541.8767,-217.9052 570.8503,-227.9977"/>
<polygon fill="#191970" stroke="#191970" points="110.913,-186.0747 101.1095,-190.0923 111.2787,-193.0651 110.913,-186.0747"/>
</g>
<!-- Node12&#45;&gt;Node21 -->
<g id="edge21" class="edge">
<title>Node12&#45;&gt;Node21</title>
<path fill="none" stroke="#191970" d="M100.0089,-182.156C106.37,-181.0602 112.8183,-180.1252 119,-179.5 292.3378,-161.9679 336.8026,-176.5608 511,-179.5 517.4832,-179.6094 524.1651,-179.7524 530.8987,-179.9192"/>
<polygon fill="#191970" stroke="#191970" points="99.3286,-178.7224 90.1355,-183.9889 100.6063,-185.6048 99.3286,-178.7224"/>
</g>
<!-- Node13 -->
<g id="node9" class="node">
<title>Node13</title>
<g id="a_node9"><a xlink:href="classgko_1_1EnablePolymorphicObject.html" target="_top" xlink:title="This mixin inherits from (a subclass of) PolymorphicObject and provides a base implementation of a ne...">
<polygon fill="#ffffff" stroke="#000000" points="895,-233.5 895,-263.5 1100,-263.5 1100,-233.5 895,-233.5"/>
<text text-anchor="start" x="903" y="-251.5" font-family="Helvetica,sans-Serif" font-size="10.00" fill="#000000">gko::EnablePolymorphicObject</text>
<text text-anchor="middle" x="997.5" y="-240.5" font-family="Helvetica,sans-Serif" font-size="10.00" fill="#000000">&lt; ConcreteObject, PolymorphicBase &gt;</text>
</a>
</g>
</g>
<!-- Node13&#45;&gt;Node3 -->
<g id="edge9" class="edge">
<title>Node13&#45;&gt;Node3</title>
<path fill="none" stroke="#ffa500" stroke-dasharray="5,2" d="M1110.1826,-249.3769C1232.7695,-250.3309 1426.7251,-251.8403 1542.8444,-252.7439"/>
<polygon fill="#ffa500" stroke="#ffa500" points="1110.0434,-245.8758 1100.0165,-249.2978 1109.9889,-252.8756 1110.0434,-245.8758"/>
<text text-anchor="start" x="1333" y="-265.5" font-family="Helvetica,sans-Serif" font-size="10.00" fill="#000000"> &lt; AmgxPgm&lt; ValueType,</text>
<text text-anchor="middle" x="1397.5" y="-254.5" font-family="Helvetica,sans-Serif" font-size="10.00" fill="#000000"> IndexType &gt;, LinOp &gt;</text>
</g>
<!-- Node20 -->
<g id="node16" class="node">
<title>Node20</title>
<g id="a_node16"><a xlink:href="classgko_1_1EnablePolymorphicObject.html" target="_top" xlink:title=" ">
<polygon fill="#ffffff" stroke="#000000" points="1297,-170.5 1297,-200.5 1498,-200.5 1498,-170.5 1297,-170.5"/>
<text text-anchor="start" x="1305" y="-188.5" font-family="Helvetica,sans-Serif" font-size="10.00" fill="#000000">gko::EnablePolymorphicObject</text>
<text text-anchor="middle" x="1397.5" y="-177.5" font-family="Helvetica,sans-Serif" font-size="10.00" fill="#000000">&lt; ConcreteLinOp, PolymorphicBase &gt;</text>
</a>
</g>
</g>
<!-- Node13&#45;&gt;Node20 -->
<g id="edge23" class="edge">
<title>Node13&#45;&gt;Node20</title>
<path fill="none" stroke="#ffa500" stroke-dasharray="5,2" d="M1059.2435,-230.8736C1077.9947,-225.9931 1098.7345,-221.0634 1118,-217.5 1176.8327,-206.618 1243.3598,-198.8232 1296.7461,-193.6527"/>
<polygon fill="#ffa500" stroke="#ffa500" points="1058.1184,-227.5508 1049.3462,-233.4921 1059.9088,-234.318 1058.1184,-227.5508"/>
<text text-anchor="start" x="1118" y="-231.5" font-family="Helvetica,sans-Serif" font-size="10.00" fill="#000000"> &lt; ConcreteLinOp, Polymorphic</text>
<text text-anchor="middle" x="1194.5" y="-220.5" font-family="Helvetica,sans-Serif" font-size="10.00" fill="#000000">Base &gt;</text>
</g>
<!-- Node14&#45;&gt;Node13 -->
<g id="edge10" class="edge">
<title>Node14&#45;&gt;Node13</title>
<path fill="none" stroke="#191970" d="M740.0843,-248.5C789.2,-248.5 846.6641,-248.5 894.8233,-248.5"/>
<polygon fill="#191970" stroke="#191970" points="740.0577,-245.0001 730.0576,-248.5 740.0576,-252.0001 740.0577,-245.0001"/>
</g>
<!-- Node15 -->
<g id="node11" class="node">
<title>Node15</title>
<g id="a_node11"><a xlink:href="classgko_1_1EnablePolymorphicAssignment.html" target="_top" xlink:title=" ">
<polygon fill="#ffffff" stroke="#000000" points="1289,-53.5 1289,-83.5 1506,-83.5 1506,-53.5 1289,-53.5"/>
<text text-anchor="start" x="1297" y="-71.5" font-family="Helvetica,sans-Serif" font-size="10.00" fill="#000000">gko::EnablePolymorphicAssignment</text>
<text text-anchor="middle" x="1397.5" y="-60.5" font-family="Helvetica,sans-Serif" font-size="10.00" fill="#000000">&lt; AmgxPgm&lt; ValueType, IndexType &gt; &gt;</text>
</a>
</g>
</g>
<!-- Node15&#45;&gt;Node2 -->
<g id="edge13" class="edge">
<title>Node15&#45;&gt;Node2</title>
<path fill="none" stroke="#191970" d="M1506.9816,-84.939C1519.1224,-86.5721 1531.316,-88.1297 1543,-89.5 1668.6422,-104.2351 1814.9075,-116.5069 1903.8089,-123.4242"/>
<polygon fill="#191970" stroke="#191970" points="1507.1893,-81.435 1496.8081,-83.5519 1506.2436,-88.3708 1507.1893,-81.435"/>
</g>
<!-- Node16 -->
<g id="node12" class="node">
<title>Node16</title>
<g id="a_node12"><a xlink:href="classgko_1_1ConvertibleTo.html" target="_top" xlink:title=" ">
<polygon fill="#ffffff" stroke="#000000" points="926.5,-15 926.5,-56 1068.5,-56 1068.5,-15 926.5,-15"/>
<text text-anchor="start" x="934.5" y="-44" font-family="Helvetica,sans-Serif" font-size="10.00" fill="#000000">gko::ConvertibleTo</text>
<text text-anchor="start" x="934.5" y="-33" font-family="Helvetica,sans-Serif" font-size="10.00" fill="#000000">&lt; AmgxPgm&lt; ValueType,</text>
<text text-anchor="middle" x="997.5" y="-22" font-family="Helvetica,sans-Serif" font-size="10.00" fill="#000000"> IndexType &gt; &gt;</text>
</a>
</g>
</g>
<!-- Node16&#45;&gt;Node15 -->
<g id="edge14" class="edge">
<title>Node16&#45;&gt;Node15</title>
<path fill="none" stroke="#191970" d="M1078.8125,-42.2083C1139.2951,-47.1981 1222.467,-54.0598 1288.6771,-59.5221"/>
<polygon fill="#191970" stroke="#191970" points="1078.805,-38.6959 1068.5511,-41.3617 1078.2294,-45.6722 1078.805,-38.6959"/>
</g>
<!-- Node17 -->
<g id="node13" class="node">
<title>Node17</title>
<g id="a_node13"><a xlink:href="classgko_1_1ConvertibleTo.html" target="_top" xlink:title="ConvertibleTo interface is used to mark that the implementer can be converted to the object of Result...">
<polygon fill="#ffffff" stroke="#000000" points="576,-75.5 576,-105.5 683,-105.5 683,-75.5 576,-75.5"/>
<text text-anchor="start" x="584" y="-93.5" font-family="Helvetica,sans-Serif" font-size="10.00" fill="#000000">gko::ConvertibleTo</text>
<text text-anchor="middle" x="629.5" y="-82.5" font-family="Helvetica,sans-Serif" font-size="10.00" fill="#000000">&lt; ResultType &gt;</text>
</a>
</g>
</g>
<!-- Node17&#45;&gt;Node16 -->
<g id="edge15" class="edge">
<title>Node17&#45;&gt;Node16</title>
<path fill="none" stroke="#ffa500" stroke-dasharray="5,2" d="M693.4263,-75.2444C711.0413,-71.377 730.2007,-67.4794 748,-64.5 807.7828,-54.4931 876.2016,-46.8034 926.2533,-41.8648"/>
<polygon fill="#ffa500" stroke="#ffa500" points="692.2546,-71.9196 683.2552,-77.5109 693.7771,-78.752 692.2546,-71.9196"/>
<text text-anchor="start" x="748" y="-78.5" font-family="Helvetica,sans-Serif" font-size="10.00" fill="#000000"> &lt; AmgxPgm&lt; ValueType,</text>
<text text-anchor="middle" x="812.5" y="-67.5" font-family="Helvetica,sans-Serif" font-size="10.00" fill="#000000"> IndexType &gt; &gt;</text>
</g>
<!-- Node18 -->
<g id="node14" class="node">
<title>Node18</title>
<g id="a_node14"><a xlink:href="classgko_1_1EnablePolymorphicAssignment.html" target="_top" xlink:title="This mixin is used to enable a default PolymorphicObject::copy_from() implementation for objects that...">
<polygon fill="#ffffff" stroke="#000000" points="901.5,-75.5 901.5,-105.5 1093.5,-105.5 1093.5,-75.5 901.5,-75.5"/>
<text text-anchor="start" x="909.5" y="-93.5" font-family="Helvetica,sans-Serif" font-size="10.00" fill="#000000">gko::EnablePolymorphicAssignment</text>
<text text-anchor="middle" x="997.5" y="-82.5" font-family="Helvetica,sans-Serif" font-size="10.00" fill="#000000">&lt; ConcreteType, ResultType &gt;</text>
</a>
</g>
</g>
<!-- Node17&#45;&gt;Node18 -->
<g id="edge17" class="edge">
<title>Node17&#45;&gt;Node18</title>
<path fill="none" stroke="#191970" d="M693.0372,-90.5C750.436,-90.5 835.7367,-90.5 901.459,-90.5"/>
<polygon fill="#191970" stroke="#191970" points="693.0104,-87.0001 683.0104,-90.5 693.0103,-94.0001 693.0104,-87.0001"/>
</g>
<!-- Node23 -->
<g id="node19" class="node">
<title>Node23</title>
<g id="a_node19"><a xlink:href="classgko_1_1ConvertibleTo.html" target="_top" xlink:title=" ">
<polygon fill="#ffffff" stroke="#000000" points="942.5,-124.5 942.5,-154.5 1052.5,-154.5 1052.5,-124.5 942.5,-124.5"/>
<text text-anchor="start" x="950.5" y="-142.5" font-family="Helvetica,sans-Serif" font-size="10.00" fill="#000000">gko::ConvertibleTo</text>
<text text-anchor="middle" x="997.5" y="-131.5" font-family="Helvetica,sans-Serif" font-size="10.00" fill="#000000">&lt; ConcreteLinOp &gt;</text>
</a>
</g>
</g>
<!-- Node17&#45;&gt;Node23 -->
<g id="edge26" class="edge">
<title>Node17&#45;&gt;Node23</title>
<path fill="none" stroke="#ffa500" stroke-dasharray="5,2" d="M693.0764,-98.9653C763.4325,-108.3334 875.6748,-123.2787 942.4214,-132.1662"/>
<polygon fill="#ffa500" stroke="#ffa500" points="693.3849,-95.4756 683.0104,-97.625 692.4609,-102.4144 693.3849,-95.4756"/>
<text text-anchor="middle" x="812.5" y="-124.5" font-family="Helvetica,sans-Serif" font-size="10.00" fill="#000000"> &lt; ConcreteLinOp &gt;</text>
</g>
<!-- Node18&#45;&gt;Node15 -->
<g id="edge16" class="edge">
<title>Node18&#45;&gt;Node15</title>
<path fill="none" stroke="#ffa500" stroke-dasharray="5,2" d="M1082.1363,-73.8988C1094.1339,-72.0867 1106.3492,-70.5286 1118,-69.5 1174.1913,-64.539 1236.9847,-63.8774 1288.797,-64.6334"/>
<polygon fill="#ffa500" stroke="#ffa500" points="1081.4607,-70.462 1072.1267,-75.4747 1082.5494,-77.3768 1081.4607,-70.462"/>
<text text-anchor="start" x="1130" y="-83.5" font-family="Helvetica,sans-Serif" font-size="10.00" fill="#000000"> &lt; AmgxPgm&lt; ValueType,</text>
<text text-anchor="middle" x="1194.5" y="-72.5" font-family="Helvetica,sans-Serif" font-size="10.00" fill="#000000"> IndexType &gt; &gt;</text>
</g>
<!-- Node22 -->
<g id="node18" class="node">
<title>Node22</title>
<g id="a_node18"><a xlink:href="classgko_1_1EnablePolymorphicAssignment.html" target="_top" xlink:title=" ">
<polygon fill="#ffffff" stroke="#000000" points="1301.5,-121.5 1301.5,-151.5 1493.5,-151.5 1493.5,-121.5 1301.5,-121.5"/>
<text text-anchor="start" x="1309.5" y="-139.5" font-family="Helvetica,sans-Serif" font-size="10.00" fill="#000000">gko::EnablePolymorphicAssignment</text>
<text text-anchor="middle" x="1397.5" y="-128.5" font-family="Helvetica,sans-Serif" font-size="10.00" fill="#000000">&lt; ConcreteLinOp &gt;</text>
</a>
</g>
</g>
<!-- Node18&#45;&gt;Node22 -->
<g id="edge27" class="edge">
<title>Node18&#45;&gt;Node22</title>
<path fill="none" stroke="#ffa500" stroke-dasharray="5,2" d="M1103.6932,-102.4075C1154.3543,-108.1212 1215.8178,-115.101 1271,-121.5 1280.8858,-122.6464 1291.2049,-123.8532 1301.4994,-125.0638"/>
<polygon fill="#ffa500" stroke="#ffa500" points="1104.0392,-98.9244 1093.7101,-101.2822 1103.2551,-105.8804 1104.0392,-98.9244"/>
<text text-anchor="middle" x="1194.5" y="-124.5" font-family="Helvetica,sans-Serif" font-size="10.00" fill="#000000"> &lt; ConcreteLinOp &gt;</text>
</g>
<!-- Node19 -->
<g id="node15" class="node">
<title>Node19</title>
<g id="a_node15"><a xlink:href="classgko_1_1EnableLinOp.html" target="_top" xlink:title="The EnableLinOp mixin can be used to provide sensible default implementations of the majority of the ...">
<polygon fill="#ffffff" stroke="#000000" points="1562,-137.5 1562,-167.5 1718,-167.5 1718,-137.5 1562,-137.5"/>
<text text-anchor="start" x="1570" y="-155.5" font-family="Helvetica,sans-Serif" font-size="10.00" fill="#000000">gko::EnableLinOp&lt; Concrete</text>
<text text-anchor="middle" x="1640" y="-144.5" font-family="Helvetica,sans-Serif" font-size="10.00" fill="#000000">LinOp, PolymorphicBase &gt;</text>
</a>
</g>
</g>
<!-- Node19&#45;&gt;Node2 -->
<g id="edge18" class="edge">
<title>Node19&#45;&gt;Node2</title>
<path fill="none" stroke="#ffa500" stroke-dasharray="5,2" d="M1728.6497,-146.5986C1782.6418,-143.0043 1851.1315,-138.4449 1903.806,-134.9384"/>
<polygon fill="#ffa500" stroke="#ffa500" points="1728.1447,-143.1244 1718.3993,-147.2809 1728.6097,-150.1089 1728.1447,-143.1244"/>
<text text-anchor="start" x="1755" y="-157.5" font-family="Helvetica,sans-Serif" font-size="10.00" fill="#000000"> &lt; AmgxPgm&lt; ValueType,</text>
<text text-anchor="middle" x="1819.5" y="-146.5" font-family="Helvetica,sans-Serif" font-size="10.00" fill="#000000"> IndexType &gt; &gt;</text>
</g>
<!-- Node20&#45;&gt;Node19 -->
<g id="edge19" class="edge">
<title>Node20&#45;&gt;Node19</title>
<path fill="none" stroke="#191970" d="M1508.2307,-170.4315C1526.2995,-167.9726 1544.6823,-165.4711 1561.7576,-163.1474"/>
<polygon fill="#191970" stroke="#191970" points="1507.6718,-166.9752 1498.2351,-171.7917 1508.6157,-173.9113 1507.6718,-166.9752"/>
</g>
<!-- Node21&#45;&gt;Node20 -->
<g id="edge20" class="edge">
<title>Node21&#45;&gt;Node20</title>
<path fill="none" stroke="#191970" d="M738.409,-183.7836C887.3351,-184.1714 1152.4719,-184.8619 1296.9164,-185.2381"/>
<polygon fill="#191970" stroke="#191970" points="738.3394,-180.2835 728.3303,-183.7574 738.3211,-187.2835 738.3394,-180.2835"/>
</g>
<!-- Node22&#45;&gt;Node19 -->
<g id="edge24" class="edge">
<title>Node22&#45;&gt;Node19</title>
<path fill="none" stroke="#191970" d="M1503.8297,-143.5156C1523.3303,-144.8022 1543.3536,-146.1233 1561.8406,-147.3431"/>
<polygon fill="#191970" stroke="#191970" points="1503.8995,-140.0127 1493.6907,-142.8466 1503.4386,-146.9975 1503.8995,-140.0127"/>
</g>
<!-- Node23&#45;&gt;Node22 -->
<g id="edge25" class="edge">
<title>Node23&#45;&gt;Node22</title>
<path fill="none" stroke="#191970" d="M1062.7819,-139.0104C1127.5539,-138.5246 1227.5564,-137.7746 1301.3988,-137.2208"/>
<polygon fill="#191970" stroke="#191970" points="1062.6718,-135.511 1052.6983,-139.086 1062.7243,-142.5108 1062.6718,-135.511"/>
</g>
<!-- Node24 -->
<g id="node20" class="node">
<title>Node24</title>
<g id="a_node20"><a xlink:href="classgko_1_1multigrid_1_1EnableMultigridLevel.html" target="_top" xlink:title="The EnableMultigridLevel gives the default implementation of MultigridLevel with composition and prov...">
<polygon fill="#ffffff" stroke="#000000" points="1902,-49.5 1902,-79.5 2069,-79.5 2069,-49.5 1902,-49.5"/>
<text text-anchor="start" x="1910" y="-67.5" font-family="Helvetica,sans-Serif" font-size="10.00" fill="#000000">gko::multigrid::EnableMultigrid</text>
<text text-anchor="middle" x="1985.5" y="-56.5" font-family="Helvetica,sans-Serif" font-size="10.00" fill="#000000">Level&lt; ValueType &gt;</text>
</a>
</g>
</g>
<!-- Node24&#45;&gt;Node1 -->
<g id="edge28" class="edge">
<title>Node24&#45;&gt;Node1</title>
<path fill="none" stroke="#191970" d="M2079.2107,-76.1834C2088.1976,-77.3039 2097.214,-78.428 2105.9463,-79.5167"/>
<polygon fill="#191970" stroke="#191970" points="2079.4497,-72.6862 2069.0935,-74.922 2078.5836,-79.6324 2079.4497,-72.6862"/>
</g>
<!-- Node25 -->
<g id="node21" class="node">
<title>Node25</title>
<g id="a_node21"><a xlink:href="classgko_1_1multigrid_1_1MultigridLevel.html" target="_top" xlink:title="This class represents two levels in a multigrid hierarchy.">
<polygon fill="#ffffff" stroke="#000000" points="1573,-.5 1573,-30.5 1707,-30.5 1707,-.5 1573,-.5"/>
<text text-anchor="start" x="1581" y="-18.5" font-family="Helvetica,sans-Serif" font-size="10.00" fill="#000000">gko::multigrid::Multigrid</text>
<text text-anchor="middle" x="1640" y="-7.5" font-family="Helvetica,sans-Serif" font-size="10.00" fill="#000000">Level</text>
</a>
</g>
</g>
<!-- Node25&#45;&gt;Node24 -->
<g id="edge29" class="edge">
<title>Node25&#45;&gt;Node24</title>
<path fill="none" stroke="#191970" d="M1717.0409,-26.4262C1771.8964,-34.206 1845.5651,-44.6539 1901.8542,-52.6371"/>
<polygon fill="#191970" stroke="#191970" points="1717.418,-22.9447 1707.0255,-25.0058 1716.435,-29.8754 1717.418,-22.9447"/>
</g>
<!-- Node26 -->
<g id="node22" class="node">
<title>Node26</title>
<g id="a_node22"><a xlink:href="classgko_1_1UseComposition.html" target="_top" xlink:title="The UseComposition class can be used to store the composition information in LinOp.">
<polygon fill="#ffffff" stroke="#000000" points="1579.5,-49.5 1579.5,-79.5 1700.5,-79.5 1700.5,-49.5 1579.5,-49.5"/>
<text text-anchor="start" x="1587.5" y="-67.5" font-family="Helvetica,sans-Serif" font-size="10.00" fill="#000000">gko::UseComposition</text>
<text text-anchor="middle" x="1640" y="-56.5" font-family="Helvetica,sans-Serif" font-size="10.00" fill="#000000">&lt; ValueType &gt;</text>
</a>
</g>
</g>
<!-- Node26&#45;&gt;Node24 -->
<g id="edge30" class="edge">
<title>Node26&#45;&gt;Node24</title>
<path fill="none" stroke="#191970" d="M1710.6653,-64.5C1766.1084,-64.5 1843.4288,-64.5 1901.9394,-64.5"/>
<polygon fill="#191970" stroke="#191970" points="1710.5769,-61.0001 1700.5769,-64.5 1710.5768,-68.0001 1710.5769,-61.0001"/>
</g>
</g>
</svg>
        <g id="navigator" transform="translate(0 0)" fill="#404254">
                <rect fill="#f2f5e9" fill-opacity="0.5" stroke="#606060" stroke-width=".5" x="0" y="0" width="60" height="60"/>
                <use id="zoomplus" xlink:href="#zoomPlus" x="17" y="9" onmousedown="handleZoom(evt,'in')"/>
                <use id="zoomminus" xlink:href="#zoomMin" x="42" y="9" onmousedown="handleZoom(evt,'out')"/>
                <use id="reset" xlink:href="#resetDef" x="30" y="36" onmousedown="handleReset()"/>
                <g id="arrowUp" xlink:href="#dirArrow" transform="translate(30 24)" onmousedown="handlePan(0,-1)">
                  <use xlink:href="#rim" fill="#404040">
                        <set attributeName="fill" to="#808080" begin="arrowUp.mouseover" end="arrowUp.mouseout"/>
                  </use>
                  <path fill="none" stroke="white" stroke-width="1.5" d="M0,-3.0v7 M-2.5,-0.5L0,-3.0L2.5,-0.5"/>
                </g>
                <g id="arrowRight" xlink:href="#dirArrow" transform="rotate(90) translate(36 -43)" onmousedown="handlePan(1,0)">
                  <use xlink:href="#rim" fill="#404040">
                        <set attributeName="fill" to="#808080" begin="arrowRight.mouseover" end="arrowRight.mouseout"/>
                  </use>
                  <path fill="none" stroke="white" stroke-width="1.5" d="M0,-3.0v7 M-2.5,-0.5L0,-3.0L2.5,-0.5"/>
                </g>
                <g id="arrowDown" xlink:href="#dirArrow" transform="rotate(180) translate(-30 -48)" onmousedown="handlePan(0,1)">
                  <use xlink:href="#rim" fill="#404040">
                        <set attributeName="fill" to="#808080" begin="arrowDown.mouseover" end="arrowDown.mouseout"/>
                  </use>
                  <path fill="none" stroke="white" stroke-width="1.5" d="M0,-3.0v7 M-2.5,-0.5L0,-3.0L2.5,-0.5"/>
                </g>
                <g id="arrowLeft" xlink:href="#dirArrow" transform="rotate(270) translate(-36 17)" onmousedown="handlePan(-1,0)">
                  <use xlink:href="#rim" fill="#404040">
                        <set attributeName="fill" to="#808080" begin="arrowLeft.mouseover" end="arrowLeft.mouseout"/>
                  </use>
                  <path fill="none" stroke="white" stroke-width="1.5" d="M0,-3.0v7 M-2.5,-0.5L0,-3.0L2.5,-0.5"/>
                </g>
        </g>
        <svg viewBox="0 0 15 15" width="100%" height="30px" preserveAspectRatio="xMaxYMin meet">
         <g id="arrow_out" transform="scale(0.3 0.3)">
          <a xlink:href="classgko_1_1multigrid_1_1AmgxPgm__coll__graph_org.svg" target="_base">
           <rect id="button" ry="5" rx="5" y="6" x="6" height="38" width="38"
                fill="#f2f5e9" fill-opacity="0.5" stroke="#606060" stroke-width="1.0"/>
           <path id="arrow"
             d="M 11.500037,31.436501 C 11.940474,20.09759 22.043105,11.32322 32.158766,21.979434 L 37.068811,17.246167 C 37.068811,17.246167 37.088388,32 37.088388,32 L 22.160133,31.978069 C 22.160133,31.978069 26.997745,27.140456 26.997745,27.140456 C 18.528582,18.264221 13.291696,25.230495 11.500037,31.436501 z"
             style="fill:#404040;"/>
          </a>
         </g>
        </svg>
</svg>
