<?xml version="1.0" encoding="UTF-8" standalone="no"?>
<!DOCTYPE svg PUBLIC "-//W3C//DTD SVG 1.1//EN"
 "http://www.w3.org/Graphics/SVG/1.1/DTD/svg11.dtd">
<!-- Generated by graphviz version 2.40.1 (20161225.0304)
 -->
<!-- Title: gko::matrix::Identity&lt; ValueType &gt; Pages: 1 -->
<svg width="2179pt" height="334pt"
 viewBox="0.00 0.00 2179.00 333.50" xmlns="http://www.w3.org/2000/svg" xmlns:xlink="http://www.w3.org/1999/xlink">
<g id="graph0" class="graph" transform="scale(1 1) rotate(0) translate(4 329.5)">
<title>gko::matrix::Identity&lt; ValueType &gt;</title>
<polygon fill="#ffffff" stroke="transparent" points="-4,4 -4,-329.5 2175,-329.5 2175,4 -4,4"/>
<!-- Node0 -->
<g id="node1" class="node">
<title>Node0</title>
<polygon fill="#bfbfbf" stroke="#000000" points="2055,-82.5 2055,-112.5 2171,-112.5 2171,-82.5 2055,-82.5"/>
<text text-anchor="start" x="2063" y="-100.5" font-family="Helvetica,sans-Serif" font-size="10.00" fill="#000000">gko::matrix::Identity</text>
<text text-anchor="middle" x="2113" y="-89.5" font-family="Helvetica,sans-Serif" font-size="10.00" fill="#000000">&lt; ValueType &gt;</text>
</g>
<!-- Node1 -->
<g id="node2" class="node">
<title>Node1</title>
<g id="a_node2"><a xlink:href="classgko_1_1EnableLinOp.html" target="_top" xlink:title="gko::EnableLinOp\&lt; Identity\l\&lt; ValueType \&gt; \&gt;">
<polygon fill="#ffffff" stroke="#000000" points="1868,-116.5 1868,-146.5 2018,-146.5 2018,-116.5 1868,-116.5"/>
<text text-anchor="start" x="1876" y="-134.5" font-family="Helvetica,sans-Serif" font-size="10.00" fill="#000000">gko::EnableLinOp&lt; Identity</text>
<text text-anchor="middle" x="1943" y="-123.5" font-family="Helvetica,sans-Serif" font-size="10.00" fill="#000000">&lt; ValueType &gt; &gt;</text>
</a>
</g>
</g>
<!-- Node1&#45;&gt;Node0 -->
<g id="edge1" class="edge">
<title>Node1&#45;&gt;Node0</title>
<path fill="none" stroke="#191970" d="M2027.9518,-114.5096C2037.087,-112.6826 2046.223,-110.8554 2054.9377,-109.1125"/>
<polygon fill="#191970" stroke="#191970" points="2027.1787,-111.0949 2018.0593,-116.4881 2028.5516,-117.9589 2027.1787,-111.0949"/>
</g>
<!-- Node2 -->
<g id="node3" class="node">
<title>Node2</title>
<g id="a_node3"><a xlink:href="classgko_1_1EnablePolymorphicObject.html" target="_top" xlink:title="gko::EnablePolymorphicObject\l\&lt; Identity\&lt; ValueType \&gt;,\l LinOp \&gt;">
<polygon fill="#ffffff" stroke="#000000" points="1530,-207 1530,-248 1696,-248 1696,-207 1530,-207"/>
<text text-anchor="start" x="1538" y="-236" font-family="Helvetica,sans-Serif" font-size="10.00" fill="#000000">gko::EnablePolymorphicObject</text>
<text text-anchor="start" x="1538" y="-225" font-family="Helvetica,sans-Serif" font-size="10.00" fill="#000000">&lt; Identity&lt; ValueType &gt;,</text>
<text text-anchor="middle" x="1613" y="-214" font-family="Helvetica,sans-Serif" font-size="10.00" fill="#000000"> LinOp &gt;</text>
</a>
</g>
</g>
<!-- Node2&#45;&gt;Node1 -->
<g id="edge2" class="edge">
<title>Node2&#45;&gt;Node1</title>
<path fill="none" stroke="#191970" d="M1697.3869,-204.2351C1742.7127,-191.5901 1799.5007,-175.5087 1850,-160.5 1864.7527,-156.1154 1880.7684,-151.1836 1895.2852,-146.6476"/>
<polygon fill="#191970" stroke="#191970" points="1696.2954,-200.9058 1687.6016,-206.9613 1698.1741,-207.649 1696.2954,-200.9058"/>
</g>
<!-- Node3 -->
<g id="node4" class="node">
<title>Node3</title>
<g id="a_node4"><a xlink:href="classgko_1_1EnableAbstractPolymorphicObject.html" target="_top" xlink:title="gko::EnableAbstractPolymorphic\lObject\&lt; Identity\&lt; ValueType\l \&gt;, LinOp \&gt;">
<polygon fill="#ffffff" stroke="#000000" points="1305,-268 1305,-309 1480,-309 1480,-268 1305,-268"/>
<text text-anchor="start" x="1313" y="-297" font-family="Helvetica,sans-Serif" font-size="10.00" fill="#000000">gko::EnableAbstractPolymorphic</text>
<text text-anchor="start" x="1313" y="-286" font-family="Helvetica,sans-Serif" font-size="10.00" fill="#000000">Object&lt; Identity&lt; ValueType</text>
<text text-anchor="middle" x="1392.5" y="-275" font-family="Helvetica,sans-Serif" font-size="10.00" fill="#000000"> &gt;, LinOp &gt;</text>
</a>
</g>
</g>
<!-- Node3&#45;&gt;Node2 -->
<g id="edge3" class="edge">
<title>Node3&#45;&gt;Node2</title>
<path fill="none" stroke="#191970" d="M1476.729,-265.1985C1497.098,-259.5636 1518.7236,-253.581 1538.6039,-248.0812"/>
<polygon fill="#191970" stroke="#191970" points="1475.5486,-261.8936 1466.8438,-267.9332 1477.4151,-268.6402 1475.5486,-261.8936"/>
</g>
<!-- Node4 -->
<g id="node5" class="node">
<title>Node4</title>
<g id="a_node5"><a xlink:href="classgko_1_1LinOp.html" target="_top" xlink:title="gko::LinOp">
<polygon fill="#ffffff" stroke="#000000" points="966.5,-274 966.5,-293 1034.5,-293 1034.5,-274 966.5,-274"/>
<text text-anchor="middle" x="1000.5" y="-281" font-family="Helvetica,sans-Serif" font-size="10.00" fill="#000000">gko::LinOp</text>
</a>
</g>
</g>
<!-- Node4&#45;&gt;Node3 -->
<g id="edge4" class="edge">
<title>Node4&#45;&gt;Node3</title>
<path fill="none" stroke="#191970" d="M1044.9667,-284.0672C1107.8762,-284.8696 1224.1665,-286.3529 1304.805,-287.3814"/>
<polygon fill="#191970" stroke="#191970" points="1044.6455,-280.5629 1034.6017,-283.935 1044.5562,-287.5623 1044.6455,-280.5629"/>
</g>
<!-- Node5 -->
<g id="node6" class="node">
<title>Node5</title>
<g id="a_node6"><a xlink:href="classgko_1_1EnableAbstractPolymorphicObject.html" target="_top" xlink:title="gko::EnableAbstractPolymorphic\lObject\&lt; LinOp \&gt;">
<polygon fill="#ffffff" stroke="#ff0000" points="538,-263.5 538,-293.5 713,-293.5 713,-263.5 538,-263.5"/>
<text text-anchor="start" x="546" y="-281.5" font-family="Helvetica,sans-Serif" font-size="10.00" fill="#000000">gko::EnableAbstractPolymorphic</text>
<text text-anchor="middle" x="625.5" y="-270.5" font-family="Helvetica,sans-Serif" font-size="10.00" fill="#000000">Object&lt; LinOp &gt;</text>
</a>
</g>
</g>
<!-- Node5&#45;&gt;Node4 -->
<g id="edge5" class="edge">
<title>Node5&#45;&gt;Node4</title>
<path fill="none" stroke="#191970" d="M723.5253,-279.807C803.541,-280.8739 911.9545,-282.3194 966.3664,-283.0449"/>
<polygon fill="#191970" stroke="#191970" points="723.4666,-276.306 713.4208,-279.6723 723.3733,-283.3054 723.4666,-276.306"/>
</g>
<!-- Node10 -->
<g id="node7" class="node">
<title>Node10</title>
<g id="a_node7"><a xlink:href="classgko_1_1EnableAbstractPolymorphicObject.html" target="_top" xlink:title="This mixin inherits from (a subclass of) PolymorphicObject and provides a base implementation of a ne...">
<polygon fill="#ffffff" stroke="#000000" points="138,-238 138,-279 332,-279 332,-238 138,-238"/>
<text text-anchor="start" x="146" y="-267" font-family="Helvetica,sans-Serif" font-size="10.00" fill="#000000">gko::EnableAbstractPolymorphic</text>
<text text-anchor="start" x="146" y="-256" font-family="Helvetica,sans-Serif" font-size="10.00" fill="#000000">Object&lt; AbstactObject, Polymorphic</text>
<text text-anchor="middle" x="235" y="-245" font-family="Helvetica,sans-Serif" font-size="10.00" fill="#000000">Base &gt;</text>
</a>
</g>
</g>
<!-- Node10&#45;&gt;Node3 -->
<g id="edge8" class="edge">
<title>Node10&#45;&gt;Node3</title>
<path fill="none" stroke="#ffa500" stroke-dasharray="5,2" d="M319.0668,-281.299C329.4342,-283.6367 339.9254,-285.78 350,-287.5 426.9882,-300.6442 446.979,-299.9407 525,-303.5 561.761,-305.177 947.0081,-304.0751 1103,-302.5 1179.0078,-301.7325 1198.1035,-303.6825 1274,-299.5 1284.0056,-298.9486 1294.4732,-298.2113 1304.8688,-297.3784"/>
<polygon fill="#ffa500" stroke="#ffa500" points="319.7147,-277.8564 309.1824,-279.0055 318.1325,-284.6753 319.7147,-277.8564"/>
<text text-anchor="start" x="755.5" y="-317.5" font-family="Helvetica,sans-Serif" font-size="10.00" fill="#000000"> &lt; Identity&lt; ValueType</text>
<text text-anchor="middle" x="812" y="-306.5" font-family="Helvetica,sans-Serif" font-size="10.00" fill="#000000"> &gt;, LinOp &gt;</text>
</g>
<!-- Node10&#45;&gt;Node5 -->
<g id="edge6" class="edge">
<title>Node10&#45;&gt;Node5</title>
<path fill="none" stroke="#ffa500" stroke-dasharray="5,2" d="M342.3132,-265.0791C344.9005,-265.2226 347.4659,-265.3631 350,-265.5 412.755,-268.8904 483.5786,-272.2214 537.7017,-274.6628"/>
<polygon fill="#ffa500" stroke="#ffa500" points="342.4252,-261.58 332.2444,-264.5127 342.032,-268.5689 342.4252,-261.58"/>
<text text-anchor="middle" x="428.5" y="-275.5" font-family="Helvetica,sans-Serif" font-size="10.00" fill="#000000"> &lt; LinOp &gt;</text>
</g>
<!-- Node13 -->
<g id="node10" class="node">
<title>Node13</title>
<g id="a_node10"><a xlink:href="classgko_1_1EnableAbstractPolymorphicObject.html" target="_top" xlink:title="gko::EnableAbstractPolymorphic\lObject\&lt; ConcreteObject, Polymorphic\lBase \&gt;">
<polygon fill="#ffffff" stroke="#000000" points="525,-202 525,-243 726,-243 726,-202 525,-202"/>
<text text-anchor="start" x="533" y="-231" font-family="Helvetica,sans-Serif" font-size="10.00" fill="#000000">gko::EnableAbstractPolymorphic</text>
<text text-anchor="start" x="533" y="-220" font-family="Helvetica,sans-Serif" font-size="10.00" fill="#000000">Object&lt; ConcreteObject, Polymorphic</text>
<text text-anchor="middle" x="625.5" y="-209" font-family="Helvetica,sans-Serif" font-size="10.00" fill="#000000">Base &gt;</text>
</a>
</g>
</g>
<!-- Node10&#45;&gt;Node13 -->
<g id="edge12" class="edge">
<title>Node10&#45;&gt;Node13</title>
<path fill="none" stroke="#ffa500" stroke-dasharray="5,2" d="M342.267,-240.4177C344.8681,-240.0954 347.4488,-239.7887 350,-239.5 407.7355,-232.9665 472.5825,-228.8084 524.8529,-226.2412"/>
<polygon fill="#ffa500" stroke="#ffa500" points="341.6177,-236.9726 332.1524,-241.7327 342.5202,-243.9142 341.6177,-236.9726"/>
<text text-anchor="start" x="350" y="-253.5" font-family="Helvetica,sans-Serif" font-size="10.00" fill="#000000"> &lt; ConcreteObject, Polymorphic</text>
<text text-anchor="middle" x="428.5" y="-242.5" font-family="Helvetica,sans-Serif" font-size="10.00" fill="#000000">Base &gt;</text>
</g>
<!-- Node20 -->
<g id="node17" class="node">
<title>Node20</title>
<g id="a_node17"><a xlink:href="classgko_1_1EnableAbstractPolymorphicObject.html" target="_top" xlink:title="gko::EnableAbstractPolymorphic\lObject\&lt; ConcreteLinOp, Polymorphic\lBase \&gt;">
<polygon fill="#ffffff" stroke="#000000" points="527,-137 527,-178 724,-178 724,-137 527,-137"/>
<text text-anchor="start" x="535" y="-166" font-family="Helvetica,sans-Serif" font-size="10.00" fill="#000000">gko::EnableAbstractPolymorphic</text>
<text text-anchor="start" x="535" y="-155" font-family="Helvetica,sans-Serif" font-size="10.00" fill="#000000">Object&lt; ConcreteLinOp, Polymorphic</text>
<text text-anchor="middle" x="625.5" y="-144" font-family="Helvetica,sans-Serif" font-size="10.00" fill="#000000">Base &gt;</text>
</a>
</g>
</g>
<!-- Node10&#45;&gt;Node20 -->
<g id="edge22" class="edge">
<title>Node10&#45;&gt;Node20</title>
<path fill="none" stroke="#ffa500" stroke-dasharray="5,2" d="M278.0125,-232.7702C299.0536,-221.2483 325.1509,-208.4866 350,-200.5 407.1479,-182.1325 473.5714,-171.4699 526.8767,-165.3574"/>
<polygon fill="#ffa500" stroke="#ffa500" points="276.052,-229.8561 269.024,-237.7844 279.4622,-235.9692 276.052,-229.8561"/>
<text text-anchor="start" x="352" y="-214.5" font-family="Helvetica,sans-Serif" font-size="10.00" fill="#000000"> &lt; ConcreteLinOp, Polymorphic</text>
<text text-anchor="middle" x="428.5" y="-203.5" font-family="Helvetica,sans-Serif" font-size="10.00" fill="#000000">Base &gt;</text>
</g>
<!-- Node11 -->
<g id="node8" class="node">
<title>Node11</title>
<polygon fill="#ffffff" stroke="#bfbfbf" points="0,-200 0,-219 101,-219 101,-200 0,-200"/>
<text text-anchor="middle" x="50.5" y="-207" font-family="Helvetica,sans-Serif" font-size="10.00" fill="#000000">PolymorphicBase</text>
</g>
<!-- Node11&#45;&gt;Node10 -->
<g id="edge7" class="edge">
<title>Node11&#45;&gt;Node10</title>
<path fill="none" stroke="#191970" d="M96.3988,-221.6899C114.8661,-226.5945 136.6815,-232.3883 157.4728,-237.9101"/>
<polygon fill="#191970" stroke="#191970" points="97.0748,-218.2482 86.5114,-219.064 95.278,-225.0137 97.0748,-218.2482"/>
</g>
<!-- Node11&#45;&gt;Node13 -->
<g id="edge11" class="edge">
<title>Node11&#45;&gt;Node13</title>
<path fill="none" stroke="#191970" d="M111.106,-210.8702C209.5893,-213.0968 405.3646,-217.523 524.9499,-220.2267"/>
<polygon fill="#191970" stroke="#191970" points="111.1001,-207.3693 101.0235,-210.6423 110.9418,-214.3675 111.1001,-207.3693"/>
</g>
<!-- Node11&#45;&gt;Node20 -->
<g id="edge21" class="edge">
<title>Node11&#45;&gt;Node20</title>
<path fill="none" stroke="#191970" d="M110.9853,-198.1624C171.2932,-187.3906 266.6901,-171.7889 350,-164.5 408.5066,-159.3812 474.2473,-157.5619 526.8332,-157.0547"/>
<polygon fill="#191970" stroke="#191970" points="110.1021,-194.765 100.8801,-199.9808 111.3419,-201.6543 110.1021,-194.765"/>
</g>
<!-- Node12 -->
<g id="node9" class="node">
<title>Node12</title>
<g id="a_node9"><a xlink:href="classgko_1_1EnablePolymorphicObject.html" target="_top" xlink:title="This mixin inherits from (a subclass of) PolymorphicObject and provides a base implementation of a ne...">
<polygon fill="#ffffff" stroke="#000000" points="898,-207.5 898,-237.5 1103,-237.5 1103,-207.5 898,-207.5"/>
<text text-anchor="start" x="906" y="-225.5" font-family="Helvetica,sans-Serif" font-size="10.00" fill="#000000">gko::EnablePolymorphicObject</text>
<text text-anchor="middle" x="1000.5" y="-214.5" font-family="Helvetica,sans-Serif" font-size="10.00" fill="#000000">&lt; ConcreteObject, PolymorphicBase &gt;</text>
</a>
</g>
</g>
<!-- Node12&#45;&gt;Node2 -->
<g id="edge9" class="edge">
<title>Node12&#45;&gt;Node2</title>
<path fill="none" stroke="#ffa500" stroke-dasharray="5,2" d="M1113.0199,-223.4185C1233.5539,-224.4025 1422.0176,-225.941 1529.8379,-226.8211"/>
<polygon fill="#ffa500" stroke="#ffa500" points="1113.047,-219.9187 1103.0187,-223.3369 1112.9898,-226.9185 1113.047,-219.9187"/>
<text text-anchor="start" x="1336" y="-240.5" font-family="Helvetica,sans-Serif" font-size="10.00" fill="#000000"> &lt; Identity&lt; ValueType</text>
<text text-anchor="middle" x="1392.5" y="-229.5" font-family="Helvetica,sans-Serif" font-size="10.00" fill="#000000"> &gt;, LinOp &gt;</text>
</g>
<!-- Node19 -->
<g id="node16" class="node">
<title>Node19</title>
<g id="a_node16"><a xlink:href="classgko_1_1EnablePolymorphicObject.html" target="_top" xlink:title="gko::EnablePolymorphicObject\l\&lt; ConcreteLinOp, PolymorphicBase \&gt;">
<polygon fill="#ffffff" stroke="#000000" points="1292,-145.5 1292,-175.5 1493,-175.5 1493,-145.5 1292,-145.5"/>
<text text-anchor="start" x="1300" y="-163.5" font-family="Helvetica,sans-Serif" font-size="10.00" fill="#000000">gko::EnablePolymorphicObject</text>
<text text-anchor="middle" x="1392.5" y="-152.5" font-family="Helvetica,sans-Serif" font-size="10.00" fill="#000000">&lt; ConcreteLinOp, PolymorphicBase &gt;</text>
</a>
</g>
</g>
<!-- Node12&#45;&gt;Node19 -->
<g id="edge23" class="edge">
<title>Node12&#45;&gt;Node19</title>
<path fill="none" stroke="#ffa500" stroke-dasharray="5,2" d="M1062.2428,-204.8699C1080.994,-199.9893 1101.734,-195.0605 1121,-191.5 1177.0987,-181.1326 1240.3999,-173.665 1291.7594,-168.6604"/>
<polygon fill="#ffa500" stroke="#ffa500" points="1061.1176,-201.5471 1052.3455,-207.4885 1062.9081,-208.3143 1061.1176,-201.5471"/>
<text text-anchor="start" x="1121" y="-205.5" font-family="Helvetica,sans-Serif" font-size="10.00" fill="#000000"> &lt; ConcreteLinOp, Polymorphic</text>
<text text-anchor="middle" x="1197.5" y="-194.5" font-family="Helvetica,sans-Serif" font-size="10.00" fill="#000000">Base &gt;</text>
</g>
<!-- Node13&#45;&gt;Node12 -->
<g id="edge10" class="edge">
<title>Node13&#45;&gt;Node12</title>
<path fill="none" stroke="#191970" d="M736.5643,-222.5C787.5899,-222.5 847.7277,-222.5 897.7018,-222.5"/>
<polygon fill="#191970" stroke="#191970" points="736.4865,-219.0001 726.4864,-222.5 736.4864,-226.0001 736.4865,-219.0001"/>
</g>
<!-- Node14 -->
<g id="node11" class="node">
<title>Node14</title>
<g id="a_node11"><a xlink:href="classgko_1_1EnablePolymorphicAssignment.html" target="_top" xlink:title="gko::EnablePolymorphicAssignment\l\&lt; Identity\&lt; ValueType \&gt; \&gt;">
<polygon fill="#ffffff" stroke="#000000" points="1296.5,-96.5 1296.5,-126.5 1488.5,-126.5 1488.5,-96.5 1296.5,-96.5"/>
<text text-anchor="start" x="1304.5" y="-114.5" font-family="Helvetica,sans-Serif" font-size="10.00" fill="#000000">gko::EnablePolymorphicAssignment</text>
<text text-anchor="middle" x="1392.5" y="-103.5" font-family="Helvetica,sans-Serif" font-size="10.00" fill="#000000">&lt; Identity&lt; ValueType &gt; &gt;</text>
</a>
</g>
</g>
<!-- Node14&#45;&gt;Node1 -->
<g id="edge13" class="edge">
<title>Node14&#45;&gt;Node1</title>
<path fill="none" stroke="#191970" d="M1498.6942,-123.8986C1509.2613,-124.8879 1519.8348,-125.7808 1530,-126.5 1647.8422,-134.837 1785.0577,-134.5142 1867.9052,-133.2248"/>
<polygon fill="#191970" stroke="#191970" points="1498.8682,-120.3992 1488.5783,-122.9231 1498.1962,-127.3669 1498.8682,-120.3992"/>
</g>
<!-- Node15 -->
<g id="node12" class="node">
<title>Node15</title>
<g id="a_node12"><a xlink:href="classgko_1_1ConvertibleTo.html" target="_top" xlink:title="gko::ConvertibleTo\l\&lt; Identity\&lt; ValueType \&gt; \&gt;">
<polygon fill="#ffffff" stroke="#000000" points="926,-98.5 926,-128.5 1075,-128.5 1075,-98.5 926,-98.5"/>
<text text-anchor="start" x="934" y="-116.5" font-family="Helvetica,sans-Serif" font-size="10.00" fill="#000000">gko::ConvertibleTo</text>
<text text-anchor="middle" x="1000.5" y="-105.5" font-family="Helvetica,sans-Serif" font-size="10.00" fill="#000000">&lt; Identity&lt; ValueType &gt; &gt;</text>
</a>
</g>
</g>
<!-- Node15&#45;&gt;Node14 -->
<g id="edge14" class="edge">
<title>Node15&#45;&gt;Node14</title>
<path fill="none" stroke="#191970" d="M1085.3039,-113.0673C1147.3525,-112.7508 1231.62,-112.3208 1296.2031,-111.9913"/>
<polygon fill="#191970" stroke="#191970" points="1085.1369,-109.568 1075.1549,-113.1191 1085.1727,-116.5679 1085.1369,-109.568"/>
</g>
<!-- Node16 -->
<g id="node13" class="node">
<title>Node16</title>
<g id="a_node13"><a xlink:href="classgko_1_1ConvertibleTo.html" target="_top" xlink:title="ConvertibleTo interface is used to mark that the implementer can be converted to the object of Result...">
<polygon fill="#ffffff" stroke="#000000" points="572,-49.5 572,-79.5 679,-79.5 679,-49.5 572,-49.5"/>
<text text-anchor="start" x="580" y="-67.5" font-family="Helvetica,sans-Serif" font-size="10.00" fill="#000000">gko::ConvertibleTo</text>
<text text-anchor="middle" x="625.5" y="-56.5" font-family="Helvetica,sans-Serif" font-size="10.00" fill="#000000">&lt; ResultType &gt;</text>
</a>
</g>
</g>
<!-- Node16&#45;&gt;Node15 -->
<g id="edge15" class="edge">
<title>Node16&#45;&gt;Node15</title>
<path fill="none" stroke="#ffa500" stroke-dasharray="5,2" d="M689.4184,-72.852C754.9164,-81.4104 856.6885,-94.7086 925.8462,-103.7452"/>
<polygon fill="#ffa500" stroke="#ffa500" points="689.5976,-69.3457 679.2284,-71.5205 688.6906,-76.2867 689.5976,-69.3457"/>
<text text-anchor="middle" x="812" y="-101.5" font-family="Helvetica,sans-Serif" font-size="10.00" fill="#000000"> &lt; Identity&lt; ValueType &gt; &gt;</text>
</g>
<!-- Node17 -->
<g id="node14" class="node">
<title>Node17</title>
<g id="a_node14"><a xlink:href="classgko_1_1EnablePolymorphicAssignment.html" target="_top" xlink:title="This mixin is used to enable a default PolymorphicObject::copy_from() implementation for objects that...">
<polygon fill="#ffffff" stroke="#000000" points="904.5,-49.5 904.5,-79.5 1096.5,-79.5 1096.5,-49.5 904.5,-49.5"/>
<text text-anchor="start" x="912.5" y="-67.5" font-family="Helvetica,sans-Serif" font-size="10.00" fill="#000000">gko::EnablePolymorphicAssignment</text>
<text text-anchor="middle" x="1000.5" y="-56.5" font-family="Helvetica,sans-Serif" font-size="10.00" fill="#000000">&lt; ConcreteType, ResultType &gt;</text>
</a>
</g>
</g>
<!-- Node16&#45;&gt;Node17 -->
<g id="edge17" class="edge">
<title>Node16&#45;&gt;Node17</title>
<path fill="none" stroke="#191970" d="M689.5304,-64.5C748.5493,-64.5 836.9516,-64.5 904.4323,-64.5"/>
<polygon fill="#191970" stroke="#191970" points="689.2284,-61.0001 679.2284,-64.5 689.2283,-68.0001 689.2284,-61.0001"/>
</g>
<!-- Node22 -->
<g id="node19" class="node">
<title>Node22</title>
<g id="a_node19"><a xlink:href="classgko_1_1ConvertibleTo.html" target="_top" xlink:title="gko::ConvertibleTo\l\&lt; ConcreteLinOp \&gt;">
<polygon fill="#ffffff" stroke="#000000" points="945.5,-.5 945.5,-30.5 1055.5,-30.5 1055.5,-.5 945.5,-.5"/>
<text text-anchor="start" x="953.5" y="-18.5" font-family="Helvetica,sans-Serif" font-size="10.00" fill="#000000">gko::ConvertibleTo</text>
<text text-anchor="middle" x="1000.5" y="-7.5" font-family="Helvetica,sans-Serif" font-size="10.00" fill="#000000">&lt; ConcreteLinOp &gt;</text>
</a>
</g>
</g>
<!-- Node16&#45;&gt;Node22 -->
<g id="edge26" class="edge">
<title>Node16&#45;&gt;Node22</title>
<path fill="none" stroke="#ffa500" stroke-dasharray="5,2" d="M689.5209,-56.1346C761.5054,-46.7286 877.2104,-31.6098 945.3454,-22.7069"/>
<polygon fill="#ffa500" stroke="#ffa500" points="688.6906,-52.7133 679.2284,-57.4795 689.5976,-59.6543 688.6906,-52.7133"/>
<text text-anchor="middle" x="812" y="-52.5" font-family="Helvetica,sans-Serif" font-size="10.00" fill="#000000"> &lt; ConcreteLinOp &gt;</text>
</g>
<!-- Node17&#45;&gt;Node14 -->
<g id="edge16" class="edge">
<title>Node17&#45;&gt;Node14</title>
<path fill="none" stroke="#ffa500" stroke-dasharray="5,2" d="M1106.7627,-77.2407C1165.8971,-84.3308 1238.9298,-93.0872 1296.357,-99.9727"/>
<polygon fill="#ffa500" stroke="#ffa500" points="1106.9905,-73.743 1096.6449,-76.0276 1106.1571,-80.6932 1106.9905,-73.743"/>
<text text-anchor="middle" x="1197.5" y="-99.5" font-family="Helvetica,sans-Serif" font-size="10.00" fill="#000000"> &lt; Identity&lt; ValueType &gt; &gt;</text>
</g>
<!-- Node21 -->
<g id="node18" class="node">
<title>Node21</title>
<g id="a_node18"><a xlink:href="classgko_1_1EnablePolymorphicAssignment.html" target="_top" xlink:title="gko::EnablePolymorphicAssignment\l\&lt; ConcreteLinOp \&gt;">
<polygon fill="#ffffff" stroke="#000000" points="1296.5,-38.5 1296.5,-68.5 1488.5,-68.5 1488.5,-38.5 1296.5,-38.5"/>
<text text-anchor="start" x="1304.5" y="-56.5" font-family="Helvetica,sans-Serif" font-size="10.00" fill="#000000">gko::EnablePolymorphicAssignment</text>
<text text-anchor="middle" x="1392.5" y="-45.5" font-family="Helvetica,sans-Serif" font-size="10.00" fill="#000000">&lt; ConcreteLinOp &gt;</text>
</a>
</g>
</g>
<!-- Node17&#45;&gt;Node21 -->
<g id="edge27" class="edge">
<title>Node17&#45;&gt;Node21</title>
<path fill="none" stroke="#ffa500" stroke-dasharray="5,2" d="M1107.126,-55.1975C1111.8124,-54.9319 1116.4532,-54.6967 1121,-54.5 1179.1582,-51.9836 1244.3893,-51.6624 1296.3338,-52.0041"/>
<polygon fill="#ffa500" stroke="#ffa500" points="1106.5817,-51.724 1096.8126,-55.8245 1107.0066,-58.7111 1106.5817,-51.724"/>
<text text-anchor="middle" x="1197.5" y="-57.5" font-family="Helvetica,sans-Serif" font-size="10.00" fill="#000000"> &lt; ConcreteLinOp &gt;</text>
</g>
<!-- Node18 -->
<g id="node15" class="node">
<title>Node18</title>
<g id="a_node15"><a xlink:href="classgko_1_1EnableLinOp.html" target="_top" xlink:title="The EnableLinOp mixin can be used to provide sensible default implementations of the majority of the ...">
<polygon fill="#ffffff" stroke="#000000" points="1535,-87.5 1535,-117.5 1691,-117.5 1691,-87.5 1535,-87.5"/>
<text text-anchor="start" x="1543" y="-105.5" font-family="Helvetica,sans-Serif" font-size="10.00" fill="#000000">gko::EnableLinOp&lt; Concrete</text>
<text text-anchor="middle" x="1613" y="-94.5" font-family="Helvetica,sans-Serif" font-size="10.00" fill="#000000">LinOp, PolymorphicBase &gt;</text>
</a>
</g>
</g>
<!-- Node18&#45;&gt;Node1 -->
<g id="edge18" class="edge">
<title>Node18&#45;&gt;Node1</title>
<path fill="none" stroke="#ffa500" stroke-dasharray="5,2" d="M1701.4592,-109.0192C1746.0351,-112.4498 1800.911,-116.894 1850,-121.5 1855.8204,-122.0461 1861.843,-122.6364 1867.8957,-123.2476"/>
<polygon fill="#ffa500" stroke="#ffa500" points="1701.4757,-105.5103 1691.2376,-108.2364 1700.9411,-112.4899 1701.4757,-105.5103"/>
<text text-anchor="middle" x="1782" y="-124.5" font-family="Helvetica,sans-Serif" font-size="10.00" fill="#000000"> &lt; Identity&lt; ValueType &gt; &gt;</text>
</g>
<!-- Node19&#45;&gt;Node18 -->
<g id="edge19" class="edge">
<title>Node19&#45;&gt;Node18</title>
<path fill="none" stroke="#191970" d="M1463.724,-143.0128C1473.5684,-140.5286 1483.5424,-137.9763 1493,-135.5 1514.7382,-129.8082 1538.6188,-123.2947 1559.3134,-117.5665"/>
<polygon fill="#191970" stroke="#191970" points="1462.7927,-139.6379 1453.9468,-145.469 1464.4982,-146.427 1462.7927,-139.6379"/>
</g>
<!-- Node20&#45;&gt;Node19 -->
<g id="edge20" class="edge">
<title>Node20&#45;&gt;Node19</title>
<path fill="none" stroke="#191970" d="M734.2601,-157.9254C882.886,-158.5067 1147.4148,-159.5414 1291.7416,-160.1059"/>
<polygon fill="#191970" stroke="#191970" points="734.2153,-154.4253 724.2016,-157.8861 734.1878,-161.4252 734.2153,-154.4253"/>
</g>
<!-- Node21&#45;&gt;Node18 -->
<g id="edge24" class="edge">
<title>Node21&#45;&gt;Node18</title>
<path fill="none" stroke="#191970" d="M1470.1615,-70.7581C1494.7308,-76.218 1521.6725,-82.205 1545.4722,-87.4938"/>
<polygon fill="#191970" stroke="#191970" points="1470.6769,-67.2873 1460.1558,-68.5346 1469.1584,-74.1207 1470.6769,-67.2873"/>
</g>
<!-- Node22&#45;&gt;Node21 -->
<g id="edge25" class="edge">
<title>Node22&#45;&gt;Node21</title>
<path fill="none" stroke="#191970" d="M1066.0239,-21.8518C1128.9342,-27.9503 1224.7021,-37.2339 1296.2698,-44.1716"/>
<polygon fill="#191970" stroke="#191970" points="1066.1237,-18.3452 1055.8326,-20.8639 1065.4482,-25.3125 1066.1237,-18.3452"/>
</g>
<!-- Node23 -->
<g id="node20" class="node">
<title>Node23</title>
<g id="a_node20"><a xlink:href="classgko_1_1EnableCreateMethod.html" target="_top" xlink:title="gko::EnableCreateMethod\l\&lt; Identity\&lt; ValueType \&gt; \&gt;">
<polygon fill="#ffffff" stroke="#000000" points="1868.5,-58.5 1868.5,-88.5 2017.5,-88.5 2017.5,-58.5 1868.5,-58.5"/>
<text text-anchor="start" x="1876.5" y="-76.5" font-family="Helvetica,sans-Serif" font-size="10.00" fill="#000000">gko::EnableCreateMethod</text>
<text text-anchor="middle" x="1943" y="-65.5" font-family="Helvetica,sans-Serif" font-size="10.00" fill="#000000">&lt; Identity&lt; ValueType &gt; &gt;</text>
</a>
</g>
</g>
<!-- Node23&#45;&gt;Node0 -->
<g id="edge28" class="edge">
<title>Node23&#45;&gt;Node0</title>
<path fill="none" stroke="#191970" d="M2027.5612,-85.4381C2036.7954,-86.7417 2046.0365,-88.0463 2054.8486,-89.2904"/>
<polygon fill="#191970" stroke="#191970" points="2027.9556,-81.9591 2017.5645,-84.0267 2026.977,-88.8904 2027.9556,-81.9591"/>
</g>
<!-- Node24 -->
<g id="node21" class="node">
<title>Node24</title>
<g id="a_node21"><a xlink:href="classgko_1_1EnableCreateMethod.html" target="_top" xlink:title="This mixin implements a static create() method on ConcreteType that dynamically allocates the memory...">
<polygon fill="#ffffff" stroke="#000000" points="1542,-38.5 1542,-68.5 1684,-68.5 1684,-38.5 1542,-38.5"/>
<text text-anchor="start" x="1550" y="-56.5" font-family="Helvetica,sans-Serif" font-size="10.00" fill="#000000">gko::EnableCreateMethod</text>
<text text-anchor="middle" x="1613" y="-45.5" font-family="Helvetica,sans-Serif" font-size="10.00" fill="#000000">&lt; ConcreteType &gt;</text>
</a>
</g>
</g>
<!-- Node24&#45;&gt;Node23 -->
<g id="edge29" class="edge">
<title>Node24&#45;&gt;Node23</title>
<path fill="none" stroke="#ffa500" stroke-dasharray="5,2" d="M1694.2913,-58.4267C1747.5561,-61.6549 1816.6528,-65.8426 1868.4939,-68.9845"/>
<polygon fill="#ffa500" stroke="#ffa500" points="1694.3923,-54.9265 1684.1988,-57.8151 1693.9687,-61.9137 1694.3923,-54.9265"/>
<text text-anchor="middle" x="1782" y="-71.5" font-family="Helvetica,sans-Serif" font-size="10.00" fill="#000000"> &lt; Identity&lt; ValueType &gt; &gt;</text>
</g>
</g>
</svg>
