<?xml version="1.0" encoding="UTF-8" standalone="no"?>
<!DOCTYPE svg PUBLIC "-//W3C//DTD SVG 1.1//EN"
 "http://www.w3.org/Graphics/SVG/1.1/DTD/svg11.dtd">
<!-- Generated by graphviz version 2.40.1 (20161225.0304)
 -->
<!-- Title: gko::matrix::Csr&lt; ValueType, IndexType &gt; Pages: 1 -->
<svg width="2533pt" height="608pt"
 viewBox="0.00 0.00 2533.00 608.00" xmlns="http://www.w3.org/2000/svg" xmlns:xlink="http://www.w3.org/1999/xlink">
<g id="graph0" class="graph" transform="scale(1 1) rotate(0) translate(4 604)">
<title>gko::matrix::Csr&lt; ValueType, IndexType &gt;</title>
<polygon fill="#ffffff" stroke="transparent" points="-4,4 -4,-604 2529,-604 2529,4 -4,4"/>
<!-- Node1 -->
<g id="node1" class="node">
<title>Node1</title>
<g id="a_node1"><a xlink:title="CSR is a matrix format which stores only the nonzero coefficients by compressing each row of the matr...">
<polygon fill="#bfbfbf" stroke="#000000" points="2367,-347.5 2367,-377.5 2525,-377.5 2525,-347.5 2367,-347.5"/>
<text text-anchor="start" x="2375" y="-365.5" font-family="Helvetica,sans-Serif" font-size="10.00" fill="#000000">gko::matrix::Csr&lt; ValueType,</text>
<text text-anchor="middle" x="2446" y="-354.5" font-family="Helvetica,sans-Serif" font-size="10.00" fill="#000000"> IndexType &gt;</text>
</a>
</g>
</g>
<!-- Node2 -->
<g id="node2" class="node">
<title>Node2</title>
<g id="a_node2"><a xlink:href="classgko_1_1EnableLinOp.html" target="_top" xlink:title=" ">
<polygon fill="#ffffff" stroke="#000000" points="2161.5,-316.5 2161.5,-346.5 2316.5,-346.5 2316.5,-316.5 2161.5,-316.5"/>
<text text-anchor="start" x="2169.5" y="-334.5" font-family="Helvetica,sans-Serif" font-size="10.00" fill="#000000">gko::EnableLinOp&lt; Csr</text>
<text text-anchor="middle" x="2239" y="-323.5" font-family="Helvetica,sans-Serif" font-size="10.00" fill="#000000">&lt; ValueType, IndexType &gt; &gt;</text>
</a>
</g>
</g>
<!-- Node2&#45;&gt;Node1 -->
<g id="edge1" class="edge">
<title>Node2&#45;&gt;Node1</title>
<path fill="none" stroke="#191970" d="M2326.7644,-344.6435C2340.0776,-346.6372 2353.7464,-348.6842 2366.8619,-350.6484"/>
<polygon fill="#191970" stroke="#191970" points="2327.0762,-341.1512 2316.6681,-343.1315 2326.0394,-348.074 2327.0762,-341.1512"/>
</g>
<!-- Node3 -->
<g id="node3" class="node">
<title>Node3</title>
<g id="a_node3"><a xlink:href="classgko_1_1EnablePolymorphicObject.html" target="_top" xlink:title=" ">
<polygon fill="#ffffff" stroke="#000000" points="1767,-144 1767,-185 1933,-185 1933,-144 1767,-144"/>
<text text-anchor="start" x="1775" y="-173" font-family="Helvetica,sans-Serif" font-size="10.00" fill="#000000">gko::EnablePolymorphicObject</text>
<text text-anchor="start" x="1775" y="-162" font-family="Helvetica,sans-Serif" font-size="10.00" fill="#000000">&lt; Csr&lt; ValueType, IndexType</text>
<text text-anchor="middle" x="1850" y="-151" font-family="Helvetica,sans-Serif" font-size="10.00" fill="#000000"> &gt;, LinOp &gt;</text>
</a>
</g>
</g>
<!-- Node3&#45;&gt;Node2 -->
<g id="edge2" class="edge">
<title>Node3&#45;&gt;Node2</title>
<path fill="none" stroke="#191970" d="M1943.0443,-171.1413C2003.7006,-180.2163 2080.5016,-201.3902 2130,-250.5 2148.8592,-269.2112 2128.7691,-289.171 2148,-307.5 2152.0213,-311.3327 2156.5796,-314.5707 2161.4613,-317.3043"/>
<polygon fill="#191970" stroke="#191970" points="1943.4624,-167.6657 1933.0717,-169.7355 1942.4852,-174.5972 1943.4624,-167.6657"/>
</g>
<!-- Node4 -->
<g id="node4" class="node">
<title>Node4</title>
<g id="a_node4"><a xlink:href="classgko_1_1EnableAbstractPolymorphicObject.html" target="_top" xlink:title=" ">
<polygon fill="#ffffff" stroke="#000000" points="1350,-34 1350,-75 1541,-75 1541,-34 1350,-34"/>
<text text-anchor="start" x="1358" y="-63" font-family="Helvetica,sans-Serif" font-size="10.00" fill="#000000">gko::EnableAbstractPolymorphic</text>
<text text-anchor="start" x="1358" y="-52" font-family="Helvetica,sans-Serif" font-size="10.00" fill="#000000">Object&lt; Csr&lt; ValueType, IndexType</text>
<text text-anchor="middle" x="1445.5" y="-41" font-family="Helvetica,sans-Serif" font-size="10.00" fill="#000000"> &gt;, LinOp &gt;</text>
</a>
</g>
</g>
<!-- Node4&#45;&gt;Node3 -->
<g id="edge3" class="edge">
<title>Node4&#45;&gt;Node3</title>
<path fill="none" stroke="#191970" d="M1551.506,-46.1121C1614.3222,-46.471 1692.4387,-56.7824 1749,-97.5 1763.518,-107.9512 1753.6974,-121.5401 1767,-133.5 1771.3467,-137.408 1776.2317,-140.8388 1781.3996,-143.848"/>
<polygon fill="#191970" stroke="#191970" points="1551.1537,-42.613 1541.1636,-46.1412 1551.1735,-49.613 1551.1537,-42.613"/>
</g>
<!-- Node5 -->
<g id="node5" class="node">
<title>Node5</title>
<g id="a_node5"><a xlink:href="classgko_1_1LinOp.html" target="_top" xlink:title=" ">
<polygon fill="#ffffff" stroke="#000000" points="1003.5,-11 1003.5,-30 1071.5,-30 1071.5,-11 1003.5,-11"/>
<text text-anchor="middle" x="1037.5" y="-18" font-family="Helvetica,sans-Serif" font-size="10.00" fill="#000000">gko::LinOp</text>
</a>
</g>
</g>
<!-- Node5&#45;&gt;Node4 -->
<g id="edge4" class="edge">
<title>Node5&#45;&gt;Node4</title>
<path fill="none" stroke="#191970" d="M1081.708,-24.184C1145.5225,-29.5019 1265.0626,-39.4636 1349.673,-46.5144"/>
<polygon fill="#191970" stroke="#191970" points="1081.8402,-20.683 1071.5841,-23.3403 1081.2589,-27.6588 1081.8402,-20.683"/>
</g>
<!-- Node6 -->
<g id="node6" class="node">
<title>Node6</title>
<g id="a_node6"><a xlink:href="classgko_1_1EnableAbstractPolymorphicObject.html" target="_top" xlink:title=" ">
<polygon fill="#ffffff" stroke="#ff0000" points="542,-.5 542,-30.5 717,-30.5 717,-.5 542,-.5"/>
<text text-anchor="start" x="550" y="-18.5" font-family="Helvetica,sans-Serif" font-size="10.00" fill="#000000">gko::EnableAbstractPolymorphic</text>
<text text-anchor="middle" x="629.5" y="-7.5" font-family="Helvetica,sans-Serif" font-size="10.00" fill="#000000">Object&lt; LinOp &gt;</text>
</a>
</g>
</g>
<!-- Node6&#45;&gt;Node5 -->
<g id="edge5" class="edge">
<title>Node6&#45;&gt;Node5</title>
<path fill="none" stroke="#191970" d="M727.1636,-16.6969C816.3446,-17.7898 943.1591,-19.3439 1003.3094,-20.081"/>
<polygon fill="#191970" stroke="#191970" points="727.0684,-13.1955 717.0262,-16.5726 726.9826,-20.195 727.0684,-13.1955"/>
</g>
<!-- Node11 -->
<g id="node7" class="node">
<title>Node11</title>
<g id="a_node7"><a xlink:href="classgko_1_1EnableAbstractPolymorphicObject.html" target="_top" xlink:title="This mixin inherits from (a subclass of) PolymorphicObject and provides a base implementation of a ne...">
<polygon fill="#ffffff" stroke="#000000" points="138,-72 138,-113 336,-113 336,-72 138,-72"/>
<text text-anchor="start" x="146" y="-101" font-family="Helvetica,sans-Serif" font-size="10.00" fill="#000000">gko::EnableAbstractPolymorphic</text>
<text text-anchor="start" x="146" y="-90" font-family="Helvetica,sans-Serif" font-size="10.00" fill="#000000">Object&lt; AbstractObject, Polymorphic</text>
<text text-anchor="middle" x="237" y="-79" font-family="Helvetica,sans-Serif" font-size="10.00" fill="#000000">Base &gt;</text>
</a>
</g>
</g>
<!-- Node11&#45;&gt;Node4 -->
<g id="edge8" class="edge">
<title>Node11&#45;&gt;Node4</title>
<path fill="none" stroke="#ffa500" stroke-dasharray="5,2" d="M346.3102,-84.8849C348.898,-84.7501 351.4643,-84.6215 354,-84.5 721.8141,-66.8778 1159.8845,-58.7258 1349.8189,-55.8185"/>
<polygon fill="#ffa500" stroke="#ffa500" points="346.0356,-81.3946 336.2408,-85.4333 346.4164,-88.3842 346.0356,-81.3946"/>
<text text-anchor="start" x="759" y="-83.5" font-family="Helvetica,sans-Serif" font-size="10.00" fill="#000000"> &lt; Csr&lt; ValueType, IndexType</text>
<text text-anchor="middle" x="832.5" y="-72.5" font-family="Helvetica,sans-Serif" font-size="10.00" fill="#000000"> &gt;, LinOp &gt;</text>
</g>
<!-- Node11&#45;&gt;Node6 -->
<g id="edge6" class="edge">
<title>Node11&#45;&gt;Node6</title>
<path fill="none" stroke="#ffa500" stroke-dasharray="5,2" d="M278.8117,-66.77C300.4485,-54.7746 327.7681,-41.6059 354,-34.5 415.3152,-17.8904 486.9625,-13.3845 541.821,-12.9025"/>
<polygon fill="#ffa500" stroke="#ffa500" points="276.88,-63.8417 269.9065,-71.8179 280.332,-69.9314 276.88,-63.8417"/>
<text text-anchor="middle" x="432.5" y="-37.5" font-family="Helvetica,sans-Serif" font-size="10.00" fill="#000000"> &lt; LinOp &gt;</text>
</g>
<!-- Node14 -->
<g id="node10" class="node">
<title>Node14</title>
<g id="a_node10"><a xlink:href="classgko_1_1EnableAbstractPolymorphicObject.html" target="_top" xlink:title=" ">
<polygon fill="#ffffff" stroke="#000000" points="529,-97 529,-138 730,-138 730,-97 529,-97"/>
<text text-anchor="start" x="537" y="-126" font-family="Helvetica,sans-Serif" font-size="10.00" fill="#000000">gko::EnableAbstractPolymorphic</text>
<text text-anchor="start" x="537" y="-115" font-family="Helvetica,sans-Serif" font-size="10.00" fill="#000000">Object&lt; ConcreteObject, Polymorphic</text>
<text text-anchor="middle" x="629.5" y="-104" font-family="Helvetica,sans-Serif" font-size="10.00" fill="#000000">Base &gt;</text>
</a>
</g>
</g>
<!-- Node11&#45;&gt;Node14 -->
<g id="edge12" class="edge">
<title>Node11&#45;&gt;Node14</title>
<path fill="none" stroke="#ffa500" stroke-dasharray="5,2" d="M346.4094,-88.0008C396.6706,-87.1896 456.9862,-87.9856 511,-93.5 519.5617,-94.3741 528.4204,-95.5838 537.2615,-96.9992"/>
<polygon fill="#ffa500" stroke="#ffa500" points="346.1033,-84.5057 336.1699,-88.1903 346.233,-91.5045 346.1033,-84.5057"/>
<text text-anchor="start" x="354" y="-107.5" font-family="Helvetica,sans-Serif" font-size="10.00" fill="#000000"> &lt; ConcreteObject, Polymorphic</text>
<text text-anchor="middle" x="432.5" y="-96.5" font-family="Helvetica,sans-Serif" font-size="10.00" fill="#000000">Base &gt;</text>
</g>
<!-- Node21 -->
<g id="node17" class="node">
<title>Node21</title>
<g id="a_node17"><a xlink:href="classgko_1_1EnableAbstractPolymorphicObject.html" target="_top" xlink:title=" ">
<polygon fill="#ffffff" stroke="#000000" points="531,-161 531,-202 728,-202 728,-161 531,-161"/>
<text text-anchor="start" x="539" y="-190" font-family="Helvetica,sans-Serif" font-size="10.00" fill="#000000">gko::EnableAbstractPolymorphic</text>
<text text-anchor="start" x="539" y="-179" font-family="Helvetica,sans-Serif" font-size="10.00" fill="#000000">Object&lt; ConcreteLinOp, Polymorphic</text>
<text text-anchor="middle" x="629.5" y="-168" font-family="Helvetica,sans-Serif" font-size="10.00" fill="#000000">Base &gt;</text>
</a>
</g>
</g>
<!-- Node11&#45;&gt;Node21 -->
<g id="edge22" class="edge">
<title>Node11&#45;&gt;Node21</title>
<path fill="none" stroke="#ffa500" stroke-dasharray="5,2" d="M337.372,-115.2595C399.5774,-129.3647 478.8209,-147.3333 539.0758,-160.9962"/>
<polygon fill="#ffa500" stroke="#ffa500" points="338.0667,-111.8283 327.5403,-113.0301 336.5187,-118.655 338.0667,-111.8283"/>
<text text-anchor="start" x="356" y="-166.5" font-family="Helvetica,sans-Serif" font-size="10.00" fill="#000000"> &lt; ConcreteLinOp, Polymorphic</text>
<text text-anchor="middle" x="432.5" y="-155.5" font-family="Helvetica,sans-Serif" font-size="10.00" fill="#000000">Base &gt;</text>
</g>
<!-- Node12 -->
<g id="node8" class="node">
<title>Node12</title>
<g id="a_node8"><a xlink:title=" ">
<polygon fill="#ffffff" stroke="#bfbfbf" points="0,-165 0,-184 101,-184 101,-165 0,-165"/>
<text text-anchor="middle" x="50.5" y="-172" font-family="Helvetica,sans-Serif" font-size="10.00" fill="#000000">PolymorphicBase</text>
</a>
</g>
</g>
<!-- Node12&#45;&gt;Node11 -->
<g id="edge7" class="edge">
<title>Node12&#45;&gt;Node11</title>
<path fill="none" stroke="#191970" d="M81.6749,-160.7931C111.2807,-147.7761 156.181,-128.0344 190.1047,-113.1189"/>
<polygon fill="#191970" stroke="#191970" points="80.0044,-157.7041 72.2589,-164.9331 82.8219,-164.1121 80.0044,-157.7041"/>
</g>
<!-- Node12&#45;&gt;Node14 -->
<g id="edge11" class="edge">
<title>Node12&#45;&gt;Node14</title>
<path fill="none" stroke="#191970" d="M111.4303,-180.8542C200.6787,-188.3335 371.4922,-195.6797 511,-160.5 519.6728,-158.313 520.7442,-154.9413 529,-151.5 540.306,-146.7873 552.5197,-142.2287 564.4067,-138.0622"/>
<polygon fill="#191970" stroke="#191970" points="111.4851,-177.3458 101.2198,-179.9678 110.8796,-184.3196 111.4851,-177.3458"/>
</g>
<!-- Node12&#45;&gt;Node21 -->
<g id="edge21" class="edge">
<title>Node12&#45;&gt;Node21</title>
<path fill="none" stroke="#191970" d="M100.0089,-185.844C106.37,-186.9398 112.8183,-187.8748 119,-188.5 292.3378,-206.0321 336.8536,-193.6391 511,-188.5 517.4889,-188.3085 524.1751,-188.0582 530.9118,-187.7663"/>
<polygon fill="#191970" stroke="#191970" points="100.6063,-182.3952 90.1355,-184.0111 99.3286,-189.2776 100.6063,-182.3952"/>
</g>
<!-- Node13 -->
<g id="node9" class="node">
<title>Node13</title>
<g id="a_node9"><a xlink:href="classgko_1_1EnablePolymorphicObject.html" target="_top" xlink:title="This mixin inherits from (a subclass of) PolymorphicObject and provides a base implementation of a ne...">
<polygon fill="#ffffff" stroke="#000000" points="935,-102.5 935,-132.5 1140,-132.5 1140,-102.5 935,-102.5"/>
<text text-anchor="start" x="943" y="-120.5" font-family="Helvetica,sans-Serif" font-size="10.00" fill="#000000">gko::EnablePolymorphicObject</text>
<text text-anchor="middle" x="1037.5" y="-109.5" font-family="Helvetica,sans-Serif" font-size="10.00" fill="#000000">&lt; ConcreteObject, PolymorphicBase &gt;</text>
</a>
</g>
</g>
<!-- Node13&#45;&gt;Node3 -->
<g id="edge9" class="edge">
<title>Node13&#45;&gt;Node3</title>
<path fill="none" stroke="#ffa500" stroke-dasharray="5,2" d="M1150.2202,-120.1437C1203.7846,-121.5206 1268.7035,-123.3637 1327,-125.5 1424.3694,-129.0681 1448.8064,-128.6493 1546,-135.5 1620.8339,-140.7747 1705.8179,-149.0783 1766.8685,-155.451"/>
<polygon fill="#ffa500" stroke="#ffa500" points="1150.096,-116.6395 1140.01,-119.8834 1149.9175,-123.6372 1150.096,-116.6395"/>
<text text-anchor="start" x="1372" y="-149.5" font-family="Helvetica,sans-Serif" font-size="10.00" fill="#000000"> &lt; Csr&lt; ValueType, IndexType</text>
<text text-anchor="middle" x="1445.5" y="-138.5" font-family="Helvetica,sans-Serif" font-size="10.00" fill="#000000"> &gt;, LinOp &gt;</text>
</g>
<!-- Node20 -->
<g id="node16" class="node">
<title>Node20</title>
<g id="a_node16"><a xlink:href="classgko_1_1EnablePolymorphicObject.html" target="_top" xlink:title=" ">
<polygon fill="#ffffff" stroke="#000000" points="1345,-166.5 1345,-196.5 1546,-196.5 1546,-166.5 1345,-166.5"/>
<text text-anchor="start" x="1353" y="-184.5" font-family="Helvetica,sans-Serif" font-size="10.00" fill="#000000">gko::EnablePolymorphicObject</text>
<text text-anchor="middle" x="1445.5" y="-173.5" font-family="Helvetica,sans-Serif" font-size="10.00" fill="#000000">&lt; ConcreteLinOp, PolymorphicBase &gt;</text>
</a>
</g>
</g>
<!-- Node13&#45;&gt;Node20 -->
<g id="edge23" class="edge">
<title>Node13&#45;&gt;Node20</title>
<path fill="none" stroke="#ffa500" stroke-dasharray="5,2" d="M1150.3118,-123.1935C1204.1661,-127.2369 1269.2999,-134.063 1327,-145.5 1352.731,-150.6003 1380.8499,-159.0154 1403.2369,-166.4275"/>
<polygon fill="#ffa500" stroke="#ffa500" points="1150.2726,-119.6815 1140.0448,-122.4459 1149.7642,-126.663 1150.2726,-119.6815"/>
<text text-anchor="start" x="1166" y="-159.5" font-family="Helvetica,sans-Serif" font-size="10.00" fill="#000000"> &lt; ConcreteLinOp, Polymorphic</text>
<text text-anchor="middle" x="1242.5" y="-148.5" font-family="Helvetica,sans-Serif" font-size="10.00" fill="#000000">Base &gt;</text>
</g>
<!-- Node14&#45;&gt;Node13 -->
<g id="edge10" class="edge">
<title>Node14&#45;&gt;Node13</title>
<path fill="none" stroke="#191970" d="M740.4636,-117.5C801.0615,-117.5 875.5974,-117.5 934.8448,-117.5"/>
<polygon fill="#191970" stroke="#191970" points="740.0922,-114.0001 730.0922,-117.5 740.0921,-121.0001 740.0922,-114.0001"/>
</g>
<!-- Node15 -->
<g id="node11" class="node">
<title>Node15</title>
<g id="a_node11"><a xlink:href="classgko_1_1EnablePolymorphicAssignment.html" target="_top" xlink:title=" ">
<polygon fill="#ffffff" stroke="#000000" points="1349.5,-248.5 1349.5,-278.5 1541.5,-278.5 1541.5,-248.5 1349.5,-248.5"/>
<text text-anchor="start" x="1357.5" y="-266.5" font-family="Helvetica,sans-Serif" font-size="10.00" fill="#000000">gko::EnablePolymorphicAssignment</text>
<text text-anchor="middle" x="1445.5" y="-255.5" font-family="Helvetica,sans-Serif" font-size="10.00" fill="#000000">&lt; Csr&lt; ValueType, IndexType &gt; &gt;</text>
</a>
</g>
</g>
<!-- Node15&#45;&gt;Node2 -->
<g id="edge13" class="edge">
<title>Node15&#45;&gt;Node2</title>
<path fill="none" stroke="#191970" d="M1551.8083,-268.6427C1650.6494,-273.8076 1801.9362,-282.6902 1933,-294.5 2020.7946,-302.4109 2042.5048,-306.7738 2130,-317.5 2140.1315,-318.742 2150.7888,-320.0764 2161.3097,-321.4102"/>
<polygon fill="#191970" stroke="#191970" points="1551.9813,-265.147 1541.8132,-268.1237 1551.6182,-272.1376 1551.9813,-265.147"/>
</g>
<!-- Node16 -->
<g id="node12" class="node">
<title>Node16</title>
<g id="a_node12"><a xlink:href="classgko_1_1ConvertibleTo.html" target="_top" xlink:title=" ">
<polygon fill="#ffffff" stroke="#000000" points="946.5,-210.5 946.5,-240.5 1128.5,-240.5 1128.5,-210.5 946.5,-210.5"/>
<text text-anchor="start" x="954.5" y="-228.5" font-family="Helvetica,sans-Serif" font-size="10.00" fill="#000000">gko::ConvertibleTo</text>
<text text-anchor="middle" x="1037.5" y="-217.5" font-family="Helvetica,sans-Serif" font-size="10.00" fill="#000000">&lt; Csr&lt; ValueType, IndexType &gt; &gt;</text>
</a>
</g>
</g>
<!-- Node16&#45;&gt;Node15 -->
<g id="edge14" class="edge">
<title>Node16&#45;&gt;Node15</title>
<path fill="none" stroke="#191970" d="M1138.726,-234.9279C1203.1228,-240.9257 1286.014,-248.6459 1349.3954,-254.5491"/>
<polygon fill="#191970" stroke="#191970" points="1138.8369,-231.4232 1128.5553,-233.9806 1138.1876,-238.393 1138.8369,-231.4232"/>
</g>
<!-- Node17 -->
<g id="node13" class="node">
<title>Node17</title>
<g id="a_node13"><a xlink:href="classgko_1_1ConvertibleTo.html" target="_top" xlink:title="ConvertibleTo interface is used to mark that the implementer can be converted to the object of Result...">
<polygon fill="#ffffff" stroke="#000000" points="576,-399.5 576,-429.5 683,-429.5 683,-399.5 576,-399.5"/>
<text text-anchor="start" x="584" y="-417.5" font-family="Helvetica,sans-Serif" font-size="10.00" fill="#000000">gko::ConvertibleTo</text>
<text text-anchor="middle" x="629.5" y="-406.5" font-family="Helvetica,sans-Serif" font-size="10.00" fill="#000000">&lt; ResultType &gt;</text>
</a>
</g>
</g>
<!-- Node17&#45;&gt;Node16 -->
<g id="edge15" class="edge">
<title>Node17&#45;&gt;Node16</title>
<path fill="none" stroke="#ffa500" stroke-dasharray="5,2" d="M641.0576,-389.9253C658.763,-355.2997 696.0874,-293.083 748,-263.5 808.1177,-229.2413 886.432,-220.7126 946.4461,-220.2153"/>
<polygon fill="#ffa500" stroke="#ffa500" points="637.7076,-388.8018 636.3927,-399.3148 643.9766,-391.9164 637.7076,-388.8018"/>
<text text-anchor="middle" x="832.5" y="-266.5" font-family="Helvetica,sans-Serif" font-size="10.00" fill="#000000"> &lt; Csr&lt; ValueType, IndexType &gt; &gt;</text>
</g>
<!-- Node18 -->
<g id="node14" class="node">
<title>Node18</title>
<g id="a_node14"><a xlink:href="classgko_1_1EnablePolymorphicAssignment.html" target="_top" xlink:title="This mixin is used to enable a default PolymorphicObject::copy_from() implementation for objects that...">
<polygon fill="#ffffff" stroke="#000000" points="941.5,-259.5 941.5,-289.5 1133.5,-289.5 1133.5,-259.5 941.5,-259.5"/>
<text text-anchor="start" x="949.5" y="-277.5" font-family="Helvetica,sans-Serif" font-size="10.00" fill="#000000">gko::EnablePolymorphicAssignment</text>
<text text-anchor="middle" x="1037.5" y="-266.5" font-family="Helvetica,sans-Serif" font-size="10.00" fill="#000000">&lt; ConcreteType, ResultType &gt;</text>
</a>
</g>
</g>
<!-- Node17&#45;&gt;Node18 -->
<g id="edge17" class="edge">
<title>Node17&#45;&gt;Node18</title>
<path fill="none" stroke="#191970" d="M650.2884,-392.0397C672.2901,-369.7843 709.1472,-336.6175 748,-319.5 808.9762,-292.6355 883.3544,-281.4816 941.4515,-276.9941"/>
<polygon fill="#191970" stroke="#191970" points="647.5904,-389.7946 643.1468,-399.4125 652.6183,-394.6649 647.5904,-389.7946"/>
</g>
<!-- Node23 -->
<g id="node19" class="node">
<title>Node23</title>
<g id="a_node19"><a xlink:href="classgko_1_1ConvertibleTo.html" target="_top" xlink:title=" ">
<polygon fill="#ffffff" stroke="#000000" points="982.5,-308.5 982.5,-338.5 1092.5,-338.5 1092.5,-308.5 982.5,-308.5"/>
<text text-anchor="start" x="990.5" y="-326.5" font-family="Helvetica,sans-Serif" font-size="10.00" fill="#000000">gko::ConvertibleTo</text>
<text text-anchor="middle" x="1037.5" y="-315.5" font-family="Helvetica,sans-Serif" font-size="10.00" fill="#000000">&lt; ConcreteLinOp &gt;</text>
</a>
</g>
</g>
<!-- Node17&#45;&gt;Node23 -->
<g id="edge26" class="edge">
<title>Node17&#45;&gt;Node23</title>
<path fill="none" stroke="#ffa500" stroke-dasharray="5,2" d="M659.6704,-393.7694C682.7674,-379.0303 715.9963,-360.1933 748,-350.5 826.9888,-326.5759 923.1693,-322.1977 982.3621,-322.1573"/>
<polygon fill="#ffa500" stroke="#ffa500" points="657.5056,-391.0022 651.0346,-399.3913 661.3248,-396.8687 657.5056,-391.0022"/>
<text text-anchor="middle" x="832.5" y="-353.5" font-family="Helvetica,sans-Serif" font-size="10.00" fill="#000000"> &lt; ConcreteLinOp &gt;</text>
</g>
<!-- Node26 -->
<g id="node22" class="node">
<title>Node26</title>
<g id="a_node22"><a xlink:href="classgko_1_1ConvertibleTo.html" target="_top" xlink:title=" ">
<polygon fill="#ffffff" stroke="#000000" points="1171.5,-398.5 1171.5,-428.5 1313.5,-428.5 1313.5,-398.5 1171.5,-398.5"/>
<text text-anchor="start" x="1179.5" y="-416.5" font-family="Helvetica,sans-Serif" font-size="10.00" fill="#000000">gko::ConvertibleTo</text>
<text text-anchor="middle" x="1242.5" y="-405.5" font-family="Helvetica,sans-Serif" font-size="10.00" fill="#000000">&lt; Dense&lt; ValueType &gt; &gt;</text>
</a>
</g>
</g>
<!-- Node17&#45;&gt;Node26 -->
<g id="edge31" class="edge">
<title>Node17&#45;&gt;Node26</title>
<path fill="none" stroke="#ffa500" stroke-dasharray="5,2" d="M693.173,-414.3961C808.3941,-414.2082 1050.6982,-413.8129 1171.2498,-413.6162"/>
<polygon fill="#ffa500" stroke="#ffa500" points="693.0889,-410.8962 683.0946,-414.4126 693.1003,-417.8962 693.0889,-410.8962"/>
<text text-anchor="middle" x="832.5" y="-416.5" font-family="Helvetica,sans-Serif" font-size="10.00" fill="#000000"> &lt; Dense&lt; ValueType &gt; &gt;</text>
</g>
<!-- Node27 -->
<g id="node23" class="node">
<title>Node27</title>
<g id="a_node23"><a xlink:href="classgko_1_1ConvertibleTo.html" target="_top" xlink:title=" ">
<polygon fill="#ffffff" stroke="#000000" points="1564,-360.5 1564,-390.5 1749,-390.5 1749,-360.5 1564,-360.5"/>
<text text-anchor="start" x="1572" y="-378.5" font-family="Helvetica,sans-Serif" font-size="10.00" fill="#000000">gko::ConvertibleTo</text>
<text text-anchor="middle" x="1656.5" y="-367.5" font-family="Helvetica,sans-Serif" font-size="10.00" fill="#000000">&lt; Coo&lt; ValueType, IndexType &gt; &gt;</text>
</a>
</g>
</g>
<!-- Node17&#45;&gt;Node27 -->
<g id="edge33" class="edge">
<title>Node17&#45;&gt;Node27</title>
<path fill="none" stroke="#ffa500" stroke-dasharray="5,2" d="M693.0086,-410.9515C754.7933,-407.5519 851.3235,-402.3796 935,-398.5 1034.0854,-393.906 1058.8662,-392.8924 1158,-389.5 1299.4743,-384.6587 1463.5763,-380.2908 1563.6951,-377.7664"/>
<polygon fill="#ffa500" stroke="#ffa500" points="692.8133,-407.4569 683.0212,-411.5023 693.1988,-414.4463 692.8133,-407.4569"/>
<text text-anchor="middle" x="1037.5" y="-401.5" font-family="Helvetica,sans-Serif" font-size="10.00" fill="#000000"> &lt; Coo&lt; ValueType, IndexType &gt; &gt;</text>
</g>
<!-- Node28 -->
<g id="node24" class="node">
<title>Node28</title>
<g id="a_node24"><a xlink:href="classgko_1_1ConvertibleTo.html" target="_top" xlink:title=" ">
<polygon fill="#ffffff" stroke="#000000" points="1951,-569.5 1951,-599.5 2130,-599.5 2130,-569.5 1951,-569.5"/>
<text text-anchor="start" x="1959" y="-587.5" font-family="Helvetica,sans-Serif" font-size="10.00" fill="#000000">gko::ConvertibleTo</text>
<text text-anchor="middle" x="2040.5" y="-576.5" font-family="Helvetica,sans-Serif" font-size="10.00" fill="#000000">&lt; Ell&lt; ValueType, IndexType &gt; &gt;</text>
</a>
</g>
</g>
<!-- Node17&#45;&gt;Node28 -->
<g id="edge35" class="edge">
<title>Node17&#45;&gt;Node28</title>
<path fill="none" stroke="#ffa500" stroke-dasharray="5,2" d="M641.0081,-438.9264C658.6527,-473.2806 695.9034,-534.7673 748,-562.5 861.9662,-623.1679 908.3919,-586.5 1037.5,-586.5 1037.5,-586.5 1037.5,-586.5 1656.5,-586.5 1757.3347,-586.5 1873.0614,-585.8019 1950.8848,-585.2305"/>
<polygon fill="#ffa500" stroke="#ffa500" points="643.9547,-436.9923 636.3605,-429.6046 637.6901,-440.1157 643.9547,-436.9923"/>
<text text-anchor="middle" x="1242.5" y="-589.5" font-family="Helvetica,sans-Serif" font-size="10.00" fill="#000000"> &lt; Ell&lt; ValueType, IndexType &gt; &gt;</text>
</g>
<!-- Node29 -->
<g id="node25" class="node">
<title>Node29</title>
<g id="a_node25"><a xlink:href="classgko_1_1ConvertibleTo.html" target="_top" xlink:title=" ">
<polygon fill="#ffffff" stroke="#000000" points="1180.5,-521 1180.5,-562 1304.5,-562 1304.5,-521 1180.5,-521"/>
<text text-anchor="start" x="1188.5" y="-550" font-family="Helvetica,sans-Serif" font-size="10.00" fill="#000000">gko::ConvertibleTo</text>
<text text-anchor="start" x="1188.5" y="-539" font-family="Helvetica,sans-Serif" font-size="10.00" fill="#000000">&lt; Hybrid&lt; ValueType,</text>
<text text-anchor="middle" x="1242.5" y="-528" font-family="Helvetica,sans-Serif" font-size="10.00" fill="#000000"> IndexType &gt; &gt;</text>
</a>
</g>
</g>
<!-- Node17&#45;&gt;Node29 -->
<g id="edge37" class="edge">
<title>Node17&#45;&gt;Node29</title>
<path fill="none" stroke="#ffa500" stroke-dasharray="5,2" d="M648.8346,-437.3289C670.3346,-460.8909 707.4209,-496.408 748,-512.5 824.8441,-542.9733 1065.153,-544.0321 1180.0729,-542.6698"/>
<polygon fill="#ffa500" stroke="#ffa500" points="651.4261,-434.9761 642.1583,-429.8419 646.2016,-439.635 651.4261,-434.9761"/>
<text text-anchor="start" x="777" y="-550.5" font-family="Helvetica,sans-Serif" font-size="10.00" fill="#000000"> &lt; Hybrid&lt; ValueType,</text>
<text text-anchor="middle" x="832.5" y="-539.5" font-family="Helvetica,sans-Serif" font-size="10.00" fill="#000000"> IndexType &gt; &gt;</text>
</g>
<!-- Node30 -->
<g id="node26" class="node">
<title>Node30</title>
<g id="a_node26"><a xlink:href="classgko_1_1ConvertibleTo.html" target="_top" xlink:title=" ">
<polygon fill="#ffffff" stroke="#000000" points="1598.5,-474 1598.5,-515 1714.5,-515 1714.5,-474 1598.5,-474"/>
<text text-anchor="start" x="1606.5" y="-503" font-family="Helvetica,sans-Serif" font-size="10.00" fill="#000000">gko::ConvertibleTo</text>
<text text-anchor="start" x="1606.5" y="-492" font-family="Helvetica,sans-Serif" font-size="10.00" fill="#000000">&lt; Sellp&lt; ValueType,</text>
<text text-anchor="middle" x="1656.5" y="-481" font-family="Helvetica,sans-Serif" font-size="10.00" fill="#000000"> IndexType &gt; &gt;</text>
</a>
</g>
</g>
<!-- Node17&#45;&gt;Node30 -->
<g id="edge39" class="edge">
<title>Node17&#45;&gt;Node30</title>
<path fill="none" stroke="#ffa500" stroke-dasharray="5,2" d="M664.7885,-434.2608C687.7323,-446.0147 718.7237,-459.8867 748,-466.5 910.7729,-503.2691 1424.6947,-498.3947 1598.4445,-495.589"/>
<polygon fill="#ffa500" stroke="#ffa500" points="666.2714,-431.0865 655.7889,-429.5477 663.0239,-437.2876 666.2714,-431.0865"/>
<text text-anchor="start" x="986" y="-508.5" font-family="Helvetica,sans-Serif" font-size="10.00" fill="#000000"> &lt; Sellp&lt; ValueType,</text>
<text text-anchor="middle" x="1037.5" y="-497.5" font-family="Helvetica,sans-Serif" font-size="10.00" fill="#000000"> IndexType &gt; &gt;</text>
</g>
<!-- Node31 -->
<g id="node27" class="node">
<title>Node31</title>
<g id="a_node27"><a xlink:href="classgko_1_1ConvertibleTo.html" target="_top" xlink:title=" ">
<polygon fill="#ffffff" stroke="#000000" points="1967,-432 1967,-473 2114,-473 2114,-432 1967,-432"/>
<text text-anchor="start" x="1975" y="-461" font-family="Helvetica,sans-Serif" font-size="10.00" fill="#000000">gko::ConvertibleTo</text>
<text text-anchor="start" x="1975" y="-450" font-family="Helvetica,sans-Serif" font-size="10.00" fill="#000000">&lt; SparsityCsr&lt; ValueType,</text>
<text text-anchor="middle" x="2040.5" y="-439" font-family="Helvetica,sans-Serif" font-size="10.00" fill="#000000"> IndexType &gt; &gt;</text>
</a>
</g>
</g>
<!-- Node17&#45;&gt;Node31 -->
<g id="edge41" class="edge">
<title>Node17&#45;&gt;Node31</title>
<path fill="none" stroke="#ffa500" stroke-dasharray="5,2" d="M693.076,-424.109C773.1917,-435.3665 915.212,-452.5 1037.5,-452.5 1037.5,-452.5 1037.5,-452.5 1656.5,-452.5 1764.5,-452.5 1889.5859,-452.5 1966.8846,-452.5"/>
<polygon fill="#ffa500" stroke="#ffa500" points="693.5352,-420.6392 683.1425,-422.6987 692.5512,-427.5697 693.5352,-420.6392"/>
<text text-anchor="start" x="1175.5" y="-466.5" font-family="Helvetica,sans-Serif" font-size="10.00" fill="#000000"> &lt; SparsityCsr&lt; ValueType,</text>
<text text-anchor="middle" x="1242.5" y="-455.5" font-family="Helvetica,sans-Serif" font-size="10.00" fill="#000000"> IndexType &gt; &gt;</text>
</g>
<!-- Node18&#45;&gt;Node15 -->
<g id="edge16" class="edge">
<title>Node18&#45;&gt;Node15</title>
<path fill="none" stroke="#ffa500" stroke-dasharray="5,2" d="M1144.1259,-265.1963C1148.8123,-264.931 1153.4532,-264.6963 1158,-264.5 1221.7052,-261.7502 1293.4241,-261.4958 1349.2946,-261.931"/>
<polygon fill="#ffa500" stroke="#ffa500" points="1143.5819,-261.7228 1133.8125,-265.8228 1144.0064,-268.7099 1143.5819,-261.7228"/>
<text text-anchor="middle" x="1242.5" y="-267.5" font-family="Helvetica,sans-Serif" font-size="10.00" fill="#000000"> &lt; Csr&lt; ValueType, IndexType &gt; &gt;</text>
</g>
<!-- Node22 -->
<g id="node18" class="node">
<title>Node22</title>
<g id="a_node18"><a xlink:href="classgko_1_1EnablePolymorphicAssignment.html" target="_top" xlink:title=" ">
<polygon fill="#ffffff" stroke="#000000" points="1349.5,-303.5 1349.5,-333.5 1541.5,-333.5 1541.5,-303.5 1349.5,-303.5"/>
<text text-anchor="start" x="1357.5" y="-321.5" font-family="Helvetica,sans-Serif" font-size="10.00" fill="#000000">gko::EnablePolymorphicAssignment</text>
<text text-anchor="middle" x="1445.5" y="-310.5" font-family="Helvetica,sans-Serif" font-size="10.00" fill="#000000">&lt; ConcreteLinOp &gt;</text>
</a>
</g>
</g>
<!-- Node18&#45;&gt;Node22 -->
<g id="edge27" class="edge">
<title>Node18&#45;&gt;Node22</title>
<path fill="none" stroke="#ffa500" stroke-dasharray="5,2" d="M1143.7746,-285.1446C1198.5304,-290.7224 1266.3646,-297.7768 1327,-304.5 1334.3094,-305.3105 1341.8703,-306.1654 1349.4724,-307.0368"/>
<polygon fill="#ffa500" stroke="#ffa500" points="1144.0102,-281.6506 1133.7074,-284.1207 1143.3019,-288.6147 1144.0102,-281.6506"/>
<text text-anchor="middle" x="1242.5" y="-307.5" font-family="Helvetica,sans-Serif" font-size="10.00" fill="#000000"> &lt; ConcreteLinOp &gt;</text>
</g>
<!-- Node19 -->
<g id="node15" class="node">
<title>Node19</title>
<g id="a_node15"><a xlink:href="classgko_1_1EnableLinOp.html" target="_top" xlink:title="The EnableLinOp mixin can be used to provide sensible default implementations of the majority of the ...">
<polygon fill="#ffffff" stroke="#000000" points="1772,-303.5 1772,-333.5 1928,-333.5 1928,-303.5 1772,-303.5"/>
<text text-anchor="start" x="1780" y="-321.5" font-family="Helvetica,sans-Serif" font-size="10.00" fill="#000000">gko::EnableLinOp&lt; Concrete</text>
<text text-anchor="middle" x="1850" y="-310.5" font-family="Helvetica,sans-Serif" font-size="10.00" fill="#000000">LinOp, PolymorphicBase &gt;</text>
</a>
</g>
</g>
<!-- Node19&#45;&gt;Node2 -->
<g id="edge18" class="edge">
<title>Node19&#45;&gt;Node2</title>
<path fill="none" stroke="#ffa500" stroke-dasharray="5,2" d="M1938.3865,-321.4538C2005.4845,-323.6961 2096.8632,-326.7499 2161.2054,-328.9002"/>
<polygon fill="#ffa500" stroke="#ffa500" points="1938.3634,-317.9512 1928.252,-321.1151 1938.1295,-324.9473 1938.3634,-317.9512"/>
<text text-anchor="middle" x="2040.5" y="-330.5" font-family="Helvetica,sans-Serif" font-size="10.00" fill="#000000"> &lt; Csr&lt; ValueType, IndexType &gt; &gt;</text>
</g>
<!-- Node20&#45;&gt;Node19 -->
<g id="edge19" class="edge">
<title>Node20&#45;&gt;Node19</title>
<path fill="none" stroke="#191970" d="M1499.427,-199.7645C1580.0965,-227.0864 1730.6871,-278.09 1805.4808,-303.4218"/>
<polygon fill="#191970" stroke="#191970" points="1500.54,-196.4462 1489.9457,-196.5533 1498.2944,-203.0763 1500.54,-196.4462"/>
</g>
<!-- Node21&#45;&gt;Node20 -->
<g id="edge20" class="edge">
<title>Node21&#45;&gt;Node20</title>
<path fill="none" stroke="#191970" d="M738.6127,-181.5C897.6378,-181.5 1190.8605,-181.5 1344.9196,-181.5"/>
<polygon fill="#191970" stroke="#191970" points="738.3349,-178.0001 728.3349,-181.5 738.3349,-185.0001 738.3349,-178.0001"/>
</g>
<!-- Node22&#45;&gt;Node19 -->
<g id="edge24" class="edge">
<title>Node22&#45;&gt;Node19</title>
<path fill="none" stroke="#191970" d="M1551.6594,-318.5C1620.7168,-318.5 1709.246,-318.5 1771.8787,-318.5"/>
<polygon fill="#191970" stroke="#191970" points="1551.6173,-315.0001 1541.6173,-318.5 1551.6172,-322.0001 1551.6173,-315.0001"/>
</g>
<!-- Node23&#45;&gt;Node22 -->
<g id="edge25" class="edge">
<title>Node23&#45;&gt;Node22</title>
<path fill="none" stroke="#191970" d="M1102.8725,-322.6989C1169.4073,-321.8835 1273.2785,-320.6106 1349.2215,-319.6799"/>
<polygon fill="#191970" stroke="#191970" points="1102.481,-319.2033 1092.5247,-322.8257 1102.5669,-326.2028 1102.481,-319.2033"/>
</g>
<!-- Node24 -->
<g id="node20" class="node">
<title>Node24</title>
<g id="a_node20"><a xlink:href="classgko_1_1EnableCreateMethod.html" target="_top" xlink:title=" ">
<polygon fill="#ffffff" stroke="#000000" points="2148,-267.5 2148,-297.5 2330,-297.5 2330,-267.5 2148,-267.5"/>
<text text-anchor="start" x="2156" y="-285.5" font-family="Helvetica,sans-Serif" font-size="10.00" fill="#000000">gko::EnableCreateMethod</text>
<text text-anchor="middle" x="2239" y="-274.5" font-family="Helvetica,sans-Serif" font-size="10.00" fill="#000000">&lt; Csr&lt; ValueType, IndexType &gt; &gt;</text>
</a>
</g>
</g>
<!-- Node24&#45;&gt;Node1 -->
<g id="edge28" class="edge">
<title>Node24&#45;&gt;Node1</title>
<path fill="none" stroke="#191970" d="M2309.2907,-300.4817C2316.3407,-302.6811 2323.3472,-305.0305 2330,-307.5 2360.7154,-318.9013 2394.4045,-335.3439 2417.5244,-347.2789"/>
<polygon fill="#191970" stroke="#191970" points="2310.2639,-297.1195 2299.679,-297.5784 2308.2397,-303.8205 2310.2639,-297.1195"/>
</g>
<!-- Node25 -->
<g id="node21" class="node">
<title>Node25</title>
<g id="a_node21"><a xlink:href="classgko_1_1EnableCreateMethod.html" target="_top" xlink:title="This mixin implements a static create() method on ConcreteType that dynamically allocates the memory,...">
<polygon fill="#ffffff" stroke="#000000" points="1779,-94.5 1779,-124.5 1921,-124.5 1921,-94.5 1779,-94.5"/>
<text text-anchor="start" x="1787" y="-112.5" font-family="Helvetica,sans-Serif" font-size="10.00" fill="#000000">gko::EnableCreateMethod</text>
<text text-anchor="middle" x="1850" y="-101.5" font-family="Helvetica,sans-Serif" font-size="10.00" fill="#000000">&lt; ConcreteType &gt;</text>
</a>
</g>
</g>
<!-- Node25&#45;&gt;Node24 -->
<g id="edge29" class="edge">
<title>Node25&#45;&gt;Node24</title>
<path fill="none" stroke="#ffa500" stroke-dasharray="5,2" d="M1931.3064,-100.3977C1994.0771,-98.1807 2078.6265,-106.4638 2130,-157.5 2162.3474,-189.635 2117.0988,-224.9719 2148,-258.5 2151.1005,-261.864 2154.6113,-264.7793 2158.4057,-267.3037"/>
<polygon fill="#ffa500" stroke="#ffa500" points="1930.8675,-96.9138 1921.035,-100.86 1931.1823,-103.9068 1930.8675,-96.9138"/>
<text text-anchor="middle" x="2040.5" y="-160.5" font-family="Helvetica,sans-Serif" font-size="10.00" fill="#000000"> &lt; Csr&lt; ValueType, IndexType &gt; &gt;</text>
</g>
<!-- Node26&#45;&gt;Node1 -->
<g id="edge30" class="edge">
<title>Node26&#45;&gt;Node1</title>
<path fill="none" stroke="#191970" d="M1323.7371,-413.5C1407.212,-413.5 1540.9297,-413.5 1656.5,-413.5 1656.5,-413.5 1656.5,-413.5 2239,-413.5 2299.6999,-413.5 2367.581,-392.5696 2408.531,-377.5258"/>
<polygon fill="#191970" stroke="#191970" points="1323.5594,-410.0001 1313.5594,-413.5 1323.5593,-417.0001 1323.5594,-410.0001"/>
</g>
<!-- Node27&#45;&gt;Node1 -->
<g id="edge32" class="edge">
<title>Node27&#45;&gt;Node1</title>
<path fill="none" stroke="#191970" d="M1759.6968,-373.8007C1919.423,-371.1707 2223.0578,-366.171 2366.7893,-363.8043"/>
<polygon fill="#191970" stroke="#191970" points="1759.3283,-370.3062 1749.3873,-373.9705 1759.4436,-377.3053 1759.3283,-370.3062"/>
</g>
<!-- Node28&#45;&gt;Node1 -->
<g id="edge34" class="edge">
<title>Node28&#45;&gt;Node1</title>
<path fill="none" stroke="#191970" d="M2140.529,-597.7214C2205.3389,-601.0285 2288.6118,-594.8597 2349,-553.5 2411.5955,-510.6285 2436.0254,-414.7966 2443.3673,-377.6337"/>
<polygon fill="#191970" stroke="#191970" points="2140.4823,-594.2125 2130.2923,-597.1132 2140.067,-601.2002 2140.4823,-594.2125"/>
</g>
<!-- Node29&#45;&gt;Node1 -->
<g id="edge36" class="edge">
<title>Node29&#45;&gt;Node1</title>
<path fill="none" stroke="#191970" d="M1314.6058,-540.9407C1397.2068,-540.349 1536.616,-539.5 1656.5,-539.5 1656.5,-539.5 1656.5,-539.5 2239,-539.5 2338.2966,-539.5 2413.9776,-420.3945 2437.9694,-377.5909"/>
<polygon fill="#191970" stroke="#191970" points="1314.5466,-537.4409 1304.5722,-541.0133 1314.5973,-544.4407 1314.5466,-537.4409"/>
</g>
<!-- Node30&#45;&gt;Node1 -->
<g id="edge38" class="edge">
<title>Node30&#45;&gt;Node1</title>
<path fill="none" stroke="#191970" d="M1725.0271,-505.5745C1850.6315,-522.771 2123.7633,-545.6214 2330,-459.5 2374.089,-441.0891 2414.1191,-399.8293 2433.5775,-377.5143"/>
<polygon fill="#191970" stroke="#191970" points="1725.1775,-502.0615 1714.7885,-504.1402 1724.2062,-508.9938 1725.1775,-502.0615"/>
</g>
<!-- Node31&#45;&gt;Node1 -->
<g id="edge40" class="edge">
<title>Node31&#45;&gt;Node1</title>
<path fill="none" stroke="#191970" d="M2124.3598,-456.9692C2187.7708,-457.6926 2276.0674,-452.94 2349,-427.5 2380.1992,-416.6172 2410.993,-393.2413 2429.2492,-377.6934"/>
<polygon fill="#191970" stroke="#191970" points="2124.0637,-453.464 2114.0078,-456.8001 2123.9493,-460.463 2124.0637,-453.464"/>
</g>
<!-- Node32 -->
<g id="node28" class="node">
<title>Node32</title>
<g id="a_node28"><a xlink:href="classgko_1_1ReadableFromMatrixData.html" target="_top" xlink:title="A LinOp implementing this interface can read its data from a matrix_data structure.">
<polygon fill="#ffffff" stroke="#000000" points="2157,-218.5 2157,-248.5 2321,-248.5 2321,-218.5 2157,-218.5"/>
<text text-anchor="start" x="2165" y="-236.5" font-family="Helvetica,sans-Serif" font-size="10.00" fill="#000000">gko::ReadableFromMatrixData</text>
<text text-anchor="middle" x="2239" y="-225.5" font-family="Helvetica,sans-Serif" font-size="10.00" fill="#000000">&lt; ValueType, IndexType &gt;</text>
</a>
</g>
</g>
<!-- Node32&#45;&gt;Node1 -->
<g id="edge42" class="edge">
<title>Node32&#45;&gt;Node1</title>
<path fill="none" stroke="#191970" d="M2316.8793,-252.2235C2321.4071,-254.1296 2325.8157,-256.2168 2330,-258.5 2373.2122,-282.0794 2413.6122,-324.6968 2433.3577,-347.3647"/>
<polygon fill="#191970" stroke="#191970" points="2318.0403,-248.9197 2307.4516,-248.5602 2315.505,-255.4444 2318.0403,-248.9197"/>
</g>
<!-- Node33 -->
<g id="node29" class="node">
<title>Node33</title>
<g id="a_node29"><a xlink:href="classgko_1_1WritableToMatrixData.html" target="_top" xlink:title="A LinOp implementing this interface can write its data to a matrix_data structure.">
<polygon fill="#ffffff" stroke="#000000" points="2166,-169.5 2166,-199.5 2312,-199.5 2312,-169.5 2166,-169.5"/>
<text text-anchor="start" x="2174" y="-187.5" font-family="Helvetica,sans-Serif" font-size="10.00" fill="#000000">gko::WritableToMatrixData</text>
<text text-anchor="middle" x="2239" y="-176.5" font-family="Helvetica,sans-Serif" font-size="10.00" fill="#000000">&lt; ValueType, IndexType &gt;</text>
</a>
</g>
</g>
<!-- Node33&#45;&gt;Node1 -->
<g id="edge43" class="edge">
<title>Node33&#45;&gt;Node1</title>
<path fill="none" stroke="#191970" d="M2320.7702,-203.9932C2323.9695,-205.6795 2327.0618,-207.5109 2330,-209.5 2384.1028,-246.1258 2423.3578,-316.3541 2438.7866,-347.2617"/>
<polygon fill="#191970" stroke="#191970" points="2322.0462,-200.7251 2311.5097,-199.6151 2319.0543,-207.0535 2322.0462,-200.7251"/>
</g>
<!-- Node34 -->
<g id="node30" class="node">
<title>Node34</title>
<g id="a_node30"><a xlink:href="classgko_1_1Transposable.html" target="_top" xlink:title="Linear operators which support transposition should implement the Transposable interface.">
<polygon fill="#ffffff" stroke="#000000" points="2187,-131 2187,-150 2291,-150 2291,-131 2187,-131"/>
<text text-anchor="middle" x="2239" y="-138" font-family="Helvetica,sans-Serif" font-size="10.00" fill="#000000">gko::Transposable</text>
</a>
</g>
</g>
<!-- Node34&#45;&gt;Node1 -->
<g id="edge44" class="edge">
<title>Node34&#45;&gt;Node1</title>
<path fill="none" stroke="#191970" d="M2301.1406,-146.8767C2311.4302,-149.9074 2321.5,-154.2643 2330,-160.5 2396.8446,-209.5381 2431.0185,-309.5712 2441.9817,-347.482"/>
<polygon fill="#191970" stroke="#191970" points="2301.8065,-143.4347 2291.2521,-144.3594 2300.0796,-150.2183 2301.8065,-143.4347"/>
</g>
<!-- Node35 -->
<g id="node31" class="node">
<title>Node35</title>
<g id="a_node31"><a xlink:href="classgko_1_1Permutable.html" target="_top" xlink:title="Linear operators which support permutation should implement the Permutable interface.">
<polygon fill="#ffffff" stroke="#000000" points="2154.5,-93 2154.5,-112 2323.5,-112 2323.5,-93 2154.5,-93"/>
<text text-anchor="middle" x="2239" y="-100" font-family="Helvetica,sans-Serif" font-size="10.00" fill="#000000">gko::Permutable&lt; IndexType &gt;</text>
</a>
</g>
</g>
<!-- Node35&#45;&gt;Node1 -->
<g id="edge45" class="edge">
<title>Node35&#45;&gt;Node1</title>
<path fill="none" stroke="#191970" d="M2323.356,-116.9326C2325.6646,-118.3275 2327.8869,-119.8464 2330,-121.5 2406.6109,-181.4526 2435.5179,-304.6803 2443.4916,-347.4685"/>
<polygon fill="#191970" stroke="#191970" points="2324.5649,-113.6182 2314.0729,-112.1459 2321.3568,-119.8397 2324.5649,-113.6182"/>
</g>
</g>
</svg>
