<?xml version="1.0" encoding="UTF-8" standalone="no"?>
<!DOCTYPE svg PUBLIC "-//W3C//DTD SVG 1.1//EN"
 "http://www.w3.org/Graphics/SVG/1.1/DTD/svg11.dtd">
<!-- Generated by graphviz version 2.40.1 (20161225.0304)
 -->
<!-- Title: gko::preconditioner::Ilu&lt; LSolverType, USolverType, ReverseApply, IndexTypeParIlu &gt; Pages: 1 -->
<!--zoomable 369 -->
<svg id="main" version="1.1" xmlns="http://www.w3.org/2000/svg" xmlns:xlink="http://www.w3.org/1999/xlink" xml:space="preserve" onload="init(evt)">
<style type="text/css"><![CDATA[
.edge:hover path { stroke: red; }
.edge:hover polygon { stroke: red; fill: red; }
]]></style>
<script type="text/javascript"><![CDATA[
var edges = document.getElementsByTagName('g');
if (edges && edges.length) {
  for (var i=0;i<edges.length;i++) {
    if (edges[i].id.substr(0,4)=='edge') {
      edges[i].setAttribute('class','edge');
    }
  }
}
]]></script>
        <defs>
                <circle id="rim" cx="0" cy="0" r="7"/>
                <circle id="rim2" cx="0" cy="0" r="3.5"/>
                <g id="zoomPlus">
                        <use xlink:href="#rim" fill="#404040">
                                <set attributeName="fill" to="#808080" begin="zoomplus.mouseover" end="zoomplus.mouseout"/>
                        </use>
                        <path d="M-4,0h8M0,-4v8" fill="none" stroke="white" stroke-width="1.5" pointer-events="none"/>
                </g>
                <g id="zoomMin">
                        <use xlink:href="#rim" fill="#404040">
                                <set attributeName="fill" to="#808080" begin="zoomminus.mouseover" end="zoomminus.mouseout"/>
                        </use>
                        <path d="M-4,0h8" fill="none" stroke="white" stroke-width="1.5" pointer-events="none"/>
                </g>
                <g id="dirArrow">
                        <path fill="none" stroke="white" stroke-width="1.5" d="M0,-3.0v7 M-2.5,-0.5L0,-3.0L2.5,-0.5"/>
                </g>
               <g id="resetDef">
                       <use xlink:href="#rim2" fill="#404040">
                               <set attributeName="fill" to="#808080" begin="reset.mouseover" end="reset.mouseout"/>
                       </use>
               </g>
        </defs>

<script type="text/javascript">
var viewWidth = 2281;
var viewHeight = 369;
var sectionId = 'dynsection-0';
</script>
<script xlink:href="svgpan.js"/>
<svg id="graph" class="graph">
<g id="viewport">
<title>gko::preconditioner::Ilu&lt; LSolverType, USolverType, ReverseApply, IndexTypeParIlu &gt;</title>
<polygon fill="#ffffff" stroke="transparent" points="-4,4 -4,-365 2277,-365 2277,4 -4,4"/>
<!-- Node1 -->
<g id="node1" class="node">
<title>Node1</title>
<g id="a_node1"><a xlink:title="The Incomplete LU (ILU) preconditioner solves the equation &#160;for a given lower triangular matrix L,...">
<polygon fill="#bfbfbf" stroke="#000000" points="2117,-131.5 2117,-183.5 2273,-183.5 2273,-131.5 2117,-131.5"/>
<text text-anchor="start" x="2125" y="-171.5" font-family="Helvetica,sans-Serif" font-size="10.00" fill="#000000">gko::preconditioner</text>
<text text-anchor="start" x="2125" y="-160.5" font-family="Helvetica,sans-Serif" font-size="10.00" fill="#000000">::Ilu&lt; LSolverType,</text>
<text text-anchor="start" x="2125" y="-149.5" font-family="Helvetica,sans-Serif" font-size="10.00" fill="#000000"> USolverType, ReverseApply,</text>
<text text-anchor="middle" x="2195" y="-138.5" font-family="Helvetica,sans-Serif" font-size="10.00" fill="#000000"> IndexTypeParIlu &gt;</text>
</a>
</g>
</g>
<!-- Node2 -->
<g id="node2" class="node">
<title>Node2</title>
<g id="a_node2"><a xlink:href="classgko_1_1EnableLinOp.html" target="_top" xlink:title=" ">
<polygon fill="#ffffff" stroke="#000000" points="1889,-137 1889,-178 2080,-178 2080,-137 1889,-137"/>
<text text-anchor="start" x="1897" y="-166" font-family="Helvetica,sans-Serif" font-size="10.00" fill="#000000">gko::EnableLinOp&lt; Ilu</text>
<text text-anchor="start" x="1897" y="-155" font-family="Helvetica,sans-Serif" font-size="10.00" fill="#000000">&lt; LSolverType, USolverType,</text>
<text text-anchor="middle" x="1984.5" y="-144" font-family="Helvetica,sans-Serif" font-size="10.00" fill="#000000"> ReverseApply, IndexTypeParIlu &gt; &gt;</text>
</a>
</g>
</g>
<!-- Node2&#45;&gt;Node1 -->
<g id="edge1" class="edge">
<title>Node2&#45;&gt;Node1</title>
<path fill="none" stroke="#191970" d="M2090.2955,-157.5C2099.245,-157.5 2108.1893,-157.5 2116.8694,-157.5"/>
<polygon fill="#191970" stroke="#191970" points="2090.2029,-154.0001 2080.2028,-157.5 2090.2028,-161.0001 2090.2029,-154.0001"/>
</g>
<!-- Node3 -->
<g id="node3" class="node">
<title>Node3</title>
<g id="a_node3"><a xlink:href="classgko_1_1EnablePolymorphicObject.html" target="_top" xlink:title=" ">
<polygon fill="#ffffff" stroke="#000000" points="1534,-223.5 1534,-275.5 1713,-275.5 1713,-223.5 1534,-223.5"/>
<text text-anchor="start" x="1542" y="-263.5" font-family="Helvetica,sans-Serif" font-size="10.00" fill="#000000">gko::EnablePolymorphicObject</text>
<text text-anchor="start" x="1542" y="-252.5" font-family="Helvetica,sans-Serif" font-size="10.00" fill="#000000">&lt; Ilu&lt; LSolverType, USolverType,</text>
<text text-anchor="start" x="1542" y="-241.5" font-family="Helvetica,sans-Serif" font-size="10.00" fill="#000000"> ReverseApply, IndexTypeParIlu</text>
<text text-anchor="middle" x="1623.5" y="-230.5" font-family="Helvetica,sans-Serif" font-size="10.00" fill="#000000"> &gt;, LinOp &gt;</text>
</a>
</g>
</g>
<!-- Node3&#45;&gt;Node2 -->
<g id="edge2" class="edge">
<title>Node3&#45;&gt;Node2</title>
<path fill="none" stroke="#191970" d="M1722.9223,-229.6949C1768.3253,-220.0653 1822.6428,-207.7219 1871,-194.5 1888.6926,-189.6625 1907.7169,-183.7477 1925.0377,-178.0787"/>
<polygon fill="#191970" stroke="#191970" points="1722.1409,-226.2826 1713.0778,-231.7701 1723.5848,-233.1321 1722.1409,-226.2826"/>
</g>
<!-- Node4 -->
<g id="node4" class="node">
<title>Node4</title>
<g id="a_node4"><a xlink:href="classgko_1_1EnableAbstractPolymorphicObject.html" target="_top" xlink:title=" ">
<polygon fill="#ffffff" stroke="#000000" points="1309,-301.5 1309,-353.5 1484,-353.5 1484,-301.5 1309,-301.5"/>
<text text-anchor="start" x="1317" y="-341.5" font-family="Helvetica,sans-Serif" font-size="10.00" fill="#000000">gko::EnableAbstractPolymorphic</text>
<text text-anchor="start" x="1317" y="-330.5" font-family="Helvetica,sans-Serif" font-size="10.00" fill="#000000">Object&lt; Ilu&lt; LSolverType,</text>
<text text-anchor="start" x="1317" y="-319.5" font-family="Helvetica,sans-Serif" font-size="10.00" fill="#000000"> USolverType, ReverseApply,</text>
<text text-anchor="middle" x="1396.5" y="-308.5" font-family="Helvetica,sans-Serif" font-size="10.00" fill="#000000"> IndexTypeParIlu &gt;, LinOp &gt;</text>
</a>
</g>
</g>
<!-- Node4&#45;&gt;Node3 -->
<g id="edge3" class="edge">
<title>Node4&#45;&gt;Node3</title>
<path fill="none" stroke="#191970" d="M1481.8913,-298.1585C1503.5028,-290.7325 1526.5653,-282.808 1547.6682,-275.5567"/>
<polygon fill="#191970" stroke="#191970" points="1480.7232,-294.8589 1472.4033,-301.4187 1482.998,-301.479 1480.7232,-294.8589"/>
</g>
<!-- Node5 -->
<g id="node5" class="node">
<title>Node5</title>
<g id="a_node5"><a xlink:href="classgko_1_1LinOp.html" target="_top" xlink:title=" ">
<polygon fill="#ffffff" stroke="#000000" points="970.5,-333 970.5,-352 1038.5,-352 1038.5,-333 970.5,-333"/>
<text text-anchor="middle" x="1004.5" y="-340" font-family="Helvetica,sans-Serif" font-size="10.00" fill="#000000">gko::LinOp</text>
</a>
</g>
</g>
<!-- Node5&#45;&gt;Node4 -->
<g id="edge4" class="edge">
<title>Node5&#45;&gt;Node4</title>
<path fill="none" stroke="#191970" d="M1048.9667,-340.7985C1111.8762,-338.3912 1228.1665,-333.9413 1308.805,-330.8557"/>
<polygon fill="#191970" stroke="#191970" points="1048.4605,-337.3152 1038.6017,-341.1951 1048.7282,-344.3101 1048.4605,-337.3152"/>
</g>
<!-- Node6 -->
<g id="node6" class="node">
<title>Node6</title>
<g id="a_node6"><a xlink:href="classgko_1_1EnableAbstractPolymorphicObject.html" target="_top" xlink:title=" ">
<polygon fill="#ffffff" stroke="#ff0000" points="538,-330.5 538,-360.5 713,-360.5 713,-330.5 538,-330.5"/>
<text text-anchor="start" x="546" y="-348.5" font-family="Helvetica,sans-Serif" font-size="10.00" fill="#000000">gko::EnableAbstractPolymorphic</text>
<text text-anchor="middle" x="625.5" y="-337.5" font-family="Helvetica,sans-Serif" font-size="10.00" fill="#000000">Object&lt; LinOp &gt;</text>
</a>
</g>
</g>
<!-- Node6&#45;&gt;Node5 -->
<g id="edge5" class="edge">
<title>Node6&#45;&gt;Node5</title>
<path fill="none" stroke="#191970" d="M723.6403,-344.7232C804.7344,-344.0813 915.1713,-343.2071 970.2817,-342.7709"/>
<polygon fill="#191970" stroke="#191970" points="723.3748,-341.2251 713.4028,-344.8042 723.4303,-348.2248 723.3748,-341.2251"/>
</g>
<!-- Node11 -->
<g id="node7" class="node">
<title>Node11</title>
<g id="a_node7"><a xlink:href="classgko_1_1EnableAbstractPolymorphicObject.html" target="_top" xlink:title="This mixin inherits from (a subclass of) PolymorphicObject and provides a base implementation of a ne...">
<polygon fill="#ffffff" stroke="#000000" points="138,-242 138,-283 332,-283 332,-242 138,-242"/>
<text text-anchor="start" x="146" y="-271" font-family="Helvetica,sans-Serif" font-size="10.00" fill="#000000">gko::EnableAbstractPolymorphic</text>
<text text-anchor="start" x="146" y="-260" font-family="Helvetica,sans-Serif" font-size="10.00" fill="#000000">Object&lt; AbstactObject, Polymorphic</text>
<text text-anchor="middle" x="235" y="-249" font-family="Helvetica,sans-Serif" font-size="10.00" fill="#000000">Base &gt;</text>
</a>
</g>
</g>
<!-- Node11&#45;&gt;Node4 -->
<g id="edge8" class="edge">
<title>Node11&#45;&gt;Node4</title>
<path fill="none" stroke="#ffa500" stroke-dasharray="5,2" d="M342.2531,-281.6093C344.8584,-281.9261 347.4437,-282.2239 350,-282.5 350.7429,-282.5802 1056.9851,-312.9179 1308.6982,-323.7291"/>
<polygon fill="#ffa500" stroke="#ffa500" points="342.4912,-278.1111 332.1249,-280.2997 341.5935,-285.0533 342.4912,-278.1111"/>
<text text-anchor="start" x="744" y="-329.5" font-family="Helvetica,sans-Serif" font-size="10.00" fill="#000000"> &lt; Ilu&lt; LSolverType,</text>
<text text-anchor="start" x="744" y="-318.5" font-family="Helvetica,sans-Serif" font-size="10.00" fill="#000000"> USolverType, ReverseApply,</text>
<text text-anchor="middle" x="814" y="-307.5" font-family="Helvetica,sans-Serif" font-size="10.00" fill="#000000"> IndexTypeParIlu &gt;, LinOp &gt;</text>
</g>
<!-- Node11&#45;&gt;Node6 -->
<g id="edge6" class="edge">
<title>Node11&#45;&gt;Node6</title>
<path fill="none" stroke="#ffa500" stroke-dasharray="5,2" d="M282.5853,-287.4782C302.8519,-297.0848 327.0698,-307.2396 350,-313.5 411.548,-330.3039 483.1871,-338.2855 537.9835,-342.0758"/>
<polygon fill="#ffa500" stroke="#ffa500" points="284.097,-284.3215 273.5706,-283.119 281.0495,-290.6234 284.097,-284.3215"/>
<text text-anchor="middle" x="428.5" y="-341.5" font-family="Helvetica,sans-Serif" font-size="10.00" fill="#000000"> &lt; LinOp &gt;</text>
</g>
<!-- Node14 -->
<g id="node10" class="node">
<title>Node14</title>
<g id="a_node10"><a xlink:href="classgko_1_1EnableAbstractPolymorphicObject.html" target="_top" xlink:title=" ">
<polygon fill="#ffffff" stroke="#000000" points="525,-224 525,-265 726,-265 726,-224 525,-224"/>
<text text-anchor="start" x="533" y="-253" font-family="Helvetica,sans-Serif" font-size="10.00" fill="#000000">gko::EnableAbstractPolymorphic</text>
<text text-anchor="start" x="533" y="-242" font-family="Helvetica,sans-Serif" font-size="10.00" fill="#000000">Object&lt; ConcreteObject, Polymorphic</text>
<text text-anchor="middle" x="625.5" y="-231" font-family="Helvetica,sans-Serif" font-size="10.00" fill="#000000">Base &gt;</text>
</a>
</g>
</g>
<!-- Node11&#45;&gt;Node14 -->
<g id="edge12" class="edge">
<title>Node11&#45;&gt;Node14</title>
<path fill="none" stroke="#ffa500" stroke-dasharray="5,2" d="M342.1578,-257.5606C399.1787,-254.9322 468.8822,-251.7193 524.885,-249.1378"/>
<polygon fill="#ffa500" stroke="#ffa500" points="341.858,-254.0706 332.0298,-258.0274 342.1804,-261.0632 341.858,-254.0706"/>
<text text-anchor="start" x="350" y="-270.5" font-family="Helvetica,sans-Serif" font-size="10.00" fill="#000000"> &lt; ConcreteObject, Polymorphic</text>
<text text-anchor="middle" x="428.5" y="-259.5" font-family="Helvetica,sans-Serif" font-size="10.00" fill="#000000">Base &gt;</text>
</g>
<!-- Node21 -->
<g id="node17" class="node">
<title>Node21</title>
<g id="a_node17"><a xlink:href="classgko_1_1EnableAbstractPolymorphicObject.html" target="_top" xlink:title=" ">
<polygon fill="#ffffff" stroke="#000000" points="527,-159 527,-200 724,-200 724,-159 527,-159"/>
<text text-anchor="start" x="535" y="-188" font-family="Helvetica,sans-Serif" font-size="10.00" fill="#000000">gko::EnableAbstractPolymorphic</text>
<text text-anchor="start" x="535" y="-177" font-family="Helvetica,sans-Serif" font-size="10.00" fill="#000000">Object&lt; ConcreteLinOp, Polymorphic</text>
<text text-anchor="middle" x="625.5" y="-166" font-family="Helvetica,sans-Serif" font-size="10.00" fill="#000000">Base &gt;</text>
</a>
</g>
</g>
<!-- Node11&#45;&gt;Node21 -->
<g id="edge22" class="edge">
<title>Node11&#45;&gt;Node21</title>
<path fill="none" stroke="#ffa500" stroke-dasharray="5,2" d="M298.9518,-238.6821C315.4235,-233.1378 333.2351,-227.65 350,-223.5 407.9483,-209.1553 473.9568,-198.4242 526.8325,-191.1522"/>
<polygon fill="#ffa500" stroke="#ffa500" points="297.7536,-235.3928 289.4264,-241.9433 300.021,-242.0154 297.7536,-235.3928"/>
<text text-anchor="start" x="352" y="-237.5" font-family="Helvetica,sans-Serif" font-size="10.00" fill="#000000"> &lt; ConcreteLinOp, Polymorphic</text>
<text text-anchor="middle" x="428.5" y="-226.5" font-family="Helvetica,sans-Serif" font-size="10.00" fill="#000000">Base &gt;</text>
</g>
<!-- Node12 -->
<g id="node8" class="node">
<title>Node12</title>
<g id="a_node8"><a xlink:title=" ">
<polygon fill="#ffffff" stroke="#bfbfbf" points="0,-175 0,-194 101,-194 101,-175 0,-175"/>
<text text-anchor="middle" x="50.5" y="-182" font-family="Helvetica,sans-Serif" font-size="10.00" fill="#000000">PolymorphicBase</text>
</a>
</g>
</g>
<!-- Node12&#45;&gt;Node11 -->
<g id="edge7" class="edge">
<title>Node12&#45;&gt;Node11</title>
<path fill="none" stroke="#191970" d="M82.628,-198.0826C111.2155,-210.1684 153.45,-228.0236 186.208,-241.8725"/>
<polygon fill="#191970" stroke="#191970" points="83.6969,-194.7346 73.1233,-194.0643 80.9711,-201.1821 83.6969,-194.7346"/>
</g>
<!-- Node12&#45;&gt;Node14 -->
<g id="edge11" class="edge">
<title>Node12&#45;&gt;Node14</title>
<path fill="none" stroke="#191970" d="M111.6126,-182.5191C218.4875,-179.6944 434.8389,-176.9973 507,-198.5 515.9851,-201.1774 516.5248,-205.491 525,-209.5 536.1065,-214.7536 548.2243,-219.6396 560.0787,-223.9944"/>
<polygon fill="#191970" stroke="#191970" points="111.2101,-179.0287 101.3095,-182.8009 111.4015,-186.0261 111.2101,-179.0287"/>
</g>
<!-- Node12&#45;&gt;Node21 -->
<g id="edge21" class="edge">
<title>Node12&#45;&gt;Node21</title>
<path fill="none" stroke="#191970" d="M100.0089,-173.156C106.37,-172.0602 112.8183,-171.1252 119,-170.5 290.5691,-153.1468 334.6794,-163.9656 507,-170.5 513.4945,-170.7463 520.1848,-171.0682 526.9246,-171.4434"/>
<polygon fill="#191970" stroke="#191970" points="99.3286,-169.7224 90.1355,-174.9889 100.6063,-176.6048 99.3286,-169.7224"/>
</g>
<!-- Node13 -->
<g id="node9" class="node">
<title>Node13</title>
<g id="a_node9"><a xlink:href="classgko_1_1EnablePolymorphicObject.html" target="_top" xlink:title="This mixin inherits from (a subclass of) PolymorphicObject and provides a base implementation of a ne...">
<polygon fill="#ffffff" stroke="#000000" points="902,-229.5 902,-259.5 1107,-259.5 1107,-229.5 902,-229.5"/>
<text text-anchor="start" x="910" y="-247.5" font-family="Helvetica,sans-Serif" font-size="10.00" fill="#000000">gko::EnablePolymorphicObject</text>
<text text-anchor="middle" x="1004.5" y="-236.5" font-family="Helvetica,sans-Serif" font-size="10.00" fill="#000000">&lt; ConcreteObject, PolymorphicBase &gt;</text>
</a>
</g>
</g>
<!-- Node13&#45;&gt;Node3 -->
<g id="edge9" class="edge">
<title>Node13&#45;&gt;Node3</title>
<path fill="none" stroke="#ffa500" stroke-dasharray="5,2" d="M1117.3551,-245.4116C1237.0623,-246.3785 1423.7642,-247.8866 1533.8212,-248.7756"/>
<polygon fill="#ffa500" stroke="#ffa500" points="1117.0905,-241.9094 1107.0625,-245.3285 1117.0338,-248.9092 1117.0905,-241.9094"/>
<text text-anchor="start" x="1326.5" y="-272.5" font-family="Helvetica,sans-Serif" font-size="10.00" fill="#000000"> &lt; Ilu&lt; LSolverType,</text>
<text text-anchor="start" x="1326.5" y="-261.5" font-family="Helvetica,sans-Serif" font-size="10.00" fill="#000000"> USolverType, ReverseApply,</text>
<text text-anchor="middle" x="1396.5" y="-250.5" font-family="Helvetica,sans-Serif" font-size="10.00" fill="#000000"> IndexTypeParIlu &gt;, LinOp &gt;</text>
</g>
<!-- Node20 -->
<g id="node16" class="node">
<title>Node20</title>
<g id="a_node16"><a xlink:href="classgko_1_1EnablePolymorphicObject.html" target="_top" xlink:title=" ">
<polygon fill="#ffffff" stroke="#000000" points="1296,-169.5 1296,-199.5 1497,-199.5 1497,-169.5 1296,-169.5"/>
<text text-anchor="start" x="1304" y="-187.5" font-family="Helvetica,sans-Serif" font-size="10.00" fill="#000000">gko::EnablePolymorphicObject</text>
<text text-anchor="middle" x="1396.5" y="-176.5" font-family="Helvetica,sans-Serif" font-size="10.00" fill="#000000">&lt; ConcreteLinOp, PolymorphicBase &gt;</text>
</a>
</g>
</g>
<!-- Node13&#45;&gt;Node20 -->
<g id="edge23" class="edge">
<title>Node13&#45;&gt;Node20</title>
<path fill="none" stroke="#ffa500" stroke-dasharray="5,2" d="M1065.704,-226.9185C1084.5914,-221.9902 1105.5418,-217.0228 1125,-213.5 1181.0909,-203.345 1244.3916,-196.3315 1295.7528,-191.7488"/>
<polygon fill="#ffa500" stroke="#ffa500" points="1064.8019,-223.5367 1056.034,-229.4843 1066.5972,-230.3026 1064.8019,-223.5367"/>
<text text-anchor="start" x="1125" y="-227.5" font-family="Helvetica,sans-Serif" font-size="10.00" fill="#000000"> &lt; ConcreteLinOp, Polymorphic</text>
<text text-anchor="middle" x="1201.5" y="-216.5" font-family="Helvetica,sans-Serif" font-size="10.00" fill="#000000">Base &gt;</text>
</g>
<!-- Node14&#45;&gt;Node13 -->
<g id="edge10" class="edge">
<title>Node14&#45;&gt;Node13</title>
<path fill="none" stroke="#191970" d="M736.3883,-244.5C788.6564,-244.5 850.6227,-244.5 901.8093,-244.5"/>
<polygon fill="#191970" stroke="#191970" points="736.07,-241.0001 726.07,-244.5 736.07,-248.0001 736.07,-241.0001"/>
</g>
<!-- Node15 -->
<g id="node11" class="node">
<title>Node15</title>
<g id="a_node11"><a xlink:href="classgko_1_1EnablePolymorphicAssignment.html" target="_top" xlink:title=" ">
<polygon fill="#ffffff" stroke="#000000" points="1300.5,-39 1300.5,-80 1492.5,-80 1492.5,-39 1300.5,-39"/>
<text text-anchor="start" x="1308.5" y="-68" font-family="Helvetica,sans-Serif" font-size="10.00" fill="#000000">gko::EnablePolymorphicAssignment</text>
<text text-anchor="start" x="1308.5" y="-57" font-family="Helvetica,sans-Serif" font-size="10.00" fill="#000000">&lt; Ilu&lt; LSolverType, USolverType,</text>
<text text-anchor="middle" x="1396.5" y="-46" font-family="Helvetica,sans-Serif" font-size="10.00" fill="#000000"> ReverseApply, IndexTypeParIlu &gt; &gt;</text>
</a>
</g>
</g>
<!-- Node15&#45;&gt;Node2 -->
<g id="edge13" class="edge">
<title>Node15&#45;&gt;Node2</title>
<path fill="none" stroke="#191970" d="M1502.7294,-77.2049C1612.7098,-95.535 1782.9724,-123.9121 1888.8727,-141.5621"/>
<polygon fill="#191970" stroke="#191970" points="1503.0486,-73.7099 1492.6092,-75.5182 1501.8977,-80.6147 1503.0486,-73.7099"/>
</g>
<!-- Node16 -->
<g id="node12" class="node">
<title>Node16</title>
<g id="a_node12"><a xlink:href="classgko_1_1ConvertibleTo.html" target="_top" xlink:title=" ">
<polygon fill="#ffffff" stroke="#000000" points="926.5,-.5 926.5,-52.5 1082.5,-52.5 1082.5,-.5 926.5,-.5"/>
<text text-anchor="start" x="934.5" y="-40.5" font-family="Helvetica,sans-Serif" font-size="10.00" fill="#000000">gko::ConvertibleTo</text>
<text text-anchor="start" x="934.5" y="-29.5" font-family="Helvetica,sans-Serif" font-size="10.00" fill="#000000">&lt; Ilu&lt; LSolverType,</text>
<text text-anchor="start" x="934.5" y="-18.5" font-family="Helvetica,sans-Serif" font-size="10.00" fill="#000000"> USolverType, ReverseApply,</text>
<text text-anchor="middle" x="1004.5" y="-7.5" font-family="Helvetica,sans-Serif" font-size="10.00" fill="#000000"> IndexTypeParIlu &gt; &gt;</text>
</a>
</g>
</g>
<!-- Node16&#45;&gt;Node15 -->
<g id="edge14" class="edge">
<title>Node16&#45;&gt;Node15</title>
<path fill="none" stroke="#191970" d="M1092.9869,-33.9492C1154.6601,-39.141 1236.8983,-46.0641 1300.2138,-51.3943"/>
<polygon fill="#191970" stroke="#191970" points="1093.1433,-30.45 1082.8849,-33.0987 1092.556,-37.4254 1093.1433,-30.45"/>
</g>
<!-- Node17 -->
<g id="node13" class="node">
<title>Node17</title>
<g id="a_node13"><a xlink:href="classgko_1_1ConvertibleTo.html" target="_top" xlink:title="ConvertibleTo interface is used to mark that the implementer can be converted to the object of Result...">
<polygon fill="#ffffff" stroke="#000000" points="572,-71.5 572,-101.5 679,-101.5 679,-71.5 572,-71.5"/>
<text text-anchor="start" x="580" y="-89.5" font-family="Helvetica,sans-Serif" font-size="10.00" fill="#000000">gko::ConvertibleTo</text>
<text text-anchor="middle" x="625.5" y="-78.5" font-family="Helvetica,sans-Serif" font-size="10.00" fill="#000000">&lt; ResultType &gt;</text>
</a>
</g>
</g>
<!-- Node17&#45;&gt;Node16 -->
<g id="edge15" class="edge">
<title>Node17&#45;&gt;Node16</title>
<path fill="none" stroke="#ffa500" stroke-dasharray="5,2" d="M675.6806,-68.2125C696.5489,-61.2974 721.1851,-54.0146 744,-49.5 804.5717,-37.5142 874.306,-31.7721 926.3727,-29.0225"/>
<polygon fill="#ffa500" stroke="#ffa500" points="674.4258,-64.942 666.0715,-71.4579 676.6657,-71.574 674.4258,-64.942"/>
<text text-anchor="start" x="744" y="-74.5" font-family="Helvetica,sans-Serif" font-size="10.00" fill="#000000"> &lt; Ilu&lt; LSolverType,</text>
<text text-anchor="start" x="744" y="-63.5" font-family="Helvetica,sans-Serif" font-size="10.00" fill="#000000"> USolverType, ReverseApply,</text>
<text text-anchor="middle" x="814" y="-52.5" font-family="Helvetica,sans-Serif" font-size="10.00" fill="#000000"> IndexTypeParIlu &gt; &gt;</text>
</g>
<!-- Node18 -->
<g id="node14" class="node">
<title>Node18</title>
<g id="a_node14"><a xlink:href="classgko_1_1EnablePolymorphicAssignment.html" target="_top" xlink:title="This mixin is used to enable a default PolymorphicObject::copy_from() implementation for objects that...">
<polygon fill="#ffffff" stroke="#000000" points="908.5,-71.5 908.5,-101.5 1100.5,-101.5 1100.5,-71.5 908.5,-71.5"/>
<text text-anchor="start" x="916.5" y="-89.5" font-family="Helvetica,sans-Serif" font-size="10.00" fill="#000000">gko::EnablePolymorphicAssignment</text>
<text text-anchor="middle" x="1004.5" y="-78.5" font-family="Helvetica,sans-Serif" font-size="10.00" fill="#000000">&lt; ConcreteType, ResultType &gt;</text>
</a>
</g>
</g>
<!-- Node17&#45;&gt;Node18 -->
<g id="edge17" class="edge">
<title>Node17&#45;&gt;Node18</title>
<path fill="none" stroke="#191970" d="M689.4814,-86.5C749.3937,-86.5 839.725,-86.5 908.3178,-86.5"/>
<polygon fill="#191970" stroke="#191970" points="689.399,-83.0001 679.399,-86.5 689.3989,-90.0001 689.399,-83.0001"/>
</g>
<!-- Node23 -->
<g id="node19" class="node">
<title>Node23</title>
<g id="a_node19"><a xlink:href="classgko_1_1ConvertibleTo.html" target="_top" xlink:title=" ">
<polygon fill="#ffffff" stroke="#000000" points="949.5,-120.5 949.5,-150.5 1059.5,-150.5 1059.5,-120.5 949.5,-120.5"/>
<text text-anchor="start" x="957.5" y="-138.5" font-family="Helvetica,sans-Serif" font-size="10.00" fill="#000000">gko::ConvertibleTo</text>
<text text-anchor="middle" x="1004.5" y="-127.5" font-family="Helvetica,sans-Serif" font-size="10.00" fill="#000000">&lt; ConcreteLinOp &gt;</text>
</a>
</g>
</g>
<!-- Node17&#45;&gt;Node23 -->
<g id="edge26" class="edge">
<title>Node17&#45;&gt;Node23</title>
<path fill="none" stroke="#ffa500" stroke-dasharray="5,2" d="M689.3711,-94.7577C762.2334,-104.1779 880.1899,-119.4282 949.248,-128.3566"/>
<polygon fill="#ffa500" stroke="#ffa500" points="689.7652,-91.2796 679.399,-93.4685 688.8676,-98.2219 689.7652,-91.2796"/>
<text text-anchor="middle" x="814" y="-123.5" font-family="Helvetica,sans-Serif" font-size="10.00" fill="#000000"> &lt; ConcreteLinOp &gt;</text>
</g>
<!-- Node18&#45;&gt;Node15 -->
<g id="edge16" class="edge">
<title>Node18&#45;&gt;Node15</title>
<path fill="none" stroke="#ffa500" stroke-dasharray="5,2" d="M1072.2283,-69.2951C1089.3351,-65.6669 1107.7476,-62.3722 1125,-60.5 1182.99,-54.207 1248.358,-53.7643 1300.4201,-54.9865"/>
<polygon fill="#ffa500" stroke="#ffa500" points="1071.3464,-65.9051 1062.3256,-71.4616 1072.8426,-72.7434 1071.3464,-65.9051"/>
<text text-anchor="start" x="1131.5" y="-85.5" font-family="Helvetica,sans-Serif" font-size="10.00" fill="#000000"> &lt; Ilu&lt; LSolverType,</text>
<text text-anchor="start" x="1131.5" y="-74.5" font-family="Helvetica,sans-Serif" font-size="10.00" fill="#000000"> USolverType, ReverseApply,</text>
<text text-anchor="middle" x="1201.5" y="-63.5" font-family="Helvetica,sans-Serif" font-size="10.00" fill="#000000"> IndexTypeParIlu &gt; &gt;</text>
</g>
<!-- Node22 -->
<g id="node18" class="node">
<title>Node22</title>
<g id="a_node18"><a xlink:href="classgko_1_1EnablePolymorphicAssignment.html" target="_top" xlink:title=" ">
<polygon fill="#ffffff" stroke="#000000" points="1300.5,-120.5 1300.5,-150.5 1492.5,-150.5 1492.5,-120.5 1300.5,-120.5"/>
<text text-anchor="start" x="1308.5" y="-138.5" font-family="Helvetica,sans-Serif" font-size="10.00" fill="#000000">gko::EnablePolymorphicAssignment</text>
<text text-anchor="middle" x="1396.5" y="-127.5" font-family="Helvetica,sans-Serif" font-size="10.00" fill="#000000">&lt; ConcreteLinOp &gt;</text>
</a>
</g>
</g>
<!-- Node18&#45;&gt;Node22 -->
<g id="edge27" class="edge">
<title>Node18&#45;&gt;Node22</title>
<path fill="none" stroke="#ffa500" stroke-dasharray="5,2" d="M1110.6855,-99.6444C1161.3448,-105.9298 1222.8091,-113.5764 1278,-120.5 1285.3044,-121.4163 1292.8617,-122.367 1300.4614,-123.3248"/>
<polygon fill="#ffa500" stroke="#ffa500" points="1111.0575,-96.1639 1100.7027,-98.4062 1110.1958,-103.1106 1111.0575,-96.1639"/>
<text text-anchor="middle" x="1201.5" y="-123.5" font-family="Helvetica,sans-Serif" font-size="10.00" fill="#000000"> &lt; ConcreteLinOp &gt;</text>
</g>
<!-- Node19 -->
<g id="node15" class="node">
<title>Node19</title>
<g id="a_node15"><a xlink:href="classgko_1_1EnableLinOp.html" target="_top" xlink:title="The EnableLinOp mixin can be used to provide sensible default implementations of the majority of the ...">
<polygon fill="#ffffff" stroke="#000000" points="1545.5,-142.5 1545.5,-172.5 1701.5,-172.5 1701.5,-142.5 1545.5,-142.5"/>
<text text-anchor="start" x="1553.5" y="-160.5" font-family="Helvetica,sans-Serif" font-size="10.00" fill="#000000">gko::EnableLinOp&lt; Concrete</text>
<text text-anchor="middle" x="1623.5" y="-149.5" font-family="Helvetica,sans-Serif" font-size="10.00" fill="#000000">LinOp, PolymorphicBase &gt;</text>
</a>
</g>
</g>
<!-- Node19&#45;&gt;Node2 -->
<g id="edge18" class="edge">
<title>Node19&#45;&gt;Node2</title>
<path fill="none" stroke="#ffa500" stroke-dasharray="5,2" d="M1712.0129,-157.5C1765.6637,-157.5 1834.1121,-157.5 1888.9836,-157.5"/>
<polygon fill="#ffa500" stroke="#ffa500" points="1711.8317,-154.0001 1701.8316,-157.5 1711.8316,-161.0001 1711.8317,-154.0001"/>
<text text-anchor="start" x="1731" y="-182.5" font-family="Helvetica,sans-Serif" font-size="10.00" fill="#000000"> &lt; Ilu&lt; LSolverType,</text>
<text text-anchor="start" x="1731" y="-171.5" font-family="Helvetica,sans-Serif" font-size="10.00" fill="#000000"> USolverType, ReverseApply,</text>
<text text-anchor="middle" x="1801" y="-160.5" font-family="Helvetica,sans-Serif" font-size="10.00" fill="#000000"> IndexTypeParIlu &gt; &gt;</text>
</g>
<!-- Node20&#45;&gt;Node19 -->
<g id="edge19" class="edge">
<title>Node20&#45;&gt;Node19</title>
<path fill="none" stroke="#191970" d="M1507.2977,-171.3214C1520.095,-169.7993 1532.9382,-168.2717 1545.1759,-166.8161"/>
<polygon fill="#191970" stroke="#191970" points="1506.5734,-167.8828 1497.0568,-172.5395 1507.4002,-174.8338 1506.5734,-167.8828"/>
</g>
<!-- Node21&#45;&gt;Node20 -->
<g id="edge20" class="edge">
<title>Node21&#45;&gt;Node20</title>
<path fill="none" stroke="#191970" d="M734.4399,-180.2065C883.9393,-181.176 1150.6215,-182.9055 1295.7149,-183.8464"/>
<polygon fill="#191970" stroke="#191970" points="734.3458,-176.7059 724.3233,-180.1409 734.3003,-183.7058 734.3458,-176.7059"/>
</g>
<!-- Node22&#45;&gt;Node19 -->
<g id="edge24" class="edge">
<title>Node22&#45;&gt;Node19</title>
<path fill="none" stroke="#191970" d="M1503.0863,-145.8299C1517.309,-147.2084 1531.677,-148.6009 1545.2926,-149.9204"/>
<polygon fill="#191970" stroke="#191970" points="1503.0595,-142.311 1492.7684,-144.83 1502.3841,-149.2784 1503.0595,-142.311"/>
</g>
<!-- Node23&#45;&gt;Node22 -->
<g id="edge25" class="edge">
<title>Node23&#45;&gt;Node22</title>
<path fill="none" stroke="#191970" d="M1070.0239,-135.5C1132.9342,-135.5 1228.7021,-135.5 1300.2698,-135.5"/>
<polygon fill="#191970" stroke="#191970" points="1069.8327,-132.0001 1059.8326,-135.5 1069.8326,-139.0001 1069.8327,-132.0001"/>
</g>
</g>
</svg>
        <g id="navigator" transform="translate(0 0)" fill="#404254">
                <rect fill="#f2f5e9" fill-opacity="0.5" stroke="#606060" stroke-width=".5" x="0" y="0" width="60" height="60"/>
                <use id="zoomplus" xlink:href="#zoomPlus" x="17" y="9" onmousedown="handleZoom(evt,'in')"/>
                <use id="zoomminus" xlink:href="#zoomMin" x="42" y="9" onmousedown="handleZoom(evt,'out')"/>
                <use id="reset" xlink:href="#resetDef" x="30" y="36" onmousedown="handleReset()"/>
                <g id="arrowUp" xlink:href="#dirArrow" transform="translate(30 24)" onmousedown="handlePan(0,-1)">
                  <use xlink:href="#rim" fill="#404040">
                        <set attributeName="fill" to="#808080" begin="arrowUp.mouseover" end="arrowUp.mouseout"/>
                  </use>
                  <path fill="none" stroke="white" stroke-width="1.5" d="M0,-3.0v7 M-2.5,-0.5L0,-3.0L2.5,-0.5"/>
                </g>
                <g id="arrowRight" xlink:href="#dirArrow" transform="rotate(90) translate(36 -43)" onmousedown="handlePan(1,0)">
                  <use xlink:href="#rim" fill="#404040">
                        <set attributeName="fill" to="#808080" begin="arrowRight.mouseover" end="arrowRight.mouseout"/>
                  </use>
                  <path fill="none" stroke="white" stroke-width="1.5" d="M0,-3.0v7 M-2.5,-0.5L0,-3.0L2.5,-0.5"/>
                </g>
                <g id="arrowDown" xlink:href="#dirArrow" transform="rotate(180) translate(-30 -48)" onmousedown="handlePan(0,1)">
                  <use xlink:href="#rim" fill="#404040">
                        <set attributeName="fill" to="#808080" begin="arrowDown.mouseover" end="arrowDown.mouseout"/>
                  </use>
                  <path fill="none" stroke="white" stroke-width="1.5" d="M0,-3.0v7 M-2.5,-0.5L0,-3.0L2.5,-0.5"/>
                </g>
                <g id="arrowLeft" xlink:href="#dirArrow" transform="rotate(270) translate(-36 17)" onmousedown="handlePan(-1,0)">
                  <use xlink:href="#rim" fill="#404040">
                        <set attributeName="fill" to="#808080" begin="arrowLeft.mouseover" end="arrowLeft.mouseout"/>
                  </use>
                  <path fill="none" stroke="white" stroke-width="1.5" d="M0,-3.0v7 M-2.5,-0.5L0,-3.0L2.5,-0.5"/>
                </g>
        </g>
        <svg viewBox="0 0 15 15" width="100%" height="30px" preserveAspectRatio="xMaxYMin meet">
         <g id="arrow_out" transform="scale(0.3 0.3)">
          <a xlink:href="classgko_1_1preconditioner_1_1Ilu__coll__graph_org.svg" target="_base">
           <rect id="button" ry="5" rx="5" y="6" x="6" height="38" width="38"
                fill="#f2f5e9" fill-opacity="0.5" stroke="#606060" stroke-width="1.0"/>
           <path id="arrow"
             d="M 11.500037,31.436501 C 11.940474,20.09759 22.043105,11.32322 32.158766,21.979434 L 37.068811,17.246167 C 37.068811,17.246167 37.088388,32 37.088388,32 L 22.160133,31.978069 C 22.160133,31.978069 26.997745,27.140456 26.997745,27.140456 C 18.528582,18.264221 13.291696,25.230495 11.500037,31.436501 z"
             style="fill:#404040;"/>
          </a>
         </g>
        </svg>
</svg>
