<?xml version="1.0" encoding="UTF-8" standalone="no"?>
<!DOCTYPE svg PUBLIC "-//W3C//DTD SVG 1.1//EN"
 "http://www.w3.org/Graphics/SVG/1.1/DTD/svg11.dtd">
<!-- Generated by graphviz version 2.40.1 (20161225.0304)
 -->
<!-- Title: gko::multigrid::EnableMultigridLevel&lt; ValueType &gt; Pages: 1 -->
<svg width="282pt" height="106pt"
 viewBox="0.00 0.00 281.50 106.00" xmlns="http://www.w3.org/2000/svg" xmlns:xlink="http://www.w3.org/1999/xlink">
<g id="graph0" class="graph" transform="scale(1 1) rotate(0) translate(4 102)">
<title>gko::multigrid::EnableMultigridLevel&lt; ValueType &gt;</title>
<polygon fill="#ffffff" stroke="transparent" points="-4,4 -4,-102 277.5,-102 277.5,4 -4,4"/>
<!-- Node1 -->
<g id="node1" class="node">
<title>Node1</title>
<g id="a_node1"><a xlink:title="The EnableMultigridLevel gives the default implementation of MultigridLevel with composition and prov...">
<polygon fill="#bfbfbf" stroke="#000000" points="56.5,-.5 56.5,-30.5 223.5,-30.5 223.5,-.5 56.5,-.5"/>
<text text-anchor="start" x="64.5" y="-18.5" font-family="Helvetica,sans-Serif" font-size="10.00" fill="#000000">gko::multigrid::EnableMultigrid</text>
<text text-anchor="middle" x="140" y="-7.5" font-family="Helvetica,sans-Serif" font-size="10.00" fill="#000000">Level&lt; ValueType &gt;</text>
</a>
</g>
</g>
<!-- Node2 -->
<g id="node2" class="node">
<title>Node2</title>
<g id="a_node2"><a xlink:href="classgko_1_1multigrid_1_1MultigridLevel.html" target="_top" xlink:title="This class represents two levels in a multigrid hierarchy.">
<polygon fill="#ffffff" stroke="#000000" points="0,-67.5 0,-97.5 134,-97.5 134,-67.5 0,-67.5"/>
<text text-anchor="start" x="8" y="-85.5" font-family="Helvetica,sans-Serif" font-size="10.00" fill="#000000">gko::multigrid::Multigrid</text>
<text text-anchor="middle" x="67" y="-74.5" font-family="Helvetica,sans-Serif" font-size="10.00" fill="#000000">Level</text>
</a>
</g>
</g>
<!-- Node2&#45;&gt;Node1 -->
<g id="edge1" class="edge">
<title>Node2&#45;&gt;Node1</title>
<path fill="none" stroke="#191970" d="M90.974,-60.4965C101.6267,-50.7193 113.8993,-39.4554 123.5007,-30.6432"/>
<polygon fill="#191970" stroke="#191970" points="88.5656,-57.9562 83.5648,-67.2967 93.2989,-63.1134 88.5656,-57.9562"/>
</g>
<!-- Node3 -->
<g id="node3" class="node">
<title>Node3</title>
<g id="a_node3"><a xlink:href="classgko_1_1UseComposition.html" target="_top" xlink:title="The UseComposition class can be used to store the composition information in LinOp.">
<polygon fill="#ffffff" stroke="#000000" points="152.5,-67.5 152.5,-97.5 273.5,-97.5 273.5,-67.5 152.5,-67.5"/>
<text text-anchor="start" x="160.5" y="-85.5" font-family="Helvetica,sans-Serif" font-size="10.00" fill="#000000">gko::UseComposition</text>
<text text-anchor="middle" x="213" y="-74.5" font-family="Helvetica,sans-Serif" font-size="10.00" fill="#000000">&lt; ValueType &gt;</text>
</a>
</g>
</g>
<!-- Node3&#45;&gt;Node1 -->
<g id="edge2" class="edge">
<title>Node3&#45;&gt;Node1</title>
<path fill="none" stroke="#191970" d="M189.026,-60.4965C178.3733,-50.7193 166.1007,-39.4554 156.4993,-30.6432"/>
<polygon fill="#191970" stroke="#191970" points="186.7011,-63.1134 196.4352,-67.2967 191.4344,-57.9562 186.7011,-63.1134"/>
</g>
</g>
</svg>
