<?xml version="1.0" encoding="UTF-8" standalone="no"?>
<!DOCTYPE svg PUBLIC "-//W3C//DTD SVG 1.1//EN"
 "http://www.w3.org/Graphics/SVG/1.1/DTD/svg11.dtd">
<!-- Generated by graphviz version 2.40.1 (20161225.0304)
 -->
<!-- Title: gko::matrix::Identity&lt; ValueType &gt; Pages: 1 -->
<svg width="2183pt" height="335pt"
 viewBox="0.00 0.00 2183.00 334.50" xmlns="http://www.w3.org/2000/svg" xmlns:xlink="http://www.w3.org/1999/xlink">
<g id="graph0" class="graph" transform="scale(1 1) rotate(0) translate(4 330.5)">
<title>gko::matrix::Identity&lt; ValueType &gt;</title>
<polygon fill="#ffffff" stroke="transparent" points="-4,4 -4,-330.5 2179,-330.5 2179,4 -4,4"/>
<!-- Node1 -->
<g id="node1" class="node">
<title>Node1</title>
<g id="a_node1"><a xlink:title="This class is a utility which efficiently implements the identity matrix (a linear operator which map...">
<polygon fill="#bfbfbf" stroke="#000000" points="2059,-53.5 2059,-83.5 2175,-83.5 2175,-53.5 2059,-53.5"/>
<text text-anchor="start" x="2067" y="-71.5" font-family="Helvetica,sans-Serif" font-size="10.00" fill="#000000">gko::matrix::Identity</text>
<text text-anchor="middle" x="2117" y="-60.5" font-family="Helvetica,sans-Serif" font-size="10.00" fill="#000000">&lt; ValueType &gt;</text>
</a>
</g>
</g>
<!-- Node2 -->
<g id="node2" class="node">
<title>Node2</title>
<g id="a_node2"><a xlink:href="classgko_1_1EnableLinOp.html" target="_top" xlink:title=" ">
<polygon fill="#ffffff" stroke="#000000" points="1872,-124.5 1872,-154.5 2022,-154.5 2022,-124.5 1872,-124.5"/>
<text text-anchor="start" x="1880" y="-142.5" font-family="Helvetica,sans-Serif" font-size="10.00" fill="#000000">gko::EnableLinOp&lt; Identity</text>
<text text-anchor="middle" x="1947" y="-131.5" font-family="Helvetica,sans-Serif" font-size="10.00" fill="#000000">&lt; ValueType &gt; &gt;</text>
</a>
</g>
</g>
<!-- Node2&#45;&gt;Node1 -->
<g id="edge1" class="edge">
<title>Node2&#45;&gt;Node1</title>
<path fill="none" stroke="#191970" d="M1992.5348,-120.4825C2020.2677,-108.9 2055.2048,-94.3086 2080.9993,-83.5356"/>
<polygon fill="#191970" stroke="#191970" points="1990.9313,-117.3592 1983.0526,-124.4427 1993.6291,-123.8185 1990.9313,-117.3592"/>
</g>
<!-- Node3 -->
<g id="node3" class="node">
<title>Node3</title>
<g id="a_node3"><a xlink:href="classgko_1_1EnablePolymorphicObject.html" target="_top" xlink:title=" ">
<polygon fill="#ffffff" stroke="#000000" points="1534,-207 1534,-248 1700,-248 1700,-207 1534,-207"/>
<text text-anchor="start" x="1542" y="-236" font-family="Helvetica,sans-Serif" font-size="10.00" fill="#000000">gko::EnablePolymorphicObject</text>
<text text-anchor="start" x="1542" y="-225" font-family="Helvetica,sans-Serif" font-size="10.00" fill="#000000">&lt; Identity&lt; ValueType &gt;,</text>
<text text-anchor="middle" x="1617" y="-214" font-family="Helvetica,sans-Serif" font-size="10.00" fill="#000000"> LinOp &gt;</text>
</a>
</g>
</g>
<!-- Node3&#45;&gt;Node2 -->
<g id="edge2" class="edge">
<title>Node3&#45;&gt;Node2</title>
<path fill="none" stroke="#191970" d="M1704.0834,-204.4135C1748.888,-192.5197 1804.3771,-177.7652 1854,-164.5 1865.9524,-161.3049 1878.7656,-157.868 1890.9433,-154.5961"/>
<polygon fill="#191970" stroke="#191970" points="1703.1673,-201.0354 1694.3999,-206.9837 1704.9631,-207.8012 1703.1673,-201.0354"/>
</g>
<!-- Node4 -->
<g id="node4" class="node">
<title>Node4</title>
<g id="a_node4"><a xlink:href="classgko_1_1EnableAbstractPolymorphicObject.html" target="_top" xlink:title=" ">
<polygon fill="#ffffff" stroke="#000000" points="1309,-268 1309,-309 1484,-309 1484,-268 1309,-268"/>
<text text-anchor="start" x="1317" y="-297" font-family="Helvetica,sans-Serif" font-size="10.00" fill="#000000">gko::EnableAbstractPolymorphic</text>
<text text-anchor="start" x="1317" y="-286" font-family="Helvetica,sans-Serif" font-size="10.00" fill="#000000">Object&lt; Identity&lt; ValueType</text>
<text text-anchor="middle" x="1396.5" y="-275" font-family="Helvetica,sans-Serif" font-size="10.00" fill="#000000"> &gt;, LinOp &gt;</text>
</a>
</g>
</g>
<!-- Node4&#45;&gt;Node3 -->
<g id="edge3" class="edge">
<title>Node4&#45;&gt;Node3</title>
<path fill="none" stroke="#191970" d="M1480.729,-265.1985C1501.098,-259.5636 1522.7236,-253.581 1542.6039,-248.0812"/>
<polygon fill="#191970" stroke="#191970" points="1479.5486,-261.8936 1470.8438,-267.9332 1481.4151,-268.6402 1479.5486,-261.8936"/>
</g>
<!-- Node5 -->
<g id="node5" class="node">
<title>Node5</title>
<g id="a_node5"><a xlink:href="classgko_1_1LinOp.html" target="_top" xlink:title=" ">
<polygon fill="#ffffff" stroke="#000000" points="970.5,-275 970.5,-294 1038.5,-294 1038.5,-275 970.5,-275"/>
<text text-anchor="middle" x="1004.5" y="-282" font-family="Helvetica,sans-Serif" font-size="10.00" fill="#000000">gko::LinOp</text>
</a>
</g>
</g>
<!-- Node5&#45;&gt;Node4 -->
<g id="edge4" class="edge">
<title>Node5&#45;&gt;Node4</title>
<path fill="none" stroke="#191970" d="M1048.9667,-284.9537C1111.8762,-285.5957 1228.1665,-286.7823 1308.805,-287.6052"/>
<polygon fill="#191970" stroke="#191970" points="1048.6369,-281.4503 1038.6017,-284.848 1048.5654,-288.4499 1048.6369,-281.4503"/>
</g>
<!-- Node6 -->
<g id="node6" class="node">
<title>Node6</title>
<g id="a_node6"><a xlink:href="classgko_1_1EnableAbstractPolymorphicObject.html" target="_top" xlink:title=" ">
<polygon fill="#ffffff" stroke="#ff0000" points="542,-264.5 542,-294.5 717,-294.5 717,-264.5 542,-264.5"/>
<text text-anchor="start" x="550" y="-282.5" font-family="Helvetica,sans-Serif" font-size="10.00" fill="#000000">gko::EnableAbstractPolymorphic</text>
<text text-anchor="middle" x="629.5" y="-271.5" font-family="Helvetica,sans-Serif" font-size="10.00" fill="#000000">Object&lt; LinOp &gt;</text>
</a>
</g>
</g>
<!-- Node6&#45;&gt;Node5 -->
<g id="edge5" class="edge">
<title>Node6&#45;&gt;Node5</title>
<path fill="none" stroke="#191970" d="M727.5253,-280.807C807.541,-281.8739 915.9545,-283.3194 970.3664,-284.0449"/>
<polygon fill="#191970" stroke="#191970" points="727.4666,-277.306 717.4208,-280.6723 727.3733,-284.3054 727.4666,-277.306"/>
</g>
<!-- Node11 -->
<g id="node7" class="node">
<title>Node11</title>
<g id="a_node7"><a xlink:href="classgko_1_1EnableAbstractPolymorphicObject.html" target="_top" xlink:title="This mixin inherits from (a subclass of) PolymorphicObject and provides a base implementation of a ne...">
<polygon fill="#ffffff" stroke="#000000" points="138,-239 138,-280 336,-280 336,-239 138,-239"/>
<text text-anchor="start" x="146" y="-268" font-family="Helvetica,sans-Serif" font-size="10.00" fill="#000000">gko::EnableAbstractPolymorphic</text>
<text text-anchor="start" x="146" y="-257" font-family="Helvetica,sans-Serif" font-size="10.00" fill="#000000">Object&lt; AbstractObject, Polymorphic</text>
<text text-anchor="middle" x="237" y="-246" font-family="Helvetica,sans-Serif" font-size="10.00" fill="#000000">Base &gt;</text>
</a>
</g>
</g>
<!-- Node11&#45;&gt;Node4 -->
<g id="edge8" class="edge">
<title>Node11&#45;&gt;Node4</title>
<path fill="none" stroke="#ffa500" stroke-dasharray="5,2" d="M322.7837,-282.3382C333.2505,-284.6576 343.8353,-286.7858 354,-288.5 431.0147,-301.488 450.979,-300.9407 529,-304.5 565.761,-306.177 951.0081,-305.0751 1107,-303.5 1183.0078,-302.7325 1202.1216,-304.9997 1278,-300.5 1288.0113,-299.9063 1298.4825,-299.1069 1308.8801,-298.2009"/>
<polygon fill="#ffa500" stroke="#ffa500" points="323.33,-278.873 312.8022,-280.0631 321.7743,-285.698 323.33,-278.873"/>
<text text-anchor="start" x="759.5" y="-318.5" font-family="Helvetica,sans-Serif" font-size="10.00" fill="#000000"> &lt; Identity&lt; ValueType</text>
<text text-anchor="middle" x="816" y="-307.5" font-family="Helvetica,sans-Serif" font-size="10.00" fill="#000000"> &gt;, LinOp &gt;</text>
</g>
<!-- Node11&#45;&gt;Node6 -->
<g id="edge6" class="edge">
<title>Node11&#45;&gt;Node6</title>
<path fill="none" stroke="#ffa500" stroke-dasharray="5,2" d="M346.3159,-266.0838C348.902,-266.2255 351.4664,-266.3644 354,-266.5 416.7568,-269.8579 487.5803,-273.1897 541.703,-275.6396"/>
<polygon fill="#ffa500" stroke="#ffa500" points="346.4309,-262.5848 336.2522,-265.5249 346.0427,-269.5741 346.4309,-262.5848"/>
<text text-anchor="middle" x="432.5" y="-276.5" font-family="Helvetica,sans-Serif" font-size="10.00" fill="#000000"> &lt; LinOp &gt;</text>
</g>
<!-- Node14 -->
<g id="node10" class="node">
<title>Node14</title>
<g id="a_node10"><a xlink:href="classgko_1_1EnableAbstractPolymorphicObject.html" target="_top" xlink:title=" ">
<polygon fill="#ffffff" stroke="#000000" points="529,-202 529,-243 730,-243 730,-202 529,-202"/>
<text text-anchor="start" x="537" y="-231" font-family="Helvetica,sans-Serif" font-size="10.00" fill="#000000">gko::EnableAbstractPolymorphic</text>
<text text-anchor="start" x="537" y="-220" font-family="Helvetica,sans-Serif" font-size="10.00" fill="#000000">Object&lt; ConcreteObject, Polymorphic</text>
<text text-anchor="middle" x="629.5" y="-209" font-family="Helvetica,sans-Serif" font-size="10.00" fill="#000000">Base &gt;</text>
</a>
</g>
</g>
<!-- Node11&#45;&gt;Node14 -->
<g id="edge12" class="edge">
<title>Node11&#45;&gt;Node14</title>
<path fill="none" stroke="#ffa500" stroke-dasharray="5,2" d="M346.2728,-241.4171C348.8718,-241.0961 351.4505,-240.7896 354,-240.5 411.7459,-233.94 476.5935,-229.5562 528.8616,-226.7587"/>
<polygon fill="#ffa500" stroke="#ffa500" points="345.6355,-237.9703 336.1662,-242.7224 346.5322,-244.9126 345.6355,-237.9703"/>
<text text-anchor="start" x="354" y="-254.5" font-family="Helvetica,sans-Serif" font-size="10.00" fill="#000000"> &lt; ConcreteObject, Polymorphic</text>
<text text-anchor="middle" x="432.5" y="-243.5" font-family="Helvetica,sans-Serif" font-size="10.00" fill="#000000">Base &gt;</text>
</g>
<!-- Node21 -->
<g id="node17" class="node">
<title>Node21</title>
<g id="a_node17"><a xlink:href="classgko_1_1EnableAbstractPolymorphicObject.html" target="_top" xlink:title=" ">
<polygon fill="#ffffff" stroke="#000000" points="531,-137 531,-178 728,-178 728,-137 531,-137"/>
<text text-anchor="start" x="539" y="-166" font-family="Helvetica,sans-Serif" font-size="10.00" fill="#000000">gko::EnableAbstractPolymorphic</text>
<text text-anchor="start" x="539" y="-155" font-family="Helvetica,sans-Serif" font-size="10.00" fill="#000000">Object&lt; ConcreteLinOp, Polymorphic</text>
<text text-anchor="middle" x="629.5" y="-144" font-family="Helvetica,sans-Serif" font-size="10.00" fill="#000000">Base &gt;</text>
</a>
</g>
</g>
<!-- Node11&#45;&gt;Node21 -->
<g id="edge22" class="edge">
<title>Node11&#45;&gt;Node21</title>
<path fill="none" stroke="#ffa500" stroke-dasharray="5,2" d="M280.2978,-234.1151C301.8104,-222.5335 328.5847,-209.6215 354,-201.5 411.2106,-183.2182 477.6361,-172.3236 530.9267,-165.9492"/>
<polygon fill="#ffa500" stroke="#ffa500" points="278.5078,-231.1049 271.4196,-238.9793 281.8713,-237.2439 278.5078,-231.1049"/>
<text text-anchor="start" x="356" y="-215.5" font-family="Helvetica,sans-Serif" font-size="10.00" fill="#000000"> &lt; ConcreteLinOp, Polymorphic</text>
<text text-anchor="middle" x="432.5" y="-204.5" font-family="Helvetica,sans-Serif" font-size="10.00" fill="#000000">Base &gt;</text>
</g>
<!-- Node12 -->
<g id="node8" class="node">
<title>Node12</title>
<g id="a_node8"><a xlink:title=" ">
<polygon fill="#ffffff" stroke="#bfbfbf" points="0,-201 0,-220 101,-220 101,-201 0,-201"/>
<text text-anchor="middle" x="50.5" y="-208" font-family="Helvetica,sans-Serif" font-size="10.00" fill="#000000">PolymorphicBase</text>
</a>
</g>
</g>
<!-- Node12&#45;&gt;Node11 -->
<g id="edge7" class="edge">
<title>Node12&#45;&gt;Node11</title>
<path fill="none" stroke="#191970" d="M96.6373,-222.6219C115.3596,-227.5409 137.5184,-233.3628 158.6324,-238.9101"/>
<polygon fill="#191970" stroke="#191970" points="97.463,-219.2201 86.9018,-220.064 95.6842,-225.9903 97.463,-219.2201"/>
</g>
<!-- Node12&#45;&gt;Node14 -->
<g id="edge11" class="edge">
<title>Node12&#45;&gt;Node14</title>
<path fill="none" stroke="#191970" d="M111.2841,-211.7598C210.5662,-213.8174 408.5048,-217.9198 528.9546,-220.4162"/>
<polygon fill="#191970" stroke="#191970" points="111.1924,-208.2572 101.122,-211.5492 111.0473,-215.2557 111.1924,-208.2572"/>
</g>
<!-- Node12&#45;&gt;Node21 -->
<g id="edge21" class="edge">
<title>Node12&#45;&gt;Node21</title>
<path fill="none" stroke="#191970" d="M110.3244,-199.1707C171.3459,-188.1489 268.8885,-172.0016 354,-164.5 412.5033,-159.3436 478.2438,-157.5227 530.8305,-157.0242"/>
<polygon fill="#191970" stroke="#191970" points="109.6932,-195.728 100.4812,-200.9614 110.9462,-202.6149 109.6932,-195.728"/>
</g>
<!-- Node13 -->
<g id="node9" class="node">
<title>Node13</title>
<g id="a_node9"><a xlink:href="classgko_1_1EnablePolymorphicObject.html" target="_top" xlink:title="This mixin inherits from (a subclass of) PolymorphicObject and provides a base implementation of a ne...">
<polygon fill="#ffffff" stroke="#000000" points="902,-207.5 902,-237.5 1107,-237.5 1107,-207.5 902,-207.5"/>
<text text-anchor="start" x="910" y="-225.5" font-family="Helvetica,sans-Serif" font-size="10.00" fill="#000000">gko::EnablePolymorphicObject</text>
<text text-anchor="middle" x="1004.5" y="-214.5" font-family="Helvetica,sans-Serif" font-size="10.00" fill="#000000">&lt; ConcreteObject, PolymorphicBase &gt;</text>
</a>
</g>
</g>
<!-- Node13&#45;&gt;Node3 -->
<g id="edge9" class="edge">
<title>Node13&#45;&gt;Node3</title>
<path fill="none" stroke="#ffa500" stroke-dasharray="5,2" d="M1117.0199,-223.4185C1237.5539,-224.4025 1426.0176,-225.941 1533.8379,-226.8211"/>
<polygon fill="#ffa500" stroke="#ffa500" points="1117.047,-219.9187 1107.0187,-223.3369 1116.9898,-226.9185 1117.047,-219.9187"/>
<text text-anchor="start" x="1340" y="-240.5" font-family="Helvetica,sans-Serif" font-size="10.00" fill="#000000"> &lt; Identity&lt; ValueType</text>
<text text-anchor="middle" x="1396.5" y="-229.5" font-family="Helvetica,sans-Serif" font-size="10.00" fill="#000000"> &gt;, LinOp &gt;</text>
</g>
<!-- Node20 -->
<g id="node16" class="node">
<title>Node20</title>
<g id="a_node16"><a xlink:href="classgko_1_1EnablePolymorphicObject.html" target="_top" xlink:title=" ">
<polygon fill="#ffffff" stroke="#000000" points="1296,-144.5 1296,-174.5 1497,-174.5 1497,-144.5 1296,-144.5"/>
<text text-anchor="start" x="1304" y="-162.5" font-family="Helvetica,sans-Serif" font-size="10.00" fill="#000000">gko::EnablePolymorphicObject</text>
<text text-anchor="middle" x="1396.5" y="-151.5" font-family="Helvetica,sans-Serif" font-size="10.00" fill="#000000">&lt; ConcreteLinOp, PolymorphicBase &gt;</text>
</a>
</g>
</g>
<!-- Node13&#45;&gt;Node20 -->
<g id="edge23" class="edge">
<title>Node13&#45;&gt;Node20</title>
<path fill="none" stroke="#ffa500" stroke-dasharray="5,2" d="M1066.5139,-204.8453C1085.1962,-199.9884 1105.8305,-195.0787 1125,-191.5 1181.1034,-181.0263 1244.4049,-173.3315 1295.7633,-168.116"/>
<polygon fill="#ffa500" stroke="#ffa500" points="1065.4245,-201.513 1056.65,-207.4509 1067.2123,-208.2808 1065.4245,-201.513"/>
<text text-anchor="start" x="1125" y="-205.5" font-family="Helvetica,sans-Serif" font-size="10.00" fill="#000000"> &lt; ConcreteLinOp, Polymorphic</text>
<text text-anchor="middle" x="1201.5" y="-194.5" font-family="Helvetica,sans-Serif" font-size="10.00" fill="#000000">Base &gt;</text>
</g>
<!-- Node14&#45;&gt;Node13 -->
<g id="edge10" class="edge">
<title>Node14&#45;&gt;Node13</title>
<path fill="none" stroke="#191970" d="M740.5643,-222.5C791.5899,-222.5 851.7277,-222.5 901.7018,-222.5"/>
<polygon fill="#191970" stroke="#191970" points="740.4865,-219.0001 730.4864,-222.5 740.4864,-226.0001 740.4865,-219.0001"/>
</g>
<!-- Node15 -->
<g id="node11" class="node">
<title>Node15</title>
<g id="a_node11"><a xlink:href="classgko_1_1EnablePolymorphicAssignment.html" target="_top" xlink:title=" ">
<polygon fill="#ffffff" stroke="#000000" points="1300.5,-95.5 1300.5,-125.5 1492.5,-125.5 1492.5,-95.5 1300.5,-95.5"/>
<text text-anchor="start" x="1308.5" y="-113.5" font-family="Helvetica,sans-Serif" font-size="10.00" fill="#000000">gko::EnablePolymorphicAssignment</text>
<text text-anchor="middle" x="1396.5" y="-102.5" font-family="Helvetica,sans-Serif" font-size="10.00" fill="#000000">&lt; Identity&lt; ValueType &gt; &gt;</text>
</a>
</g>
</g>
<!-- Node15&#45;&gt;Node2 -->
<g id="edge13" class="edge">
<title>Node15&#45;&gt;Node2</title>
<path fill="none" stroke="#191970" d="M1494.1244,-126.9386C1507.4916,-128.7416 1521.0627,-130.3408 1534,-131.5 1651.6788,-142.0441 1788.9413,-142.3301 1871.8429,-141.1943"/>
<polygon fill="#191970" stroke="#191970" points="1494.3429,-123.4353 1483.9559,-125.5239 1493.3782,-130.3686 1494.3429,-123.4353"/>
</g>
<!-- Node16 -->
<g id="node12" class="node">
<title>Node16</title>
<g id="a_node12"><a xlink:href="classgko_1_1ConvertibleTo.html" target="_top" xlink:title=" ">
<polygon fill="#ffffff" stroke="#000000" points="930,-98.5 930,-128.5 1079,-128.5 1079,-98.5 930,-98.5"/>
<text text-anchor="start" x="938" y="-116.5" font-family="Helvetica,sans-Serif" font-size="10.00" fill="#000000">gko::ConvertibleTo</text>
<text text-anchor="middle" x="1004.5" y="-105.5" font-family="Helvetica,sans-Serif" font-size="10.00" fill="#000000">&lt; Identity&lt; ValueType &gt; &gt;</text>
</a>
</g>
</g>
<!-- Node16&#45;&gt;Node15 -->
<g id="edge14" class="edge">
<title>Node16&#45;&gt;Node15</title>
<path fill="none" stroke="#191970" d="M1089.3039,-112.851C1151.3525,-112.3761 1235.62,-111.7312 1300.2031,-111.237"/>
<polygon fill="#191970" stroke="#191970" points="1089.1278,-109.3521 1079.1549,-112.9287 1089.1814,-116.3519 1089.1278,-109.3521"/>
</g>
<!-- Node17 -->
<g id="node13" class="node">
<title>Node17</title>
<g id="a_node13"><a xlink:href="classgko_1_1ConvertibleTo.html" target="_top" xlink:title="ConvertibleTo interface is used to mark that the implementer can be converted to the object of Result...">
<polygon fill="#ffffff" stroke="#000000" points="576,-49.5 576,-79.5 683,-79.5 683,-49.5 576,-49.5"/>
<text text-anchor="start" x="584" y="-67.5" font-family="Helvetica,sans-Serif" font-size="10.00" fill="#000000">gko::ConvertibleTo</text>
<text text-anchor="middle" x="629.5" y="-56.5" font-family="Helvetica,sans-Serif" font-size="10.00" fill="#000000">&lt; ResultType &gt;</text>
</a>
</g>
</g>
<!-- Node17&#45;&gt;Node16 -->
<g id="edge15" class="edge">
<title>Node17&#45;&gt;Node16</title>
<path fill="none" stroke="#ffa500" stroke-dasharray="5,2" d="M693.4184,-72.852C758.9164,-81.4104 860.6885,-94.7086 929.8462,-103.7452"/>
<polygon fill="#ffa500" stroke="#ffa500" points="693.5976,-69.3457 683.2284,-71.5205 692.6906,-76.2867 693.5976,-69.3457"/>
<text text-anchor="middle" x="816" y="-100.5" font-family="Helvetica,sans-Serif" font-size="10.00" fill="#000000"> &lt; Identity&lt; ValueType &gt; &gt;</text>
</g>
<!-- Node18 -->
<g id="node14" class="node">
<title>Node18</title>
<g id="a_node14"><a xlink:href="classgko_1_1EnablePolymorphicAssignment.html" target="_top" xlink:title="This mixin is used to enable a default PolymorphicObject::copy_from() implementation for objects that...">
<polygon fill="#ffffff" stroke="#000000" points="908.5,-49.5 908.5,-79.5 1100.5,-79.5 1100.5,-49.5 908.5,-49.5"/>
<text text-anchor="start" x="916.5" y="-67.5" font-family="Helvetica,sans-Serif" font-size="10.00" fill="#000000">gko::EnablePolymorphicAssignment</text>
<text text-anchor="middle" x="1004.5" y="-56.5" font-family="Helvetica,sans-Serif" font-size="10.00" fill="#000000">&lt; ConcreteType, ResultType &gt;</text>
</a>
</g>
</g>
<!-- Node17&#45;&gt;Node18 -->
<g id="edge17" class="edge">
<title>Node17&#45;&gt;Node18</title>
<path fill="none" stroke="#191970" d="M693.5304,-64.5C752.5493,-64.5 840.9516,-64.5 908.4323,-64.5"/>
<polygon fill="#191970" stroke="#191970" points="693.2284,-61.0001 683.2284,-64.5 693.2283,-68.0001 693.2284,-61.0001"/>
</g>
<!-- Node23 -->
<g id="node19" class="node">
<title>Node23</title>
<g id="a_node19"><a xlink:href="classgko_1_1ConvertibleTo.html" target="_top" xlink:title=" ">
<polygon fill="#ffffff" stroke="#000000" points="949.5,-.5 949.5,-30.5 1059.5,-30.5 1059.5,-.5 949.5,-.5"/>
<text text-anchor="start" x="957.5" y="-18.5" font-family="Helvetica,sans-Serif" font-size="10.00" fill="#000000">gko::ConvertibleTo</text>
<text text-anchor="middle" x="1004.5" y="-7.5" font-family="Helvetica,sans-Serif" font-size="10.00" fill="#000000">&lt; ConcreteLinOp &gt;</text>
</a>
</g>
</g>
<!-- Node17&#45;&gt;Node23 -->
<g id="edge26" class="edge">
<title>Node17&#45;&gt;Node23</title>
<path fill="none" stroke="#ffa500" stroke-dasharray="5,2" d="M693.5209,-56.1346C765.5054,-46.7286 881.2104,-31.6098 949.3454,-22.7069"/>
<polygon fill="#ffa500" stroke="#ffa500" points="692.6906,-52.7133 683.2284,-57.4795 693.5976,-59.6543 692.6906,-52.7133"/>
<text text-anchor="middle" x="816" y="-51.5" font-family="Helvetica,sans-Serif" font-size="10.00" fill="#000000"> &lt; ConcreteLinOp &gt;</text>
</g>
<!-- Node18&#45;&gt;Node15 -->
<g id="edge16" class="edge">
<title>Node18&#45;&gt;Node15</title>
<path fill="none" stroke="#ffa500" stroke-dasharray="5,2" d="M1110.7161,-76.213C1161.3823,-81.8837 1222.8434,-88.8835 1278,-95.5 1285.3093,-96.3768 1292.8701,-97.2989 1300.4722,-98.2368"/>
<polygon fill="#ffa500" stroke="#ffa500" points="1111.0588,-72.7296 1100.7319,-75.0971 1110.2812,-79.6863 1111.0588,-72.7296"/>
<text text-anchor="middle" x="1201.5" y="-98.5" font-family="Helvetica,sans-Serif" font-size="10.00" fill="#000000"> &lt; Identity&lt; ValueType &gt; &gt;</text>
</g>
<!-- Node22 -->
<g id="node18" class="node">
<title>Node22</title>
<g id="a_node18"><a xlink:href="classgko_1_1EnablePolymorphicAssignment.html" target="_top" xlink:title=" ">
<polygon fill="#ffffff" stroke="#000000" points="1300.5,-38.5 1300.5,-68.5 1492.5,-68.5 1492.5,-38.5 1300.5,-38.5"/>
<text text-anchor="start" x="1308.5" y="-56.5" font-family="Helvetica,sans-Serif" font-size="10.00" fill="#000000">gko::EnablePolymorphicAssignment</text>
<text text-anchor="middle" x="1396.5" y="-45.5" font-family="Helvetica,sans-Serif" font-size="10.00" fill="#000000">&lt; ConcreteLinOp &gt;</text>
</a>
</g>
</g>
<!-- Node18&#45;&gt;Node22 -->
<g id="edge27" class="edge">
<title>Node18&#45;&gt;Node22</title>
<path fill="none" stroke="#ffa500" stroke-dasharray="5,2" d="M1111.126,-55.1975C1115.8124,-54.9319 1120.4532,-54.6967 1125,-54.5 1183.1582,-51.9836 1248.3893,-51.6624 1300.3338,-52.0041"/>
<polygon fill="#ffa500" stroke="#ffa500" points="1110.5817,-51.724 1100.8126,-55.8245 1111.0066,-58.7111 1110.5817,-51.724"/>
<text text-anchor="middle" x="1201.5" y="-57.5" font-family="Helvetica,sans-Serif" font-size="10.00" fill="#000000"> &lt; ConcreteLinOp &gt;</text>
</g>
<!-- Node19 -->
<g id="node15" class="node">
<title>Node19</title>
<g id="a_node15"><a xlink:href="classgko_1_1EnableLinOp.html" target="_top" xlink:title="The EnableLinOp mixin can be used to provide sensible default implementations of the majority of the ...">
<polygon fill="#ffffff" stroke="#000000" points="1539,-91.5 1539,-121.5 1695,-121.5 1695,-91.5 1539,-91.5"/>
<text text-anchor="start" x="1547" y="-109.5" font-family="Helvetica,sans-Serif" font-size="10.00" fill="#000000">gko::EnableLinOp&lt; Concrete</text>
<text text-anchor="middle" x="1617" y="-98.5" font-family="Helvetica,sans-Serif" font-size="10.00" fill="#000000">LinOp, PolymorphicBase &gt;</text>
</a>
</g>
</g>
<!-- Node19&#45;&gt;Node2 -->
<g id="edge18" class="edge">
<title>Node19&#45;&gt;Node2</title>
<path fill="none" stroke="#ffa500" stroke-dasharray="5,2" d="M1705.292,-112.1152C1749.9376,-115.3258 1804.9243,-119.8459 1854,-125.5 1859.8394,-126.1728 1865.8755,-126.9332 1871.9376,-127.7433"/>
<polygon fill="#ffa500" stroke="#ffa500" points="1705.2776,-108.6055 1695.055,-111.3889 1704.7822,-115.588 1705.2776,-108.6055"/>
<text text-anchor="middle" x="1786" y="-128.5" font-family="Helvetica,sans-Serif" font-size="10.00" fill="#000000"> &lt; Identity&lt; ValueType &gt; &gt;</text>
</g>
<!-- Node20&#45;&gt;Node19 -->
<g id="edge19" class="edge">
<title>Node20&#45;&gt;Node19</title>
<path fill="none" stroke="#191970" d="M1469.4892,-142.0942C1478.7502,-139.8785 1488.0976,-137.6387 1497,-135.5 1515.8603,-130.9691 1536.3826,-126.0174 1555.0347,-121.5088"/>
<polygon fill="#191970" stroke="#191970" points="1468.4107,-138.7534 1459.4989,-144.4831 1470.0387,-145.5614 1468.4107,-138.7534"/>
</g>
<!-- Node21&#45;&gt;Node20 -->
<g id="edge20" class="edge">
<title>Node21&#45;&gt;Node20</title>
<path fill="none" stroke="#191970" d="M738.2601,-157.7836C886.886,-158.1711 1151.4148,-158.8609 1295.7416,-159.2373"/>
<polygon fill="#191970" stroke="#191970" points="738.2108,-154.2836 728.2016,-157.7574 738.1924,-161.2835 738.2108,-154.2836"/>
</g>
<!-- Node22&#45;&gt;Node19 -->
<g id="edge24" class="edge">
<title>Node22&#45;&gt;Node19</title>
<path fill="none" stroke="#191970" d="M1469.064,-70.9417C1496.5967,-77.5595 1527.694,-85.0342 1554.2468,-91.4165"/>
<polygon fill="#191970" stroke="#191970" points="1469.6377,-67.48 1459.0966,-68.5459 1468.0017,-74.2861 1469.6377,-67.48"/>
</g>
<!-- Node23&#45;&gt;Node22 -->
<g id="edge25" class="edge">
<title>Node23&#45;&gt;Node22</title>
<path fill="none" stroke="#191970" d="M1070.0239,-21.8518C1132.9342,-27.9503 1228.7021,-37.2339 1300.2698,-44.1716"/>
<polygon fill="#191970" stroke="#191970" points="1070.1237,-18.3452 1059.8326,-20.8639 1069.4482,-25.3125 1070.1237,-18.3452"/>
</g>
<!-- Node24 -->
<g id="node20" class="node">
<title>Node24</title>
<g id="a_node20"><a xlink:href="classgko_1_1EnableCreateMethod.html" target="_top" xlink:title=" ">
<polygon fill="#ffffff" stroke="#000000" points="1872.5,-53.5 1872.5,-83.5 2021.5,-83.5 2021.5,-53.5 1872.5,-53.5"/>
<text text-anchor="start" x="1880.5" y="-71.5" font-family="Helvetica,sans-Serif" font-size="10.00" fill="#000000">gko::EnableCreateMethod</text>
<text text-anchor="middle" x="1947" y="-60.5" font-family="Helvetica,sans-Serif" font-size="10.00" fill="#000000">&lt; Identity&lt; ValueType &gt; &gt;</text>
</a>
</g>
</g>
<!-- Node24&#45;&gt;Node1 -->
<g id="edge28" class="edge">
<title>Node24&#45;&gt;Node1</title>
<path fill="none" stroke="#191970" d="M2031.8559,-68.5C2040.992,-68.5 2050.1303,-68.5 2058.8486,-68.5"/>
<polygon fill="#191970" stroke="#191970" points="2031.5645,-65.0001 2021.5645,-68.5 2031.5644,-72.0001 2031.5645,-65.0001"/>
</g>
<!-- Node25 -->
<g id="node21" class="node">
<title>Node25</title>
<g id="a_node21"><a xlink:href="classgko_1_1EnableCreateMethod.html" target="_top" xlink:title="This mixin implements a static create() method on ConcreteType that dynamically allocates the memory,...">
<polygon fill="#ffffff" stroke="#000000" points="1546,-42.5 1546,-72.5 1688,-72.5 1688,-42.5 1546,-42.5"/>
<text text-anchor="start" x="1554" y="-60.5" font-family="Helvetica,sans-Serif" font-size="10.00" fill="#000000">gko::EnableCreateMethod</text>
<text text-anchor="middle" x="1617" y="-49.5" font-family="Helvetica,sans-Serif" font-size="10.00" fill="#000000">&lt; ConcreteType &gt;</text>
</a>
</g>
</g>
<!-- Node25&#45;&gt;Node24 -->
<g id="edge29" class="edge">
<title>Node25&#45;&gt;Node24</title>
<path fill="none" stroke="#ffa500" stroke-dasharray="5,2" d="M1698.2913,-60.2097C1751.5561,-61.9852 1820.6528,-64.2884 1872.4939,-66.0165"/>
<polygon fill="#ffa500" stroke="#ffa500" points="1698.3099,-56.7085 1688.1988,-59.8733 1698.0766,-63.7046 1698.3099,-56.7085"/>
<text text-anchor="middle" x="1786" y="-67.5" font-family="Helvetica,sans-Serif" font-size="10.00" fill="#000000"> &lt; Identity&lt; ValueType &gt; &gt;</text>
</g>
<!-- Node26 -->
<g id="node22" class="node">
<title>Node26</title>
<g id="a_node22"><a xlink:href="classgko_1_1Transposable.html" target="_top" xlink:title="Linear operators which support transposition should implement the Transposable interface.">
<polygon fill="#ffffff" stroke="#000000" points="1895,-15 1895,-34 1999,-34 1999,-15 1895,-15"/>
<text text-anchor="middle" x="1947" y="-22" font-family="Helvetica,sans-Serif" font-size="10.00" fill="#000000">gko::Transposable</text>
</a>
</g>
</g>
<!-- Node26&#45;&gt;Node1 -->
<g id="edge30" class="edge">
<title>Node26&#45;&gt;Node1</title>
<path fill="none" stroke="#191970" d="M1993.7399,-36.5974C2013.8461,-41.8013 2037.5616,-47.9395 2058.7929,-53.4346"/>
<polygon fill="#191970" stroke="#191970" points="1994.4455,-33.1647 1983.8875,-34.0473 1992.6915,-39.9414 1994.4455,-33.1647"/>
</g>
</g>
</svg>
