<?xml version="1.0" encoding="UTF-8" standalone="no"?>
<!DOCTYPE svg PUBLIC "-//W3C//DTD SVG 1.1//EN"
 "http://www.w3.org/Graphics/SVG/1.1/DTD/svg11.dtd">
<!-- Generated by graphviz version 2.40.1 (20161225.0304)
 -->
<!-- Title: gko::matrix::Ell&lt; ValueType, IndexType &gt; Pages: 1 -->
<!--zoomable 533 -->
<svg id="main" version="1.1" xmlns="http://www.w3.org/2000/svg" xmlns:xlink="http://www.w3.org/1999/xlink" xml:space="preserve" onload="init(evt)">
<style type="text/css"><![CDATA[
.edge:hover path { stroke: red; }
.edge:hover polygon { stroke: red; fill: red; }
]]></style>
<script type="text/javascript"><![CDATA[
var edges = document.getElementsByTagName('g');
if (edges && edges.length) {
  for (var i=0;i<edges.length;i++) {
    if (edges[i].id.substr(0,4)=='edge') {
      edges[i].setAttribute('class','edge');
    }
  }
}
]]></script>
        <defs>
                <circle id="rim" cx="0" cy="0" r="7"/>
                <circle id="rim2" cx="0" cy="0" r="3.5"/>
                <g id="zoomPlus">
                        <use xlink:href="#rim" fill="#404040">
                                <set attributeName="fill" to="#808080" begin="zoomplus.mouseover" end="zoomplus.mouseout"/>
                        </use>
                        <path d="M-4,0h8M0,-4v8" fill="none" stroke="white" stroke-width="1.5" pointer-events="none"/>
                </g>
                <g id="zoomMin">
                        <use xlink:href="#rim" fill="#404040">
                                <set attributeName="fill" to="#808080" begin="zoomminus.mouseover" end="zoomminus.mouseout"/>
                        </use>
                        <path d="M-4,0h8" fill="none" stroke="white" stroke-width="1.5" pointer-events="none"/>
                </g>
                <g id="dirArrow">
                        <path fill="none" stroke="white" stroke-width="1.5" d="M0,-3.0v7 M-2.5,-0.5L0,-3.0L2.5,-0.5"/>
                </g>
               <g id="resetDef">
                       <use xlink:href="#rim2" fill="#404040">
                               <set attributeName="fill" to="#808080" begin="reset.mouseover" end="reset.mouseout"/>
                       </use>
               </g>
        </defs>

<script type="text/javascript">
var viewWidth = 2505;
var viewHeight = 533;
var sectionId = 'dynsection-0';
</script>
<script xlink:href="svgpan.js"/>
<svg id="graph" class="graph">
<g id="viewport">
<title>gko::matrix::Ell&lt; ValueType, IndexType &gt;</title>
<polygon fill="#ffffff" stroke="transparent" points="-4,4 -4,-529 2501,-529 2501,4 -4,4"/>
<!-- Node1 -->
<g id="node1" class="node">
<title>Node1</title>
<g id="a_node1"><a xlink:title="ELL is a matrix format where stride with explicit zeros is used such that all rows have the same numb...">
<polygon fill="#bfbfbf" stroke="#000000" points="2342,-105.5 2342,-135.5 2497,-135.5 2497,-105.5 2342,-105.5"/>
<text text-anchor="start" x="2350" y="-123.5" font-family="Helvetica,sans-Serif" font-size="10.00" fill="#000000">gko::matrix::Ell&lt; ValueType,</text>
<text text-anchor="middle" x="2419.5" y="-112.5" font-family="Helvetica,sans-Serif" font-size="10.00" fill="#000000"> IndexType &gt;</text>
</a>
</g>
</g>
<!-- Node2 -->
<g id="node2" class="node">
<title>Node2</title>
<g id="a_node2"><a xlink:href="classgko_1_1EnableLinOp.html" target="_top" xlink:title=" ">
<polygon fill="#ffffff" stroke="#000000" points="2138,-240.5 2138,-270.5 2293,-270.5 2293,-240.5 2138,-240.5"/>
<text text-anchor="start" x="2146" y="-258.5" font-family="Helvetica,sans-Serif" font-size="10.00" fill="#000000">gko::EnableLinOp&lt; Ell</text>
<text text-anchor="middle" x="2215.5" y="-247.5" font-family="Helvetica,sans-Serif" font-size="10.00" fill="#000000">&lt; ValueType, IndexType &gt; &gt;</text>
</a>
</g>
</g>
<!-- Node2&#45;&gt;Node1 -->
<g id="edge1" class="edge">
<title>Node2&#45;&gt;Node1</title>
<path fill="none" stroke="#191970" d="M2271.4808,-236.7769C2288.9732,-229.7647 2307.8944,-220.9247 2324,-210.5 2357.2783,-188.9599 2389.4375,-155.1231 2406.6252,-135.6564"/>
<polygon fill="#191970" stroke="#191970" points="2269.9917,-233.6004 2261.9368,-240.4829 2272.5256,-240.1257 2269.9917,-233.6004"/>
</g>
<!-- Node3 -->
<g id="node3" class="node">
<title>Node3</title>
<g id="a_node3"><a xlink:href="classgko_1_1EnablePolymorphicObject.html" target="_top" xlink:title=" ">
<polygon fill="#ffffff" stroke="#000000" points="1758,-391 1758,-432 1924,-432 1924,-391 1758,-391"/>
<text text-anchor="start" x="1766" y="-420" font-family="Helvetica,sans-Serif" font-size="10.00" fill="#000000">gko::EnablePolymorphicObject</text>
<text text-anchor="start" x="1766" y="-409" font-family="Helvetica,sans-Serif" font-size="10.00" fill="#000000">&lt; Ell&lt; ValueType, IndexType</text>
<text text-anchor="middle" x="1841" y="-398" font-family="Helvetica,sans-Serif" font-size="10.00" fill="#000000"> &gt;, LinOp &gt;</text>
</a>
</g>
</g>
<!-- Node3&#45;&gt;Node2 -->
<g id="edge2" class="edge">
<title>Node3&#45;&gt;Node2</title>
<path fill="none" stroke="#191970" d="M1899.5996,-387.09C1977.9266,-354.4625 2114.3932,-297.6166 2179.2587,-270.5965"/>
<polygon fill="#191970" stroke="#191970" points="1898.2297,-383.8691 1890.3444,-390.9453 1900.9214,-390.3309 1898.2297,-383.8691"/>
</g>
<!-- Node4 -->
<g id="node4" class="node">
<title>Node4</title>
<g id="a_node4"><a xlink:href="classgko_1_1EnableAbstractPolymorphicObject.html" target="_top" xlink:title=" ">
<polygon fill="#ffffff" stroke="#000000" points="1345.5,-452 1345.5,-493 1533.5,-493 1533.5,-452 1345.5,-452"/>
<text text-anchor="start" x="1353.5" y="-481" font-family="Helvetica,sans-Serif" font-size="10.00" fill="#000000">gko::EnableAbstractPolymorphic</text>
<text text-anchor="start" x="1353.5" y="-470" font-family="Helvetica,sans-Serif" font-size="10.00" fill="#000000">Object&lt; Ell&lt; ValueType, IndexType</text>
<text text-anchor="middle" x="1439.5" y="-459" font-family="Helvetica,sans-Serif" font-size="10.00" fill="#000000"> &gt;, LinOp &gt;</text>
</a>
</g>
</g>
<!-- Node4&#45;&gt;Node3 -->
<g id="edge3" class="edge">
<title>Node4&#45;&gt;Node3</title>
<path fill="none" stroke="#191970" d="M1543.7403,-456.6627C1610.3559,-446.5418 1695.5767,-433.5942 1757.6776,-424.1592"/>
<polygon fill="#191970" stroke="#191970" points="1542.9947,-453.2358 1533.6339,-458.1982 1544.0462,-460.1564 1542.9947,-453.2358"/>
</g>
<!-- Node5 -->
<g id="node5" class="node">
<title>Node5</title>
<g id="a_node5"><a xlink:href="classgko_1_1LinOp.html" target="_top" xlink:title=" ">
<polygon fill="#ffffff" stroke="#000000" points="1000.5,-496 1000.5,-515 1068.5,-515 1068.5,-496 1000.5,-496"/>
<text text-anchor="middle" x="1034.5" y="-503" font-family="Helvetica,sans-Serif" font-size="10.00" fill="#000000">gko::LinOp</text>
</a>
</g>
</g>
<!-- Node5&#45;&gt;Node4 -->
<g id="edge4" class="edge">
<title>Node5&#45;&gt;Node4</title>
<path fill="none" stroke="#191970" d="M1078.7906,-501.8911C1142.4979,-496.7002 1261.546,-487 1345.4125,-480.1664"/>
<polygon fill="#191970" stroke="#191970" points="1078.3637,-498.4142 1068.681,-502.7149 1078.9323,-505.3911 1078.3637,-498.4142"/>
</g>
<!-- Node6 -->
<g id="node6" class="node">
<title>Node6</title>
<g id="a_node6"><a xlink:href="classgko_1_1EnableAbstractPolymorphicObject.html" target="_top" xlink:title=" ">
<polygon fill="#ffffff" stroke="#ff0000" points="542,-494.5 542,-524.5 717,-524.5 717,-494.5 542,-494.5"/>
<text text-anchor="start" x="550" y="-512.5" font-family="Helvetica,sans-Serif" font-size="10.00" fill="#000000">gko::EnableAbstractPolymorphic</text>
<text text-anchor="middle" x="629.5" y="-501.5" font-family="Helvetica,sans-Serif" font-size="10.00" fill="#000000">Object&lt; LinOp &gt;</text>
</a>
</g>
</g>
<!-- Node6&#45;&gt;Node5 -->
<g id="edge5" class="edge">
<title>Node6&#45;&gt;Node5</title>
<path fill="none" stroke="#191970" d="M727.4215,-508.5329C815.7403,-507.6606 940.6381,-506.427 1000.2509,-505.8383"/>
<polygon fill="#191970" stroke="#191970" points="727.3439,-505.0334 717.379,-508.6321 727.4131,-512.033 727.3439,-505.0334"/>
</g>
<!-- Node11 -->
<g id="node7" class="node">
<title>Node11</title>
<g id="a_node7"><a xlink:href="classgko_1_1EnableAbstractPolymorphicObject.html" target="_top" xlink:title="This mixin inherits from (a subclass of) PolymorphicObject and provides a base implementation of a ne...">
<polygon fill="#ffffff" stroke="#000000" points="138,-424 138,-465 336,-465 336,-424 138,-424"/>
<text text-anchor="start" x="146" y="-453" font-family="Helvetica,sans-Serif" font-size="10.00" fill="#000000">gko::EnableAbstractPolymorphic</text>
<text text-anchor="start" x="146" y="-442" font-family="Helvetica,sans-Serif" font-size="10.00" fill="#000000">Object&lt; AbstractObject, Polymorphic</text>
<text text-anchor="middle" x="237" y="-431" font-family="Helvetica,sans-Serif" font-size="10.00" fill="#000000">Base &gt;</text>
</a>
</g>
</g>
<!-- Node11&#45;&gt;Node4 -->
<g id="edge8" class="edge">
<title>Node11&#45;&gt;Node4</title>
<path fill="none" stroke="#ffa500" stroke-dasharray="5,2" d="M346.3114,-451.1794C348.8989,-451.2925 351.4647,-451.3997 354,-451.5 720.562,-466.0053 1157.1674,-470.5929 1345.447,-471.9589"/>
<polygon fill="#ffa500" stroke="#ffa500" points="346.3938,-447.6796 336.2433,-450.7158 346.0717,-454.6722 346.3938,-447.6796"/>
<text text-anchor="start" x="759.5" y="-480.5" font-family="Helvetica,sans-Serif" font-size="10.00" fill="#000000"> &lt; Ell&lt; ValueType, IndexType</text>
<text text-anchor="middle" x="831" y="-469.5" font-family="Helvetica,sans-Serif" font-size="10.00" fill="#000000"> &gt;, LinOp &gt;</text>
</g>
<!-- Node11&#45;&gt;Node6 -->
<g id="edge6" class="edge">
<title>Node11&#45;&gt;Node6</title>
<path fill="none" stroke="#ffa500" stroke-dasharray="5,2" d="M307.8795,-467.9538C322.9743,-472.3131 338.9134,-476.4486 354,-479.5 416.1302,-492.0665 487.2798,-499.6443 541.7091,-504.0397"/>
<polygon fill="#ffa500" stroke="#ffa500" points="308.6812,-464.5412 298.0994,-465.066 306.6988,-471.2547 308.6812,-464.5412"/>
<text text-anchor="middle" x="432.5" y="-503.5" font-family="Helvetica,sans-Serif" font-size="10.00" fill="#000000"> &lt; LinOp &gt;</text>
</g>
<!-- Node14 -->
<g id="node10" class="node">
<title>Node14</title>
<g id="a_node10"><a xlink:href="classgko_1_1EnableAbstractPolymorphicObject.html" target="_top" xlink:title=" ">
<polygon fill="#ffffff" stroke="#000000" points="529,-386 529,-427 730,-427 730,-386 529,-386"/>
<text text-anchor="start" x="537" y="-415" font-family="Helvetica,sans-Serif" font-size="10.00" fill="#000000">gko::EnableAbstractPolymorphic</text>
<text text-anchor="start" x="537" y="-404" font-family="Helvetica,sans-Serif" font-size="10.00" fill="#000000">Object&lt; ConcreteObject, Polymorphic</text>
<text text-anchor="middle" x="629.5" y="-393" font-family="Helvetica,sans-Serif" font-size="10.00" fill="#000000">Base &gt;</text>
</a>
</g>
</g>
<!-- Node11&#45;&gt;Node14 -->
<g id="edge12" class="edge">
<title>Node11&#45;&gt;Node14</title>
<path fill="none" stroke="#ffa500" stroke-dasharray="5,2" d="M346.3005,-430.3326C348.8913,-430.0467 351.4607,-429.7686 354,-429.5 411.8725,-423.3775 476.7267,-417.8951 528.9667,-413.8199"/>
<polygon fill="#ffa500" stroke="#ffa500" points="345.7655,-426.8707 336.2216,-431.4711 346.5512,-433.8265 345.7655,-426.8707"/>
<text text-anchor="start" x="354" y="-443.5" font-family="Helvetica,sans-Serif" font-size="10.00" fill="#000000"> &lt; ConcreteObject, Polymorphic</text>
<text text-anchor="middle" x="432.5" y="-432.5" font-family="Helvetica,sans-Serif" font-size="10.00" fill="#000000">Base &gt;</text>
</g>
<!-- Node21 -->
<g id="node17" class="node">
<title>Node21</title>
<g id="a_node17"><a xlink:href="classgko_1_1EnableAbstractPolymorphicObject.html" target="_top" xlink:title=" ">
<polygon fill="#ffffff" stroke="#000000" points="531,-321 531,-362 728,-362 728,-321 531,-321"/>
<text text-anchor="start" x="539" y="-350" font-family="Helvetica,sans-Serif" font-size="10.00" fill="#000000">gko::EnableAbstractPolymorphic</text>
<text text-anchor="start" x="539" y="-339" font-family="Helvetica,sans-Serif" font-size="10.00" fill="#000000">Object&lt; ConcreteLinOp, Polymorphic</text>
<text text-anchor="middle" x="629.5" y="-328" font-family="Helvetica,sans-Serif" font-size="10.00" fill="#000000">Base &gt;</text>
</a>
</g>
</g>
<!-- Node11&#45;&gt;Node21 -->
<g id="edge22" class="edge">
<title>Node11&#45;&gt;Node21</title>
<path fill="none" stroke="#ffa500" stroke-dasharray="5,2" d="M282.413,-419.1335C303.6047,-408.2541 329.5093,-396.2827 354,-388.5 411.2246,-370.315 477.5019,-358.7285 530.7078,-351.6105"/>
<polygon fill="#ffa500" stroke="#ffa500" points="280.5784,-416.143 273.3344,-423.8746 283.8187,-422.3479 280.5784,-416.143"/>
<text text-anchor="start" x="356" y="-402.5" font-family="Helvetica,sans-Serif" font-size="10.00" fill="#000000"> &lt; ConcreteLinOp, Polymorphic</text>
<text text-anchor="middle" x="432.5" y="-391.5" font-family="Helvetica,sans-Serif" font-size="10.00" fill="#000000">Base &gt;</text>
</g>
<!-- Node12 -->
<g id="node8" class="node">
<title>Node12</title>
<g id="a_node8"><a xlink:title=" ">
<polygon fill="#ffffff" stroke="#bfbfbf" points="0,-386 0,-405 101,-405 101,-386 0,-386"/>
<text text-anchor="middle" x="50.5" y="-393" font-family="Helvetica,sans-Serif" font-size="10.00" fill="#000000">PolymorphicBase</text>
</a>
</g>
</g>
<!-- Node12&#45;&gt;Node11 -->
<g id="edge7" class="edge">
<title>Node12&#45;&gt;Node11</title>
<path fill="none" stroke="#191970" d="M96.6373,-407.6219C115.3596,-412.5409 137.5184,-418.3628 158.6324,-423.9101"/>
<polygon fill="#191970" stroke="#191970" points="97.463,-404.2201 86.9018,-405.064 95.6842,-410.9903 97.463,-404.2201"/>
</g>
<!-- Node12&#45;&gt;Node14 -->
<g id="edge11" class="edge">
<title>Node12&#45;&gt;Node14</title>
<path fill="none" stroke="#191970" d="M111.2841,-396.6548C210.5662,-398.541 408.5048,-402.3015 528.9546,-404.5898"/>
<polygon fill="#191970" stroke="#191970" points="111.1867,-393.1524 101.122,-396.4617 111.0537,-400.1511 111.1867,-393.1524"/>
</g>
<!-- Node12&#45;&gt;Node21 -->
<g id="edge21" class="edge">
<title>Node12&#45;&gt;Node21</title>
<path fill="none" stroke="#191970" d="M110.89,-384.4609C171.9644,-373.7894 269.1962,-358.1468 354,-350.5 412.5051,-345.2246 478.2457,-342.939 530.832,-341.9889"/>
<polygon fill="#191970" stroke="#191970" points="110.2768,-381.0149 101.0345,-386.1947 111.4897,-387.9091 110.2768,-381.0149"/>
</g>
<!-- Node13 -->
<g id="node9" class="node">
<title>Node13</title>
<g id="a_node9"><a xlink:href="classgko_1_1EnablePolymorphicObject.html" target="_top" xlink:title="This mixin inherits from (a subclass of) PolymorphicObject and provides a base implementation of a ne...">
<polygon fill="#ffffff" stroke="#000000" points="932,-391.5 932,-421.5 1137,-421.5 1137,-391.5 932,-391.5"/>
<text text-anchor="start" x="940" y="-409.5" font-family="Helvetica,sans-Serif" font-size="10.00" fill="#000000">gko::EnablePolymorphicObject</text>
<text text-anchor="middle" x="1034.5" y="-398.5" font-family="Helvetica,sans-Serif" font-size="10.00" fill="#000000">&lt; ConcreteObject, PolymorphicBase &gt;</text>
</a>
</g>
</g>
<!-- Node13&#45;&gt;Node3 -->
<g id="edge9" class="edge">
<title>Node13&#45;&gt;Node3</title>
<path fill="none" stroke="#ffa500" stroke-dasharray="5,2" d="M1147.1767,-407.1986C1311.2601,-408.2158 1612.2158,-410.0816 1757.7849,-410.9841"/>
<polygon fill="#ffa500" stroke="#ffa500" points="1147.0746,-403.698 1137.0531,-407.1358 1147.0311,-410.6978 1147.0746,-403.698"/>
<text text-anchor="start" x="1368" y="-423.5" font-family="Helvetica,sans-Serif" font-size="10.00" fill="#000000"> &lt; Ell&lt; ValueType, IndexType</text>
<text text-anchor="middle" x="1439.5" y="-412.5" font-family="Helvetica,sans-Serif" font-size="10.00" fill="#000000"> &gt;, LinOp &gt;</text>
</g>
<!-- Node20 -->
<g id="node16" class="node">
<title>Node20</title>
<g id="a_node16"><a xlink:href="classgko_1_1EnablePolymorphicObject.html" target="_top" xlink:title=" ">
<polygon fill="#ffffff" stroke="#000000" points="1339,-326.5 1339,-356.5 1540,-356.5 1540,-326.5 1339,-326.5"/>
<text text-anchor="start" x="1347" y="-344.5" font-family="Helvetica,sans-Serif" font-size="10.00" fill="#000000">gko::EnablePolymorphicObject</text>
<text text-anchor="middle" x="1439.5" y="-333.5" font-family="Helvetica,sans-Serif" font-size="10.00" fill="#000000">&lt; ConcreteLinOp, PolymorphicBase &gt;</text>
</a>
</g>
</g>
<!-- Node13&#45;&gt;Node20 -->
<g id="edge23" class="edge">
<title>Node13&#45;&gt;Node20</title>
<path fill="none" stroke="#ffa500" stroke-dasharray="5,2" d="M1096.5176,-388.8649C1115.1999,-384.0085 1135.8334,-379.0942 1155,-375.5 1189.3463,-369.0592 1271.6871,-359.447 1338.9954,-352.0845"/>
<polygon fill="#ffa500" stroke="#ffa500" points="1095.4285,-385.5324 1086.6535,-391.4696 1097.2157,-392.3004 1095.4285,-385.5324"/>
<text text-anchor="start" x="1161.5" y="-389.5" font-family="Helvetica,sans-Serif" font-size="10.00" fill="#000000"> &lt; ConcreteLinOp, Polymorphic</text>
<text text-anchor="middle" x="1238" y="-378.5" font-family="Helvetica,sans-Serif" font-size="10.00" fill="#000000">Base &gt;</text>
</g>
<!-- Node14&#45;&gt;Node13 -->
<g id="edge10" class="edge">
<title>Node14&#45;&gt;Node13</title>
<path fill="none" stroke="#191970" d="M740.3684,-406.5C800.1586,-406.5 873.4543,-406.5 931.9206,-406.5"/>
<polygon fill="#191970" stroke="#191970" points="740.1328,-403.0001 730.1327,-406.5 740.1327,-410.0001 740.1328,-403.0001"/>
</g>
<!-- Node15 -->
<g id="node11" class="node">
<title>Node15</title>
<g id="a_node11"><a xlink:href="classgko_1_1EnablePolymorphicAssignment.html" target="_top" xlink:title=" ">
<polygon fill="#ffffff" stroke="#000000" points="1343.5,-222.5 1343.5,-252.5 1535.5,-252.5 1535.5,-222.5 1343.5,-222.5"/>
<text text-anchor="start" x="1351.5" y="-240.5" font-family="Helvetica,sans-Serif" font-size="10.00" fill="#000000">gko::EnablePolymorphicAssignment</text>
<text text-anchor="middle" x="1439.5" y="-229.5" font-family="Helvetica,sans-Serif" font-size="10.00" fill="#000000">&lt; Ell&lt; ValueType, IndexType &gt; &gt;</text>
</a>
</g>
</g>
<!-- Node15&#45;&gt;Node2 -->
<g id="edge13" class="edge">
<title>Node15&#45;&gt;Node2</title>
<path fill="none" stroke="#191970" d="M1546.0562,-239.9717C1704.463,-243.646 1998.3463,-250.4629 2137.9677,-253.7016"/>
<polygon fill="#191970" stroke="#191970" points="1545.8997,-236.4672 1535.8212,-239.7343 1545.7373,-243.4653 1545.8997,-236.4672"/>
</g>
<!-- Node16 -->
<g id="node12" class="node">
<title>Node16</title>
<g id="a_node12"><a xlink:href="classgko_1_1ConvertibleTo.html" target="_top" xlink:title=" ">
<polygon fill="#ffffff" stroke="#000000" points="945,-184.5 945,-214.5 1124,-214.5 1124,-184.5 945,-184.5"/>
<text text-anchor="start" x="953" y="-202.5" font-family="Helvetica,sans-Serif" font-size="10.00" fill="#000000">gko::ConvertibleTo</text>
<text text-anchor="middle" x="1034.5" y="-191.5" font-family="Helvetica,sans-Serif" font-size="10.00" fill="#000000">&lt; Ell&lt; ValueType, IndexType &gt; &gt;</text>
</a>
</g>
</g>
<!-- Node16&#45;&gt;Node15 -->
<g id="edge14" class="edge">
<title>Node16&#45;&gt;Node15</title>
<path fill="none" stroke="#191970" d="M1134.2051,-208.855C1197.9991,-214.8407 1280.3163,-222.5642 1343.3958,-228.4828"/>
<polygon fill="#191970" stroke="#191970" points="1134.4146,-205.3594 1124.1314,-207.9099 1133.7607,-212.3288 1134.4146,-205.3594"/>
</g>
<!-- Node17 -->
<g id="node13" class="node">
<title>Node17</title>
<g id="a_node13"><a xlink:href="classgko_1_1ConvertibleTo.html" target="_top" xlink:title="ConvertibleTo interface is used to mark that the implementer can be converted to the object of Result...">
<polygon fill="#ffffff" stroke="#000000" points="576,-184.5 576,-214.5 683,-214.5 683,-184.5 576,-184.5"/>
<text text-anchor="start" x="584" y="-202.5" font-family="Helvetica,sans-Serif" font-size="10.00" fill="#000000">gko::ConvertibleTo</text>
<text text-anchor="middle" x="629.5" y="-191.5" font-family="Helvetica,sans-Serif" font-size="10.00" fill="#000000">&lt; ResultType &gt;</text>
</a>
</g>
</g>
<!-- Node17&#45;&gt;Node16 -->
<g id="edge15" class="edge">
<title>Node17&#45;&gt;Node16</title>
<path fill="none" stroke="#ffa500" stroke-dasharray="5,2" d="M693.3854,-199.5C761.1013,-199.5 868.5798,-199.5 944.7784,-199.5"/>
<polygon fill="#ffa500" stroke="#ffa500" points="693.2809,-196.0001 683.2809,-199.5 693.2808,-203.0001 693.2809,-196.0001"/>
<text text-anchor="middle" x="831" y="-202.5" font-family="Helvetica,sans-Serif" font-size="10.00" fill="#000000"> &lt; Ell&lt; ValueType, IndexType &gt; &gt;</text>
</g>
<!-- Node18 -->
<g id="node14" class="node">
<title>Node18</title>
<g id="a_node14"><a xlink:href="classgko_1_1EnablePolymorphicAssignment.html" target="_top" xlink:title="This mixin is used to enable a default PolymorphicObject::copy_from() implementation for objects that...">
<polygon fill="#ffffff" stroke="#000000" points="938.5,-233.5 938.5,-263.5 1130.5,-263.5 1130.5,-233.5 938.5,-233.5"/>
<text text-anchor="start" x="946.5" y="-251.5" font-family="Helvetica,sans-Serif" font-size="10.00" fill="#000000">gko::EnablePolymorphicAssignment</text>
<text text-anchor="middle" x="1034.5" y="-240.5" font-family="Helvetica,sans-Serif" font-size="10.00" fill="#000000">&lt; ConcreteType, ResultType &gt;</text>
</a>
</g>
</g>
<!-- Node17&#45;&gt;Node18 -->
<g id="edge17" class="edge">
<title>Node17&#45;&gt;Node18</title>
<path fill="none" stroke="#191970" d="M693.3852,-207.6794C711.072,-209.9186 730.2778,-212.3268 748,-214.5 811.3882,-222.273 882.7023,-230.7371 938.3239,-237.2758"/>
<polygon fill="#191970" stroke="#191970" points="693.5308,-204.1699 683.1698,-206.3835 692.6498,-211.1142 693.5308,-204.1699"/>
</g>
<!-- Node23 -->
<g id="node19" class="node">
<title>Node23</title>
<g id="a_node19"><a xlink:href="classgko_1_1ConvertibleTo.html" target="_top" xlink:title=" ">
<polygon fill="#ffffff" stroke="#000000" points="979.5,-282.5 979.5,-312.5 1089.5,-312.5 1089.5,-282.5 979.5,-282.5"/>
<text text-anchor="start" x="987.5" y="-300.5" font-family="Helvetica,sans-Serif" font-size="10.00" fill="#000000">gko::ConvertibleTo</text>
<text text-anchor="middle" x="1034.5" y="-289.5" font-family="Helvetica,sans-Serif" font-size="10.00" fill="#000000">&lt; ConcreteLinOp &gt;</text>
</a>
</g>
</g>
<!-- Node17&#45;&gt;Node23 -->
<g id="edge26" class="edge">
<title>Node17&#45;&gt;Node23</title>
<path fill="none" stroke="#ffa500" stroke-dasharray="5,2" d="M682.5062,-217.7953C702.8489,-224.4738 726.3698,-231.7835 748,-237.5 827.7163,-258.5678 921.4697,-277.0319 979.446,-287.7299"/>
<polygon fill="#ffa500" stroke="#ffa500" points="683.3907,-214.4013 672.7973,-214.5773 681.1883,-221.0458 683.3907,-214.4013"/>
<text text-anchor="middle" x="831" y="-276.5" font-family="Helvetica,sans-Serif" font-size="10.00" fill="#000000"> &lt; ConcreteLinOp &gt;</text>
</g>
<!-- Node26 -->
<g id="node22" class="node">
<title>Node26</title>
<g id="a_node22"><a xlink:href="classgko_1_1ConvertibleTo.html" target="_top" xlink:title=" ">
<polygon fill="#ffffff" stroke="#000000" points="1167,-93.5 1167,-123.5 1309,-123.5 1309,-93.5 1167,-93.5"/>
<text text-anchor="start" x="1175" y="-111.5" font-family="Helvetica,sans-Serif" font-size="10.00" fill="#000000">gko::ConvertibleTo</text>
<text text-anchor="middle" x="1238" y="-100.5" font-family="Helvetica,sans-Serif" font-size="10.00" fill="#000000">&lt; Dense&lt; ValueType &gt; &gt;</text>
</a>
</g>
</g>
<!-- Node17&#45;&gt;Node26 -->
<g id="edge31" class="edge">
<title>Node17&#45;&gt;Node26</title>
<path fill="none" stroke="#ffa500" stroke-dasharray="5,2" d="M656.4247,-178.3289C679.3374,-161.6629 713.8731,-139.617 748,-129.5 891.8832,-86.8456 1069.9059,-92.9703 1166.8591,-100.9258"/>
<polygon fill="#ffa500" stroke="#ffa500" points="654.1737,-175.6411 648.2374,-184.4168 658.3505,-181.2584 654.1737,-175.6411"/>
<text text-anchor="middle" x="831" y="-132.5" font-family="Helvetica,sans-Serif" font-size="10.00" fill="#000000"> &lt; Dense&lt; ValueType &gt; &gt;</text>
</g>
<!-- Node27 -->
<g id="node23" class="node">
<title>Node27</title>
<g id="a_node23"><a xlink:href="classgko_1_1ConvertibleTo.html" target="_top" xlink:title=" ">
<polygon fill="#ffffff" stroke="#000000" points="1558,-160.5 1558,-190.5 1740,-190.5 1740,-160.5 1558,-160.5"/>
<text text-anchor="start" x="1566" y="-178.5" font-family="Helvetica,sans-Serif" font-size="10.00" fill="#000000">gko::ConvertibleTo</text>
<text text-anchor="middle" x="1649" y="-167.5" font-family="Helvetica,sans-Serif" font-size="10.00" fill="#000000">&lt; Csr&lt; ValueType, IndexType &gt; &gt;</text>
</a>
</g>
</g>
<!-- Node17&#45;&gt;Node27 -->
<g id="edge33" class="edge">
<title>Node17&#45;&gt;Node27</title>
<path fill="none" stroke="#ffa500" stroke-dasharray="5,2" d="M693.418,-189.9372C754.5154,-181.311 849.3013,-169.2683 932,-164.5 1156.6495,-151.547 1421.5033,-162.3687 1557.7978,-169.8499"/>
<polygon fill="#ffa500" stroke="#ffa500" points="692.568,-186.5229 683.1614,-191.398 693.555,-193.453 692.568,-186.5229"/>
<text text-anchor="middle" x="1034.5" y="-167.5" font-family="Helvetica,sans-Serif" font-size="10.00" fill="#000000"> &lt; Csr&lt; ValueType, IndexType &gt; &gt;</text>
</g>
<!-- Node18&#45;&gt;Node15 -->
<g id="edge16" class="edge">
<title>Node18&#45;&gt;Node15</title>
<path fill="none" stroke="#ffa500" stroke-dasharray="5,2" d="M1141.1259,-239.1965C1145.8124,-238.9312 1150.4532,-238.6963 1155,-238.5 1217.6703,-235.7937 1288.1779,-235.5264 1343.323,-235.9443"/>
<polygon fill="#ffa500" stroke="#ffa500" points="1140.5819,-235.723 1130.8125,-239.8231 1141.0064,-242.7101 1140.5819,-235.723"/>
<text text-anchor="middle" x="1238" y="-241.5" font-family="Helvetica,sans-Serif" font-size="10.00" fill="#000000"> &lt; Ell&lt; ValueType, IndexType &gt; &gt;</text>
</g>
<!-- Node22 -->
<g id="node18" class="node">
<title>Node22</title>
<g id="a_node18"><a xlink:href="classgko_1_1EnablePolymorphicAssignment.html" target="_top" xlink:title=" ">
<polygon fill="#ffffff" stroke="#000000" points="1343.5,-274.5 1343.5,-304.5 1535.5,-304.5 1535.5,-274.5 1343.5,-274.5"/>
<text text-anchor="start" x="1351.5" y="-292.5" font-family="Helvetica,sans-Serif" font-size="10.00" fill="#000000">gko::EnablePolymorphicAssignment</text>
<text text-anchor="middle" x="1439.5" y="-281.5" font-family="Helvetica,sans-Serif" font-size="10.00" fill="#000000">&lt; ConcreteLinOp &gt;</text>
</a>
</g>
</g>
<!-- Node18&#45;&gt;Node22 -->
<g id="edge27" class="edge">
<title>Node18&#45;&gt;Node22</title>
<path fill="none" stroke="#ffa500" stroke-dasharray="5,2" d="M1140.953,-258.6012C1194.9124,-263.7982 1261.4573,-270.3246 1321,-276.5 1328.308,-277.2579 1335.8679,-278.0557 1343.4693,-278.8676"/>
<polygon fill="#ffa500" stroke="#ffa500" points="1140.9713,-255.0869 1130.6821,-257.6134 1140.3011,-262.0547 1140.9713,-255.0869"/>
<text text-anchor="middle" x="1238" y="-279.5" font-family="Helvetica,sans-Serif" font-size="10.00" fill="#000000"> &lt; ConcreteLinOp &gt;</text>
</g>
<!-- Node19 -->
<g id="node15" class="node">
<title>Node19</title>
<g id="a_node15"><a xlink:href="classgko_1_1EnableLinOp.html" target="_top" xlink:title="The EnableLinOp mixin can be used to provide sensible default implementations of the majority of the ...">
<polygon fill="#ffffff" stroke="#000000" points="1763,-274.5 1763,-304.5 1919,-304.5 1919,-274.5 1763,-274.5"/>
<text text-anchor="start" x="1771" y="-292.5" font-family="Helvetica,sans-Serif" font-size="10.00" fill="#000000">gko::EnableLinOp&lt; Concrete</text>
<text text-anchor="middle" x="1841" y="-281.5" font-family="Helvetica,sans-Serif" font-size="10.00" fill="#000000">LinOp, PolymorphicBase &gt;</text>
</a>
</g>
</g>
<!-- Node19&#45;&gt;Node2 -->
<g id="edge18" class="edge">
<title>Node19&#45;&gt;Node2</title>
<path fill="none" stroke="#ffa500" stroke-dasharray="5,2" d="M1929.0292,-281.508C1992.3803,-275.7565 2077.0376,-268.0707 2137.8701,-262.5478"/>
<polygon fill="#ffa500" stroke="#ffa500" points="1928.6942,-278.024 1919.0516,-282.4139 1929.3271,-284.9953 1928.6942,-278.024"/>
<text text-anchor="middle" x="2025" y="-281.5" font-family="Helvetica,sans-Serif" font-size="10.00" fill="#000000"> &lt; Ell&lt; ValueType, IndexType &gt; &gt;</text>
</g>
<!-- Node20&#45;&gt;Node19 -->
<g id="edge19" class="edge">
<title>Node20&#45;&gt;Node19</title>
<path fill="none" stroke="#191970" d="M1550.1254,-327.8314C1606.9072,-320.7343 1677.1762,-311.826 1740,-303.5 1747.4583,-302.5116 1755.2239,-301.4654 1762.9892,-300.4081"/>
<polygon fill="#191970" stroke="#191970" points="1549.5373,-324.3776 1540.048,-329.0897 1550.4047,-331.3236 1549.5373,-324.3776"/>
</g>
<!-- Node21&#45;&gt;Node20 -->
<g id="edge20" class="edge">
<title>Node21&#45;&gt;Node20</title>
<path fill="none" stroke="#191970" d="M738.2025,-341.5C895.8584,-341.5 1185.7947,-341.5 1338.818,-341.5"/>
<polygon fill="#191970" stroke="#191970" points="738.0121,-338.0001 728.0121,-341.5 738.0121,-345.0001 738.0121,-338.0001"/>
</g>
<!-- Node22&#45;&gt;Node19 -->
<g id="edge24" class="edge">
<title>Node22&#45;&gt;Node19</title>
<path fill="none" stroke="#191970" d="M1546.0072,-289.5C1614.1349,-289.5 1700.9941,-289.5 1762.7782,-289.5"/>
<polygon fill="#191970" stroke="#191970" points="1545.6693,-286.0001 1535.6693,-289.5 1545.6692,-293.0001 1545.6693,-286.0001"/>
</g>
<!-- Node23&#45;&gt;Node22 -->
<g id="edge25" class="edge">
<title>Node23&#45;&gt;Node22</title>
<path fill="none" stroke="#191970" d="M1099.7929,-296.2103C1165.6851,-294.9087 1268.171,-292.8843 1343.3512,-291.3992"/>
<polygon fill="#191970" stroke="#191970" points="1099.4705,-292.7159 1089.5416,-296.4128 1099.6088,-299.7145 1099.4705,-292.7159"/>
</g>
<!-- Node24 -->
<g id="node20" class="node">
<title>Node24</title>
<g id="a_node20"><a xlink:href="classgko_1_1EnableCreateMethod.html" target="_top" xlink:title=" ">
<polygon fill="#ffffff" stroke="#000000" points="2126,-137.5 2126,-167.5 2305,-167.5 2305,-137.5 2126,-137.5"/>
<text text-anchor="start" x="2134" y="-155.5" font-family="Helvetica,sans-Serif" font-size="10.00" fill="#000000">gko::EnableCreateMethod</text>
<text text-anchor="middle" x="2215.5" y="-144.5" font-family="Helvetica,sans-Serif" font-size="10.00" fill="#000000">&lt; Ell&lt; ValueType, IndexType &gt; &gt;</text>
</a>
</g>
</g>
<!-- Node24&#45;&gt;Node1 -->
<g id="edge28" class="edge">
<title>Node24&#45;&gt;Node1</title>
<path fill="none" stroke="#191970" d="M2315.3092,-136.8437C2324.2185,-135.4461 2333.1501,-134.0451 2341.8319,-132.6832"/>
<polygon fill="#191970" stroke="#191970" points="2314.611,-133.4103 2305.2742,-138.4178 2315.6958,-140.3257 2314.611,-133.4103"/>
</g>
<!-- Node25 -->
<g id="node21" class="node">
<title>Node25</title>
<g id="a_node21"><a xlink:href="classgko_1_1EnableCreateMethod.html" target="_top" xlink:title="This mixin implements a static create() method on ConcreteType that dynamically allocates the memory,...">
<polygon fill="#ffffff" stroke="#000000" points="1770,-137.5 1770,-167.5 1912,-167.5 1912,-137.5 1770,-137.5"/>
<text text-anchor="start" x="1778" y="-155.5" font-family="Helvetica,sans-Serif" font-size="10.00" fill="#000000">gko::EnableCreateMethod</text>
<text text-anchor="middle" x="1841" y="-144.5" font-family="Helvetica,sans-Serif" font-size="10.00" fill="#000000">&lt; ConcreteType &gt;</text>
</a>
</g>
</g>
<!-- Node25&#45;&gt;Node24 -->
<g id="edge29" class="edge">
<title>Node25&#45;&gt;Node24</title>
<path fill="none" stroke="#ffa500" stroke-dasharray="5,2" d="M1922.5123,-152.5C1982.5205,-152.5 2064.0816,-152.5 2125.9132,-152.5"/>
<polygon fill="#ffa500" stroke="#ffa500" points="1922.3221,-149.0001 1912.3221,-152.5 1922.3221,-156.0001 1922.3221,-149.0001"/>
<text text-anchor="middle" x="2025" y="-155.5" font-family="Helvetica,sans-Serif" font-size="10.00" fill="#000000"> &lt; Ell&lt; ValueType, IndexType &gt; &gt;</text>
</g>
<!-- Node26&#45;&gt;Node1 -->
<g id="edge30" class="edge">
<title>Node26&#45;&gt;Node1</title>
<path fill="none" stroke="#191970" d="M1319.3919,-108.5C1402.3108,-108.5 1534.6097,-108.5 1649,-108.5 1649,-108.5 1649,-108.5 2215.5,-108.5 2257.1865,-108.5 2303.5821,-111.028 2341.582,-113.7634"/>
<polygon fill="#191970" stroke="#191970" points="1319.2791,-105.0001 1309.2791,-108.5 1319.2791,-112.0001 1319.2791,-105.0001"/>
</g>
<!-- Node27&#45;&gt;Node1 -->
<g id="edge32" class="edge">
<title>Node27&#45;&gt;Node1</title>
<path fill="none" stroke="#191970" d="M1750.1385,-190.1528C1880.4134,-205.7853 2112.94,-222.662 2305,-177.5 2339.1531,-169.4691 2374.7638,-149.6389 2397.0233,-135.6332"/>
<polygon fill="#191970" stroke="#191970" points="1750.5181,-186.6732 1740.1674,-188.9347 1749.6692,-193.6216 1750.5181,-186.6732"/>
</g>
<!-- Node28 -->
<g id="node24" class="node">
<title>Node28</title>
<g id="a_node24"><a xlink:href="classgko_1_1ReadableFromMatrixData.html" target="_top" xlink:title="A LinOp implementing this interface can read its data from a matrix_data structure.">
<polygon fill="#ffffff" stroke="#000000" points="2133.5,-49.5 2133.5,-79.5 2297.5,-79.5 2297.5,-49.5 2133.5,-49.5"/>
<text text-anchor="start" x="2141.5" y="-67.5" font-family="Helvetica,sans-Serif" font-size="10.00" fill="#000000">gko::ReadableFromMatrixData</text>
<text text-anchor="middle" x="2215.5" y="-56.5" font-family="Helvetica,sans-Serif" font-size="10.00" fill="#000000">&lt; ValueType, IndexType &gt;</text>
</a>
</g>
</g>
<!-- Node28&#45;&gt;Node1 -->
<g id="edge34" class="edge">
<title>Node28&#45;&gt;Node1</title>
<path fill="none" stroke="#191970" d="M2279.9946,-82.2044C2307.2223,-89.6787 2338.5923,-98.29 2364.6808,-105.4516"/>
<polygon fill="#191970" stroke="#191970" points="2280.7381,-78.7791 2270.1683,-79.507 2278.885,-85.5294 2280.7381,-78.7791"/>
</g>
<!-- Node29 -->
<g id="node25" class="node">
<title>Node29</title>
<g id="a_node25"><a xlink:href="classgko_1_1WritableToMatrixData.html" target="_top" xlink:title="A LinOp implementing this interface can write its data to a matrix_data structure.">
<polygon fill="#ffffff" stroke="#000000" points="2142.5,-.5 2142.5,-30.5 2288.5,-30.5 2288.5,-.5 2142.5,-.5"/>
<text text-anchor="start" x="2150.5" y="-18.5" font-family="Helvetica,sans-Serif" font-size="10.00" fill="#000000">gko::WritableToMatrixData</text>
<text text-anchor="middle" x="2215.5" y="-7.5" font-family="Helvetica,sans-Serif" font-size="10.00" fill="#000000">&lt; ValueType, IndexType &gt;</text>
</a>
</g>
</g>
<!-- Node29&#45;&gt;Node1 -->
<g id="edge35" class="edge">
<title>Node29&#45;&gt;Node1</title>
<path fill="none" stroke="#191970" d="M2289.3167,-33.9451C2294.7033,-35.9496 2299.9851,-38.1323 2305,-40.5 2342.2785,-58.1009 2380.5386,-87.6039 2402.0376,-105.4399"/>
<polygon fill="#191970" stroke="#191970" points="2290.1373,-30.5243 2279.5425,-30.5277 2287.827,-37.1321 2290.1373,-30.5243"/>
</g>
</g>
</svg>
        <g id="navigator" transform="translate(0 0)" fill="#404254">
                <rect fill="#f2f5e9" fill-opacity="0.5" stroke="#606060" stroke-width=".5" x="0" y="0" width="60" height="60"/>
                <use id="zoomplus" xlink:href="#zoomPlus" x="17" y="9" onmousedown="handleZoom(evt,'in')"/>
                <use id="zoomminus" xlink:href="#zoomMin" x="42" y="9" onmousedown="handleZoom(evt,'out')"/>
                <use id="reset" xlink:href="#resetDef" x="30" y="36" onmousedown="handleReset()"/>
                <g id="arrowUp" xlink:href="#dirArrow" transform="translate(30 24)" onmousedown="handlePan(0,-1)">
                  <use xlink:href="#rim" fill="#404040">
                        <set attributeName="fill" to="#808080" begin="arrowUp.mouseover" end="arrowUp.mouseout"/>
                  </use>
                  <path fill="none" stroke="white" stroke-width="1.5" d="M0,-3.0v7 M-2.5,-0.5L0,-3.0L2.5,-0.5"/>
                </g>
                <g id="arrowRight" xlink:href="#dirArrow" transform="rotate(90) translate(36 -43)" onmousedown="handlePan(1,0)">
                  <use xlink:href="#rim" fill="#404040">
                        <set attributeName="fill" to="#808080" begin="arrowRight.mouseover" end="arrowRight.mouseout"/>
                  </use>
                  <path fill="none" stroke="white" stroke-width="1.5" d="M0,-3.0v7 M-2.5,-0.5L0,-3.0L2.5,-0.5"/>
                </g>
                <g id="arrowDown" xlink:href="#dirArrow" transform="rotate(180) translate(-30 -48)" onmousedown="handlePan(0,1)">
                  <use xlink:href="#rim" fill="#404040">
                        <set attributeName="fill" to="#808080" begin="arrowDown.mouseover" end="arrowDown.mouseout"/>
                  </use>
                  <path fill="none" stroke="white" stroke-width="1.5" d="M0,-3.0v7 M-2.5,-0.5L0,-3.0L2.5,-0.5"/>
                </g>
                <g id="arrowLeft" xlink:href="#dirArrow" transform="rotate(270) translate(-36 17)" onmousedown="handlePan(-1,0)">
                  <use xlink:href="#rim" fill="#404040">
                        <set attributeName="fill" to="#808080" begin="arrowLeft.mouseover" end="arrowLeft.mouseout"/>
                  </use>
                  <path fill="none" stroke="white" stroke-width="1.5" d="M0,-3.0v7 M-2.5,-0.5L0,-3.0L2.5,-0.5"/>
                </g>
        </g>
        <svg viewBox="0 0 15 15" width="100%" height="30px" preserveAspectRatio="xMaxYMin meet">
         <g id="arrow_out" transform="scale(0.3 0.3)">
          <a xlink:href="classgko_1_1matrix_1_1Ell__coll__graph_org.svg" target="_base">
           <rect id="button" ry="5" rx="5" y="6" x="6" height="38" width="38"
                fill="#f2f5e9" fill-opacity="0.5" stroke="#606060" stroke-width="1.0"/>
           <path id="arrow"
             d="M 11.500037,31.436501 C 11.940474,20.09759 22.043105,11.32322 32.158766,21.979434 L 37.068811,17.246167 C 37.068811,17.246167 37.088388,32 37.088388,32 L 22.160133,31.978069 C 22.160133,31.978069 26.997745,27.140456 26.997745,27.140456 C 18.528582,18.264221 13.291696,25.230495 11.500037,31.436501 z"
             style="fill:#404040;"/>
          </a>
         </g>
        </svg>
</svg>
