<?xml version="1.0" encoding="UTF-8" standalone="no"?>
<!DOCTYPE svg PUBLIC "-//W3C//DTD SVG 1.1//EN"
 "http://www.w3.org/Graphics/SVG/1.1/DTD/svg11.dtd">
<!-- Generated by graphviz version 2.40.1 (20161225.0304)
 -->
<!-- Title: ExamplesMap Pages: 1 -->
<!--zoomable 522 -->
<svg id="main" version="1.1" xmlns="http://www.w3.org/2000/svg" xmlns:xlink="http://www.w3.org/1999/xlink" xml:space="preserve" onload="init(evt)">
<style type="text/css"><![CDATA[
.edge:hover path { stroke: red; }
.edge:hover polygon { stroke: red; fill: red; }
]]></style>
<script type="text/javascript"><![CDATA[
var edges = document.getElementsByTagName('g');
if (edges && edges.length) {
  for (var i=0;i<edges.length;i++) {
    if (edges[i].id.substr(0,4)=='edge') {
      edges[i].setAttribute('class','edge');
    }
  }
}
]]></script>
        <defs>
                <circle id="rim" cx="0" cy="0" r="7"/>
                <circle id="rim2" cx="0" cy="0" r="3.5"/>
                <g id="zoomPlus">
                        <use xlink:href="#rim" fill="#404040">
                                <set attributeName="fill" to="#808080" begin="zoomplus.mouseover" end="zoomplus.mouseout"/>
                        </use>
                        <path d="M-4,0h8M0,-4v8" fill="none" stroke="white" stroke-width="1.5" pointer-events="none"/>
                </g>
                <g id="zoomMin">
                        <use xlink:href="#rim" fill="#404040">
                                <set attributeName="fill" to="#808080" begin="zoomminus.mouseover" end="zoomminus.mouseout"/>
                        </use>
                        <path d="M-4,0h8" fill="none" stroke="white" stroke-width="1.5" pointer-events="none"/>
                </g>
                <g id="dirArrow">
                        <path fill="none" stroke="white" stroke-width="1.5" d="M0,-3.0v7 M-2.5,-0.5L0,-3.0L2.5,-0.5"/>
                </g>
               <g id="resetDef">
                       <use xlink:href="#rim2" fill="#404040">
                               <set attributeName="fill" to="#808080" begin="reset.mouseover" end="reset.mouseout"/>
                       </use>
               </g>
        </defs>

<script type="text/javascript">
var viewWidth = 1798;
var viewHeight = 522;
</script>
<script xlink:href="svgpan.js"/>
<svg id="graph" class="graph">
<g id="viewport">
<title>ExamplesMap</title>
<polygon fill="#ffffff" stroke="transparent" points="-4,4 -4,-518 1794,-518 1794,4 -4,4"/>
<!-- adaptiveprecision_blockjacobi -->
<g id="node1" class="node">
<title>adaptiveprecision_blockjacobi</title>
<g id="a_node1"><a xlink:href="adaptiveprecision_blockjacobi.html" target="_top" xlink:title="Use a preconditioner in Ginkgo. Solve a linear system.">
<polygon fill="#dc143c" stroke="#000000" points="195,-267.5 0,-267.5 0,-246.5 195,-246.5 195,-267.5"/>
<text text-anchor="middle" x="97.5" y="-253.9" font-family="Helvetica,sans-Serif" font-size="12.00" fill="#000000">adaptiveprecision_blockjacobi</text>
</a>
</g>
</g>
<!-- custom_logger -->
<g id="node2" class="node">
<title>custom_logger</title>
<g id="a_node2"><a xlink:href="custom_logger.html" target="_top" xlink:title="Creating a custom logger with Ginkgo">
<polygon fill="#ffd700" stroke="#000000" points="287,-157.5 182,-157.5 182,-136.5 287,-136.5 287,-157.5"/>
<text text-anchor="middle" x="234.5" y="-143.9" font-family="Helvetica,sans-Serif" font-size="12.00" fill="#000000">custom_logger</text>
</a>
</g>
</g>
<!-- custom_matrix_format -->
<g id="node3" class="node">
<title>custom_matrix_format</title>
<g id="a_node3"><a xlink:href="custom_matrix_format.html" target="_top" xlink:title="Create a custom matrix format. Matrix free iterative solve.">
<polygon fill="#ff7f50" stroke="#000000" points="809,-159.5 656,-159.5 656,-134.5 809,-134.5 809,-159.5"/>
<text text-anchor="middle" x="732.5" y="-143.9" font-family="Helvetica,sans-Serif" font-size="12.00" fill="#000000">custom_matrix_format</text>
</a>
</g>
</g>
<!-- custom_stopping_criterion -->
<g id="node4" class="node">
<title>custom_stopping_criterion</title>
<g id="a_node4"><a xlink:href="custom_stopping_criterion.html" target="_top" xlink:title="Create a custom stopping criterion.">
<polygon fill="#00bfff" stroke="#000000" points="666.5,-267.5 492.5,-267.5 492.5,-246.5 666.5,-246.5 666.5,-267.5"/>
<text text-anchor="middle" x="579.5" y="-253.9" font-family="Helvetica,sans-Serif" font-size="12.00" fill="#000000">custom_stopping_criterion</text>
</a>
</g>
</g>
<!-- external_lib_interfacing -->
<g id="node5" class="node">
<title>external_lib_interfacing</title>
<g id="a_node5"><a xlink:href="external_lib_interfacing.html" target="_top" xlink:title="Interface with an external library.">
<polygon fill="#ff7f50" stroke="#000000" points="1144.5,-489.5 988.5,-489.5 988.5,-464.5 1144.5,-464.5 1144.5,-489.5"/>
<text text-anchor="middle" x="1066.5" y="-473.9" font-family="Helvetica,sans-Serif" font-size="12.00" fill="#000000">external_lib_interfacing</text>
</a>
</g>
</g>
<!-- ginkgo_overhead -->
<g id="node6" class="node">
<title>ginkgo_overhead</title>
<g id="a_node6"><a xlink:href="ginkgo_overhead.html" target="_top" xlink:title="Measure ginkgo overhead.">
<polygon fill="#ff7f50" stroke="#000000" points="1282,-489.5 1163,-489.5 1163,-464.5 1282,-464.5 1282,-489.5"/>
<text text-anchor="middle" x="1222.5" y="-473.9" font-family="Helvetica,sans-Serif" font-size="12.00" fill="#000000">ginkgo_overhead</text>
</a>
</g>
</g>
<!-- ginkgo_ranges -->
<g id="node7" class="node">
<title>ginkgo_ranges</title>
<g id="a_node7"><a xlink:href="ginkgo_ranges.html" target="_top" xlink:title="Use the ranges concept in ginkgo.">
<polygon fill="#ff7f50" stroke="#000000" points="1404.5,-489.5 1300.5,-489.5 1300.5,-464.5 1404.5,-464.5 1404.5,-489.5"/>
<text text-anchor="middle" x="1352.5" y="-473.9" font-family="Helvetica,sans-Serif" font-size="12.00" fill="#000000">ginkgo_ranges</text>
</a>
</g>
</g>
<!-- ilu_preconditioned_solver -->
<g id="node8" class="node">
<title>ilu_preconditioned_solver</title>
<g id="a_node8"><a xlink:href="ilu_preconditioned_solver.html" target="_top" xlink:title="Generate an incomplete factorization. ">
<polygon fill="#dc143c" stroke="#000000" points="1292.5,-377.5 1124.5,-377.5 1124.5,-356.5 1292.5,-356.5 1292.5,-377.5"/>
<text text-anchor="middle" x="1208.5" y="-363.9" font-family="Helvetica,sans-Serif" font-size="12.00" fill="#000000">ilu_preconditioned_solver</text>
</a>
</g>
</g>
<!-- ir_ilu_preconditioned_solver -->
<g id="node10" class="node">
<title>ir_ilu_preconditioned_solver</title>
<g id="a_node10"><a xlink:href="ir_ilu_preconditioned_solver.html" target="_top" xlink:title="Generate an incomplete factorization.">
<polygon fill="#dc143c" stroke="#000000" points="1314.5,-267.5 1132.5,-267.5 1132.5,-246.5 1314.5,-246.5 1314.5,-267.5"/>
<text text-anchor="middle" x="1223.5" y="-253.9" font-family="Helvetica,sans-Serif" font-size="12.00" fill="#000000">ir_ilu_preconditioned_solver</text>
</a>
</g>
</g>
<!-- ilu_preconditioned_solver&#45;&gt;ir_ilu_preconditioned_solver -->
<g id="edge12" class="edge">
<title>ilu_preconditioned_solver&#45;&gt;ir_ilu_preconditioned_solver</title>
<path fill="none" stroke="#000000" d="M1209.9383,-356.4527C1212.4071,-338.3482 1217.4932,-301.0498 1220.687,-277.6289"/>
<polygon fill="#000000" stroke="#000000" points="1224.1607,-278.0582 1222.0441,-267.677 1217.2249,-277.1123 1224.1607,-278.0582"/>
</g>
<!-- inverse_iteration -->
<g id="node9" class="node">
<title>inverse_iteration</title>
<g id="a_node9"><a xlink:href="inverse_iteration.html" target="_top" xlink:title="Compute eigenvalues with inverse iteration method.">
<polygon fill="#ff7f50" stroke="#000000" points="1622.5,-379.5 1506.5,-379.5 1506.5,-354.5 1622.5,-354.5 1622.5,-379.5"/>
<text text-anchor="middle" x="1564.5" y="-363.9" font-family="Helvetica,sans-Serif" font-size="12.00" fill="#000000">inverse_iteration</text>
</a>
</g>
</g>
<!-- iterative_refinement -->
<g id="node11" class="node">
<title>iterative_refinement</title>
<g id="a_node11"><a xlink:href="iterative_refinement.html" target="_top" xlink:title="Use an iterative refinement method in Ginkgo. Solve a linear system.">
<polygon fill="#228b22" stroke="#000000" points="1480.3858,-354.9878 1480.3858,-379.0122 1433.004,-396 1365.996,-396 1318.6142,-379.0122 1318.6142,-354.9878 1365.996,-338 1433.004,-338 1480.3858,-354.9878"/>
<polygon fill="none" stroke="#000000" points="1484.3949,-352.1748 1484.3949,-381.8252 1433.7024,-400 1365.2976,-400 1314.6051,-381.8252 1314.6051,-352.1748 1365.2976,-334 1433.7024,-334 1484.3949,-352.1748"/>
<polygon fill="none" stroke="#000000" points="1488.404,-349.3617 1488.404,-384.6383 1434.4009,-404 1364.5991,-404 1310.596,-384.6383 1310.596,-349.3617 1364.5991,-330 1434.4009,-330 1488.404,-349.3617"/>
<text text-anchor="middle" x="1399.5" y="-363.9" font-family="Helvetica,sans-Serif" font-size="12.00" fill="#000000">iterative_refinement</text>
</a>
</g>
</g>
<!-- iterative_refinement&#45;&gt;ir_ilu_preconditioned_solver -->
<g id="edge13" class="edge">
<title>iterative_refinement&#45;&gt;ir_ilu_preconditioned_solver</title>
<path fill="none" stroke="#000000" d="M1349.0655,-335.4784C1316.3543,-315.034 1275.118,-289.2612 1249.0211,-272.9507"/>
<polygon fill="#000000" stroke="#000000" points="1250.7955,-269.9323 1240.4605,-267.6003 1247.0855,-275.8683 1250.7955,-269.9323"/>
</g>
<!-- mixed_precision_ir -->
<g id="node13" class="node">
<title>mixed_precision_ir</title>
<g id="a_node13"><a xlink:href="mixed_precision_ir.html" target="_top" xlink:title="Manually implement a Mixed Precision Iterative Refinement (MPIR) method in Ginkgo. Solve a linear system.">
<polygon fill="#ff7f50" stroke="#000000" points="1463.5,-269.5 1335.5,-269.5 1335.5,-244.5 1463.5,-244.5 1463.5,-269.5"/>
<text text-anchor="middle" x="1399.5" y="-253.9" font-family="Helvetica,sans-Serif" font-size="12.00" fill="#000000">mixed_precision_ir</text>
</a>
</g>
</g>
<!-- iterative_refinement&#45;&gt;mixed_precision_ir -->
<g id="edge16" class="edge">
<title>iterative_refinement&#45;&gt;mixed_precision_ir</title>
<path fill="none" stroke="#000000" d="M1399.5,-329.759C1399.5,-313.1701 1399.5,-294.1665 1399.5,-279.7416"/>
<polygon fill="#000000" stroke="#000000" points="1403.0001,-279.7191 1399.5,-269.7191 1396.0001,-279.7192 1403.0001,-279.7191"/>
</g>
<!-- minimal_cuda_solver -->
<g id="node12" class="node">
<title>minimal_cuda_solver</title>
<g id="a_node12"><a xlink:href="minimal_cuda_solver.html" target="_top" xlink:title="Use the CUDA executor. Solve a linear system.">
<polygon fill="#228b22" stroke="#000000" points="562.8921,-354.9878 562.8921,-379.0122 514.6279,-396 446.3721,-396 398.1079,-379.0122 398.1079,-354.9878 446.3721,-338 514.6279,-338 562.8921,-354.9878"/>
<polygon fill="none" stroke="#000000" points="566.8896,-352.1546 566.8896,-381.8454 515.3105,-400 445.6895,-400 394.1104,-381.8454 394.1104,-352.1546 445.6895,-334 515.3105,-334 566.8896,-352.1546"/>
<polygon fill="none" stroke="#000000" points="570.8871,-349.3214 570.8871,-384.6786 515.9931,-404 445.0069,-404 390.1129,-384.6786 390.1129,-349.3214 445.0069,-330 515.9931,-330 570.8871,-349.3214"/>
<text text-anchor="middle" x="480.5" y="-363.9" font-family="Helvetica,sans-Serif" font-size="12.00" fill="#000000">minimal_cuda_solver</text>
</a>
</g>
</g>
<!-- minimal_cuda_solver&#45;&gt;custom_logger -->
<g id="edge4" class="edge">
<title>minimal_cuda_solver&#45;&gt;custom_logger</title>
<path fill="none" stroke="#000000" d="M389.9732,-352.7225C351.3197,-342.3608 308.522,-324.5506 279.5,-294 246.1017,-258.8426 237.4437,-199.5452 235.2314,-168.0816"/>
<polygon fill="#000000" stroke="#000000" points="238.7126,-167.6403 234.6741,-157.8454 231.723,-168.0209 238.7126,-167.6403"/>
</g>
<!-- minimal_cuda_solver&#45;&gt;custom_stopping_criterion -->
<g id="edge9" class="edge">
<title>minimal_cuda_solver&#45;&gt;custom_stopping_criterion</title>
<path fill="none" stroke="#000000" d="M514.0169,-329.759C530.4878,-311.458 549.6035,-290.2183 562.9135,-275.4294"/>
<polygon fill="#000000" stroke="#000000" points="565.5688,-277.7111 569.657,-267.9367 560.3657,-273.0283 565.5688,-277.7111"/>
</g>
<!-- performance_debugging -->
<g id="node16" class="node">
<title>performance_debugging</title>
<g id="a_node16"><a xlink:href="performance_debugging.html" target="_top" xlink:title="Logging to debug performance within Ginkgo.">
<polygon fill="#ffd700" stroke="#000000" points="579.5,-157.5 415.5,-157.5 415.5,-136.5 579.5,-136.5 579.5,-157.5"/>
<text text-anchor="middle" x="497.5" y="-143.9" font-family="Helvetica,sans-Serif" font-size="12.00" fill="#000000">performance_debugging</text>
</a>
</g>
</g>
<!-- minimal_cuda_solver&#45;&gt;performance_debugging -->
<g id="edge22" class="edge">
<title>minimal_cuda_solver&#45;&gt;performance_debugging</title>
<path fill="none" stroke="#000000" d="M479.527,-329.7361C479.1665,-299.9557 479.5828,-257.1901 483.5,-220 485.3743,-202.2054 489.3253,-182.2717 492.5535,-167.7362"/>
<polygon fill="#000000" stroke="#000000" points="496.0088,-168.3276 494.835,-157.798 489.1862,-166.7613 496.0088,-168.3276"/>
</g>
<!-- simple_solver_logging -->
<g id="node21" class="node">
<title>simple_solver_logging</title>
<g id="a_node21"><a xlink:href="simple_solver_logging.html" target="_top" xlink:title="Logging within Ginkgo.">
<polygon fill="#ffd700" stroke="#000000" points="436,-267.5 289,-267.5 289,-246.5 436,-246.5 436,-267.5"/>
<text text-anchor="middle" x="362.5" y="-253.9" font-family="Helvetica,sans-Serif" font-size="12.00" fill="#000000">simple_solver_logging</text>
</a>
</g>
</g>
<!-- minimal_cuda_solver&#45;&gt;simple_solver_logging -->
<g id="edge27" class="edge">
<title>minimal_cuda_solver&#45;&gt;simple_solver_logging</title>
<path fill="none" stroke="#000000" d="M441.8624,-330.9819C421.7149,-312.2003 397.9565,-290.0527 381.7208,-274.9177"/>
<polygon fill="#000000" stroke="#000000" points="383.6766,-271.956 373.9753,-267.6973 378.9034,-277.0763 383.6766,-271.956"/>
</g>
<!-- nine_pt_stencil_solver -->
<g id="node14" class="node">
<title>nine_pt_stencil_solver</title>
<g id="a_node14"><a xlink:href="nine_pt_stencil_solver.html" target="_top" xlink:title="Use array views to generate a nine point 2D stencil matrix. Solve a linear system.">
<polygon fill="#228b22" stroke="#000000" points="1104.0525,-134.9878 1104.0525,-159.0122 1054.5228,-176 984.4772,-176 934.9475,-159.0122 934.9475,-134.9878 984.4772,-118 1054.5228,-118 1104.0525,-134.9878"/>
<polygon fill="none" stroke="#000000" points="1108.0424,-132.1287 1108.0424,-161.8713 1055.1864,-180 983.8136,-180 930.9576,-161.8713 930.9576,-132.1287 983.8136,-114 1055.1864,-114 1108.0424,-132.1287"/>
<polygon fill="none" stroke="#000000" points="1112.0324,-129.2695 1112.0324,-164.7305 1055.8501,-184 983.1499,-184 926.9676,-164.7305 926.9676,-129.2695 983.1499,-110 1055.8501,-110 1112.0324,-129.2695"/>
<text text-anchor="middle" x="1019.5" y="-143.9" font-family="Helvetica,sans-Serif" font-size="12.00" fill="#000000">nine_pt_stencil_solver</text>
</a>
</g>
</g>
<!-- twentyseven_pt_stencil_solver -->
<g id="node23" class="node">
<title>twentyseven_pt_stencil_solver</title>
<g id="a_node23"><a xlink:href="twentyseven_pt_stencil_solver.html" target="_top" xlink:title="Use array views to generate twentyseven point 3D stencil matrix. Solve a linear system.">
<polygon fill="#228b22" stroke="#000000" points="1072.76,-24.9878 1072.76,-49.0122 1005.828,-66 911.172,-66 844.24,-49.0122 844.24,-24.9878 911.172,-8 1005.828,-8 1072.76,-24.9878"/>
<polygon fill="none" stroke="#000000" points="1076.756,-21.8754 1076.756,-52.1246 1006.3267,-70 910.6733,-70 840.244,-52.1246 840.244,-21.8754 910.6733,-4 1006.3267,-4 1076.756,-21.8754"/>
<polygon fill="none" stroke="#000000" points="1080.7519,-18.7631 1080.7519,-55.2369 1006.8254,-74 910.1746,-74 836.2481,-55.2369 836.2481,-18.7631 910.1746,0 1006.8254,0 1080.7519,-18.7631"/>
<text text-anchor="middle" x="958.5" y="-33.9" font-family="Helvetica,sans-Serif" font-size="12.00" fill="#000000">twentyseven_pt_stencil_solver</text>
</a>
</g>
</g>
<!-- nine_pt_stencil_solver&#45;&gt;twentyseven_pt_stencil_solver -->
<g id="edge32" class="edge">
<title>nine_pt_stencil_solver&#45;&gt;twentyseven_pt_stencil_solver</title>
<path fill="none" stroke="#000000" d="M998.8482,-109.759C994.0784,-101.1578 988.9487,-91.9074 983.9995,-82.9827"/>
<polygon fill="#000000" stroke="#000000" points="987.0411,-81.2506 979.1305,-74.2026 980.9194,-84.6454 987.0411,-81.2506"/>
</g>
<!-- papi_logging -->
<g id="node15" class="node">
<title>papi_logging</title>
<g id="a_node15"><a xlink:href="papi_logging.html" target="_top" xlink:title="Logging with PAPI.">
<polygon fill="#ffd700" stroke="#000000" points="397.5,-157.5 305.5,-157.5 305.5,-136.5 397.5,-136.5 397.5,-157.5"/>
<text text-anchor="middle" x="351.5" y="-143.9" font-family="Helvetica,sans-Serif" font-size="12.00" fill="#000000">papi_logging</text>
</a>
</g>
</g>
<!-- poisson_solver -->
<g id="node17" class="node">
<title>poisson_solver</title>
<g id="a_node17"><a xlink:href="poisson_solver.html" target="_top" xlink:title="Solve the poisson problem. Generate the matrix within Ginkgo.">
<polygon fill="#228b22" stroke="#000000" points="1013.7764,-354.9878 1013.7764,-379.0122 978.4673,-396 928.5327,-396 893.2236,-379.0122 893.2236,-354.9878 928.5327,-338 978.4673,-338 1013.7764,-354.9878"/>
<polygon fill="none" stroke="#000000" points="1017.7695,-352.4715 1017.7695,-381.5285 979.3765,-400 927.6235,-400 889.2305,-381.5285 889.2305,-352.4715 927.6235,-334 979.3765,-334 1017.7695,-352.4715"/>
<polygon fill="none" stroke="#000000" points="1021.7626,-349.9552 1021.7626,-384.0448 980.2857,-404 926.7143,-404 885.2374,-384.0448 885.2374,-349.9552 926.7143,-330 980.2857,-330 1021.7626,-349.9552"/>
<text text-anchor="middle" x="953.5" y="-363.9" font-family="Helvetica,sans-Serif" font-size="12.00" fill="#000000">poisson_solver</text>
</a>
</g>
</g>
<!-- poisson_solver&#45;&gt;custom_matrix_format -->
<g id="edge6" class="edge">
<title>poisson_solver&#45;&gt;custom_matrix_format</title>
<path fill="none" stroke="#000000" d="M885.2008,-350.4758C833.5865,-336.5569 768.7709,-315.5208 751.5,-294 722.8291,-258.274 724.8443,-201.1548 728.7331,-169.6687"/>
<polygon fill="#000000" stroke="#000000" points="732.2113,-170.068 730.1395,-159.6777 725.2796,-169.0922 732.2113,-170.068"/>
</g>
<!-- poisson_solver&#45;&gt;nine_pt_stencil_solver -->
<g id="edge19" class="edge">
<title>poisson_solver&#45;&gt;nine_pt_stencil_solver</title>
<path fill="none" stroke="#000000" d="M979.1138,-329.6924C985.6932,-318.6208 992.1375,-306.1865 996.5,-294 1008.0259,-261.8026 1013.7818,-223.5926 1016.6531,-194.1999"/>
<polygon fill="#000000" stroke="#000000" points="1020.1429,-194.4688 1017.5531,-184.1954 1013.1711,-193.8415 1020.1429,-194.4688"/>
</g>
<!-- three_pt_stencil_solver -->
<g id="node22" class="node">
<title>three_pt_stencil_solver</title>
<g id="a_node22"><a xlink:href="three_pt_stencil_solver.html" target="_top" xlink:title="Use array views to generate stencil matrix. Solve a linear system.">
<polygon fill="#228b22" stroke="#000000" points="946.1743,-244.9878 946.1743,-269.0122 894.2301,-286 820.7699,-286 768.8257,-269.0122 768.8257,-244.9878 820.7699,-228 894.2301,-228 946.1743,-244.9878"/>
<polygon fill="none" stroke="#000000" points="950.1673,-242.0859 950.1673,-271.9141 894.8654,-290 820.1346,-290 764.8327,-271.9141 764.8327,-242.0859 820.1346,-224 894.8654,-224 950.1673,-242.0859"/>
<polygon fill="none" stroke="#000000" points="954.1603,-239.184 954.1603,-274.816 895.5007,-294 819.4993,-294 760.8397,-274.816 760.8397,-239.184 819.4993,-220 895.5007,-220 954.1603,-239.184"/>
<text text-anchor="middle" x="857.5" y="-253.9" font-family="Helvetica,sans-Serif" font-size="12.00" fill="#000000">three_pt_stencil_solver</text>
</a>
</g>
</g>
<!-- poisson_solver&#45;&gt;three_pt_stencil_solver -->
<g id="edge29" class="edge">
<title>poisson_solver&#45;&gt;three_pt_stencil_solver</title>
<path fill="none" stroke="#000000" d="M922.5966,-331.5898C914.379,-322.1739 905.3925,-311.8768 896.7918,-302.0219"/>
<polygon fill="#000000" stroke="#000000" points="899.2115,-299.4715 889.9991,-294.2386 893.9375,-304.0742 899.2115,-299.4715"/>
</g>
<!-- poisson_solver&#45;&gt;twentyseven_pt_stencil_solver -->
<g id="edge31" class="edge">
<title>poisson_solver&#45;&gt;twentyseven_pt_stencil_solver</title>
<path fill="none" stroke="#000000" d="M965.9488,-329.6939C974.0261,-298.7365 980.25,-254.3784 963.5,-220 952.129,-196.6617 928.871,-207.3383 917.5,-184 903.0946,-154.4337 909.1763,-141.8181 917.5,-110 919.9027,-100.8154 923.7481,-91.5658 928.1437,-82.8821"/>
<polygon fill="#000000" stroke="#000000" points="931.232,-84.529 932.886,-74.064 925.067,-81.2134 931.232,-84.529"/>
</g>
<!-- preconditioned_solver -->
<g id="node18" class="node">
<title>preconditioned_solver</title>
<g id="a_node18"><a xlink:href="preconditioned_solver.html" target="_top" xlink:title="Use a preconditioner in Ginkgo. Solve a linear system.">
<polygon fill="#dc143c" stroke="#000000" points="184,-377.5 35,-377.5 35,-356.5 184,-356.5 184,-377.5"/>
<text text-anchor="middle" x="109.5" y="-363.9" font-family="Helvetica,sans-Serif" font-size="12.00" fill="#000000">preconditioned_solver</text>
</a>
</g>
</g>
<!-- preconditioned_solver&#45;&gt;adaptiveprecision_blockjacobi -->
<g id="edge1" class="edge">
<title>preconditioned_solver&#45;&gt;adaptiveprecision_blockjacobi</title>
<path fill="none" stroke="#000000" d="M108.3494,-356.4527C106.3744,-338.3482 102.3054,-301.0498 99.7504,-277.6289"/>
<polygon fill="#000000" stroke="#000000" points="103.2287,-277.2384 98.6648,-267.677 96.27,-277.9976 103.2287,-277.2384"/>
</g>
<!-- preconditioner_export -->
<g id="node19" class="node">
<title>preconditioner_export</title>
<g id="a_node19"><a xlink:href="preconditioner_export.html" target="_top" xlink:title="Generate and store different preconditioners on the disk.">
<polygon fill="#dc143c" stroke="#000000" points="1790,-377.5 1641,-377.5 1641,-356.5 1790,-356.5 1790,-377.5"/>
<text text-anchor="middle" x="1715.5" y="-363.9" font-family="Helvetica,sans-Serif" font-size="12.00" fill="#000000">preconditioner_export</text>
</a>
</g>
</g>
<!-- simple_solver -->
<g id="node20" class="node">
<title>simple_solver</title>
<g id="a_node20"><a xlink:href="simple_solver.html" target="_top" xlink:title="Solve a simple linear system with CG. Read a matrix and right hand side from a file.">
<polygon fill="#228b22" stroke="#000000" points="962.3081,-464.9878 962.3081,-489.0122 929.0307,-506 881.9693,-506 848.6919,-489.0122 848.6919,-464.9878 881.9693,-448 929.0307,-448 962.3081,-464.9878"/>
<polygon fill="none" stroke="#000000" points="966.3018,-462.537 966.3018,-491.463 929.9897,-510 881.0103,-510 844.6982,-491.463 844.6982,-462.537 881.0103,-444 929.9897,-444 966.3018,-462.537"/>
<polygon fill="none" stroke="#000000" points="970.2955,-460.0861 970.2955,-493.9139 930.9488,-514 880.0512,-514 840.7045,-493.9139 840.7045,-460.0861 880.0512,-440 930.9488,-440 970.2955,-460.0861"/>
<text text-anchor="middle" x="905.5" y="-473.9" font-family="Helvetica,sans-Serif" font-size="12.00" fill="#000000">simple_solver</text>
</a>
</g>
</g>
<!-- simple_solver&#45;&gt;custom_logger -->
<g id="edge2" class="edge">
<title>simple_solver&#45;&gt;custom_logger</title>
<path fill="none" stroke="#000000" d="M840.6066,-473.6024C713.4555,-466.1125 436.5174,-445.4569 351.5,-404 288.7879,-373.4198 267.58,-357.8707 239.5,-294 221.092,-252.1292 225.9955,-196.887 230.6011,-167.4824"/>
<polygon fill="#000000" stroke="#000000" points="234.0621,-168.0073 232.3025,-157.5597 227.1628,-166.8243 234.0621,-168.0073"/>
</g>
<!-- simple_solver&#45;&gt;custom_matrix_format -->
<g id="edge5" class="edge">
<title>simple_solver&#45;&gt;custom_matrix_format</title>
<path fill="none" stroke="#000000" d="M861.9234,-448.8248C817.5251,-417.2447 751.3577,-361.5159 723.5,-294 706.4761,-252.7409 716.8536,-199.3996 725.1788,-169.6375"/>
<polygon fill="#000000" stroke="#000000" points="728.6069,-170.3881 728.0986,-159.8054 721.8966,-168.3953 728.6069,-170.3881"/>
</g>
<!-- simple_solver&#45;&gt;custom_stopping_criterion -->
<g id="edge8" class="edge">
<title>simple_solver&#45;&gt;custom_stopping_criterion</title>
<path fill="none" stroke="#000000" d="M840.6942,-467.5216C792.7033,-457.9217 727.7239,-439.2531 680.5,-404 634.7998,-369.8844 602.5791,-308.769 588.0971,-277.1626"/>
<polygon fill="#000000" stroke="#000000" points="591.132,-275.3732 583.872,-267.6568 584.7354,-278.2164 591.132,-275.3732"/>
</g>
<!-- simple_solver&#45;&gt;ilu_preconditioned_solver -->
<g id="edge10" class="edge">
<title>simple_solver&#45;&gt;ilu_preconditioned_solver</title>
<path fill="none" stroke="#000000" d="M953.4518,-451.3318C961.9988,-447.2463 970.9159,-443.2892 979.5,-440 1035.8832,-418.3954 1053.0827,-422.6838 1110.5,-404 1131.4624,-397.1788 1154.545,-388.5219 1173.0402,-381.2969"/>
<polygon fill="#000000" stroke="#000000" points="1174.5075,-384.4808 1182.5289,-377.5592 1171.9419,-377.9679 1174.5075,-384.4808"/>
</g>
<!-- simple_solver&#45;&gt;inverse_iteration -->
<g id="edge11" class="edge">
<title>simple_solver&#45;&gt;inverse_iteration</title>
<path fill="none" stroke="#000000" d="M951.7661,-450.4211C960.723,-446.2769 970.2161,-442.5346 979.5,-440 1202.1297,-379.2194 1276.1601,-469.3218 1497.5,-404 1511.7179,-399.804 1526.268,-392.2384 1538.1605,-385.0369"/>
<polygon fill="#000000" stroke="#000000" points="1540.0936,-387.9557 1546.6873,-379.6626 1536.3612,-382.0338 1540.0936,-387.9557"/>
</g>
<!-- simple_solver&#45;&gt;iterative_refinement -->
<g id="edge14" class="edge">
<title>simple_solver&#45;&gt;iterative_refinement</title>
<path fill="none" stroke="#000000" d="M952.2574,-450.5519C961.0871,-446.4494 970.4091,-442.688 979.5,-440 1117.5925,-399.1681 1161.4947,-437.6942 1301.5,-404 1309.5699,-402.0579 1317.8772,-399.6322 1326.0808,-396.9571"/>
<polygon fill="#000000" stroke="#000000" points="1327.2958,-400.241 1335.6431,-393.7163 1325.0488,-393.6114 1327.2958,-400.241"/>
</g>
<!-- simple_solver&#45;&gt;minimal_cuda_solver -->
<g id="edge15" class="edge">
<title>simple_solver&#45;&gt;minimal_cuda_solver</title>
<path fill="none" stroke="#000000" d="M840.428,-461.2526C781.1695,-446.7884 691.3055,-424.5444 613.5,-404 598.863,-400.1351 583.3522,-395.925 568.2898,-391.7752"/>
<polygon fill="#000000" stroke="#000000" points="569.0411,-388.3517 558.4701,-389.0612 567.1763,-395.0987 569.0411,-388.3517"/>
</g>
<!-- simple_solver&#45;&gt;nine_pt_stencil_solver -->
<g id="edge17" class="edge">
<title>simple_solver&#45;&gt;nine_pt_stencil_solver</title>
<path fill="none" stroke="#000000" d="M954.1025,-451.6275C987.2785,-433.8098 1026.0115,-411.8191 1030.5,-404 1067.8609,-338.9158 1051.434,-248.5407 1035.7352,-194.1203"/>
<polygon fill="#000000" stroke="#000000" points="1039.0442,-192.9692 1032.8255,-184.3914 1032.3377,-194.975 1039.0442,-192.9692"/>
</g>
<!-- simple_solver&#45;&gt;poisson_solver -->
<g id="edge23" class="edge">
<title>simple_solver&#45;&gt;poisson_solver</title>
<path fill="none" stroke="#000000" d="M921.7506,-439.759C925.4257,-431.337 929.3723,-422.2926 933.1912,-413.5409"/>
<polygon fill="#000000" stroke="#000000" points="936.4745,-414.7679 937.2661,-404.2026 930.0587,-411.9682 936.4745,-414.7679"/>
</g>
<!-- simple_solver&#45;&gt;preconditioned_solver -->
<g id="edge24" class="edge">
<title>simple_solver&#45;&gt;preconditioned_solver</title>
<path fill="none" stroke="#000000" d="M840.6884,-475.6666C716.4373,-471.9167 436.7869,-457.6948 208.5,-404 185.6851,-398.6338 160.9903,-389.411 141.9718,-381.5162"/>
<polygon fill="#000000" stroke="#000000" points="143.1567,-378.217 132.5837,-377.5362 140.4245,-384.6618 143.1567,-378.217"/>
</g>
<!-- simple_solver&#45;&gt;preconditioner_export -->
<g id="edge25" class="edge">
<title>simple_solver&#45;&gt;preconditioner_export</title>
<path fill="none" stroke="#000000" d="M951.737,-450.313C960.6968,-446.1793 970.1983,-442.4685 979.5,-440 1260.0094,-365.5577 1349.2599,-471.5846 1631.5,-404 1651.0072,-399.3289 1671.6396,-390.3059 1687.5744,-382.34"/>
<polygon fill="#000000" stroke="#000000" points="1689.5522,-385.2582 1696.837,-377.5651 1686.3448,-379.0362 1689.5522,-385.2582"/>
</g>
<!-- simple_solver&#45;&gt;simple_solver_logging -->
<g id="edge26" class="edge">
<title>simple_solver&#45;&gt;simple_solver_logging</title>
<path fill="none" stroke="#000000" d="M840.6631,-472.3353C707.5894,-462.1443 413.3892,-436.2059 381.5,-404 348.2975,-370.4678 352.9132,-309.5468 358.2038,-277.6815"/>
<polygon fill="#000000" stroke="#000000" points="361.6702,-278.1837 360.0424,-267.7147 354.7863,-276.9138 361.6702,-278.1837"/>
</g>
<!-- simple_solver&#45;&gt;three_pt_stencil_solver -->
<g id="edge28" class="edge">
<title>simple_solver&#45;&gt;three_pt_stencil_solver</title>
<path fill="none" stroke="#000000" d="M888.613,-439.7112C884.0737,-428.4314 879.5762,-415.8816 876.5,-404 868.0272,-371.2742 863.2469,-333.4261 860.6005,-304.3304"/>
<polygon fill="#000000" stroke="#000000" points="864.0593,-303.6977 859.7192,-294.0326 857.0848,-304.2946 864.0593,-303.6977"/>
</g>
<!-- simple_solver&#45;&gt;twentyseven_pt_stencil_solver -->
<g id="edge30" class="edge">
<title>simple_solver&#45;&gt;twentyseven_pt_stencil_solver</title>
<path fill="none" stroke="#000000" d="M955.1847,-451.9763C963.2967,-447.9429 971.622,-443.8348 979.5,-440 1013.1057,-423.6416 1031.139,-432.3457 1055.5,-404 1122.0365,-326.5801 1106.6762,-285.001 1121.5,-184 1126.2759,-151.4597 1139.3824,-137.6025 1121.5,-110 1108.7397,-90.3038 1089.2767,-75.8731 1068.1896,-65.316"/>
<polygon fill="#000000" stroke="#000000" points="1069.6063,-62.1145 1059.0677,-61.0246 1066.6264,-68.4486 1069.6063,-62.1145"/>
</g>
<!-- simple_solver_logging&#45;&gt;custom_logger -->
<g id="edge3" class="edge">
<title>simple_solver_logging&#45;&gt;custom_logger</title>
<path fill="none" stroke="#000000" d="M350.2268,-246.4527C328.1112,-227.4471 281.3821,-187.2893 254.5598,-164.2389"/>
<polygon fill="#000000" stroke="#000000" points="256.7895,-161.5402 246.9241,-157.677 252.2271,-166.8491 256.7895,-161.5402"/>
</g>
<!-- simple_solver_logging&#45;&gt;papi_logging -->
<g id="edge20" class="edge">
<title>simple_solver_logging&#45;&gt;papi_logging</title>
<path fill="none" stroke="#000000" d="M361.4453,-246.4527C359.6348,-228.3482 355.905,-191.0498 353.5629,-167.6289"/>
<polygon fill="#000000" stroke="#000000" points="357.0455,-167.279 352.5677,-157.677 350.0802,-167.9756 357.0455,-167.279"/>
</g>
<!-- simple_solver_logging&#45;&gt;performance_debugging -->
<g id="edge21" class="edge">
<title>simple_solver_logging&#45;&gt;performance_debugging</title>
<path fill="none" stroke="#000000" d="M375.4444,-246.4527C398.7695,-227.4471 448.0541,-187.2893 476.3431,-164.2389"/>
<polygon fill="#000000" stroke="#000000" points="478.855,-166.7071 484.3965,-157.677 474.4332,-161.2804 478.855,-166.7071"/>
</g>
<!-- three_pt_stencil_solver&#45;&gt;custom_matrix_format -->
<g id="edge7" class="edge">
<title>three_pt_stencil_solver&#45;&gt;custom_matrix_format</title>
<path fill="none" stroke="#000000" d="M816.2239,-220.677C795.6901,-202.6073 771.6881,-181.4855 754.6606,-166.5013"/>
<polygon fill="#000000" stroke="#000000" points="756.7271,-163.6576 746.9077,-159.6788 752.1027,-168.9126 756.7271,-163.6576"/>
</g>
<!-- three_pt_stencil_solver&#45;&gt;nine_pt_stencil_solver -->
<g id="edge18" class="edge">
<title>three_pt_stencil_solver&#45;&gt;nine_pt_stencil_solver</title>
<path fill="none" stroke="#000000" d="M906.9856,-223.3987C924.4178,-211.562 944.1571,-198.1587 962.1813,-185.9201"/>
<polygon fill="#000000" stroke="#000000" points="964.5671,-188.5307 970.8741,-180.0176 960.6349,-182.7396 964.5671,-188.5307"/>
</g>
<!-- three_pt_stencil_solver&#45;&gt;twentyseven_pt_stencil_solver -->
<g id="edge33" class="edge">
<title>three_pt_stencil_solver&#45;&gt;twentyseven_pt_stencil_solver</title>
<path fill="none" stroke="#000000" d="M858.1867,-219.955C860.1486,-188.9543 866.2882,-144.398 884.5,-110 889.8554,-99.8849 897.0991,-90.3012 904.9668,-81.6064"/>
<polygon fill="#000000" stroke="#000000" points="907.6528,-83.861 912.0097,-74.2034 902.5812,-79.0361 907.6528,-83.861"/>
</g>
</g>
</svg>
        <g id="navigator" transform="translate(0 0)" fill="#404254">
                <rect fill="#f2f5e9" fill-opacity="0.5" stroke="#606060" stroke-width=".5" x="0" y="0" width="60" height="60"/>
                <use id="zoomplus" xlink:href="#zoomPlus" x="17" y="9" onmousedown="handleZoom(evt,'in')"/>
                <use id="zoomminus" xlink:href="#zoomMin" x="42" y="9" onmousedown="handleZoom(evt,'out')"/>
                <use id="reset" xlink:href="#resetDef" x="30" y="36" onmousedown="handleReset()"/>
                <g id="arrowUp" xlink:href="#dirArrow" transform="translate(30 24)" onmousedown="handlePan(0,-1)">
                  <use xlink:href="#rim" fill="#404040">
                        <set attributeName="fill" to="#808080" begin="arrowUp.mouseover" end="arrowUp.mouseout"/>
                  </use>
                  <path fill="none" stroke="white" stroke-width="1.5" d="M0,-3.0v7 M-2.5,-0.5L0,-3.0L2.5,-0.5"/>
                </g>
                <g id="arrowRight" xlink:href="#dirArrow" transform="rotate(90) translate(36 -43)" onmousedown="handlePan(1,0)">
                  <use xlink:href="#rim" fill="#404040">
                        <set attributeName="fill" to="#808080" begin="arrowRight.mouseover" end="arrowRight.mouseout"/>
                  </use>
                  <path fill="none" stroke="white" stroke-width="1.5" d="M0,-3.0v7 M-2.5,-0.5L0,-3.0L2.5,-0.5"/>
                </g>
                <g id="arrowDown" xlink:href="#dirArrow" transform="rotate(180) translate(-30 -48)" onmousedown="handlePan(0,1)">
                  <use xlink:href="#rim" fill="#404040">
                        <set attributeName="fill" to="#808080" begin="arrowDown.mouseover" end="arrowDown.mouseout"/>
                  </use>
                  <path fill="none" stroke="white" stroke-width="1.5" d="M0,-3.0v7 M-2.5,-0.5L0,-3.0L2.5,-0.5"/>
                </g>
                <g id="arrowLeft" xlink:href="#dirArrow" transform="rotate(270) translate(-36 17)" onmousedown="handlePan(-1,0)">
                  <use xlink:href="#rim" fill="#404040">
                        <set attributeName="fill" to="#808080" begin="arrowLeft.mouseover" end="arrowLeft.mouseout"/>
                  </use>
                  <path fill="none" stroke="white" stroke-width="1.5" d="M0,-3.0v7 M-2.5,-0.5L0,-3.0L2.5,-0.5"/>
                </g>
        </g>
        <svg viewBox="0 0 15 15" width="100%" height="30px" preserveAspectRatio="xMaxYMin meet">
         <g id="arrow_out" transform="scale(0.3 0.3)">
          <a xlink:href="dot_inline_dotgraph_1_org.svg" target="_base">
           <rect id="button" ry="5" rx="5" y="6" x="6" height="38" width="38"
                fill="#f2f5e9" fill-opacity="0.5" stroke="#606060" stroke-width="1.0"/>
           <path id="arrow"
             d="M 11.500037,31.436501 C 11.940474,20.09759 22.043105,11.32322 32.158766,21.979434 L 37.068811,17.246167 C 37.068811,17.246167 37.088388,32 37.088388,32 L 22.160133,31.978069 C 22.160133,31.978069 26.997745,27.140456 26.997745,27.140456 C 18.528582,18.264221 13.291696,25.230495 11.500037,31.436501 z"
             style="fill:#404040;"/>
          </a>
         </g>
        </svg>
</svg>
