<?xml version="1.0" encoding="UTF-8" standalone="no"?>
<!DOCTYPE svg PUBLIC "-//W3C//DTD SVG 1.1//EN"
 "http://www.w3.org/Graphics/SVG/1.1/DTD/svg11.dtd">
<!-- Generated by graphviz version 2.40.1 (20161225.0304)
 -->
<!-- Title: ExamplesMap Pages: 1 -->
<!--zoomable 522 -->
<svg id="main" version="1.1" xmlns="http://www.w3.org/2000/svg" xmlns:xlink="http://www.w3.org/1999/xlink" xml:space="preserve" onload="init(evt)">
<style type="text/css"><![CDATA[
.edge:hover path { stroke: red; }
.edge:hover polygon { stroke: red; fill: red; }
]]></style>
<script type="text/javascript"><![CDATA[
var edges = document.getElementsByTagName('g');
if (edges && edges.length) {
  for (var i=0;i<edges.length;i++) {
    if (edges[i].id.substr(0,4)=='edge') {
      edges[i].setAttribute('class','edge');
    }
  }
}
]]></script>
        <defs>
                <circle id="rim" cx="0" cy="0" r="7"/>
                <circle id="rim2" cx="0" cy="0" r="3.5"/>
                <g id="zoomPlus">
                        <use xlink:href="#rim" fill="#404040">
                                <set attributeName="fill" to="#808080" begin="zoomplus.mouseover" end="zoomplus.mouseout"/>
                        </use>
                        <path d="M-4,0h8M0,-4v8" fill="none" stroke="white" stroke-width="1.5" pointer-events="none"/>
                </g>
                <g id="zoomMin">
                        <use xlink:href="#rim" fill="#404040">
                                <set attributeName="fill" to="#808080" begin="zoomminus.mouseover" end="zoomminus.mouseout"/>
                        </use>
                        <path d="M-4,0h8" fill="none" stroke="white" stroke-width="1.5" pointer-events="none"/>
                </g>
                <g id="dirArrow">
                        <path fill="none" stroke="white" stroke-width="1.5" d="M0,-3.0v7 M-2.5,-0.5L0,-3.0L2.5,-0.5"/>
                </g>
               <g id="resetDef">
                       <use xlink:href="#rim2" fill="#404040">
                               <set attributeName="fill" to="#808080" begin="reset.mouseover" end="reset.mouseout"/>
                       </use>
               </g>
        </defs>

<script type="text/javascript">
var viewWidth = 1651;
var viewHeight = 522;
</script>
<script xlink:href="svgpan.js"/>
<svg id="graph" class="graph">
<g id="viewport">
<title>ExamplesMap</title>
<polygon fill="#ffffff" stroke="transparent" points="-4,4 -4,-518 1647.2018,-518 1647.2018,4 -4,4"/>
<!-- adaptiveprecision_blockjacobi -->
<g id="node1" class="node">
<title>adaptiveprecision_blockjacobi</title>
<g id="a_node1"><a xlink:href="adaptiveprecision_blockjacobi.html" target="_top" xlink:title="Use a preconditioner in Ginkgo. Solve a linear system.">
<polygon fill="#dc143c" stroke="#000000" points="195,-267.5 0,-267.5 0,-246.5 195,-246.5 195,-267.5"/>
<text text-anchor="middle" x="97.5" y="-253.9" font-family="Helvetica,sans-Serif" font-size="12.00" fill="#000000">adaptiveprecision_blockjacobi</text>
</a>
</g>
</g>
<!-- custom_logger -->
<g id="node2" class="node">
<title>custom_logger</title>
<g id="a_node2"><a xlink:href="custom_logger.html" target="_top" xlink:title="Creating a custom logger with Ginkgo">
<polygon fill="#ffd700" stroke="#000000" points="287,-157.5 182,-157.5 182,-136.5 287,-136.5 287,-157.5"/>
<text text-anchor="middle" x="234.5" y="-143.9" font-family="Helvetica,sans-Serif" font-size="12.00" fill="#000000">custom_logger</text>
</a>
</g>
</g>
<!-- custom_matrix_format -->
<g id="node3" class="node">
<title>custom_matrix_format</title>
<g id="a_node3"><a xlink:href="custom_matrix_format.html" target="_top" xlink:title="Create a custom matrix format. Matrix free iterative solve.">
<polygon fill="#ff7f50" stroke="#000000" points="809,-159.5 656,-159.5 656,-134.5 809,-134.5 809,-159.5"/>
<text text-anchor="middle" x="732.5" y="-143.9" font-family="Helvetica,sans-Serif" font-size="12.00" fill="#000000">custom_matrix_format</text>
</a>
</g>
</g>
<!-- custom_stopping_criterion -->
<g id="node4" class="node">
<title>custom_stopping_criterion</title>
<g id="a_node4"><a xlink:href="custom_stopping_criterion.html" target="_top" xlink:title="Create a custom stopping criterion.">
<polygon fill="#00bfff" stroke="#000000" points="666.5,-267.5 492.5,-267.5 492.5,-246.5 666.5,-246.5 666.5,-267.5"/>
<text text-anchor="middle" x="579.5" y="-253.9" font-family="Helvetica,sans-Serif" font-size="12.00" fill="#000000">custom_stopping_criterion</text>
</a>
</g>
</g>
<!-- external_lib_interfacing -->
<g id="node5" class="node">
<title>external_lib_interfacing</title>
<g id="a_node5"><a xlink:href="external_lib_interfacing.html" target="_top" xlink:title="Interface with an external library.">
<polygon fill="#ff7f50" stroke="#000000" points="1048.5,-489.5 892.5,-489.5 892.5,-464.5 1048.5,-464.5 1048.5,-489.5"/>
<text text-anchor="middle" x="970.5" y="-473.9" font-family="Helvetica,sans-Serif" font-size="12.00" fill="#000000">external_lib_interfacing</text>
</a>
</g>
</g>
<!-- ginkgo_overhead -->
<g id="node6" class="node">
<title>ginkgo_overhead</title>
<g id="a_node6"><a xlink:href="ginkgo_overhead.html" target="_top" xlink:title="Measure ginkgo overhead.">
<polygon fill="#ff7f50" stroke="#000000" points="1186,-489.5 1067,-489.5 1067,-464.5 1186,-464.5 1186,-489.5"/>
<text text-anchor="middle" x="1126.5" y="-473.9" font-family="Helvetica,sans-Serif" font-size="12.00" fill="#000000">ginkgo_overhead</text>
</a>
</g>
</g>
<!-- ginkgo_ranges -->
<g id="node7" class="node">
<title>ginkgo_ranges</title>
<g id="a_node7"><a xlink:href="ginkgo_ranges.html" target="_top" xlink:title="Use the ranges concept in ginkgo.">
<polygon fill="#ff7f50" stroke="#000000" points="1308.5,-489.5 1204.5,-489.5 1204.5,-464.5 1308.5,-464.5 1308.5,-489.5"/>
<text text-anchor="middle" x="1256.5" y="-473.9" font-family="Helvetica,sans-Serif" font-size="12.00" fill="#000000">ginkgo_ranges</text>
</a>
</g>
</g>
<!-- ilu_preconditioned_solver -->
<g id="node8" class="node">
<title>ilu_preconditioned_solver</title>
<g id="a_node8"><a xlink:href="ilu_preconditioned_solver.html" target="_top" xlink:title="Generate an incomplete factorization. ">
<polygon fill="#dc143c" stroke="#000000" points="1313.5,-377.5 1145.5,-377.5 1145.5,-356.5 1313.5,-356.5 1313.5,-377.5"/>
<text text-anchor="middle" x="1229.5" y="-363.9" font-family="Helvetica,sans-Serif" font-size="12.00" fill="#000000">ilu_preconditioned_solver</text>
</a>
</g>
</g>
<!-- inverse_iteration -->
<g id="node9" class="node">
<title>inverse_iteration</title>
<g id="a_node9"><a xlink:href="inverse_iteration.html" target="_top" xlink:title="Compute eigenvalues with inverse iteration method.">
<polygon fill="#ff7f50" stroke="#000000" points="1447.5,-379.5 1331.5,-379.5 1331.5,-354.5 1447.5,-354.5 1447.5,-379.5"/>
<text text-anchor="middle" x="1389.5" y="-363.9" font-family="Helvetica,sans-Serif" font-size="12.00" fill="#000000">inverse_iteration</text>
</a>
</g>
</g>
<!-- iterative_refinement -->
<g id="node10" class="node">
<title>iterative_refinement</title>
<g id="a_node10"><a xlink:href="iterative_refinement.html" target="_top" xlink:title="Use an iterative refinement method in Ginkgo. Solve a linear system.">
<polygon fill="#228b22" stroke="#000000" points="1635.3858,-354.9878 1635.3858,-379.0122 1588.004,-396 1520.996,-396 1473.6142,-379.0122 1473.6142,-354.9878 1520.996,-338 1588.004,-338 1635.3858,-354.9878"/>
<polygon fill="none" stroke="#000000" points="1639.3949,-352.1748 1639.3949,-381.8252 1588.7024,-400 1520.2976,-400 1469.6051,-381.8252 1469.6051,-352.1748 1520.2976,-334 1588.7024,-334 1639.3949,-352.1748"/>
<polygon fill="none" stroke="#000000" points="1643.404,-349.3617 1643.404,-384.6383 1589.4009,-404 1519.5991,-404 1465.596,-384.6383 1465.596,-349.3617 1519.5991,-330 1589.4009,-330 1643.404,-349.3617"/>
<text text-anchor="middle" x="1554.5" y="-363.9" font-family="Helvetica,sans-Serif" font-size="12.00" fill="#000000">iterative_refinement</text>
</a>
</g>
</g>
<!-- mixed_precision_ir -->
<g id="node12" class="node">
<title>mixed_precision_ir</title>
<g id="a_node12"><a xlink:href="mixed_precision_ir.html" target="_top" xlink:title="Manually implement a Mixed Precision Iterative Refinement (MPIR) method in Ginkgo. Solve a linear system.">
<polygon fill="#ff7f50" stroke="#000000" points="1618.5,-269.5 1490.5,-269.5 1490.5,-244.5 1618.5,-244.5 1618.5,-269.5"/>
<text text-anchor="middle" x="1554.5" y="-253.9" font-family="Helvetica,sans-Serif" font-size="12.00" fill="#000000">mixed_precision_ir</text>
</a>
</g>
</g>
<!-- iterative_refinement&#45;&gt;mixed_precision_ir -->
<g id="edge14" class="edge">
<title>iterative_refinement&#45;&gt;mixed_precision_ir</title>
<path fill="none" stroke="#000000" d="M1554.5,-329.759C1554.5,-313.1701 1554.5,-294.1665 1554.5,-279.7416"/>
<polygon fill="#000000" stroke="#000000" points="1558.0001,-279.7191 1554.5,-269.7191 1551.0001,-279.7192 1558.0001,-279.7191"/>
</g>
<!-- minimal_cuda_solver -->
<g id="node11" class="node">
<title>minimal_cuda_solver</title>
<g id="a_node11"><a xlink:href="minimal_cuda_solver.html" target="_top" xlink:title="Use the CUDA executor. Solve a linear system.">
<polygon fill="#228b22" stroke="#000000" points="562.8921,-354.9878 562.8921,-379.0122 514.6279,-396 446.3721,-396 398.1079,-379.0122 398.1079,-354.9878 446.3721,-338 514.6279,-338 562.8921,-354.9878"/>
<polygon fill="none" stroke="#000000" points="566.8896,-352.1546 566.8896,-381.8454 515.3105,-400 445.6895,-400 394.1104,-381.8454 394.1104,-352.1546 445.6895,-334 515.3105,-334 566.8896,-352.1546"/>
<polygon fill="none" stroke="#000000" points="570.8871,-349.3214 570.8871,-384.6786 515.9931,-404 445.0069,-404 390.1129,-384.6786 390.1129,-349.3214 445.0069,-330 515.9931,-330 570.8871,-349.3214"/>
<text text-anchor="middle" x="480.5" y="-363.9" font-family="Helvetica,sans-Serif" font-size="12.00" fill="#000000">minimal_cuda_solver</text>
</a>
</g>
</g>
<!-- minimal_cuda_solver&#45;&gt;custom_logger -->
<g id="edge4" class="edge">
<title>minimal_cuda_solver&#45;&gt;custom_logger</title>
<path fill="none" stroke="#000000" d="M389.9732,-352.7225C351.3197,-342.3608 308.522,-324.5506 279.5,-294 246.1017,-258.8426 237.4437,-199.5452 235.2314,-168.0816"/>
<polygon fill="#000000" stroke="#000000" points="238.7126,-167.6403 234.6741,-157.8454 231.723,-168.0209 238.7126,-167.6403"/>
</g>
<!-- minimal_cuda_solver&#45;&gt;custom_stopping_criterion -->
<g id="edge9" class="edge">
<title>minimal_cuda_solver&#45;&gt;custom_stopping_criterion</title>
<path fill="none" stroke="#000000" d="M514.0169,-329.759C530.4878,-311.458 549.6035,-290.2183 562.9135,-275.4294"/>
<polygon fill="#000000" stroke="#000000" points="565.5688,-277.7111 569.657,-267.9367 560.3657,-273.0283 565.5688,-277.7111"/>
</g>
<!-- performance_debugging -->
<g id="node15" class="node">
<title>performance_debugging</title>
<g id="a_node15"><a xlink:href="performance_debugging.html" target="_top" xlink:title="Logging to debug performance within Ginkgo.">
<polygon fill="#ffd700" stroke="#000000" points="579.5,-157.5 415.5,-157.5 415.5,-136.5 579.5,-136.5 579.5,-157.5"/>
<text text-anchor="middle" x="497.5" y="-143.9" font-family="Helvetica,sans-Serif" font-size="12.00" fill="#000000">performance_debugging</text>
</a>
</g>
</g>
<!-- minimal_cuda_solver&#45;&gt;performance_debugging -->
<g id="edge20" class="edge">
<title>minimal_cuda_solver&#45;&gt;performance_debugging</title>
<path fill="none" stroke="#000000" d="M479.527,-329.7361C479.1665,-299.9557 479.5828,-257.1901 483.5,-220 485.3743,-202.2054 489.3253,-182.2717 492.5535,-167.7362"/>
<polygon fill="#000000" stroke="#000000" points="496.0088,-168.3276 494.835,-157.798 489.1862,-166.7613 496.0088,-168.3276"/>
</g>
<!-- simple_solver_logging -->
<g id="node19" class="node">
<title>simple_solver_logging</title>
<g id="a_node19"><a xlink:href="simple_solver_logging.html" target="_top" xlink:title="Logging within Ginkgo.">
<polygon fill="#ffd700" stroke="#000000" points="436,-267.5 289,-267.5 289,-246.5 436,-246.5 436,-267.5"/>
<text text-anchor="middle" x="362.5" y="-253.9" font-family="Helvetica,sans-Serif" font-size="12.00" fill="#000000">simple_solver_logging</text>
</a>
</g>
</g>
<!-- minimal_cuda_solver&#45;&gt;simple_solver_logging -->
<g id="edge24" class="edge">
<title>minimal_cuda_solver&#45;&gt;simple_solver_logging</title>
<path fill="none" stroke="#000000" d="M441.8624,-330.9819C421.7149,-312.2003 397.9565,-290.0527 381.7208,-274.9177"/>
<polygon fill="#000000" stroke="#000000" points="383.6766,-271.956 373.9753,-267.6973 378.9034,-277.0763 383.6766,-271.956"/>
</g>
<!-- nine_pt_stencil_solver -->
<g id="node13" class="node">
<title>nine_pt_stencil_solver</title>
<g id="a_node13"><a xlink:href="nine_pt_stencil_solver.html" target="_top" xlink:title="Use array views to generate a nine point 2D stencil matrix. Solve a linear system.">
<polygon fill="#228b22" stroke="#000000" points="1103.0525,-134.9878 1103.0525,-159.0122 1053.5228,-176 983.4772,-176 933.9475,-159.0122 933.9475,-134.9878 983.4772,-118 1053.5228,-118 1103.0525,-134.9878"/>
<polygon fill="none" stroke="#000000" points="1107.0424,-132.1287 1107.0424,-161.8713 1054.1864,-180 982.8136,-180 929.9576,-161.8713 929.9576,-132.1287 982.8136,-114 1054.1864,-114 1107.0424,-132.1287"/>
<polygon fill="none" stroke="#000000" points="1111.0324,-129.2695 1111.0324,-164.7305 1054.8501,-184 982.1499,-184 925.9676,-164.7305 925.9676,-129.2695 982.1499,-110 1054.8501,-110 1111.0324,-129.2695"/>
<text text-anchor="middle" x="1018.5" y="-143.9" font-family="Helvetica,sans-Serif" font-size="12.00" fill="#000000">nine_pt_stencil_solver</text>
</a>
</g>
</g>
<!-- twentyseven_pt_stencil_solver -->
<g id="node21" class="node">
<title>twentyseven_pt_stencil_solver</title>
<g id="a_node21"><a xlink:href="twentyseven_pt_stencil_solver.html" target="_top" xlink:title="Use array views to generate twentyseven point 3D stencil matrix. Solve a linear system.">
<polygon fill="#228b22" stroke="#000000" points="1071.76,-24.9878 1071.76,-49.0122 1004.828,-66 910.172,-66 843.24,-49.0122 843.24,-24.9878 910.172,-8 1004.828,-8 1071.76,-24.9878"/>
<polygon fill="none" stroke="#000000" points="1075.756,-21.8754 1075.756,-52.1246 1005.3267,-70 909.6733,-70 839.244,-52.1246 839.244,-21.8754 909.6733,-4 1005.3267,-4 1075.756,-21.8754"/>
<polygon fill="none" stroke="#000000" points="1079.7519,-18.7631 1079.7519,-55.2369 1005.8254,-74 909.1746,-74 835.2481,-55.2369 835.2481,-18.7631 909.1746,0 1005.8254,0 1079.7519,-18.7631"/>
<text text-anchor="middle" x="957.5" y="-33.9" font-family="Helvetica,sans-Serif" font-size="12.00" fill="#000000">twentyseven_pt_stencil_solver</text>
</a>
</g>
</g>
<!-- nine_pt_stencil_solver&#45;&gt;twentyseven_pt_stencil_solver -->
<g id="edge29" class="edge">
<title>nine_pt_stencil_solver&#45;&gt;twentyseven_pt_stencil_solver</title>
<path fill="none" stroke="#000000" d="M997.8482,-109.759C993.0784,-101.1578 987.9487,-91.9074 982.9995,-82.9827"/>
<polygon fill="#000000" stroke="#000000" points="986.0411,-81.2506 978.1305,-74.2026 979.9194,-84.6454 986.0411,-81.2506"/>
</g>
<!-- papi_logging -->
<g id="node14" class="node">
<title>papi_logging</title>
<g id="a_node14"><a xlink:href="papi_logging.html" target="_top" xlink:title="Logging with PAPI.">
<polygon fill="#ffd700" stroke="#000000" points="397.5,-157.5 305.5,-157.5 305.5,-136.5 397.5,-136.5 397.5,-157.5"/>
<text text-anchor="middle" x="351.5" y="-143.9" font-family="Helvetica,sans-Serif" font-size="12.00" fill="#000000">papi_logging</text>
</a>
</g>
</g>
<!-- poisson_solver -->
<g id="node16" class="node">
<title>poisson_solver</title>
<g id="a_node16"><a xlink:href="poisson_solver.html" target="_top" xlink:title="Solve the poisson problem. Generate the matrix within Ginkgo.">
<polygon fill="#228b22" stroke="#000000" points="965.7764,-354.9878 965.7764,-379.0122 930.4673,-396 880.5327,-396 845.2236,-379.0122 845.2236,-354.9878 880.5327,-338 930.4673,-338 965.7764,-354.9878"/>
<polygon fill="none" stroke="#000000" points="969.7695,-352.4715 969.7695,-381.5285 931.3765,-400 879.6235,-400 841.2305,-381.5285 841.2305,-352.4715 879.6235,-334 931.3765,-334 969.7695,-352.4715"/>
<polygon fill="none" stroke="#000000" points="973.7626,-349.9552 973.7626,-384.0448 932.2857,-404 878.7143,-404 837.2374,-384.0448 837.2374,-349.9552 878.7143,-330 932.2857,-330 973.7626,-349.9552"/>
<text text-anchor="middle" x="905.5" y="-363.9" font-family="Helvetica,sans-Serif" font-size="12.00" fill="#000000">poisson_solver</text>
</a>
</g>
</g>
<!-- poisson_solver&#45;&gt;custom_matrix_format -->
<g id="edge6" class="edge">
<title>poisson_solver&#45;&gt;custom_matrix_format</title>
<path fill="none" stroke="#000000" d="M836.9908,-350.7158C806.0544,-339.8114 771.9354,-322.1256 751.5,-294 724.8262,-257.2884 725.8849,-201.4017 729.1263,-170.177"/>
<polygon fill="#000000" stroke="#000000" points="732.6468,-170.2179 730.3719,-159.8701 725.6973,-169.3779 732.6468,-170.2179"/>
</g>
<!-- poisson_solver&#45;&gt;nine_pt_stencil_solver -->
<g id="edge17" class="edge">
<title>poisson_solver&#45;&gt;nine_pt_stencil_solver</title>
<path fill="none" stroke="#000000" d="M952.546,-339.6695C969.0172,-327.7346 986.0038,-312.2625 996.5,-294 1013.8112,-263.8798 1018.9992,-224.7854 1020.0273,-194.4855"/>
<polygon fill="#000000" stroke="#000000" points="1023.5329,-194.231 1020.2306,-184.164 1016.5343,-194.0931 1023.5329,-194.231"/>
</g>
<!-- three_pt_stencil_solver -->
<g id="node20" class="node">
<title>three_pt_stencil_solver</title>
<g id="a_node20"><a xlink:href="three_pt_stencil_solver.html" target="_top" xlink:title="Use array views to generate stencil matrix. Solve a linear system.">
<polygon fill="#228b22" stroke="#000000" points="946.1743,-244.9878 946.1743,-269.0122 894.2301,-286 820.7699,-286 768.8257,-269.0122 768.8257,-244.9878 820.7699,-228 894.2301,-228 946.1743,-244.9878"/>
<polygon fill="none" stroke="#000000" points="950.1673,-242.0859 950.1673,-271.9141 894.8654,-290 820.1346,-290 764.8327,-271.9141 764.8327,-242.0859 820.1346,-224 894.8654,-224 950.1673,-242.0859"/>
<polygon fill="none" stroke="#000000" points="954.1603,-239.184 954.1603,-274.816 895.5007,-294 819.4993,-294 760.8397,-274.816 760.8397,-239.184 819.4993,-220 895.5007,-220 954.1603,-239.184"/>
<text text-anchor="middle" x="857.5" y="-253.9" font-family="Helvetica,sans-Serif" font-size="12.00" fill="#000000">three_pt_stencil_solver</text>
</a>
</g>
</g>
<!-- poisson_solver&#45;&gt;three_pt_stencil_solver -->
<g id="edge26" class="edge">
<title>poisson_solver&#45;&gt;three_pt_stencil_solver</title>
<path fill="none" stroke="#000000" d="M889.2494,-329.759C885.5743,-321.337 881.6277,-312.2926 877.8088,-303.5409"/>
<polygon fill="#000000" stroke="#000000" points="880.9413,-301.9682 873.7339,-294.2026 874.5255,-304.7679 880.9413,-301.9682"/>
</g>
<!-- poisson_solver&#45;&gt;twentyseven_pt_stencil_solver -->
<g id="edge28" class="edge">
<title>poisson_solver&#45;&gt;twentyseven_pt_stencil_solver</title>
<path fill="none" stroke="#000000" d="M939.7612,-333.5581C949.3362,-322.0247 958.4876,-308.3663 963.5,-294 974.3345,-262.9469 978.0591,-249.4909 963.5,-220 951.8521,-196.4061 928.1479,-207.5939 916.5,-184 901.9409,-154.5091 908.1763,-141.8181 916.5,-110 918.9027,-100.8154 922.7481,-91.5658 927.1437,-82.8821"/>
<polygon fill="#000000" stroke="#000000" points="930.232,-84.529 931.886,-74.064 924.067,-81.2134 930.232,-84.529"/>
</g>
<!-- preconditioned_solver -->
<g id="node17" class="node">
<title>preconditioned_solver</title>
<g id="a_node17"><a xlink:href="preconditioned_solver.html" target="_top" xlink:title="Use a preconditioner in Ginkgo. Solve a linear system.">
<polygon fill="#dc143c" stroke="#000000" points="184,-377.5 35,-377.5 35,-356.5 184,-356.5 184,-377.5"/>
<text text-anchor="middle" x="109.5" y="-363.9" font-family="Helvetica,sans-Serif" font-size="12.00" fill="#000000">preconditioned_solver</text>
</a>
</g>
</g>
<!-- preconditioned_solver&#45;&gt;adaptiveprecision_blockjacobi -->
<g id="edge1" class="edge">
<title>preconditioned_solver&#45;&gt;adaptiveprecision_blockjacobi</title>
<path fill="none" stroke="#000000" d="M108.3494,-356.4527C106.3744,-338.3482 102.3054,-301.0498 99.7504,-277.6289"/>
<polygon fill="#000000" stroke="#000000" points="103.2287,-277.2384 98.6648,-267.677 96.27,-277.9976 103.2287,-277.2384"/>
</g>
<!-- simple_solver -->
<g id="node18" class="node">
<title>simple_solver</title>
<g id="a_node18"><a xlink:href="simple_solver.html" target="_top" xlink:title="Solve a simple linear system with CG. Read a matrix and right hand side from a file.">
<polygon fill="#228b22" stroke="#000000" points="866.3081,-464.9878 866.3081,-489.0122 833.0307,-506 785.9693,-506 752.6919,-489.0122 752.6919,-464.9878 785.9693,-448 833.0307,-448 866.3081,-464.9878"/>
<polygon fill="none" stroke="#000000" points="870.3018,-462.537 870.3018,-491.463 833.9897,-510 785.0103,-510 748.6982,-491.463 748.6982,-462.537 785.0103,-444 833.9897,-444 870.3018,-462.537"/>
<polygon fill="none" stroke="#000000" points="874.2955,-460.0861 874.2955,-493.9139 834.9488,-514 784.0512,-514 744.7045,-493.9139 744.7045,-460.0861 784.0512,-440 834.9488,-440 874.2955,-460.0861"/>
<text text-anchor="middle" x="809.5" y="-473.9" font-family="Helvetica,sans-Serif" font-size="12.00" fill="#000000">simple_solver</text>
</a>
</g>
</g>
<!-- simple_solver&#45;&gt;custom_logger -->
<g id="edge2" class="edge">
<title>simple_solver&#45;&gt;custom_logger</title>
<path fill="none" stroke="#000000" d="M744.4628,-471.5401C634.9744,-461.5419 419.1644,-438.1353 351.5,-404 289.2072,-372.5746 267.58,-357.8707 239.5,-294 221.092,-252.1292 225.9955,-196.887 230.6011,-167.4824"/>
<polygon fill="#000000" stroke="#000000" points="234.0621,-168.0073 232.3025,-157.5597 227.1628,-166.8243 234.0621,-168.0073"/>
</g>
<!-- simple_solver&#45;&gt;custom_matrix_format -->
<g id="edge5" class="edge">
<title>simple_solver&#45;&gt;custom_matrix_format</title>
<path fill="none" stroke="#000000" d="M786.3192,-439.8154C765.459,-404.0043 736.3257,-347.5325 724.5,-294 714.9672,-250.847 721.9615,-198.9254 727.5061,-169.767"/>
<polygon fill="#000000" stroke="#000000" points="730.9757,-170.2668 729.5226,-159.7721 724.1139,-168.8823 730.9757,-170.2668"/>
</g>
<!-- simple_solver&#45;&gt;custom_stopping_criterion -->
<g id="edge8" class="edge">
<title>simple_solver&#45;&gt;custom_stopping_criterion</title>
<path fill="none" stroke="#000000" d="M756.6542,-453.9583C731.7948,-441.4846 702.7903,-424.43 680.5,-404 638.8679,-365.8424 605.2923,-307.4428 589.4246,-277.0107"/>
<polygon fill="#000000" stroke="#000000" points="592.4021,-275.1454 584.7362,-267.8321 586.1682,-278.3297 592.4021,-275.1454"/>
</g>
<!-- simple_solver&#45;&gt;ilu_preconditioned_solver -->
<g id="edge10" class="edge">
<title>simple_solver&#45;&gt;ilu_preconditioned_solver</title>
<path fill="none" stroke="#000000" d="M856.3323,-450.7977C865.1544,-446.6702 874.4544,-442.8368 883.5,-440 989.7737,-406.6709 1023.6564,-431.8335 1131.5,-404 1153.693,-398.2722 1177.7864,-389.2164 1196.5303,-381.4978"/>
<polygon fill="#000000" stroke="#000000" points="1197.9376,-384.7029 1205.8061,-377.608 1195.2305,-378.2476 1197.9376,-384.7029"/>
</g>
<!-- simple_solver&#45;&gt;inverse_iteration -->
<g id="edge11" class="edge">
<title>simple_solver&#45;&gt;inverse_iteration</title>
<path fill="none" stroke="#000000" d="M855.7922,-450.5154C864.7466,-446.362 874.2321,-442.5923 883.5,-440 1072.0301,-387.2673 1135.088,-460.578 1322.5,-404 1336.6916,-399.7157 1351.2383,-392.1387 1363.1354,-384.9525"/>
<polygon fill="#000000" stroke="#000000" points="1365.06,-387.8768 1371.6669,-379.5944 1361.337,-381.949 1365.06,-387.8768"/>
</g>
<!-- simple_solver&#45;&gt;iterative_refinement -->
<g id="edge12" class="edge">
<title>simple_solver&#45;&gt;iterative_refinement</title>
<path fill="none" stroke="#000000" d="M855.7525,-450.3706C864.7107,-446.2313 874.2078,-442.5038 883.5,-440 1129.8816,-373.6132 1207.0372,-457.6603 1456.5,-404 1464.7424,-402.227 1473.2134,-399.8828 1481.5599,-397.2324"/>
<polygon fill="#000000" stroke="#000000" points="1482.8973,-400.4761 1491.2796,-393.9962 1480.686,-393.8345 1482.8973,-400.4761"/>
</g>
<!-- simple_solver&#45;&gt;minimal_cuda_solver -->
<g id="edge13" class="edge">
<title>simple_solver&#45;&gt;minimal_cuda_solver</title>
<path fill="none" stroke="#000000" d="M750.3014,-457.2072C697.8152,-439.6586 620.6553,-413.8604 562.2813,-394.3433"/>
<polygon fill="#000000" stroke="#000000" points="563.3082,-390.9962 552.7144,-391.1446 561.0885,-397.635 563.3082,-390.9962"/>
</g>
<!-- simple_solver&#45;&gt;nine_pt_stencil_solver -->
<g id="edge15" class="edge">
<title>simple_solver&#45;&gt;nine_pt_stencil_solver</title>
<path fill="none" stroke="#000000" d="M858.0868,-451.7163C866.4844,-447.6321 875.1873,-443.5756 883.5,-440 926.5089,-421.5005 949.5277,-437.2389 982.5,-404 1036.9764,-349.0832 1034.5742,-252.2304 1027.0835,-194.3935"/>
<polygon fill="#000000" stroke="#000000" points="1030.5396,-193.8352 1025.6904,-184.4152 1023.6068,-194.8031 1030.5396,-193.8352"/>
</g>
<!-- simple_solver&#45;&gt;poisson_solver -->
<g id="edge21" class="edge">
<title>simple_solver&#45;&gt;poisson_solver</title>
<path fill="none" stroke="#000000" d="M839.875,-442.1953C848.804,-431.9642 858.6778,-420.6504 867.9967,-409.9725"/>
<polygon fill="#000000" stroke="#000000" points="870.7244,-412.17 874.6627,-402.3344 865.4504,-407.5672 870.7244,-412.17"/>
</g>
<!-- simple_solver&#45;&gt;preconditioned_solver -->
<g id="edge22" class="edge">
<title>simple_solver&#45;&gt;preconditioned_solver</title>
<path fill="none" stroke="#000000" d="M744.5615,-474.1491C633.3634,-468.1549 399.9616,-450.7053 208.5,-404 185.882,-398.4825 161.3647,-389.3451 142.3871,-381.5316"/>
<polygon fill="#000000" stroke="#000000" points="143.5826,-378.2375 133.0074,-377.5924 140.8721,-384.6915 143.5826,-378.2375"/>
</g>
<!-- simple_solver&#45;&gt;simple_solver_logging -->
<g id="edge23" class="edge">
<title>simple_solver&#45;&gt;simple_solver_logging</title>
<path fill="none" stroke="#000000" d="M744.4816,-475.0648C637.293,-470.4363 430.45,-454.9685 381.5,-404 348.813,-369.9651 353.2057,-309.2616 358.3283,-277.5602"/>
<polygon fill="#000000" stroke="#000000" points="361.7856,-278.1094 360.111,-267.6478 354.8961,-276.8703 361.7856,-278.1094"/>
</g>
<!-- simple_solver&#45;&gt;three_pt_stencil_solver -->
<g id="edge25" class="edge">
<title>simple_solver&#45;&gt;three_pt_stencil_solver</title>
<path fill="none" stroke="#000000" d="M811.7192,-439.9674C814.1284,-409.9472 818.9866,-366.7448 828.5,-330 830.735,-321.3673 833.7204,-312.3818 836.9269,-303.787"/>
<polygon fill="#000000" stroke="#000000" points="840.2579,-304.8777 840.613,-294.2888 833.7321,-302.3451 840.2579,-304.8777"/>
</g>
<!-- simple_solver&#45;&gt;twentyseven_pt_stencil_solver -->
<g id="edge27" class="edge">
<title>simple_solver&#45;&gt;twentyseven_pt_stencil_solver</title>
<path fill="none" stroke="#000000" d="M857.4411,-451.3039C865.9893,-447.2216 874.9096,-443.2727 883.5,-440 940.726,-418.1985 969.5353,-443.2994 1016.5,-404 1099.4441,-334.5935 1096.8139,-289.527 1120.5,-184 1127.7029,-151.9095 1138.3824,-137.6025 1120.5,-110 1107.7397,-90.3038 1088.2767,-75.8731 1067.1896,-65.316"/>
<polygon fill="#000000" stroke="#000000" points="1068.6063,-62.1145 1058.0677,-61.0246 1065.6264,-68.4486 1068.6063,-62.1145"/>
</g>
<!-- simple_solver_logging&#45;&gt;custom_logger -->
<g id="edge3" class="edge">
<title>simple_solver_logging&#45;&gt;custom_logger</title>
<path fill="none" stroke="#000000" d="M350.2268,-246.4527C328.1112,-227.4471 281.3821,-187.2893 254.5598,-164.2389"/>
<polygon fill="#000000" stroke="#000000" points="256.7895,-161.5402 246.9241,-157.677 252.2271,-166.8491 256.7895,-161.5402"/>
</g>
<!-- simple_solver_logging&#45;&gt;papi_logging -->
<g id="edge18" class="edge">
<title>simple_solver_logging&#45;&gt;papi_logging</title>
<path fill="none" stroke="#000000" d="M361.4453,-246.4527C359.6348,-228.3482 355.905,-191.0498 353.5629,-167.6289"/>
<polygon fill="#000000" stroke="#000000" points="357.0455,-167.279 352.5677,-157.677 350.0802,-167.9756 357.0455,-167.279"/>
</g>
<!-- simple_solver_logging&#45;&gt;performance_debugging -->
<g id="edge19" class="edge">
<title>simple_solver_logging&#45;&gt;performance_debugging</title>
<path fill="none" stroke="#000000" d="M375.4444,-246.4527C398.7695,-227.4471 448.0541,-187.2893 476.3431,-164.2389"/>
<polygon fill="#000000" stroke="#000000" points="478.855,-166.7071 484.3965,-157.677 474.4332,-161.2804 478.855,-166.7071"/>
</g>
<!-- three_pt_stencil_solver&#45;&gt;custom_matrix_format -->
<g id="edge7" class="edge">
<title>three_pt_stencil_solver&#45;&gt;custom_matrix_format</title>
<path fill="none" stroke="#000000" d="M816.2239,-220.677C795.6901,-202.6073 771.6881,-181.4855 754.6606,-166.5013"/>
<polygon fill="#000000" stroke="#000000" points="756.7271,-163.6576 746.9077,-159.6788 752.1027,-168.9126 756.7271,-163.6576"/>
</g>
<!-- three_pt_stencil_solver&#45;&gt;nine_pt_stencil_solver -->
<g id="edge16" class="edge">
<title>three_pt_stencil_solver&#45;&gt;nine_pt_stencil_solver</title>
<path fill="none" stroke="#000000" d="M906.6801,-223.3987C924.0047,-211.562 943.6222,-198.1587 961.5351,-185.9201"/>
<polygon fill="#000000" stroke="#000000" points="963.8918,-188.5489 970.1742,-180.0176 959.9429,-182.7691 963.8918,-188.5489"/>
</g>
<!-- three_pt_stencil_solver&#45;&gt;twentyseven_pt_stencil_solver -->
<g id="edge30" class="edge">
<title>three_pt_stencil_solver&#45;&gt;twentyseven_pt_stencil_solver</title>
<path fill="none" stroke="#000000" d="M857.8837,-219.9647C859.6037,-188.9699 865.4231,-144.4169 883.5,-110 888.822,-99.8673 896.0489,-90.2747 903.9102,-81.5766"/>
<polygon fill="#000000" stroke="#000000" points="906.5963,-83.8309 910.9499,-74.1719 901.5231,-79.0077 906.5963,-83.8309"/>
</g>
</g>
</svg>
        <g id="navigator" transform="translate(0 0)" fill="#404254">
                <rect fill="#f2f5e9" fill-opacity="0.5" stroke="#606060" stroke-width=".5" x="0" y="0" width="60" height="60"/>
                <use id="zoomplus" xlink:href="#zoomPlus" x="17" y="9" onmousedown="handleZoom(evt,'in')"/>
                <use id="zoomminus" xlink:href="#zoomMin" x="42" y="9" onmousedown="handleZoom(evt,'out')"/>
                <use id="reset" xlink:href="#resetDef" x="30" y="36" onmousedown="handleReset()"/>
                <g id="arrowUp" xlink:href="#dirArrow" transform="translate(30 24)" onmousedown="handlePan(0,-1)">
                  <use xlink:href="#rim" fill="#404040">
                        <set attributeName="fill" to="#808080" begin="arrowUp.mouseover" end="arrowUp.mouseout"/>
                  </use>
                  <path fill="none" stroke="white" stroke-width="1.5" d="M0,-3.0v7 M-2.5,-0.5L0,-3.0L2.5,-0.5"/>
                </g>
                <g id="arrowRight" xlink:href="#dirArrow" transform="rotate(90) translate(36 -43)" onmousedown="handlePan(1,0)">
                  <use xlink:href="#rim" fill="#404040">
                        <set attributeName="fill" to="#808080" begin="arrowRight.mouseover" end="arrowRight.mouseout"/>
                  </use>
                  <path fill="none" stroke="white" stroke-width="1.5" d="M0,-3.0v7 M-2.5,-0.5L0,-3.0L2.5,-0.5"/>
                </g>
                <g id="arrowDown" xlink:href="#dirArrow" transform="rotate(180) translate(-30 -48)" onmousedown="handlePan(0,1)">
                  <use xlink:href="#rim" fill="#404040">
                        <set attributeName="fill" to="#808080" begin="arrowDown.mouseover" end="arrowDown.mouseout"/>
                  </use>
                  <path fill="none" stroke="white" stroke-width="1.5" d="M0,-3.0v7 M-2.5,-0.5L0,-3.0L2.5,-0.5"/>
                </g>
                <g id="arrowLeft" xlink:href="#dirArrow" transform="rotate(270) translate(-36 17)" onmousedown="handlePan(-1,0)">
                  <use xlink:href="#rim" fill="#404040">
                        <set attributeName="fill" to="#808080" begin="arrowLeft.mouseover" end="arrowLeft.mouseout"/>
                  </use>
                  <path fill="none" stroke="white" stroke-width="1.5" d="M0,-3.0v7 M-2.5,-0.5L0,-3.0L2.5,-0.5"/>
                </g>
        </g>
        <svg viewBox="0 0 15 15" width="100%" height="30px" preserveAspectRatio="xMaxYMin meet">
         <g id="arrow_out" transform="scale(0.3 0.3)">
          <a xlink:href="dot_inline_dotgraph_1_org.svg" target="_base">
           <rect id="button" ry="5" rx="5" y="6" x="6" height="38" width="38"
                fill="#f2f5e9" fill-opacity="0.5" stroke="#606060" stroke-width="1.0"/>
           <path id="arrow"
             d="M 11.500037,31.436501 C 11.940474,20.09759 22.043105,11.32322 32.158766,21.979434 L 37.068811,17.246167 C 37.068811,17.246167 37.088388,32 37.088388,32 L 22.160133,31.978069 C 22.160133,31.978069 26.997745,27.140456 26.997745,27.140456 C 18.528582,18.264221 13.291696,25.230495 11.500037,31.436501 z"
             style="fill:#404040;"/>
          </a>
         </g>
        </svg>
</svg>
