<?xml version="1.0" encoding="UTF-8" standalone="no"?>
<!DOCTYPE svg PUBLIC "-//W3C//DTD SVG 1.1//EN"
 "http://www.w3.org/Graphics/SVG/1.1/DTD/svg11.dtd">
<!-- Generated by graphviz version 2.40.1 (20161225.0304)
 -->
<!-- Title: ExamplesMap Pages: 1 -->
<svg width="941pt" height="363pt"
 viewBox="0.00 0.00 940.50 363.00" xmlns="http://www.w3.org/2000/svg" xmlns:xlink="http://www.w3.org/1999/xlink">
<g id="graph0" class="graph" transform="scale(1 1) rotate(0) translate(4 359)">
<title>ExamplesMap</title>
<polygon fill="#ffffff" stroke="transparent" points="-4,4 -4,-359 936.5,-359 936.5,4 -4,4"/>
<!-- custom_matrix_format -->
<g id="node1" class="node">
<title>custom_matrix_format</title>
<g id="a_node1"><a xlink:href="custom_matrix_format.html" target="_top" xlink:title="Create a custom matrix format. Matrix free iterative solve.">
<polygon fill="#ff7f50" stroke="#000000" points="718,-25 565,-25 565,0 718,0 718,-25"/>
<text text-anchor="middle" x="641.5" y="-9.4" font-family="Helvetica,sans-Serif" font-size="12.00" fill="#000000">custom_matrix_format</text>
</a>
</g>
</g>
<!-- custom_stopping_criterion -->
<g id="node2" class="node">
<title>custom_stopping_criterion</title>
<g id="a_node2"><a xlink:href="custom_stopping_criterion.html" target="_top" xlink:title="Create a custom stopping criterion.">
<polygon fill="#00bfff" stroke="#000000" points="396.5,-108.5 222.5,-108.5 222.5,-87.5 396.5,-87.5 396.5,-108.5"/>
<text text-anchor="middle" x="309.5" y="-94.9" font-family="Helvetica,sans-Serif" font-size="12.00" fill="#000000">custom_stopping_criterion</text>
</a>
</g>
</g>
<!-- external_lib_interfacing -->
<g id="node3" class="node">
<title>external_lib_interfacing</title>
<g id="a_node3"><a xlink:href="external_lib_interfacing.html" target="_top" xlink:title="Interface with an external library.">
<polygon fill="#ff7f50" stroke="#000000" points="672.5,-330.5 516.5,-330.5 516.5,-305.5 672.5,-305.5 672.5,-330.5"/>
<text text-anchor="middle" x="594.5" y="-314.9" font-family="Helvetica,sans-Serif" font-size="12.00" fill="#000000">external_lib_interfacing</text>
</a>
</g>
</g>
<!-- ginkgo_overhead -->
<g id="node4" class="node">
<title>ginkgo_overhead</title>
<g id="a_node4"><a xlink:href="ginkgo_overhead.html" target="_top" xlink:title="Measure ginkgo overhead.">
<polygon fill="#ff7f50" stroke="#000000" points="810,-330.5 691,-330.5 691,-305.5 810,-305.5 810,-330.5"/>
<text text-anchor="middle" x="750.5" y="-314.9" font-family="Helvetica,sans-Serif" font-size="12.00" fill="#000000">ginkgo_overhead</text>
</a>
</g>
</g>
<!-- ginkgo_ranges -->
<g id="node5" class="node">
<title>ginkgo_ranges</title>
<g id="a_node5"><a xlink:href="ginkgo_ranges.html" target="_top" xlink:title="Use the ranges concept in ginkgo.">
<polygon fill="#ff7f50" stroke="#000000" points="932.5,-330.5 828.5,-330.5 828.5,-305.5 932.5,-305.5 932.5,-330.5"/>
<text text-anchor="middle" x="880.5" y="-314.9" font-family="Helvetica,sans-Serif" font-size="12.00" fill="#000000">ginkgo_ranges</text>
</a>
</g>
</g>
<!-- inverse_iteration -->
<g id="node6" class="node">
<title>inverse_iteration</title>
<g id="a_node6"><a xlink:href="inverse_iteration.html" target="_top" xlink:title="Compute eigenvalues with inverse iteration method.">
<polygon fill="#ff7f50" stroke="#000000" points="386.5,-220.5 270.5,-220.5 270.5,-195.5 386.5,-195.5 386.5,-220.5"/>
<text text-anchor="middle" x="328.5" y="-204.9" font-family="Helvetica,sans-Serif" font-size="12.00" fill="#000000">inverse_iteration</text>
</a>
</g>
</g>
<!-- minimal_cuda_solver -->
<g id="node7" class="node">
<title>minimal_cuda_solver</title>
<g id="a_node7"><a xlink:href="minimal_cuda_solver.html" target="_top" xlink:title="Use the CUDA executor. Solve a linear system.">
<polygon fill="#228b22" stroke="#000000" points="244.8921,-195.9878 244.8921,-220.0122 196.6279,-237 128.3721,-237 80.1079,-220.0122 80.1079,-195.9878 128.3721,-179 196.6279,-179 244.8921,-195.9878"/>
<polygon fill="none" stroke="#000000" points="248.8896,-193.1546 248.8896,-222.8454 197.3105,-241 127.6895,-241 76.1104,-222.8454 76.1104,-193.1546 127.6895,-175 197.3105,-175 248.8896,-193.1546"/>
<polygon fill="none" stroke="#000000" points="252.8871,-190.3214 252.8871,-225.6786 197.9931,-245 127.0069,-245 72.1129,-225.6786 72.1129,-190.3214 127.0069,-171 197.9931,-171 252.8871,-190.3214"/>
<text text-anchor="middle" x="162.5" y="-204.9" font-family="Helvetica,sans-Serif" font-size="12.00" fill="#000000">minimal_cuda_solver</text>
</a>
</g>
</g>
<!-- minimal_cuda_solver&#45;&gt;custom_stopping_criterion -->
<g id="edge5" class="edge">
<title>minimal_cuda_solver&#45;&gt;custom_stopping_criterion</title>
<path fill="none" stroke="#000000" d="M207.8043,-174.0988C234.0823,-154.435 266.0279,-130.5302 287.0179,-114.8233"/>
<polygon fill="#000000" stroke="#000000" points="289.3849,-117.4236 295.2944,-108.63 285.1909,-111.819 289.3849,-117.4236"/>
</g>
<!-- simple_solver_logging -->
<g id="node12" class="node">
<title>simple_solver_logging</title>
<g id="a_node12"><a xlink:href="simple_solver_logging.html" target="_top" xlink:title="Logging within Ginkgo.">
<polygon fill="#ffd700" stroke="#000000" points="147,-108.5 0,-108.5 0,-87.5 147,-87.5 147,-108.5"/>
<text text-anchor="middle" x="73.5" y="-94.9" font-family="Helvetica,sans-Serif" font-size="12.00" fill="#000000">simple_solver_logging</text>
</a>
</g>
</g>
<!-- minimal_cuda_solver&#45;&gt;simple_solver_logging -->
<g id="edge12" class="edge">
<title>minimal_cuda_solver&#45;&gt;simple_solver_logging</title>
<path fill="none" stroke="#000000" d="M132.3687,-170.759C117.6986,-152.6275 100.6947,-131.6114 88.7448,-116.8419"/>
<polygon fill="#000000" stroke="#000000" points="91.3597,-114.5093 82.3488,-108.9367 85.9178,-118.9123 91.3597,-114.5093"/>
</g>
<!-- papi_logging -->
<g id="node8" class="node">
<title>papi_logging</title>
<g id="a_node8"><a xlink:href="papi_logging.html" target="_top" xlink:title="Logging with PAPI.">
<polygon fill="#ffd700" stroke="#000000" points="119.5,-23 27.5,-23 27.5,-2 119.5,-2 119.5,-23"/>
<text text-anchor="middle" x="73.5" y="-9.4" font-family="Helvetica,sans-Serif" font-size="12.00" fill="#000000">papi_logging</text>
</a>
</g>
</g>
<!-- poisson_solver -->
<g id="node9" class="node">
<title>poisson_solver</title>
<g id="a_node9"><a xlink:href="poisson_solver.html" target="_top" xlink:title="Solve the poisson problem. Generate the matrix within Ginkgo.">
<polygon fill="#228b22" stroke="#000000" points="812.7764,-195.9878 812.7764,-220.0122 777.4673,-237 727.5327,-237 692.2236,-220.0122 692.2236,-195.9878 727.5327,-179 777.4673,-179 812.7764,-195.9878"/>
<polygon fill="none" stroke="#000000" points="816.7695,-193.4715 816.7695,-222.5285 778.3765,-241 726.6235,-241 688.2305,-222.5285 688.2305,-193.4715 726.6235,-175 778.3765,-175 816.7695,-193.4715"/>
<polygon fill="none" stroke="#000000" points="820.7626,-190.9552 820.7626,-225.0448 779.2857,-245 725.7143,-245 684.2374,-225.0448 684.2374,-190.9552 725.7143,-171 779.2857,-171 820.7626,-190.9552"/>
<text text-anchor="middle" x="752.5" y="-204.9" font-family="Helvetica,sans-Serif" font-size="12.00" fill="#000000">poisson_solver</text>
</a>
</g>
</g>
<!-- poisson_solver&#45;&gt;custom_matrix_format -->
<g id="edge2" class="edge">
<title>poisson_solver&#45;&gt;custom_matrix_format</title>
<path fill="none" stroke="#000000" d="M761.3523,-170.9213C766.7518,-139.066 769.025,-93.2987 747.5,-61 737.7898,-46.4297 722.5356,-36.1682 706.5938,-28.9673"/>
<polygon fill="#000000" stroke="#000000" points="707.7436,-25.6554 697.1648,-25.0717 705.0706,-32.125 707.7436,-25.6554"/>
</g>
<!-- three_pt_stencil_solver -->
<g id="node13" class="node">
<title>three_pt_stencil_solver</title>
<g id="a_node13"><a xlink:href="three_pt_stencil_solver.html" target="_top" xlink:title="Use array views to generate stencil matrix. Solve a linear system.">
<polygon fill="#228b22" stroke="#000000" points="730.1743,-85.9878 730.1743,-110.0122 678.2301,-127 604.7699,-127 552.8257,-110.0122 552.8257,-85.9878 604.7699,-69 678.2301,-69 730.1743,-85.9878"/>
<polygon fill="none" stroke="#000000" points="734.1673,-83.0859 734.1673,-112.9141 678.8654,-131 604.1346,-131 548.8327,-112.9141 548.8327,-83.0859 604.1346,-65 678.8654,-65 734.1673,-83.0859"/>
<polygon fill="none" stroke="#000000" points="738.1603,-80.184 738.1603,-115.816 679.5007,-135 603.4993,-135 544.8397,-115.816 544.8397,-80.184 603.4993,-61 679.5007,-61 738.1603,-80.184"/>
<text text-anchor="middle" x="641.5" y="-94.9" font-family="Helvetica,sans-Serif" font-size="12.00" fill="#000000">three_pt_stencil_solver</text>
</a>
</g>
</g>
<!-- poisson_solver&#45;&gt;three_pt_stencil_solver -->
<g id="edge14" class="edge">
<title>poisson_solver&#45;&gt;three_pt_stencil_solver</title>
<path fill="none" stroke="#000000" d="M718.5932,-174.3987C708.4401,-164.337 697.1447,-153.1434 686.3998,-142.4953"/>
<polygon fill="#000000" stroke="#000000" points="688.6365,-139.7844 679.0699,-135.2314 683.7092,-144.7565 688.6365,-139.7844"/>
</g>
<!-- preconditioned_solver -->
<g id="node10" class="node">
<title>preconditioned_solver</title>
<g id="a_node10"><a xlink:href="preconditioned_solver.html" target="_top" xlink:title="Use a preconditioner in Ginkgo. Solve a linear system.">
<polygon fill="#dc143c" stroke="#000000" points="629,-218.5 480,-218.5 480,-197.5 629,-197.5 629,-218.5"/>
<text text-anchor="middle" x="554.5" y="-204.9" font-family="Helvetica,sans-Serif" font-size="12.00" fill="#000000">preconditioned_solver</text>
</a>
</g>
</g>
<!-- simple_solver -->
<g id="node11" class="node">
<title>simple_solver</title>
<g id="a_node11"><a xlink:href="simple_solver.html" target="_top" xlink:title="Solve a simple linear system with CG. Read a matrix and right hand side from a file.">
<polygon fill="#228b22" stroke="#000000" points="490.3081,-305.9878 490.3081,-330.0122 457.0307,-347 409.9693,-347 376.6919,-330.0122 376.6919,-305.9878 409.9693,-289 457.0307,-289 490.3081,-305.9878"/>
<polygon fill="none" stroke="#000000" points="494.3018,-303.537 494.3018,-332.463 457.9897,-351 409.0103,-351 372.6982,-332.463 372.6982,-303.537 409.0103,-285 457.9897,-285 494.3018,-303.537"/>
<polygon fill="none" stroke="#000000" points="498.2955,-301.0861 498.2955,-334.9139 458.9488,-355 408.0512,-355 368.7045,-334.9139 368.7045,-301.0861 408.0512,-281 458.9488,-281 498.2955,-301.0861"/>
<text text-anchor="middle" x="433.5" y="-314.9" font-family="Helvetica,sans-Serif" font-size="12.00" fill="#000000">simple_solver</text>
</a>
</g>
</g>
<!-- simple_solver&#45;&gt;custom_matrix_format -->
<g id="edge1" class="edge">
<title>simple_solver&#45;&gt;custom_matrix_format</title>
<path fill="none" stroke="#000000" d="M437.9167,-280.7024C446.5271,-224.8222 470.7756,-119.6831 535.5,-61 550.9484,-46.9936 571.1333,-36.405 589.7391,-28.7521"/>
<polygon fill="#000000" stroke="#000000" points="591.2538,-31.9179 599.2914,-25.0152 588.7035,-25.399 591.2538,-31.9179"/>
</g>
<!-- simple_solver&#45;&gt;custom_stopping_criterion -->
<g id="edge4" class="edge">
<title>simple_solver&#45;&gt;custom_stopping_criterion</title>
<path fill="none" stroke="#000000" d="M430.1944,-280.8059C426.0013,-249.5094 416.572,-204.6124 395.5,-171 380.5254,-147.1137 355.1985,-127.0081 335.8969,-113.9842"/>
<polygon fill="#000000" stroke="#000000" points="337.7984,-111.0457 327.5113,-108.5104 333.972,-116.9074 337.7984,-111.0457"/>
</g>
<!-- simple_solver&#45;&gt;inverse_iteration -->
<g id="edge6" class="edge">
<title>simple_solver&#45;&gt;inverse_iteration</title>
<path fill="none" stroke="#000000" d="M401.1398,-284.0988C383.6935,-265.8218 362.7499,-243.8809 347.8434,-228.2645"/>
<polygon fill="#000000" stroke="#000000" points="350.0856,-225.5444 340.649,-220.7275 345.022,-230.3778 350.0856,-225.5444"/>
</g>
<!-- simple_solver&#45;&gt;minimal_cuda_solver -->
<g id="edge7" class="edge">
<title>simple_solver&#45;&gt;minimal_cuda_solver</title>
<path fill="none" stroke="#000000" d="M378.6591,-295.7399C338.0851,-279.2707 282.3404,-256.6437 237.6235,-238.4929"/>
<polygon fill="#000000" stroke="#000000" points="238.8404,-235.2096 228.2582,-234.6915 236.2077,-241.6956 238.8404,-235.2096"/>
</g>
<!-- simple_solver&#45;&gt;poisson_solver -->
<g id="edge9" class="edge">
<title>simple_solver&#45;&gt;poisson_solver</title>
<path fill="none" stroke="#000000" d="M480.9144,-292.1517C489.5976,-288.038 498.6997,-284.118 507.5,-281 577.4306,-256.2229 600.0904,-268.3813 670.5,-245 677.3275,-242.7327 684.3529,-240.0835 691.2838,-237.2631"/>
<polygon fill="#000000" stroke="#000000" points="692.7838,-240.4294 700.6491,-233.3309 690.0739,-233.9752 692.7838,-240.4294"/>
</g>
<!-- simple_solver&#45;&gt;preconditioned_solver -->
<g id="edge10" class="edge">
<title>simple_solver&#45;&gt;preconditioned_solver</title>
<path fill="none" stroke="#000000" d="M468.8235,-285.8877C490.4793,-266.2006 517.3732,-241.7516 535.1908,-225.5538"/>
<polygon fill="#000000" stroke="#000000" points="537.6421,-228.0555 542.6872,-218.7389 532.9334,-222.8759 537.6421,-228.0555"/>
</g>
<!-- simple_solver&#45;&gt;simple_solver_logging -->
<g id="edge11" class="edge">
<title>simple_solver&#45;&gt;simple_solver_logging</title>
<path fill="none" stroke="#000000" d="M368.5029,-314.791C272.8528,-308.5544 101.386,-291.0911 63.5,-245 33.7296,-208.7821 51.7127,-149.0757 64.3313,-118.078"/>
<polygon fill="#000000" stroke="#000000" points="67.6102,-119.3122 68.3283,-108.7418 61.1751,-116.5573 67.6102,-119.3122"/>
</g>
<!-- simple_solver&#45;&gt;three_pt_stencil_solver -->
<g id="edge13" class="edge">
<title>simple_solver&#45;&gt;three_pt_stencil_solver</title>
<path fill="none" stroke="#000000" d="M481.4518,-292.3318C489.9988,-288.2463 498.9159,-284.2892 507.5,-281 563.8832,-259.3954 601.4078,-292.6444 638.5,-245 660.1488,-217.1924 659.3201,-176.6249 653.9615,-145.1474"/>
<polygon fill="#000000" stroke="#000000" points="657.3908,-144.4453 652.0852,-135.2746 650.5138,-145.7522 657.3908,-144.4453"/>
</g>
<!-- simple_solver_logging&#45;&gt;papi_logging -->
<g id="edge8" class="edge">
<title>simple_solver_logging&#45;&gt;papi_logging</title>
<path fill="none" stroke="#000000" d="M73.5,-87.1714C73.5,-73.6803 73.5,-50.3349 73.5,-33.3314"/>
<polygon fill="#000000" stroke="#000000" points="77.0001,-33.2407 73.5,-23.2407 70.0001,-33.2407 77.0001,-33.2407"/>
</g>
<!-- three_pt_stencil_solver&#45;&gt;custom_matrix_format -->
<g id="edge3" class="edge">
<title>three_pt_stencil_solver&#45;&gt;custom_matrix_format</title>
<path fill="none" stroke="#000000" d="M641.5,-60.7472C641.5,-52.0606 641.5,-43.0661 641.5,-35.2306"/>
<polygon fill="#000000" stroke="#000000" points="645.0001,-35.0785 641.5,-25.0785 638.0001,-35.0785 645.0001,-35.0785"/>
</g>
</g>
</svg>
