<?xml version="1.0" encoding="UTF-8" standalone="no"?>
<!DOCTYPE svg PUBLIC "-//W3C//DTD SVG 1.1//EN"
 "http://www.w3.org/Graphics/SVG/1.1/DTD/svg11.dtd">
<!-- Generated by graphviz version 2.40.1 (20161225.0304)
 -->
<!-- Title: Linear Operators Pages: 1 -->
<svg width="421pt" height="423pt"
 viewBox="0.00 0.00 421.00 423.38" xmlns="http://www.w3.org/2000/svg" xmlns:xlink="http://www.w3.org/1999/xlink">
<g id="graph0" class="graph" transform="scale(1 1) rotate(0) translate(4 419.3847)">
<title>Linear Operators</title>
<polygon fill="#ffffff" stroke="transparent" points="-4,4 -4,-419.3847 417,-419.3847 417,4 -4,4"/>
<!-- Node1 -->
<g id="node1" class="node">
<title>Node1</title>
<g id="a_node1"><a xlink:href="group__factor.html" target="_top" xlink:title="A module dedicated to the implementation and usage of the Factorizations in Ginkgo. ">
<polygon fill="#ffffff" stroke="#000000" points="299.5,-393.0386 299.5,-412.0386 383.5,-412.0386 383.5,-393.0386 299.5,-393.0386"/>
<text text-anchor="middle" x="341.5" y="-400.0386" font-family="Helvetica,sans-Serif" font-size="10.00" fill="#000000">Factorizations</text>
</a>
</g>
</g>
<!-- Node3 -->
<g id="node2" class="node">
<title>Node3</title>
<g id="a_node2"><a xlink:href="group__precond.html" target="_top" xlink:title="A module dedicated to the implementation and usage of the Preconditioners in Ginkgo. ">
<polygon fill="#ffffff" stroke="#000000" points="295.5,-315.0386 295.5,-334.0386 387.5,-334.0386 387.5,-315.0386 295.5,-315.0386"/>
<text text-anchor="middle" x="341.5" y="-322.0386" font-family="Helvetica,sans-Serif" font-size="10.00" fill="#000000">Preconditioners</text>
</a>
</g>
</g>
<!-- Node2 -->
<g id="node3" class="node">
<title>Node2</title>
<g id="a_node3"><a xlink:href="group__mat__formats.html" target="_top" xlink:title="A module dedicated to the implementation and usage of the various Matrix Formats in Ginkgo...">
<polygon fill="#ffffff" stroke="#000000" points="270,-159.5386 270,-189.5386 413,-189.5386 413,-159.5386 270,-159.5386"/>
<text text-anchor="start" x="278" y="-177.5386" font-family="Helvetica,sans-Serif" font-size="10.00" fill="#000000">SpMV employing different</text>
<text text-anchor="middle" x="341.5" y="-166.5386" font-family="Helvetica,sans-Serif" font-size="10.00" fill="#000000"> Matrix formats</text>
</a>
</g>
</g>
<!-- Node0 -->
<g id="node4" class="node">
<title>Node0</title>
<polygon fill="#bfbfbf" stroke="#000000" points="0,-243.0386 0,-262.0386 98,-262.0386 98,-243.0386 0,-243.0386"/>
<text text-anchor="middle" x="49" y="-250.0386" font-family="Helvetica,sans-Serif" font-size="10.00" fill="#000000">Linear Operators</text>
</g>
<!-- Node0&#45;&gt;Node1 -->
<g id="edge1" class="edge">
<title>Node0&#45;&gt;Node1</title>
<path fill="none" stroke="#000000" d="M52.7437,-272.396C59.5451,-302.3614 77.0021,-358.4058 116,-384.5386 170.8115,-421.2681 250.7977,-417.5421 299.3114,-410.6403"/>
<polygon fill="#000000" stroke="#000000" points="56.1068,-271.3782 50.6361,-262.3051 49.2546,-272.8095 56.1068,-271.3782"/>
</g>
<!-- Node0&#45;&gt;Node3 -->
<g id="edge3" class="edge">
<title>Node0&#45;&gt;Node3</title>
<path fill="none" stroke="#000000" d="M54.2158,-271.8919C62.4432,-298.1111 81.1984,-343.895 116,-363.5386 186.0637,-403.0856 286.3811,-355.6655 325.2506,-334.1181"/>
<polygon fill="#000000" stroke="#000000" points="57.5723,-270.8997 51.4003,-262.2883 50.8551,-272.8691 57.5723,-270.8997"/>
</g>
<!-- Node0&#45;&gt;Node3 -->
<g id="edge5" class="edge">
<title>Node0&#45;&gt;Node3</title>
<path fill="none" stroke="#ffa500" stroke-dasharray="5,2" d="M98.0116,-260.724C104.0664,-261.6943 110.173,-262.6533 116,-263.5386 176.3391,-272.7053 193.4958,-265.1575 252,-282.5386 278.6543,-290.4573 307.4147,-305.1729 324.9419,-314.912"/>
<text text-anchor="middle" x="184" y="-351.5386" font-family="Helvetica,sans-Serif" font-size="10.00" fill="#000000">gko::Preconditionable</text>
<text text-anchor="middle" x="184" y="-340.5386" font-family="Helvetica,sans-Serif" font-size="10.00" fill="#000000">gko::preconditioner::Ilu</text>
<text text-anchor="start" x="127.5" y="-329.5386" font-family="Helvetica,sans-Serif" font-size="10.00" fill="#000000">gko::preconditioner</text>
<text text-anchor="start" x="127.5" y="-318.5386" font-family="Helvetica,sans-Serif" font-size="10.00" fill="#000000">::block_interleaved</text>
<text text-anchor="middle" x="184" y="-307.5386" font-family="Helvetica,sans-Serif" font-size="10.00" fill="#000000">_storage_scheme</text>
<text text-anchor="start" x="127.5" y="-296.5386" font-family="Helvetica,sans-Serif" font-size="10.00" fill="#000000">gko::preconditioner</text>
<text text-anchor="middle" x="184" y="-285.5386" font-family="Helvetica,sans-Serif" font-size="10.00" fill="#000000">::Jacobi</text>
</g>
<!-- Node0&#45;&gt;Node2 -->
<g id="edge2" class="edge">
<title>Node0&#45;&gt;Node2</title>
<path fill="none" stroke="#000000" d="M108.3076,-256.8354C149.7469,-257.8458 205.7187,-255.1613 252,-238.5386 281.3037,-228.0137 309.5753,-204.9453 326.249,-189.5737"/>
<polygon fill="#000000" stroke="#000000" points="108.2081,-253.3304 98.1001,-256.5051 107.9816,-260.3268 108.2081,-253.3304"/>
</g>
<!-- Node0&#45;&gt;Node2 -->
<g id="edge6" class="edge">
<title>Node0&#45;&gt;Node2</title>
<path fill="none" stroke="#ffa500" stroke-dasharray="5,2" d="M51.6416,-242.8867C58.2277,-220.9577 77.6727,-167.6545 116,-146.5386 178.0226,-112.368 263.9335,-139.8823 309.7401,-159.3777"/>
<text text-anchor="middle" x="184" y="-226.5386" font-family="Helvetica,sans-Serif" font-size="10.00" fill="#000000">gko::matrix::Coo</text>
<text text-anchor="middle" x="184" y="-215.5386" font-family="Helvetica,sans-Serif" font-size="10.00" fill="#000000">gko::matrix::Csr</text>
<text text-anchor="middle" x="184" y="-204.5386" font-family="Helvetica,sans-Serif" font-size="10.00" fill="#000000">gko::matrix::Dense</text>
<text text-anchor="middle" x="184" y="-193.5386" font-family="Helvetica,sans-Serif" font-size="10.00" fill="#000000">gko::matrix::Ell</text>
<text text-anchor="middle" x="184" y="-182.5386" font-family="Helvetica,sans-Serif" font-size="10.00" fill="#000000">gko::matrix::Hybrid</text>
<text text-anchor="middle" x="184" y="-171.5386" font-family="Helvetica,sans-Serif" font-size="10.00" fill="#000000">gko::matrix::Identity</text>
<text text-anchor="middle" x="184" y="-160.5386" font-family="Helvetica,sans-Serif" font-size="10.00" fill="#000000">gko::matrix::IdentityFactory</text>
<text text-anchor="middle" x="184" y="-149.5386" font-family="Helvetica,sans-Serif" font-size="10.00" fill="#000000">gko::matrix::Sellp</text>
</g>
<!-- Node4 -->
<g id="node5" class="node">
<title>Node4</title>
<g id="a_node5"><a xlink:href="group__solvers.html" target="_top" xlink:title="A module dedicated to the implementation and usage of the Solvers in Ginkgo. ">
<polygon fill="#ffffff" stroke="#000000" points="315,-81.0386 315,-100.0386 368,-100.0386 368,-81.0386 315,-81.0386"/>
<text text-anchor="middle" x="341.5" y="-88.0386" font-family="Helvetica,sans-Serif" font-size="10.00" fill="#000000">Solvers</text>
</a>
</g>
</g>
<!-- Node0&#45;&gt;Node4 -->
<g id="edge4" class="edge">
<title>Node0&#45;&gt;Node4</title>
<path fill="none" stroke="#000000" d="M53.9574,-233.0442C62.0352,-205.5122 80.7901,-155.7854 116,-130.5386 132.035,-119.0409 258.7807,-101.3244 314.9083,-93.9458"/>
<polygon fill="#000000" stroke="#000000" points="50.486,-232.4681 51.2114,-243.038 57.2359,-234.3227 50.486,-232.4681"/>
</g>
<!-- Node0&#45;&gt;Node4 -->
<g id="edge7" class="edge">
<title>Node0&#45;&gt;Node4</title>
<path fill="none" stroke="#ffa500" stroke-dasharray="5,2" d="M50.2705,-242.8701C55.7712,-202.6483 78.9406,-49.3765 116,-21.5386 164.3284,14.7643 194.7855,-2.0442 252,-21.5386 286.9142,-33.4347 318.8161,-65.0705 333.3006,-81.0377"/>
<text text-anchor="middle" x="184" y="-90.5386" font-family="Helvetica,sans-Serif" font-size="10.00" fill="#000000">gko::solver::Bicgstab</text>
<text text-anchor="middle" x="184" y="-79.5386" font-family="Helvetica,sans-Serif" font-size="10.00" fill="#000000">gko::solver::Cg</text>
<text text-anchor="middle" x="184" y="-68.5386" font-family="Helvetica,sans-Serif" font-size="10.00" fill="#000000">gko::solver::Cgs</text>
<text text-anchor="middle" x="184" y="-57.5386" font-family="Helvetica,sans-Serif" font-size="10.00" fill="#000000">gko::solver::Fcg</text>
<text text-anchor="middle" x="184" y="-46.5386" font-family="Helvetica,sans-Serif" font-size="10.00" fill="#000000">gko::solver::Gmres</text>
<text text-anchor="middle" x="184" y="-35.5386" font-family="Helvetica,sans-Serif" font-size="10.00" fill="#000000">gko::solver::LowerTrs</text>
<text text-anchor="middle" x="184" y="-24.5386" font-family="Helvetica,sans-Serif" font-size="10.00" fill="#000000">gko::solver::UpperTrs</text>
</g>
</g>
</svg>
