<?xml version="1.0" encoding="UTF-8" standalone="no"?>
<!DOCTYPE svg PUBLIC "-//W3C//DTD SVG 1.1//EN"
 "http://www.w3.org/Graphics/SVG/1.1/DTD/svg11.dtd">
<!-- Generated by graphviz version 2.40.1 (20161225.0304)
 -->
<!-- Title: Preconditioners Pages: 1 -->
<svg width="347pt" height="95pt"
 viewBox="0.00 0.00 347.00 95.00" xmlns="http://www.w3.org/2000/svg" xmlns:xlink="http://www.w3.org/1999/xlink">
<g id="graph0" class="graph" transform="scale(1 1) rotate(0) translate(4 91)">
<title>Preconditioners</title>
<polygon fill="#ffffff" stroke="transparent" points="-4,4 -4,-91 343,-91 343,4 -4,4"/>
<!-- Node0 -->
<g id="node1" class="node">
<title>Node0</title>
<polygon fill="#bfbfbf" stroke="#000000" points="0,-.5 0,-19.5 92,-19.5 92,-.5 0,-.5"/>
<text text-anchor="middle" x="46" y="-7.5" font-family="Helvetica,sans-Serif" font-size="10.00" fill="#000000">Preconditioners</text>
</g>
<!-- Node1 -->
<g id="node2" class="node">
<title>Node1</title>
<g id="a_node2"><a xlink:href="group__LinOp.html" target="_top" xlink:title="A module dedicated to the implementation and usage of the Linear operators in Ginkgo. ">
<polygon fill="#ffffff" stroke="#000000" points="241,-.5 241,-19.5 339,-19.5 339,-.5 241,-.5"/>
<text text-anchor="middle" x="290" y="-7.5" font-family="Helvetica,sans-Serif" font-size="10.00" fill="#000000">Linear Operators</text>
</a>
</g>
</g>
<!-- Node0&#45;&gt;Node1 -->
<g id="edge2" class="edge">
<title>Node0&#45;&gt;Node1</title>
<path fill="none" stroke="#ffa500" stroke-dasharray="5,2" d="M92.1814,-10C134.5966,-10 197.2687,-10 240.6557,-10"/>
<text text-anchor="middle" x="166.5" y="-79" font-family="Helvetica,sans-Serif" font-size="10.00" fill="#000000">gko::Preconditionable</text>
<text text-anchor="middle" x="166.5" y="-68" font-family="Helvetica,sans-Serif" font-size="10.00" fill="#000000">gko::preconditioner::Ilu</text>
<text text-anchor="start" x="110" y="-57" font-family="Helvetica,sans-Serif" font-size="10.00" fill="#000000">gko::preconditioner</text>
<text text-anchor="start" x="110" y="-46" font-family="Helvetica,sans-Serif" font-size="10.00" fill="#000000">::block_interleaved</text>
<text text-anchor="middle" x="166.5" y="-35" font-family="Helvetica,sans-Serif" font-size="10.00" fill="#000000">_storage_scheme</text>
<text text-anchor="start" x="110" y="-24" font-family="Helvetica,sans-Serif" font-size="10.00" fill="#000000">gko::preconditioner</text>
<text text-anchor="middle" x="166.5" y="-13" font-family="Helvetica,sans-Serif" font-size="10.00" fill="#000000">::Jacobi</text>
</g>
<!-- Node1&#45;&gt;Node0 -->
<g id="edge1" class="edge">
<title>Node1&#45;&gt;Node0</title>
<path fill="none" stroke="#000000" d="M230.7708,-8.1366C228.1449,-8.0841 225.5453,-8.038 223,-8 172.7834,-7.2507 160.2161,-7.2156 110,-8 104.2201,-8.0903 98.1477,-8.2264 92.14,-8.386"/>
<polygon fill="#000000" stroke="#000000" points="230.8941,-11.6402 240.9708,-8.3677 231.0527,-4.642 230.8941,-11.6402"/>
</g>
</g>
</svg>
