<?xml version="1.0" encoding="UTF-8" standalone="no"?>
<!DOCTYPE svg PUBLIC "-//W3C//DTD SVG 1.1//EN"
 "http://www.w3.org/Graphics/SVG/1.1/DTD/svg11.dtd">
<!-- Generated by graphviz version 2.40.1 (20161225.0304)
 -->
<!-- Title: Preconditioners Pages: 1 -->
<svg width="368pt" height="167pt"
 viewBox="0.00 0.00 368.00 166.67" xmlns="http://www.w3.org/2000/svg" xmlns:xlink="http://www.w3.org/1999/xlink">
<g id="graph0" class="graph" transform="scale(1 1) rotate(0) translate(4 162.6673)">
<title>Preconditioners</title>
<polygon fill="#ffffff" stroke="transparent" points="-4,4 -4,-162.6673 364,-162.6673 364,4 -4,4"/>
<!-- Node1 -->
<g id="node1" class="node">
<title>Node1</title>
<g id="a_node1"><a xlink:title="A module dedicated to the implementation and usage of the Preconditioners in Ginkgo.">
<polygon fill="#bfbfbf" stroke="#000000" points="92,-86.2346 0,-86.2346 0,-67.2346 92,-67.2346 92,-86.2346"/>
<text text-anchor="middle" x="46" y="-74.2346" font-family="Helvetica,sans-Serif" font-size="10.00" fill="#000000">Preconditioners</text>
</a>
</g>
</g>
<!-- Node3 -->
<g id="node2" class="node">
<title>Node3</title>
<g id="a_node2"><a xlink:href="group__jacobi.html" target="_top" xlink:title="A module dedicated to the implementation and usage of the Jacobi Preconditioner in Ginkgo.">
<polygon fill="#ffffff" stroke="#000000" points="360,-149.2346 241,-149.2346 241,-130.2346 360,-130.2346 360,-149.2346"/>
<text text-anchor="middle" x="300.5" y="-137.2346" font-family="Helvetica,sans-Serif" font-size="10.00" fill="#000000">Jacobi Preconditioner</text>
</a>
</g>
</g>
<!-- Node1&#45;&gt;Node3 -->
<g id="edge2" class="edge">
<title>Node1&#45;&gt;Node3</title>
<path fill="none" stroke="#000000" d="M56.9719,-95.063C68.0199,-111.5521 86.7361,-134.6829 110,-144.7346 160.2634,-166.4521 225.1558,-157.9998 264.7551,-149.3097"/>
<polygon fill="#000000" stroke="#000000" points="59.6985,-92.8283 51.3767,-86.271 53.7929,-96.5867 59.6985,-92.8283"/>
</g>
<!-- Node1&#45;&gt;Node3 -->
<g id="edge4" class="edge">
<title>Node1&#45;&gt;Node3</title>
<path fill="none" stroke="#ffa500" stroke-dasharray="5,2" d="M69.3905,-86.2762C81.3736,-90.8721 96.2928,-96.1499 110,-99.7346 159.2702,-112.6198 173.2518,-107.8396 223,-118.7346 237.8429,-121.9852 254.0961,-126.2748 267.8678,-130.1294"/>
<text text-anchor="start" x="119" y="-132.7346" font-family="Helvetica,sans-Serif" font-size="10.00" fill="#000000">gko::preconditioner</text>
<text text-anchor="middle" x="166.5" y="-121.7346" font-family="Helvetica,sans-Serif" font-size="10.00" fill="#000000">::Jacobi</text>
</g>
<!-- Node2 -->
<g id="node3" class="node">
<title>Node2</title>
<g id="a_node3"><a xlink:href="group__LinOp.html" target="_top" xlink:title="A module dedicated to the implementation and usage of the Linear operators in Ginkgo.">
<polygon fill="#ffffff" stroke="#000000" points="349.5,-26.2346 251.5,-26.2346 251.5,-7.2346 349.5,-7.2346 349.5,-26.2346"/>
<text text-anchor="middle" x="300.5" y="-14.2346" font-family="Helvetica,sans-Serif" font-size="10.00" fill="#000000">Linear Operators</text>
</a>
</g>
</g>
<!-- Node1&#45;&gt;Node2 -->
<g id="edge3" class="edge">
<title>Node1&#45;&gt;Node2</title>
<path fill="none" stroke="#ffa500" stroke-dasharray="5,2" d="M56.8379,-66.9048C68.8604,-56.6484 89.3058,-41.0619 110,-33.7346 156.0113,-17.4431 211.9945,-14.256 251.3264,-14.4955"/>
<text text-anchor="middle" x="166.5" y="-91.7346" font-family="Helvetica,sans-Serif" font-size="10.00" fill="#000000">gko::Preconditionable</text>
<text text-anchor="middle" x="166.5" y="-80.7346" font-family="Helvetica,sans-Serif" font-size="10.00" fill="#000000">gko::preconditioner::Ilu</text>
<text text-anchor="start" x="110" y="-69.7346" font-family="Helvetica,sans-Serif" font-size="10.00" fill="#000000">gko::preconditioner</text>
<text text-anchor="middle" x="166.5" y="-58.7346" font-family="Helvetica,sans-Serif" font-size="10.00" fill="#000000">::Isai</text>
<text text-anchor="start" x="110" y="-47.7346" font-family="Helvetica,sans-Serif" font-size="10.00" fill="#000000">gko::preconditioner</text>
<text text-anchor="middle" x="166.5" y="-36.7346" font-family="Helvetica,sans-Serif" font-size="10.00" fill="#000000">::Jacobi</text>
</g>
<!-- Node2&#45;&gt;Node1 -->
<g id="edge1" class="edge">
<title>Node2&#45;&gt;Node1</title>
<path fill="none" stroke="#000000" d="M250.1798,-5.4453C210.5699,1.0073 154.7707,4.6039 110,-13.7346 83.4529,-24.6085 62.0048,-52.3971 52.0401,-67.168"/>
<polygon fill="#000000" stroke="#000000" points="249.685,-8.9118 260.1378,-7.1828 250.8882,-2.016 249.685,-8.9118"/>
</g>
</g>
</svg>
