<?xml version="1.0" encoding="UTF-8" standalone="no"?>
<!DOCTYPE svg PUBLIC "-//W3C//DTD SVG 1.1//EN"
 "http://www.w3.org/Graphics/SVG/1.1/DTD/svg11.dtd">
<!-- Generated by graphviz version 2.40.1 (20161225.0304)
 -->
<!-- Title: Linear Operators Pages: 1 -->
<!--zoomable 519 -->
<svg id="main" version="1.1" xmlns="http://www.w3.org/2000/svg" xmlns:xlink="http://www.w3.org/1999/xlink" xml:space="preserve" onload="init(evt)">
<style type="text/css"><![CDATA[
.edge:hover path { stroke: red; }
.edge:hover polygon { stroke: red; fill: red; }
]]></style>
<script type="text/javascript"><![CDATA[
var edges = document.getElementsByTagName('g');
if (edges && edges.length) {
  for (var i=0;i<edges.length;i++) {
    if (edges[i].id.substr(0,4)=='edge') {
      edges[i].setAttribute('class','edge');
    }
  }
}
]]></script>
        <defs>
                <circle id="rim" cx="0" cy="0" r="7"/>
                <circle id="rim2" cx="0" cy="0" r="3.5"/>
                <g id="zoomPlus">
                        <use xlink:href="#rim" fill="#404040">
                                <set attributeName="fill" to="#808080" begin="zoomplus.mouseover" end="zoomplus.mouseout"/>
                        </use>
                        <path d="M-4,0h8M0,-4v8" fill="none" stroke="white" stroke-width="1.5" pointer-events="none"/>
                </g>
                <g id="zoomMin">
                        <use xlink:href="#rim" fill="#404040">
                                <set attributeName="fill" to="#808080" begin="zoomminus.mouseover" end="zoomminus.mouseout"/>
                        </use>
                        <path d="M-4,0h8" fill="none" stroke="white" stroke-width="1.5" pointer-events="none"/>
                </g>
                <g id="dirArrow">
                        <path fill="none" stroke="white" stroke-width="1.5" d="M0,-3.0v7 M-2.5,-0.5L0,-3.0L2.5,-0.5"/>
                </g>
               <g id="resetDef">
                       <use xlink:href="#rim2" fill="#404040">
                               <set attributeName="fill" to="#808080" begin="reset.mouseover" end="reset.mouseout"/>
                       </use>
               </g>
        </defs>

<script type="text/javascript">
var viewWidth = 421;
var viewHeight = 519;
var sectionId = 'dynsection-0';
</script>
<script xlink:href="svgpan.js"/>
<svg id="graph" class="graph">
<g id="viewport">
<title>Linear Operators</title>
<polygon fill="#ffffff" stroke="transparent" points="-4,4 -4,-514.8074 417,-514.8074 417,4 -4,4"/>
<!-- Node2 -->
<g id="node1" class="node">
<title>Node2</title>
<g id="a_node1"><a xlink:href="group__factor.html" target="_top" xlink:title="A module dedicated to the implementation and usage of the Factorizations in Ginkgo.">
<polygon fill="#ffffff" stroke="#000000" points="383.5,-492.2269 299.5,-492.2269 299.5,-473.2269 383.5,-473.2269 383.5,-492.2269"/>
<text text-anchor="middle" x="341.5" y="-480.2269" font-family="Helvetica,sans-Serif" font-size="10.00" fill="#000000">Factorizations</text>
</a>
</g>
</g>
<!-- Node4 -->
<g id="node2" class="node">
<title>Node4</title>
<g id="a_node2"><a xlink:href="group__precond.html" target="_top" xlink:title="A module dedicated to the implementation and usage of the Preconditioners in Ginkgo.">
<polygon fill="#ffffff" stroke="#000000" points="387.5,-411.2269 295.5,-411.2269 295.5,-392.2269 387.5,-392.2269 387.5,-411.2269"/>
<text text-anchor="middle" x="341.5" y="-399.2269" font-family="Helvetica,sans-Serif" font-size="10.00" fill="#000000">Preconditioners</text>
</a>
</g>
</g>
<!-- Node3 -->
<g id="node3" class="node">
<title>Node3</title>
<g id="a_node3"><a xlink:href="group__mat__formats.html" target="_top" xlink:title="A module dedicated to the implementation and usage of the various Matrix Formats in Ginkgo.">
<polygon fill="#ffffff" stroke="#000000" points="413,-286.7269 270,-286.7269 270,-256.7269 413,-256.7269 413,-286.7269"/>
<text text-anchor="start" x="278" y="-274.7269" font-family="Helvetica,sans-Serif" font-size="10.00" fill="#000000">SpMV employing different</text>
<text text-anchor="middle" x="341.5" y="-263.7269" font-family="Helvetica,sans-Serif" font-size="10.00" fill="#000000"> Matrix formats</text>
</a>
</g>
</g>
<!-- Node6 -->
<g id="node4" class="node">
<title>Node6</title>
<g id="a_node4"><a xlink:href="group__jacobi.html" target="_top" xlink:title="A module dedicated to the implementation and usage of the Jacobi Preconditioner in Ginkgo.">
<polygon fill="#ffffff" stroke="#000000" points="401,-168.2269 282,-168.2269 282,-149.2269 401,-149.2269 401,-168.2269"/>
<text text-anchor="middle" x="341.5" y="-156.2269" font-family="Helvetica,sans-Serif" font-size="10.00" fill="#000000">Jacobi Preconditioner</text>
</a>
</g>
</g>
<!-- Node1 -->
<g id="node5" class="node">
<title>Node1</title>
<g id="a_node5"><a xlink:title="A module dedicated to the implementation and usage of the Linear operators in Ginkgo.">
<polygon fill="#bfbfbf" stroke="#000000" points="98,-349.2269 0,-349.2269 0,-330.2269 98,-330.2269 98,-349.2269"/>
<text text-anchor="middle" x="49" y="-337.2269" font-family="Helvetica,sans-Serif" font-size="10.00" fill="#000000">Linear Operators</text>
</a>
</g>
</g>
<!-- Node1&#45;&gt;Node2 -->
<g id="edge1" class="edge">
<title>Node1&#45;&gt;Node2</title>
<path fill="none" stroke="#000000" d="M51.2503,-359.5016C56.218,-392.7456 71.4752,-459.0086 116,-487.7269 177.5372,-527.4181 269.4957,-506.455 314.5966,-492.2711"/>
<polygon fill="#000000" stroke="#000000" points="54.6734,-358.6896 49.8911,-349.2355 47.7339,-359.6084 54.6734,-358.6896"/>
</g>
<!-- Node1&#45;&gt;Node2 -->
<g id="edge6" class="edge">
<title>Node1&#45;&gt;Node2</title>
<path fill="none" stroke="#ffa500" stroke-dasharray="5,2" d="M52.4374,-349.2457C60.2611,-369.4303 81.4418,-416.494 116,-438.7269 167.5551,-471.8946 191.9071,-449.608 252,-461.7269 268.8968,-465.1344 287.466,-469.4044 303.2893,-473.2027"/>
<text text-anchor="start" x="141" y="-475.7269" font-family="Helvetica,sans-Serif" font-size="10.00" fill="#000000">gko::factorization</text>
<text text-anchor="middle" x="184" y="-464.7269" font-family="Helvetica,sans-Serif" font-size="10.00" fill="#000000">::ParIlu</text>
</g>
<!-- Node1&#45;&gt;Node4 -->
<g id="edge3" class="edge">
<title>Node1&#45;&gt;Node4</title>
<path fill="none" stroke="#000000" d="M58.5322,-358.1468C69.5032,-377.107 89.4765,-405.5447 116,-417.7269 182.6949,-448.3596 272.276,-425.7024 315.7207,-411.2635"/>
<polygon fill="#000000" stroke="#000000" points="61.515,-356.3072 53.6287,-349.2321 55.3816,-359.6809 61.515,-356.3072"/>
</g>
<!-- Node1&#45;&gt;Node4 -->
<g id="edge5" class="edge">
<title>Node1&#45;&gt;Node4</title>
<path fill="none" stroke="#ffa500" stroke-dasharray="5,2" d="M98.0116,-347.9123C104.0664,-348.8826 110.173,-349.8416 116,-350.7269 176.3391,-359.8936 192.7337,-355.1548 252,-369.7269 275.2352,-375.4398 300.8623,-384.9472 318.7175,-392.1178"/>
<text text-anchor="middle" x="184" y="-405.7269" font-family="Helvetica,sans-Serif" font-size="10.00" fill="#000000">gko::Preconditionable</text>
<text text-anchor="middle" x="184" y="-394.7269" font-family="Helvetica,sans-Serif" font-size="10.00" fill="#000000">gko::preconditioner::Ilu</text>
<text text-anchor="start" x="127.5" y="-383.7269" font-family="Helvetica,sans-Serif" font-size="10.00" fill="#000000">gko::preconditioner</text>
<text text-anchor="middle" x="184" y="-372.7269" font-family="Helvetica,sans-Serif" font-size="10.00" fill="#000000">::Jacobi</text>
</g>
<!-- Node1&#45;&gt;Node3 -->
<g id="edge2" class="edge">
<title>Node1&#45;&gt;Node3</title>
<path fill="none" stroke="#000000" d="M108.3358,-342.8952C149.5585,-343.3593 205.2618,-340.4858 252,-325.7269 278.4767,-317.3661 305.2743,-299.7106 322.5518,-286.857"/>
<polygon fill="#000000" stroke="#000000" points="108.2437,-339.393 98.1816,-342.7105 108.1163,-346.3919 108.2437,-339.393"/>
</g>
<!-- Node1&#45;&gt;Node3 -->
<g id="edge7" class="edge">
<title>Node1&#45;&gt;Node3</title>
<path fill="none" stroke="#ffa500" stroke-dasharray="5,2" d="M50.2065,-330.025C54.0749,-303.6025 68.8142,-230.3639 116,-200.7269 141.5928,-184.6522 223.461,-190.7816 252,-200.7269 283.6521,-211.757 312.5182,-239.1661 328.4825,-256.5219"/>
<text text-anchor="middle" x="184" y="-313.7269" font-family="Helvetica,sans-Serif" font-size="10.00" fill="#000000">gko::matrix::Coo</text>
<text text-anchor="middle" x="184" y="-302.7269" font-family="Helvetica,sans-Serif" font-size="10.00" fill="#000000">gko::matrix::Csr</text>
<text text-anchor="middle" x="184" y="-291.7269" font-family="Helvetica,sans-Serif" font-size="10.00" fill="#000000">gko::matrix::Dense</text>
<text text-anchor="middle" x="184" y="-280.7269" font-family="Helvetica,sans-Serif" font-size="10.00" fill="#000000">gko::matrix::Ell</text>
<text text-anchor="middle" x="184" y="-269.7269" font-family="Helvetica,sans-Serif" font-size="10.00" fill="#000000">gko::matrix::Hybrid</text>
<text text-anchor="middle" x="184" y="-258.7269" font-family="Helvetica,sans-Serif" font-size="10.00" fill="#000000">gko::matrix::Identity</text>
<text text-anchor="middle" x="184" y="-247.7269" font-family="Helvetica,sans-Serif" font-size="10.00" fill="#000000">gko::matrix::IdentityFactory</text>
<text text-anchor="middle" x="184" y="-236.7269" font-family="Helvetica,sans-Serif" font-size="10.00" fill="#000000">gko::matrix::Permutation</text>
<text text-anchor="middle" x="184" y="-225.7269" font-family="Helvetica,sans-Serif" font-size="10.00" fill="#000000">gko::matrix::Sellp</text>
<text text-anchor="middle" x="184" y="-214.7269" font-family="Helvetica,sans-Serif" font-size="10.00" fill="#000000">gko::matrix::SparsityCsr</text>
<text text-anchor="middle" x="184" y="-203.7269" font-family="Helvetica,sans-Serif" font-size="10.00" fill="#000000">...</text>
</g>
<!-- Node1&#45;&gt;Node6 -->
<g id="edge8" class="edge">
<title>Node1&#45;&gt;Node6</title>
<path fill="none" stroke="#ffa500" stroke-dasharray="5,2" d="M51.1851,-330.1995C59.0803,-296.6808 87.1876,-185.1175 116,-164.7269 173.3818,-124.1175 261.1599,-137.5066 308.4969,-149.135"/>
<text text-anchor="start" x="136.5" y="-178.7269" font-family="Helvetica,sans-Serif" font-size="10.00" fill="#000000">gko::preconditioner</text>
<text text-anchor="middle" x="184" y="-167.7269" font-family="Helvetica,sans-Serif" font-size="10.00" fill="#000000">::Jacobi</text>
</g>
<!-- Node5 -->
<g id="node6" class="node">
<title>Node5</title>
<g id="a_node6"><a xlink:href="group__solvers.html" target="_top" xlink:title="A module dedicated to the implementation and usage of the Solvers in Ginkgo.">
<polygon fill="#ffffff" stroke="#000000" points="368,-82.2269 315,-82.2269 315,-63.2269 368,-63.2269 368,-82.2269"/>
<text text-anchor="middle" x="341.5" y="-70.2269" font-family="Helvetica,sans-Serif" font-size="10.00" fill="#000000">Solvers</text>
</a>
</g>
</g>
<!-- Node1&#45;&gt;Node5 -->
<g id="edge4" class="edge">
<title>Node1&#45;&gt;Node5</title>
<path fill="none" stroke="#000000" d="M52.9461,-320.2737C62.5276,-274.9492 88.2804,-164.2998 116,-139.7269 162.1794,-98.7897 193.1731,-130.376 252,-111.7269 277.2047,-103.7365 304.9259,-91.0022 322.7372,-82.2728"/>
<polygon fill="#000000" stroke="#000000" points="49.5186,-319.5653 50.9138,-330.0679 56.3726,-320.9876 49.5186,-319.5653"/>
</g>
<!-- Node1&#45;&gt;Node5 -->
<g id="edge9" class="edge">
<title>Node1&#45;&gt;Node5</title>
<path fill="none" stroke="#ffa500" stroke-dasharray="5,2" d="M49.4429,-330.2253C51.9293,-281.5069 65.8857,-60.4351 116,-19.7269 181.5519,33.5215 291.2995,-36.2551 328.6235,-63.0503"/>
<text text-anchor="middle" x="184" y="-99.7269" font-family="Helvetica,sans-Serif" font-size="10.00" fill="#000000">gko::solver::Bicgstab</text>
<text text-anchor="middle" x="184" y="-88.7269" font-family="Helvetica,sans-Serif" font-size="10.00" fill="#000000">gko::solver::Cg</text>
<text text-anchor="middle" x="184" y="-77.7269" font-family="Helvetica,sans-Serif" font-size="10.00" fill="#000000">gko::solver::Cgs</text>
<text text-anchor="middle" x="184" y="-66.7269" font-family="Helvetica,sans-Serif" font-size="10.00" fill="#000000">gko::solver::Fcg</text>
<text text-anchor="middle" x="184" y="-55.7269" font-family="Helvetica,sans-Serif" font-size="10.00" fill="#000000">gko::solver::Gmres</text>
<text text-anchor="middle" x="184" y="-44.7269" font-family="Helvetica,sans-Serif" font-size="10.00" fill="#000000">gko::solver::Ir</text>
<text text-anchor="middle" x="184" y="-33.7269" font-family="Helvetica,sans-Serif" font-size="10.00" fill="#000000">gko::solver::LowerTrs</text>
<text text-anchor="middle" x="184" y="-22.7269" font-family="Helvetica,sans-Serif" font-size="10.00" fill="#000000">gko::solver::UpperTrs</text>
</g>
</g>
</svg>
        <g id="navigator" transform="translate(0 0)" fill="#404254">
                <rect fill="#f2f5e9" fill-opacity="0.5" stroke="#606060" stroke-width=".5" x="0" y="0" width="60" height="60"/>
                <use id="zoomplus" xlink:href="#zoomPlus" x="17" y="9" onmousedown="handleZoom(evt,'in')"/>
                <use id="zoomminus" xlink:href="#zoomMin" x="42" y="9" onmousedown="handleZoom(evt,'out')"/>
                <use id="reset" xlink:href="#resetDef" x="30" y="36" onmousedown="handleReset()"/>
                <g id="arrowUp" xlink:href="#dirArrow" transform="translate(30 24)" onmousedown="handlePan(0,-1)">
                  <use xlink:href="#rim" fill="#404040">
                        <set attributeName="fill" to="#808080" begin="arrowUp.mouseover" end="arrowUp.mouseout"/>
                  </use>
                  <path fill="none" stroke="white" stroke-width="1.5" d="M0,-3.0v7 M-2.5,-0.5L0,-3.0L2.5,-0.5"/>
                </g>
                <g id="arrowRight" xlink:href="#dirArrow" transform="rotate(90) translate(36 -43)" onmousedown="handlePan(1,0)">
                  <use xlink:href="#rim" fill="#404040">
                        <set attributeName="fill" to="#808080" begin="arrowRight.mouseover" end="arrowRight.mouseout"/>
                  </use>
                  <path fill="none" stroke="white" stroke-width="1.5" d="M0,-3.0v7 M-2.5,-0.5L0,-3.0L2.5,-0.5"/>
                </g>
                <g id="arrowDown" xlink:href="#dirArrow" transform="rotate(180) translate(-30 -48)" onmousedown="handlePan(0,1)">
                  <use xlink:href="#rim" fill="#404040">
                        <set attributeName="fill" to="#808080" begin="arrowDown.mouseover" end="arrowDown.mouseout"/>
                  </use>
                  <path fill="none" stroke="white" stroke-width="1.5" d="M0,-3.0v7 M-2.5,-0.5L0,-3.0L2.5,-0.5"/>
                </g>
                <g id="arrowLeft" xlink:href="#dirArrow" transform="rotate(270) translate(-36 17)" onmousedown="handlePan(-1,0)">
                  <use xlink:href="#rim" fill="#404040">
                        <set attributeName="fill" to="#808080" begin="arrowLeft.mouseover" end="arrowLeft.mouseout"/>
                  </use>
                  <path fill="none" stroke="white" stroke-width="1.5" d="M0,-3.0v7 M-2.5,-0.5L0,-3.0L2.5,-0.5"/>
                </g>
        </g>
        <svg viewBox="0 0 15 15" width="100%" height="30px" preserveAspectRatio="xMaxYMin meet">
         <g id="arrow_out" transform="scale(0.3 0.3)">
          <a xlink:href="group__LinOp_org.svg" target="_base">
           <rect id="button" ry="5" rx="5" y="6" x="6" height="38" width="38"
                fill="#f2f5e9" fill-opacity="0.5" stroke="#606060" stroke-width="1.0"/>
           <path id="arrow"
             d="M 11.500037,31.436501 C 11.940474,20.09759 22.043105,11.32322 32.158766,21.979434 L 37.068811,17.246167 C 37.068811,17.246167 37.088388,32 37.088388,32 L 22.160133,31.978069 C 22.160133,31.978069 26.997745,27.140456 26.997745,27.140456 C 18.528582,18.264221 13.291696,25.230495 11.500037,31.436501 z"
             style="fill:#404040;"/>
          </a>
         </g>
        </svg>
</svg>
