<?xml version="1.0" encoding="UTF-8" standalone="no"?>
<!DOCTYPE svg PUBLIC "-//W3C//DTD SVG 1.1//EN"
 "http://www.w3.org/Graphics/SVG/1.1/DTD/svg11.dtd">
<!-- Generated by graphviz version 2.40.1 (20161225.0304)
 -->
<!-- Title: Solvers Pages: 1 -->
<svg width="298pt" height="162pt"
 viewBox="0.00 0.00 298.00 161.67" xmlns="http://www.w3.org/2000/svg" xmlns:xlink="http://www.w3.org/1999/xlink">
<g id="graph0" class="graph" transform="scale(1 1) rotate(0) translate(4 157.6675)">
<title>Solvers</title>
<polygon fill="#ffffff" stroke="transparent" points="-4,4 -4,-157.6675 294,-157.6675 294,4 -4,4"/>
<!-- Node2 -->
<g id="node1" class="node">
<title>Node2</title>
<g id="a_node1"><a xlink:href="group__LinOp.html" target="_top" xlink:title="A module dedicated to the implementation and usage of the Linear operators in Ginkgo.">
<polygon fill="#ffffff" stroke="#000000" points="98,-95.8632 0,-95.8632 0,-76.8632 98,-76.8632 98,-95.8632"/>
<text text-anchor="middle" x="49" y="-83.8632" font-family="Helvetica,sans-Serif" font-size="10.00" fill="#000000">Linear Operators</text>
</a>
</g>
</g>
<!-- Node1 -->
<g id="node2" class="node">
<title>Node1</title>
<g id="a_node2"><a xlink:title="A module dedicated to the implementation and usage of the Solvers in Ginkgo.">
<polygon fill="#bfbfbf" stroke="#000000" points="290,-95.8632 237,-95.8632 237,-76.8632 290,-76.8632 290,-95.8632"/>
<text text-anchor="middle" x="263.5" y="-83.8632" font-family="Helvetica,sans-Serif" font-size="10.00" fill="#000000">Solvers</text>
</a>
</g>
</g>
<!-- Node2&#45;&gt;Node1 -->
<g id="edge1" class="edge">
<title>Node2&#45;&gt;Node1</title>
<path fill="none" stroke="#000000" d="M63.7293,-103.3146C76.1673,-116.2431 95.2327,-133.036 116,-140.3632 159.1696,-155.5943 177.5976,-159.8938 219,-140.3632 238.3372,-131.2413 252.1189,-109.1386 258.8441,-96.2152"/>
<polygon fill="#000000" stroke="#000000" points="66.2343,-100.8681 56.8853,-95.8834 61.0852,-105.6102 66.2343,-100.8681"/>
</g>
<!-- Node1&#45;&gt;Node2 -->
<g id="edge2" class="edge">
<title>Node1&#45;&gt;Node2</title>
<path fill="none" stroke="#ffa500" stroke-dasharray="5,2" d="M260.8137,-76.799C255.7114,-60.6892 242.929,-28.606 219,-15.3632 178.9468,6.8031 158.0349,2.7661 116,-15.3632 86.7425,-27.9817 64.3234,-60.3575 54.4776,-76.6669"/>
<text text-anchor="middle" x="167.5" y="-128.3632" font-family="Helvetica,sans-Serif" font-size="10.00" fill="#000000">gko::solver::Bicg</text>
<text text-anchor="middle" x="167.5" y="-117.3632" font-family="Helvetica,sans-Serif" font-size="10.00" fill="#000000">gko::solver::Bicgstab</text>
<text text-anchor="middle" x="167.5" y="-106.3632" font-family="Helvetica,sans-Serif" font-size="10.00" fill="#000000">gko::solver::Cg</text>
<text text-anchor="middle" x="167.5" y="-95.3632" font-family="Helvetica,sans-Serif" font-size="10.00" fill="#000000">gko::solver::Cgs</text>
<text text-anchor="middle" x="167.5" y="-84.3632" font-family="Helvetica,sans-Serif" font-size="10.00" fill="#000000">gko::solver::Fcg</text>
<text text-anchor="middle" x="167.5" y="-73.3632" font-family="Helvetica,sans-Serif" font-size="10.00" fill="#000000">gko::solver::Gmres</text>
<text text-anchor="middle" x="167.5" y="-62.3632" font-family="Helvetica,sans-Serif" font-size="10.00" fill="#000000">gko::solver::Idr</text>
<text text-anchor="middle" x="167.5" y="-51.3632" font-family="Helvetica,sans-Serif" font-size="10.00" fill="#000000">gko::solver::Ir</text>
<text text-anchor="middle" x="167.5" y="-40.3632" font-family="Helvetica,sans-Serif" font-size="10.00" fill="#000000">gko::solver::LowerTrs</text>
<text text-anchor="middle" x="167.5" y="-29.3632" font-family="Helvetica,sans-Serif" font-size="10.00" fill="#000000">gko::solver::UpperTrs</text>
<text text-anchor="middle" x="167.5" y="-18.3632" font-family="Helvetica,sans-Serif" font-size="10.00" fill="#000000">...</text>
</g>
</g>
</svg>
