<?xml version="1.0" encoding="UTF-8" standalone="no"?>
<!DOCTYPE svg PUBLIC "-//W3C//DTD SVG 1.1//EN"
 "http://www.w3.org/Graphics/SVG/1.1/DTD/svg11.dtd">
<!-- Generated by graphviz version 2.40.1 (20161225.0304)
 -->
<!-- Title: Linear Operators Pages: 1 -->
<svg width="421pt" height="435pt"
 viewBox="0.00 0.00 421.00 434.51" xmlns="http://www.w3.org/2000/svg" xmlns:xlink="http://www.w3.org/1999/xlink">
<g id="graph0" class="graph" transform="scale(1 1) rotate(0) translate(4 430.5111)">
<title>Linear Operators</title>
<polygon fill="#ffffff" stroke="transparent" points="-4,4 -4,-430.5111 417,-430.5111 417,4 -4,4"/>
<!-- Node1 -->
<g id="node1" class="node">
<title>Node1</title>
<g id="a_node1"><a xlink:href="group__factor.html" target="_top" xlink:title="A module dedicated to the implementation and usage of the Factorizations in Ginkgo. ">
<polygon fill="#ffffff" stroke="#000000" points="299.5,-404.165 299.5,-423.165 383.5,-423.165 383.5,-404.165 299.5,-404.165"/>
<text text-anchor="middle" x="341.5" y="-411.165" font-family="Helvetica,sans-Serif" font-size="10.00" fill="#000000">Factorizations</text>
</a>
</g>
</g>
<!-- Node3 -->
<g id="node2" class="node">
<title>Node3</title>
<g id="a_node2"><a xlink:href="group__precond.html" target="_top" xlink:title="A module dedicated to the implementation and usage of the Preconditioners in Ginkgo. ">
<polygon fill="#ffffff" stroke="#000000" points="295.5,-326.165 295.5,-345.165 387.5,-345.165 387.5,-326.165 295.5,-326.165"/>
<text text-anchor="middle" x="341.5" y="-333.165" font-family="Helvetica,sans-Serif" font-size="10.00" fill="#000000">Preconditioners</text>
</a>
</g>
</g>
<!-- Node2 -->
<g id="node3" class="node">
<title>Node2</title>
<g id="a_node3"><a xlink:href="group__mat__formats.html" target="_top" xlink:title="A module dedicated to the implementation and usage of the various Matrix Formats in Ginkgo...">
<polygon fill="#ffffff" stroke="#000000" points="270,-159.665 270,-189.665 413,-189.665 413,-159.665 270,-159.665"/>
<text text-anchor="start" x="278" y="-177.665" font-family="Helvetica,sans-Serif" font-size="10.00" fill="#000000">SpMV employing different</text>
<text text-anchor="middle" x="341.5" y="-166.665" font-family="Helvetica,sans-Serif" font-size="10.00" fill="#000000"> Matrix formats</text>
</a>
</g>
</g>
<!-- Node0 -->
<g id="node4" class="node">
<title>Node0</title>
<polygon fill="#bfbfbf" stroke="#000000" points="0,-254.165 0,-273.165 98,-273.165 98,-254.165 0,-254.165"/>
<text text-anchor="middle" x="49" y="-261.165" font-family="Helvetica,sans-Serif" font-size="10.00" fill="#000000">Linear Operators</text>
</g>
<!-- Node0&#45;&gt;Node1 -->
<g id="edge1" class="edge">
<title>Node0&#45;&gt;Node1</title>
<path fill="none" stroke="#000000" d="M52.7437,-283.5224C59.5451,-313.4878 77.0021,-369.5323 116,-395.665 170.8115,-432.3945 250.7977,-428.6685 299.3114,-421.7667"/>
<polygon fill="#000000" stroke="#000000" points="56.1068,-282.5046 50.6361,-273.4315 49.2546,-283.9359 56.1068,-282.5046"/>
</g>
<!-- Node0&#45;&gt;Node3 -->
<g id="edge3" class="edge">
<title>Node0&#45;&gt;Node3</title>
<path fill="none" stroke="#000000" d="M54.2158,-283.0183C62.4432,-309.2375 81.1984,-355.0214 116,-374.665 186.0637,-414.2121 286.3811,-366.7919 325.2506,-345.2446"/>
<polygon fill="#000000" stroke="#000000" points="57.5723,-282.0261 51.4003,-273.4147 50.8551,-283.9955 57.5723,-282.0261"/>
</g>
<!-- Node0&#45;&gt;Node3 -->
<g id="edge5" class="edge">
<title>Node0&#45;&gt;Node3</title>
<path fill="none" stroke="#ffa500" stroke-dasharray="5,2" d="M98.0116,-271.8504C104.0664,-272.8207 110.173,-273.7797 116,-274.665 176.3391,-283.8317 193.4958,-276.2839 252,-293.665 278.6543,-301.5838 307.4147,-316.2993 324.9419,-326.0384"/>
<text text-anchor="middle" x="184" y="-362.665" font-family="Helvetica,sans-Serif" font-size="10.00" fill="#000000">gko::Preconditionable</text>
<text text-anchor="middle" x="184" y="-351.665" font-family="Helvetica,sans-Serif" font-size="10.00" fill="#000000">gko::preconditioner::Ilu</text>
<text text-anchor="start" x="127.5" y="-340.665" font-family="Helvetica,sans-Serif" font-size="10.00" fill="#000000">gko::preconditioner</text>
<text text-anchor="start" x="127.5" y="-329.665" font-family="Helvetica,sans-Serif" font-size="10.00" fill="#000000">::block_interleaved</text>
<text text-anchor="middle" x="184" y="-318.665" font-family="Helvetica,sans-Serif" font-size="10.00" fill="#000000">_storage_scheme</text>
<text text-anchor="start" x="127.5" y="-307.665" font-family="Helvetica,sans-Serif" font-size="10.00" fill="#000000">gko::preconditioner</text>
<text text-anchor="middle" x="184" y="-296.665" font-family="Helvetica,sans-Serif" font-size="10.00" fill="#000000">::Jacobi</text>
</g>
<!-- Node0&#45;&gt;Node2 -->
<g id="edge2" class="edge">
<title>Node0&#45;&gt;Node2</title>
<path fill="none" stroke="#000000" d="M108.0491,-269.0372C149.7499,-270.6073 206.1421,-268.1499 252,-249.665 284.1523,-236.7047 313.2844,-207.5949 329.0854,-189.6929"/>
<polygon fill="#000000" stroke="#000000" points="108.1993,-265.5405 98.0479,-268.5734 107.875,-272.533 108.1993,-265.5405"/>
</g>
<!-- Node0&#45;&gt;Node2 -->
<g id="edge6" class="edge">
<title>Node0&#45;&gt;Node2</title>
<path fill="none" stroke="#ffa500" stroke-dasharray="5,2" d="M51.0567,-254.1082C56.6717,-230.6902 74.6888,-170.6134 116,-146.665 177.7749,-110.8536 264.9221,-139.6788 310.6828,-159.6422"/>
<text text-anchor="middle" x="184" y="-237.665" font-family="Helvetica,sans-Serif" font-size="10.00" fill="#000000">gko::matrix::Coo</text>
<text text-anchor="middle" x="184" y="-226.665" font-family="Helvetica,sans-Serif" font-size="10.00" fill="#000000">gko::matrix::Csr</text>
<text text-anchor="middle" x="184" y="-215.665" font-family="Helvetica,sans-Serif" font-size="10.00" fill="#000000">gko::matrix::Dense</text>
<text text-anchor="middle" x="184" y="-204.665" font-family="Helvetica,sans-Serif" font-size="10.00" fill="#000000">gko::matrix::Ell</text>
<text text-anchor="middle" x="184" y="-193.665" font-family="Helvetica,sans-Serif" font-size="10.00" fill="#000000">gko::matrix::Hybrid</text>
<text text-anchor="middle" x="184" y="-182.665" font-family="Helvetica,sans-Serif" font-size="10.00" fill="#000000">gko::matrix::Identity</text>
<text text-anchor="middle" x="184" y="-171.665" font-family="Helvetica,sans-Serif" font-size="10.00" fill="#000000">gko::matrix::IdentityFactory</text>
<text text-anchor="middle" x="184" y="-160.665" font-family="Helvetica,sans-Serif" font-size="10.00" fill="#000000">gko::matrix::Sellp</text>
<text text-anchor="middle" x="184" y="-149.665" font-family="Helvetica,sans-Serif" font-size="10.00" fill="#000000">gko::matrix::Sparsity</text>
</g>
<!-- Node4 -->
<g id="node5" class="node">
<title>Node4</title>
<g id="a_node5"><a xlink:href="group__solvers.html" target="_top" xlink:title="A module dedicated to the implementation and usage of the Solvers in Ginkgo. ">
<polygon fill="#ffffff" stroke="#000000" points="315,-81.165 315,-100.165 368,-100.165 368,-81.165 315,-81.165"/>
<text text-anchor="middle" x="341.5" y="-88.165" font-family="Helvetica,sans-Serif" font-size="10.00" fill="#000000">Solvers</text>
</a>
</g>
</g>
<!-- Node0&#45;&gt;Node4 -->
<g id="edge4" class="edge">
<title>Node0&#45;&gt;Node4</title>
<path fill="none" stroke="#000000" d="M53.0177,-244.1169C60.1828,-214.5347 78.1151,-158.8632 116,-130.665 131.828,-118.884 258.6877,-101.3235 314.877,-94.0294"/>
<polygon fill="#000000" stroke="#000000" points="49.5599,-243.5411 50.7797,-254.0655 56.3892,-245.0775 49.5599,-243.5411"/>
</g>
<!-- Node0&#45;&gt;Node4 -->
<g id="edge7" class="edge">
<title>Node0&#45;&gt;Node4</title>
<path fill="none" stroke="#ffa500" stroke-dasharray="5,2" d="M50.1245,-254.105C55.1865,-212.8831 77.3145,-51.0953 116,-21.665 164.106,14.9321 194.7855,-2.1706 252,-21.665 286.9142,-33.5611 318.8161,-65.1969 333.3006,-81.1641"/>
<text text-anchor="middle" x="184" y="-90.665" font-family="Helvetica,sans-Serif" font-size="10.00" fill="#000000">gko::solver::Bicgstab</text>
<text text-anchor="middle" x="184" y="-79.665" font-family="Helvetica,sans-Serif" font-size="10.00" fill="#000000">gko::solver::Cg</text>
<text text-anchor="middle" x="184" y="-68.665" font-family="Helvetica,sans-Serif" font-size="10.00" fill="#000000">gko::solver::Cgs</text>
<text text-anchor="middle" x="184" y="-57.665" font-family="Helvetica,sans-Serif" font-size="10.00" fill="#000000">gko::solver::Fcg</text>
<text text-anchor="middle" x="184" y="-46.665" font-family="Helvetica,sans-Serif" font-size="10.00" fill="#000000">gko::solver::Gmres</text>
<text text-anchor="middle" x="184" y="-35.665" font-family="Helvetica,sans-Serif" font-size="10.00" fill="#000000">gko::solver::LowerTrs</text>
<text text-anchor="middle" x="184" y="-24.665" font-family="Helvetica,sans-Serif" font-size="10.00" fill="#000000">gko::solver::UpperTrs</text>
</g>
</g>
</svg>
