<?xml version="1.0" encoding="UTF-8" standalone="no"?>
<!DOCTYPE svg PUBLIC "-//W3C//DTD SVG 1.1//EN"
 "http://www.w3.org/Graphics/SVG/1.1/DTD/svg11.dtd">
<!-- Generated by graphviz version 2.40.1 (20161225.0304)
 -->
<!-- Title: Reference Executor Pages: 1 -->
<svg width="336pt" height="36pt"
 viewBox="0.00 0.00 336.00 36.19" xmlns="http://www.w3.org/2000/svg" xmlns:xlink="http://www.w3.org/1999/xlink">
<g id="graph0" class="graph" transform="scale(1 1) rotate(0) translate(4 32.1862)">
<title>Reference Executor</title>
<polygon fill="#ffffff" stroke="transparent" points="-4,4 -4,-32.1862 332,-32.1862 332,4 -4,4"/>
<!-- Node2 -->
<g id="node1" class="node">
<title>Node2</title>
<g id="a_node1"><a xlink:href="group__Executor.html" target="_top" xlink:title="A module dedicated to the implementation and usage of the executors in Ginkgo.">
<polygon fill="#ffffff" stroke="#000000" points="65,-28.1862 0,-28.1862 0,-9.1862 65,-9.1862 65,-28.1862"/>
<text text-anchor="middle" x="32.5" y="-16.1862" font-family="Helvetica,sans-Serif" font-size="10.00" fill="#000000">Executors</text>
</a>
</g>
</g>
<!-- Node1 -->
<g id="node2" class="node">
<title>Node1</title>
<g id="a_node2"><a xlink:title="A module dedicated to the implementation and usage of the Reference executor in Ginkgo.">
<polygon fill="#bfbfbf" stroke="#000000" points="328,-28.1862 217,-28.1862 217,-9.1862 328,-9.1862 328,-28.1862"/>
<text text-anchor="middle" x="272.5" y="-16.1862" font-family="Helvetica,sans-Serif" font-size="10.00" fill="#000000">Reference Executor</text>
</a>
</g>
</g>
<!-- Node2&#45;&gt;Node1 -->
<g id="edge1" class="edge">
<title>Node2&#45;&gt;Node1</title>
<path fill="none" stroke="#000000" d="M75.2223,-18.6862C114.7492,-18.6862 173.743,-18.6862 216.9209,-18.6862"/>
<polygon fill="#000000" stroke="#000000" points="75.1173,-15.1863 65.1172,-18.6862 75.1172,-22.1863 75.1173,-15.1863"/>
</g>
<!-- Node1&#45;&gt;Node2 -->
<g id="edge2" class="edge">
<title>Node1&#45;&gt;Node2</title>
<path fill="none" stroke="#ffa500" stroke-dasharray="5,2" d="M229.9423,-9.1742C219.8509,-7.3099 209.0872,-5.6383 199,-4.6862 147.6726,.1586 134.085,2.2638 83,-4.6862 75.9683,-5.6429 68.5334,-7.3162 61.5938,-9.1808"/>
<text text-anchor="middle" x="141" y="-7.6862" font-family="Helvetica,sans-Serif" font-size="10.00" fill="#000000">gko::ReferenceExecutor</text>
</g>
</g>
</svg>
