<?xml version="1.0" encoding="UTF-8" standalone="no"?>
<!DOCTYPE svg PUBLIC "-//W3C//DTD SVG 1.1//EN"
 "http://www.w3.org/Graphics/SVG/1.1/DTD/svg11.dtd">
<!-- Generated by graphviz version 2.40.1 (20161225.0304)
 -->
<!-- Title: Linear Operators Pages: 1 -->
<svg width="421pt" height="398pt"
 viewBox="0.00 0.00 421.00 397.94" xmlns="http://www.w3.org/2000/svg" xmlns:xlink="http://www.w3.org/1999/xlink">
<g id="graph0" class="graph" transform="scale(1 1) rotate(0) translate(4 393.9375)">
<title>Linear Operators</title>
<polygon fill="#ffffff" stroke="transparent" points="-4,4 -4,-393.9375 417,-393.9375 417,4 -4,4"/>
<!-- Node1 -->
<g id="node1" class="node">
<title>Node1</title>
<g id="a_node1"><a xlink:href="group__factor.html" target="_top" xlink:title="A module dedicated to the implementation and usage of the Factorizations in Ginkgo. ">
<polygon fill="#ffffff" stroke="#000000" points="299.5,-368.2247 299.5,-387.2247 383.5,-387.2247 383.5,-368.2247 299.5,-368.2247"/>
<text text-anchor="middle" x="341.5" y="-375.2247" font-family="Helvetica,sans-Serif" font-size="10.00" fill="#000000">Factorizations</text>
</a>
</g>
</g>
<!-- Node3 -->
<g id="node2" class="node">
<title>Node3</title>
<g id="a_node2"><a xlink:href="group__precond.html" target="_top" xlink:title="A module dedicated to the implementation and usage of the Preconditioners in Ginkgo. ">
<polygon fill="#ffffff" stroke="#000000" points="295.5,-296.2247 295.5,-315.2247 387.5,-315.2247 387.5,-296.2247 295.5,-296.2247"/>
<text text-anchor="middle" x="341.5" y="-303.2247" font-family="Helvetica,sans-Serif" font-size="10.00" fill="#000000">Preconditioners</text>
</a>
</g>
</g>
<!-- Node2 -->
<g id="node3" class="node">
<title>Node2</title>
<g id="a_node3"><a xlink:href="group__mat__formats.html" target="_top" xlink:title="A module dedicated to the implementation and usage of the various Matrix Formats in Ginkgo...">
<polygon fill="#ffffff" stroke="#000000" points="270,-143.7247 270,-173.7247 413,-173.7247 413,-143.7247 270,-143.7247"/>
<text text-anchor="start" x="278" y="-161.7247" font-family="Helvetica,sans-Serif" font-size="10.00" fill="#000000">SpMV employing different</text>
<text text-anchor="middle" x="341.5" y="-150.7247" font-family="Helvetica,sans-Serif" font-size="10.00" fill="#000000"> Matrix formats</text>
</a>
</g>
</g>
<!-- Node0 -->
<g id="node4" class="node">
<title>Node0</title>
<polygon fill="#bfbfbf" stroke="#000000" points="0,-229.2247 0,-248.2247 98,-248.2247 98,-229.2247 0,-229.2247"/>
<text text-anchor="middle" x="49" y="-236.2247" font-family="Helvetica,sans-Serif" font-size="10.00" fill="#000000">Linear Operators</text>
</g>
<!-- Node0&#45;&gt;Node1 -->
<g id="edge1" class="edge">
<title>Node0&#45;&gt;Node1</title>
<path fill="none" stroke="#000000" d="M53.5903,-258.1524C61.2842,-285.9517 79.6478,-336.302 116,-359.7247 171.2988,-395.3553 250.7714,-392.0658 299.1106,-385.5332"/>
<polygon fill="#000000" stroke="#000000" points="56.9591,-257.1993 51.0732,-248.3898 50.1807,-258.9469 56.9591,-257.1993"/>
</g>
<!-- Node0&#45;&gt;Node3 -->
<g id="edge3" class="edge">
<title>Node0&#45;&gt;Node3</title>
<path fill="none" stroke="#000000" d="M55.4483,-257.9317C64.6428,-281.8592 84.0412,-321.6683 116,-338.7247 185.6376,-375.8905 283.6855,-335.0889 323.5723,-315.2685"/>
<polygon fill="#000000" stroke="#000000" points="58.7215,-256.6911 52.0291,-248.4777 52.1388,-259.0719 58.7215,-256.6911"/>
</g>
<!-- Node0&#45;&gt;Node3 -->
<g id="edge5" class="edge">
<title>Node0&#45;&gt;Node3</title>
<path fill="none" stroke="#ffa500" stroke-dasharray="5,2" d="M98.0116,-246.9102C104.0664,-247.8805 110.173,-248.8395 116,-249.7247 176.3391,-258.8915 193.1055,-252.7159 252,-268.7247 277.1486,-275.5607 304.6538,-287.6827 322.4427,-296.1836"/>
<text text-anchor="middle" x="184" y="-326.7247" font-family="Helvetica,sans-Serif" font-size="10.00" fill="#000000">gko::Preconditionable</text>
<text text-anchor="start" x="131" y="-315.7247" font-family="Helvetica,sans-Serif" font-size="10.00" fill="#000000">gko::preconditioner</text>
<text text-anchor="start" x="131" y="-304.7247" font-family="Helvetica,sans-Serif" font-size="10.00" fill="#000000">::block_interleaved</text>
<text text-anchor="middle" x="184" y="-293.7247" font-family="Helvetica,sans-Serif" font-size="10.00" fill="#000000">_storage_scheme</text>
<text text-anchor="start" x="131" y="-282.7247" font-family="Helvetica,sans-Serif" font-size="10.00" fill="#000000">gko::preconditioner</text>
<text text-anchor="middle" x="184" y="-271.7247" font-family="Helvetica,sans-Serif" font-size="10.00" fill="#000000">::Jacobi</text>
</g>
<!-- Node0&#45;&gt;Node2 -->
<g id="edge2" class="edge">
<title>Node0&#45;&gt;Node2</title>
<path fill="none" stroke="#000000" d="M108.3844,-243.2327C149.859,-244.3405 205.8415,-241.6855 252,-224.7247 281.7193,-213.8045 310.0916,-189.7894 326.6459,-173.9389"/>
<polygon fill="#000000" stroke="#000000" points="108.2833,-239.7272 98.1673,-242.8764 108.0393,-246.7229 108.2833,-239.7272"/>
</g>
<!-- Node0&#45;&gt;Node2 -->
<g id="edge6" class="edge">
<title>Node0&#45;&gt;Node2</title>
<path fill="none" stroke="#ffa500" stroke-dasharray="5,2" d="M51.6416,-229.0729C58.2277,-207.1439 77.6727,-153.8407 116,-132.7247 177.6125,-98.7801 262.9379,-124.813 308.9531,-143.686"/>
<text text-anchor="middle" x="184" y="-212.7247" font-family="Helvetica,sans-Serif" font-size="10.00" fill="#000000">gko::matrix::Coo</text>
<text text-anchor="middle" x="184" y="-201.7247" font-family="Helvetica,sans-Serif" font-size="10.00" fill="#000000">gko::matrix::Csr</text>
<text text-anchor="middle" x="184" y="-190.7247" font-family="Helvetica,sans-Serif" font-size="10.00" fill="#000000">gko::matrix::Dense</text>
<text text-anchor="middle" x="184" y="-179.7247" font-family="Helvetica,sans-Serif" font-size="10.00" fill="#000000">gko::matrix::Ell</text>
<text text-anchor="middle" x="184" y="-168.7247" font-family="Helvetica,sans-Serif" font-size="10.00" fill="#000000">gko::matrix::Hybrid</text>
<text text-anchor="middle" x="184" y="-157.7247" font-family="Helvetica,sans-Serif" font-size="10.00" fill="#000000">gko::matrix::Identity</text>
<text text-anchor="middle" x="184" y="-146.7247" font-family="Helvetica,sans-Serif" font-size="10.00" fill="#000000">gko::matrix::IdentityFactory</text>
<text text-anchor="middle" x="184" y="-135.7247" font-family="Helvetica,sans-Serif" font-size="10.00" fill="#000000">gko::matrix::Sellp</text>
</g>
<!-- Node4 -->
<g id="node5" class="node">
<title>Node4</title>
<g id="a_node5"><a xlink:href="group__solvers.html" target="_top" xlink:title="A module dedicated to the implementation and usage of the Solvers in Ginkgo. ">
<polygon fill="#ffffff" stroke="#000000" points="315,-70.2247 315,-89.2247 368,-89.2247 368,-70.2247 315,-70.2247"/>
<text text-anchor="middle" x="341.5" y="-77.2247" font-family="Helvetica,sans-Serif" font-size="10.00" fill="#000000">Solvers</text>
</a>
</g>
</g>
<!-- Node0&#45;&gt;Node4 -->
<g id="edge4" class="edge">
<title>Node0&#45;&gt;Node4</title>
<path fill="none" stroke="#000000" d="M53.8072,-219.5357C61.772,-192.005 80.4704,-141.8547 116,-116.7247 132.0734,-105.3561 258.798,-89.3722 314.9141,-82.7655"/>
<polygon fill="#000000" stroke="#000000" points="50.428,-218.6246 51.1886,-229.1921 57.184,-220.4568 50.428,-218.6246"/>
</g>
<!-- Node0&#45;&gt;Node4 -->
<g id="edge7" class="edge">
<title>Node0&#45;&gt;Node4</title>
<path fill="none" stroke="#ffa500" stroke-dasharray="5,2" d="M50.4414,-229.0723C56.4459,-190.2993 80.8107,-46.7234 116,-20.7247 164.6151,15.1932 194.104,-3.3586 252,-20.7247 284.4433,-30.4562 315.9925,-56.1713 331.5209,-70.2246"/>
<text text-anchor="middle" x="184" y="-78.7247" font-family="Helvetica,sans-Serif" font-size="10.00" fill="#000000">gko::solver::Bicgstab</text>
<text text-anchor="middle" x="184" y="-67.7247" font-family="Helvetica,sans-Serif" font-size="10.00" fill="#000000">gko::solver::Cg</text>
<text text-anchor="middle" x="184" y="-56.7247" font-family="Helvetica,sans-Serif" font-size="10.00" fill="#000000">gko::solver::Cgs</text>
<text text-anchor="middle" x="184" y="-45.7247" font-family="Helvetica,sans-Serif" font-size="10.00" fill="#000000">gko::solver::Fcg</text>
<text text-anchor="middle" x="184" y="-34.7247" font-family="Helvetica,sans-Serif" font-size="10.00" fill="#000000">gko::solver::Gmres</text>
<text text-anchor="middle" x="184" y="-23.7247" font-family="Helvetica,sans-Serif" font-size="10.00" fill="#000000">gko::solver::LowerTrs</text>
</g>
</g>
</svg>
