<?xml version="1.0" encoding="UTF-8" standalone="no"?>
<!DOCTYPE svg PUBLIC "-//W3C//DTD SVG 1.1//EN"
 "http://www.w3.org/Graphics/SVG/1.1/DTD/svg11.dtd">
<!-- Generated by graphviz version 2.40.1 (20161225.0304)
 -->
<!-- Title: Solvers Pages: 1 -->
<svg width="298pt" height="98pt"
 viewBox="0.00 0.00 298.00 97.65" xmlns="http://www.w3.org/2000/svg" xmlns:xlink="http://www.w3.org/1999/xlink">
<g id="graph0" class="graph" transform="scale(1 1) rotate(0) translate(4 93.6487)">
<title>Solvers</title>
<polygon fill="#ffffff" stroke="transparent" points="-4,4 -4,-93.6487 294,-93.6487 294,4 -4,4"/>
<!-- Node1 -->
<g id="node1" class="node">
<title>Node1</title>
<g id="a_node1"><a xlink:href="group__LinOp.html" target="_top" xlink:title="A module dedicated to the implementation and usage of the Linear operators in Ginkgo. ">
<polygon fill="#ffffff" stroke="#000000" points="0,-45.0315 0,-64.0315 98,-64.0315 98,-45.0315 0,-45.0315"/>
<text text-anchor="middle" x="49" y="-52.0315" font-family="Helvetica,sans-Serif" font-size="10.00" fill="#000000">Linear Operators</text>
</a>
</g>
</g>
<!-- Node0 -->
<g id="node2" class="node">
<title>Node0</title>
<polygon fill="#bfbfbf" stroke="#000000" points="237,-45.0315 237,-64.0315 290,-64.0315 290,-45.0315 237,-45.0315"/>
<text text-anchor="middle" x="263.5" y="-52.0315" font-family="Helvetica,sans-Serif" font-size="10.00" fill="#000000">Solvers</text>
</g>
<!-- Node1&#45;&gt;Node0 -->
<g id="edge1" class="edge">
<title>Node1&#45;&gt;Node0</title>
<path fill="none" stroke="#000000" d="M76.5079,-68.3875C88.3447,-73.6118 102.5342,-78.9203 116,-81.5315 160.9406,-90.2462 174.9136,-93.8602 219,-81.5315 231.1837,-78.1244 243.3502,-70.3689 251.8745,-64.04"/>
<polygon fill="#000000" stroke="#000000" points="77.7318,-65.0974 67.1859,-64.0799 74.7955,-71.4518 77.7318,-65.0974"/>
</g>
<!-- Node0&#45;&gt;Node1 -->
<g id="edge2" class="edge">
<title>Node0&#45;&gt;Node1</title>
<path fill="none" stroke="#ffa500" stroke-dasharray="5,2" d="M256.9978,-44.8026C249.3365,-34.3109 235.5341,-18.2148 219,-11.5315 176.5583,5.6237 159.9274,1.352 116,-11.5315 93.9838,-17.9887 72.3483,-34.152 59.8569,-44.7187"/>
<text text-anchor="middle" x="167.5" y="-69.5315" font-family="Helvetica,sans-Serif" font-size="10.00" fill="#000000">gko::solver::Bicgstab</text>
<text text-anchor="middle" x="167.5" y="-58.5315" font-family="Helvetica,sans-Serif" font-size="10.00" fill="#000000">gko::solver::Cg</text>
<text text-anchor="middle" x="167.5" y="-47.5315" font-family="Helvetica,sans-Serif" font-size="10.00" fill="#000000">gko::solver::Cgs</text>
<text text-anchor="middle" x="167.5" y="-36.5315" font-family="Helvetica,sans-Serif" font-size="10.00" fill="#000000">gko::solver::Fcg</text>
<text text-anchor="middle" x="167.5" y="-25.5315" font-family="Helvetica,sans-Serif" font-size="10.00" fill="#000000">gko::solver::Gmres</text>
<text text-anchor="middle" x="167.5" y="-14.5315" font-family="Helvetica,sans-Serif" font-size="10.00" fill="#000000">gko::solver::LowerTrs</text>
</g>
</g>
</svg>
