<?xml version="1.0" encoding="UTF-8" standalone="no"?>
<!DOCTYPE svg PUBLIC "-//W3C//DTD SVG 1.1//EN"
 "http://www.w3.org/Graphics/SVG/1.1/DTD/svg11.dtd">
<!-- Generated by graphviz version 2.40.1 (20161225.0304)
 -->
<!-- Title: Linear Operators Pages: 1 -->
<svg width="421pt" height="383pt"
 viewBox="0.00 0.00 421.00 383.46" xmlns="http://www.w3.org/2000/svg" xmlns:xlink="http://www.w3.org/1999/xlink">
<g id="graph0" class="graph" transform="scale(1 1) rotate(0) translate(4 379.4625)">
<title>Linear Operators</title>
<polygon fill="#ffffff" stroke="transparent" points="-4,4 -4,-379.4625 417,-379.4625 417,4 -4,4"/>
<!-- Node1 -->
<g id="node1" class="node">
<title>Node1</title>
<g id="a_node1"><a xlink:href="group__factor.html" target="_top" xlink:title="A module dedicated to the implementation and usage of the Factorizations in Ginkgo. ">
<polygon fill="#ffffff" stroke="#000000" points="299.5,-353.7498 299.5,-372.7498 383.5,-372.7498 383.5,-353.7498 299.5,-353.7498"/>
<text text-anchor="middle" x="341.5" y="-360.7498" font-family="Helvetica,sans-Serif" font-size="10.00" fill="#000000">Factorizations</text>
</a>
</g>
</g>
<!-- Node3 -->
<g id="node2" class="node">
<title>Node3</title>
<g id="a_node2"><a xlink:href="group__precond.html" target="_top" xlink:title="A module dedicated to the implementation and usage of the Preconditioners in Ginkgo. ">
<polygon fill="#ffffff" stroke="#000000" points="295.5,-281.7498 295.5,-300.7498 387.5,-300.7498 387.5,-281.7498 295.5,-281.7498"/>
<text text-anchor="middle" x="341.5" y="-288.7498" font-family="Helvetica,sans-Serif" font-size="10.00" fill="#000000">Preconditioners</text>
</a>
</g>
</g>
<!-- Node2 -->
<g id="node3" class="node">
<title>Node2</title>
<g id="a_node3"><a xlink:href="group__mat__formats.html" target="_top" xlink:title="A module dedicated to the implementation and usage of the various Matrix Formats in Ginkgo...">
<polygon fill="#ffffff" stroke="#000000" points="270,-126.2498 270,-156.2498 413,-156.2498 413,-126.2498 270,-126.2498"/>
<text text-anchor="start" x="278" y="-144.2498" font-family="Helvetica,sans-Serif" font-size="10.00" fill="#000000">SpMV employing different</text>
<text text-anchor="middle" x="341.5" y="-133.2498" font-family="Helvetica,sans-Serif" font-size="10.00" fill="#000000"> Matrix formats</text>
</a>
</g>
</g>
<!-- Node0 -->
<g id="node4" class="node">
<title>Node0</title>
<polygon fill="#bfbfbf" stroke="#000000" points="0,-214.7498 0,-233.7498 98,-233.7498 98,-214.7498 0,-214.7498"/>
<text text-anchor="middle" x="49" y="-221.7498" font-family="Helvetica,sans-Serif" font-size="10.00" fill="#000000">Linear Operators</text>
</g>
<!-- Node0&#45;&gt;Node1 -->
<g id="edge1" class="edge">
<title>Node0&#45;&gt;Node1</title>
<path fill="none" stroke="#000000" d="M53.5903,-243.6775C61.2842,-271.4768 79.6478,-321.8271 116,-345.2498 171.2988,-380.8804 250.7714,-377.5909 299.1106,-371.0583"/>
<polygon fill="#000000" stroke="#000000" points="56.9591,-242.7243 51.0732,-233.9148 50.1807,-244.472 56.9591,-242.7243"/>
</g>
<!-- Node0&#45;&gt;Node3 -->
<g id="edge3" class="edge">
<title>Node0&#45;&gt;Node3</title>
<path fill="none" stroke="#000000" d="M55.4483,-243.4567C64.6428,-267.3843 84.0412,-307.1933 116,-324.2498 185.6376,-361.4156 283.6855,-320.614 323.5723,-300.7936"/>
<polygon fill="#000000" stroke="#000000" points="58.7215,-242.2162 52.0291,-234.0027 52.1388,-244.597 58.7215,-242.2162"/>
</g>
<!-- Node0&#45;&gt;Node3 -->
<g id="edge5" class="edge">
<title>Node0&#45;&gt;Node3</title>
<path fill="none" stroke="#ffa500" stroke-dasharray="5,2" d="M98.0116,-232.4353C104.0664,-233.4055 110.173,-234.3646 116,-235.2498 176.3391,-244.4166 193.1055,-238.241 252,-254.2498 277.1486,-261.0858 304.6538,-273.2077 322.4427,-281.7087"/>
<text text-anchor="middle" x="184" y="-312.2498" font-family="Helvetica,sans-Serif" font-size="10.00" fill="#000000">gko::Preconditionable</text>
<text text-anchor="start" x="131" y="-301.2498" font-family="Helvetica,sans-Serif" font-size="10.00" fill="#000000">gko::preconditioner</text>
<text text-anchor="start" x="131" y="-290.2498" font-family="Helvetica,sans-Serif" font-size="10.00" fill="#000000">::block_interleaved</text>
<text text-anchor="middle" x="184" y="-279.2498" font-family="Helvetica,sans-Serif" font-size="10.00" fill="#000000">_storage_scheme</text>
<text text-anchor="start" x="131" y="-268.2498" font-family="Helvetica,sans-Serif" font-size="10.00" fill="#000000">gko::preconditioner</text>
<text text-anchor="middle" x="184" y="-257.2498" font-family="Helvetica,sans-Serif" font-size="10.00" fill="#000000">::Jacobi</text>
</g>
<!-- Node0&#45;&gt;Node2 -->
<g id="edge2" class="edge">
<title>Node0&#45;&gt;Node2</title>
<path fill="none" stroke="#000000" d="M108.4991,-229.0651C150.0267,-230.3147 206.0253,-227.7028 252,-210.2498 282.6321,-198.6213 311.3858,-172.8012 327.6763,-156.2537"/>
<polygon fill="#000000" stroke="#000000" points="108.3954,-225.5586 98.268,-228.6709 108.1258,-232.5534 108.3954,-225.5586"/>
</g>
<!-- Node0&#45;&gt;Node2 -->
<g id="edge6" class="edge">
<title>Node0&#45;&gt;Node2</title>
<path fill="none" stroke="#ffa500" stroke-dasharray="5,2" d="M51.6416,-214.598C58.2277,-192.6689 77.6727,-139.3658 116,-118.2498 176.6629,-84.8284 260.4983,-108.2325 306.9713,-126.1239"/>
<text text-anchor="middle" x="184" y="-198.2498" font-family="Helvetica,sans-Serif" font-size="10.00" fill="#000000">gko::matrix::Coo</text>
<text text-anchor="middle" x="184" y="-187.2498" font-family="Helvetica,sans-Serif" font-size="10.00" fill="#000000">gko::matrix::Csr</text>
<text text-anchor="middle" x="184" y="-176.2498" font-family="Helvetica,sans-Serif" font-size="10.00" fill="#000000">gko::matrix::Dense</text>
<text text-anchor="middle" x="184" y="-165.2498" font-family="Helvetica,sans-Serif" font-size="10.00" fill="#000000">gko::matrix::Ell</text>
<text text-anchor="middle" x="184" y="-154.2498" font-family="Helvetica,sans-Serif" font-size="10.00" fill="#000000">gko::matrix::Hybrid</text>
<text text-anchor="middle" x="184" y="-143.2498" font-family="Helvetica,sans-Serif" font-size="10.00" fill="#000000">gko::matrix::Identity</text>
<text text-anchor="middle" x="184" y="-132.2498" font-family="Helvetica,sans-Serif" font-size="10.00" fill="#000000">gko::matrix::IdentityFactory</text>
<text text-anchor="middle" x="184" y="-121.2498" font-family="Helvetica,sans-Serif" font-size="10.00" fill="#000000">gko::matrix::Sellp</text>
</g>
<!-- Node4 -->
<g id="node5" class="node">
<title>Node4</title>
<g id="a_node5"><a xlink:href="group__solvers.html" target="_top" xlink:title="A module dedicated to the implementation and usage of the Solvers in Ginkgo. ">
<polygon fill="#ffffff" stroke="#000000" points="315,-58.7498 315,-77.7498 368,-77.7498 368,-58.7498 315,-58.7498"/>
<text text-anchor="middle" x="341.5" y="-65.7498" font-family="Helvetica,sans-Serif" font-size="10.00" fill="#000000">Solvers</text>
</a>
</g>
</g>
<!-- Node0&#45;&gt;Node4 -->
<g id="edge4" class="edge">
<title>Node0&#45;&gt;Node4</title>
<path fill="none" stroke="#000000" d="M53.7644,-204.9998C61.6758,-177.3931 80.3081,-127.1487 116,-102.2498 132.1139,-91.0087 258.8162,-76.7583 314.9203,-70.9238"/>
<polygon fill="#000000" stroke="#000000" points="50.3769,-204.1193 51.1658,-214.6848 57.1378,-205.9334 50.3769,-204.1193"/>
</g>
<!-- Node0&#45;&gt;Node4 -->
<g id="edge7" class="edge">
<title>Node0&#45;&gt;Node4</title>
<path fill="none" stroke="#ffa500" stroke-dasharray="5,2" d="M50.6165,-214.6167C57.1049,-177.2235 82.5284,-42.5609 116,-18.2498 183.6481,30.8843 290.6856,-33.1832 328.0776,-58.6498"/>
<text text-anchor="middle" x="184" y="-65.2498" font-family="Helvetica,sans-Serif" font-size="10.00" fill="#000000">gko::solver::Bicgstab</text>
<text text-anchor="middle" x="184" y="-54.2498" font-family="Helvetica,sans-Serif" font-size="10.00" fill="#000000">gko::solver::Cg</text>
<text text-anchor="middle" x="184" y="-43.2498" font-family="Helvetica,sans-Serif" font-size="10.00" fill="#000000">gko::solver::Cgs</text>
<text text-anchor="middle" x="184" y="-32.2498" font-family="Helvetica,sans-Serif" font-size="10.00" fill="#000000">gko::solver::Fcg</text>
<text text-anchor="middle" x="184" y="-21.2498" font-family="Helvetica,sans-Serif" font-size="10.00" fill="#000000">gko::solver::Gmres</text>
</g>
</g>
</svg>
