<?xml version="1.0" encoding="UTF-8" standalone="no"?>
<!DOCTYPE svg PUBLIC "-//W3C//DTD SVG 1.1//EN"
 "http://www.w3.org/Graphics/SVG/1.1/DTD/svg11.dtd">
<!-- Generated by graphviz version 2.40.1 (20161225.0304)
 -->
<!-- Title: Linear Operators Pages: 1 -->
<svg width="421pt" height="672pt"
 viewBox="0.00 0.00 421.00 672.07" xmlns="http://www.w3.org/2000/svg" xmlns:xlink="http://www.w3.org/1999/xlink">
<g id="graph0" class="graph" transform="scale(1 1) rotate(0) translate(4 668.0727)">
<title>Linear Operators</title>
<polygon fill="#ffffff" stroke="transparent" points="-4,4 -4,-668.0727 417,-668.0727 417,4 -4,4"/>
<!-- Node2 -->
<g id="node1" class="node">
<title>Node2</title>
<g id="a_node1"><a xlink:href="group__factor.html" target="_top" xlink:title="A module dedicated to the implementation and usage of the Factorizations in Ginkgo.">
<polygon fill="#ffffff" stroke="#000000" points="383.5,-605.0043 299.5,-605.0043 299.5,-586.0043 383.5,-586.0043 383.5,-605.0043"/>
<text text-anchor="middle" x="341.5" y="-593.0043" font-family="Helvetica,sans-Serif" font-size="10.00" fill="#000000">Factorizations</text>
</a>
</g>
</g>
<!-- Node4 -->
<g id="node2" class="node">
<title>Node4</title>
<g id="a_node2"><a xlink:href="group__precond.html" target="_top" xlink:title="A module dedicated to the implementation and usage of the Preconditioners in Ginkgo.">
<polygon fill="#ffffff" stroke="#000000" points="387.5,-464.0043 295.5,-464.0043 295.5,-445.0043 387.5,-445.0043 387.5,-464.0043"/>
<text text-anchor="middle" x="341.5" y="-452.0043" font-family="Helvetica,sans-Serif" font-size="10.00" fill="#000000">Preconditioners</text>
</a>
</g>
</g>
<!-- Node3 -->
<g id="node3" class="node">
<title>Node3</title>
<g id="a_node3"><a xlink:href="group__mat__formats.html" target="_top" xlink:title="A module dedicated to the implementation and usage of the various Matrix Formats in Ginkgo.">
<polygon fill="#ffffff" stroke="#000000" points="413,-322.5043 270,-322.5043 270,-292.5043 413,-292.5043 413,-322.5043"/>
<text text-anchor="start" x="278" y="-310.5043" font-family="Helvetica,sans-Serif" font-size="10.00" fill="#000000">SpMV employing different</text>
<text text-anchor="middle" x="341.5" y="-299.5043" font-family="Helvetica,sans-Serif" font-size="10.00" fill="#000000"> Matrix formats</text>
</a>
</g>
</g>
<!-- Node6 -->
<g id="node4" class="node">
<title>Node6</title>
<g id="a_node4"><a xlink:href="group__jacobi.html" target="_top" xlink:title="A module dedicated to the implementation and usage of the Jacobi Preconditioner in Ginkgo.">
<polygon fill="#ffffff" stroke="#000000" points="401,-204.0043 282,-204.0043 282,-185.0043 401,-185.0043 401,-204.0043"/>
<text text-anchor="middle" x="341.5" y="-192.0043" font-family="Helvetica,sans-Serif" font-size="10.00" fill="#000000">Jacobi Preconditioner</text>
</a>
</g>
</g>
<!-- Node1 -->
<g id="node5" class="node">
<title>Node1</title>
<g id="a_node5"><a xlink:title="A module dedicated to the implementation and usage of the Linear operators in Ginkgo.">
<polygon fill="#bfbfbf" stroke="#000000" points="98,-385.0043 0,-385.0043 0,-366.0043 98,-366.0043 98,-385.0043"/>
<text text-anchor="middle" x="49" y="-373.0043" font-family="Helvetica,sans-Serif" font-size="10.00" fill="#000000">Linear Operators</text>
</a>
</g>
</g>
<!-- Node1&#45;&gt;Node2 -->
<g id="edge1" class="edge">
<title>Node1&#45;&gt;Node2</title>
<path fill="none" stroke="#000000" d="M50.853,-395.4004C56.5996,-452.2616 76.1762,-613.3827 116,-644.5043 181.9751,-696.0625 290.5253,-630.7764 328.1598,-605.0663"/>
<polygon fill="#000000" stroke="#000000" points="54.3134,-394.8229 49.8601,-385.2094 47.3464,-395.5017 54.3134,-394.8229"/>
</g>
<!-- Node1&#45;&gt;Node2 -->
<g id="edge6" class="edge">
<title>Node1&#45;&gt;Node2</title>
<path fill="none" stroke="#ffa500" stroke-dasharray="5,2" d="M50.7522,-385.141C55.8328,-410.0888 73.035,-477.0289 116,-508.5043 165.394,-544.6895 195.4672,-506.9846 252,-530.5043 284.4467,-544.0032 316.2394,-571.418 331.7328,-585.9553"/>
<text text-anchor="middle" x="184" y="-632.5043" font-family="Helvetica,sans-Serif" font-size="10.00" fill="#000000">gko::factorization::Ic</text>
<text text-anchor="middle" x="184" y="-621.5043" font-family="Helvetica,sans-Serif" font-size="10.00" fill="#000000">gko::factorization::Ilu</text>
<text text-anchor="start" x="132" y="-610.5043" font-family="Helvetica,sans-Serif" font-size="10.00" fill="#000000">gko::factorization</text>
<text text-anchor="middle" x="184" y="-599.5043" font-family="Helvetica,sans-Serif" font-size="10.00" fill="#000000">::ParIc</text>
<text text-anchor="start" x="132" y="-588.5043" font-family="Helvetica,sans-Serif" font-size="10.00" fill="#000000">gko::factorization</text>
<text text-anchor="middle" x="184" y="-577.5043" font-family="Helvetica,sans-Serif" font-size="10.00" fill="#000000">::ParIct</text>
<text text-anchor="start" x="132" y="-566.5043" font-family="Helvetica,sans-Serif" font-size="10.00" fill="#000000">gko::factorization</text>
<text text-anchor="middle" x="184" y="-555.5043" font-family="Helvetica,sans-Serif" font-size="10.00" fill="#000000">::ParIlu</text>
<text text-anchor="start" x="132" y="-544.5043" font-family="Helvetica,sans-Serif" font-size="10.00" fill="#000000">gko::factorization</text>
<text text-anchor="middle" x="184" y="-533.5043" font-family="Helvetica,sans-Serif" font-size="10.00" fill="#000000">::ParIlut</text>
</g>
<!-- Node1&#45;&gt;Node4 -->
<g id="edge3" class="edge">
<title>Node1&#45;&gt;Node4</title>
<path fill="none" stroke="#000000" d="M54.2158,-394.8576C62.4432,-421.0768 81.1984,-466.8607 116,-486.5043 184.8695,-525.3773 283.7647,-483.98 323.7358,-464.0085"/>
<polygon fill="#000000" stroke="#000000" points="57.5723,-393.8654 51.4003,-385.254 50.8551,-395.8348 57.5723,-393.8654"/>
</g>
<!-- Node1&#45;&gt;Node4 -->
<g id="edge5" class="edge">
<title>Node1&#45;&gt;Node4</title>
<path fill="none" stroke="#ffa500" stroke-dasharray="5,2" d="M98.4561,-381.8843C153.8324,-389.1748 237.7304,-400.7149 252,-405.5043 280.5495,-415.0863 310.6493,-433.5502 327.6507,-444.8742"/>
<text text-anchor="middle" x="184" y="-474.5043" font-family="Helvetica,sans-Serif" font-size="10.00" fill="#000000">gko::Preconditionable</text>
<text text-anchor="middle" x="184" y="-463.5043" font-family="Helvetica,sans-Serif" font-size="10.00" fill="#000000">gko::preconditioner::Ic</text>
<text text-anchor="middle" x="184" y="-452.5043" font-family="Helvetica,sans-Serif" font-size="10.00" fill="#000000">gko::preconditioner::Ilu</text>
<text text-anchor="start" x="127.5" y="-441.5043" font-family="Helvetica,sans-Serif" font-size="10.00" fill="#000000">gko::preconditioner</text>
<text text-anchor="middle" x="184" y="-430.5043" font-family="Helvetica,sans-Serif" font-size="10.00" fill="#000000">::Isai</text>
<text text-anchor="start" x="127.5" y="-419.5043" font-family="Helvetica,sans-Serif" font-size="10.00" fill="#000000">gko::preconditioner</text>
<text text-anchor="middle" x="184" y="-408.5043" font-family="Helvetica,sans-Serif" font-size="10.00" fill="#000000">::Jacobi</text>
</g>
<!-- Node1&#45;&gt;Node3 -->
<g id="edge2" class="edge">
<title>Node1&#45;&gt;Node3</title>
<path fill="none" stroke="#000000" d="M108.3358,-378.6726C149.5585,-379.1367 205.2618,-376.2632 252,-361.5043 278.4767,-353.1435 305.2743,-335.488 322.5518,-322.6343"/>
<polygon fill="#000000" stroke="#000000" points="108.2437,-375.1704 98.1816,-378.4879 108.1163,-382.1693 108.2437,-375.1704"/>
</g>
<!-- Node1&#45;&gt;Node3 -->
<g id="edge7" class="edge">
<title>Node1&#45;&gt;Node3</title>
<path fill="none" stroke="#ffa500" stroke-dasharray="5,2" d="M50.2065,-365.8024C54.0749,-339.3799 68.8142,-266.1413 116,-236.5043 141.5928,-220.4296 223.461,-226.559 252,-236.5043 283.6521,-247.5344 312.5182,-274.9435 328.4825,-292.2993"/>
<text text-anchor="middle" x="184" y="-349.5043" font-family="Helvetica,sans-Serif" font-size="10.00" fill="#000000">gko::matrix::Coo</text>
<text text-anchor="middle" x="184" y="-338.5043" font-family="Helvetica,sans-Serif" font-size="10.00" fill="#000000">gko::matrix::Csr</text>
<text text-anchor="middle" x="184" y="-327.5043" font-family="Helvetica,sans-Serif" font-size="10.00" fill="#000000">gko::matrix::Dense</text>
<text text-anchor="middle" x="184" y="-316.5043" font-family="Helvetica,sans-Serif" font-size="10.00" fill="#000000">gko::matrix::Diagonal</text>
<text text-anchor="middle" x="184" y="-305.5043" font-family="Helvetica,sans-Serif" font-size="10.00" fill="#000000">gko::matrix::Ell</text>
<text text-anchor="middle" x="184" y="-294.5043" font-family="Helvetica,sans-Serif" font-size="10.00" fill="#000000">gko::matrix::Hybrid</text>
<text text-anchor="middle" x="184" y="-283.5043" font-family="Helvetica,sans-Serif" font-size="10.00" fill="#000000">gko::matrix::Identity</text>
<text text-anchor="middle" x="184" y="-272.5043" font-family="Helvetica,sans-Serif" font-size="10.00" fill="#000000">gko::matrix::IdentityFactory</text>
<text text-anchor="middle" x="184" y="-261.5043" font-family="Helvetica,sans-Serif" font-size="10.00" fill="#000000">gko::matrix::Permutation</text>
<text text-anchor="middle" x="184" y="-250.5043" font-family="Helvetica,sans-Serif" font-size="10.00" fill="#000000">gko::matrix::Sellp</text>
<text text-anchor="middle" x="184" y="-239.5043" font-family="Helvetica,sans-Serif" font-size="10.00" fill="#000000">...</text>
</g>
<!-- Node1&#45;&gt;Node6 -->
<g id="edge8" class="edge">
<title>Node1&#45;&gt;Node6</title>
<path fill="none" stroke="#ffa500" stroke-dasharray="5,2" d="M51.1851,-365.9769C59.0803,-332.4582 87.1876,-220.8949 116,-200.5043 173.3818,-159.8949 261.1599,-173.284 308.4969,-184.9124"/>
<text text-anchor="start" x="136.5" y="-214.5043" font-family="Helvetica,sans-Serif" font-size="10.00" fill="#000000">gko::preconditioner</text>
<text text-anchor="middle" x="184" y="-203.5043" font-family="Helvetica,sans-Serif" font-size="10.00" fill="#000000">::Jacobi</text>
</g>
<!-- Node5 -->
<g id="node6" class="node">
<title>Node5</title>
<g id="a_node6"><a xlink:href="group__solvers.html" target="_top" xlink:title="A module dedicated to the implementation and usage of the Solvers in Ginkgo.">
<polygon fill="#ffffff" stroke="#000000" points="368,-101.0043 315,-101.0043 315,-82.0043 368,-82.0043 368,-101.0043"/>
<text text-anchor="middle" x="341.5" y="-89.0043" font-family="Helvetica,sans-Serif" font-size="10.00" fill="#000000">Solvers</text>
</a>
</g>
</g>
<!-- Node1&#45;&gt;Node5 -->
<g id="edge4" class="edge">
<title>Node1&#45;&gt;Node5</title>
<path fill="none" stroke="#000000" d="M52.9461,-356.0511C62.5276,-310.7266 88.2804,-200.0772 116,-175.5043 162.1794,-134.567 194.7147,-170.4561 252,-147.5043 281.775,-135.5747 312.6654,-113.7862 329.2323,-101.1926"/>
<polygon fill="#000000" stroke="#000000" points="49.5186,-355.3427 50.9138,-365.8453 56.3726,-356.7649 49.5186,-355.3427"/>
</g>
<!-- Node1&#45;&gt;Node5 -->
<g id="edge9" class="edge">
<title>Node1&#45;&gt;Node5</title>
<path fill="none" stroke="#ffa500" stroke-dasharray="5,2" d="M49.2531,-365.7326C50.8282,-313.5032 61.1082,-67.9575 116,-22.5043 162.5554,16.046 194.7855,-3.0099 252,-22.5043 286.9142,-34.4004 318.8161,-66.0362 333.3006,-82.0034"/>
<text text-anchor="middle" x="184" y="-135.5043" font-family="Helvetica,sans-Serif" font-size="10.00" fill="#000000">gko::solver::Bicg</text>
<text text-anchor="middle" x="184" y="-124.5043" font-family="Helvetica,sans-Serif" font-size="10.00" fill="#000000">gko::solver::Bicgstab</text>
<text text-anchor="middle" x="184" y="-113.5043" font-family="Helvetica,sans-Serif" font-size="10.00" fill="#000000">gko::solver::Cg</text>
<text text-anchor="middle" x="184" y="-102.5043" font-family="Helvetica,sans-Serif" font-size="10.00" fill="#000000">gko::solver::Cgs</text>
<text text-anchor="middle" x="184" y="-91.5043" font-family="Helvetica,sans-Serif" font-size="10.00" fill="#000000">gko::solver::Fcg</text>
<text text-anchor="middle" x="184" y="-80.5043" font-family="Helvetica,sans-Serif" font-size="10.00" fill="#000000">gko::solver::Gmres</text>
<text text-anchor="middle" x="184" y="-69.5043" font-family="Helvetica,sans-Serif" font-size="10.00" fill="#000000">gko::solver::Idr</text>
<text text-anchor="middle" x="184" y="-58.5043" font-family="Helvetica,sans-Serif" font-size="10.00" fill="#000000">gko::solver::Ir</text>
<text text-anchor="middle" x="184" y="-47.5043" font-family="Helvetica,sans-Serif" font-size="10.00" fill="#000000">gko::solver::LowerTrs</text>
<text text-anchor="middle" x="184" y="-36.5043" font-family="Helvetica,sans-Serif" font-size="10.00" fill="#000000">gko::solver::UpperTrs</text>
<text text-anchor="middle" x="184" y="-25.5043" font-family="Helvetica,sans-Serif" font-size="10.00" fill="#000000">...</text>
</g>
</g>
</svg>
