<?xml version="1.0" encoding="UTF-8" standalone="no"?>
<!DOCTYPE svg PUBLIC "-//W3C//DTD SVG 1.1//EN"
 "http://www.w3.org/Graphics/SVG/1.1/DTD/svg11.dtd">
<!-- Generated by graphviz version 2.40.1 (20161225.0304)
 -->
<!-- Title: Linear Operators Pages: 1 -->
<!--zoomable 565 -->
<svg id="main" version="1.1" xmlns="http://www.w3.org/2000/svg" xmlns:xlink="http://www.w3.org/1999/xlink" xml:space="preserve" onload="init(evt)">
<style type="text/css"><![CDATA[
.edge:hover path { stroke: red; }
.edge:hover polygon { stroke: red; fill: red; }
]]></style>
<script type="text/javascript"><![CDATA[
var edges = document.getElementsByTagName('g');
if (edges && edges.length) {
  for (var i=0;i<edges.length;i++) {
    if (edges[i].id.substr(0,4)=='edge') {
      edges[i].setAttribute('class','edge');
    }
  }
}
]]></script>
        <defs>
                <circle id="rim" cx="0" cy="0" r="7"/>
                <circle id="rim2" cx="0" cy="0" r="3.5"/>
                <g id="zoomPlus">
                        <use xlink:href="#rim" fill="#404040">
                                <set attributeName="fill" to="#808080" begin="zoomplus.mouseover" end="zoomplus.mouseout"/>
                        </use>
                        <path d="M-4,0h8M0,-4v8" fill="none" stroke="white" stroke-width="1.5" pointer-events="none"/>
                </g>
                <g id="zoomMin">
                        <use xlink:href="#rim" fill="#404040">
                                <set attributeName="fill" to="#808080" begin="zoomminus.mouseover" end="zoomminus.mouseout"/>
                        </use>
                        <path d="M-4,0h8" fill="none" stroke="white" stroke-width="1.5" pointer-events="none"/>
                </g>
                <g id="dirArrow">
                        <path fill="none" stroke="white" stroke-width="1.5" d="M0,-3.0v7 M-2.5,-0.5L0,-3.0L2.5,-0.5"/>
                </g>
               <g id="resetDef">
                       <use xlink:href="#rim2" fill="#404040">
                               <set attributeName="fill" to="#808080" begin="reset.mouseover" end="reset.mouseout"/>
                       </use>
               </g>
        </defs>

<script type="text/javascript">
var viewWidth = 421;
var viewHeight = 565;
var sectionId = 'dynsection-0';
</script>
<script xlink:href="svgpan.js"/>
<svg id="graph" class="graph">
<g id="viewport">
<title>Linear Operators</title>
<polygon fill="#ffffff" stroke="transparent" points="-4,4 -4,-560.9447 417,-560.9447 417,4 -4,4"/>
<!-- Node2 -->
<g id="node1" class="node">
<title>Node2</title>
<g id="a_node1"><a xlink:href="group__factor.html" target="_top" xlink:title="A module dedicated to the implementation and usage of the Factorizations in Ginkgo.">
<polygon fill="#ffffff" stroke="#000000" points="383.5,-533.1649 299.5,-533.1649 299.5,-514.1649 383.5,-514.1649 383.5,-533.1649"/>
<text text-anchor="middle" x="341.5" y="-521.1649" font-family="Helvetica,sans-Serif" font-size="10.00" fill="#000000">Factorizations</text>
</a>
</g>
</g>
<!-- Node4 -->
<g id="node2" class="node">
<title>Node4</title>
<g id="a_node2"><a xlink:href="group__precond.html" target="_top" xlink:title="A module dedicated to the implementation and usage of the Preconditioners in Ginkgo.">
<polygon fill="#ffffff" stroke="#000000" points="387.5,-435.1649 295.5,-435.1649 295.5,-416.1649 387.5,-416.1649 387.5,-435.1649"/>
<text text-anchor="middle" x="341.5" y="-423.1649" font-family="Helvetica,sans-Serif" font-size="10.00" fill="#000000">Preconditioners</text>
</a>
</g>
</g>
<!-- Node3 -->
<g id="node3" class="node">
<title>Node3</title>
<g id="a_node3"><a xlink:href="group__mat__formats.html" target="_top" xlink:title="A module dedicated to the implementation and usage of the various Matrix Formats in Ginkgo.">
<polygon fill="#ffffff" stroke="#000000" points="413,-299.6649 270,-299.6649 270,-269.6649 413,-269.6649 413,-299.6649"/>
<text text-anchor="start" x="278" y="-287.6649" font-family="Helvetica,sans-Serif" font-size="10.00" fill="#000000">SpMV employing different</text>
<text text-anchor="middle" x="341.5" y="-276.6649" font-family="Helvetica,sans-Serif" font-size="10.00" fill="#000000"> Matrix formats</text>
</a>
</g>
</g>
<!-- Node6 -->
<g id="node4" class="node">
<title>Node6</title>
<g id="a_node4"><a xlink:href="group__jacobi.html" target="_top" xlink:title="A module dedicated to the implementation and usage of the Jacobi Preconditioner in Ginkgo.">
<polygon fill="#ffffff" stroke="#000000" points="401,-181.1649 282,-181.1649 282,-162.1649 401,-162.1649 401,-181.1649"/>
<text text-anchor="middle" x="341.5" y="-169.1649" font-family="Helvetica,sans-Serif" font-size="10.00" fill="#000000">Jacobi Preconditioner</text>
</a>
</g>
</g>
<!-- Node1 -->
<g id="node5" class="node">
<title>Node1</title>
<g id="a_node5"><a xlink:title="A module dedicated to the implementation and usage of the Linear operators in Ginkgo.">
<polygon fill="#bfbfbf" stroke="#000000" points="98,-362.1649 0,-362.1649 0,-343.1649 98,-343.1649 98,-362.1649"/>
<text text-anchor="middle" x="49" y="-350.1649" font-family="Helvetica,sans-Serif" font-size="10.00" fill="#000000">Linear Operators</text>
</a>
</g>
</g>
<!-- Node1&#45;&gt;Node2 -->
<g id="edge1" class="edge">
<title>Node1&#45;&gt;Node2</title>
<path fill="none" stroke="#000000" d="M53.3234,-372.3529C63.171,-415.1913 88.5518,-514.5569 116,-533.6649 177.751,-576.6527 273.7193,-549.5338 317.8439,-533.2876"/>
<polygon fill="#000000" stroke="#000000" points="56.7253,-371.5277 51.1137,-362.541 49.8963,-373.0657 56.7253,-371.5277"/>
</g>
<!-- Node1&#45;&gt;Node2 -->
<g id="edge6" class="edge">
<title>Node1&#45;&gt;Node2</title>
<path fill="none" stroke="#ffa500" stroke-dasharray="5,2" d="M51.3115,-362.4533C57.4004,-385.9134 76.2234,-445.4886 116,-473.6649 166.0238,-509.1 192.3153,-482.6736 252,-496.6649 272.7,-501.5174 295.6509,-508.4738 313.1287,-514.1102"/>
<text text-anchor="middle" x="184" y="-521.6649" font-family="Helvetica,sans-Serif" font-size="10.00" fill="#000000">gko::factorization::Ilu</text>
<text text-anchor="start" x="132" y="-510.6649" font-family="Helvetica,sans-Serif" font-size="10.00" fill="#000000">gko::factorization</text>
<text text-anchor="middle" x="184" y="-499.6649" font-family="Helvetica,sans-Serif" font-size="10.00" fill="#000000">::ParIlu</text>
</g>
<!-- Node1&#45;&gt;Node4 -->
<g id="edge3" class="edge">
<title>Node1&#45;&gt;Node4</title>
<path fill="none" stroke="#000000" d="M55.4483,-371.8718C64.6428,-395.7994 84.0412,-435.6084 116,-452.6649 184.3523,-489.1447 280.6324,-453.7146 321.6952,-435.2744"/>
<polygon fill="#000000" stroke="#000000" points="58.7215,-370.6313 52.0291,-362.4178 52.1388,-373.0121 58.7215,-370.6313"/>
</g>
<!-- Node1&#45;&gt;Node4 -->
<g id="edge5" class="edge">
<title>Node1&#45;&gt;Node4</title>
<path fill="none" stroke="#ffa500" stroke-dasharray="5,2" d="M98.4139,-359.1766C153.7495,-366.5937 237.6084,-378.2556 252,-382.6649 278.8661,-390.8962 307.8041,-406.0781 325.2839,-416.0224"/>
<text text-anchor="middle" x="184" y="-440.6649" font-family="Helvetica,sans-Serif" font-size="10.00" fill="#000000">gko::Preconditionable</text>
<text text-anchor="middle" x="184" y="-429.6649" font-family="Helvetica,sans-Serif" font-size="10.00" fill="#000000">gko::preconditioner::Ilu</text>
<text text-anchor="start" x="127.5" y="-418.6649" font-family="Helvetica,sans-Serif" font-size="10.00" fill="#000000">gko::preconditioner</text>
<text text-anchor="middle" x="184" y="-407.6649" font-family="Helvetica,sans-Serif" font-size="10.00" fill="#000000">::Isai</text>
<text text-anchor="start" x="127.5" y="-396.6649" font-family="Helvetica,sans-Serif" font-size="10.00" fill="#000000">gko::preconditioner</text>
<text text-anchor="middle" x="184" y="-385.6649" font-family="Helvetica,sans-Serif" font-size="10.00" fill="#000000">::Jacobi</text>
</g>
<!-- Node1&#45;&gt;Node3 -->
<g id="edge2" class="edge">
<title>Node1&#45;&gt;Node3</title>
<path fill="none" stroke="#000000" d="M108.3358,-355.8333C149.5585,-356.2973 205.2618,-353.4238 252,-338.6649 278.4767,-330.3041 305.2743,-312.6487 322.5518,-299.795"/>
<polygon fill="#000000" stroke="#000000" points="108.2437,-352.3311 98.1816,-355.6486 108.1163,-359.3299 108.2437,-352.3311"/>
</g>
<!-- Node1&#45;&gt;Node3 -->
<g id="edge7" class="edge">
<title>Node1&#45;&gt;Node3</title>
<path fill="none" stroke="#ffa500" stroke-dasharray="5,2" d="M50.2065,-342.9631C54.0749,-316.5405 68.8142,-243.302 116,-213.6649 141.5928,-197.5903 223.461,-203.7196 252,-213.6649 283.6521,-224.695 312.5182,-252.1042 328.4825,-269.4599"/>
<text text-anchor="middle" x="184" y="-326.6649" font-family="Helvetica,sans-Serif" font-size="10.00" fill="#000000">gko::matrix::Coo</text>
<text text-anchor="middle" x="184" y="-315.6649" font-family="Helvetica,sans-Serif" font-size="10.00" fill="#000000">gko::matrix::Csr</text>
<text text-anchor="middle" x="184" y="-304.6649" font-family="Helvetica,sans-Serif" font-size="10.00" fill="#000000">gko::matrix::Dense</text>
<text text-anchor="middle" x="184" y="-293.6649" font-family="Helvetica,sans-Serif" font-size="10.00" fill="#000000">gko::matrix::Ell</text>
<text text-anchor="middle" x="184" y="-282.6649" font-family="Helvetica,sans-Serif" font-size="10.00" fill="#000000">gko::matrix::Hybrid</text>
<text text-anchor="middle" x="184" y="-271.6649" font-family="Helvetica,sans-Serif" font-size="10.00" fill="#000000">gko::matrix::Identity</text>
<text text-anchor="middle" x="184" y="-260.6649" font-family="Helvetica,sans-Serif" font-size="10.00" fill="#000000">gko::matrix::IdentityFactory</text>
<text text-anchor="middle" x="184" y="-249.6649" font-family="Helvetica,sans-Serif" font-size="10.00" fill="#000000">gko::matrix::Permutation</text>
<text text-anchor="middle" x="184" y="-238.6649" font-family="Helvetica,sans-Serif" font-size="10.00" fill="#000000">gko::matrix::Sellp</text>
<text text-anchor="middle" x="184" y="-227.6649" font-family="Helvetica,sans-Serif" font-size="10.00" fill="#000000">gko::matrix::SparsityCsr</text>
<text text-anchor="middle" x="184" y="-216.6649" font-family="Helvetica,sans-Serif" font-size="10.00" fill="#000000">...</text>
</g>
<!-- Node1&#45;&gt;Node6 -->
<g id="edge8" class="edge">
<title>Node1&#45;&gt;Node6</title>
<path fill="none" stroke="#ffa500" stroke-dasharray="5,2" d="M51.1851,-343.1376C59.0803,-309.6189 87.1876,-198.0556 116,-177.6649 173.3818,-137.0555 261.1599,-150.4446 308.4969,-162.073"/>
<text text-anchor="start" x="136.5" y="-191.6649" font-family="Helvetica,sans-Serif" font-size="10.00" fill="#000000">gko::preconditioner</text>
<text text-anchor="middle" x="184" y="-180.6649" font-family="Helvetica,sans-Serif" font-size="10.00" fill="#000000">::Jacobi</text>
</g>
<!-- Node5 -->
<g id="node6" class="node">
<title>Node5</title>
<g id="a_node6"><a xlink:href="group__solvers.html" target="_top" xlink:title="A module dedicated to the implementation and usage of the Solvers in Ginkgo.">
<polygon fill="#ffffff" stroke="#000000" points="368,-89.1649 315,-89.1649 315,-70.1649 368,-70.1649 368,-89.1649"/>
<text text-anchor="middle" x="341.5" y="-77.1649" font-family="Helvetica,sans-Serif" font-size="10.00" fill="#000000">Solvers</text>
</a>
</g>
</g>
<!-- Node1&#45;&gt;Node5 -->
<g id="edge4" class="edge">
<title>Node1&#45;&gt;Node5</title>
<path fill="none" stroke="#000000" d="M52.9461,-333.2117C62.5276,-287.8872 88.2804,-177.2378 116,-152.6649 162.1794,-111.7277 193.7075,-144.9226 252,-124.6649 278.9418,-115.3021 308.0953,-99.4674 325.5698,-89.2954"/>
<polygon fill="#000000" stroke="#000000" points="49.5186,-332.5033 50.9138,-343.0059 56.3726,-333.9256 49.5186,-332.5033"/>
</g>
<!-- Node1&#45;&gt;Node5 -->
<g id="edge9" class="edge">
<title>Node1&#45;&gt;Node5</title>
<path fill="none" stroke="#ffa500" stroke-dasharray="5,2" d="M49.3868,-342.841C51.5929,-292.4692 64.3749,-63.8872 116,-21.6649 162.7887,16.6019 194.0364,-4.5256 252,-21.6649 284.1378,-31.1678 315.5712,-56.2268 331.2308,-70.0942"/>
<text text-anchor="middle" x="184" y="-112.6649" font-family="Helvetica,sans-Serif" font-size="10.00" fill="#000000">gko::solver::Bicg</text>
<text text-anchor="middle" x="184" y="-101.6649" font-family="Helvetica,sans-Serif" font-size="10.00" fill="#000000">gko::solver::Bicgstab</text>
<text text-anchor="middle" x="184" y="-90.6649" font-family="Helvetica,sans-Serif" font-size="10.00" fill="#000000">gko::solver::Cg</text>
<text text-anchor="middle" x="184" y="-79.6649" font-family="Helvetica,sans-Serif" font-size="10.00" fill="#000000">gko::solver::Cgs</text>
<text text-anchor="middle" x="184" y="-68.6649" font-family="Helvetica,sans-Serif" font-size="10.00" fill="#000000">gko::solver::Fcg</text>
<text text-anchor="middle" x="184" y="-57.6649" font-family="Helvetica,sans-Serif" font-size="10.00" fill="#000000">gko::solver::Gmres</text>
<text text-anchor="middle" x="184" y="-46.6649" font-family="Helvetica,sans-Serif" font-size="10.00" fill="#000000">gko::solver::Ir</text>
<text text-anchor="middle" x="184" y="-35.6649" font-family="Helvetica,sans-Serif" font-size="10.00" fill="#000000">gko::solver::LowerTrs</text>
<text text-anchor="middle" x="184" y="-24.6649" font-family="Helvetica,sans-Serif" font-size="10.00" fill="#000000">gko::solver::UpperTrs</text>
</g>
</g>
</svg>
        <g id="navigator" transform="translate(0 0)" fill="#404254">
                <rect fill="#f2f5e9" fill-opacity="0.5" stroke="#606060" stroke-width=".5" x="0" y="0" width="60" height="60"/>
                <use id="zoomplus" xlink:href="#zoomPlus" x="17" y="9" onmousedown="handleZoom(evt,'in')"/>
                <use id="zoomminus" xlink:href="#zoomMin" x="42" y="9" onmousedown="handleZoom(evt,'out')"/>
                <use id="reset" xlink:href="#resetDef" x="30" y="36" onmousedown="handleReset()"/>
                <g id="arrowUp" xlink:href="#dirArrow" transform="translate(30 24)" onmousedown="handlePan(0,-1)">
                  <use xlink:href="#rim" fill="#404040">
                        <set attributeName="fill" to="#808080" begin="arrowUp.mouseover" end="arrowUp.mouseout"/>
                  </use>
                  <path fill="none" stroke="white" stroke-width="1.5" d="M0,-3.0v7 M-2.5,-0.5L0,-3.0L2.5,-0.5"/>
                </g>
                <g id="arrowRight" xlink:href="#dirArrow" transform="rotate(90) translate(36 -43)" onmousedown="handlePan(1,0)">
                  <use xlink:href="#rim" fill="#404040">
                        <set attributeName="fill" to="#808080" begin="arrowRight.mouseover" end="arrowRight.mouseout"/>
                  </use>
                  <path fill="none" stroke="white" stroke-width="1.5" d="M0,-3.0v7 M-2.5,-0.5L0,-3.0L2.5,-0.5"/>
                </g>
                <g id="arrowDown" xlink:href="#dirArrow" transform="rotate(180) translate(-30 -48)" onmousedown="handlePan(0,1)">
                  <use xlink:href="#rim" fill="#404040">
                        <set attributeName="fill" to="#808080" begin="arrowDown.mouseover" end="arrowDown.mouseout"/>
                  </use>
                  <path fill="none" stroke="white" stroke-width="1.5" d="M0,-3.0v7 M-2.5,-0.5L0,-3.0L2.5,-0.5"/>
                </g>
                <g id="arrowLeft" xlink:href="#dirArrow" transform="rotate(270) translate(-36 17)" onmousedown="handlePan(-1,0)">
                  <use xlink:href="#rim" fill="#404040">
                        <set attributeName="fill" to="#808080" begin="arrowLeft.mouseover" end="arrowLeft.mouseout"/>
                  </use>
                  <path fill="none" stroke="white" stroke-width="1.5" d="M0,-3.0v7 M-2.5,-0.5L0,-3.0L2.5,-0.5"/>
                </g>
        </g>
        <svg viewBox="0 0 15 15" width="100%" height="30px" preserveAspectRatio="xMaxYMin meet">
         <g id="arrow_out" transform="scale(0.3 0.3)">
          <a xlink:href="group__LinOp_org.svg" target="_base">
           <rect id="button" ry="5" rx="5" y="6" x="6" height="38" width="38"
                fill="#f2f5e9" fill-opacity="0.5" stroke="#606060" stroke-width="1.0"/>
           <path id="arrow"
             d="M 11.500037,31.436501 C 11.940474,20.09759 22.043105,11.32322 32.158766,21.979434 L 37.068811,17.246167 C 37.068811,17.246167 37.088388,32 37.088388,32 L 22.160133,31.978069 C 22.160133,31.978069 26.997745,27.140456 26.997745,27.140456 C 18.528582,18.264221 13.291696,25.230495 11.500037,31.436501 z"
             style="fill:#404040;"/>
          </a>
         </g>
        </svg>
</svg>
