<?xml version="1.0" encoding="UTF-8" standalone="no"?>
<!DOCTYPE svg PUBLIC "-//W3C//DTD SVG 1.1//EN"
 "http://www.w3.org/Graphics/SVG/1.1/DTD/svg11.dtd">
<!-- Generated by graphviz version 2.40.1 (20161225.0304)
 -->
<!-- Title: Graphical Class Hierarchy Pages: 1 -->
<svg width="382pt" height="832pt"
 viewBox="0.00 0.00 382.00 832.00" xmlns="http://www.w3.org/2000/svg" xmlns:xlink="http://www.w3.org/1999/xlink">
<g id="graph0" class="graph" transform="scale(1 1) rotate(0) translate(4 828)">
<title>Graphical Class Hierarchy</title>
<polygon fill="#ffffff" stroke="transparent" points="-4,4 -4,-828 378,-828 378,4 -4,4"/>
<!-- Node0 -->
<g id="node1" class="node">
<title>Node0</title>
<g id="a_node1"><a xlink:href="structgko_1_1enable__parameters__type.html" target="_top" xlink:title=" ">
<polygon fill="#ffffff" stroke="#000000" points="0,-374.5 0,-415.5 141,-415.5 141,-374.5 0,-374.5"/>
<text text-anchor="start" x="8" y="-403.5" font-family="Helvetica,sans-Serif" font-size="10.00" fill="#000000">gko::enable_parameters</text>
<text text-anchor="start" x="8" y="-392.5" font-family="Helvetica,sans-Serif" font-size="10.00" fill="#000000">_type&lt; parameters_type,</text>
<text text-anchor="middle" x="70.5" y="-381.5" font-family="Helvetica,sans-Serif" font-size="10.00" fill="#000000"> Factory &gt;</text>
</a>
</g>
</g>
<!-- Node1 -->
<g id="node2" class="node">
<title>Node1</title>
<g id="a_node2"><a xlink:href="structgko_1_1factorization_1_1ParIlu_1_1parameters__type.html" target="_top" xlink:title=" ">
<polygon fill="#ffffff" stroke="#000000" points="190.5,-782.5 190.5,-823.5 360.5,-823.5 360.5,-782.5 190.5,-782.5"/>
<text text-anchor="start" x="198.5" y="-811.5" font-family="Helvetica,sans-Serif" font-size="10.00" fill="#000000">gko::factorization</text>
<text text-anchor="start" x="198.5" y="-800.5" font-family="Helvetica,sans-Serif" font-size="10.00" fill="#000000">::ParIlu&lt; ValueType,</text>
<text text-anchor="middle" x="275.5" y="-789.5" font-family="Helvetica,sans-Serif" font-size="10.00" fill="#000000"> IndexType &gt;::parameters_type</text>
</a>
</g>
</g>
<!-- Node0&#45;&gt;Node1 -->
<g id="edge1" class="edge">
<title>Node0&#45;&gt;Node1</title>
<path fill="none" stroke="#191970" d="M75.3392,-426.033C88.5744,-507.1401 127.6963,-722.6491 177,-773 181.0022,-777.0872 185.5429,-780.6214 190.425,-783.6769"/>
<polygon fill="#191970" stroke="#191970" points="78.7606,-425.2642 73.7145,-415.9482 71.8497,-426.3777 78.7606,-425.2642"/>
</g>
<!-- Node2 -->
<g id="node3" class="node">
<title>Node2</title>
<g id="a_node3"><a xlink:href="structgko_1_1preconditioner_1_1Ilu_1_1parameters__type.html" target="_top" xlink:title=" ">
<polygon fill="#ffffff" stroke="#000000" points="177,-711 177,-763 374,-763 374,-711 177,-711"/>
<text text-anchor="start" x="185" y="-751" font-family="Helvetica,sans-Serif" font-size="10.00" fill="#000000">gko::preconditioner</text>
<text text-anchor="start" x="185" y="-740" font-family="Helvetica,sans-Serif" font-size="10.00" fill="#000000">::Ilu&lt; LSolverType,</text>
<text text-anchor="start" x="185" y="-729" font-family="Helvetica,sans-Serif" font-size="10.00" fill="#000000"> USolverType, ReverseApply,</text>
<text text-anchor="middle" x="275.5" y="-718" font-family="Helvetica,sans-Serif" font-size="10.00" fill="#000000"> IndexTypeParIlu &gt;::parameters_type</text>
</a>
</g>
</g>
<!-- Node0&#45;&gt;Node2 -->
<g id="edge2" class="edge">
<title>Node0&#45;&gt;Node2</title>
<path fill="none" stroke="#191970" d="M72.6679,-425.7126C78.5745,-486.4813 100.1182,-622.9193 177,-701 180.5768,-704.6326 184.5495,-707.9012 188.7888,-710.842"/>
<polygon fill="#191970" stroke="#191970" points="76.1417,-425.2624 71.7645,-415.6141 69.1695,-425.8862 76.1417,-425.2624"/>
</g>
<!-- Node3 -->
<g id="node4" class="node">
<title>Node3</title>
<g id="a_node4"><a xlink:href="structgko_1_1preconditioner_1_1Jacobi_1_1parameters__type.html" target="_top" xlink:title=" ">
<polygon fill="#ffffff" stroke="#000000" points="190.5,-650.5 190.5,-691.5 360.5,-691.5 360.5,-650.5 190.5,-650.5"/>
<text text-anchor="start" x="198.5" y="-679.5" font-family="Helvetica,sans-Serif" font-size="10.00" fill="#000000">gko::preconditioner</text>
<text text-anchor="start" x="198.5" y="-668.5" font-family="Helvetica,sans-Serif" font-size="10.00" fill="#000000">::Jacobi&lt; ValueType,</text>
<text text-anchor="middle" x="275.5" y="-657.5" font-family="Helvetica,sans-Serif" font-size="10.00" fill="#000000"> IndexType &gt;::parameters_type</text>
</a>
</g>
</g>
<!-- Node0&#45;&gt;Node3 -->
<g id="edge3" class="edge">
<title>Node0&#45;&gt;Node3</title>
<path fill="none" stroke="#191970" d="M75.2305,-425.4773C84.8819,-477.3205 111.7248,-582.709 177,-641 181.0001,-644.5721 185.4153,-647.719 190.0935,-650.4912"/>
<polygon fill="#191970" stroke="#191970" points="78.664,-424.7939 73.4736,-415.5576 71.7713,-426.0148 78.664,-424.7939"/>
</g>
<!-- Node4 -->
<g id="node5" class="node">
<title>Node4</title>
<g id="a_node5"><a xlink:href="structgko_1_1solver_1_1Bicg_1_1parameters__type.html" target="_top" xlink:title=" ">
<polygon fill="#ffffff" stroke="#000000" points="190.5,-601 190.5,-631 360.5,-631 360.5,-601 190.5,-601"/>
<text text-anchor="start" x="198.5" y="-619" font-family="Helvetica,sans-Serif" font-size="10.00" fill="#000000">gko::solver::Bicg&lt;</text>
<text text-anchor="middle" x="275.5" y="-608" font-family="Helvetica,sans-Serif" font-size="10.00" fill="#000000"> ValueType &gt;::parameters_type</text>
</a>
</g>
</g>
<!-- Node0&#45;&gt;Node4 -->
<g id="edge4" class="edge">
<title>Node0&#45;&gt;Node4</title>
<path fill="none" stroke="#191970" d="M78.4212,-425.4292C91.4266,-469.168 121.5699,-549.2379 177,-592 181.4595,-595.4403 186.3432,-598.3956 191.4753,-600.9333"/>
<polygon fill="#191970" stroke="#191970" points="81.738,-424.2978 75.6196,-415.6482 75.0086,-426.2254 81.738,-424.2978"/>
</g>
<!-- Node5 -->
<g id="node6" class="node">
<title>Node5</title>
<g id="a_node6"><a xlink:href="structgko_1_1solver_1_1Bicgstab_1_1parameters__type.html" target="_top" xlink:title=" ">
<polygon fill="#ffffff" stroke="#000000" points="186.5,-552 186.5,-582 364.5,-582 364.5,-552 186.5,-552"/>
<text text-anchor="start" x="194.5" y="-570" font-family="Helvetica,sans-Serif" font-size="10.00" fill="#000000">gko::solver::Bicgstab</text>
<text text-anchor="middle" x="275.5" y="-559" font-family="Helvetica,sans-Serif" font-size="10.00" fill="#000000">&lt; ValueType &gt;::parameters_type</text>
</a>
</g>
</g>
<!-- Node0&#45;&gt;Node5 -->
<g id="edge5" class="edge">
<title>Node0&#45;&gt;Node5</title>
<path fill="none" stroke="#191970" d="M83.9911,-424.9519C100.844,-458.8777 132.9191,-513.2922 177,-543 182.1085,-546.4428 187.6613,-549.3928 193.4415,-551.9205"/>
<polygon fill="#191970" stroke="#191970" points="86.9496,-423.0297 79.4484,-415.5475 80.6464,-426.0744 86.9496,-423.0297"/>
</g>
<!-- Node6 -->
<g id="node7" class="node">
<title>Node6</title>
<g id="a_node7"><a xlink:href="structgko_1_1solver_1_1Cg_1_1parameters__type.html" target="_top" xlink:title=" ">
<polygon fill="#ffffff" stroke="#000000" points="200.5,-503 200.5,-533 350.5,-533 350.5,-503 200.5,-503"/>
<text text-anchor="start" x="208.5" y="-521" font-family="Helvetica,sans-Serif" font-size="10.00" fill="#000000">gko::solver::Cg&lt; ValueType</text>
<text text-anchor="middle" x="275.5" y="-510" font-family="Helvetica,sans-Serif" font-size="10.00" fill="#000000"> &gt;::parameters_type</text>
</a>
</g>
</g>
<!-- Node0&#45;&gt;Node6 -->
<g id="edge6" class="edge">
<title>Node0&#45;&gt;Node6</title>
<path fill="none" stroke="#191970" d="M93.6094,-423.3114C113.4466,-445.7637 143.9951,-476.2274 177,-494 184.2836,-497.9221 192.2129,-501.213 200.3052,-503.9723"/>
<polygon fill="#191970" stroke="#191970" points="96.2444,-421.0076 87.053,-415.7378 90.952,-425.5891 96.2444,-421.0076"/>
</g>
<!-- Node7 -->
<g id="node8" class="node">
<title>Node7</title>
<g id="a_node8"><a xlink:href="structgko_1_1solver_1_1Cgs_1_1parameters__type.html" target="_top" xlink:title=" ">
<polygon fill="#ffffff" stroke="#000000" points="198,-454 198,-484 353,-484 353,-454 198,-454"/>
<text text-anchor="start" x="206" y="-472" font-family="Helvetica,sans-Serif" font-size="10.00" fill="#000000">gko::solver::Cgs&lt; ValueType</text>
<text text-anchor="middle" x="275.5" y="-461" font-family="Helvetica,sans-Serif" font-size="10.00" fill="#000000"> &gt;::parameters_type</text>
</a>
</g>
</g>
<!-- Node0&#45;&gt;Node7 -->
<g id="edge7" class="edge">
<title>Node0&#45;&gt;Node7</title>
<path fill="none" stroke="#191970" d="M118.7726,-420.1622C136.7249,-428.849 157.479,-438.1174 177,-445 186.2957,-448.2774 196.2379,-451.2694 206.099,-453.944"/>
<polygon fill="#191970" stroke="#191970" points="120.1804,-416.9543 109.6614,-415.6882 117.0949,-423.2376 120.1804,-416.9543"/>
</g>
<!-- Node8 -->
<g id="node9" class="node">
<title>Node8</title>
<g id="a_node9"><a xlink:href="structgko_1_1solver_1_1Fcg_1_1parameters__type.html" target="_top" xlink:title=" ">
<polygon fill="#ffffff" stroke="#000000" points="198.5,-405 198.5,-435 352.5,-435 352.5,-405 198.5,-405"/>
<text text-anchor="start" x="206.5" y="-423" font-family="Helvetica,sans-Serif" font-size="10.00" fill="#000000">gko::solver::Fcg&lt; ValueType</text>
<text text-anchor="middle" x="275.5" y="-412" font-family="Helvetica,sans-Serif" font-size="10.00" fill="#000000"> &gt;::parameters_type</text>
</a>
</g>
</g>
<!-- Node0&#45;&gt;Node8 -->
<g id="edge8" class="edge">
<title>Node0&#45;&gt;Node8</title>
<path fill="none" stroke="#191970" d="M151.1086,-404.8303C166.5933,-406.7187 182.7772,-408.6923 198.1558,-410.5678"/>
<polygon fill="#191970" stroke="#191970" points="151.3996,-401.34 141.0494,-403.6036 150.5521,-408.2885 151.3996,-401.34"/>
</g>
<!-- Node9 -->
<g id="node10" class="node">
<title>Node9</title>
<g id="a_node10"><a xlink:href="structgko_1_1solver_1_1Gmres_1_1parameters__type.html" target="_top" xlink:title=" ">
<polygon fill="#ffffff" stroke="#000000" points="186.5,-356 186.5,-386 364.5,-386 364.5,-356 186.5,-356"/>
<text text-anchor="start" x="194.5" y="-374" font-family="Helvetica,sans-Serif" font-size="10.00" fill="#000000">gko::solver::Gmres</text>
<text text-anchor="middle" x="275.5" y="-363" font-family="Helvetica,sans-Serif" font-size="10.00" fill="#000000">&lt; ValueType &gt;::parameters_type</text>
</a>
</g>
</g>
<!-- Node0&#45;&gt;Node9 -->
<g id="edge9" class="edge">
<title>Node0&#45;&gt;Node9</title>
<path fill="none" stroke="#191970" d="M151.1002,-385.5639C162.6697,-384.2094 174.6297,-382.8092 186.3527,-381.4368"/>
<polygon fill="#191970" stroke="#191970" points="150.5745,-382.1014 141.0494,-386.7406 151.3885,-389.0539 150.5745,-382.1014"/>
</g>
<!-- Node10 -->
<g id="node11" class="node">
<title>Node10</title>
<g id="a_node11"><a xlink:href="structgko_1_1solver_1_1Ir_1_1parameters__type.html" target="_top" xlink:title=" ">
<polygon fill="#ffffff" stroke="#000000" points="203.5,-307 203.5,-337 347.5,-337 347.5,-307 203.5,-307"/>
<text text-anchor="start" x="211.5" y="-325" font-family="Helvetica,sans-Serif" font-size="10.00" fill="#000000">gko::solver::Ir&lt; ValueType</text>
<text text-anchor="middle" x="275.5" y="-314" font-family="Helvetica,sans-Serif" font-size="10.00" fill="#000000"> &gt;::parameters_type</text>
</a>
</g>
</g>
<!-- Node0&#45;&gt;Node10 -->
<g id="edge10" class="edge">
<title>Node0&#45;&gt;Node10</title>
<path fill="none" stroke="#191970" d="M120.9794,-370.0702C138.4546,-362.0276 158.341,-353.5165 177,-347 187.4102,-343.3643 198.6084,-340.0138 209.5892,-337.0258"/>
<polygon fill="#191970" stroke="#191970" points="119.1236,-367.0739 111.5421,-374.4746 122.084,-373.4171 119.1236,-367.0739"/>
</g>
<!-- Node11 -->
<g id="node12" class="node">
<title>Node11</title>
<g id="a_node12"><a xlink:href="structgko_1_1solver_1_1LowerTrs_1_1parameters__type.html" target="_top" xlink:title=" ">
<polygon fill="#ffffff" stroke="#000000" points="209,-246.5 209,-287.5 342,-287.5 342,-246.5 209,-246.5"/>
<text text-anchor="start" x="217" y="-275.5" font-family="Helvetica,sans-Serif" font-size="10.00" fill="#000000">gko::solver::LowerTrs</text>
<text text-anchor="start" x="217" y="-264.5" font-family="Helvetica,sans-Serif" font-size="10.00" fill="#000000">&lt; ValueType, IndexType</text>
<text text-anchor="middle" x="275.5" y="-253.5" font-family="Helvetica,sans-Serif" font-size="10.00" fill="#000000"> &gt;::parameters_type</text>
</a>
</g>
</g>
<!-- Node0&#45;&gt;Node11 -->
<g id="edge11" class="edge">
<title>Node0&#45;&gt;Node11</title>
<path fill="none" stroke="#191970" d="M95.0329,-366.772C115.1318,-345.2159 145.3326,-316.2085 177,-298 186.8689,-292.3255 197.9024,-287.5587 208.9154,-283.5984"/>
<polygon fill="#191970" stroke="#191970" points="92.2727,-364.6037 88.1011,-374.3427 97.4356,-369.3308 92.2727,-364.6037"/>
</g>
<!-- Node12 -->
<g id="node13" class="node">
<title>Node12</title>
<g id="a_node13"><a xlink:href="structgko_1_1solver_1_1UpperTrs_1_1parameters__type.html" target="_top" xlink:title=" ">
<polygon fill="#ffffff" stroke="#000000" points="209,-186.5 209,-227.5 342,-227.5 342,-186.5 209,-186.5"/>
<text text-anchor="start" x="217" y="-215.5" font-family="Helvetica,sans-Serif" font-size="10.00" fill="#000000">gko::solver::UpperTrs</text>
<text text-anchor="start" x="217" y="-204.5" font-family="Helvetica,sans-Serif" font-size="10.00" fill="#000000">&lt; ValueType, IndexType</text>
<text text-anchor="middle" x="275.5" y="-193.5" font-family="Helvetica,sans-Serif" font-size="10.00" fill="#000000"> &gt;::parameters_type</text>
</a>
</g>
</g>
<!-- Node0&#45;&gt;Node12 -->
<g id="edge12" class="edge">
<title>Node0&#45;&gt;Node12</title>
<path fill="none" stroke="#191970" d="M83.0352,-365.1037C99.476,-329.4646 131.6558,-270.5267 177,-237 186.4868,-229.9856 197.629,-224.594 208.9425,-220.4547"/>
<polygon fill="#191970" stroke="#191970" points="79.7207,-363.9412 78.8176,-374.4975 86.1065,-366.8084 79.7207,-363.9412"/>
</g>
<!-- Node13 -->
<g id="node14" class="node">
<title>Node13</title>
<g id="a_node14"><a xlink:href="structgko_1_1stop_1_1Combined_1_1parameters__type.html" target="_top" xlink:title=" ">
<polygon fill="#ffffff" stroke="#000000" points="217,-137 217,-167 334,-167 334,-137 217,-137"/>
<text text-anchor="start" x="225" y="-155" font-family="Helvetica,sans-Serif" font-size="10.00" fill="#000000">gko::stop::Combined</text>
<text text-anchor="middle" x="275.5" y="-144" font-family="Helvetica,sans-Serif" font-size="10.00" fill="#000000">::parameters_type</text>
</a>
</g>
</g>
<!-- Node0&#45;&gt;Node13 -->
<g id="edge13" class="edge">
<title>Node0&#45;&gt;Node13</title>
<path fill="none" stroke="#191970" d="M76.8335,-364.2677C88.2709,-316.7323 116.981,-225.7799 177,-177 188.3638,-167.7642 202.7129,-161.8893 216.9171,-158.1668"/>
<polygon fill="#191970" stroke="#191970" points="73.3634,-363.7405 74.5288,-374.271 80.1847,-365.3121 73.3634,-363.7405"/>
</g>
<!-- Node14 -->
<g id="node15" class="node">
<title>Node14</title>
<g id="a_node15"><a xlink:href="structgko_1_1stop_1_1Iteration_1_1parameters__type.html" target="_top" xlink:title=" ">
<polygon fill="#ffffff" stroke="#000000" points="221,-88 221,-118 330,-118 330,-88 221,-88"/>
<text text-anchor="start" x="229" y="-106" font-family="Helvetica,sans-Serif" font-size="10.00" fill="#000000">gko::stop::Iteration</text>
<text text-anchor="middle" x="275.5" y="-95" font-family="Helvetica,sans-Serif" font-size="10.00" fill="#000000">::parameters_type</text>
</a>
</g>
</g>
<!-- Node0&#45;&gt;Node14 -->
<g id="edge14" class="edge">
<title>Node0&#45;&gt;Node14</title>
<path fill="none" stroke="#191970" d="M73.729,-364.4128C81.2775,-308.7613 105.2653,-190.9047 177,-128 189.1376,-117.3565 205.1821,-111.1277 220.7901,-107.5174"/>
<polygon fill="#191970" stroke="#191970" points="70.2527,-364.0052 72.4659,-374.3663 77.197,-364.8865 70.2527,-364.0052"/>
</g>
<!-- Node15 -->
<g id="node16" class="node">
<title>Node15</title>
<g id="a_node16"><a xlink:href="structgko_1_1stop_1_1ResidualNormReduction_1_1parameters__type.html" target="_top" xlink:title=" ">
<polygon fill="#ffffff" stroke="#000000" points="183.5,-39 183.5,-69 367.5,-69 367.5,-39 183.5,-39"/>
<text text-anchor="start" x="191.5" y="-57" font-family="Helvetica,sans-Serif" font-size="10.00" fill="#000000">gko::stop::ResidualNormReduction</text>
<text text-anchor="middle" x="275.5" y="-46" font-family="Helvetica,sans-Serif" font-size="10.00" fill="#000000">&lt; ValueType &gt;::parameters_type</text>
</a>
</g>
</g>
<!-- Node0&#45;&gt;Node15 -->
<g id="edge15" class="edge">
<title>Node0&#45;&gt;Node15</title>
<path fill="none" stroke="#191970" d="M76.9621,-364.1863C92.5429,-292.7242 134.0766,-118.7588 177,-79 181.1419,-75.1635 185.7874,-71.8955 190.7458,-69.1138"/>
<polygon fill="#191970" stroke="#191970" points="73.4572,-363.8364 74.7711,-374.3494 80.3,-365.3116 73.4572,-363.8364"/>
</g>
<!-- Node16 -->
<g id="node17" class="node">
<title>Node16</title>
<g id="a_node17"><a xlink:href="structgko_1_1stop_1_1Time_1_1parameters__type.html" target="_top" xlink:title=" ">
<polygon fill="#ffffff" stroke="#000000" points="184.5,-.5 184.5,-19.5 366.5,-19.5 366.5,-.5 184.5,-.5"/>
<text text-anchor="middle" x="275.5" y="-7.5" font-family="Helvetica,sans-Serif" font-size="10.00" fill="#000000">gko::stop::Time::parameters_type</text>
</a>
</g>
</g>
<!-- Node0&#45;&gt;Node16 -->
<g id="edge16" class="edge">
<title>Node0&#45;&gt;Node16</title>
<path fill="none" stroke="#191970" d="M75.3282,-364.2133C88.4011,-284.8106 126.8984,-76.0799 177,-30 181.6236,-25.7475 186.8948,-22.2955 192.5398,-19.503"/>
<polygon fill="#191970" stroke="#191970" points="71.871,-363.668 73.7224,-374.0998 78.7804,-364.7903 71.871,-363.668"/>
</g>
</g>
</svg>
