<?xml version="1.0" encoding="UTF-8" standalone="no"?>
<!DOCTYPE svg PUBLIC "-//W3C//DTD SVG 1.1//EN"
 "http://www.w3.org/Graphics/SVG/1.1/DTD/svg11.dtd">
<!-- Generated by graphviz version 2.40.1 (20161225.0304)
 -->
<!-- Title: Graphical Class Hierarchy Pages: 1 -->
<svg width="1047pt" height="1666pt"
 viewBox="0.00 0.00 1047.00 1666.00" xmlns="http://www.w3.org/2000/svg" xmlns:xlink="http://www.w3.org/1999/xlink">
<g id="graph0" class="graph" transform="scale(1 1) rotate(0) translate(4 1662)">
<title>Graphical Class Hierarchy</title>
<polygon fill="#ffffff" stroke="transparent" points="-4,4 -4,-1662 1043,-1662 1043,4 -4,4"/>
<!-- Node489 -->
<g id="node1" class="node">
<title>Node489</title>
<g id="a_node1"><a xlink:href="classgko_1_1ConvertibleTo.html" target="_top" xlink:title=" ">
<polygon fill="#ffffff" stroke="#000000" points="178.5,-776 178.5,-806 296.5,-806 296.5,-776 178.5,-776"/>
<text text-anchor="start" x="186.5" y="-794" font-family="Helvetica,sans-Serif" font-size="10.00" fill="#000000">gko::ConvertibleTo</text>
<text text-anchor="middle" x="237.5" y="-783" font-family="Helvetica,sans-Serif" font-size="10.00" fill="#000000">&lt; ConcreteFactory &gt;</text>
</a>
</g>
</g>
<!-- Node490 -->
<g id="node2" class="node">
<title>Node490</title>
<g id="a_node2"><a xlink:href="classgko_1_1EnablePolymorphicAssignment.html" target="_top" xlink:title=" ">
<polygon fill="#ffffff" stroke="#000000" points="382.5,-774 382.5,-804 574.5,-804 574.5,-774 382.5,-774"/>
<text text-anchor="start" x="390.5" y="-792" font-family="Helvetica,sans-Serif" font-size="10.00" fill="#000000">gko::EnablePolymorphicAssignment</text>
<text text-anchor="middle" x="478.5" y="-781" font-family="Helvetica,sans-Serif" font-size="10.00" fill="#000000">&lt; ConcreteFactory &gt;</text>
</a>
</g>
</g>
<!-- Node489&#45;&gt;Node490 -->
<g id="edge1" class="edge">
<title>Node489&#45;&gt;Node490</title>
<path fill="none" stroke="#191970" d="M306.9738,-790.4235C330.4758,-790.2284 357.1541,-790.007 382.3502,-789.7979"/>
<polygon fill="#191970" stroke="#191970" points="306.7345,-786.9252 296.7639,-790.5082 306.7926,-793.925 306.7345,-786.9252"/>
</g>
<!-- Node2 -->
<g id="node3" class="node">
<title>Node2</title>
<g id="a_node3"><a xlink:href="classgko_1_1EnableDefaultFactory.html" target="_top" xlink:title="This mixin provides a default implementation of a concrete factory.">
<polygon fill="#ffffff" stroke="#000000" points="619,-742.5 619,-783.5 819,-783.5 819,-742.5 619,-742.5"/>
<text text-anchor="start" x="627" y="-771.5" font-family="Helvetica,sans-Serif" font-size="10.00" fill="#000000">gko::EnableDefaultFactory</text>
<text text-anchor="start" x="627" y="-760.5" font-family="Helvetica,sans-Serif" font-size="10.00" fill="#000000">&lt; ConcreteFactory, ProductType,</text>
<text text-anchor="middle" x="719" y="-749.5" font-family="Helvetica,sans-Serif" font-size="10.00" fill="#000000"> ParametersType, PolymorphicBase &gt;</text>
</a>
</g>
</g>
<!-- Node490&#45;&gt;Node2 -->
<g id="edge2" class="edge">
<title>Node490&#45;&gt;Node2</title>
<path fill="none" stroke="#191970" d="M584.8695,-777.5006C596.127,-776.2836 607.5489,-775.0488 618.7336,-773.8396"/>
<polygon fill="#191970" stroke="#191970" points="584.1547,-774.0574 574.5888,-778.612 584.9071,-781.0168 584.1547,-774.0574"/>
</g>
<!-- Node3 -->
<g id="node4" class="node">
<title>Node3</title>
<g id="a_node4"><a xlink:href="classgko_1_1factorization_1_1Ic_1_1Factory.html" target="_top" xlink:title=" ">
<polygon fill="#ffffff" stroke="#000000" points="873.5,-1616.5 873.5,-1657.5 1020.5,-1657.5 1020.5,-1616.5 873.5,-1616.5"/>
<text text-anchor="start" x="881.5" y="-1645.5" font-family="Helvetica,sans-Serif" font-size="10.00" fill="#000000">gko::factorization</text>
<text text-anchor="start" x="881.5" y="-1634.5" font-family="Helvetica,sans-Serif" font-size="10.00" fill="#000000">::Ic&lt; ValueType, IndexType</text>
<text text-anchor="middle" x="947" y="-1623.5" font-family="Helvetica,sans-Serif" font-size="10.00" fill="#000000"> &gt;::Factory</text>
</a>
</g>
</g>
<!-- Node2&#45;&gt;Node3 -->
<g id="edge3" class="edge">
<title>Node2&#45;&gt;Node3</title>
<path fill="none" stroke="#191970" d="M719.7954,-793.9074C723.9238,-930.7493 747.0891,-1480.8608 855,-1607 860.1329,-1613 866.4821,-1617.808 873.428,-1621.6596"/>
<polygon fill="#191970" stroke="#191970" points="723.2884,-793.6103 719.5006,-783.7157 716.2913,-793.8128 723.2884,-793.6103"/>
</g>
<!-- Node4 -->
<g id="node5" class="node">
<title>Node4</title>
<g id="a_node5"><a xlink:href="classgko_1_1factorization_1_1Ilu_1_1Factory.html" target="_top" xlink:title=" ">
<polygon fill="#ffffff" stroke="#000000" points="871.5,-1556.5 871.5,-1597.5 1022.5,-1597.5 1022.5,-1556.5 871.5,-1556.5"/>
<text text-anchor="start" x="879.5" y="-1585.5" font-family="Helvetica,sans-Serif" font-size="10.00" fill="#000000">gko::factorization</text>
<text text-anchor="start" x="879.5" y="-1574.5" font-family="Helvetica,sans-Serif" font-size="10.00" fill="#000000">::Ilu&lt; ValueType, IndexType</text>
<text text-anchor="middle" x="947" y="-1563.5" font-family="Helvetica,sans-Serif" font-size="10.00" fill="#000000"> &gt;::Factory</text>
</a>
</g>
</g>
<!-- Node2&#45;&gt;Node4 -->
<g id="edge4" class="edge">
<title>Node2&#45;&gt;Node4</title>
<path fill="none" stroke="#191970" d="M720.2092,-793.8025C725.9361,-924.3778 754.398,-1430.8222 855,-1547 859.6189,-1552.3341 865.1986,-1556.7254 871.2994,-1560.3397"/>
<polygon fill="#191970" stroke="#191970" points="723.7013,-793.5404 719.779,-783.6983 716.7077,-793.8382 723.7013,-793.5404"/>
</g>
<!-- Node5 -->
<g id="node6" class="node">
<title>Node5</title>
<g id="a_node6"><a xlink:href="classgko_1_1factorization_1_1ParIc_1_1Factory.html" target="_top" xlink:title=" ">
<polygon fill="#ffffff" stroke="#000000" points="886,-1496.5 886,-1537.5 1008,-1537.5 1008,-1496.5 886,-1496.5"/>
<text text-anchor="start" x="894" y="-1525.5" font-family="Helvetica,sans-Serif" font-size="10.00" fill="#000000">gko::factorization</text>
<text text-anchor="start" x="894" y="-1514.5" font-family="Helvetica,sans-Serif" font-size="10.00" fill="#000000">::ParIc&lt; ValueType,</text>
<text text-anchor="middle" x="947" y="-1503.5" font-family="Helvetica,sans-Serif" font-size="10.00" fill="#000000"> IndexType &gt;::Factory</text>
</a>
</g>
</g>
<!-- Node2&#45;&gt;Node5 -->
<g id="edge5" class="edge">
<title>Node2&#45;&gt;Node5</title>
<path fill="none" stroke="#191970" d="M720.6942,-793.813C728.1231,-918.0752 761.7149,-1380.7752 855,-1487 863.0925,-1496.215 874.0506,-1502.614 885.5821,-1507.0537"/>
<polygon fill="#191970" stroke="#191970" points="724.1694,-793.2847 720.0921,-783.5059 717.1813,-793.693 724.1694,-793.2847"/>
</g>
<!-- Node6 -->
<g id="node7" class="node">
<title>Node6</title>
<g id="a_node7"><a xlink:href="classgko_1_1factorization_1_1ParIct_1_1Factory.html" target="_top" xlink:title=" ">
<polygon fill="#ffffff" stroke="#000000" points="886,-1436.5 886,-1477.5 1008,-1477.5 1008,-1436.5 886,-1436.5"/>
<text text-anchor="start" x="894" y="-1465.5" font-family="Helvetica,sans-Serif" font-size="10.00" fill="#000000">gko::factorization</text>
<text text-anchor="start" x="894" y="-1454.5" font-family="Helvetica,sans-Serif" font-size="10.00" fill="#000000">::ParIct&lt; ValueType,</text>
<text text-anchor="middle" x="947" y="-1443.5" font-family="Helvetica,sans-Serif" font-size="10.00" fill="#000000"> IndexType &gt;::Factory</text>
</a>
</g>
</g>
<!-- Node2&#45;&gt;Node6 -->
<g id="edge6" class="edge">
<title>Node2&#45;&gt;Node6</title>
<path fill="none" stroke="#191970" d="M721.273,-793.93C730.526,-911.7539 769.032,-1330.7059 855,-1427 863.1675,-1436.1486 874.1579,-1442.519 885.6971,-1446.9518"/>
<polygon fill="#191970" stroke="#191970" points="724.75,-793.4958 720.4914,-783.7946 717.7708,-794.0341 724.75,-793.4958"/>
</g>
<!-- Node7 -->
<g id="node8" class="node">
<title>Node7</title>
<g id="a_node8"><a xlink:href="classgko_1_1factorization_1_1ParIlu_1_1Factory.html" target="_top" xlink:title=" ">
<polygon fill="#ffffff" stroke="#000000" points="886,-1376.5 886,-1417.5 1008,-1417.5 1008,-1376.5 886,-1376.5"/>
<text text-anchor="start" x="894" y="-1405.5" font-family="Helvetica,sans-Serif" font-size="10.00" fill="#000000">gko::factorization</text>
<text text-anchor="start" x="894" y="-1394.5" font-family="Helvetica,sans-Serif" font-size="10.00" fill="#000000">::ParIlu&lt; ValueType,</text>
<text text-anchor="middle" x="947" y="-1383.5" font-family="Helvetica,sans-Serif" font-size="10.00" fill="#000000"> IndexType &gt;::Factory</text>
</a>
</g>
</g>
<!-- Node2&#45;&gt;Node7 -->
<g id="edge7" class="edge">
<title>Node2&#45;&gt;Node7</title>
<path fill="none" stroke="#191970" d="M721.9622,-793.9979C733.1586,-904.988 776.3062,-1280.5605 855,-1367 863.2561,-1376.0687 874.2845,-1382.4049 885.8329,-1386.8294"/>
<polygon fill="#191970" stroke="#191970" points="725.4217,-793.4156 720.9499,-783.8107 718.456,-794.1079 725.4217,-793.4156"/>
</g>
<!-- Node8 -->
<g id="node9" class="node">
<title>Node8</title>
<g id="a_node9"><a xlink:href="classgko_1_1factorization_1_1ParIlut_1_1Factory.html" target="_top" xlink:title=" ">
<polygon fill="#ffffff" stroke="#000000" points="886,-1316.5 886,-1357.5 1008,-1357.5 1008,-1316.5 886,-1316.5"/>
<text text-anchor="start" x="894" y="-1345.5" font-family="Helvetica,sans-Serif" font-size="10.00" fill="#000000">gko::factorization</text>
<text text-anchor="start" x="894" y="-1334.5" font-family="Helvetica,sans-Serif" font-size="10.00" fill="#000000">::ParIlut&lt; ValueType,</text>
<text text-anchor="middle" x="947" y="-1323.5" font-family="Helvetica,sans-Serif" font-size="10.00" fill="#000000"> IndexType &gt;::Factory</text>
</a>
</g>
</g>
<!-- Node2&#45;&gt;Node8 -->
<g id="edge8" class="edge">
<title>Node2&#45;&gt;Node8</title>
<path fill="none" stroke="#191970" d="M722.7423,-793.605C735.9446,-896.8624 783.4378,-1230.2264 855,-1307 863.3621,-1315.9711 874.4361,-1322.2652 885.9954,-1326.6797"/>
<polygon fill="#191970" stroke="#191970" points="726.1952,-793.0113 721.4699,-783.5285 719.2504,-793.8883 726.1952,-793.0113"/>
</g>
<!-- Node9 -->
<g id="node10" class="node">
<title>Node9</title>
<g id="a_node10"><a xlink:href="classgko_1_1multigrid_1_1AmgxPgm_1_1Factory.html" target="_top" xlink:title=" ">
<polygon fill="#ffffff" stroke="#000000" points="876.5,-1256.5 876.5,-1297.5 1017.5,-1297.5 1017.5,-1256.5 876.5,-1256.5"/>
<text text-anchor="start" x="884.5" y="-1285.5" font-family="Helvetica,sans-Serif" font-size="10.00" fill="#000000">gko::multigrid::AmgxPgm</text>
<text text-anchor="start" x="884.5" y="-1274.5" font-family="Helvetica,sans-Serif" font-size="10.00" fill="#000000">&lt; ValueType, IndexType</text>
<text text-anchor="middle" x="947" y="-1263.5" font-family="Helvetica,sans-Serif" font-size="10.00" fill="#000000"> &gt;::Factory</text>
</a>
</g>
</g>
<!-- Node2&#45;&gt;Node9 -->
<g id="edge9" class="edge">
<title>Node2&#45;&gt;Node9</title>
<path fill="none" stroke="#191970" d="M723.7716,-793.6819C739.2229,-889.3664 790.637,-1179.9233 855,-1247 861.0484,-1253.3035 868.4356,-1258.2839 876.3681,-1262.2188"/>
<polygon fill="#191970" stroke="#191970" points="727.221,-793.087 722.1867,-783.7646 720.3087,-794.1917 727.221,-793.087"/>
</g>
<!-- Node10 -->
<g id="node11" class="node">
<title>Node10</title>
<g id="a_node11"><a xlink:href="classgko_1_1preconditioner_1_1Ic_1_1Factory.html" target="_top" xlink:title=" ">
<polygon fill="#ffffff" stroke="#000000" points="869,-1196.5 869,-1237.5 1025,-1237.5 1025,-1196.5 869,-1196.5"/>
<text text-anchor="start" x="877" y="-1225.5" font-family="Helvetica,sans-Serif" font-size="10.00" fill="#000000">gko::preconditioner</text>
<text text-anchor="start" x="877" y="-1214.5" font-family="Helvetica,sans-Serif" font-size="10.00" fill="#000000">::Ic&lt; LSolverType, IndexType</text>
<text text-anchor="middle" x="947" y="-1203.5" font-family="Helvetica,sans-Serif" font-size="10.00" fill="#000000"> &gt;::Factory</text>
</a>
</g>
</g>
<!-- Node2&#45;&gt;Node10 -->
<g id="edge10" class="edge">
<title>Node2&#45;&gt;Node10</title>
<path fill="none" stroke="#191970" d="M724.997,-793.3214C742.7999,-880.5232 797.6867,-1129.4093 855,-1187 859.1477,-1191.1678 863.881,-1194.7567 868.9621,-1197.8472"/>
<polygon fill="#191970" stroke="#191970" points="728.4259,-792.6194 723.012,-783.5122 721.565,-794.0078 728.4259,-792.6194"/>
</g>
<!-- Node11 -->
<g id="node12" class="node">
<title>Node11</title>
<g id="a_node12"><a xlink:href="classgko_1_1preconditioner_1_1Ilu_1_1Factory.html" target="_top" xlink:title=" ">
<polygon fill="#ffffff" stroke="#000000" points="869,-1125 869,-1177 1025,-1177 1025,-1125 869,-1125"/>
<text text-anchor="start" x="877" y="-1165" font-family="Helvetica,sans-Serif" font-size="10.00" fill="#000000">gko::preconditioner</text>
<text text-anchor="start" x="877" y="-1154" font-family="Helvetica,sans-Serif" font-size="10.00" fill="#000000">::Ilu&lt; LSolverType,</text>
<text text-anchor="start" x="877" y="-1143" font-family="Helvetica,sans-Serif" font-size="10.00" fill="#000000"> USolverType, ReverseApply,</text>
<text text-anchor="middle" x="947" y="-1132" font-family="Helvetica,sans-Serif" font-size="10.00" fill="#000000"> IndexType &gt;::Factory</text>
</a>
</g>
</g>
<!-- Node2&#45;&gt;Node11 -->
<g id="edge11" class="edge">
<title>Node2&#45;&gt;Node11</title>
<path fill="none" stroke="#191970" d="M722.4962,-793.5008C731.7513,-860.6139 762.8556,-1022.4592 855,-1115 859.1146,-1119.1323 863.7591,-1122.802 868.7202,-1126.0591"/>
<polygon fill="#191970" stroke="#191970" points="725.9642,-793.0274 721.1924,-783.568 719.0237,-793.9385 725.9642,-793.0274"/>
</g>
<!-- Node12 -->
<g id="node13" class="node">
<title>Node12</title>
<g id="a_node13"><a xlink:href="classgko_1_1preconditioner_1_1Isai_1_1Factory.html" target="_top" xlink:title=" ">
<polygon fill="#ffffff" stroke="#000000" points="872.5,-1064.5 872.5,-1105.5 1021.5,-1105.5 1021.5,-1064.5 872.5,-1064.5"/>
<text text-anchor="start" x="880.5" y="-1093.5" font-family="Helvetica,sans-Serif" font-size="10.00" fill="#000000">gko::preconditioner</text>
<text text-anchor="start" x="880.5" y="-1082.5" font-family="Helvetica,sans-Serif" font-size="10.00" fill="#000000">::Isai&lt; IsaiType, ValueType,</text>
<text text-anchor="middle" x="947" y="-1071.5" font-family="Helvetica,sans-Serif" font-size="10.00" fill="#000000"> IndexType &gt;::Factory</text>
</a>
</g>
</g>
<!-- Node2&#45;&gt;Node12 -->
<g id="edge12" class="edge">
<title>Node2&#45;&gt;Node12</title>
<path fill="none" stroke="#191970" d="M724.8065,-793.5526C737.6185,-852.6476 773.8577,-983.102 855,-1055 860.1553,-1059.568 866.0192,-1063.4423 872.2323,-1066.728"/>
<polygon fill="#191970" stroke="#191970" points="728.2206,-792.7797 722.7474,-783.708 721.3689,-794.2128 728.2206,-792.7797"/>
</g>
<!-- Node13 -->
<g id="node14" class="node">
<title>Node13</title>
<g id="a_node14"><a xlink:href="classgko_1_1preconditioner_1_1Jacobi_1_1Factory.html" target="_top" xlink:title=" ">
<polygon fill="#ffffff" stroke="#000000" points="886,-1004.5 886,-1045.5 1008,-1045.5 1008,-1004.5 886,-1004.5"/>
<text text-anchor="start" x="894" y="-1033.5" font-family="Helvetica,sans-Serif" font-size="10.00" fill="#000000">gko::preconditioner</text>
<text text-anchor="start" x="894" y="-1022.5" font-family="Helvetica,sans-Serif" font-size="10.00" fill="#000000">::Jacobi&lt; ValueType,</text>
<text text-anchor="middle" x="947" y="-1011.5" font-family="Helvetica,sans-Serif" font-size="10.00" fill="#000000"> IndexType &gt;::Factory</text>
</a>
</g>
</g>
<!-- Node2&#45;&gt;Node13 -->
<g id="edge13" class="edge">
<title>Node2&#45;&gt;Node13</title>
<path fill="none" stroke="#191970" d="M728.7239,-793.1979C746.1396,-842.5619 787.2977,-940.4868 855,-995 864.0289,-1002.27 874.8742,-1007.8004 885.9008,-1012.0009"/>
<polygon fill="#191970" stroke="#191970" points="732.0249,-792.0339 725.4616,-783.7168 725.4058,-794.3115 732.0249,-792.0339"/>
</g>
<!-- Node14 -->
<g id="node15" class="node">
<title>Node14</title>
<g id="a_node15"><a xlink:href="classgko_1_1reorder_1_1Rcm_1_1Factory.html" target="_top" xlink:title=" ">
<polygon fill="#ffffff" stroke="#000000" points="884.5,-944.5 884.5,-985.5 1009.5,-985.5 1009.5,-944.5 884.5,-944.5"/>
<text text-anchor="start" x="892.5" y="-973.5" font-family="Helvetica,sans-Serif" font-size="10.00" fill="#000000">gko::reorder::Rcm&lt;</text>
<text text-anchor="start" x="892.5" y="-962.5" font-family="Helvetica,sans-Serif" font-size="10.00" fill="#000000"> ValueType, IndexType</text>
<text text-anchor="middle" x="947" y="-951.5" font-family="Helvetica,sans-Serif" font-size="10.00" fill="#000000"> &gt;::Factory</text>
</a>
</g>
</g>
<!-- Node2&#45;&gt;Node14 -->
<g id="edge14" class="edge">
<title>Node2&#45;&gt;Node14</title>
<path fill="none" stroke="#191970" d="M735.1036,-792.8274C757.2371,-831.1066 800.5773,-897.0856 855,-935 863.8222,-941.1461 873.9832,-946.0941 884.2624,-950.059"/>
<polygon fill="#191970" stroke="#191970" points="737.9186,-790.6964 729.9395,-783.7262 731.8304,-794.1509 737.9186,-790.6964"/>
</g>
<!-- Node15 -->
<g id="node16" class="node">
<title>Node15</title>
<g id="a_node16"><a xlink:href="classgko_1_1solver_1_1Bicg_1_1Factory.html" target="_top" xlink:title=" ">
<polygon fill="#ffffff" stroke="#000000" points="886,-895 886,-925 1008,-925 1008,-895 886,-895"/>
<text text-anchor="start" x="894" y="-913" font-family="Helvetica,sans-Serif" font-size="10.00" fill="#000000">gko::solver::Bicg&lt;</text>
<text text-anchor="middle" x="947" y="-902" font-family="Helvetica,sans-Serif" font-size="10.00" fill="#000000"> ValueType &gt;::Factory</text>
</a>
</g>
</g>
<!-- Node2&#45;&gt;Node15 -->
<g id="edge15" class="edge">
<title>Node2&#45;&gt;Node15</title>
<path fill="none" stroke="#191970" d="M742.713,-791.2464C767.8036,-819.3387 809.9376,-861.6616 855,-886 864.4404,-891.0988 875.018,-895.1556 885.5466,-898.3709"/>
<polygon fill="#191970" stroke="#191970" points="745.3322,-788.9247 736.0999,-783.7271 740.0759,-793.5476 745.3322,-788.9247"/>
</g>
<!-- Node16 -->
<g id="node17" class="node">
<title>Node16</title>
<g id="a_node17"><a xlink:href="classgko_1_1solver_1_1Bicgstab_1_1Factory.html" target="_top" xlink:title=" ">
<polygon fill="#ffffff" stroke="#000000" points="882,-846 882,-876 1012,-876 1012,-846 882,-846"/>
<text text-anchor="start" x="890" y="-864" font-family="Helvetica,sans-Serif" font-size="10.00" fill="#000000">gko::solver::Bicgstab</text>
<text text-anchor="middle" x="947" y="-853" font-family="Helvetica,sans-Serif" font-size="10.00" fill="#000000">&lt; ValueType &gt;::Factory</text>
</a>
</g>
</g>
<!-- Node2&#45;&gt;Node16 -->
<g id="edge16" class="edge">
<title>Node2&#45;&gt;Node16</title>
<path fill="none" stroke="#191970" d="M760.0137,-788.7354C786.364,-804.3968 821.7647,-823.8505 855,-837 863.442,-840.3401 872.5031,-843.3527 881.5276,-846.0245"/>
<polygon fill="#191970" stroke="#191970" points="761.815,-785.7345 751.4407,-783.584 758.2096,-791.7346 761.815,-785.7345"/>
</g>
<!-- Node17 -->
<g id="node18" class="node">
<title>Node17</title>
<g id="a_node18"><a xlink:href="classgko_1_1solver_1_1CbGmres_1_1Factory.html" target="_top" xlink:title=" ">
<polygon fill="#ffffff" stroke="#000000" points="882,-797 882,-827 1012,-827 1012,-797 882,-797"/>
<text text-anchor="start" x="890" y="-815" font-family="Helvetica,sans-Serif" font-size="10.00" fill="#000000">gko::solver::CbGmres</text>
<text text-anchor="middle" x="947" y="-804" font-family="Helvetica,sans-Serif" font-size="10.00" fill="#000000">&lt; ValueType &gt;::Factory</text>
</a>
</g>
</g>
<!-- Node2&#45;&gt;Node17 -->
<g id="edge17" class="edge">
<title>Node2&#45;&gt;Node17</title>
<path fill="none" stroke="#191970" d="M824.5806,-785.6906C844.1501,-789.8963 864.0522,-794.1735 881.9635,-798.0229"/>
<polygon fill="#191970" stroke="#191970" points="825.2137,-782.2468 814.7015,-783.5674 823.7429,-789.0905 825.2137,-782.2468"/>
</g>
<!-- Node18 -->
<g id="node19" class="node">
<title>Node18</title>
<g id="a_node19"><a xlink:href="classgko_1_1solver_1_1Cg_1_1Factory.html" target="_top" xlink:title=" ">
<polygon fill="#ffffff" stroke="#000000" points="872,-748 872,-778 1022,-778 1022,-748 872,-748"/>
<text text-anchor="start" x="880" y="-766" font-family="Helvetica,sans-Serif" font-size="10.00" fill="#000000">gko::solver::Cg&lt; ValueType</text>
<text text-anchor="middle" x="947" y="-755" font-family="Helvetica,sans-Serif" font-size="10.00" fill="#000000"> &gt;::Factory</text>
</a>
</g>
</g>
<!-- Node2&#45;&gt;Node18 -->
<g id="edge18" class="edge">
<title>Node2&#45;&gt;Node18</title>
<path fill="none" stroke="#191970" d="M829.4194,-763C843.7592,-763 858.1746,-763 871.7569,-763"/>
<polygon fill="#191970" stroke="#191970" points="829.0042,-759.5001 819.0041,-763 829.0041,-766.5001 829.0042,-759.5001"/>
</g>
<!-- Node19 -->
<g id="node20" class="node">
<title>Node19</title>
<g id="a_node20"><a xlink:href="classgko_1_1solver_1_1Cgs_1_1Factory.html" target="_top" xlink:title=" ">
<polygon fill="#ffffff" stroke="#000000" points="869.5,-699 869.5,-729 1024.5,-729 1024.5,-699 869.5,-699"/>
<text text-anchor="start" x="877.5" y="-717" font-family="Helvetica,sans-Serif" font-size="10.00" fill="#000000">gko::solver::Cgs&lt; ValueType</text>
<text text-anchor="middle" x="947" y="-706" font-family="Helvetica,sans-Serif" font-size="10.00" fill="#000000"> &gt;::Factory</text>
</a>
</g>
</g>
<!-- Node2&#45;&gt;Node19 -->
<g id="edge19" class="edge">
<title>Node2&#45;&gt;Node19</title>
<path fill="none" stroke="#191970" d="M824.5777,-740.3101C842.4263,-736.4742 860.5517,-732.5788 877.1911,-729.0028"/>
<polygon fill="#191970" stroke="#191970" points="823.7429,-736.9095 814.7015,-742.4326 825.2137,-743.7532 823.7429,-736.9095"/>
</g>
<!-- Node20 -->
<g id="node21" class="node">
<title>Node20</title>
<g id="a_node21"><a xlink:href="classgko_1_1solver_1_1Fcg_1_1Factory.html" target="_top" xlink:title=" ">
<polygon fill="#ffffff" stroke="#000000" points="870,-650 870,-680 1024,-680 1024,-650 870,-650"/>
<text text-anchor="start" x="878" y="-668" font-family="Helvetica,sans-Serif" font-size="10.00" fill="#000000">gko::solver::Fcg&lt; ValueType</text>
<text text-anchor="middle" x="947" y="-657" font-family="Helvetica,sans-Serif" font-size="10.00" fill="#000000"> &gt;::Factory</text>
</a>
</g>
</g>
<!-- Node2&#45;&gt;Node20 -->
<g id="edge20" class="edge">
<title>Node2&#45;&gt;Node20</title>
<path fill="none" stroke="#191970" d="M760.0137,-737.2646C786.364,-721.6032 821.7647,-702.1495 855,-689 863.2885,-685.7207 872.1738,-682.7569 881.0353,-680.1216"/>
<polygon fill="#191970" stroke="#191970" points="758.2096,-734.2654 751.4407,-742.416 761.815,-740.2655 758.2096,-734.2654"/>
</g>
<!-- Node21 -->
<g id="node22" class="node">
<title>Node21</title>
<g id="a_node22"><a xlink:href="classgko_1_1solver_1_1Gmres_1_1Factory.html" target="_top" xlink:title=" ">
<polygon fill="#ffffff" stroke="#000000" points="882,-601 882,-631 1012,-631 1012,-601 882,-601"/>
<text text-anchor="start" x="890" y="-619" font-family="Helvetica,sans-Serif" font-size="10.00" fill="#000000">gko::solver::Gmres</text>
<text text-anchor="middle" x="947" y="-608" font-family="Helvetica,sans-Serif" font-size="10.00" fill="#000000">&lt; ValueType &gt;::Factory</text>
</a>
</g>
</g>
<!-- Node2&#45;&gt;Node21 -->
<g id="edge21" class="edge">
<title>Node2&#45;&gt;Node21</title>
<path fill="none" stroke="#191970" d="M742.713,-734.7536C767.8036,-706.6613 809.9376,-664.3384 855,-640 863.2785,-635.5287 872.4315,-631.8587 881.6591,-628.8549"/>
<polygon fill="#191970" stroke="#191970" points="740.0759,-732.4524 736.0999,-742.2729 745.3322,-737.0753 740.0759,-732.4524"/>
</g>
<!-- Node22 -->
<g id="node23" class="node">
<title>Node22</title>
<g id="a_node23"><a xlink:href="classgko_1_1solver_1_1Idr_1_1Factory.html" target="_top" xlink:title=" ">
<polygon fill="#ffffff" stroke="#000000" points="872,-552 872,-582 1022,-582 1022,-552 872,-552"/>
<text text-anchor="start" x="880" y="-570" font-family="Helvetica,sans-Serif" font-size="10.00" fill="#000000">gko::solver::Idr&lt; ValueType</text>
<text text-anchor="middle" x="947" y="-559" font-family="Helvetica,sans-Serif" font-size="10.00" fill="#000000"> &gt;::Factory</text>
</a>
</g>
</g>
<!-- Node2&#45;&gt;Node22 -->
<g id="edge22" class="edge">
<title>Node2&#45;&gt;Node22</title>
<path fill="none" stroke="#191970" d="M740.1386,-734.2731C774.4917,-687.8996 840.1092,-600.7234 855,-591 860.252,-587.5705 865.972,-584.6304 871.9052,-582.1098"/>
<polygon fill="#191970" stroke="#191970" points="737.2388,-732.3079 734.1072,-742.4293 742.8671,-736.4699 737.2388,-732.3079"/>
</g>
<!-- Node23 -->
<g id="node24" class="node">
<title>Node23</title>
<g id="a_node24"><a xlink:href="classgko_1_1solver_1_1Ir_1_1Factory.html" target="_top" xlink:title=" ">
<polygon fill="#ffffff" stroke="#000000" points="875,-503 875,-533 1019,-533 1019,-503 875,-503"/>
<text text-anchor="start" x="883" y="-521" font-family="Helvetica,sans-Serif" font-size="10.00" fill="#000000">gko::solver::Ir&lt; ValueType</text>
<text text-anchor="middle" x="947" y="-510" font-family="Helvetica,sans-Serif" font-size="10.00" fill="#000000"> &gt;::Factory</text>
</a>
</g>
</g>
<!-- Node2&#45;&gt;Node23 -->
<g id="edge23" class="edge">
<title>Node2&#45;&gt;Node23</title>
<path fill="none" stroke="#191970" d="M742.9368,-734.6169C764.6269,-707.9932 796.539,-666.4736 819,-627 839.2898,-591.3421 823.9589,-568.8256 855,-542 860.8699,-536.9272 867.6855,-532.9082 874.9017,-529.7269"/>
<polygon fill="#191970" stroke="#191970" points="740.2003,-732.4343 736.5554,-742.3824 745.6085,-736.8786 740.2003,-732.4343"/>
</g>
<!-- Node24 -->
<g id="node25" class="node">
<title>Node24</title>
<g id="a_node25"><a xlink:href="classgko_1_1solver_1_1LowerTrs_1_1Factory.html" target="_top" xlink:title=" ">
<polygon fill="#ffffff" stroke="#000000" points="880.5,-442.5 880.5,-483.5 1013.5,-483.5 1013.5,-442.5 880.5,-442.5"/>
<text text-anchor="start" x="888.5" y="-471.5" font-family="Helvetica,sans-Serif" font-size="10.00" fill="#000000">gko::solver::LowerTrs</text>
<text text-anchor="start" x="888.5" y="-460.5" font-family="Helvetica,sans-Serif" font-size="10.00" fill="#000000">&lt; ValueType, IndexType</text>
<text text-anchor="middle" x="947" y="-449.5" font-family="Helvetica,sans-Serif" font-size="10.00" fill="#000000"> &gt;::Factory</text>
</a>
</g>
</g>
<!-- Node2&#45;&gt;Node24 -->
<g id="edge24" class="edge">
<title>Node2&#45;&gt;Node24</title>
<path fill="none" stroke="#191970" d="M744.6323,-734.8369C767.1995,-708.6606 799.4325,-667.6905 819,-627 845.7255,-571.4247 812.5598,-537.7403 855,-493 862.0528,-485.565 870.968,-479.9699 880.4577,-475.76"/>
<polygon fill="#191970" stroke="#191970" points="741.9078,-732.6356 737.9637,-742.469 747.1791,-737.2415 741.9078,-732.6356"/>
</g>
<!-- Node25 -->
<g id="node26" class="node">
<title>Node25</title>
<g id="a_node26"><a xlink:href="classgko_1_1solver_1_1UpperTrs_1_1Factory.html" target="_top" xlink:title=" ">
<polygon fill="#ffffff" stroke="#000000" points="880.5,-382.5 880.5,-423.5 1013.5,-423.5 1013.5,-382.5 880.5,-382.5"/>
<text text-anchor="start" x="888.5" y="-411.5" font-family="Helvetica,sans-Serif" font-size="10.00" fill="#000000">gko::solver::UpperTrs</text>
<text text-anchor="start" x="888.5" y="-400.5" font-family="Helvetica,sans-Serif" font-size="10.00" fill="#000000">&lt; ValueType, IndexType</text>
<text text-anchor="middle" x="947" y="-389.5" font-family="Helvetica,sans-Serif" font-size="10.00" fill="#000000"> &gt;::Factory</text>
</a>
</g>
</g>
<!-- Node2&#45;&gt;Node25 -->
<g id="edge25" class="edge">
<title>Node2&#45;&gt;Node25</title>
<path fill="none" stroke="#191970" d="M745.8121,-734.73C768.8736,-708.7704 801.1597,-668.1876 819,-627 853.8553,-546.5302 797.2067,-498.9561 855,-433 861.8645,-425.166 870.8002,-419.3669 880.4013,-415.0767"/>
<polygon fill="#191970" stroke="#191970" points="743.08,-732.5332 738.9774,-742.3015 748.2762,-737.2237 743.08,-732.5332"/>
</g>
<!-- Node26 -->
<g id="node27" class="node">
<title>Node26</title>
<g id="a_node27"><a xlink:href="classgko_1_1stop_1_1AbsoluteResidualNorm_1_1Factory.html" target="_top" xlink:title=" ">
<polygon fill="#ffffff" stroke="#000000" points="868.5,-333 868.5,-363 1025.5,-363 1025.5,-333 868.5,-333"/>
<text text-anchor="start" x="876.5" y="-351" font-family="Helvetica,sans-Serif" font-size="10.00" fill="#000000">gko::stop::AbsoluteResidual</text>
<text text-anchor="middle" x="947" y="-340" font-family="Helvetica,sans-Serif" font-size="10.00" fill="#000000">Norm&lt; ValueType &gt;::Factory</text>
</a>
</g>
</g>
<!-- Node2&#45;&gt;Node26 -->
<g id="edge26" class="edge">
<title>Node2&#45;&gt;Node26</title>
<path fill="none" stroke="#191970" d="M746.2396,-734.9098C769.5831,-709.0687 802.0428,-668.5589 819,-627 862.0746,-521.4326 779.551,-458.483 855,-373 858.8334,-368.6568 863.3383,-365.0338 868.2594,-362.0154"/>
<polygon fill="#191970" stroke="#191970" points="743.5054,-732.7125 739.315,-742.4435 748.6591,-737.4496 743.5054,-732.7125"/>
</g>
<!-- Node27 -->
<g id="node28" class="node">
<title>Node27</title>
<g id="a_node28"><a xlink:href="classgko_1_1stop_1_1Combined_1_1Factory.html" target="_top" xlink:title=" ">
<polygon fill="#ffffff" stroke="#000000" points="888.5,-284 888.5,-314 1005.5,-314 1005.5,-284 888.5,-284"/>
<text text-anchor="start" x="896.5" y="-302" font-family="Helvetica,sans-Serif" font-size="10.00" fill="#000000">gko::stop::Combined</text>
<text text-anchor="middle" x="947" y="-291" font-family="Helvetica,sans-Serif" font-size="10.00" fill="#000000">::Factory</text>
</a>
</g>
</g>
<!-- Node2&#45;&gt;Node27 -->
<g id="edge27" class="edge">
<title>Node2&#45;&gt;Node27</title>
<path fill="none" stroke="#191970" d="M746.8888,-734.5434C770.3514,-708.7437 802.6177,-668.5035 819,-627 843.9766,-563.7234 810.3105,-374.2894 855,-323 863.5666,-313.1682 875.6072,-307.119 888.1619,-303.454"/>
<polygon fill="#191970" stroke="#191970" points="744.1436,-732.3567 739.9173,-742.0721 749.2798,-737.1128 744.1436,-732.3567"/>
</g>
<!-- Node28 -->
<g id="node29" class="node">
<title>Node28</title>
<g id="a_node29"><a xlink:href="classgko_1_1stop_1_1ImplicitResidualNorm_1_1Factory.html" target="_top" xlink:title=" ">
<polygon fill="#ffffff" stroke="#000000" points="868.5,-235 868.5,-265 1025.5,-265 1025.5,-235 868.5,-235"/>
<text text-anchor="start" x="876.5" y="-253" font-family="Helvetica,sans-Serif" font-size="10.00" fill="#000000">gko::stop::ImplicitResidual</text>
<text text-anchor="middle" x="947" y="-242" font-family="Helvetica,sans-Serif" font-size="10.00" fill="#000000">Norm&lt; ValueType &gt;::Factory</text>
</a>
</g>
</g>
<!-- Node2&#45;&gt;Node28 -->
<g id="edge28" class="edge">
<title>Node2&#45;&gt;Node28</title>
<path fill="none" stroke="#191970" d="M747.0551,-734.6083C770.625,-708.8504 802.9553,-668.6351 819,-627 847.3541,-553.423 803.6844,-333.8686 855,-274 858.7598,-269.6135 863.2113,-265.9778 868.0949,-262.9696"/>
<polygon fill="#191970" stroke="#191970" points="744.308,-732.4223 740.0493,-742.1236 749.4283,-737.1955 744.308,-732.4223"/>
</g>
<!-- Node29 -->
<g id="node30" class="node">
<title>Node29</title>
<g id="a_node30"><a xlink:href="classgko_1_1stop_1_1Iteration_1_1Factory.html" target="_top" xlink:title=" ">
<polygon fill="#ffffff" stroke="#000000" points="892.5,-186 892.5,-216 1001.5,-216 1001.5,-186 892.5,-186"/>
<text text-anchor="start" x="900.5" y="-204" font-family="Helvetica,sans-Serif" font-size="10.00" fill="#000000">gko::stop::Iteration</text>
<text text-anchor="middle" x="947" y="-193" font-family="Helvetica,sans-Serif" font-size="10.00" fill="#000000">::Factory</text>
</a>
</g>
</g>
<!-- Node2&#45;&gt;Node29 -->
<g id="edge29" class="edge">
<title>Node2&#45;&gt;Node29</title>
<path fill="none" stroke="#191970" d="M747.1816,-734.6566C770.8331,-708.9298 803.212,-668.7332 819,-627 850.7358,-543.1115 797.0507,-293.4568 855,-225 864.3852,-213.913 878.1892,-207.6124 892.265,-204.1176"/>
<polygon fill="#191970" stroke="#191970" points="744.4328,-732.4714 740.1497,-742.1619 749.5411,-737.2574 744.4328,-732.4714"/>
</g>
<!-- Node30 -->
<g id="node31" class="node">
<title>Node30</title>
<g id="a_node31"><a xlink:href="classgko_1_1stop_1_1RelativeResidualNorm_1_1Factory.html" target="_top" xlink:title=" ">
<polygon fill="#ffffff" stroke="#000000" points="868.5,-137 868.5,-167 1025.5,-167 1025.5,-137 868.5,-137"/>
<text text-anchor="start" x="876.5" y="-155" font-family="Helvetica,sans-Serif" font-size="10.00" fill="#000000">gko::stop::RelativeResidual</text>
<text text-anchor="middle" x="947" y="-144" font-family="Helvetica,sans-Serif" font-size="10.00" fill="#000000">Norm&lt; ValueType &gt;::Factory</text>
</a>
</g>
</g>
<!-- Node2&#45;&gt;Node30 -->
<g id="edge30" class="edge">
<title>Node2&#45;&gt;Node30</title>
<path fill="none" stroke="#191970" d="M747.281,-734.6939C770.9966,-708.9913 803.4137,-668.8089 819,-627 854.1203,-532.7925 790.4118,-253.051 855,-176 858.8175,-171.4459 863.3806,-167.6981 868.4042,-164.6198"/>
<polygon fill="#191970" stroke="#191970" points="744.5308,-732.5095 740.2287,-742.1915 749.6296,-737.3055 744.5308,-732.5095"/>
</g>
<!-- Node31 -->
<g id="node32" class="node">
<title>Node31</title>
<g id="a_node32"><a xlink:href="classgko_1_1stop_1_1ResidualNorm_1_1Factory.html" target="_top" xlink:title=" ">
<polygon fill="#ffffff" stroke="#000000" points="879,-88 879,-118 1015,-118 1015,-88 879,-88"/>
<text text-anchor="start" x="887" y="-106" font-family="Helvetica,sans-Serif" font-size="10.00" fill="#000000">gko::stop::ResidualNorm</text>
<text text-anchor="middle" x="947" y="-95" font-family="Helvetica,sans-Serif" font-size="10.00" fill="#000000">&lt; ValueType &gt;::Factory</text>
</a>
</g>
</g>
<!-- Node2&#45;&gt;Node31 -->
<g id="edge31" class="edge">
<title>Node2&#45;&gt;Node31</title>
<path fill="none" stroke="#191970" d="M747.3612,-734.7237C771.1285,-709.0401 803.5764,-668.8692 819,-627 857.5069,-522.4682 783.7693,-212.6497 855,-127 861.3329,-119.3852 869.7509,-114.0215 878.9288,-110.2719"/>
<polygon fill="#191970" stroke="#191970" points="744.6097,-732.5398 740.2923,-742.2151 749.7009,-737.3439 744.6097,-732.5398"/>
</g>
<!-- Node32 -->
<g id="node33" class="node">
<title>Node32</title>
<g id="a_node33"><a xlink:href="classgko_1_1stop_1_1ResidualNormReduction_1_1Factory.html" target="_top" xlink:title=" ">
<polygon fill="#ffffff" stroke="#000000" points="855,-39 855,-69 1039,-69 1039,-39 855,-39"/>
<text text-anchor="start" x="863" y="-57" font-family="Helvetica,sans-Serif" font-size="10.00" fill="#000000">gko::stop::ResidualNormReduction</text>
<text text-anchor="middle" x="947" y="-46" font-family="Helvetica,sans-Serif" font-size="10.00" fill="#000000">&lt; ValueType &gt;::Factory</text>
</a>
</g>
</g>
<!-- Node2&#45;&gt;Node32 -->
<g id="edge32" class="edge">
<title>Node2&#45;&gt;Node32</title>
<path fill="none" stroke="#191970" d="M747.4272,-734.7479C771.2371,-709.0799 803.7104,-668.9183 819,-627 860.8948,-512.14 777.1241,-172.2515 855,-78 857.8388,-74.5642 861.1022,-71.5863 864.669,-69.0077"/>
<polygon fill="#191970" stroke="#191970" points="744.6746,-732.5646 740.3447,-742.2343 749.7596,-737.3753 744.6746,-732.5646"/>
</g>
<!-- Node33 -->
<g id="node34" class="node">
<title>Node33</title>
<g id="a_node34"><a xlink:href="classgko_1_1stop_1_1Time_1_1Factory.html" target="_top" xlink:title=" ">
<polygon fill="#ffffff" stroke="#000000" points="880,-.5 880,-19.5 1014,-19.5 1014,-.5 880,-.5"/>
<text text-anchor="middle" x="947" y="-7.5" font-family="Helvetica,sans-Serif" font-size="10.00" fill="#000000">gko::stop::Time::Factory</text>
</a>
</g>
</g>
<!-- Node2&#45;&gt;Node33 -->
<g id="edge33" class="edge">
<title>Node2&#45;&gt;Node33</title>
<path fill="none" stroke="#191970" d="M747.4825,-734.7679C771.3281,-709.113 803.8226,-668.9591 819,-627 841.6419,-564.4044 811.4278,-79.3222 855,-29 861.619,-21.3556 870.4282,-16.2996 879.9784,-13.0265"/>
<polygon fill="#191970" stroke="#191970" points="744.7289,-732.5853 740.3886,-742.2503 749.8088,-737.4014 744.7289,-732.5853"/>
</g>
<!-- Node487 -->
<g id="node35" class="node">
<title>Node487</title>
<g id="a_node35"><a xlink:href="classgko_1_1ConvertibleTo.html" target="_top" xlink:title=" ">
<polygon fill="#ffffff" stroke="#000000" points="182.5,-486 182.5,-516 292.5,-516 292.5,-486 182.5,-486"/>
<text text-anchor="start" x="190.5" y="-504" font-family="Helvetica,sans-Serif" font-size="10.00" fill="#000000">gko::ConvertibleTo</text>
<text text-anchor="middle" x="237.5" y="-493" font-family="Helvetica,sans-Serif" font-size="10.00" fill="#000000">&lt; ConcreteLinOp &gt;</text>
</a>
</g>
</g>
<!-- Node488 -->
<g id="node36" class="node">
<title>Node488</title>
<g id="a_node36"><a xlink:href="classgko_1_1EnablePolymorphicAssignment.html" target="_top" xlink:title=" ">
<polygon fill="#ffffff" stroke="#000000" points="382.5,-519 382.5,-549 574.5,-549 574.5,-519 382.5,-519"/>
<text text-anchor="start" x="390.5" y="-537" font-family="Helvetica,sans-Serif" font-size="10.00" fill="#000000">gko::EnablePolymorphicAssignment</text>
<text text-anchor="middle" x="478.5" y="-526" font-family="Helvetica,sans-Serif" font-size="10.00" fill="#000000">&lt; ConcreteLinOp &gt;</text>
</a>
</g>
</g>
<!-- Node487&#45;&gt;Node488 -->
<g id="edge34" class="edge">
<title>Node487&#45;&gt;Node488</title>
<path fill="none" stroke="#191970" d="M303.011,-509.9704C327.4452,-513.3161 355.7195,-517.1877 382.34,-520.8329"/>
<polygon fill="#191970" stroke="#191970" points="303.1727,-506.4599 292.7903,-508.5709 302.223,-513.3952 303.1727,-506.4599"/>
</g>
<!-- Node117 -->
<g id="node37" class="node">
<title>Node117</title>
<g id="a_node37"><a xlink:href="classgko_1_1EnableLinOp.html" target="_top" xlink:title="The EnableLinOp mixin can be used to provide sensible default implementations of the majority of the ...">
<polygon fill="#ffffff" stroke="#000000" points="641,-588 641,-618 797,-618 797,-588 641,-588"/>
<text text-anchor="start" x="649" y="-606" font-family="Helvetica,sans-Serif" font-size="10.00" fill="#000000">gko::EnableLinOp&lt; Concrete</text>
<text text-anchor="middle" x="719" y="-595" font-family="Helvetica,sans-Serif" font-size="10.00" fill="#000000">LinOp, PolymorphicBase &gt;</text>
</a>
</g>
</g>
<!-- Node488&#45;&gt;Node117 -->
<g id="edge35" class="edge">
<title>Node488&#45;&gt;Node117</title>
<path fill="none" stroke="#191970" d="M540.6687,-551.8363C579.7402,-563.0461 629.5785,-577.3448 666.6303,-587.975"/>
<polygon fill="#191970" stroke="#191970" points="541.559,-548.4506 530.9816,-549.0571 539.6285,-555.1792 541.559,-548.4506"/>
</g>
<!-- Node80 -->
<g id="node38" class="node">
<title>Node80</title>
<g id="a_node38"><a xlink:title=" ">
<polygon fill="#ffffff" stroke="#bfbfbf" points="0,-636.5 0,-655.5 101,-655.5 101,-636.5 0,-636.5"/>
<text text-anchor="middle" x="50.5" y="-643.5" font-family="Helvetica,sans-Serif" font-size="10.00" fill="#000000">PolymorphicBase</text>
</a>
</g>
</g>
<!-- Node0 -->
<g id="node39" class="node">
<title>Node0</title>
<g id="a_node39"><a xlink:href="classgko_1_1EnableAbstractPolymorphicObject.html" target="_top" xlink:title=" ">
<polygon fill="#ffffff" stroke="#000000" points="150,-715.5 150,-756.5 325,-756.5 325,-715.5 150,-715.5"/>
<text text-anchor="start" x="158" y="-744.5" font-family="Helvetica,sans-Serif" font-size="10.00" fill="#000000">gko::EnableAbstractPolymorphic</text>
<text text-anchor="start" x="158" y="-733.5" font-family="Helvetica,sans-Serif" font-size="10.00" fill="#000000">Object&lt; ConcreteFactory,</text>
<text text-anchor="middle" x="237.5" y="-722.5" font-family="Helvetica,sans-Serif" font-size="10.00" fill="#000000"> PolymorphicBase &gt;</text>
</a>
</g>
</g>
<!-- Node80&#45;&gt;Node0 -->
<g id="edge36" class="edge">
<title>Node80&#45;&gt;Node0</title>
<path fill="none" stroke="#191970" d="M69.7579,-662.0372C86.5963,-675.3812 112.1743,-694.0608 137,-706 144.2203,-709.4724 151.9274,-712.6373 159.7408,-715.498"/>
<polygon fill="#191970" stroke="#191970" points="71.7781,-659.1699 61.7994,-655.6095 67.3798,-664.6156 71.7781,-659.1699"/>
</g>
<!-- Node115 -->
<g id="node41" class="node">
<title>Node115</title>
<g id="a_node41"><a xlink:href="classgko_1_1EnableAbstractPolymorphicObject.html" target="_top" xlink:title=" ">
<polygon fill="#ffffff" stroke="#000000" points="139,-655.5 139,-696.5 336,-696.5 336,-655.5 139,-655.5"/>
<text text-anchor="start" x="147" y="-684.5" font-family="Helvetica,sans-Serif" font-size="10.00" fill="#000000">gko::EnableAbstractPolymorphic</text>
<text text-anchor="start" x="147" y="-673.5" font-family="Helvetica,sans-Serif" font-size="10.00" fill="#000000">Object&lt; ConcreteLinOp, Polymorphic</text>
<text text-anchor="middle" x="237.5" y="-662.5" font-family="Helvetica,sans-Serif" font-size="10.00" fill="#000000">Base &gt;</text>
</a>
</g>
</g>
<!-- Node80&#45;&gt;Node115 -->
<g id="edge39" class="edge">
<title>Node80&#45;&gt;Node115</title>
<path fill="none" stroke="#191970" d="M111.016,-655.7084C119.9879,-657.1478 129.4246,-658.6617 138.9314,-660.1869"/>
<polygon fill="#191970" stroke="#191970" points="111.5331,-652.2467 101.1049,-654.1184 110.4242,-659.1584 111.5331,-652.2467"/>
</g>
<!-- Node118 -->
<g id="node43" class="node">
<title>Node118</title>
<g id="a_node43"><a xlink:href="classgko_1_1EnableAbstractPolymorphicObject.html" target="_top" xlink:title=" ">
<polygon fill="#ffffff" stroke="#000000" points="137,-595.5 137,-636.5 338,-636.5 338,-595.5 137,-595.5"/>
<text text-anchor="start" x="145" y="-624.5" font-family="Helvetica,sans-Serif" font-size="10.00" fill="#000000">gko::EnableAbstractPolymorphic</text>
<text text-anchor="start" x="145" y="-613.5" font-family="Helvetica,sans-Serif" font-size="10.00" fill="#000000">Object&lt; ConcreteObject, Polymorphic</text>
<text text-anchor="middle" x="237.5" y="-602.5" font-family="Helvetica,sans-Serif" font-size="10.00" fill="#000000">Base &gt;</text>
</a>
</g>
</g>
<!-- Node80&#45;&gt;Node118 -->
<g id="edge42" class="edge">
<title>Node80&#45;&gt;Node118</title>
<path fill="none" stroke="#191970" d="M111.0054,-636.2933C119.3008,-634.9624 127.9936,-633.5679 136.772,-632.1596"/>
<polygon fill="#191970" stroke="#191970" points="110.4242,-632.8416 101.1049,-637.8816 111.5331,-639.7533 110.4242,-632.8416"/>
</g>
<!-- Node120 -->
<g id="node45" class="node">
<title>Node120</title>
<g id="a_node45"><a xlink:href="classgko_1_1EnableAbstractPolymorphicObject.html" target="_top" xlink:title="This mixin inherits from (a subclass of) PolymorphicObject and provides a base implementation of a ne...">
<polygon fill="#ffffff" stroke="#000000" points="138.5,-535.5 138.5,-576.5 336.5,-576.5 336.5,-535.5 138.5,-535.5"/>
<text text-anchor="start" x="146.5" y="-564.5" font-family="Helvetica,sans-Serif" font-size="10.00" fill="#000000">gko::EnableAbstractPolymorphic</text>
<text text-anchor="start" x="146.5" y="-553.5" font-family="Helvetica,sans-Serif" font-size="10.00" fill="#000000">Object&lt; AbstractObject, Polymorphic</text>
<text text-anchor="middle" x="237.5" y="-542.5" font-family="Helvetica,sans-Serif" font-size="10.00" fill="#000000">Base &gt;</text>
</a>
</g>
</g>
<!-- Node80&#45;&gt;Node120 -->
<g id="edge44" class="edge">
<title>Node80&#45;&gt;Node120</title>
<path fill="none" stroke="#191970" d="M69.7579,-629.9628C86.5963,-616.6188 112.1743,-597.9392 137,-586 144.2203,-582.5276 151.9274,-579.3627 159.7408,-576.502"/>
<polygon fill="#191970" stroke="#191970" points="67.3798,-627.3844 61.7994,-636.3905 71.7781,-632.8301 67.3798,-627.3844"/>
</g>
<!-- Node1 -->
<g id="node40" class="node">
<title>Node1</title>
<g id="a_node40"><a xlink:href="classgko_1_1EnablePolymorphicObject.html" target="_top" xlink:title=" ">
<polygon fill="#ffffff" stroke="#000000" points="374,-722 374,-752 583,-752 583,-722 374,-722"/>
<text text-anchor="start" x="382" y="-740" font-family="Helvetica,sans-Serif" font-size="10.00" fill="#000000">gko::EnablePolymorphicObject</text>
<text text-anchor="middle" x="478.5" y="-729" font-family="Helvetica,sans-Serif" font-size="10.00" fill="#000000">&lt; ConcreteFactory, PolymorphicBase &gt;</text>
</a>
</g>
</g>
<!-- Node0&#45;&gt;Node1 -->
<g id="edge37" class="edge">
<title>Node0&#45;&gt;Node1</title>
<path fill="none" stroke="#191970" d="M335.2497,-736.4056C347.9022,-736.4581 360.902,-736.512 373.6633,-736.565"/>
<polygon fill="#191970" stroke="#191970" points="335.2027,-732.9055 325.1883,-736.3639 335.1736,-739.9054 335.2027,-732.9055"/>
</g>
<!-- Node1&#45;&gt;Node2 -->
<g id="edge38" class="edge">
<title>Node1&#45;&gt;Node2</title>
<path fill="none" stroke="#191970" d="M593.2573,-749.4062C601.7736,-750.3269 610.3266,-751.2515 618.7451,-752.1616"/>
<polygon fill="#191970" stroke="#191970" points="593.6055,-745.9235 583.2872,-748.3283 592.853,-752.883 593.6055,-745.9235"/>
</g>
<!-- Node116 -->
<g id="node42" class="node">
<title>Node116</title>
<g id="a_node42"><a xlink:href="classgko_1_1EnablePolymorphicObject.html" target="_top" xlink:title=" ">
<polygon fill="#ffffff" stroke="#000000" points="378,-656 378,-686 579,-686 579,-656 378,-656"/>
<text text-anchor="start" x="386" y="-674" font-family="Helvetica,sans-Serif" font-size="10.00" fill="#000000">gko::EnablePolymorphicObject</text>
<text text-anchor="middle" x="478.5" y="-663" font-family="Helvetica,sans-Serif" font-size="10.00" fill="#000000">&lt; ConcreteLinOp, PolymorphicBase &gt;</text>
</a>
</g>
</g>
<!-- Node115&#45;&gt;Node116 -->
<g id="edge40" class="edge">
<title>Node115&#45;&gt;Node116</title>
<path fill="none" stroke="#191970" d="M346.2891,-673.743C356.8418,-673.524 367.5155,-673.3026 377.9822,-673.0854"/>
<polygon fill="#191970" stroke="#191970" points="346.1445,-670.2451 336.2193,-673.9519 346.2898,-677.2436 346.1445,-670.2451"/>
</g>
<!-- Node116&#45;&gt;Node117 -->
<g id="edge41" class="edge">
<title>Node116&#45;&gt;Node117</title>
<path fill="none" stroke="#191970" d="M541.657,-653.1427C580.2306,-642.2363 629.011,-628.4439 665.6439,-618.0861"/>
<polygon fill="#191970" stroke="#191970" points="540.2469,-649.9041 531.5765,-655.9929 542.1515,-656.64 540.2469,-649.9041"/>
</g>
<!-- Node119 -->
<g id="node44" class="node">
<title>Node119</title>
<g id="a_node44"><a xlink:href="classgko_1_1EnablePolymorphicObject.html" target="_top" xlink:title="This mixin inherits from (a subclass of) PolymorphicObject and provides a base implementation of a ne...">
<polygon fill="#ffffff" stroke="#000000" points="376,-601 376,-631 581,-631 581,-601 376,-601"/>
<text text-anchor="start" x="384" y="-619" font-family="Helvetica,sans-Serif" font-size="10.00" fill="#000000">gko::EnablePolymorphicObject</text>
<text text-anchor="middle" x="478.5" y="-608" font-family="Helvetica,sans-Serif" font-size="10.00" fill="#000000">&lt; ConcreteObject, PolymorphicBase &gt;</text>
</a>
</g>
</g>
<!-- Node118&#45;&gt;Node119 -->
<g id="edge43" class="edge">
<title>Node118&#45;&gt;Node119</title>
<path fill="none" stroke="#191970" d="M348.5197,-616C357.6003,-616 366.753,-616 375.7701,-616"/>
<polygon fill="#191970" stroke="#191970" points="348.3093,-612.5001 338.3093,-616 348.3093,-619.5001 348.3093,-612.5001"/>
</g>
</g>
</svg>
