<?xml version="1.0" encoding="UTF-8" standalone="no"?>
<!DOCTYPE svg PUBLIC "-//W3C//DTD SVG 1.1//EN"
 "http://www.w3.org/Graphics/SVG/1.1/DTD/svg11.dtd">
<!-- Generated by graphviz version 2.40.1 (20161225.0304)
 -->
<!-- Title: Graphical Class Hierarchy Pages: 1 -->
<svg width="1047pt" height="711pt"
 viewBox="0.00 0.00 1047.00 711.00" xmlns="http://www.w3.org/2000/svg" xmlns:xlink="http://www.w3.org/1999/xlink">
<g id="graph0" class="graph" transform="scale(1 1) rotate(0) translate(4 707)">
<title>Graphical Class Hierarchy</title>
<polygon fill="#ffffff" stroke="transparent" points="-4,4 -4,-707 1043,-707 1043,4 -4,4"/>
<!-- Node342 -->
<g id="node1" class="node">
<title>Node342</title>
<g id="a_node1"><a xlink:href="classgko_1_1ConvertibleTo.html" target="_top" xlink:title="gko::ConvertibleTo\l\&lt; ConcreteFactory \&gt;">
<polygon fill="#ffffff" stroke="#000000" points="178.5,-359 178.5,-389 296.5,-389 296.5,-359 178.5,-359"/>
<text text-anchor="start" x="186.5" y="-377" font-family="Helvetica,sans-Serif" font-size="10.00" fill="#000000">gko::ConvertibleTo</text>
<text text-anchor="middle" x="237.5" y="-366" font-family="Helvetica,sans-Serif" font-size="10.00" fill="#000000">&lt; ConcreteFactory &gt;</text>
</a>
</g>
</g>
<!-- Node343 -->
<g id="node2" class="node">
<title>Node343</title>
<g id="a_node2"><a xlink:href="classgko_1_1EnablePolymorphicAssignment.html" target="_top" xlink:title="gko::EnablePolymorphicAssignment\l\&lt; ConcreteFactory \&gt;">
<polygon fill="#ffffff" stroke="#000000" points="382.5,-357 382.5,-387 574.5,-387 574.5,-357 382.5,-357"/>
<text text-anchor="start" x="390.5" y="-375" font-family="Helvetica,sans-Serif" font-size="10.00" fill="#000000">gko::EnablePolymorphicAssignment</text>
<text text-anchor="middle" x="478.5" y="-364" font-family="Helvetica,sans-Serif" font-size="10.00" fill="#000000">&lt; ConcreteFactory &gt;</text>
</a>
</g>
</g>
<!-- Node342&#45;&gt;Node343 -->
<g id="edge1" class="edge">
<title>Node342&#45;&gt;Node343</title>
<path fill="none" stroke="#191970" d="M306.9738,-373.4235C330.4758,-373.2284 357.1541,-373.007 382.3502,-372.7979"/>
<polygon fill="#191970" stroke="#191970" points="306.7345,-369.9252 296.7639,-373.5082 306.7926,-376.925 306.7345,-369.9252"/>
</g>
<!-- Node2 -->
<g id="node3" class="node">
<title>Node2</title>
<g id="a_node3"><a xlink:href="classgko_1_1EnableDefaultFactory.html" target="_top" xlink:title="This mixin provides a default implementation of a concrete factory. ">
<polygon fill="#ffffff" stroke="#000000" points="619,-325.5 619,-366.5 819,-366.5 819,-325.5 619,-325.5"/>
<text text-anchor="start" x="627" y="-354.5" font-family="Helvetica,sans-Serif" font-size="10.00" fill="#000000">gko::EnableDefaultFactory</text>
<text text-anchor="start" x="627" y="-343.5" font-family="Helvetica,sans-Serif" font-size="10.00" fill="#000000">&lt; ConcreteFactory, ProductType,</text>
<text text-anchor="middle" x="719" y="-332.5" font-family="Helvetica,sans-Serif" font-size="10.00" fill="#000000"> ParametersType, PolymorphicBase &gt;</text>
</a>
</g>
</g>
<!-- Node343&#45;&gt;Node2 -->
<g id="edge2" class="edge">
<title>Node343&#45;&gt;Node2</title>
<path fill="none" stroke="#191970" d="M584.8695,-360.5006C596.127,-359.2836 607.5489,-358.0488 618.7336,-356.8396"/>
<polygon fill="#191970" stroke="#191970" points="584.1547,-357.0574 574.5888,-361.612 584.9071,-364.0168 584.1547,-357.0574"/>
</g>
<!-- Node3 -->
<g id="node4" class="node">
<title>Node3</title>
<g id="a_node4"><a xlink:href="classgko_1_1factorization_1_1ParIlu_1_1Factory.html" target="_top" xlink:title="gko::factorization\l::ParIlu\&lt; ValueType,\l IndexType \&gt;::Factory">
<polygon fill="#ffffff" stroke="#000000" points="886,-661.5 886,-702.5 1008,-702.5 1008,-661.5 886,-661.5"/>
<text text-anchor="start" x="894" y="-690.5" font-family="Helvetica,sans-Serif" font-size="10.00" fill="#000000">gko::factorization</text>
<text text-anchor="start" x="894" y="-679.5" font-family="Helvetica,sans-Serif" font-size="10.00" fill="#000000">::ParIlu&lt; ValueType,</text>
<text text-anchor="middle" x="947" y="-668.5" font-family="Helvetica,sans-Serif" font-size="10.00" fill="#000000"> IndexType &gt;::Factory</text>
</a>
</g>
</g>
<!-- Node2&#45;&gt;Node3 -->
<g id="edge3" class="edge">
<title>Node2&#45;&gt;Node3</title>
<path fill="none" stroke="#191970" d="M724.109,-376.7141C735.8991,-437.9771 770.7293,-575.9918 855,-652 863.7326,-659.8764 874.5683,-665.6885 885.7039,-669.9762"/>
<polygon fill="#191970" stroke="#191970" points="727.5503,-376.0753 722.289,-366.8792 720.6671,-377.3491 727.5503,-376.0753"/>
</g>
<!-- Node4 -->
<g id="node5" class="node">
<title>Node4</title>
<g id="a_node5"><a xlink:href="classgko_1_1preconditioner_1_1Jacobi_1_1Factory.html" target="_top" xlink:title="gko::preconditioner\l::Jacobi\&lt; ValueType,\l IndexType \&gt;::Factory">
<polygon fill="#ffffff" stroke="#000000" points="886,-601.5 886,-642.5 1008,-642.5 1008,-601.5 886,-601.5"/>
<text text-anchor="start" x="894" y="-630.5" font-family="Helvetica,sans-Serif" font-size="10.00" fill="#000000">gko::preconditioner</text>
<text text-anchor="start" x="894" y="-619.5" font-family="Helvetica,sans-Serif" font-size="10.00" fill="#000000">::Jacobi&lt; ValueType,</text>
<text text-anchor="middle" x="947" y="-608.5" font-family="Helvetica,sans-Serif" font-size="10.00" fill="#000000"> IndexType &gt;::Factory</text>
</a>
</g>
</g>
<!-- Node2&#45;&gt;Node4 -->
<g id="edge4" class="edge">
<title>Node2&#45;&gt;Node4</title>
<path fill="none" stroke="#191970" d="M727.6043,-376.1204C743.8926,-427.7973 784.1063,-533.4301 855,-592 863.9366,-599.3831 874.7394,-604.9657 885.7531,-609.182"/>
<polygon fill="#191970" stroke="#191970" points="730.9426,-375.0682 724.6637,-366.5344 724.2504,-377.1212 730.9426,-375.0682"/>
</g>
<!-- Node5 -->
<g id="node6" class="node">
<title>Node5</title>
<g id="a_node6"><a xlink:href="classgko_1_1solver_1_1Bicgstab_1_1Factory.html" target="_top" xlink:title="gko::solver::Bicgstab\l\&lt; ValueType \&gt;::Factory">
<polygon fill="#ffffff" stroke="#000000" points="882,-552 882,-582 1012,-582 1012,-552 882,-552"/>
<text text-anchor="start" x="890" y="-570" font-family="Helvetica,sans-Serif" font-size="10.00" fill="#000000">gko::solver::Bicgstab</text>
<text text-anchor="middle" x="947" y="-559" font-family="Helvetica,sans-Serif" font-size="10.00" fill="#000000">&lt; ValueType &gt;::Factory</text>
</a>
</g>
</g>
<!-- Node2&#45;&gt;Node5 -->
<g id="edge5" class="edge">
<title>Node2&#45;&gt;Node5</title>
<path fill="none" stroke="#191970" d="M731.3701,-375.8354C750.9923,-419.3961 793.4411,-499.8948 855,-543 862.9776,-548.5862 872.1647,-552.8722 881.5801,-556.1607"/>
<polygon fill="#191970" stroke="#191970" points="734.5445,-374.3595 727.3113,-366.6179 728.1381,-377.1805 734.5445,-374.3595"/>
</g>
<!-- Node6 -->
<g id="node7" class="node">
<title>Node6</title>
<g id="a_node7"><a xlink:href="classgko_1_1solver_1_1Cg_1_1Factory.html" target="_top" xlink:title="gko::solver::Cg\&lt; ValueType\l \&gt;::Factory">
<polygon fill="#ffffff" stroke="#000000" points="872,-503 872,-533 1022,-533 1022,-503 872,-503"/>
<text text-anchor="start" x="880" y="-521" font-family="Helvetica,sans-Serif" font-size="10.00" fill="#000000">gko::solver::Cg&lt; ValueType</text>
<text text-anchor="middle" x="947" y="-510" font-family="Helvetica,sans-Serif" font-size="10.00" fill="#000000"> &gt;::Factory</text>
</a>
</g>
</g>
<!-- Node2&#45;&gt;Node6 -->
<g id="edge6" class="edge">
<title>Node2&#45;&gt;Node6</title>
<path fill="none" stroke="#191970" d="M737.9736,-375.1874C761.4273,-408.9049 804.4888,-463.6256 855,-494 860.6584,-497.4026 866.7947,-500.3279 873.1213,-502.8419"/>
<polygon fill="#191970" stroke="#191970" points="740.6954,-372.9667 732.1645,-366.6838 734.9153,-376.9153 740.6954,-372.9667"/>
</g>
<!-- Node7 -->
<g id="node8" class="node">
<title>Node7</title>
<g id="a_node8"><a xlink:href="classgko_1_1solver_1_1Cgs_1_1Factory.html" target="_top" xlink:title="gko::solver::Cgs\&lt; ValueType\l \&gt;::Factory">
<polygon fill="#ffffff" stroke="#000000" points="869.5,-454 869.5,-484 1024.5,-484 1024.5,-454 869.5,-454"/>
<text text-anchor="start" x="877.5" y="-472" font-family="Helvetica,sans-Serif" font-size="10.00" fill="#000000">gko::solver::Cgs&lt; ValueType</text>
<text text-anchor="middle" x="947" y="-461" font-family="Helvetica,sans-Serif" font-size="10.00" fill="#000000"> &gt;::Factory</text>
</a>
</g>
</g>
<!-- Node2&#45;&gt;Node7 -->
<g id="edge7" class="edge">
<title>Node2&#45;&gt;Node7</title>
<path fill="none" stroke="#191970" d="M749.5235,-373.4308C775.7697,-395.6789 815.531,-426.3122 855,-445 862.1611,-448.3906 869.8712,-451.3535 877.6726,-453.9299"/>
<polygon fill="#191970" stroke="#191970" points="751.6931,-370.6805 741.8274,-366.818 747.1311,-375.9898 751.6931,-370.6805"/>
</g>
<!-- Node8 -->
<g id="node9" class="node">
<title>Node8</title>
<g id="a_node9"><a xlink:href="classgko_1_1solver_1_1Fcg_1_1Factory.html" target="_top" xlink:title="gko::solver::Fcg\&lt; ValueType\l \&gt;::Factory">
<polygon fill="#ffffff" stroke="#000000" points="870,-405 870,-435 1024,-435 1024,-405 870,-405"/>
<text text-anchor="start" x="878" y="-423" font-family="Helvetica,sans-Serif" font-size="10.00" fill="#000000">gko::solver::Fcg&lt; ValueType</text>
<text text-anchor="middle" x="947" y="-412" font-family="Helvetica,sans-Serif" font-size="10.00" fill="#000000"> &gt;::Factory</text>
</a>
</g>
</g>
<!-- Node2&#45;&gt;Node8 -->
<g id="edge8" class="edge">
<title>Node2&#45;&gt;Node8</title>
<path fill="none" stroke="#191970" d="M780.5858,-370.0808C803.7469,-378.7557 830.421,-388.2958 855,-396 864.9232,-399.1104 875.5341,-402.1434 885.8931,-404.9487"/>
<polygon fill="#191970" stroke="#191970" points="781.819,-366.8053 771.2273,-366.5515 779.349,-373.355 781.819,-366.8053"/>
</g>
<!-- Node9 -->
<g id="node10" class="node">
<title>Node9</title>
<g id="a_node10"><a xlink:href="classgko_1_1solver_1_1Gmres_1_1Factory.html" target="_top" xlink:title="gko::solver::Gmres\l\&lt; ValueType \&gt;::Factory">
<polygon fill="#ffffff" stroke="#000000" points="882,-356 882,-386 1012,-386 1012,-356 882,-356"/>
<text text-anchor="start" x="890" y="-374" font-family="Helvetica,sans-Serif" font-size="10.00" fill="#000000">gko::solver::Gmres</text>
<text text-anchor="middle" x="947" y="-363" font-family="Helvetica,sans-Serif" font-size="10.00" fill="#000000">&lt; ValueType &gt;::Factory</text>
</a>
</g>
</g>
<!-- Node2&#45;&gt;Node9 -->
<g id="edge9" class="edge">
<title>Node2&#45;&gt;Node9</title>
<path fill="none" stroke="#191970" d="M829.0243,-358.0641C847.1062,-360.0467 865.3216,-362.044 881.8479,-363.8561"/>
<polygon fill="#191970" stroke="#191970" points="829.3261,-354.5763 819.0041,-356.9654 828.563,-361.5346 829.3261,-354.5763"/>
</g>
<!-- Node10 -->
<g id="node11" class="node">
<title>Node10</title>
<g id="a_node11"><a xlink:href="classgko_1_1solver_1_1Ir_1_1Factory.html" target="_top" xlink:title="gko::solver::Ir\&lt; ValueType\l \&gt;::Factory">
<polygon fill="#ffffff" stroke="#000000" points="875,-307 875,-337 1019,-337 1019,-307 875,-307"/>
<text text-anchor="start" x="883" y="-325" font-family="Helvetica,sans-Serif" font-size="10.00" fill="#000000">gko::solver::Ir&lt; ValueType</text>
<text text-anchor="middle" x="947" y="-314" font-family="Helvetica,sans-Serif" font-size="10.00" fill="#000000"> &gt;::Factory</text>
</a>
</g>
</g>
<!-- Node2&#45;&gt;Node10 -->
<g id="edge10" class="edge">
<title>Node2&#45;&gt;Node10</title>
<path fill="none" stroke="#191970" d="M829.1682,-334.4033C844.6744,-332.7711 860.2753,-331.1289 874.8215,-329.5977"/>
<polygon fill="#191970" stroke="#191970" points="828.5827,-330.9455 819.0041,-335.4733 829.3156,-337.9071 828.5827,-330.9455"/>
</g>
<!-- Node11 -->
<g id="node12" class="node">
<title>Node11</title>
<g id="a_node12"><a xlink:href="classgko_1_1solver_1_1LowerTrs_1_1Factory.html" target="_top" xlink:title="gko::solver::LowerTrs\l\&lt; ValueType, IndexType\l \&gt;::Factory">
<polygon fill="#ffffff" stroke="#000000" points="880.5,-246.5 880.5,-287.5 1013.5,-287.5 1013.5,-246.5 880.5,-246.5"/>
<text text-anchor="start" x="888.5" y="-275.5" font-family="Helvetica,sans-Serif" font-size="10.00" fill="#000000">gko::solver::LowerTrs</text>
<text text-anchor="start" x="888.5" y="-264.5" font-family="Helvetica,sans-Serif" font-size="10.00" fill="#000000">&lt; ValueType, IndexType</text>
<text text-anchor="middle" x="947" y="-253.5" font-family="Helvetica,sans-Serif" font-size="10.00" fill="#000000"> &gt;::Factory</text>
</a>
</g>
</g>
<!-- Node2&#45;&gt;Node11 -->
<g id="edge11" class="edge">
<title>Node2&#45;&gt;Node11</title>
<path fill="none" stroke="#191970" d="M786.0676,-322.1153C808.0137,-314.3568 832.5255,-305.7521 855,-298 864.8787,-294.5926 875.3686,-291.0173 885.5943,-287.5554"/>
<polygon fill="#191970" stroke="#191970" points="784.7675,-318.8626 776.5082,-325.4985 787.103,-325.4615 784.7675,-318.8626"/>
</g>
<!-- Node12 -->
<g id="node13" class="node">
<title>Node12</title>
<g id="a_node13"><a xlink:href="classgko_1_1solver_1_1UpperTrs_1_1Factory.html" target="_top" xlink:title="gko::solver::UpperTrs\l\&lt; ValueType, IndexType\l \&gt;::Factory">
<polygon fill="#ffffff" stroke="#000000" points="880.5,-186.5 880.5,-227.5 1013.5,-227.5 1013.5,-186.5 880.5,-186.5"/>
<text text-anchor="start" x="888.5" y="-215.5" font-family="Helvetica,sans-Serif" font-size="10.00" fill="#000000">gko::solver::UpperTrs</text>
<text text-anchor="start" x="888.5" y="-204.5" font-family="Helvetica,sans-Serif" font-size="10.00" fill="#000000">&lt; ValueType, IndexType</text>
<text text-anchor="middle" x="947" y="-193.5" font-family="Helvetica,sans-Serif" font-size="10.00" fill="#000000"> &gt;::Factory</text>
</a>
</g>
</g>
<!-- Node2&#45;&gt;Node12 -->
<g id="edge12" class="edge">
<title>Node2&#45;&gt;Node12</title>
<path fill="none" stroke="#191970" d="M747.135,-318.3406C773.2137,-294.0146 814.0532,-259.1267 855,-237 862.9812,-232.6871 871.6889,-228.8589 880.4614,-225.5028"/>
<polygon fill="#191970" stroke="#191970" points="744.7249,-315.8026 739.8577,-325.2133 749.5312,-320.8918 744.7249,-315.8026"/>
</g>
<!-- Node13 -->
<g id="node14" class="node">
<title>Node13</title>
<g id="a_node14"><a xlink:href="classgko_1_1stop_1_1Combined_1_1Factory.html" target="_top" xlink:title="gko::stop::Combined\l::Factory">
<polygon fill="#ffffff" stroke="#000000" points="888.5,-137 888.5,-167 1005.5,-167 1005.5,-137 888.5,-137"/>
<text text-anchor="start" x="896.5" y="-155" font-family="Helvetica,sans-Serif" font-size="10.00" fill="#000000">gko::stop::Combined</text>
<text text-anchor="middle" x="947" y="-144" font-family="Helvetica,sans-Serif" font-size="10.00" fill="#000000">::Factory</text>
</a>
</g>
</g>
<!-- Node2&#45;&gt;Node13 -->
<g id="edge13" class="edge">
<title>Node2&#45;&gt;Node13</title>
<path fill="none" stroke="#191970" d="M739.1167,-316.81C769.4114,-273.6317 826.2513,-195.8046 855,-177 864.973,-170.4766 876.6136,-165.6451 888.1948,-162.0698"/>
<polygon fill="#191970" stroke="#191970" points="736.1067,-315.0073 733.2512,-325.2102 741.846,-319.0149 736.1067,-315.0073"/>
</g>
<!-- Node14 -->
<g id="node15" class="node">
<title>Node14</title>
<g id="a_node15"><a xlink:href="classgko_1_1stop_1_1Iteration_1_1Factory.html" target="_top" xlink:title="gko::stop::Iteration\l::Factory">
<polygon fill="#ffffff" stroke="#000000" points="892.5,-88 892.5,-118 1001.5,-118 1001.5,-88 892.5,-88"/>
<text text-anchor="start" x="900.5" y="-106" font-family="Helvetica,sans-Serif" font-size="10.00" fill="#000000">gko::stop::Iteration</text>
<text text-anchor="middle" x="947" y="-95" font-family="Helvetica,sans-Serif" font-size="10.00" fill="#000000">::Factory</text>
</a>
</g>
</g>
<!-- Node2&#45;&gt;Node14 -->
<g id="edge14" class="edge">
<title>Node2&#45;&gt;Node14</title>
<path fill="none" stroke="#191970" d="M742.8574,-317.5715C764.4928,-290.9165 796.3691,-249.3764 819,-210 839.0362,-175.1383 824.464,-153.16 855,-127 865.5299,-117.9791 879.0549,-112.2941 892.4756,-108.7272"/>
<polygon fill="#191970" stroke="#191970" points="740.1187,-315.3917 736.4934,-325.347 745.5356,-319.8253 740.1187,-315.3917"/>
</g>
<!-- Node15 -->
<g id="node16" class="node">
<title>Node15</title>
<g id="a_node16"><a xlink:href="classgko_1_1stop_1_1ResidualNormReduction_1_1Factory.html" target="_top" xlink:title="gko::stop::ResidualNormReduction\l\&lt; ValueType \&gt;::Factory">
<polygon fill="#ffffff" stroke="#000000" points="855,-39 855,-69 1039,-69 1039,-39 855,-39"/>
<text text-anchor="start" x="863" y="-57" font-family="Helvetica,sans-Serif" font-size="10.00" fill="#000000">gko::stop::ResidualNormReduction</text>
<text text-anchor="middle" x="947" y="-46" font-family="Helvetica,sans-Serif" font-size="10.00" fill="#000000">&lt; ValueType &gt;::Factory</text>
</a>
</g>
</g>
<!-- Node2&#45;&gt;Node15 -->
<g id="edge15" class="edge">
<title>Node2&#45;&gt;Node15</title>
<path fill="none" stroke="#191970" d="M744.5956,-317.8193C767.1381,-291.631 799.3553,-250.6533 819,-210 845.4575,-155.248 811.764,-120.7601 855,-78 858.4036,-74.6339 862.2166,-71.7224 866.3027,-69.2058"/>
<polygon fill="#191970" stroke="#191970" points="741.8708,-315.6185 737.9349,-325.4551 747.146,-320.22 741.8708,-315.6185"/>
</g>
<!-- Node16 -->
<g id="node17" class="node">
<title>Node16</title>
<g id="a_node17"><a xlink:href="classgko_1_1stop_1_1Time_1_1Factory.html" target="_top" xlink:title="gko::stop::Time::Factory">
<polygon fill="#ffffff" stroke="#000000" points="880,-.5 880,-19.5 1014,-19.5 1014,-.5 880,-.5"/>
<text text-anchor="middle" x="947" y="-7.5" font-family="Helvetica,sans-Serif" font-size="10.00" fill="#000000">gko::stop::Time::Factory</text>
</a>
</g>
</g>
<!-- Node2&#45;&gt;Node16 -->
<g id="edge16" class="edge">
<title>Node2&#45;&gt;Node16</title>
<path fill="none" stroke="#191970" d="M745.6841,-317.6741C768.6613,-291.6776 800.8954,-251.0721 819,-210 852.0831,-134.9479 797.2158,-87.2091 855,-29 861.8941,-22.0553 870.6102,-17.3222 879.9157,-14.1455"/>
<polygon fill="#191970" stroke="#191970" points="742.9523,-315.4779 738.8763,-325.2573 748.1612,-320.1541 742.9523,-315.4779"/>
</g>
<!-- Node340 -->
<g id="node18" class="node">
<title>Node340</title>
<g id="a_node18"><a xlink:href="classgko_1_1ConvertibleTo.html" target="_top" xlink:title="gko::ConvertibleTo\l\&lt; ConcreteLinOp \&gt;">
<polygon fill="#ffffff" stroke="#000000" points="182.5,-69 182.5,-99 292.5,-99 292.5,-69 182.5,-69"/>
<text text-anchor="start" x="190.5" y="-87" font-family="Helvetica,sans-Serif" font-size="10.00" fill="#000000">gko::ConvertibleTo</text>
<text text-anchor="middle" x="237.5" y="-76" font-family="Helvetica,sans-Serif" font-size="10.00" fill="#000000">&lt; ConcreteLinOp &gt;</text>
</a>
</g>
</g>
<!-- Node341 -->
<g id="node19" class="node">
<title>Node341</title>
<g id="a_node19"><a xlink:href="classgko_1_1EnablePolymorphicAssignment.html" target="_top" xlink:title="gko::EnablePolymorphicAssignment\l\&lt; ConcreteLinOp \&gt;">
<polygon fill="#ffffff" stroke="#000000" points="382.5,-102 382.5,-132 574.5,-132 574.5,-102 382.5,-102"/>
<text text-anchor="start" x="390.5" y="-120" font-family="Helvetica,sans-Serif" font-size="10.00" fill="#000000">gko::EnablePolymorphicAssignment</text>
<text text-anchor="middle" x="478.5" y="-109" font-family="Helvetica,sans-Serif" font-size="10.00" fill="#000000">&lt; ConcreteLinOp &gt;</text>
</a>
</g>
</g>
<!-- Node340&#45;&gt;Node341 -->
<g id="edge17" class="edge">
<title>Node340&#45;&gt;Node341</title>
<path fill="none" stroke="#191970" d="M303.011,-92.9704C327.4452,-96.3161 355.7195,-100.1877 382.34,-103.8329"/>
<polygon fill="#191970" stroke="#191970" points="303.1727,-89.4599 292.7903,-91.5709 302.223,-96.3952 303.1727,-89.4599"/>
</g>
<!-- Node68 -->
<g id="node20" class="node">
<title>Node68</title>
<g id="a_node20"><a xlink:href="classgko_1_1EnableLinOp.html" target="_top" xlink:title="The EnableLinOp mixin can be used to provide sensible default implementations of the majority of the ...">
<polygon fill="#ffffff" stroke="#000000" points="641,-171 641,-201 797,-201 797,-171 641,-171"/>
<text text-anchor="start" x="649" y="-189" font-family="Helvetica,sans-Serif" font-size="10.00" fill="#000000">gko::EnableLinOp&lt; Concrete</text>
<text text-anchor="middle" x="719" y="-178" font-family="Helvetica,sans-Serif" font-size="10.00" fill="#000000">LinOp, PolymorphicBase &gt;</text>
</a>
</g>
</g>
<!-- Node341&#45;&gt;Node68 -->
<g id="edge18" class="edge">
<title>Node341&#45;&gt;Node68</title>
<path fill="none" stroke="#191970" d="M540.6687,-134.8363C579.7402,-146.0461 629.5785,-160.3448 666.6303,-170.975"/>
<polygon fill="#191970" stroke="#191970" points="541.559,-131.4506 530.9816,-132.0571 539.6285,-138.1792 541.559,-131.4506"/>
</g>
<!-- Node48 -->
<g id="node21" class="node">
<title>Node48</title>
<polygon fill="#ffffff" stroke="#bfbfbf" points="0,-219.5 0,-238.5 101,-238.5 101,-219.5 0,-219.5"/>
<text text-anchor="middle" x="50.5" y="-226.5" font-family="Helvetica,sans-Serif" font-size="10.00" fill="#000000">PolymorphicBase</text>
</g>
<!-- Node0 -->
<g id="node22" class="node">
<title>Node0</title>
<g id="a_node22"><a xlink:href="classgko_1_1EnableAbstractPolymorphicObject.html" target="_top" xlink:title="gko::EnableAbstractPolymorphic\lObject\&lt; ConcreteFactory,\l PolymorphicBase \&gt;">
<polygon fill="#ffffff" stroke="#000000" points="150,-298.5 150,-339.5 325,-339.5 325,-298.5 150,-298.5"/>
<text text-anchor="start" x="158" y="-327.5" font-family="Helvetica,sans-Serif" font-size="10.00" fill="#000000">gko::EnableAbstractPolymorphic</text>
<text text-anchor="start" x="158" y="-316.5" font-family="Helvetica,sans-Serif" font-size="10.00" fill="#000000">Object&lt; ConcreteFactory,</text>
<text text-anchor="middle" x="237.5" y="-305.5" font-family="Helvetica,sans-Serif" font-size="10.00" fill="#000000"> PolymorphicBase &gt;</text>
</a>
</g>
</g>
<!-- Node48&#45;&gt;Node0 -->
<g id="edge19" class="edge">
<title>Node48&#45;&gt;Node0</title>
<path fill="none" stroke="#191970" d="M69.7579,-245.0372C86.5963,-258.3812 112.1743,-277.0608 137,-289 144.2203,-292.4724 151.9274,-295.6373 159.7408,-298.498"/>
<polygon fill="#191970" stroke="#191970" points="71.7781,-242.1699 61.7994,-238.6095 67.3798,-247.6156 71.7781,-242.1699"/>
</g>
<!-- Node66 -->
<g id="node24" class="node">
<title>Node66</title>
<g id="a_node24"><a xlink:href="classgko_1_1EnableAbstractPolymorphicObject.html" target="_top" xlink:title="gko::EnableAbstractPolymorphic\lObject\&lt; ConcreteLinOp, Polymorphic\lBase \&gt;">
<polygon fill="#ffffff" stroke="#000000" points="139,-238.5 139,-279.5 336,-279.5 336,-238.5 139,-238.5"/>
<text text-anchor="start" x="147" y="-267.5" font-family="Helvetica,sans-Serif" font-size="10.00" fill="#000000">gko::EnableAbstractPolymorphic</text>
<text text-anchor="start" x="147" y="-256.5" font-family="Helvetica,sans-Serif" font-size="10.00" fill="#000000">Object&lt; ConcreteLinOp, Polymorphic</text>
<text text-anchor="middle" x="237.5" y="-245.5" font-family="Helvetica,sans-Serif" font-size="10.00" fill="#000000">Base &gt;</text>
</a>
</g>
</g>
<!-- Node48&#45;&gt;Node66 -->
<g id="edge22" class="edge">
<title>Node48&#45;&gt;Node66</title>
<path fill="none" stroke="#191970" d="M111.016,-238.7084C119.9879,-240.1478 129.4246,-241.6617 138.9314,-243.1869"/>
<polygon fill="#191970" stroke="#191970" points="111.5331,-235.2467 101.1049,-237.1184 110.4242,-242.1584 111.5331,-235.2467"/>
</g>
<!-- Node69 -->
<g id="node26" class="node">
<title>Node69</title>
<g id="a_node26"><a xlink:href="classgko_1_1EnableAbstractPolymorphicObject.html" target="_top" xlink:title="gko::EnableAbstractPolymorphic\lObject\&lt; ConcreteObject, Polymorphic\lBase \&gt;">
<polygon fill="#ffffff" stroke="#000000" points="137,-178.5 137,-219.5 338,-219.5 338,-178.5 137,-178.5"/>
<text text-anchor="start" x="145" y="-207.5" font-family="Helvetica,sans-Serif" font-size="10.00" fill="#000000">gko::EnableAbstractPolymorphic</text>
<text text-anchor="start" x="145" y="-196.5" font-family="Helvetica,sans-Serif" font-size="10.00" fill="#000000">Object&lt; ConcreteObject, Polymorphic</text>
<text text-anchor="middle" x="237.5" y="-185.5" font-family="Helvetica,sans-Serif" font-size="10.00" fill="#000000">Base &gt;</text>
</a>
</g>
</g>
<!-- Node48&#45;&gt;Node69 -->
<g id="edge25" class="edge">
<title>Node48&#45;&gt;Node69</title>
<path fill="none" stroke="#191970" d="M111.0054,-219.2933C119.3008,-217.9624 127.9936,-216.5679 136.772,-215.1596"/>
<polygon fill="#191970" stroke="#191970" points="110.4242,-215.8416 101.1049,-220.8816 111.5331,-222.7533 110.4242,-215.8416"/>
</g>
<!-- Node71 -->
<g id="node28" class="node">
<title>Node71</title>
<g id="a_node28"><a xlink:href="classgko_1_1EnableAbstractPolymorphicObject.html" target="_top" xlink:title="This mixin inherits from (a subclass of) PolymorphicObject and provides a base implementation of a ne...">
<polygon fill="#ffffff" stroke="#000000" points="140.5,-118.5 140.5,-159.5 334.5,-159.5 334.5,-118.5 140.5,-118.5"/>
<text text-anchor="start" x="148.5" y="-147.5" font-family="Helvetica,sans-Serif" font-size="10.00" fill="#000000">gko::EnableAbstractPolymorphic</text>
<text text-anchor="start" x="148.5" y="-136.5" font-family="Helvetica,sans-Serif" font-size="10.00" fill="#000000">Object&lt; AbstactObject, Polymorphic</text>
<text text-anchor="middle" x="237.5" y="-125.5" font-family="Helvetica,sans-Serif" font-size="10.00" fill="#000000">Base &gt;</text>
</a>
</g>
</g>
<!-- Node48&#45;&gt;Node71 -->
<g id="edge27" class="edge">
<title>Node48&#45;&gt;Node71</title>
<path fill="none" stroke="#191970" d="M69.7579,-212.9628C86.5963,-199.6188 112.1743,-180.9392 137,-169 144.2203,-165.5276 151.9274,-162.3627 159.7408,-159.502"/>
<polygon fill="#191970" stroke="#191970" points="67.3798,-210.3844 61.7994,-219.3905 71.7781,-215.8301 67.3798,-210.3844"/>
</g>
<!-- Node1 -->
<g id="node23" class="node">
<title>Node1</title>
<g id="a_node23"><a xlink:href="classgko_1_1EnablePolymorphicObject.html" target="_top" xlink:title="gko::EnablePolymorphicObject\l\&lt; ConcreteFactory, PolymorphicBase \&gt;">
<polygon fill="#ffffff" stroke="#000000" points="374,-305 374,-335 583,-335 583,-305 374,-305"/>
<text text-anchor="start" x="382" y="-323" font-family="Helvetica,sans-Serif" font-size="10.00" fill="#000000">gko::EnablePolymorphicObject</text>
<text text-anchor="middle" x="478.5" y="-312" font-family="Helvetica,sans-Serif" font-size="10.00" fill="#000000">&lt; ConcreteFactory, PolymorphicBase &gt;</text>
</a>
</g>
</g>
<!-- Node0&#45;&gt;Node1 -->
<g id="edge20" class="edge">
<title>Node0&#45;&gt;Node1</title>
<path fill="none" stroke="#191970" d="M335.2497,-319.4056C347.9022,-319.4581 360.902,-319.512 373.6633,-319.565"/>
<polygon fill="#191970" stroke="#191970" points="335.2027,-315.9055 325.1883,-319.3639 335.1736,-322.9054 335.2027,-315.9055"/>
</g>
<!-- Node1&#45;&gt;Node2 -->
<g id="edge21" class="edge">
<title>Node1&#45;&gt;Node2</title>
<path fill="none" stroke="#191970" d="M593.2573,-332.4062C601.7736,-333.3269 610.3266,-334.2515 618.7451,-335.1616"/>
<polygon fill="#191970" stroke="#191970" points="593.6055,-328.9235 583.2872,-331.3283 592.853,-335.883 593.6055,-328.9235"/>
</g>
<!-- Node67 -->
<g id="node25" class="node">
<title>Node67</title>
<g id="a_node25"><a xlink:href="classgko_1_1EnablePolymorphicObject.html" target="_top" xlink:title="gko::EnablePolymorphicObject\l\&lt; ConcreteLinOp, PolymorphicBase \&gt;">
<polygon fill="#ffffff" stroke="#000000" points="378,-239 378,-269 579,-269 579,-239 378,-239"/>
<text text-anchor="start" x="386" y="-257" font-family="Helvetica,sans-Serif" font-size="10.00" fill="#000000">gko::EnablePolymorphicObject</text>
<text text-anchor="middle" x="478.5" y="-246" font-family="Helvetica,sans-Serif" font-size="10.00" fill="#000000">&lt; ConcreteLinOp, PolymorphicBase &gt;</text>
</a>
</g>
</g>
<!-- Node66&#45;&gt;Node67 -->
<g id="edge23" class="edge">
<title>Node66&#45;&gt;Node67</title>
<path fill="none" stroke="#191970" d="M346.2891,-256.743C356.8418,-256.524 367.5155,-256.3026 377.9822,-256.0854"/>
<polygon fill="#191970" stroke="#191970" points="346.1445,-253.2451 336.2193,-256.9519 346.2898,-260.2436 346.1445,-253.2451"/>
</g>
<!-- Node67&#45;&gt;Node68 -->
<g id="edge24" class="edge">
<title>Node67&#45;&gt;Node68</title>
<path fill="none" stroke="#191970" d="M541.657,-236.1427C580.2306,-225.2363 629.011,-211.4439 665.6439,-201.0861"/>
<polygon fill="#191970" stroke="#191970" points="540.2469,-232.9041 531.5765,-238.9929 542.1515,-239.64 540.2469,-232.9041"/>
</g>
<!-- Node70 -->
<g id="node27" class="node">
<title>Node70</title>
<g id="a_node27"><a xlink:href="classgko_1_1EnablePolymorphicObject.html" target="_top" xlink:title="This mixin inherits from (a subclass of) PolymorphicObject and provides a base implementation of a ne...">
<polygon fill="#ffffff" stroke="#000000" points="376,-184 376,-214 581,-214 581,-184 376,-184"/>
<text text-anchor="start" x="384" y="-202" font-family="Helvetica,sans-Serif" font-size="10.00" fill="#000000">gko::EnablePolymorphicObject</text>
<text text-anchor="middle" x="478.5" y="-191" font-family="Helvetica,sans-Serif" font-size="10.00" fill="#000000">&lt; ConcreteObject, PolymorphicBase &gt;</text>
</a>
</g>
</g>
<!-- Node69&#45;&gt;Node70 -->
<g id="edge26" class="edge">
<title>Node69&#45;&gt;Node70</title>
<path fill="none" stroke="#191970" d="M348.5197,-199C357.6003,-199 366.753,-199 375.7701,-199"/>
<polygon fill="#191970" stroke="#191970" points="348.3093,-195.5001 338.3093,-199 348.3093,-202.5001 348.3093,-195.5001"/>
</g>
</g>
</svg>
