<?xml version="1.0" encoding="UTF-8" standalone="no"?>
<!DOCTYPE svg PUBLIC "-//W3C//DTD SVG 1.1//EN"
 "http://www.w3.org/Graphics/SVG/1.1/DTD/svg11.dtd">
<!-- Generated by graphviz version 2.40.1 (20161225.0304)
 -->
<!-- Title: Graphical Class Hierarchy Pages: 1 -->
<svg width="378pt" height="61pt"
 viewBox="0.00 0.00 378.00 61.00" xmlns="http://www.w3.org/2000/svg" xmlns:xlink="http://www.w3.org/1999/xlink">
<g id="graph0" class="graph" transform="scale(1 1) rotate(0) translate(4 57)">
<title>Graphical Class Hierarchy</title>
<polygon fill="#ffffff" stroke="transparent" points="-4,4 -4,-57 374,-57 374,4 -4,4"/>
<!-- Node241 -->
<g id="node1" class="node">
<title>Node241</title>
<g id="a_node1"><a xlink:title=" ">
<polygon fill="#ffffff" stroke="#bfbfbf" points="0,-.5 0,-52.5 187,-52.5 187,-.5 0,-.5"/>
<text text-anchor="start" x="8" y="-40.5" font-family="Helvetica,sans-Serif" font-size="10.00" fill="#000000">gko::detail::implement</text>
<text text-anchor="start" x="8" y="-29.5" font-family="Helvetica,sans-Serif" font-size="10.00" fill="#000000">_binary_operation&lt; Kind,</text>
<text text-anchor="start" x="8" y="-18.5" font-family="Helvetica,sans-Serif" font-size="10.00" fill="#000000"> FirstOperand, SecondOperand,</text>
<text text-anchor="middle" x="93.5" y="-7.5" font-family="Helvetica,sans-Serif" font-size="10.00" fill="#000000"> ::gko::accessor::detail::left_shift &gt;</text>
</a>
</g>
</g>
<!-- Node0 -->
<g id="node2" class="node">
<title>Node0</title>
<g id="a_node2"><a xlink:href="structgko_1_1accessor_1_1left__shift.html" target="_top" xlink:title=" ">
<polygon fill="#ffffff" stroke="#000000" points="223,-6 223,-47 370,-47 370,-6 223,-6"/>
<text text-anchor="start" x="231" y="-35" font-family="Helvetica,sans-Serif" font-size="10.00" fill="#000000">gko::accessor::left</text>
<text text-anchor="start" x="231" y="-24" font-family="Helvetica,sans-Serif" font-size="10.00" fill="#000000">_shift&lt; Kind, FirstOperand,</text>
<text text-anchor="middle" x="296.5" y="-13" font-family="Helvetica,sans-Serif" font-size="10.00" fill="#000000"> SecondOperand &gt;</text>
</a>
</g>
</g>
<!-- Node241&#45;&gt;Node0 -->
<g id="edge1" class="edge">
<title>Node241&#45;&gt;Node0</title>
<path fill="none" stroke="#191970" d="M197.3746,-26.5C205.9815,-26.5 214.5657,-26.5 222.8793,-26.5"/>
<polygon fill="#191970" stroke="#191970" points="197.2752,-23.0001 187.2752,-26.5 197.2752,-30.0001 197.2752,-23.0001"/>
</g>
</g>
</svg>
