<?xml version="1.0" encoding="UTF-8" standalone="no"?>
<!DOCTYPE svg PUBLIC "-//W3C//DTD SVG 1.1//EN"
 "http://www.w3.org/Graphics/SVG/1.1/DTD/svg11.dtd">
<!-- Generated by graphviz version 2.40.1 (20161225.0304)
 -->
<!-- Title: Graphical Class Hierarchy Pages: 1 -->
<svg width="390pt" height="1279pt"
 viewBox="0.00 0.00 390.00 1279.00" xmlns="http://www.w3.org/2000/svg" xmlns:xlink="http://www.w3.org/1999/xlink">
<g id="graph0" class="graph" transform="scale(1 1) rotate(0) translate(4 1275)">
<title>Graphical Class Hierarchy</title>
<polygon fill="#ffffff" stroke="transparent" points="-4,4 -4,-1275 386,-1275 386,4 -4,4"/>
<!-- Node0 -->
<g id="node1" class="node">
<title>Node0</title>
<g id="a_node1"><a xlink:href="classgko_1_1enable__parameters__type.html" target="_top" xlink:title=" ">
<polygon fill="#ffffff" stroke="#000000" points="0,-570.5 0,-611.5 141,-611.5 141,-570.5 0,-570.5"/>
<text text-anchor="start" x="8" y="-599.5" font-family="Helvetica,sans-Serif" font-size="10.00" fill="#000000">gko::enable_parameters</text>
<text text-anchor="start" x="8" y="-588.5" font-family="Helvetica,sans-Serif" font-size="10.00" fill="#000000">_type&lt; parameters_type,</text>
<text text-anchor="middle" x="70.5" y="-577.5" font-family="Helvetica,sans-Serif" font-size="10.00" fill="#000000"> Factory &gt;</text>
</a>
</g>
</g>
<!-- Node1 -->
<g id="node2" class="node">
<title>Node1</title>
<g id="a_node2"><a xlink:href="structgko_1_1factorization_1_1Ilu_1_1parameters__type.html" target="_top" xlink:title=" ">
<polygon fill="#ffffff" stroke="#000000" points="204,-1229.5 204,-1270.5 355,-1270.5 355,-1229.5 204,-1229.5"/>
<text text-anchor="start" x="212" y="-1258.5" font-family="Helvetica,sans-Serif" font-size="10.00" fill="#000000">gko::factorization</text>
<text text-anchor="start" x="212" y="-1247.5" font-family="Helvetica,sans-Serif" font-size="10.00" fill="#000000">::Ilu&lt; ValueType, IndexType</text>
<text text-anchor="middle" x="279.5" y="-1236.5" font-family="Helvetica,sans-Serif" font-size="10.00" fill="#000000"> &gt;::parameters_type</text>
</a>
</g>
</g>
<!-- Node0&#45;&gt;Node1 -->
<g id="edge1" class="edge">
<title>Node0&#45;&gt;Node1</title>
<path fill="none" stroke="#191970" d="M71.5127,-621.7892C75.8668,-735.4604 96.606,-1129.6029 177,-1220 184.3315,-1228.2438 193.7921,-1234.2761 203.996,-1238.6796"/>
<polygon fill="#191970" stroke="#191970" points="75.0063,-621.5485 71.141,-611.6839 68.011,-621.8059 75.0063,-621.5485"/>
</g>
<!-- Node2 -->
<g id="node3" class="node">
<title>Node2</title>
<g id="a_node3"><a xlink:href="structgko_1_1factorization_1_1ParIct_1_1parameters__type.html" target="_top" xlink:title=" ">
<polygon fill="#ffffff" stroke="#000000" points="194.5,-1169.5 194.5,-1210.5 364.5,-1210.5 364.5,-1169.5 194.5,-1169.5"/>
<text text-anchor="start" x="202.5" y="-1198.5" font-family="Helvetica,sans-Serif" font-size="10.00" fill="#000000">gko::factorization</text>
<text text-anchor="start" x="202.5" y="-1187.5" font-family="Helvetica,sans-Serif" font-size="10.00" fill="#000000">::ParIct&lt; ValueType,</text>
<text text-anchor="middle" x="279.5" y="-1176.5" font-family="Helvetica,sans-Serif" font-size="10.00" fill="#000000"> IndexType &gt;::parameters_type</text>
</a>
</g>
</g>
<!-- Node0&#45;&gt;Node2 -->
<g id="edge2" class="edge">
<title>Node0&#45;&gt;Node2</title>
<path fill="none" stroke="#191970" d="M72.105,-621.6057C78.2881,-727.9479 103.9806,-1079.3118 177,-1160 181.9765,-1165.4992 187.9003,-1170.0123 194.3539,-1173.7132"/>
<polygon fill="#191970" stroke="#191970" points="75.5947,-621.3236 71.5358,-611.5371 68.6059,-621.7187 75.5947,-621.3236"/>
</g>
<!-- Node3 -->
<g id="node4" class="node">
<title>Node3</title>
<g id="a_node4"><a xlink:href="structgko_1_1factorization_1_1ParIlu_1_1parameters__type.html" target="_top" xlink:title=" ">
<polygon fill="#ffffff" stroke="#000000" points="194.5,-1109.5 194.5,-1150.5 364.5,-1150.5 364.5,-1109.5 194.5,-1109.5"/>
<text text-anchor="start" x="202.5" y="-1138.5" font-family="Helvetica,sans-Serif" font-size="10.00" fill="#000000">gko::factorization</text>
<text text-anchor="start" x="202.5" y="-1127.5" font-family="Helvetica,sans-Serif" font-size="10.00" fill="#000000">::ParIlu&lt; ValueType,</text>
<text text-anchor="middle" x="279.5" y="-1116.5" font-family="Helvetica,sans-Serif" font-size="10.00" fill="#000000"> IndexType &gt;::parameters_type</text>
</a>
</g>
</g>
<!-- Node0&#45;&gt;Node3 -->
<g id="edge3" class="edge">
<title>Node0&#45;&gt;Node3</title>
<path fill="none" stroke="#191970" d="M72.8665,-621.908C81.0678,-721.1016 111.4311,-1029.0728 177,-1100 182.0346,-1105.4461 187.9984,-1109.9226 194.478,-1113.5998"/>
<polygon fill="#191970" stroke="#191970" points="76.3322,-621.3412 72.0369,-611.6561 69.355,-621.9059 76.3322,-621.3412"/>
</g>
<!-- Node4 -->
<g id="node5" class="node">
<title>Node4</title>
<g id="a_node5"><a xlink:href="structgko_1_1factorization_1_1ParIlut_1_1parameters__type.html" target="_top" xlink:title=" ">
<polygon fill="#ffffff" stroke="#000000" points="194.5,-1049.5 194.5,-1090.5 364.5,-1090.5 364.5,-1049.5 194.5,-1049.5"/>
<text text-anchor="start" x="202.5" y="-1078.5" font-family="Helvetica,sans-Serif" font-size="10.00" fill="#000000">gko::factorization</text>
<text text-anchor="start" x="202.5" y="-1067.5" font-family="Helvetica,sans-Serif" font-size="10.00" fill="#000000">::ParIlut&lt; ValueType,</text>
<text text-anchor="middle" x="279.5" y="-1056.5" font-family="Helvetica,sans-Serif" font-size="10.00" fill="#000000"> IndexType &gt;::parameters_type</text>
</a>
</g>
</g>
<!-- Node0&#45;&gt;Node4 -->
<g id="edge4" class="edge">
<title>Node0&#45;&gt;Node4</title>
<path fill="none" stroke="#191970" d="M73.7649,-621.569C84.0663,-712.4716 118.6991,-978.5956 177,-1040 181.979,-1045.2441 187.8199,-1049.5866 194.1444,-1053.1806"/>
<polygon fill="#191970" stroke="#191970" points="77.2421,-621.1698 72.6557,-611.6191 70.2852,-621.9454 77.2421,-621.1698"/>
</g>
<!-- Node5 -->
<g id="node6" class="node">
<title>Node5</title>
<g id="a_node6"><a xlink:href="structgko_1_1preconditioner_1_1Ilu_1_1parameters__type.html" target="_top" xlink:title=" ">
<polygon fill="#ffffff" stroke="#000000" points="194.5,-978 194.5,-1030 364.5,-1030 364.5,-978 194.5,-978"/>
<text text-anchor="start" x="202.5" y="-1018" font-family="Helvetica,sans-Serif" font-size="10.00" fill="#000000">gko::preconditioner</text>
<text text-anchor="start" x="202.5" y="-1007" font-family="Helvetica,sans-Serif" font-size="10.00" fill="#000000">::Ilu&lt; LSolverType,</text>
<text text-anchor="start" x="202.5" y="-996" font-family="Helvetica,sans-Serif" font-size="10.00" fill="#000000"> USolverType, ReverseApply,</text>
<text text-anchor="middle" x="279.5" y="-985" font-family="Helvetica,sans-Serif" font-size="10.00" fill="#000000"> IndexType &gt;::parameters_type</text>
</a>
</g>
</g>
<!-- Node0&#45;&gt;Node5 -->
<g id="edge5" class="edge">
<title>Node0&#45;&gt;Node5</title>
<path fill="none" stroke="#191970" d="M75.4695,-621.8377C89.0255,-702.4516 128.8679,-916.7646 177,-968 182.0364,-973.3611 187.9171,-977.9242 194.2681,-981.8081"/>
<polygon fill="#191970" stroke="#191970" points="78.896,-621.106 73.8042,-611.8149 71.9907,-622.2534 78.896,-621.106"/>
</g>
<!-- Node6 -->
<g id="node7" class="node">
<title>Node6</title>
<g id="a_node7"><a xlink:href="structgko_1_1preconditioner_1_1Isai_1_1parameters__type.html" target="_top" xlink:title=" ">
<polygon fill="#ffffff" stroke="#000000" points="194.5,-917.5 194.5,-958.5 364.5,-958.5 364.5,-917.5 194.5,-917.5"/>
<text text-anchor="start" x="202.5" y="-946.5" font-family="Helvetica,sans-Serif" font-size="10.00" fill="#000000">gko::preconditioner</text>
<text text-anchor="start" x="202.5" y="-935.5" font-family="Helvetica,sans-Serif" font-size="10.00" fill="#000000">::Isai&lt; IsaiType, ValueType,</text>
<text text-anchor="middle" x="279.5" y="-924.5" font-family="Helvetica,sans-Serif" font-size="10.00" fill="#000000"> IndexType &gt;::parameters_type</text>
</a>
</g>
</g>
<!-- Node0&#45;&gt;Node6 -->
<g id="edge6" class="edge">
<title>Node0&#45;&gt;Node6</title>
<path fill="none" stroke="#191970" d="M77.0452,-621.8076C92.8062,-693.2715 134.7022,-867.3361 177,-908 182.0793,-912.8831 187.9091,-916.9775 194.1548,-920.4098"/>
<polygon fill="#191970" stroke="#191970" points="80.3793,-620.6691 74.8281,-611.645 73.5401,-622.1612 80.3793,-620.6691"/>
</g>
<!-- Node7 -->
<g id="node8" class="node">
<title>Node7</title>
<g id="a_node8"><a xlink:href="structgko_1_1preconditioner_1_1Jacobi_1_1parameters__type.html" target="_top" xlink:title=" ">
<polygon fill="#ffffff" stroke="#000000" points="194.5,-857.5 194.5,-898.5 364.5,-898.5 364.5,-857.5 194.5,-857.5"/>
<text text-anchor="start" x="202.5" y="-886.5" font-family="Helvetica,sans-Serif" font-size="10.00" fill="#000000">gko::preconditioner</text>
<text text-anchor="start" x="202.5" y="-875.5" font-family="Helvetica,sans-Serif" font-size="10.00" fill="#000000">::Jacobi&lt; ValueType,</text>
<text text-anchor="middle" x="279.5" y="-864.5" font-family="Helvetica,sans-Serif" font-size="10.00" fill="#000000"> IndexType &gt;::parameters_type</text>
</a>
</g>
</g>
<!-- Node0&#45;&gt;Node7 -->
<g id="edge7" class="edge">
<title>Node0&#45;&gt;Node7</title>
<path fill="none" stroke="#191970" d="M74.5533,-621.7487C83.2873,-675.5682 108.9255,-786.915 177,-848 182.1061,-852.5818 187.8774,-856.4659 194.0149,-859.7582"/>
<polygon fill="#191970" stroke="#191970" points="78.0005,-621.1372 73.0243,-611.7837 71.0815,-622.1989 78.0005,-621.1372"/>
</g>
<!-- Node8 -->
<g id="node9" class="node">
<title>Node8</title>
<g id="a_node9"><a xlink:href="structgko_1_1reorder_1_1Rcm_1_1parameters__type.html" target="_top" xlink:title=" ">
<polygon fill="#ffffff" stroke="#000000" points="217,-797.5 217,-838.5 342,-838.5 342,-797.5 217,-797.5"/>
<text text-anchor="start" x="225" y="-826.5" font-family="Helvetica,sans-Serif" font-size="10.00" fill="#000000">gko::reorder::Rcm&lt;</text>
<text text-anchor="start" x="225" y="-815.5" font-family="Helvetica,sans-Serif" font-size="10.00" fill="#000000"> ValueType, IndexType</text>
<text text-anchor="middle" x="279.5" y="-804.5" font-family="Helvetica,sans-Serif" font-size="10.00" fill="#000000"> &gt;::parameters_type</text>
</a>
</g>
</g>
<!-- Node0&#45;&gt;Node8 -->
<g id="edge8" class="edge">
<title>Node0&#45;&gt;Node8</title>
<path fill="none" stroke="#191970" d="M78.7863,-621.4325C92.1724,-664.8316 122.7021,-744.0949 177,-788 188.4623,-797.2684 202.6904,-803.6734 216.8612,-808.0996"/>
<polygon fill="#191970" stroke="#191970" points="82.1033,-620.3075 75.894,-611.7229 75.3946,-622.306 82.1033,-620.3075"/>
</g>
<!-- Node9 -->
<g id="node10" class="node">
<title>Node9</title>
<g id="a_node10"><a xlink:href="structgko_1_1solver_1_1Bicg_1_1parameters__type.html" target="_top" xlink:title=" ">
<polygon fill="#ffffff" stroke="#000000" points="194.5,-748 194.5,-778 364.5,-778 364.5,-748 194.5,-748"/>
<text text-anchor="start" x="202.5" y="-766" font-family="Helvetica,sans-Serif" font-size="10.00" fill="#000000">gko::solver::Bicg&lt;</text>
<text text-anchor="middle" x="279.5" y="-755" font-family="Helvetica,sans-Serif" font-size="10.00" fill="#000000"> ValueType &gt;::parameters_type</text>
</a>
</g>
</g>
<!-- Node0&#45;&gt;Node9 -->
<g id="edge9" class="edge">
<title>Node0&#45;&gt;Node9</title>
<path fill="none" stroke="#191970" d="M83.9438,-621.0224C100.7524,-655.0144 132.7859,-709.4908 177,-739 182.3966,-742.6018 188.2675,-745.6661 194.3775,-748.2729"/>
<polygon fill="#191970" stroke="#191970" points="86.9009,-619.0952 79.4142,-611.5986 80.5919,-622.1278 86.9009,-619.0952"/>
</g>
<!-- Node10 -->
<g id="node11" class="node">
<title>Node10</title>
<g id="a_node11"><a xlink:href="structgko_1_1solver_1_1Bicgstab_1_1parameters__type.html" target="_top" xlink:title=" ">
<polygon fill="#ffffff" stroke="#000000" points="190.5,-699 190.5,-729 368.5,-729 368.5,-699 190.5,-699"/>
<text text-anchor="start" x="198.5" y="-717" font-family="Helvetica,sans-Serif" font-size="10.00" fill="#000000">gko::solver::Bicgstab</text>
<text text-anchor="middle" x="279.5" y="-706" font-family="Helvetica,sans-Serif" font-size="10.00" fill="#000000">&lt; ValueType &gt;::parameters_type</text>
</a>
</g>
</g>
<!-- Node0&#45;&gt;Node10 -->
<g id="edge10" class="edge">
<title>Node0&#45;&gt;Node10</title>
<path fill="none" stroke="#191970" d="M93.5673,-619.39C113.3797,-641.8885 143.9155,-672.3761 177,-690 183.4522,-693.4371 190.3906,-696.386 197.5056,-698.9154"/>
<polygon fill="#191970" stroke="#191970" points="96.2019,-617.0857 87.02,-611.7994 90.9012,-621.6577 96.2019,-617.0857"/>
</g>
<!-- Node11 -->
<g id="node12" class="node">
<title>Node11</title>
<g id="a_node12"><a xlink:href="structgko_1_1solver_1_1Cg_1_1parameters__type.html" target="_top" xlink:title=" ">
<polygon fill="#ffffff" stroke="#000000" points="204.5,-650 204.5,-680 354.5,-680 354.5,-650 204.5,-650"/>
<text text-anchor="start" x="212.5" y="-668" font-family="Helvetica,sans-Serif" font-size="10.00" fill="#000000">gko::solver::Cg&lt; ValueType</text>
<text text-anchor="middle" x="279.5" y="-657" font-family="Helvetica,sans-Serif" font-size="10.00" fill="#000000"> &gt;::parameters_type</text>
</a>
</g>
</g>
<!-- Node0&#45;&gt;Node11 -->
<g id="edge11" class="edge">
<title>Node0&#45;&gt;Node11</title>
<path fill="none" stroke="#191970" d="M118.287,-616.0392C136.3387,-624.7996 157.284,-634.1481 177,-641 186.495,-644.2998 196.6413,-647.2895 206.7208,-649.95"/>
<polygon fill="#191970" stroke="#191970" points="119.6498,-612.809 109.1327,-611.5281 116.5556,-619.088 119.6498,-612.809"/>
</g>
<!-- Node12 -->
<g id="node13" class="node">
<title>Node12</title>
<g id="a_node13"><a xlink:href="structgko_1_1solver_1_1Cgs_1_1parameters__type.html" target="_top" xlink:title=" ">
<polygon fill="#ffffff" stroke="#000000" points="202,-601 202,-631 357,-631 357,-601 202,-601"/>
<text text-anchor="start" x="210" y="-619" font-family="Helvetica,sans-Serif" font-size="10.00" fill="#000000">gko::solver::Cgs&lt; ValueType</text>
<text text-anchor="middle" x="279.5" y="-608" font-family="Helvetica,sans-Serif" font-size="10.00" fill="#000000"> &gt;::parameters_type</text>
</a>
</g>
</g>
<!-- Node0&#45;&gt;Node12 -->
<g id="edge12" class="edge">
<title>Node0&#45;&gt;Node12</title>
<path fill="none" stroke="#191970" d="M151.4106,-600.6783C167.9137,-602.6524 185.245,-604.7255 201.639,-606.6865"/>
<polygon fill="#191970" stroke="#191970" points="151.6028,-597.1764 141.2579,-599.4639 150.7714,-604.1269 151.6028,-597.1764"/>
</g>
<!-- Node13 -->
<g id="node14" class="node">
<title>Node13</title>
<g id="a_node14"><a xlink:href="structgko_1_1solver_1_1Fcg_1_1parameters__type.html" target="_top" xlink:title=" ">
<polygon fill="#ffffff" stroke="#000000" points="202.5,-552 202.5,-582 356.5,-582 356.5,-552 202.5,-552"/>
<text text-anchor="start" x="210.5" y="-570" font-family="Helvetica,sans-Serif" font-size="10.00" fill="#000000">gko::solver::Fcg&lt; ValueType</text>
<text text-anchor="middle" x="279.5" y="-559" font-family="Helvetica,sans-Serif" font-size="10.00" fill="#000000"> &gt;::parameters_type</text>
</a>
</g>
</g>
<!-- Node0&#45;&gt;Node13 -->
<g id="edge13" class="edge">
<title>Node0&#45;&gt;Node13</title>
<path fill="none" stroke="#191970" d="M151.5359,-581.6944C168.2445,-579.7757 185.797,-577.7602 202.3626,-575.8579"/>
<polygon fill="#191970" stroke="#191970" points="150.7933,-578.2566 141.2579,-582.8747 151.5919,-585.2109 150.7933,-578.2566"/>
</g>
<!-- Node14 -->
<g id="node15" class="node">
<title>Node14</title>
<g id="a_node15"><a xlink:href="structgko_1_1solver_1_1Gmres_1_1parameters__type.html" target="_top" xlink:title=" ">
<polygon fill="#ffffff" stroke="#000000" points="190.5,-503 190.5,-533 368.5,-533 368.5,-503 190.5,-503"/>
<text text-anchor="start" x="198.5" y="-521" font-family="Helvetica,sans-Serif" font-size="10.00" fill="#000000">gko::solver::Gmres</text>
<text text-anchor="middle" x="279.5" y="-510" font-family="Helvetica,sans-Serif" font-size="10.00" fill="#000000">&lt; ValueType &gt;::parameters_type</text>
</a>
</g>
</g>
<!-- Node0&#45;&gt;Node14 -->
<g id="edge14" class="edge">
<title>Node0&#45;&gt;Node14</title>
<path fill="none" stroke="#191970" d="M120.9447,-565.97C138.4172,-557.9197 158.3108,-549.4294 177,-543 187.6521,-539.3355 199.1018,-535.9888 210.351,-533.0188"/>
<polygon fill="#191970" stroke="#191970" points="119.0861,-562.9753 111.5098,-570.3813 122.0509,-569.3164 119.0861,-562.9753"/>
</g>
<!-- Node15 -->
<g id="node16" class="node">
<title>Node15</title>
<g id="a_node16"><a xlink:href="structgko_1_1solver_1_1Idr_1_1parameters__type.html" target="_top" xlink:title=" ">
<polygon fill="#ffffff" stroke="#000000" points="204.5,-454 204.5,-484 354.5,-484 354.5,-454 204.5,-454"/>
<text text-anchor="start" x="212.5" y="-472" font-family="Helvetica,sans-Serif" font-size="10.00" fill="#000000">gko::solver::Idr&lt; ValueType</text>
<text text-anchor="middle" x="279.5" y="-461" font-family="Helvetica,sans-Serif" font-size="10.00" fill="#000000"> &gt;::parameters_type</text>
</a>
</g>
</g>
<!-- Node0&#45;&gt;Node15 -->
<g id="edge15" class="edge">
<title>Node0&#45;&gt;Node15</title>
<path fill="none" stroke="#191970" d="M94.3484,-562.5907C114.2658,-540.6705 144.5552,-511.2636 177,-494 185.4894,-489.4829 194.8076,-485.7671 204.2577,-482.7139"/>
<polygon fill="#191970" stroke="#191970" points="91.5285,-560.4945 87.4948,-570.2914 96.7576,-565.1482 91.5285,-560.4945"/>
</g>
<!-- Node16 -->
<g id="node17" class="node">
<title>Node16</title>
<g id="a_node17"><a xlink:href="structgko_1_1solver_1_1Ir_1_1parameters__type.html" target="_top" xlink:title=" ">
<polygon fill="#ffffff" stroke="#000000" points="207.5,-405 207.5,-435 351.5,-435 351.5,-405 207.5,-405"/>
<text text-anchor="start" x="215.5" y="-423" font-family="Helvetica,sans-Serif" font-size="10.00" fill="#000000">gko::solver::Ir&lt; ValueType</text>
<text text-anchor="middle" x="279.5" y="-412" font-family="Helvetica,sans-Serif" font-size="10.00" fill="#000000"> &gt;::parameters_type</text>
</a>
</g>
</g>
<!-- Node0&#45;&gt;Node16 -->
<g id="edge16" class="edge">
<title>Node0&#45;&gt;Node16</title>
<path fill="none" stroke="#191970" d="M84.2358,-561.1808C101.2249,-527.6956 133.3378,-474.2282 177,-445 186.1327,-438.8864 196.6149,-434.2653 207.3124,-430.7729"/>
<polygon fill="#191970" stroke="#191970" points="80.9382,-559.9541 79.6502,-570.4704 87.2151,-563.0526 80.9382,-559.9541"/>
</g>
<!-- Node17 -->
<g id="node18" class="node">
<title>Node17</title>
<g id="a_node18"><a xlink:href="structgko_1_1solver_1_1LowerTrs_1_1parameters__type.html" target="_top" xlink:title=" ">
<polygon fill="#ffffff" stroke="#000000" points="213,-344.5 213,-385.5 346,-385.5 346,-344.5 213,-344.5"/>
<text text-anchor="start" x="221" y="-373.5" font-family="Helvetica,sans-Serif" font-size="10.00" fill="#000000">gko::solver::LowerTrs</text>
<text text-anchor="start" x="221" y="-362.5" font-family="Helvetica,sans-Serif" font-size="10.00" fill="#000000">&lt; ValueType, IndexType</text>
<text text-anchor="middle" x="279.5" y="-351.5" font-family="Helvetica,sans-Serif" font-size="10.00" fill="#000000"> &gt;::parameters_type</text>
</a>
</g>
</g>
<!-- Node0&#45;&gt;Node17 -->
<g id="edge17" class="edge">
<title>Node0&#45;&gt;Node17</title>
<path fill="none" stroke="#191970" d="M79.0326,-560.6049C92.6463,-517.6499 123.3689,-439.574 177,-396 187.3889,-387.5593 200.042,-381.4143 212.8638,-376.9414"/>
<polygon fill="#191970" stroke="#191970" points="75.6689,-559.6362 76.0853,-570.2228 82.3617,-561.6871 75.6689,-559.6362"/>
</g>
<!-- Node18 -->
<g id="node19" class="node">
<title>Node18</title>
<g id="a_node19"><a xlink:href="structgko_1_1solver_1_1UpperTrs_1_1parameters__type.html" target="_top" xlink:title=" ">
<polygon fill="#ffffff" stroke="#000000" points="213,-284.5 213,-325.5 346,-325.5 346,-284.5 213,-284.5"/>
<text text-anchor="start" x="221" y="-313.5" font-family="Helvetica,sans-Serif" font-size="10.00" fill="#000000">gko::solver::UpperTrs</text>
<text text-anchor="start" x="221" y="-302.5" font-family="Helvetica,sans-Serif" font-size="10.00" fill="#000000">&lt; ValueType, IndexType</text>
<text text-anchor="middle" x="279.5" y="-291.5" font-family="Helvetica,sans-Serif" font-size="10.00" fill="#000000"> &gt;::parameters_type</text>
</a>
</g>
</g>
<!-- Node0&#45;&gt;Node18 -->
<g id="edge18" class="edge">
<title>Node0&#45;&gt;Node18</title>
<path fill="none" stroke="#191970" d="M74.5906,-560.3686C83.3831,-506.7547 109.1095,-395.8353 177,-335 187.1495,-325.9053 199.9202,-319.5599 212.9703,-315.135"/>
<polygon fill="#191970" stroke="#191970" points="71.1251,-559.877 73.0505,-570.2954 78.0423,-560.9503 71.1251,-559.877"/>
</g>
<!-- Node19 -->
<g id="node20" class="node">
<title>Node19</title>
<g id="a_node20"><a xlink:href="structgko_1_1stop_1_1AbsoluteResidualNorm_1_1parameters__type.html" target="_top" xlink:title=" ">
<polygon fill="#ffffff" stroke="#000000" points="177,-235 177,-265 382,-265 382,-235 177,-235"/>
<text text-anchor="start" x="185" y="-253" font-family="Helvetica,sans-Serif" font-size="10.00" fill="#000000">gko::stop::AbsoluteResidual</text>
<text text-anchor="middle" x="279.5" y="-242" font-family="Helvetica,sans-Serif" font-size="10.00" fill="#000000">Norm&lt; ValueType &gt;::parameters_type</text>
</a>
</g>
</g>
<!-- Node0&#45;&gt;Node19 -->
<g id="edge19" class="edge">
<title>Node0&#45;&gt;Node19</title>
<path fill="none" stroke="#191970" d="M76.9376,-560.1597C92.465,-488.6397 133.8917,-314.5582 177,-275 181.1837,-271.1609 185.8571,-267.8849 190.8404,-265.0921"/>
<polygon fill="#191970" stroke="#191970" points="73.431,-559.8193 74.7543,-570.3312 80.2751,-561.2884 73.431,-559.8193"/>
</g>
<!-- Node20 -->
<g id="node21" class="node">
<title>Node20</title>
<g id="a_node21"><a xlink:href="structgko_1_1stop_1_1Combined_1_1parameters__type.html" target="_top" xlink:title=" ">
<polygon fill="#ffffff" stroke="#000000" points="221,-186 221,-216 338,-216 338,-186 221,-186"/>
<text text-anchor="start" x="229" y="-204" font-family="Helvetica,sans-Serif" font-size="10.00" fill="#000000">gko::stop::Combined</text>
<text text-anchor="middle" x="279.5" y="-193" font-family="Helvetica,sans-Serif" font-size="10.00" fill="#000000">::parameters_type</text>
</a>
</g>
</g>
<!-- Node0&#45;&gt;Node20 -->
<g id="edge20" class="edge">
<title>Node0&#45;&gt;Node20</title>
<path fill="none" stroke="#191970" d="M75.5128,-559.8366C88.9127,-480.3372 127.9047,-272.9499 177,-226 188.848,-214.6698 204.9398,-208.2062 220.8601,-204.5913"/>
<polygon fill="#191970" stroke="#191970" points="71.9814,-559.7369 73.7934,-570.1756 78.8865,-560.8852 71.9814,-559.7369"/>
</g>
<!-- Node21 -->
<g id="node22" class="node">
<title>Node21</title>
<g id="a_node22"><a xlink:href="structgko_1_1stop_1_1Iteration_1_1parameters__type.html" target="_top" xlink:title=" ">
<polygon fill="#ffffff" stroke="#000000" points="225,-137 225,-167 334,-167 334,-137 225,-137"/>
<text text-anchor="start" x="233" y="-155" font-family="Helvetica,sans-Serif" font-size="10.00" fill="#000000">gko::stop::Iteration</text>
<text text-anchor="middle" x="279.5" y="-144" font-family="Helvetica,sans-Serif" font-size="10.00" fill="#000000">::parameters_type</text>
</a>
</g>
</g>
<!-- Node0&#45;&gt;Node21 -->
<g id="edge21" class="edge">
<title>Node0&#45;&gt;Node21</title>
<path fill="none" stroke="#191970" d="M74.288,-560.4054C85.5769,-474.1314 121.6823,-231.6275 177,-177 189.7072,-164.4514 207.6031,-157.8349 224.8921,-154.4523"/>
<polygon fill="#191970" stroke="#191970" points="70.812,-559.9949 73.0053,-570.3602 77.7546,-560.8895 70.812,-559.9949"/>
</g>
<!-- Node22 -->
<g id="node23" class="node">
<title>Node22</title>
<g id="a_node23"><a xlink:href="structgko_1_1stop_1_1RelativeResidualNorm_1_1parameters__type.html" target="_top" xlink:title=" ">
<polygon fill="#ffffff" stroke="#000000" points="177,-88 177,-118 382,-118 382,-88 177,-88"/>
<text text-anchor="start" x="185" y="-106" font-family="Helvetica,sans-Serif" font-size="10.00" fill="#000000">gko::stop::RelativeResidual</text>
<text text-anchor="middle" x="279.5" y="-95" font-family="Helvetica,sans-Serif" font-size="10.00" fill="#000000">Norm&lt; ValueType &gt;::parameters_type</text>
</a>
</g>
</g>
<!-- Node0&#45;&gt;Node22 -->
<g id="edge22" class="edge">
<title>Node0&#45;&gt;Node22</title>
<path fill="none" stroke="#191970" d="M73.4005,-560.3185C82.8205,-467.1783 115.5557,-190.2571 177,-128 180.7313,-124.2193 184.9326,-120.9744 189.4495,-118.1924"/>
<polygon fill="#191970" stroke="#191970" points="69.8956,-560.196 72.3909,-570.4928 76.8613,-560.8873 69.8956,-560.196"/>
</g>
<!-- Node23 -->
<g id="node24" class="node">
<title>Node23</title>
<g id="a_node24"><a xlink:href="structgko_1_1stop_1_1ResidualNormReduction_1_1parameters__type.html" target="_top" xlink:title=" ">
<polygon fill="#ffffff" stroke="#000000" points="187.5,-39 187.5,-69 371.5,-69 371.5,-39 187.5,-39"/>
<text text-anchor="start" x="195.5" y="-57" font-family="Helvetica,sans-Serif" font-size="10.00" fill="#000000">gko::stop::ResidualNormReduction</text>
<text text-anchor="middle" x="279.5" y="-46" font-family="Helvetica,sans-Serif" font-size="10.00" fill="#000000">&lt; ValueType &gt;::parameters_type</text>
</a>
</g>
</g>
<!-- Node0&#45;&gt;Node23 -->
<g id="edge23" class="edge">
<title>Node0&#45;&gt;Node23</title>
<path fill="none" stroke="#191970" d="M72.6608,-560.4291C80.3084,-460.9719 109.3519,-148.9985 177,-79 180.6914,-75.1804 184.8618,-71.9053 189.3553,-69.1004"/>
<polygon fill="#191970" stroke="#191970" points="69.1684,-560.1983 71.9092,-570.4325 76.1487,-560.7229 69.1684,-560.1983"/>
</g>
<!-- Node24 -->
<g id="node25" class="node">
<title>Node24</title>
<g id="a_node25"><a xlink:href="structgko_1_1stop_1_1Time_1_1parameters__type.html" target="_top" xlink:title=" ">
<polygon fill="#ffffff" stroke="#000000" points="188.5,-.5 188.5,-19.5 370.5,-19.5 370.5,-.5 188.5,-.5"/>
<text text-anchor="middle" x="279.5" y="-7.5" font-family="Helvetica,sans-Serif" font-size="10.00" fill="#000000">gko::stop::Time::parameters_type</text>
</a>
</g>
</g>
<!-- Node0&#45;&gt;Node24 -->
<g id="edge24" class="edge">
<title>Node0&#45;&gt;Node24</title>
<path fill="none" stroke="#191970" d="M71.932,-560.2239C77.5121,-454.1344 101.3737,-106.0125 177,-30 181.0921,-25.887 185.7627,-22.4898 190.8032,-19.6937"/>
<polygon fill="#191970" stroke="#191970" points="68.4332,-560.1121 71.4204,-570.2771 75.4242,-560.4679 68.4332,-560.1121"/>
</g>
</g>
</svg>
