<?xml version="1.0" encoding="UTF-8" standalone="no"?>
<!DOCTYPE svg PUBLIC "-//W3C//DTD SVG 1.1//EN"
 "http://www.w3.org/Graphics/SVG/1.1/DTD/svg11.dtd">
<!-- Generated by graphviz version 2.40.1 (20161225.0304)
 -->
<!-- Title: Graphical Class Hierarchy Pages: 1 -->
<svg width="1047pt" height="1459pt"
 viewBox="0.00 0.00 1047.00 1459.00" xmlns="http://www.w3.org/2000/svg" xmlns:xlink="http://www.w3.org/1999/xlink">
<g id="graph0" class="graph" transform="scale(1 1) rotate(0) translate(4 1455)">
<title>Graphical Class Hierarchy</title>
<polygon fill="#ffffff" stroke="transparent" points="-4,4 -4,-1455 1043,-1455 1043,4 -4,4"/>
<!-- Node468 -->
<g id="node1" class="node">
<title>Node468</title>
<g id="a_node1"><a xlink:href="classgko_1_1ConvertibleTo.html" target="_top" xlink:title=" ">
<polygon fill="#ffffff" stroke="#000000" points="178.5,-678 178.5,-708 296.5,-708 296.5,-678 178.5,-678"/>
<text text-anchor="start" x="186.5" y="-696" font-family="Helvetica,sans-Serif" font-size="10.00" fill="#000000">gko::ConvertibleTo</text>
<text text-anchor="middle" x="237.5" y="-685" font-family="Helvetica,sans-Serif" font-size="10.00" fill="#000000">&lt; ConcreteFactory &gt;</text>
</a>
</g>
</g>
<!-- Node469 -->
<g id="node2" class="node">
<title>Node469</title>
<g id="a_node2"><a xlink:href="classgko_1_1EnablePolymorphicAssignment.html" target="_top" xlink:title=" ">
<polygon fill="#ffffff" stroke="#000000" points="382.5,-676 382.5,-706 574.5,-706 574.5,-676 382.5,-676"/>
<text text-anchor="start" x="390.5" y="-694" font-family="Helvetica,sans-Serif" font-size="10.00" fill="#000000">gko::EnablePolymorphicAssignment</text>
<text text-anchor="middle" x="478.5" y="-683" font-family="Helvetica,sans-Serif" font-size="10.00" fill="#000000">&lt; ConcreteFactory &gt;</text>
</a>
</g>
</g>
<!-- Node468&#45;&gt;Node469 -->
<g id="edge1" class="edge">
<title>Node468&#45;&gt;Node469</title>
<path fill="none" stroke="#191970" d="M306.9738,-692.4235C330.4758,-692.2284 357.1541,-692.007 382.3502,-691.7979"/>
<polygon fill="#191970" stroke="#191970" points="306.7345,-688.9252 296.7639,-692.5082 306.7926,-695.925 306.7345,-688.9252"/>
</g>
<!-- Node2 -->
<g id="node3" class="node">
<title>Node2</title>
<g id="a_node3"><a xlink:href="classgko_1_1EnableDefaultFactory.html" target="_top" xlink:title="This mixin provides a default implementation of a concrete factory.">
<polygon fill="#ffffff" stroke="#000000" points="619,-644.5 619,-685.5 819,-685.5 819,-644.5 619,-644.5"/>
<text text-anchor="start" x="627" y="-673.5" font-family="Helvetica,sans-Serif" font-size="10.00" fill="#000000">gko::EnableDefaultFactory</text>
<text text-anchor="start" x="627" y="-662.5" font-family="Helvetica,sans-Serif" font-size="10.00" fill="#000000">&lt; ConcreteFactory, ProductType,</text>
<text text-anchor="middle" x="719" y="-651.5" font-family="Helvetica,sans-Serif" font-size="10.00" fill="#000000"> ParametersType, PolymorphicBase &gt;</text>
</a>
</g>
</g>
<!-- Node469&#45;&gt;Node2 -->
<g id="edge2" class="edge">
<title>Node469&#45;&gt;Node2</title>
<path fill="none" stroke="#191970" d="M584.8695,-679.5006C596.127,-678.2836 607.5489,-677.0488 618.7336,-675.8396"/>
<polygon fill="#191970" stroke="#191970" points="584.1547,-676.0574 574.5888,-680.612 584.9071,-683.0168 584.1547,-676.0574"/>
</g>
<!-- Node3 -->
<g id="node4" class="node">
<title>Node3</title>
<g id="a_node4"><a xlink:href="classgko_1_1factorization_1_1Ic_1_1Factory.html" target="_top" xlink:title=" ">
<polygon fill="#ffffff" stroke="#000000" points="873.5,-1409.5 873.5,-1450.5 1020.5,-1450.5 1020.5,-1409.5 873.5,-1409.5"/>
<text text-anchor="start" x="881.5" y="-1438.5" font-family="Helvetica,sans-Serif" font-size="10.00" fill="#000000">gko::factorization</text>
<text text-anchor="start" x="881.5" y="-1427.5" font-family="Helvetica,sans-Serif" font-size="10.00" fill="#000000">::Ic&lt; ValueType, IndexType</text>
<text text-anchor="middle" x="947" y="-1416.5" font-family="Helvetica,sans-Serif" font-size="10.00" fill="#000000"> &gt;::Factory</text>
</a>
</g>
</g>
<!-- Node2&#45;&gt;Node3 -->
<g id="edge3" class="edge">
<title>Node2&#45;&gt;Node3</title>
<path fill="none" stroke="#191970" d="M720.6044,-695.8974C727.7237,-821.4657 760.3969,-1291.9788 855,-1400 860.0915,-1405.8136 866.3237,-1410.5066 873.1222,-1414.294"/>
<polygon fill="#191970" stroke="#191970" points="724.0937,-695.6058 720.0461,-685.8146 717.1044,-695.9929 724.0937,-695.6058"/>
</g>
<!-- Node4 -->
<g id="node5" class="node">
<title>Node4</title>
<g id="a_node5"><a xlink:href="classgko_1_1factorization_1_1Ilu_1_1Factory.html" target="_top" xlink:title=" ">
<polygon fill="#ffffff" stroke="#000000" points="871.5,-1349.5 871.5,-1390.5 1022.5,-1390.5 1022.5,-1349.5 871.5,-1349.5"/>
<text text-anchor="start" x="879.5" y="-1378.5" font-family="Helvetica,sans-Serif" font-size="10.00" fill="#000000">gko::factorization</text>
<text text-anchor="start" x="879.5" y="-1367.5" font-family="Helvetica,sans-Serif" font-size="10.00" fill="#000000">::Ilu&lt; ValueType, IndexType</text>
<text text-anchor="middle" x="947" y="-1356.5" font-family="Helvetica,sans-Serif" font-size="10.00" fill="#000000"> &gt;::Factory</text>
</a>
</g>
</g>
<!-- Node2&#45;&gt;Node4 -->
<g id="edge4" class="edge">
<title>Node2&#45;&gt;Node4</title>
<path fill="none" stroke="#191970" d="M721.1692,-696.0419C730.0968,-815.2549 767.7253,-1241.9263 855,-1340 859.6907,-1345.2711 865.3186,-1349.6201 871.4498,-1353.2077"/>
<polygon fill="#191970" stroke="#191970" points="724.6397,-695.5118 720.4163,-685.7952 717.6586,-696.0248 724.6397,-695.5118"/>
</g>
<!-- Node5 -->
<g id="node6" class="node">
<title>Node5</title>
<g id="a_node6"><a xlink:href="classgko_1_1factorization_1_1ParIc_1_1Factory.html" target="_top" xlink:title=" ">
<polygon fill="#ffffff" stroke="#000000" points="886,-1289.5 886,-1330.5 1008,-1330.5 1008,-1289.5 886,-1289.5"/>
<text text-anchor="start" x="894" y="-1318.5" font-family="Helvetica,sans-Serif" font-size="10.00" fill="#000000">gko::factorization</text>
<text text-anchor="start" x="894" y="-1307.5" font-family="Helvetica,sans-Serif" font-size="10.00" fill="#000000">::ParIc&lt; ValueType,</text>
<text text-anchor="middle" x="947" y="-1296.5" font-family="Helvetica,sans-Serif" font-size="10.00" fill="#000000"> IndexType &gt;::Factory</text>
</a>
</g>
</g>
<!-- Node2&#45;&gt;Node5 -->
<g id="edge5" class="edge">
<title>Node2&#45;&gt;Node5</title>
<path fill="none" stroke="#191970" d="M721.8087,-695.8071C732.6109,-807.8477 774.9326,-1191.7122 855,-1280 863.2387,-1289.0845 874.2596,-1295.4275 885.8062,-1299.8537"/>
<polygon fill="#191970" stroke="#191970" points="725.2635,-695.164 720.8342,-685.5395 718.2948,-695.8255 725.2635,-695.164"/>
</g>
<!-- Node6 -->
<g id="node7" class="node">
<title>Node6</title>
<g id="a_node7"><a xlink:href="classgko_1_1factorization_1_1ParIct_1_1Factory.html" target="_top" xlink:title=" ">
<polygon fill="#ffffff" stroke="#000000" points="886,-1229.5 886,-1270.5 1008,-1270.5 1008,-1229.5 886,-1229.5"/>
<text text-anchor="start" x="894" y="-1258.5" font-family="Helvetica,sans-Serif" font-size="10.00" fill="#000000">gko::factorization</text>
<text text-anchor="start" x="894" y="-1247.5" font-family="Helvetica,sans-Serif" font-size="10.00" fill="#000000">::ParIct&lt; ValueType,</text>
<text text-anchor="middle" x="947" y="-1236.5" font-family="Helvetica,sans-Serif" font-size="10.00" fill="#000000"> IndexType &gt;::Factory</text>
</a>
</g>
</g>
<!-- Node2&#45;&gt;Node6 -->
<g id="edge6" class="edge">
<title>Node2&#45;&gt;Node6</title>
<path fill="none" stroke="#191970" d="M722.611,-695.865C735.4679,-800.7821 782.1765,-1141.5067 855,-1220 863.3411,-1228.9906 874.4061,-1235.2931 885.9633,-1239.7096"/>
<polygon fill="#191970" stroke="#191970" points="726.0491,-695.1415 721.3735,-685.6342 719.0997,-695.9822 726.0491,-695.1415"/>
</g>
<!-- Node7 -->
<g id="node8" class="node">
<title>Node7</title>
<g id="a_node8"><a xlink:href="classgko_1_1factorization_1_1ParIlu_1_1Factory.html" target="_top" xlink:title=" ">
<polygon fill="#ffffff" stroke="#000000" points="886,-1169.5 886,-1210.5 1008,-1210.5 1008,-1169.5 886,-1169.5"/>
<text text-anchor="start" x="894" y="-1198.5" font-family="Helvetica,sans-Serif" font-size="10.00" fill="#000000">gko::factorization</text>
<text text-anchor="start" x="894" y="-1187.5" font-family="Helvetica,sans-Serif" font-size="10.00" fill="#000000">::ParIlu&lt; ValueType,</text>
<text text-anchor="middle" x="947" y="-1176.5" font-family="Helvetica,sans-Serif" font-size="10.00" fill="#000000"> IndexType &gt;::Factory</text>
</a>
</g>
</g>
<!-- Node2&#45;&gt;Node7 -->
<g id="edge7" class="edge">
<title>Node2&#45;&gt;Node7</title>
<path fill="none" stroke="#191970" d="M723.5713,-695.7115C738.6049,-792.866 789.3307,-1091.1636 855,-1160 863.3494,-1168.7521 874.2797,-1174.9542 885.6785,-1179.3484"/>
<polygon fill="#191970" stroke="#191970" points="727.0049,-695.0112 722.0321,-685.656 720.0855,-696.0704 727.0049,-695.0112"/>
</g>
<!-- Node8 -->
<g id="node9" class="node">
<title>Node8</title>
<g id="a_node9"><a xlink:href="classgko_1_1factorization_1_1ParIlut_1_1Factory.html" target="_top" xlink:title=" ">
<polygon fill="#ffffff" stroke="#000000" points="886,-1109.5 886,-1150.5 1008,-1150.5 1008,-1109.5 886,-1109.5"/>
<text text-anchor="start" x="894" y="-1138.5" font-family="Helvetica,sans-Serif" font-size="10.00" fill="#000000">gko::factorization</text>
<text text-anchor="start" x="894" y="-1127.5" font-family="Helvetica,sans-Serif" font-size="10.00" fill="#000000">::ParIlut&lt; ValueType,</text>
<text text-anchor="middle" x="947" y="-1116.5" font-family="Helvetica,sans-Serif" font-size="10.00" fill="#000000"> IndexType &gt;::Factory</text>
</a>
</g>
</g>
<!-- Node2&#45;&gt;Node8 -->
<g id="edge8" class="edge">
<title>Node2&#45;&gt;Node8</title>
<path fill="none" stroke="#191970" d="M724.7688,-695.4898C742.1473,-784.3761 796.421,-1040.702 855,-1100 863.5008,-1108.6052 874.4973,-1114.743 885.9131,-1119.1206"/>
<polygon fill="#191970" stroke="#191970" points="728.1725,-694.6564 722.8346,-685.5045 721.3003,-695.9877 728.1725,-694.6564"/>
</g>
<!-- Node9 -->
<g id="node10" class="node">
<title>Node9</title>
<g id="a_node10"><a xlink:href="classgko_1_1preconditioner_1_1Ic_1_1Factory.html" target="_top" xlink:title=" ">
<polygon fill="#ffffff" stroke="#000000" points="869,-1049.5 869,-1090.5 1025,-1090.5 1025,-1049.5 869,-1049.5"/>
<text text-anchor="start" x="877" y="-1078.5" font-family="Helvetica,sans-Serif" font-size="10.00" fill="#000000">gko::preconditioner</text>
<text text-anchor="start" x="877" y="-1067.5" font-family="Helvetica,sans-Serif" font-size="10.00" fill="#000000">::Ic&lt; LSolverType, IndexType</text>
<text text-anchor="middle" x="947" y="-1056.5" font-family="Helvetica,sans-Serif" font-size="10.00" fill="#000000"> &gt;::Factory</text>
</a>
</g>
</g>
<!-- Node2&#45;&gt;Node9 -->
<g id="edge9" class="edge">
<title>Node2&#45;&gt;Node9</title>
<path fill="none" stroke="#191970" d="M721.2665,-695.9016C728.1346,-766.9244 754.8891,-943.1103 855,-1040 859.1045,-1043.9724 863.7415,-1047.4188 868.6972,-1050.4089"/>
<polygon fill="#191970" stroke="#191970" points="724.7415,-695.4659 720.3588,-685.8201 717.7697,-696.0937 724.7415,-695.4659"/>
</g>
<!-- Node10 -->
<g id="node11" class="node">
<title>Node10</title>
<g id="a_node11"><a xlink:href="classgko_1_1preconditioner_1_1Ilu_1_1Factory.html" target="_top" xlink:title=" ">
<polygon fill="#ffffff" stroke="#000000" points="869,-978 869,-1030 1025,-1030 1025,-978 869,-978"/>
<text text-anchor="start" x="877" y="-1018" font-family="Helvetica,sans-Serif" font-size="10.00" fill="#000000">gko::preconditioner</text>
<text text-anchor="start" x="877" y="-1007" font-family="Helvetica,sans-Serif" font-size="10.00" fill="#000000">::Ilu&lt; LSolverType,</text>
<text text-anchor="start" x="877" y="-996" font-family="Helvetica,sans-Serif" font-size="10.00" fill="#000000"> USolverType, ReverseApply,</text>
<text text-anchor="middle" x="947" y="-985" font-family="Helvetica,sans-Serif" font-size="10.00" fill="#000000"> IndexType &gt;::Factory</text>
</a>
</g>
</g>
<!-- Node2&#45;&gt;Node10 -->
<g id="edge10" class="edge">
<title>Node2&#45;&gt;Node10</title>
<path fill="none" stroke="#191970" d="M724.7471,-695.8249C737.5356,-756.169 773.8537,-890.7282 855,-968 859.2231,-972.0215 863.9472,-975.6097 868.9648,-978.8089"/>
<polygon fill="#191970" stroke="#191970" points="728.1268,-694.8821 722.6934,-685.7865 721.2688,-696.2852 728.1268,-694.8821"/>
</g>
<!-- Node11 -->
<g id="node12" class="node">
<title>Node11</title>
<g id="a_node12"><a xlink:href="classgko_1_1preconditioner_1_1Isai_1_1Factory.html" target="_top" xlink:title=" ">
<polygon fill="#ffffff" stroke="#000000" points="872.5,-917.5 872.5,-958.5 1021.5,-958.5 1021.5,-917.5 872.5,-917.5"/>
<text text-anchor="start" x="880.5" y="-946.5" font-family="Helvetica,sans-Serif" font-size="10.00" fill="#000000">gko::preconditioner</text>
<text text-anchor="start" x="880.5" y="-935.5" font-family="Helvetica,sans-Serif" font-size="10.00" fill="#000000">::Isai&lt; IsaiType, ValueType,</text>
<text text-anchor="middle" x="947" y="-924.5" font-family="Helvetica,sans-Serif" font-size="10.00" fill="#000000"> IndexType &gt;::Factory</text>
</a>
</g>
</g>
<!-- Node2&#45;&gt;Node11 -->
<g id="edge11" class="edge">
<title>Node2&#45;&gt;Node11</title>
<path fill="none" stroke="#191970" d="M727.9378,-695.4589C744.5319,-746.7597 784.9379,-850.4237 855,-908 860.1918,-912.2666 866.0072,-915.9322 872.1247,-919.0806"/>
<polygon fill="#191970" stroke="#191970" points="731.1862,-694.1216 724.8452,-685.6338 724.5092,-696.2233 731.1862,-694.1216"/>
</g>
<!-- Node12 -->
<g id="node13" class="node">
<title>Node12</title>
<g id="a_node13"><a xlink:href="classgko_1_1preconditioner_1_1Jacobi_1_1Factory.html" target="_top" xlink:title=" ">
<polygon fill="#ffffff" stroke="#000000" points="886,-857.5 886,-898.5 1008,-898.5 1008,-857.5 886,-857.5"/>
<text text-anchor="start" x="894" y="-886.5" font-family="Helvetica,sans-Serif" font-size="10.00" fill="#000000">gko::preconditioner</text>
<text text-anchor="start" x="894" y="-875.5" font-family="Helvetica,sans-Serif" font-size="10.00" fill="#000000">::Jacobi&lt; ValueType,</text>
<text text-anchor="middle" x="947" y="-864.5" font-family="Helvetica,sans-Serif" font-size="10.00" fill="#000000"> IndexType &gt;::Factory</text>
</a>
</g>
</g>
<!-- Node2&#45;&gt;Node12 -->
<g id="edge12" class="edge">
<title>Node2&#45;&gt;Node12</title>
<path fill="none" stroke="#191970" d="M733.5065,-694.6427C754.739,-735.0387 798.0255,-807.0281 855,-848 864.1384,-854.5717 874.7951,-859.7584 885.5494,-863.8349"/>
<polygon fill="#191970" stroke="#191970" points="736.5221,-692.8539 728.8295,-685.5686 730.2999,-696.0609 736.5221,-692.8539"/>
</g>
<!-- Node13 -->
<g id="node14" class="node">
<title>Node13</title>
<g id="a_node14"><a xlink:href="classgko_1_1reorder_1_1Rcm_1_1Factory.html" target="_top" xlink:title=" ">
<polygon fill="#ffffff" stroke="#000000" points="884.5,-797.5 884.5,-838.5 1009.5,-838.5 1009.5,-797.5 884.5,-797.5"/>
<text text-anchor="start" x="892.5" y="-826.5" font-family="Helvetica,sans-Serif" font-size="10.00" fill="#000000">gko::reorder::Rcm&lt;</text>
<text text-anchor="start" x="892.5" y="-815.5" font-family="Helvetica,sans-Serif" font-size="10.00" fill="#000000"> ValueType, IndexType</text>
<text text-anchor="middle" x="947" y="-804.5" font-family="Helvetica,sans-Serif" font-size="10.00" fill="#000000"> &gt;::Factory</text>
</a>
</g>
</g>
<!-- Node2&#45;&gt;Node13 -->
<g id="edge13" class="edge">
<title>Node2&#45;&gt;Node13</title>
<path fill="none" stroke="#191970" d="M743.7839,-693.5188C769.2024,-721.174 811.1284,-762.5752 855,-788 864.012,-793.2227 874.055,-797.6753 884.1011,-801.4245"/>
<polygon fill="#191970" stroke="#191970" points="746.0614,-690.8197 736.7531,-685.7594 740.8741,-695.52 746.0614,-690.8197"/>
</g>
<!-- Node14 -->
<g id="node15" class="node">
<title>Node14</title>
<g id="a_node15"><a xlink:href="classgko_1_1solver_1_1Bicg_1_1Factory.html" target="_top" xlink:title=" ">
<polygon fill="#ffffff" stroke="#000000" points="886,-748 886,-778 1008,-778 1008,-748 886,-748"/>
<text text-anchor="start" x="894" y="-766" font-family="Helvetica,sans-Serif" font-size="10.00" fill="#000000">gko::solver::Bicg&lt;</text>
<text text-anchor="middle" x="947" y="-755" font-family="Helvetica,sans-Serif" font-size="10.00" fill="#000000"> ValueType &gt;::Factory</text>
</a>
</g>
</g>
<!-- Node2&#45;&gt;Node14 -->
<g id="edge14" class="edge">
<title>Node2&#45;&gt;Node14</title>
<path fill="none" stroke="#191970" d="M760.0137,-690.7354C786.364,-706.3968 821.7647,-725.8505 855,-739 864.8234,-742.8866 875.4851,-746.3299 885.952,-749.3087"/>
<polygon fill="#191970" stroke="#191970" points="761.815,-687.7345 751.4407,-685.584 758.2096,-693.7346 761.815,-687.7345"/>
</g>
<!-- Node15 -->
<g id="node16" class="node">
<title>Node15</title>
<g id="a_node16"><a xlink:href="classgko_1_1solver_1_1Bicgstab_1_1Factory.html" target="_top" xlink:title=" ">
<polygon fill="#ffffff" stroke="#000000" points="882,-699 882,-729 1012,-729 1012,-699 882,-699"/>
<text text-anchor="start" x="890" y="-717" font-family="Helvetica,sans-Serif" font-size="10.00" fill="#000000">gko::solver::Bicgstab</text>
<text text-anchor="middle" x="947" y="-706" font-family="Helvetica,sans-Serif" font-size="10.00" fill="#000000">&lt; ValueType &gt;::Factory</text>
</a>
</g>
</g>
<!-- Node2&#45;&gt;Node15 -->
<g id="edge15" class="edge">
<title>Node2&#45;&gt;Node15</title>
<path fill="none" stroke="#191970" d="M824.5806,-687.6906C844.1501,-691.8963 864.0522,-696.1735 881.9635,-700.0229"/>
<polygon fill="#191970" stroke="#191970" points="825.2137,-684.2468 814.7015,-685.5674 823.7429,-691.0905 825.2137,-684.2468"/>
</g>
<!-- Node16 -->
<g id="node17" class="node">
<title>Node16</title>
<g id="a_node17"><a xlink:href="classgko_1_1solver_1_1Cg_1_1Factory.html" target="_top" xlink:title=" ">
<polygon fill="#ffffff" stroke="#000000" points="872,-650 872,-680 1022,-680 1022,-650 872,-650"/>
<text text-anchor="start" x="880" y="-668" font-family="Helvetica,sans-Serif" font-size="10.00" fill="#000000">gko::solver::Cg&lt; ValueType</text>
<text text-anchor="middle" x="947" y="-657" font-family="Helvetica,sans-Serif" font-size="10.00" fill="#000000"> &gt;::Factory</text>
</a>
</g>
</g>
<!-- Node2&#45;&gt;Node16 -->
<g id="edge16" class="edge">
<title>Node2&#45;&gt;Node16</title>
<path fill="none" stroke="#191970" d="M829.4194,-665C843.7592,-665 858.1746,-665 871.7569,-665"/>
<polygon fill="#191970" stroke="#191970" points="829.0042,-661.5001 819.0041,-665 829.0041,-668.5001 829.0042,-661.5001"/>
</g>
<!-- Node17 -->
<g id="node18" class="node">
<title>Node17</title>
<g id="a_node18"><a xlink:href="classgko_1_1solver_1_1Cgs_1_1Factory.html" target="_top" xlink:title=" ">
<polygon fill="#ffffff" stroke="#000000" points="869.5,-601 869.5,-631 1024.5,-631 1024.5,-601 869.5,-601"/>
<text text-anchor="start" x="877.5" y="-619" font-family="Helvetica,sans-Serif" font-size="10.00" fill="#000000">gko::solver::Cgs&lt; ValueType</text>
<text text-anchor="middle" x="947" y="-608" font-family="Helvetica,sans-Serif" font-size="10.00" fill="#000000"> &gt;::Factory</text>
</a>
</g>
</g>
<!-- Node2&#45;&gt;Node17 -->
<g id="edge17" class="edge">
<title>Node2&#45;&gt;Node17</title>
<path fill="none" stroke="#191970" d="M824.5777,-642.3101C842.4263,-638.4742 860.5517,-634.5788 877.1911,-631.0028"/>
<polygon fill="#191970" stroke="#191970" points="823.7429,-638.9095 814.7015,-644.4326 825.2137,-645.7532 823.7429,-638.9095"/>
</g>
<!-- Node18 -->
<g id="node19" class="node">
<title>Node18</title>
<g id="a_node19"><a xlink:href="classgko_1_1solver_1_1Fcg_1_1Factory.html" target="_top" xlink:title=" ">
<polygon fill="#ffffff" stroke="#000000" points="870,-552 870,-582 1024,-582 1024,-552 870,-552"/>
<text text-anchor="start" x="878" y="-570" font-family="Helvetica,sans-Serif" font-size="10.00" fill="#000000">gko::solver::Fcg&lt; ValueType</text>
<text text-anchor="middle" x="947" y="-559" font-family="Helvetica,sans-Serif" font-size="10.00" fill="#000000"> &gt;::Factory</text>
</a>
</g>
</g>
<!-- Node2&#45;&gt;Node18 -->
<g id="edge18" class="edge">
<title>Node2&#45;&gt;Node18</title>
<path fill="none" stroke="#191970" d="M760.0137,-639.2646C786.364,-623.6032 821.7647,-604.1495 855,-591 863.2885,-587.7207 872.1738,-584.7569 881.0353,-582.1216"/>
<polygon fill="#191970" stroke="#191970" points="758.2096,-636.2654 751.4407,-644.416 761.815,-642.2655 758.2096,-636.2654"/>
</g>
<!-- Node19 -->
<g id="node20" class="node">
<title>Node19</title>
<g id="a_node20"><a xlink:href="classgko_1_1solver_1_1Gmres_1_1Factory.html" target="_top" xlink:title=" ">
<polygon fill="#ffffff" stroke="#000000" points="882,-503 882,-533 1012,-533 1012,-503 882,-503"/>
<text text-anchor="start" x="890" y="-521" font-family="Helvetica,sans-Serif" font-size="10.00" fill="#000000">gko::solver::Gmres</text>
<text text-anchor="middle" x="947" y="-510" font-family="Helvetica,sans-Serif" font-size="10.00" fill="#000000">&lt; ValueType &gt;::Factory</text>
</a>
</g>
</g>
<!-- Node2&#45;&gt;Node19 -->
<g id="edge19" class="edge">
<title>Node2&#45;&gt;Node19</title>
<path fill="none" stroke="#191970" d="M742.713,-636.7536C767.8036,-608.6613 809.9376,-566.3384 855,-542 863.2785,-537.5287 872.4315,-533.8587 881.6591,-530.8549"/>
<polygon fill="#191970" stroke="#191970" points="740.0759,-634.4524 736.0999,-644.2729 745.3322,-639.0753 740.0759,-634.4524"/>
</g>
<!-- Node20 -->
<g id="node21" class="node">
<title>Node20</title>
<g id="a_node21"><a xlink:href="classgko_1_1solver_1_1Idr_1_1Factory.html" target="_top" xlink:title=" ">
<polygon fill="#ffffff" stroke="#000000" points="872,-454 872,-484 1022,-484 1022,-454 872,-454"/>
<text text-anchor="start" x="880" y="-472" font-family="Helvetica,sans-Serif" font-size="10.00" fill="#000000">gko::solver::Idr&lt; ValueType</text>
<text text-anchor="middle" x="947" y="-461" font-family="Helvetica,sans-Serif" font-size="10.00" fill="#000000"> &gt;::Factory</text>
</a>
</g>
</g>
<!-- Node2&#45;&gt;Node20 -->
<g id="edge20" class="edge">
<title>Node2&#45;&gt;Node20</title>
<path fill="none" stroke="#191970" d="M740.1386,-636.2731C774.4917,-589.8996 840.1092,-502.7234 855,-493 860.252,-489.5705 865.972,-486.6304 871.9052,-484.1098"/>
<polygon fill="#191970" stroke="#191970" points="737.2388,-634.3079 734.1072,-644.4293 742.8671,-638.4699 737.2388,-634.3079"/>
</g>
<!-- Node21 -->
<g id="node22" class="node">
<title>Node21</title>
<g id="a_node22"><a xlink:href="classgko_1_1solver_1_1Ir_1_1Factory.html" target="_top" xlink:title=" ">
<polygon fill="#ffffff" stroke="#000000" points="875,-405 875,-435 1019,-435 1019,-405 875,-405"/>
<text text-anchor="start" x="883" y="-423" font-family="Helvetica,sans-Serif" font-size="10.00" fill="#000000">gko::solver::Ir&lt; ValueType</text>
<text text-anchor="middle" x="947" y="-412" font-family="Helvetica,sans-Serif" font-size="10.00" fill="#000000"> &gt;::Factory</text>
</a>
</g>
</g>
<!-- Node2&#45;&gt;Node21 -->
<g id="edge21" class="edge">
<title>Node2&#45;&gt;Node21</title>
<path fill="none" stroke="#191970" d="M742.9368,-636.6169C764.6269,-609.9932 796.539,-568.4736 819,-529 839.2898,-493.3421 823.9589,-470.8256 855,-444 860.8699,-438.9272 867.6855,-434.9082 874.9017,-431.7269"/>
<polygon fill="#191970" stroke="#191970" points="740.2003,-634.4343 736.5554,-644.3824 745.6085,-638.8786 740.2003,-634.4343"/>
</g>
<!-- Node22 -->
<g id="node23" class="node">
<title>Node22</title>
<g id="a_node23"><a xlink:href="classgko_1_1solver_1_1LowerTrs_1_1Factory.html" target="_top" xlink:title=" ">
<polygon fill="#ffffff" stroke="#000000" points="880.5,-344.5 880.5,-385.5 1013.5,-385.5 1013.5,-344.5 880.5,-344.5"/>
<text text-anchor="start" x="888.5" y="-373.5" font-family="Helvetica,sans-Serif" font-size="10.00" fill="#000000">gko::solver::LowerTrs</text>
<text text-anchor="start" x="888.5" y="-362.5" font-family="Helvetica,sans-Serif" font-size="10.00" fill="#000000">&lt; ValueType, IndexType</text>
<text text-anchor="middle" x="947" y="-351.5" font-family="Helvetica,sans-Serif" font-size="10.00" fill="#000000"> &gt;::Factory</text>
</a>
</g>
</g>
<!-- Node2&#45;&gt;Node22 -->
<g id="edge22" class="edge">
<title>Node2&#45;&gt;Node22</title>
<path fill="none" stroke="#191970" d="M744.6323,-636.8369C767.1995,-610.6606 799.4325,-569.6905 819,-529 845.7255,-473.4247 812.5598,-439.7403 855,-395 862.0528,-387.565 870.968,-381.9699 880.4577,-377.76"/>
<polygon fill="#191970" stroke="#191970" points="741.9078,-634.6356 737.9637,-644.469 747.1791,-639.2415 741.9078,-634.6356"/>
</g>
<!-- Node23 -->
<g id="node24" class="node">
<title>Node23</title>
<g id="a_node24"><a xlink:href="classgko_1_1solver_1_1UpperTrs_1_1Factory.html" target="_top" xlink:title=" ">
<polygon fill="#ffffff" stroke="#000000" points="880.5,-284.5 880.5,-325.5 1013.5,-325.5 1013.5,-284.5 880.5,-284.5"/>
<text text-anchor="start" x="888.5" y="-313.5" font-family="Helvetica,sans-Serif" font-size="10.00" fill="#000000">gko::solver::UpperTrs</text>
<text text-anchor="start" x="888.5" y="-302.5" font-family="Helvetica,sans-Serif" font-size="10.00" fill="#000000">&lt; ValueType, IndexType</text>
<text text-anchor="middle" x="947" y="-291.5" font-family="Helvetica,sans-Serif" font-size="10.00" fill="#000000"> &gt;::Factory</text>
</a>
</g>
</g>
<!-- Node2&#45;&gt;Node23 -->
<g id="edge23" class="edge">
<title>Node2&#45;&gt;Node23</title>
<path fill="none" stroke="#191970" d="M745.8121,-636.73C768.8736,-610.7704 801.1597,-570.1876 819,-529 853.8553,-448.5302 797.2067,-400.9561 855,-335 861.8645,-327.166 870.8002,-321.3669 880.4013,-317.0767"/>
<polygon fill="#191970" stroke="#191970" points="743.08,-634.5332 738.9774,-644.3015 748.2762,-639.2237 743.08,-634.5332"/>
</g>
<!-- Node24 -->
<g id="node25" class="node">
<title>Node24</title>
<g id="a_node25"><a xlink:href="classgko_1_1stop_1_1AbsoluteResidualNorm_1_1Factory.html" target="_top" xlink:title=" ">
<polygon fill="#ffffff" stroke="#000000" points="868.5,-235 868.5,-265 1025.5,-265 1025.5,-235 868.5,-235"/>
<text text-anchor="start" x="876.5" y="-253" font-family="Helvetica,sans-Serif" font-size="10.00" fill="#000000">gko::stop::AbsoluteResidual</text>
<text text-anchor="middle" x="947" y="-242" font-family="Helvetica,sans-Serif" font-size="10.00" fill="#000000">Norm&lt; ValueType &gt;::Factory</text>
</a>
</g>
</g>
<!-- Node2&#45;&gt;Node24 -->
<g id="edge24" class="edge">
<title>Node2&#45;&gt;Node24</title>
<path fill="none" stroke="#191970" d="M746.2396,-636.9098C769.5831,-611.0687 802.0428,-570.5589 819,-529 862.0746,-423.4326 779.551,-360.483 855,-275 858.8334,-270.6568 863.3383,-267.0338 868.2594,-264.0154"/>
<polygon fill="#191970" stroke="#191970" points="743.5054,-634.7125 739.315,-644.4435 748.6591,-639.4496 743.5054,-634.7125"/>
</g>
<!-- Node25 -->
<g id="node26" class="node">
<title>Node25</title>
<g id="a_node26"><a xlink:href="classgko_1_1stop_1_1Combined_1_1Factory.html" target="_top" xlink:title=" ">
<polygon fill="#ffffff" stroke="#000000" points="888.5,-186 888.5,-216 1005.5,-216 1005.5,-186 888.5,-186"/>
<text text-anchor="start" x="896.5" y="-204" font-family="Helvetica,sans-Serif" font-size="10.00" fill="#000000">gko::stop::Combined</text>
<text text-anchor="middle" x="947" y="-193" font-family="Helvetica,sans-Serif" font-size="10.00" fill="#000000">::Factory</text>
</a>
</g>
</g>
<!-- Node2&#45;&gt;Node25 -->
<g id="edge25" class="edge">
<title>Node2&#45;&gt;Node25</title>
<path fill="none" stroke="#191970" d="M746.8888,-636.5434C770.3514,-610.7437 802.6177,-570.5035 819,-529 843.9766,-465.7234 810.3105,-276.2894 855,-225 863.5666,-215.1682 875.6072,-209.119 888.1619,-205.454"/>
<polygon fill="#191970" stroke="#191970" points="744.1436,-634.3567 739.9173,-644.0721 749.2798,-639.1128 744.1436,-634.3567"/>
</g>
<!-- Node26 -->
<g id="node27" class="node">
<title>Node26</title>
<g id="a_node27"><a xlink:href="classgko_1_1stop_1_1Iteration_1_1Factory.html" target="_top" xlink:title=" ">
<polygon fill="#ffffff" stroke="#000000" points="892.5,-137 892.5,-167 1001.5,-167 1001.5,-137 892.5,-137"/>
<text text-anchor="start" x="900.5" y="-155" font-family="Helvetica,sans-Serif" font-size="10.00" fill="#000000">gko::stop::Iteration</text>
<text text-anchor="middle" x="947" y="-144" font-family="Helvetica,sans-Serif" font-size="10.00" fill="#000000">::Factory</text>
</a>
</g>
</g>
<!-- Node2&#45;&gt;Node26 -->
<g id="edge26" class="edge">
<title>Node2&#45;&gt;Node26</title>
<path fill="none" stroke="#191970" d="M747.0551,-636.6083C770.625,-610.8504 802.9553,-570.6351 819,-529 847.3541,-455.423 803.6844,-235.8686 855,-176 864.4533,-164.971 878.2786,-158.6886 892.353,-155.1926"/>
<polygon fill="#191970" stroke="#191970" points="744.308,-634.4223 740.0493,-644.1236 749.4283,-639.1955 744.308,-634.4223"/>
</g>
<!-- Node27 -->
<g id="node28" class="node">
<title>Node27</title>
<g id="a_node28"><a xlink:href="classgko_1_1stop_1_1RelativeResidualNorm_1_1Factory.html" target="_top" xlink:title=" ">
<polygon fill="#ffffff" stroke="#000000" points="868.5,-88 868.5,-118 1025.5,-118 1025.5,-88 868.5,-88"/>
<text text-anchor="start" x="876.5" y="-106" font-family="Helvetica,sans-Serif" font-size="10.00" fill="#000000">gko::stop::RelativeResidual</text>
<text text-anchor="middle" x="947" y="-95" font-family="Helvetica,sans-Serif" font-size="10.00" fill="#000000">Norm&lt; ValueType &gt;::Factory</text>
</a>
</g>
</g>
<!-- Node2&#45;&gt;Node27 -->
<g id="edge27" class="edge">
<title>Node2&#45;&gt;Node27</title>
<path fill="none" stroke="#191970" d="M747.1816,-636.6566C770.8331,-610.9298 803.212,-570.7332 819,-529 850.7358,-445.1115 797.0507,-195.4568 855,-127 858.8394,-122.4644 863.4183,-118.7299 868.4528,-115.6607"/>
<polygon fill="#191970" stroke="#191970" points="744.4328,-634.4714 740.1497,-644.1619 749.5411,-639.2574 744.4328,-634.4714"/>
</g>
<!-- Node28 -->
<g id="node29" class="node">
<title>Node28</title>
<g id="a_node29"><a xlink:href="classgko_1_1stop_1_1ResidualNormReduction_1_1Factory.html" target="_top" xlink:title=" ">
<polygon fill="#ffffff" stroke="#000000" points="855,-39 855,-69 1039,-69 1039,-39 855,-39"/>
<text text-anchor="start" x="863" y="-57" font-family="Helvetica,sans-Serif" font-size="10.00" fill="#000000">gko::stop::ResidualNormReduction</text>
<text text-anchor="middle" x="947" y="-46" font-family="Helvetica,sans-Serif" font-size="10.00" fill="#000000">&lt; ValueType &gt;::Factory</text>
</a>
</g>
</g>
<!-- Node2&#45;&gt;Node28 -->
<g id="edge28" class="edge">
<title>Node2&#45;&gt;Node28</title>
<path fill="none" stroke="#191970" d="M747.281,-636.6939C770.9966,-610.9913 803.4137,-570.8089 819,-529 854.1203,-434.7925 790.4118,-155.051 855,-78 857.8631,-74.5844 861.1456,-71.6224 864.7273,-69.0562"/>
<polygon fill="#191970" stroke="#191970" points="744.5308,-634.5095 740.2287,-644.1915 749.6296,-639.3055 744.5308,-634.5095"/>
</g>
<!-- Node29 -->
<g id="node30" class="node">
<title>Node29</title>
<g id="a_node30"><a xlink:href="classgko_1_1stop_1_1Time_1_1Factory.html" target="_top" xlink:title=" ">
<polygon fill="#ffffff" stroke="#000000" points="880,-.5 880,-19.5 1014,-19.5 1014,-.5 880,-.5"/>
<text text-anchor="middle" x="947" y="-7.5" font-family="Helvetica,sans-Serif" font-size="10.00" fill="#000000">gko::stop::Time::Factory</text>
</a>
</g>
</g>
<!-- Node2&#45;&gt;Node29 -->
<g id="edge29" class="edge">
<title>Node2&#45;&gt;Node29</title>
<path fill="none" stroke="#191970" d="M747.3612,-636.7237C771.1285,-611.0401 803.5764,-570.8692 819,-529 857.5069,-424.4682 781.5867,-112.7864 855,-29 861.5563,-21.5173 870.2117,-16.5218 879.5936,-13.253"/>
<polygon fill="#191970" stroke="#191970" points="744.6097,-634.5398 740.2923,-644.2151 749.7009,-639.3439 744.6097,-634.5398"/>
</g>
<!-- Node466 -->
<g id="node31" class="node">
<title>Node466</title>
<g id="a_node31"><a xlink:href="classgko_1_1ConvertibleTo.html" target="_top" xlink:title=" ">
<polygon fill="#ffffff" stroke="#000000" points="182.5,-388 182.5,-418 292.5,-418 292.5,-388 182.5,-388"/>
<text text-anchor="start" x="190.5" y="-406" font-family="Helvetica,sans-Serif" font-size="10.00" fill="#000000">gko::ConvertibleTo</text>
<text text-anchor="middle" x="237.5" y="-395" font-family="Helvetica,sans-Serif" font-size="10.00" fill="#000000">&lt; ConcreteLinOp &gt;</text>
</a>
</g>
</g>
<!-- Node467 -->
<g id="node32" class="node">
<title>Node467</title>
<g id="a_node32"><a xlink:href="classgko_1_1EnablePolymorphicAssignment.html" target="_top" xlink:title=" ">
<polygon fill="#ffffff" stroke="#000000" points="382.5,-421 382.5,-451 574.5,-451 574.5,-421 382.5,-421"/>
<text text-anchor="start" x="390.5" y="-439" font-family="Helvetica,sans-Serif" font-size="10.00" fill="#000000">gko::EnablePolymorphicAssignment</text>
<text text-anchor="middle" x="478.5" y="-428" font-family="Helvetica,sans-Serif" font-size="10.00" fill="#000000">&lt; ConcreteLinOp &gt;</text>
</a>
</g>
</g>
<!-- Node466&#45;&gt;Node467 -->
<g id="edge30" class="edge">
<title>Node466&#45;&gt;Node467</title>
<path fill="none" stroke="#191970" d="M303.011,-411.9704C327.4452,-415.3161 355.7195,-419.1877 382.34,-422.8329"/>
<polygon fill="#191970" stroke="#191970" points="303.1727,-408.4599 292.7903,-410.5709 302.223,-415.3952 303.1727,-408.4599"/>
</g>
<!-- Node109 -->
<g id="node33" class="node">
<title>Node109</title>
<g id="a_node33"><a xlink:href="classgko_1_1EnableLinOp.html" target="_top" xlink:title="The EnableLinOp mixin can be used to provide sensible default implementations of the majority of the ...">
<polygon fill="#ffffff" stroke="#000000" points="641,-490 641,-520 797,-520 797,-490 641,-490"/>
<text text-anchor="start" x="649" y="-508" font-family="Helvetica,sans-Serif" font-size="10.00" fill="#000000">gko::EnableLinOp&lt; Concrete</text>
<text text-anchor="middle" x="719" y="-497" font-family="Helvetica,sans-Serif" font-size="10.00" fill="#000000">LinOp, PolymorphicBase &gt;</text>
</a>
</g>
</g>
<!-- Node467&#45;&gt;Node109 -->
<g id="edge31" class="edge">
<title>Node467&#45;&gt;Node109</title>
<path fill="none" stroke="#191970" d="M540.6687,-453.8363C579.7402,-465.0461 629.5785,-479.3448 666.6303,-489.975"/>
<polygon fill="#191970" stroke="#191970" points="541.559,-450.4506 530.9816,-451.0571 539.6285,-457.1792 541.559,-450.4506"/>
</g>
<!-- Node76 -->
<g id="node34" class="node">
<title>Node76</title>
<g id="a_node34"><a xlink:title=" ">
<polygon fill="#ffffff" stroke="#bfbfbf" points="0,-538.5 0,-557.5 101,-557.5 101,-538.5 0,-538.5"/>
<text text-anchor="middle" x="50.5" y="-545.5" font-family="Helvetica,sans-Serif" font-size="10.00" fill="#000000">PolymorphicBase</text>
</a>
</g>
</g>
<!-- Node0 -->
<g id="node35" class="node">
<title>Node0</title>
<g id="a_node35"><a xlink:href="classgko_1_1EnableAbstractPolymorphicObject.html" target="_top" xlink:title=" ">
<polygon fill="#ffffff" stroke="#000000" points="150,-617.5 150,-658.5 325,-658.5 325,-617.5 150,-617.5"/>
<text text-anchor="start" x="158" y="-646.5" font-family="Helvetica,sans-Serif" font-size="10.00" fill="#000000">gko::EnableAbstractPolymorphic</text>
<text text-anchor="start" x="158" y="-635.5" font-family="Helvetica,sans-Serif" font-size="10.00" fill="#000000">Object&lt; ConcreteFactory,</text>
<text text-anchor="middle" x="237.5" y="-624.5" font-family="Helvetica,sans-Serif" font-size="10.00" fill="#000000"> PolymorphicBase &gt;</text>
</a>
</g>
</g>
<!-- Node76&#45;&gt;Node0 -->
<g id="edge32" class="edge">
<title>Node76&#45;&gt;Node0</title>
<path fill="none" stroke="#191970" d="M69.7579,-564.0372C86.5963,-577.3812 112.1743,-596.0608 137,-608 144.2203,-611.4724 151.9274,-614.6373 159.7408,-617.498"/>
<polygon fill="#191970" stroke="#191970" points="71.7781,-561.1699 61.7994,-557.6095 67.3798,-566.6156 71.7781,-561.1699"/>
</g>
<!-- Node107 -->
<g id="node37" class="node">
<title>Node107</title>
<g id="a_node37"><a xlink:href="classgko_1_1EnableAbstractPolymorphicObject.html" target="_top" xlink:title=" ">
<polygon fill="#ffffff" stroke="#000000" points="139,-557.5 139,-598.5 336,-598.5 336,-557.5 139,-557.5"/>
<text text-anchor="start" x="147" y="-586.5" font-family="Helvetica,sans-Serif" font-size="10.00" fill="#000000">gko::EnableAbstractPolymorphic</text>
<text text-anchor="start" x="147" y="-575.5" font-family="Helvetica,sans-Serif" font-size="10.00" fill="#000000">Object&lt; ConcreteLinOp, Polymorphic</text>
<text text-anchor="middle" x="237.5" y="-564.5" font-family="Helvetica,sans-Serif" font-size="10.00" fill="#000000">Base &gt;</text>
</a>
</g>
</g>
<!-- Node76&#45;&gt;Node107 -->
<g id="edge35" class="edge">
<title>Node76&#45;&gt;Node107</title>
<path fill="none" stroke="#191970" d="M111.016,-557.7084C119.9879,-559.1478 129.4246,-560.6617 138.9314,-562.1869"/>
<polygon fill="#191970" stroke="#191970" points="111.5331,-554.2467 101.1049,-556.1184 110.4242,-561.1584 111.5331,-554.2467"/>
</g>
<!-- Node110 -->
<g id="node39" class="node">
<title>Node110</title>
<g id="a_node39"><a xlink:href="classgko_1_1EnableAbstractPolymorphicObject.html" target="_top" xlink:title=" ">
<polygon fill="#ffffff" stroke="#000000" points="137,-497.5 137,-538.5 338,-538.5 338,-497.5 137,-497.5"/>
<text text-anchor="start" x="145" y="-526.5" font-family="Helvetica,sans-Serif" font-size="10.00" fill="#000000">gko::EnableAbstractPolymorphic</text>
<text text-anchor="start" x="145" y="-515.5" font-family="Helvetica,sans-Serif" font-size="10.00" fill="#000000">Object&lt; ConcreteObject, Polymorphic</text>
<text text-anchor="middle" x="237.5" y="-504.5" font-family="Helvetica,sans-Serif" font-size="10.00" fill="#000000">Base &gt;</text>
</a>
</g>
</g>
<!-- Node76&#45;&gt;Node110 -->
<g id="edge38" class="edge">
<title>Node76&#45;&gt;Node110</title>
<path fill="none" stroke="#191970" d="M111.0054,-538.2933C119.3008,-536.9624 127.9936,-535.5679 136.772,-534.1596"/>
<polygon fill="#191970" stroke="#191970" points="110.4242,-534.8416 101.1049,-539.8816 111.5331,-541.7533 110.4242,-534.8416"/>
</g>
<!-- Node112 -->
<g id="node41" class="node">
<title>Node112</title>
<g id="a_node41"><a xlink:href="classgko_1_1EnableAbstractPolymorphicObject.html" target="_top" xlink:title="This mixin inherits from (a subclass of) PolymorphicObject and provides a base implementation of a ne...">
<polygon fill="#ffffff" stroke="#000000" points="138.5,-437.5 138.5,-478.5 336.5,-478.5 336.5,-437.5 138.5,-437.5"/>
<text text-anchor="start" x="146.5" y="-466.5" font-family="Helvetica,sans-Serif" font-size="10.00" fill="#000000">gko::EnableAbstractPolymorphic</text>
<text text-anchor="start" x="146.5" y="-455.5" font-family="Helvetica,sans-Serif" font-size="10.00" fill="#000000">Object&lt; AbstractObject, Polymorphic</text>
<text text-anchor="middle" x="237.5" y="-444.5" font-family="Helvetica,sans-Serif" font-size="10.00" fill="#000000">Base &gt;</text>
</a>
</g>
</g>
<!-- Node76&#45;&gt;Node112 -->
<g id="edge40" class="edge">
<title>Node76&#45;&gt;Node112</title>
<path fill="none" stroke="#191970" d="M69.7579,-531.9628C86.5963,-518.6188 112.1743,-499.9392 137,-488 144.2203,-484.5276 151.9274,-481.3627 159.7408,-478.502"/>
<polygon fill="#191970" stroke="#191970" points="67.3798,-529.3844 61.7994,-538.3905 71.7781,-534.8301 67.3798,-529.3844"/>
</g>
<!-- Node1 -->
<g id="node36" class="node">
<title>Node1</title>
<g id="a_node36"><a xlink:href="classgko_1_1EnablePolymorphicObject.html" target="_top" xlink:title=" ">
<polygon fill="#ffffff" stroke="#000000" points="374,-624 374,-654 583,-654 583,-624 374,-624"/>
<text text-anchor="start" x="382" y="-642" font-family="Helvetica,sans-Serif" font-size="10.00" fill="#000000">gko::EnablePolymorphicObject</text>
<text text-anchor="middle" x="478.5" y="-631" font-family="Helvetica,sans-Serif" font-size="10.00" fill="#000000">&lt; ConcreteFactory, PolymorphicBase &gt;</text>
</a>
</g>
</g>
<!-- Node0&#45;&gt;Node1 -->
<g id="edge33" class="edge">
<title>Node0&#45;&gt;Node1</title>
<path fill="none" stroke="#191970" d="M335.2497,-638.4056C347.9022,-638.4581 360.902,-638.512 373.6633,-638.565"/>
<polygon fill="#191970" stroke="#191970" points="335.2027,-634.9055 325.1883,-638.3639 335.1736,-641.9054 335.2027,-634.9055"/>
</g>
<!-- Node1&#45;&gt;Node2 -->
<g id="edge34" class="edge">
<title>Node1&#45;&gt;Node2</title>
<path fill="none" stroke="#191970" d="M593.2573,-651.4062C601.7736,-652.3269 610.3266,-653.2515 618.7451,-654.1616"/>
<polygon fill="#191970" stroke="#191970" points="593.6055,-647.9235 583.2872,-650.3283 592.853,-654.883 593.6055,-647.9235"/>
</g>
<!-- Node108 -->
<g id="node38" class="node">
<title>Node108</title>
<g id="a_node38"><a xlink:href="classgko_1_1EnablePolymorphicObject.html" target="_top" xlink:title=" ">
<polygon fill="#ffffff" stroke="#000000" points="378,-558 378,-588 579,-588 579,-558 378,-558"/>
<text text-anchor="start" x="386" y="-576" font-family="Helvetica,sans-Serif" font-size="10.00" fill="#000000">gko::EnablePolymorphicObject</text>
<text text-anchor="middle" x="478.5" y="-565" font-family="Helvetica,sans-Serif" font-size="10.00" fill="#000000">&lt; ConcreteLinOp, PolymorphicBase &gt;</text>
</a>
</g>
</g>
<!-- Node107&#45;&gt;Node108 -->
<g id="edge36" class="edge">
<title>Node107&#45;&gt;Node108</title>
<path fill="none" stroke="#191970" d="M346.2891,-575.743C356.8418,-575.524 367.5155,-575.3026 377.9822,-575.0854"/>
<polygon fill="#191970" stroke="#191970" points="346.1445,-572.2451 336.2193,-575.9519 346.2898,-579.2436 346.1445,-572.2451"/>
</g>
<!-- Node108&#45;&gt;Node109 -->
<g id="edge37" class="edge">
<title>Node108&#45;&gt;Node109</title>
<path fill="none" stroke="#191970" d="M541.657,-555.1427C580.2306,-544.2363 629.011,-530.4439 665.6439,-520.0861"/>
<polygon fill="#191970" stroke="#191970" points="540.2469,-551.9041 531.5765,-557.9929 542.1515,-558.64 540.2469,-551.9041"/>
</g>
<!-- Node111 -->
<g id="node40" class="node">
<title>Node111</title>
<g id="a_node40"><a xlink:href="classgko_1_1EnablePolymorphicObject.html" target="_top" xlink:title="This mixin inherits from (a subclass of) PolymorphicObject and provides a base implementation of a ne...">
<polygon fill="#ffffff" stroke="#000000" points="376,-503 376,-533 581,-533 581,-503 376,-503"/>
<text text-anchor="start" x="384" y="-521" font-family="Helvetica,sans-Serif" font-size="10.00" fill="#000000">gko::EnablePolymorphicObject</text>
<text text-anchor="middle" x="478.5" y="-510" font-family="Helvetica,sans-Serif" font-size="10.00" fill="#000000">&lt; ConcreteObject, PolymorphicBase &gt;</text>
</a>
</g>
</g>
<!-- Node110&#45;&gt;Node111 -->
<g id="edge39" class="edge">
<title>Node110&#45;&gt;Node111</title>
<path fill="none" stroke="#191970" d="M348.5197,-518C357.6003,-518 366.753,-518 375.7701,-518"/>
<polygon fill="#191970" stroke="#191970" points="348.3093,-514.5001 338.3093,-518 348.3093,-521.5001 348.3093,-514.5001"/>
</g>
</g>
</svg>
