<?xml version="1.0" encoding="UTF-8" standalone="no"?>
<!DOCTYPE svg PUBLIC "-//W3C//DTD SVG 1.1//EN"
 "http://www.w3.org/Graphics/SVG/1.1/DTD/svg11.dtd">
<!-- Generated by graphviz version 2.40.1 (20161225.0304)
 -->
<!-- Title: Graphical Class Hierarchy Pages: 1 -->
<svg width="318pt" height="61pt"
 viewBox="0.00 0.00 318.00 61.00" xmlns="http://www.w3.org/2000/svg" xmlns:xlink="http://www.w3.org/1999/xlink">
<g id="graph0" class="graph" transform="scale(1 1) rotate(0) translate(4 57)">
<title>Graphical Class Hierarchy</title>
<polygon fill="#ffffff" stroke="transparent" points="-4,4 -4,-57 314,-57 314,4 -4,4"/>
<!-- Node214 -->
<g id="node1" class="node">
<title>Node214</title>
<g id="a_node1"><a xlink:title=" ">
<polygon fill="#ffffff" stroke="#bfbfbf" points="0,-.5 0,-52.5 157,-52.5 157,-.5 0,-.5"/>
<text text-anchor="start" x="8" y="-40.5" font-family="Helvetica,sans-Serif" font-size="10.00" fill="#000000">gko::detail::implement</text>
<text text-anchor="start" x="8" y="-29.5" font-family="Helvetica,sans-Serif" font-size="10.00" fill="#000000">_unary_operation&lt; Operand,</text>
<text text-anchor="start" x="8" y="-18.5" font-family="Helvetica,sans-Serif" font-size="10.00" fill="#000000"> ::gko::accessor::detail</text>
<text text-anchor="middle" x="78.5" y="-7.5" font-family="Helvetica,sans-Serif" font-size="10.00" fill="#000000">::unary_minus &gt;</text>
</a>
</g>
</g>
<!-- Node0 -->
<g id="node2" class="node">
<title>Node0</title>
<g id="a_node2"><a xlink:href="structgko_1_1accessor_1_1unary__minus.html" target="_top" xlink:title=" ">
<polygon fill="#ffffff" stroke="#000000" points="193,-11.5 193,-41.5 310,-41.5 310,-11.5 193,-11.5"/>
<text text-anchor="start" x="201" y="-29.5" font-family="Helvetica,sans-Serif" font-size="10.00" fill="#000000">gko::accessor::unary</text>
<text text-anchor="middle" x="251.5" y="-18.5" font-family="Helvetica,sans-Serif" font-size="10.00" fill="#000000">_minus&lt; Operand &gt;</text>
</a>
</g>
</g>
<!-- Node214&#45;&gt;Node0 -->
<g id="edge1" class="edge">
<title>Node214&#45;&gt;Node0</title>
<path fill="none" stroke="#191970" d="M167.3483,-26.5C176.0382,-26.5 184.6965,-26.5 192.972,-26.5"/>
<polygon fill="#191970" stroke="#191970" points="167.1537,-23.0001 157.1536,-26.5 167.1536,-30.0001 167.1537,-23.0001"/>
</g>
</g>
</svg>
