<?xml version="1.0" encoding="UTF-8" standalone="no"?>
<!DOCTYPE svg PUBLIC "-//W3C//DTD SVG 1.1//EN"
 "http://www.w3.org/Graphics/SVG/1.1/DTD/svg11.dtd">
<!-- Generated by graphviz version 2.40.1 (20161225.0304)
 -->
<!-- Title: Graphical Class Hierarchy Pages: 1 -->
<svg width="369pt" height="892pt"
 viewBox="0.00 0.00 369.00 892.00" xmlns="http://www.w3.org/2000/svg" xmlns:xlink="http://www.w3.org/1999/xlink">
<g id="graph0" class="graph" transform="scale(1 1) rotate(0) translate(4 888)">
<title>Graphical Class Hierarchy</title>
<polygon fill="#ffffff" stroke="transparent" points="-4,4 -4,-888 365,-888 365,4 -4,4"/>
<!-- Node0 -->
<g id="node1" class="node">
<title>Node0</title>
<g id="a_node1"><a xlink:href="structgko_1_1enable__parameters__type.html" target="_top" xlink:title=" ">
<polygon fill="#ffffff" stroke="#000000" points="0,-399.5 0,-440.5 141,-440.5 141,-399.5 0,-399.5"/>
<text text-anchor="start" x="8" y="-428.5" font-family="Helvetica,sans-Serif" font-size="10.00" fill="#000000">gko::enable_parameters</text>
<text text-anchor="start" x="8" y="-417.5" font-family="Helvetica,sans-Serif" font-size="10.00" fill="#000000">_type&lt; parameters_type,</text>
<text text-anchor="middle" x="70.5" y="-406.5" font-family="Helvetica,sans-Serif" font-size="10.00" fill="#000000"> Factory &gt;</text>
</a>
</g>
</g>
<!-- Node1 -->
<g id="node2" class="node">
<title>Node1</title>
<g id="a_node2"><a xlink:href="structgko_1_1factorization_1_1Ilu_1_1parameters__type.html" target="_top" xlink:title=" ">
<polygon fill="#ffffff" stroke="#000000" points="193.5,-842.5 193.5,-883.5 344.5,-883.5 344.5,-842.5 193.5,-842.5"/>
<text text-anchor="start" x="201.5" y="-871.5" font-family="Helvetica,sans-Serif" font-size="10.00" fill="#000000">gko::factorization</text>
<text text-anchor="start" x="201.5" y="-860.5" font-family="Helvetica,sans-Serif" font-size="10.00" fill="#000000">::Ilu&lt; ValueType, IndexType</text>
<text text-anchor="middle" x="269" y="-849.5" font-family="Helvetica,sans-Serif" font-size="10.00" fill="#000000"> &gt;::parameters_type</text>
</a>
</g>
</g>
<!-- Node0&#45;&gt;Node1 -->
<g id="edge1" class="edge">
<title>Node0&#45;&gt;Node1</title>
<path fill="none" stroke="#191970" d="M74.5848,-450.8747C86.545,-536.8812 124.0159,-776.577 177,-833 181.7151,-838.0212 187.2797,-842.2035 193.3008,-845.6868"/>
<polygon fill="#191970" stroke="#191970" points="78.0171,-450.1409 73.191,-440.7091 71.0819,-451.0918 78.0171,-450.1409"/>
</g>
<!-- Node2 -->
<g id="node3" class="node">
<title>Node2</title>
<g id="a_node3"><a xlink:href="structgko_1_1factorization_1_1ParIlu_1_1parameters__type.html" target="_top" xlink:title=" ">
<polygon fill="#ffffff" stroke="#000000" points="184,-782.5 184,-823.5 354,-823.5 354,-782.5 184,-782.5"/>
<text text-anchor="start" x="192" y="-811.5" font-family="Helvetica,sans-Serif" font-size="10.00" fill="#000000">gko::factorization</text>
<text text-anchor="start" x="192" y="-800.5" font-family="Helvetica,sans-Serif" font-size="10.00" fill="#000000">::ParIlu&lt; ValueType,</text>
<text text-anchor="middle" x="269" y="-789.5" font-family="Helvetica,sans-Serif" font-size="10.00" fill="#000000"> IndexType &gt;::parameters_type</text>
</a>
</g>
</g>
<!-- Node0&#45;&gt;Node2 -->
<g id="edge2" class="edge">
<title>Node0&#45;&gt;Node2</title>
<path fill="none" stroke="#191970" d="M76.0624,-451.0159C90.4812,-528.211 131.1525,-726.1232 177,-773 180.4066,-776.483 184.2219,-779.5619 188.3098,-782.2835"/>
<polygon fill="#191970" stroke="#191970" points="79.462,-450.151 74.2043,-440.9528 72.5784,-451.4221 79.462,-450.151"/>
</g>
<!-- Node3 -->
<g id="node4" class="node">
<title>Node3</title>
<g id="a_node4"><a xlink:href="structgko_1_1preconditioner_1_1Ilu_1_1parameters__type.html" target="_top" xlink:title=" ">
<polygon fill="#ffffff" stroke="#000000" points="184,-711 184,-763 354,-763 354,-711 184,-711"/>
<text text-anchor="start" x="192" y="-751" font-family="Helvetica,sans-Serif" font-size="10.00" fill="#000000">gko::preconditioner</text>
<text text-anchor="start" x="192" y="-740" font-family="Helvetica,sans-Serif" font-size="10.00" fill="#000000">::Ilu&lt; LSolverType,</text>
<text text-anchor="start" x="192" y="-729" font-family="Helvetica,sans-Serif" font-size="10.00" fill="#000000"> USolverType, ReverseApply,</text>
<text text-anchor="middle" x="269" y="-718" font-family="Helvetica,sans-Serif" font-size="10.00" fill="#000000"> IndexType &gt;::parameters_type</text>
</a>
</g>
</g>
<!-- Node0&#45;&gt;Node3 -->
<g id="edge3" class="edge">
<title>Node0&#45;&gt;Node3</title>
<path fill="none" stroke="#191970" d="M73.9751,-450.8673C81.9596,-507.7818 106.6797,-629.9223 177,-701 180.6188,-704.6578 184.653,-707.9527 188.9553,-710.9195"/>
<polygon fill="#191970" stroke="#191970" points="77.4125,-450.1621 72.6322,-440.707 70.4728,-451.0794 77.4125,-450.1621"/>
</g>
<!-- Node4 -->
<g id="node5" class="node">
<title>Node4</title>
<g id="a_node5"><a xlink:href="structgko_1_1preconditioner_1_1Jacobi_1_1parameters__type.html" target="_top" xlink:title=" ">
<polygon fill="#ffffff" stroke="#000000" points="184,-650.5 184,-691.5 354,-691.5 354,-650.5 184,-650.5"/>
<text text-anchor="start" x="192" y="-679.5" font-family="Helvetica,sans-Serif" font-size="10.00" fill="#000000">gko::preconditioner</text>
<text text-anchor="start" x="192" y="-668.5" font-family="Helvetica,sans-Serif" font-size="10.00" fill="#000000">::Jacobi&lt; ValueType,</text>
<text text-anchor="middle" x="269" y="-657.5" font-family="Helvetica,sans-Serif" font-size="10.00" fill="#000000"> IndexType &gt;::parameters_type</text>
</a>
</g>
</g>
<!-- Node0&#45;&gt;Node4 -->
<g id="edge4" class="edge">
<title>Node0&#45;&gt;Node4</title>
<path fill="none" stroke="#191970" d="M77.1087,-450.6696C88.9198,-498.1999 118.1284,-589.5244 177,-641 181.0471,-644.5387 185.5199,-647.6614 190.2488,-650.4169"/>
<polygon fill="#191970" stroke="#191970" points="80.4487,-449.587 74.7222,-440.6731 73.6401,-451.2126 80.4487,-449.587"/>
</g>
<!-- Node5 -->
<g id="node6" class="node">
<title>Node5</title>
<g id="a_node6"><a xlink:href="structgko_1_1solver_1_1Bicg_1_1parameters__type.html" target="_top" xlink:title=" ">
<polygon fill="#ffffff" stroke="#000000" points="184,-601 184,-631 354,-631 354,-601 184,-601"/>
<text text-anchor="start" x="192" y="-619" font-family="Helvetica,sans-Serif" font-size="10.00" fill="#000000">gko::solver::Bicg&lt;</text>
<text text-anchor="middle" x="269" y="-608" font-family="Helvetica,sans-Serif" font-size="10.00" fill="#000000"> ValueType &gt;::parameters_type</text>
</a>
</g>
</g>
<!-- Node0&#45;&gt;Node5 -->
<g id="edge5" class="edge">
<title>Node0&#45;&gt;Node5</title>
<path fill="none" stroke="#191970" d="M81.0379,-450.1899C96.1494,-488.9764 127.7118,-555.6246 177,-592 181.6485,-595.4307 186.7456,-598.3718 192.0817,-600.8933"/>
<polygon fill="#191970" stroke="#191970" points="84.1864,-448.6201 77.3799,-440.5008 77.6376,-451.0925 84.1864,-448.6201"/>
</g>
<!-- Node6 -->
<g id="node7" class="node">
<title>Node6</title>
<g id="a_node7"><a xlink:href="structgko_1_1solver_1_1Bicgstab_1_1parameters__type.html" target="_top" xlink:title=" ">
<polygon fill="#ffffff" stroke="#000000" points="180,-552 180,-582 358,-582 358,-552 180,-552"/>
<text text-anchor="start" x="188" y="-570" font-family="Helvetica,sans-Serif" font-size="10.00" fill="#000000">gko::solver::Bicgstab</text>
<text text-anchor="middle" x="269" y="-559" font-family="Helvetica,sans-Serif" font-size="10.00" fill="#000000">&lt; ValueType &gt;::parameters_type</text>
</a>
</g>
</g>
<!-- Node0&#45;&gt;Node6 -->
<g id="edge6" class="edge">
<title>Node0&#45;&gt;Node6</title>
<path fill="none" stroke="#191970" d="M88.4211,-449.4823C107.0868,-477.6817 138.9022,-519.317 177,-543 182.4674,-546.3987 188.4041,-549.3189 194.5402,-551.8274"/>
<polygon fill="#191970" stroke="#191970" points="91.2007,-447.3352 82.8315,-440.8386 85.3227,-451.1364 91.2007,-447.3352"/>
</g>
<!-- Node7 -->
<g id="node8" class="node">
<title>Node7</title>
<g id="a_node8"><a xlink:href="structgko_1_1solver_1_1Cg_1_1parameters__type.html" target="_top" xlink:title=" ">
<polygon fill="#ffffff" stroke="#000000" points="194,-503 194,-533 344,-533 344,-503 194,-503"/>
<text text-anchor="start" x="202" y="-521" font-family="Helvetica,sans-Serif" font-size="10.00" fill="#000000">gko::solver::Cg&lt; ValueType</text>
<text text-anchor="middle" x="269" y="-510" font-family="Helvetica,sans-Serif" font-size="10.00" fill="#000000"> &gt;::parameters_type</text>
</a>
</g>
</g>
<!-- Node0&#45;&gt;Node7 -->
<g id="edge7" class="edge">
<title>Node0&#45;&gt;Node7</title>
<path fill="none" stroke="#191970" d="M102.7333,-446.8973C122.9638,-462.5961 150.2144,-481.6761 177,-494 184.3479,-497.3807 192.2535,-500.3465 200.234,-502.9324"/>
<polygon fill="#191970" stroke="#191970" points="104.8086,-444.0763 94.7908,-440.6274 100.4713,-449.5707 104.8086,-444.0763"/>
</g>
<!-- Node8 -->
<g id="node9" class="node">
<title>Node8</title>
<g id="a_node9"><a xlink:href="structgko_1_1solver_1_1Cgs_1_1parameters__type.html" target="_top" xlink:title=" ">
<polygon fill="#ffffff" stroke="#000000" points="191.5,-454 191.5,-484 346.5,-484 346.5,-454 191.5,-454"/>
<text text-anchor="start" x="199.5" y="-472" font-family="Helvetica,sans-Serif" font-size="10.00" fill="#000000">gko::solver::Cgs&lt; ValueType</text>
<text text-anchor="middle" x="269" y="-461" font-family="Helvetica,sans-Serif" font-size="10.00" fill="#000000"> &gt;::parameters_type</text>
</a>
</g>
</g>
<!-- Node0&#45;&gt;Node8 -->
<g id="edge8" class="edge">
<title>Node0&#45;&gt;Node8</title>
<path fill="none" stroke="#191970" d="M150.9381,-439.8563C170.0599,-444.5765 190.1487,-449.5354 208.2234,-453.9972"/>
<polygon fill="#191970" stroke="#191970" points="151.59,-436.4122 141.0426,-437.4135 149.9123,-443.2082 151.59,-436.4122"/>
</g>
<!-- Node9 -->
<g id="node10" class="node">
<title>Node9</title>
<g id="a_node10"><a xlink:href="structgko_1_1solver_1_1Fcg_1_1parameters__type.html" target="_top" xlink:title=" ">
<polygon fill="#ffffff" stroke="#000000" points="192,-405 192,-435 346,-435 346,-405 192,-405"/>
<text text-anchor="start" x="200" y="-423" font-family="Helvetica,sans-Serif" font-size="10.00" fill="#000000">gko::solver::Fcg&lt; ValueType</text>
<text text-anchor="middle" x="269" y="-412" font-family="Helvetica,sans-Serif" font-size="10.00" fill="#000000"> &gt;::parameters_type</text>
</a>
</g>
</g>
<!-- Node0&#45;&gt;Node9 -->
<g id="edge9" class="edge">
<title>Node0&#45;&gt;Node9</title>
<path fill="none" stroke="#191970" d="M151.2187,-420C164.6683,-420 178.5887,-420 191.944,-420"/>
<polygon fill="#191970" stroke="#191970" points="151.0426,-416.5001 141.0426,-420 151.0426,-423.5001 151.0426,-416.5001"/>
</g>
<!-- Node10 -->
<g id="node11" class="node">
<title>Node10</title>
<g id="a_node11"><a xlink:href="structgko_1_1solver_1_1Gmres_1_1parameters__type.html" target="_top" xlink:title=" ">
<polygon fill="#ffffff" stroke="#000000" points="180,-356 180,-386 358,-386 358,-356 180,-356"/>
<text text-anchor="start" x="188" y="-374" font-family="Helvetica,sans-Serif" font-size="10.00" fill="#000000">gko::solver::Gmres</text>
<text text-anchor="middle" x="269" y="-363" font-family="Helvetica,sans-Serif" font-size="10.00" fill="#000000">&lt; ValueType &gt;::parameters_type</text>
</a>
</g>
</g>
<!-- Node0&#45;&gt;Node10 -->
<g id="edge10" class="edge">
<title>Node0&#45;&gt;Node10</title>
<path fill="none" stroke="#191970" d="M150.9381,-400.1437C170.0599,-395.4235 190.1487,-390.4646 208.2234,-386.0028"/>
<polygon fill="#191970" stroke="#191970" points="149.9123,-396.7918 141.0426,-402.5865 151.59,-403.5878 149.9123,-396.7918"/>
</g>
<!-- Node11 -->
<g id="node12" class="node">
<title>Node11</title>
<g id="a_node12"><a xlink:href="structgko_1_1solver_1_1Ir_1_1parameters__type.html" target="_top" xlink:title=" ">
<polygon fill="#ffffff" stroke="#000000" points="197,-307 197,-337 341,-337 341,-307 197,-307"/>
<text text-anchor="start" x="205" y="-325" font-family="Helvetica,sans-Serif" font-size="10.00" fill="#000000">gko::solver::Ir&lt; ValueType</text>
<text text-anchor="middle" x="269" y="-314" font-family="Helvetica,sans-Serif" font-size="10.00" fill="#000000"> &gt;::parameters_type</text>
</a>
</g>
</g>
<!-- Node0&#45;&gt;Node11 -->
<g id="edge11" class="edge">
<title>Node0&#45;&gt;Node11</title>
<path fill="none" stroke="#191970" d="M103.243,-393.2715C123.467,-377.8865 150.5338,-359.2378 177,-347 185.1125,-343.2488 193.896,-339.9678 202.7066,-337.1255"/>
<polygon fill="#191970" stroke="#191970" points="101.0624,-390.5333 95.2929,-399.4195 105.3446,-396.0707 101.0624,-390.5333"/>
</g>
<!-- Node12 -->
<g id="node13" class="node">
<title>Node12</title>
<g id="a_node13"><a xlink:href="structgko_1_1solver_1_1LowerTrs_1_1parameters__type.html" target="_top" xlink:title=" ">
<polygon fill="#ffffff" stroke="#000000" points="202.5,-246.5 202.5,-287.5 335.5,-287.5 335.5,-246.5 202.5,-246.5"/>
<text text-anchor="start" x="210.5" y="-275.5" font-family="Helvetica,sans-Serif" font-size="10.00" fill="#000000">gko::solver::LowerTrs</text>
<text text-anchor="start" x="210.5" y="-264.5" font-family="Helvetica,sans-Serif" font-size="10.00" fill="#000000">&lt; ValueType, IndexType</text>
<text text-anchor="middle" x="269" y="-253.5" font-family="Helvetica,sans-Serif" font-size="10.00" fill="#000000"> &gt;::parameters_type</text>
</a>
</g>
</g>
<!-- Node0&#45;&gt;Node12 -->
<g id="edge12" class="edge">
<title>Node0&#45;&gt;Node12</title>
<path fill="none" stroke="#191970" d="M89.1664,-390.8561C108.1896,-363.322 140.0855,-322.6665 177,-298 184.7076,-292.8497 193.3499,-288.4815 202.1695,-284.7971"/>
<polygon fill="#191970" stroke="#191970" points="86.1594,-389.0546 83.4523,-399.2978 91.9563,-392.9785 86.1594,-389.0546"/>
</g>
<!-- Node13 -->
<g id="node14" class="node">
<title>Node13</title>
<g id="a_node14"><a xlink:href="structgko_1_1solver_1_1UpperTrs_1_1parameters__type.html" target="_top" xlink:title=" ">
<polygon fill="#ffffff" stroke="#000000" points="202.5,-186.5 202.5,-227.5 335.5,-227.5 335.5,-186.5 202.5,-186.5"/>
<text text-anchor="start" x="210.5" y="-215.5" font-family="Helvetica,sans-Serif" font-size="10.00" fill="#000000">gko::solver::UpperTrs</text>
<text text-anchor="start" x="210.5" y="-204.5" font-family="Helvetica,sans-Serif" font-size="10.00" fill="#000000">&lt; ValueType, IndexType</text>
<text text-anchor="middle" x="269" y="-193.5" font-family="Helvetica,sans-Serif" font-size="10.00" fill="#000000"> &gt;::parameters_type</text>
</a>
</g>
</g>
<!-- Node0&#45;&gt;Node13 -->
<g id="edge13" class="edge">
<title>Node0&#45;&gt;Node13</title>
<path fill="none" stroke="#191970" d="M80.3215,-389.8385C95.0149,-349.3419 126.5184,-277.779 177,-237 184.4492,-230.9826 193.1421,-226.1575 202.1556,-222.2922"/>
<polygon fill="#191970" stroke="#191970" points="76.9652,-388.8324 76.9467,-399.4272 83.5682,-391.1564 76.9652,-388.8324"/>
</g>
<!-- Node14 -->
<g id="node15" class="node">
<title>Node14</title>
<g id="a_node15"><a xlink:href="structgko_1_1stop_1_1Combined_1_1parameters__type.html" target="_top" xlink:title=" ">
<polygon fill="#ffffff" stroke="#000000" points="210.5,-137 210.5,-167 327.5,-167 327.5,-137 210.5,-137"/>
<text text-anchor="start" x="218.5" y="-155" font-family="Helvetica,sans-Serif" font-size="10.00" fill="#000000">gko::stop::Combined</text>
<text text-anchor="middle" x="269" y="-144" font-family="Helvetica,sans-Serif" font-size="10.00" fill="#000000">::parameters_type</text>
</a>
</g>
</g>
<!-- Node0&#45;&gt;Node14 -->
<g id="edge14" class="edge">
<title>Node0&#45;&gt;Node14</title>
<path fill="none" stroke="#191970" d="M75.2335,-389.2932C84.8427,-337.6218 111.5636,-233.4194 177,-177 186.4015,-168.894 198.1908,-163.3918 210.1618,-159.6635"/>
<polygon fill="#191970" stroke="#191970" points="71.7779,-388.7353 73.484,-399.1919 78.6711,-389.9536 71.7779,-388.7353"/>
</g>
<!-- Node15 -->
<g id="node16" class="node">
<title>Node15</title>
<g id="a_node16"><a xlink:href="structgko_1_1stop_1_1Iteration_1_1parameters__type.html" target="_top" xlink:title=" ">
<polygon fill="#ffffff" stroke="#000000" points="214.5,-88 214.5,-118 323.5,-118 323.5,-88 214.5,-88"/>
<text text-anchor="start" x="222.5" y="-106" font-family="Helvetica,sans-Serif" font-size="10.00" fill="#000000">gko::stop::Iteration</text>
<text text-anchor="middle" x="269" y="-95" font-family="Helvetica,sans-Serif" font-size="10.00" fill="#000000">::parameters_type</text>
</a>
</g>
</g>
<!-- Node0&#45;&gt;Node15 -->
<g id="edge15" class="edge">
<title>Node0&#45;&gt;Node15</title>
<path fill="none" stroke="#191970" d="M72.7004,-388.8802C78.6235,-329.2689 100.1349,-198.6367 177,-128 187.237,-118.5925 200.6613,-112.667 214.079,-108.9513"/>
<polygon fill="#191970" stroke="#191970" points="69.1863,-388.8781 71.7661,-399.154 76.1575,-389.5122 69.1863,-388.8781"/>
</g>
<!-- Node16 -->
<g id="node17" class="node">
<title>Node16</title>
<g id="a_node17"><a xlink:href="structgko_1_1stop_1_1ResidualNormReduction_1_1parameters__type.html" target="_top" xlink:title=" ">
<polygon fill="#ffffff" stroke="#000000" points="177,-39 177,-69 361,-69 361,-39 177,-39"/>
<text text-anchor="start" x="185" y="-57" font-family="Helvetica,sans-Serif" font-size="10.00" fill="#000000">gko::stop::ResidualNormReduction</text>
<text text-anchor="middle" x="269" y="-46" font-family="Helvetica,sans-Serif" font-size="10.00" fill="#000000">&lt; ValueType &gt;::parameters_type</text>
</a>
</g>
</g>
<!-- Node0&#45;&gt;Node16 -->
<g id="edge16" class="edge">
<title>Node0&#45;&gt;Node16</title>
<path fill="none" stroke="#191970" d="M76.175,-389.3681C90.7084,-314.0909 131.3524,-122.9722 177,-79 180.9337,-75.2107 185.382,-71.9829 190.1469,-69.2348"/>
<polygon fill="#191970" stroke="#191970" points="72.7366,-388.715 74.2998,-399.1939 79.6125,-390.0273 72.7366,-388.715"/>
</g>
<!-- Node17 -->
<g id="node18" class="node">
<title>Node17</title>
<g id="a_node18"><a xlink:href="structgko_1_1stop_1_1Time_1_1parameters__type.html" target="_top" xlink:title=" ">
<polygon fill="#ffffff" stroke="#000000" points="178,-.5 178,-19.5 360,-19.5 360,-.5 178,-.5"/>
<text text-anchor="middle" x="269" y="-7.5" font-family="Helvetica,sans-Serif" font-size="10.00" fill="#000000">gko::stop::Time::parameters_type</text>
</a>
</g>
</g>
<!-- Node0&#45;&gt;Node17 -->
<g id="edge17" class="edge">
<title>Node0&#45;&gt;Node17</title>
<path fill="none" stroke="#191970" d="M74.7631,-389.1732C86.8763,-306.0577 124.076,-80.2152 177,-30 181.5058,-25.7248 186.701,-22.2782 192.2817,-19.5083"/>
<polygon fill="#191970" stroke="#191970" points="71.2727,-388.8573 73.3157,-399.2533 78.2016,-389.8523 71.2727,-388.8573"/>
</g>
</g>
</svg>
