<?xml version="1.0" encoding="UTF-8" standalone="no"?>
<!DOCTYPE svg PUBLIC "-//W3C//DTD SVG 1.1//EN"
 "http://www.w3.org/Graphics/SVG/1.1/DTD/svg11.dtd">
<!-- Generated by graphviz version 2.40.1 (20161225.0304)
 -->
<!-- Title: Graphical Class Hierarchy Pages: 1 -->
<svg width="326pt" height="61pt"
 viewBox="0.00 0.00 326.00 61.00" xmlns="http://www.w3.org/2000/svg" xmlns:xlink="http://www.w3.org/1999/xlink">
<g id="graph0" class="graph" transform="scale(1 1) rotate(0) translate(4 57)">
<title>Graphical Class Hierarchy</title>
<polygon fill="#ffffff" stroke="transparent" points="-4,4 -4,-57 322,-57 322,4 -4,4"/>
<!-- Node187 -->
<g id="node1" class="node">
<title>Node187</title>
<polygon fill="#ffffff" stroke="#bfbfbf" points="0,-.5 0,-52.5 157,-52.5 157,-.5 0,-.5"/>
<text text-anchor="start" x="8" y="-40.5" font-family="Helvetica,sans-Serif" font-size="10.00" fill="#000000">gko::detail::implement</text>
<text text-anchor="start" x="8" y="-29.5" font-family="Helvetica,sans-Serif" font-size="10.00" fill="#000000">_unary_operation&lt; Operand,</text>
<text text-anchor="start" x="8" y="-18.5" font-family="Helvetica,sans-Serif" font-size="10.00" fill="#000000"> ::gko::accessor::detail</text>
<text text-anchor="middle" x="78.5" y="-7.5" font-family="Helvetica,sans-Serif" font-size="10.00" fill="#000000">::bitwise_not &gt;</text>
</g>
<!-- Node0 -->
<g id="node2" class="node">
<title>Node0</title>
<g id="a_node2"><a xlink:href="structgko_1_1accessor_1_1bitwise__not.html" target="_top" xlink:title="gko::accessor::bitwise\l_not\&lt; Operand \&gt;">
<polygon fill="#ffffff" stroke="#000000" points="193,-11.5 193,-41.5 318,-41.5 318,-11.5 193,-11.5"/>
<text text-anchor="start" x="201" y="-29.5" font-family="Helvetica,sans-Serif" font-size="10.00" fill="#000000">gko::accessor::bitwise</text>
<text text-anchor="middle" x="255.5" y="-18.5" font-family="Helvetica,sans-Serif" font-size="10.00" fill="#000000">_not&lt; Operand &gt;</text>
</a>
</g>
</g>
<!-- Node187&#45;&gt;Node0 -->
<g id="edge1" class="edge">
<title>Node187&#45;&gt;Node0</title>
<path fill="none" stroke="#191970" d="M167.2525,-26.5C175.8605,-26.5 184.4653,-26.5 192.7412,-26.5"/>
<polygon fill="#191970" stroke="#191970" points="167.1656,-23.0001 157.1656,-26.5 167.1655,-30.0001 167.1656,-23.0001"/>
</g>
</g>
</svg>
