<?xml version="1.0" encoding="UTF-8" standalone="no"?>
<!DOCTYPE svg PUBLIC "-//W3C//DTD SVG 1.1//EN"
 "http://www.w3.org/Graphics/SVG/1.1/DTD/svg11.dtd">
<!-- Generated by graphviz version 2.40.1 (20161225.0304)
 -->
<!-- Title: Graphical Class Hierarchy Pages: 1 -->
<svg width="268pt" height="144pt"
 viewBox="0.00 0.00 268.00 143.50" xmlns="http://www.w3.org/2000/svg" xmlns:xlink="http://www.w3.org/1999/xlink">
<g id="graph0" class="graph" transform="scale(1 1) rotate(0) translate(4 139.5)">
<title>Graphical Class Hierarchy</title>
<polygon fill="#ffffff" stroke="transparent" points="-4,4 -4,-139.5 264,-139.5 264,4 -4,4"/>
<!-- Node21 -->
<g id="node1" class="node">
<title>Node21</title>
<g id="a_node1"><a xlink:title=" ">
<polygon fill="#ffffff" stroke="#bfbfbf" points="0,-71.5 0,-90.5 63,-90.5 63,-71.5 0,-71.5"/>
<text text-anchor="middle" x="31.5" y="-78.5" font-family="Helvetica,sans-Serif" font-size="10.00" fill="#000000">true_type</text>
</a>
</g>
</g>
<!-- Node0 -->
<g id="node2" class="node">
<title>Node0</title>
<g id="a_node2"><a xlink:href="structgko_1_1are__all__integral.html" target="_top" xlink:title="Evaluates if all template arguments Args fulfill std::is_integral.">
<polygon fill="#ffffff" stroke="#000000" points="121.5,-105 121.5,-135 237.5,-135 237.5,-105 121.5,-105"/>
<text text-anchor="start" x="129.5" y="-123" font-family="Helvetica,sans-Serif" font-size="10.00" fill="#000000">gko::are_all_integral</text>
<text text-anchor="middle" x="179.5" y="-112" font-family="Helvetica,sans-Serif" font-size="10.00" fill="#000000">&lt; Args &gt;</text>
</a>
</g>
</g>
<!-- Node21&#45;&gt;Node0 -->
<g id="edge1" class="edge">
<title>Node21&#45;&gt;Node0</title>
<path fill="none" stroke="#191970" d="M72.9531,-91.9235C88.2852,-95.9637 105.9452,-100.6173 122.4224,-104.9593"/>
<polygon fill="#191970" stroke="#191970" points="73.8115,-88.5302 63.2497,-89.3665 72.0277,-95.2992 73.8115,-88.5302"/>
</g>
<!-- Node23 -->
<g id="node3" class="node">
<title>Node23</title>
<g id="a_node3"><a xlink:href="structgko_1_1solver_1_1has__with__criteria_3_01SolverType_00_01xstd_1_1void__t_3_01decltype_07Sof67c73d1a2e78f628608606c7b5ff68b.html" target="_top" xlink:title="Helper structure to test if the Factory of SolverType has a function with_criteria.">
<polygon fill="#ffffff" stroke="#000000" points="99,-.5 99,-85.5 260,-85.5 260,-.5 99,-.5"/>
<text text-anchor="start" x="107" y="-73.5" font-family="Helvetica,sans-Serif" font-size="10.00" fill="#000000">gko::solver::has_with</text>
<text text-anchor="start" x="107" y="-62.5" font-family="Helvetica,sans-Serif" font-size="10.00" fill="#000000">_criteria&lt; SolverType,</text>
<text text-anchor="start" x="107" y="-51.5" font-family="Helvetica,sans-Serif" font-size="10.00" fill="#000000"> xstd::void_t&lt; decltype</text>
<text text-anchor="start" x="107" y="-40.5" font-family="Helvetica,sans-Serif" font-size="10.00" fill="#000000">(SolverType::build().with</text>
<text text-anchor="start" x="107" y="-29.5" font-family="Helvetica,sans-Serif" font-size="10.00" fill="#000000">_criteria(std::shared_ptr</text>
<text text-anchor="start" x="107" y="-18.5" font-family="Helvetica,sans-Serif" font-size="10.00" fill="#000000">&lt; const stop::CriterionFactory</text>
<text text-anchor="middle" x="179.5" y="-7.5" font-family="Helvetica,sans-Serif" font-size="10.00" fill="#000000"> &gt;()))&gt; &gt;</text>
</a>
</g>
</g>
<!-- Node21&#45;&gt;Node23 -->
<g id="edge2" class="edge">
<title>Node21&#45;&gt;Node23</title>
<path fill="none" stroke="#191970" d="M73.128,-70.3117C81.2296,-68.2316 89.9759,-65.9859 98.8508,-63.7072"/>
<polygon fill="#191970" stroke="#191970" points="72.0651,-66.971 63.2497,-72.848 73.806,-73.7511 72.0651,-66.971"/>
</g>
</g>
</svg>
