<?xml version="1.0" encoding="UTF-8" standalone="no"?>
<!DOCTYPE svg PUBLIC "-//W3C//DTD SVG 1.1//EN"
 "http://www.w3.org/Graphics/SVG/1.1/DTD/svg11.dtd">
<!-- Generated by graphviz version 2.40.1 (20161225.0304)
 -->
<!-- Title: Graphical Class Hierarchy Pages: 1 -->
<svg width="369pt" height="783pt"
 viewBox="0.00 0.00 369.00 783.00" xmlns="http://www.w3.org/2000/svg" xmlns:xlink="http://www.w3.org/1999/xlink">
<g id="graph0" class="graph" transform="scale(1 1) rotate(0) translate(4 779)">
<title>Graphical Class Hierarchy</title>
<polygon fill="#ffffff" stroke="transparent" points="-4,4 -4,-779 365,-779 365,4 -4,4"/>
<!-- Node0 -->
<g id="node1" class="node">
<title>Node0</title>
<g id="a_node1"><a xlink:href="structgko_1_1enable__parameters__type.html" target="_top" xlink:title="gko::enable_parameters\l_type\&lt; parameters_type,\l Factory \&gt;">
<polygon fill="#ffffff" stroke="#000000" points="0,-350.5 0,-391.5 141,-391.5 141,-350.5 0,-350.5"/>
<text text-anchor="start" x="8" y="-379.5" font-family="Helvetica,sans-Serif" font-size="10.00" fill="#000000">gko::enable_parameters</text>
<text text-anchor="start" x="8" y="-368.5" font-family="Helvetica,sans-Serif" font-size="10.00" fill="#000000">_type&lt; parameters_type,</text>
<text text-anchor="middle" x="70.5" y="-357.5" font-family="Helvetica,sans-Serif" font-size="10.00" fill="#000000"> Factory &gt;</text>
</a>
</g>
</g>
<!-- Node1 -->
<g id="node2" class="node">
<title>Node1</title>
<g id="a_node2"><a xlink:href="structgko_1_1factorization_1_1ParIlu_1_1parameters__type.html" target="_top" xlink:title="gko::factorization\l::ParIlu\&lt; ValueType,\l IndexType \&gt;::parameters_type">
<polygon fill="#ffffff" stroke="#000000" points="184,-733.5 184,-774.5 354,-774.5 354,-733.5 184,-733.5"/>
<text text-anchor="start" x="192" y="-762.5" font-family="Helvetica,sans-Serif" font-size="10.00" fill="#000000">gko::factorization</text>
<text text-anchor="start" x="192" y="-751.5" font-family="Helvetica,sans-Serif" font-size="10.00" fill="#000000">::ParIlu&lt; ValueType,</text>
<text text-anchor="middle" x="269" y="-740.5" font-family="Helvetica,sans-Serif" font-size="10.00" fill="#000000"> IndexType &gt;::parameters_type</text>
</a>
</g>
</g>
<!-- Node0&#45;&gt;Node1 -->
<g id="edge1" class="edge">
<title>Node0&#45;&gt;Node1</title>
<path fill="none" stroke="#191970" d="M76.0624,-402.0159C90.4812,-479.211 131.1525,-677.1232 177,-724 180.4066,-727.483 184.2219,-730.5619 188.3098,-733.2835"/>
<polygon fill="#191970" stroke="#191970" points="79.462,-401.151 74.2043,-391.9528 72.5784,-402.4221 79.462,-401.151"/>
</g>
<!-- Node2 -->
<g id="node3" class="node">
<title>Node2</title>
<g id="a_node3"><a xlink:href="structgko_1_1preconditioner_1_1Ilu_1_1parameters__type.html" target="_top" xlink:title="gko::preconditioner\l::Ilu\&lt; LSolverType,\l USolverType, ReverseApply\l \&gt;::parameters_type">
<polygon fill="#ffffff" stroke="#000000" points="192.5,-662 192.5,-714 345.5,-714 345.5,-662 192.5,-662"/>
<text text-anchor="start" x="200.5" y="-702" font-family="Helvetica,sans-Serif" font-size="10.00" fill="#000000">gko::preconditioner</text>
<text text-anchor="start" x="200.5" y="-691" font-family="Helvetica,sans-Serif" font-size="10.00" fill="#000000">::Ilu&lt; LSolverType,</text>
<text text-anchor="start" x="200.5" y="-680" font-family="Helvetica,sans-Serif" font-size="10.00" fill="#000000"> USolverType, ReverseApply</text>
<text text-anchor="middle" x="269" y="-669" font-family="Helvetica,sans-Serif" font-size="10.00" fill="#000000"> &gt;::parameters_type</text>
</a>
</g>
</g>
<!-- Node0&#45;&gt;Node2 -->
<g id="edge2" class="edge">
<title>Node0&#45;&gt;Node2</title>
<path fill="none" stroke="#191970" d="M73.9751,-401.8673C81.9596,-458.7818 106.6797,-580.9223 177,-652 181.5839,-656.6332 186.834,-660.6842 192.4516,-664.2237"/>
<polygon fill="#191970" stroke="#191970" points="77.4125,-401.1621 72.6322,-391.707 70.4728,-402.0794 77.4125,-401.1621"/>
</g>
<!-- Node3 -->
<g id="node4" class="node">
<title>Node3</title>
<g id="a_node4"><a xlink:href="structgko_1_1preconditioner_1_1Jacobi_1_1parameters__type.html" target="_top" xlink:title="gko::preconditioner\l::Jacobi\&lt; ValueType,\l IndexType \&gt;::parameters_type">
<polygon fill="#ffffff" stroke="#000000" points="184,-601.5 184,-642.5 354,-642.5 354,-601.5 184,-601.5"/>
<text text-anchor="start" x="192" y="-630.5" font-family="Helvetica,sans-Serif" font-size="10.00" fill="#000000">gko::preconditioner</text>
<text text-anchor="start" x="192" y="-619.5" font-family="Helvetica,sans-Serif" font-size="10.00" fill="#000000">::Jacobi&lt; ValueType,</text>
<text text-anchor="middle" x="269" y="-608.5" font-family="Helvetica,sans-Serif" font-size="10.00" fill="#000000"> IndexType &gt;::parameters_type</text>
</a>
</g>
</g>
<!-- Node0&#45;&gt;Node3 -->
<g id="edge3" class="edge">
<title>Node0&#45;&gt;Node3</title>
<path fill="none" stroke="#191970" d="M77.1087,-401.6696C88.9198,-449.1999 118.1284,-540.5244 177,-592 181.0471,-595.5387 185.5199,-598.6614 190.2488,-601.4169"/>
<polygon fill="#191970" stroke="#191970" points="80.4487,-400.587 74.7222,-391.6731 73.6401,-402.2126 80.4487,-400.587"/>
</g>
<!-- Node4 -->
<g id="node5" class="node">
<title>Node4</title>
<g id="a_node5"><a xlink:href="structgko_1_1solver_1_1Bicgstab_1_1parameters__type.html" target="_top" xlink:title="gko::solver::Bicgstab\l\&lt; ValueType \&gt;::parameters_type">
<polygon fill="#ffffff" stroke="#000000" points="180,-552 180,-582 358,-582 358,-552 180,-552"/>
<text text-anchor="start" x="188" y="-570" font-family="Helvetica,sans-Serif" font-size="10.00" fill="#000000">gko::solver::Bicgstab</text>
<text text-anchor="middle" x="269" y="-559" font-family="Helvetica,sans-Serif" font-size="10.00" fill="#000000">&lt; ValueType &gt;::parameters_type</text>
</a>
</g>
</g>
<!-- Node0&#45;&gt;Node4 -->
<g id="edge4" class="edge">
<title>Node0&#45;&gt;Node4</title>
<path fill="none" stroke="#191970" d="M81.0379,-401.1899C96.1494,-439.9764 127.7118,-506.6246 177,-543 181.6485,-546.4307 186.7456,-549.3718 192.0817,-551.8933"/>
<polygon fill="#191970" stroke="#191970" points="84.1864,-399.6201 77.3799,-391.5008 77.6376,-402.0925 84.1864,-399.6201"/>
</g>
<!-- Node5 -->
<g id="node6" class="node">
<title>Node5</title>
<g id="a_node6"><a xlink:href="structgko_1_1solver_1_1Cg_1_1parameters__type.html" target="_top" xlink:title="gko::solver::Cg\&lt; ValueType\l \&gt;::parameters_type">
<polygon fill="#ffffff" stroke="#000000" points="194,-503 194,-533 344,-533 344,-503 194,-503"/>
<text text-anchor="start" x="202" y="-521" font-family="Helvetica,sans-Serif" font-size="10.00" fill="#000000">gko::solver::Cg&lt; ValueType</text>
<text text-anchor="middle" x="269" y="-510" font-family="Helvetica,sans-Serif" font-size="10.00" fill="#000000"> &gt;::parameters_type</text>
</a>
</g>
</g>
<!-- Node0&#45;&gt;Node5 -->
<g id="edge5" class="edge">
<title>Node0&#45;&gt;Node5</title>
<path fill="none" stroke="#191970" d="M88.4211,-400.4823C107.0868,-428.6817 138.9022,-470.317 177,-494 182.4674,-497.3987 188.4041,-500.3189 194.5402,-502.8274"/>
<polygon fill="#191970" stroke="#191970" points="91.2007,-398.3352 82.8315,-391.8386 85.3227,-402.1364 91.2007,-398.3352"/>
</g>
<!-- Node6 -->
<g id="node7" class="node">
<title>Node6</title>
<g id="a_node7"><a xlink:href="structgko_1_1solver_1_1Cgs_1_1parameters__type.html" target="_top" xlink:title="gko::solver::Cgs\&lt; ValueType\l \&gt;::parameters_type">
<polygon fill="#ffffff" stroke="#000000" points="191.5,-454 191.5,-484 346.5,-484 346.5,-454 191.5,-454"/>
<text text-anchor="start" x="199.5" y="-472" font-family="Helvetica,sans-Serif" font-size="10.00" fill="#000000">gko::solver::Cgs&lt; ValueType</text>
<text text-anchor="middle" x="269" y="-461" font-family="Helvetica,sans-Serif" font-size="10.00" fill="#000000"> &gt;::parameters_type</text>
</a>
</g>
</g>
<!-- Node0&#45;&gt;Node6 -->
<g id="edge6" class="edge">
<title>Node0&#45;&gt;Node6</title>
<path fill="none" stroke="#191970" d="M102.7333,-397.8973C122.9638,-413.5961 150.2144,-432.6761 177,-445 184.3479,-448.3807 192.2535,-451.3465 200.234,-453.9324"/>
<polygon fill="#191970" stroke="#191970" points="104.8086,-395.0763 94.7908,-391.6274 100.4713,-400.5707 104.8086,-395.0763"/>
</g>
<!-- Node7 -->
<g id="node8" class="node">
<title>Node7</title>
<g id="a_node8"><a xlink:href="structgko_1_1solver_1_1Fcg_1_1parameters__type.html" target="_top" xlink:title="gko::solver::Fcg\&lt; ValueType\l \&gt;::parameters_type">
<polygon fill="#ffffff" stroke="#000000" points="192,-405 192,-435 346,-435 346,-405 192,-405"/>
<text text-anchor="start" x="200" y="-423" font-family="Helvetica,sans-Serif" font-size="10.00" fill="#000000">gko::solver::Fcg&lt; ValueType</text>
<text text-anchor="middle" x="269" y="-412" font-family="Helvetica,sans-Serif" font-size="10.00" fill="#000000"> &gt;::parameters_type</text>
</a>
</g>
</g>
<!-- Node0&#45;&gt;Node7 -->
<g id="edge7" class="edge">
<title>Node0&#45;&gt;Node7</title>
<path fill="none" stroke="#191970" d="M150.9381,-390.8563C170.0599,-395.5765 190.1487,-400.5354 208.2234,-404.9972"/>
<polygon fill="#191970" stroke="#191970" points="151.59,-387.4122 141.0426,-388.4135 149.9123,-394.2082 151.59,-387.4122"/>
</g>
<!-- Node8 -->
<g id="node9" class="node">
<title>Node8</title>
<g id="a_node9"><a xlink:href="structgko_1_1solver_1_1Gmres_1_1parameters__type.html" target="_top" xlink:title="gko::solver::Gmres\l\&lt; ValueType \&gt;::parameters_type">
<polygon fill="#ffffff" stroke="#000000" points="180,-356 180,-386 358,-386 358,-356 180,-356"/>
<text text-anchor="start" x="188" y="-374" font-family="Helvetica,sans-Serif" font-size="10.00" fill="#000000">gko::solver::Gmres</text>
<text text-anchor="middle" x="269" y="-363" font-family="Helvetica,sans-Serif" font-size="10.00" fill="#000000">&lt; ValueType &gt;::parameters_type</text>
</a>
</g>
</g>
<!-- Node0&#45;&gt;Node8 -->
<g id="edge8" class="edge">
<title>Node0&#45;&gt;Node8</title>
<path fill="none" stroke="#191970" d="M151.2026,-371C160.6659,-371 170.3625,-371 179.9315,-371"/>
<polygon fill="#191970" stroke="#191970" points="151.0426,-367.5001 141.0426,-371 151.0426,-374.5001 151.0426,-367.5001"/>
</g>
<!-- Node9 -->
<g id="node10" class="node">
<title>Node9</title>
<g id="a_node10"><a xlink:href="structgko_1_1solver_1_1Ir_1_1parameters__type.html" target="_top" xlink:title="gko::solver::Ir\&lt; ValueType\l \&gt;::parameters_type">
<polygon fill="#ffffff" stroke="#000000" points="197,-307 197,-337 341,-337 341,-307 197,-307"/>
<text text-anchor="start" x="205" y="-325" font-family="Helvetica,sans-Serif" font-size="10.00" fill="#000000">gko::solver::Ir&lt; ValueType</text>
<text text-anchor="middle" x="269" y="-314" font-family="Helvetica,sans-Serif" font-size="10.00" fill="#000000"> &gt;::parameters_type</text>
</a>
</g>
</g>
<!-- Node0&#45;&gt;Node9 -->
<g id="edge9" class="edge">
<title>Node0&#45;&gt;Node9</title>
<path fill="none" stroke="#191970" d="M150.9381,-351.1437C170.0599,-346.4235 190.1487,-341.4646 208.2234,-337.0028"/>
<polygon fill="#191970" stroke="#191970" points="149.9123,-347.7918 141.0426,-353.5865 151.59,-354.5878 149.9123,-347.7918"/>
</g>
<!-- Node10 -->
<g id="node11" class="node">
<title>Node10</title>
<g id="a_node11"><a xlink:href="structgko_1_1solver_1_1LowerTrs_1_1parameters__type.html" target="_top" xlink:title="gko::solver::LowerTrs\l\&lt; ValueType, IndexType\l \&gt;::parameters_type">
<polygon fill="#ffffff" stroke="#000000" points="202.5,-246.5 202.5,-287.5 335.5,-287.5 335.5,-246.5 202.5,-246.5"/>
<text text-anchor="start" x="210.5" y="-275.5" font-family="Helvetica,sans-Serif" font-size="10.00" fill="#000000">gko::solver::LowerTrs</text>
<text text-anchor="start" x="210.5" y="-264.5" font-family="Helvetica,sans-Serif" font-size="10.00" fill="#000000">&lt; ValueType, IndexType</text>
<text text-anchor="middle" x="269" y="-253.5" font-family="Helvetica,sans-Serif" font-size="10.00" fill="#000000"> &gt;::parameters_type</text>
</a>
</g>
</g>
<!-- Node0&#45;&gt;Node10 -->
<g id="edge10" class="edge">
<title>Node0&#45;&gt;Node10</title>
<path fill="none" stroke="#191970" d="M104.6141,-344.0222C124.8065,-328.9926 151.3777,-310.7888 177,-298 184.9926,-294.0106 193.6191,-290.3444 202.2744,-287.0385"/>
<polygon fill="#191970" stroke="#191970" points="102.2446,-341.4256 96.3721,-350.2441 106.4621,-347.0125 102.2446,-341.4256"/>
</g>
<!-- Node11 -->
<g id="node12" class="node">
<title>Node11</title>
<g id="a_node12"><a xlink:href="structgko_1_1solver_1_1UpperTrs_1_1parameters__type.html" target="_top" xlink:title="gko::solver::UpperTrs\l\&lt; ValueType, IndexType\l \&gt;::parameters_type">
<polygon fill="#ffffff" stroke="#000000" points="202.5,-186.5 202.5,-227.5 335.5,-227.5 335.5,-186.5 202.5,-186.5"/>
<text text-anchor="start" x="210.5" y="-215.5" font-family="Helvetica,sans-Serif" font-size="10.00" fill="#000000">gko::solver::UpperTrs</text>
<text text-anchor="start" x="210.5" y="-204.5" font-family="Helvetica,sans-Serif" font-size="10.00" fill="#000000">&lt; ValueType, IndexType</text>
<text text-anchor="middle" x="269" y="-193.5" font-family="Helvetica,sans-Serif" font-size="10.00" fill="#000000"> &gt;::parameters_type</text>
</a>
</g>
</g>
<!-- Node0&#45;&gt;Node11 -->
<g id="edge11" class="edge">
<title>Node0&#45;&gt;Node11</title>
<path fill="none" stroke="#191970" d="M86.9672,-341.301C105.2318,-310.9583 137.4119,-264.5061 177,-237 184.7261,-231.6318 193.4744,-227.1767 202.428,-223.492"/>
<polygon fill="#191970" stroke="#191970" points="83.8083,-339.7681 81.7529,-350.1616 89.8412,-343.3184 83.8083,-339.7681"/>
</g>
<!-- Node12 -->
<g id="node13" class="node">
<title>Node12</title>
<g id="a_node13"><a xlink:href="structgko_1_1stop_1_1Combined_1_1parameters__type.html" target="_top" xlink:title="gko::stop::Combined\l::parameters_type">
<polygon fill="#ffffff" stroke="#000000" points="210.5,-137 210.5,-167 327.5,-167 327.5,-137 210.5,-137"/>
<text text-anchor="start" x="218.5" y="-155" font-family="Helvetica,sans-Serif" font-size="10.00" fill="#000000">gko::stop::Combined</text>
<text text-anchor="middle" x="269" y="-144" font-family="Helvetica,sans-Serif" font-size="10.00" fill="#000000">::parameters_type</text>
</a>
</g>
</g>
<!-- Node0&#45;&gt;Node12 -->
<g id="edge12" class="edge">
<title>Node0&#45;&gt;Node12</title>
<path fill="none" stroke="#191970" d="M78.8084,-340.8854C92.2217,-297.9676 122.7846,-219.6916 177,-177 186.6228,-169.4226 198.3696,-164.1369 210.2086,-160.4513"/>
<polygon fill="#191970" stroke="#191970" points="75.4486,-339.9043 75.9097,-350.4891 82.15,-341.927 75.4486,-339.9043"/>
</g>
<!-- Node13 -->
<g id="node14" class="node">
<title>Node13</title>
<g id="a_node14"><a xlink:href="structgko_1_1stop_1_1Iteration_1_1parameters__type.html" target="_top" xlink:title="gko::stop::Iteration\l::parameters_type">
<polygon fill="#ffffff" stroke="#000000" points="214.5,-88 214.5,-118 323.5,-118 323.5,-88 214.5,-88"/>
<text text-anchor="start" x="222.5" y="-106" font-family="Helvetica,sans-Serif" font-size="10.00" fill="#000000">gko::stop::Iteration</text>
<text text-anchor="middle" x="269" y="-95" font-family="Helvetica,sans-Serif" font-size="10.00" fill="#000000">::parameters_type</text>
</a>
</g>
</g>
<!-- Node0&#45;&gt;Node13 -->
<g id="edge13" class="edge">
<title>Node0&#45;&gt;Node13</title>
<path fill="none" stroke="#191970" d="M75.2335,-340.2932C84.8427,-288.6218 111.5636,-184.4194 177,-128 187.5297,-118.9212 201.0546,-113.1088 214.4754,-109.3966"/>
<polygon fill="#191970" stroke="#191970" points="71.7779,-339.7353 73.484,-350.1919 78.6711,-340.9536 71.7779,-339.7353"/>
</g>
<!-- Node14 -->
<g id="node15" class="node">
<title>Node14</title>
<g id="a_node15"><a xlink:href="structgko_1_1stop_1_1ResidualNormReduction_1_1parameters__type.html" target="_top" xlink:title="gko::stop::ResidualNormReduction\l\&lt; ValueType \&gt;::parameters_type">
<polygon fill="#ffffff" stroke="#000000" points="177,-39 177,-69 361,-69 361,-39 177,-39"/>
<text text-anchor="start" x="185" y="-57" font-family="Helvetica,sans-Serif" font-size="10.00" fill="#000000">gko::stop::ResidualNormReduction</text>
<text text-anchor="middle" x="269" y="-46" font-family="Helvetica,sans-Serif" font-size="10.00" fill="#000000">&lt; ValueType &gt;::parameters_type</text>
</a>
</g>
</g>
<!-- Node0&#45;&gt;Node14 -->
<g id="edge14" class="edge">
<title>Node0&#45;&gt;Node14</title>
<path fill="none" stroke="#191970" d="M72.7004,-339.8802C78.6235,-280.2689 100.1349,-149.6367 177,-79 181.1436,-75.1922 185.8093,-71.9548 190.7854,-69.2036"/>
<polygon fill="#191970" stroke="#191970" points="69.1863,-339.8781 71.7661,-350.154 76.1575,-340.5122 69.1863,-339.8781"/>
</g>
<!-- Node15 -->
<g id="node16" class="node">
<title>Node15</title>
<g id="a_node16"><a xlink:href="structgko_1_1stop_1_1Time_1_1parameters__type.html" target="_top" xlink:title="gko::stop::Time::parameters_type">
<polygon fill="#ffffff" stroke="#000000" points="178,-.5 178,-19.5 360,-19.5 360,-.5 178,-.5"/>
<text text-anchor="middle" x="269" y="-7.5" font-family="Helvetica,sans-Serif" font-size="10.00" fill="#000000">gko::stop::Time::parameters_type</text>
</a>
</g>
</g>
<!-- Node0&#45;&gt;Node15 -->
<g id="edge15" class="edge">
<title>Node0&#45;&gt;Node15</title>
<path fill="none" stroke="#191970" d="M76.0394,-340.2237C90.2599,-264.6133 130.2402,-72.7877 177,-30 181.5823,-25.807 186.8313,-22.418 192.4482,-19.6869"/>
<polygon fill="#191970" stroke="#191970" points="72.5913,-339.6226 74.2058,-350.0937 79.4735,-340.9012 72.5913,-339.6226"/>
</g>
</g>
</svg>
