<?xml version="1.0" encoding="UTF-8" standalone="no"?>
<!DOCTYPE svg PUBLIC "-//W3C//DTD SVG 1.1//EN"
 "http://www.w3.org/Graphics/SVG/1.1/DTD/svg11.dtd">
<!-- Generated by graphviz version 2.40.1 (20161225.0304)
 -->
<!-- Title: Graphical Class Hierarchy Pages: 1 -->
<svg width="390pt" height="1459pt"
 viewBox="0.00 0.00 390.00 1459.00" xmlns="http://www.w3.org/2000/svg" xmlns:xlink="http://www.w3.org/1999/xlink">
<g id="graph0" class="graph" transform="scale(1 1) rotate(0) translate(4 1455)">
<title>Graphical Class Hierarchy</title>
<polygon fill="#ffffff" stroke="transparent" points="-4,4 -4,-1455 386,-1455 386,4 -4,4"/>
<!-- Node0 -->
<g id="node1" class="node">
<title>Node0</title>
<g id="a_node1"><a xlink:href="classgko_1_1enable__parameters__type.html" target="_top" xlink:title=" ">
<polygon fill="#ffffff" stroke="#000000" points="0,-644.5 0,-685.5 141,-685.5 141,-644.5 0,-644.5"/>
<text text-anchor="start" x="8" y="-673.5" font-family="Helvetica,sans-Serif" font-size="10.00" fill="#000000">gko::enable_parameters</text>
<text text-anchor="start" x="8" y="-662.5" font-family="Helvetica,sans-Serif" font-size="10.00" fill="#000000">_type&lt; parameters_type,</text>
<text text-anchor="middle" x="70.5" y="-651.5" font-family="Helvetica,sans-Serif" font-size="10.00" fill="#000000"> Factory &gt;</text>
</a>
</g>
</g>
<!-- Node1 -->
<g id="node2" class="node">
<title>Node1</title>
<g id="a_node2"><a xlink:href="structgko_1_1factorization_1_1Ic_1_1parameters__type.html" target="_top" xlink:title=" ">
<polygon fill="#ffffff" stroke="#000000" points="206,-1409.5 206,-1450.5 353,-1450.5 353,-1409.5 206,-1409.5"/>
<text text-anchor="start" x="214" y="-1438.5" font-family="Helvetica,sans-Serif" font-size="10.00" fill="#000000">gko::factorization</text>
<text text-anchor="start" x="214" y="-1427.5" font-family="Helvetica,sans-Serif" font-size="10.00" fill="#000000">::Ic&lt; ValueType, IndexType</text>
<text text-anchor="middle" x="279.5" y="-1416.5" font-family="Helvetica,sans-Serif" font-size="10.00" fill="#000000"> &gt;::parameters_type</text>
</a>
</g>
</g>
<!-- Node0&#45;&gt;Node1 -->
<g id="edge1" class="edge">
<title>Node0&#45;&gt;Node1</title>
<path fill="none" stroke="#191970" d="M73.0063,-695.8186C84.0452,-828.3712 129.8777,-1345.7258 177,-1400 184.719,-1408.8906 194.9153,-1415.2164 205.8848,-1419.7029"/>
<polygon fill="#191970" stroke="#191970" points="76.4712,-695.248 72.1586,-685.5706 69.495,-695.8252 76.4712,-695.248"/>
</g>
<!-- Node2 -->
<g id="node3" class="node">
<title>Node2</title>
<g id="a_node3"><a xlink:href="structgko_1_1factorization_1_1Ilu_1_1parameters__type.html" target="_top" xlink:title=" ">
<polygon fill="#ffffff" stroke="#000000" points="204,-1349.5 204,-1390.5 355,-1390.5 355,-1349.5 204,-1349.5"/>
<text text-anchor="start" x="212" y="-1378.5" font-family="Helvetica,sans-Serif" font-size="10.00" fill="#000000">gko::factorization</text>
<text text-anchor="start" x="212" y="-1367.5" font-family="Helvetica,sans-Serif" font-size="10.00" fill="#000000">::Ilu&lt; ValueType, IndexType</text>
<text text-anchor="middle" x="279.5" y="-1356.5" font-family="Helvetica,sans-Serif" font-size="10.00" fill="#000000"> &gt;::parameters_type</text>
</a>
</g>
</g>
<!-- Node0&#45;&gt;Node2 -->
<g id="edge2" class="edge">
<title>Node0&#45;&gt;Node2</title>
<path fill="none" stroke="#191970" d="M71.1281,-696.0559C74.1646,-815.3206 90.9643,-1242.1576 177,-1340 184.2851,-1348.2848 193.7208,-1354.3391 203.9139,-1358.7522"/>
<polygon fill="#191970" stroke="#191970" points="74.6211,-695.7179 70.8823,-685.8047 67.6231,-695.8858 74.6211,-695.7179"/>
</g>
<!-- Node3 -->
<g id="node4" class="node">
<title>Node3</title>
<g id="a_node4"><a xlink:href="structgko_1_1factorization_1_1ParIc_1_1parameters__type.html" target="_top" xlink:title=" ">
<polygon fill="#ffffff" stroke="#000000" points="194.5,-1289.5 194.5,-1330.5 364.5,-1330.5 364.5,-1289.5 194.5,-1289.5"/>
<text text-anchor="start" x="202.5" y="-1318.5" font-family="Helvetica,sans-Serif" font-size="10.00" fill="#000000">gko::factorization</text>
<text text-anchor="start" x="202.5" y="-1307.5" font-family="Helvetica,sans-Serif" font-size="10.00" fill="#000000">::ParIc&lt; ValueType,</text>
<text text-anchor="middle" x="279.5" y="-1296.5" font-family="Helvetica,sans-Serif" font-size="10.00" fill="#000000"> IndexType &gt;::parameters_type</text>
</a>
</g>
</g>
<!-- Node0&#45;&gt;Node3 -->
<g id="edge3" class="edge">
<title>Node0&#45;&gt;Node3</title>
<path fill="none" stroke="#191970" d="M71.6444,-695.819C76.4211,-807.9012 98.3462,-1191.8924 177,-1280 181.9391,-1285.5328 187.8372,-1290.069 194.274,-1293.785"/>
<polygon fill="#191970" stroke="#191970" points="75.1301,-695.3956 71.2228,-685.5476 68.136,-695.6827 75.1301,-695.3956"/>
</g>
<!-- Node4 -->
<g id="node5" class="node">
<title>Node4</title>
<g id="a_node5"><a xlink:href="structgko_1_1factorization_1_1ParIct_1_1parameters__type.html" target="_top" xlink:title=" ">
<polygon fill="#ffffff" stroke="#000000" points="194.5,-1229.5 194.5,-1270.5 364.5,-1270.5 364.5,-1229.5 194.5,-1229.5"/>
<text text-anchor="start" x="202.5" y="-1258.5" font-family="Helvetica,sans-Serif" font-size="10.00" fill="#000000">gko::factorization</text>
<text text-anchor="start" x="202.5" y="-1247.5" font-family="Helvetica,sans-Serif" font-size="10.00" fill="#000000">::ParIct&lt; ValueType,</text>
<text text-anchor="middle" x="279.5" y="-1236.5" font-family="Helvetica,sans-Serif" font-size="10.00" fill="#000000"> IndexType &gt;::parameters_type</text>
</a>
</g>
</g>
<!-- Node0&#45;&gt;Node4 -->
<g id="edge4" class="edge">
<title>Node0&#45;&gt;Node4</title>
<path fill="none" stroke="#191970" d="M72.2801,-695.8753C78.9413,-800.826 105.7679,-1141.6465 177,-1220 181.9891,-1225.4878 187.9215,-1229.9931 194.3806,-1233.689"/>
<polygon fill="#191970" stroke="#191970" points="75.7578,-695.4062 71.6475,-685.6412 68.7712,-695.8381 75.7578,-695.4062"/>
</g>
<!-- Node5 -->
<g id="node6" class="node">
<title>Node5</title>
<g id="a_node6"><a xlink:href="structgko_1_1factorization_1_1ParIlu_1_1parameters__type.html" target="_top" xlink:title=" ">
<polygon fill="#ffffff" stroke="#000000" points="194.5,-1169.5 194.5,-1210.5 364.5,-1210.5 364.5,-1169.5 194.5,-1169.5"/>
<text text-anchor="start" x="202.5" y="-1198.5" font-family="Helvetica,sans-Serif" font-size="10.00" fill="#000000">gko::factorization</text>
<text text-anchor="start" x="202.5" y="-1187.5" font-family="Helvetica,sans-Serif" font-size="10.00" fill="#000000">::ParIlu&lt; ValueType,</text>
<text text-anchor="middle" x="279.5" y="-1176.5" font-family="Helvetica,sans-Serif" font-size="10.00" fill="#000000"> IndexType &gt;::parameters_type</text>
</a>
</g>
</g>
<!-- Node0&#45;&gt;Node5 -->
<g id="edge5" class="edge">
<title>Node0&#45;&gt;Node5</title>
<path fill="none" stroke="#191970" d="M73.0486,-695.7208C81.7122,-792.9036 113.1069,-1091.2769 177,-1160 181.9238,-1165.296 187.7262,-1169.6746 194.0253,-1173.2925"/>
<polygon fill="#191970" stroke="#191970" points="76.527,-695.3197 72.1696,-685.6624 69.5536,-695.9291 76.527,-695.3197"/>
</g>
<!-- Node6 -->
<g id="node7" class="node">
<title>Node6</title>
<g id="a_node7"><a xlink:href="structgko_1_1factorization_1_1ParIlut_1_1parameters__type.html" target="_top" xlink:title=" ">
<polygon fill="#ffffff" stroke="#000000" points="194.5,-1109.5 194.5,-1150.5 364.5,-1150.5 364.5,-1109.5 194.5,-1109.5"/>
<text text-anchor="start" x="202.5" y="-1138.5" font-family="Helvetica,sans-Serif" font-size="10.00" fill="#000000">gko::factorization</text>
<text text-anchor="start" x="202.5" y="-1127.5" font-family="Helvetica,sans-Serif" font-size="10.00" fill="#000000">::ParIlut&lt; ValueType,</text>
<text text-anchor="middle" x="279.5" y="-1116.5" font-family="Helvetica,sans-Serif" font-size="10.00" fill="#000000"> IndexType &gt;::parameters_type</text>
</a>
</g>
</g>
<!-- Node0&#45;&gt;Node6 -->
<g id="edge6" class="edge">
<title>Node0&#45;&gt;Node6</title>
<path fill="none" stroke="#191970" d="M74.0083,-695.4996C84.8254,-784.4131 120.3908,-1040.8064 177,-1100 181.9979,-1105.2261 187.8519,-1109.5561 194.1852,-1113.1418"/>
<polygon fill="#191970" stroke="#191970" points="77.4764,-695.0241 72.812,-685.5113 70.5261,-695.8565 77.4764,-695.0241"/>
</g>
<!-- Node7 -->
<g id="node8" class="node">
<title>Node7</title>
<g id="a_node8"><a xlink:href="structgko_1_1preconditioner_1_1Ic_1_1parameters__type.html" target="_top" xlink:title=" ">
<polygon fill="#ffffff" stroke="#000000" points="201.5,-1049.5 201.5,-1090.5 357.5,-1090.5 357.5,-1049.5 201.5,-1049.5"/>
<text text-anchor="start" x="209.5" y="-1078.5" font-family="Helvetica,sans-Serif" font-size="10.00" fill="#000000">gko::preconditioner</text>
<text text-anchor="start" x="209.5" y="-1067.5" font-family="Helvetica,sans-Serif" font-size="10.00" fill="#000000">::Ic&lt; LSolverType, IndexType</text>
<text text-anchor="middle" x="279.5" y="-1056.5" font-family="Helvetica,sans-Serif" font-size="10.00" fill="#000000"> &gt;::parameters_type</text>
</a>
</g>
</g>
<!-- Node0&#45;&gt;Node7 -->
<g id="edge7" class="edge">
<title>Node0&#45;&gt;Node7</title>
<path fill="none" stroke="#191970" d="M75.3435,-695.8189C88.5893,-776.3616 127.7349,-990.3383 177,-1040 183.9209,-1046.9766 192.3695,-1052.3503 201.4165,-1056.4858"/>
<polygon fill="#191970" stroke="#191970" points="78.775,-695.1139 73.7175,-685.8042 71.8655,-696.2359 78.775,-695.1139"/>
</g>
<!-- Node8 -->
<g id="node9" class="node">
<title>Node8</title>
<g id="a_node9"><a xlink:href="structgko_1_1preconditioner_1_1Ilu_1_1parameters__type.html" target="_top" xlink:title=" ">
<polygon fill="#ffffff" stroke="#000000" points="194.5,-978 194.5,-1030 364.5,-1030 364.5,-978 194.5,-978"/>
<text text-anchor="start" x="202.5" y="-1018" font-family="Helvetica,sans-Serif" font-size="10.00" fill="#000000">gko::preconditioner</text>
<text text-anchor="start" x="202.5" y="-1007" font-family="Helvetica,sans-Serif" font-size="10.00" fill="#000000">::Ilu&lt; LSolverType,</text>
<text text-anchor="start" x="202.5" y="-996" font-family="Helvetica,sans-Serif" font-size="10.00" fill="#000000"> USolverType, ReverseApply,</text>
<text text-anchor="middle" x="279.5" y="-985" font-family="Helvetica,sans-Serif" font-size="10.00" fill="#000000"> IndexType &gt;::parameters_type</text>
</a>
</g>
</g>
<!-- Node0&#45;&gt;Node8 -->
<g id="edge8" class="edge">
<title>Node0&#45;&gt;Node8</title>
<path fill="none" stroke="#191970" d="M72.7226,-695.9399C78.7111,-756.4872 100.3706,-891.3887 177,-968 182.0685,-973.0673 187.8908,-977.4235 194.1313,-981.168"/>
<polygon fill="#191970" stroke="#191970" points="76.1978,-695.5079 71.8049,-685.8667 69.2267,-696.143 76.1978,-695.5079"/>
</g>
<!-- Node9 -->
<g id="node10" class="node">
<title>Node9</title>
<g id="a_node10"><a xlink:href="structgko_1_1preconditioner_1_1Isai_1_1parameters__type.html" target="_top" xlink:title=" ">
<polygon fill="#ffffff" stroke="#000000" points="194.5,-917.5 194.5,-958.5 364.5,-958.5 364.5,-917.5 194.5,-917.5"/>
<text text-anchor="start" x="202.5" y="-946.5" font-family="Helvetica,sans-Serif" font-size="10.00" fill="#000000">gko::preconditioner</text>
<text text-anchor="start" x="202.5" y="-935.5" font-family="Helvetica,sans-Serif" font-size="10.00" fill="#000000">::Isai&lt; IsaiType, ValueType,</text>
<text text-anchor="middle" x="279.5" y="-924.5" font-family="Helvetica,sans-Serif" font-size="10.00" fill="#000000"> IndexType &gt;::parameters_type</text>
</a>
</g>
</g>
<!-- Node0&#45;&gt;Node9 -->
<g id="edge9" class="edge">
<title>Node0&#45;&gt;Node9</title>
<path fill="none" stroke="#191970" d="M75.3514,-695.5714C85.1368,-747.0403 112.1139,-850.9486 177,-908 182.2217,-912.5912 188.1131,-916.4811 194.3658,-919.7766"/>
<polygon fill="#191970" stroke="#191970" points="78.7922,-694.9296 73.567,-685.7129 71.9041,-696.1764 78.7922,-694.9296"/>
</g>
<!-- Node10 -->
<g id="node11" class="node">
<title>Node10</title>
<g id="a_node11"><a xlink:href="structgko_1_1preconditioner_1_1Jacobi_1_1parameters__type.html" target="_top" xlink:title=" ">
<polygon fill="#ffffff" stroke="#000000" points="194.5,-857.5 194.5,-898.5 364.5,-898.5 364.5,-857.5 194.5,-857.5"/>
<text text-anchor="start" x="202.5" y="-886.5" font-family="Helvetica,sans-Serif" font-size="10.00" fill="#000000">gko::preconditioner</text>
<text text-anchor="start" x="202.5" y="-875.5" font-family="Helvetica,sans-Serif" font-size="10.00" fill="#000000">::Jacobi&lt; ValueType,</text>
<text text-anchor="middle" x="279.5" y="-864.5" font-family="Helvetica,sans-Serif" font-size="10.00" fill="#000000"> IndexType &gt;::parameters_type</text>
</a>
</g>
</g>
<!-- Node0&#45;&gt;Node10 -->
<g id="edge10" class="edge">
<title>Node0&#45;&gt;Node10</title>
<path fill="none" stroke="#191970" d="M80.1435,-695.3853C94.6327,-736.1387 125.9028,-807.9952 177,-848 182.3288,-852.172 188.2218,-855.7642 194.4096,-858.8571"/>
<polygon fill="#191970" stroke="#191970" points="83.3849,-694.0482 76.8196,-685.7327 76.7663,-696.3274 83.3849,-694.0482"/>
</g>
<!-- Node11 -->
<g id="node12" class="node">
<title>Node11</title>
<g id="a_node12"><a xlink:href="structgko_1_1reorder_1_1Rcm_1_1parameters__type.html" target="_top" xlink:title=" ">
<polygon fill="#ffffff" stroke="#000000" points="217,-797.5 217,-838.5 342,-838.5 342,-797.5 217,-797.5"/>
<text text-anchor="start" x="225" y="-826.5" font-family="Helvetica,sans-Serif" font-size="10.00" fill="#000000">gko::reorder::Rcm&lt;</text>
<text text-anchor="start" x="225" y="-815.5" font-family="Helvetica,sans-Serif" font-size="10.00" fill="#000000"> ValueType, IndexType</text>
<text text-anchor="middle" x="279.5" y="-804.5" font-family="Helvetica,sans-Serif" font-size="10.00" fill="#000000"> &gt;::parameters_type</text>
</a>
</g>
</g>
<!-- Node0&#45;&gt;Node11 -->
<g id="edge11" class="edge">
<title>Node0&#45;&gt;Node11</title>
<path fill="none" stroke="#191970" d="M88.5741,-694.2401C107.3557,-722.2563 139.2562,-763.7568 177,-788 189.0126,-795.7158 203.0719,-801.5041 216.8601,-805.8265"/>
<polygon fill="#191970" stroke="#191970" points="91.3565,-692.1004 82.9464,-685.6567 85.5025,-695.9385 91.3565,-692.1004"/>
</g>
<!-- Node12 -->
<g id="node13" class="node">
<title>Node12</title>
<g id="a_node13"><a xlink:href="structgko_1_1solver_1_1Bicg_1_1parameters__type.html" target="_top" xlink:title=" ">
<polygon fill="#ffffff" stroke="#000000" points="194.5,-748 194.5,-778 364.5,-778 364.5,-748 194.5,-748"/>
<text text-anchor="start" x="202.5" y="-766" font-family="Helvetica,sans-Serif" font-size="10.00" fill="#000000">gko::solver::Bicg&lt;</text>
<text text-anchor="middle" x="279.5" y="-755" font-family="Helvetica,sans-Serif" font-size="10.00" fill="#000000"> ValueType &gt;::parameters_type</text>
</a>
</g>
</g>
<!-- Node0&#45;&gt;Node12 -->
<g id="edge12" class="edge">
<title>Node0&#45;&gt;Node12</title>
<path fill="none" stroke="#191970" d="M102.6238,-692.1393C122.8143,-707.9265 150.0614,-727.0143 177,-739 184.6812,-742.4176 192.9114,-745.3818 201.2454,-747.9454"/>
<polygon fill="#191970" stroke="#191970" points="104.7026,-689.3205 94.6995,-685.8291 100.342,-694.7965 104.7026,-689.3205"/>
</g>
<!-- Node13 -->
<g id="node14" class="node">
<title>Node13</title>
<g id="a_node14"><a xlink:href="structgko_1_1solver_1_1Bicgstab_1_1parameters__type.html" target="_top" xlink:title=" ">
<polygon fill="#ffffff" stroke="#000000" points="190.5,-699 190.5,-729 368.5,-729 368.5,-699 190.5,-699"/>
<text text-anchor="start" x="198.5" y="-717" font-family="Helvetica,sans-Serif" font-size="10.00" fill="#000000">gko::solver::Bicgstab</text>
<text text-anchor="middle" x="279.5" y="-706" font-family="Helvetica,sans-Serif" font-size="10.00" fill="#000000">&lt; ValueType &gt;::parameters_type</text>
</a>
</g>
</g>
<!-- Node0&#45;&gt;Node13 -->
<g id="edge13" class="edge">
<title>Node0&#45;&gt;Node13</title>
<path fill="none" stroke="#191970" d="M151.0897,-683.9228C159.8345,-685.9746 168.6033,-688.0314 177,-690 189.3668,-692.8993 202.5735,-695.9933 215.2525,-698.9625"/>
<polygon fill="#191970" stroke="#191970" points="151.7831,-680.4906 141.2479,-681.6134 150.1839,-687.3054 151.7831,-680.4906"/>
</g>
<!-- Node14 -->
<g id="node15" class="node">
<title>Node14</title>
<g id="a_node15"><a xlink:href="structgko_1_1solver_1_1Cg_1_1parameters__type.html" target="_top" xlink:title=" ">
<polygon fill="#ffffff" stroke="#000000" points="204.5,-650 204.5,-680 354.5,-680 354.5,-650 204.5,-650"/>
<text text-anchor="start" x="212.5" y="-668" font-family="Helvetica,sans-Serif" font-size="10.00" fill="#000000">gko::solver::Cg&lt; ValueType</text>
<text text-anchor="middle" x="279.5" y="-657" font-family="Helvetica,sans-Serif" font-size="10.00" fill="#000000"> &gt;::parameters_type</text>
</a>
</g>
</g>
<!-- Node0&#45;&gt;Node14 -->
<g id="edge14" class="edge">
<title>Node0&#45;&gt;Node14</title>
<path fill="none" stroke="#191970" d="M151.3622,-665C168.7303,-665 187.0178,-665 204.1662,-665"/>
<polygon fill="#191970" stroke="#191970" points="151.2579,-661.5001 141.2579,-665 151.2578,-668.5001 151.2579,-661.5001"/>
</g>
<!-- Node15 -->
<g id="node16" class="node">
<title>Node15</title>
<g id="a_node16"><a xlink:href="structgko_1_1solver_1_1Cgs_1_1parameters__type.html" target="_top" xlink:title=" ">
<polygon fill="#ffffff" stroke="#000000" points="202,-601 202,-631 357,-631 357,-601 202,-601"/>
<text text-anchor="start" x="210" y="-619" font-family="Helvetica,sans-Serif" font-size="10.00" fill="#000000">gko::solver::Cgs&lt; ValueType</text>
<text text-anchor="middle" x="279.5" y="-608" font-family="Helvetica,sans-Serif" font-size="10.00" fill="#000000"> &gt;::parameters_type</text>
</a>
</g>
</g>
<!-- Node0&#45;&gt;Node15 -->
<g id="edge15" class="edge">
<title>Node0&#45;&gt;Node15</title>
<path fill="none" stroke="#191970" d="M151.2525,-646.0676C172.5405,-641.0766 195.2168,-635.7602 215.4885,-631.0075"/>
<polygon fill="#191970" stroke="#191970" points="150.1949,-642.7206 141.2579,-648.4108 151.7928,-649.5358 150.1949,-642.7206"/>
</g>
<!-- Node16 -->
<g id="node17" class="node">
<title>Node16</title>
<g id="a_node17"><a xlink:href="structgko_1_1solver_1_1Fcg_1_1parameters__type.html" target="_top" xlink:title=" ">
<polygon fill="#ffffff" stroke="#000000" points="202.5,-552 202.5,-582 356.5,-582 356.5,-552 202.5,-552"/>
<text text-anchor="start" x="210.5" y="-570" font-family="Helvetica,sans-Serif" font-size="10.00" fill="#000000">gko::solver::Fcg&lt; ValueType</text>
<text text-anchor="middle" x="279.5" y="-559" font-family="Helvetica,sans-Serif" font-size="10.00" fill="#000000"> &gt;::parameters_type</text>
</a>
</g>
</g>
<!-- Node0&#45;&gt;Node16 -->
<g id="edge16" class="edge">
<title>Node0&#45;&gt;Node16</title>
<path fill="none" stroke="#191970" d="M103.1287,-638.0201C123.3121,-622.5457 150.3764,-603.8913 177,-592 185.6131,-588.153 194.9089,-584.8421 204.2642,-582.0072"/>
<polygon fill="#191970" stroke="#191970" points="100.928,-635.2978 95.1973,-644.2091 105.2343,-640.8165 100.928,-635.2978"/>
</g>
<!-- Node17 -->
<g id="node18" class="node">
<title>Node17</title>
<g id="a_node18"><a xlink:href="structgko_1_1solver_1_1Gmres_1_1parameters__type.html" target="_top" xlink:title=" ">
<polygon fill="#ffffff" stroke="#000000" points="190.5,-503 190.5,-533 368.5,-533 368.5,-503 190.5,-503"/>
<text text-anchor="start" x="198.5" y="-521" font-family="Helvetica,sans-Serif" font-size="10.00" fill="#000000">gko::solver::Gmres</text>
<text text-anchor="middle" x="279.5" y="-510" font-family="Helvetica,sans-Serif" font-size="10.00" fill="#000000">&lt; ValueType &gt;::parameters_type</text>
</a>
</g>
</g>
<!-- Node0&#45;&gt;Node17 -->
<g id="edge17" class="edge">
<title>Node0&#45;&gt;Node17</title>
<path fill="none" stroke="#191970" d="M88.3964,-635.6287C107.0435,-607.5613 138.8451,-566.1929 177,-543 183.4173,-539.0992 190.4082,-535.8066 197.6243,-533.0274"/>
<polygon fill="#191970" stroke="#191970" points="85.3198,-633.9402 82.813,-644.2343 91.1921,-637.7503 85.3198,-633.9402"/>
</g>
<!-- Node18 -->
<g id="node19" class="node">
<title>Node18</title>
<g id="a_node19"><a xlink:href="structgko_1_1solver_1_1Idr_1_1parameters__type.html" target="_top" xlink:title=" ">
<polygon fill="#ffffff" stroke="#000000" points="204.5,-454 204.5,-484 354.5,-484 354.5,-454 204.5,-454"/>
<text text-anchor="start" x="212.5" y="-472" font-family="Helvetica,sans-Serif" font-size="10.00" fill="#000000">gko::solver::Idr&lt; ValueType</text>
<text text-anchor="middle" x="279.5" y="-461" font-family="Helvetica,sans-Serif" font-size="10.00" fill="#000000"> &gt;::parameters_type</text>
</a>
</g>
</g>
<!-- Node0&#45;&gt;Node18 -->
<g id="edge18" class="edge">
<title>Node0&#45;&gt;Node18</title>
<path fill="none" stroke="#191970" d="M81.1184,-634.5582C96.2344,-595.8214 127.7147,-529.6714 177,-494 185.161,-488.0933 194.5464,-483.5707 204.2536,-480.1101"/>
<polygon fill="#191970" stroke="#191970" points="77.7189,-633.6532 77.4571,-644.2449 84.2667,-636.1282 77.7189,-633.6532"/>
</g>
<!-- Node19 -->
<g id="node20" class="node">
<title>Node19</title>
<g id="a_node20"><a xlink:href="structgko_1_1solver_1_1Ir_1_1parameters__type.html" target="_top" xlink:title=" ">
<polygon fill="#ffffff" stroke="#000000" points="207.5,-405 207.5,-435 351.5,-435 351.5,-405 207.5,-405"/>
<text text-anchor="start" x="215.5" y="-423" font-family="Helvetica,sans-Serif" font-size="10.00" fill="#000000">gko::solver::Ir&lt; ValueType</text>
<text text-anchor="middle" x="279.5" y="-412" font-family="Helvetica,sans-Serif" font-size="10.00" fill="#000000"> &gt;::parameters_type</text>
</a>
</g>
</g>
<!-- Node0&#45;&gt;Node19 -->
<g id="edge19" class="edge">
<title>Node0&#45;&gt;Node19</title>
<path fill="none" stroke="#191970" d="M76.5377,-634.5893C87.6765,-586.7209 116.1143,-494.1951 177,-445 185.8333,-437.8628 196.4001,-432.7162 207.3426,-429.0148"/>
<polygon fill="#191970" stroke="#191970" points="73.117,-633.8486 74.3592,-644.3703 79.9495,-635.3704 73.117,-633.8486"/>
</g>
<!-- Node20 -->
<g id="node21" class="node">
<title>Node20</title>
<g id="a_node21"><a xlink:href="structgko_1_1solver_1_1LowerTrs_1_1parameters__type.html" target="_top" xlink:title=" ">
<polygon fill="#ffffff" stroke="#000000" points="213,-344.5 213,-385.5 346,-385.5 346,-344.5 213,-344.5"/>
<text text-anchor="start" x="221" y="-373.5" font-family="Helvetica,sans-Serif" font-size="10.00" fill="#000000">gko::solver::LowerTrs</text>
<text text-anchor="start" x="221" y="-362.5" font-family="Helvetica,sans-Serif" font-size="10.00" fill="#000000">&lt; ValueType, IndexType</text>
<text text-anchor="middle" x="279.5" y="-351.5" font-family="Helvetica,sans-Serif" font-size="10.00" fill="#000000"> &gt;::parameters_type</text>
</a>
</g>
</g>
<!-- Node0&#45;&gt;Node20 -->
<g id="edge20" class="edge">
<title>Node0&#45;&gt;Node20</title>
<path fill="none" stroke="#191970" d="M73.9341,-634.4989C81.8176,-578.9454 106.3317,-461.015 177,-396 187.0561,-386.7483 199.7871,-380.2538 212.828,-375.6957"/>
<polygon fill="#191970" stroke="#191970" points="70.4621,-634.0569 72.6092,-644.4319 77.4007,-634.9825 70.4621,-634.0569"/>
</g>
<!-- Node21 -->
<g id="node22" class="node">
<title>Node21</title>
<g id="a_node22"><a xlink:href="structgko_1_1solver_1_1UpperTrs_1_1parameters__type.html" target="_top" xlink:title=" ">
<polygon fill="#ffffff" stroke="#000000" points="213,-284.5 213,-325.5 346,-325.5 346,-284.5 213,-284.5"/>
<text text-anchor="start" x="221" y="-313.5" font-family="Helvetica,sans-Serif" font-size="10.00" fill="#000000">gko::solver::UpperTrs</text>
<text text-anchor="start" x="221" y="-302.5" font-family="Helvetica,sans-Serif" font-size="10.00" fill="#000000">&lt; ValueType, IndexType</text>
<text text-anchor="middle" x="279.5" y="-291.5" font-family="Helvetica,sans-Serif" font-size="10.00" fill="#000000"> &gt;::parameters_type</text>
</a>
</g>
</g>
<!-- Node0&#45;&gt;Node21 -->
<g id="edge21" class="edge">
<title>Node0&#45;&gt;Node21</title>
<path fill="none" stroke="#191970" d="M76.5624,-634.437C91.6983,-561.0331 133.0977,-377.7137 177,-335 186.9008,-325.3673 199.7197,-318.8004 212.9199,-314.3308"/>
<polygon fill="#191970" stroke="#191970" points="73.0914,-633.942 74.5227,-644.4397 79.9503,-635.3407 73.0914,-633.942"/>
</g>
<!-- Node22 -->
<g id="node23" class="node">
<title>Node22</title>
<g id="a_node23"><a xlink:href="structgko_1_1stop_1_1AbsoluteResidualNorm_1_1parameters__type.html" target="_top" xlink:title=" ">
<polygon fill="#ffffff" stroke="#000000" points="177,-235 177,-265 382,-265 382,-235 177,-235"/>
<text text-anchor="start" x="185" y="-253" font-family="Helvetica,sans-Serif" font-size="10.00" fill="#000000">gko::stop::AbsoluteResidual</text>
<text text-anchor="middle" x="279.5" y="-242" font-family="Helvetica,sans-Serif" font-size="10.00" fill="#000000">Norm&lt; ValueType &gt;::parameters_type</text>
</a>
</g>
</g>
<!-- Node0&#45;&gt;Node22 -->
<g id="edge22" class="edge">
<title>Node0&#45;&gt;Node22</title>
<path fill="none" stroke="#191970" d="M74.8305,-634.2434C87.1154,-551.3066 124.7121,-325.8772 177,-275 180.9383,-271.1679 185.3613,-267.8906 190.1011,-265.0908"/>
<polygon fill="#191970" stroke="#191970" points="71.3436,-633.9006 73.3619,-644.3014 78.2701,-634.9121 71.3436,-633.9006"/>
</g>
<!-- Node23 -->
<g id="node24" class="node">
<title>Node23</title>
<g id="a_node24"><a xlink:href="structgko_1_1stop_1_1Combined_1_1parameters__type.html" target="_top" xlink:title=" ">
<polygon fill="#ffffff" stroke="#000000" points="221,-186 221,-216 338,-216 338,-186 221,-186"/>
<text text-anchor="start" x="229" y="-204" font-family="Helvetica,sans-Serif" font-size="10.00" fill="#000000">gko::stop::Combined</text>
<text text-anchor="middle" x="279.5" y="-193" font-family="Helvetica,sans-Serif" font-size="10.00" fill="#000000">::parameters_type</text>
</a>
</g>
</g>
<!-- Node0&#45;&gt;Node23 -->
<g id="edge23" class="edge">
<title>Node0&#45;&gt;Node23</title>
<path fill="none" stroke="#191970" d="M73.8063,-634.4067C84.1192,-544.6267 118.551,-284.521 177,-226 188.6496,-214.3361 204.7766,-207.7834 220.7931,-204.1898"/>
<polygon fill="#191970" stroke="#191970" points="70.3124,-634.1566 72.6682,-644.4862 77.2682,-634.942 70.3124,-634.1566"/>
</g>
<!-- Node24 -->
<g id="node25" class="node">
<title>Node24</title>
<g id="a_node25"><a xlink:href="structgko_1_1stop_1_1Iteration_1_1parameters__type.html" target="_top" xlink:title=" ">
<polygon fill="#ffffff" stroke="#000000" points="225,-137 225,-167 334,-167 334,-137 225,-137"/>
<text text-anchor="start" x="233" y="-155" font-family="Helvetica,sans-Serif" font-size="10.00" fill="#000000">gko::stop::Iteration</text>
<text text-anchor="middle" x="279.5" y="-144" font-family="Helvetica,sans-Serif" font-size="10.00" fill="#000000">::parameters_type</text>
</a>
</g>
</g>
<!-- Node0&#45;&gt;Node24 -->
<g id="edge24" class="edge">
<title>Node0&#45;&gt;Node24</title>
<path fill="none" stroke="#191970" d="M73.0145,-634.2629C81.5295,-537.74 112.4196,-243.1733 177,-177 189.5373,-164.1534 207.4967,-157.4789 224.8895,-154.1335"/>
<polygon fill="#191970" stroke="#191970" points="69.5246,-633.9964 72.1506,-644.2606 76.4986,-634.5991 69.5246,-633.9964"/>
</g>
<!-- Node25 -->
<g id="node26" class="node">
<title>Node25</title>
<g id="a_node26"><a xlink:href="structgko_1_1stop_1_1RelativeResidualNorm_1_1parameters__type.html" target="_top" xlink:title=" ">
<polygon fill="#ffffff" stroke="#000000" points="177,-88 177,-118 382,-118 382,-88 177,-88"/>
<text text-anchor="start" x="185" y="-106" font-family="Helvetica,sans-Serif" font-size="10.00" fill="#000000">gko::stop::RelativeResidual</text>
<text text-anchor="middle" x="279.5" y="-95" font-family="Helvetica,sans-Serif" font-size="10.00" fill="#000000">Norm&lt; ValueType &gt;::parameters_type</text>
</a>
</g>
</g>
<!-- Node0&#45;&gt;Node25 -->
<g id="edge25" class="edge">
<title>Node0&#45;&gt;Node25</title>
<path fill="none" stroke="#191970" d="M72.3468,-634.3117C79.1528,-531.5613 106.2148,-201.9295 177,-128 180.6736,-124.1632 184.8302,-120.8749 189.3133,-118.06"/>
<polygon fill="#191970" stroke="#191970" points="68.8506,-634.142 71.6993,-644.3467 75.836,-634.5928 68.8506,-634.142"/>
</g>
<!-- Node26 -->
<g id="node27" class="node">
<title>Node26</title>
<g id="a_node27"><a xlink:href="structgko_1_1stop_1_1ResidualNormReduction_1_1parameters__type.html" target="_top" xlink:title=" ">
<polygon fill="#ffffff" stroke="#000000" points="187.5,-39 187.5,-69 371.5,-69 371.5,-39 187.5,-39"/>
<text text-anchor="start" x="195.5" y="-57" font-family="Helvetica,sans-Serif" font-size="10.00" fill="#000000">gko::stop::ResidualNormReduction</text>
<text text-anchor="middle" x="279.5" y="-46" font-family="Helvetica,sans-Serif" font-size="10.00" fill="#000000">&lt; ValueType &gt;::parameters_type</text>
</a>
</g>
</g>
<!-- Node0&#45;&gt;Node26 -->
<g id="edge26" class="edge">
<title>Node0&#45;&gt;Node26</title>
<path fill="none" stroke="#191970" d="M71.8018,-634.0975C77.0255,-525.0866 100.0451,-160.6717 177,-79 180.5171,-75.2673 184.4911,-72.052 188.7799,-69.2857"/>
<polygon fill="#191970" stroke="#191970" points="68.291,-634.2524 71.3251,-644.4034 75.2835,-634.5759 68.291,-634.2524"/>
</g>
<!-- Node27 -->
<g id="node28" class="node">
<title>Node27</title>
<g id="a_node28"><a xlink:href="structgko_1_1stop_1_1Time_1_1parameters__type.html" target="_top" xlink:title=" ">
<polygon fill="#ffffff" stroke="#000000" points="188.5,-.5 188.5,-19.5 370.5,-19.5 370.5,-.5 188.5,-.5"/>
<text text-anchor="middle" x="279.5" y="-7.5" font-family="Helvetica,sans-Serif" font-size="10.00" fill="#000000">gko::stop::Time::parameters_type</text>
</a>
</g>
</g>
<!-- Node0&#45;&gt;Node27 -->
<g id="edge27" class="edge">
<title>Node0&#45;&gt;Node27</title>
<path fill="none" stroke="#191970" d="M71.1929,-634.0562C74.4238,-518.9395 91.7231,-117.5699 177,-30 181.0477,-25.8434 185.6851,-22.4135 190.7014,-19.5935"/>
<polygon fill="#191970" stroke="#191970" points="67.6881,-634.1937 70.9223,-644.2828 74.6857,-634.3789 67.6881,-634.1937"/>
</g>
</g>
</svg>
