<?xml version="1.0" encoding="UTF-8" standalone="no"?>
<!DOCTYPE svg PUBLIC "-//W3C//DTD SVG 1.1//EN"
 "http://www.w3.org/Graphics/SVG/1.1/DTD/svg11.dtd">
<!-- Generated by graphviz version 2.40.1 (20161225.0304)
 -->
<!-- Title: Graphical Class Hierarchy Pages: 1 -->
<svg width="1047pt" height="1279pt"
 viewBox="0.00 0.00 1047.00 1279.00" xmlns="http://www.w3.org/2000/svg" xmlns:xlink="http://www.w3.org/1999/xlink">
<g id="graph0" class="graph" transform="scale(1 1) rotate(0) translate(4 1275)">
<title>Graphical Class Hierarchy</title>
<polygon fill="#ffffff" stroke="transparent" points="-4,4 -4,-1275 1043,-1275 1043,4 -4,4"/>
<!-- Node444 -->
<g id="node1" class="node">
<title>Node444</title>
<g id="a_node1"><a xlink:href="classgko_1_1ConvertibleTo.html" target="_top" xlink:title=" ">
<polygon fill="#ffffff" stroke="#000000" points="178.5,-604 178.5,-634 296.5,-634 296.5,-604 178.5,-604"/>
<text text-anchor="start" x="186.5" y="-622" font-family="Helvetica,sans-Serif" font-size="10.00" fill="#000000">gko::ConvertibleTo</text>
<text text-anchor="middle" x="237.5" y="-611" font-family="Helvetica,sans-Serif" font-size="10.00" fill="#000000">&lt; ConcreteFactory &gt;</text>
</a>
</g>
</g>
<!-- Node445 -->
<g id="node2" class="node">
<title>Node445</title>
<g id="a_node2"><a xlink:href="classgko_1_1EnablePolymorphicAssignment.html" target="_top" xlink:title=" ">
<polygon fill="#ffffff" stroke="#000000" points="382.5,-602 382.5,-632 574.5,-632 574.5,-602 382.5,-602"/>
<text text-anchor="start" x="390.5" y="-620" font-family="Helvetica,sans-Serif" font-size="10.00" fill="#000000">gko::EnablePolymorphicAssignment</text>
<text text-anchor="middle" x="478.5" y="-609" font-family="Helvetica,sans-Serif" font-size="10.00" fill="#000000">&lt; ConcreteFactory &gt;</text>
</a>
</g>
</g>
<!-- Node444&#45;&gt;Node445 -->
<g id="edge1" class="edge">
<title>Node444&#45;&gt;Node445</title>
<path fill="none" stroke="#191970" d="M306.9738,-618.4235C330.4758,-618.2284 357.1541,-618.007 382.3502,-617.7979"/>
<polygon fill="#191970" stroke="#191970" points="306.7345,-614.9252 296.7639,-618.5082 306.7926,-621.925 306.7345,-614.9252"/>
</g>
<!-- Node2 -->
<g id="node3" class="node">
<title>Node2</title>
<g id="a_node3"><a xlink:href="classgko_1_1EnableDefaultFactory.html" target="_top" xlink:title="This mixin provides a default implementation of a concrete factory.">
<polygon fill="#ffffff" stroke="#000000" points="619,-570.5 619,-611.5 819,-611.5 819,-570.5 619,-570.5"/>
<text text-anchor="start" x="627" y="-599.5" font-family="Helvetica,sans-Serif" font-size="10.00" fill="#000000">gko::EnableDefaultFactory</text>
<text text-anchor="start" x="627" y="-588.5" font-family="Helvetica,sans-Serif" font-size="10.00" fill="#000000">&lt; ConcreteFactory, ProductType,</text>
<text text-anchor="middle" x="719" y="-577.5" font-family="Helvetica,sans-Serif" font-size="10.00" fill="#000000"> ParametersType, PolymorphicBase &gt;</text>
</a>
</g>
</g>
<!-- Node445&#45;&gt;Node2 -->
<g id="edge2" class="edge">
<title>Node445&#45;&gt;Node2</title>
<path fill="none" stroke="#191970" d="M584.8695,-605.5006C596.127,-604.2836 607.5489,-603.0488 618.7336,-601.8396"/>
<polygon fill="#191970" stroke="#191970" points="584.1547,-602.0574 574.5888,-606.612 584.9071,-609.0168 584.1547,-602.0574"/>
</g>
<!-- Node3 -->
<g id="node4" class="node">
<title>Node3</title>
<g id="a_node4"><a xlink:href="classgko_1_1factorization_1_1Ilu_1_1Factory.html" target="_top" xlink:title=" ">
<polygon fill="#ffffff" stroke="#000000" points="871.5,-1229.5 871.5,-1270.5 1022.5,-1270.5 1022.5,-1229.5 871.5,-1229.5"/>
<text text-anchor="start" x="879.5" y="-1258.5" font-family="Helvetica,sans-Serif" font-size="10.00" fill="#000000">gko::factorization</text>
<text text-anchor="start" x="879.5" y="-1247.5" font-family="Helvetica,sans-Serif" font-size="10.00" fill="#000000">::Ilu&lt; ValueType, IndexType</text>
<text text-anchor="middle" x="947" y="-1236.5" font-family="Helvetica,sans-Serif" font-size="10.00" fill="#000000"> &gt;::Factory</text>
</a>
</g>
</g>
<!-- Node2&#45;&gt;Node3 -->
<g id="edge3" class="edge">
<title>Node2&#45;&gt;Node3</title>
<path fill="none" stroke="#191970" d="M721.6417,-621.7769C731.9829,-735.4043 773.2332,-1129.4115 855,-1220 859.6152,-1225.1131 865.1119,-1229.358 871.0894,-1232.8815"/>
<polygon fill="#191970" stroke="#191970" points="725.1152,-621.3235 720.7371,-611.6755 718.1431,-621.9479 725.1152,-621.3235"/>
</g>
<!-- Node4 -->
<g id="node5" class="node">
<title>Node4</title>
<g id="a_node5"><a xlink:href="classgko_1_1factorization_1_1ParIct_1_1Factory.html" target="_top" xlink:title=" ">
<polygon fill="#ffffff" stroke="#000000" points="886,-1169.5 886,-1210.5 1008,-1210.5 1008,-1169.5 886,-1169.5"/>
<text text-anchor="start" x="894" y="-1198.5" font-family="Helvetica,sans-Serif" font-size="10.00" fill="#000000">gko::factorization</text>
<text text-anchor="start" x="894" y="-1187.5" font-family="Helvetica,sans-Serif" font-size="10.00" fill="#000000">::ParIct&lt; ValueType,</text>
<text text-anchor="middle" x="947" y="-1176.5" font-family="Helvetica,sans-Serif" font-size="10.00" fill="#000000"> IndexType &gt;::Factory</text>
</a>
</g>
</g>
<!-- Node2&#45;&gt;Node4 -->
<g id="edge4" class="edge">
<title>Node2&#45;&gt;Node4</title>
<path fill="none" stroke="#191970" d="M722.3792,-621.5951C734.6993,-727.9022 780.4299,-1079.1636 855,-1160 863.3155,-1169.0143 874.3695,-1175.327 885.924,-1179.746"/>
<polygon fill="#191970" stroke="#191970" points="725.8417,-621.0675 721.2282,-611.5299 718.8871,-621.8628 725.8417,-621.0675"/>
</g>
<!-- Node5 -->
<g id="node6" class="node">
<title>Node5</title>
<g id="a_node6"><a xlink:href="classgko_1_1factorization_1_1ParIlu_1_1Factory.html" target="_top" xlink:title=" ">
<polygon fill="#ffffff" stroke="#000000" points="886,-1109.5 886,-1150.5 1008,-1150.5 1008,-1109.5 886,-1109.5"/>
<text text-anchor="start" x="894" y="-1138.5" font-family="Helvetica,sans-Serif" font-size="10.00" fill="#000000">gko::factorization</text>
<text text-anchor="start" x="894" y="-1127.5" font-family="Helvetica,sans-Serif" font-size="10.00" fill="#000000">::ParIlu&lt; ValueType,</text>
<text text-anchor="middle" x="947" y="-1116.5" font-family="Helvetica,sans-Serif" font-size="10.00" fill="#000000"> IndexType &gt;::Factory</text>
</a>
</g>
</g>
<!-- Node2&#45;&gt;Node5 -->
<g id="edge5" class="edge">
<title>Node2&#45;&gt;Node5</title>
<path fill="none" stroke="#191970" d="M723.3061,-621.5977C737.7883,-720.4388 787.6314,-1028.8828 855,-1100 863.3186,-1108.7814 874.2353,-1114.9964 885.6307,-1119.3938"/>
<polygon fill="#191970" stroke="#191970" points="726.7625,-621.0444 721.8647,-611.6497 719.8349,-622.0482 726.7625,-621.0444"/>
</g>
<!-- Node6 -->
<g id="node7" class="node">
<title>Node6</title>
<g id="a_node7"><a xlink:href="classgko_1_1factorization_1_1ParIlut_1_1Factory.html" target="_top" xlink:title=" ">
<polygon fill="#ffffff" stroke="#000000" points="886,-1049.5 886,-1090.5 1008,-1090.5 1008,-1049.5 886,-1049.5"/>
<text text-anchor="start" x="894" y="-1078.5" font-family="Helvetica,sans-Serif" font-size="10.00" fill="#000000">gko::factorization</text>
<text text-anchor="start" x="894" y="-1067.5" font-family="Helvetica,sans-Serif" font-size="10.00" fill="#000000">::ParIlut&lt; ValueType,</text>
<text text-anchor="middle" x="947" y="-1056.5" font-family="Helvetica,sans-Serif" font-size="10.00" fill="#000000"> IndexType &gt;::Factory</text>
</a>
</g>
</g>
<!-- Node2&#45;&gt;Node6 -->
<g id="edge6" class="edge">
<title>Node2&#45;&gt;Node6</title>
<path fill="none" stroke="#191970" d="M724.4657,-621.5595C741.283,-712.4351 794.7755,-978.4909 855,-1040 863.4624,-1048.6429 874.4421,-1054.7972 885.8536,-1059.1791"/>
<polygon fill="#191970" stroke="#191970" points="727.8881,-620.8177 722.6424,-611.6126 721.0028,-622.0798 727.8881,-620.8177"/>
</g>
<!-- Node7 -->
<g id="node8" class="node">
<title>Node7</title>
<g id="a_node8"><a xlink:href="classgko_1_1preconditioner_1_1Ilu_1_1Factory.html" target="_top" xlink:title=" ">
<polygon fill="#ffffff" stroke="#000000" points="869,-978 869,-1030 1025,-1030 1025,-978 869,-978"/>
<text text-anchor="start" x="877" y="-1018" font-family="Helvetica,sans-Serif" font-size="10.00" fill="#000000">gko::preconditioner</text>
<text text-anchor="start" x="877" y="-1007" font-family="Helvetica,sans-Serif" font-size="10.00" fill="#000000">::Ilu&lt; LSolverType,</text>
<text text-anchor="start" x="877" y="-996" font-family="Helvetica,sans-Serif" font-size="10.00" fill="#000000"> USolverType, ReverseApply,</text>
<text text-anchor="middle" x="947" y="-985" font-family="Helvetica,sans-Serif" font-size="10.00" fill="#000000"> IndexType &gt;::Factory</text>
</a>
</g>
</g>
<!-- Node2&#45;&gt;Node7 -->
<g id="edge7" class="edge">
<title>Node2&#45;&gt;Node7</title>
<path fill="none" stroke="#191970" d="M721.606,-621.669C729.1912,-692.2311 757.3559,-867.7059 855,-968 859.0679,-972.1783 863.6781,-975.8818 868.6148,-979.1629"/>
<polygon fill="#191970" stroke="#191970" points="725.0819,-621.2533 720.5939,-611.656 718.1173,-621.9573 725.0819,-621.2533"/>
</g>
<!-- Node8 -->
<g id="node9" class="node">
<title>Node8</title>
<g id="a_node9"><a xlink:href="classgko_1_1preconditioner_1_1Isai_1_1Factory.html" target="_top" xlink:title=" ">
<polygon fill="#ffffff" stroke="#000000" points="872.5,-917.5 872.5,-958.5 1021.5,-958.5 1021.5,-917.5 872.5,-917.5"/>
<text text-anchor="start" x="880.5" y="-946.5" font-family="Helvetica,sans-Serif" font-size="10.00" fill="#000000">gko::preconditioner</text>
<text text-anchor="start" x="880.5" y="-935.5" font-family="Helvetica,sans-Serif" font-size="10.00" fill="#000000">::Isai&lt; IsaiType, ValueType,</text>
<text text-anchor="middle" x="947" y="-924.5" font-family="Helvetica,sans-Serif" font-size="10.00" fill="#000000"> IndexType &gt;::Factory</text>
</a>
</g>
</g>
<!-- Node2&#45;&gt;Node8 -->
<g id="edge8" class="edge">
<title>Node2&#45;&gt;Node8</title>
<path fill="none" stroke="#191970" d="M723.6052,-621.8826C734.6101,-684.8426 768.2833,-828.7612 855,-908 860.0848,-912.6464 865.9008,-916.5739 872.0831,-919.8938"/>
<polygon fill="#191970" stroke="#191970" points="727.0199,-621.0817 721.9169,-611.7968 720.1159,-622.2374 727.0199,-621.0817"/>
</g>
<!-- Node9 -->
<g id="node10" class="node">
<title>Node9</title>
<g id="a_node10"><a xlink:href="classgko_1_1preconditioner_1_1Jacobi_1_1Factory.html" target="_top" xlink:title=" ">
<polygon fill="#ffffff" stroke="#000000" points="886,-857.5 886,-898.5 1008,-898.5 1008,-857.5 886,-857.5"/>
<text text-anchor="start" x="894" y="-886.5" font-family="Helvetica,sans-Serif" font-size="10.00" fill="#000000">gko::preconditioner</text>
<text text-anchor="start" x="894" y="-875.5" font-family="Helvetica,sans-Serif" font-size="10.00" fill="#000000">::Jacobi&lt; ValueType,</text>
<text text-anchor="middle" x="947" y="-864.5" font-family="Helvetica,sans-Serif" font-size="10.00" fill="#000000"> IndexType &gt;::Factory</text>
</a>
</g>
</g>
<!-- Node2&#45;&gt;Node9 -->
<g id="edge9" class="edge">
<title>Node2&#45;&gt;Node9</title>
<path fill="none" stroke="#191970" d="M726.9785,-621.6523C742.5084,-675.3213 781.8616,-786.4407 855,-848 863.8687,-855.4646 874.6401,-861.0847 885.6443,-865.3124"/>
<polygon fill="#191970" stroke="#191970" points="730.2614,-620.3969 724.1873,-611.7162 723.5223,-622.2901 730.2614,-620.3969"/>
</g>
<!-- Node10 -->
<g id="node11" class="node">
<title>Node10</title>
<g id="a_node11"><a xlink:href="classgko_1_1reorder_1_1Rcm_1_1Factory.html" target="_top" xlink:title=" ">
<polygon fill="#ffffff" stroke="#000000" points="884.5,-797.5 884.5,-838.5 1009.5,-838.5 1009.5,-797.5 884.5,-797.5"/>
<text text-anchor="start" x="892.5" y="-826.5" font-family="Helvetica,sans-Serif" font-size="10.00" fill="#000000">gko::reorder::Rcm&lt;</text>
<text text-anchor="start" x="892.5" y="-815.5" font-family="Helvetica,sans-Serif" font-size="10.00" fill="#000000"> ValueType, IndexType</text>
<text text-anchor="middle" x="947" y="-804.5" font-family="Helvetica,sans-Serif" font-size="10.00" fill="#000000"> &gt;::Factory</text>
</a>
</g>
</g>
<!-- Node2&#45;&gt;Node10 -->
<g id="edge10" class="edge">
<title>Node2&#45;&gt;Node10</title>
<path fill="none" stroke="#191970" d="M731.8671,-620.6945C751.9895,-663.7322 794.9173,-743.1823 855,-788 863.753,-794.5292 873.9923,-799.6768 884.3987,-803.7235"/>
<polygon fill="#191970" stroke="#191970" points="735.0413,-619.2198 727.6953,-611.5853 728.677,-622.1345 735.0413,-619.2198"/>
</g>
<!-- Node11 -->
<g id="node12" class="node">
<title>Node11</title>
<g id="a_node12"><a xlink:href="classgko_1_1solver_1_1Bicg_1_1Factory.html" target="_top" xlink:title=" ">
<polygon fill="#ffffff" stroke="#000000" points="886,-748 886,-778 1008,-778 1008,-748 886,-748"/>
<text text-anchor="start" x="894" y="-766" font-family="Helvetica,sans-Serif" font-size="10.00" fill="#000000">gko::solver::Bicg&lt;</text>
<text text-anchor="middle" x="947" y="-755" font-family="Helvetica,sans-Serif" font-size="10.00" fill="#000000"> ValueType &gt;::Factory</text>
</a>
</g>
</g>
<!-- Node2&#45;&gt;Node11 -->
<g id="edge11" class="edge">
<title>Node2&#45;&gt;Node11</title>
<path fill="none" stroke="#191970" d="M737.9736,-620.1874C761.4273,-653.9049 804.4888,-708.6256 855,-739 864.3364,-744.6144 874.9737,-748.929 885.6206,-752.241"/>
<polygon fill="#191970" stroke="#191970" points="740.6954,-617.9667 732.1645,-611.6838 734.9153,-621.9153 740.6954,-617.9667"/>
</g>
<!-- Node12 -->
<g id="node13" class="node">
<title>Node12</title>
<g id="a_node13"><a xlink:href="classgko_1_1solver_1_1Bicgstab_1_1Factory.html" target="_top" xlink:title=" ">
<polygon fill="#ffffff" stroke="#000000" points="882,-699 882,-729 1012,-729 1012,-699 882,-699"/>
<text text-anchor="start" x="890" y="-717" font-family="Helvetica,sans-Serif" font-size="10.00" fill="#000000">gko::solver::Bicgstab</text>
<text text-anchor="middle" x="947" y="-706" font-family="Helvetica,sans-Serif" font-size="10.00" fill="#000000">&lt; ValueType &gt;::Factory</text>
</a>
</g>
</g>
<!-- Node2&#45;&gt;Node12 -->
<g id="edge12" class="edge">
<title>Node2&#45;&gt;Node12</title>
<path fill="none" stroke="#191970" d="M749.5235,-618.4308C775.7697,-640.6789 815.531,-671.3122 855,-690 863.3546,-693.9557 872.4564,-697.3293 881.5788,-700.1861"/>
<polygon fill="#191970" stroke="#191970" points="751.6931,-615.6805 741.8274,-611.818 747.1311,-620.9898 751.6931,-615.6805"/>
</g>
<!-- Node13 -->
<g id="node14" class="node">
<title>Node13</title>
<g id="a_node14"><a xlink:href="classgko_1_1solver_1_1Cg_1_1Factory.html" target="_top" xlink:title=" ">
<polygon fill="#ffffff" stroke="#000000" points="872,-650 872,-680 1022,-680 1022,-650 872,-650"/>
<text text-anchor="start" x="880" y="-668" font-family="Helvetica,sans-Serif" font-size="10.00" fill="#000000">gko::solver::Cg&lt; ValueType</text>
<text text-anchor="middle" x="947" y="-657" font-family="Helvetica,sans-Serif" font-size="10.00" fill="#000000"> &gt;::Factory</text>
</a>
</g>
</g>
<!-- Node2&#45;&gt;Node13 -->
<g id="edge13" class="edge">
<title>Node2&#45;&gt;Node13</title>
<path fill="none" stroke="#191970" d="M780.5858,-615.0808C803.7469,-623.7557 830.421,-633.2958 855,-641 864.9232,-644.1104 875.5341,-647.1434 885.8931,-649.9487"/>
<polygon fill="#191970" stroke="#191970" points="781.819,-611.8053 771.2273,-611.5515 779.349,-618.355 781.819,-611.8053"/>
</g>
<!-- Node14 -->
<g id="node15" class="node">
<title>Node14</title>
<g id="a_node15"><a xlink:href="classgko_1_1solver_1_1Cgs_1_1Factory.html" target="_top" xlink:title=" ">
<polygon fill="#ffffff" stroke="#000000" points="869.5,-601 869.5,-631 1024.5,-631 1024.5,-601 869.5,-601"/>
<text text-anchor="start" x="877.5" y="-619" font-family="Helvetica,sans-Serif" font-size="10.00" fill="#000000">gko::solver::Cgs&lt; ValueType</text>
<text text-anchor="middle" x="947" y="-608" font-family="Helvetica,sans-Serif" font-size="10.00" fill="#000000"> &gt;::Factory</text>
</a>
</g>
</g>
<!-- Node2&#45;&gt;Node14 -->
<g id="edge14" class="edge">
<title>Node2&#45;&gt;Node14</title>
<path fill="none" stroke="#191970" d="M829.3234,-603.0969C842.852,-604.5803 856.4497,-606.0712 869.3534,-607.4861"/>
<polygon fill="#191970" stroke="#191970" points="829.3261,-599.5763 819.0041,-601.9654 828.563,-606.5346 829.3261,-599.5763"/>
</g>
<!-- Node15 -->
<g id="node16" class="node">
<title>Node15</title>
<g id="a_node16"><a xlink:href="classgko_1_1solver_1_1Fcg_1_1Factory.html" target="_top" xlink:title=" ">
<polygon fill="#ffffff" stroke="#000000" points="870,-552 870,-582 1024,-582 1024,-552 870,-552"/>
<text text-anchor="start" x="878" y="-570" font-family="Helvetica,sans-Serif" font-size="10.00" fill="#000000">gko::solver::Fcg&lt; ValueType</text>
<text text-anchor="middle" x="947" y="-559" font-family="Helvetica,sans-Serif" font-size="10.00" fill="#000000"> &gt;::Factory</text>
</a>
</g>
</g>
<!-- Node2&#45;&gt;Node15 -->
<g id="edge15" class="edge">
<title>Node2&#45;&gt;Node15</title>
<path fill="none" stroke="#191970" d="M828.9961,-579.4215C842.753,-577.9734 856.5878,-576.5171 869.6978,-575.1371"/>
<polygon fill="#191970" stroke="#191970" points="828.5827,-575.9455 819.0041,-580.4733 829.3156,-582.9071 828.5827,-575.9455"/>
</g>
<!-- Node16 -->
<g id="node17" class="node">
<title>Node16</title>
<g id="a_node17"><a xlink:href="classgko_1_1solver_1_1Gmres_1_1Factory.html" target="_top" xlink:title=" ">
<polygon fill="#ffffff" stroke="#000000" points="882,-503 882,-533 1012,-533 1012,-503 882,-503"/>
<text text-anchor="start" x="890" y="-521" font-family="Helvetica,sans-Serif" font-size="10.00" fill="#000000">gko::solver::Gmres</text>
<text text-anchor="middle" x="947" y="-510" font-family="Helvetica,sans-Serif" font-size="10.00" fill="#000000">&lt; ValueType &gt;::Factory</text>
</a>
</g>
</g>
<!-- Node2&#45;&gt;Node16 -->
<g id="edge16" class="edge">
<title>Node2&#45;&gt;Node16</title>
<path fill="none" stroke="#191970" d="M783.6993,-567.0655C806.1546,-559.052 831.575,-550.3056 855,-543 865.9026,-539.5998 877.6115,-536.2163 888.9001,-533.0876"/>
<polygon fill="#191970" stroke="#191970" points="782.5018,-563.7767 774.2716,-570.4487 784.8662,-570.3653 782.5018,-563.7767"/>
</g>
<!-- Node17 -->
<g id="node18" class="node">
<title>Node17</title>
<g id="a_node18"><a xlink:href="classgko_1_1solver_1_1Idr_1_1Factory.html" target="_top" xlink:title=" ">
<polygon fill="#ffffff" stroke="#000000" points="872,-454 872,-484 1022,-484 1022,-454 872,-454"/>
<text text-anchor="start" x="880" y="-472" font-family="Helvetica,sans-Serif" font-size="10.00" fill="#000000">gko::solver::Idr&lt; ValueType</text>
<text text-anchor="middle" x="947" y="-461" font-family="Helvetica,sans-Serif" font-size="10.00" fill="#000000"> &gt;::Factory</text>
</a>
</g>
</g>
<!-- Node2&#45;&gt;Node17 -->
<g id="edge17" class="edge">
<title>Node2&#45;&gt;Node17</title>
<path fill="none" stroke="#191970" d="M749.5717,-563.8611C775.8469,-541.8468 815.6238,-511.5277 855,-493 862.1693,-489.6266 869.8844,-486.6745 877.6887,-484.1043"/>
<polygon fill="#191970" stroke="#191970" points="747.2233,-561.2636 741.8662,-570.4043 751.7543,-566.5994 747.2233,-561.2636"/>
</g>
<!-- Node18 -->
<g id="node19" class="node">
<title>Node18</title>
<g id="a_node19"><a xlink:href="classgko_1_1solver_1_1Ir_1_1Factory.html" target="_top" xlink:title=" ">
<polygon fill="#ffffff" stroke="#000000" points="875,-405 875,-435 1019,-435 1019,-405 875,-405"/>
<text text-anchor="start" x="883" y="-423" font-family="Helvetica,sans-Serif" font-size="10.00" fill="#000000">gko::solver::Ir&lt; ValueType</text>
<text text-anchor="middle" x="947" y="-412" font-family="Helvetica,sans-Serif" font-size="10.00" fill="#000000"> &gt;::Factory</text>
</a>
</g>
</g>
<!-- Node2&#45;&gt;Node18 -->
<g id="edge18" class="edge">
<title>Node2&#45;&gt;Node18</title>
<path fill="none" stroke="#191970" d="M738.0201,-562.013C761.5182,-528.5263 804.6225,-474.1782 855,-444 861.089,-440.3524 867.7281,-437.2531 874.5607,-434.6208"/>
<polygon fill="#191970" stroke="#191970" points="734.9924,-560.2383 732.1991,-570.4583 740.756,-564.2109 734.9924,-560.2383"/>
</g>
<!-- Node19 -->
<g id="node20" class="node">
<title>Node19</title>
<g id="a_node20"><a xlink:href="classgko_1_1solver_1_1LowerTrs_1_1Factory.html" target="_top" xlink:title=" ">
<polygon fill="#ffffff" stroke="#000000" points="880.5,-344.5 880.5,-385.5 1013.5,-385.5 1013.5,-344.5 880.5,-344.5"/>
<text text-anchor="start" x="888.5" y="-373.5" font-family="Helvetica,sans-Serif" font-size="10.00" fill="#000000">gko::solver::LowerTrs</text>
<text text-anchor="start" x="888.5" y="-362.5" font-family="Helvetica,sans-Serif" font-size="10.00" fill="#000000">&lt; ValueType, IndexType</text>
<text text-anchor="middle" x="947" y="-351.5" font-family="Helvetica,sans-Serif" font-size="10.00" fill="#000000"> &gt;::Factory</text>
</a>
</g>
</g>
<!-- Node2&#45;&gt;Node19 -->
<g id="edge19" class="edge">
<title>Node2&#45;&gt;Node19</title>
<path fill="none" stroke="#191970" d="M741.5799,-561.962C762.3994,-534.8056 793.7989,-492.8657 819,-455 836.2301,-429.1111 830.6785,-414.3797 855,-395 862.4892,-389.0325 871.2043,-384.2351 880.2282,-380.3826"/>
<polygon fill="#191970" stroke="#191970" points="738.538,-560.1759 735.2134,-570.2356 744.0857,-564.4449 738.538,-560.1759"/>
</g>
<!-- Node20 -->
<g id="node21" class="node">
<title>Node20</title>
<g id="a_node21"><a xlink:href="classgko_1_1solver_1_1UpperTrs_1_1Factory.html" target="_top" xlink:title=" ">
<polygon fill="#ffffff" stroke="#000000" points="880.5,-284.5 880.5,-325.5 1013.5,-325.5 1013.5,-284.5 880.5,-284.5"/>
<text text-anchor="start" x="888.5" y="-313.5" font-family="Helvetica,sans-Serif" font-size="10.00" fill="#000000">gko::solver::UpperTrs</text>
<text text-anchor="start" x="888.5" y="-302.5" font-family="Helvetica,sans-Serif" font-size="10.00" fill="#000000">&lt; ValueType, IndexType</text>
<text text-anchor="middle" x="947" y="-291.5" font-family="Helvetica,sans-Serif" font-size="10.00" fill="#000000"> &gt;::Factory</text>
</a>
</g>
</g>
<!-- Node2&#45;&gt;Node20 -->
<g id="edge20" class="edge">
<title>Node2&#45;&gt;Node20</title>
<path fill="none" stroke="#191970" d="M744.3526,-562.7C766.7314,-536.4313 798.8446,-495.4025 819,-455 843.8564,-405.1742 816.0976,-374.8378 855,-335 862.0424,-327.7882 870.8375,-322.309 880.1767,-318.1464"/>
<polygon fill="#191970" stroke="#191970" points="741.6254,-560.5031 737.744,-570.3614 746.926,-565.0753 741.6254,-560.5031"/>
</g>
<!-- Node21 -->
<g id="node22" class="node">
<title>Node21</title>
<g id="a_node22"><a xlink:href="classgko_1_1stop_1_1AbsoluteResidualNorm_1_1Factory.html" target="_top" xlink:title=" ">
<polygon fill="#ffffff" stroke="#000000" points="868.5,-235 868.5,-265 1025.5,-265 1025.5,-235 868.5,-235"/>
<text text-anchor="start" x="876.5" y="-253" font-family="Helvetica,sans-Serif" font-size="10.00" fill="#000000">gko::stop::AbsoluteResidual</text>
<text text-anchor="middle" x="947" y="-242" font-family="Helvetica,sans-Serif" font-size="10.00" fill="#000000">Norm&lt; ValueType &gt;::Factory</text>
</a>
</g>
</g>
<!-- Node2&#45;&gt;Node21 -->
<g id="edge21" class="edge">
<title>Node2&#45;&gt;Node21</title>
<path fill="none" stroke="#191970" d="M745.6735,-562.6695C768.6437,-536.6698 800.8736,-496.0624 819,-455 851.9469,-380.3642 799.3037,-334.6148 855,-275 858.8418,-270.8879 863.2859,-267.4271 868.1046,-264.5172"/>
<polygon fill="#191970" stroke="#191970" points="742.9417,-560.4733 738.868,-570.2537 748.1517,-565.1484 742.9417,-560.4733"/>
</g>
<!-- Node22 -->
<g id="node23" class="node">
<title>Node22</title>
<g id="a_node23"><a xlink:href="classgko_1_1stop_1_1Combined_1_1Factory.html" target="_top" xlink:title=" ">
<polygon fill="#ffffff" stroke="#000000" points="888.5,-186 888.5,-216 1005.5,-216 1005.5,-186 888.5,-186"/>
<text text-anchor="start" x="896.5" y="-204" font-family="Helvetica,sans-Serif" font-size="10.00" fill="#000000">gko::stop::Combined</text>
<text text-anchor="middle" x="947" y="-193" font-family="Helvetica,sans-Serif" font-size="10.00" fill="#000000">::Factory</text>
</a>
</g>
</g>
<!-- Node2&#45;&gt;Node22 -->
<g id="edge22" class="edge">
<title>Node2&#45;&gt;Node22</title>
<path fill="none" stroke="#191970" d="M746.0943,-562.8499C769.3419,-536.9693 801.7426,-496.4352 819,-455 858.7807,-359.4862 785.5829,-301.7245 855,-225 863.7489,-215.3301 875.8593,-209.3428 888.4233,-205.6862"/>
<polygon fill="#191970" stroke="#191970" points="743.3611,-560.6525 739.2002,-570.3962 748.5291,-565.3739 743.3611,-560.6525"/>
</g>
<!-- Node23 -->
<g id="node24" class="node">
<title>Node23</title>
<g id="a_node24"><a xlink:href="classgko_1_1stop_1_1Iteration_1_1Factory.html" target="_top" xlink:title=" ">
<polygon fill="#ffffff" stroke="#000000" points="892.5,-137 892.5,-167 1001.5,-167 1001.5,-137 892.5,-137"/>
<text text-anchor="start" x="900.5" y="-155" font-family="Helvetica,sans-Serif" font-size="10.00" fill="#000000">gko::stop::Iteration</text>
<text text-anchor="middle" x="947" y="-144" font-family="Helvetica,sans-Serif" font-size="10.00" fill="#000000">::Factory</text>
</a>
</g>
</g>
<!-- Node2&#45;&gt;Node23 -->
<g id="edge23" class="edge">
<title>Node2&#45;&gt;Node23</title>
<path fill="none" stroke="#191970" d="M746.3652,-562.9606C769.7916,-537.153 802.3022,-496.6638 819,-455 865.5116,-338.9454 772.3736,-269.8343 855,-176 864.4906,-165.2221 878.156,-158.9979 892.0625,-155.4772"/>
<polygon fill="#191970" stroke="#191970" points="743.6299,-560.7636 739.4142,-570.4836 748.7713,-565.5141 743.6299,-560.7636"/>
</g>
<!-- Node24 -->
<g id="node25" class="node">
<title>Node24</title>
<g id="a_node25"><a xlink:href="classgko_1_1stop_1_1RelativeResidualNorm_1_1Factory.html" target="_top" xlink:title=" ">
<polygon fill="#ffffff" stroke="#000000" points="868.5,-88 868.5,-118 1025.5,-118 1025.5,-88 868.5,-88"/>
<text text-anchor="start" x="876.5" y="-106" font-family="Helvetica,sans-Serif" font-size="10.00" fill="#000000">gko::stop::RelativeResidual</text>
<text text-anchor="middle" x="947" y="-95" font-family="Helvetica,sans-Serif" font-size="10.00" fill="#000000">Norm&lt; ValueType &gt;::Factory</text>
</a>
</g>
</g>
<!-- Node2&#45;&gt;Node24 -->
<g id="edge24" class="edge">
<title>Node2&#45;&gt;Node24</title>
<path fill="none" stroke="#191970" d="M746.9763,-562.5778C770.4954,-536.8002 802.7953,-496.5732 819,-455 845.6302,-386.68 807.0662,-182.4901 855,-127 858.7767,-122.628 863.2403,-119.0028 868.1325,-116.002"/>
<polygon fill="#191970" stroke="#191970" points="744.2302,-560.3914 739.9868,-570.0993 749.358,-565.1565 744.2302,-560.3914"/>
</g>
<!-- Node25 -->
<g id="node26" class="node">
<title>Node25</title>
<g id="a_node26"><a xlink:href="classgko_1_1stop_1_1ResidualNormReduction_1_1Factory.html" target="_top" xlink:title=" ">
<polygon fill="#ffffff" stroke="#000000" points="855,-39 855,-69 1039,-69 1039,-39 855,-39"/>
<text text-anchor="start" x="863" y="-57" font-family="Helvetica,sans-Serif" font-size="10.00" fill="#000000">gko::stop::ResidualNormReduction</text>
<text text-anchor="middle" x="947" y="-46" font-family="Helvetica,sans-Serif" font-size="10.00" fill="#000000">&lt; ValueType &gt;::Factory</text>
</a>
</g>
</g>
<!-- Node2&#45;&gt;Node25 -->
<g id="edge25" class="edge">
<title>Node2&#45;&gt;Node25</title>
<path fill="none" stroke="#191970" d="M747.1211,-562.6336C770.7336,-536.892 803.0892,-496.6865 819,-455 849.01,-376.3736 800.4361,-142.0741 855,-78 857.8896,-74.6068 861.193,-71.6624 864.7908,-69.1099"/>
<polygon fill="#191970" stroke="#191970" points="744.3731,-560.448 740.1017,-570.1437 749.4871,-565.2279 744.3731,-560.448"/>
</g>
<!-- Node26 -->
<g id="node27" class="node">
<title>Node26</title>
<g id="a_node27"><a xlink:href="classgko_1_1stop_1_1Time_1_1Factory.html" target="_top" xlink:title=" ">
<polygon fill="#ffffff" stroke="#000000" points="880,-.5 880,-19.5 1014,-19.5 1014,-.5 880,-.5"/>
<text text-anchor="middle" x="947" y="-7.5" font-family="Helvetica,sans-Serif" font-size="10.00" fill="#000000">gko::stop::Time::Factory</text>
</a>
</g>
</g>
<!-- Node2&#45;&gt;Node26 -->
<g id="edge26" class="edge">
<title>Node2&#45;&gt;Node26</title>
<path fill="none" stroke="#191970" d="M747.2331,-562.676C770.9178,-536.9618 803.3165,-496.7726 819,-455 852.3932,-366.058 791.9481,-100.065 855,-29 861.6027,-21.5582 870.2824,-16.5841 879.6743,-13.3242"/>
<polygon fill="#191970" stroke="#191970" points="744.4836,-560.4912 740.1906,-570.1773 749.5869,-565.2824 744.4836,-560.4912"/>
</g>
<!-- Node442 -->
<g id="node28" class="node">
<title>Node442</title>
<g id="a_node28"><a xlink:href="classgko_1_1ConvertibleTo.html" target="_top" xlink:title=" ">
<polygon fill="#ffffff" stroke="#000000" points="182.5,-314 182.5,-344 292.5,-344 292.5,-314 182.5,-314"/>
<text text-anchor="start" x="190.5" y="-332" font-family="Helvetica,sans-Serif" font-size="10.00" fill="#000000">gko::ConvertibleTo</text>
<text text-anchor="middle" x="237.5" y="-321" font-family="Helvetica,sans-Serif" font-size="10.00" fill="#000000">&lt; ConcreteLinOp &gt;</text>
</a>
</g>
</g>
<!-- Node443 -->
<g id="node29" class="node">
<title>Node443</title>
<g id="a_node29"><a xlink:href="classgko_1_1EnablePolymorphicAssignment.html" target="_top" xlink:title=" ">
<polygon fill="#ffffff" stroke="#000000" points="382.5,-347 382.5,-377 574.5,-377 574.5,-347 382.5,-347"/>
<text text-anchor="start" x="390.5" y="-365" font-family="Helvetica,sans-Serif" font-size="10.00" fill="#000000">gko::EnablePolymorphicAssignment</text>
<text text-anchor="middle" x="478.5" y="-354" font-family="Helvetica,sans-Serif" font-size="10.00" fill="#000000">&lt; ConcreteLinOp &gt;</text>
</a>
</g>
</g>
<!-- Node442&#45;&gt;Node443 -->
<g id="edge27" class="edge">
<title>Node442&#45;&gt;Node443</title>
<path fill="none" stroke="#191970" d="M303.011,-337.9704C327.4452,-341.3161 355.7195,-345.1877 382.34,-348.8329"/>
<polygon fill="#191970" stroke="#191970" points="303.1727,-334.4599 292.7903,-336.5709 302.223,-341.3952 303.1727,-334.4599"/>
</g>
<!-- Node98 -->
<g id="node30" class="node">
<title>Node98</title>
<g id="a_node30"><a xlink:href="classgko_1_1EnableLinOp.html" target="_top" xlink:title="The EnableLinOp mixin can be used to provide sensible default implementations of the majority of the ...">
<polygon fill="#ffffff" stroke="#000000" points="641,-416 641,-446 797,-446 797,-416 641,-416"/>
<text text-anchor="start" x="649" y="-434" font-family="Helvetica,sans-Serif" font-size="10.00" fill="#000000">gko::EnableLinOp&lt; Concrete</text>
<text text-anchor="middle" x="719" y="-423" font-family="Helvetica,sans-Serif" font-size="10.00" fill="#000000">LinOp, PolymorphicBase &gt;</text>
</a>
</g>
</g>
<!-- Node443&#45;&gt;Node98 -->
<g id="edge28" class="edge">
<title>Node443&#45;&gt;Node98</title>
<path fill="none" stroke="#191970" d="M540.6687,-379.8363C579.7402,-391.0461 629.5785,-405.3448 666.6303,-415.975"/>
<polygon fill="#191970" stroke="#191970" points="541.559,-376.4506 530.9816,-377.0571 539.6285,-383.1792 541.559,-376.4506"/>
</g>
<!-- Node68 -->
<g id="node31" class="node">
<title>Node68</title>
<g id="a_node31"><a xlink:title=" ">
<polygon fill="#ffffff" stroke="#bfbfbf" points="0,-464.5 0,-483.5 101,-483.5 101,-464.5 0,-464.5"/>
<text text-anchor="middle" x="50.5" y="-471.5" font-family="Helvetica,sans-Serif" font-size="10.00" fill="#000000">PolymorphicBase</text>
</a>
</g>
</g>
<!-- Node0 -->
<g id="node32" class="node">
<title>Node0</title>
<g id="a_node32"><a xlink:href="classgko_1_1EnableAbstractPolymorphicObject.html" target="_top" xlink:title=" ">
<polygon fill="#ffffff" stroke="#000000" points="150,-543.5 150,-584.5 325,-584.5 325,-543.5 150,-543.5"/>
<text text-anchor="start" x="158" y="-572.5" font-family="Helvetica,sans-Serif" font-size="10.00" fill="#000000">gko::EnableAbstractPolymorphic</text>
<text text-anchor="start" x="158" y="-561.5" font-family="Helvetica,sans-Serif" font-size="10.00" fill="#000000">Object&lt; ConcreteFactory,</text>
<text text-anchor="middle" x="237.5" y="-550.5" font-family="Helvetica,sans-Serif" font-size="10.00" fill="#000000"> PolymorphicBase &gt;</text>
</a>
</g>
</g>
<!-- Node68&#45;&gt;Node0 -->
<g id="edge29" class="edge">
<title>Node68&#45;&gt;Node0</title>
<path fill="none" stroke="#191970" d="M69.7579,-490.0372C86.5963,-503.3812 112.1743,-522.0608 137,-534 144.2203,-537.4724 151.9274,-540.6373 159.7408,-543.498"/>
<polygon fill="#191970" stroke="#191970" points="71.7781,-487.1699 61.7994,-483.6095 67.3798,-492.6156 71.7781,-487.1699"/>
</g>
<!-- Node96 -->
<g id="node34" class="node">
<title>Node96</title>
<g id="a_node34"><a xlink:href="classgko_1_1EnableAbstractPolymorphicObject.html" target="_top" xlink:title=" ">
<polygon fill="#ffffff" stroke="#000000" points="139,-483.5 139,-524.5 336,-524.5 336,-483.5 139,-483.5"/>
<text text-anchor="start" x="147" y="-512.5" font-family="Helvetica,sans-Serif" font-size="10.00" fill="#000000">gko::EnableAbstractPolymorphic</text>
<text text-anchor="start" x="147" y="-501.5" font-family="Helvetica,sans-Serif" font-size="10.00" fill="#000000">Object&lt; ConcreteLinOp, Polymorphic</text>
<text text-anchor="middle" x="237.5" y="-490.5" font-family="Helvetica,sans-Serif" font-size="10.00" fill="#000000">Base &gt;</text>
</a>
</g>
</g>
<!-- Node68&#45;&gt;Node96 -->
<g id="edge32" class="edge">
<title>Node68&#45;&gt;Node96</title>
<path fill="none" stroke="#191970" d="M111.016,-483.7084C119.9879,-485.1478 129.4246,-486.6617 138.9314,-488.1869"/>
<polygon fill="#191970" stroke="#191970" points="111.5331,-480.2467 101.1049,-482.1184 110.4242,-487.1584 111.5331,-480.2467"/>
</g>
<!-- Node99 -->
<g id="node36" class="node">
<title>Node99</title>
<g id="a_node36"><a xlink:href="classgko_1_1EnableAbstractPolymorphicObject.html" target="_top" xlink:title=" ">
<polygon fill="#ffffff" stroke="#000000" points="137,-423.5 137,-464.5 338,-464.5 338,-423.5 137,-423.5"/>
<text text-anchor="start" x="145" y="-452.5" font-family="Helvetica,sans-Serif" font-size="10.00" fill="#000000">gko::EnableAbstractPolymorphic</text>
<text text-anchor="start" x="145" y="-441.5" font-family="Helvetica,sans-Serif" font-size="10.00" fill="#000000">Object&lt; ConcreteObject, Polymorphic</text>
<text text-anchor="middle" x="237.5" y="-430.5" font-family="Helvetica,sans-Serif" font-size="10.00" fill="#000000">Base &gt;</text>
</a>
</g>
</g>
<!-- Node68&#45;&gt;Node99 -->
<g id="edge35" class="edge">
<title>Node68&#45;&gt;Node99</title>
<path fill="none" stroke="#191970" d="M111.0054,-464.2933C119.3008,-462.9624 127.9936,-461.5679 136.772,-460.1596"/>
<polygon fill="#191970" stroke="#191970" points="110.4242,-460.8416 101.1049,-465.8816 111.5331,-467.7533 110.4242,-460.8416"/>
</g>
<!-- Node101 -->
<g id="node38" class="node">
<title>Node101</title>
<g id="a_node38"><a xlink:href="classgko_1_1EnableAbstractPolymorphicObject.html" target="_top" xlink:title="This mixin inherits from (a subclass of) PolymorphicObject and provides a base implementation of a ne...">
<polygon fill="#ffffff" stroke="#000000" points="138.5,-363.5 138.5,-404.5 336.5,-404.5 336.5,-363.5 138.5,-363.5"/>
<text text-anchor="start" x="146.5" y="-392.5" font-family="Helvetica,sans-Serif" font-size="10.00" fill="#000000">gko::EnableAbstractPolymorphic</text>
<text text-anchor="start" x="146.5" y="-381.5" font-family="Helvetica,sans-Serif" font-size="10.00" fill="#000000">Object&lt; AbstractObject, Polymorphic</text>
<text text-anchor="middle" x="237.5" y="-370.5" font-family="Helvetica,sans-Serif" font-size="10.00" fill="#000000">Base &gt;</text>
</a>
</g>
</g>
<!-- Node68&#45;&gt;Node101 -->
<g id="edge37" class="edge">
<title>Node68&#45;&gt;Node101</title>
<path fill="none" stroke="#191970" d="M69.7579,-457.9628C86.5963,-444.6188 112.1743,-425.9392 137,-414 144.2203,-410.5276 151.9274,-407.3627 159.7408,-404.502"/>
<polygon fill="#191970" stroke="#191970" points="67.3798,-455.3844 61.7994,-464.3905 71.7781,-460.8301 67.3798,-455.3844"/>
</g>
<!-- Node1 -->
<g id="node33" class="node">
<title>Node1</title>
<g id="a_node33"><a xlink:href="classgko_1_1EnablePolymorphicObject.html" target="_top" xlink:title=" ">
<polygon fill="#ffffff" stroke="#000000" points="374,-550 374,-580 583,-580 583,-550 374,-550"/>
<text text-anchor="start" x="382" y="-568" font-family="Helvetica,sans-Serif" font-size="10.00" fill="#000000">gko::EnablePolymorphicObject</text>
<text text-anchor="middle" x="478.5" y="-557" font-family="Helvetica,sans-Serif" font-size="10.00" fill="#000000">&lt; ConcreteFactory, PolymorphicBase &gt;</text>
</a>
</g>
</g>
<!-- Node0&#45;&gt;Node1 -->
<g id="edge30" class="edge">
<title>Node0&#45;&gt;Node1</title>
<path fill="none" stroke="#191970" d="M335.2497,-564.4056C347.9022,-564.4581 360.902,-564.512 373.6633,-564.565"/>
<polygon fill="#191970" stroke="#191970" points="335.2027,-560.9055 325.1883,-564.3639 335.1736,-567.9054 335.2027,-560.9055"/>
</g>
<!-- Node1&#45;&gt;Node2 -->
<g id="edge31" class="edge">
<title>Node1&#45;&gt;Node2</title>
<path fill="none" stroke="#191970" d="M593.2573,-577.4062C601.7736,-578.3269 610.3266,-579.2515 618.7451,-580.1616"/>
<polygon fill="#191970" stroke="#191970" points="593.6055,-573.9235 583.2872,-576.3283 592.853,-580.883 593.6055,-573.9235"/>
</g>
<!-- Node97 -->
<g id="node35" class="node">
<title>Node97</title>
<g id="a_node35"><a xlink:href="classgko_1_1EnablePolymorphicObject.html" target="_top" xlink:title=" ">
<polygon fill="#ffffff" stroke="#000000" points="378,-484 378,-514 579,-514 579,-484 378,-484"/>
<text text-anchor="start" x="386" y="-502" font-family="Helvetica,sans-Serif" font-size="10.00" fill="#000000">gko::EnablePolymorphicObject</text>
<text text-anchor="middle" x="478.5" y="-491" font-family="Helvetica,sans-Serif" font-size="10.00" fill="#000000">&lt; ConcreteLinOp, PolymorphicBase &gt;</text>
</a>
</g>
</g>
<!-- Node96&#45;&gt;Node97 -->
<g id="edge33" class="edge">
<title>Node96&#45;&gt;Node97</title>
<path fill="none" stroke="#191970" d="M346.2891,-501.743C356.8418,-501.524 367.5155,-501.3026 377.9822,-501.0854"/>
<polygon fill="#191970" stroke="#191970" points="346.1445,-498.2451 336.2193,-501.9519 346.2898,-505.2436 346.1445,-498.2451"/>
</g>
<!-- Node97&#45;&gt;Node98 -->
<g id="edge34" class="edge">
<title>Node97&#45;&gt;Node98</title>
<path fill="none" stroke="#191970" d="M541.657,-481.1427C580.2306,-470.2363 629.011,-456.4439 665.6439,-446.0861"/>
<polygon fill="#191970" stroke="#191970" points="540.2469,-477.9041 531.5765,-483.9929 542.1515,-484.64 540.2469,-477.9041"/>
</g>
<!-- Node100 -->
<g id="node37" class="node">
<title>Node100</title>
<g id="a_node37"><a xlink:href="classgko_1_1EnablePolymorphicObject.html" target="_top" xlink:title="This mixin inherits from (a subclass of) PolymorphicObject and provides a base implementation of a ne...">
<polygon fill="#ffffff" stroke="#000000" points="376,-429 376,-459 581,-459 581,-429 376,-429"/>
<text text-anchor="start" x="384" y="-447" font-family="Helvetica,sans-Serif" font-size="10.00" fill="#000000">gko::EnablePolymorphicObject</text>
<text text-anchor="middle" x="478.5" y="-436" font-family="Helvetica,sans-Serif" font-size="10.00" fill="#000000">&lt; ConcreteObject, PolymorphicBase &gt;</text>
</a>
</g>
</g>
<!-- Node99&#45;&gt;Node100 -->
<g id="edge36" class="edge">
<title>Node99&#45;&gt;Node100</title>
<path fill="none" stroke="#191970" d="M348.5197,-444C357.6003,-444 366.753,-444 375.7701,-444"/>
<polygon fill="#191970" stroke="#191970" points="348.3093,-440.5001 338.3093,-444 348.3093,-447.5001 348.3093,-440.5001"/>
</g>
</g>
</svg>
