<?xml version="1.0" encoding="UTF-8" standalone="no"?>
<!DOCTYPE svg PUBLIC "-//W3C//DTD SVG 1.1//EN"
 "http://www.w3.org/Graphics/SVG/1.1/DTD/svg11.dtd">
<!-- Generated by graphviz version 2.40.1 (20161225.0304)
 -->
<!-- Title: Graphical Class Hierarchy Pages: 1 -->
<svg width="911pt" height="241pt"
 viewBox="0.00 0.00 911.00 241.00" xmlns="http://www.w3.org/2000/svg" xmlns:xlink="http://www.w3.org/1999/xlink">
<g id="graph0" class="graph" transform="scale(1 1) rotate(0) translate(4 237)">
<title>Graphical Class Hierarchy</title>
<polygon fill="#ffffff" stroke="transparent" points="-4,4 -4,-237 907,-237 907,4 -4,4"/>
<!-- Node389 -->
<g id="node1" class="node">
<title>Node389</title>
<g id="a_node1"><a xlink:title=" ">
<polygon fill="#ffffff" stroke="#bfbfbf" points="0,-131 0,-150 59,-150 59,-131 0,-131"/>
<text text-anchor="middle" x="29.5" y="-138" font-family="Helvetica,sans-Serif" font-size="10.00" fill="#000000">Criterion</text>
</a>
</g>
</g>
<!-- Node0 -->
<g id="node2" class="node">
<title>Node0</title>
<g id="a_node2"><a xlink:href="classgko_1_1EnableAbstractPolymorphicObject.html" target="_top" xlink:title=" ">
<polygon fill="#ffffff" stroke="#000000" points="95,-202.5 95,-232.5 270,-232.5 270,-202.5 95,-202.5"/>
<text text-anchor="start" x="103" y="-220.5" font-family="Helvetica,sans-Serif" font-size="10.00" fill="#000000">gko::EnableAbstractPolymorphic</text>
<text text-anchor="middle" x="182.5" y="-209.5" font-family="Helvetica,sans-Serif" font-size="10.00" fill="#000000">Object&lt; Combined, Criterion &gt;</text>
</a>
</g>
</g>
<!-- Node389&#45;&gt;Node0 -->
<g id="edge1" class="edge">
<title>Node389&#45;&gt;Node0</title>
<path fill="none" stroke="#191970" d="M46.1432,-157.254C58.6184,-168.9435 76.6364,-184.0793 95,-193.5 101.5872,-196.8793 108.705,-199.8267 115.9366,-202.387"/>
<polygon fill="#191970" stroke="#191970" points="48.4238,-154.5908 38.7977,-150.1647 43.5626,-159.6276 48.4238,-154.5908"/>
</g>
<!-- Node393 -->
<g id="node5" class="node">
<title>Node393</title>
<g id="a_node5"><a xlink:href="classgko_1_1EnableAbstractPolymorphicObject.html" target="_top" xlink:title=" ">
<polygon fill="#ffffff" stroke="#000000" points="95,-153.5 95,-183.5 270,-183.5 270,-153.5 95,-153.5"/>
<text text-anchor="start" x="103" y="-171.5" font-family="Helvetica,sans-Serif" font-size="10.00" fill="#000000">gko::EnableAbstractPolymorphic</text>
<text text-anchor="middle" x="182.5" y="-160.5" font-family="Helvetica,sans-Serif" font-size="10.00" fill="#000000">Object&lt; Iteration, Criterion &gt;</text>
</a>
</g>
</g>
<!-- Node389&#45;&gt;Node393 -->
<g id="edge4" class="edge">
<title>Node389&#45;&gt;Node393</title>
<path fill="none" stroke="#191970" d="M69.3333,-147.7898C78.923,-149.5447 89.5195,-151.484 100.2678,-153.451"/>
<polygon fill="#191970" stroke="#191970" points="69.8299,-144.3226 59.3631,-145.9652 68.5697,-151.2082 69.8299,-144.3226"/>
</g>
<!-- Node396 -->
<g id="node8" class="node">
<title>Node396</title>
<g id="a_node8"><a xlink:href="classgko_1_1EnableAbstractPolymorphicObject.html" target="_top" xlink:title=" ">
<polygon fill="#ffffff" stroke="#000000" points="95,-93 95,-134 270,-134 270,-93 95,-93"/>
<text text-anchor="start" x="103" y="-122" font-family="Helvetica,sans-Serif" font-size="10.00" fill="#000000">gko::EnableAbstractPolymorphic</text>
<text text-anchor="start" x="103" y="-111" font-family="Helvetica,sans-Serif" font-size="10.00" fill="#000000">Object&lt; ResidualNormBase</text>
<text text-anchor="middle" x="182.5" y="-100" font-family="Helvetica,sans-Serif" font-size="10.00" fill="#000000">&lt; ValueType &gt;, Criterion &gt;</text>
</a>
</g>
</g>
<!-- Node389&#45;&gt;Node396 -->
<g id="edge7" class="edge">
<title>Node389&#45;&gt;Node396</title>
<path fill="none" stroke="#191970" d="M69.3825,-133.4619C77.3382,-132.058 85.9855,-130.532 94.8365,-128.97"/>
<polygon fill="#191970" stroke="#191970" points="68.6027,-130.0454 59.3631,-135.23 69.8193,-136.9388 68.6027,-130.0454"/>
</g>
<!-- Node404 -->
<g id="node16" class="node">
<title>Node404</title>
<g id="a_node16"><a xlink:href="classgko_1_1EnableAbstractPolymorphicObject.html" target="_top" xlink:title=" ">
<polygon fill="#ffffff" stroke="#000000" points="95,-43.5 95,-73.5 270,-73.5 270,-43.5 95,-43.5"/>
<text text-anchor="start" x="103" y="-61.5" font-family="Helvetica,sans-Serif" font-size="10.00" fill="#000000">gko::EnableAbstractPolymorphic</text>
<text text-anchor="middle" x="182.5" y="-50.5" font-family="Helvetica,sans-Serif" font-size="10.00" fill="#000000">Object&lt; Time, Criterion &gt;</text>
</a>
</g>
</g>
<!-- Node389&#45;&gt;Node404 -->
<g id="edge15" class="edge">
<title>Node389&#45;&gt;Node404</title>
<path fill="none" stroke="#191970" d="M44.7367,-123.7212C57.1358,-111.0026 75.6893,-93.9796 95,-83.5 102.0818,-79.6568 109.8146,-76.3527 117.6581,-73.5254"/>
<polygon fill="#191970" stroke="#191970" points="42.1918,-121.3184 37.86,-130.9872 47.2759,-126.13 42.1918,-121.3184"/>
</g>
<!-- Node1 -->
<g id="node3" class="node">
<title>Node1</title>
<g id="a_node3"><a xlink:href="classgko_1_1EnablePolymorphicObject.html" target="_top" xlink:title=" ">
<polygon fill="#ffffff" stroke="#000000" points="313.5,-202.5 313.5,-232.5 479.5,-232.5 479.5,-202.5 313.5,-202.5"/>
<text text-anchor="start" x="321.5" y="-220.5" font-family="Helvetica,sans-Serif" font-size="10.00" fill="#000000">gko::EnablePolymorphicObject</text>
<text text-anchor="middle" x="396.5" y="-209.5" font-family="Helvetica,sans-Serif" font-size="10.00" fill="#000000">&lt; Combined, Criterion &gt;</text>
</a>
</g>
</g>
<!-- Node0&#45;&gt;Node1 -->
<g id="edge2" class="edge">
<title>Node0&#45;&gt;Node1</title>
<path fill="none" stroke="#191970" d="M280.2882,-217.5C291.373,-217.5 302.5906,-217.5 313.4605,-217.5"/>
<polygon fill="#191970" stroke="#191970" points="280.1595,-214.0001 270.1595,-217.5 280.1594,-221.0001 280.1595,-214.0001"/>
</g>
<!-- Node2 -->
<g id="node4" class="node">
<title>Node2</title>
<g id="a_node4"><a xlink:href="classgko_1_1stop_1_1Combined.html" target="_top" xlink:title="The Combined class is used to combine multiple criterions together through an OR operation.">
<polygon fill="#ffffff" stroke="#000000" points="544.5,-208 544.5,-227 661.5,-227 661.5,-208 544.5,-208"/>
<text text-anchor="middle" x="603" y="-215" font-family="Helvetica,sans-Serif" font-size="10.00" fill="#000000">gko::stop::Combined</text>
</a>
</g>
</g>
<!-- Node1&#45;&gt;Node2 -->
<g id="edge3" class="edge">
<title>Node1&#45;&gt;Node2</title>
<path fill="none" stroke="#191970" d="M489.6076,-217.5C508.2778,-217.5 527.3946,-217.5 544.4844,-217.5"/>
<polygon fill="#191970" stroke="#191970" points="489.5989,-214.0001 479.5988,-217.5 489.5988,-221.0001 489.5989,-214.0001"/>
</g>
<!-- Node394 -->
<g id="node6" class="node">
<title>Node394</title>
<g id="a_node6"><a xlink:href="classgko_1_1EnablePolymorphicObject.html" target="_top" xlink:title=" ">
<polygon fill="#ffffff" stroke="#000000" points="313.5,-153.5 313.5,-183.5 479.5,-183.5 479.5,-153.5 313.5,-153.5"/>
<text text-anchor="start" x="321.5" y="-171.5" font-family="Helvetica,sans-Serif" font-size="10.00" fill="#000000">gko::EnablePolymorphicObject</text>
<text text-anchor="middle" x="396.5" y="-160.5" font-family="Helvetica,sans-Serif" font-size="10.00" fill="#000000">&lt; Iteration, Criterion &gt;</text>
</a>
</g>
</g>
<!-- Node393&#45;&gt;Node394 -->
<g id="edge5" class="edge">
<title>Node393&#45;&gt;Node394</title>
<path fill="none" stroke="#191970" d="M280.2882,-168.5C291.373,-168.5 302.5906,-168.5 313.4605,-168.5"/>
<polygon fill="#191970" stroke="#191970" points="280.1595,-165.0001 270.1595,-168.5 280.1594,-172.0001 280.1595,-165.0001"/>
</g>
<!-- Node395 -->
<g id="node7" class="node">
<title>Node395</title>
<g id="a_node7"><a xlink:href="classgko_1_1stop_1_1Iteration.html" target="_top" xlink:title="The Iteration class is a stopping criterion which stops the iteration process after a preset number o...">
<polygon fill="#ffffff" stroke="#000000" points="548.5,-159 548.5,-178 657.5,-178 657.5,-159 548.5,-159"/>
<text text-anchor="middle" x="603" y="-166" font-family="Helvetica,sans-Serif" font-size="10.00" fill="#000000">gko::stop::Iteration</text>
</a>
</g>
</g>
<!-- Node394&#45;&gt;Node395 -->
<g id="edge6" class="edge">
<title>Node394&#45;&gt;Node395</title>
<path fill="none" stroke="#191970" d="M489.7313,-168.5C509.8383,-168.5 530.4569,-168.5 548.4982,-168.5"/>
<polygon fill="#191970" stroke="#191970" points="489.5989,-165.0001 479.5988,-168.5 489.5988,-172.0001 489.5989,-165.0001"/>
</g>
<!-- Node397 -->
<g id="node9" class="node">
<title>Node397</title>
<g id="a_node9"><a xlink:href="classgko_1_1EnablePolymorphicObject.html" target="_top" xlink:title=" ">
<polygon fill="#ffffff" stroke="#000000" points="306,-93 306,-134 487,-134 487,-93 306,-93"/>
<text text-anchor="start" x="314" y="-122" font-family="Helvetica,sans-Serif" font-size="10.00" fill="#000000">gko::EnablePolymorphicObject</text>
<text text-anchor="start" x="314" y="-111" font-family="Helvetica,sans-Serif" font-size="10.00" fill="#000000">&lt; ResidualNormBase&lt; ValueType</text>
<text text-anchor="middle" x="396.5" y="-100" font-family="Helvetica,sans-Serif" font-size="10.00" fill="#000000"> &gt;, Criterion &gt;</text>
</a>
</g>
</g>
<!-- Node396&#45;&gt;Node397 -->
<g id="edge8" class="edge">
<title>Node396&#45;&gt;Node397</title>
<path fill="none" stroke="#191970" d="M280.436,-113.5C288.9037,-113.5 297.4477,-113.5 305.8538,-113.5"/>
<polygon fill="#191970" stroke="#191970" points="280.1595,-110.0001 270.1595,-113.5 280.1594,-117.0001 280.1595,-110.0001"/>
</g>
<!-- Node398 -->
<g id="node10" class="node">
<title>Node398</title>
<g id="a_node10"><a xlink:href="classgko_1_1stop_1_1ResidualNormBase.html" target="_top" xlink:title="The ResidualNormBase class provides a framework for stopping criteria related to the residual norm.">
<polygon fill="#ffffff" stroke="#000000" points="523,-98.5 523,-128.5 683,-128.5 683,-98.5 523,-98.5"/>
<text text-anchor="start" x="531" y="-116.5" font-family="Helvetica,sans-Serif" font-size="10.00" fill="#000000">gko::stop::ResidualNormBase</text>
<text text-anchor="middle" x="603" y="-105.5" font-family="Helvetica,sans-Serif" font-size="10.00" fill="#000000">&lt; ValueType &gt;</text>
</a>
</g>
</g>
<!-- Node397&#45;&gt;Node398 -->
<g id="edge9" class="edge">
<title>Node397&#45;&gt;Node398</title>
<path fill="none" stroke="#191970" d="M497.1716,-113.5C505.795,-113.5 514.4425,-113.5 522.8731,-113.5"/>
<polygon fill="#191970" stroke="#191970" points="497.0739,-110.0001 487.0739,-113.5 497.0739,-117.0001 497.0739,-110.0001"/>
</g>
<!-- Node399 -->
<g id="node11" class="node">
<title>Node399</title>
<g id="a_node11"><a xlink:href="classgko_1_1stop_1_1AbsoluteResidualNorm.html" target="_top" xlink:title="The AbsoluteResidualNorm class is a stopping criterion which stops the iteration process when the res...">
<polygon fill="#ffffff" stroke="#000000" points="735,-196.5 735,-226.5 887,-226.5 887,-196.5 735,-196.5"/>
<text text-anchor="start" x="743" y="-214.5" font-family="Helvetica,sans-Serif" font-size="10.00" fill="#000000">gko::stop::AbsoluteResidual</text>
<text text-anchor="middle" x="811" y="-203.5" font-family="Helvetica,sans-Serif" font-size="10.00" fill="#000000">Norm&lt; ValueType &gt;</text>
</a>
</g>
</g>
<!-- Node398&#45;&gt;Node399 -->
<g id="edge10" class="edge">
<title>Node398&#45;&gt;Node399</title>
<path fill="none" stroke="#191970" d="M653.7332,-132.7232C663.8296,-137.5285 674.064,-143.1523 683,-149.5 701.9663,-162.9727 698.9721,-175.6628 719,-187.5 724.8262,-190.9435 731.1461,-193.8996 737.6519,-196.4361"/>
<polygon fill="#191970" stroke="#191970" points="655.0928,-129.4966 644.541,-128.543 652.1951,-135.8687 655.0928,-129.4966"/>
</g>
<!-- Node400 -->
<g id="node12" class="node">
<title>Node400</title>
<g id="a_node12"><a xlink:href="classgko_1_1stop_1_1ImplicitResidualNorm.html" target="_top" xlink:title="The ImplicitResidualNorm class is a stopping criterion which stops the iteration process when the imp...">
<polygon fill="#ffffff" stroke="#000000" points="738,-147.5 738,-177.5 884,-177.5 884,-147.5 738,-147.5"/>
<text text-anchor="start" x="746" y="-165.5" font-family="Helvetica,sans-Serif" font-size="10.00" fill="#000000">gko::stop::ImplicitResidual</text>
<text text-anchor="middle" x="811" y="-154.5" font-family="Helvetica,sans-Serif" font-size="10.00" fill="#000000">Norm&lt; ValueType &gt;</text>
</a>
</g>
</g>
<!-- Node398&#45;&gt;Node400 -->
<g id="edge11" class="edge">
<title>Node398&#45;&gt;Node400</title>
<path fill="none" stroke="#191970" d="M676.5681,-130.8309C699.6613,-136.2712 724.9496,-142.2285 747.3003,-147.4938"/>
<polygon fill="#191970" stroke="#191970" points="677.3565,-127.4209 666.8204,-128.5346 675.7514,-134.2344 677.3565,-127.4209"/>
</g>
<!-- Node401 -->
<g id="node13" class="node">
<title>Node401</title>
<g id="a_node13"><a xlink:href="classgko_1_1stop_1_1RelativeResidualNorm.html" target="_top" xlink:title="The RelativeResidualNorm class is a stopping criterion which stops the iteration process when the res...">
<polygon fill="#ffffff" stroke="#000000" points="736.5,-98.5 736.5,-128.5 885.5,-128.5 885.5,-98.5 736.5,-98.5"/>
<text text-anchor="start" x="744.5" y="-116.5" font-family="Helvetica,sans-Serif" font-size="10.00" fill="#000000">gko::stop::RelativeResidual</text>
<text text-anchor="middle" x="811" y="-105.5" font-family="Helvetica,sans-Serif" font-size="10.00" fill="#000000">Norm&lt; ValueType &gt;</text>
</a>
</g>
</g>
<!-- Node398&#45;&gt;Node401 -->
<g id="edge12" class="edge">
<title>Node398&#45;&gt;Node401</title>
<path fill="none" stroke="#191970" d="M693.4736,-113.5C707.798,-113.5 722.4706,-113.5 736.3795,-113.5"/>
<polygon fill="#191970" stroke="#191970" points="693.1207,-110.0001 683.1207,-113.5 693.1207,-117.0001 693.1207,-110.0001"/>
</g>
<!-- Node402 -->
<g id="node14" class="node">
<title>Node402</title>
<g id="a_node14"><a xlink:href="classgko_1_1stop_1_1ResidualNorm.html" target="_top" xlink:title="The ResidualNorm class is a stopping criterion which stops the iteration process when the actual resi...">
<polygon fill="#ffffff" stroke="#000000" points="743,-49.5 743,-79.5 879,-79.5 879,-49.5 743,-49.5"/>
<text text-anchor="start" x="751" y="-67.5" font-family="Helvetica,sans-Serif" font-size="10.00" fill="#000000">gko::stop::ResidualNorm</text>
<text text-anchor="middle" x="811" y="-56.5" font-family="Helvetica,sans-Serif" font-size="10.00" fill="#000000">&lt; ValueType &gt;</text>
</a>
</g>
</g>
<!-- Node398&#45;&gt;Node402 -->
<g id="edge13" class="edge">
<title>Node398&#45;&gt;Node402</title>
<path fill="none" stroke="#191970" d="M676.5681,-96.1691C699.6613,-90.7288 724.9496,-84.7715 747.3003,-79.5062"/>
<polygon fill="#191970" stroke="#191970" points="675.7514,-92.7656 666.8204,-98.4654 677.3565,-99.5791 675.7514,-92.7656"/>
</g>
<!-- Node403 -->
<g id="node15" class="node">
<title>Node403</title>
<g id="a_node15"><a xlink:href="classgko_1_1stop_1_1ResidualNormReduction.html" target="_top" xlink:title="The ResidualNormReduction class is a stopping criterion which stops the iteration process when the re...">
<polygon fill="#ffffff" stroke="#000000" points="719,-.5 719,-30.5 903,-30.5 903,-.5 719,-.5"/>
<text text-anchor="start" x="727" y="-18.5" font-family="Helvetica,sans-Serif" font-size="10.00" fill="#000000">gko::stop::ResidualNormReduction</text>
<text text-anchor="middle" x="811" y="-7.5" font-family="Helvetica,sans-Serif" font-size="10.00" fill="#000000">&lt; ValueType &gt;</text>
</a>
</g>
</g>
<!-- Node398&#45;&gt;Node403 -->
<g id="edge14" class="edge">
<title>Node398&#45;&gt;Node403</title>
<path fill="none" stroke="#191970" d="M653.668,-94.1843C663.7691,-89.3857 674.0219,-83.788 683,-77.5 701.793,-64.3379 699.2296,-52.1427 719,-40.5 725.5606,-36.6365 732.7339,-33.3543 740.088,-30.5691"/>
<polygon fill="#191970" stroke="#191970" points="652.13,-91.0387 644.475,-98.3634 655.0269,-97.4112 652.13,-91.0387"/>
</g>
<!-- Node405 -->
<g id="node17" class="node">
<title>Node405</title>
<g id="a_node17"><a xlink:href="classgko_1_1EnablePolymorphicObject.html" target="_top" xlink:title=" ">
<polygon fill="#ffffff" stroke="#000000" points="313.5,-43.5 313.5,-73.5 479.5,-73.5 479.5,-43.5 313.5,-43.5"/>
<text text-anchor="start" x="321.5" y="-61.5" font-family="Helvetica,sans-Serif" font-size="10.00" fill="#000000">gko::EnablePolymorphicObject</text>
<text text-anchor="middle" x="396.5" y="-50.5" font-family="Helvetica,sans-Serif" font-size="10.00" fill="#000000">&lt; Time, Criterion &gt;</text>
</a>
</g>
</g>
<!-- Node404&#45;&gt;Node405 -->
<g id="edge16" class="edge">
<title>Node404&#45;&gt;Node405</title>
<path fill="none" stroke="#191970" d="M280.2882,-58.5C291.373,-58.5 302.5906,-58.5 313.4605,-58.5"/>
<polygon fill="#191970" stroke="#191970" points="280.1595,-55.0001 270.1595,-58.5 280.1594,-62.0001 280.1595,-55.0001"/>
</g>
<!-- Node406 -->
<g id="node18" class="node">
<title>Node406</title>
<g id="a_node18"><a xlink:href="classgko_1_1stop_1_1Time.html" target="_top" xlink:title="The Time class is a stopping criterion which stops the iteration process after a certain amout of tim...">
<polygon fill="#ffffff" stroke="#000000" points="557,-49 557,-68 649,-68 649,-49 557,-49"/>
<text text-anchor="middle" x="603" y="-56" font-family="Helvetica,sans-Serif" font-size="10.00" fill="#000000">gko::stop::Time</text>
</a>
</g>
</g>
<!-- Node405&#45;&gt;Node406 -->
<g id="edge17" class="edge">
<title>Node405&#45;&gt;Node406</title>
<path fill="none" stroke="#191970" d="M489.8591,-58.5C513.1053,-58.5 537.0264,-58.5 556.8507,-58.5"/>
<polygon fill="#191970" stroke="#191970" points="489.5989,-55.0001 479.5988,-58.5 489.5988,-62.0001 489.5989,-55.0001"/>
</g>
</g>
</svg>
