<?xml version="1.0" encoding="UTF-8" standalone="no"?>
<!DOCTYPE svg PUBLIC "-//W3C//DTD SVG 1.1//EN"
 "http://www.w3.org/Graphics/SVG/1.1/DTD/svg11.dtd">
<!-- Generated by graphviz version 2.40.1 (20161225.0304)
 -->
<!-- Title: Graphical Class Hierarchy Pages: 1 -->
<svg width="236pt" height="50pt"
 viewBox="0.00 0.00 236.00 50.00" xmlns="http://www.w3.org/2000/svg" xmlns:xlink="http://www.w3.org/1999/xlink">
<g id="graph0" class="graph" transform="scale(1 1) rotate(0) translate(4 46)">
<title>Graphical Class Hierarchy</title>
<polygon fill="#ffffff" stroke="transparent" points="-4,4 -4,-46 232,-46 232,4 -4,4"/>
<!-- Node322 -->
<g id="node1" class="node">
<title>Node322</title>
<g id="a_node1"><a xlink:title=" ">
<polygon fill="#ffffff" stroke="#bfbfbf" points="0,-11.5 0,-30.5 68,-30.5 68,-11.5 0,-11.5"/>
<text text-anchor="middle" x="34" y="-18.5" font-family="Helvetica,sans-Serif" font-size="10.00" fill="#000000">false_type</text>
</a>
</g>
</g>
<!-- Node0 -->
<g id="node2" class="node">
<title>Node0</title>
<g id="a_node2"><a xlink:href="structgko_1_1solver_1_1has__with__criteria.html" target="_top" xlink:title="Helper structure to test if the Factory of SolverType has a function with_criteria.">
<polygon fill="#ffffff" stroke="#000000" points="104,-.5 104,-41.5 228,-41.5 228,-.5 104,-.5"/>
<text text-anchor="start" x="112" y="-29.5" font-family="Helvetica,sans-Serif" font-size="10.00" fill="#000000">gko::solver::has_with</text>
<text text-anchor="start" x="112" y="-18.5" font-family="Helvetica,sans-Serif" font-size="10.00" fill="#000000">_criteria&lt; SolverType,</text>
<text text-anchor="middle" x="166" y="-7.5" font-family="Helvetica,sans-Serif" font-size="10.00" fill="#000000"> typename &gt;</text>
</a>
</g>
</g>
<!-- Node322&#45;&gt;Node0 -->
<g id="edge1" class="edge">
<title>Node322&#45;&gt;Node0</title>
<path fill="none" stroke="#191970" d="M78.4222,-21C86.6307,-21 95.3395,-21 103.958,-21"/>
<polygon fill="#191970" stroke="#191970" points="78.3369,-17.5001 68.3369,-21 78.3368,-24.5001 78.3369,-17.5001"/>
</g>
</g>
</svg>
