<?xml version="1.0" encoding="UTF-8" standalone="no"?>
<!DOCTYPE svg PUBLIC "-//W3C//DTD SVG 1.1//EN"
 "http://www.w3.org/Graphics/SVG/1.1/DTD/svg11.dtd">
<!-- Generated by graphviz version 2.40.1 (20161225.0304)
 -->
<!-- Title: Graphical Class Hierarchy Pages: 1 -->
<svg width="378pt" height="72pt"
 viewBox="0.00 0.00 378.00 72.00" xmlns="http://www.w3.org/2000/svg" xmlns:xlink="http://www.w3.org/1999/xlink">
<g id="graph0" class="graph" transform="scale(1 1) rotate(0) translate(4 68)">
<title>Graphical Class Hierarchy</title>
<polygon fill="#ffffff" stroke="transparent" points="-4,4 -4,-68 374,-68 374,4 -4,4"/>
<!-- Node209 -->
<g id="node1" class="node">
<title>Node209</title>
<polygon fill="#ffffff" stroke="#bfbfbf" points="0,-.5 0,-63.5 167,-63.5 167,-.5 0,-.5"/>
<text text-anchor="start" x="8" y="-51.5" font-family="Helvetica,sans-Serif" font-size="10.00" fill="#000000">gko::detail::implement</text>
<text text-anchor="start" x="8" y="-40.5" font-family="Helvetica,sans-Serif" font-size="10.00" fill="#000000">_binary_operation&lt; Kind,</text>
<text text-anchor="start" x="8" y="-29.5" font-family="Helvetica,sans-Serif" font-size="10.00" fill="#000000"> FirstOperand, SecondOperand,</text>
<text text-anchor="start" x="8" y="-18.5" font-family="Helvetica,sans-Serif" font-size="10.00" fill="#000000"> ::gko::accessor::detail::less</text>
<text text-anchor="middle" x="83.5" y="-7.5" font-family="Helvetica,sans-Serif" font-size="10.00" fill="#000000">_or_equal &gt;</text>
</g>
<!-- Node0 -->
<g id="node2" class="node">
<title>Node0</title>
<g id="a_node2"><a xlink:href="structgko_1_1accessor_1_1less__or__equal.html" target="_top" xlink:title="gko::accessor::less\l_or_equal\&lt; Kind, FirstOperand,\l SecondOperand \&gt;">
<polygon fill="#ffffff" stroke="#000000" points="203,-11.5 203,-52.5 370,-52.5 370,-11.5 203,-11.5"/>
<text text-anchor="start" x="211" y="-40.5" font-family="Helvetica,sans-Serif" font-size="10.00" fill="#000000">gko::accessor::less</text>
<text text-anchor="start" x="211" y="-29.5" font-family="Helvetica,sans-Serif" font-size="10.00" fill="#000000">_or_equal&lt; Kind, FirstOperand,</text>
<text text-anchor="middle" x="286.5" y="-18.5" font-family="Helvetica,sans-Serif" font-size="10.00" fill="#000000"> SecondOperand &gt;</text>
</a>
</g>
</g>
<!-- Node209&#45;&gt;Node0 -->
<g id="edge1" class="edge">
<title>Node209&#45;&gt;Node0</title>
<path fill="none" stroke="#191970" d="M177.2558,-32C185.8295,-32 194.4773,-32 202.9526,-32"/>
<polygon fill="#191970" stroke="#191970" points="177.2399,-28.5001 167.2399,-32 177.2398,-35.5001 177.2399,-28.5001"/>
</g>
</g>
</svg>
