<?xml version="1.0" encoding="UTF-8" standalone="no"?>
<!DOCTYPE svg PUBLIC "-//W3C//DTD SVG 1.1//EN"
 "http://www.w3.org/Graphics/SVG/1.1/DTD/svg11.dtd">
<!-- Generated by graphviz version 2.40.1 (20161225.0304)
 -->
<!-- Title: Graphical Class Hierarchy Pages: 1 -->
<svg width="370pt" height="598pt"
 viewBox="0.00 0.00 370.00 598.00" xmlns="http://www.w3.org/2000/svg" xmlns:xlink="http://www.w3.org/1999/xlink">
<g id="graph0" class="graph" transform="scale(1 1) rotate(0) translate(4 594)">
<title>Graphical Class Hierarchy</title>
<polygon fill="#ffffff" stroke="transparent" points="-4,4 -4,-594 366,-594 366,4 -4,4"/>
<!-- Node269 -->
<g id="node1" class="node">
<title>Node269</title>
<g id="a_node1"><a xlink:title="STL class.">
<polygon fill="#ffffff" stroke="#bfbfbf" points="0,-285.5 0,-304.5 86,-304.5 86,-285.5 0,-285.5"/>
<text text-anchor="middle" x="43" y="-292.5" font-family="Helvetica,sans-Serif" font-size="10.00" fill="#000000">std::exception</text>
</a>
</g>
</g>
<!-- Node0 -->
<g id="node2" class="node">
<title>Node0</title>
<g id="a_node2"><a xlink:href="classgko_1_1Error.html" target="_top" xlink:title="The Error class is used to report exceptional behaviour in library functions.">
<polygon fill="#ffffff" stroke="#000000" points="122,-285.5 122,-304.5 186,-304.5 186,-285.5 122,-285.5"/>
<text text-anchor="middle" x="154" y="-292.5" font-family="Helvetica,sans-Serif" font-size="10.00" fill="#000000">gko::Error</text>
</a>
</g>
</g>
<!-- Node269&#45;&gt;Node0 -->
<g id="edge1" class="edge">
<title>Node269&#45;&gt;Node0</title>
<path fill="none" stroke="#191970" d="M96.3317,-295C105.005,-295 113.749,-295 121.7148,-295"/>
<polygon fill="#191970" stroke="#191970" points="96.2334,-291.5001 86.2333,-295 96.2333,-298.5001 96.2334,-291.5001"/>
</g>
<!-- Node1 -->
<g id="node3" class="node">
<title>Node1</title>
<g id="a_node3"><a xlink:href="classgko_1_1AllocationError.html" target="_top" xlink:title="AllocationError is thrown if a memory allocation fails.">
<polygon fill="#ffffff" stroke="#000000" points="235.5,-570.5 235.5,-589.5 348.5,-589.5 348.5,-570.5 235.5,-570.5"/>
<text text-anchor="middle" x="292" y="-577.5" font-family="Helvetica,sans-Serif" font-size="10.00" fill="#000000">gko::AllocationError</text>
</a>
</g>
</g>
<!-- Node0&#45;&gt;Node1 -->
<g id="edge2" class="edge">
<title>Node0&#45;&gt;Node1</title>
<path fill="none" stroke="#191970" d="M156.4404,-314.5707C163.7149,-369.8436 186.9454,-525.424 222,-561 225.8888,-564.9467 230.5088,-568.098 235.4936,-570.6107"/>
<polygon fill="#191970" stroke="#191970" points="159.9113,-314.1196 155.1655,-304.6472 152.9684,-315.0117 159.9113,-314.1196"/>
</g>
<!-- Node2 -->
<g id="node4" class="node">
<title>Node2</title>
<g id="a_node4"><a xlink:href="classgko_1_1BadDimension.html" target="_top" xlink:title="BadDimension is thrown if an operation is being applied to a LinOp with bad dimensions.">
<polygon fill="#ffffff" stroke="#000000" points="236,-532.5 236,-551.5 348,-551.5 348,-532.5 236,-532.5"/>
<text text-anchor="middle" x="292" y="-539.5" font-family="Helvetica,sans-Serif" font-size="10.00" fill="#000000">gko::BadDimension</text>
</a>
</g>
</g>
<!-- Node0&#45;&gt;Node2 -->
<g id="edge3" class="edge">
<title>Node0&#45;&gt;Node2</title>
<path fill="none" stroke="#191970" d="M157.3486,-314.6617C166.1974,-364.3968 191.6199,-493.3643 222,-523 226.0563,-526.9569 230.8495,-530.1098 235.9952,-532.6191"/>
<polygon fill="#191970" stroke="#191970" points="160.754,-313.816 155.5879,-304.5661 153.8581,-315.0187 160.754,-313.816"/>
</g>
<!-- Node3 -->
<g id="node5" class="node">
<title>Node3</title>
<g id="a_node5"><a xlink:href="classgko_1_1CublasError.html" target="_top" xlink:title="CublasError is thrown when a cuBLAS routine throws a non&#45;zero error code.">
<polygon fill="#ffffff" stroke="#000000" points="243.5,-494.5 243.5,-513.5 340.5,-513.5 340.5,-494.5 243.5,-494.5"/>
<text text-anchor="middle" x="292" y="-501.5" font-family="Helvetica,sans-Serif" font-size="10.00" fill="#000000">gko::CublasError</text>
</a>
</g>
</g>
<!-- Node0&#45;&gt;Node3 -->
<g id="edge4" class="edge">
<title>Node0&#45;&gt;Node3</title>
<path fill="none" stroke="#191970" d="M155.2541,-314.9546C158.781,-353.5956 172.1032,-438.8808 222,-485 228.0108,-490.5557 235.4821,-494.5151 243.2846,-497.3306"/>
<polygon fill="#191970" stroke="#191970" points="158.7102,-314.2531 154.4444,-304.555 151.7313,-314.7965 158.7102,-314.2531"/>
</g>
<!-- Node4 -->
<g id="node6" class="node">
<title>Node4</title>
<g id="a_node6"><a xlink:href="classgko_1_1CudaError.html" target="_top" xlink:title="CudaError is thrown when a CUDA routine throws a non&#45;zero error code.">
<polygon fill="#ffffff" stroke="#000000" points="247.5,-456.5 247.5,-475.5 336.5,-475.5 336.5,-456.5 247.5,-456.5"/>
<text text-anchor="middle" x="292" y="-463.5" font-family="Helvetica,sans-Serif" font-size="10.00" fill="#000000">gko::CudaError</text>
</a>
</g>
</g>
<!-- Node0&#45;&gt;Node4 -->
<g id="edge5" class="edge">
<title>Node0&#45;&gt;Node4</title>
<path fill="none" stroke="#191970" d="M157.2079,-314.5386C163.5784,-346.9827 180.9273,-411.8687 222,-447 229.1771,-453.1389 238.157,-457.3115 247.2674,-460.1431"/>
<polygon fill="#191970" stroke="#191970" points="160.619,-313.7331 155.3916,-304.5177 153.7313,-314.9816 160.619,-313.7331"/>
</g>
<!-- Node5 -->
<g id="node7" class="node">
<title>Node5</title>
<g id="a_node7"><a xlink:href="classgko_1_1CusparseError.html" target="_top" xlink:title="CusparseError is thrown when a cuSPARSE routine throws a non&#45;zero error code.">
<polygon fill="#ffffff" stroke="#000000" points="237.5,-418.5 237.5,-437.5 346.5,-437.5 346.5,-418.5 237.5,-418.5"/>
<text text-anchor="middle" x="292" y="-425.5" font-family="Helvetica,sans-Serif" font-size="10.00" fill="#000000">gko::CusparseError</text>
</a>
</g>
</g>
<!-- Node0&#45;&gt;Node5 -->
<g id="edge6" class="edge">
<title>Node0&#45;&gt;Node5</title>
<path fill="none" stroke="#191970" d="M160.3247,-314.3131C169.692,-339.8595 189.7097,-384.5036 222,-409 227.1165,-412.8815 232.9725,-415.9705 239.0704,-418.4288"/>
<polygon fill="#191970" stroke="#191970" points="163.5527,-312.94 156.9574,-304.6483 156.9424,-315.2431 163.5527,-312.94"/>
</g>
<!-- Node6 -->
<g id="node8" class="node">
<title>Node6</title>
<g id="a_node8"><a xlink:href="classgko_1_1DimensionMismatch.html" target="_top" xlink:title="DimensionMismatch is thrown if an operation is being applied to LinOps of incompatible size.">
<polygon fill="#ffffff" stroke="#000000" points="222,-380.5 222,-399.5 362,-399.5 362,-380.5 222,-380.5"/>
<text text-anchor="middle" x="292" y="-387.5" font-family="Helvetica,sans-Serif" font-size="10.00" fill="#000000">gko::DimensionMismatch</text>
</a>
</g>
</g>
<!-- Node0&#45;&gt;Node6 -->
<g id="edge7" class="edge">
<title>Node0&#45;&gt;Node6</title>
<path fill="none" stroke="#191970" d="M165.6574,-313.2202C177.7111,-330.5993 198.101,-356.2496 222,-371 228.3223,-374.9021 235.4486,-378.0148 242.6724,-380.4947"/>
<polygon fill="#191970" stroke="#191970" points="168.3186,-310.9034 159.8492,-304.5378 162.5004,-314.7956 168.3186,-310.9034"/>
</g>
<!-- Node7 -->
<g id="node9" class="node">
<title>Node7</title>
<g id="a_node9"><a xlink:href="classgko_1_1HipblasError.html" target="_top" xlink:title="HipblasError is thrown when a hipBLAS routine throws a non&#45;zero error code.">
<polygon fill="#ffffff" stroke="#000000" points="241.5,-342.5 241.5,-361.5 342.5,-361.5 342.5,-342.5 241.5,-342.5"/>
<text text-anchor="middle" x="292" y="-349.5" font-family="Helvetica,sans-Serif" font-size="10.00" fill="#000000">gko::HipblasError</text>
</a>
</g>
</g>
<!-- Node0&#45;&gt;Node7 -->
<g id="edge8" class="edge">
<title>Node0&#45;&gt;Node7</title>
<path fill="none" stroke="#191970" d="M177.2327,-309.8529C190.054,-317.564 206.4824,-326.67 222,-333 230.978,-336.6623 240.888,-339.8404 250.3571,-342.4943"/>
<polygon fill="#191970" stroke="#191970" points="178.9507,-306.8006 168.599,-304.5441 175.2842,-312.7635 178.9507,-306.8006"/>
</g>
<!-- Node8 -->
<g id="node10" class="node">
<title>Node8</title>
<g id="a_node10"><a xlink:href="classgko_1_1HipError.html" target="_top" xlink:title="HipError is thrown when a HIP routine throws a non&#45;zero error code.">
<polygon fill="#ffffff" stroke="#000000" points="252,-304.5 252,-323.5 332,-323.5 332,-304.5 252,-304.5"/>
<text text-anchor="middle" x="292" y="-311.5" font-family="Helvetica,sans-Serif" font-size="10.00" fill="#000000">gko::HipError</text>
</a>
</g>
</g>
<!-- Node0&#45;&gt;Node8 -->
<g id="edge9" class="edge">
<title>Node0&#45;&gt;Node8</title>
<path fill="none" stroke="#191970" d="M196.0594,-300.7908C213.7579,-303.2275 234.2618,-306.0505 251.7601,-308.4597"/>
<polygon fill="#191970" stroke="#191970" points="196.3908,-297.3035 186.0068,-299.4067 195.436,-304.2381 196.3908,-297.3035"/>
</g>
<!-- Node9 -->
<g id="node11" class="node">
<title>Node9</title>
<g id="a_node11"><a xlink:href="classgko_1_1HipsparseError.html" target="_top" xlink:title="HipsparseError is thrown when a hipSPARSE routine throws a non&#45;zero error code.">
<polygon fill="#ffffff" stroke="#000000" points="235.5,-266.5 235.5,-285.5 348.5,-285.5 348.5,-266.5 235.5,-266.5"/>
<text text-anchor="middle" x="292" y="-273.5" font-family="Helvetica,sans-Serif" font-size="10.00" fill="#000000">gko::HipsparseError</text>
</a>
</g>
</g>
<!-- Node0&#45;&gt;Node9 -->
<g id="edge10" class="edge">
<title>Node0&#45;&gt;Node9</title>
<path fill="none" stroke="#191970" d="M196.0311,-289.2131C208.401,-287.51 222.1431,-285.618 235.2727,-283.8103"/>
<polygon fill="#191970" stroke="#191970" points="195.436,-285.7619 186.0068,-290.5933 196.3908,-292.6965 195.436,-285.7619"/>
</g>
<!-- Node10 -->
<g id="node12" class="node">
<title>Node10</title>
<g id="a_node12"><a xlink:href="classgko_1_1KernelNotFound.html" target="_top" xlink:title="KernelNotFound is thrown if Ginkgo cannot find a kernel which satisfies the criteria imposed by the i...">
<polygon fill="#ffffff" stroke="#000000" points="233,-228.5 233,-247.5 351,-247.5 351,-228.5 233,-228.5"/>
<text text-anchor="middle" x="292" y="-235.5" font-family="Helvetica,sans-Serif" font-size="10.00" fill="#000000">gko::KernelNotFound</text>
</a>
</g>
</g>
<!-- Node0&#45;&gt;Node10 -->
<g id="edge11" class="edge">
<title>Node0&#45;&gt;Node10</title>
<path fill="none" stroke="#191970" d="M177.2327,-280.1471C190.054,-272.436 206.4824,-263.33 222,-257 230.978,-253.3377 240.888,-250.1596 250.3571,-247.5057"/>
<polygon fill="#191970" stroke="#191970" points="175.2842,-277.2365 168.599,-285.4559 178.9507,-283.1994 175.2842,-277.2365"/>
</g>
<!-- Node11 -->
<g id="node13" class="node">
<title>Node11</title>
<g id="a_node13"><a xlink:href="classgko_1_1NotCompiled.html" target="_top" xlink:title="NotCompiled is thrown when attempting to call an operation which is a part of a module that was not c...">
<polygon fill="#ffffff" stroke="#000000" points="240,-190.5 240,-209.5 344,-209.5 344,-190.5 240,-190.5"/>
<text text-anchor="middle" x="292" y="-197.5" font-family="Helvetica,sans-Serif" font-size="10.00" fill="#000000">gko::NotCompiled</text>
</a>
</g>
</g>
<!-- Node0&#45;&gt;Node11 -->
<g id="edge12" class="edge">
<title>Node0&#45;&gt;Node11</title>
<path fill="none" stroke="#191970" d="M165.6574,-276.7798C177.7111,-259.4007 198.101,-233.7504 222,-219 228.3223,-215.0979 235.4486,-211.9852 242.6724,-209.5053"/>
<polygon fill="#191970" stroke="#191970" points="162.5004,-275.2044 159.8492,-285.4622 168.3186,-279.0966 162.5004,-275.2044"/>
</g>
<!-- Node12 -->
<g id="node14" class="node">
<title>Node12</title>
<g id="a_node14"><a xlink:href="classgko_1_1NotImplemented.html" target="_top" xlink:title="NotImplemented is thrown in case an operation has not yet been implemented (but will be implemented i...">
<polygon fill="#ffffff" stroke="#000000" points="230.5,-152.5 230.5,-171.5 353.5,-171.5 353.5,-152.5 230.5,-152.5"/>
<text text-anchor="middle" x="292" y="-159.5" font-family="Helvetica,sans-Serif" font-size="10.00" fill="#000000">gko::NotImplemented</text>
</a>
</g>
</g>
<!-- Node0&#45;&gt;Node12 -->
<g id="edge13" class="edge">
<title>Node0&#45;&gt;Node12</title>
<path fill="none" stroke="#191970" d="M160.3247,-275.6869C169.692,-250.1405 189.7097,-205.4964 222,-181 227.1165,-177.1185 232.9725,-174.0295 239.0704,-171.5712"/>
<polygon fill="#191970" stroke="#191970" points="156.9424,-274.7569 156.9574,-285.3517 163.5527,-277.06 156.9424,-274.7569"/>
</g>
<!-- Node13 -->
<g id="node15" class="node">
<title>Node13</title>
<g id="a_node15"><a xlink:href="classgko_1_1NotSupported.html" target="_top" xlink:title="NotSupported is thrown in case it is not possible to perform the requested operation on the given obj...">
<polygon fill="#ffffff" stroke="#000000" points="238.5,-114.5 238.5,-133.5 345.5,-133.5 345.5,-114.5 238.5,-114.5"/>
<text text-anchor="middle" x="292" y="-121.5" font-family="Helvetica,sans-Serif" font-size="10.00" fill="#000000">gko::NotSupported</text>
</a>
</g>
</g>
<!-- Node0&#45;&gt;Node13 -->
<g id="edge14" class="edge">
<title>Node0&#45;&gt;Node13</title>
<path fill="none" stroke="#191970" d="M157.2079,-275.4614C163.5784,-243.0173 180.9273,-178.1313 222,-143 226.7847,-138.9074 232.3707,-135.6887 238.2624,-133.1586"/>
<polygon fill="#191970" stroke="#191970" points="153.7313,-275.0184 155.3916,-285.4823 160.619,-276.2669 153.7313,-275.0184"/>
</g>
<!-- Node14 -->
<g id="node16" class="node">
<title>Node14</title>
<g id="a_node16"><a xlink:href="classgko_1_1OutOfBoundsError.html" target="_top" xlink:title="OutOfBoundsError is thrown if a memory access is detected to be out&#45;of&#45;bounds.">
<polygon fill="#ffffff" stroke="#000000" points="228,-76.5 228,-95.5 356,-95.5 356,-76.5 228,-76.5"/>
<text text-anchor="middle" x="292" y="-83.5" font-family="Helvetica,sans-Serif" font-size="10.00" fill="#000000">gko::OutOfBoundsError</text>
</a>
</g>
</g>
<!-- Node0&#45;&gt;Node14 -->
<g id="edge15" class="edge">
<title>Node0&#45;&gt;Node14</title>
<path fill="none" stroke="#191970" d="M155.2541,-275.0454C158.781,-236.4044 172.1032,-151.1192 222,-105 226.1613,-101.1537 231.0226,-98.0726 236.2092,-95.6064"/>
<polygon fill="#191970" stroke="#191970" points="151.7313,-275.2035 154.4444,-285.445 158.7102,-275.7469 151.7313,-275.2035"/>
</g>
<!-- Node15 -->
<g id="node17" class="node">
<title>Node15</title>
<g id="a_node17"><a xlink:href="classgko_1_1StreamError.html" target="_top" xlink:title="StreamError is thrown if accessing a stream failed.">
<polygon fill="#ffffff" stroke="#000000" points="242.5,-38.5 242.5,-57.5 341.5,-57.5 341.5,-38.5 242.5,-38.5"/>
<text text-anchor="middle" x="292" y="-45.5" font-family="Helvetica,sans-Serif" font-size="10.00" fill="#000000">gko::StreamError</text>
</a>
</g>
</g>
<!-- Node0&#45;&gt;Node15 -->
<g id="edge16" class="edge">
<title>Node0&#45;&gt;Node15</title>
<path fill="none" stroke="#191970" d="M157.3486,-275.3383C166.1974,-225.6032 191.6199,-96.6357 222,-67 227.6788,-61.4603 234.8019,-57.4965 242.3146,-54.6685"/>
<polygon fill="#191970" stroke="#191970" points="153.8581,-274.9813 155.5879,-285.4339 160.754,-276.184 153.8581,-274.9813"/>
</g>
<!-- Node16 -->
<g id="node18" class="node">
<title>Node16</title>
<g id="a_node18"><a xlink:href="classgko_1_1ValueMismatch.html" target="_top" xlink:title="ValueMismatch is thrown if two values are not equal.">
<polygon fill="#ffffff" stroke="#000000" points="234.5,-.5 234.5,-19.5 349.5,-19.5 349.5,-.5 234.5,-.5"/>
<text text-anchor="middle" x="292" y="-7.5" font-family="Helvetica,sans-Serif" font-size="10.00" fill="#000000">gko::ValueMismatch</text>
</a>
</g>
</g>
<!-- Node0&#45;&gt;Node16 -->
<g id="edge17" class="edge">
<title>Node0&#45;&gt;Node16</title>
<path fill="none" stroke="#191970" d="M156.4404,-275.4293C163.7149,-220.1564 186.9454,-64.576 222,-29 225.8005,-25.143 230.2991,-22.0457 235.1543,-19.5616"/>
<polygon fill="#191970" stroke="#191970" points="152.9684,-274.9883 155.1655,-285.3528 159.9113,-275.8804 152.9684,-274.9883"/>
</g>
</g>
</svg>
