<?xml version="1.0" encoding="UTF-8" standalone="no"?>
<!DOCTYPE svg PUBLIC "-//W3C//DTD SVG 1.1//EN"
 "http://www.w3.org/Graphics/SVG/1.1/DTD/svg11.dtd">
<!-- Generated by graphviz version 2.40.1 (20161225.0304)
 -->
<!-- Title: Graphical Class Hierarchy Pages: 1 -->
<svg width="390pt" height="1230pt"
 viewBox="0.00 0.00 390.00 1230.00" xmlns="http://www.w3.org/2000/svg" xmlns:xlink="http://www.w3.org/1999/xlink">
<g id="graph0" class="graph" transform="scale(1 1) rotate(0) translate(4 1226)">
<title>Graphical Class Hierarchy</title>
<polygon fill="#ffffff" stroke="transparent" points="-4,4 -4,-1226 386,-1226 386,4 -4,4"/>
<!-- Node0 -->
<g id="node1" class="node">
<title>Node0</title>
<g id="a_node1"><a xlink:href="structgko_1_1enable__parameters__type.html" target="_top" xlink:title=" ">
<polygon fill="#ffffff" stroke="#000000" points="0,-546.5 0,-587.5 141,-587.5 141,-546.5 0,-546.5"/>
<text text-anchor="start" x="8" y="-575.5" font-family="Helvetica,sans-Serif" font-size="10.00" fill="#000000">gko::enable_parameters</text>
<text text-anchor="start" x="8" y="-564.5" font-family="Helvetica,sans-Serif" font-size="10.00" fill="#000000">_type&lt; parameters_type,</text>
<text text-anchor="middle" x="70.5" y="-553.5" font-family="Helvetica,sans-Serif" font-size="10.00" fill="#000000"> Factory &gt;</text>
</a>
</g>
</g>
<!-- Node1 -->
<g id="node2" class="node">
<title>Node1</title>
<g id="a_node2"><a xlink:href="structgko_1_1factorization_1_1Ilu_1_1parameters__type.html" target="_top" xlink:title=" ">
<polygon fill="#ffffff" stroke="#000000" points="204,-1180.5 204,-1221.5 355,-1221.5 355,-1180.5 204,-1180.5"/>
<text text-anchor="start" x="212" y="-1209.5" font-family="Helvetica,sans-Serif" font-size="10.00" fill="#000000">gko::factorization</text>
<text text-anchor="start" x="212" y="-1198.5" font-family="Helvetica,sans-Serif" font-size="10.00" fill="#000000">::Ilu&lt; ValueType, IndexType</text>
<text text-anchor="middle" x="279.5" y="-1187.5" font-family="Helvetica,sans-Serif" font-size="10.00" fill="#000000"> &gt;::parameters_type</text>
</a>
</g>
</g>
<!-- Node0&#45;&gt;Node1 -->
<g id="edge1" class="edge">
<title>Node0&#45;&gt;Node1</title>
<path fill="none" stroke="#191970" d="M71.7599,-598.0096C76.8887,-709.0397 99.7512,-1084.7323 177,-1171 184.2977,-1179.1497 193.676,-1185.1364 203.7882,-1189.5242"/>
<polygon fill="#191970" stroke="#191970" points="75.2476,-597.6527 71.3052,-587.8187 68.2545,-597.9648 75.2476,-597.6527"/>
</g>
<!-- Node2 -->
<g id="node3" class="node">
<title>Node2</title>
<g id="a_node3"><a xlink:href="structgko_1_1factorization_1_1ParIct_1_1parameters__type.html" target="_top" xlink:title=" ">
<polygon fill="#ffffff" stroke="#000000" points="194.5,-1120.5 194.5,-1161.5 364.5,-1161.5 364.5,-1120.5 194.5,-1120.5"/>
<text text-anchor="start" x="202.5" y="-1149.5" font-family="Helvetica,sans-Serif" font-size="10.00" fill="#000000">gko::factorization</text>
<text text-anchor="start" x="202.5" y="-1138.5" font-family="Helvetica,sans-Serif" font-size="10.00" fill="#000000">::ParIct&lt; ValueType,</text>
<text text-anchor="middle" x="279.5" y="-1127.5" font-family="Helvetica,sans-Serif" font-size="10.00" fill="#000000"> IndexType &gt;::parameters_type</text>
</a>
</g>
</g>
<!-- Node0&#45;&gt;Node2 -->
<g id="edge2" class="edge">
<title>Node0&#45;&gt;Node2</title>
<path fill="none" stroke="#191970" d="M72.3933,-597.615C79.3851,-700.9046 107.0638,-1034.3603 177,-1111 181.9993,-1116.4785 187.9388,-1120.9774 194.4025,-1124.669"/>
<polygon fill="#191970" stroke="#191970" points="75.8791,-597.283 71.7277,-587.5354 68.8943,-597.7443 75.8791,-597.283"/>
</g>
<!-- Node3 -->
<g id="node4" class="node">
<title>Node3</title>
<g id="a_node4"><a xlink:href="structgko_1_1factorization_1_1ParIlu_1_1parameters__type.html" target="_top" xlink:title=" ">
<polygon fill="#ffffff" stroke="#000000" points="194.5,-1060.5 194.5,-1101.5 364.5,-1101.5 364.5,-1060.5 194.5,-1060.5"/>
<text text-anchor="start" x="202.5" y="-1089.5" font-family="Helvetica,sans-Serif" font-size="10.00" fill="#000000">gko::factorization</text>
<text text-anchor="start" x="202.5" y="-1078.5" font-family="Helvetica,sans-Serif" font-size="10.00" fill="#000000">::ParIlu&lt; ValueType,</text>
<text text-anchor="middle" x="279.5" y="-1067.5" font-family="Helvetica,sans-Serif" font-size="10.00" fill="#000000"> IndexType &gt;::parameters_type</text>
</a>
</g>
</g>
<!-- Node0&#45;&gt;Node3 -->
<g id="edge3" class="edge">
<title>Node0&#45;&gt;Node3</title>
<path fill="none" stroke="#191970" d="M73.2364,-597.9827C82.3213,-693.9921 114.5112,-984.1013 177,-1051 181.9361,-1056.2845 187.7472,-1060.6551 194.052,-1064.2677"/>
<polygon fill="#191970" stroke="#191970" points="76.6979,-597.4047 72.2886,-587.771 69.7279,-598.0517 76.6979,-597.4047"/>
</g>
<!-- Node4 -->
<g id="node5" class="node">
<title>Node4</title>
<g id="a_node5"><a xlink:href="structgko_1_1factorization_1_1ParIlut_1_1parameters__type.html" target="_top" xlink:title=" ">
<polygon fill="#ffffff" stroke="#000000" points="194.5,-1000.5 194.5,-1041.5 364.5,-1041.5 364.5,-1000.5 194.5,-1000.5"/>
<text text-anchor="start" x="202.5" y="-1029.5" font-family="Helvetica,sans-Serif" font-size="10.00" fill="#000000">gko::factorization</text>
<text text-anchor="start" x="202.5" y="-1018.5" font-family="Helvetica,sans-Serif" font-size="10.00" fill="#000000">::ParIlut&lt; ValueType,</text>
<text text-anchor="middle" x="279.5" y="-1007.5" font-family="Helvetica,sans-Serif" font-size="10.00" fill="#000000"> IndexType &gt;::parameters_type</text>
</a>
</g>
</g>
<!-- Node0&#45;&gt;Node4 -->
<g id="edge4" class="edge">
<title>Node0&#45;&gt;Node4</title>
<path fill="none" stroke="#191970" d="M74.2296,-597.5979C85.4816,-685.0666 121.7503,-933.573 177,-991 182.0135,-996.2111 187.8784,-1000.5307 194.2188,-1004.1095"/>
<polygon fill="#191970" stroke="#191970" points="77.682,-596.9999 72.9527,-587.5192 70.7375,-597.8798 77.682,-596.9999"/>
</g>
<!-- Node5 -->
<g id="node6" class="node">
<title>Node5</title>
<g id="a_node6"><a xlink:href="structgko_1_1preconditioner_1_1Ilu_1_1parameters__type.html" target="_top" xlink:title=" ">
<polygon fill="#ffffff" stroke="#000000" points="194.5,-929 194.5,-981 364.5,-981 364.5,-929 194.5,-929"/>
<text text-anchor="start" x="202.5" y="-969" font-family="Helvetica,sans-Serif" font-size="10.00" fill="#000000">gko::preconditioner</text>
<text text-anchor="start" x="202.5" y="-958" font-family="Helvetica,sans-Serif" font-size="10.00" fill="#000000">::Ilu&lt; LSolverType,</text>
<text text-anchor="start" x="202.5" y="-947" font-family="Helvetica,sans-Serif" font-size="10.00" fill="#000000"> USolverType, ReverseApply,</text>
<text text-anchor="middle" x="279.5" y="-936" font-family="Helvetica,sans-Serif" font-size="10.00" fill="#000000"> IndexType &gt;::parameters_type</text>
</a>
</g>
</g>
<!-- Node0&#45;&gt;Node5 -->
<g id="edge5" class="edge">
<title>Node0&#45;&gt;Node5</title>
<path fill="none" stroke="#191970" d="M76.1379,-597.8675C90.7331,-674.7024 131.7829,-871.7502 177,-919 182.0857,-924.3143 188.0007,-928.845 194.3744,-932.7073"/>
<polygon fill="#191970" stroke="#191970" points="79.5426,-597.0335 74.2564,-587.8516 72.6629,-598.326 79.5426,-597.0335"/>
</g>
<!-- Node6 -->
<g id="node7" class="node">
<title>Node6</title>
<g id="a_node7"><a xlink:href="structgko_1_1preconditioner_1_1Isai_1_1parameters__type.html" target="_top" xlink:title=" ">
<polygon fill="#ffffff" stroke="#000000" points="194.5,-868.5 194.5,-909.5 364.5,-909.5 364.5,-868.5 194.5,-868.5"/>
<text text-anchor="start" x="202.5" y="-897.5" font-family="Helvetica,sans-Serif" font-size="10.00" fill="#000000">gko::preconditioner</text>
<text text-anchor="start" x="202.5" y="-886.5" font-family="Helvetica,sans-Serif" font-size="10.00" fill="#000000">::Isai&lt; IsaiType, ValueType,</text>
<text text-anchor="middle" x="279.5" y="-875.5" font-family="Helvetica,sans-Serif" font-size="10.00" fill="#000000"> IndexType &gt;::parameters_type</text>
</a>
</g>
</g>
<!-- Node0&#45;&gt;Node6 -->
<g id="edge6" class="edge">
<title>Node0&#45;&gt;Node6</title>
<path fill="none" stroke="#191970" d="M72.8237,-597.9869C78.96,-657.3684 100.8237,-787.6211 177,-859 182.1414,-863.8176 188.0149,-867.866 194.2899,-871.2674"/>
<polygon fill="#191970" stroke="#191970" points="76.2818,-597.378 71.8515,-587.7539 69.3131,-598.0402 76.2818,-597.378"/>
</g>
<!-- Node7 -->
<g id="node8" class="node">
<title>Node7</title>
<g id="a_node8"><a xlink:href="structgko_1_1preconditioner_1_1Jacobi_1_1parameters__type.html" target="_top" xlink:title=" ">
<polygon fill="#ffffff" stroke="#000000" points="194.5,-808.5 194.5,-849.5 364.5,-849.5 364.5,-808.5 194.5,-808.5"/>
<text text-anchor="start" x="202.5" y="-837.5" font-family="Helvetica,sans-Serif" font-size="10.00" fill="#000000">gko::preconditioner</text>
<text text-anchor="start" x="202.5" y="-826.5" font-family="Helvetica,sans-Serif" font-size="10.00" fill="#000000">::Jacobi&lt; ValueType,</text>
<text text-anchor="middle" x="279.5" y="-815.5" font-family="Helvetica,sans-Serif" font-size="10.00" fill="#000000"> IndexType &gt;::parameters_type</text>
</a>
</g>
</g>
<!-- Node0&#45;&gt;Node7 -->
<g id="edge7" class="edge">
<title>Node0&#45;&gt;Node7</title>
<path fill="none" stroke="#191970" d="M76.0797,-597.6357C86.7327,-647.2819 114.697,-745.1681 177,-799 182.2613,-803.5459 188.1805,-807.4037 194.4522,-810.6775"/>
<polygon fill="#191970" stroke="#191970" points="79.5016,-596.8996 74.063,-587.8072 72.6445,-598.3066 79.5016,-596.8996"/>
</g>
<!-- Node8 -->
<g id="node9" class="node">
<title>Node8</title>
<g id="a_node9"><a xlink:href="structgko_1_1reorder_1_1Rcm_1_1parameters__type.html" target="_top" xlink:title=" ">
<polygon fill="#ffffff" stroke="#000000" points="217,-748.5 217,-789.5 342,-789.5 342,-748.5 217,-748.5"/>
<text text-anchor="start" x="225" y="-777.5" font-family="Helvetica,sans-Serif" font-size="10.00" fill="#000000">gko::reorder::Rcm&lt;</text>
<text text-anchor="start" x="225" y="-766.5" font-family="Helvetica,sans-Serif" font-size="10.00" fill="#000000"> ValueType, IndexType</text>
<text text-anchor="middle" x="279.5" y="-755.5" font-family="Helvetica,sans-Serif" font-size="10.00" fill="#000000"> &gt;::parameters_type</text>
</a>
</g>
</g>
<!-- Node0&#45;&gt;Node8 -->
<g id="edge8" class="edge">
<title>Node0&#45;&gt;Node8</title>
<path fill="none" stroke="#191970" d="M81.3243,-597.2741C96.6626,-635.864 128.3828,-701.9981 177,-739 188.656,-747.8712 202.8792,-754.1242 216.975,-758.53"/>
<polygon fill="#191970" stroke="#191970" points="84.4685,-595.6998 77.6044,-587.6291 77.9374,-598.2187 84.4685,-595.6998"/>
</g>
<!-- Node9 -->
<g id="node10" class="node">
<title>Node9</title>
<g id="a_node10"><a xlink:href="structgko_1_1solver_1_1Bicg_1_1parameters__type.html" target="_top" xlink:title=" ">
<polygon fill="#ffffff" stroke="#000000" points="194.5,-699 194.5,-729 364.5,-729 364.5,-699 194.5,-699"/>
<text text-anchor="start" x="202.5" y="-717" font-family="Helvetica,sans-Serif" font-size="10.00" fill="#000000">gko::solver::Bicg&lt;</text>
<text text-anchor="middle" x="279.5" y="-706" font-family="Helvetica,sans-Serif" font-size="10.00" fill="#000000"> ValueType &gt;::parameters_type</text>
</a>
</g>
</g>
<!-- Node0&#45;&gt;Node9 -->
<g id="edge9" class="edge">
<title>Node0&#45;&gt;Node9</title>
<path fill="none" stroke="#191970" d="M87.9782,-596.2085C106.5022,-624.5723 138.3889,-666.6667 177,-690 182.7094,-693.4502 188.8743,-696.4045 195.2489,-698.9341"/>
<polygon fill="#191970" stroke="#191970" points="90.7685,-594.0743 82.4419,-587.5231 84.8657,-597.8369 90.7685,-594.0743"/>
</g>
<!-- Node10 -->
<g id="node11" class="node">
<title>Node10</title>
<g id="a_node11"><a xlink:href="structgko_1_1solver_1_1Bicgstab_1_1parameters__type.html" target="_top" xlink:title=" ">
<polygon fill="#ffffff" stroke="#000000" points="190.5,-650 190.5,-680 368.5,-680 368.5,-650 190.5,-650"/>
<text text-anchor="start" x="198.5" y="-668" font-family="Helvetica,sans-Serif" font-size="10.00" fill="#000000">gko::solver::Bicgstab</text>
<text text-anchor="middle" x="279.5" y="-657" font-family="Helvetica,sans-Serif" font-size="10.00" fill="#000000">&lt; ValueType &gt;::parameters_type</text>
</a>
</g>
</g>
<!-- Node0&#45;&gt;Node10 -->
<g id="edge10" class="edge">
<title>Node0&#45;&gt;Node10</title>
<path fill="none" stroke="#191970" d="M102.6238,-594.1393C122.8143,-609.9265 150.0614,-629.0143 177,-641 184.6812,-644.4176 192.9114,-647.3818 201.2454,-649.9454"/>
<polygon fill="#191970" stroke="#191970" points="104.7026,-591.3205 94.6995,-587.8291 100.342,-596.7965 104.7026,-591.3205"/>
</g>
<!-- Node11 -->
<g id="node12" class="node">
<title>Node11</title>
<g id="a_node12"><a xlink:href="structgko_1_1solver_1_1Cg_1_1parameters__type.html" target="_top" xlink:title=" ">
<polygon fill="#ffffff" stroke="#000000" points="204.5,-601 204.5,-631 354.5,-631 354.5,-601 204.5,-601"/>
<text text-anchor="start" x="212.5" y="-619" font-family="Helvetica,sans-Serif" font-size="10.00" fill="#000000">gko::solver::Cg&lt; ValueType</text>
<text text-anchor="middle" x="279.5" y="-608" font-family="Helvetica,sans-Serif" font-size="10.00" fill="#000000"> &gt;::parameters_type</text>
</a>
</g>
</g>
<!-- Node0&#45;&gt;Node11 -->
<g id="edge11" class="edge">
<title>Node0&#45;&gt;Node11</title>
<path fill="none" stroke="#191970" d="M151.0897,-585.9228C159.8345,-587.9746 168.6033,-590.0314 177,-592 189.3668,-594.8993 202.5735,-597.9933 215.2525,-600.9625"/>
<polygon fill="#191970" stroke="#191970" points="151.7831,-582.4906 141.2479,-583.6134 150.1839,-589.3054 151.7831,-582.4906"/>
</g>
<!-- Node12 -->
<g id="node13" class="node">
<title>Node12</title>
<g id="a_node13"><a xlink:href="structgko_1_1solver_1_1Cgs_1_1parameters__type.html" target="_top" xlink:title=" ">
<polygon fill="#ffffff" stroke="#000000" points="202,-552 202,-582 357,-582 357,-552 202,-552"/>
<text text-anchor="start" x="210" y="-570" font-family="Helvetica,sans-Serif" font-size="10.00" fill="#000000">gko::solver::Cgs&lt; ValueType</text>
<text text-anchor="middle" x="279.5" y="-559" font-family="Helvetica,sans-Serif" font-size="10.00" fill="#000000"> &gt;::parameters_type</text>
</a>
</g>
</g>
<!-- Node0&#45;&gt;Node12 -->
<g id="edge12" class="edge">
<title>Node0&#45;&gt;Node12</title>
<path fill="none" stroke="#191970" d="M151.4106,-567C167.9137,-567 185.245,-567 201.639,-567"/>
<polygon fill="#191970" stroke="#191970" points="151.2579,-563.5001 141.2579,-567 151.2578,-570.5001 151.2579,-563.5001"/>
</g>
<!-- Node13 -->
<g id="node14" class="node">
<title>Node13</title>
<g id="a_node14"><a xlink:href="structgko_1_1solver_1_1Fcg_1_1parameters__type.html" target="_top" xlink:title=" ">
<polygon fill="#ffffff" stroke="#000000" points="202.5,-503 202.5,-533 356.5,-533 356.5,-503 202.5,-503"/>
<text text-anchor="start" x="210.5" y="-521" font-family="Helvetica,sans-Serif" font-size="10.00" fill="#000000">gko::solver::Fcg&lt; ValueType</text>
<text text-anchor="middle" x="279.5" y="-510" font-family="Helvetica,sans-Serif" font-size="10.00" fill="#000000"> &gt;::parameters_type</text>
</a>
</g>
</g>
<!-- Node0&#45;&gt;Node13 -->
<g id="edge13" class="edge">
<title>Node0&#45;&gt;Node13</title>
<path fill="none" stroke="#191970" d="M151.2525,-548.0676C172.5405,-543.0766 195.2168,-537.7602 215.4885,-533.0075"/>
<polygon fill="#191970" stroke="#191970" points="150.1949,-544.7206 141.2579,-550.4108 151.7928,-551.5358 150.1949,-544.7206"/>
</g>
<!-- Node14 -->
<g id="node15" class="node">
<title>Node14</title>
<g id="a_node15"><a xlink:href="structgko_1_1solver_1_1Gmres_1_1parameters__type.html" target="_top" xlink:title=" ">
<polygon fill="#ffffff" stroke="#000000" points="190.5,-454 190.5,-484 368.5,-484 368.5,-454 190.5,-454"/>
<text text-anchor="start" x="198.5" y="-472" font-family="Helvetica,sans-Serif" font-size="10.00" fill="#000000">gko::solver::Gmres</text>
<text text-anchor="middle" x="279.5" y="-461" font-family="Helvetica,sans-Serif" font-size="10.00" fill="#000000">&lt; ValueType &gt;::parameters_type</text>
</a>
</g>
</g>
<!-- Node0&#45;&gt;Node14 -->
<g id="edge14" class="edge">
<title>Node0&#45;&gt;Node14</title>
<path fill="none" stroke="#191970" d="M103.1287,-540.0201C123.3121,-524.5457 150.3764,-505.8913 177,-494 185.6131,-490.153 194.9089,-486.8421 204.2642,-484.0072"/>
<polygon fill="#191970" stroke="#191970" points="100.928,-537.2978 95.1973,-546.2091 105.2343,-542.8165 100.928,-537.2978"/>
</g>
<!-- Node15 -->
<g id="node16" class="node">
<title>Node15</title>
<g id="a_node16"><a xlink:href="structgko_1_1solver_1_1Ir_1_1parameters__type.html" target="_top" xlink:title=" ">
<polygon fill="#ffffff" stroke="#000000" points="207.5,-405 207.5,-435 351.5,-435 351.5,-405 207.5,-405"/>
<text text-anchor="start" x="215.5" y="-423" font-family="Helvetica,sans-Serif" font-size="10.00" fill="#000000">gko::solver::Ir&lt; ValueType</text>
<text text-anchor="middle" x="279.5" y="-412" font-family="Helvetica,sans-Serif" font-size="10.00" fill="#000000"> &gt;::parameters_type</text>
</a>
</g>
</g>
<!-- Node0&#45;&gt;Node15 -->
<g id="edge15" class="edge">
<title>Node0&#45;&gt;Node15</title>
<path fill="none" stroke="#191970" d="M88.3964,-537.6287C107.0435,-509.5613 138.8451,-468.1929 177,-445 186.3129,-439.339 196.8338,-434.959 207.4981,-431.5704"/>
<polygon fill="#191970" stroke="#191970" points="85.3198,-535.9402 82.813,-546.2343 91.1921,-539.7503 85.3198,-535.9402"/>
</g>
<!-- Node16 -->
<g id="node17" class="node">
<title>Node16</title>
<g id="a_node17"><a xlink:href="structgko_1_1solver_1_1LowerTrs_1_1parameters__type.html" target="_top" xlink:title=" ">
<polygon fill="#ffffff" stroke="#000000" points="213,-344.5 213,-385.5 346,-385.5 346,-344.5 213,-344.5"/>
<text text-anchor="start" x="221" y="-373.5" font-family="Helvetica,sans-Serif" font-size="10.00" fill="#000000">gko::solver::LowerTrs</text>
<text text-anchor="start" x="221" y="-362.5" font-family="Helvetica,sans-Serif" font-size="10.00" fill="#000000">&lt; ValueType, IndexType</text>
<text text-anchor="middle" x="279.5" y="-351.5" font-family="Helvetica,sans-Serif" font-size="10.00" fill="#000000"> &gt;::parameters_type</text>
</a>
</g>
</g>
<!-- Node0&#45;&gt;Node16 -->
<g id="edge16" class="edge">
<title>Node0&#45;&gt;Node16</title>
<path fill="none" stroke="#191970" d="M81.5459,-536.6639C97.0367,-498.3267 128.8317,-432.9024 177,-396 187.552,-387.916 200.2054,-381.9294 212.9633,-377.4993"/>
<polygon fill="#191970" stroke="#191970" points="78.178,-535.6654 77.7836,-546.2529 84.6944,-538.2222 78.178,-535.6654"/>
</g>
<!-- Node17 -->
<g id="node18" class="node">
<title>Node17</title>
<g id="a_node18"><a xlink:href="structgko_1_1solver_1_1UpperTrs_1_1parameters__type.html" target="_top" xlink:title=" ">
<polygon fill="#ffffff" stroke="#000000" points="213,-284.5 213,-325.5 346,-325.5 346,-284.5 213,-284.5"/>
<text text-anchor="start" x="221" y="-313.5" font-family="Helvetica,sans-Serif" font-size="10.00" fill="#000000">gko::solver::UpperTrs</text>
<text text-anchor="start" x="221" y="-302.5" font-family="Helvetica,sans-Serif" font-size="10.00" fill="#000000">&lt; ValueType, IndexType</text>
<text text-anchor="middle" x="279.5" y="-291.5" font-family="Helvetica,sans-Serif" font-size="10.00" fill="#000000"> &gt;::parameters_type</text>
</a>
</g>
</g>
<!-- Node0&#45;&gt;Node17 -->
<g id="edge17" class="edge">
<title>Node0&#45;&gt;Node17</title>
<path fill="none" stroke="#191970" d="M76.0797,-536.3643C86.7327,-486.7181 114.697,-388.8319 177,-335 187.2419,-326.1506 199.9774,-319.9088 212.9516,-315.5069"/>
<polygon fill="#191970" stroke="#191970" points="72.6445,-535.6934 74.063,-546.1928 79.5016,-537.1004 72.6445,-535.6934"/>
</g>
<!-- Node18 -->
<g id="node19" class="node">
<title>Node18</title>
<g id="a_node19"><a xlink:href="structgko_1_1stop_1_1AbsoluteResidualNorm_1_1parameters__type.html" target="_top" xlink:title=" ">
<polygon fill="#ffffff" stroke="#000000" points="177,-235 177,-265 382,-265 382,-235 177,-235"/>
<text text-anchor="start" x="185" y="-253" font-family="Helvetica,sans-Serif" font-size="10.00" fill="#000000">gko::stop::AbsoluteResidual</text>
<text text-anchor="middle" x="279.5" y="-242" font-family="Helvetica,sans-Serif" font-size="10.00" fill="#000000">Norm&lt; ValueType &gt;::parameters_type</text>
</a>
</g>
</g>
<!-- Node0&#45;&gt;Node18 -->
<g id="edge18" class="edge">
<title>Node0&#45;&gt;Node18</title>
<path fill="none" stroke="#191970" d="M72.4957,-536.1357C78.0742,-476.4144 99.0304,-344.797 177,-275 181.2307,-271.2128 185.9398,-267.9761 190.9494,-265.2123"/>
<polygon fill="#191970" stroke="#191970" points="68.9812,-536.1589 71.6227,-546.4192 75.9561,-536.7511 68.9812,-536.1589"/>
</g>
<!-- Node19 -->
<g id="node20" class="node">
<title>Node19</title>
<g id="a_node20"><a xlink:href="structgko_1_1stop_1_1Combined_1_1parameters__type.html" target="_top" xlink:title=" ">
<polygon fill="#ffffff" stroke="#000000" points="221,-186 221,-216 338,-216 338,-186 221,-186"/>
<text text-anchor="start" x="229" y="-204" font-family="Helvetica,sans-Serif" font-size="10.00" fill="#000000">gko::stop::Combined</text>
<text text-anchor="middle" x="279.5" y="-193" font-family="Helvetica,sans-Serif" font-size="10.00" fill="#000000">::parameters_type</text>
</a>
</g>
</g>
<!-- Node0&#45;&gt;Node19 -->
<g id="edge19" class="edge">
<title>Node0&#45;&gt;Node19</title>
<path fill="none" stroke="#191970" d="M76.1055,-536.295C90.4785,-460.8492 130.7824,-269.3728 177,-226 188.954,-214.7818 205.0778,-208.3519 220.9947,-204.7334"/>
<polygon fill="#191970" stroke="#191970" points="72.6621,-535.6683 74.2516,-546.1432 79.5413,-536.9633 72.6621,-535.6683"/>
</g>
<!-- Node20 -->
<g id="node21" class="node">
<title>Node20</title>
<g id="a_node21"><a xlink:href="structgko_1_1stop_1_1Iteration_1_1parameters__type.html" target="_top" xlink:title=" ">
<polygon fill="#ffffff" stroke="#000000" points="225,-137 225,-167 334,-167 334,-137 225,-137"/>
<text text-anchor="start" x="233" y="-155" font-family="Helvetica,sans-Serif" font-size="10.00" fill="#000000">gko::stop::Iteration</text>
<text text-anchor="middle" x="279.5" y="-144" font-family="Helvetica,sans-Serif" font-size="10.00" fill="#000000">::parameters_type</text>
</a>
</g>
</g>
<!-- Node0&#45;&gt;Node20 -->
<g id="edge20" class="edge">
<title>Node0&#45;&gt;Node20</title>
<path fill="none" stroke="#191970" d="M74.8305,-536.2434C87.1154,-453.3066 124.7121,-227.8772 177,-177 189.7996,-164.5457 207.7175,-157.9517 224.9984,-154.5607"/>
<polygon fill="#191970" stroke="#191970" points="71.3436,-535.9006 73.3619,-546.3014 78.2701,-536.9121 71.3436,-535.9006"/>
</g>
<!-- Node21 -->
<g id="node22" class="node">
<title>Node21</title>
<g id="a_node22"><a xlink:href="structgko_1_1stop_1_1RelativeResidualNorm_1_1parameters__type.html" target="_top" xlink:title=" ">
<polygon fill="#ffffff" stroke="#000000" points="177,-88 177,-118 382,-118 382,-88 177,-88"/>
<text text-anchor="start" x="185" y="-106" font-family="Helvetica,sans-Serif" font-size="10.00" fill="#000000">gko::stop::RelativeResidual</text>
<text text-anchor="middle" x="279.5" y="-95" font-family="Helvetica,sans-Serif" font-size="10.00" fill="#000000">Norm&lt; ValueType &gt;::parameters_type</text>
</a>
</g>
</g>
<!-- Node0&#45;&gt;Node21 -->
<g id="edge21" class="edge">
<title>Node0&#45;&gt;Node21</title>
<path fill="none" stroke="#191970" d="M73.8063,-536.4067C84.1192,-446.6267 118.551,-186.521 177,-128 180.7537,-124.2416 184.9724,-121.0139 189.5024,-118.2449"/>
<polygon fill="#191970" stroke="#191970" points="70.3124,-536.1566 72.6682,-546.4862 77.2682,-536.942 70.3124,-536.1566"/>
</g>
<!-- Node22 -->
<g id="node23" class="node">
<title>Node22</title>
<g id="a_node23"><a xlink:href="structgko_1_1stop_1_1ResidualNormReduction_1_1parameters__type.html" target="_top" xlink:title=" ">
<polygon fill="#ffffff" stroke="#000000" points="187.5,-39 187.5,-69 371.5,-69 371.5,-39 187.5,-39"/>
<text text-anchor="start" x="195.5" y="-57" font-family="Helvetica,sans-Serif" font-size="10.00" fill="#000000">gko::stop::ResidualNormReduction</text>
<text text-anchor="middle" x="279.5" y="-46" font-family="Helvetica,sans-Serif" font-size="10.00" fill="#000000">&lt; ValueType &gt;::parameters_type</text>
</a>
</g>
</g>
<!-- Node0&#45;&gt;Node22 -->
<g id="edge22" class="edge">
<title>Node0&#45;&gt;Node22</title>
<path fill="none" stroke="#191970" d="M73.0145,-536.2629C81.5295,-439.74 112.4196,-145.1733 177,-79 180.71,-75.1985 184.8948,-71.9374 189.3993,-69.1431"/>
<polygon fill="#191970" stroke="#191970" points="69.5246,-535.9964 72.1506,-546.2606 76.4986,-536.5991 69.5246,-535.9964"/>
</g>
<!-- Node23 -->
<g id="node24" class="node">
<title>Node23</title>
<g id="a_node24"><a xlink:href="structgko_1_1stop_1_1Time_1_1parameters__type.html" target="_top" xlink:title=" ">
<polygon fill="#ffffff" stroke="#000000" points="188.5,-.5 188.5,-19.5 370.5,-19.5 370.5,-.5 188.5,-.5"/>
<text text-anchor="middle" x="279.5" y="-7.5" font-family="Helvetica,sans-Serif" font-size="10.00" fill="#000000">gko::stop::Time::parameters_type</text>
</a>
</g>
</g>
<!-- Node0&#45;&gt;Node23 -->
<g id="edge23" class="edge">
<title>Node0&#45;&gt;Node23</title>
<path fill="none" stroke="#191970" d="M72.2183,-536.1858C78.6131,-433.0323 104.5141,-102.2628 177,-30 181.1088,-25.9038 185.792,-22.5192 190.8418,-19.7322"/>
<polygon fill="#191970" stroke="#191970" points="68.7192,-536.0683 71.6115,-546.2606 75.7065,-536.4892 68.7192,-536.0683"/>
</g>
</g>
</svg>
