<?xml version="1.0" encoding="UTF-8" standalone="no"?>
<!DOCTYPE svg PUBLIC "-//W3C//DTD SVG 1.1//EN"
 "http://www.w3.org/Graphics/SVG/1.1/DTD/svg11.dtd">
<!-- Generated by graphviz version 2.40.1 (20161225.0304)
 -->
<!-- Title: Graphical Class Hierarchy Pages: 1 -->
<svg width="370pt" height="446pt"
 viewBox="0.00 0.00 370.00 446.00" xmlns="http://www.w3.org/2000/svg" xmlns:xlink="http://www.w3.org/1999/xlink">
<g id="graph0" class="graph" transform="scale(1 1) rotate(0) translate(4 442)">
<title>Graphical Class Hierarchy</title>
<polygon fill="#ffffff" stroke="transparent" points="-4,4 -4,-442 366,-442 366,4 -4,4"/>
<!-- Node238 -->
<g id="node1" class="node">
<title>Node238</title>
<g id="a_node1"><a xlink:title="STL class. ">
<polygon fill="#ffffff" stroke="#bfbfbf" points="0,-209.5 0,-228.5 86,-228.5 86,-209.5 0,-209.5"/>
<text text-anchor="middle" x="43" y="-216.5" font-family="Helvetica,sans-Serif" font-size="10.00" fill="#000000">std::exception</text>
</a>
</g>
</g>
<!-- Node0 -->
<g id="node2" class="node">
<title>Node0</title>
<g id="a_node2"><a xlink:href="classgko_1_1Error.html" target="_top" xlink:title="The Error class is used to report exceptional behaviour in library functions. ">
<polygon fill="#ffffff" stroke="#000000" points="122,-209.5 122,-228.5 186,-228.5 186,-209.5 122,-209.5"/>
<text text-anchor="middle" x="154" y="-216.5" font-family="Helvetica,sans-Serif" font-size="10.00" fill="#000000">gko::Error</text>
</a>
</g>
</g>
<!-- Node238&#45;&gt;Node0 -->
<g id="edge1" class="edge">
<title>Node238&#45;&gt;Node0</title>
<path fill="none" stroke="#191970" d="M96.3317,-219C105.005,-219 113.749,-219 121.7148,-219"/>
<polygon fill="#191970" stroke="#191970" points="96.2334,-215.5001 86.2333,-219 96.2333,-222.5001 96.2334,-215.5001"/>
</g>
<!-- Node1 -->
<g id="node3" class="node">
<title>Node1</title>
<g id="a_node3"><a xlink:href="classgko_1_1AllocationError.html" target="_top" xlink:title="AllocationError is thrown if a memory allocation fails. ">
<polygon fill="#ffffff" stroke="#000000" points="235.5,-418.5 235.5,-437.5 348.5,-437.5 348.5,-418.5 235.5,-418.5"/>
<text text-anchor="middle" x="292" y="-425.5" font-family="Helvetica,sans-Serif" font-size="10.00" fill="#000000">gko::AllocationError</text>
</a>
</g>
</g>
<!-- Node0&#45;&gt;Node1 -->
<g id="edge2" class="edge">
<title>Node0&#45;&gt;Node1</title>
<path fill="none" stroke="#191970" d="M155.2541,-238.9546C158.781,-277.5956 172.1032,-362.8808 222,-409 226.1613,-412.8463 231.0226,-415.9274 236.2092,-418.3936"/>
<polygon fill="#191970" stroke="#191970" points="158.7102,-238.2531 154.4444,-228.555 151.7313,-238.7965 158.7102,-238.2531"/>
</g>
<!-- Node2 -->
<g id="node4" class="node">
<title>Node2</title>
<g id="a_node4"><a xlink:href="classgko_1_1BadDimension.html" target="_top" xlink:title="BadDimension is thrown if an operation is being applied to a LinOp with bad dimensions. ">
<polygon fill="#ffffff" stroke="#000000" points="236,-380.5 236,-399.5 348,-399.5 348,-380.5 236,-380.5"/>
<text text-anchor="middle" x="292" y="-387.5" font-family="Helvetica,sans-Serif" font-size="10.00" fill="#000000">gko::BadDimension</text>
</a>
</g>
</g>
<!-- Node0&#45;&gt;Node2 -->
<g id="edge3" class="edge">
<title>Node0&#45;&gt;Node2</title>
<path fill="none" stroke="#191970" d="M157.2079,-238.5386C163.5784,-270.9827 180.9273,-335.8687 222,-371 226.4976,-374.847 231.7033,-377.9219 237.2053,-380.3785"/>
<polygon fill="#191970" stroke="#191970" points="160.619,-237.7331 155.3916,-228.5177 153.7313,-238.9816 160.619,-237.7331"/>
</g>
<!-- Node3 -->
<g id="node5" class="node">
<title>Node3</title>
<g id="a_node5"><a xlink:href="classgko_1_1CublasError.html" target="_top" xlink:title="CublasError is thrown when a cuBLAS routine throws a non&#45;zero error code. ">
<polygon fill="#ffffff" stroke="#000000" points="243.5,-342.5 243.5,-361.5 340.5,-361.5 340.5,-342.5 243.5,-342.5"/>
<text text-anchor="middle" x="292" y="-349.5" font-family="Helvetica,sans-Serif" font-size="10.00" fill="#000000">gko::CublasError</text>
</a>
</g>
</g>
<!-- Node0&#45;&gt;Node3 -->
<g id="edge4" class="edge">
<title>Node0&#45;&gt;Node3</title>
<path fill="none" stroke="#191970" d="M160.3247,-238.3131C169.692,-263.8595 189.7097,-308.5036 222,-333 228.3203,-337.7948 235.7692,-341.3803 243.4085,-344.0614"/>
<polygon fill="#191970" stroke="#191970" points="163.5527,-236.94 156.9574,-228.6483 156.9424,-239.2431 163.5527,-236.94"/>
</g>
<!-- Node4 -->
<g id="node6" class="node">
<title>Node4</title>
<g id="a_node6"><a xlink:href="classgko_1_1CudaError.html" target="_top" xlink:title="CudaError is thrown when a CUDA routine throws a non&#45;zero error code. ">
<polygon fill="#ffffff" stroke="#000000" points="247.5,-304.5 247.5,-323.5 336.5,-323.5 336.5,-304.5 247.5,-304.5"/>
<text text-anchor="middle" x="292" y="-311.5" font-family="Helvetica,sans-Serif" font-size="10.00" fill="#000000">gko::CudaError</text>
</a>
</g>
</g>
<!-- Node0&#45;&gt;Node4 -->
<g id="edge5" class="edge">
<title>Node0&#45;&gt;Node4</title>
<path fill="none" stroke="#191970" d="M165.6574,-237.2202C177.7111,-254.5993 198.101,-280.2496 222,-295 229.7154,-299.7619 238.628,-303.3482 247.454,-306.0434"/>
<polygon fill="#191970" stroke="#191970" points="168.3186,-234.9034 159.8492,-228.5378 162.5004,-238.7956 168.3186,-234.9034"/>
</g>
<!-- Node5 -->
<g id="node7" class="node">
<title>Node5</title>
<g id="a_node7"><a xlink:href="classgko_1_1CusparseError.html" target="_top" xlink:title="CusparseError is thrown when a cuSPARSE routine throws a non&#45;zero error code. ">
<polygon fill="#ffffff" stroke="#000000" points="237.5,-266.5 237.5,-285.5 346.5,-285.5 346.5,-266.5 237.5,-266.5"/>
<text text-anchor="middle" x="292" y="-273.5" font-family="Helvetica,sans-Serif" font-size="10.00" fill="#000000">gko::CusparseError</text>
</a>
</g>
</g>
<!-- Node0&#45;&gt;Node5 -->
<g id="edge6" class="edge">
<title>Node0&#45;&gt;Node5</title>
<path fill="none" stroke="#191970" d="M177.2327,-233.8529C190.054,-241.564 206.4824,-250.67 222,-257 230.978,-260.6623 240.888,-263.8404 250.3571,-266.4943"/>
<polygon fill="#191970" stroke="#191970" points="178.9507,-230.8006 168.599,-228.5441 175.2842,-236.7635 178.9507,-230.8006"/>
</g>
<!-- Node6 -->
<g id="node8" class="node">
<title>Node6</title>
<g id="a_node8"><a xlink:href="classgko_1_1DimensionMismatch.html" target="_top" xlink:title="DimensionMismatch is thrown if an operation is being applied to LinOps of incompatible size...">
<polygon fill="#ffffff" stroke="#000000" points="222,-228.5 222,-247.5 362,-247.5 362,-228.5 222,-228.5"/>
<text text-anchor="middle" x="292" y="-235.5" font-family="Helvetica,sans-Serif" font-size="10.00" fill="#000000">gko::DimensionMismatch</text>
</a>
</g>
</g>
<!-- Node0&#45;&gt;Node6 -->
<g id="edge7" class="edge">
<title>Node0&#45;&gt;Node6</title>
<path fill="none" stroke="#191970" d="M196.013,-224.7844C204.5157,-225.9551 213.6673,-227.2151 222.8231,-228.4756"/>
<polygon fill="#191970" stroke="#191970" points="196.3908,-221.3035 186.0068,-223.4067 195.436,-228.2381 196.3908,-221.3035"/>
</g>
<!-- Node7 -->
<g id="node9" class="node">
<title>Node7</title>
<g id="a_node9"><a xlink:href="classgko_1_1KernelNotFound.html" target="_top" xlink:title="KernelNotFound is thrown if Ginkgo cannot find a kernel which satisfies the criteria imposed by the i...">
<polygon fill="#ffffff" stroke="#000000" points="233,-190.5 233,-209.5 351,-209.5 351,-190.5 233,-190.5"/>
<text text-anchor="middle" x="292" y="-197.5" font-family="Helvetica,sans-Serif" font-size="10.00" fill="#000000">gko::KernelNotFound</text>
</a>
</g>
</g>
<!-- Node0&#45;&gt;Node7 -->
<g id="edge8" class="edge">
<title>Node0&#45;&gt;Node7</title>
<path fill="none" stroke="#191970" d="M196.2289,-213.1859C207.772,-211.5966 220.498,-209.8445 232.7999,-208.1507"/>
<polygon fill="#191970" stroke="#191970" points="195.436,-209.7619 186.0068,-214.5933 196.3908,-216.6965 195.436,-209.7619"/>
</g>
<!-- Node8 -->
<g id="node10" class="node">
<title>Node8</title>
<g id="a_node10"><a xlink:href="classgko_1_1NotCompiled.html" target="_top" xlink:title="NotCompiled is thrown when attempting to call an operation which is a part of a module that was not c...">
<polygon fill="#ffffff" stroke="#000000" points="240,-152.5 240,-171.5 344,-171.5 344,-152.5 240,-152.5"/>
<text text-anchor="middle" x="292" y="-159.5" font-family="Helvetica,sans-Serif" font-size="10.00" fill="#000000">gko::NotCompiled</text>
</a>
</g>
</g>
<!-- Node0&#45;&gt;Node8 -->
<g id="edge9" class="edge">
<title>Node0&#45;&gt;Node8</title>
<path fill="none" stroke="#191970" d="M177.2327,-204.1471C190.054,-196.436 206.4824,-187.33 222,-181 230.978,-177.3377 240.888,-174.1596 250.3571,-171.5057"/>
<polygon fill="#191970" stroke="#191970" points="175.2842,-201.2365 168.599,-209.4559 178.9507,-207.1994 175.2842,-201.2365"/>
</g>
<!-- Node9 -->
<g id="node11" class="node">
<title>Node9</title>
<g id="a_node11"><a xlink:href="classgko_1_1NotImplemented.html" target="_top" xlink:title="NotImplemented is thrown in case an operation has not yet been implemented (but will be implemented i...">
<polygon fill="#ffffff" stroke="#000000" points="230.5,-114.5 230.5,-133.5 353.5,-133.5 353.5,-114.5 230.5,-114.5"/>
<text text-anchor="middle" x="292" y="-121.5" font-family="Helvetica,sans-Serif" font-size="10.00" fill="#000000">gko::NotImplemented</text>
</a>
</g>
</g>
<!-- Node0&#45;&gt;Node9 -->
<g id="edge10" class="edge">
<title>Node0&#45;&gt;Node9</title>
<path fill="none" stroke="#191970" d="M165.6574,-200.7798C177.7111,-183.4007 198.101,-157.7504 222,-143 228.3223,-139.0979 235.4486,-135.9852 242.6724,-133.5053"/>
<polygon fill="#191970" stroke="#191970" points="162.5004,-199.2044 159.8492,-209.4622 168.3186,-203.0966 162.5004,-199.2044"/>
</g>
<!-- Node10 -->
<g id="node12" class="node">
<title>Node10</title>
<g id="a_node12"><a xlink:href="classgko_1_1NotSupported.html" target="_top" xlink:title="NotSupported is thrown in case it is not possible to perform the requested operation on the given obj...">
<polygon fill="#ffffff" stroke="#000000" points="238.5,-76.5 238.5,-95.5 345.5,-95.5 345.5,-76.5 238.5,-76.5"/>
<text text-anchor="middle" x="292" y="-83.5" font-family="Helvetica,sans-Serif" font-size="10.00" fill="#000000">gko::NotSupported</text>
</a>
</g>
</g>
<!-- Node0&#45;&gt;Node10 -->
<g id="edge11" class="edge">
<title>Node0&#45;&gt;Node10</title>
<path fill="none" stroke="#191970" d="M160.3247,-199.6869C169.692,-174.1405 189.7097,-129.4964 222,-105 227.1165,-101.1185 232.9725,-98.0295 239.0704,-95.5712"/>
<polygon fill="#191970" stroke="#191970" points="156.9424,-198.7569 156.9574,-209.3517 163.5527,-201.06 156.9424,-198.7569"/>
</g>
<!-- Node11 -->
<g id="node13" class="node">
<title>Node11</title>
<g id="a_node13"><a xlink:href="classgko_1_1OutOfBoundsError.html" target="_top" xlink:title="OutOfBoundsError is thrown if a memory access is detected to be out&#45;of&#45;bounds. ">
<polygon fill="#ffffff" stroke="#000000" points="228,-38.5 228,-57.5 356,-57.5 356,-38.5 228,-38.5"/>
<text text-anchor="middle" x="292" y="-45.5" font-family="Helvetica,sans-Serif" font-size="10.00" fill="#000000">gko::OutOfBoundsError</text>
</a>
</g>
</g>
<!-- Node0&#45;&gt;Node11 -->
<g id="edge12" class="edge">
<title>Node0&#45;&gt;Node11</title>
<path fill="none" stroke="#191970" d="M157.2079,-199.4614C163.5784,-167.0173 180.9273,-102.1313 222,-67 226.4976,-63.153 231.7033,-60.0781 237.2053,-57.6215"/>
<polygon fill="#191970" stroke="#191970" points="153.7313,-199.0184 155.3916,-209.4823 160.619,-200.2669 153.7313,-199.0184"/>
</g>
<!-- Node12 -->
<g id="node14" class="node">
<title>Node12</title>
<g id="a_node14"><a xlink:href="classgko_1_1StreamError.html" target="_top" xlink:title="StreamError is thrown if accessing a stream failed. ">
<polygon fill="#ffffff" stroke="#000000" points="242.5,-.5 242.5,-19.5 341.5,-19.5 341.5,-.5 242.5,-.5"/>
<text text-anchor="middle" x="292" y="-7.5" font-family="Helvetica,sans-Serif" font-size="10.00" fill="#000000">gko::StreamError</text>
</a>
</g>
</g>
<!-- Node0&#45;&gt;Node12 -->
<g id="edge13" class="edge">
<title>Node0&#45;&gt;Node12</title>
<path fill="none" stroke="#191970" d="M155.2541,-199.0454C158.781,-160.4044 172.1032,-75.1192 222,-29 227.7334,-23.7007 234.7955,-19.8538 242.2065,-17.0666"/>
<polygon fill="#191970" stroke="#191970" points="151.7313,-199.2035 154.4444,-209.445 158.7102,-199.7469 151.7313,-199.2035"/>
</g>
</g>
</svg>
