<?xml version="1.0" encoding="UTF-8" standalone="no"?>
<!DOCTYPE svg PUBLIC "-//W3C//DTD SVG 1.1//EN"
 "http://www.w3.org/Graphics/SVG/1.1/DTD/svg11.dtd">
<!-- Generated by graphviz version 2.38.0 (20140413.2041)
 -->
<!-- Title: Graphical Class Hierarchy Pages: 1 -->
<svg width="447pt" height="61pt"
 viewBox="0.00 0.00 447.00 61.00" xmlns="http://www.w3.org/2000/svg" xmlns:xlink="http://www.w3.org/1999/xlink">
<g id="graph0" class="graph" transform="scale(1 1) rotate(0) translate(4 57)">
<title>Graphical Class Hierarchy</title>
<polygon fill="white" stroke="none" points="-4,4 -4,-57 443,-57 443,4 -4,4"/>
<!-- Node1 -->
<g id="node1" class="node"><title>Node1</title>
<polygon fill="white" stroke="#bfbfbf" points="0,-17 0,-36 98,-36 98,-17 0,-17"/>
<text text-anchor="middle" x="49" y="-24" font-family="Helvetica,sans-Serif" font-size="10.00">thread_block_tile</text>
</g>
<!-- Node2 -->
<g id="node2" class="node"><title>Node2</title>
<polygon fill="white" stroke="#bfbfbf" points="134,-0.5 134,-52.5 294,-52.5 294,-0.5 134,-0.5"/>
<text text-anchor="start" x="142" y="-40.5" font-family="Helvetica,sans-Serif" font-size="10.00">gko::group::detail</text>
<text text-anchor="start" x="142" y="-29.5" font-family="Helvetica,sans-Serif" font-size="10.00">::enable_extended_shuffle</text>
<text text-anchor="start" x="142" y="-18.5" font-family="Helvetica,sans-Serif" font-size="10.00">&lt; cooperative_groups::thread</text>
<text text-anchor="middle" x="214" y="-7.5" font-family="Helvetica,sans-Serif" font-size="10.00">_block_tile&lt; Size &gt; &gt;</text>
</g>
<!-- Node1&#45;&gt;Node2 -->
<g id="edge1" class="edge"><title>Node1&#45;&gt;Node2</title>
<path fill="none" stroke="midnightblue" d="M108.028,-26.5C116.399,-26.5 125.131,-26.5 133.828,-26.5"/>
<polygon fill="midnightblue" stroke="midnightblue" points="108.024,-23.0001 98.0238,-26.5 108.024,-30.0001 108.024,-23.0001"/>
</g>
<!-- Node3 -->
<g id="node3" class="node"><title>Node3</title>
<g id="a_node3"><a xlink:href="structgko_1_1group_1_1thread__block__tile.html" target="_top" xlink:title="gko::group::thread\l_block_tile\&lt; Size \&gt;">
<polygon fill="white" stroke="black" points="330,-11.5 330,-41.5 439,-41.5 439,-11.5 330,-11.5"/>
<text text-anchor="start" x="338" y="-29.5" font-family="Helvetica,sans-Serif" font-size="10.00">gko::group::thread</text>
<text text-anchor="middle" x="384.5" y="-18.5" font-family="Helvetica,sans-Serif" font-size="10.00">_block_tile&lt; Size &gt;</text>
</a>
</g>
</g>
<!-- Node2&#45;&gt;Node3 -->
<g id="edge2" class="edge"><title>Node2&#45;&gt;Node3</title>
<path fill="none" stroke="midnightblue" d="M304.409,-26.5C312.997,-26.5 321.513,-26.5 329.599,-26.5"/>
<polygon fill="midnightblue" stroke="midnightblue" points="304.316,-23.0001 294.316,-26.5 304.316,-30.0001 304.316,-23.0001"/>
</g>
</g>
</svg>
