<?xml version="1.0" encoding="UTF-8" standalone="no"?>
<!DOCTYPE svg PUBLIC "-//W3C//DTD SVG 1.1//EN"
 "http://www.w3.org/Graphics/SVG/1.1/DTD/svg11.dtd">
<!-- Generated by graphviz version 2.40.1 (20161225.0304)
 -->
<!-- Title: Graphical Class Hierarchy Pages: 1 -->
<svg width="734pt" height="100pt"
 viewBox="0.00 0.00 734.00 99.50" xmlns="http://www.w3.org/2000/svg" xmlns:xlink="http://www.w3.org/1999/xlink">
<g id="graph0" class="graph" transform="scale(1 1) rotate(0) translate(4 95.5)">
<title>Graphical Class Hierarchy</title>
<polygon fill="#ffffff" stroke="transparent" points="-4,4 -4,-95.5 730,-95.5 730,4 -4,4"/>
<!-- Node420 -->
<g id="node1" class="node">
<title>Node420</title>
<g id="a_node1"><a xlink:href="classgko_1_1ConvertibleTo.html" target="_top" xlink:title=" ">
<polygon fill="#ffffff" stroke="#000000" points="133.5,-61 133.5,-91 321.5,-91 321.5,-61 133.5,-61"/>
<text text-anchor="start" x="141.5" y="-79" font-family="Helvetica,sans-Serif" font-size="10.00" fill="#000000">gko::ConvertibleTo</text>
<text text-anchor="middle" x="227.5" y="-68" font-family="Helvetica,sans-Serif" font-size="10.00" fill="#000000">&lt; Rcm&lt; ValueType, IndexType &gt; &gt;</text>
</a>
</g>
</g>
<!-- Node421 -->
<g id="node2" class="node">
<title>Node421</title>
<g id="a_node2"><a xlink:href="classgko_1_1EnablePolymorphicAssignment.html" target="_top" xlink:title=" ">
<polygon fill="#ffffff" stroke="#000000" points="362,-61 362,-91 554,-91 554,-61 362,-61"/>
<text text-anchor="start" x="370" y="-79" font-family="Helvetica,sans-Serif" font-size="10.00" fill="#000000">gko::EnablePolymorphicAssignment</text>
<text text-anchor="middle" x="458" y="-68" font-family="Helvetica,sans-Serif" font-size="10.00" fill="#000000">&lt; Rcm&lt; ValueType, IndexType &gt; &gt;</text>
</a>
</g>
</g>
<!-- Node420&#45;&gt;Node421 -->
<g id="edge1" class="edge">
<title>Node420&#45;&gt;Node421</title>
<path fill="none" stroke="#191970" d="M331.6371,-76C341.7384,-76 351.9547,-76 361.9717,-76"/>
<polygon fill="#191970" stroke="#191970" points="331.5857,-72.5001 321.5856,-76 331.5856,-79.5001 331.5857,-72.5001"/>
</g>
<!-- Node2 -->
<g id="node3" class="node">
<title>Node2</title>
<g id="a_node3"><a xlink:href="classgko_1_1reorder_1_1Rcm.html" target="_top" xlink:title="Rcm is a reordering algorithm minimizing the bandwidth of a matrix.">
<polygon fill="#ffffff" stroke="#000000" points="590,-33 590,-63 726,-63 726,-33 590,-33"/>
<text text-anchor="start" x="598" y="-51" font-family="Helvetica,sans-Serif" font-size="10.00" fill="#000000">gko::reorder::Rcm&lt;</text>
<text text-anchor="middle" x="658" y="-40" font-family="Helvetica,sans-Serif" font-size="10.00" fill="#000000"> ValueType, IndexType &gt;</text>
</a>
</g>
</g>
<!-- Node421&#45;&gt;Node2 -->
<g id="edge2" class="edge">
<title>Node421&#45;&gt;Node2</title>
<path fill="none" stroke="#191970" d="M564.3264,-61.1143C572.9477,-59.9073 581.5061,-58.7091 589.7438,-57.5559"/>
<polygon fill="#191970" stroke="#191970" points="563.6103,-57.6803 554.1922,-62.5331 564.5809,-64.6127 563.6103,-57.6803"/>
</g>
<!-- Node65 -->
<g id="node4" class="node">
<title>Node65</title>
<g id="a_node4"><a xlink:title=" ">
<polygon fill="#ffffff" stroke="#bfbfbf" points="0,-11.5 0,-30.5 93,-30.5 93,-11.5 0,-11.5"/>
<text text-anchor="middle" x="46.5" y="-18.5" font-family="Helvetica,sans-Serif" font-size="10.00" fill="#000000">ReorderingBase</text>
</a>
</g>
</g>
<!-- Node0 -->
<g id="node5" class="node">
<title>Node0</title>
<g id="a_node5"><a xlink:href="classgko_1_1EnableAbstractPolymorphicObject.html" target="_top" xlink:title=" ">
<polygon fill="#ffffff" stroke="#000000" points="129,-.5 129,-41.5 326,-41.5 326,-.5 129,-.5"/>
<text text-anchor="start" x="137" y="-29.5" font-family="Helvetica,sans-Serif" font-size="10.00" fill="#000000">gko::EnableAbstractPolymorphic</text>
<text text-anchor="start" x="137" y="-18.5" font-family="Helvetica,sans-Serif" font-size="10.00" fill="#000000">Object&lt; Rcm&lt; ValueType, IndexType</text>
<text text-anchor="middle" x="227.5" y="-7.5" font-family="Helvetica,sans-Serif" font-size="10.00" fill="#000000"> &gt;, ReorderingBase &gt;</text>
</a>
</g>
</g>
<!-- Node65&#45;&gt;Node0 -->
<g id="edge3" class="edge">
<title>Node65&#45;&gt;Node0</title>
<path fill="none" stroke="#191970" d="M103.2829,-21C111.5158,-21 120.183,-21 128.9518,-21"/>
<polygon fill="#191970" stroke="#191970" points="103.112,-17.5001 93.112,-21 103.112,-24.5001 103.112,-17.5001"/>
</g>
<!-- Node1 -->
<g id="node6" class="node">
<title>Node1</title>
<g id="a_node6"><a xlink:href="classgko_1_1EnablePolymorphicObject.html" target="_top" xlink:title=" ">
<polygon fill="#ffffff" stroke="#000000" points="375,-.5 375,-41.5 541,-41.5 541,-.5 375,-.5"/>
<text text-anchor="start" x="383" y="-29.5" font-family="Helvetica,sans-Serif" font-size="10.00" fill="#000000">gko::EnablePolymorphicObject</text>
<text text-anchor="start" x="383" y="-18.5" font-family="Helvetica,sans-Serif" font-size="10.00" fill="#000000">&lt; Rcm&lt; ValueType, IndexType</text>
<text text-anchor="middle" x="458" y="-7.5" font-family="Helvetica,sans-Serif" font-size="10.00" fill="#000000"> &gt;, ReorderingBase &gt;</text>
</a>
</g>
</g>
<!-- Node0&#45;&gt;Node1 -->
<g id="edge4" class="edge">
<title>Node0&#45;&gt;Node1</title>
<path fill="none" stroke="#191970" d="M336.5091,-21C349.3369,-21 362.2681,-21 374.6646,-21"/>
<polygon fill="#191970" stroke="#191970" points="336.2559,-17.5001 326.2558,-21 336.2558,-24.5001 336.2559,-17.5001"/>
</g>
<!-- Node1&#45;&gt;Node2 -->
<g id="edge5" class="edge">
<title>Node1&#45;&gt;Node2</title>
<path fill="none" stroke="#191970" d="M551.0167,-33.5573C564.0702,-35.3195 577.2833,-37.1032 589.7602,-38.7876"/>
<polygon fill="#191970" stroke="#191970" points="551.4589,-30.0853 541.0805,-32.2159 550.5223,-37.0224 551.4589,-30.0853"/>
</g>
</g>
</svg>
