<?xml version="1.0" encoding="UTF-8" standalone="no"?>
<!DOCTYPE svg PUBLIC "-//W3C//DTD SVG 1.1//EN"
 "http://www.w3.org/Graphics/SVG/1.1/DTD/svg11.dtd">
<!-- Generated by graphviz version 2.40.1 (20161225.0304)
 -->
<!-- Title: Graphical Class Hierarchy Pages: 1 -->
<svg width="308pt" height="116pt"
 viewBox="0.00 0.00 308.00 115.50" xmlns="http://www.w3.org/2000/svg" xmlns:xlink="http://www.w3.org/1999/xlink">
<g id="graph0" class="graph" transform="scale(1 1) rotate(0) translate(4 111.5)">
<title>Graphical Class Hierarchy</title>
<polygon fill="#ffffff" stroke="transparent" points="-4,4 -4,-111.5 304,-111.5 304,4 -4,4"/>
<!-- Node0 -->
<g id="node1" class="node">
<title>Node0</title>
<g id="a_node1"><a xlink:href="classgko_1_1log_1_1Logger.html" target="_top" xlink:title=" ">
<polygon fill="#ffffff" stroke="#000000" points="0,-38.5 0,-57.5 95,-57.5 95,-38.5 0,-38.5"/>
<text text-anchor="middle" x="47.5" y="-45.5" font-family="Helvetica,sans-Serif" font-size="10.00" fill="#000000">gko::log::Logger</text>
</a>
</g>
</g>
<!-- Node1 -->
<g id="node2" class="node">
<title>Node1</title>
<g id="a_node2"><a xlink:href="classgko_1_1log_1_1Convergence.html" target="_top" xlink:title="Convergence is a Logger which logs data strictly from the criterion_check_completed event.">
<polygon fill="#ffffff" stroke="#000000" points="153,-77 153,-107 278,-107 278,-77 153,-77"/>
<text text-anchor="start" x="161" y="-95" font-family="Helvetica,sans-Serif" font-size="10.00" fill="#000000">gko::log::Convergence</text>
<text text-anchor="middle" x="215.5" y="-84" font-family="Helvetica,sans-Serif" font-size="10.00" fill="#000000">&lt; ValueType &gt;</text>
</a>
</g>
</g>
<!-- Node0&#45;&gt;Node1 -->
<g id="edge1" class="edge">
<title>Node0&#45;&gt;Node1</title>
<path fill="none" stroke="#191970" d="M93.69,-60.0974C113.5597,-65.3013 136.9962,-71.4395 157.9777,-76.9346"/>
<polygon fill="#191970" stroke="#191970" points="94.514,-56.6952 83.9535,-57.5473 92.7404,-63.4668 94.514,-56.6952"/>
</g>
<!-- Node2 -->
<g id="node3" class="node">
<title>Node2</title>
<g id="a_node3"><a xlink:href="classgko_1_1log_1_1Record.html" target="_top" xlink:title="Record is a Logger which logs every event to an object.">
<polygon fill="#ffffff" stroke="#000000" points="168,-38.5 168,-57.5 263,-57.5 263,-38.5 168,-38.5"/>
<text text-anchor="middle" x="215.5" y="-45.5" font-family="Helvetica,sans-Serif" font-size="10.00" fill="#000000">gko::log::Record</text>
</a>
</g>
</g>
<!-- Node0&#45;&gt;Node2 -->
<g id="edge2" class="edge">
<title>Node0&#45;&gt;Node2</title>
<path fill="none" stroke="#191970" d="M105.3274,-48C125.7636,-48 148.496,-48 167.979,-48"/>
<polygon fill="#191970" stroke="#191970" points="105.1927,-44.5001 95.1927,-48 105.1926,-51.5001 105.1927,-44.5001"/>
</g>
<!-- Node3 -->
<g id="node4" class="node">
<title>Node3</title>
<g id="a_node4"><a xlink:href="classgko_1_1log_1_1Stream.html" target="_top" xlink:title="Stream is a Logger which logs every event to a stream.">
<polygon fill="#ffffff" stroke="#000000" points="131,-.5 131,-19.5 300,-19.5 300,-.5 131,-.5"/>
<text text-anchor="middle" x="215.5" y="-7.5" font-family="Helvetica,sans-Serif" font-size="10.00" fill="#000000">gko::log::Stream&lt; ValueType &gt;</text>
</a>
</g>
</g>
<!-- Node0&#45;&gt;Node3 -->
<g id="edge3" class="edge">
<title>Node0&#45;&gt;Node3</title>
<path fill="none" stroke="#191970" d="M99.3974,-36.1693C109.8592,-33.7905 120.7804,-31.3117 131,-29 144.6393,-25.9148 159.5205,-22.5637 172.9413,-19.5471"/>
<polygon fill="#191970" stroke="#191970" points="98.5199,-32.7794 89.5455,-38.4107 100.0728,-39.605 98.5199,-32.7794"/>
</g>
</g>
</svg>
