<?xml version="1.0" encoding="UTF-8" standalone="no"?>
<!DOCTYPE svg PUBLIC "-//W3C//DTD SVG 1.1//EN"
 "http://www.w3.org/Graphics/SVG/1.1/DTD/svg11.dtd">
<!-- Generated by graphviz version 2.40.1 (20161225.0304)
 -->
<!-- Title: Graphical Class Hierarchy Pages: 1 -->
<svg width="1047pt" height="594pt"
 viewBox="0.00 0.00 1047.00 593.50" xmlns="http://www.w3.org/2000/svg" xmlns:xlink="http://www.w3.org/1999/xlink">
<g id="graph0" class="graph" transform="scale(1 1) rotate(0) translate(4 589.5)">
<title>Graphical Class Hierarchy</title>
<polygon fill="#ffffff" stroke="transparent" points="-4,4 -4,-589.5 1043,-589.5 1043,4 -4,4"/>
<!-- Node318 -->
<g id="node1" class="node">
<title>Node318</title>
<g id="a_node1"><a xlink:href="classgko_1_1ConvertibleTo.html" target="_top" xlink:title="gko::ConvertibleTo\l\&lt; ConcreteFactory \&gt;">
<polygon fill="#ffffff" stroke="#000000" points="178.5,-290.5 178.5,-320.5 296.5,-320.5 296.5,-290.5 178.5,-290.5"/>
<text text-anchor="start" x="186.5" y="-308.5" font-family="Helvetica,sans-Serif" font-size="10.00" fill="#000000">gko::ConvertibleTo</text>
<text text-anchor="middle" x="237.5" y="-297.5" font-family="Helvetica,sans-Serif" font-size="10.00" fill="#000000">&lt; ConcreteFactory &gt;</text>
</a>
</g>
</g>
<!-- Node319 -->
<g id="node2" class="node">
<title>Node319</title>
<g id="a_node2"><a xlink:href="classgko_1_1EnablePolymorphicAssignment.html" target="_top" xlink:title="gko::EnablePolymorphicAssignment\l\&lt; ConcreteFactory \&gt;">
<polygon fill="#ffffff" stroke="#000000" points="382.5,-288.5 382.5,-318.5 574.5,-318.5 574.5,-288.5 382.5,-288.5"/>
<text text-anchor="start" x="390.5" y="-306.5" font-family="Helvetica,sans-Serif" font-size="10.00" fill="#000000">gko::EnablePolymorphicAssignment</text>
<text text-anchor="middle" x="478.5" y="-295.5" font-family="Helvetica,sans-Serif" font-size="10.00" fill="#000000">&lt; ConcreteFactory &gt;</text>
</a>
</g>
</g>
<!-- Node318&#45;&gt;Node319 -->
<g id="edge1" class="edge">
<title>Node318&#45;&gt;Node319</title>
<path fill="none" stroke="#191970" d="M306.9738,-304.9235C330.4758,-304.7284 357.1541,-304.507 382.3502,-304.2979"/>
<polygon fill="#191970" stroke="#191970" points="306.7345,-301.4252 296.7639,-305.0082 306.7926,-308.425 306.7345,-301.4252"/>
</g>
<!-- Node2 -->
<g id="node3" class="node">
<title>Node2</title>
<g id="a_node3"><a xlink:href="classgko_1_1EnableDefaultFactory.html" target="_top" xlink:title="This mixin provides a default implementation of a concrete factory. ">
<polygon fill="#ffffff" stroke="#000000" points="619,-257 619,-298 819,-298 819,-257 619,-257"/>
<text text-anchor="start" x="627" y="-286" font-family="Helvetica,sans-Serif" font-size="10.00" fill="#000000">gko::EnableDefaultFactory</text>
<text text-anchor="start" x="627" y="-275" font-family="Helvetica,sans-Serif" font-size="10.00" fill="#000000">&lt; ConcreteFactory, ProductType,</text>
<text text-anchor="middle" x="719" y="-264" font-family="Helvetica,sans-Serif" font-size="10.00" fill="#000000"> ParametersType, PolymorphicBase &gt;</text>
</a>
</g>
</g>
<!-- Node319&#45;&gt;Node2 -->
<g id="edge2" class="edge">
<title>Node319&#45;&gt;Node2</title>
<path fill="none" stroke="#191970" d="M584.8695,-292.0006C596.127,-290.7836 607.5489,-289.5488 618.7336,-288.3396"/>
<polygon fill="#191970" stroke="#191970" points="584.1547,-288.5574 574.5888,-293.112 584.9071,-295.5168 584.1547,-288.5574"/>
</g>
<!-- Node3 -->
<g id="node4" class="node">
<title>Node3</title>
<g id="a_node4"><a xlink:href="classgko_1_1factorization_1_1ParIlu_1_1Factory.html" target="_top" xlink:title="gko::factorization\l::ParIlu\&lt; ValueType,\l IndexType \&gt;::Factory">
<polygon fill="#ffffff" stroke="#000000" points="886,-544 886,-585 1008,-585 1008,-544 886,-544"/>
<text text-anchor="start" x="894" y="-573" font-family="Helvetica,sans-Serif" font-size="10.00" fill="#000000">gko::factorization</text>
<text text-anchor="start" x="894" y="-562" font-family="Helvetica,sans-Serif" font-size="10.00" fill="#000000">::ParIlu&lt; ValueType,</text>
<text text-anchor="middle" x="947" y="-551" font-family="Helvetica,sans-Serif" font-size="10.00" fill="#000000"> IndexType &gt;::Factory</text>
</a>
</g>
</g>
<!-- Node2&#45;&gt;Node3 -->
<g id="edge3" class="edge">
<title>Node2&#45;&gt;Node3</title>
<path fill="none" stroke="#191970" d="M726.9785,-308.1523C742.5084,-361.8213 781.8616,-472.9407 855,-534.5 863.8687,-541.9646 874.6401,-547.5847 885.6443,-551.8124"/>
<polygon fill="#191970" stroke="#191970" points="730.2614,-306.8969 724.1873,-298.2162 723.5223,-308.7901 730.2614,-306.8969"/>
</g>
<!-- Node4 -->
<g id="node5" class="node">
<title>Node4</title>
<g id="a_node5"><a xlink:href="classgko_1_1preconditioner_1_1Jacobi_1_1Factory.html" target="_top" xlink:title="gko::preconditioner\l::Jacobi\&lt; ValueType,\l IndexType \&gt;::Factory">
<polygon fill="#ffffff" stroke="#000000" points="886,-484 886,-525 1008,-525 1008,-484 886,-484"/>
<text text-anchor="start" x="894" y="-513" font-family="Helvetica,sans-Serif" font-size="10.00" fill="#000000">gko::preconditioner</text>
<text text-anchor="start" x="894" y="-502" font-family="Helvetica,sans-Serif" font-size="10.00" fill="#000000">::Jacobi&lt; ValueType,</text>
<text text-anchor="middle" x="947" y="-491" font-family="Helvetica,sans-Serif" font-size="10.00" fill="#000000"> IndexType &gt;::Factory</text>
</a>
</g>
</g>
<!-- Node2&#45;&gt;Node4 -->
<g id="edge4" class="edge">
<title>Node2&#45;&gt;Node4</title>
<path fill="none" stroke="#191970" d="M731.8671,-307.1945C751.9895,-350.2322 794.9173,-429.6823 855,-474.5 864.157,-481.3305 874.9406,-486.649 885.8405,-490.7769"/>
<polygon fill="#191970" stroke="#191970" points="735.0413,-305.7198 727.6953,-298.0853 728.677,-308.6345 735.0413,-305.7198"/>
</g>
<!-- Node5 -->
<g id="node6" class="node">
<title>Node5</title>
<g id="a_node6"><a xlink:href="classgko_1_1solver_1_1Bicgstab_1_1Factory.html" target="_top" xlink:title="gko::solver::Bicgstab\l\&lt; ValueType \&gt;::Factory">
<polygon fill="#ffffff" stroke="#000000" points="882,-434.5 882,-464.5 1012,-464.5 1012,-434.5 882,-434.5"/>
<text text-anchor="start" x="890" y="-452.5" font-family="Helvetica,sans-Serif" font-size="10.00" fill="#000000">gko::solver::Bicgstab</text>
<text text-anchor="middle" x="947" y="-441.5" font-family="Helvetica,sans-Serif" font-size="10.00" fill="#000000">&lt; ValueType &gt;::Factory</text>
</a>
</g>
</g>
<!-- Node2&#45;&gt;Node5 -->
<g id="edge5" class="edge">
<title>Node2&#45;&gt;Node5</title>
<path fill="none" stroke="#191970" d="M737.9736,-306.6874C761.4273,-340.4049 804.4888,-395.1256 855,-425.5 863.2047,-430.4338 872.4141,-434.3639 881.7517,-437.4919"/>
<polygon fill="#191970" stroke="#191970" points="740.6954,-304.4667 732.1645,-298.1838 734.9153,-308.4153 740.6954,-304.4667"/>
</g>
<!-- Node6 -->
<g id="node7" class="node">
<title>Node6</title>
<g id="a_node7"><a xlink:href="classgko_1_1solver_1_1Cg_1_1Factory.html" target="_top" xlink:title="gko::solver::Cg\&lt; ValueType\l \&gt;::Factory">
<polygon fill="#ffffff" stroke="#000000" points="872,-385.5 872,-415.5 1022,-415.5 1022,-385.5 872,-385.5"/>
<text text-anchor="start" x="880" y="-403.5" font-family="Helvetica,sans-Serif" font-size="10.00" fill="#000000">gko::solver::Cg&lt; ValueType</text>
<text text-anchor="middle" x="947" y="-392.5" font-family="Helvetica,sans-Serif" font-size="10.00" fill="#000000"> &gt;::Factory</text>
</a>
</g>
</g>
<!-- Node2&#45;&gt;Node6 -->
<g id="edge6" class="edge">
<title>Node2&#45;&gt;Node6</title>
<path fill="none" stroke="#191970" d="M749.5235,-304.9308C775.7697,-327.1789 815.531,-357.8122 855,-376.5 862.1611,-379.8906 869.8712,-382.8535 877.6726,-385.4299"/>
<polygon fill="#191970" stroke="#191970" points="751.6931,-302.1805 741.8274,-298.318 747.1311,-307.4898 751.6931,-302.1805"/>
</g>
<!-- Node7 -->
<g id="node8" class="node">
<title>Node7</title>
<g id="a_node8"><a xlink:href="classgko_1_1solver_1_1Cgs_1_1Factory.html" target="_top" xlink:title="gko::solver::Cgs\&lt; ValueType\l \&gt;::Factory">
<polygon fill="#ffffff" stroke="#000000" points="869.5,-336.5 869.5,-366.5 1024.5,-366.5 1024.5,-336.5 869.5,-336.5"/>
<text text-anchor="start" x="877.5" y="-354.5" font-family="Helvetica,sans-Serif" font-size="10.00" fill="#000000">gko::solver::Cgs&lt; ValueType</text>
<text text-anchor="middle" x="947" y="-343.5" font-family="Helvetica,sans-Serif" font-size="10.00" fill="#000000"> &gt;::Factory</text>
</a>
</g>
</g>
<!-- Node2&#45;&gt;Node7 -->
<g id="edge7" class="edge">
<title>Node2&#45;&gt;Node7</title>
<path fill="none" stroke="#191970" d="M780.5858,-301.5808C803.7469,-310.2557 830.421,-319.7958 855,-327.5 864.9232,-330.6104 875.5341,-333.6434 885.8931,-336.4487"/>
<polygon fill="#191970" stroke="#191970" points="781.819,-298.3053 771.2273,-298.0515 779.349,-304.855 781.819,-298.3053"/>
</g>
<!-- Node8 -->
<g id="node9" class="node">
<title>Node8</title>
<g id="a_node9"><a xlink:href="classgko_1_1solver_1_1Fcg_1_1Factory.html" target="_top" xlink:title="gko::solver::Fcg\&lt; ValueType\l \&gt;::Factory">
<polygon fill="#ffffff" stroke="#000000" points="870,-287.5 870,-317.5 1024,-317.5 1024,-287.5 870,-287.5"/>
<text text-anchor="start" x="878" y="-305.5" font-family="Helvetica,sans-Serif" font-size="10.00" fill="#000000">gko::solver::Fcg&lt; ValueType</text>
<text text-anchor="middle" x="947" y="-294.5" font-family="Helvetica,sans-Serif" font-size="10.00" fill="#000000"> &gt;::Factory</text>
</a>
</g>
</g>
<!-- Node2&#45;&gt;Node8 -->
<g id="edge8" class="edge">
<title>Node2&#45;&gt;Node8</title>
<path fill="none" stroke="#191970" d="M828.9961,-289.561C842.753,-291.0694 856.5878,-292.5864 869.6978,-294.0239"/>
<polygon fill="#191970" stroke="#191970" points="829.3261,-286.0763 819.0041,-288.4654 828.563,-293.0346 829.3261,-286.0763"/>
</g>
<!-- Node9 -->
<g id="node10" class="node">
<title>Node9</title>
<g id="a_node10"><a xlink:href="classgko_1_1solver_1_1Gmres_1_1Factory.html" target="_top" xlink:title="gko::solver::Gmres\l\&lt; ValueType \&gt;::Factory">
<polygon fill="#ffffff" stroke="#000000" points="882,-238.5 882,-268.5 1012,-268.5 1012,-238.5 882,-238.5"/>
<text text-anchor="start" x="890" y="-256.5" font-family="Helvetica,sans-Serif" font-size="10.00" fill="#000000">gko::solver::Gmres</text>
<text text-anchor="middle" x="947" y="-245.5" font-family="Helvetica,sans-Serif" font-size="10.00" fill="#000000">&lt; ValueType &gt;::Factory</text>
</a>
</g>
</g>
<!-- Node2&#45;&gt;Node9 -->
<g id="edge9" class="edge">
<title>Node2&#45;&gt;Node9</title>
<path fill="none" stroke="#191970" d="M829.0243,-265.9185C847.1062,-264.0151 865.3216,-262.0977 881.8479,-260.3581"/>
<polygon fill="#191970" stroke="#191970" points="828.5827,-262.4455 819.0041,-266.9733 829.3156,-269.4071 828.5827,-262.4455"/>
</g>
<!-- Node10 -->
<g id="node11" class="node">
<title>Node10</title>
<g id="a_node11"><a xlink:href="classgko_1_1solver_1_1Ir_1_1Factory.html" target="_top" xlink:title="gko::solver::Ir\&lt; ValueType\l \&gt;::Factory">
<polygon fill="#ffffff" stroke="#000000" points="875,-189.5 875,-219.5 1019,-219.5 1019,-189.5 875,-189.5"/>
<text text-anchor="start" x="883" y="-207.5" font-family="Helvetica,sans-Serif" font-size="10.00" fill="#000000">gko::solver::Ir&lt; ValueType</text>
<text text-anchor="middle" x="947" y="-196.5" font-family="Helvetica,sans-Serif" font-size="10.00" fill="#000000"> &gt;::Factory</text>
</a>
</g>
</g>
<!-- Node2&#45;&gt;Node10 -->
<g id="edge10" class="edge">
<title>Node2&#45;&gt;Node10</title>
<path fill="none" stroke="#191970" d="M783.6993,-253.5655C806.1546,-245.552 831.575,-236.8056 855,-229.5 865.9026,-226.0998 877.6115,-222.7163 888.9001,-219.5876"/>
<polygon fill="#191970" stroke="#191970" points="782.5018,-250.2767 774.2716,-256.9487 784.8662,-256.8653 782.5018,-250.2767"/>
</g>
<!-- Node11 -->
<g id="node12" class="node">
<title>Node11</title>
<g id="a_node12"><a xlink:href="classgko_1_1stop_1_1Combined_1_1Factory.html" target="_top" xlink:title="gko::stop::Combined\l::Factory">
<polygon fill="#ffffff" stroke="#000000" points="888.5,-140.5 888.5,-170.5 1005.5,-170.5 1005.5,-140.5 888.5,-140.5"/>
<text text-anchor="start" x="896.5" y="-158.5" font-family="Helvetica,sans-Serif" font-size="10.00" fill="#000000">gko::stop::Combined</text>
<text text-anchor="middle" x="947" y="-147.5" font-family="Helvetica,sans-Serif" font-size="10.00" fill="#000000">::Factory</text>
</a>
</g>
</g>
<!-- Node2&#45;&gt;Node11 -->
<g id="edge11" class="edge">
<title>Node2&#45;&gt;Node11</title>
<path fill="none" stroke="#191970" d="M749.5717,-250.3611C775.8469,-228.3468 815.6238,-198.0277 855,-179.5 865.4552,-174.5805 877.0713,-170.5569 888.4318,-167.3071"/>
<polygon fill="#191970" stroke="#191970" points="747.2233,-247.7636 741.8662,-256.9043 751.7543,-253.0994 747.2233,-247.7636"/>
</g>
<!-- Node12 -->
<g id="node13" class="node">
<title>Node12</title>
<g id="a_node13"><a xlink:href="classgko_1_1stop_1_1Iteration_1_1Factory.html" target="_top" xlink:title="gko::stop::Iteration\l::Factory">
<polygon fill="#ffffff" stroke="#000000" points="892.5,-91.5 892.5,-121.5 1001.5,-121.5 1001.5,-91.5 892.5,-91.5"/>
<text text-anchor="start" x="900.5" y="-109.5" font-family="Helvetica,sans-Serif" font-size="10.00" fill="#000000">gko::stop::Iteration</text>
<text text-anchor="middle" x="947" y="-98.5" font-family="Helvetica,sans-Serif" font-size="10.00" fill="#000000">::Factory</text>
</a>
</g>
</g>
<!-- Node2&#45;&gt;Node12 -->
<g id="edge12" class="edge">
<title>Node2&#45;&gt;Node12</title>
<path fill="none" stroke="#191970" d="M738.0201,-248.513C761.5182,-215.0263 804.6225,-160.6782 855,-130.5 866.3283,-123.7139 879.5608,-118.8253 892.4011,-115.311"/>
<polygon fill="#191970" stroke="#191970" points="734.9924,-246.7383 732.1991,-256.9583 740.756,-250.7109 734.9924,-246.7383"/>
</g>
<!-- Node13 -->
<g id="node14" class="node">
<title>Node13</title>
<g id="a_node14"><a xlink:href="classgko_1_1stop_1_1ResidualNormReduction_1_1Factory.html" target="_top" xlink:title="gko::stop::ResidualNormReduction\l\&lt; ValueType \&gt;::Factory">
<polygon fill="#ffffff" stroke="#000000" points="855,-42.5 855,-72.5 1039,-72.5 1039,-42.5 855,-42.5"/>
<text text-anchor="start" x="863" y="-60.5" font-family="Helvetica,sans-Serif" font-size="10.00" fill="#000000">gko::stop::ResidualNormReduction</text>
<text text-anchor="middle" x="947" y="-49.5" font-family="Helvetica,sans-Serif" font-size="10.00" fill="#000000">&lt; ValueType &gt;::Factory</text>
</a>
</g>
</g>
<!-- Node2&#45;&gt;Node13 -->
<g id="edge13" class="edge">
<title>Node2&#45;&gt;Node13</title>
<path fill="none" stroke="#191970" d="M741.5799,-248.462C762.3994,-221.3056 793.7989,-179.3657 819,-141.5 836.2301,-115.6111 830.1078,-100.1411 855,-81.5 859.6244,-78.0369 864.704,-75.0722 870.0278,-72.5342"/>
<polygon fill="#191970" stroke="#191970" points="738.538,-246.6759 735.2134,-256.7356 744.0857,-250.9449 738.538,-246.6759"/>
</g>
<!-- Node14 -->
<g id="node15" class="node">
<title>Node14</title>
<g id="a_node15"><a xlink:href="classgko_1_1stop_1_1Time_1_1Factory.html" target="_top" xlink:title="gko::stop::Time::Factory">
<polygon fill="#ffffff" stroke="#000000" points="880,-4 880,-23 1014,-23 1014,-4 880,-4"/>
<text text-anchor="middle" x="947" y="-11" font-family="Helvetica,sans-Serif" font-size="10.00" fill="#000000">gko::stop::Time::Factory</text>
</a>
</g>
</g>
<!-- Node2&#45;&gt;Node14 -->
<g id="edge14" class="edge">
<title>Node2&#45;&gt;Node14</title>
<path fill="none" stroke="#191970" d="M744.0889,-249.0661C766.2899,-222.7072 798.2902,-181.6212 819,-141.5 842.4011,-96.1651 816.9053,-66.4361 855,-32.5 862.0632,-26.2078 870.6483,-21.7915 879.7031,-18.7241"/>
<polygon fill="#191970" stroke="#191970" points="741.3581,-246.8745 737.5369,-256.7563 746.6864,-251.4142 741.3581,-246.8745"/>
</g>
<!-- Node316 -->
<g id="node16" class="node">
<title>Node316</title>
<g id="a_node16"><a xlink:href="classgko_1_1ConvertibleTo.html" target="_top" xlink:title="gko::ConvertibleTo\l\&lt; ConcreteLinOp \&gt;">
<polygon fill="#ffffff" stroke="#000000" points="182.5,-.5 182.5,-30.5 292.5,-30.5 292.5,-.5 182.5,-.5"/>
<text text-anchor="start" x="190.5" y="-18.5" font-family="Helvetica,sans-Serif" font-size="10.00" fill="#000000">gko::ConvertibleTo</text>
<text text-anchor="middle" x="237.5" y="-7.5" font-family="Helvetica,sans-Serif" font-size="10.00" fill="#000000">&lt; ConcreteLinOp &gt;</text>
</a>
</g>
</g>
<!-- Node317 -->
<g id="node17" class="node">
<title>Node317</title>
<g id="a_node17"><a xlink:href="classgko_1_1EnablePolymorphicAssignment.html" target="_top" xlink:title="gko::EnablePolymorphicAssignment\l\&lt; ConcreteLinOp \&gt;">
<polygon fill="#ffffff" stroke="#000000" points="382.5,-33.5 382.5,-63.5 574.5,-63.5 574.5,-33.5 382.5,-33.5"/>
<text text-anchor="start" x="390.5" y="-51.5" font-family="Helvetica,sans-Serif" font-size="10.00" fill="#000000">gko::EnablePolymorphicAssignment</text>
<text text-anchor="middle" x="478.5" y="-40.5" font-family="Helvetica,sans-Serif" font-size="10.00" fill="#000000">&lt; ConcreteLinOp &gt;</text>
</a>
</g>
</g>
<!-- Node316&#45;&gt;Node317 -->
<g id="edge15" class="edge">
<title>Node316&#45;&gt;Node317</title>
<path fill="none" stroke="#191970" d="M303.011,-24.4704C327.4452,-27.8161 355.7195,-31.6877 382.34,-35.3329"/>
<polygon fill="#191970" stroke="#191970" points="303.1727,-20.9599 292.7903,-23.0709 302.223,-27.8952 303.1727,-20.9599"/>
</g>
<!-- Node64 -->
<g id="node18" class="node">
<title>Node64</title>
<g id="a_node18"><a xlink:href="classgko_1_1EnableLinOp.html" target="_top" xlink:title="The EnableLinOp mixin can be used to provide sensible default implementations of the majority of the ...">
<polygon fill="#ffffff" stroke="#000000" points="641,-102.5 641,-132.5 797,-132.5 797,-102.5 641,-102.5"/>
<text text-anchor="start" x="649" y="-120.5" font-family="Helvetica,sans-Serif" font-size="10.00" fill="#000000">gko::EnableLinOp&lt; Concrete</text>
<text text-anchor="middle" x="719" y="-109.5" font-family="Helvetica,sans-Serif" font-size="10.00" fill="#000000">LinOp, PolymorphicBase &gt;</text>
</a>
</g>
</g>
<!-- Node317&#45;&gt;Node64 -->
<g id="edge16" class="edge">
<title>Node317&#45;&gt;Node64</title>
<path fill="none" stroke="#191970" d="M540.6687,-66.3363C579.7402,-77.5461 629.5785,-91.8448 666.6303,-102.475"/>
<polygon fill="#191970" stroke="#191970" points="541.559,-62.9506 530.9816,-63.5571 539.6285,-69.6792 541.559,-62.9506"/>
</g>
<!-- Node46 -->
<g id="node19" class="node">
<title>Node46</title>
<polygon fill="#ffffff" stroke="#bfbfbf" points="0,-151 0,-170 101,-170 101,-151 0,-151"/>
<text text-anchor="middle" x="50.5" y="-158" font-family="Helvetica,sans-Serif" font-size="10.00" fill="#000000">PolymorphicBase</text>
</g>
<!-- Node0 -->
<g id="node20" class="node">
<title>Node0</title>
<g id="a_node20"><a xlink:href="classgko_1_1EnableAbstractPolymorphicObject.html" target="_top" xlink:title="gko::EnableAbstractPolymorphic\lObject\&lt; ConcreteFactory,\l PolymorphicBase \&gt;">
<polygon fill="#ffffff" stroke="#000000" points="150,-230 150,-271 325,-271 325,-230 150,-230"/>
<text text-anchor="start" x="158" y="-259" font-family="Helvetica,sans-Serif" font-size="10.00" fill="#000000">gko::EnableAbstractPolymorphic</text>
<text text-anchor="start" x="158" y="-248" font-family="Helvetica,sans-Serif" font-size="10.00" fill="#000000">Object&lt; ConcreteFactory,</text>
<text text-anchor="middle" x="237.5" y="-237" font-family="Helvetica,sans-Serif" font-size="10.00" fill="#000000"> PolymorphicBase &gt;</text>
</a>
</g>
</g>
<!-- Node46&#45;&gt;Node0 -->
<g id="edge17" class="edge">
<title>Node46&#45;&gt;Node0</title>
<path fill="none" stroke="#191970" d="M69.7579,-176.5372C86.5963,-189.8812 112.1743,-208.5608 137,-220.5 144.2203,-223.9724 151.9274,-227.1373 159.7408,-229.998"/>
<polygon fill="#191970" stroke="#191970" points="71.7781,-173.6699 61.7994,-170.1095 67.3798,-179.1156 71.7781,-173.6699"/>
</g>
<!-- Node62 -->
<g id="node22" class="node">
<title>Node62</title>
<g id="a_node22"><a xlink:href="classgko_1_1EnableAbstractPolymorphicObject.html" target="_top" xlink:title="gko::EnableAbstractPolymorphic\lObject\&lt; ConcreteLinOp, Polymorphic\lBase \&gt;">
<polygon fill="#ffffff" stroke="#000000" points="139,-170 139,-211 336,-211 336,-170 139,-170"/>
<text text-anchor="start" x="147" y="-199" font-family="Helvetica,sans-Serif" font-size="10.00" fill="#000000">gko::EnableAbstractPolymorphic</text>
<text text-anchor="start" x="147" y="-188" font-family="Helvetica,sans-Serif" font-size="10.00" fill="#000000">Object&lt; ConcreteLinOp, Polymorphic</text>
<text text-anchor="middle" x="237.5" y="-177" font-family="Helvetica,sans-Serif" font-size="10.00" fill="#000000">Base &gt;</text>
</a>
</g>
</g>
<!-- Node46&#45;&gt;Node62 -->
<g id="edge20" class="edge">
<title>Node46&#45;&gt;Node62</title>
<path fill="none" stroke="#191970" d="M111.016,-170.2084C119.9879,-171.6478 129.4246,-173.1617 138.9314,-174.6869"/>
<polygon fill="#191970" stroke="#191970" points="111.5331,-166.7467 101.1049,-168.6184 110.4242,-173.6584 111.5331,-166.7467"/>
</g>
<!-- Node65 -->
<g id="node24" class="node">
<title>Node65</title>
<g id="a_node24"><a xlink:href="classgko_1_1EnableAbstractPolymorphicObject.html" target="_top" xlink:title="gko::EnableAbstractPolymorphic\lObject\&lt; ConcreteObject, Polymorphic\lBase \&gt;">
<polygon fill="#ffffff" stroke="#000000" points="137,-110 137,-151 338,-151 338,-110 137,-110"/>
<text text-anchor="start" x="145" y="-139" font-family="Helvetica,sans-Serif" font-size="10.00" fill="#000000">gko::EnableAbstractPolymorphic</text>
<text text-anchor="start" x="145" y="-128" font-family="Helvetica,sans-Serif" font-size="10.00" fill="#000000">Object&lt; ConcreteObject, Polymorphic</text>
<text text-anchor="middle" x="237.5" y="-117" font-family="Helvetica,sans-Serif" font-size="10.00" fill="#000000">Base &gt;</text>
</a>
</g>
</g>
<!-- Node46&#45;&gt;Node65 -->
<g id="edge23" class="edge">
<title>Node46&#45;&gt;Node65</title>
<path fill="none" stroke="#191970" d="M111.0054,-150.7933C119.3008,-149.4624 127.9936,-148.0679 136.772,-146.6596"/>
<polygon fill="#191970" stroke="#191970" points="110.4242,-147.3416 101.1049,-152.3816 111.5331,-154.2533 110.4242,-147.3416"/>
</g>
<!-- Node67 -->
<g id="node26" class="node">
<title>Node67</title>
<g id="a_node26"><a xlink:href="classgko_1_1EnableAbstractPolymorphicObject.html" target="_top" xlink:title="This mixin inherits from (a subclass of) PolymorphicObject and provides a base implementation of a ne...">
<polygon fill="#ffffff" stroke="#000000" points="140.5,-50 140.5,-91 334.5,-91 334.5,-50 140.5,-50"/>
<text text-anchor="start" x="148.5" y="-79" font-family="Helvetica,sans-Serif" font-size="10.00" fill="#000000">gko::EnableAbstractPolymorphic</text>
<text text-anchor="start" x="148.5" y="-68" font-family="Helvetica,sans-Serif" font-size="10.00" fill="#000000">Object&lt; AbstactObject, Polymorphic</text>
<text text-anchor="middle" x="237.5" y="-57" font-family="Helvetica,sans-Serif" font-size="10.00" fill="#000000">Base &gt;</text>
</a>
</g>
</g>
<!-- Node46&#45;&gt;Node67 -->
<g id="edge25" class="edge">
<title>Node46&#45;&gt;Node67</title>
<path fill="none" stroke="#191970" d="M69.7579,-144.4628C86.5963,-131.1188 112.1743,-112.4392 137,-100.5 144.2203,-97.0276 151.9274,-93.8627 159.7408,-91.002"/>
<polygon fill="#191970" stroke="#191970" points="67.3798,-141.8844 61.7994,-150.8905 71.7781,-147.3301 67.3798,-141.8844"/>
</g>
<!-- Node1 -->
<g id="node21" class="node">
<title>Node1</title>
<g id="a_node21"><a xlink:href="classgko_1_1EnablePolymorphicObject.html" target="_top" xlink:title="gko::EnablePolymorphicObject\l\&lt; ConcreteFactory, PolymorphicBase \&gt;">
<polygon fill="#ffffff" stroke="#000000" points="374,-236.5 374,-266.5 583,-266.5 583,-236.5 374,-236.5"/>
<text text-anchor="start" x="382" y="-254.5" font-family="Helvetica,sans-Serif" font-size="10.00" fill="#000000">gko::EnablePolymorphicObject</text>
<text text-anchor="middle" x="478.5" y="-243.5" font-family="Helvetica,sans-Serif" font-size="10.00" fill="#000000">&lt; ConcreteFactory, PolymorphicBase &gt;</text>
</a>
</g>
</g>
<!-- Node0&#45;&gt;Node1 -->
<g id="edge18" class="edge">
<title>Node0&#45;&gt;Node1</title>
<path fill="none" stroke="#191970" d="M335.2497,-250.9056C347.9022,-250.9581 360.902,-251.012 373.6633,-251.065"/>
<polygon fill="#191970" stroke="#191970" points="335.2027,-247.4055 325.1883,-250.8639 335.1736,-254.4054 335.2027,-247.4055"/>
</g>
<!-- Node1&#45;&gt;Node2 -->
<g id="edge19" class="edge">
<title>Node1&#45;&gt;Node2</title>
<path fill="none" stroke="#191970" d="M593.2573,-263.9062C601.7736,-264.8269 610.3266,-265.7515 618.7451,-266.6616"/>
<polygon fill="#191970" stroke="#191970" points="593.6055,-260.4235 583.2872,-262.8283 592.853,-267.383 593.6055,-260.4235"/>
</g>
<!-- Node63 -->
<g id="node23" class="node">
<title>Node63</title>
<g id="a_node23"><a xlink:href="classgko_1_1EnablePolymorphicObject.html" target="_top" xlink:title="gko::EnablePolymorphicObject\l\&lt; ConcreteLinOp, PolymorphicBase \&gt;">
<polygon fill="#ffffff" stroke="#000000" points="378,-170.5 378,-200.5 579,-200.5 579,-170.5 378,-170.5"/>
<text text-anchor="start" x="386" y="-188.5" font-family="Helvetica,sans-Serif" font-size="10.00" fill="#000000">gko::EnablePolymorphicObject</text>
<text text-anchor="middle" x="478.5" y="-177.5" font-family="Helvetica,sans-Serif" font-size="10.00" fill="#000000">&lt; ConcreteLinOp, PolymorphicBase &gt;</text>
</a>
</g>
</g>
<!-- Node62&#45;&gt;Node63 -->
<g id="edge21" class="edge">
<title>Node62&#45;&gt;Node63</title>
<path fill="none" stroke="#191970" d="M346.2891,-188.243C356.8418,-188.024 367.5155,-187.8026 377.9822,-187.5854"/>
<polygon fill="#191970" stroke="#191970" points="346.1445,-184.7451 336.2193,-188.4519 346.2898,-191.7436 346.1445,-184.7451"/>
</g>
<!-- Node63&#45;&gt;Node64 -->
<g id="edge22" class="edge">
<title>Node63&#45;&gt;Node64</title>
<path fill="none" stroke="#191970" d="M541.657,-167.6427C580.2306,-156.7363 629.011,-142.9439 665.6439,-132.5861"/>
<polygon fill="#191970" stroke="#191970" points="540.2469,-164.4041 531.5765,-170.4929 542.1515,-171.14 540.2469,-164.4041"/>
</g>
<!-- Node66 -->
<g id="node25" class="node">
<title>Node66</title>
<g id="a_node25"><a xlink:href="classgko_1_1EnablePolymorphicObject.html" target="_top" xlink:title="This mixin inherits from (a subclass of) PolymorphicObject and provides a base implementation of a ne...">
<polygon fill="#ffffff" stroke="#000000" points="376,-115.5 376,-145.5 581,-145.5 581,-115.5 376,-115.5"/>
<text text-anchor="start" x="384" y="-133.5" font-family="Helvetica,sans-Serif" font-size="10.00" fill="#000000">gko::EnablePolymorphicObject</text>
<text text-anchor="middle" x="478.5" y="-122.5" font-family="Helvetica,sans-Serif" font-size="10.00" fill="#000000">&lt; ConcreteObject, PolymorphicBase &gt;</text>
</a>
</g>
</g>
<!-- Node65&#45;&gt;Node66 -->
<g id="edge24" class="edge">
<title>Node65&#45;&gt;Node66</title>
<path fill="none" stroke="#191970" d="M348.5197,-130.5C357.6003,-130.5 366.753,-130.5 375.7701,-130.5"/>
<polygon fill="#191970" stroke="#191970" points="348.3093,-127.0001 338.3093,-130.5 348.3093,-134.0001 348.3093,-127.0001"/>
</g>
</g>
</svg>
