<?xml version="1.0" encoding="UTF-8" standalone="no"?>
<!DOCTYPE svg PUBLIC "-//W3C//DTD SVG 1.1//EN"
 "http://www.w3.org/Graphics/SVG/1.1/DTD/svg11.dtd">
<!-- Generated by graphviz version 2.40.1 (20161225.0304)
 -->
<!-- Title: Graphical Class Hierarchy Pages: 1 -->
<svg width="369pt" height="952pt"
 viewBox="0.00 0.00 369.00 952.00" xmlns="http://www.w3.org/2000/svg" xmlns:xlink="http://www.w3.org/1999/xlink">
<g id="graph0" class="graph" transform="scale(1 1) rotate(0) translate(4 948)">
<title>Graphical Class Hierarchy</title>
<polygon fill="#ffffff" stroke="transparent" points="-4,4 -4,-948 365,-948 365,4 -4,4"/>
<!-- Node0 -->
<g id="node1" class="node">
<title>Node0</title>
<g id="a_node1"><a xlink:href="structgko_1_1enable__parameters__type.html" target="_top" xlink:title=" ">
<polygon fill="#ffffff" stroke="#000000" points="0,-423.5 0,-464.5 141,-464.5 141,-423.5 0,-423.5"/>
<text text-anchor="start" x="8" y="-452.5" font-family="Helvetica,sans-Serif" font-size="10.00" fill="#000000">gko::enable_parameters</text>
<text text-anchor="start" x="8" y="-441.5" font-family="Helvetica,sans-Serif" font-size="10.00" fill="#000000">_type&lt; parameters_type,</text>
<text text-anchor="middle" x="70.5" y="-430.5" font-family="Helvetica,sans-Serif" font-size="10.00" fill="#000000"> Factory &gt;</text>
</a>
</g>
</g>
<!-- Node1 -->
<g id="node2" class="node">
<title>Node1</title>
<g id="a_node2"><a xlink:href="structgko_1_1factorization_1_1Ilu_1_1parameters__type.html" target="_top" xlink:title=" ">
<polygon fill="#ffffff" stroke="#000000" points="193.5,-902.5 193.5,-943.5 344.5,-943.5 344.5,-902.5 193.5,-902.5"/>
<text text-anchor="start" x="201.5" y="-931.5" font-family="Helvetica,sans-Serif" font-size="10.00" fill="#000000">gko::factorization</text>
<text text-anchor="start" x="201.5" y="-920.5" font-family="Helvetica,sans-Serif" font-size="10.00" fill="#000000">::Ilu&lt; ValueType, IndexType</text>
<text text-anchor="middle" x="269" y="-909.5" font-family="Helvetica,sans-Serif" font-size="10.00" fill="#000000"> &gt;::parameters_type</text>
</a>
</g>
</g>
<!-- Node0&#45;&gt;Node1 -->
<g id="edge1" class="edge">
<title>Node0&#45;&gt;Node1</title>
<path fill="none" stroke="#191970" d="M73.883,-474.7654C84.4665,-565.7033 119.7,-830.7773 177,-893 181.666,-898.0668 187.1972,-902.2802 193.1968,-905.7835"/>
<polygon fill="#191970" stroke="#191970" points="77.3298,-474.1008 72.7147,-464.564 70.3753,-474.8973 77.3298,-474.1008"/>
</g>
<!-- Node2 -->
<g id="node3" class="node">
<title>Node2</title>
<g id="a_node3"><a xlink:href="structgko_1_1factorization_1_1ParIlu_1_1parameters__type.html" target="_top" xlink:title=" ">
<polygon fill="#ffffff" stroke="#000000" points="184,-842.5 184,-883.5 354,-883.5 354,-842.5 184,-842.5"/>
<text text-anchor="start" x="192" y="-871.5" font-family="Helvetica,sans-Serif" font-size="10.00" fill="#000000">gko::factorization</text>
<text text-anchor="start" x="192" y="-860.5" font-family="Helvetica,sans-Serif" font-size="10.00" fill="#000000">::ParIlu&lt; ValueType,</text>
<text text-anchor="middle" x="269" y="-849.5" font-family="Helvetica,sans-Serif" font-size="10.00" fill="#000000"> IndexType &gt;::parameters_type</text>
</a>
</g>
</g>
<!-- Node0&#45;&gt;Node2 -->
<g id="edge2" class="edge">
<title>Node0&#45;&gt;Node2</title>
<path fill="none" stroke="#191970" d="M75.0502,-474.4725C87.8946,-556.6737 126.7851,-780.3159 177,-833 180.3614,-836.5267 184.1418,-839.6393 188.2032,-842.3865"/>
<polygon fill="#191970" stroke="#191970" points="78.4963,-473.8542 73.5125,-464.5047 71.5781,-474.9215 78.4963,-473.8542"/>
</g>
<!-- Node3 -->
<g id="node4" class="node">
<title>Node3</title>
<g id="a_node4"><a xlink:href="structgko_1_1preconditioner_1_1Ilu_1_1parameters__type.html" target="_top" xlink:title=" ">
<polygon fill="#ffffff" stroke="#000000" points="184,-771 184,-823 354,-823 354,-771 184,-771"/>
<text text-anchor="start" x="192" y="-811" font-family="Helvetica,sans-Serif" font-size="10.00" fill="#000000">gko::preconditioner</text>
<text text-anchor="start" x="192" y="-800" font-family="Helvetica,sans-Serif" font-size="10.00" fill="#000000">::Ilu&lt; LSolverType,</text>
<text text-anchor="start" x="192" y="-789" font-family="Helvetica,sans-Serif" font-size="10.00" fill="#000000"> USolverType, ReverseApply,</text>
<text text-anchor="middle" x="269" y="-778" font-family="Helvetica,sans-Serif" font-size="10.00" fill="#000000"> IndexType &gt;::parameters_type</text>
</a>
</g>
</g>
<!-- Node0&#45;&gt;Node3 -->
<g id="edge3" class="edge">
<title>Node0&#45;&gt;Node3</title>
<path fill="none" stroke="#191970" d="M72.403,-474.8023C77.8551,-537.0168 98.6546,-678.7289 177,-761 180.4301,-764.602 184.2637,-767.8499 188.3653,-770.7777"/>
<polygon fill="#191970" stroke="#191970" points="75.8915,-474.5178 71.6026,-464.8298 68.9139,-475.0778 75.8915,-474.5178"/>
</g>
<!-- Node4 -->
<g id="node5" class="node">
<title>Node4</title>
<g id="a_node5"><a xlink:href="structgko_1_1preconditioner_1_1Isai_1_1parameters__type.html" target="_top" xlink:title=" ">
<polygon fill="#ffffff" stroke="#000000" points="184,-710.5 184,-751.5 354,-751.5 354,-710.5 184,-710.5"/>
<text text-anchor="start" x="192" y="-739.5" font-family="Helvetica,sans-Serif" font-size="10.00" fill="#000000">gko::preconditioner</text>
<text text-anchor="start" x="192" y="-728.5" font-family="Helvetica,sans-Serif" font-size="10.00" fill="#000000">::Isai&lt; IsaiType, ValueType,</text>
<text text-anchor="middle" x="269" y="-717.5" font-family="Helvetica,sans-Serif" font-size="10.00" fill="#000000"> IndexType &gt;::parameters_type</text>
</a>
</g>
</g>
<!-- Node0&#45;&gt;Node4 -->
<g id="edge4" class="edge">
<title>Node0&#45;&gt;Node4</title>
<path fill="none" stroke="#191970" d="M74.744,-474.5393C83.776,-528.0318 109.8645,-638.8846 177,-701 180.8228,-704.5369 185.0687,-707.6571 189.5794,-710.4097"/>
<polygon fill="#191970" stroke="#191970" points="78.1956,-473.9576 73.158,-464.637 71.2837,-475.0647 78.1956,-473.9576"/>
</g>
<!-- Node5 -->
<g id="node6" class="node">
<title>Node5</title>
<g id="a_node6"><a xlink:href="structgko_1_1preconditioner_1_1Jacobi_1_1parameters__type.html" target="_top" xlink:title=" ">
<polygon fill="#ffffff" stroke="#000000" points="184,-650.5 184,-691.5 354,-691.5 354,-650.5 184,-650.5"/>
<text text-anchor="start" x="192" y="-679.5" font-family="Helvetica,sans-Serif" font-size="10.00" fill="#000000">gko::preconditioner</text>
<text text-anchor="start" x="192" y="-668.5" font-family="Helvetica,sans-Serif" font-size="10.00" fill="#000000">::Jacobi&lt; ValueType,</text>
<text text-anchor="middle" x="269" y="-657.5" font-family="Helvetica,sans-Serif" font-size="10.00" fill="#000000"> IndexType &gt;::parameters_type</text>
</a>
</g>
</g>
<!-- Node0&#45;&gt;Node5 -->
<g id="edge5" class="edge">
<title>Node0&#45;&gt;Node5</title>
<path fill="none" stroke="#191970" d="M78.9668,-474.2127C92.5756,-517.3406 123.3776,-596.2724 177,-641 181.2574,-644.5512 185.9459,-647.6853 190.8836,-650.4509"/>
<polygon fill="#191970" stroke="#191970" points="82.2894,-473.1091 76.0224,-464.5666 75.5944,-475.1528 82.2894,-473.1091"/>
</g>
<!-- Node6 -->
<g id="node7" class="node">
<title>Node6</title>
<g id="a_node7"><a xlink:href="structgko_1_1solver_1_1Bicg_1_1parameters__type.html" target="_top" xlink:title=" ">
<polygon fill="#ffffff" stroke="#000000" points="184,-601 184,-631 354,-631 354,-601 184,-601"/>
<text text-anchor="start" x="192" y="-619" font-family="Helvetica,sans-Serif" font-size="10.00" fill="#000000">gko::solver::Bicg&lt;</text>
<text text-anchor="middle" x="269" y="-608" font-family="Helvetica,sans-Serif" font-size="10.00" fill="#000000"> ValueType &gt;::parameters_type</text>
</a>
</g>
</g>
<!-- Node0&#45;&gt;Node6 -->
<g id="edge6" class="edge">
<title>Node0&#45;&gt;Node6</title>
<path fill="none" stroke="#191970" d="M84.215,-474.1008C101.1848,-507.9271 133.2798,-562.018 177,-592 182.0369,-595.4542 187.5396,-598.4112 193.2683,-600.9426"/>
<polygon fill="#191970" stroke="#191970" points="87.1672,-472.1698 79.6351,-464.7187 80.8766,-475.2405 87.1672,-472.1698"/>
</g>
<!-- Node7 -->
<g id="node8" class="node">
<title>Node7</title>
<g id="a_node8"><a xlink:href="structgko_1_1solver_1_1Bicgstab_1_1parameters__type.html" target="_top" xlink:title=" ">
<polygon fill="#ffffff" stroke="#000000" points="180,-552 180,-582 358,-582 358,-552 180,-552"/>
<text text-anchor="start" x="188" y="-570" font-family="Helvetica,sans-Serif" font-size="10.00" fill="#000000">gko::solver::Bicgstab</text>
<text text-anchor="middle" x="269" y="-559" font-family="Helvetica,sans-Serif" font-size="10.00" fill="#000000">&lt; ValueType &gt;::parameters_type</text>
</a>
</g>
</g>
<!-- Node0&#45;&gt;Node7 -->
<g id="edge7" class="edge">
<title>Node0&#45;&gt;Node7</title>
<path fill="none" stroke="#191970" d="M93.6861,-472.1704C113.5683,-494.5398 144.14,-524.9609 177,-543 183.222,-546.4157 189.9495,-549.361 196.837,-551.8977"/>
<polygon fill="#191970" stroke="#191970" points="96.3215,-469.8672 87.1131,-464.6273 91.044,-474.4659 96.3215,-469.8672"/>
</g>
<!-- Node8 -->
<g id="node9" class="node">
<title>Node8</title>
<g id="a_node9"><a xlink:href="structgko_1_1solver_1_1Cg_1_1parameters__type.html" target="_top" xlink:title=" ">
<polygon fill="#ffffff" stroke="#000000" points="194,-503 194,-533 344,-533 344,-503 194,-503"/>
<text text-anchor="start" x="202" y="-521" font-family="Helvetica,sans-Serif" font-size="10.00" fill="#000000">gko::solver::Cg&lt; ValueType</text>
<text text-anchor="middle" x="269" y="-510" font-family="Helvetica,sans-Serif" font-size="10.00" fill="#000000"> &gt;::parameters_type</text>
</a>
</g>
</g>
<!-- Node0&#45;&gt;Node8 -->
<g id="edge8" class="edge">
<title>Node0&#45;&gt;Node8</title>
<path fill="none" stroke="#191970" d="M118.8343,-468.9894C136.7929,-477.6584 157.5354,-486.9596 177,-494 186.0031,-497.2564 195.6491,-500.2692 205.1845,-502.9816"/>
<polygon fill="#191970" stroke="#191970" points="120.239,-465.7803 109.7183,-464.5291 117.1624,-472.068 120.239,-465.7803"/>
</g>
<!-- Node9 -->
<g id="node10" class="node">
<title>Node9</title>
<g id="a_node10"><a xlink:href="structgko_1_1solver_1_1Cgs_1_1parameters__type.html" target="_top" xlink:title=" ">
<polygon fill="#ffffff" stroke="#000000" points="191.5,-454 191.5,-484 346.5,-484 346.5,-454 191.5,-454"/>
<text text-anchor="start" x="199.5" y="-472" font-family="Helvetica,sans-Serif" font-size="10.00" fill="#000000">gko::solver::Cgs&lt; ValueType</text>
<text text-anchor="middle" x="269" y="-461" font-family="Helvetica,sans-Serif" font-size="10.00" fill="#000000"> &gt;::parameters_type</text>
</a>
</g>
</g>
<!-- Node0&#45;&gt;Node9 -->
<g id="edge9" class="edge">
<title>Node0&#45;&gt;Node9</title>
<path fill="none" stroke="#191970" d="M151.0797,-454.1486C164.3444,-455.8192 178.0706,-457.5479 191.264,-459.2096"/>
<polygon fill="#191970" stroke="#191970" points="151.4016,-450.6616 141.0426,-452.8845 150.5268,-457.6067 151.4016,-450.6616"/>
</g>
<!-- Node10 -->
<g id="node11" class="node">
<title>Node10</title>
<g id="a_node11"><a xlink:href="structgko_1_1solver_1_1Fcg_1_1parameters__type.html" target="_top" xlink:title=" ">
<polygon fill="#ffffff" stroke="#000000" points="192,-405 192,-435 346,-435 346,-405 192,-405"/>
<text text-anchor="start" x="200" y="-423" font-family="Helvetica,sans-Serif" font-size="10.00" fill="#000000">gko::solver::Fcg&lt; ValueType</text>
<text text-anchor="middle" x="269" y="-412" font-family="Helvetica,sans-Serif" font-size="10.00" fill="#000000"> &gt;::parameters_type</text>
</a>
</g>
</g>
<!-- Node0&#45;&gt;Node10 -->
<g id="edge10" class="edge">
<title>Node0&#45;&gt;Node10</title>
<path fill="none" stroke="#191970" d="M151.2187,-434.2406C164.6683,-432.6144 178.5887,-430.9313 191.944,-429.3166"/>
<polygon fill="#191970" stroke="#191970" points="150.5501,-430.7958 141.0426,-435.4709 151.3904,-437.7452 150.5501,-430.7958"/>
</g>
<!-- Node11 -->
<g id="node12" class="node">
<title>Node11</title>
<g id="a_node12"><a xlink:href="structgko_1_1solver_1_1Gmres_1_1parameters__type.html" target="_top" xlink:title=" ">
<polygon fill="#ffffff" stroke="#000000" points="180,-356 180,-386 358,-386 358,-356 180,-356"/>
<text text-anchor="start" x="188" y="-374" font-family="Helvetica,sans-Serif" font-size="10.00" fill="#000000">gko::solver::Gmres</text>
<text text-anchor="middle" x="269" y="-363" font-family="Helvetica,sans-Serif" font-size="10.00" fill="#000000">&lt; ValueType &gt;::parameters_type</text>
</a>
</g>
</g>
<!-- Node0&#45;&gt;Node11 -->
<g id="edge11" class="edge">
<title>Node0&#45;&gt;Node11</title>
<path fill="none" stroke="#191970" d="M121.4976,-419.0414C138.8672,-411.0732 158.5573,-402.615 177,-396 186.9709,-392.4236 197.7064,-389.073 208.2009,-386.0586"/>
<polygon fill="#191970" stroke="#191970" points="119.7037,-416.0155 112.1092,-423.4029 122.653,-422.3638 119.7037,-416.0155"/>
</g>
<!-- Node12 -->
<g id="node13" class="node">
<title>Node12</title>
<g id="a_node13"><a xlink:href="structgko_1_1solver_1_1Ir_1_1parameters__type.html" target="_top" xlink:title=" ">
<polygon fill="#ffffff" stroke="#000000" points="197,-307 197,-337 341,-337 341,-307 197,-307"/>
<text text-anchor="start" x="205" y="-325" font-family="Helvetica,sans-Serif" font-size="10.00" fill="#000000">gko::solver::Ir&lt; ValueType</text>
<text text-anchor="middle" x="269" y="-314" font-family="Helvetica,sans-Serif" font-size="10.00" fill="#000000"> &gt;::parameters_type</text>
</a>
</g>
</g>
<!-- Node0&#45;&gt;Node12 -->
<g id="edge12" class="edge">
<title>Node0&#45;&gt;Node12</title>
<path fill="none" stroke="#191970" d="M94.4725,-415.8203C114.4601,-394.0299 144.7833,-364.6855 177,-347 183.9643,-343.1769 191.5514,-339.9085 199.2829,-337.1213"/>
<polygon fill="#191970" stroke="#191970" points="91.6765,-413.6952 87.5919,-423.471 96.8813,-418.3761 91.6765,-413.6952"/>
</g>
<!-- Node13 -->
<g id="node14" class="node">
<title>Node13</title>
<g id="a_node14"><a xlink:href="structgko_1_1solver_1_1LowerTrs_1_1parameters__type.html" target="_top" xlink:title=" ">
<polygon fill="#ffffff" stroke="#000000" points="202.5,-246.5 202.5,-287.5 335.5,-287.5 335.5,-246.5 202.5,-246.5"/>
<text text-anchor="start" x="210.5" y="-275.5" font-family="Helvetica,sans-Serif" font-size="10.00" fill="#000000">gko::solver::LowerTrs</text>
<text text-anchor="start" x="210.5" y="-264.5" font-family="Helvetica,sans-Serif" font-size="10.00" fill="#000000">&lt; ValueType, IndexType</text>
<text text-anchor="middle" x="269" y="-253.5" font-family="Helvetica,sans-Serif" font-size="10.00" fill="#000000"> &gt;::parameters_type</text>
</a>
</g>
</g>
<!-- Node0&#45;&gt;Node13 -->
<g id="edge13" class="edge">
<title>Node0&#45;&gt;Node13</title>
<path fill="none" stroke="#191970" d="M84.9852,-414.3051C102.4731,-381.3975 134.8614,-328.9045 177,-298 184.6111,-292.418 193.2946,-287.7948 202.2173,-283.9779"/>
<polygon fill="#191970" stroke="#191970" points="81.7453,-412.9498 80.2469,-423.4382 87.9589,-416.1735 81.7453,-412.9498"/>
</g>
<!-- Node14 -->
<g id="node15" class="node">
<title>Node14</title>
<g id="a_node15"><a xlink:href="structgko_1_1solver_1_1UpperTrs_1_1parameters__type.html" target="_top" xlink:title=" ">
<polygon fill="#ffffff" stroke="#000000" points="202.5,-186.5 202.5,-227.5 335.5,-227.5 335.5,-186.5 202.5,-186.5"/>
<text text-anchor="start" x="210.5" y="-215.5" font-family="Helvetica,sans-Serif" font-size="10.00" fill="#000000">gko::solver::UpperTrs</text>
<text text-anchor="start" x="210.5" y="-204.5" font-family="Helvetica,sans-Serif" font-size="10.00" fill="#000000">&lt; ValueType, IndexType</text>
<text text-anchor="middle" x="269" y="-193.5" font-family="Helvetica,sans-Serif" font-size="10.00" fill="#000000"> &gt;::parameters_type</text>
</a>
</g>
</g>
<!-- Node0&#45;&gt;Node14 -->
<g id="edge14" class="edge">
<title>Node0&#45;&gt;Node14</title>
<path fill="none" stroke="#191970" d="M78.147,-413.5991C91.0049,-368.6124 121.1926,-284.5252 177,-237 184.4185,-230.6825 193.1979,-225.6877 202.3407,-221.7405"/>
<polygon fill="#191970" stroke="#191970" points="74.7386,-412.7936 75.4539,-423.3642 81.4867,-414.6547 74.7386,-412.7936"/>
</g>
<!-- Node15 -->
<g id="node16" class="node">
<title>Node15</title>
<g id="a_node16"><a xlink:href="structgko_1_1stop_1_1Combined_1_1parameters__type.html" target="_top" xlink:title=" ">
<polygon fill="#ffffff" stroke="#000000" points="210.5,-137 210.5,-167 327.5,-167 327.5,-137 210.5,-137"/>
<text text-anchor="start" x="218.5" y="-155" font-family="Helvetica,sans-Serif" font-size="10.00" fill="#000000">gko::stop::Combined</text>
<text text-anchor="middle" x="269" y="-144" font-family="Helvetica,sans-Serif" font-size="10.00" fill="#000000">::parameters_type</text>
</a>
</g>
</g>
<!-- Node0&#45;&gt;Node15 -->
<g id="edge15" class="edge">
<title>Node0&#45;&gt;Node15</title>
<path fill="none" stroke="#191970" d="M73.8309,-413.5281C81.546,-358.0649 105.7953,-240.5041 177,-177 186.3879,-168.6274 198.3101,-163.0226 210.4345,-159.2803"/>
<polygon fill="#191970" stroke="#191970" points="70.36,-413.0781 72.5371,-423.4468 77.3012,-413.9836 70.36,-413.0781"/>
</g>
<!-- Node16 -->
<g id="node17" class="node">
<title>Node16</title>
<g id="a_node17"><a xlink:href="structgko_1_1stop_1_1Iteration_1_1parameters__type.html" target="_top" xlink:title=" ">
<polygon fill="#ffffff" stroke="#000000" points="214.5,-88 214.5,-118 323.5,-118 323.5,-88 214.5,-88"/>
<text text-anchor="start" x="222.5" y="-106" font-family="Helvetica,sans-Serif" font-size="10.00" fill="#000000">gko::stop::Iteration</text>
<text text-anchor="middle" x="269" y="-95" font-family="Helvetica,sans-Serif" font-size="10.00" fill="#000000">::parameters_type</text>
</a>
</g>
</g>
<!-- Node0&#45;&gt;Node16 -->
<g id="edge16" class="edge">
<title>Node0&#45;&gt;Node16</title>
<path fill="none" stroke="#191970" d="M77.0066,-413.234C92.6838,-341.8751 134.4116,-168.1173 177,-128 187.2407,-118.3534 200.8235,-112.3567 214.4,-108.6495"/>
<polygon fill="#191970" stroke="#191970" points="73.5048,-412.8669 74.8016,-423.3821 80.3452,-414.3533 73.5048,-412.8669"/>
</g>
<!-- Node17 -->
<g id="node18" class="node">
<title>Node17</title>
<g id="a_node18"><a xlink:href="structgko_1_1stop_1_1ResidualNormReduction_1_1parameters__type.html" target="_top" xlink:title=" ">
<polygon fill="#ffffff" stroke="#000000" points="177,-39 177,-69 361,-69 361,-39 177,-39"/>
<text text-anchor="start" x="185" y="-57" font-family="Helvetica,sans-Serif" font-size="10.00" fill="#000000">gko::stop::ResidualNormReduction</text>
<text text-anchor="middle" x="269" y="-46" font-family="Helvetica,sans-Serif" font-size="10.00" fill="#000000">&lt; ValueType &gt;::parameters_type</text>
</a>
</g>
</g>
<!-- Node0&#45;&gt;Node17 -->
<g id="edge17" class="edge">
<title>Node0&#45;&gt;Node17</title>
<path fill="none" stroke="#191970" d="M75.5839,-412.91C89.1545,-333.5868 128.5216,-126.5865 177,-79 180.8979,-75.1738 185.3196,-71.9187 190.0653,-69.1509"/>
<polygon fill="#191970" stroke="#191970" points="72.0559,-412.7824 73.8419,-423.2256 78.9582,-413.948 72.0559,-412.7824"/>
</g>
<!-- Node18 -->
<g id="node19" class="node">
<title>Node18</title>
<g id="a_node19"><a xlink:href="structgko_1_1stop_1_1Time_1_1parameters__type.html" target="_top" xlink:title=" ">
<polygon fill="#ffffff" stroke="#000000" points="178,-.5 178,-19.5 360,-19.5 360,-.5 178,-.5"/>
<text text-anchor="middle" x="269" y="-7.5" font-family="Helvetica,sans-Serif" font-size="10.00" fill="#000000">gko::stop::Time::parameters_type</text>
</a>
</g>
</g>
<!-- Node0&#45;&gt;Node18 -->
<g id="edge18" class="edge">
<title>Node0&#45;&gt;Node18</title>
<path fill="none" stroke="#191970" d="M74.2204,-413.3361C85.3288,-326.877 120.9991,-83.927 177,-30 181.3563,-25.805 186.3752,-22.4049 191.7741,-19.6574"/>
<polygon fill="#191970" stroke="#191970" points="70.7411,-412.9525 72.9589,-423.3126 77.6858,-413.8307 70.7411,-412.9525"/>
</g>
</g>
</svg>
