<?xml version="1.0" encoding="UTF-8" standalone="no"?>
<!DOCTYPE svg PUBLIC "-//W3C//DTD SVG 1.1//EN"
 "http://www.w3.org/Graphics/SVG/1.1/DTD/svg11.dtd">
<!-- Generated by graphviz version 2.40.1 (20161225.0304)
 -->
<!-- Title: Graphical Class Hierarchy Pages: 1 -->
<svg width="1047pt" height="1230pt"
 viewBox="0.00 0.00 1047.00 1230.00" xmlns="http://www.w3.org/2000/svg" xmlns:xlink="http://www.w3.org/1999/xlink">
<g id="graph0" class="graph" transform="scale(1 1) rotate(0) translate(4 1226)">
<title>Graphical Class Hierarchy</title>
<polygon fill="#ffffff" stroke="transparent" points="-4,4 -4,-1226 1043,-1226 1043,4 -4,4"/>
<!-- Node437 -->
<g id="node1" class="node">
<title>Node437</title>
<g id="a_node1"><a xlink:href="classgko_1_1ConvertibleTo.html" target="_top" xlink:title=" ">
<polygon fill="#ffffff" stroke="#000000" points="178.5,-580 178.5,-610 296.5,-610 296.5,-580 178.5,-580"/>
<text text-anchor="start" x="186.5" y="-598" font-family="Helvetica,sans-Serif" font-size="10.00" fill="#000000">gko::ConvertibleTo</text>
<text text-anchor="middle" x="237.5" y="-587" font-family="Helvetica,sans-Serif" font-size="10.00" fill="#000000">&lt; ConcreteFactory &gt;</text>
</a>
</g>
</g>
<!-- Node438 -->
<g id="node2" class="node">
<title>Node438</title>
<g id="a_node2"><a xlink:href="classgko_1_1EnablePolymorphicAssignment.html" target="_top" xlink:title=" ">
<polygon fill="#ffffff" stroke="#000000" points="382.5,-578 382.5,-608 574.5,-608 574.5,-578 382.5,-578"/>
<text text-anchor="start" x="390.5" y="-596" font-family="Helvetica,sans-Serif" font-size="10.00" fill="#000000">gko::EnablePolymorphicAssignment</text>
<text text-anchor="middle" x="478.5" y="-585" font-family="Helvetica,sans-Serif" font-size="10.00" fill="#000000">&lt; ConcreteFactory &gt;</text>
</a>
</g>
</g>
<!-- Node437&#45;&gt;Node438 -->
<g id="edge1" class="edge">
<title>Node437&#45;&gt;Node438</title>
<path fill="none" stroke="#191970" d="M306.9738,-594.4235C330.4758,-594.2284 357.1541,-594.007 382.3502,-593.7979"/>
<polygon fill="#191970" stroke="#191970" points="306.7345,-590.9252 296.7639,-594.5082 306.7926,-597.925 306.7345,-590.9252"/>
</g>
<!-- Node2 -->
<g id="node3" class="node">
<title>Node2</title>
<g id="a_node3"><a xlink:href="classgko_1_1EnableDefaultFactory.html" target="_top" xlink:title="This mixin provides a default implementation of a concrete factory.">
<polygon fill="#ffffff" stroke="#000000" points="619,-546.5 619,-587.5 819,-587.5 819,-546.5 619,-546.5"/>
<text text-anchor="start" x="627" y="-575.5" font-family="Helvetica,sans-Serif" font-size="10.00" fill="#000000">gko::EnableDefaultFactory</text>
<text text-anchor="start" x="627" y="-564.5" font-family="Helvetica,sans-Serif" font-size="10.00" fill="#000000">&lt; ConcreteFactory, ProductType,</text>
<text text-anchor="middle" x="719" y="-553.5" font-family="Helvetica,sans-Serif" font-size="10.00" fill="#000000"> ParametersType, PolymorphicBase &gt;</text>
</a>
</g>
</g>
<!-- Node438&#45;&gt;Node2 -->
<g id="edge2" class="edge">
<title>Node438&#45;&gt;Node2</title>
<path fill="none" stroke="#191970" d="M584.8695,-581.5006C596.127,-580.2836 607.5489,-579.0488 618.7336,-577.8396"/>
<polygon fill="#191970" stroke="#191970" points="584.1547,-578.0574 574.5888,-582.612 584.9071,-585.0168 584.1547,-578.0574"/>
</g>
<!-- Node3 -->
<g id="node4" class="node">
<title>Node3</title>
<g id="a_node4"><a xlink:href="classgko_1_1factorization_1_1Ilu_1_1Factory.html" target="_top" xlink:title=" ">
<polygon fill="#ffffff" stroke="#000000" points="871.5,-1180.5 871.5,-1221.5 1022.5,-1221.5 1022.5,-1180.5 871.5,-1180.5"/>
<text text-anchor="start" x="879.5" y="-1209.5" font-family="Helvetica,sans-Serif" font-size="10.00" fill="#000000">gko::factorization</text>
<text text-anchor="start" x="879.5" y="-1198.5" font-family="Helvetica,sans-Serif" font-size="10.00" fill="#000000">::Ilu&lt; ValueType, IndexType</text>
<text text-anchor="middle" x="947" y="-1187.5" font-family="Helvetica,sans-Serif" font-size="10.00" fill="#000000"> &gt;::Factory</text>
</a>
</g>
</g>
<!-- Node2&#45;&gt;Node3 -->
<g id="edge3" class="edge">
<title>Node2&#45;&gt;Node3</title>
<path fill="none" stroke="#191970" d="M721.9622,-597.9979C733.1586,-708.988 776.3062,-1084.5605 855,-1171 859.637,-1176.0934 865.1485,-1180.3248 871.1355,-1183.8397"/>
<polygon fill="#191970" stroke="#191970" points="725.4217,-597.4156 720.9499,-587.8107 718.456,-598.1079 725.4217,-597.4156"/>
</g>
<!-- Node4 -->
<g id="node5" class="node">
<title>Node4</title>
<g id="a_node5"><a xlink:href="classgko_1_1factorization_1_1ParIct_1_1Factory.html" target="_top" xlink:title=" ">
<polygon fill="#ffffff" stroke="#000000" points="886,-1120.5 886,-1161.5 1008,-1161.5 1008,-1120.5 886,-1120.5"/>
<text text-anchor="start" x="894" y="-1149.5" font-family="Helvetica,sans-Serif" font-size="10.00" fill="#000000">gko::factorization</text>
<text text-anchor="start" x="894" y="-1138.5" font-family="Helvetica,sans-Serif" font-size="10.00" fill="#000000">::ParIct&lt; ValueType,</text>
<text text-anchor="middle" x="947" y="-1127.5" font-family="Helvetica,sans-Serif" font-size="10.00" fill="#000000"> IndexType &gt;::Factory</text>
</a>
</g>
</g>
<!-- Node2&#45;&gt;Node4 -->
<g id="edge4" class="edge">
<title>Node2&#45;&gt;Node4</title>
<path fill="none" stroke="#191970" d="M722.7423,-597.605C735.9446,-700.8624 783.4378,-1034.2264 855,-1111 863.3621,-1119.9711 874.4361,-1126.2652 885.9954,-1130.6797"/>
<polygon fill="#191970" stroke="#191970" points="726.1952,-597.0113 721.4699,-587.5285 719.2504,-597.8883 726.1952,-597.0113"/>
</g>
<!-- Node5 -->
<g id="node6" class="node">
<title>Node5</title>
<g id="a_node6"><a xlink:href="classgko_1_1factorization_1_1ParIlu_1_1Factory.html" target="_top" xlink:title=" ">
<polygon fill="#ffffff" stroke="#000000" points="886,-1060.5 886,-1101.5 1008,-1101.5 1008,-1060.5 886,-1060.5"/>
<text text-anchor="start" x="894" y="-1089.5" font-family="Helvetica,sans-Serif" font-size="10.00" fill="#000000">gko::factorization</text>
<text text-anchor="start" x="894" y="-1078.5" font-family="Helvetica,sans-Serif" font-size="10.00" fill="#000000">::ParIlu&lt; ValueType,</text>
<text text-anchor="middle" x="947" y="-1067.5" font-family="Helvetica,sans-Serif" font-size="10.00" fill="#000000"> IndexType &gt;::Factory</text>
</a>
</g>
</g>
<!-- Node2&#45;&gt;Node5 -->
<g id="edge5" class="edge">
<title>Node2&#45;&gt;Node5</title>
<path fill="none" stroke="#191970" d="M723.7716,-597.6819C739.2229,-693.3664 790.637,-983.9233 855,-1051 863.3748,-1059.7279 874.3161,-1065.9194 885.7178,-1070.3108"/>
<polygon fill="#191970" stroke="#191970" points="727.221,-597.087 722.1867,-587.7646 720.3087,-598.1917 727.221,-597.087"/>
</g>
<!-- Node6 -->
<g id="node7" class="node">
<title>Node6</title>
<g id="a_node7"><a xlink:href="classgko_1_1factorization_1_1ParIlut_1_1Factory.html" target="_top" xlink:title=" ">
<polygon fill="#ffffff" stroke="#000000" points="886,-1000.5 886,-1041.5 1008,-1041.5 1008,-1000.5 886,-1000.5"/>
<text text-anchor="start" x="894" y="-1029.5" font-family="Helvetica,sans-Serif" font-size="10.00" fill="#000000">gko::factorization</text>
<text text-anchor="start" x="894" y="-1018.5" font-family="Helvetica,sans-Serif" font-size="10.00" fill="#000000">::ParIlut&lt; ValueType,</text>
<text text-anchor="middle" x="947" y="-1007.5" font-family="Helvetica,sans-Serif" font-size="10.00" fill="#000000"> IndexType &gt;::Factory</text>
</a>
</g>
</g>
<!-- Node2&#45;&gt;Node6 -->
<g id="edge6" class="edge">
<title>Node2&#45;&gt;Node6</title>
<path fill="none" stroke="#191970" d="M724.997,-597.3214C742.7999,-684.5232 797.6867,-933.4093 855,-991 863.5325,-999.5738 874.5428,-1005.6978 885.9622,-1010.072"/>
<polygon fill="#191970" stroke="#191970" points="728.4259,-596.6194 723.012,-587.5122 721.565,-598.0078 728.4259,-596.6194"/>
</g>
<!-- Node7 -->
<g id="node8" class="node">
<title>Node7</title>
<g id="a_node8"><a xlink:href="classgko_1_1preconditioner_1_1Ilu_1_1Factory.html" target="_top" xlink:title=" ">
<polygon fill="#ffffff" stroke="#000000" points="869,-929 869,-981 1025,-981 1025,-929 869,-929"/>
<text text-anchor="start" x="877" y="-969" font-family="Helvetica,sans-Serif" font-size="10.00" fill="#000000">gko::preconditioner</text>
<text text-anchor="start" x="877" y="-958" font-family="Helvetica,sans-Serif" font-size="10.00" fill="#000000">::Ilu&lt; LSolverType,</text>
<text text-anchor="start" x="877" y="-947" font-family="Helvetica,sans-Serif" font-size="10.00" fill="#000000"> USolverType, ReverseApply,</text>
<text text-anchor="middle" x="947" y="-936" font-family="Helvetica,sans-Serif" font-size="10.00" fill="#000000"> IndexType &gt;::Factory</text>
</a>
</g>
</g>
<!-- Node2&#45;&gt;Node7 -->
<g id="edge7" class="edge">
<title>Node2&#45;&gt;Node7</title>
<path fill="none" stroke="#191970" d="M722.4962,-597.5008C731.7513,-664.6139 762.8556,-826.4592 855,-919 859.1146,-923.1323 863.7591,-926.802 868.7202,-930.0591"/>
<polygon fill="#191970" stroke="#191970" points="725.9642,-597.0274 721.1924,-587.568 719.0237,-597.9385 725.9642,-597.0274"/>
</g>
<!-- Node8 -->
<g id="node9" class="node">
<title>Node8</title>
<g id="a_node9"><a xlink:href="classgko_1_1preconditioner_1_1Isai_1_1Factory.html" target="_top" xlink:title=" ">
<polygon fill="#ffffff" stroke="#000000" points="872.5,-868.5 872.5,-909.5 1021.5,-909.5 1021.5,-868.5 872.5,-868.5"/>
<text text-anchor="start" x="880.5" y="-897.5" font-family="Helvetica,sans-Serif" font-size="10.00" fill="#000000">gko::preconditioner</text>
<text text-anchor="start" x="880.5" y="-886.5" font-family="Helvetica,sans-Serif" font-size="10.00" fill="#000000">::Isai&lt; IsaiType, ValueType,</text>
<text text-anchor="middle" x="947" y="-875.5" font-family="Helvetica,sans-Serif" font-size="10.00" fill="#000000"> IndexType &gt;::Factory</text>
</a>
</g>
</g>
<!-- Node2&#45;&gt;Node8 -->
<g id="edge8" class="edge">
<title>Node2&#45;&gt;Node8</title>
<path fill="none" stroke="#191970" d="M724.8065,-597.5526C737.6185,-656.6476 773.8577,-787.102 855,-859 860.1553,-863.568 866.0192,-867.4423 872.2323,-870.728"/>
<polygon fill="#191970" stroke="#191970" points="728.2206,-596.7797 722.7474,-587.708 721.3689,-598.2128 728.2206,-596.7797"/>
</g>
<!-- Node9 -->
<g id="node10" class="node">
<title>Node9</title>
<g id="a_node10"><a xlink:href="classgko_1_1preconditioner_1_1Jacobi_1_1Factory.html" target="_top" xlink:title=" ">
<polygon fill="#ffffff" stroke="#000000" points="886,-808.5 886,-849.5 1008,-849.5 1008,-808.5 886,-808.5"/>
<text text-anchor="start" x="894" y="-837.5" font-family="Helvetica,sans-Serif" font-size="10.00" fill="#000000">gko::preconditioner</text>
<text text-anchor="start" x="894" y="-826.5" font-family="Helvetica,sans-Serif" font-size="10.00" fill="#000000">::Jacobi&lt; ValueType,</text>
<text text-anchor="middle" x="947" y="-815.5" font-family="Helvetica,sans-Serif" font-size="10.00" fill="#000000"> IndexType &gt;::Factory</text>
</a>
</g>
</g>
<!-- Node2&#45;&gt;Node9 -->
<g id="edge9" class="edge">
<title>Node2&#45;&gt;Node9</title>
<path fill="none" stroke="#191970" d="M728.7239,-597.1979C746.1396,-646.5619 787.2977,-744.4868 855,-799 864.0289,-806.27 874.8742,-811.8004 885.9008,-816.0009"/>
<polygon fill="#191970" stroke="#191970" points="732.0249,-596.0339 725.4616,-587.7168 725.4058,-598.3115 732.0249,-596.0339"/>
</g>
<!-- Node10 -->
<g id="node11" class="node">
<title>Node10</title>
<g id="a_node11"><a xlink:href="classgko_1_1reorder_1_1Rcm_1_1Factory.html" target="_top" xlink:title=" ">
<polygon fill="#ffffff" stroke="#000000" points="884.5,-748.5 884.5,-789.5 1009.5,-789.5 1009.5,-748.5 884.5,-748.5"/>
<text text-anchor="start" x="892.5" y="-777.5" font-family="Helvetica,sans-Serif" font-size="10.00" fill="#000000">gko::reorder::Rcm&lt;</text>
<text text-anchor="start" x="892.5" y="-766.5" font-family="Helvetica,sans-Serif" font-size="10.00" fill="#000000"> ValueType, IndexType</text>
<text text-anchor="middle" x="947" y="-755.5" font-family="Helvetica,sans-Serif" font-size="10.00" fill="#000000"> &gt;::Factory</text>
</a>
</g>
</g>
<!-- Node2&#45;&gt;Node10 -->
<g id="edge10" class="edge">
<title>Node2&#45;&gt;Node10</title>
<path fill="none" stroke="#191970" d="M735.1036,-596.8274C757.2371,-635.1066 800.5773,-701.0856 855,-739 863.8222,-745.1461 873.9832,-750.0941 884.2624,-754.059"/>
<polygon fill="#191970" stroke="#191970" points="737.9186,-594.6964 729.9395,-587.7262 731.8304,-598.1509 737.9186,-594.6964"/>
</g>
<!-- Node11 -->
<g id="node12" class="node">
<title>Node11</title>
<g id="a_node12"><a xlink:href="classgko_1_1solver_1_1Bicg_1_1Factory.html" target="_top" xlink:title=" ">
<polygon fill="#ffffff" stroke="#000000" points="886,-699 886,-729 1008,-729 1008,-699 886,-699"/>
<text text-anchor="start" x="894" y="-717" font-family="Helvetica,sans-Serif" font-size="10.00" fill="#000000">gko::solver::Bicg&lt;</text>
<text text-anchor="middle" x="947" y="-706" font-family="Helvetica,sans-Serif" font-size="10.00" fill="#000000"> ValueType &gt;::Factory</text>
</a>
</g>
</g>
<!-- Node2&#45;&gt;Node11 -->
<g id="edge11" class="edge">
<title>Node2&#45;&gt;Node11</title>
<path fill="none" stroke="#191970" d="M742.713,-595.2464C767.8036,-623.3387 809.9376,-665.6616 855,-690 864.4404,-695.0988 875.018,-699.1556 885.5466,-702.3709"/>
<polygon fill="#191970" stroke="#191970" points="745.3322,-592.9247 736.0999,-587.7271 740.0759,-597.5476 745.3322,-592.9247"/>
</g>
<!-- Node12 -->
<g id="node13" class="node">
<title>Node12</title>
<g id="a_node13"><a xlink:href="classgko_1_1solver_1_1Bicgstab_1_1Factory.html" target="_top" xlink:title=" ">
<polygon fill="#ffffff" stroke="#000000" points="882,-650 882,-680 1012,-680 1012,-650 882,-650"/>
<text text-anchor="start" x="890" y="-668" font-family="Helvetica,sans-Serif" font-size="10.00" fill="#000000">gko::solver::Bicgstab</text>
<text text-anchor="middle" x="947" y="-657" font-family="Helvetica,sans-Serif" font-size="10.00" fill="#000000">&lt; ValueType &gt;::Factory</text>
</a>
</g>
</g>
<!-- Node2&#45;&gt;Node12 -->
<g id="edge12" class="edge">
<title>Node2&#45;&gt;Node12</title>
<path fill="none" stroke="#191970" d="M760.0137,-592.7354C786.364,-608.3968 821.7647,-627.8505 855,-641 863.442,-644.3401 872.5031,-647.3527 881.5276,-650.0245"/>
<polygon fill="#191970" stroke="#191970" points="761.815,-589.7345 751.4407,-587.584 758.2096,-595.7346 761.815,-589.7345"/>
</g>
<!-- Node13 -->
<g id="node14" class="node">
<title>Node13</title>
<g id="a_node14"><a xlink:href="classgko_1_1solver_1_1Cg_1_1Factory.html" target="_top" xlink:title=" ">
<polygon fill="#ffffff" stroke="#000000" points="872,-601 872,-631 1022,-631 1022,-601 872,-601"/>
<text text-anchor="start" x="880" y="-619" font-family="Helvetica,sans-Serif" font-size="10.00" fill="#000000">gko::solver::Cg&lt; ValueType</text>
<text text-anchor="middle" x="947" y="-608" font-family="Helvetica,sans-Serif" font-size="10.00" fill="#000000"> &gt;::Factory</text>
</a>
</g>
</g>
<!-- Node2&#45;&gt;Node13 -->
<g id="edge13" class="edge">
<title>Node2&#45;&gt;Node13</title>
<path fill="none" stroke="#191970" d="M824.5777,-589.6899C842.4263,-593.5258 860.5517,-597.4212 877.1911,-600.9972"/>
<polygon fill="#191970" stroke="#191970" points="825.2137,-586.2468 814.7015,-587.5674 823.7429,-593.0905 825.2137,-586.2468"/>
</g>
<!-- Node14 -->
<g id="node15" class="node">
<title>Node14</title>
<g id="a_node15"><a xlink:href="classgko_1_1solver_1_1Cgs_1_1Factory.html" target="_top" xlink:title=" ">
<polygon fill="#ffffff" stroke="#000000" points="869.5,-552 869.5,-582 1024.5,-582 1024.5,-552 869.5,-552"/>
<text text-anchor="start" x="877.5" y="-570" font-family="Helvetica,sans-Serif" font-size="10.00" fill="#000000">gko::solver::Cgs&lt; ValueType</text>
<text text-anchor="middle" x="947" y="-559" font-family="Helvetica,sans-Serif" font-size="10.00" fill="#000000"> &gt;::Factory</text>
</a>
</g>
</g>
<!-- Node2&#45;&gt;Node14 -->
<g id="edge14" class="edge">
<title>Node2&#45;&gt;Node14</title>
<path fill="none" stroke="#191970" d="M829.3234,-567C842.852,-567 856.4497,-567 869.3534,-567"/>
<polygon fill="#191970" stroke="#191970" points="829.0042,-563.5001 819.0041,-567 829.0041,-570.5001 829.0042,-563.5001"/>
</g>
<!-- Node15 -->
<g id="node16" class="node">
<title>Node15</title>
<g id="a_node16"><a xlink:href="classgko_1_1solver_1_1Fcg_1_1Factory.html" target="_top" xlink:title=" ">
<polygon fill="#ffffff" stroke="#000000" points="870,-503 870,-533 1024,-533 1024,-503 870,-503"/>
<text text-anchor="start" x="878" y="-521" font-family="Helvetica,sans-Serif" font-size="10.00" fill="#000000">gko::solver::Fcg&lt; ValueType</text>
<text text-anchor="middle" x="947" y="-510" font-family="Helvetica,sans-Serif" font-size="10.00" fill="#000000"> &gt;::Factory</text>
</a>
</g>
</g>
<!-- Node2&#45;&gt;Node15 -->
<g id="edge15" class="edge">
<title>Node2&#45;&gt;Node15</title>
<path fill="none" stroke="#191970" d="M824.5777,-544.3101C842.4263,-540.4742 860.5517,-536.5788 877.1911,-533.0028"/>
<polygon fill="#191970" stroke="#191970" points="823.7429,-540.9095 814.7015,-546.4326 825.2137,-547.7532 823.7429,-540.9095"/>
</g>
<!-- Node16 -->
<g id="node17" class="node">
<title>Node16</title>
<g id="a_node17"><a xlink:href="classgko_1_1solver_1_1Gmres_1_1Factory.html" target="_top" xlink:title=" ">
<polygon fill="#ffffff" stroke="#000000" points="882,-454 882,-484 1012,-484 1012,-454 882,-454"/>
<text text-anchor="start" x="890" y="-472" font-family="Helvetica,sans-Serif" font-size="10.00" fill="#000000">gko::solver::Gmres</text>
<text text-anchor="middle" x="947" y="-461" font-family="Helvetica,sans-Serif" font-size="10.00" fill="#000000">&lt; ValueType &gt;::Factory</text>
</a>
</g>
</g>
<!-- Node2&#45;&gt;Node16 -->
<g id="edge16" class="edge">
<title>Node2&#45;&gt;Node16</title>
<path fill="none" stroke="#191970" d="M760.0137,-541.2646C786.364,-525.6032 821.7647,-506.1495 855,-493 863.442,-489.6599 872.5031,-486.6473 881.5276,-483.9755"/>
<polygon fill="#191970" stroke="#191970" points="758.2096,-538.2654 751.4407,-546.416 761.815,-544.2655 758.2096,-538.2654"/>
</g>
<!-- Node17 -->
<g id="node18" class="node">
<title>Node17</title>
<g id="a_node18"><a xlink:href="classgko_1_1solver_1_1Ir_1_1Factory.html" target="_top" xlink:title=" ">
<polygon fill="#ffffff" stroke="#000000" points="875,-405 875,-435 1019,-435 1019,-405 875,-405"/>
<text text-anchor="start" x="883" y="-423" font-family="Helvetica,sans-Serif" font-size="10.00" fill="#000000">gko::solver::Ir&lt; ValueType</text>
<text text-anchor="middle" x="947" y="-412" font-family="Helvetica,sans-Serif" font-size="10.00" fill="#000000"> &gt;::Factory</text>
</a>
</g>
</g>
<!-- Node2&#45;&gt;Node17 -->
<g id="edge17" class="edge">
<title>Node2&#45;&gt;Node17</title>
<path fill="none" stroke="#191970" d="M742.713,-538.7536C767.8036,-510.6613 809.9376,-468.3384 855,-444 861.3904,-440.5485 868.302,-437.5744 875.3666,-435.0157"/>
<polygon fill="#191970" stroke="#191970" points="740.0759,-536.4524 736.0999,-546.2729 745.3322,-541.0753 740.0759,-536.4524"/>
</g>
<!-- Node18 -->
<g id="node19" class="node">
<title>Node18</title>
<g id="a_node19"><a xlink:href="classgko_1_1solver_1_1LowerTrs_1_1Factory.html" target="_top" xlink:title=" ">
<polygon fill="#ffffff" stroke="#000000" points="880.5,-344.5 880.5,-385.5 1013.5,-385.5 1013.5,-344.5 880.5,-344.5"/>
<text text-anchor="start" x="888.5" y="-373.5" font-family="Helvetica,sans-Serif" font-size="10.00" fill="#000000">gko::solver::LowerTrs</text>
<text text-anchor="start" x="888.5" y="-362.5" font-family="Helvetica,sans-Serif" font-size="10.00" fill="#000000">&lt; ValueType, IndexType</text>
<text text-anchor="middle" x="947" y="-351.5" font-family="Helvetica,sans-Serif" font-size="10.00" fill="#000000"> &gt;::Factory</text>
</a>
</g>
</g>
<!-- Node2&#45;&gt;Node18 -->
<g id="edge18" class="edge">
<title>Node2&#45;&gt;Node18</title>
<path fill="none" stroke="#191970" d="M738.9473,-537.8035C769.2669,-494.1605 826.4354,-414.9 855,-395 862.7194,-389.6222 871.4639,-385.1616 880.4156,-381.4743"/>
<polygon fill="#191970" stroke="#191970" points="735.8907,-536.0699 733.0812,-546.2854 741.648,-540.0516 735.8907,-536.0699"/>
</g>
<!-- Node19 -->
<g id="node20" class="node">
<title>Node19</title>
<g id="a_node20"><a xlink:href="classgko_1_1solver_1_1UpperTrs_1_1Factory.html" target="_top" xlink:title=" ">
<polygon fill="#ffffff" stroke="#000000" points="880.5,-284.5 880.5,-325.5 1013.5,-325.5 1013.5,-284.5 880.5,-284.5"/>
<text text-anchor="start" x="888.5" y="-313.5" font-family="Helvetica,sans-Serif" font-size="10.00" fill="#000000">gko::solver::UpperTrs</text>
<text text-anchor="start" x="888.5" y="-302.5" font-family="Helvetica,sans-Serif" font-size="10.00" fill="#000000">&lt; ValueType, IndexType</text>
<text text-anchor="middle" x="947" y="-291.5" font-family="Helvetica,sans-Serif" font-size="10.00" fill="#000000"> &gt;::Factory</text>
</a>
</g>
</g>
<!-- Node2&#45;&gt;Node19 -->
<g id="edge19" class="edge">
<title>Node2&#45;&gt;Node19</title>
<path fill="none" stroke="#191970" d="M743.7114,-538.3665C765.6577,-511.8729 797.4964,-470.7014 819,-431 840.7022,-390.9318 822.0845,-366.5122 855,-335 862.1598,-328.1455 870.906,-322.857 880.1271,-318.7767"/>
<polygon fill="#191970" stroke="#191970" points="740.9737,-536.1842 737.2404,-546.0995 746.3421,-540.6764 740.9737,-536.1842"/>
</g>
<!-- Node20 -->
<g id="node21" class="node">
<title>Node20</title>
<g id="a_node21"><a xlink:href="classgko_1_1stop_1_1AbsoluteResidualNorm_1_1Factory.html" target="_top" xlink:title=" ">
<polygon fill="#ffffff" stroke="#000000" points="868.5,-235 868.5,-265 1025.5,-265 1025.5,-235 868.5,-235"/>
<text text-anchor="start" x="876.5" y="-253" font-family="Helvetica,sans-Serif" font-size="10.00" fill="#000000">gko::stop::AbsoluteResidual</text>
<text text-anchor="middle" x="947" y="-242" font-family="Helvetica,sans-Serif" font-size="10.00" fill="#000000">Norm&lt; ValueType &gt;::Factory</text>
</a>
</g>
</g>
<!-- Node2&#45;&gt;Node20 -->
<g id="edge20" class="edge">
<title>Node2&#45;&gt;Node20</title>
<path fill="none" stroke="#191970" d="M745.3822,-538.5383C768.1603,-512.4521 800.2719,-471.7915 819,-431 848.6892,-366.3342 805.6641,-326.2746 855,-275 858.9018,-270.9448 863.39,-267.5259 868.2401,-264.6456"/>
<polygon fill="#191970" stroke="#191970" points="742.65,-536.3442 738.6379,-546.1501 747.8893,-540.9864 742.65,-536.3442"/>
</g>
<!-- Node21 -->
<g id="node22" class="node">
<title>Node21</title>
<g id="a_node22"><a xlink:href="classgko_1_1stop_1_1Combined_1_1Factory.html" target="_top" xlink:title=" ">
<polygon fill="#ffffff" stroke="#000000" points="888.5,-186 888.5,-216 1005.5,-216 1005.5,-186 888.5,-186"/>
<text text-anchor="start" x="896.5" y="-204" font-family="Helvetica,sans-Serif" font-size="10.00" fill="#000000">gko::stop::Combined</text>
<text text-anchor="middle" x="947" y="-193" font-family="Helvetica,sans-Serif" font-size="10.00" fill="#000000">::Factory</text>
</a>
</g>
</g>
<!-- Node2&#45;&gt;Node21 -->
<g id="edge21" class="edge">
<title>Node2&#45;&gt;Node21</title>
<path fill="none" stroke="#191970" d="M745.9166,-538.775C769.0471,-512.8449 801.3756,-472.2804 819,-431 855.4946,-345.5215 792.0342,-293.3647 855,-225 863.7226,-215.5295 875.6706,-209.6021 888.0688,-205.9379"/>
<polygon fill="#191970" stroke="#191970" points="743.1842,-536.5778 739.0599,-546.337 748.3699,-541.2798 743.1842,-536.5778"/>
</g>
<!-- Node22 -->
<g id="node23" class="node">
<title>Node22</title>
<g id="a_node23"><a xlink:href="classgko_1_1stop_1_1Iteration_1_1Factory.html" target="_top" xlink:title=" ">
<polygon fill="#ffffff" stroke="#000000" points="892.5,-137 892.5,-167 1001.5,-167 1001.5,-137 892.5,-137"/>
<text text-anchor="start" x="900.5" y="-155" font-family="Helvetica,sans-Serif" font-size="10.00" fill="#000000">gko::stop::Iteration</text>
<text text-anchor="middle" x="947" y="-144" font-family="Helvetica,sans-Serif" font-size="10.00" fill="#000000">::Factory</text>
</a>
</g>
</g>
<!-- Node2&#45;&gt;Node22 -->
<g id="edge22" class="edge">
<title>Node2&#45;&gt;Node22</title>
<path fill="none" stroke="#191970" d="M746.2451,-538.9121C769.5922,-513.0724 802.0541,-472.5635 819,-431 862.2119,-325.0133 778.8486,-261.4482 855,-176 864.5547,-165.2789 878.2406,-159.0729 892.1463,-155.5514"/>
<polygon fill="#191970" stroke="#191970" points="743.5108,-536.7148 739.3193,-546.4452 748.664,-541.4524 743.5108,-536.7148"/>
</g>
<!-- Node23 -->
<g id="node24" class="node">
<title>Node23</title>
<g id="a_node24"><a xlink:href="classgko_1_1stop_1_1RelativeResidualNorm_1_1Factory.html" target="_top" xlink:title=" ">
<polygon fill="#ffffff" stroke="#000000" points="868.5,-88 868.5,-118 1025.5,-118 1025.5,-88 868.5,-88"/>
<text text-anchor="start" x="876.5" y="-106" font-family="Helvetica,sans-Serif" font-size="10.00" fill="#000000">gko::stop::RelativeResidual</text>
<text text-anchor="middle" x="947" y="-95" font-family="Helvetica,sans-Serif" font-size="10.00" fill="#000000">Norm&lt; ValueType &gt;::Factory</text>
</a>
</g>
</g>
<!-- Node2&#45;&gt;Node23 -->
<g id="edge23" class="edge">
<title>Node2&#45;&gt;Node23</title>
<path fill="none" stroke="#191970" d="M746.8888,-538.5434C770.3514,-512.7437 802.6177,-472.5035 819,-431 843.9766,-367.7234 810.3105,-178.2894 855,-127 858.7953,-122.6442 863.2726,-119.0308 868.1743,-116.0382"/>
<polygon fill="#191970" stroke="#191970" points="744.1436,-536.3567 739.9173,-546.0721 749.2798,-541.1128 744.1436,-536.3567"/>
</g>
<!-- Node24 -->
<g id="node25" class="node">
<title>Node24</title>
<g id="a_node25"><a xlink:href="classgko_1_1stop_1_1ResidualNormReduction_1_1Factory.html" target="_top" xlink:title=" ">
<polygon fill="#ffffff" stroke="#000000" points="855,-39 855,-69 1039,-69 1039,-39 855,-39"/>
<text text-anchor="start" x="863" y="-57" font-family="Helvetica,sans-Serif" font-size="10.00" fill="#000000">gko::stop::ResidualNormReduction</text>
<text text-anchor="middle" x="947" y="-46" font-family="Helvetica,sans-Serif" font-size="10.00" fill="#000000">&lt; ValueType &gt;::Factory</text>
</a>
</g>
</g>
<!-- Node2&#45;&gt;Node24 -->
<g id="edge24" class="edge">
<title>Node2&#45;&gt;Node24</title>
<path fill="none" stroke="#191970" d="M747.0551,-538.6083C770.625,-512.8504 802.9553,-472.6351 819,-431 847.3541,-357.423 803.6844,-137.8686 855,-78 857.9005,-74.6161 861.2125,-71.6791 864.817,-69.1322"/>
<polygon fill="#191970" stroke="#191970" points="744.308,-536.4223 740.0493,-546.1236 749.4283,-541.1955 744.308,-536.4223"/>
</g>
<!-- Node25 -->
<g id="node26" class="node">
<title>Node25</title>
<g id="a_node26"><a xlink:href="classgko_1_1stop_1_1Time_1_1Factory.html" target="_top" xlink:title=" ">
<polygon fill="#ffffff" stroke="#000000" points="880,-.5 880,-19.5 1014,-19.5 1014,-.5 880,-.5"/>
<text text-anchor="middle" x="947" y="-7.5" font-family="Helvetica,sans-Serif" font-size="10.00" fill="#000000">gko::stop::Time::Factory</text>
</a>
</g>
</g>
<!-- Node2&#45;&gt;Node25 -->
<g id="edge25" class="edge">
<title>Node2&#45;&gt;Node25</title>
<path fill="none" stroke="#191970" d="M747.1816,-538.6566C770.8331,-512.9298 803.212,-472.7332 819,-431 850.7358,-347.1115 795.3066,-95.9413 855,-29 861.6213,-21.5748 870.3107,-16.6093 879.7067,-13.353"/>
<polygon fill="#191970" stroke="#191970" points="744.4328,-536.4714 740.1497,-546.1619 749.5411,-541.2574 744.4328,-536.4714"/>
</g>
<!-- Node435 -->
<g id="node27" class="node">
<title>Node435</title>
<g id="a_node27"><a xlink:href="classgko_1_1ConvertibleTo.html" target="_top" xlink:title=" ">
<polygon fill="#ffffff" stroke="#000000" points="182.5,-290 182.5,-320 292.5,-320 292.5,-290 182.5,-290"/>
<text text-anchor="start" x="190.5" y="-308" font-family="Helvetica,sans-Serif" font-size="10.00" fill="#000000">gko::ConvertibleTo</text>
<text text-anchor="middle" x="237.5" y="-297" font-family="Helvetica,sans-Serif" font-size="10.00" fill="#000000">&lt; ConcreteLinOp &gt;</text>
</a>
</g>
</g>
<!-- Node436 -->
<g id="node28" class="node">
<title>Node436</title>
<g id="a_node28"><a xlink:href="classgko_1_1EnablePolymorphicAssignment.html" target="_top" xlink:title=" ">
<polygon fill="#ffffff" stroke="#000000" points="382.5,-323 382.5,-353 574.5,-353 574.5,-323 382.5,-323"/>
<text text-anchor="start" x="390.5" y="-341" font-family="Helvetica,sans-Serif" font-size="10.00" fill="#000000">gko::EnablePolymorphicAssignment</text>
<text text-anchor="middle" x="478.5" y="-330" font-family="Helvetica,sans-Serif" font-size="10.00" fill="#000000">&lt; ConcreteLinOp &gt;</text>
</a>
</g>
</g>
<!-- Node435&#45;&gt;Node436 -->
<g id="edge26" class="edge">
<title>Node435&#45;&gt;Node436</title>
<path fill="none" stroke="#191970" d="M303.011,-313.9704C327.4452,-317.3161 355.7195,-321.1877 382.34,-324.8329"/>
<polygon fill="#191970" stroke="#191970" points="303.1727,-310.4599 292.7903,-312.5709 302.223,-317.3952 303.1727,-310.4599"/>
</g>
<!-- Node97 -->
<g id="node29" class="node">
<title>Node97</title>
<g id="a_node29"><a xlink:href="classgko_1_1EnableLinOp.html" target="_top" xlink:title="The EnableLinOp mixin can be used to provide sensible default implementations of the majority of the ...">
<polygon fill="#ffffff" stroke="#000000" points="641,-392 641,-422 797,-422 797,-392 641,-392"/>
<text text-anchor="start" x="649" y="-410" font-family="Helvetica,sans-Serif" font-size="10.00" fill="#000000">gko::EnableLinOp&lt; Concrete</text>
<text text-anchor="middle" x="719" y="-399" font-family="Helvetica,sans-Serif" font-size="10.00" fill="#000000">LinOp, PolymorphicBase &gt;</text>
</a>
</g>
</g>
<!-- Node436&#45;&gt;Node97 -->
<g id="edge27" class="edge">
<title>Node436&#45;&gt;Node97</title>
<path fill="none" stroke="#191970" d="M540.6687,-355.8363C579.7402,-367.0461 629.5785,-381.3448 666.6303,-391.975"/>
<polygon fill="#191970" stroke="#191970" points="541.559,-352.4506 530.9816,-353.0571 539.6285,-359.1792 541.559,-352.4506"/>
</g>
<!-- Node68 -->
<g id="node30" class="node">
<title>Node68</title>
<g id="a_node30"><a xlink:title=" ">
<polygon fill="#ffffff" stroke="#bfbfbf" points="0,-440.5 0,-459.5 101,-459.5 101,-440.5 0,-440.5"/>
<text text-anchor="middle" x="50.5" y="-447.5" font-family="Helvetica,sans-Serif" font-size="10.00" fill="#000000">PolymorphicBase</text>
</a>
</g>
</g>
<!-- Node0 -->
<g id="node31" class="node">
<title>Node0</title>
<g id="a_node31"><a xlink:href="classgko_1_1EnableAbstractPolymorphicObject.html" target="_top" xlink:title=" ">
<polygon fill="#ffffff" stroke="#000000" points="150,-519.5 150,-560.5 325,-560.5 325,-519.5 150,-519.5"/>
<text text-anchor="start" x="158" y="-548.5" font-family="Helvetica,sans-Serif" font-size="10.00" fill="#000000">gko::EnableAbstractPolymorphic</text>
<text text-anchor="start" x="158" y="-537.5" font-family="Helvetica,sans-Serif" font-size="10.00" fill="#000000">Object&lt; ConcreteFactory,</text>
<text text-anchor="middle" x="237.5" y="-526.5" font-family="Helvetica,sans-Serif" font-size="10.00" fill="#000000"> PolymorphicBase &gt;</text>
</a>
</g>
</g>
<!-- Node68&#45;&gt;Node0 -->
<g id="edge28" class="edge">
<title>Node68&#45;&gt;Node0</title>
<path fill="none" stroke="#191970" d="M69.7579,-466.0372C86.5963,-479.3812 112.1743,-498.0608 137,-510 144.2203,-513.4724 151.9274,-516.6373 159.7408,-519.498"/>
<polygon fill="#191970" stroke="#191970" points="71.7781,-463.1699 61.7994,-459.6095 67.3798,-468.6156 71.7781,-463.1699"/>
</g>
<!-- Node95 -->
<g id="node33" class="node">
<title>Node95</title>
<g id="a_node33"><a xlink:href="classgko_1_1EnableAbstractPolymorphicObject.html" target="_top" xlink:title=" ">
<polygon fill="#ffffff" stroke="#000000" points="139,-459.5 139,-500.5 336,-500.5 336,-459.5 139,-459.5"/>
<text text-anchor="start" x="147" y="-488.5" font-family="Helvetica,sans-Serif" font-size="10.00" fill="#000000">gko::EnableAbstractPolymorphic</text>
<text text-anchor="start" x="147" y="-477.5" font-family="Helvetica,sans-Serif" font-size="10.00" fill="#000000">Object&lt; ConcreteLinOp, Polymorphic</text>
<text text-anchor="middle" x="237.5" y="-466.5" font-family="Helvetica,sans-Serif" font-size="10.00" fill="#000000">Base &gt;</text>
</a>
</g>
</g>
<!-- Node68&#45;&gt;Node95 -->
<g id="edge31" class="edge">
<title>Node68&#45;&gt;Node95</title>
<path fill="none" stroke="#191970" d="M111.016,-459.7084C119.9879,-461.1478 129.4246,-462.6617 138.9314,-464.1869"/>
<polygon fill="#191970" stroke="#191970" points="111.5331,-456.2467 101.1049,-458.1184 110.4242,-463.1584 111.5331,-456.2467"/>
</g>
<!-- Node98 -->
<g id="node35" class="node">
<title>Node98</title>
<g id="a_node35"><a xlink:href="classgko_1_1EnableAbstractPolymorphicObject.html" target="_top" xlink:title=" ">
<polygon fill="#ffffff" stroke="#000000" points="137,-399.5 137,-440.5 338,-440.5 338,-399.5 137,-399.5"/>
<text text-anchor="start" x="145" y="-428.5" font-family="Helvetica,sans-Serif" font-size="10.00" fill="#000000">gko::EnableAbstractPolymorphic</text>
<text text-anchor="start" x="145" y="-417.5" font-family="Helvetica,sans-Serif" font-size="10.00" fill="#000000">Object&lt; ConcreteObject, Polymorphic</text>
<text text-anchor="middle" x="237.5" y="-406.5" font-family="Helvetica,sans-Serif" font-size="10.00" fill="#000000">Base &gt;</text>
</a>
</g>
</g>
<!-- Node68&#45;&gt;Node98 -->
<g id="edge34" class="edge">
<title>Node68&#45;&gt;Node98</title>
<path fill="none" stroke="#191970" d="M111.0054,-440.2933C119.3008,-438.9624 127.9936,-437.5679 136.772,-436.1596"/>
<polygon fill="#191970" stroke="#191970" points="110.4242,-436.8416 101.1049,-441.8816 111.5331,-443.7533 110.4242,-436.8416"/>
</g>
<!-- Node100 -->
<g id="node37" class="node">
<title>Node100</title>
<g id="a_node37"><a xlink:href="classgko_1_1EnableAbstractPolymorphicObject.html" target="_top" xlink:title="This mixin inherits from (a subclass of) PolymorphicObject and provides a base implementation of a ne...">
<polygon fill="#ffffff" stroke="#000000" points="138.5,-339.5 138.5,-380.5 336.5,-380.5 336.5,-339.5 138.5,-339.5"/>
<text text-anchor="start" x="146.5" y="-368.5" font-family="Helvetica,sans-Serif" font-size="10.00" fill="#000000">gko::EnableAbstractPolymorphic</text>
<text text-anchor="start" x="146.5" y="-357.5" font-family="Helvetica,sans-Serif" font-size="10.00" fill="#000000">Object&lt; AbstractObject, Polymorphic</text>
<text text-anchor="middle" x="237.5" y="-346.5" font-family="Helvetica,sans-Serif" font-size="10.00" fill="#000000">Base &gt;</text>
</a>
</g>
</g>
<!-- Node68&#45;&gt;Node100 -->
<g id="edge36" class="edge">
<title>Node68&#45;&gt;Node100</title>
<path fill="none" stroke="#191970" d="M69.7579,-433.9628C86.5963,-420.6188 112.1743,-401.9392 137,-390 144.2203,-386.5276 151.9274,-383.3627 159.7408,-380.502"/>
<polygon fill="#191970" stroke="#191970" points="67.3798,-431.3844 61.7994,-440.3905 71.7781,-436.8301 67.3798,-431.3844"/>
</g>
<!-- Node1 -->
<g id="node32" class="node">
<title>Node1</title>
<g id="a_node32"><a xlink:href="classgko_1_1EnablePolymorphicObject.html" target="_top" xlink:title=" ">
<polygon fill="#ffffff" stroke="#000000" points="374,-526 374,-556 583,-556 583,-526 374,-526"/>
<text text-anchor="start" x="382" y="-544" font-family="Helvetica,sans-Serif" font-size="10.00" fill="#000000">gko::EnablePolymorphicObject</text>
<text text-anchor="middle" x="478.5" y="-533" font-family="Helvetica,sans-Serif" font-size="10.00" fill="#000000">&lt; ConcreteFactory, PolymorphicBase &gt;</text>
</a>
</g>
</g>
<!-- Node0&#45;&gt;Node1 -->
<g id="edge29" class="edge">
<title>Node0&#45;&gt;Node1</title>
<path fill="none" stroke="#191970" d="M335.2497,-540.4056C347.9022,-540.4581 360.902,-540.512 373.6633,-540.565"/>
<polygon fill="#191970" stroke="#191970" points="335.2027,-536.9055 325.1883,-540.3639 335.1736,-543.9054 335.2027,-536.9055"/>
</g>
<!-- Node1&#45;&gt;Node2 -->
<g id="edge30" class="edge">
<title>Node1&#45;&gt;Node2</title>
<path fill="none" stroke="#191970" d="M593.2573,-553.4062C601.7736,-554.3269 610.3266,-555.2515 618.7451,-556.1616"/>
<polygon fill="#191970" stroke="#191970" points="593.6055,-549.9235 583.2872,-552.3283 592.853,-556.883 593.6055,-549.9235"/>
</g>
<!-- Node96 -->
<g id="node34" class="node">
<title>Node96</title>
<g id="a_node34"><a xlink:href="classgko_1_1EnablePolymorphicObject.html" target="_top" xlink:title=" ">
<polygon fill="#ffffff" stroke="#000000" points="378,-460 378,-490 579,-490 579,-460 378,-460"/>
<text text-anchor="start" x="386" y="-478" font-family="Helvetica,sans-Serif" font-size="10.00" fill="#000000">gko::EnablePolymorphicObject</text>
<text text-anchor="middle" x="478.5" y="-467" font-family="Helvetica,sans-Serif" font-size="10.00" fill="#000000">&lt; ConcreteLinOp, PolymorphicBase &gt;</text>
</a>
</g>
</g>
<!-- Node95&#45;&gt;Node96 -->
<g id="edge32" class="edge">
<title>Node95&#45;&gt;Node96</title>
<path fill="none" stroke="#191970" d="M346.2891,-477.743C356.8418,-477.524 367.5155,-477.3026 377.9822,-477.0854"/>
<polygon fill="#191970" stroke="#191970" points="346.1445,-474.2451 336.2193,-477.9519 346.2898,-481.2436 346.1445,-474.2451"/>
</g>
<!-- Node96&#45;&gt;Node97 -->
<g id="edge33" class="edge">
<title>Node96&#45;&gt;Node97</title>
<path fill="none" stroke="#191970" d="M541.657,-457.1427C580.2306,-446.2363 629.011,-432.4439 665.6439,-422.0861"/>
<polygon fill="#191970" stroke="#191970" points="540.2469,-453.9041 531.5765,-459.9929 542.1515,-460.64 540.2469,-453.9041"/>
</g>
<!-- Node99 -->
<g id="node36" class="node">
<title>Node99</title>
<g id="a_node36"><a xlink:href="classgko_1_1EnablePolymorphicObject.html" target="_top" xlink:title="This mixin inherits from (a subclass of) PolymorphicObject and provides a base implementation of a ne...">
<polygon fill="#ffffff" stroke="#000000" points="376,-405 376,-435 581,-435 581,-405 376,-405"/>
<text text-anchor="start" x="384" y="-423" font-family="Helvetica,sans-Serif" font-size="10.00" fill="#000000">gko::EnablePolymorphicObject</text>
<text text-anchor="middle" x="478.5" y="-412" font-family="Helvetica,sans-Serif" font-size="10.00" fill="#000000">&lt; ConcreteObject, PolymorphicBase &gt;</text>
</a>
</g>
</g>
<!-- Node98&#45;&gt;Node99 -->
<g id="edge35" class="edge">
<title>Node98&#45;&gt;Node99</title>
<path fill="none" stroke="#191970" d="M348.5197,-420C357.6003,-420 366.753,-420 375.7701,-420"/>
<polygon fill="#191970" stroke="#191970" points="348.3093,-416.5001 338.3093,-420 348.3093,-423.5001 348.3093,-416.5001"/>
</g>
</g>
</svg>
