<?xml version="1.0" encoding="UTF-8" standalone="no"?>
<!DOCTYPE svg PUBLIC "-//W3C//DTD SVG 1.1//EN"
 "http://www.w3.org/Graphics/SVG/1.1/DTD/svg11.dtd">
<!-- Generated by graphviz version 2.40.1 (20161225.0304)
 -->
<!-- Title: gko::log::linop_factory_data Pages: 1 -->
<!--zoomable 144 -->
<svg id="main" version="1.1" xmlns="http://www.w3.org/2000/svg" xmlns:xlink="http://www.w3.org/1999/xlink" xml:space="preserve" onload="init(evt)">
<style type="text/css"><![CDATA[
.edge:hover path { stroke: red; }
.edge:hover polygon { stroke: red; fill: red; }
]]></style>
<script type="text/javascript"><![CDATA[
var edges = document.getElementsByTagName('g');
if (edges && edges.length) {
  for (var i=0;i<edges.length;i++) {
    if (edges[i].id.substr(0,4)=='edge') {
      edges[i].setAttribute('class','edge');
    }
  }
}
]]></script>
        <defs>
                <circle id="rim" cx="0" cy="0" r="7"/>
                <circle id="rim2" cx="0" cy="0" r="3.5"/>
                <g id="zoomPlus">
                        <use xlink:href="#rim" fill="#404040">
                                <set attributeName="fill" to="#808080" begin="zoomplus.mouseover" end="zoomplus.mouseout"/>
                        </use>
                        <path d="M-4,0h8M0,-4v8" fill="none" stroke="white" stroke-width="1.5" pointer-events="none"/>
                </g>
                <g id="zoomMin">
                        <use xlink:href="#rim" fill="#404040">
                                <set attributeName="fill" to="#808080" begin="zoomminus.mouseover" end="zoomminus.mouseout"/>
                        </use>
                        <path d="M-4,0h8" fill="none" stroke="white" stroke-width="1.5" pointer-events="none"/>
                </g>
                <g id="dirArrow">
                        <path fill="none" stroke="white" stroke-width="1.5" d="M0,-3.0v7 M-2.5,-0.5L0,-3.0L2.5,-0.5"/>
                </g>
               <g id="resetDef">
                       <use xlink:href="#rim2" fill="#404040">
                               <set attributeName="fill" to="#808080" begin="reset.mouseover" end="reset.mouseout"/>
                       </use>
               </g>
        </defs>

<script type="text/javascript">
var viewWidth = 1701;
var viewHeight = 144;
var sectionId = 'dynsection-0';
</script>
<script xlink:href="svgpan.js"/>
<svg id="graph" class="graph">
<g id="viewport">
<title>gko::log::linop_factory_data</title>
<polygon fill="#ffffff" stroke="transparent" points="-4,4 -4,-140.2847 1697,-140.2847 1697,4 -4,4"/>
<!-- Node1 -->
<g id="node1" class="node">
<title>Node1</title>
<g id="a_node1"><a xlink:title="Struct representing LinOp factory related data.">
<polygon fill="#bfbfbf" stroke="#000000" points="1541,-43.2847 1541,-62.2847 1693,-62.2847 1693,-43.2847 1541,-43.2847"/>
<text text-anchor="middle" x="1617" y="-50.2847" font-family="Helvetica,sans-Serif" font-size="10.00" fill="#000000">gko::log::linop_factory_data</text>
</a>
</g>
</g>
<!-- Node2 -->
<g id="node2" class="node">
<title>Node2</title>
<g id="a_node2"><a xlink:href="classgko_1_1LinOpFactory.html" target="_top" xlink:title="A LinOpFactory represents a higher order mapping which transforms one linear operator into another.">
<polygon fill="#ffffff" stroke="#000000" points="1351.5,-66.2847 1351.5,-85.2847 1455.5,-85.2847 1455.5,-66.2847 1351.5,-66.2847"/>
<text text-anchor="middle" x="1403.5" y="-73.2847" font-family="Helvetica,sans-Serif" font-size="10.00" fill="#000000">gko::LinOpFactory</text>
</a>
</g>
</g>
<!-- Node2&#45;&gt;Node1 -->
<g id="edge1" class="edge">
<title>Node2&#45;&gt;Node1</title>
<path fill="none" stroke="#9a32cd" stroke-dasharray="5,2" d="M1465.8755,-69.0651C1489.288,-66.5429 1516.165,-63.6475 1540.7,-61.0044"/>
<polygon fill="#9a32cd" stroke="#9a32cd" points="1465.2955,-65.6072 1455.728,-70.1583 1466.0454,-72.567 1465.2955,-65.6072"/>
<text text-anchor="middle" x="1504" y="-69.7847" font-family="Helvetica,sans-Serif" font-size="10.00" fill="#000000"> factory</text>
</g>
<!-- Node3 -->
<g id="node3" class="node">
<title>Node3</title>
<g id="a_node3"><a xlink:title=" ">
<polygon fill="#ffffff" stroke="#bfbfbf" points="1071,-56.2847 1071,-97.2847 1197,-97.2847 1197,-56.2847 1071,-56.2847"/>
<text text-anchor="start" x="1079" y="-85.2847" font-family="Helvetica,sans-Serif" font-size="10.00" fill="#000000">gko::AbstractFactory</text>
<text text-anchor="start" x="1079" y="-74.2847" font-family="Helvetica,sans-Serif" font-size="10.00" fill="#000000">&lt; LinOp, std::shared</text>
<text text-anchor="middle" x="1134" y="-63.2847" font-family="Helvetica,sans-Serif" font-size="10.00" fill="#000000">_ptr&lt; const LinOp &gt; &gt;</text>
</a>
</g>
</g>
<!-- Node3&#45;&gt;Node2 -->
<g id="edge2" class="edge">
<title>Node3&#45;&gt;Node2</title>
<path fill="none" stroke="#191970" d="M1207.2925,-76.5127C1252.7905,-76.3439 1310.1846,-76.1309 1351.1219,-75.979"/>
<polygon fill="#191970" stroke="#191970" points="1207.1727,-73.0131 1197.1858,-76.5502 1207.1987,-80.013 1207.1727,-73.0131"/>
</g>
<!-- Node4 -->
<g id="node4" class="node">
<title>Node4</title>
<g id="a_node4"><a xlink:title=" ">
<polygon fill="#ffffff" stroke="#bfbfbf" points="553.5,-75.7847 553.5,-127.7847 728.5,-127.7847 728.5,-75.7847 553.5,-75.7847"/>
<text text-anchor="start" x="561.5" y="-115.7847" font-family="Helvetica,sans-Serif" font-size="10.00" fill="#000000">gko::EnableAbstractPolymorphic</text>
<text text-anchor="start" x="561.5" y="-104.7847" font-family="Helvetica,sans-Serif" font-size="10.00" fill="#000000">Object&lt; AbstractFactory&lt;</text>
<text text-anchor="start" x="561.5" y="-93.7847" font-family="Helvetica,sans-Serif" font-size="10.00" fill="#000000"> LinOp, std::shared_ptr&lt; const</text>
<text text-anchor="middle" x="641" y="-82.7847" font-family="Helvetica,sans-Serif" font-size="10.00" fill="#000000"> LinOp &gt; &gt; &gt;</text>
</a>
</g>
</g>
<!-- Node4&#45;&gt;Node3 -->
<g id="edge3" class="edge">
<title>Node4&#45;&gt;Node3</title>
<path fill="none" stroke="#191970" d="M738.9261,-99.3205C822.4576,-96.8412 945.7118,-92.2902 1053,-84.7847 1058.7796,-84.3804 1064.7855,-83.9004 1070.7971,-83.3793"/>
<polygon fill="#191970" stroke="#191970" points="738.5788,-95.8291 728.6854,-99.62 738.7835,-102.8261 738.5788,-95.8291"/>
</g>
<!-- Node5 -->
<g id="node5" class="node">
<title>Node5</title>
<g id="a_node5"><a xlink:href="classgko_1_1PolymorphicObject.html" target="_top" xlink:title="A PolymorphicObject is the abstract base for all &quot;heavy&quot; objects in Ginkgo that behave polymorphicall...">
<polygon fill="#ffffff" stroke="#000000" points="202.5,-111.2847 202.5,-130.2847 335.5,-130.2847 335.5,-111.2847 202.5,-111.2847"/>
<text text-anchor="middle" x="269" y="-118.2847" font-family="Helvetica,sans-Serif" font-size="10.00" fill="#000000">gko::PolymorphicObject</text>
</a>
</g>
</g>
<!-- Node5&#45;&gt;Node4 -->
<g id="edge4" class="edge">
<title>Node5&#45;&gt;Node4</title>
<path fill="none" stroke="#191970" d="M345.5544,-122.9719C392.2577,-123.683 453.1384,-123.4998 507,-119.7847 521.987,-118.751 537.8555,-117.1091 553.2281,-115.2278"/>
<polygon fill="#191970" stroke="#191970" points="345.569,-119.4717 335.5112,-122.8019 345.4505,-126.4707 345.569,-119.4717"/>
</g>
<!-- Node12 -->
<g id="node10" class="node">
<title>Node12</title>
<g id="a_node10"><a xlink:href="classgko_1_1EnableAbstractPolymorphicObject.html" target="_top" xlink:title=" ">
<polygon fill="#ffffff" stroke="#000000" points="525,-15.2847 525,-56.2847 757,-56.2847 757,-15.2847 525,-15.2847"/>
<text text-anchor="start" x="533" y="-44.2847" font-family="Helvetica,sans-Serif" font-size="10.00" fill="#000000">gko::EnableAbstractPolymorphic</text>
<text text-anchor="start" x="533" y="-33.2847" font-family="Helvetica,sans-Serif" font-size="10.00" fill="#000000">Object&lt; AbstractFactory&lt;</text>
<text text-anchor="middle" x="641" y="-22.2847" font-family="Helvetica,sans-Serif" font-size="10.00" fill="#000000"> AbstractProductType, ComponentsType &gt; &gt;</text>
</a>
</g>
</g>
<!-- Node5&#45;&gt;Node12 -->
<g id="edge10" class="edge">
<title>Node5&#45;&gt;Node12</title>
<path fill="none" stroke="#191970" d="M345.6623,-119.5885C404.8294,-117.359 480.8592,-111.2487 507,-94.7847 519.8361,-86.7003 512.7799,-74.7732 525,-65.7847 529.8594,-62.2103 535.1065,-59.0608 540.591,-56.2857"/>
<polygon fill="#191970" stroke="#191970" points="345.4487,-116.0937 335.5759,-119.9377 345.691,-123.0895 345.4487,-116.0937"/>
</g>
<!-- Node6 -->
<g id="node6" class="node">
<title>Node6</title>
<g id="a_node6"><a xlink:href="classgko_1_1log_1_1EnableLogging.html" target="_top" xlink:title=" ">
<polygon fill="#ffffff" stroke="#ff0000" points="0,-105.7847 0,-135.7847 133,-135.7847 133,-105.7847 0,-105.7847"/>
<text text-anchor="start" x="8" y="-123.7847" font-family="Helvetica,sans-Serif" font-size="10.00" fill="#000000">gko::log::EnableLogging</text>
<text text-anchor="middle" x="66.5" y="-112.7847" font-family="Helvetica,sans-Serif" font-size="10.00" fill="#000000">&lt; PolymorphicObject &gt;</text>
</a>
</g>
</g>
<!-- Node6&#45;&gt;Node5 -->
<g id="edge5" class="edge">
<title>Node6&#45;&gt;Node5</title>
<path fill="none" stroke="#191970" d="M143.1452,-120.7847C162.6376,-120.7847 183.4252,-120.7847 202.3734,-120.7847"/>
<polygon fill="#191970" stroke="#191970" points="143.0866,-117.2848 133.0865,-120.7847 143.0865,-124.2848 143.0866,-117.2848"/>
</g>
<!-- Node9 -->
<g id="node7" class="node">
<title>Node9</title>
<g id="a_node7"><a xlink:href="classgko_1_1EnableAbstractPolymorphicObject.html" target="_top" xlink:title="This mixin inherits from (a subclass of) PolymorphicObject and provides a base implementation of a ne...">
<polygon fill="#ffffff" stroke="#000000" points="170,-24.2847 170,-65.2847 368,-65.2847 368,-24.2847 170,-24.2847"/>
<text text-anchor="start" x="178" y="-53.2847" font-family="Helvetica,sans-Serif" font-size="10.00" fill="#000000">gko::EnableAbstractPolymorphic</text>
<text text-anchor="start" x="178" y="-42.2847" font-family="Helvetica,sans-Serif" font-size="10.00" fill="#000000">Object&lt; AbstractObject, Polymorphic</text>
<text text-anchor="middle" x="269" y="-31.2847" font-family="Helvetica,sans-Serif" font-size="10.00" fill="#000000">Base &gt;</text>
</a>
</g>
</g>
<!-- Node9&#45;&gt;Node4 -->
<g id="edge6" class="edge">
<title>Node9&#45;&gt;Node4</title>
<path fill="none" stroke="#ffa500" stroke-dasharray="5,2" d="M378.1346,-61.5069C433.991,-70.0656 501.0698,-80.3438 553.485,-88.3751"/>
<polygon fill="#ffa500" stroke="#ffa500" points="378.6153,-58.0398 368.2005,-59.9848 377.555,-64.9591 378.6153,-58.0398"/>
<text text-anchor="start" x="386" y="-105.7847" font-family="Helvetica,sans-Serif" font-size="10.00" fill="#000000"> &lt; AbstractFactory&lt;</text>
<text text-anchor="start" x="386" y="-94.7847" font-family="Helvetica,sans-Serif" font-size="10.00" fill="#000000"> LinOp, std::shared</text>
<text text-anchor="middle" x="446.5" y="-83.7847" font-family="Helvetica,sans-Serif" font-size="10.00" fill="#000000">_ptr&lt; const LinOp &gt; &gt; &gt;</text>
</g>
<!-- Node9&#45;&gt;Node12 -->
<g id="edge11" class="edge">
<title>Node9&#45;&gt;Node12</title>
<path fill="none" stroke="#ffa500" stroke-dasharray="5,2" d="M328.3707,-20.8931C346.5585,-14.6973 366.8309,-8.8954 386,-5.7847 439.0834,2.8296 453.548,.1256 507,-5.7847 525.2454,-7.8021 544.638,-11.32 562.837,-15.2533"/>
<polygon fill="#ffa500" stroke="#ffa500" points="327.0609,-17.6434 318.7849,-24.2585 329.3797,-24.2482 327.0609,-17.6434"/>
<text text-anchor="start" x="391.5" y="-30.7847" font-family="Helvetica,sans-Serif" font-size="10.00" fill="#000000"> &lt; AbstractFactory&lt;</text>
<text text-anchor="start" x="391.5" y="-19.7847" font-family="Helvetica,sans-Serif" font-size="10.00" fill="#000000"> AbstractProductType,</text>
<text text-anchor="middle" x="446.5" y="-8.7847" font-family="Helvetica,sans-Serif" font-size="10.00" fill="#000000"> ComponentsType &gt; &gt;</text>
</g>
<!-- Node10 -->
<g id="node8" class="node">
<title>Node10</title>
<g id="a_node8"><a xlink:title=" ">
<polygon fill="#ffffff" stroke="#bfbfbf" points="16,-35.2847 16,-54.2847 117,-54.2847 117,-35.2847 16,-35.2847"/>
<text text-anchor="middle" x="66.5" y="-42.2847" font-family="Helvetica,sans-Serif" font-size="10.00" fill="#000000">PolymorphicBase</text>
</a>
</g>
</g>
<!-- Node10&#45;&gt;Node9 -->
<g id="edge7" class="edge">
<title>Node10&#45;&gt;Node9</title>
<path fill="none" stroke="#191970" d="M127.1202,-44.7847C140.5722,-44.7847 155.1713,-44.7847 169.7162,-44.7847"/>
<polygon fill="#191970" stroke="#191970" points="127.077,-41.2848 117.0769,-44.7847 127.0769,-48.2848 127.077,-41.2848"/>
</g>
<!-- Node11 -->
<g id="node9" class="node">
<title>Node11</title>
<g id="a_node9"><a xlink:href="classgko_1_1AbstractFactory.html" target="_top" xlink:title="The AbstractFactory is a generic interface template that enables easy implementation of the abstract ...">
<polygon fill="#ffffff" stroke="#000000" points="794,-27.2847 794,-68.2847 925,-68.2847 925,-27.2847 794,-27.2847"/>
<text text-anchor="start" x="802" y="-56.2847" font-family="Helvetica,sans-Serif" font-size="10.00" fill="#000000">gko::AbstractFactory</text>
<text text-anchor="start" x="802" y="-45.2847" font-family="Helvetica,sans-Serif" font-size="10.00" fill="#000000">&lt; AbstractProductType,</text>
<text text-anchor="middle" x="859.5" y="-34.2847" font-family="Helvetica,sans-Serif" font-size="10.00" fill="#000000"> ComponentsType &gt;</text>
</a>
</g>
</g>
<!-- Node11&#45;&gt;Node3 -->
<g id="edge8" class="edge">
<title>Node11&#45;&gt;Node3</title>
<path fill="none" stroke="#ffa500" stroke-dasharray="5,2" d="M935.398,-52.0157C971.1564,-54.4316 1014.3528,-57.9577 1053,-62.7847 1058.806,-63.5099 1064.8299,-64.3619 1070.853,-65.2814"/>
<polygon fill="#ffa500" stroke="#ffa500" points="935.2463,-48.4982 925.0376,-51.3325 934.7856,-55.483 935.2463,-48.4982"/>
<text text-anchor="start" x="943" y="-76.7847" font-family="Helvetica,sans-Serif" font-size="10.00" fill="#000000"> &lt; LinOp, std::shared</text>
<text text-anchor="middle" x="998" y="-65.7847" font-family="Helvetica,sans-Serif" font-size="10.00" fill="#000000">_ptr&lt; const LinOp &gt; &gt;</text>
</g>
<!-- Node12&#45;&gt;Node11 -->
<g id="edge9" class="edge">
<title>Node12&#45;&gt;Node11</title>
<path fill="none" stroke="#191970" d="M767.529,-42.7337C776.5516,-43.2292 785.413,-43.7158 793.8583,-44.1797"/>
<polygon fill="#191970" stroke="#191970" points="767.4641,-39.2249 757.2872,-42.1712 767.0802,-46.2144 767.4641,-39.2249"/>
</g>
<!-- Node13 -->
<g id="node11" class="node">
<title>Node13</title>
<g id="a_node11"><a xlink:title=" ">
<polygon fill="#ffffff" stroke="#bfbfbf" points="1340,-14.7847 1340,-44.7847 1467,-44.7847 1467,-14.7847 1340,-14.7847"/>
<text text-anchor="start" x="1348" y="-32.7847" font-family="Helvetica,sans-Serif" font-size="10.00" fill="#000000">std::unique_ptr&lt; const</text>
<text text-anchor="middle" x="1403.5" y="-21.7847" font-family="Helvetica,sans-Serif" font-size="10.00" fill="#000000"> gko::LinOp &gt;</text>
</a>
</g>
</g>
<!-- Node13&#45;&gt;Node1 -->
<g id="edge12" class="edge">
<title>Node13&#45;&gt;Node1</title>
<path fill="none" stroke="#9a32cd" stroke-dasharray="5,2" d="M1477.4805,-33.6781C1492.5644,-34.7695 1508.311,-36.1245 1523,-37.7847 1535.8087,-39.2323 1549.5385,-41.1903 1562.4391,-43.2133"/>
<polygon fill="#9a32cd" stroke="#9a32cd" points="1477.3826,-30.163 1467.1647,-32.9641 1476.8992,-37.1463 1477.3826,-30.163"/>
<text text-anchor="middle" x="1504" y="-51.7847" font-family="Helvetica,sans-Serif" font-size="10.00" fill="#000000"> output</text>
<text text-anchor="middle" x="1504" y="-40.7847" font-family="Helvetica,sans-Serif" font-size="10.00" fill="#000000">input</text>
</g>
<!-- Node14 -->
<g id="node12" class="node">
<title>Node14</title>
<g id="a_node12"><a xlink:title="STL class.">
<polygon fill="#ffffff" stroke="#bfbfbf" points="1075,-18.2847 1075,-37.2847 1193,-37.2847 1193,-18.2847 1075,-18.2847"/>
<text text-anchor="middle" x="1134" y="-25.2847" font-family="Helvetica,sans-Serif" font-size="10.00" fill="#000000">std::unique_ptr&lt; T &gt;</text>
</a>
</g>
</g>
<!-- Node14&#45;&gt;Node13 -->
<g id="edge13" class="edge">
<title>Node14&#45;&gt;Node13</title>
<path fill="none" stroke="#ffa500" stroke-dasharray="5,2" d="M1203.3129,-28.2991C1245.4084,-28.6115 1298.7557,-29.0074 1339.7923,-29.3119"/>
<polygon fill="#ffa500" stroke="#ffa500" points="1203.1687,-24.798 1193.1429,-28.2236 1203.1166,-31.7978 1203.1687,-24.798"/>
<text text-anchor="middle" x="1268.5" y="-32.7847" font-family="Helvetica,sans-Serif" font-size="10.00" fill="#000000"> &lt; const gko::LinOp &gt;</text>
</g>
</g>
</svg>
        <g id="navigator" transform="translate(0 0)" fill="#404254">
                <rect fill="#f2f5e9" fill-opacity="0.5" stroke="#606060" stroke-width=".5" x="0" y="0" width="60" height="60"/>
                <use id="zoomplus" xlink:href="#zoomPlus" x="17" y="9" onmousedown="handleZoom(evt,'in')"/>
                <use id="zoomminus" xlink:href="#zoomMin" x="42" y="9" onmousedown="handleZoom(evt,'out')"/>
                <use id="reset" xlink:href="#resetDef" x="30" y="36" onmousedown="handleReset()"/>
                <g id="arrowUp" xlink:href="#dirArrow" transform="translate(30 24)" onmousedown="handlePan(0,-1)">
                  <use xlink:href="#rim" fill="#404040">
                        <set attributeName="fill" to="#808080" begin="arrowUp.mouseover" end="arrowUp.mouseout"/>
                  </use>
                  <path fill="none" stroke="white" stroke-width="1.5" d="M0,-3.0v7 M-2.5,-0.5L0,-3.0L2.5,-0.5"/>
                </g>
                <g id="arrowRight" xlink:href="#dirArrow" transform="rotate(90) translate(36 -43)" onmousedown="handlePan(1,0)">
                  <use xlink:href="#rim" fill="#404040">
                        <set attributeName="fill" to="#808080" begin="arrowRight.mouseover" end="arrowRight.mouseout"/>
                  </use>
                  <path fill="none" stroke="white" stroke-width="1.5" d="M0,-3.0v7 M-2.5,-0.5L0,-3.0L2.5,-0.5"/>
                </g>
                <g id="arrowDown" xlink:href="#dirArrow" transform="rotate(180) translate(-30 -48)" onmousedown="handlePan(0,1)">
                  <use xlink:href="#rim" fill="#404040">
                        <set attributeName="fill" to="#808080" begin="arrowDown.mouseover" end="arrowDown.mouseout"/>
                  </use>
                  <path fill="none" stroke="white" stroke-width="1.5" d="M0,-3.0v7 M-2.5,-0.5L0,-3.0L2.5,-0.5"/>
                </g>
                <g id="arrowLeft" xlink:href="#dirArrow" transform="rotate(270) translate(-36 17)" onmousedown="handlePan(-1,0)">
                  <use xlink:href="#rim" fill="#404040">
                        <set attributeName="fill" to="#808080" begin="arrowLeft.mouseover" end="arrowLeft.mouseout"/>
                  </use>
                  <path fill="none" stroke="white" stroke-width="1.5" d="M0,-3.0v7 M-2.5,-0.5L0,-3.0L2.5,-0.5"/>
                </g>
        </g>
        <svg viewBox="0 0 15 15" width="100%" height="30px" preserveAspectRatio="xMaxYMin meet">
         <g id="arrow_out" transform="scale(0.3 0.3)">
          <a xlink:href="structgko_1_1log_1_1linop__factory__data__coll__graph_org.svg" target="_base">
           <rect id="button" ry="5" rx="5" y="6" x="6" height="38" width="38"
                fill="#f2f5e9" fill-opacity="0.5" stroke="#606060" stroke-width="1.0"/>
           <path id="arrow"
             d="M 11.500037,31.436501 C 11.940474,20.09759 22.043105,11.32322 32.158766,21.979434 L 37.068811,17.246167 C 37.068811,17.246167 37.088388,32 37.088388,32 L 22.160133,31.978069 C 22.160133,31.978069 26.997745,27.140456 26.997745,27.140456 C 18.528582,18.264221 13.291696,25.230495 11.500037,31.436501 z"
             style="fill:#404040;"/>
          </a>
         </g>
        </svg>
</svg>
