<?xml version="1.0" encoding="UTF-8" standalone="no"?>
<!DOCTYPE svg PUBLIC "-//W3C//DTD SVG 1.1//EN"
 "http://www.w3.org/Graphics/SVG/1.1/DTD/svg11.dtd">
<!-- Generated by graphviz version 2.40.1 (20161225.0304)
 -->
<!-- Title: gko::solver::Gmres&lt; ValueType &gt;::parameters_type Pages: 1 -->
<svg width="828pt" height="101pt"
 viewBox="0.00 0.00 828.00 100.50" xmlns="http://www.w3.org/2000/svg" xmlns:xlink="http://www.w3.org/1999/xlink">
<g id="graph0" class="graph" transform="scale(1 1) rotate(0) translate(4 96.5)">
<title>gko::solver::Gmres&lt; ValueType &gt;::parameters_type</title>
<polygon fill="#ffffff" stroke="transparent" points="-4,4 -4,-96.5 824,-96.5 824,4 -4,4"/>
<!-- Node0 -->
<g id="node1" class="node">
<title>Node0</title>
<polygon fill="#bfbfbf" stroke="#000000" points="642,-27.5 642,-57.5 820,-57.5 820,-27.5 642,-27.5"/>
<text text-anchor="start" x="650" y="-45.5" font-family="Helvetica,sans-Serif" font-size="10.00" fill="#000000">gko::solver::Gmres</text>
<text text-anchor="middle" x="731" y="-34.5" font-family="Helvetica,sans-Serif" font-size="10.00" fill="#000000">&lt; ValueType &gt;::parameters_type</text>
</g>
<!-- Node1 -->
<g id="node2" class="node">
<title>Node1</title>
<g id="a_node2"><a xlink:href="structgko_1_1enable__parameters__type.html" target="_top" xlink:title="gko::enable_parameters\l_type\&lt; parameters_type,\l Factory \&gt;">
<polygon fill="#ffffff" stroke="#000000" points="398.5,-50 398.5,-91 539.5,-91 539.5,-50 398.5,-50"/>
<text text-anchor="start" x="406.5" y="-79" font-family="Helvetica,sans-Serif" font-size="10.00" fill="#000000">gko::enable_parameters</text>
<text text-anchor="start" x="406.5" y="-68" font-family="Helvetica,sans-Serif" font-size="10.00" fill="#000000">_type&lt; parameters_type,</text>
<text text-anchor="middle" x="469" y="-57" font-family="Helvetica,sans-Serif" font-size="10.00" fill="#000000"> Factory &gt;</text>
</a>
</g>
</g>
<!-- Node1&#45;&gt;Node0 -->
<g id="edge1" class="edge">
<title>Node1&#45;&gt;Node0</title>
<path fill="none" stroke="#191970" d="M549.6687,-61.8789C578.7525,-58.7707 611.7398,-55.2454 641.5308,-52.0616"/>
<polygon fill="#191970" stroke="#191970" points="549.1273,-58.4168 539.5558,-62.9597 549.8712,-65.3771 549.1273,-58.4168"/>
</g>
<!-- Node2 -->
<g id="node3" class="node">
<title>Node2</title>
<g id="a_node3"><a xlink:href="structgko_1_1enable__parameters__type.html" target="_top" xlink:title="The enable_parameters_type mixin is used to create a base implementation of the factory parameters st...">
<polygon fill="#ffffff" stroke="#000000" points="0,-50 0,-91 179,-91 179,-50 0,-50"/>
<text text-anchor="start" x="8" y="-79" font-family="Helvetica,sans-Serif" font-size="10.00" fill="#000000">gko::enable_parameters</text>
<text text-anchor="start" x="8" y="-68" font-family="Helvetica,sans-Serif" font-size="10.00" fill="#000000">_type&lt; ConcreteParametersType,</text>
<text text-anchor="middle" x="89.5" y="-57" font-family="Helvetica,sans-Serif" font-size="10.00" fill="#000000"> Factory &gt;</text>
</a>
</g>
</g>
<!-- Node2&#45;&gt;Node1 -->
<g id="edge2" class="edge">
<title>Node2&#45;&gt;Node1</title>
<path fill="none" stroke="#ffa500" stroke-dasharray="5,2" d="M189.81,-70.5C255.4799,-70.5 339.6818,-70.5 398.3644,-70.5"/>
<polygon fill="#ffa500" stroke="#ffa500" points="189.4362,-67.0001 179.4362,-70.5 189.4362,-74.0001 189.4362,-67.0001"/>
<text text-anchor="start" x="224" y="-84.5" font-family="Helvetica,sans-Serif" font-size="10.00" fill="#000000"> &lt; parameters_type,</text>
<text text-anchor="middle" x="274.5" y="-73.5" font-family="Helvetica,sans-Serif" font-size="10.00" fill="#000000"> Factory &gt;</text>
</g>
<!-- Node3 -->
<g id="node4" class="node">
<title>Node3</title>
<polygon fill="#ffffff" stroke="#bfbfbf" points="370,-.5 370,-30.5 568,-30.5 568,-.5 370,-.5"/>
<text text-anchor="start" x="378" y="-18.5" font-family="Helvetica,sans-Serif" font-size="10.00" fill="#000000">std::vector&lt; std::shared</text>
<text text-anchor="middle" x="469" y="-7.5" font-family="Helvetica,sans-Serif" font-size="10.00" fill="#000000">_ptr&lt; const gko::AbstractFactory &gt; &gt;</text>
</g>
<!-- Node3&#45;&gt;Node0 -->
<g id="edge3" class="edge">
<title>Node3&#45;&gt;Node0</title>
<path fill="none" stroke="#9a32cd" stroke-dasharray="5,2" d="M578.0544,-26.7384C599.2536,-28.9231 621.242,-31.1891 641.7131,-33.2987"/>
<polygon fill="#9a32cd" stroke="#9a32cd" points="578.3571,-23.2512 568.051,-25.7075 577.6395,-30.2143 578.3571,-23.2512"/>
<text text-anchor="middle" x="605" y="-34.5" font-family="Helvetica,sans-Serif" font-size="10.00" fill="#000000"> criteria</text>
</g>
<!-- Node4 -->
<g id="node5" class="node">
<title>Node4</title>
<g id="a_node5"><a xlink:title="STL class. ">
<polygon fill="#ffffff" stroke="#bfbfbf" points="41,-6 41,-25 138,-25 138,-6 41,-6"/>
<text text-anchor="middle" x="89.5" y="-13" font-family="Helvetica,sans-Serif" font-size="10.00" fill="#000000">std::vector&lt; T &gt;</text>
</a>
</g>
</g>
<!-- Node4&#45;&gt;Node3 -->
<g id="edge4" class="edge">
<title>Node4&#45;&gt;Node3</title>
<path fill="none" stroke="#ffa500" stroke-dasharray="5,2" d="M148.6138,-15.5C207.7109,-15.5 299.6605,-15.5 369.9239,-15.5"/>
<polygon fill="#ffa500" stroke="#ffa500" points="148.3361,-12.0001 138.3361,-15.5 148.336,-19.0001 148.3361,-12.0001"/>
<text text-anchor="start" x="197" y="-29.5" font-family="Helvetica,sans-Serif" font-size="10.00" fill="#000000"> &lt; std::shared_ptr&lt;</text>
<text text-anchor="middle" x="274.5" y="-18.5" font-family="Helvetica,sans-Serif" font-size="10.00" fill="#000000"> const gko::AbstractFactory &gt; &gt;</text>
</g>
</g>
</svg>
