<?xml version="1.0" encoding="UTF-8" standalone="no"?>
<!DOCTYPE svg PUBLIC "-//W3C//DTD SVG 1.1//EN"
 "http://www.w3.org/Graphics/SVG/1.1/DTD/svg11.dtd">
<!-- Generated by graphviz version 2.40.1 (20161225.0304)
 -->
<!-- Title: gko::stop::CriterionArgs Pages: 1 -->
<svg width="1634pt" height="106pt"
 viewBox="0.00 0.00 1634.00 106.00" xmlns="http://www.w3.org/2000/svg" xmlns:xlink="http://www.w3.org/1999/xlink">
<g id="graph0" class="graph" transform="scale(1 1) rotate(0) translate(4 102)">
<title>gko::stop::CriterionArgs</title>
<polygon fill="#ffffff" stroke="transparent" points="-4,4 -4,-102 1630,-102 1630,4 -4,4"/>
<!-- Node1 -->
<g id="node1" class="node">
<title>Node1</title>
<g id="a_node1"><a xlink:title="This struct is used to pass parameters to the EnableDefaultCriterionFactoryCriterionFactory::generate...">
<polygon fill="#bfbfbf" stroke="#000000" points="1495,-28 1495,-47 1626,-47 1626,-28 1495,-28"/>
<text text-anchor="middle" x="1560.5" y="-35" font-family="Helvetica,sans-Serif" font-size="10.00" fill="#000000">gko::stop::CriterionArgs</text>
</a>
</g>
</g>
<!-- Node2 -->
<g id="node2" class="node">
<title>Node2</title>
<g id="a_node2"><a xlink:href="classgko_1_1LinOp.html" target="_top" xlink:title=" ">
<polygon fill="#ffffff" stroke="#000000" points="1284.5,-51 1284.5,-70 1352.5,-70 1352.5,-51 1284.5,-51"/>
<text text-anchor="middle" x="1318.5" y="-58" font-family="Helvetica,sans-Serif" font-size="10.00" fill="#000000">gko::LinOp</text>
</a>
</g>
</g>
<!-- Node2&#45;&gt;Node1 -->
<g id="edge1" class="edge">
<title>Node2&#45;&gt;Node1</title>
<path fill="none" stroke="#9a32cd" stroke-dasharray="5,2" d="M1363.0829,-56.2628C1399.951,-52.7588 1452.8417,-47.732 1494.5997,-43.7632"/>
<polygon fill="#9a32cd" stroke="#9a32cd" points="1362.2834,-52.8229 1352.6594,-57.2534 1362.9457,-59.7915 1362.2834,-52.8229"/>
<text text-anchor="middle" x="1438.5" y="-66.5" font-family="Helvetica,sans-Serif" font-size="10.00" fill="#000000"> x</text>
<text text-anchor="middle" x="1438.5" y="-55.5" font-family="Helvetica,sans-Serif" font-size="10.00" fill="#000000">initial_residual</text>
</g>
<!-- Node3 -->
<g id="node3" class="node">
<title>Node3</title>
<g id="a_node3"><a xlink:href="classgko_1_1EnableAbstractPolymorphicObject.html" target="_top" xlink:title=" ">
<polygon fill="#ffffff" stroke="#000000" points="937,-45.5 937,-75.5 1112,-75.5 1112,-45.5 937,-45.5"/>
<text text-anchor="start" x="945" y="-63.5" font-family="Helvetica,sans-Serif" font-size="10.00" fill="#000000">gko::EnableAbstractPolymorphic</text>
<text text-anchor="middle" x="1024.5" y="-52.5" font-family="Helvetica,sans-Serif" font-size="10.00" fill="#000000">Object&lt; LinOp &gt;</text>
</a>
</g>
</g>
<!-- Node3&#45;&gt;Node2 -->
<g id="edge2" class="edge">
<title>Node3&#45;&gt;Node2</title>
<path fill="none" stroke="#191970" d="M1122.5951,-60.5C1178.3781,-60.5 1244.7652,-60.5 1284.1726,-60.5"/>
<polygon fill="#191970" stroke="#191970" points="1122.3115,-57.0001 1112.3115,-60.5 1122.3114,-64.0001 1122.3115,-57.0001"/>
</g>
<!-- Node4 -->
<g id="node4" class="node">
<title>Node4</title>
<g id="a_node4"><a xlink:href="classgko_1_1PolymorphicObject.html" target="_top" xlink:title="A PolymorphicObject is the abstract base for all &quot;heavy&quot; objects in Ginkgo that behave polymorphicall...">
<polygon fill="#ffffff" stroke="#000000" points="681.5,-73 681.5,-92 814.5,-92 814.5,-73 681.5,-73"/>
<text text-anchor="middle" x="748" y="-80" font-family="Helvetica,sans-Serif" font-size="10.00" fill="#000000">gko::PolymorphicObject</text>
</a>
</g>
</g>
<!-- Node4&#45;&gt;Node3 -->
<g id="edge3" class="edge">
<title>Node4&#45;&gt;Node3</title>
<path fill="none" stroke="#191970" d="M824.679,-76.399C859.4631,-73.6313 900.7823,-70.3437 936.7952,-67.4783"/>
<polygon fill="#191970" stroke="#191970" points="824.2714,-72.9202 814.5805,-77.2025 824.8266,-79.8982 824.2714,-72.9202"/>
</g>
<!-- Node5 -->
<g id="node5" class="node">
<title>Node5</title>
<g id="a_node5"><a xlink:href="classgko_1_1log_1_1EnableLogging.html" target="_top" xlink:title=" ">
<polygon fill="#ffffff" stroke="#000000" points="479,-67.5 479,-97.5 612,-97.5 612,-67.5 479,-67.5"/>
<text text-anchor="start" x="487" y="-85.5" font-family="Helvetica,sans-Serif" font-size="10.00" fill="#000000">gko::log::EnableLogging</text>
<text text-anchor="middle" x="545.5" y="-74.5" font-family="Helvetica,sans-Serif" font-size="10.00" fill="#000000">&lt; PolymorphicObject &gt;</text>
</a>
</g>
</g>
<!-- Node5&#45;&gt;Node4 -->
<g id="edge4" class="edge">
<title>Node5&#45;&gt;Node4</title>
<path fill="none" stroke="#191970" d="M622.1452,-82.5C641.6376,-82.5 662.4252,-82.5 681.3734,-82.5"/>
<polygon fill="#191970" stroke="#191970" points="622.0866,-79.0001 612.0865,-82.5 622.0865,-86.0001 622.0866,-79.0001"/>
</g>
<!-- Node6 -->
<g id="node6" class="node">
<title>Node6</title>
<g id="a_node6"><a xlink:href="classgko_1_1log_1_1Loggable.html" target="_top" xlink:title="Loggable class is an interface which should be implemented by classes wanting to support logging.">
<polygon fill="#ffffff" stroke="#000000" points="0,-66 0,-85 106,-85 106,-66 0,-66"/>
<text text-anchor="middle" x="53" y="-73" font-family="Helvetica,sans-Serif" font-size="10.00" fill="#000000">gko::log::Loggable</text>
</a>
</g>
</g>
<!-- Node6&#45;&gt;Node5 -->
<g id="edge5" class="edge">
<title>Node6&#45;&gt;Node5</title>
<path fill="none" stroke="#191970" d="M116.3039,-80.0527C125.2631,-80.6001 134.362,-81.1043 143,-81.5 284.2027,-87.969 319.6887,-89.8428 461,-86.5 466.7262,-86.3645 472.6688,-86.1775 478.629,-85.9578"/>
<polygon fill="#191970" stroke="#191970" points="116.481,-76.557 106.2803,-79.4197 116.0398,-83.5431 116.481,-76.557"/>
</g>
<!-- Node7 -->
<g id="node7" class="node">
<title>Node7</title>
<g id="a_node7"><a xlink:href="classgko_1_1log_1_1EnableLogging.html" target="_top" xlink:title="EnableLogging is a mixin which should be inherited by any class which wants to enable logging.">
<polygon fill="#ffffff" stroke="#000000" points="143,-31 143,-72 325,-72 325,-31 143,-31"/>
<text text-anchor="start" x="151" y="-60" font-family="Helvetica,sans-Serif" font-size="10.00" fill="#000000">gko::log::EnableLogging</text>
<text text-anchor="start" x="151" y="-49" font-family="Helvetica,sans-Serif" font-size="10.00" fill="#000000">&lt; ConcreteLoggable, Polymorphic</text>
<text text-anchor="middle" x="234" y="-38" font-family="Helvetica,sans-Serif" font-size="10.00" fill="#000000">Base &gt;</text>
</a>
</g>
</g>
<!-- Node6&#45;&gt;Node7 -->
<g id="edge7" class="edge">
<title>Node6&#45;&gt;Node7</title>
<path fill="none" stroke="#191970" d="M116.4931,-67.081C124.9883,-65.9546 133.833,-64.7818 142.688,-63.6077"/>
<polygon fill="#191970" stroke="#191970" points="115.7801,-63.6448 106.327,-68.429 116.7003,-70.5841 115.7801,-63.6448"/>
</g>
<!-- Node7&#45;&gt;Node5 -->
<g id="edge6" class="edge">
<title>Node7&#45;&gt;Node5</title>
<path fill="none" stroke="#ffa500" stroke-dasharray="5,2" d="M335.5808,-61.6092C382.6219,-66.2906 437.1938,-71.7215 478.9039,-75.8725"/>
<polygon fill="#ffa500" stroke="#ffa500" points="335.653,-58.0991 325.3555,-60.5916 334.9597,-65.0647 335.653,-58.0991"/>
<text text-anchor="middle" x="402" y="-75.5" font-family="Helvetica,sans-Serif" font-size="10.00" fill="#000000"> &lt; PolymorphicObject &gt;</text>
</g>
<!-- Node8 -->
<g id="node8" class="node">
<title>Node8</title>
<g id="a_node8"><a xlink:href="classgko_1_1EnableAbstractPolymorphicObject.html" target="_top" xlink:title="This mixin inherits from (a subclass of) PolymorphicObject and provides a base implementation of a ne...">
<polygon fill="#ffffff" stroke="#000000" points="649,-13 649,-54 847,-54 847,-13 649,-13"/>
<text text-anchor="start" x="657" y="-42" font-family="Helvetica,sans-Serif" font-size="10.00" fill="#000000">gko::EnableAbstractPolymorphic</text>
<text text-anchor="start" x="657" y="-31" font-family="Helvetica,sans-Serif" font-size="10.00" fill="#000000">Object&lt; AbstractObject, Polymorphic</text>
<text text-anchor="middle" x="748" y="-20" font-family="Helvetica,sans-Serif" font-size="10.00" fill="#000000">Base &gt;</text>
</a>
</g>
</g>
<!-- Node8&#45;&gt;Node3 -->
<g id="edge8" class="edge">
<title>Node8&#45;&gt;Node3</title>
<path fill="none" stroke="#ffa500" stroke-dasharray="5,2" d="M857.0849,-44.1521C883.5016,-46.7316 911.4067,-49.4565 936.7006,-51.9265"/>
<polygon fill="#ffa500" stroke="#ffa500" points="857.3347,-40.6599 847.0419,-43.1714 856.6543,-47.6267 857.3347,-40.6599"/>
<text text-anchor="middle" x="892" y="-52.5" font-family="Helvetica,sans-Serif" font-size="10.00" fill="#000000"> &lt; LinOp &gt;</text>
</g>
<!-- Node9 -->
<g id="node9" class="node">
<title>Node9</title>
<g id="a_node9"><a xlink:title=" ">
<polygon fill="#ffffff" stroke="#bfbfbf" points="495,-24 495,-43 596,-43 596,-24 495,-24"/>
<text text-anchor="middle" x="545.5" y="-31" font-family="Helvetica,sans-Serif" font-size="10.00" fill="#000000">PolymorphicBase</text>
</a>
</g>
</g>
<!-- Node9&#45;&gt;Node8 -->
<g id="edge9" class="edge">
<title>Node9&#45;&gt;Node8</title>
<path fill="none" stroke="#191970" d="M606.1202,-33.5C619.5722,-33.5 634.1713,-33.5 648.7162,-33.5"/>
<polygon fill="#191970" stroke="#191970" points="606.077,-30.0001 596.0769,-33.5 606.0769,-37.0001 606.077,-30.0001"/>
</g>
<!-- Node10 -->
<g id="node10" class="node">
<title>Node10</title>
<g id="a_node10"><a xlink:title=" ">
<polygon fill="#ffffff" stroke="#bfbfbf" points="1255,-.5 1255,-30.5 1382,-30.5 1382,-.5 1255,-.5"/>
<text text-anchor="start" x="1263" y="-18.5" font-family="Helvetica,sans-Serif" font-size="10.00" fill="#000000">std::shared_ptr&lt; const</text>
<text text-anchor="middle" x="1318.5" y="-7.5" font-family="Helvetica,sans-Serif" font-size="10.00" fill="#000000"> gko::LinOp &gt;</text>
</a>
</g>
</g>
<!-- Node10&#45;&gt;Node1 -->
<g id="edge10" class="edge">
<title>Node10&#45;&gt;Node1</title>
<path fill="none" stroke="#9a32cd" stroke-dasharray="5,2" d="M1392.4155,-12.3021C1419.157,-12.1097 1449.526,-13.0101 1477,-16.5 1494.7946,-18.7603 1514.2539,-23.5159 1529.9073,-27.9307"/>
<polygon fill="#9a32cd" stroke="#9a32cd" points="1392.3138,-8.8029 1382.3578,-12.4262 1392.4002,-15.8024 1392.3138,-8.8029"/>
<text text-anchor="middle" x="1438.5" y="-30.5" font-family="Helvetica,sans-Serif" font-size="10.00" fill="#000000"> system_matrix</text>
<text text-anchor="middle" x="1438.5" y="-19.5" font-family="Helvetica,sans-Serif" font-size="10.00" fill="#000000">b</text>
</g>
<!-- Node11 -->
<g id="node11" class="node">
<title>Node11</title>
<g id="a_node11"><a xlink:title="STL class.">
<polygon fill="#ffffff" stroke="#bfbfbf" points="965.5,-6 965.5,-25 1083.5,-25 1083.5,-6 965.5,-6"/>
<text text-anchor="middle" x="1024.5" y="-13" font-family="Helvetica,sans-Serif" font-size="10.00" fill="#000000">std::shared_ptr&lt; T &gt;</text>
</a>
</g>
</g>
<!-- Node11&#45;&gt;Node10 -->
<g id="edge11" class="edge">
<title>Node11&#45;&gt;Node10</title>
<path fill="none" stroke="#ffa500" stroke-dasharray="5,2" d="M1093.7968,-15.5C1142.5829,-15.5 1207.3934,-15.5 1254.8705,-15.5"/>
<polygon fill="#ffa500" stroke="#ffa500" points="1093.6417,-12.0001 1083.6416,-15.5 1093.6416,-19.0001 1093.6417,-12.0001"/>
<text text-anchor="middle" x="1183.5" y="-18.5" font-family="Helvetica,sans-Serif" font-size="10.00" fill="#000000"> &lt; const gko::LinOp &gt;</text>
</g>
</g>
</svg>
