<?xml version="1.0" encoding="UTF-8" standalone="no"?>
<!DOCTYPE svg PUBLIC "-//W3C//DTD SVG 1.1//EN"
 "http://www.w3.org/Graphics/SVG/1.1/DTD/svg11.dtd">
<!-- Generated by graphviz version 2.38.0 (20140413.2041)
 -->
<!-- Title: gko::group::thread_block_tile&lt; Size &gt; Pages: 1 -->
<svg width="460pt" height="61pt"
 viewBox="0.00 0.00 460.00 61.00" xmlns="http://www.w3.org/2000/svg" xmlns:xlink="http://www.w3.org/1999/xlink">
<g id="graph0" class="graph" transform="scale(1 1) rotate(0) translate(4 57)">
<title>gko::group::thread_block_tile&lt; Size &gt;</title>
<polygon fill="white" stroke="none" points="-4,4 -4,-57 456,-57 456,4 -4,4"/>
<!-- Node1 -->
<g id="node1" class="node"><title>Node1</title>
<polygon fill="#bfbfbf" stroke="black" points="343,-11.5 343,-41.5 452,-41.5 452,-11.5 343,-11.5"/>
<text text-anchor="start" x="351" y="-29.5" font-family="Helvetica,sans-Serif" font-size="10.00">gko::group::thread</text>
<text text-anchor="middle" x="397.5" y="-18.5" font-family="Helvetica,sans-Serif" font-size="10.00">_block_tile&lt; Size &gt;</text>
</g>
<!-- Node2 -->
<g id="node2" class="node"><title>Node2</title>
<polygon fill="white" stroke="#bfbfbf" points="147,-0.5 147,-52.5 307,-52.5 307,-0.5 147,-0.5"/>
<text text-anchor="start" x="155" y="-40.5" font-family="Helvetica,sans-Serif" font-size="10.00">gko::group::detail</text>
<text text-anchor="start" x="155" y="-29.5" font-family="Helvetica,sans-Serif" font-size="10.00">::enable_extended_shuffle</text>
<text text-anchor="start" x="155" y="-18.5" font-family="Helvetica,sans-Serif" font-size="10.00">&lt; cooperative_groups::thread</text>
<text text-anchor="middle" x="227" y="-7.5" font-family="Helvetica,sans-Serif" font-size="10.00">_block_tile&lt; Size &gt; &gt;</text>
</g>
<!-- Node2&#45;&gt;Node1 -->
<g id="edge1" class="edge"><title>Node2&#45;&gt;Node1</title>
<path fill="none" stroke="midnightblue" d="M317.409,-26.5C325.997,-26.5 334.513,-26.5 342.599,-26.5"/>
<polygon fill="midnightblue" stroke="midnightblue" points="317.316,-23.0001 307.316,-26.5 317.316,-30.0001 317.316,-23.0001"/>
</g>
<!-- Node3 -->
<g id="node3" class="node"><title>Node3</title>
<polygon fill="white" stroke="#bfbfbf" points="0,-6 0,-47 111,-47 111,-6 0,-6"/>
<text text-anchor="start" x="8" y="-35" font-family="Helvetica,sans-Serif" font-size="10.00">cooperative_groups</text>
<text text-anchor="start" x="8" y="-24" font-family="Helvetica,sans-Serif" font-size="10.00">::thread_block_tile</text>
<text text-anchor="middle" x="55.5" y="-13" font-family="Helvetica,sans-Serif" font-size="10.00">&lt; Size &gt;</text>
</g>
<!-- Node3&#45;&gt;Node2 -->
<g id="edge2" class="edge"><title>Node3&#45;&gt;Node2</title>
<path fill="none" stroke="midnightblue" d="M121.154,-26.5C129.559,-26.5 138.244,-26.5 146.852,-26.5"/>
<polygon fill="midnightblue" stroke="midnightblue" points="121.064,-23.0001 111.064,-26.5 121.064,-30.0001 121.064,-23.0001"/>
</g>
</g>
</svg>
