<?xml version="1.0" encoding="UTF-8" standalone="no"?>
<!DOCTYPE svg PUBLIC "-//W3C//DTD SVG 1.1//EN"
 "http://www.w3.org/Graphics/SVG/1.1/DTD/svg11.dtd">
<!-- Generated by graphviz version 2.40.1 (20161225.0304)
 -->
<!-- Title: gko::reorder::ReorderingBaseArgs Pages: 1 -->
<svg width="153pt" height="184pt"
 viewBox="0.00 0.00 153.00 184.00" xmlns="http://www.w3.org/2000/svg" xmlns:xlink="http://www.w3.org/1999/xlink">
<g id="graph0" class="graph" transform="scale(1 1) rotate(0) translate(4 180)">
<title>gko::reorder::ReorderingBaseArgs</title>
<polygon fill="#ffffff" stroke="transparent" points="-4,4 -4,-180 149,-180 149,4 -4,4"/>
<!-- Node1 -->
<g id="node1" class="node">
<title>Node1</title>
<g id="a_node1"><a xlink:title="This struct is used to pass parameters to the EnableDefaultReorderingBaseFactory::generate() method.">
<polygon fill="#bfbfbf" stroke="#000000" points="0,-.5 0,-30.5 134,-30.5 134,-.5 0,-.5"/>
<text text-anchor="start" x="8" y="-18.5" font-family="Helvetica,sans-Serif" font-size="10.00" fill="#000000">gko::reorder::Reordering</text>
<text text-anchor="middle" x="67" y="-7.5" font-family="Helvetica,sans-Serif" font-size="10.00" fill="#000000">BaseArgs</text>
</a>
</g>
</g>
<!-- Node2 -->
<g id="node2" class="node">
<title>Node2</title>
<g id="a_node2"><a xlink:title=" ">
<polygon fill="#ffffff" stroke="#bfbfbf" points="7.5,-78.5 7.5,-108.5 126.5,-108.5 126.5,-78.5 7.5,-78.5"/>
<text text-anchor="start" x="15.5" y="-96.5" font-family="Helvetica,sans-Serif" font-size="10.00" fill="#000000">std::shared_ptr&lt; gko</text>
<text text-anchor="middle" x="67" y="-85.5" font-family="Helvetica,sans-Serif" font-size="10.00" fill="#000000">::LinOp &gt;</text>
</a>
</g>
</g>
<!-- Node2&#45;&gt;Node1 -->
<g id="edge1" class="edge">
<title>Node2&#45;&gt;Node1</title>
<path fill="none" stroke="#9a32cd" stroke-dasharray="5,2" d="M67,-68.2875C67,-55.9187 67,-41.4264 67,-30.7592"/>
<polygon fill="#9a32cd" stroke="#9a32cd" points="63.5001,-68.4608 67,-78.4608 70.5001,-68.4608 63.5001,-68.4608"/>
<text text-anchor="middle" x="105.5" y="-52" font-family="Helvetica,sans-Serif" font-size="10.00" fill="#000000"> system_matrix</text>
</g>
<!-- Node3 -->
<g id="node3" class="node">
<title>Node3</title>
<g id="a_node3"><a xlink:title="STL class.">
<polygon fill="#ffffff" stroke="#bfbfbf" points="8,-156.5 8,-175.5 126,-175.5 126,-156.5 8,-156.5"/>
<text text-anchor="middle" x="67" y="-163.5" font-family="Helvetica,sans-Serif" font-size="10.00" fill="#000000">std::shared_ptr&lt; T &gt;</text>
</a>
</g>
</g>
<!-- Node3&#45;&gt;Node2 -->
<g id="edge2" class="edge">
<title>Node3&#45;&gt;Node2</title>
<path fill="none" stroke="#ffa500" stroke-dasharray="5,2" d="M67,-146.0177C67,-134.2164 67,-119.513 67,-108.668"/>
<polygon fill="#ffa500" stroke="#ffa500" points="63.5001,-146.2223 67,-156.2223 70.5001,-146.2224 63.5001,-146.2223"/>
<text text-anchor="middle" x="106" y="-130" font-family="Helvetica,sans-Serif" font-size="10.00" fill="#000000"> &lt; gko::LinOp &gt;</text>
</g>
</g>
</svg>
