<?xml version="1.0" encoding="UTF-8" standalone="no"?>
<!DOCTYPE svg PUBLIC "-//W3C//DTD SVG 1.1//EN"
 "http://www.w3.org/Graphics/SVG/1.1/DTD/svg11.dtd">
<!-- Generated by graphviz version 2.40.1 (20161225.0304)
 -->
<!-- Title: gko::are_all_integral&lt; First, Args... &gt; Pages: 1 -->
<svg width="295pt" height="72pt"
 viewBox="0.00 0.00 295.00 72.00" xmlns="http://www.w3.org/2000/svg" xmlns:xlink="http://www.w3.org/1999/xlink">
<g id="graph0" class="graph" transform="scale(1 1) rotate(0) translate(4 68)">
<title>gko::are_all_integral&lt; First, Args... &gt;</title>
<polygon fill="#ffffff" stroke="transparent" points="-4,4 -4,-68 291,-68 291,4 -4,4"/>
<!-- Node1 -->
<g id="node1" class="node">
<title>Node1</title>
<g id="a_node1"><a xlink:title=" ">
<polygon fill="#bfbfbf" stroke="#000000" points="171,-17 171,-47 287,-47 287,-17 171,-17"/>
<text text-anchor="start" x="179" y="-35" font-family="Helvetica,sans-Serif" font-size="10.00" fill="#000000">gko::are_all_integral</text>
<text text-anchor="middle" x="229" y="-24" font-family="Helvetica,sans-Serif" font-size="10.00" fill="#000000">&lt; First, Args... &gt;</text>
</a>
</g>
</g>
<!-- Node2 -->
<g id="node2" class="node">
<title>Node2</title>
<g id="a_node2"><a xlink:title=" ">
<polygon fill="#ffffff" stroke="#bfbfbf" points="0,-.5 0,-63.5 135,-63.5 135,-.5 0,-.5"/>
<text text-anchor="start" x="8" y="-51.5" font-family="Helvetica,sans-Serif" font-size="10.00" fill="#000000">std::conditional&lt; std</text>
<text text-anchor="start" x="8" y="-40.5" font-family="Helvetica,sans-Serif" font-size="10.00" fill="#000000">::is_integral&lt; std::decay</text>
<text text-anchor="start" x="8" y="-29.5" font-family="Helvetica,sans-Serif" font-size="10.00" fill="#000000">_t&lt; First &gt; &gt;::value, are</text>
<text text-anchor="start" x="8" y="-18.5" font-family="Helvetica,sans-Serif" font-size="10.00" fill="#000000">_all_integral&lt; Args... &gt;,</text>
<text text-anchor="middle" x="67.5" y="-7.5" font-family="Helvetica,sans-Serif" font-size="10.00" fill="#000000"> std::false_type &gt;::type</text>
</a>
</g>
</g>
<!-- Node2&#45;&gt;Node1 -->
<g id="edge1" class="edge">
<title>Node2&#45;&gt;Node1</title>
<path fill="none" stroke="#191970" d="M145.1888,-32C153.8605,-32 162.5792,-32 170.9443,-32"/>
<polygon fill="#191970" stroke="#191970" points="145.0548,-28.5001 135.0548,-32 145.0547,-35.5001 145.0548,-28.5001"/>
</g>
</g>
</svg>
