<?xml version="1.0" encoding="UTF-8" standalone="no"?>
<!DOCTYPE svg PUBLIC "-//W3C//DTD SVG 1.1//EN"
 "http://www.w3.org/Graphics/SVG/1.1/DTD/svg11.dtd">
<!-- Generated by graphviz version 2.40.1 (20161225.0304)
 -->
<!-- Title: gko::preconditioner::Ic&lt; LSolverType, IndexType &gt;::parameters_type Pages: 1 -->
<svg width="783pt" height="150pt"
 viewBox="0.00 0.00 783.00 149.50" xmlns="http://www.w3.org/2000/svg" xmlns:xlink="http://www.w3.org/1999/xlink">
<g id="graph0" class="graph" transform="scale(1 1) rotate(0) translate(4 145.5)">
<title>gko::preconditioner::Ic&lt; LSolverType, IndexType &gt;::parameters_type</title>
<polygon fill="#ffffff" stroke="transparent" points="-4,4 -4,-145.5 779,-145.5 779,4 -4,4"/>
<!-- Node1 -->
<g id="node1" class="node">
<title>Node1</title>
<g id="a_node1"><a xlink:title=" ">
<polygon fill="#bfbfbf" stroke="#000000" points="619,-44 619,-85 775,-85 775,-44 619,-44"/>
<text text-anchor="start" x="627" y="-73" font-family="Helvetica,sans-Serif" font-size="10.00" fill="#000000">gko::preconditioner</text>
<text text-anchor="start" x="627" y="-62" font-family="Helvetica,sans-Serif" font-size="10.00" fill="#000000">::Ic&lt; LSolverType, IndexType</text>
<text text-anchor="middle" x="697" y="-51" font-family="Helvetica,sans-Serif" font-size="10.00" fill="#000000"> &gt;::parameters_type</text>
</a>
</g>
</g>
<!-- Node2 -->
<g id="node2" class="node">
<title>Node2</title>
<g id="a_node2"><a xlink:href="classgko_1_1enable__parameters__type.html" target="_top" xlink:title=" ">
<polygon fill="#ffffff" stroke="#000000" points="332.5,-99 332.5,-140 473.5,-140 473.5,-99 332.5,-99"/>
<text text-anchor="start" x="340.5" y="-128" font-family="Helvetica,sans-Serif" font-size="10.00" fill="#000000">gko::enable_parameters</text>
<text text-anchor="start" x="340.5" y="-117" font-family="Helvetica,sans-Serif" font-size="10.00" fill="#000000">_type&lt; parameters_type,</text>
<text text-anchor="middle" x="403" y="-106" font-family="Helvetica,sans-Serif" font-size="10.00" fill="#000000"> Factory &gt;</text>
</a>
</g>
</g>
<!-- Node2&#45;&gt;Node1 -->
<g id="edge1" class="edge">
<title>Node2&#45;&gt;Node1</title>
<path fill="none" stroke="#191970" d="M483.7322,-104.397C525.8274,-96.5221 577.0917,-86.9318 618.8087,-79.1276"/>
<polygon fill="#191970" stroke="#191970" points="482.9803,-100.9769 473.7945,-106.2561 484.2676,-107.8575 482.9803,-100.9769"/>
</g>
<!-- Node3 -->
<g id="node3" class="node">
<title>Node3</title>
<g id="a_node3"><a xlink:href="classgko_1_1enable__parameters__type.html" target="_top" xlink:title="The enable_parameters_type mixin is used to create a base implementation of the factory parameters st...">
<polygon fill="#ffffff" stroke="#000000" points="0,-99 0,-140 179,-140 179,-99 0,-99"/>
<text text-anchor="start" x="8" y="-128" font-family="Helvetica,sans-Serif" font-size="10.00" fill="#000000">gko::enable_parameters</text>
<text text-anchor="start" x="8" y="-117" font-family="Helvetica,sans-Serif" font-size="10.00" fill="#000000">_type&lt; ConcreteParametersType,</text>
<text text-anchor="middle" x="89.5" y="-106" font-family="Helvetica,sans-Serif" font-size="10.00" fill="#000000"> Factory &gt;</text>
</a>
</g>
</g>
<!-- Node3&#45;&gt;Node2 -->
<g id="edge2" class="edge">
<title>Node3&#45;&gt;Node2</title>
<path fill="none" stroke="#ffa500" stroke-dasharray="5,2" d="M189.4396,-119.5C235.9379,-119.5 290.1492,-119.5 332.317,-119.5"/>
<polygon fill="#ffa500" stroke="#ffa500" points="189.3366,-116.0001 179.3365,-119.5 189.3365,-123.0001 189.3366,-116.0001"/>
<text text-anchor="start" x="203" y="-133.5" font-family="Helvetica,sans-Serif" font-size="10.00" fill="#000000"> &lt; parameters_type,</text>
<text text-anchor="middle" x="253.5" y="-122.5" font-family="Helvetica,sans-Serif" font-size="10.00" fill="#000000"> Factory &gt;</text>
</g>
<!-- Node4 -->
<g id="node4" class="node">
<title>Node4</title>
<g id="a_node4"><a xlink:title=" ">
<polygon fill="#ffffff" stroke="#bfbfbf" points="328,-49.5 328,-79.5 478,-79.5 478,-49.5 328,-49.5"/>
<text text-anchor="start" x="336" y="-67.5" font-family="Helvetica,sans-Serif" font-size="10.00" fill="#000000">std::shared_ptr&lt; typename</text>
<text text-anchor="middle" x="403" y="-56.5" font-family="Helvetica,sans-Serif" font-size="10.00" fill="#000000"> l_solver_type::Factory &gt;</text>
</a>
</g>
</g>
<!-- Node4&#45;&gt;Node1 -->
<g id="edge3" class="edge">
<title>Node4&#45;&gt;Node1</title>
<path fill="none" stroke="#9a32cd" stroke-dasharray="5,2" d="M488.3462,-64.5C529.5249,-64.5 578.5868,-64.5 618.7872,-64.5"/>
<polygon fill="#9a32cd" stroke="#9a32cd" points="488.3306,-61.0001 478.3305,-64.5 488.3305,-68.0001 488.3306,-61.0001"/>
<text text-anchor="middle" x="548.5" y="-67.5" font-family="Helvetica,sans-Serif" font-size="10.00" fill="#000000"> l_solver_factory</text>
</g>
<!-- Node5 -->
<g id="node5" class="node">
<title>Node5</title>
<g id="a_node5"><a xlink:title="STL class.">
<polygon fill="#ffffff" stroke="#bfbfbf" points="30.5,-29 30.5,-48 148.5,-48 148.5,-29 30.5,-29"/>
<text text-anchor="middle" x="89.5" y="-36" font-family="Helvetica,sans-Serif" font-size="10.00" fill="#000000">std::shared_ptr&lt; T &gt;</text>
</a>
</g>
</g>
<!-- Node5&#45;&gt;Node4 -->
<g id="edge4" class="edge">
<title>Node5&#45;&gt;Node4</title>
<path fill="none" stroke="#ffa500" stroke-dasharray="5,2" d="M158.9227,-44.2575C208.9837,-48.4093 276.4975,-54.0086 327.8295,-58.2658"/>
<polygon fill="#ffa500" stroke="#ffa500" points="159.0906,-40.7595 148.8355,-43.421 158.512,-47.7356 159.0906,-40.7595"/>
<text text-anchor="start" x="200.5" y="-70.5" font-family="Helvetica,sans-Serif" font-size="10.00" fill="#000000"> &lt; typename l_solver</text>
<text text-anchor="middle" x="253.5" y="-59.5" font-family="Helvetica,sans-Serif" font-size="10.00" fill="#000000">_type::Factory &gt;</text>
</g>
<!-- Node6 -->
<g id="node6" class="node">
<title>Node6</title>
<g id="a_node6"><a xlink:title=" ">
<polygon fill="#ffffff" stroke="#bfbfbf" points="343.5,-.5 343.5,-30.5 462.5,-30.5 462.5,-.5 343.5,-.5"/>
<text text-anchor="start" x="351.5" y="-18.5" font-family="Helvetica,sans-Serif" font-size="10.00" fill="#000000">std::shared_ptr&lt; gko</text>
<text text-anchor="middle" x="403" y="-7.5" font-family="Helvetica,sans-Serif" font-size="10.00" fill="#000000">::LinOpFactory &gt;</text>
</a>
</g>
</g>
<!-- Node5&#45;&gt;Node6 -->
<g id="edge6" class="edge">
<title>Node5&#45;&gt;Node6</title>
<path fill="none" stroke="#ffa500" stroke-dasharray="5,2" d="M158.636,-28.6069C171.3733,-27.0374 184.5721,-25.5787 197,-24.5 246.2162,-20.2281 302.2324,-17.9465 343.4157,-16.7508"/>
<polygon fill="#ffa500" stroke="#ffa500" points="158.0248,-25.1562 148.5435,-29.8842 158.9038,-32.1008 158.0248,-25.1562"/>
<text text-anchor="middle" x="253.5" y="-27.5" font-family="Helvetica,sans-Serif" font-size="10.00" fill="#000000"> &lt; gko::LinOpFactory &gt;</text>
</g>
<!-- Node6&#45;&gt;Node1 -->
<g id="edge5" class="edge">
<title>Node6&#45;&gt;Node1</title>
<path fill="none" stroke="#9a32cd" stroke-dasharray="5,2" d="M472.8602,-27.1434C516.7439,-34.4573 573.425,-43.9042 618.8076,-51.4679"/>
<polygon fill="#9a32cd" stroke="#9a32cd" points="473.289,-23.6666 462.8497,-25.4749 472.1382,-30.5714 473.289,-23.6666"/>
<text text-anchor="middle" x="548.5" y="-50.5" font-family="Helvetica,sans-Serif" font-size="10.00" fill="#000000"> factorization_factory</text>
</g>
</g>
</svg>
